<?xml version="1.0" encoding="UTF-8" standalone="no"?>
<!-- Created with sK1/UniConvertor (http://sk1project.org/) -->

<svg
   xmlns:dc="http://purl.org/dc/elements/1.1/"
   xmlns:cc="http://creativecommons.org/ns#"
   xmlns:rdf="http://www.w3.org/1999/02/22-rdf-syntax-ns#"
   xmlns:svg="http://www.w3.org/2000/svg"
   xmlns="http://www.w3.org/2000/svg"
   xmlns:sodipodi="http://sodipodi.sourceforge.net/DTD/sodipodi-0.dtd"
   xmlns:inkscape="http://www.inkscape.org/namespaces/inkscape"
   width="595.276pt"
   height="841.89pt"
   viewBox="0 0 595.276 841.89"
   fill-rule="evenodd"
   version="1.1"
   id="svg350"
   sodipodi:docname="akuma.svg"
   inkscape:version="0.92.4 (5da689c313, 2019-01-14)">
  <metadata
     id="metadata356">
    <rdf:RDF>
      <cc:Work
         rdf:about="">
        <dc:format>image/svg+xml</dc:format>
        <dc:type
           rdf:resource="http://purl.org/dc/dcmitype/StillImage" />
      </cc:Work>
    </rdf:RDF>
  </metadata>
  <defs
     id="defs354" />
  <sodipodi:namedview
     pagecolor="#ffffff"
     bordercolor="#666666"
     borderopacity="1"
     objecttolerance="10"
     gridtolerance="10"
     guidetolerance="10"
     inkscape:pageopacity="0"
     inkscape:pageshadow="2"
     inkscape:window-width="1366"
     inkscape:window-height="715"
     id="namedview352"
     showgrid="false"
     inkscape:zoom="0.59465202"
     inkscape:cx="269.99267"
     inkscape:cy="685.06451"
     inkscape:window-x="-8"
     inkscape:window-y="22"
     inkscape:window-maximized="1"
     inkscape:current-layer="svg350" />
  <g
     id="g348"
     transform="matrix(-1.1600445,0,0,1.2177957,1449.3214,-1166.7164)">
    <g
       id="g346">
      <path
         style="fill:#ce9c9c;stroke:#000000;stroke-width:1.50619996"
         d="m 849.594,1183.38 c 0,0 -15.816,27.87 -13.932,36.15 1.883,8.29 15.815,15.07 15.061,18.83 -0.753,3.77 -6.777,13.56 -4.142,16.95 2.637,3.39 12.428,15.06 13.557,23.72 1.129,8.66 5.272,36.15 2.636,41.04 -2.636,4.9 -9.414,7.16 -5.649,10.92 3.765,3.77 14.309,16.2 14.309,17.7 0,1.51 0.376,7.91 18.829,10.17 18.451,2.26 29.748,4.89 31.63,16.19 1.884,11.3 6.402,39.54 13.557,45.94 -1.506,7.91 -17.698,12.05 -1.506,25.61 l 9.79,14.93 43.681,-24.09 109.955,-69.29 31.63,-15.06 15.06,-24.61 7.53,-9.53 c 0,0 -1.5,0 -3.01,-12.56 -1.5,-12.55 -15.56,-19.08 -26.11,-51.21 l -32.13,-87.86 -42.18,-13.56 -34.64,-26.61 -12.05,-18.07 -84.347,-4.02 -44.684,22.59 -16.569,32.64 z"
         id="path2"
         inkscape:connector-curvature="0" />
      <path
         style="fill:#9d5b78;stroke:none"
         d="m 937.206,1197.94 c 0,0 33.138,0.51 34.643,0.51 1.507,0 9.54,-6.53 30.121,-10.05 20.59,-3.51 24.61,-20.58 15.57,-29.12 -9.04,-8.53 -35.147,-8.03 -35.147,-8.03 l -7.029,7.53 z"
         id="path4"
         inkscape:connector-curvature="0" />
      <path
         style="fill:#e7cebb;stroke:none"
         d="m 922.145,1119.62 c 0,0 -62.761,8.03 -63.262,51.71 1.004,8.04 17.07,-4.01 19.581,-11.04 2.51,-7.03 -8.535,-14.06 43.681,-40.67 z"
         id="path6"
         inkscape:connector-curvature="0" />
      <path
         style="fill:#794252;stroke:none"
         d="m 1040.64,1181.38 -8.54,14.56 -24.6,-2.01 -3.02,2.01 c 0,0 12.05,3.51 15.07,9.54 3.01,6.02 6.52,18.57 12.05,27.61 -3.02,13.05 -9.04,24.6 -11.55,32.63 -2.51,8.04 -2.51,8.04 -2.51,8.04 0,0 -23.096,-1.51 -28.117,-3.01 -5.021,-1.51 -2.511,8.03 -5.524,9.03 -3.011,1.01 -13.618,-0.94 -13.618,-0.94 0,0 1.066,7.47 -0.44,9.48 -1.505,2.01 -18.577,16.06 -21.088,36.65 37.155,1 40.168,1.51 46.695,0.5 6.522,-1 41.172,-27.11 43.182,-30.63 2.01,-3.51 9.53,-32.13 11.04,-36.14 1.51,-4.02 3.52,-4.52 3.52,-4.52 0,0 -1.01,5.52 1.5,6.02 2.51,0.5 17.58,10.55 28.12,-5.52 -9.04,-10.55 -16.57,-12.55 -28.12,-12.05 3.02,-6.53 5.15,-10.92 4.65,-15.94 -0.51,-5.02 -6.03,-4.65 -7.53,-8.66 -1.51,-4.02 -1.13,-5.65 -1.13,-5.65 0,0 -26.11,-5.9 -10.04,-31 z"
         id="path8"
         inkscape:connector-curvature="0" />
      <path
         style="fill:#794242;stroke:none"
         d="m 840.809,1201.08 c 0,0 -1.257,10.17 4.015,4.65 3.012,1.25 24.352,5.02 14.812,18.57 -3.641,10.3 -1.497,10.31 -3.883,10.56 -4.016,-0.63 -4.026,4.13 -5.28,2.37 -1.255,-1.76 -6.653,-7.4 -8.159,-8.28 -1.505,-0.88 -5.899,-7.28 -6.023,-7.79 -0.128,-0.5 -2.136,-2.38 -0.253,-8.03 1.882,-5.65 4.771,-12.05 4.771,-12.05 z"
         id="path10"
         inkscape:connector-curvature="0" />
      <path
         style="fill:#794242;stroke:none"
         d="m 992.937,1198.45 c 0,0 0.092,0.15 0.253,0.43 1.664,2.92 15.31,26.87 5.771,22.66 -5.32,-2.34 -21.148,4.02 -22.278,7.78 -0.457,1.52 2.662,3.05 3.765,5.65 7.029,16.57 17.51,29.19 11.485,36.72 -6.654,8.31 -4.016,-0.44 -4.016,-0.44 0,0 8.033,-13.56 -32.133,-36.15 -6.025,-2.51 -11.549,-4.02 -14.562,-0.5 -3.013,3.51 -18.33,10.56 -33.637,15.06 -16.004,4.71 -29.121,6.02 -32.636,6.53 -3.515,0.5 -0.878,-7.66 -0.878,-7.66 0,0 -7.845,0.25 -10.356,-0.75 -2.509,-1.01 13.431,-3.65 28.995,-16.2 10.543,-3.51 27.05,-12.3 32.573,-15.81 5.522,-3.52 5.899,13.8 6.4,14.81 0.502,1 12.552,-9.04 22.594,-3.01 -3.013,-13.06 3.138,-16.26 -12.427,-18.77 15.565,-2.01 12.427,1.19 12.427,1.19 0,0 -4.017,-6.02 14.56,-6.02 30.627,6.53 24.1,-5.52 24.1,-5.52 z"
         id="path12"
         inkscape:connector-curvature="0" />
      <path
         style="fill:#794242;stroke:none"
         d="m 849.977,1241.57 c 0,0 -5.153,13.11 0.37,13.61 5.523,0.5 16.067,12.55 21.589,1.51 3.013,-3.52 3.013,-0.5 3.013,-0.5 l -0.69,25.85 c 0,0 -4.143,0.25 -4.143,3.77 0,3.51 -2.635,19.08 1.882,19.58 -0.501,4.01 -1.567,9.54 -2.572,12.05 -1.004,2.51 -13.556,12.55 -12.301,13.55 l -1.218,-1.71 0.54,-2.15 4.133,-4.14 c 0,0 3.954,-5.75 3.236,-10.6 -0.719,-4.86 -2.337,-34.69 -5.213,-39 -2.876,-4.32 -9.886,-16.54 -12.762,-19.6 0.361,-5.39 2.888,-11.16 4.136,-12.22 z"
         id="path14"
         inkscape:connector-curvature="0" />
      <path
         style="fill:#794242;stroke:none"
         d="m 1039.13,1182.38 c 0,0 0.5,21.59 -0.5,24.6 -1.01,3.01 6.52,7.53 9.03,5.52 2.51,-2 21.59,22.1 7.03,30.13 -14.56,8.03 20.59,8.53 22.09,11.55 1.51,3.01 20.09,-6.03 23.1,-18.58 3.01,-12.55 -7.03,-52.72 -7.03,-52.72 l -20.58,-7.03 z"
         id="path16"
         inkscape:connector-curvature="0" />
      <path
         style="fill:#794242;stroke:none"
         d="m 940.219,1293.34 c 0,0 -38.158,1.5 -50.208,9.04 10.543,1.5 8.033,5.02 17.071,5.02 2.008,-5.02 42.175,-6.03 33.137,-14.06 z"
         id="path18"
         inkscape:connector-curvature="0" />
      <path
         style="fill:#300d05;stroke:none"
         d="m 951.767,1181.38 9.79,5.02 7.532,-3.27 4.77,-5.77 1.255,-9.29 -9.289,-9.79 -11.045,0.5 c 0,0 -8.787,-0.25 -20.083,6.03 -11.297,6.27 -12.303,2.51 -19.583,7.78 -7.279,5.27 -14.308,13.3 -14.308,13.3 0,0 -4.267,4.77 -8.284,3.52 -4.019,-1.26 -1.758,-3.26 -4.52,-3.26 -2.759,0 2.009,9.79 6.779,10.79 4.77,1 25.356,2.01 28.87,1 3.514,-1 28.116,-16.56 28.116,-16.56 z"
         id="path20"
         inkscape:connector-curvature="0" />
      <path
         style="fill:#794242;stroke:none"
         d="m 973.859,1120.12 c 0,0 -37.656,3.52 -35.145,23.6 10.039,0.5 17.572,2.51 15.062,14.06 1.004,5.02 10.543,-4.02 20.083,17.57 -9.54,1.51 -8.032,5.02 -8.535,6.53 -0.503,1.5 -2.512,4.01 -13.557,-0.5 -7.028,4.01 -1.507,8.53 -29.121,8.53 -3.012,5.52 0.502,6.53 1.005,8.03 0.501,1.51 -20.083,-1.5 -22.593,-1 -2.512,0.5 29.621,4.52 40.164,0 10.545,-4.52 11.55,-7.53 16.57,-7.53 5.02,0 23.597,0 27.113,-9.54 3.512,-9.54 -4.519,-22.59 -5.023,-24.1 -0.501,-1.51 29.118,2.01 29.118,2.01 l -8.03,-36.15 -16.065,-6.53 z"
         id="path22"
         inkscape:connector-curvature="0" />
      <path
         style="fill:#000000;stroke:none"
         d="m 952.579,1181.31 c 0,0 -2.526,-4.84 -12.209,-6.1 -9.685,-1.26 -18.105,7.79 -19.789,9.05 -1.683,1.26 -11.557,5.43 -21.03,13.43 5.053,1.27 6.3,0.34 9.037,0.76 4.786,0.73 13.711,0.34 15.063,-0.51 1.351,-0.84 -5.846,-1.08 -1.386,-7.15 l 19.999,-1.9 z"
         id="path24"
         inkscape:connector-curvature="0" />
      <defs
         id="defs35">
        <linearGradient
           id="1"
           x1="923.04797"
           y1="1199.46"
           x2="947.78601"
           y2="1166.25"
           gradientUnits="userSpaceOnUse">
          <stop
             offset="0"
             style="stop-color:#f3b5c3"
             id="stop26" />
          <stop
             offset="0.248797"
             style="stop-color:#f3b5c3"
             id="stop28" />
          <stop
             offset="0.719572"
             style="stop-color:#d6365f"
             id="stop30" />
          <stop
             offset="1"
             style="stop-color:#d6365f"
             id="stop32" />
        </linearGradient>
      </defs>
      <path
         style="fill:url(#1);stroke:#000000;stroke-width:0.75309998"
         d="m 951.767,1181.38 c 0,0 -10.795,-8.04 -20.837,-4.27 -10.042,3.76 -12.3,10.54 -11.798,11.29 0.502,0.76 12.3,2.01 20.837,0.51 7.028,-1.26 11.798,-7.53 11.798,-7.53 z"
         id="path37"
         inkscape:connector-curvature="0" />
      <path
         style="fill:#794242;stroke:none"
         d="m 995.448,1325.47 c 0,0 -78.826,-4.52 -81.338,-3.01 -2.508,1.5 -6.525,16.57 -7.028,19.58 -2.511,-4.52 -8.536,-14.56 -12.049,-15.06 -3.515,-0.5 0,0 0,0 0,0 -17.072,-3.02 -19.581,2.01 -2.512,5.02 0,10.54 2.006,13.55 -3.011,3.52 -3.513,5.02 -5.522,3.52 -2.007,-1.51 1.381,6.78 1.381,6.78 l 7.908,3.76 c 0,0 19.329,3.77 29.371,5.52 5.865,1.03 9.381,6.22 10.292,9.04 0.964,2.99 1.257,3.27 2.512,10.54 0,0 18.827,2.51 22.845,4.52 4.015,2.01 3.514,6.03 3.514,6.03 0,0 19.581,8.53 27.614,3.01 8.033,-5.52 19.581,-31.63 19.581,-31.63 l -3.514,-15.06 z"
         id="path39"
         inkscape:connector-curvature="0" />
      <path
         style="fill:#792121;stroke:none"
         d="m 858.131,1229.07 c 7.655,-16.32 2.51,-16.57 2.759,-18.2 0.252,-1.63 -6.256,-4.67 -8.66,-6.27 -4.141,-2.76 -8.284,2.13 -8.284,2.13 7.781,0.38 8.535,8.28 12.174,8.41 3.641,0.13 5.776,4.52 2.011,13.93 z"
         id="path41"
         inkscape:connector-curvature="0" />
      <defs
         id="defs52">
        <linearGradient
           id="2"
           x1="872.68903"
           y1="1254.98"
           x2="990.11298"
           y2="1260.3199"
           gradientUnits="userSpaceOnUse">
          <stop
             offset="0"
             style="stop-color:#ffffff"
             id="stop43" />
          <stop
             offset="0.156552"
             style="stop-color:#ffffff"
             id="stop45" />
          <stop
             offset="0.862091"
             style="stop-color:#aaaeb3"
             id="stop47" />
          <stop
             offset="1"
             style="stop-color:#aaaeb3"
             id="stop49" />
        </linearGradient>
      </defs>
      <path
         style="fill:url(#2);stroke:none"
         d="m 873.882,1257 18.451,-3.01 16.381,-4.33 14.309,-4.52 c 0,0 8.535,-3.89 10.669,-5.52 2.134,-1.64 7.218,-5.97 11.172,-6.53 3.953,-0.56 6.589,0 9.224,1.88 2.637,1.89 12.993,7.53 12.993,7.53 l 12.049,9.42 7.531,8.28 2.448,7.34 -0.753,7.35 -3.766,3.95 -1.882,1.32 c 0,0 -21.84,-1.88 -26.547,-2.26 -4.708,-0.38 -25.607,-1.69 -27.301,-1.51 -1.695,0.19 -23.724,1.51 -23.724,1.51 l -16.004,1.32 -14.308,3.2 -1.13,-10.36 0.188,-10.35 V 1257"
         id="path54"
         inkscape:connector-curvature="0" />
      <path
         style="fill:#794242;stroke:none"
         d="m 1122.98,1267.73 c 0,0 1,70.8 2.5,71.8 1.51,1 -84.84,25.1 -84.84,25.1 l -6.03,-32.63 -2.51,-10.54 14.06,-27.62 6.52,-11.04 25.61,-20.09 13.05,-7.53 z"
         id="path56"
         inkscape:connector-curvature="0" />
      <path
         style="fill:#000000;stroke:none"
         d="m 890.279,1172.41 c 0,0 -9.483,7.01 -12.781,16.29 8.451,-7.63 5.153,-9.9 12.781,-16.29 z"
         id="path58"
         inkscape:connector-curvature="0" />
      <path
         style="fill:#000000;stroke:none"
         d="m 879.56,1199.01 c 0,0 13.192,4.32 14.841,6.8 -11.75,-3.09 -9.069,-2.89 -13.192,-2.06 1.238,-3.3 -2.474,-4.74 -1.649,-4.74 z"
         id="path60"
         inkscape:connector-curvature="0" />
      <path
         style="fill:#794252;stroke:none"
         d="m 878.117,1204.46 c 0,0 -9.111,-0.54 -11.337,3.52 8.503,-3.25 9.718,-3.25 11.337,-3.52 z"
         id="path62"
         inkscape:connector-curvature="0" />
      <path
         style="fill:#e7cebb;stroke:none"
         d="m 869.871,1211.79 c 0,0 -7.008,-1.24 -8.244,2.47 -1.238,3.71 -7.216,20.82 -5.361,25.15 3.222,-0.26 6.481,-4.2 10.084,-6.32 2.162,-1.27 5.609,-0.3 5.995,-1.93 1.03,-4.33 0,-20.4 -2.474,-19.37 z"
         id="path64"
         inkscape:connector-curvature="0" />
      <path
         style="fill:#000000;stroke:none"
         d="m 854.866,1205.98 c 0,0 7.791,3.95 6.761,8.28 -1.031,4.33 -3.677,9.68 -4.502,13.18 0,0 -3.669,-0.78 -4.141,-6.02 -0.366,-4.06 1.919,-8.85 1.222,-9.43 -6.738,-5.58 0.66,-6.01 0.66,-6.01 z"
         id="path66"
         inkscape:connector-curvature="0" />
      <path
         style="fill:#000000;stroke:none"
         d="m 856.473,1231.37 c 0,0 -4.536,11.13 10.307,16.9 10.924,-4.12 17.521,-0.2 27.416,-10.1 9.895,-9.89 21.849,-18.55 30.3,-21.64 -10.306,11.75 -12.366,11.95 -17.314,16.9 -4.949,4.95 -16.078,14.02 -20.408,15.05 -4.327,1.03 -5.771,-1.03 -8.657,-0.83 -2.887,0.21 -7.832,4.33 -12.162,1.86 -2.886,-1.65 -11.957,-3.51 -9.482,-18.14 z"
         id="path68"
         inkscape:connector-curvature="0" />
      <path
         style="fill:#000000;stroke:none"
         d="m 869.047,1200.65 c 0,0 -7.422,6.6 -9.07,13.82 -1.236,4.74 -0.206,4.74 -0.206,4.74 0,0 7.009,-17.73 9.276,-18.56 z"
         id="path70"
         inkscape:connector-curvature="0" />
      <path
         style="fill:#794252;stroke:none"
         d="m 906.152,1204.57 c 0,0 -14.637,7.01 -15.873,10.31 14.017,-8.66 14.223,-10.93 15.873,-10.31 z"
         id="path72"
         inkscape:connector-curvature="0" />
      <path
         style="fill:#000000;stroke:none"
         d="m 860.182,1178.08 c 0,0 2.061,-7.75 17.935,-13.91 -17.933,16.28 -17.728,16.74 -19.172,17.93"
         id="path74"
         inkscape:connector-curvature="0" />
      <path
         style="fill:#000000;stroke:none"
         d="m 917.992,1149.7 c 0,0 29.899,-13.41 56.587,-2.23 -38.563,-3.22 -45.549,-0.14 -56.587,2.23 z"
         id="path76"
         inkscape:connector-curvature="0" />
      <path
         style="fill:#794252;stroke:none"
         d="m 899.801,1199.2 c 0,0 -8.283,2.26 -9.037,14.81 4.269,-11.3 7.03,-12.55 9.037,-14.81 z"
         id="path78"
         inkscape:connector-curvature="0" />
      <path
         style="fill:#794252;stroke:none"
         d="m 907.909,1212.6 c 0,0 -9.752,4.67 -14.008,8.18 -0.959,0.79 -1.638,1.53 -1.865,2.13 14.018,-8.66 14.225,-10.92 15.873,-10.31 z"
         id="path80"
         inkscape:connector-curvature="0" />
      <path
         style="fill:#794252;stroke:none"
         d="m 893.777,1234.09 c -2.381,0 -3.013,-8.28 -0.754,-12.05 0,6.53 1.506,12.05 0.754,12.05 z"
         id="path82"
         inkscape:connector-curvature="0" />
      <path
         style="fill:#000000;stroke:none"
         d="m 940.721,1208.49 c 0,0 27.112,1 40.668,29.12 -17.07,-19.58 -33.137,-25.61 -40.668,-29.12 z"
         id="path84"
         inkscape:connector-curvature="0" />
      <path
         style="fill:#000000;stroke:none"
         d="m 976.872,1228.57 c 0,0 9.539,-11.55 23.093,-8.03 -3.011,-9.04 0.505,-9.54 -4.517,-17.07 10.042,16.57 7.032,19.08 6.522,21.08 -3.511,-0.5 -4.514,-6.02 -25.098,4.02 z"
         id="path86"
         inkscape:connector-curvature="0" />
      <path
         style="fill:#000000;stroke:none"
         d="m 981.201,1279.97 c 0,0 -41.484,-4.2 -55.543,-4.71 -14.056,-0.5 -52.216,5.53 -55.227,7.54 -2.701,1.8 -2.577,17.73 -0.35,22.45 0.257,0.54 0.541,0.93 0.851,1.14 3.014,2.01 9.541,-0.5 19.583,-3.01 10.039,-2.51 40.165,-11.05 49.704,-10.04 -20.585,0.5 -46.693,4.02 -52.217,6.02 0,0 -11.044,9.04 -14.56,5.02 -3.513,-4.01 -4.518,-15.06 -2.008,-18.57 2.512,-3.52 20.899,-10.36 109.767,-5.84 z"
         id="path88"
         inkscape:connector-curvature="0" />
      <path
         style="fill:#a30010;stroke:#794252;stroke-width:0.75309998;stroke-linecap:round;stroke-linejoin:round"
         d="m 874.636,1257.57 c 0,0 -0.69,2.13 0.313,3.38 1.679,1.86 4.77,-1 7.03,8.1 1.505,-8.85 4.706,-12.05 7.342,-10.73 2.635,1.32 4.141,4.52 3.953,6.4 1.13,-8.1 6.402,-13.56 10.732,-12.99 5.084,2.64 9.039,4.71 9.603,8.47 4.708,-7.34 12.237,-15.06 19.204,-10.17 1.884,4.15 1.131,11.18 4.518,2.83 0.951,-2.34 8.287,-8.66 11.674,-8.1 3.39,0.57 6.591,3.58 7.533,6.4 3.011,-6.4 4.707,-8.28 7.34,-7.71 2.638,0.56 11.674,10.54 11.674,10.54 0,0 2.073,3.58 1.32,5.08 4.706,0 6.401,-0.19 7.907,1.88 1.506,2.08 -4.331,-10.16 -22.97,-21.08 -9.791,-5.27 -10.356,-6.97 -14.499,-7.16 -4.141,-0.18 -9.413,3.58 -10.167,3.96 -0.753,0.37 -3.953,3.95 -8.848,6.02 -4.895,2.07 -16.568,6.78 -22.594,7.72 -6.025,0.94 -16.945,3.96 -16.945,3.96 z"
         id="path90"
         inkscape:connector-curvature="0" />
      <path
         style="fill:none;stroke:#000000;stroke-width:1.50619996;stroke-linecap:round;stroke-linejoin:round"
         d="m 950.135,1233.09 c 0,0 -6.401,-2.64 -16.443,6.53 -11.046,8.03 -45.69,16.06 -59.81,17.38"
         id="path92"
         inkscape:connector-curvature="0" />
      <path
         style="fill:#000000;stroke:none"
         d="m 980.386,1280.28 c 0,0 27.864,-12.99 -30.438,-46.63 1.002,0.07 -1.376,-1.79 0.376,-1.12 12.264,4.67 43.617,24.78 43.617,32.69 0,9.04 -11.546,20.59 -13.555,15.06 z"
         id="path94"
         inkscape:connector-curvature="0" />
      <path
         style="fill:none;stroke:#794252;stroke-width:1.50619996;stroke-linecap:round;stroke-linejoin:round"
         d="m 874.259,1272.25 c 0,0 4.205,8.03 6.214,7.53 2.007,-0.5 1.317,-8.66 2.069,-10.16 0.753,-1.51 2.95,4.39 4.708,5.14 1.758,0.75 5.021,-12.05 6.276,-11.29 1.255,0.75 11.548,7.53 12.804,10.04 1.255,2.51 7.279,-13.31 7.279,-13.31 0,0 1.505,-5.52 13.556,10.55 4.017,-3.77 7.028,-13.56 8.034,-13.06 1.004,0.5 9.036,7.03 11.548,13.81"
         id="path96"
         inkscape:connector-curvature="0" />
      <path
         style="fill:none;stroke:#794252;stroke-width:2.25929999;stroke-linecap:round;stroke-linejoin:round"
         d="m 893.526,1263.47 c 0,0 12.039,7.73 12.3,11.04"
         id="path98"
         inkscape:connector-curvature="0" />
      <path
         style="fill:none;stroke:#794252;stroke-width:2.25929999;stroke-linecap:round;stroke-linejoin:round"
         d="m 915.632,1258.67 c 0,0 11.017,10.2 10.766,13.86"
         id="path100"
         inkscape:connector-curvature="0" />
      <path
         style="fill:none;stroke:#794252;stroke-width:2.25929999;stroke-linecap:round;stroke-linejoin:round"
         d="m 935.463,1256.91 c 0,0 12.81,13.22 12.537,17.1"
         id="path102"
         inkscape:connector-curvature="0" />
      <path
         style="fill:none;stroke:#794252;stroke-width:2.25929999;stroke-linecap:round;stroke-linejoin:round"
         d="m 959.298,1258.19 c 0,0 8.11,8.16 8.786,11.05"
         id="path104"
         inkscape:connector-curvature="0" />
      <path
         style="fill:none;stroke:#794252;stroke-width:0.75309998;stroke-linecap:round;stroke-linejoin:round"
         d="m 976.118,1259.45 c 0,0 6.003,9.38 4.518,8.03 -2.789,-2.54 -3.263,-7.03 -4.518,-8.03 -1.255,-1.01 -5.523,9.29 -8.034,9.79 -2.51,0.5 -7.531,-10.54 -9.79,-10.54 -2.26,0 -9.289,17.07 -10.294,15.31"
         id="path106"
         inkscape:connector-curvature="0" />
      <path
         style="fill:#000000;stroke:none"
         d="m 870.673,1249.4 c 0,0 -10.284,5.28 -10.284,7.79 0,2.51 1.533,4.98 1.533,4.98 0,0 8.751,-9.73 8.751,-12.77 z"
         id="path108"
         inkscape:connector-curvature="0" />
      <path
         style="fill:#000000;stroke:none"
         d="m 875.576,1306.14 c 0,0 9.038,2.64 4.52,10.92 -1.884,-3.39 0.752,-6.4 -4.52,-10.92 z"
         id="path110"
         inkscape:connector-curvature="0" />
      <path
         style="fill:#000000;stroke:none"
         d="m 1012.27,1260.58 c 0,0 7.9,13.55 7.53,25.6 4.89,-6.02 0.37,-9.79 -7.53,-25.6 z"
         id="path112"
         inkscape:connector-curvature="0" />
      <path
         style="fill:#000000;stroke:none"
         d="m 907.219,1343.39 c 0,0 -4.987,-11.44 -9.957,-14.92 -4.97,-3.49 -4.84,-0.83 -4.84,-0.83 0,0 10.62,7.79 14.797,15.75 z"
         id="path114"
         inkscape:connector-curvature="0" />
      <path
         style="fill:#300d05;stroke:none"
         d="m 913.985,1350.58 c 0,0 37.656,0.37 44.057,-1.89 6.402,-2.26 29.373,-18.07 36.527,-22.59 7.151,-4.52 40.671,-25.61 44.061,-31.26 3.39,-5.64 8.48,-38.73 14.56,-40.66 0.5,5.65 4.01,8.03 11.04,9.03 -4.52,7.54 -5.65,14.69 -6.02,21.09 -0.38,6.4 -10.17,30.88 -21.09,39.16 0,0 -23.72,30.88 -30.13,32.76 -6.4,1.89 -30.118,0.38 -52.713,-1.5 -22.594,-1.88 -40.292,-4.14 -40.292,-4.14 z"
         id="path116"
         inkscape:connector-curvature="0" />
      <path
         style="fill:#000000;stroke:none"
         d="m 907.471,1361.46 c 0,0 3.294,-0.16 7.665,0.96 8.222,2.11 20.364,5.78 28.477,8.48 13.932,1.13 -13.172,3.36 -17.314,2.23 -4.143,-1.13 -1.882,-6.02 -18.828,-11.67 z"
         id="path118"
         inkscape:connector-curvature="0" />
      <path
         style="fill:none;stroke:#000000;stroke-width:1.50619996;stroke-linecap:round;stroke-linejoin:round"
         d="m 915.367,1351.33 c 0,0 39.664,-1.51 42.675,-2.64 3.014,-1.13 73.808,-45.18 82.088,-54.97"
         id="path120"
         inkscape:connector-curvature="0" />
      <path
         style="fill:#000000;stroke:none"
         d="m 871.998,1282.8 1.884,-25.8 0.565,-0.81 c 0,0 -0.565,24.1 0.942,25.1 1.505,1 -3.391,1.51 -3.391,1.51 z"
         id="path122"
         inkscape:connector-curvature="0" />
      <path
         style="fill:#000000;stroke:none"
         d="m 1040.51,1198.82 c 0,0 19.58,-7.91 25.6,-15.81 -13.17,15.44 -16.19,16.94 -25.6,15.81"
         id="path124"
         inkscape:connector-curvature="0" />
      <path
         style="fill:#000000;stroke:none"
         d="m 1094.73,1211.63 c 0,0 -12.42,-20.72 -21.08,-22.22 0,0 -3.39,-0.75 -6.41,2.26 -3.01,3.01 -10.16,15.44 -18.07,17.7 0,0 5.65,1.88 7.91,1.13 2.26,-0.76 2.26,-7.16 4.14,-7.16 1.88,0 4.14,0.38 6.4,2.26 2.26,1.88 6.4,9.79 9.41,5.65 4.52,1.88 8.67,10.92 13.18,6.4 4.52,-4.52 6.03,-3.77 4.52,-6.02"
         id="path126"
         inkscape:connector-curvature="0" />
      <path
         style="fill:#000000;stroke:none"
         d="m 1088.33,1218.78 c 0,0 -1.5,15.82 -4.89,18.83 0,-7.53 3.76,-16.95 1.5,-21.47 -2.26,-4.51 3.39,2.64 3.39,2.64 z"
         id="path128"
         inkscape:connector-curvature="0" />
      <path
         style="fill:#000000;stroke:none"
         d="m 1067.62,1205.6 c 0,0 10.17,12.43 8.66,15.82 0.75,-10.17 0,-13.18 -8.66,-15.82 z"
         id="path130"
         inkscape:connector-curvature="0" />
      <path
         style="fill:#000000;stroke:none"
         d="m 1050.3,1210.5 c 0,0 -5.65,6.77 6.78,13.18 1.5,6.4 0.75,9.03 -1.13,12.04 -1.88,3.02 -7.16,10.17 5.27,6.03 7.15,2.26 7.15,4.52 9.79,5.27 2.64,0.76 10.92,-0.75 6.02,-3.01 -4.89,-2.26 -9.03,-1.88 -10.92,-3.39 -1.88,-1.51 -1.5,-6.02 1.89,-9.04 3.39,-3.01 1.88,-13.93 -5.65,-17.7 -7.53,-3.76 -4.14,1.13 -12.05,-3.38 z"
         id="path132"
         inkscape:connector-curvature="0" />
      <path
         style="fill:#000000;stroke:none"
         d="m 1097.37,1231.58 c 0,0 0.5,14.06 -13.05,19.08 -8.04,8.04 -3.52,12.05 -20.09,12.55 0,0 -9.54,17.07 -6.02,21.09 6.02,-1 7.53,0.5 7.53,0.5 0,0 2.01,1.01 0.5,7.03 -1.51,6.03 -4.02,25.61 -3.51,34.14 0.5,8.54 -2.51,23.6 -4.02,27.62 -1.51,4.01 25.61,-1.01 25.61,-1.01 l -8.54,-5.52 c 0,0 -0.5,-45.69 2.01,-52.72 2.51,-7.03 6.53,-22.59 3.51,-25.1 0,0 4.02,2.51 6.03,-1.51 2.01,-4.02 1.5,-8.03 1.5,-8.03 0,0 12.05,-3.51 8.54,-28.12"
         id="path134"
         inkscape:connector-curvature="0" />
      <path
         style="fill:#000000;stroke:none"
         d="m 915.136,1353.46 c 0.541,-0.37 -13.559,6.12 -4.54,8.66 -2.339,-4.34 -5.058,-1.94 4.54,-8.66 z"
         id="path136"
         inkscape:connector-curvature="0" />
      <path
         style="fill:#ff9cb5;stroke:none"
         d="m 924.906,1380.7 23.346,7.53 9.79,7.53 3.014,9.79 -3.014,24.1 -0.752,15.06 -5.272,6.03 -17.321,-3.01 6.024,-18.08 c 0,0 -14.309,-29.37 -15.063,-32.38 -0.752,-3.01 -0.752,-16.57 -0.752,-16.57 z"
         id="path138"
         inkscape:connector-curvature="0" />
      <path
         style="fill:#000000;stroke:none"
         d="m 956.538,1403.29 c 0,0 -6.026,-18.07 -13.558,-24.85 -7.53,-6.78 -12.05,-6.02 -12.05,-6.02 0,0 27.865,25.6 25.608,30.87 z"
         id="path140"
         inkscape:connector-curvature="0" />
      <path
         style="fill:none;stroke:#000000;stroke-width:1.50619996"
         d="m 849.41,1183.57 c 0,0 -15.815,27.86 -13.933,36.15 1.882,8.28 15.815,15.06 15.062,18.83 -0.752,3.76 -6.778,13.55 -4.141,16.94 2.635,3.39 12.425,15.06 13.556,23.72 1.129,8.66 5.271,36.15 2.635,41.05 -2.635,4.89 -9.414,7.15 -5.648,10.92 3.766,3.76 14.309,16.19 14.309,17.7 0,1.5 0.377,7.9 18.827,10.16 18.452,2.26 29.749,4.9 31.631,16.2 1.883,11.29 6.401,39.53 13.557,45.94 -1.507,7.9 -17.699,12.05 -1.507,25.6 l 9.791,14.94 43.68,-24.1 109.951,-69.29 31.63,-15.06 15.07,-24.6 7.53,-9.54 c 0,0 -1.51,0 -3.01,-12.55 -1.51,-12.56 -15.57,-19.08 -26.11,-51.21 l -32.13,-87.87 -42.18,-13.56 -34.64,-26.6 -12.05,-18.08 -84.35,-4.02 -44.687,22.6 -16.568,32.63 z"
         id="path142"
         inkscape:connector-curvature="0" />
      <defs
         id="defs155">
        <linearGradient
           id="3"
           x1="877.56299"
           y1="1445.8101"
           x2="965.26801"
           y2="1494.05"
           gradientUnits="userSpaceOnUse">
          <stop
             offset="0"
             style="stop-color:#f3b5c3"
             id="stop144" />
          <stop
             offset="0.268492"
             style="stop-color:#f3b5c3"
             id="stop146" />
          <stop
             offset="0.431029"
             style="stop-color:#ce8e9f"
             id="stop148" />
          <stop
             offset="0.592032"
             style="stop-color:#ac3436"
             id="stop150" />
          <stop
             offset="1"
             style="stop-color:#ac3436"
             id="stop152" />
        </linearGradient>
      </defs>
      <path
         style="fill:url(#3);stroke:#000000;stroke-width:1.50619996"
         d="m 952.223,1447.76 c 0,0 -19.195,-9.46 -37.277,3.06 -18.082,12.52 -29.302,32.67 -22.163,43.32 7.14,10.65 58.255,-43.8 59.44,-46.38 z"
         id="path157"
         inkscape:connector-curvature="0" />
      <path
         style="fill:#165284;stroke:#000000;stroke-width:1.50619996"
         d="m 1248.75,1285.05 -0.76,-64.01 -31.63,14.31 -26.36,3.01 c 0,0 -14.31,9.79 -14.31,15.06 0,5.28 -4.52,33.14 -4.52,33.14 0,0 -10.54,21.84 -14.3,23.35 -3.77,1.5 -15.82,3.01 -15.82,3.01 l -18.07,21.84 c 0,0 -67.03,20.33 -79.83,22.59 0,0 -5.82,-2.84 -3.02,-10.54 3.87,-10.62 16.49,-26.92 14.31,-25.61 0,0 -6.78,4.52 -12.05,3.77 -5.27,-0.75 -3.76,-4.52 -3.76,-4.52 0,0 -11.3,18.08 -21.84,21.84 -10.55,3.77 -24.104,6.78 -21.844,14.31 2.259,7.53 -3.013,17.32 -9.038,23.35 -6.026,6.02 -13.555,13.55 -18.075,14.31 -4.519,0.75 -14.309,6.02 -13.556,15.81 0.754,9.79 -2.259,35.4 -2.259,35.4 0,0 -20.335,20.33 -30.878,28.62 -10.544,8.28 -45.939,31.63 -57.236,41.42 -11.297,9.79 -54.224,54.97 -61.003,61.75 -6.779,6.78 -39.915,54.23 -37.656,76.82 H 1248.75 V 1345.3 c 0,0 -32.39,3.77 -32.39,-25.6 0,-29.37 32.39,-34.65 32.39,-34.65 z"
         id="path159"
         inkscape:connector-curvature="0" />
      <g
         id="g167">
        <path
           style="fill:#165284;stroke:#000000;stroke-width:1.50619996"
           d="m 891.016,1495.17 v -14.05 c 0,0 -24.602,-13.06 -10.543,-31.13 0.501,-20.09 2.509,-11.05 2.509,-11.05 0,0 -8.033,-10.04 -8.535,-15.56 -0.501,-5.53 -18.075,-7.54 -22.092,-14.56 -4.016,-7.03 -6.527,-13.06 -6.025,-28.62 -14.559,16.06 -8.033,18.07 -10.544,21.08 -2.51,3.02 -25.605,12.06 -25.605,21.59 0,9.54 0,14.57 -9.038,26.61 -9.038,12.05 -11.548,31.13 -4.016,39.17 7.532,8.03 16.065,18.07 12.553,28.11 -3.516,10.04 -5.524,21.59 -12.553,18.08 -7.029,-3.52 -10.544,-11.05 -14.058,-4.02 -3.516,7.03 -6.527,17.57 -12.051,19.08 -5.521,1.51 -25.102,-6.03 -29.12,-2.51 -4.017,3.51 0,5.52 3.515,9.04 3.515,3.51 6.527,6.02 6.527,6.02 0,0 -1.506,2.51 3.515,5.02 5.02,2.51 7.028,10.05 6.026,16.57 -1.006,6.53 -3.516,14.56 4.016,18.08 7.531,3.51 6.527,16.06 7.028,19.08 0.503,3.01 10.042,3.51 10.042,3.51 l 107.948,-114.47 z"
           id="path161"
           inkscape:connector-curvature="0" />
        <path
           style="fill:#528aac;stroke:none"
           d="m 799.833,1535.44 c 0,0 4.477,-1.83 5.087,-3.86 0.61,-2.03 10.984,-7.53 11.594,-13.63 0.61,-6.1 -13.832,-23.6 -13.832,-23.6 0,0 -12.409,-8.95 -9.765,-24.81 2.645,-15.87 7.527,-18.92 7.527,-18.92 0,0 8.342,-10.58 9.357,-18.92 1.018,-8.34 0.38,-6.82 0.38,-6.82 0,0 7.531,-18.07 12.049,-2.01 0,0 -0.501,10.55 -2.508,16.07 -2.01,5.52 -13.558,21.59 -13.558,32.14 0,10.54 15.565,19.58 19.583,22.09 4.014,2.51 29.119,13.05 22.089,27.61 -7.027,14.56 -13.053,-12.55 -16.065,-9.04 -3.013,3.52 -0.002,10.04 -2.01,16.07 -2.007,6.02 -9.036,17.07 -12.049,19.08 -3.013,2.01 -2.007,-10.04 -4.016,-5.02 -2.009,5.02 1.003,15.56 0,18.58 -1.005,3.01 -1.506,7.52 -1.506,7.52 l -29.121,52.22 -6.025,3.52 -3.515,-1.51 -0.953,-3.56 c 0,0 -1.221,-9.35 -1.831,-10.37 -0.61,-1.02 -1.221,-4.07 -7.73,-7.53 0,0 -4.271,-4.07 -2.644,-11.59 1.627,-7.53 2.847,-13.63 -1.627,-18.72 -4.475,-5.08 -6.51,-5.49 -6.51,-5.49 l -0.815,-3.05 -11.188,-11.39 c 0,0 0,-4.88 4.882,-4.48 4.882,0.41 19.734,3.46 19.734,3.46 l 4.068,0.61 c 0,0 0.405,30.31 7.526,31.53 7.119,1.22 15.46,-8.34 15.053,-14.85 -0.408,-6.51 -5.9,-37.23 3.051,-33.56"
           id="path163"
           inkscape:connector-curvature="0" />
        <path
           style="fill:none;stroke:#000000;stroke-width:1.50619996"
           d="m 891.393,1494.42 v -14.06 c 0,0 -24.602,-13.05 -10.545,-31.13 0.503,-20.08 2.511,-11.04 2.511,-11.04 0,0 -8.033,-10.04 -8.535,-15.57 -0.501,-5.52 -18.076,-7.53 -22.093,-14.56 -4.015,-7.03 -6.526,-13.05 -6.025,-28.62 -14.558,16.07 -8.032,18.08 -10.543,21.09 -2.51,3.02 -25.605,12.05 -25.605,21.59 0,9.54 0,14.56 -9.038,26.61 -9.038,12.05 -11.548,31.13 -4.016,39.16 7.531,8.04 16.065,18.08 12.552,28.12 -3.515,10.04 -5.523,21.59 -12.552,18.08 -7.03,-3.52 -10.545,-11.05 -14.059,-4.02 -3.515,7.03 -6.526,17.57 -12.05,19.08 -5.521,1.51 -25.104,-6.03 -29.121,-2.51 -4.017,3.51 0,5.52 3.516,9.04 3.515,3.51 6.526,6.02 6.526,6.02 0,0 -1.505,2.51 3.515,5.02 5.021,2.51 7.029,10.04 6.025,16.57 -1.004,6.53 -3.514,14.56 4.018,18.07 7.529,3.52 6.526,16.07 7.028,19.08 0.501,3.01 10.042,3.52 10.042,3.52 L 890.89,1509.48 Z"
           id="path165"
           inkscape:connector-curvature="0" />
      </g>
      <g
         id="g177">
        <path
           style="fill:#5293ac;stroke:none"
           d="m 953.273,1446.47 5.522,4.02 c 0,0 -1.003,2.01 -2.008,6.02 -1.003,4.02 -22.594,27.62 -32.132,32.64 -9.541,5.02 -19.581,21.59 -40.165,32.63 -20.586,11.05 -34.143,26.61 -34.143,26.61 0,0 -25.606,40.17 -34.141,50.71 -8.535,10.55 -34.141,50.46 -51.213,52.72 2.01,-14.56 7.031,-28.62 15.566,-42.17 8.535,-13.56 28.619,-42.18 48.7,-60.25 20.083,-18.08 41.673,-42.68 67.783,-58.74 26.106,-16.07 53.218,-44.19 56.231,-44.19 z"
           id="path169"
           inkscape:connector-curvature="0" />
        <path
           style="fill:#5293ac;stroke:none"
           d="m 899.551,1567.47 c 0,0 -1.005,10.05 10.042,8.54 11.045,-1.51 24.6,-15.56 39.664,-21.59 15.062,-6.03 40.698,-42.31 39.162,-47.2 -2.76,-8.78 -17.323,18.83 -27.866,27.87 -10.544,9.04 -10.794,12.8 -15.312,14.56 -13.476,5.24 -46.191,14.31 -45.69,17.82 z"
           id="path171"
           inkscape:connector-curvature="0" />
        <path
           style="fill:#5293ac;stroke:none"
           d="m 1014.15,1344.17 c 0,0 5.27,0.76 1.88,4.52 -3.39,3.77 -8.28,6.4 -10.54,9.04 -2.26,2.64 -4.9,3.01 -3.77,9.79 1.13,6.78 1.89,20.71 -1.5,22.97 -3.392,2.26 -25.986,9.42 -28.244,12.8 0,0 -0.754,-2.63 -2.261,5.65 -1.506,8.29 -8.659,29.37 -14.684,32.01 -2.636,1.13 -0.754,-23.35 -0.754,-23.35 0,0 -1.13,-12.05 2.636,-15.81 3.766,-3.77 7.531,-6.78 10.92,-7.53 3.389,-0.76 18.452,-13.56 20.711,-16.95 2.258,-3.39 6.025,-8.66 7.155,-12.43 1.129,-3.76 -2.259,-10.16 -0.377,-11.67 1.883,-1.5 3.012,-4.89 18.828,-9.04 z"
           id="path173"
           inkscape:connector-curvature="0" />
        <path
           style="fill:#5293ac;stroke:none"
           d="m 1134.27,1331.37 c 0,0 -15.44,22.97 -36.15,29.37 -20.71,6.4 -26.73,7.53 -31.25,8.29 -4.52,0.75 -19.96,4.14 -10.92,17.32 -4.52,7.53 -4.52,11.29 -9.42,13.18 10.55,4.52 12.43,-0.38 13.56,-2.64 1.13,-2.26 5.65,-14.68 5.65,-14.68 0,0 7.91,2.63 18.83,-7.53 10.92,-10.17 11.67,-10.17 27.11,-15.07 15.44,-4.89 22.59,-28.24 22.59,-28.24 z"
           id="path175"
           inkscape:connector-curvature="0" />
      </g>
      <path
         style="fill:#000000;stroke:none"
         d="m 1211.09,1349.82 c 0,0 -48.95,5.27 -80.58,37.66 48.95,-27.87 53.47,-30.88 80.58,-37.66 z"
         id="path179"
         inkscape:connector-curvature="0" />
      <path
         style="fill:#000000;stroke:none"
         d="m 1220.88,1361.87 c 0,0 -70.04,7.53 -80.58,25.61 37.65,-14.31 47.44,-22.6 80.58,-25.61 z"
         id="path181"
         inkscape:connector-curvature="0" />
      <path
         style="fill:#000000;stroke:none"
         d="m 1232.93,1368.65 c 0,0 -62.51,-0.75 -72.3,14.31 38.41,-8.28 72.3,-14.31 72.3,-14.31 z"
         id="path183"
         inkscape:connector-curvature="0" />
      <path
         style="fill:#000000;stroke:none"
         d="m 1174.19,1385.22 c 0,0 25.6,-15.06 57.99,-10.54 -51.97,6.02 -53.47,9.03 -57.99,10.54 z"
         id="path185"
         inkscape:connector-curvature="0" />
      <path
         style="fill:#000000;stroke:none"
         d="m 1197.53,1385.22 c 0,0 24.86,-7.53 35.4,-3.01 -6.02,4.51 -27.11,-0.76 -35.4,3.01 z"
         id="path187"
         inkscape:connector-curvature="0" />
      <path
         style="fill:#000000;stroke:none"
         d="m 1114.69,1343.04 c 0,0 -43.68,27.12 -62.51,27.87 42.18,-6.03 33.89,-5.27 62.51,-27.87 z"
         id="path189"
         inkscape:connector-curvature="0" />
      <path
         style="fill:#000000;stroke:none"
         d="m 1051.18,1372.17 c 0,0 -3.02,25.6 -12.05,28.11 17.57,-13.56 11.04,-26.86 12.05,-28.11 z"
         id="path191"
         inkscape:connector-curvature="0" />
      <path
         style="fill:#000000;stroke:none"
         d="m 1061.22,1398.77 c 0,0 -15.57,8.54 -22.09,1.51 -6.03,-1 0.5,6.53 5.02,6.03 4.52,-0.51 11.05,0.5 17.07,-7.54 z"
         id="path193"
         inkscape:connector-curvature="0" />
      <path
         style="fill:#000000;stroke:none"
         d="m 1039.13,1359.61 c 0,0 -0.51,33.64 -4.02,38.16 0,0 12.05,-27.11 11.05,-38.66 -1.51,-4.52 -7.03,-1 -7.03,-1"
         id="path195"
         inkscape:connector-curvature="0" />
      <path
         style="fill:#000000;stroke:none"
         d="m 1034.61,1400.78 c 0,0 -4.52,7.54 3.01,16.07 1.01,10.54 1,18.58 3.52,22.09 2.51,3.52 -0.5,-16.57 1,-23.1 -3.01,-4.01 -8.54,-8.53 -7.53,-15.06 z"
         id="path197"
         inkscape:connector-curvature="0" />
      <path
         style="fill:#000000;stroke:none"
         d="m 995.95,1356.1 c 0,0 8.53,8.53 18.58,12.05 -18.58,-4.52 -20.086,-2.01 -18.58,-12.05 z"
         id="path199"
         inkscape:connector-curvature="0" />
      <path
         style="fill:#000000;stroke:none"
         d="m 1001.97,1392.25 c 0,0 -35.642,41.17 -11.04,69.79 -8.535,-32.14 -13.055,-31.13 11.04,-69.79 z"
         id="path201"
         inkscape:connector-curvature="0" />
      <path
         style="fill:#000000;stroke:none"
         d="m 953.274,1443.96 c 0,0 5.02,7.53 15.062,9.04 10.041,1.51 18.578,33.14 14.059,48.2 0,0 -2.513,-33.64 -10.042,-40.67 -7.532,-7.03 -12.051,-5.02 -13.558,-6.53 -1.505,-1.5 -5.521,-10.04 -5.521,-10.04 z"
         id="path203"
         inkscape:connector-curvature="0" />
      <path
         style="fill:#000000;stroke:none"
         d="m 999.965,1481.62 c 0,0 -5.018,5.52 -13.051,27.11 -8.035,21.59 -22.093,32.13 -27.616,36.65 0,0 35.648,-20.08 40.667,-63.76 z"
         id="path205"
         inkscape:connector-curvature="0" />
      <path
         style="fill:#000000;stroke:none"
         d="m 979.882,1505.72 c 0,0 -10.544,17.57 -13.554,21.08 -3.014,3.52 -15.064,12.05 -17.574,18.08 -2.509,6.02 -35.145,11.55 -45.186,16.57 -10.042,5.02 -11.046,9.54 -10.544,11.05 0,0 0.502,4.01 3.012,3.01 2.51,-1.01 -9.539,-10.55 48.703,-24.1 16.567,-11.05 12.048,-13.56 23.094,-20.09 8.537,-11.54 9.54,-21.08 12.049,-25.6 z"
         id="path207"
         inkscape:connector-curvature="0" />
      <path
         style="fill:#000000;stroke:none"
         d="m 958.795,1454 c 0,0 -34.643,49.71 -45.688,61.76 -11.046,12.05 -45.186,47.7 -52.718,57.24 0,0 43.179,-38.66 47.697,-44.19 4.518,-5.52 52.216,-53.22 50.709,-74.81 z"
         id="path209"
         inkscape:connector-curvature="0" />
      <path
         style="fill:#000000;stroke:none"
         d="m 854.866,1581.03 c 0,0 -32.133,42.17 -31.632,54.22 0.503,12.05 2.513,12.56 2.513,12.56 0,0 -6.027,-14.06 29.119,-66.78 z"
         id="path211"
         inkscape:connector-curvature="0" />
      <path
         style="fill:#000000;stroke:none"
         d="m 1037.62,1507.22 c 0,0 -10.54,29.63 -19.08,41.68 -8.53,12.05 12.05,-3.52 19.08,-41.68 z"
         id="path213"
         inkscape:connector-curvature="0" />
      <path
         style="fill:#000000;stroke:none"
         d="m 893.024,1574.5 c 0,0 -38.661,-2 -41.17,1.01 -2.51,3.01 3.515,9.03 10.042,12.55 0,0 20.083,13.05 21.588,19.08 1.507,6.02 -9.037,14.56 -7.531,26.61 1.505,12.05 5.523,11.55 17.071,14.56 5.02,2 5.522,5.77 5.522,5.77 h 5.022 c 0,0 -1.004,-7.28 -5.524,-8.28 -4.518,-1.01 -13.053,-1.01 -15.062,-3.02 -2.008,-2 -6.024,-13.05 0,-22.59 6.026,-9.54 9.54,-17.57 -3.515,-25.6 -13.053,-8.04 -29.12,-15.57 -24.601,-16.57 4.518,-1.01 39.664,-1.01 38.158,-3.52 z"
         id="path215"
         inkscape:connector-curvature="0" />
      <path
         style="fill:#165284;stroke:#000000;stroke-width:1.50619996"
         d="m 935.7,1444.97 c 0,0 2.509,-10.55 5.021,-13.06 2.511,-2.51 -13.054,-26.11 -15.063,-34.64 -5.02,4.52 -11.045,22.09 -20.081,28.12 -4.519,10.04 -6.026,37.15 -8.535,42.17 16.065,-18.08 21.588,-19.08 38.658,-22.59 z"
         id="path217"
         inkscape:connector-curvature="0" />
      <path
         style="fill:none;stroke:#000000;stroke-width:1.50619996"
         d="m 1248.75,1285.05 -0.76,-64.01 -31.63,14.31 -26.36,3.01 c 0,0 -14.31,9.79 -14.31,15.06 0,5.28 -4.52,33.14 -4.52,33.14 0,0 -10.54,21.84 -14.3,23.35 -3.77,1.5 -15.82,3.01 -15.82,3.01 l -18.07,21.84 c 0,0 -67.03,20.33 -79.83,22.59 0,0 -5.82,-2.84 -3.02,-10.54 3.87,-10.62 16.49,-26.92 14.31,-25.61 0,0 -6.78,4.52 -12.05,3.77 -5.27,-0.75 -3.76,-4.52 -3.76,-4.52 0,0 -11.3,18.08 -21.84,21.84 -10.55,3.77 -24.104,6.78 -21.844,14.31 2.259,7.53 -3.013,17.32 -9.038,23.35 -6.026,6.02 -13.555,13.55 -18.075,14.31 -4.519,0.75 -14.309,6.02 -13.556,15.81 0.754,9.79 -2.259,35.4 -2.259,35.4 0,0 -20.335,20.33 -30.878,28.62 -10.544,8.28 -45.939,31.63 -57.236,41.42 -11.297,9.79 -54.224,54.97 -61.003,61.75 -6.779,6.78 -39.915,54.23 -37.656,76.82 H 1248.75 V 1345.3 c 0,0 -32.39,3.77 -32.39,-25.6 0,-29.37 32.39,-34.65 32.39,-34.65 z"
         id="path219"
         inkscape:connector-curvature="0" />
      <defs
         id="defs230">
        <radialGradient
           id="4"
           cx="1280.04"
           cy="1598.78"
           r="402.28101"
           fx="1280.04"
           fy="1598.78"
           gradientUnits="userSpaceOnUse">
          <stop
             offset="0"
             style="stop-color:#ebdad0"
             id="stop221" />
          <stop
             offset="0.211163"
             style="stop-color:#ebdad0"
             id="stop223" />
          <stop
             offset="0.563102"
             style="stop-color:#ebb5c4"
             id="stop225" />
          <stop
             offset="1"
             style="stop-color:#bb898f"
             id="stop227" />
        </radialGradient>
      </defs>
      <path
         style="fill:url(#4);stroke:#000000;stroke-width:1.50619996"
         d="m 1250.25,1404.8 c 0,0 -89.62,7.53 -99.41,12.8 -9.79,5.27 -41.42,14.31 -53.47,21.84 -12.05,7.53 -45.94,43.68 -46.69,47.45 -0.76,3.77 -1.51,26.36 -6.03,32.38 -4.52,6.03 -21.09,40.67 -43.68,57.99 -22.593,17.33 -56.483,42.93 -61.001,76.82 45.939,3.01 308.781,0 308.781,0 z"
         id="path232"
         inkscape:connector-curvature="0" />
      <path
         style="fill:#794242;stroke:none"
         d="m 1028.15,1595.39 c -1.57,-9.34 29.05,-26.41 35.02,-50.83 8.09,-14.74 48.38,-23.66 48.57,-28.24 0.19,-4.58 -1.82,-36.71 53.09,-28.24 0.82,-1.94 -2.19,-21.02 -74.55,-16.95 14.68,-12.42 161.53,-21.46 161.53,-21.46 l -1.93,-46.14 c 0,0 -89.63,7.53 -99.42,12.8 -9.79,5.27 -41.42,14.31 -53.47,21.84 -12.05,7.53 -45.94,43.68 -46.69,47.45 -0.75,3.76 -1.51,26.36 -6.02,32.38 -4.52,6.03 -21.09,40.67 -43.69,57.99 -22.588,17.32 -56.48,42.93 -60.998,76.82 45.94,3.01 72.738,1.27 72.738,1.27 0,0 17.39,-49.35 15.82,-58.69 z"
         id="path234"
         inkscape:connector-curvature="0" />
      <path
         style="fill:#000000;stroke:none"
         d="m 1184.73,1346.06 c 0,0 -26.36,9.03 -60.25,41.42 -36.9,27.11 -86.61,77.57 -85.1,94.14 1.51,16.57 8.28,45.94 -21.84,73.05 -8.13,7.31 -18.337,15.62 -28.738,24.42 -28.149,23.81 -55.684,52.27 -49.085,73.72 9.789,-21.84 0.252,-26.59 50.709,-68.77 50.464,-42.17 62.514,-70.04 57.994,-103.93 12.8,-33.89 19.58,-45.94 73.8,-85.85 54.23,-39.92 56.49,-48.2 62.51,-48.2 z"
         id="path236"
         inkscape:connector-curvature="0" />
      <path
         style="fill:none;stroke:#000000;stroke-width:2.25929999"
         d="m 1250,1403.53 c 0,0 -89.62,7.53 -99.41,12.8 -9.79,5.27 -41.42,14.31 -53.47,21.84 -12.05,7.53 -45.94,43.68 -46.69,47.45 -0.76,3.76 -1.51,26.36 -6.03,32.38 -4.52,6.03 -21.09,40.67 -43.68,57.99 -22.593,17.32 -56.485,42.93 -61.003,76.82 45.94,3.01 308.773,0 308.773,0 z"
         id="path238"
         inkscape:connector-curvature="0" />
      <g
         id="g342">
        <path
           style="fill:#de1048;stroke:none"
           d="m 1101.39,1274.76 c -0.51,-5.52 -3.52,-1 -3.52,-1 0,0 1.51,-8.04 -1.51,-6.03 -3.01,2.01 -3.01,2.01 -3.01,2.01 l -0.5,-5.52 -2.35,2.82 -1.16,-5.33 -2.62,0.94 c 0,0 12.16,-13.5 9.64,-41.11 -2.51,-27.61 -9.03,-32.63 -15.06,-35.65 -6.02,-3.01 -11.05,-6.02 -13.05,-5.02 -2.01,1.01 -7.03,11.05 -12.55,15.07 -4.52,0 -7.03,-8.04 -17.07,-8.54 0,0 1,17.07 -0.51,19.58 -1.5,2.51 -1.5,2.51 -1.5,2.51 0,0 -22.09,-15.56 -31.13,-14.06 12.55,-8.03 11.04,-10.54 9.54,-19.58 -1.51,-9.03 -4.52,-16.06 -20.587,-24.6 -7.028,-8.53 -7.028,-8.53 -7.028,-8.53 0,0 -2.51,-2.51 -15.062,-3.02 -12.554,-0.5 -10.042,1.51 -10.042,1.51 0,0 16.066,-6.03 20.585,-15.57 -9.037,-3.01 -7.532,-0.5 -7.532,-0.5 0,0 -3.011,-2.01 -2.51,-4.01 0.502,-2.01 -4.017,-7.54 -16.067,-5.53 -12.048,2.01 -30.625,3.52 -43.68,8.04 -13.054,4.52 -27.113,9.54 -35.147,16.57 -8.031,7.02 -17.571,27.61 -18.576,34.14 -1.004,6.52 1.005,7.03 -2.007,8.03 -3.014,1 -12.804,10.79 -12.804,10.79 0,0 4.769,-18.32 -16.318,-16.31 0,0 -0.501,-44.19 -24.601,-69.29 8.033,-0.5 27.113,17.07 28.117,18.58 0,0 -1.507,-21.09 17.571,-47.2 19.08,-26.11 30.125,-31.63 30.125,-31.63 0,0 -9.036,20.08 -4.015,26.61 5.021,6.53 11.548,15.57 19.581,12.55 8.032,-3.01 30.625,-26.11 31.631,-29.12 1.003,-3.01 1.003,-10.54 -30.125,-9.04 7.53,-9.03 18.074,-18.57 22.593,-61.248 0,0 10.041,23.598 15.565,23.098 5.522,-0.5 9.538,-7.03 9.538,-7.03 0,0 4.519,-31.131 22.093,-41.173 3.01,15.063 -1.006,22.594 16.065,25.606 11.548,-1.506 9.54,-3.514 15.565,-10.543 4.522,3.515 3.012,8.034 2.007,8.536 -1.004,0.501 10.545,-6.528 10.045,-19.08 10.04,15.565 6.52,21.59 2.51,31.129 -1.51,9.535 1.5,3.515 1.5,3.515 0,0 9.04,-5.523 10.55,-10.042 3.01,8.034 -1.01,17.572 -1.01,17.572 0,0 17.08,-7.03 21.09,-1.51 -8.54,3.02 -23.6,15.07 -17.57,29.13 6.02,14.05 16.57,17.57 48.2,18.57 31.63,1.01 47.19,-1 47.19,-1 0,0 -32.63,17.07 -27.11,24.1 11.55,-0.5 14.56,3.51 14.06,3.01 -0.5,-0.5 -8.03,1 -6.02,3.01 2,2.01 21.58,6.53 34.64,20.59 0,0 -30.63,-12.55 -34.64,-6.53 -4.02,6.03 -16.07,20.08 -2.52,33.64 13.56,13.56 21.09,21.59 40.17,10.54 19.08,-11.04 19.08,-11.04 19.08,-11.04 0,0 -21.59,35.14 -18.08,47.19 4.52,7.53 15.07,5.02 26.11,-3.01 -7.53,22.59 -17.39,10.03 -17.07,36.15 0.22,17.83 -1.51,14.56 -1.51,14.56 0,0 -17.57,5.02 -20.58,17.07 0,0 -6.53,16.57 -4.02,22.59 1.51,3.52 -19.08,21.09 -20.08,35.65 3.51,-18.57 3.51,-18.57 3.51,-18.57 0,0 -8.53,5.52 -8.53,10.54"
           id="path240"
           inkscape:connector-curvature="0" />
        <path
           style="fill:#ff9cb5;stroke:none"
           d="m 850.218,1188.04 c 0,0 2.466,-16.45 -21.996,-14.19 -1.029,-12.54 -2.467,-22.4 -3.905,-25.9 0,0 -8.429,-32.27 -21.175,-40.08 0,0 3.29,-0.41 8.018,2.05 4.728,2.47 19.94,15.21 19.94,15.21 0,0 3.084,-19.52 5.139,-21.38 1.85,-4.52 7.812,-19.73 17.473,-30.62 9.661,-10.9 18.911,-22.82 25.49,-25.7 -2.466,9.25 -4.933,15.01 -5.139,18.5 -2.468,-1.64 -1.028,-9.04 -11.101,2.88 -10.072,11.92 -29.322,44.29 -25.417,61.35 2.876,3.09 3.627,1.55 6.299,2.37 0,0 24.052,6.79 18.912,31.05 -1.439,3.9 -3.084,6.78 -3.288,9.04 -0.206,2.26 -0.618,8.63 -0.618,8.63 l -1.027,0.83 z"
           id="path242"
           inkscape:connector-curvature="0" />
        <path
           style="fill:#ff9cb5;stroke:none"
           d="m 897.498,1085.87 c 0,0 -19.119,15.01 -30.219,18.3 18.5,-2.88 20.145,0.61 31.862,-3.29 11.718,-3.91 23.641,-16.24 24.463,-19.33 -1.645,13.16 0.412,25.29 -15.417,40.3 3.905,1.64 0.823,2.67 4.728,1.64 3.905,-1.03 18.912,-4.52 18.912,-4.52 0,0 15.624,-10.9 15.828,-18.71 0.207,-7.81 2.056,-16.65 -17.884,-21.99 -2.056,-14.39 -2.261,-14.6 0.823,-18.51 -1.645,-4.93 -5.14,-0.82 -5.14,-0.82 l -11.717,12.75 z"
           id="path244"
           inkscape:connector-curvature="0" />
        <path
           style="fill:#ff9cb5;stroke:none"
           d="m 918.877,988.639 c 0,0 -2.879,23.431 -5.552,29.191 -2.055,5.96 -4.728,17.68 -16.651,29.81 16.24,-0.41 8.635,0.2 8.635,0.2 0,0 17.677,-10.07 18.705,-16.65 1.028,-6.58 -6.989,-9.25 -8.634,-10.48 -1.644,-1.24 -1.232,-3.29 5.14,-5.55 6.373,-2.26 2.055,2.87 13.566,1.85 11.513,-1.03 32.48,-9.87 33.714,-21.176 -1.849,-8.634 -5.755,-6.99 1.029,-7.195 6.783,-0.205 11.923,-1.234 11.923,-1.234 0,0 -11.512,-2.261 -12.333,-10.484 -0.823,-8.222 -1.853,-14.8 -1.853,-14.8 0,0 -6.988,3.905 -10.894,9.661 -3.905,5.756 -9.251,21.173 -9.868,24.668 -0.616,3.495 -0.821,5.96 -3.288,8.43 -2.468,2.47 -4.522,4.32 -5.962,4.73 -1.437,0.41 -2.673,2.26 -6.167,-2.06 -3.494,-4.32 -8.635,-14.594 -8.635,-14.594 z"
           id="path246"
           inkscape:connector-curvature="0" />
        <path
           style="fill:#a30010;stroke:none"
           d="m 869.677,1150.5 c -0.252,0.5 -2.26,3.51 -6.779,13.05 1.507,-25.35 -20.835,-31.63 -20.835,-31.63 0,0 -9.791,-1.25 1.506,-1.76 28.367,-1.5 26.36,19.84 26.36,19.84"
           id="path248"
           inkscape:connector-curvature="0" />
        <path
           style="fill:#a30010;stroke:none"
           d="m 850.218,1188.04 c 0,0 0.129,-11.69 -7.905,-13.19 -8.032,-1.51 -11.581,-1.75 -14.091,-1 1.255,2.26 0.284,2.76 0.284,2.76 0,0 9.039,0.5 11.046,1.75 2.008,1.26 5.523,6.28 5.523,9.29 0,3.01 -0.502,5.52 -0.502,5.52 z"
           id="path250"
           inkscape:connector-curvature="0" />
        <path
           style="fill:#a30010;stroke:none"
           d="m 896.288,1085.98 c 0,0 -9.288,3.51 -15.063,-4.77 -5.775,-8.28 -8.048,-8.72 -7.162,-15.28 -2.127,-5.05 -4.134,-3.8 -5.641,-1.79 -1.507,2.01 2.51,-2.26 2.259,2.26 -0.25,4.52 -3.012,22.84 3.766,29.62 -9.54,7.53 -8.536,7.28 -12.302,9.79 -3.765,2.51 -2.51,1.51 3.515,1.51 6.025,0 23.096,3.76 22.092,17.82 6.275,-13.05 9.539,-15.06 11.799,-14.56 -4.269,-4.52 -5.524,-8.28 -7.28,-7.78 -1.758,0.5 -19.832,-0.75 -23.095,0.75 9.036,-4.52 20.835,-10.04 27.112,-17.57 z"
           id="path252"
           inkscape:connector-curvature="0" />
        <path
           style="fill:#a30010;stroke:none"
           d="m 924.341,1014.69 c 0,0 -14.875,1.13 -7.908,6.4 6.967,5.27 7.532,6.78 7.532,7.53 0,0.75 1.505,2.45 -0.942,5.46 -2.448,3.01 -16.003,12.43 -17.133,13.55 5.46,0.76 7.343,1.13 7.343,1.13 l 6.024,0.57 5.46,2.26 c 0,0 3.202,3.58 2.26,5.08 0.565,1.13 4.329,0.75 3.201,3.58 -1.129,2.82 -4.013,5.53 -0.407,18.02 4.737,3.25 6.619,0.24 12.268,5.7 5.836,0.38 19.582,-3.57 20.334,-0.94 0.754,2.64 5.46,14.31 -16.003,21.28 -5.46,6.21 -11.388,12.75 -14.543,14.66 7.2,-0.92 16.801,-2.24 16.801,-2.24 0,0 36.714,-17.7 29.749,-26.54 -6.966,-8.85 -17.698,-7.91 -16.756,-9.42 0.562,-0.9 18.169,-0.1 17.509,-25.79 5.649,3.01 17.509,9.22 21.65,8.09 4.14,-1.13 11.11,-6.77 11.11,-6.77 0,0 -4.14,11.67 12.61,16.75 9.61,6.59 12.43,8.66 4.9,19.58 -13.37,5.28 -26.92,7.91 -37.278,12.43 -10.356,4.52 -24.477,10.36 -27.301,10.17 2.824,0.75 7.155,3.2 6.025,2.26 -0.938,-0.79 13.796,5.87 3.953,6.96 -1.694,0.19 2.637,-0.37 3.203,-0.19 0.563,0.19 4.706,1.32 4.706,1.32 0,0 27.862,5.46 32.192,11.68 4.33,6.21 1.13,1.31 1.13,1.31 0,0 93.2,2.07 91.13,-0.37 -2.07,-2.45 -3.76,-3.77 -3.76,-3.77 0,0 -12.24,-13.74 -8.48,-21.46 3.77,-7.72 9.04,-16.19 9.98,-16.19 0.94,0 4.71,-2.26 18.26,2.25 13.56,4.52 13.56,4.52 13.56,4.52 0,0 -7.91,-7.34 -12.8,-9.79 -4.9,-2.44 -16.01,-8.09 -20.15,-9.41 -0.75,-1.7 -51.96,2.82 -52.91,1.32 -0.94,-1.51 -5.08,-12.43 -16.19,-15.63 -0.56,-6.21 3.02,-6.21 12.05,-7.53 9.04,-1.32 20.71,-7.53 28.81,-7.53 -19.21,-1.13 -20.71,-1.7 -25.04,-2.26 -4.33,-0.57 -19.39,-3.01 -24.48,-18.64 -1.32,-9.42 4.14,-16.19 4.14,-16.19 0,0 9.98,-10.36 14.5,-10.74 0,0 -3.95,-6.02 -21.84,2.26 0,0 -1.5,8.85 -7.53,11.49 -6.03,2.63 -9.79,5.27 -14.5,5.08 -4.705,-0.19 -16.001,-2.63 -22.027,5.27 -8.472,2.08 -6.777,-1.13 -8.472,-3.38 0,0 -2.636,-8.1 -22.029,-10.17 -19.392,-2.07 -17.886,-0.75 -20.71,-1.13 -2.825,-0.38 -3.201,-1.88 -4.519,-1.88"
           id="path254"
           inkscape:connector-curvature="0" />
        <path
           style="fill:#a30010;stroke:none"
           d="m 1012.64,1002.82 c 0,0 -3.95,-3.385 -6.58,-3.385 -2.64,0 -2.64,-4.33 -0.38,-9.226 2.26,-4.895 4.89,-5.46 1.5,-5.836 -3.39,-0.377 -4.52,-0.377 -2.82,-2.636 1.7,-2.26 6.21,-9.226 5.46,-14.874 6.59,9.978 5.65,11.861 6.02,12.614 0.38,0.754 2.26,8.284 -2.82,16.192 -1.13,3.201 -0.57,6.591 -0.38,7.151 z"
           id="path256"
           inkscape:connector-curvature="0" />
        <path
           style="fill:#a30010;stroke:none"
           d="m 1121.85,1054.04 c 0,0 -45.76,9.79 -44.44,14.49 1.26,4.49 13.81,9.15 17.1,6.8 0.16,-0.11 0.32,-0.23 0.41,-0.39 2.45,-4.15 4.9,-8.29 15.82,-14.13 9.45,-5.05 11.11,-6.77 11.11,-6.77 z"
           id="path258"
           inkscape:connector-curvature="0" />
        <path
           style="fill:#d10010;stroke:none"
           d="m 1043.9,1007.15 c 0,0 2.26,-5.27 -20.34,0.76 -12.42,10.54 -10.16,13.93 -15.44,15.44 -5.27,1.5 -30.118,1.13 -31.248,8.66 10.166,1.5 49.328,1.13 49.328,1.13 0,0 -2.26,-8.29 3.01,-13.94 5.27,-5.64 11.3,-10.92 14.69,-12.05 z"
           id="path260"
           inkscape:connector-curvature="0" />
        <path
           style="fill:#d10010;stroke:none"
           d="m 868.422,1152.88 c 0,0 -3.389,-16.44 -15.438,-19.96 12.049,9.8 13.178,23.73 12.426,25.99 -0.754,2.26 3.012,-6.03 3.012,-6.03 z"
           id="path262"
           inkscape:connector-curvature="0" />
        <path
           style="fill:#d10010;stroke:none"
           d="m 1027.71,1203.34 c 0,0 10.92,-39.91 -12.05,-47.44 -15.44,-3.77 -15.44,-1.51 -17.702,-2.64 -2.259,-1.13 -8.285,-7.53 -9.789,-9.41 -1.508,-1.89 -8.662,-4.52 -10.167,-4.52 -1.507,0 -11.297,0 -14.688,1.13 0,0 8.285,-3.39 9.416,-4.52 8.659,0.37 131.79,0.37 134.43,2.26 2.63,1.88 7.15,6.02 11.67,7.53 4.52,1.5 10.17,6.02 39.92,-13.93 0,1.88 -0.75,3.01 -0.75,3.01 0,0 -13.56,25.98 -14.69,30.88 -1.13,4.89 -3.77,13.93 3.01,16.19 6.78,2.26 17.33,-2.64 21.47,-6.4 -1.89,7.15 -4.14,11.67 -11.68,16.94 -4.52,6.03 -4.14,13.18 -4.52,15.82 -0.37,2.63 -1.88,17.32 -1.88,17.32 0,0 -15.06,6.78 -17.7,10.92 -2.63,4.14 -7.53,16.19 -7.53,31.25 -8.66,12.05 -16.8,24.67 -16.8,24.67 l 0.99,-10.73 -7.91,7.9 1.51,-18.07 -3.4,0.75 -1.12,-5.27 -3.77,2.64 -1.88,-6.78 -2.64,3.76 v -4.52 l -1.88,-1.13 c 0,0 10.92,-15.06 8.66,-39.16 -2.26,-24.1 -3.76,-30.5 -19.21,-38.03 0,0 -7.9,-4.9 -9.79,-3.01 -1.88,1.88 -6.4,11.67 -10.92,13.18 -4.51,1.5 -5.27,-1.51 -9.03,-3.77 -3.77,-2.26 -9.42,-3.39 -9.42,-3.39 0,0 4.15,19.96 -1.88,22.6"
           id="path264"
           inkscape:connector-curvature="0" />
        <path
           style="fill:none;stroke:#000000;stroke-width:1.50619996;stroke-linecap:round;stroke-linejoin:round"
           d="m 1102.04,1274.57 c -0.5,-5.52 -3.51,-1 -3.51,-1 0,0 1.51,-8.03 -1.51,-6.03 -3.01,2.01 -3.01,2.01 -3.01,2.01 l -0.5,-5.52 -3.01,3.01 -0.51,-5.52 -4.01,1.51 c 0,0 13.55,-14.06 11.04,-41.68 -2.51,-27.61 -9.03,-32.63 -15.06,-35.64 -6.02,-3.02 -11.04,-6.03 -13.05,-5.03 -2.01,1.01 -7.03,11.05 -12.56,15.07 -4.51,0 -7.02,-8.04 -17.07,-8.54 0,0 1.01,17.07 -0.5,19.58 -1.5,2.51 -1.5,2.51 -1.5,2.51 0,0 -22.09,-15.56 -31.13,-14.06 12.55,-8.03 11.04,-10.54 9.54,-19.58 -1.51,-9.03 -4.52,-16.06 -20.588,-24.6 -7.028,-8.53 -7.028,-8.53 -7.028,-8.53 0,0 -2.511,-2.51 -15.063,-3.02 -12.553,-0.5 -10.042,1.51 -10.042,1.51 0,0 16.067,-6.02 20.586,-15.56 -9.037,-3.02 -7.53,-0.51 -7.53,-0.51 0,0 -3.014,-2 -2.512,-4.01 0.502,-2.01 -4.017,-7.53 -16.067,-5.53 -12.049,2.01 -30.626,3.52 -43.679,8.04 -13.055,4.52 -27.113,9.54 -35.146,16.57 -8.034,7.03 -17.572,27.61 -18.577,34.14 -1.006,6.52 -0.067,6.29 -2.009,8.03 -2.364,2.12 -13.462,10.98 -13.462,10.98 0,0 5.429,-18.51 -15.658,-16.5 0,0 -0.502,-44.18 -24.603,-69.29 8.034,-0.5 27.114,17.07 28.118,18.58 0,0 -1.507,-21.09 17.572,-47.2 19.078,-26.11 30.125,-31.63 30.125,-31.63 0,0 -9.036,20.08 -4.016,26.61 5.019,6.53 11.548,15.57 19.58,12.55 8.034,-3.01 30.627,-26.1 31.632,-29.12 1.003,-3.01 1.004,-10.54 -30.125,-9.03 7.531,-9.04 18.075,-18.58 22.594,-61.257 0,0 10.039,23.597 15.563,23.097 5.524,-0.5 9.539,-7.03 9.539,-7.03 0,0 4.52,-31.13 22.093,-41.171 3.013,15.062 -1.004,22.593 16.066,25.606 11.547,-1.506 9.54,-3.515 15.565,-10.544 4.522,3.515 3.012,8.034 2.012,8.536 -1.009,0.502 10.54,-6.528 10.04,-19.079 10.04,15.563 6.52,21.589 2.51,31.128 -1.51,9.544 1.5,3.514 1.5,3.514 0,0 9.04,-5.521 10.55,-10.04 3.01,8.033 -1.01,17.57 -1.01,17.57 0,0 17.07,-7.03 21.09,-1.5 -8.54,3.01 -23.6,15.06 -17.57,29.12 6.02,14.05 16.57,17.57 48.2,18.57 31.63,1.01 47.19,-1 47.19,-1 0,0 -32.63,17.07 -27.11,24.1 11.55,-0.5 14.56,3.51 14.06,3.01 -0.5,-0.5 -8.04,1.01 -6.03,3.01 2.01,2.01 21.59,6.53 34.65,20.59 0,0 -30.63,-12.55 -34.65,-6.53 -4.01,6.03 -16.06,20.08 -2.51,33.64 13.56,13.56 21.09,21.59 40.17,10.54 19.08,-11.04 19.08,-11.04 19.08,-11.04 0,0 -21.59,35.14 -18.08,47.19 4.52,7.54 15.06,5.03 26.11,-3.01 -7.53,22.6 -15.39,10.08 -17.07,36.15 -1.02,15.83 -1.51,14.56 -1.51,14.56 0,0 -17.57,5.02 -20.58,17.07 0,0 -6.53,16.57 -4.02,22.6 1.51,3.51 -19.08,21.08 -20.08,35.64 3.51,-18.57 3.51,-18.57 3.51,-18.57 0,0 -8.53,5.52 -8.53,10.54"
           id="path266"
           inkscape:connector-curvature="0" />
        <path
           style="fill:none;stroke:#000000;stroke-width:1.50619996;stroke-linecap:round;stroke-linejoin:round"
           d="m 1106.03,1096.4 c 0,0 -2.63,-0.38 -16.57,1.13"
           id="path268"
           inkscape:connector-curvature="0" />
        <path
           style="fill:none;stroke:#000000;stroke-width:1.50619996;stroke-linecap:round;stroke-linejoin:round"
           d="m 1090.97,1149.87 c 0,0 24.47,3.39 44.06,-4.52"
           id="path270"
           inkscape:connector-curvature="0" />
        <path
           style="fill:none;stroke:#000000;stroke-width:1.50619996;stroke-linecap:round;stroke-linejoin:round"
           d="m 869.677,1150.5 c 0,0 2.133,-22.47 -29.12,-20.21 0,0 -3.274,0.68 -8.127,-4.33"
           id="path272"
           inkscape:connector-curvature="0" />
        <path
           style="fill:#000000;stroke:none"
           d="m 855.87,1183.38 c 0,0 -0.501,-18.57 -14.308,-19.83 11.546,0.5 17.097,11.45 17.796,17.52"
           id="path274"
           inkscape:connector-curvature="0" />
        <path
           style="fill:#000000;stroke:none"
           d="m 886.246,1124.89 c 0,0 6.276,-17.32 -25.356,-17.07 15.816,-1.5 27.616,2.26 28.118,14.31 -0.505,4.52 2.008,6.53 -2.762,2.76 z"
           id="path276"
           inkscape:connector-curvature="0" />
        <path
           style="fill:none;stroke:#000000;stroke-width:1.50619996;stroke-linecap:round;stroke-linejoin:round"
           d="m 1013.4,1003.01 c 0,0 -21.467,4.52 -32.764,3.02 -7.154,6.4 -17.322,16.19 -17.322,16.19 0,0 12.427,29.74 -9.413,36.52 -21.841,6.78 -13.022,-1.94 -26.578,-1.57"
           id="path278"
           inkscape:connector-curvature="0" />
        <path
           style="fill:none;stroke:#000000;stroke-width:1.50619996;stroke-linecap:round;stroke-linejoin:round"
           d="m 1031.34,1043.3 c 0,0 -34.889,23.35 -47.691,25.61 -8.661,1.13 12.802,29 -35.021,47.07"
           id="path280"
           inkscape:connector-curvature="0" />
        <path
           style="fill:#000000;stroke:none"
           d="m 1000.47,1047.07 c 18.57,-0.75 26.61,-22.59 26.61,-22.59 -1.26,6.27 -0.25,8.03 -0.25,8.03 0,0 -12.3,17.57 -26.36,14.56 z"
           id="path282"
           inkscape:connector-curvature="0" />
        <path
           style="fill:#000000;stroke:none"
           d="m 970.846,1117.49 c 0,0 20.585,-2.14 27.865,2.13 -12.302,-0.75 -13.994,3.39 -15.156,5.84 -1.915,-0.57 -6.748,-2.01 -8.756,-1.01 -1.003,-2.01 -0.94,-5.58 -3.953,-6.96 z"
           id="path284"
           inkscape:connector-curvature="0" />
        <path
           style="fill:#000000;stroke:none"
           d="m 1142.31,1172.34 c 0,0 -3.52,9.29 -0.51,13.81 1.01,-5.28 1.26,-7.29 1.26,-7.29 z"
           id="path286"
           inkscape:connector-curvature="0" />
        <path
           style="fill:#000000;stroke:none"
           d="m 990.239,985.879 c 0,0 -22.97,3.389 -30.878,2.636 22.028,1.694 28.995,3.389 30.878,-2.636 z"
           id="path288"
           inkscape:connector-curvature="0" />
        <path
           style="fill:#000000;stroke:none"
           d="m 1036.37,1118.62 c 0,0 27.11,1.5 33.89,-5.28 6.77,-6.77 -18.83,6.78 -33.89,5.28 z"
           id="path290"
           inkscape:connector-curvature="0" />
        <path
           style="fill:#000000;stroke:none"
           d="M 913.325,1017.83"
           id="path292"
           inkscape:connector-curvature="0" />
        <path
           style="fill:#000000;stroke:none"
           d="m 914.362,1017.7 c 0,0 6.276,-4.27 11.548,-2.76 1.594,1.59 6.792,2.95 14.531,0.9 0.175,-0.05 0.353,-0.1 0.531,-0.15 8.033,-2.26 27.426,-17.385 18.389,-27.175 8.787,6.276 -1.319,18.635 -7.343,22.405 -6.025,3.77 -13.228,6.93 -26.611,5.52 -9.539,-1 -11.045,1.26 -11.045,1.26 z"
           id="path294"
           inkscape:connector-curvature="0" />
        <path
           style="fill:#ff9566;stroke:#000000;stroke-width:0.75309998"
           d="m 981.8,1055.62 c 0,0 -2.806,0.4 -2.006,2.87 0.802,2.47 3.41,4.35 3.677,5.15 0.267,0.8 4.143,4.74 5.079,4.21 0.935,-0.54 2.94,-11.5 -6.75,-12.23"
           id="path296"
           inkscape:connector-curvature="0" />
        <defs
           id="defs313">
          <linearGradient
             id="5"
             x1="958.17603"
             y1="1061.83"
             x2="1002.85"
             y2="1085.15"
             gradientUnits="userSpaceOnUse">
            <stop
               offset="0"
               style="stop-color:#ffffff"
               id="stop298" />
            <stop
               offset="0.185117"
               style="stop-color:#ffffff"
               id="stop300" />
            <stop
               offset="0.243337"
               style="stop-color:#d28556"
               id="stop302" />
            <stop
               offset="0.399366"
               style="stop-color:#d28455"
               id="stop304" />
            <stop
               offset="0.522793"
               style="stop-color:#d69266"
               id="stop306" />
            <stop
               offset="0.699781"
               style="stop-color:#2c2c2b"
               id="stop308" />
            <stop
               offset="1"
               style="stop-color:#2c2c2b"
               id="stop310" />
          </linearGradient>
        </defs>
        <path
           style="fill:url(#5);stroke:none"
           d="m 999.464,1062.13 c 0,0 -9.288,-6.02 -20.334,-6.78 -1.505,3.27 -2.008,6.78 -4.267,8.54 -2.261,1.76 -9.289,14.81 -13.306,17.82 11.548,4.27 17.196,7.41 17.699,9.92 3.011,-10.04 2.635,-19.71 2.384,-22.97 2.259,-0.75 15.816,-4.77 17.824,-6.53 z"
           id="path315"
           inkscape:connector-curvature="0" />
        <path
           style="fill:none;stroke:#000000;stroke-width:1.50619996;stroke-linecap:round;stroke-linejoin:round"
           d="m 961.557,1081.71 c 11.547,4.27 17.32,6.66 17.824,9.17 3.012,-10.05 2.47,-18.63 2.218,-21.9 5.956,-1.98 11.111,-3.35 15.105,-6.85 0,0 -6.528,-6.02 -17.574,-6.78"
           id="path317"
           inkscape:connector-curvature="0" />
        <path
           style="fill:#000000;stroke:none"
           d="m 983.649,1043.56 c 0,0 -17.118,31.36 -22.028,37.21 -5.272,6.28 16.756,-13.37 22.028,-37.21 z"
           id="path319"
           inkscape:connector-curvature="0" />
        <defs
           id="defs332">
          <linearGradient
             id="6"
             x1="983.00897"
             y1="1060.27"
             x2="1002.63"
             y2="1060.27"
             gradientUnits="userSpaceOnUse">
            <stop
               offset="0"
               style="stop-color:#d28455"
               id="stop321" />
            <stop
               offset="0.202911"
               style="stop-color:#d28455"
               id="stop323" />
            <stop
               offset="0.390597"
               style="stop-color:#d69266"
               id="stop325" />
            <stop
               offset="0.787118"
               style="stop-color:#2c2c2b"
               id="stop327" />
            <stop
               offset="1"
               style="stop-color:#2c2c2b"
               id="stop329" />
          </linearGradient>
        </defs>
        <path
           style="fill:url(#6);stroke:#000000;stroke-width:0.75309998"
           d="m 989.237,1056.57 c 0,0 -7.869,4.43 5.628,7.61 5.225,-1.3 3.562,-3.45 3.562,-3.45 0,0 -5.991,-5.5 -9.19,-4.16 z"
           id="path334"
           inkscape:connector-curvature="0" />
        <path
           style="fill:#cc6635;stroke:#000000;stroke-width:0.75309998"
           d="m 985.406,1067.78 c 0,0 11.17,-2.13 -1.13,-15.31 -5.882,-1.41 -5.146,2.76 -5.146,2.76 0,0 -0.943,6.16 6.276,12.55 z"
           id="path336"
           inkscape:connector-curvature="0" />
        <path
           style="fill:#ff9566;stroke:#000000;stroke-width:0.75309998"
           d="m 977.26,1059.36 c 0,0 7.966,2.29 7.682,8.15 -2.49,0.79 -3.415,1.29 -3.842,1.07 0,0 -5.049,-3.79 -5.049,-6.57 0.998,-2.22 1.209,-2.65 1.209,-2.65 z"
           id="path338"
           inkscape:connector-curvature="0" />
        <path
           style="fill:#000000;stroke:none"
           d="m 946.997,1115.6 c 0,0 24.35,-22.59 13.807,-33.89 3.909,-4.53 7.609,-8.7 7.28,-7.4 -1.631,6.4 0.252,9.54 0.252,9.54 0,0 -8.034,24.47 -21.84,32"
           id="path340"
           inkscape:connector-curvature="0" />
      </g>
      <path
         style="fill:#000000;stroke:none"
         d="m 987.415,1056.86 c 0,0 -1.163,-12.36 19.075,-15.56 -15.562,8.03 -16.064,10.54 -19.075,15.56 z"
         id="path344"
         inkscape:connector-curvature="0" />
    </g>
  </g>
</svg>
