<?xml version="1.0" encoding="UTF-8" standalone="no"?>
<svg
   xmlns:dc="http://purl.org/dc/elements/1.1/"
   xmlns:cc="http://creativecommons.org/ns#"
   xmlns:rdf="http://www.w3.org/1999/02/22-rdf-syntax-ns#"
   xmlns:svg="http://www.w3.org/2000/svg"
   xmlns="http://www.w3.org/2000/svg"
   viewBox="0 0 793.7005 1133.8582"
   height="1133.8582"
   width="793.7005"
   xml:space="preserve"
   id="svg2"
   version="1.1"><metadata
     id="metadata8"><rdf:RDF><cc:Work
         rdf:about=""><dc:format>image/svg+xml</dc:format><dc:type
           rdf:resource="http://purl.org/dc/dcmitype/StillImage" /></cc:Work></rdf:RDF></metadata><defs
     id="defs6"><clipPath
       id="clipPath14"
       clipPathUnits="userSpaceOnUse"><path
         id="path12"
         d="M 8,-29.39355 H 603.27539 V 821 H 8 Z" /></clipPath></defs><g
     clip-path="url(#clipPath14)"
     transform="matrix(1.3333333,0,0,-1.3333333,-10.666667,1094.6667)"
     id="g10"><path
       id="path16"
       style="fill:#000000;fill-opacity:1;fill-rule:nonzero;stroke:none"
       d="m 393.6875,385.25 c 0,2.6875 -2.1875,6.0625 -5.8125,6.0625 -3.625,0 -4.2812,-0.5312 -4.8125,-1.0625 -0.5312,-0.5312 -1.8125,-3.25 -2.75,-4.5625 -0.9375,-1.3125 -5,-7.4375 -8.5,-7.4375 -1.0625,4.1875 -2.9375,4.5625 -4.0625,4.5625 -1.125,0 -4.125,-0.6875 -5.5,-1.5625 -1.4375,2 -6.125,9 -9.5625,11.3125 -1.375,1.625 1.3125,-0.1875 1.375,10.8125 0,7.125 0.5625,2.625 0.75,8.75 0,4.8125 -2.5,5 -2.5,6.125 0,1.5625 6.4375,2.9375 6.4375,11.5 0,7.6875 -3.4375,11.375 -9.0625,11.375 4.9375,4.9375 5.25,6.25 5.25,9.0625 0,2.8125 -2.625,11.5 -10.375,11.5 -5.125,0 -9.0625,-4.1875 -9.0625,-4.1875 0,2.9375 0.5,0.3125 0.625,5 0,3.9897 -2.21,7.0854 -9.876,8.418 -8.7861,0 -14.1074,-8.291 -14.1074,-12.2515 -3.9609,2.9697 -8.4775,3.1558 -10.6431,0.9898 -2.1655,-2.1661 -4.4555,-4.5787 -4.4555,-11.3853 -3.836,-0.4951 -7.2764,-4.437 -5.1973,-8.4155 -3.7129,-3.0938 -6.9307,-7.4253 -7.3018,-7.7964 -0.25,-0.3701 -0.4687,-0.0635 -0.9511,0.6816 -0.4824,0.7451 -2.0601,1.0088 -3.1123,0.5264 -0.7891,0.3945 -0.4385,0.7012 -0.4385,0.7012 2.1699,2.1694 2.8057,5.1728 2.8057,7.3203 0,2.1474 -1.2271,6.1802 -5.1724,6.1802 0,3.9438 -0.5703,5.3032 -1.2715,6.311 -0.7012,1.0078 -0.7007,2.0161 -5.7856,2.0161 0,4.6025 0.8764,8.3721 0.8764,11.1338 0,2.7617 -1.5337,4.6465 -4.1201,4.6465 -2.5864,0 -8.5039,-2.543 -8.5039,-6.5752 -5.9175,0 -8.9853,-3.1997 -12.1416,-5.8296 -3.1562,-2.6299 -9.4678,-8.7661 -9.4678,-13.9395 0,-3.5507 0.7891,-3.0249 5.6548,-7.8906 2.082,-2.082 7.5391,-7.2764 7.627,-7.8022 0.0879,-0.5259 -0.7891,-0.1758 -0.7891,-4.6465 0,-3.2007 1.6885,-5.3272 2.7183,-6.357 1.0298,-1.0297 1.7094,-0.7011 1.7094,-1.6655 0,-0.9643 1.7969,-2.937 3.6817,-4.164 0,-1.0962 -0.1753,-1.7994 -0.1753,-3.6402 0,-1.8408 0.2417,-7.6489 4.603,-12.0107 4.3613,-4.3618 10.2129,-5.9614 13.1939,-5.9614 1.7094,-5.087 5.041,-11.1348 7.3203,-12.8887 -1.1836,-2.9375 -1.9727,-5.5225 -1.9727,-6.8819 0,-1.3593 0.0445,-1.5781 0.7017,-2.4111 -3.5943,-1.4023 -5.523,-2.9375 -7.627,-5.041 -2.104,-2.1035 -10.0322,-11.7461 -10.0322,-26.4961 0,-7.5625 2.1875,-15.5 10.1875,-15.5 3.3125,0 2.4375,-1 7.8125,-1 5.375,0 6.5625,1.0625 10.9375,1.0625 2.125,0 3.4375,3.5 3.4375,3.5 3.375,-3.1875 6.5,-4.875 13.3125,-4.875 6.8125,0 9.4375,1.75 11.8125,1.75 1.125,0 5.125,4.875 5.125,10.125 0,6.1875 -5.75,13.75 -17.25,13.75 0,2.75 -1.0625,4.125 -2.1875,5.25 2.5,2 4.0625,5 4,5.3125 C 311,357.0625 315,358.1875 315,364 c 0.75,1.0625 2.375,0.75 3.25,0.75 0.875,0 12.8125,2.25 18.25,6.5 5.4375,4.25 9.75,9.1875 10.5625,10.8125 2.6875,-1.8125 6.5625,-6.0625 7.125,-7.25 -1.3125,-1.6875 -1.1875,-2.5 -1.1875,-4 0,-2.5625 1.4375,-3.625 2.8125,-4.5625 -1.9062,-1.9062 -5.8125,-2 -6.8125,-3 -1,-1 -1.0625,-2.6875 -1.0625,-3.875 0,-1.1875 0.125,-5.5625 5.375,-5.5625 5.25,0 8.3125,4 8.3125,4 1.5,-2.3125 2.75,-3.25 5.1875,-3.6875 0.3125,-4.0625 1.5625,-9.75 1.5625,-9.75 -0.8125,-0.6875 -1.375,-1.6875 -1.25,-3 -4,-4 -4,-6.8125 -4,-8.5 0,-1.6875 1.125,-11.125 12.25,-11.125 4.8125,0 9.375,4.625 9.375,11.125 0,6.8125 -4.874,9.9043 -9.3125,10.875 0,0 -1.0625,2.3125 -3.1875,2.3125 -0.5625,2.5 -1.1875,8.375 -1.1875,8.375 2.5938,2.5938 3.875,4.125 3.875,7.6875 0,1.5 -0.1875,0.9375 -0.1875,2.3125 4.25,0.625 22.25,-0.8125 22.25,9.1875 0,0 0.125,0.875 -0.25,1.3125 1.4375,2.125 1.4375,2.8125 1.4375,4.375 0,0.5 0.1875,5.9375 -4.5,5.9375 m -120.6494,18.312 c -5.1895,0 -4.8477,6.418 -4.8477,7.8521 0.8877,-0.6827 1.9117,-0.9561 3.0044,-0.4781 0.3413,-0.8877 0.8194,-1.3657 2.253,-2.185 0,0 -0.3414,-1.229 -0.4097,-5.189 m 94.8096,-45.7593 c -1.2471,0 -2.3291,0.7842 -2.8731,1.9346 -0.2285,0.669 -0.1211,1.5596 1.7666,2.6992 1.8877,1.1397 3.0654,1.9151 3.3496,1.6074 0.6133,-0.664 1.003,-1.5888 1.003,-2.6181 0,-2.001 -1.4532,-3.6231 -3.2461,-3.6231 z" /><path
       id="path18"
       style="fill:#ffffff;fill-opacity:1;fill-rule:nonzero;stroke:none"
       d="m 265.1196,338.5469 c 0,-8.0469 3.272,-14.8565 6.0132,-14.8565 2.211,-0.6191 7.7827,-1.5029 10.9658,-1.5029 3.1831,0 5.836,0.8838 8.8428,0.8838 4.1563,0 6.1016,5.748 6.1016,9.374 0,3.7139 -0.7959,10.4346 -10.877,10.4346 -6.8974,0 -9.9927,-3.8906 -9.9927,-3.8906 0,0 3.8028,4.9521 8.4898,4.9521 0.0884,1.415 -2.4766,6.0127 -7.7822,6.0127 3.9795,0 5.0405,-0.8838 5.0405,-0.8838 0,3.5371 1.6802,8.2246 4.2446,9.5508 0.9732,0.4414 -0.0884,0.6182 -0.0884,0.6182 -2.476,0 -1.8569,5.3955 -1.8569,6.2793 0,0.8837 -1.5913,2.3877 -2.0337,2.3877 -0.4424,0 -4.2007,-1.46 -6.8091,-4.0684 -2.6084,-2.6084 -10.2583,-13.8838 -10.2583,-25.291 z" /><path
       id="path20"
       style="fill:#ffffff;fill-opacity:1;fill-rule:nonzero;stroke:none"
       d="m 288.1118,358.709 c -1.1499,0 -5.2173,-4.0674 -5.2173,-10.2578 2.2989,-2.2989 2.8296,-4.4219 2.8296,-4.4219 2.5645,0 7.7822,-0.8828 9.1084,-2.21 2.1221,2.21 2.1221,3.8897 2.1221,5.7471 -3.4487,-0.0879 -3.3608,0.1777 -4.0679,1.6807 -0.707,1.5029 -1.5034,5.3945 0,7.3398 -0.1767,1.4151 -1.1494,1.4141 -2.8296,-2.8301 -1.7685,2.8301 -1.3266,4.9522 -1.9453,4.9522 z" /><path
       id="path22"
       style="fill:#ffffff;fill-opacity:1;fill-rule:nonzero;stroke:none"
       d="m 298.0161,347.7441 c 0,-1.8574 0,-3.9795 -1.415,-5.041 0.9726,-1.1494 2.122,-1.0615 2.122,-1.0615 5.2178,3.4492 8.313,4.334 9.4624,4.334 0,3.0058 -1.4145,4.2451 -1.7685,4.5098 -0.9732,0.4414 -3.0068,-1.7686 -8.4009,-2.7413 z" /><path
       id="path24"
       style="fill:#ffffff;fill-opacity:1;fill-rule:nonzero;stroke:none"
       d="m 310.3076,345.2676 c -5.748,0 -13.1763,-5.3955 -13.1763,-6.8096 1.5918,-3.625 1.1495,-9.373 -0.0883,-11.9375 2.3877,-3.0068 5.4824,-4.4219 13.0879,-4.4219 7.6054,0 9.2841,1.7696 11.1416,1.8575 3.6259,3.1835 4.2441,7.0742 4.333,8.8427 0,3.8028 -4.8633,12.4688 -15.2979,12.4688 z" /><path
       id="path26"
       style="fill:#ffffff;fill-opacity:1;fill-rule:nonzero;stroke:none"
       d="m 295.4512,341.0244 c 0,-0.4424 0.7075,-0.6191 0.9726,-1.415 0,0 0.8838,0.6191 1.0611,0.9726 -0.7076,0.0879 -1.2378,1.1494 -1.2378,1.1494 z" /><path
       id="path28"
       style="fill:#ffff33;fill-opacity:1;fill-rule:nonzero;stroke:none"
       d="m 293.5493,355.5342 c -0.4267,-0.5342 -0.5332,-1.708 -0.5332,-2.7744 0,-1.0664 5e-4,-3.7334 1.707,-3.7334 1.7066,0 10.1343,-1.1739 14.7222,7.4677 l -1.1728,0.2129 c 0,0 -1.7076,-4.0527 -2.5611,-4.2666 -0.2134,2.1328 -1.6001,4.2666 -1.6001,4.2666 -2.5605,-3.0937 -4.9077,-3.3066 -4.9077,-3.3066 1.2803,1.707 1.4937,4.2676 1.4937,4.2676 -1.8135,-1.0674 -5.5474,-0.8535 -5.5474,-0.8535 0.1064,-1.7071 0.6397,-3.5206 0.6397,-3.5206 -1.6001,0.5332 -2.2403,2.2403 -2.2403,2.2403 z" /><path
       id="path30"
       style="fill:#ffff33;fill-opacity:1;fill-rule:nonzero;stroke:none"
       d="m 297.0698,362.8955 c -0.3198,-0.2139 -0.9599,-0.6406 -1.1733,-1.1738 -0.2134,-0.5332 0.1064,-3.4141 0.1064,-3.4141 0,0 1.2803,-0.5332 1.7071,-0.1064 0.4267,0.4267 1.2802,1.6006 1.2802,1.6006 l 0.2134,-0.4268 -0.7466,-1.1738 c 2.1338,0.747 3.3076,-0.3194 1.7071,4.2676 -1.6006,-0.1075 -3.0943,0.4267 -3.0943,0.4267 z" /><path
       id="path32"
       style="fill:#ffff33;fill-opacity:1;fill-rule:nonzero;stroke:none"
       d="m 338.5713,387.3262 c 3.5205,-4.9073 -1.4932,-13.7637 -10.1348,-10.669 -2.9873,-2.8799 -10.5625,-6.9345 -10.5625,-6.9345 0.7471,-2.1338 -0.5332,-3.7334 -0.5332,-3.7334 8.1084,0 21.7647,6.5068 28.4854,17.0693 0,0 -3.5205,2.667 -7.2549,4.2676 z" /><path
       id="path34"
       style="fill:#ffff33;fill-opacity:1;fill-rule:nonzero;stroke:none"
       d="m 346.6797,401.3022 c 1.5908,-1.2734 1.9209,-3.2006 2.0273,-4.9077 l 2.4532,-2.0273 c 1.9209,3.8408 1.6005,9.7085 1.6005,9.7085 -2.1337,-2.4536 -4.0537,-2.9868 -6.081,-2.7735 z" /><path
       id="path36"
       style="fill:#ffff33;fill-opacity:1;fill-rule:nonzero;stroke:none"
       d="m 348.5996,394.2607 c 0,-2.8808 -2.8808,-7.1474 -5.6543,-7.5742 5.6543,-3.3076 11.6289,-10.456 11.6289,-10.456 2.667,2.4541 6.2949,4.4814 6.2949,4.4814 -1.9209,3.7334 -6.2949,9.6016 -12.2695,13.5488 z" /><path
       id="path38"
       style="fill:#ffff33;fill-opacity:1;fill-rule:nonzero;stroke:none"
       d="m 273.1729,402.0488 c 0,-2.0268 1.707,-9.3886 1.707,-9.3886 -1.6006,0 -15.7896,0.6406 -15.7896,19.3105 1.0669,0 1.92,0.5337 1.92,0.5337 1.8139,-2.8804 3.9477,-1.7065 5.9746,-0.7466 0,-6.081 1.9204,-9.709 6.188,-9.709 z" /><path
       id="path40"
       style="fill:#ffff33;fill-opacity:1;fill-rule:nonzero;stroke:none"
       d="m 317.667,446.3335 c -21.333,0 -30.1714,-10.0981 -34.8335,-19.4165 0.875,-0.459 1.25,-1.709 1.2085,-2.542 -0.0415,-0.833 -0.3335,-0.4585 -0.3335,-0.9585 0,-1.4165 1.0835,-1.7085 1.0835,-3.375 0,-1.6665 -0.75,-1.5415 -0.75,-4.5415 0,-3 1.0415,-2.625 1.0415,-5.0835 2.979,-2.979 12.7036,-7.8691 21.1665,-7.8691 8.4629,0 10.9307,3.1269 10.9307,3.1269 0,0 -1.1758,0.6021 -1.1758,1.5205 0.832,0 0.8027,-0.4594 1.6924,-0.4594 0.8896,0 1.8857,-1.2623 1.8857,-1.9854 0,-0.5835 0.334,-1.1665 -0.666,-1.1665 -1,0 -1,1.083 -1,1.083 -2.333,-2.0835 -7.584,-3.5 -11.0835,-3.5 -3.4995,0 -10.0835,-0.333 -22.667,8.25 0,0 -0.6665,-0.6665 -1.5835,-0.6665 -1.917,0 -1.083,1.1665 -4,1.1665 -1.833,0 -3.083,-1.083 -3.583,-1.083 0,0 -0.5835,0.1665 -0.5835,-4.75 0,-7 3.167,-17.7505 8.8335,-24.3335 0,0 1.0835,7.083 5.9165,3.333 6.125,-6.125 2.542,-8.208 6.667,-12.333 2.0835,1.667 4.083,2.083 6.5,0.833 0.5835,0 1.5,0.25 4.4165,3.834 2.916,3.584 4.667,5.75 7.917,5.75 1.834,0 4.333,-1.084 3.416,-5.75 7.75,4.917 22.417,25.333 22.417,42.25 0,15.9165 -12.167,28.6665 -22.833,28.6665 m -19.4893,-20.5742 c 0.4029,-0.6714 0.0899,-1.9253 0.0899,-1.9253 0,0 -0.7163,4.0742 -3.7608,4.0742 -3.0444,0 -3.313,-2.731 -3.313,-3.2236 0,-0.4927 0.1343,-1.9248 1.3877,-3.6265 -1.0297,0.3579 -1.9697,1.791 -1.9697,2.1939 0,0.4028 -0.2685,0.7163 -0.582,0.4028 -1.4326,-1.3882 -2.5615,-1.5488 -2.668,1.1186 -0.1064,2.6675 2.9868,6.9346 3.4136,7.8946 0.4267,0.9599 0.5337,1.6001 3.0942,-1.4937 l 0.0552,4.7027 c 1.5894,1.5893 3.8052,3.4023 5.0591,3.4023 0.7163,0 1.2534,-0.582 1.2534,-1.522 0,-0.9399 -1.7461,-4.5664 -3.5366,-6.9394 -1.7905,-2.3731 -1.0298,-2.149 -1.0298,-2.149 0.9404,0 2.0146,-1.6113 2.0146,-1.6113 0.0899,-0.6264 0.5821,-0.3584 0.5821,-0.3584 1.3882,0.9849 3.9394,4.1187 4.8799,5.999 0,-1.6567 -3.1787,-5.5961 -4.9698,-6.9389 m 10.6543,-0.4927 c 0.9405,0 5.3721,-1.2534 5.3721,-2.3281 0,-0.6265 -3.5371,-6.8047 -7.7002,-6.8047 -1.4326,0 -2.6416,0.8506 -2.6416,4.2978 0,8.4165 7.3867,14.1021 9.3125,14.1021 1.9258,0 2.6856,-1.0298 2.6856,-6.7153 -0.8506,-0.0899 -4.2081,-0.8057 -6.8497,-1.9248 -0.4921,-0.1343 -1.1191,-0.627 -0.1787,-0.627 m 12.3106,6.7603 c 0,0 1.164,3.6709 1.164,6.5361 0,2.8652 -1.0752,4.0742 -2.1045,4.0742 -1.0292,0 -1.9472,-1.0522 -3.1787,-2.2832 0,2.1489 3,4.7456 4.6114,4.7456 1.1191,0 2.373,0.0894 2.373,-3.6265 0,-3.7158 -0.8057,-5.999 -2.8652,-9.4462 z" /><path
       id="path42"
       style="fill:#ff6699;fill-opacity:1;fill-rule:nonzero;stroke:none"
       d="m 292.75,440.625 c -0.3125,0.625 -0.625,0.8125 -0.625,1.6875 0,0.875 1.0625,5.1875 4.75,5.1875 0,0 0.875,-0.3125 1,-0.5625 0,8.3125 3.5,13.0625 8.25,13.0625 4.75,0 6.5625,-4.3125 6.5625,-4.3125 0,2.25 1.5313,7.4063 3.5625,9.4375 2.0313,2.0313 5.0625,3.875 8.6875,3.875 3.625,0 9.9375,-1.25 9.9375,-6.875 0,-5.625 -1.6875,-8.5 -1.6875,-8.5 4.3125,4.3125 6.125,6.625 11.125,6.625 4.625,0 8.8125,-4.25 8.8125,-9.25 0,-6.5 -4.0625,-9.25 -7.5,-11.4375 2.6875,0.6875 3.5625,0.6875 4.1875,0.6875 1.375,0 7.5,-1.375 7.5,-10.1875 0,-8.8125 -6.8125,-11.375 -9.25,-11.375 3,-0.625 5.0625,-1.4375 5.0625,-7.4375 0,-3.375 -1.5,-9.125 -8.8125,-9.125 2.75,-2.1875 3.125,-4 3.125,-5.875 0,-1.875 -0.875,-8.625 -6.875,-8.625 -1.5625,0 -3.2187,0.3438 -4.1875,1.3125 1.4375,-2.625 1.875,-3.5 1.875,-5.3125 0,-3.625 -3.3125,-6.75 -7.3125,-6.75 -1.0625,0 -2.1562,0.4063 -2.625,0.875 -0.4687,0.4688 -0.625,0.0625 -0.9375,-0.25 -3.1875,-3.1875 -9.5625,-6.625 -9.5625,-6.625 0,0 -0.5,2 -0.125,2.625 11,8.75 15.75,17.3125 18,23.5625 2.25,5.125 5.625,12.75 5.625,20.5625 0,7.8125 -2.7187,16.8438 -9.5,23.625 -6.7812,6.7813 -11.75,6.3125 -16,6.3125 -4.25,0 -11.4375,0.0625 -23.0625,-6.9375 z" /><path
       id="path44"
       style="fill:#ff6699;fill-opacity:1;fill-rule:nonzero;stroke:none"
       d="m 302.4185,365.3662 c 3.414,0 5.4624,4.4004 9.104,4.4004 2.5791,0 3.3379,-2.7305 3.3379,-3.3379 0,-0.6074 -0.3038,-1.4424 -0.3038,-1.4424 0,0 2.5039,0.6826 2.5039,3.4141 0,2.7314 -0.3798,1.0635 -0.3798,3.7939 0,2.7305 0.6836,2.4268 0.6836,5.1582 0,2.2002 -1.669,2.8829 -2.7315,2.8829 -2.8066,0 -4.7031,-2.1993 -6.2969,-4.2481 -1.5932,-2.0488 -4.4755,-5.1592 -5.7656,-5.3105 0.4551,-2.3516 0.3408,-4.8174 -0.1518,-5.3106 z" /><path
       id="path46"
       style="fill:#ff6699;fill-opacity:1;fill-rule:nonzero;stroke:none"
       d="m 300.9751,354.8965 c 1.5283,0.8916 2.959,2.5039 2.959,3.6416 1.6689,-1.2901 2.2002,-4.7031 2.2002,-4.7031 0.9106,0.9853 1.2895,3.0341 1.2895,3.0341 -1.6689,0 -3.1103,6.752 -5.1587,6.752 -1.5175,0 -1.062,-1.2139 -1.062,-1.2139 0.9102,-1.8965 0.607,-6.2968 -0.228,-7.5107 z" /><path
       id="path48"
       style="fill:#ff6699;fill-opacity:1;fill-rule:nonzero;stroke:none"
       d="m 303.2363,364.4619 v -0.4082 c 1.7818,0 2.71,-6.5342 5.7539,-6.5342 2.1162,0 2.8584,2.042 2.8584,2.5244 0,0.4825 -0.2226,1.0401 -0.7793,1.5967 -1.206,1.2061 -0.3701,3.2657 -1.0019,3.8975 -0.2412,0.2412 -1.6338,0.5205 -2.376,0.5205 -1.8935,0 -2.7476,-1.5967 -4.4551,-1.5967 z" /><path
       id="path50"
       style="fill:#ff6699;fill-opacity:1;fill-rule:nonzero;stroke:none"
       d="m 307.6172,367.0234 c 0.8164,0 2.1162,-0.1855 2.4502,-0.6308 0,0.9648 0.7051,1.4853 0.668,2.4131 -0.668,0 -2.71,-1.4854 -3.1182,-1.4854 -0.4082,0 0,-0.2969 0,-0.2969 z" /><path
       id="path52"
       style="fill:#ff6699;fill-opacity:1;fill-rule:nonzero;stroke:none"
       d="m 310.8838,366.0586 c 0,-1.2256 0.2598,-2.2285 0.7051,-2.9707 1.1142,1.1142 2.1533,1.3379 2.1904,2.9707 0.0371,1.6328 -1.6709,2.4502 -1.8564,2.4502 -0.3711,0 -1.0391,-1.002 -1.0391,-2.4502 z" /><path
       id="path54"
       style="fill:#ff6699;fill-opacity:1;fill-rule:nonzero;stroke:none"
       d="m 312.1084,361.8633 c 0,-0.8906 0.5205,-0.2598 0.5205,-2.6358 1.6328,1.6329 1.6328,3.4903 1.6328,4.418 0,0.5938 -2.1533,-1.2998 -2.1533,-1.7822 z" /><path
       id="path56"
       style="fill:#ff6699;fill-opacity:1;fill-rule:nonzero;stroke:none"
       d="m 289.2788,358.8193 c 0,-1.6709 0.5566,-0.9277 0.5566,-2.9697 1.2623,2.1895 2.4131,3.0811 2.4131,3.0811 0,0 0.1485,0.4082 0.334,0 0.4453,-1.3369 1.0025,-2.1162 1.522,-2.6358 0,5.7168 2.4873,7.0166 2.4873,7.4248 0,0.4082 -0.4453,0.2959 -0.4453,1.2989 0,0.5195 -0.2041,0.2041 -0.3711,0.0371 -3.5269,0 -2.1167,0.2597 -2.896,0.2597 -0.6309,0 -0.7603,-0.4267 -1.002,-0.6679 -1.4477,-1.4483 -2.5986,-3.8604 -2.5986,-5.8282 z" /><path
       id="path58"
       style="fill:#ff6699;fill-opacity:1;fill-rule:nonzero;stroke:none"
       d="m 284.23,371.8838 c -1.708,0 -2.1533,-1.1885 -2.1533,-1.8193 0,-2.0782 3.0068,-1.5957 3.0068,-5.6797 0,-3.5635 0.8169,-4.083 2.0049,-4.083 1.8559,0 1.5957,1.374 1.9302,2.1533 0.3344,0.7793 1.2993,2.4131 2.2275,2.8955 0.52,0.2969 -0.0737,0.668 -0.4453,0.668 -0.3716,0 -0.3716,-0.2969 -0.8911,-0.2969 -0.5196,0 -0.5938,0.5556 -0.5938,1.2246 0,0.6689 -0.1489,1.9687 -1.708,3.5273 -1.5591,1.5586 -2.7095,1.5215 -3.3408,1.5215" /><path
       id="path60"
       style="fill:#ff6699;fill-opacity:1;fill-rule:nonzero;stroke:none"
       d="m 286.5625,382.6875 c -1.8125,0 -2.5552,-3.5 -2.5552,-4.458 -0.8911,-1.707 -1.8935,-3.8984 -1.8935,-5.4941 0.7798,0 0.8174,0.6308 1.8935,0.6308 5.0113,0 5.2344,-7.498 9.9488,-7.498 3.0444,0 1.6333,0.0742 1.6333,1.1875 0,1.1132 0.1113,2.7841 -0.2969,3.1923 -3.5454,3.5459 -2.7837,8.4639 -4.5659,10.2461 -1.4668,1.4668 -2.1436,2.1934 -4.1641,2.1934 z" /><path
       id="path62"
       style="fill:#ff6699;fill-opacity:1;fill-rule:nonzero;stroke:none"
       d="m 299.1904,371.3623 c -2.1899,0 -3.1924,-0.5195 -3.1924,-2.4502 0,-1.3369 0.2969,-5.6055 2.8584,-5.6055 2.5616,0 3.1553,0.7784 3.1553,4.417 0,3.6387 -0.6313,3.6387 -2.8213,3.6387 m -1.395,-5.6191 c -0.5249,0.5244 -1.2124,2.5449 -1.2124,3.7978 0.2427,1.7373 1.2524,0.4444 1.2524,0.4444 -0.6464,-0.8487 -0.04,-3.0303 -0.04,-4.2422 m 2.1411,-2.3028 c 0.6465,0.7276 0.5249,2.4239 0.7271,3.919 0,0 0.2827,-1.374 0.4038,-2.0606 0.2827,0.3633 0.4043,3.4746 0.4043,3.4746 0,0 0.1616,-2.5449 0.1616,-3.1513 0,-0.6065 -0.3638,-1.9795 -1.6968,-2.1817 z" /><path
       id="path64"
       style="fill:#000000;fill-opacity:1;fill-rule:nonzero;stroke:none"
       d="m 297.9521,441.1147 c 0,3.358 4.1192,13.0728 7.1631,13.0728 1.2984,0 1.8355,-1.0742 1.8355,-3.0889 0,-2.0146 -0.8057,-4.2534 -0.8057,-4.2534 -0.1343,1.9702 -0.7607,3.5816 -1.7012,3.5816 -0.9404,0 -4.3427,-2.2383 -6.4917,-9.3121 z" /><path
       id="path66"
       style="fill:#ffffff;fill-opacity:1;fill-rule:nonzero;stroke:none"
       d="m 314.8037,379.3984 c -0.9287,0 -1.292,-0.3242 -0.7266,-0.8886 0.2823,-0.2832 0.3838,0.2617 1.0499,-0.4043 0.5048,-0.5049 0.04,-2.6651 0,-3.6758 -0.0401,-1.0108 0.121,-0.9297 0.4443,-0.041 0.3232,0.8886 0.7676,2.1416 0.7676,3.2324 0,1.0908 -0.4043,1.7773 -1.5352,1.7773 z" /><path
       id="path68"
       style="fill:#ffffff;fill-opacity:1;fill-rule:nonzero;stroke:none"
       d="m 315.6924,369.9453 c -0.2139,-0.7549 -0.4033,-0.8076 -0.6865,-0.9697 0.4238,-0.4248 0.9296,-1.0908 0.9296,-1.8184 0,1.0908 0.504,2.0401 -0.2431,2.7881 z" /><path
       id="path70"
       style="fill:#ffffff;fill-opacity:1;fill-rule:nonzero;stroke:none"
       d="m 284.5034,377.2979 c -0.4541,-1.2481 -1.2925,-3.1114 -1.4946,-3.3536 1.0908,0.4043 1.8179,-0.04 1.8179,-0.04 0,0 -0.4444,1.6963 -0.3233,3.3936 z" /><path
       id="path72"
       style="fill:#ffffff;fill-opacity:1;fill-rule:nonzero;stroke:none"
       d="m 286.8467,381.9033 c -0.5254,0 -1.6968,-0.4443 -1.6968,-2.9492 0.8481,1.374 1.333,2.3838 1.8584,2.3838 0.5254,0 0.8882,-0.1611 1.2119,-0.4844 -0.0405,0.6865 -0.5654,1.0498 -1.3735,1.0498 z" /><path
       id="path74"
       style="fill:#ffffff;fill-opacity:1;fill-rule:nonzero;stroke:none"
       d="m 300.0171,370.7529 c -0.7271,0 -1.1719,-0.7675 -0.0405,-0.7675 0,0 0.4848,0.121 0.6464,-0.7676 0,1.1308 0.1211,1.5351 -0.6059,1.5351 z" /><path
       id="path76"
       style="fill:#ffffff;fill-opacity:1;fill-rule:nonzero;stroke:none"
       d="m 296.9468,365.8643 c 0,-0.7266 0.3637,-2.2618 1.0908,-2.3428 0,0.9697 -0.5654,0.9697 -1.0908,2.3428 z" /><path
       id="path78"
       style="fill:#ffffff;fill-opacity:1;fill-rule:nonzero;stroke:none"
       d="m 279.1665,432.6665 c -3.583,-2.333 -6.8335,-3.6665 -8.25,-3.6665 -2,0 -6.083,1.6665 -6.083,6.6665 -1.75,0 -4.5,2.6665 -4.5,6 0,3.3335 1.2085,7.9585 3.6665,10.417 C 261.8335,454.8335 259.6665,464 257.5835,464 252.5,464 238,452.583 238,445.6665 c 0,-2.4165 0.625,-2.2915 2.9165,-4.583 2.2915,-2.2915 15.25,-15.8335 15.25,-15.8335 2.3335,2 4.25,3.25 6.5835,3.25 2.4165,1.75 2.5415,1.9585 3.4165,1.0835 0.875,-0.875 0.2085,-1.1255 -0.583,-1.917 1.4165,-1 2.4165,-3.5 2.4165,-3.5 2,2 2.25,0.5835 2.25,0.5835 1,-1 0.208,-0.7085 -1.8335,-2.75 0,-2.0835 -2,-5.5835 -2,-5.5835 2.417,0.3335 9.417,5.5 13.8335,14.25 0,0 -0.167,1.5 -1.0835,2 M 258.8335,459 c 2,0 -1.75,-3.75 -4.5,-4.75 1.5835,1 3.5,4.75 4.5,4.75 m -19.417,-10.75 c 0.583,0.9165 1,2.4165 4.417,5.3335 0,0 -3.8335,-5.8335 -1.917,-4.25 2.1665,1.5 7.917,7.75 10.5,10 -1.6665,-3.417 -8.333,-9.167 -11.5,-12.0835 -3.167,-2.9165 -2.1665,-0.8335 -1.5,1 m 7.0835,-1.3335 c 0,0 2.4165,1.5835 3.5,2.75 l 1.25,-1.7446 c -2.0054,-2.0366 -3.25,-2.8384 -3.25,-2.8384 l -1.5,1.833 m 5.5034,-6.2095 -1.6455,1.7036 c 0,0 2.2788,1.7764 3.2627,3.0279 l 1.3892,-1.6363 c -1.8316,-2.1943 -3.0064,-3.0952 -3.0064,-3.0952 m 3.75,-4.6875 -1.6455,1.7036 c 0,0 2.2788,1.7764 3.2627,3.0279 l 1.3892,-1.6363 c -1.8316,-2.1943 -3.0064,-3.0952 -3.0064,-3.0952 m 4.0625,-5.375 -1.6455,1.7036 c 0,0 2.2788,1.7764 3.2627,3.0279 l 1.3892,-1.6363 c -1.8316,-2.1943 -3.0064,-3.0952 -3.0064,-3.0952 z" /><path
       id="path80"
       style="fill:#ffffff;fill-opacity:1;fill-rule:nonzero;stroke:none"
       d="m 265.6821,435.0796 c 0,-1.4956 1.0318,-5.1563 5.0537,-5.1563 2.2686,0 11.1895,4.022 11.1895,11.2408 0,3.4033 -2.1143,5.208 -3.6611,5.208 -1.083,0 -12.5821,-5.7749 -12.5821,-11.2925 z" /><path
       id="path82"
       style="fill:#1ffffa;fill-opacity:1;fill-rule:nonzero;stroke:none"
       d="m 278.6001,444.0557 c -1.7017,0 -1.9595,-1.1343 -1.9595,-1.5987 0,-1.5986 2.1656,-1.3921 2.1656,-4.3833 0,-2.4751 -1.0313,-3.5063 -1.0313,-3.5063 1.6499,1.3408 3.042,3.4033 3.0938,6.188 0,2.372 -1.4952,3.3003 -2.2686,3.3003 z" /><path
       id="path84"
       style="fill:#ffffff;fill-opacity:1;fill-rule:nonzero;stroke:none"
       d="m 272.4375,454.9321 c -7.9414,0 -11.1382,-7.6318 -11.1382,-12.582 0,-3.6611 2.6299,-5.5688 3.2486,-5.5688 0.9282,0 0.7734,1.5986 1.4438,2.2685 1.2114,1.2119 8.3018,7.6318 9.3848,7.6318 1.083,0 1.083,1.5469 1.083,2.3204 0,0.7734 -0.7217,5.9301 -4.022,5.9301 z" /><path
       id="path86"
       style="fill:#1ffffa;fill-opacity:1;fill-rule:nonzero;stroke:none"
       d="m 273.0825,453.0791 c 0.356,-0.8013 0.773,-3.1968 0.2061,-4.5376 -0.5669,-1.3408 -1.6494,-3.4028 -2.5264,-4.125 1.9595,1.5469 3.3521,2.4756 4.1768,2.6299 0.4126,0.1543 0.4638,1.1855 0.4638,2.3716 0,1.6504 -0.5669,2.9912 -2.3203,3.6611 z" /><path
       id="path88"
       style="fill:#ffffff;fill-opacity:1;fill-rule:nonzero;stroke:none"
       d="m 270.1685,465.5029 c 0,3.4546 -0.3614,5.1045 -3.1973,5.1045 -2.8359,0 -6.291,-2.0107 -7.7861,-5.9297 2.1142,-2.1142 4.3315,-10.416 5.5175,-11.602 1.4439,1.289 3.6612,2.5264 4.5894,2.5264 0,5.0019 0.8765,6.6518 0.8765,9.9008 z" /><path
       id="path90"
       style="fill:#1ffffa;fill-opacity:1;fill-rule:nonzero;stroke:none"
       d="m 268.2241,455.3247 c -0.7085,-0.2895 -1.5732,-0.7798 -2.376,-1.3452 0,0 -0.3452,0.1821 -0.2939,1.2651 0,3.5581 2.939,5.8272 2.939,8.8179 0,0.8765 0.2065,-0.0518 0.2065,-0.0518 0,-5.5175 -0.7734,-5.9296 -0.7734,-7.0127 0,-1.083 0.2978,-1.6733 0.2978,-1.6733 z" /><path
       id="path92"
       style="fill:#ffffff;fill-opacity:1;fill-rule:nonzero;stroke:none"
       d="m 250.6772,425.7466 c 0,-2.2173 0.98,-5.3628 2.8877,-6.6519 0,1.4956 0.3614,2.1148 0.6705,2.4239 0,-1.7535 -0.2071,-3.7129 2.0107,-5.9302 2.2178,-2.2173 2.8364,-2.3203 3.352,-2.3203 1.7017,0 7.5801,3.0942 7.5801,8.7661 0,4.6406 -3.6098,5.208 -4.7959,5.208 -2.3716,0 -4.0473,-1.1602 -7.7344,-4.8472 -0.2065,1.6499 0.6187,1.8565 0.6187,1.8565 l -3.6611,4.2798 c 0,0 -0.3096,0.7734 -0.5674,-0.2579 -0.2578,-1.0312 -0.3609,-1.9082 -0.3609,-2.5268 z" /><path
       id="path94"
       style="fill:#1ffffa;fill-opacity:1;fill-rule:nonzero;stroke:none"
       d="m 255.2666,424.2515 -2.3652,2.7651 c -0.2383,-0.8027 -0.4961,-3.4326 0.1225,-4.6187 0.4126,-1.0312 0.5669,-0.5668 0.9795,0 0.3613,1.4957 1.2632,1.8536 1.2632,1.8536 z" /><path
       id="path96"
       style="fill:#1ffffa;fill-opacity:1;fill-rule:nonzero;stroke:none"
       d="m 263.0273,425.6982 c -1.5986,0 -1.2373,-0.8769 -1.2373,-1.2378 0,-2.0625 1.5982,-1.7529 1.5982,-3.8154 0,-2.0625 -1.5469,-4.0742 -2.7329,-5.1567 -0.3096,-0.3096 -0.2578,-0.5156 0.5156,0 1.9082,1.2378 4.4863,4.1255 4.4863,6.6006 0,2.4751 -0.98,3.6093 -2.6299,3.6093 z" /><path
       id="path98"
       style="fill:#ff6699;fill-opacity:1;fill-rule:nonzero;stroke:none"
       d="m 264.7222,414.9419 c -0.7725,-1.2373 -2.7823,-2.0869 -2.7823,-2.0869 0.6182,-1.0821 2.7056,-1.7779 5.333,-0.1548 2.6275,1.623 13.6026,9.5845 16.0757,17.6221 0.6182,2.2412 -3.2461,2.9365 -2.8598,1.623 0.3095,-0.9277 0.9277,-1.0054 -0.3863,-3.3237 -1.3139,-2.3184 -6.5693,-10.9746 -15.3803,-13.6797 z" /><path
       id="path100"
       style="fill:#ff6699;fill-opacity:1;fill-rule:nonzero;stroke:none"
       d="m 269.0503,412.855 c 0,-0.6958 0.6953,-0.6182 1.082,-0.6182 0.3867,0 2.8599,0.8496 4.0191,2.9365 1.082,0.3096 -1.3911,-2.705 -2.396,-3.1684 -0.541,-0.541 1.1592,-2.0869 2.705,-2.0869 1.855,0 1.9327,1.0049 4.483,1.0049 1.8549,0 2.0864,-1.2369 3.6323,-1.2369 1.0049,0 1.4687,0.8506 1.4687,1.7779 0,0.9272 -0.9277,2.164 -0.9277,3.8642 0,1.7002 0.4639,1.7007 0.4639,4.251 0,2.5503 -0.4639,2.4731 -0.773,2.4731 -0.3091,0 -1.5454,-1.4682 -1.7002,-1.9321 -0.3867,0.6953 1.3911,2.396 1.3911,2.396 0,0 0.5411,0.6953 0.5411,1.7002 0,1.0049 -0.4639,2.5503 -1.0821,1.4683 -1.2368,-2.3184 -5.4101,-7.6514 -12.9072,-12.8296 z" /><path
       id="path102"
       style="fill:#ffffff;fill-opacity:1;fill-rule:nonzero;stroke:none"
       d="m 270.335,413.7676 c -0.1753,-0.128 -0.3526,-0.2559 -0.5318,-0.3838 0.4307,-0.8799 1.6572,-0.6548 1.6572,-0.6548 -1.0629,0.3272 -1.1254,1.0386 -1.1254,1.0386 z" /><path
       id="path104"
       style="fill:#ffffff;fill-opacity:1;fill-rule:nonzero;stroke:none"
       d="m 272.3003,415.2632 c -0.009,-0.007 -0.0181,-0.0137 -0.0269,-0.021 -0.5014,-0.3989 -1.0219,-0.7984 -1.563,-1.1992 0.5547,-0.5279 1.7432,-0.7051 1.7432,-0.7051 l 0.6826,0.5312 c 0,0 -1.1406,0.5376 -0.8359,1.3941 z" /><path
       id="path106"
       style="fill:#ffffff;fill-opacity:1;fill-rule:nonzero;stroke:none"
       d="m 273.7935,413.3633 c -0.5186,-0.5181 -0.7837,-0.8599 -0.7837,-0.8599 1.2387,-1.2388 3.5908,-1.4414 4.2988,-1.4414 0.8091,0.228 -2.124,0.3794 -3.5151,2.3013 z" /><path
       id="path108"
       style="fill:#ffffff;fill-opacity:1;fill-rule:nonzero;stroke:none"
       d="m 353.9375,371.3125 c 0,-2.8125 2.0625,-4.5625 2.375,-4.5625 1.0625,0 3.125,2.6875 3.125,3.25 0,0.5625 0.5625,0.4375 0.375,-0.25 0,-0.9375 -2.125,-4.0625 -5.0625,-5.0625 -2,-0.9375 -5.9375,-0.8125 -5.9375,-5.4375 0,-4.625 3.6875,-4.25 4.375,-4.25 0.6875,0 4.6563,0.4688 6.6875,2.5 6.2188,6.2188 8.4375,6.875 12.0625,8.3125 0.9375,0.5 1.5625,0.0625 1.5625,0.0625 0,0 1.4375,-0.375 4.375,-0.375 5.375,0 18.125,1.75 18.125,7.5625 0,1 -0.1875,1.3125 -0.6875,0.9375 -0.5,-0.375 -4.625,-4.0625 -12.8125,-4.0625 -3,-1.5625 -6.0625,-3.0625 -7.75,-3.0625 8.5625,3.125 11.625,7.5625 12.8125,8.75 1.1875,1.1875 5.0625,5.375 5.0625,9.1875 0,3.8125 -3.1875,5.375 -5.875,5.375 -3.5625,0 -3.8125,-3 -6.8125,-6.8125 -1.875,-2.5 -5,-5.875 -10.0625,-7.25 -2.9375,-0.875 -6.5,-2.25 -9.125,-2.9375 2.6875,2.1875 7.25,3.4375 8,3.4375 0.75,0 1.875,0.9375 1.875,1.6875 0,0.75 -0.8125,3.875 -3.5,3.875 -2.6875,0 -5.2021,-2.6924 -8.125,-3.75 -2.625,-1.9375 -5.0625,-4.0625 -5.0625,-7.125 z" /><path
       id="path110"
       style="fill:#1ffffa;fill-opacity:1;fill-rule:nonzero;stroke:none"
       d="m 355.2842,375.04 c -0.7031,-0.9306 -1.1875,-1.9541 -1.3145,-3.1171 0.7158,-0.0479 1.0879,-0.2598 1.0879,-0.2598 -0.1592,1.3808 0.2266,3.3769 0.2266,3.3769 z" /><path
       id="path112"
       style="fill:#ffffff;fill-opacity:1;fill-rule:nonzero;stroke:none"
       d="m 384.0469,370.9844 c 2.4463,0 13.0283,1.6513 13.0283,7.8906 0,4.7715 -1.7725,5.75 -2.5684,5.75 -0.7959,0 -1.3457,-0.918 -1.3457,-1.5293 0,-3.5478 -5.1992,-9.1748 -9.1142,-12.1113 z" /><path
       id="path114"
       style="fill:#1ffffa;fill-opacity:1;fill-rule:nonzero;stroke:none"
       d="m 363.1318,374.7002 c 1.9248,0.9844 3.9854,1.6191 5.0293,1.8389 1.0469,0.7949 1.3389,1.1289 1.3389,2.2949 0,1.166 -0.543,2.334 -1.959,2.375 -1.416,0.041 -1.666,-0.334 -1.666,-0.334 1.416,-0.458 1.75,-1.25 1.75,-1.875 0.041,-1.208 -1.417,-2.458 -2.667,-2.958 -1.25,-0.5 -1.8262,-1.3418 -1.8262,-1.3418 z" /><path
       id="path116"
       style="fill:#1ffffa;fill-opacity:1;fill-rule:nonzero;stroke:none"
       d="m 354.8125,371.375 c -0.083,-1.498 -0.25,-3.8125 1.625,-3.8125 1.125,0 1.5625,0.5625 1.5625,1.1875 0,0.625 -0.4375,0.75 -0.625,0.75 -0.375,-0.4375 -1.8125,-0.0625 -2.5625,1.875 z" /><path
       id="path118"
       style="fill:#1ffffa;fill-opacity:1;fill-rule:nonzero;stroke:none"
       d="m 354.375,355.75 c 3.708,0 7.583,6 8.625,6 -1.792,0 -6.125,-4.25 -9.292,-4.25 -1.875,0 -2.666,0.875 -2.666,0.875 0.541,-1.292 1.791,-2.625 3.333,-2.625 z" /><path
       id="path120"
       style="fill:#1ffffa;fill-opacity:1;fill-rule:nonzero;stroke:none"
       d="m 372.375,368.417 c 0,-0.625 0.46,-1.333 1.334,-1.333 0.874,0 2.583,0.75 3.166,1.625 -1.042,-0.25 -0.958,-0.292 -1.958,-0.292 -1,0 -1.875,0.375 -2.042,0.625 -0.167,0.25 -0.5,-0.083 -0.5,-0.625 z" /><path
       id="path122"
       style="fill:#1ffffa;fill-opacity:1;fill-rule:nonzero;stroke:none"
       d="m 376.25,366.375 c 0.708,0 4,-0.084 4.208,0.125 0.208,0.209 -0.8125,0.6465 0.625,2.084 -1.833,-1.042 -5.333,-2.209 -4.833,-2.209 z" /><path
       id="path124"
       style="fill:#1ffffa;fill-opacity:1;fill-rule:nonzero;stroke:none"
       d="m 387.375,387.75 c 1.0449,-0.4482 1.083,-1.042 1.083,-2.375 0,-5 -5.208,-10.583 -7.208,-12.583 3.042,1.958 10.083,7.749 10.083,11.833 0,3.375 -1.582,3.5 -2.291,3.5 -0.709,0 -2.25,-0.125 -1.667,-0.375 z" /><path
       id="path126"
       style="fill:#1ffffa;fill-opacity:1;fill-rule:nonzero;stroke:none"
       d="m 395,382.042 c -0.417,-1.083 -1.458,-2.083 -1.708,-2.208 -0.5,-0.708 0.291,-0.709 0.291,-1.292 0,-2.417 -3.667,-5.833 -4.625,-5.833 2.167,0.666 7.167,2.916 7.167,7.083 0,1.792 -0.75,1.792 -1.125,2.25 z" /><path
       id="path128"
       style="fill:#1ffffa;fill-opacity:1;fill-rule:nonzero;stroke:none"
       d="m 395.083,372.625 c -0.875,0 -1.375,-0.542 -1.708,-1.125 -0.333,-0.583 -2.75,-3.458 -5.375,-3.458 4.375,0.333 7.292,2.709 7.292,3.917 0,0.541 -0.209,0.666 -0.209,0.666 z" /><path
       id="path130"
       style="fill:#ff6699;fill-opacity:1;fill-rule:nonzero;stroke:none"
       d="m 371.3223,364.3877 c 0.4687,-0.7881 0.7422,-1.7383 0.7422,-2.7607 0,-2.7256 -1.9463,-4.9366 -4.3467,-4.9366 -1.8233,0 -3.3848,1.2764 -4.0303,3.085 -0.8311,-0.8086 -1.415,-1.2949 -1.415,-1.2949 1.0156,-2.1651 3.0732,-3.6465 5.4453,-3.6465 3.3789,0 6.1191,3.0039 6.1191,6.7109 0,1.4004 -0.3916,2.7002 -1.0605,3.7754 -0.4082,-0.3057 -1.4541,-0.9326 -1.4541,-0.9326 z" /><path
       id="path132"
       style="fill:#ff6699;fill-opacity:1;fill-rule:nonzero;stroke:none"
       d="m 367.792,353.833 c 0,-3.625 1.166,-7.374 1.166,-8.791 1.167,0.375 2.5,0.5 2.5,0.5 0,2.125 -1.083,5.416 -1.083,8.833 -1.458,-0.708 -2.583,-0.542 -2.583,-0.542 z" /><path
       id="path134"
       style="fill:#ff6699;fill-opacity:1;fill-rule:nonzero;stroke:none"
       d="m 383.792,332.7705 c 0,-5.3965 -4.3369,-9.7705 -9.6865,-9.7705 -5.3516,0 -9.6885,4.374 -9.6885,9.7705 0,5.3975 4.3369,9.7715 9.6885,9.7715 5.3496,0 9.6865,-4.374 9.6865,-9.7715 z" /><path
       id="path136"
       style="fill:#ffffff;fill-opacity:1;fill-rule:nonzero;stroke:none"
       d="m 375.125,339.083 c 0,-2.791 5,-5.25 5,-7.333 0.375,-1.167 0.458,-2.625 0.917,0.208 0.791,5.709 -2.917,8.375 -4.417,8.375 -1.167,0 -1.5,-0.875 -1.5,-1.25 z" /><path
       id="path138"
       style="fill:#ff6699;fill-opacity:1;fill-rule:nonzero;stroke:none"
       d="m 372.208,344.917 c -2,0 -4,-1.749 -4.458,-2.833 2.5,1.25 4.751,1.625 5.292,1.625 1.916,0 1.166,1.208 -0.834,1.208 z" /><path
       id="path140"
       style="fill:#ffffff;fill-opacity:1;fill-rule:nonzero;stroke:none"
       d="m 372.208,344.917 c -0.4072,0 -0.8144,-0.0723 -1.209,-0.1963 0.2666,-0.2363 0.5069,-1.2617 0.5069,-1.2617 0.7519,0.1797 1.3027,0.25 1.5361,0.25 -0.3076,0.7598 -0.8545,1.2441 -0.8545,1.2441" /></g></svg>