<?xml version="1.0" encoding="UTF-8" standalone="no"?>
<!-- Created with sK1/UniConvertor (http://sk1project.org/) -->

<svg
   xmlns:dc="http://purl.org/dc/elements/1.1/"
   xmlns:cc="http://creativecommons.org/ns#"
   xmlns:rdf="http://www.w3.org/1999/02/22-rdf-syntax-ns#"
   xmlns:svg="http://www.w3.org/2000/svg"
   xmlns="http://www.w3.org/2000/svg"
   xmlns:sodipodi="http://sodipodi.sourceforge.net/DTD/sodipodi-0.dtd"
   xmlns:inkscape="http://www.inkscape.org/namespaces/inkscape"
   width="595.276pt"
   height="841.89pt"
   viewBox="0 0 595.276 841.89"
   fill-rule="evenodd"
   version="1.1"
   id="svg400"
   sodipodi:docname="bison.svg"
   inkscape:version="0.92.4 (5da689c313, 2019-01-14)">
  <metadata
     id="metadata406">
    <rdf:RDF>
      <cc:Work
         rdf:about="">
        <dc:format>image/svg+xml</dc:format>
        <dc:type
           rdf:resource="http://purl.org/dc/dcmitype/StillImage" />
      </cc:Work>
    </rdf:RDF>
  </metadata>
  <defs
     id="defs404" />
  <sodipodi:namedview
     pagecolor="#ffffff"
     bordercolor="#666666"
     borderopacity="1"
     objecttolerance="10"
     gridtolerance="10"
     guidetolerance="10"
     inkscape:pageopacity="0"
     inkscape:pageshadow="2"
     inkscape:window-width="1366"
     inkscape:window-height="715"
     id="namedview402"
     showgrid="false"
     inkscape:zoom="0.14866301"
     inkscape:cx="1202.8039"
     inkscape:cy="-647.28607"
     inkscape:window-x="-8"
     inkscape:window-y="22"
     inkscape:window-maximized="1"
     inkscape:current-layer="svg400" />
  <g
     id="g398"
     transform="matrix(0.85068502,0,0,0.90283831,-533.61958,-745.83265)">
    <g
       id="g396">
      <path
         style="fill:#edd4c5;stroke:#000000;stroke-width:2"
         d="m 1076.06,1156.89 c 0,0 -0.75,10.04 0.35,13.19 1.09,3.15 15.21,12.99 14.65,18.81 -0.97,8.84 -9,21 -15,26 -6,5 -4,13 -4,13 0,0 1,6 2,14 1,8 4,23 2,31 -2,8 -5,14 -4,19 1,5 1.36,12.15 6,16 4.64,3.85 6.68,6.76 6,14 -0.67,7.24 -6.69,13.94 -9,17 -3.24,4.3 -19,18 -21,21 -2,3 -5.71,6.88 -9.27,7.97 -3.45,1.06 -18.73,4.03 -38.73,-5.97 -19.998,-10 -122.998,-48 -126.998,-52 -4,-4 -85,-7 -85,-7 l -47,-3 -29,1 c 0,0 9,-17 18,-43 9,-26 23,-67 24,-73 0,0 -0.999,-8.67 2.334,-12 0,0 -3.334,-38.67 0.666,-45 2.098,-3.32 2.379,-12.6 5.435,-16.74 2.772,-3.76 8.066,-2.31 14.565,-6.59 13.667,-9 48.334,-24.67 73.334,-31.34 10.666,-3.33 27.333,-11 49,-14 15.666,0 55.666,8.34 55.666,8.34 0,0 70.668,31.33 71.668,32 1,0.66 19,20.33 19.67,22 0.66,1.66 13.33,16.33 14.33,17.66 1,1.34 9.33,17.67 9.33,17.67 z"
         id="path2"
         inkscape:connector-curvature="0" />
      <path
         style="fill:#521606;stroke:none"
         d="m 920.898,1058.27 c 0,0 -29.007,14.5 -36.111,24.86 -7.104,10.36 -8.88,8.29 -9.768,18.95 -0.888,10.65 -0.592,14.5 0.888,19.53 1.48,5.03 3.256,9.18 6.808,12.43 3.552,3.26 13.023,4.44 -0.592,7.11 -13.616,2.66 -10.36,1.48 -15.688,4.44 -5.328,2.96 -13.912,12.72 -14.503,13.32 -0.592,0.59 4.143,-28.12 -6.216,-36.71 -10.36,-8.58 -13.616,-2.07 -17.168,-1.18 -3.551,0.89 -34.038,27.53 -29.894,52.39 4.143,24.86 7.399,39.37 23.087,36.7 15.687,-2.66 14.8,-4.14 14.8,-4.14 l 12.135,11.84 c 0,0 -12.116,37.41 -10.043,42.15 2.072,4.73 42.305,48.72 44.081,50.79 1.776,2.07 -29.302,-7.7 -29.302,-7.7 l -31.375,-3.25 c 0,0 6.125,-25.65 4.944,-28.51 -4.208,-10.2 -20.738,-41.5 -32.175,-52.59 -9.768,-9.47 -33.151,-30.49 -34.927,-31.08 -1.776,-0.59 1.407,-13.41 2.705,-14.03 4.299,-2.08 0.254,-39.55 0.847,-42.21 0.592,-2.66 6.808,-17.76 15.095,-22.2 8.288,-4.44 30.783,-25.75 78.437,-35.22 28.711,-7.99 26.639,-9.47 37.591,-10.95 10.952,-1.48 26.344,-4.74 26.344,-4.74 z"
         id="path4"
         inkscape:connector-curvature="0" />
      <path
         style="fill:#906860;stroke:none"
         d="m 822.729,1112.89 c -3.552,0.89 -28.888,35.59 -24.745,60.46 4.144,24.86 0.849,24.63 -10.588,13.54 -9.768,-9.47 -23.57,-13.8 -24.812,-13.3 0.592,-4.74 -1.461,-37.17 -0.869,-39.83 0.405,-1.82 3.131,-16.9 7.652,-22.96 2.097,-2.81 6.243,-2.76 8.869,-4.17 8.288,-4.44 33.506,-24.27 81.16,-33.74 -11.565,11.66 -33.115,39.11 -36.667,40 z"
         id="path6"
         inkscape:connector-curvature="0" />
      <path
         style="fill:#906860;stroke:none"
         d="m 808.062,1202.39 c 0,0 -16.666,12.5 -14,17.17 2.667,4.66 5.582,6.18 7.334,10.66 1.752,4.49 -28.638,67.92 -24.409,74.44 5.834,9 51.469,0.28 51.469,0.28 0,0 3.606,-78.72 2.273,-83.38 -1.333,-4.67 -8.667,6.66 -14.667,1.33 -6,-5.33 -8,-17.83 -8,-20.5 z"
         id="path8"
         inkscape:connector-curvature="0" />
      <defs
         id="defs19">
        <radialGradient
           id="1"
           cx="989.06201"
           cy="1213.39"
           r="52.324799"
           fx="989.06201"
           fy="1213.39"
           gradientUnits="userSpaceOnUse">
          <stop
             offset="0"
             style="stop-color:#ffffff"
             id="stop10" />
          <stop
             offset="0.639687"
             style="stop-color:#ffffff"
             id="stop12" />
          <stop
             offset="0.93539"
             style="stop-color:#233b4f"
             id="stop14" />
          <stop
             offset="1"
             style="stop-color:#233b4f"
             id="stop16" />
        </radialGradient>
      </defs>
      <path
         style="fill:url(#1);stroke:none"
         d="m 1034.56,1227.39 c 0,0 -22,-11 -25.5,-12.5 -3.5,-1.5 -24.998,-5 -28.998,-5 -4,0 -19.5,1 -23.5,0.5 -4,-0.5 -6.5,0.5 -6.5,0.5 l -4,1.67 -4,6.33 2,9.5 2,5 3,3 12.5,-1 21.5,-2 18.998,-2.5 c 0,0 18.5,-0.5 26.5,-1.5 8,-1 6,-2 6,-2 z"
         id="path21"
         inkscape:connector-curvature="0" />
      <path
         style="fill:#ffd4b8;stroke:none"
         d="m 1223.06,1156.89 -317.575,-90 c -9.915,5.27 -16.099,11.45 -16.099,11.45 0,0 23.599,13.53 23.599,25.55 0,1.5 16.5,-10.5 16.5,-10.5 l 0.5,-14.5 c 0,0 -14.584,-17.27 -24.5,-12 z"
         id="path23"
         inkscape:connector-curvature="0" />
      <path
         style="fill:none;stroke:#000000;stroke-width:2"
         d="M 1023.81,1367.89"
         id="path25"
         inkscape:connector-curvature="0" />
      <path
         style="fill:#bb9292;stroke:none"
         d="m 1064.73,1346.64 c 0,0 6.67,-18.67 -5.33,-20 -12,-1.33 -8,4 -16.67,-1.33 -8.67,-5.34 -12,-21.34 -24,-26 -12,-4.67 -20.668,0 -32.668,4 -12,4 -15.333,8 -20.666,2 0,0 -8.667,-8 -2,-13.34 6.666,-5.33 10,-4.66 19.333,-7.33 9.333,-2.67 18.671,-8 23.331,-14 4.67,-6 16.67,-12.67 16,-16.67 -0.66,-4 -2,-3.33 3.34,-3.33 5.33,0 19.33,-2.67 12.66,-4 -6.66,-1.33 -14.66,-2 -22,-1.33 -7.33,0.66 -31.331,6 -37.331,8 -6,2 -36,10 -40,12 -4,2 -16,6 -21.333,6 -5.334,0 -18,-7.34 -22,-13.34 -4,-6 -12.667,-12 -20,-12.66 -10.667,-5.34 -13.333,-11.34 -16,-14 -2.667,-2.67 -8.614,-12.34 -10.72,-13.5 -3.17,-1.74 -11.825,32.11 -10.491,40.78 1.333,8.66 15.89,20.85 20.556,26.19 4.667,5.33 15.738,21.78 21.071,25.11 5.334,3.33 32.917,13.42 32.917,13.42 l 30.667,12 46.045,19.13 5.288,2.2 25.331,10.75 14,1.75 9.75,-1.25 6.5,-4.63 5.13,-6.37 7.37,-6.88 z"
         id="path27"
         inkscape:connector-curvature="0" />
      <path
         style="fill:#bb9292;stroke:none"
         d="m 1018.06,1165.56 c 0,0 -14,-6 -15.33,-2 -1.33,4 -6.668,7.33 -0.67,14 6,6.66 6.67,8.66 10,8 3.34,-0.67 27.86,-2.05 33.86,5.28 6,7.33 2.17,11.35 0.84,16.68 0,11.34 -4.7,2.04 -10.03,-1.3 -4,-9.33 -8,-4 -4,2.67 4,6.67 6.67,15.33 8,16 1.33,0.67 -21.33,-0.67 -24.67,-6 -3.33,-5.33 -20.664,-9.67 -33.331,-10 -16.049,-0.42 -32.667,2 -32.667,2 l 5.334,-8 -9.334,9.67 -16,21.66 c 0,0 -10.666,10.67 -14.666,20 -4,9.34 18,-42.66 22,-47.33 0.666,-9.33 -0.667,-9.33 -8,-8 -7.334,1.33 -19.333,9.33 -26,10 -6.667,0.67 -10.667,-0.67 -11.334,-8 -0.666,-7.33 -2.666,-26 6.667,-31.33 9.333,-5.34 18.667,-11.34 28.667,-12.67 10,-1.33 29.333,-0.67 34.666,0.67 5.334,1.33 8.667,4.66 7.334,10.66 -1.334,6 -4,8 -2,8 2,0 12,-5.33 16,-10 4,-4.66 14,-9.33 18.664,-9.33 4.67,0 14,4.67 16,8.67 z"
         id="path29"
         inkscape:connector-curvature="0" />
      <path
         style="fill:#bb9292;stroke:none"
         d="m 755.396,1298.89 c 0,0 -1.334,-17.33 4.666,-35.33 6,-18 10.667,-28 12,-36 1.334,-8 7.334,-15.34 6,-22.67 -1.333,-7.33 21.681,19.59 34.348,36.92 12.667,17.33 15.501,25.87 16.986,29.75 2.384,6.22 3.948,17.15 -7.359,28.24 -10.641,9.09 -8.641,8.42 -8.641,8.42 z"
         id="path31"
         inkscape:connector-curvature="0" />
      <path
         style="fill:#cfafb6;stroke:none"
         d="m 827.338,1122.28 c 1.974,2.58 6.683,7.29 8.809,10.17"
         id="path33"
         inkscape:connector-curvature="0" />
      <path
         style="fill:#521606;stroke:#000000;stroke-width:2"
         d="m 816.062,1111.56 c 0,0 -10.666,-6.67 -21.333,6.66 -10.667,13.34 -9.666,22.34 -11.333,28 -1.667,5.67 -7.334,35.67 2.333,45 9.667,9.34 18.333,12 21.333,17.34 3,5.33 0.667,16 13,16 12.334,0 14.667,-12.34 18.334,-15 3.666,-2.67 13.666,-53.67 13.666,-53.67 l -0.333,-23 -6.667,-9 -10,-1.67 -5.333,2 c 0,0 -8.333,-11.66 -13.667,-12.66 z"
         id="path35"
         inkscape:connector-curvature="0" />
      <path
         style="fill:none;stroke:#000000;stroke-width:2"
         d="M 742.729,1102.22"
         id="path37"
         inkscape:connector-curvature="0" />
      <path
         style="fill:none;stroke:none"
         d="M 736.729,1113.56"
         id="path39"
         inkscape:connector-curvature="0" />
      <path
         style="fill:#bb9292;stroke:#000000;stroke-width:1;stroke-linecap:round;stroke-linejoin:round"
         d="m 841.977,1207.69 c -2.833,0.33 -6.415,2.7 -7.415,5.53 -1,2.84 -6.333,9.34 -12.833,10.17 -11.5,0 -10.167,-3.5 -13.833,-15.5 -3.834,-4.33 -7.5,-6.92 -10,-8.5 -3.25,-2.06 -7.917,-5.58 -12.084,-9.25 -1.333,-2.5 -2.583,-4.67 -3.25,-7.5 0,0 -1.25,-7.5 -1.25,-14.75 0,-2.85 0.417,-15.83 2.25,-18.17 1.834,-2.33 10.834,-3.5 12,-2.16 1.167,1.33 4.167,3 6,2 8.282,-4.52 5.167,-12.67 9.834,-12 4.666,0.66 7,3.5 7.833,6 0.833,2.5 -5.833,7 -8.833,12 -3,5 1.666,11.5 5.166,14.33 3.5,2.83 5.667,5.17 11,7.67 5.334,2.5 7.667,6.33 4.334,8.66 -3.334,2.34 -5.667,9.67 -19.667,-4.83 -14,-14.5 -10.833,-18 -16.833,-17.33 -6,0.66 -6,0.33 -6.167,2.66 -0.167,2.34 -1.833,13.84 6.167,16.5 8,2.67 10,1 15.833,3.34 5.833,2.33 5.5,4.16 6.5,6.33 1,2.17 2.5,11.17 6.667,7.83 4.166,-3.33 11.333,-9.33 12.666,-14.83 1.334,-5.5 2.834,-10 -1.833,-11 -4.667,-1 -5.5,-2 -6.333,-4.17 -0.834,-2.16 -3.5,-4 -2.834,-6.66 0.667,-2.67 5.667,-6.84 7.5,-7.5 1.834,-0.67 1.5,-3.84 1.5,-3.84 0,0 -0.166,-6 0.167,-9.66 0.333,-3.67 7.833,-1.5 10.333,-2.34 2.5,-0.83 6.334,-4.66 6.334,-4.66 l 1.5,1.83 c 0,0 -0.587,18.8 0.413,21.63"
         id="path41"
         inkscape:connector-curvature="0" />
      <path
         style="fill:#edd4c5;stroke:none"
         d="m 829.974,1166.54 c 0,0 13.095,-8.57 12.151,-12.91 -1.519,-6.99 -5.351,-2.82 -8.085,-2.52 0.061,-2.07 0.061,-5.02 0.082,-7.11 -1.519,-1.83 -12.502,-18.32 -19.489,-20.9 -6.987,-2.58 -6.683,-4.25 -12.91,-2.74 -6.227,1.52 -6.228,-3.34 -4.405,-4.7 1.823,-1.37 5.994,-5.77 13.494,-5.02 9.505,0.95 14.301,8.05 16.276,10.64 1.974,2.58 6.683,7.29 8.809,10.17 2.43,1.83 4.557,2.13 6.379,1.22 1.823,-0.91 5.164,-1.37 3.19,-4.25 -1.975,-2.89 -7.443,-3.65 -11.999,-3.65 -4.557,0 -6.076,-5.47 0.455,-5.92 6.532,-0.46 8.659,-0.31 10.481,0.6 1.822,0.91 4.708,1.22 6.379,4.86 1.671,3.65 1.063,9.57 1.519,11.55 0.455,1.97 -4.709,5.47 -8.506,6.07 -3.797,0.61 -9.673,2.07 -9.673,2.07 0,0 0.016,2.96 -0.122,8.49 -0.078,3.1 -6.608,2.5 -7.824,5.85 -1.215,3.34 -1.519,5.77 3.798,8.2 z"
         id="path43"
         inkscape:connector-curvature="0" />
      <path
         style="fill:#cfafb6;stroke:none"
         d="m 842.276,1132.67 c 1.823,-0.91 5.164,-1.37 3.19,-4.25 -1.975,-2.89 -9.045,-2.5 -13.341,-4.05 -4.287,-1.54 -4.813,-6.07 1.718,-6.53 6.532,-0.46 8.738,0.7 10.56,1.61 1.822,0.91 4.708,1.22 6.379,4.86 1.671,3.65 1.063,9.57 1.519,11.55"
         id="path45"
         inkscape:connector-curvature="0" />
      <path
         style="fill:#906860;stroke:none"
         d="m 1084.06,1203.39 c 0,0 6,-7.5 -2.5,-12 0,0 -10.5,-9.5 -22.5,-14.5 -12,-5 -38,-20.5 -38,-20.5 0,0 -7.5,-11 -15.5,-15 -7.998,-4 -14.498,1 -29.998,2.5 -15.5,1.5 -40.5,3 -27.5,-3.5 13,-6.5 12.613,-18.25 10.613,-20.75 -2,-2.5 -11.749,-16.52 -27.613,-3.25 -5.177,4.33 -6.666,0.5 -7.333,-3.17 -0.667,-3.66 -5.938,-8.42 -10.271,-9.09 -4.334,-0.66 26.938,-2.57 33.938,0.43 7,3 74.334,20 82.334,24.66 8,4.67 25,12 27.33,17.67 2.34,5.67 -0.2,15.76 5.13,19.76 5.33,4 18.87,19.91 23.21,23.91 4.33,4 4.33,3.33 -1.34,12.83 z"
         id="path47"
         inkscape:connector-curvature="0" />
      <path
         style="fill:#521606;stroke:none"
         d="m 916.062,1060.89 c 0,0 -12,4.5 -10.5,6 1.5,1.5 23.5,17.5 21.5,23.5 -2,6 -14,11.5 -14,13.5 0,2 33.667,-2 32.667,1 -1,3 9.328,-5.86 24.328,2.64 15,8.5 10.279,11.75 2.505,14.86 1.5,5 -4.5,11.83 2.5,11.5 7,-0.33 23.53,-4.78 28.528,-4.78 5,0 21.43,-2.22 29.47,2.28 7.86,4.4 14.95,6.27 19.33,13.16 4.17,4.17 6.88,20.43 8.55,24.19 1.87,4.21 5.79,7.48 6.79,12.48 6.5,2.5 21.83,9.17 19.83,15.67 l 2.5,-4.5 1,-3.5 c 0,0 2,-2.5 -6,-10 -8,-7.5 -10,-15 -10,-15 l 1,-7 -3.5,-6.5 -10,-16 -79.998,-49.5 -44.5,-19 z"
         id="path49"
         inkscape:connector-curvature="0" />
      <defs
         id="defs60">
        <linearGradient
           id="2"
           x1="960.51599"
           y1="1130.0699"
           x2="951.84698"
           y2="1096.64"
           gradientUnits="userSpaceOnUse">
          <stop
             offset="0"
             style="stop-color:#ffffff"
             id="stop51" />
          <stop
             offset="0.501722"
             style="stop-color:#ffffff"
             id="stop53" />
          <stop
             offset="0.72402"
             style="stop-color:#233b4f"
             id="stop55" />
          <stop
             offset="1"
             style="stop-color:#233b4f"
             id="stop57" />
        </linearGradient>
      </defs>
      <path
         style="fill:url(#2);stroke:#000000;stroke-width:1;stroke-linecap:round;stroke-linejoin:round"
         d="m 928.562,1117.89 c 0,0 21.588,-20.43 37.088,-12.93 15.5,7.5 15.639,12.43 18.127,17.96 0.74,1.65 -16.258,-1.23 -24.258,-3.73 -8,-2.5 -17.095,-10.39 -20.123,-8.3 -1.747,1.2 -7,3.67 -10.834,7 z"
         id="path62"
         inkscape:connector-curvature="0" />
      <path
         style="fill:#ffd4b8;stroke:none"
         d="m 926.452,1242.39 c 0,0 4.611,13.83 14.11,12.83 9.5,-1 17.612,-17.11 18,-19.5 -6.5,0.39 -9.833,0.89 -9.833,0.89 l -12.222,2.61 z"
         id="path64"
         inkscape:connector-curvature="0" />
      <path
         style="fill:#521606;stroke:none"
         d="m 779.026,1301.3 c 0,0 11.48,-21.07 16.527,-34.26 5.048,-13.2 9.832,-21.98 0.506,-17.95 -9.327,4.03 -9.59,8.44 -10.596,18.14 -1.005,9.7 -10.431,29.62 -11.243,33.73 -0.814,4.12 4.806,0.34 4.806,0.34"
         id="path66"
         inkscape:connector-curvature="0" />
      <path
         style="fill:#000000;stroke:none"
         d="m 953.404,1093.82 c 0,0 26.706,18.8 31.229,29.69 14.234,3.01 18.387,5.71 21.257,5.71 9.33,0 5.33,-2 5.33,-2 0,0 -49.808,-28.35 -57.816,-33.4 z"
         id="path68"
         inkscape:connector-curvature="0" />
      <path
         style="fill:#000000;stroke:none"
         d="m 1010.87,1129.08 c 0,0 -48.528,6.69 -57.194,9.36 -8.666,2.66 39.865,-12.03 57.194,-9.36 z"
         id="path70"
         inkscape:connector-curvature="0" />
      <path
         style="fill:#000000;stroke:none"
         d="m 1026.06,1132.39 c 0,0 16,26 15.5,35.5 -0.5,9.5 -8.5,-28.5 -15.5,-35.5 z"
         id="path72"
         inkscape:connector-curvature="0" />
      <path
         style="fill:#000000;stroke:none"
         d="m 1047.06,1138.89 c 0,0 9.5,3 14.5,29.5 9,2 9.5,22 2,24 -7.5,2 -16,9.5 -16.5,14 0,0 -0.5,-11 14,-17.5 3.5,-11.5 5.5,-12.5 1,-17.5 -4.5,-5 -4,-24.5 -15,-32.5 z"
         id="path74"
         inkscape:connector-curvature="0" />
      <path
         style="fill:#000000;stroke:none"
         d="m 990.562,1175.89 c 0,0 -5.93,9.72 11.108,15.88 17,1.5 11.91,-3.08 24.89,0.62 8.52,2.43 11,5.5 11,1.5 0,-4 -12.5,-9.5 -20,-8 -7.5,1.5 -26.498,7 -26.998,-10 z"
         id="path76"
         inkscape:connector-curvature="0" />
      <path
         style="fill:#000000;stroke:none"
         d="m 1042.56,1185.89 c 0,0 2.5,7 8,8"
         id="path78"
         inkscape:connector-curvature="0" />
      <path
         style="fill:#000000;stroke:none"
         d="m 941.062,1086.89 c 0,0 -22,6 -27,15 -5,9 10,-10 27,-15 z"
         id="path80"
         inkscape:connector-curvature="0" />
      <path
         style="fill:none;stroke:#000000;stroke-width:1;stroke-linecap:round;stroke-linejoin:bevel"
         d="m 928.062,1237.89 c 0,0 -12,8 6,2 18,-6 101.998,-11 110.998,-10 9,1 15.69,6.67 16.35,8.3 0.67,1.66 1.15,8.77 -8.55,9.39"
         id="path82"
         inkscape:connector-curvature="0" />
      <path
         style="fill:#000000;stroke:none"
         d="m 974.062,1182.89 c 0,0 -53,53 -57,69 10,-10 22,-33 57,-69 z"
         id="path84"
         inkscape:connector-curvature="0" />
      <path
         style="fill:#000000;stroke:none"
         d="m 970.062,1160.89 c 0,0 -10,7 -17,8 -7,1 -13,13 -7,10 6,-3 20,-18 24,-18 z"
         id="path86"
         inkscape:connector-curvature="0" />
      <path
         style="fill:#000000;stroke:#000000;stroke-width:1"
         d="m 1055.06,1224.89 c 0,0 -19,4 -37,-6 -18,-10 -39.998,-11 -53.998,-9 -14,2 -10.666,-5 -8.666,-7 l -8.588,9.85 c 0,0 20.737,-3.75 42.358,-1.32 0,0 7.941,-0.22 20.074,4.63 12.14,4.85 15.45,13.9 18.32,14.34 2.87,0.44 4.63,-0.44 8.38,-0.88 3.75,-0.44 16.76,2.64 19.12,-4.62 z"
         id="path88"
         inkscape:connector-curvature="0" />
      <path
         style="fill:#000000;stroke:none"
         d="m 924.062,1242.89 c 0,0 18,-27.5 20.5,-26 2.5,1.5 -0.019,8.28 4,11.5 2.5,2 4,8 1,8.5 -3,0.5 -25.5,6 -25.5,6 z"
         id="path90"
         inkscape:connector-curvature="0" />
      <path
         style="fill:#000000;stroke:none"
         d="m 944.062,1223.89 c 0,0 37.334,-7.33 57.338,5.67 -17.338,-4 -36.338,-9.67 -52.838,-1.17 -16.5,8.5 -4.5,-4.5 -4.5,-4.5 z"
         id="path92"
         inkscape:connector-curvature="0" />
      <path
         style="fill:#000000;stroke:none"
         d="m 1016.06,1258.22 c 0,0 -11.33,14 -15.33,17.34 -4.001,3.33 12,-2 15.33,-17.34 z"
         id="path94"
         inkscape:connector-curvature="0" />
      <path
         style="fill:#ffd4b8;stroke:none"
         d="m 1040.73,1324.22 c 0,0 -5.33,-21.66 -17.33,-25.66 -12,-4 -24.671,-1 -39.338,17.66 -3.333,15.34 -1.333,20.67 -0.666,22.67 0.666,2 14.666,16 34.004,12 0,0 12,-1.33 16.66,-4 4.67,-2.67 8,-18 6.67,-22.67 z"
         id="path96"
         inkscape:connector-curvature="0" />
      <path
         style="fill:#000000;stroke:none"
         d="m 1034.73,1298.22 c 0,0 14.67,35.34 -4,50.67 19.33,-4 10,-40 4,-50.67 z"
         id="path98"
         inkscape:connector-curvature="0" />
      <path
         style="fill:#000000;stroke:none"
         d="m 1012.73,1294.89 c 0,0 -56.001,17.33 -24.668,50.67 -11.333,-28.67 -3.333,-36.67 24.668,-50.67 z"
         id="path100"
         inkscape:connector-curvature="0" />
      <path
         style="fill:none;stroke:#000000;stroke-width:2;stroke-linecap:round;stroke-linejoin:round"
         d="m 1005.06,1128.39 c -1.66,-0.33 -20.498,-4.5 -20.498,-4.5 0,0 -23.333,-5 -27.5,-6.17 -4.166,-1.16 -15.333,-7.16 -15.833,-7.16"
         id="path102"
         inkscape:connector-curvature="0" />
      <path
         style="fill:none;stroke:#000000;stroke-width:2"
         d="m 1075.56,1156.89 c 0,0 -0.75,10.04 0.35,13.19 1.09,3.15 15.21,12.99 14.65,18.81 -0.97,8.84 -9,21 -15,26 -6,5 -4,13 -4,13 0,0 1,6 2,14 1,8 4,23 2,31 -2,8 -5,14 -4,19 1,5 1.36,12.15 6,16 4.64,3.85 6.68,6.76 6,14 -0.67,7.24 -6.69,13.94 -9,17 -3.24,4.3 -19,18 -21,21 -2,3 -5.71,6.88 -9.27,7.97 -3.45,1.06 -18.73,4.03 -38.73,-5.97 -19.998,-10 -122.998,-48 -126.998,-52 -4,-4 -85,-7 -85,-7 l -47,-3 -29,1 c 0,0 9,-17 18,-43 9,-26 23,-67 24,-73 0,0 -0.999,-8.67 2.334,-12 0,0 -3.334,-38.67 0.666,-45 2.098,-3.32 2.379,-12.6 5.435,-16.74 2.772,-3.76 8.066,-2.31 14.565,-6.59 13.667,-9 48.334,-24.67 73.334,-31.34 10.666,-3.33 27.333,-11 49,-14 15.666,0 55.666,8.34 55.666,8.34 0,0 70.668,31.33 71.668,32 1,0.66 19,20.33 19.67,22 0.66,1.66 13.33,16.33 14.33,17.66 1,1.34 9.33,17.67 9.33,17.67 z"
         id="path104"
         inkscape:connector-curvature="0" />
      <path
         style="fill:#619cce;stroke:#000000;stroke-width:2"
         d="m 1060.73,1476.89 c 0,0 -11.3,-25.4 -2.64,-43.4 8.67,-18 9.63,-20.45 13.84,-25.26 4.16,-4.76 9.02,-5.42 9.02,-5.42 0,0 -14.65,-18.05 -46.39,-33.92 -1.33,-0.67 -3.83,2 -12.5,-0.67 -8.66,-2.66 -41.998,-16.33 -41.998,-16.33 0,0 -26.833,-10 -33.5,-14 -6.666,-4 -49.833,-20.33 -49.833,-20.33 l -14.667,-5.34 c 0,0 -4.108,-2.5 -5.774,-4.17 -3.801,-3.8 -11.559,-6.49 -26.892,-6.49 -15.334,0 -42,-3.34 -52.667,-4 -10.667,-0.67 -50,-0.67 -66,0.66 -16,1.34 -33.333,0 -41.333,2 -8,2 -7.334,4.67 -7.334,4.67 l 105.334,46.67 27.333,16 -3.333,-12 z"
         id="path106"
         inkscape:connector-curvature="0" />
      <path
         style="fill:#00396b;stroke:none"
         d="m 993.13,1438.9 c -8.421,-47.51 23.1,-72.52 14.44,-75.18 -8.671,-2.67 -27.508,-11.23 -27.508,-11.23 0,0 -26.833,-10 -33.5,-14 -6.666,-4 -49.833,-20.33 -49.833,-20.33 l -14.667,-5.34 c 0,0 -3,-2.33 -4.666,-4 -3.8,-3.8 -12.74,-5.17 -28,-6.66 -16.334,-1.6 -39.334,-3.6 -52.667,-4 -10.683,-0.32 -40.231,-1.34 -56.231,-0.01 -4.811,11.43 -1.203,33.69 -1.203,33.69 l 48.101,20.32 27.333,16 -3.333,-12 c 0,0 184.742,90.56 181.734,82.74 z"
         id="path108"
         inkscape:connector-curvature="0" />
      <path
         style="fill:#de1642;stroke:none"
         d="m 999.144,1378.15 c 0,0 26.466,9.63 23.456,19.25 -3,9.63 -9.02,21.65 -7.21,32.48 1.8,10.83 2.4,10.83 1.8,13.84 -0.6,3 -23.459,-5.42 -23.459,-5.42 l -5.413,-18.64 c 0,0 -3.609,-36.09 -1.804,-36.09 1.804,0 12.63,-5.42 12.63,-5.42 z"
         id="path110"
         inkscape:connector-curvature="0" />
      <path
         style="fill:#790000;stroke:none"
         d="m 740.498,1321.01 c 3.008,-0.6 36.091,-9.63 79.399,-3.01 43.308,6.62 84.811,16.84 117.293,30.68 32.482,13.83 67.37,31.88 67.37,31.88 0,0 -7.219,3.61 -9.024,15.04 -1.805,11.43 -3.608,21.65 0.602,36.69 4.212,15.04 -11.429,2.4 -11.429,2.4 z"
         id="path112"
         inkscape:connector-curvature="0" />
      <path
         style="fill:#bbdeed;stroke:none"
         d="m 1044.86,1375.15 c 0,0 -19.25,-7.22 -17.44,1.8 1.8,9.02 1.2,13.83 5.41,16.24 4.21,2.41 19.25,9.02 23.46,12.03 4.21,3.01 10.91,7.52 14.02,3.28 1.76,-2.4 4.38,-4.24 4.38,-4.24 l 5.66,-1.55 c 0,0 -22.26,-21.55 -35.49,-27.56 z"
         id="path114"
         inkscape:connector-curvature="0" />
      <path
         style="fill:#000000;stroke:none"
         d="m 1047.06,1402.89 c 0,0 -27,30 -15,54 12,24 7,4 7,4 0,0 -19,-19 8,-58 z"
         id="path116"
         inkscape:connector-curvature="0" />
      <path
         style="fill:#000000;stroke:none"
         d="m 1022.81,1452.76 c 0,0 -19.7,-26.38 1.47,-60.61 -8.45,26.84 -8.58,50.43 -1.47,60.61 z"
         id="path118"
         inkscape:connector-curvature="0" />
      <path
         style="fill:#ffacbb;stroke:none"
         d="m 1072.26,1407.89 c 0,0 -23.7,11 -26.2,29 -2.5,18 -0.5,28.5 0.5,31 1,2.5 10.5,7 10.5,7 l 4,1.67 -6,-19.67 v -16 l 5,-13 6.5,-12.5 z"
         id="path120"
         inkscape:connector-curvature="0" />
      <path
         style="fill:none;stroke:#000000;stroke-width:2"
         d="m 1061.06,1476.56 c 0,0 -11.3,-25.4 -2.63,-43.4 8.66,-18 9.62,-20.45 13.83,-25.27 4.16,-4.76 9.02,-5.41 9.02,-5.41 0,0 -13.39,-17.38 -45.13,-33.26 -1.33,-0.67 -5.09,1.34 -13.75,-1.33 -8.67,-2.67 -42.004,-16.33 -42.004,-16.33 0,0 -26.834,-10 -33.5,-14 -6.667,-4 -49.834,-20.34 -49.834,-20.34 l -14.666,-5.33 c 0,0 -4.871,-2.31 -6.538,-3.98 -3.8,-3.8 -10.865,-5.22 -26.129,-6.69 -17.333,-1.66 -42,-3.33 -52.667,-4 -10.666,-0.66 -50,-0.66 -66,0.67 -16,1.33 -33.333,0 -41.333,2 -8,2 -7.333,4.67 -7.333,4.67 l 105.333,46.66 27.333,16 -3.333,-12 z"
         id="path122"
         inkscape:connector-curvature="0" />
      <path
         style="fill:#de1642;stroke:none"
         d="m 1302.06,1777.89 c 0,0 18,-5 16,-41 -2,-36 -42,-106 -48,-124 -6,-18 -26,-44 -42,-54 -16,-10 -149.64,-82.14 -165.64,-80.14 0,0 -33.25,-29.23 -83.358,-57.86 -28,-16 -71,-43 -106,-54 -21.754,-6.84 -73,-15 -85,-17 -12,-2 -167,115 -167,115 v 307 z"
         id="path124"
         inkscape:connector-curvature="0" />
      <path
         style="fill:#ffacbb;stroke:none"
         d="m 1045.63,1465.66 c 0,0 4.33,37.09 82.7,71.33 78.37,34.25 88.9,60.59 102.73,76.39 13.83,15.81 40.17,63.22 44.78,84.3 23.05,7.24 27,-1.98 28.32,-5.27 1.32,-3.29 -25.03,-56.64 -25.03,-56.64 0,0 -21.32,-48.02 -27.79,-55.49 -6.5,-7.51 -18.15,-20.56 -43.99,-34.73 -20.41,-11.19 -74.61,-37.1 -86.14,-43.35 -12.02,-6.51 -48.82,-22.55 -56.06,-24.53 -7.25,-1.97 -19.52,-12.01 -19.52,-12.01 z"
         id="path126"
         inkscape:connector-curvature="0" />
      <path
         style="fill:none;stroke:#000000;stroke-width:2"
         d="m 1301.06,1776.39 c 0,0 18,-5 16,-41 -2,-36 -42,-106 -48,-124 -6,-18 -26,-44 -42,-54 -16,-10 -149.64,-82.15 -165.64,-80.15 0,0 -33.25,-29.22 -83.358,-57.85 -28,-16 -71,-43 -106,-54 -21.754,-6.84 -73,-15 -85,-17 -12,-2 -167,115 -167,115 v 307 z"
         id="path128"
         inkscape:connector-curvature="0" />
      <path
         style="fill:#790000;stroke:none"
         d="m 621.062,1464.89 v 307 h 155 c 0,0 27.5,-97 7.5,-141 -20,-44 -30,-88 -90,-124 -60,-36 -72.5,-42 -72.5,-42 z"
         id="path130"
         inkscape:connector-curvature="0" />
      <path
         style="fill:#790000;stroke:none"
         d="m 846.062,1772.89 h 458.498 c 0,0 -0.5,-32 -84.5,-34 -84,-2 -139.5,10 -139.5,10 0,0 -1.5,-46 -93.998,-122 23.498,-28 25.998,-34 25.998,-34 l -13.998,-24 -44,24 -30,132 -34,8 z"
         id="path132"
         inkscape:connector-curvature="0" />
      <path
         style="fill:#000000;stroke:none"
         d="m 1108.06,1495.22 c 0,0 -34.66,-8.66 -20.66,1 14,9.67 14.66,8.67 43.33,36 28.67,27.34 71,81 85,107 14,26 40.67,87 38.67,104.34 0,0 -14.34,26 -21,29.66 -6.67,3.67 -10,1.67 -10,1.67 0,0 23,-24.67 25,-32.33 3.88,-14.9 -21.48,-81.81 -43,-113 -16.34,-23.67 -64.44,-84.65 -106,-117.34 -44.43,-34.93 -67.41,-58.15 -74.07,-62.81 -6.67,-4.67 36.92,26.87 36.92,26.87 z"
         id="path134"
         inkscape:connector-curvature="0" />
      <path
         style="fill:#bbdeed;stroke:#000000;stroke-width:2"
         d="m 621.062,1466.18 c 66.041,28.87 107.209,88.32 130.988,134.18 23.779,45.86 23.779,63.7 23.779,113.8 0,50.11 -5.945,62 -5.945,62 0,0 56.9,0 79.83,-4.27 22.93,-4.27 123.992,-19.51 123.992,-19.51 0,0 -0.159,-1.31 -0.85,-3.4 -8.294,-25.09 -8.338,-63.64 -7.643,-86.62 0.849,-28.03 6.795,-43.31 17.835,-58.6 10.454,-14.47 34.822,-32.27 34.822,-32.27 -1.7,-10.19 -29.727,-103.61 -139.281,-180.89 -109.554,-77.29 -257.527,-106.16 -257.527,-106.16 z"
         id="path136"
         inkscape:connector-curvature="0" />
      <path
         style="fill:#296bb5;stroke:none"
         d="m 621.062,1284.89 v 26 c 0,0 11.973,10.82 65,7 8.924,-0.64 14,2 25,18 11,16 23,35 24,43 1,8 7.812,32.35 -3,56 -15.391,33.66 -20.852,77.02 -25.38,81.55 -2.938,2.94 -5.62,3.45 -14.62,-0.55 16,17 21.14,21.11 23.14,26.11 2,5 3.128,-5.72 10.86,-33.11 8.236,-29.17 15.298,-64.31 18,-71 3.163,-7.82 6,-11 7,2 1,13 -0.005,35.34 -4.425,55.1 -2.244,10.04 -5.695,25.08 -9.695,34.08 -4,9 -1.988,34.38 -9.988,29.38 12,14 29.085,47.01 38.192,69.04 21,-16 68.916,-47.6 83.916,-66.6 15,-19 25,-62 24,-81 -1,-19 -3.926,-44.37 -24,-70 -21.666,-27.67 -40.333,-39.67 -54.333,-51.67 -14,-12 -42.667,-28.33 -48.667,-31.33 -6,-3 -56,-28 -125,-42 z"
         id="path138"
         inkscape:connector-curvature="0" />
      <path
         style="fill:#296bb5;stroke:none"
         d="m 775.062,1688.89 c 0,0 83,-37 123,-44 0,0 37.233,-9.99 44.233,-20.99 5,22 7.826,55.66 5.767,57.99 -3.307,3.75 -69,19 -94,27 -25,8 -79,27 -79,27 0,0 3,-29 0,-47 z"
         id="path140"
         inkscape:connector-curvature="0" />
      <path
         style="fill:#ffffff;stroke:none"
         d="m 983.562,1498.89 -15,-21.5 c 0,0 -28,-6.5 -56,-26.5 -28,-20 -58.286,-43.41 -76,-57 -4.678,-3.59 -4.678,-3.59 -4.678,-3.59 0,0 25.845,30.92 28.845,35.92 3,5 18.333,28.17 20.333,32.17 2,4 29,33 41,16.5 28,10.5 54,25 61.5,24 z"
         id="path142"
         inkscape:connector-curvature="0" />
      <path
         style="fill:none;stroke:#000000;stroke-width:2"
         d="m 621.062,1466.18 c 66.041,28.87 107.209,88.32 130.988,134.18 23.779,45.86 23.779,63.7 23.779,113.8 0,50.11 -5.945,62 -5.945,62 0,0 56.9,0 79.83,-4.27 22.93,-4.27 123.992,-19.51 123.992,-19.51 0,0 -0.159,-1.31 -0.85,-3.4 -8.294,-25.09 -8.338,-63.64 -7.643,-86.62 0.849,-28.03 6.795,-43.31 17.835,-58.6 10.454,-14.47 34.822,-32.27 34.822,-32.27 -1.7,-10.19 -29.727,-103.61 -139.281,-180.89 -109.554,-77.29 -257.527,-106.16 -257.527,-106.16 z"
         id="path144"
         inkscape:connector-curvature="0" />
      <path
         style="fill:#000000;stroke:none"
         d="m 621.062,1284.89 c 0,0 119,13 203,97 67.334,62.67 96.667,141 116.667,221 16,83 20.333,147 19.333,150 -1,3 -11,2 -11,2 0,0 3,-55 -10,-126 -8,-51 -34.333,-130 -61.666,-175.33 -37.865,-62.8 -86.667,-126 -256.334,-168.67 z"
         id="path146"
         inkscape:connector-curvature="0" />
      <path
         style="fill:#de1642;stroke:none"
         d="m 911.062,1033.89 c 11,1 154.668,76.63 171.998,62 4.32,-3.65 28,-19 30,-26 2,-7 -6,-18 -4,-33 2,-15 13,-39 13,-77 0,-38 -2,-43 -7,-54 -5,-11 0,-11 -6,-15 -6,-4 -30,-10 -34,-12 -4,-2 -35,-13 -45,-17 -10,-4 -33.998,-9 -38.998,-9 -5,0 -13,-7 -18,-3 -5,4 -30,29 -40,37 -10,8 -36,35 -44,39 -8,4 -33,26 -41,30 -8,4 -42,19 -59,22 -17,3 -36,1 -43,3 -7,2 -17,22 -22,28 -5,6 -15,23 -9,37 6,14 13,16 20,17 7,1 20.379,-1.02 26,8 13.973,22.42 139,-38 150,-37 z"
         id="path148"
         inkscape:connector-curvature="0" />
      <path
         style="fill:#790000;stroke:none"
         d="m 1044.06,1008.22 c 0,0 -16.13,-24.865 -16.66,-28.664 -1.97,-13.989 0.53,-21.152 6,-25.333 12.55,-9.602 38.66,-12.667 47.33,-17.333 8.67,-4.667 24.67,-15.333 6,-20.667 -18.67,-5.333 -52,-14 -63.33,-15.333 -11.34,-1.334 -68.671,12.666 -79.338,18 -10.666,5.333 -30,23.999 -51.333,40.666 -21.333,16.667 -29.333,24 -40.667,30 -11.333,6 -29.999,18.664 -60.666,22.004 -30.667,3.33 -55.333,4.66 -58,16.66 -2.667,12 -7.333,15.34 12,16 19.333,0.67 25.333,-0.66 30,6 4.666,6.67 14,12 13.333,18 -0.667,6 138.667,-45.33 138.667,-45.33 l 72.664,-7.33 z"
         id="path150"
         inkscape:connector-curvature="0" />
      <path
         style="fill:#ffacbb;stroke:none"
         d="m 975.729,849.223 -11.667,9.333 c 0,0 -2.333,4.001 4,7.667 6.334,3.667 9.334,2.333 17,5.333 7.667,3 19.998,11.667 28.338,14 8.33,2.334 24,6.334 40.66,8.334 16.67,2 21.34,5.333 32.67,9.333 11.33,4 35.67,21.333 30.67,7.333 -5,-14 -3.67,-9 -3.67,-9 l -0.67,-8.333 -4.33,-3.333 -10.33,-4.334 -16,-4.666 -20.67,-7.667 -17.33,-6.333 -24.67,-8.667 -18,-4.333 -11.001,-1 -8,-3.334 c 0,0 -4.333,-1.999 -7,-0.333 z"
         id="path152"
         inkscape:connector-curvature="0" />
      <path
         style="fill:#ffacbb;stroke:none"
         d="m 1122.4,939.223 c 0,0 -5,2 -8,19.667 -3,17.666 7.33,19 -2.67,34.666 -10,15.664 -9.67,8.004 -12,28.004 -2.33,20 0.33,24.66 2.67,30 2.33,5.33 5,19.66 7.66,20 2.67,0.33 3.34,-0.34 3.34,-0.34 l 0.66,-2 -1,-8.33 -2,-8 -1.66,-9 c 0,0 0.66,-11 2,-15.33 1.33,-4.34 5,-19.34 6,-23.34 1,-4 3.66,-17.33 4.66,-24.664 1,-7.333 1.34,-37.333 0.34,-41.333 z"
         id="path154"
         inkscape:connector-curvature="0" />
      <defs
         id="defs163">
        <linearGradient
           id="3"
           x1="727.56201"
           y1="1008.45"
           x2="747.56201"
           y2="1008.45"
           gradientUnits="userSpaceOnUse">
          <stop
             offset="0"
             style="stop-color:#d63d5b"
             id="stop156" />
          <stop
             offset="0.00561876"
             style="stop-color:#d63d5b"
             id="stop158" />
          <stop
             offset="1"
             style="stop-color:#242423"
             id="stop160" />
        </linearGradient>
      </defs>
      <path
         style="fill:url(#3);stroke:none"
         d="m 727.562,1007.89 c 0,0 9,2.5 20,0"
         id="path165"
         inkscape:connector-curvature="0" />
      <defs
         id="defs176">
        <linearGradient
           id="4"
           x1="739.06201"
           y1="977.39001"
           x2="851.06201"
           y2="977.39001"
           gradientUnits="userSpaceOnUse">
          <stop
             offset="0"
             style="stop-color:#000000"
             id="stop167" />
          <stop
             offset="0.0056178"
             style="stop-color:#000000"
             id="stop169" />
          <stop
             offset="1"
             style="stop-color:#d63d5b"
             id="stop171" />
          <stop
             offset="1"
             style="stop-color:#d63d5b"
             id="stop173" />
        </linearGradient>
      </defs>
      <path
         style="fill:url(#4);stroke:none"
         d="m 739.062,998.89 c 0,0 76,-9 112,-43 -52,26.5 -64.5,33 -112,43 z"
         id="path178"
         inkscape:connector-curvature="0" />
      <defs
         id="defs189">
        <linearGradient
           id="5"
           x1="775.06201"
           y1="975.034"
           x2="862.06201"
           y2="975.034"
           gradientUnits="userSpaceOnUse">
          <stop
             offset="0"
             style="stop-color:#d63d5b"
             id="stop180" />
          <stop
             offset="0.00561753"
             style="stop-color:#d63d5b"
             id="stop182" />
          <stop
             offset="1"
             style="stop-color:#000000"
             id="stop184" />
          <stop
             offset="1"
             style="stop-color:#000000"
             id="stop186" />
        </linearGradient>
      </defs>
      <path
         style="fill:url(#5);stroke:none"
         d="m 862.062,957.39 c 0,0 -45,39 -87,35 50.5,-9 62,-17 87,-35 z"
         id="path191"
         inkscape:connector-curvature="0" />
      <defs
         id="defs202">
        <linearGradient
           id="6"
           x1="924.06201"
           y1="898.92401"
           x2="1121.8101"
           y2="898.92401"
           gradientUnits="userSpaceOnUse">
          <stop
             offset="0"
             style="stop-color:#000000"
             id="stop193" />
          <stop
             offset="0.00561809"
             style="stop-color:#000000"
             id="stop195" />
          <stop
             offset="0.999991"
             style="stop-color:#d63d5b"
             id="stop197" />
          <stop
             offset="1"
             style="stop-color:#d63d5b"
             id="stop199" />
        </linearGradient>
      </defs>
      <path
         style="fill:url(#6);stroke:none"
         d="m 924.062,911.39 c 0,0 49,-37.5 69,-38.5 19.998,-1 39.498,5 63.498,13.5 24,8.5 38.71,12.204 56,29.5 9,9 8,8.5 9,13 1,4.5 0.5,-17 -34,-33.5 -34.5,-16.5 -78.5,-26.5 -85.5,-27 -6.998,-0.5 -36.998,3.5 -77.998,43 z"
         id="path204"
         inkscape:connector-curvature="0" />
      <path
         style="fill:none;stroke:#000000;stroke-width:2"
         d="m 768.062,1110.89 c 0,0 35,-16 73,-30 38,-14 55,-19 66,-18 11,1 61,20 85,36 23.998,16 45.998,30 64.998,43 17,11.63 37,28 44,33 7,5 10,7 13,3 3,-4 -6,-7 -19,-38 -13,-31 -15,-40 -11,-44 4,-4 28,-19 30,-26 2,-7 -6,-18 -4,-33 2,-15 13,-39 13,-77 0,-38 -2,-43 -7,-54 -5,-11 0,-11 -6,-15 -6,-4 -30,-10 -34,-12 -4,-2 -35,-13 -45,-17 -10,-4 -33.998,-9 -38.998,-9 -5,0 -13,-7 -18,-3 -5,4 -30,29 -40,37 -10,8 -36,35 -44,39 -8,4 -33,26 -41,30 -8,4 -42,19 -59,22 -17,3 -36,1 -43,3 -7,2 -17,22 -22,28 -5,6 -15,23 -9,37 6,14 13,16 20,17 7,1 19,0 26,8 7,8 8,29 6,40 z"
         id="path206"
         inkscape:connector-curvature="0" />
      <g
         id="g220">
        <g
           id="g214">
          <path
             style="fill:#619cce;stroke:none"
             d="m 1081.34,1097.93 c 0.92,5.26 0.72,10.96 13.72,41.96 13,31 22,34 19,38 -3,4 -6,2 -13,-3 -7,-5 -27,-21.37 -44,-33 -19,-13 -41,-27 -64.998,-43 -24,-16 -74,-35 -85,-36 -11,-1 -28,4 -66,18 -38,14 -73,30 -73,30 2,-11 4.834,-27.17 -2.166,-35.17 0,0 34.166,-19.33 67.166,-38.33 33,-19 25.5,-18.5 50.5,-29 25,-10.5 36,-16 62,-18 26,-2 49,-3.5 60.498,-1 11.5,2.5 40,7 52.5,14.5 12.5,7.5 19,14.5 23.5,22 -2,14.5 -2.37,15.98 -3,31.5 -0.83,20.67 2.2,40.08 2.28,40.54 z"
             id="path208"
             inkscape:connector-curvature="0" />
          <path
             style="fill:#00396b;stroke:none"
             d="m 1064.23,1023.56 c -2.16,5.41 -5.33,12 -6,38 -0.06,2.13 3.33,32.66 6.67,46.66 1.15,4.87 29.66,61 22.66,56 -7,-5 -14.84,-11.2 -31.83,-22.83 -19,-13 -41,-27 -65.001,-43 -24,-16 -74,-35 -85,-36 -11,-1 -28,4 -66,18 -38,14 -51.5,20.5 -51.5,20.5 2,-11 3.667,-28.67 -3.333,-36.67 0,0 13.833,-8.33 46.833,-27.33 33,-19 25.5,-18.5 50.5,-29 25,-10.5 36,-16 62,-18 26,-2 49,-3.5 60.501,-1 11.5,2.5 49.67,9.293 62.83,22 0.62,0.59 -1.88,9.03 -3.33,12.67 z"
             id="path210"
             inkscape:connector-curvature="0" />
          <path
             style="fill:none;stroke:#000000;stroke-width:2"
             d="m 1081.34,1097.93 c 0.92,5.26 0.72,10.96 13.72,41.96 13,31 22,34 19,38 -3,4 -6,2 -13,-3 -7,-5 -27,-21.37 -44,-33 -19,-13 -41,-27 -64.998,-43 -24,-16 -74,-35 -85,-36 -11,-1 -28,4 -66,18 -38,14 -73,30 -73,30 2,-11 2.664,-26.17 -2.166,-35.17 0,0 34.166,-19.33 67.166,-38.33 33,-19 25.5,-18.5 50.5,-29 25,-10.5 36,-16 62,-18 26,-2 49,-3.5 60.498,-1 11.5,2.5 40,7 52.5,14.5 12.5,7.5 19,14.5 23.5,22 -2,14.5 -2.37,15.98 -3,31.5 -0.83,20.67 2.2,40.08 2.28,40.54 z"
             id="path212"
             inkscape:connector-curvature="0" />
        </g>
        <path
           style="fill:#000000;stroke:none"
           d="m 870.576,1015.13 c 0,0 17.986,27.26 14.486,46.76 -1,4 -1,4 -1,4 0,0 10.5,-3.5 17,-3.5 0,-8.5 1,-19 -3.5,-29.5 -3.788,-8.84 -11.5,-25.5 -11.5,-25.5 0,0 -16.486,6.24 -15.486,7.74 z"
           id="path216"
           inkscape:connector-curvature="0" />
        <path
           style="fill:#000000;stroke:none"
           d="m 896.562,1003.89 c 0,0 28.126,-16.375 93.626,-16 1.5,7.5 -4.126,41 -2.126,53.5 2,12.5 4.5,23.5 10,31.5 5.498,8 10.498,16 18.998,26.5 8.5,10.5 25.5,27.5 29.5,33 4,5.5 3.42,4.75 3.42,4.75 0,0 -58.918,-39.25 -69.418,-44.75 -10.5,-5.5 -46.083,-22.5 -50.583,-23 -4.5,-0.5 -20.917,-6.67 -20.917,-6.67 0,0 0.5,-22.83 -3,-34.83 -2.757,-9.46 -7,-20.5 -9.5,-24 z"
           id="path218"
           inkscape:connector-curvature="0" />
      </g>
      <defs
         id="defs229">
        <linearGradient
           id="7"
           x1="1072.6899"
           y1="1148.91"
           x2="1102.9301"
           y2="1148.91"
           gradientUnits="userSpaceOnUse">
          <stop
             offset="0"
             style="stop-color:#005e85"
             id="stop222" />
          <stop
             offset="0.00561865"
             style="stop-color:#005e85"
             id="stop224" />
          <stop
             offset="1"
             style="stop-color:#242423"
             id="stop226" />
        </linearGradient>
      </defs>
      <path
         style="fill:url(#7);stroke:none"
         d="m 1072.69,1140.27 c 0,0 18,15 28,17 l 2.24,0.28 -1.82,-2.8 c 0,0 -20.83,-8.22 -28.42,-14.48 z"
         id="path231"
         inkscape:connector-curvature="0" />
      <defs
         id="defs240">
        <linearGradient
           id="8"
           x1="996.31201"
           y1="1066.89"
           x2="1078.8101"
           y2="1066.89"
           gradientUnits="userSpaceOnUse">
          <stop
             offset="0"
             style="stop-color:#005e85"
             id="stop233" />
          <stop
             offset="0.00561795"
             style="stop-color:#005e85"
             id="stop235" />
          <stop
             offset="1"
             style="stop-color:#000000"
             id="stop237" />
        </linearGradient>
      </defs>
      <path
         style="fill:url(#8);stroke:none"
         d="m 996.312,1052.64 c 0,0 57.998,10.25 82.498,28.5 -6.5,-2.25 -11.5,-5.5 -40.75,-16 -28.89,-10.37 -41.748,-12.5 -41.748,-12.5 z"
         id="path242"
         inkscape:connector-curvature="0" />
      <defs
         id="defs251">
        <linearGradient
           id="9"
           x1="997.81201"
           y1="1078.51"
           x2="1080.3101"
           y2="1078.51"
           gradientUnits="userSpaceOnUse">
          <stop
             offset="0"
             style="stop-color:#005e85"
             id="stop244" />
          <stop
             offset="0.00561797"
             style="stop-color:#005e85"
             id="stop246" />
          <stop
             offset="1"
             style="stop-color:#000000"
             id="stop248" />
        </linearGradient>
      </defs>
      <path
         style="fill:url(#9);stroke:none"
         d="m 997.812,1064.14 c 0,0 57.998,10.34 82.498,28.75 -6.5,-2.27 -11.5,-5.55 -40.75,-16.14 -28.89,-10.46 -41.748,-12.61 -41.748,-12.61 z"
         id="path253"
         inkscape:connector-curvature="0" />
      <path
         style="fill:#000000;stroke:none"
         d="m 844.295,1035.56 c 0,0 11.707,20.78 13.317,38.49 -7.171,-25.02 -11.268,-36.15 -13.317,-38.49 z"
         id="path255"
         inkscape:connector-curvature="0" />
      <path
         style="fill:#000000;stroke:none"
         d="m 836.393,1038.2 c 0,0 11.707,20.78 13.316,38.49 -7.17,-25.03 -11.268,-36.15 -13.316,-38.49 z"
         id="path257"
         inkscape:connector-curvature="0" />
      <path
         style="fill:#000000;stroke:none"
         d="m 769.769,1074.74 c 0,0 9.435,21.59 -0.274,34.59 2.188,-12.86 2.735,-26.98 0.274,-34.59 z"
         id="path259"
         inkscape:connector-curvature="0" />
      <path
         style="fill:#ffd49c;stroke:#000000;stroke-width:1"
         d="m 1069.94,960.764 c 12.34,3.258 19.64,-8.03 18.45,-6.667 1.11,-1.555 -1.11,-7.778 1.55,-6.888 2.67,0.889 3.78,2.667 8.67,5.555 4.89,2.889 13.55,8.222 19.11,7.778 5.55,-0.445 6.22,-0.667 8.44,0.888 1.31,0.919 4.67,5.778 2.22,10.666 -1.16,2.327 3.56,5.556 -1.11,8.889 -0.44,2.666 6.23,7.556 -1.55,9.111 -7.78,1.555 -3.11,0.666 -6.45,0.666 -1.33,2.667 -4.44,6.444 -10.44,5.111 -13.92,6.967 -12.13,8.177 -23.11,1.111 -9.95,-6.4 -18.67,-14.888 -20,-16.888 -1.33,-2 2.22,-17.999 2.22,-17.999 z"
         id="path261"
         inkscape:connector-curvature="0" />
      <path
         style="fill:#ffd49c;stroke:#000000;stroke-width:1"
         d="m 1047.5,939.653 c 0,0 16.44,1.112 21.33,16.444 1.34,7.555 -1.55,10.888 -1.55,10.888 0,0 0,15.111 -4.89,16.444 -4.89,1.334 -5.56,0.889 -5.78,3.333 -0.22,2.445 -2,5.778 -5.33,6.667 -3.34,0.889 -3.34,0.889 -3.34,0.889 0,0 2,7.332 -3.55,7.782 -5.56,0.44 -12,0.44 -16.22,-7.338 0.66,-8 2.66,-5.333 -1.11,-10.221 -3.78,-4.889 -7.34,-3.111 -7.78,-4.667 -0.45,-1.556 -2.45,-9.777 4.44,-14.444 6.89,-4.666 11.56,-10.666 12.22,-15.11 0.67,-4.444 2.67,-7.556 6,-8.222 2,-2 5.56,-2.445 5.56,-2.445 z"
         id="path263"
         inkscape:connector-curvature="0" />
      <path
         style="fill:#ffd49c;stroke:#000000;stroke-width:1"
         d="m 1037.05,949.209 c 0,0 -8.44,-2.667 -10.22,-9.333 -1.77,-6.666 -0.44,-12.222 2.23,-13.111 0,0 4.66,1.111 2,-1.778 -2.67,-2.888 -5.6,-3.86 -9.56,-5.11 -4.22,-1.333 -6.89,-2.667 -9.11,-4.445 -3.03,-2.424 -20.444,-19.554 -23.111,-27.332 -9.777,4.667 -8.221,6.445 -8.221,9.111 -4.445,0.222 -8.445,5.555 -7.778,8.666 -3.333,1.111 -6.444,9.555 0.222,16.888 -0.889,4.445 -1.555,6.444 5.111,15.111 6.666,8.666 12.223,17.332 18.222,21.776 8.665,3.556 10.225,-1.333 20.445,3.334 13.33,0.444 7.78,-1.556 13.78,-1.111 5.99,0.444 5.99,-12.666 5.99,-12.666 z"
         id="path265"
         inkscape:connector-curvature="0" />
      <defs
         id="defs276">
        <linearGradient
           id="10"
           x1="1044.49"
           y1="940.60199"
           x2="1040.09"
           y2="933.36401"
           gradientUnits="userSpaceOnUse">
          <stop
             offset="0"
             style="stop-color:#ffffff"
             id="stop267" />
          <stop
             offset="0.00219864"
             style="stop-color:#ffffff"
             id="stop269" />
          <stop
             offset="0.96822"
             style="stop-color:#8f342f"
             id="stop271" />
          <stop
             offset="1"
             style="stop-color:#8f342f"
             id="stop273" />
        </linearGradient>
      </defs>
      <path
         style="fill:url(#10);stroke:none"
         d="m 1044.16,940.796 c 0,0 -2.19,-6.104 -3.49,-7.468 -1.29,-1.364 2.69,6.477 3.49,7.468"
         id="path278"
         inkscape:connector-curvature="0" />
      <defs
         id="defs285">
        <linearGradient
           id="11"
           x1="1047.05"
           y1="939.591"
           x2="1046.1899"
           y2="927.784"
           gradientUnits="userSpaceOnUse">
          <stop
             offset="0"
             style="stop-color:#ffffff"
             id="stop280" />
          <stop
             offset="1"
             style="stop-color:#ffffff"
             id="stop282" />
        </linearGradient>
      </defs>
      <path
         style="fill:url(#11);stroke:none"
         d="m 1046.59,939.59 c 0,0 0.96,-8.957 0.13,-11.468 -0.83,-2.511 -0.55,9.731 -0.13,11.468"
         id="path287"
         inkscape:connector-curvature="0" />
      <defs
         id="defs294">
        <linearGradient
           id="12"
           x1="1049.65"
           y1="940.38898"
           x2="1053.02"
           y2="932.62299"
           gradientUnits="userSpaceOnUse">
          <stop
             offset="0"
             style="stop-color:#ffffff"
             id="stop289" />
          <stop
             offset="1"
             style="stop-color:#ffffff"
             id="stop291" />
        </linearGradient>
      </defs>
      <path
         style="fill:url(#12);stroke:none"
         d="m 1049.29,940.23 c 0,0 3.71,-5.317 4.07,-7.166 0.36,-1.849 -3.73,5.937 -4.07,7.166"
         id="path296"
         inkscape:connector-curvature="0" />
      <path
         style="fill:#ff8842;stroke:none"
         d="m 1068.06,968.223 c 0,0 2,7.666 16.17,10.833 0,0 3.17,0.667 5.83,-2.333 2.84,0.167 6.67,-1.667 5,-4.667 4.17,-1.166 5.34,-4.999 4.67,-6.333 4.67,0.5 9,-1.167 13.17,1.333 4.16,2.5 3.16,3.667 6.33,3.667 3.17,0 6.33,-4.5 3.83,-4.667 -2.5,-0.166 -3.83,2.667 -13.33,-1.333 -9.5,-4 -12.33,-5.167 -15.17,-8.833 -3.83,4.5 -11.33,8.167 -15.33,9.833 -4,1.667 -10.67,2.667 -11.17,2.5 z"
         id="path298"
         inkscape:connector-curvature="0" />
      <path
         style="fill:#ff8842;stroke:none"
         d="m 1061.4,975.39 c 0,0 0.33,4.333 -1,4.5 -1.34,0.166 -2.84,-0.833 -3,0.333 -0.17,1.167 -1.17,9.333 -2.67,10.833 -1.5,1.5 -4.5,2.667 -5.67,2.667 -1.16,0 3.67,-5.333 4.5,-9.333 0.84,-4 2.84,-8.834 2.67,-10 -0.17,-1.167 5.17,1 5.17,1 z"
         id="path300"
         inkscape:connector-curvature="0" />
      <path
         style="fill:#ff8842;stroke:none"
         d="m 1048.56,951.056 c 0,0 7.5,-5.833 13,4.5 0.34,5.334 -3.16,12.334 -3.16,12.334 0,0 -5.84,-1.5 -8.34,0.833 -2.5,2.333 1.34,2 -3.16,3.833 -4.5,1.834 -9.34,9.667 -10.67,13.834 -3,2.5 -7.83,7.5 -7.83,7.5 l 0.83,-6 c 0,0 -0.17,-2.833 -0.83,-2.667 -0.67,0.167 -4.5,-4.167 -5.5,-4.333 -1,-0.167 1.16,-3.5 6.16,-3.167 3,-0.333 7,-3.667 7,-3.667 l 3.84,-4.166 c 0,0 -0.5,-3.501 1.5,-6.334 1.33,-3.666 4.16,-11.333 7.16,-12.5 z"
         id="path302"
         inkscape:connector-curvature="0" />
      <path
         style="fill:#ff8842;stroke:none"
         d="m 987.729,891.89 c 0,0 9.333,15.167 13.331,19.333 4,4.167 8,7.5 7.67,13.167 -0.33,5.666 -2.83,10.333 -10.668,7.666 2.998,3.167 4.168,6.333 -4.5,5.5 -8.666,-0.833 -15,-8.833 -8.833,-7.166 6.167,1.666 7.5,0.5 1,-2.5 -6.5,-3 -12.333,-10.167 -10.5,-11.167 1.833,-1 2.333,1 3.5,2 1.167,1 12.667,5.334 13.167,4 0.5,-1.333 -10,-5.5 -12.167,-10.167 -2.167,-4.666 -3.833,-9.499 0.5,-10.333 2.333,0.833 2,3 8.667,7 l 4.333,2.333 c 0,0 -9.833,-11.667 -8.667,-16 -0.5,-2 1.334,-5 3.167,-3.666 z"
         id="path304"
         inkscape:connector-curvature="0" />
      <path
         style="fill:#ff8842;stroke:none"
         d="m 1012.73,920.89 7.67,7.5 c 0,0 -2,15.333 3.33,19.5 3,1.333 4.83,2.166 4.83,2.166 0,0 4.5,2.167 4.67,3.334 0.17,1.166 0.67,1.999 -1.5,2.166 -2.17,0.167 -13.67,2.167 -15,0.5 -1.33,-1.666 -8.5,-7.166 -8.5,-20.333 -1.33,-9.5 3.33,-12.667 4.5,-14.833 z"
         id="path306"
         inkscape:connector-curvature="0" />
      <path
         style="fill:#000000;stroke:none"
         d="m 980.969,896.933 c 0,0 0.758,3.286 1.769,3.539 1.012,0.253 -1.769,-3.539 -1.769,-3.539 z"
         id="path308"
         inkscape:connector-curvature="0" />
      <path
         style="fill:#000000;stroke:none"
         d="m 972.879,905.782 c 0,0 2.023,3.791 2.781,3.539 0.758,-0.253 -1.517,-2.78 -2.781,-3.539 z"
         id="path310"
         inkscape:connector-curvature="0" />
      <path
         style="fill:#000000;stroke:none"
         d="m 973.385,922.72 c 0,0 5.814,3.54 6.826,3.54 1.012,0 -8.09,-6.068 -6.826,-3.54 z"
         id="path312"
         inkscape:connector-curvature="0" />
      <path
         style="fill:#000000;stroke:none"
         d="m 981.475,914.63 c 0,0 8.09,7.332 11.377,7.079 3.287,-0.252 -9.355,-5.309 -11.377,-7.079 z"
         id="path314"
         inkscape:connector-curvature="0" />
      <path
         style="fill:#000000;stroke:none"
         d="m 984.003,927.271 c 0,0 8.091,4.55 8.849,3.287 0.757,-1.264 -7.333,-2.276 -8.849,-3.287 z"
         id="path316"
         inkscape:connector-curvature="0" />
      <path
         style="fill:#000000;stroke:none"
         d="m 985.014,934.603 c 0,0 3.287,3.54 5.056,3.287 1.77,-0.253 -3.792,-2.276 -5.056,-3.287 z"
         id="path318"
         inkscape:connector-curvature="0" />
      <path
         style="fill:#000000;stroke:none"
         d="m 1023.95,948.255 c 0,0 10.36,0 10.36,6.574 -4.55,-2.023 1.02,-2.023 -10.36,-6.574 z"
         id="path320"
         inkscape:connector-curvature="0" />
      <path
         style="fill:#000000;stroke:none"
         d="m 1035.07,948.255 c 0,0 4.05,2.275 -0.76,11.377 -4.8,9.102 8.6,-9.607 0.76,-11.377 z"
         id="path322"
         inkscape:connector-curvature="0" />
      <path
         style="fill:#000000;stroke:none"
         d="m 1055.56,979.056 c 0,0 0.34,-3.999 -0.16,-5.333 -0.5,-1.333 0.5,-2.667 1.5,-2.333 1,0.333 4.66,1 5.33,3 0.67,2 0.17,1.999 -0.5,2.166 -0.67,0.167 -3.67,-1 -4,0 -0.33,1 -1.17,1.167 -2.17,2.5 z"
         id="path324"
         inkscape:connector-curvature="0" />
      <path
         style="fill:#000000;stroke:none"
         d="m 1048.4,978.89 c 0,0 -2.34,-0.167 -3.5,1.833 -1.17,2 0,3.5 1,2.667 1,-0.834 3.16,-4 2.5,-4.5 z"
         id="path326"
         inkscape:connector-curvature="0" />
      <path
         style="fill:#000000;stroke:none"
         d="m 1050.4,979.39 c 0,0 1.5,1.333 1.16,2.833 -0.33,1.5 -1,3.666 -1.83,3.333 -0.83,-0.333 -2.33,-5.166 0.67,-6.166 z"
         id="path328"
         inkscape:connector-curvature="0" />
      <path
         style="fill:#000000;stroke:none"
         d="m 1056.9,985.556 c 0,0 1.5,-6.333 -0.5,-4 -1.17,3.167 -2,9.667 -1.34,8.667 0.67,-1 1,-1.333 1,-1.333 z"
         id="path330"
         inkscape:connector-curvature="0" />
      <path
         style="fill:#000000;stroke:none"
         d="m 1128.23,971.39 -6.83,-0.167 c 0,0 6.83,3 6.83,0.167 z"
         id="path332"
         inkscape:connector-curvature="0" />
      <path
         style="fill:#000000;stroke:none"
         d="m 1127.56,980.223 c 0,0 -4.33,0.5 -8.66,-1 -4.34,-1.5 6.66,4.167 8.66,1 z"
         id="path334"
         inkscape:connector-curvature="0" />
      <path
         style="fill:#000000;stroke:none"
         d="m 1120.23,990.39 c 0,0 -7.17,-1.833 -7.83,-2.667 -0.67,-0.833 3.33,3.833 7.83,2.667 z"
         id="path336"
         inkscape:connector-curvature="0" />
      <path
         style="fill:#ffffff;stroke:none"
         d="m 1025.73,923.056 c 0,0 5,1.667 3.5,2.167 -1.5,0.5 -1.83,1.5 -2.33,1 -0.5,-0.5 -2.17,-2.834 -1.17,-3.167 z"
         id="path338"
         inkscape:connector-curvature="0" />
      <path
         style="fill:#ffffff;stroke:none"
         d="m 1027.06,943.723 c 0,0 3.5,4.666 5.67,5.333 2.17,0.667 -2,1.501 -5.67,-5.333 z"
         id="path340"
         inkscape:connector-curvature="0" />
      <path
         style="fill:#ffffff;stroke:none"
         d="m 1050.23,942.723 c 0,0 -3.33,-4.167 -5.83,0.333 -2.5,4.5 2.5,1.834 3,1.667 0.5,-0.167 2.83,-0.666 2.83,-2 z"
         id="path342"
         inkscape:connector-curvature="0" />
      <path
         style="fill:#ffffff;stroke:none"
         d="m 1072.06,963.056 c 0,0 3.84,-0.499 3,0.167 -0.83,0.667 -3.16,1.166 -3,-0.167 z"
         id="path344"
         inkscape:connector-curvature="0" />
      <path
         style="fill:#ffffff;stroke:none"
         d="m 1090.4,948.723 c -0.92,-0.229 -0.17,2.167 0.16,1.667 0.34,-0.5 0.5,-1.5 -0.16,-1.667 z"
         id="path346"
         inkscape:connector-curvature="0" />
      <path
         style="fill:#ffffff;stroke:none"
         d="m 1123.06,962.056 c 0,0 -4,0.167 -3.66,0.834 0.33,0.666 5.83,1.666 5.5,0.166 -0.34,-1.5 -0.34,-0.833 -1.84,-1 z"
         id="path348"
         inkscape:connector-curvature="0" />
      <path
         style="fill:#ffffff;stroke:none"
         d="M 986.896,891.39"
         id="path350"
         inkscape:connector-curvature="0" />
      <path
         style="fill:#ff8842;stroke:none"
         d="m 1121.4,972.056 c 0,0 -12.84,-0.5 -7.67,3.334 5.17,3.833 7.17,4 8,3 0.83,-1 2.83,-2.834 -0.33,-6.334 z"
         id="path352"
         inkscape:connector-curvature="0" />
      <path
         style="fill:#ff8842;stroke:none"
         d="m 1123.23,982.39 c 0,0 -1,-0.334 -4,0.166 -3,0.5 -4.33,-1.666 -5.33,0.167 -1,1.833 -0.67,3.333 1,4.167 1.66,0.833 5.66,1.5 6.66,1.333 1,-0.167 5,-0.333 3.34,-2.833 -1.67,-2.5 -1.17,-3 -1.67,-3 z"
         id="path354"
         inkscape:connector-curvature="0" />
      <path
         style="fill:#ff8842;stroke:none"
         d="m 1111.56,990.556 c 0,0 2.67,-0.5 3,0.334 0.34,0.833 0,3 -2.5,2.833 -2.5,-0.167 -4.66,-2.834 -4.16,-3.667 0.5,-0.833 0.33,-1.667 3.66,0.5 z"
         id="path356"
         inkscape:connector-curvature="0" />
      <path
         style="fill:#e05f1f;stroke:none"
         d="m 986.896,891.39 c 0,0 -5.167,3.667 -1.5,9.333 3.666,5.667 2,1.167 1.5,-0.666 -0.5,-1.834 1.166,-7.667 0,-8.667 z"
         id="path358"
         inkscape:connector-curvature="0" />
      <path
         style="fill:#e05f1f;stroke:none"
         d="m 979.896,902.89 c 0,0 -6.5,2.834 1,11.167 1.666,-0.5 1.833,-1 -0.5,-5 -2.334,-4 1.833,-5.834 -0.5,-6.167 z"
         id="path360"
         inkscape:connector-curvature="0" />
      <path
         style="fill:#e05f1f;stroke:none"
         d="m 976.562,916.723 c 0,0 -3.166,0.667 -0.166,4.334 3,3.666 6,5.166 6,5.166 0,0 1.833,-0.167 -0.334,-1.833 -2.166,-1.667 -4.833,-3.166 -4.833,-4.333 0,-1.167 0,-3.167 -0.667,-3.334 z"
         id="path362"
         inkscape:connector-curvature="0" />
      <path
         style="fill:#e05f1f;stroke:none"
         d="m 983.896,931.723 c 0,0 -3.667,-2.333 -1.667,0.167 2,2.5 3.667,3.666 3.5,2.5 -0.167,-1.167 -1.833,-2.667 -1.833,-2.667 z"
         id="path364"
         inkscape:connector-curvature="0" />
      <path
         style="fill:#e05f1f;stroke:none"
         d="m 1014.56,922.723 c 0,0 -1.5,-3.333 -2.33,-2.5 -0.83,0.834 -7,7 -3.83,18.667 3.16,11.667 5.83,16 7.16,16.5 1.34,0.5 0.34,-1.5 -1.66,-7.667 -2,-6.166 -4.17,-12.833 -3,-17.333 1.16,-4.5 3.83,-6.667 3.66,-7.667 z"
         id="path366"
         inkscape:connector-curvature="0" />
      <path
         style="fill:#000000;stroke:none"
         d="m 1011.56,919.687 c 0,0 -6.83,5.309 -3.54,17.192 0.51,-5.31 -1.01,-4.299 1.27,-9.355 2.27,-5.056 4.8,-7.837 2.27,-7.837 z"
         id="path368"
         inkscape:connector-curvature="0" />
      <path
         style="fill:#000000;stroke:none"
         d="m 985.268,900.22 c 0,0 5.056,8.09 5.814,8.848 0.758,0.759 -3.287,-6.573 -5.814,-8.848 z"
         id="path370"
         inkscape:connector-curvature="0" />
      <path
         style="fill:#e05f1f;stroke:none"
         d="m 1049.23,951.223 c 0,0 -7.33,6.167 -8.5,13.5 0,0 0,1 0.33,1.833 0.34,0.834 4.17,1.167 4.17,1.167 0,0 -3.33,-7.166 4,-16.5 z"
         id="path372"
         inkscape:connector-curvature="0" />
      <path
         style="fill:#e05f1f;stroke:none"
         d="m 1040.23,967.056 c 0,0 -0.67,3.333 0.83,4.5 -6.66,3.5 -9.5,5 -9.5,5 l 3.17,1.334 c 0,0 14.83,-6.334 14.83,-7.5 0,-1.167 -9.33,-3.334 -9.33,-3.334 z"
         id="path374"
         inkscape:connector-curvature="0" />
      <path
         style="fill:#000000;stroke:none"
         d="m 1040.06,966.556 c 0,0 6.84,-3.166 10.17,2.667 0,0 0,1.167 -0.67,1.167 -0.66,0 -2.16,-0.5 -3.5,0.5 -1.33,1 -3.66,-1.334 -4.16,-2.5 -0.5,-1.167 -2.17,-1.167 -1.84,-1.834 z"
         id="path376"
         inkscape:connector-curvature="0" />
      <path
         style="fill:#e05f1f;stroke:none"
         d="m 1023.06,979.723 v 1.5 c 0,0 4.84,3.833 5.34,5.167 0.5,1.333 0.66,2.833 0.66,2.833 l -1,4 c 0,0 3.34,-3.166 4.5,-3.5 1.17,-0.333 3.84,-2.167 3.5,-3.167 -0.33,-1 -6.5,-0.833 -6.33,-1.666 0.17,-0.834 4.17,-6 4.17,-6 l -9.67,-0.167 z"
         id="path378"
         inkscape:connector-curvature="0" />
      <path
         style="fill:#000000;stroke:none"
         d="m 1023.23,979.223 c 0,0 4.67,-6.166 7.5,-4.5 0.83,1.833 0.83,1.833 0.83,1.833 0,0 6.84,0.5 7,1.334 0.17,0.833 -6.16,9.333 -4.5,11 1.67,1.666 0.67,1.166 0.67,1.166 l 1,0.5 h 0.83 l 0.84,1.167 0.5,-0.5 0.83,1.167 0.67,-0.167 0.66,1 1.17,-0.167 0.17,0.667 h 1.5 l 1,0.5 0.33,-0.833 1.17,0.833 0.83,-0.5 0.5,1 0.5,0.333 0.67,0.334 0.16,2.333 -0.16,2 -1.17,1.497 -2.33,0.84 c 0,0 2.66,-3.503 2.16,-4.837 -0.5,-1.333 -0.66,-1.833 -0.66,-1.833 l -0.84,0.333 -1,0.5 -0.33,-0.833 -1.67,0.333 -0.33,-1.167 -1,0.667 -0.5,-1 -1.67,0.333 -0.33,-1 h -1.67 l -0.66,-1 -1.34,-0.333 -0.16,-1.333 h -0.67 l 0.33,-0.667 h -1.66 c 0,0 -0.5,-4.833 4.5,-11 -3.17,0.167 -5.67,-1.167 -7.84,2.667 -0.66,0.5 -0.33,2.5 -0.66,3.333 -0.34,0.833 -1,-4.5 -2.34,-5.167 -1.33,-0.666 -3.66,0.167 -2.83,-0.833 z"
         id="path380"
         inkscape:connector-curvature="0" />
      <path
         style="fill:#e05f1f;stroke:none"
         d="m 1055.73,976.556 c 0,0 -3.33,11.5 -4.83,13.5 -1.5,2 -2.5,3.667 -2.5,3.667 l 2.16,-0.667 c 0,0 2.67,-1.999 2.67,-4.333 0,-2.333 3.17,-9.834 2.5,-12.167 z"
         id="path382"
         inkscape:connector-curvature="0" />
      <path
         style="fill:#e05f1f;stroke:none"
         d="m 1072.23,967.557 c 0,0 -5,-0.667 -3.67,2 2.67,1.166 5.17,-0.167 6.5,-0.5 1.34,-0.334 13.67,-6.5 19,-11.5 2,1.5 12,8 16.34,8.666 4.33,0.667 -11.34,-6.166 -15.17,-10 -2.5,-0.833 -2.33,0 -3.33,0.667 -1.67,1.111 -12.03,8.328 -13.67,8.833 -2.17,0.667 -6,1.834 -6,1.834 z"
         id="path384"
         inkscape:connector-curvature="0" />
      <path
         style="fill:#000000;stroke:none"
         d="m 1103.73,961.723 c 0,0 13.04,6.087 17.33,4.796 -5.44,1.844 -15.18,-2.213 -17.33,-4.796 z"
         id="path386"
         inkscape:connector-curvature="0" />
      <path
         style="fill:#e05f1f;stroke:none"
         d="m 1121.06,966.519 c 0,0 3.17,0.204 2.17,1.704 -1,1.5 -4.83,0.758 -2.17,-1.704 z"
         id="path388"
         inkscape:connector-curvature="0" />
      <path
         style="fill:#e05f1f;stroke:none"
         d="m 1121.06,972.723 c 0,0 -4.33,-0.833 -5.33,-0.166 -1,0.666 -1.33,3.166 1.83,4.166 3.17,1 4.84,-0.833 4.34,-2.166 -0.5,-1.334 -0.17,-1.834 -0.84,-1.834 z"
         id="path390"
         inkscape:connector-curvature="0" />
      <path
         style="fill:#e05f1f;stroke:none"
         d="m 1123.06,983.057 c 0,0 -4,-10e-4 -4,1.333 0,1.333 0.5,2.5 1.67,2 1.17,-0.5 2.67,0.333 2.83,-0.167 0.17,-0.5 0.17,-2.833 -0.5,-3.166 z"
         id="path392"
         inkscape:connector-curvature="0" />
      <path
         style="fill:none;stroke:#000000;stroke-width:1"
         d="m 1041.94,942.098 c 2,-2 5.56,-2.445 5.56,-2.445 0,0 16.44,1.112 21.33,16.444 1.34,7.555 -1.55,10.888 -1.55,10.888 0,0 0,15.111 -4.89,16.444 -4.89,1.334 -5.56,0.889 -5.78,3.333 -0.22,2.445 -2,5.778 -5.33,6.667 -3.34,0.889 -3.34,0.889 -3.34,0.889 0,0 2,7.332 -3.55,7.782 -5.56,0.44 -12,0.44 -16.22,-7.338 0.66,-8 2.66,-5.333 -1.11,-10.221 -3.78,-4.889 -7.34,-3.111 -7.78,-4.667 -0.45,-1.556 -2.45,-9.777 4.44,-14.444"
         id="path394"
         inkscape:connector-curvature="0" />
    </g>
  </g>
</svg>
