<?xml version="1.0" encoding="UTF-8" standalone="no"?>
<svg
   xmlns:dc="http://purl.org/dc/elements/1.1/"
   xmlns:cc="http://creativecommons.org/ns#"
   xmlns:rdf="http://www.w3.org/1999/02/22-rdf-syntax-ns#"
   xmlns:svg="http://www.w3.org/2000/svg"
   xmlns="http://www.w3.org/2000/svg"
   viewBox="0 0 793.33331 1122.6667"
   height="1122.6667"
   width="793.33331"
   xml:space="preserve"
   id="svg2"
   version="1.1"><metadata
     id="metadata8"><rdf:RDF><cc:Work
         rdf:about=""><dc:format>image/svg+xml</dc:format><dc:type
           rdf:resource="http://purl.org/dc/dcmitype/StillImage" /></cc:Work></rdf:RDF></metadata><defs
     id="defs6" /><g
     transform="matrix(1.3333333,0,0,-1.3333333,0,1122.6667)"
     id="g10"><path
       id="path12"
       style="fill:#000000;fill-opacity:1;fill-rule:nonzero;stroke:none"
       d="m 459.0732,534.2617 c -1.75,4.3789 -3.0625,6.5689 1.3164,12.6983 18.8282,27.583 49.9122,69.6176 63.4883,132.2314 10.9463,25.835 9.6348,31.5259 9.6348,44.2241 0,21.0142 -19.7061,69.1822 -68.3057,69.1822 -54.2949,0 -71.3691,-46.4136 -74.873,-66.5542 -0.877,-4.3789 -1.751,-11.3858 -3.9414,0 -2.1895,11.3828 -17.0791,45.5366 -38.9707,-12.2593 -14.0098,5.6909 -27.1504,7.8872 -47.7266,7.8872 -49.0381,0 -162.8799,-31.0879 -162.8799,-166.8208 0,-33.7188 5.6919,-35.9082 5.6919,-35.9082 -11.3862,0 -48.165,-9.1934 -13.5757,-38.0913 -45.9721,0 -75.747,-20.5786 -75.747,-69.1822 0,-48.6035 45.101,-70.9365 60.8623,-70.9365 15.7617,0 33.7163,3.503 40.7226,8.3194 11.8213,-3.0664 41.5967,-4.8164 55.1685,1.7509 -3.063,-17.9502 -9.6318,-68.7461 4.8179,-105.5254 5.2519,-1.3125 7.4419,-1.3125 7.4419,-1.3125 3.5019,3.0635 2.186,4.376 9.6313,5.253 7.4458,0.8769 19.2666,3.9433 47.7266,0.8769 4.3784,11.3828 16.6386,26.7051 25.832,31.9619 0.6035,0.3545 1.2266,0.7071 1.8603,1.0586 29.7598,-16.6191 36.837,-24.4082 46.0733,-33.4951 9.5664,-9.4033 99.4736,-104.8662 105.2129,-175.874 l 10.5801,-3.0205 c -0.0352,-0.0938 -0.0674,-0.1856 -0.1036,-0.2822 l 26.293,-9.9278 c 5.584,17.334 8.1182,30.916 8.1182,47.7813 0,46.3779 -28.6778,160.5967 -28.6778,196.6709 0,20.6103 0.8457,68.3818 12.0069,93.6806 -0.3867,0 -1.1631,0.0977 -2.2324,0.2442 8.1054,4.9512 17.4062,8.6054 28.4111,9.707 14.0137,15.7608 21.0176,24.958 33.2773,29.7749 0,20.5752 -5.2558,49.4736 -87.1338,95.8872 z" /><path
       id="path14"
       style="fill:#000000;fill-opacity:1;fill-rule:nonzero;stroke:none"
       d="m 397.373,335.0576 c 1.7413,-8.3701 7.9034,-38.1758 -32.5292,-41.5635 3.8388,-5.1972 21.914,-18.0752 37.2724,-4.2949 15.3584,13.7793 27.1045,44.501 -4.7432,45.8584 z" /><path
       id="path16"
       style="fill:#ffffff;fill-opacity:1;fill-rule:nonzero;stroke:none"
       d="m 382.2393,291.6846 c -7.9073,1.1308 -10.168,-3.3877 -6.1016,-4.7432 4.0674,-1.3545 11.292,-2.0361 14.0039,-1.1299 2.7129,0.9063 -7.9023,5.8731 -7.9023,5.8731 z" /><path
       id="path18"
       style="fill:#ffffff;fill-opacity:1;fill-rule:nonzero;stroke:none"
       d="m 407.3193,327.375 c 2.3819,-3.9502 5.084,-13.6494 5.5362,-16.8135 0.4521,-3.165 1.7509,0.7764 2.4853,3.1612 1.9678,6.3925 -1.5508,13.7929 -4.7109,16.7285 -3.1611,2.9365 -4.0469,-1.8545 -3.3106,-3.0762 z" /><path
       id="path20"
       style="fill:#000000;fill-opacity:1;fill-rule:nonzero;stroke:none"
       d="m 452.4893,355.8389 c -2.7129,-9.2618 -13.3282,-31.17 -36.3692,-24.169 -6.7344,-7.1699 2.9365,-20.5566 2.9365,-20.5566 13.7803,-0.6787 39.3067,4.7402 38.1758,28.9111 0,9.9404 -4.7431,15.8145 -4.7431,15.8145 z" /><path
       id="path22"
       style="fill:#ffffff;fill-opacity:1;fill-rule:nonzero;stroke:none"
       d="m 418.2119,326.1836 c 0.711,-3.626 1.6279,-12.4873 3.833,-14.1709 2.2051,-1.6816 2.8496,-0.1133 2.5567,1.5107 -0.292,1.6241 -0.9873,13.5332 -1.9756,14.8682 -0.9873,1.3359 -4.9375,0.4619 -4.4141,-2.208 z" /><path
       id="path24"
       style="fill:#ffffff;fill-opacity:1;fill-rule:nonzero;stroke:none"
       d="m 451.4434,348.916 c 0.4873,-4.4092 2.6025,-11.8086 -0.1719,-19.5693 -2.7735,-7.7598 0.7988,-2.0391 2.7715,1.1113 2.9297,4.6816 2.6855,14.7227 1.4834,17.0967 -1.2012,2.375 -4.6348,6.3506 -4.083,1.3613 z" /><path
       id="path26"
       style="fill:#1500df;fill-opacity:1;fill-rule:nonzero;stroke:none"
       d="m 287.1694,711.8867 c -33.2636,0 -79.5278,-22.1704 -103.1186,-51.0068 -19.958,-24.396 -41.0274,-35.4829 -33.2637,-146.3618 -11.0903,-5.542 -16.6352,-7.7608 -22.1802,-8.8682 -5.542,-1.1108 -6.6528,-2.2192 -2.2158,-9.9795 4.4375,-7.7632 53.2227,-54.333 109.7715,-58.7705 29.938,27.7222 88.7056,77.6182 168.5386,123.0772 4.4345,38.812 16.6289,105.3369 -34.375,179.6254 -11.0869,-14.4101 -22.1729,-36.5903 -22.1729,-36.5903 -31.0488,9.979 -45.4629,8.8745 -60.9839,8.8745 z" /><path
       id="path28"
       style="fill:#ff1f37;fill-opacity:1;fill-rule:nonzero;stroke:none"
       d="m 413.8359,618.127 c 0,-19.1172 -2.0654,-52.1763 -3.6152,-74.9058 -1.5498,-22.7324 -6.2012,-65.6118 -47.0117,-96.6084 -40.8096,-30.9937 -74.3897,-27.894 -115.7158,-18.5942 -41.3301,9.2968 -71.8101,22.7294 -71.8101,22.7294 7.231,-12.916 27.3814,-64.5751 -17.5644,-98.6718 7.2309,-2.0655 13.9487,-2.0655 25.8281,-2.0655 32.5498,0 34.6157,13.4327 72.8437,13.4327 7.4908,-7.4913 17.0474,-16.5323 51.6597,-16.5323 34.6113,0 35.1289,3.6162 35.1289,3.6162 6.1982,13.9483 25.8311,41.3262 65.0918,37.1944 19.1143,14.4648 48.0449,36.1616 48.0449,106.4219 -1.0332,39.7773 -5.165,46.4921 -1.5498,52.1767 3.6153,5.6846 47.0078,70.2573 57.8584,117.7852 -32.0303,-24.7954 -65.6084,-32.5459 -102.2881,-0.5166 0,-18.5972 3.0996,-30.9966 3.0996,-45.4619 z" /><path
       id="path30"
       style="fill:#ffffff;fill-opacity:1;fill-rule:nonzero;stroke:none"
       d="m 154.5034,584.5508 c -3.541,-17.6944 -5.685,-47.0078 -1.0332,-69.2237 5.6817,-3.0996 10.3306,-4.1323 12.396,-4.1323 2.0659,0 3.1026,5.168 0,8.2676 -3.0991,3.0986 -6.7109,5.1646 -8.2637,28.4106 -1.5527,23.2457 0,34.6089 0,37.1949 0,2.5854 -2.5859,2.0654 -3.0991,-0.5171 z" /><path
       id="path32"
       style="fill:#ffffff;fill-opacity:1;fill-rule:nonzero;stroke:none"
       d="m 344.6123,701.8232 c -10.334,4.1319 -15.4961,5.6817 -22.7295,6.7144 -7.2344,1.0332 -9.3037,-1.5493 -3.1025,-4.1323 6.2011,-2.5821 15.5019,-2.5821 22.2158,-12.399 2.0654,-3.6157 5.165,-3.6186 4.6484,-1.0332 -0.5156,2.586 -1.0322,10.8501 -1.0322,10.8501 z" /><path
       id="path34"
       style="fill:#000000;fill-opacity:1;fill-rule:nonzero;stroke:none"
       d="m 330.6758,521.145 c 0,-10.7007 -7.8379,-19.3804 -17.5078,-19.3804 -9.6651,0 -17.5034,8.6797 -17.5034,19.3804 0,10.7002 7.8383,19.3736 17.5034,19.3736 9.6699,0 17.5078,-8.6734 17.5078,-19.3736 z" /><path
       id="path36"
       style="fill:#ffdf7f;fill-opacity:1;fill-rule:nonzero;stroke:none"
       d="m 326.6992,521.6973 c 0,-8.5762 -6.2783,-15.5313 -14.0322,-15.5313 -7.7451,0 -14.0303,6.9551 -14.0303,15.5313 0,8.5752 6.2852,15.5273 14.0303,15.5273 7.7539,0 14.0322,-6.9521 14.0322,-15.5273 z" /><path
       id="path38"
       style="fill:#000000;fill-opacity:1;fill-rule:nonzero;stroke:none"
       d="m 293.0688,647.5806 c -9.1577,0 -25.9487,-6.6851 -25.9487,-28.8003 0,-22.1192 13.9942,-48.6104 27.4751,-62.2403 13.481,-13.6308 31.0337,-26.7446 39.6831,-26.7446 8.6504,0 33.5801,8.7417 33.5801,41.1484 0,32.4029 -41.7168,76.6368 -74.7896,76.6368 z" /><path
       id="path40"
       style="fill:#ffffff;fill-opacity:1;fill-rule:nonzero;stroke:none"
       d="m 297.6001,642.9287 c -8.2676,0 -25.3145,-5.165 -25.3145,-24.7983 0,-26.3448 29.4468,-83.6866 61.9927,-83.6866 27.3819,0 29.4473,29.4439 29.4473,32.0298 0,34.0957 -43.9121,76.4551 -66.1255,76.4551 z" /><path
       id="path42"
       style="fill:#000000;fill-opacity:1;fill-rule:nonzero;stroke:none"
       d="m 305.3477,630.5327 c 2.7197,8.6021 3.6191,8.2676 4.1357,14.4653 1.5488,11.8794 -4.6484,17.5645 -8.2676,2.5826 -3.6157,-14.9815 -10.3296,-38.7442 -9.2969,-59.9273 1.0328,-21.1797 -2.0659,-20.6601 -4.1323,-17.561 0,-8.2671 21.6968,-25.315 21.6968,-25.315 7.2314,2.066 17.0479,7.7471 17.0479,18.0806 0,10.3335 -8.2676,20.147 -15.4991,20.147 -7.2304,0 -10.333,-3.0986 -12.916,-2.5825 -1.5488,8.7837 4.1328,40.2939 7.2315,50.1103 z" /><path
       id="path44"
       style="fill:#ffffff;fill-opacity:1;fill-rule:nonzero;stroke:none"
       d="m 318.7803,561.8252 c 0,-3.1025 3.6191,-10.8467 5.1679,-0.5166 1.5498,10.3301 -4.1347,14.4653 -7.2334,16.0146 -3.0996,1.5498 -7.2314,0.5132 -5.166,-1.5522 2.0664,-2.0659 7.2315,-6.1982 7.2315,-13.9458 z" /><path
       id="path46"
       style="fill:#000000;fill-opacity:1;fill-rule:nonzero;stroke:none"
       d="m 239.0732,599.7568 c -4.9897,0 -39.0849,-4.1572 -31.601,-46.9853 7.4843,-42.8272 32.0171,-77.7544 57.7964,-76.9234 25.7793,0.8321 38.6699,28.2749 32.4321,51.9756 -6.2359,23.7002 -29.1055,71.9331 -58.6275,71.9331 z" /><path
       id="path48"
       style="fill:#ffffff;fill-opacity:1;fill-rule:nonzero;stroke:none"
       d="m 237.6763,594.8877 c -9.4141,0 -27.709,-3.4463 -25.315,-41.8433 0,-22.7324 24.2823,-73.3593 55.2788,-73.3593 18.0811,0 32.0298,25.3149 25.8277,48.561 -6.7139,29.9634 -32.0288,66.6416 -55.7915,66.6416 z" /><path
       id="path50"
       style="fill:#000000;fill-opacity:1;fill-rule:nonzero;stroke:none"
       d="m 281.9009,559.8403 c -14.1992,1.0137 -64.0332,4.5738 -77.3389,-0.4155 -13.3057,-4.9902 4.9893,-6.6533 9.563,-6.6533 4.5737,0 34.5117,1.6631 41.9961,2.0791 7.4849,0.416 8.7319,-1.6631 5.4058,-4.5737 -3.3272,-2.9107 -2.4952,-7.0684 -2.0791,-11.6421 0.4155,-4.5738 4.9892,-15.3848 15.8002,-15.8008 10.8106,-0.4155 12.4742,7.8999 16.6324,7.8999 1.6626,10.811 -4.1582,28.6909 -9.9795,29.1064 z" /><path
       id="path52"
       style="fill:#ffffff;fill-opacity:1;fill-rule:nonzero;stroke:none"
       d="m 262.3579,535.3081 c 0.9229,-2.7612 8.7319,-10.395 12.8901,-10.395 2.4947,1.6631 4.1583,5.8208 1.2476,6.2368 -2.9111,0.4155 -7.4849,2.4946 -9.564,4.5737 -2.0786,2.0791 -4.9892,0.8321 -4.5737,-0.4155 z" /><path
       id="path54"
       style="fill:#ffdf7f;fill-opacity:1;fill-rule:nonzero;stroke:none"
       d="m 398.6016,545.0078 c -8.3164,0 -16.0772,-7.2051 -34.3721,-17.1841 -18.2959,-9.979 -24.3926,-11.0903 -27.7197,-13.3056 -3.3252,-2.2159 -3.3252,-8.316 -8.3164,-11.6426 -7.2071,-6.1006 -10.5342,-3.8818 -15.5235,-7.7642 -7.2041,-4.9892 -58.2119,-44.9057 -60.4272,-57.1006 0.5522,-7.7636 3.8784,-12.7539 38.8052,-12.7539 34.9277,0 96.4687,21.0703 113.6533,102.5669 2.7715,12.7534 -1.1104,17.1841 -6.0996,17.1841 z" /><path
       id="path56"
       style="fill:#000000;fill-opacity:1;fill-rule:nonzero;stroke:none"
       d="m 378.0898,507.313 c 0,-5.022 -13.8603,-39.3648 -63.2011,-51.0068 -5.5449,-1.6636 -1.666,-2.2159 2.2158,-2.2159 3.8818,0 55.4375,13.8579 66.5273,49.3374 1.1114,9.979 -5.542,8.3194 -5.542,3.8853 z" /><path
       id="path58"
       style="fill:#000000;fill-opacity:1;fill-rule:nonzero;stroke:none"
       d="m 316.9668,429.1353 c -14.7959,-3.2832 -30.4922,-19.3628 -29.7974,-25.1031 0.6953,-5.7441 2.771,-12.2011 22.8697,-11.4804 20.0976,0.7216 34.6543,15.7851 35.3427,22.2392 0.6895,6.4512 -9.0107,18.646 -28.415,14.3443 z" /><path
       id="path60"
       style="fill:#ffffff;fill-opacity:1;fill-rule:nonzero;stroke:none"
       d="m 317.1045,424.7051 c -11.8379,-2.5371 -24.3931,-14.9658 -23.8403,-19.4033 0.5581,-4.4366 2.2216,-9.4268 18.2983,-8.8711 16.0762,0.5556 27.7217,12.2011 28.2744,17.1875 0.5518,4.9863 -7.209,14.4131 -22.7324,11.0869 z" /><path
       id="path62"
       style="fill:#000000;fill-opacity:1;fill-rule:nonzero;stroke:none"
       d="m 380.209,454.4937 c -10.208,-0.7149 -34.0283,-15.69 -35.3858,-27.8135 -0.6787,-9.271 6.8057,-11.4087 12.9288,-10.6978 6.1269,0.7119 31.9814,13.5498 31.9814,27.8106 0,14.2671 -9.5244,10.7007 -9.5244,10.7007 z" /><path
       id="path64"
       style="fill:#ffffff;fill-opacity:1;fill-rule:nonzero;stroke:none"
       d="m 377.5352,450.2056 c -8.3164,-0.5528 -27.7227,-12.1949 -28.8301,-21.6216 -0.5518,-7.2056 5.5449,-8.8682 10.5342,-8.3164 4.9902,0.5591 26.0566,10.5346 26.0566,21.6216 0,11.0903 -7.7607,8.3164 -7.7607,8.3164 z" /><path
       id="path66"
       style="fill:#000000;fill-opacity:1;fill-rule:nonzero;stroke:none"
       d="m 418.0205,496.2227 c -8.7441,-0.9937 -29.1611,-13.0845 -32.0068,-31.9903 -1.4239,-13.0845 2.1338,-12.3608 6.4023,-12.3608 4.2647,0 17.0674,2.1797 24.1846,11.6328 7.1142,9.4526 10.668,17.4507 10.668,23.2656 0,5.8145 -2.8487,10.1768 -9.2481,9.4527 z" /><path
       id="path68"
       style="fill:#ffffff;fill-opacity:1;fill-rule:nonzero;stroke:none"
       d="m 415.2334,490.1221 c -6.8154,-0.7534 -22.7334,-9.9761 -24.9482,-24.3892 -1.1075,-9.979 1.663,-9.4267 4.9892,-9.4267 3.3272,0 13.3057,1.663 18.8506,8.8676 5.5449,7.2119 8.3164,13.3057 8.3164,17.7432 0,4.4375 -2.2187,7.7607 -7.208,7.2051 z" /><path
       id="path70"
       style="fill:#1500df;fill-opacity:1;fill-rule:nonzero;stroke:none"
       d="m 418.748,363.4873 c 21.0069,15.3848 36.9571,32.7617 36.9571,48.4668 0,9.4243 -6.0967,17.1885 -6.0967,17.1885 -6.1016,-16.0791 -18.2988,-34.3721 -36.0381,-40.4727 -2.7715,0 -1.6601,-3.3261 1.1104,-3.8818 2.7714,-0.5557 7.205,-1.666 7.205,-7.208 0,-5.542 -3.1377,-14.0928 -3.1377,-14.0928 z" /><path
       id="path72"
       style="fill:#1500df;fill-opacity:1;fill-rule:nonzero;stroke:none"
       d="m 368.4551,334.2031 c -18.9571,-8.7959 -35.8272,-14.2802 -44.1436,-14.2802 -29.3818,0 -38.2529,17.1875 -38.2529,25.5039 7.2056,-2.7745 15.5205,-2.7745 24.9482,-2.7745 9.4268,0 29.3819,2.7745 33.8194,6.1016 0,-6.6533 6.789,-14.6836 23.6289,-14.5508 z" /><path
       id="path74"
       style="fill:#ffffff;fill-opacity:1;fill-rule:nonzero;stroke:none"
       d="m 397.4932,384.2324 c -8.3155,0 -45.4619,-12.75 -45.4619,-34.3711 0,-9.4238 15.5244,-10.5351 15.5244,-10.5351 12.7509,0 46.5693,14.9726 46.5693,32.7119 0,12.75 -16.6318,12.1943 -16.6318,12.1943 z" /><path
       id="path76"
       style="fill:#ffdf7f;fill-opacity:1;fill-rule:nonzero;stroke:none"
       d="m 119.3423,476.3813 c -22.8369,0 -61.2007,-16.4404 -61.2007,-62.5747 0,-46.1347 39.2798,-68.0576 62.5713,-68.0576 23.2978,0 61.6621,17.8106 61.6621,63.4873 0,45.6758 -35.1675,67.145 -63.0327,67.145 z" /><path
       id="path78"
       style="fill:#ffdf7f;fill-opacity:1;fill-rule:nonzero;stroke:none"
       d="m 464.8525,787.6992 c -21.205,0 -69.0224,-16.2163 -69.0224,-72.7656 0,-56.5483 51.9756,-67.7754 63.6172,-67.7754 11.6425,0 69.8554,14.9688 69.8554,71.5181 0,56.5488 -51.9756,69.0229 -64.4502,69.0229 z" /><path
       id="path80"
       style="fill:#ff1f37;fill-opacity:1;fill-rule:nonzero;stroke:none"
       d="m 391.3955,342.6523 c -6.6523,-5.5419 -39.3603,-21.622 -66.5273,-24.3925 0.5517,-4.9893 17.1865,-22.1739 39.916,-22.7295 22.7295,-0.5547 32.1533,18.2959 32.1533,27.7197 0,9.4238 -5.542,19.4023 -5.542,19.4023 z" /><path
       id="path82"
       style="fill:#ff1f37;fill-opacity:1;fill-rule:nonzero;stroke:none"
       d="m 450.7158,391.4414 c -6.0967,-9.4238 -21.6181,-28.2715 -34.3711,-31.0459 -4.4384,-6.1006 -16.0801,-16.0791 -19.4072,-16.0791 -1.1074,-4.9902 12.7539,-11.6426 28.8311,-11.6426 16.0761,0 28.2705,26.0557 27.7187,34.9278 2.2178,8.8711 -2.7715,23.8398 -2.7715,23.8398 z" /><path
       id="path84"
       style="fill:#ffffff;fill-opacity:1;fill-rule:nonzero;stroke:none"
       d="m 338.0273,298.5254 c -8.3349,0 -28.7089,-7.8731 -28.7089,-13.4287 31.4873,-17.5938 38.4316,-25.4639 47.6933,-34.7256 9.2608,-9.2607 96.3164,-103.2617 101.8711,-173.1816 l 10.6475,-3.7032 c -0.5196,40.3662 -4.2422,42.7334 -11.5733,64.8262 -5.5576,17.5967 -66.2129,125.0234 -68.9941,141.2295 -27.3223,6.4834 -48.1543,18.9834 -50.9356,18.9834 z" /><path
       id="path86"
       style="fill:#ffffff;fill-opacity:1;fill-rule:nonzero;stroke:none"
       d="m 431.0986,308.2441 -13.4297,1.3916 c 0,-9.7255 -15.2773,-25.4677 -23.6123,-25.4677 0,-7.4092 22.6866,-52.7901 29.1709,-65.7549 6.4834,-12.9649 51.8614,-91.6817 50.0098,-144.0068 l 12.9648,-7.4102 c 3.7032,99.0898 -47.6933,166.2334 -55.1035,241.248 z" /><path
       id="path88"
       style="fill:#ffffff;fill-opacity:1;fill-rule:nonzero;stroke:none"
       d="m 436.1924,311.0186 c 0,-44.4541 52.7871,-151.4161 52.7871,-212.0772 0,-16.6709 0.7568,-23.9502 -2.0205,-31.8223 l 5.7236,-3.832 c 5.0967,17.1318 7.4092,30.5576 7.4092,47.2285 0,45.8428 -28.7061,159.291 -28.7061,194.9453 0,20.3741 -1.8554,64.8233 8.3321,89.8301 -2.7774,0 -16.2032,-12.5039 -22.6865,-22.2265 -2.7803,-23.6163 2.3125,-24.0772 2.3125,-32.4131 0,-19.4483 -13.8907,-29.628 -23.1514,-29.6328 z" /><path
       id="path90"
       style="fill:#ddff1f;fill-opacity:1;fill-rule:nonzero;stroke:none"
       d="m 462.0557,526.5112 c 2.8242,-18.9511 5.6425,-60.4795 -8.8711,-90.7187 6.8545,-8.8721 9.2715,-24.1948 3.6279,-35.4829 0,-4.8369 0.8096,-20.5635 0.8096,-20.5635 9.2744,12.5 27.0146,31.0488 53.2226,34.6777 6.8545,10.8848 21.3711,22.9825 32.6602,27.4165 0,28.2261 -47.9824,72.9795 -81.4492,84.6709 z" /><path
       id="path92"
       style="fill:#ddff1f;fill-opacity:1;fill-rule:nonzero;stroke:none"
       d="m 209.019,314.1318 c 0,-19.2773 5.1387,-59.5449 7.7115,-64.6865 4.7099,-0.8574 6.854,-1.2871 6.854,-1.2871 0,3.8564 12.4218,10.2813 52.6899,6.8545 0.8574,8.5703 23.9932,43.2656 52.6963,45.4102 0.8545,2.999 1.2832,4.7128 1.2832,4.7128 -3.8555,0 -13.2832,6.8575 -14.5654,11.5684 -11.9932,1.2832 -23.1328,3.4268 -35.5552,28.2744 -17.1387,0.8545 -24.8467,8.5694 -32.9873,13.708 -6.4292,0 -26.563,-6.8535 -30.8442,-6.8535 -4.2881,0 -7.2828,-20.9951 -7.2828,-37.7012 z" /></g></svg>