<?xml version="1.0" encoding="UTF-8" standalone="no"?>
<!-- Generator: Adobe Illustrator 16.0.0, SVG Export Plug-In . SVG Version: 6.00 Build 0)  -->

<svg
   xmlns:dc="http://purl.org/dc/elements/1.1/"
   xmlns:cc="http://creativecommons.org/ns#"
   xmlns:rdf="http://www.w3.org/1999/02/22-rdf-syntax-ns#"
   xmlns:svg="http://www.w3.org/2000/svg"
   xmlns="http://www.w3.org/2000/svg"
   xmlns:sodipodi="http://sodipodi.sourceforge.net/DTD/sodipodi-0.dtd"
   xmlns:inkscape="http://www.inkscape.org/namespaces/inkscape"
   version="1.1"
   id="Layer_1"
   x="0px"
   y="0px"
   width="612px"
   height="792px"
   viewBox="0 0 612 792"
   enable-background="new 0 0 612 792"
   xml:space="preserve"
   sodipodi:docname="donald.svg"
   inkscape:version="0.92.4 (5da689c313, 2019-01-14)"><metadata
   id="metadata85"><rdf:RDF><cc:Work
       rdf:about=""><dc:format>image/svg+xml</dc:format><dc:type
         rdf:resource="http://purl.org/dc/dcmitype/StillImage" /></cc:Work></rdf:RDF></metadata><defs
   id="defs83" /><sodipodi:namedview
   pagecolor="#ffffff"
   bordercolor="#666666"
   borderopacity="1"
   objecttolerance="10"
   gridtolerance="10"
   guidetolerance="10"
   inkscape:pageopacity="0"
   inkscape:pageshadow="2"
   inkscape:window-width="1366"
   inkscape:window-height="715"
   id="namedview81"
   showgrid="false"
   inkscape:zoom="0.42140707"
   inkscape:cx="-93.583189"
   inkscape:cy="138.30315"
   inkscape:window-x="-8"
   inkscape:window-y="22"
   inkscape:window-maximized="1"
   inkscape:current-layer="Layer_1" />
<g
   id="g8"
   transform="matrix(1.2699907,0,0,1.2699907,-101.92644,-48.097198)">
	<path
   d="m 351.065,483.553 c 0.013,3.828 2.363,5.857 6.191,5.349 2.069,-0.275 4.111,-0.318 6.183,0.16 2.901,0.671 5.752,0.348 8.334,-1.196 7.579,-4.53 11.485,-11.273 11.963,-19.835 -0.276,-3.511 -0.544,-6.786 -2.267,-9.7 -2.089,-3.531 -5.019,-5.793 -9.313,-5.668 -4.598,0.134 -7.844,2.626 -9.981,6.451 -3.309,5.922 -6.414,11.957 -9.537,17.98 -1.036,1.999 -1.58,4.177 -1.573,6.459 z"
   id="path2"
   inkscape:connector-curvature="0"
   style="fill:#1e1e1e" />
	<path
   d="m 377.57,442.891 c 3.42,-4.627 4.628,-9.896 4.74,-14.048 0.042,-5.354 -0.89,-9.269 -2.579,-12.281 -1.233,-2.199 -2.847,-4.041 -5.105,-5.241 -3.211,-1.706 -6.643,-1.184 -9.234,1.364 -1.219,1.198 -2.031,2.653 -2.73,4.183 -2.605,5.701 -4.247,11.672 -5.022,17.889 -0.652,5.235 1.687,9.693 6.301,11.414 6.138,2.289 10.288,1.24 13.629,-3.28 z"
   id="path4"
   inkscape:connector-curvature="0"
   style="fill:#1e1e1e" />
	<path
   d="m 552.117,326.713 c -0.158,-3.26 -1.003,-6.273 -2.966,-8.914 -2.097,-2.821 -4.779,-4.904 -8.011,-6.299 -4.012,-1.73 -8.218,-2.627 -12.559,-2.795 -11.075,-0.43 -21.799,1.572 -32.29,4.948 -4.101,1.319 -8.13,2.857 -12.191,4.3 -2.098,0.745 -4.141,0.87 -5.709,-1.008 -1.349,-1.615 -2.974,-2.903 -4.557,-4.242 -6.739,-5.7 -13.872,-10.799 -22.068,-14.246 -5.932,-2.495 -11.997,-4.374 -18.54,-4.227 -9.532,0.214 -16.385,5.591 -18.773,14.809 -1.75,6.754 -1.13,13.486 0.278,20.19 1.295,6.166 3.904,11.797 7.173,17.15 1.309,2.145 1.148,2.597 -1.213,3.452 -3.078,1.114 -6.208,2.075 -9.405,2.8 -2.876,0.651 -3.444,0.433 -4.792,-2.156 -2.707,-5.202 -6.032,-9.984 -9.786,-14.473 -3.665,-4.381 -7.795,-8.251 -12.668,-11.281 -1.907,-1.186 -3.876,-2.211 -6.114,-2.658 -1.183,-0.236 -2.228,-0.802 -3.192,-1.57 -1.345,-1.07 -1.832,-1.073 -3.181,-0.069 -1.933,1.438 -3.655,3.098 -5.062,5.076 -5.861,8.247 -7.183,17.412 -5.525,27.182 0.104,0.618 0.366,1.218 0.127,1.985 -2.144,0.417 -4.039,-0.215 -5.766,-1.514 -1.491,-1.122 -2.607,-2.588 -3.645,-4.11 -4.729,-6.938 -9.713,-13.693 -14.716,-20.435 -0.429,-0.577 -0.877,-1.145 -1.245,-1.76 -0.763,-1.274 -0.674,-1.63 0.633,-2.19 0.95,-0.407 1.952,-0.7 2.938,-1.021 19.417,-6.315 35.298,-17.371 46.503,-34.689 0.854,-1.319 1.998,-2.236 3.385,-2.947 3.628,-1.862 7.146,-3.917 10.5,-6.242 4.885,-3.385 9.397,-7.192 13.19,-11.799 2.11,-2.565 3.145,-5.463 3.076,-8.84 -0.131,-6.497 -2.577,-11.912 -7.095,-16.518 -2.304,-2.35 -4.908,-3.053 -8.069,-2.246 -4.494,1.147 -8.896,2.557 -13.194,4.294 -7.906,3.194 -15.196,7.443 -21.883,12.73 -0.947,0.75 -1.905,1.672 -3.192,1.36 -2.93,-0.711 -5.887,-0.336 -8.831,-0.433 -1.587,-0.052 -1.852,-0.303 -1.679,-1.833 0.207,-1.825 0.554,-3.633 0.795,-5.455 1.108,-8.368 1.157,-16.747 0.052,-25.114 -1.207,-9.137 -3.594,-17.997 -6.546,-26.711 -3.476,-10.258 -8.391,-19.63 -16.104,-27.451 -4.394,-4.455 -6.429,-10.358 -8.983,-16.279 2.025,0.118 3.756,0.209 5.485,0.319 8.909,0.568 17.744,0.159 26.407,-2.175 11.122,-2.997 20.074,-9.255 27.133,-18.295 0.312,-0.399 0.977,-0.808 0.47,-1.416 -0.399,-0.48 -0.878,-0.012 -1.291,0.162 -0.421,0.178 -0.847,0.619 -1.276,0.174 -0.397,-0.412 -0.116,-0.888 0.118,-1.316 0.191,-0.35 0.374,-0.706 0.538,-1.069 4.96,-10.992 3.065,-22.264 -5.207,-30.786 -3.224,-3.321 -7.078,-5.72 -11.367,-7.403 C 350.1,88.9 337.529,88.162 324.72,89.551 c -7.739,0.839 -15.231,2.736 -22.626,5.091 -3.15,1.003 -3.468,0.894 -5.333,-1.852 -4.627,-6.812 -9.327,-13.572 -14.255,-20.17 -4.182,-5.6 -8.873,-10.73 -14.35,-15.085 -6.029,-4.796 -12.288,-9.208 -20.094,-10.709 -2.825,-0.543 -5.667,-0.95 -8.512,-1.372 -7.018,-1.042 -13.477,0.389 -19.598,3.842 -5.945,3.354 -10.971,7.752 -15.002,13.227 -2.11,2.865 -4.707,4.8 -8,6.188 -16.535,6.969 -29.631,18.099 -39.34,33.188 -6.624,10.293 -11.416,21.386 -14.33,33.279 -0.759,3.099 -1.64,6.182 -1.916,9.375 -0.163,1.871 0.605,2.653 2.473,2.683 1.285,0.02 2.352,-0.48 2.946,-1.688 0.315,-0.641 0.55,-1.324 0.808,-1.993 3.072,-7.971 7.102,-15.369 12.994,-21.646 1.131,-1.205 2.277,-2.396 3.704,-3.439 0.425,0.999 0.166,1.776 -0.048,2.502 -0.793,2.694 -1.299,5.444 -1.54,8.231 -0.692,8.01 0.988,15.408 5.853,21.943 0.38,0.51 0.77,1.042 1.255,1.439 1.228,1.005 2.554,0.551 2.849,-0.997 0.164,-0.854 0.146,-1.75 0.148,-2.627 0.01,-4.24 0.15,-8.466 0.635,-12.688 1.465,-12.758 5.577,-24.557 12.604,-35.318 2.893,-4.431 6.088,-8.625 9.964,-12.256 0.967,-0.906 1.892,-1.912 3.315,-2.41 1.543,4.05 3.486,7.805 5.898,11.294 5.529,7.997 11.91,15.24 19.293,21.585 4.498,3.865 9.268,7.355 14.329,10.441 2.311,1.409 3.515,3.325 3.476,6.107 -0.035,2.474 0.191,4.951 0.295,7.427 0.059,1.358 0.145,2.717 0.143,4.076 -0.002,1.691 -0.186,1.858 -1.898,2.09 -0.236,0.032 -0.479,0.024 -0.717,0.054 -7.222,0.907 -13.374,3.953 -17.799,9.764 -3.655,4.802 -8.096,8.544 -13.135,11.757 -8.795,5.609 -16.285,12.629 -22.179,21.28 -6.413,9.415 -10.53,19.708 -11.452,31.124 -0.721,8.922 0.303,17.712 2.516,26.375 4.16,16.277 12.65,30.084 24.064,42.222 3.306,3.515 3.424,3.68 0.824,7.751 -2.916,4.563 -2.244,10.178 2.314,13.954 2.06,1.706 4.392,2.906 6.924,3.717 5.127,1.642 10.406,2.477 15.758,2.873 5.031,0.372 10.068,0.346 15.103,0.041 2.919,-0.177 5.692,0.313 8.444,1.339 14.141,5.272 28.658,8.901 43.787,9.772 1.369,0.079 2.641,0.458 3.791,1.301 5.677,4.16 11.34,8.337 16.632,12.988 0.64,0.563 1.441,1.008 1.76,1.916 -0.771,0.312 -1.414,-0.08 -2.078,-0.285 -2.593,-0.798 -5.175,-1.635 -7.779,-2.396 -8.934,-2.613 -18.019,-3.346 -27.275,-2.295 -3.757,0.427 -4.048,1.076 -3.409,4.815 0.329,1.925 0.783,3.861 0.591,5.81 -0.659,0.183 -1.054,-0.145 -1.472,-0.356 -12.065,-6.098 -24.568,-11.133 -37.414,-15.316 -17.354,-5.653 -35.086,-9.654 -53.172,-12.128 -10.709,-1.465 -21.439,-2.502 -32.262,-2.229 -3.196,0.081 -6.396,0.196 -9.537,0.888 -3.692,0.814 -5.545,2.744 -6.102,6.466 -0.426,2.851 -0.615,5.722 -0.398,8.611 0.538,7.187 1.667,14.279 3.402,21.273 0.213,0.86 0.354,1.716 0.418,2.595 0.086,1.202 -0.481,1.766 -1.646,1.871 -1.273,0.115 -2.54,0.312 -3.813,0.421 -8.299,0.713 -16.485,2.063 -24.489,4.4 -5.678,1.657 -11.233,3.669 -16.475,6.444 -4.082,2.161 -7.604,5.008 -10.194,8.896 -1.317,1.979 -2.421,4.172 -2.841,6.426 -0.434,2.319 -0.238,4.741 0.854,7.132 1.542,3.375 3.575,6.212 6.515,8.425 2.973,2.238 6.334,3.695 9.846,4.835 9.037,2.934 18.336,4.274 27.807,4.606 7.279,0.255 14.539,0.204 21.796,-0.598 4.525,-0.5 9.068,-0.809 13.642,-0.24 3.008,0.375 6.057,0.476 9.092,0.593 8.998,0.346 17.888,-0.386 26.584,-2.867 3.781,-1.079 7.414,-2.503 10.707,-4.688 4.123,-2.735 5.618,-6.59 4.738,-11.403 -0.258,-1.412 -0.604,-2.811 -0.938,-4.208 -0.484,-2.035 -0.494,-2.033 1.516,-2.605 1.381,-0.394 2.793,-0.703 4.139,-1.194 3.238,-1.182 3.744,-2.842 1.779,-5.636 -0.459,-0.652 -0.988,-1.257 -1.494,-1.876 -2.897,-3.548 -5.349,-7.371 -7.076,-11.628 -1.677,-4.135 -1.157,-5.096 3.141,-6.28 5.541,-1.526 11.125,-1.065 16.667,-0.242 16.618,2.47 32.834,6.72 48.963,11.322 5.569,1.589 9.763,4.941 12.544,10.063 1.244,2.292 1.363,4.492 0.113,6.832 -2.449,4.581 -5.617,8.521 -9.793,11.651 -3.166,2.374 -6.727,3.973 -10.346,5.477 -0.691,0.286 -1.536,0.352 -2.048,1.233 6.407,4.66 13.354,7.918 20.91,9.974 7.578,2.063 15.337,2.537 23.353,2.636 -0.502,1.296 -1.203,2.048 -1.834,2.836 -4.168,5.214 -9.396,9.096 -15.307,12.105 -2.58,1.314 -2.697,1.268 -4.279,-1.285 -0.125,-0.202 -0.203,-0.448 -0.367,-0.607 -0.16,-0.155 -0.404,-0.318 -0.607,-0.313 -0.371,0.01 -0.498,0.322 -0.516,0.666 -0.045,0.878 -0.055,1.76 -0.146,2.634 -0.082,0.793 -0.582,1.136 -1.346,0.884 -1.06,-0.35 -2.097,-0.771 -3.144,-1.158 -9.094,-3.362 -18.346,-4.122 -27.776,-1.634 -5.386,1.422 -10.306,3.849 -14.837,7.08 -0.375,0.268 -0.781,0.688 -1.279,0.331 -0.354,-0.253 -0.267,-0.702 -0.236,-1.105 0.336,-4.465 0.709,-8.928 0.977,-13.396 0.345,-5.746 1.096,-11.468 1.086,-17.231 -0.004,-2.878 -0.187,-5.761 -1.295,-8.479 -1.745,-4.281 -5.091,-5.421 -9.065,-3.084 -0.617,0.363 -1.188,0.809 -1.761,1.243 -2.311,1.756 -4.275,3.848 -5.973,6.197 -5.178,7.163 -7.66,15.194 -7.732,24.002 -0.006,0.846 0,1.691 0,3.048 -1.804,-1.572 -3.217,-2.799 -4.625,-4.033 -4.111,-3.607 -8.561,-6.688 -13.661,-8.753 -2.69,-1.089 -5.454,-1.806 -8.389,-1.706 -4.757,0.16 -8.247,3.703 -8.38,8.435 -0.055,1.963 0.375,3.814 1.055,5.615 4.078,10.791 11.531,18.231 22.297,22.355 0.563,0.215 1.191,0.273 1.628,0.998 -1.126,0.354 -2.182,0.694 -3.241,1.021 -5.349,1.645 -10.619,3.49 -15.522,6.235 -2.382,1.333 -4.627,2.872 -6.334,5.054 -3.578,4.573 -2.091,9.772 3.368,11.688 2.761,0.969 5.615,1.133 8.52,0.798 6.456,-0.743 12.377,-3.013 18.01,-6.158 0.646,-0.361 1.193,-1.076 2.326,-0.834 -0.873,2.22 -1.74,4.321 -2.529,6.451 -4.332,11.683 -5.536,23.594 -2.421,35.772 2.957,11.56 8.803,21.555 16.901,30.22 11.283,12.072 25.139,19.896 41.121,23.776 10.391,2.523 17.666,8.872 23.433,17.421 0.397,0.588 0.677,1.264 0.96,1.921 0.772,1.797 0.42,3.444 -0.773,4.931 -0.963,1.201 -2.201,2.086 -3.51,2.871 -1.852,1.113 -3.803,2.029 -5.784,2.886 -9.519,4.113 -19.603,6.231 -29.667,8.408 -0.688,0.149 -1.438,0.12 -2.146,0.051 -2.862,-0.278 -5.725,-0.58 -8.581,-0.918 -13.927,-1.645 -27.899,-2.125 -41.907,-1.652 -3.108,0.105 -6.247,0.036 -9.297,0.824 -3.1,0.801 -4.582,3.11 -4.159,6.295 0.208,1.565 0.978,2.857 1.813,4.127 3.955,5.999 9.248,10.549 15.406,14.151 10.519,6.154 21.844,10.094 33.783,12.39 10.888,2.095 21.905,2.558 32.942,2.603 10.634,0.043 21.269,-0.176 31.875,-1.104 8.521,-0.747 17.052,-1.393 25.571,-2.153 9.792,-0.875 19.564,-1.95 29.313,-3.229 5.545,-0.728 11.058,-1.645 16.418,-3.306 1.379,-0.428 2.731,-0.93 3.91,-1.772 1.784,-1.274 2.188,-3.407 1.081,-5.302 -0.722,-1.233 -1.83,-1.993 -3.109,-2.519 -1.854,-0.761 -3.778,-1.266 -5.763,-1.57 -0.993,-0.152 -2.051,-0.156 -2.914,-0.717 0.034,-0.907 0.812,-1.026 1.222,-1.467 1.772,-1.9 1.403,-4.365 -0.886,-5.62 -0.775,-0.426 -1.632,-0.587 -2.504,-0.752 -3.973,-0.753 -7.979,-0.348 -11.969,-0.419 -2.842,-0.05 -5.686,-0.01 -8.607,-0.01 0.088,-0.967 0.725,-1.268 1.091,-1.741 1.889,-2.439 1.271,-4.789 -1.595,-5.904 -0.591,-0.23 -1.217,-0.43 -1.843,-0.504 -1.825,-0.213 -3.655,-0.418 -5.489,-0.516 -6.808,-0.364 -13.585,0.22 -20.364,0.71 -0.588,0.043 -1.209,0.28 -1.691,-0.063 1.483,-1.62 2.896,-3.205 4.354,-4.745 3.031,-3.2 3.658,-6.748 1.812,-10.794 -1.673,-3.666 -3.824,-7.013 -6.39,-10.097 -2.146,-2.581 -4.381,-5.092 -6.547,-7.658 -0.43,-0.511 -1.184,-0.896 -0.955,-1.786 0.797,-0.465 1.737,-0.307 2.548,-0.618 3.159,-1.215 5.799,-0.164 8.179,1.881 10.877,9.346 22.621,17.521 34.442,25.595 14.747,10.072 30.087,19.063 46.728,25.69 1.249,0.498 2.488,1.021 3.819,1.569 -0.777,2.198 -2.028,3.959 -3.029,5.841 -2.106,3.96 -4.05,7.97 -4.828,12.445 -0.912,5.243 0.716,8.385 5.583,10.56 4.83,2.158 9.679,2.261 14.648,0.315 9.677,-3.789 18.565,-8.954 26.724,-15.331 11.981,-9.367 22.259,-20.417 31.389,-32.553 9.546,-12.689 17.486,-26.348 24.368,-40.633 1.978,-4.105 4.242,-7.889 8.654,-9.85 0.83,-0.369 1.622,-0.949 1.578,-2.118 -1.889,-0.225 -3.27,1.48 -5.194,1.086 0.227,-0.688 0.406,-1.291 0.622,-1.881 5.004,-13.692 8.765,-27.685 10.447,-42.208 1.718,-14.823 1.229,-29.522 -2.118,-44.088 -1.191,-5.185 -3.081,-10.087 -6.4,-14.32 -4.331,-5.523 -9.631,-5.22 -13.362,0.729 -1.849,2.947 -2.92,6.193 -3.707,9.555 -0.915,3.912 -1.299,7.921 -2.058,11.978 -0.655,-0.587 -0.668,-1.247 -0.824,-1.854 -0.898,-3.477 -1.76,-6.963 -3.308,-10.234 -1.349,-2.853 -3.036,-5.45 -5.537,-7.428 -4.551,-3.597 -10.024,-2.829 -13.407,1.861 -1.227,1.7 -2.067,3.596 -2.689,5.588 -1.174,3.763 -1.587,7.655 -1.926,11.559 -0.497,5.745 -0.452,11.505 -0.534,17.262 -0.008,0.589 0.264,1.266 -0.477,1.94 -0.783,-1.112 -1.543,-2.188 -2.298,-3.267 -1.718,-2.452 -3.729,-4.593 -6.413,-6.012 -6.111,-3.229 -12.433,-1.348 -15.76,4.714 -1.394,2.538 -2.297,5.259 -2.857,8.099 -1.598,8.087 -2.509,16.271 -3.25,24.466 -1.318,14.569 -2.851,29.107 -5.397,43.521 -1.445,8.179 -3.152,16.304 -5.254,24.341 -0.652,2.496 -0.825,2.585 -3.289,1.807 -14.61,-4.615 -29.226,-9.214 -43.487,-14.852 -9.064,-3.582 -17.951,-7.553 -26.548,-12.156 -0.715,-0.383 -1.66,-0.577 -1.901,-1.53 3.121,-1.223 6.201,-2.335 9.206,-3.622 15.413,-6.603 27.935,-16.639 36.693,-31.103 4.804,-7.932 7.896,-16.542 10.116,-25.5 0.84,-3.39 1.494,-3.887 5.033,-4.396 5.06,-0.727 10.109,-1.527 15.063,-2.817 1.261,-0.328 2.562,-0.632 3.824,-1.806 -2.994,-0.22 -5.543,0.646 -8.151,0.596 0.626,-1.13 0.94,-2.998 1.083,-4.279 0.361,-3.255 0.712,-6.512 1.061,-9.769 0.246,-2.289 0.239,-2.347 2.551,-2.465 3.21,-0.163 5.382,-1.657 6.617,-4.649 3.171,-7.682 2.208,-15.009 -1.837,-22.062 -0.918,-1.599 -2.358,-2.532 -4.307,-2.63 -3.088,-0.154 -3.501,-0.562 -4.013,-3.575 -0.414,-2.441 -0.773,-4.892 -1.238,-7.323 -0.438,-2.289 -0.498,-2.323 1.772,-2.991 3.063,-0.9 5.14,-2.864 6.282,-5.787 1.34,-3.428 1.75,-6.975 0.826,-10.579 -1.688,-6.586 -6.014,-11.164 -11.56,-14.696 -1.937,-1.233 -4.14,-1.111 -6.207,-0.095 -1.116,0.549 -2.166,1.234 -3.348,1.917 -2.754,-4.77 -6.078,-9.012 -9.595,-13.663 6.378,0.36 12.165,-0.155 17.893,-1.319 1.796,-0.365 3.622,-0.659 5.293,-1.472 2.366,-1.15 3.692,-2.985 3.65,-5.69 -0.019,-1.2 -0.119,-2.385 -0.337,-3.574 -0.403,-2.212 -0.048,-2.679 2.215,-2.989 1.899,-0.261 3.817,-0.392 5.72,-0.632 5.947,-0.751 11.861,-1.647 17.553,-3.653 2.424,-0.854 4.939,-1.21 7.53,-1.245 3.596,-0.049 6.917,0.966 10.253,2.136 9.836,3.451 19.293,3.104 28.125,-3.018 1.532,-1.063 1.638,-1.027 2.808,0.605 1.401,1.958 2.953,3.776 4.702,5.432 0.729,0.688 1.401,1.438 2.12,2.181 -1.221,1.477 -3.468,1.451 -4.369,3.236 1.742,0.872 3.169,0.98 5.297,0.134 3.113,-1.238 6.204,-2.542 9.254,-3.93 13.226,-6.015 24.317,-14.741 32.813,-26.55 6.155,-8.571 10.601,-17.847 10.067,-28.815 z"
   id="path6"
   inkscape:connector-curvature="0"
   style="fill:#1e1e1e" />
</g>
<g
   id="g14"
   transform="matrix(1.2699907,0,0,1.2699907,-101.92644,-48.097198)">
	<path
   d="m 267.523,181.286 c -0.811,0.637 -1.713,0.572 -2.566,0.655 -4.623,0.447 -7.688,2.93 -9.25,7.229 -1.977,5.435 -2.291,11.083 -1.822,16.791 0.202,2.468 0.65,4.911 1.326,7.298 0.65,2.291 1.148,2.589 3.428,1.84 5.871,-1.929 11.863,-3.218 18.033,-3.644 1.558,-0.108 3.131,-0.386 4.888,0.425 -2.165,1.612 -4.137,3.089 -6.118,4.552 -3.346,2.468 -6.701,4.922 -10.045,7.393 -0.706,0.522 -1.416,1.051 -2.057,1.649 -1.621,1.515 -1.959,2.534 -0.974,4.474 4.261,8.393 9.239,16.269 16.72,22.25 2.656,2.124 5.607,3.647 8.949,4.4 4.889,1.1 8.637,-0.425 11.312,-4.655 1.616,-2.555 2.312,-5.411 2.747,-8.353 0.053,-0.363 0.119,-0.725 0.24,-1.445 1.256,2.053 1.354,4.073 1.639,5.979 1.047,7.033 1.917,14.091 2.924,21.13 0.321,2.246 -0.34,3.799 -2.345,4.989 -7.242,4.297 -13.89,9.408 -20.183,14.998 -1.248,1.109 -2.567,2.397 -4.084,2.877 -1.627,0.516 -2.984,-1.144 -4.487,-1.783 -2.425,-1.031 -4.823,-2.123 -7.37,-2.825 -4.582,-1.265 -8.553,-3.579 -11.734,-7.105 -10.746,-11.913 -19.708,-24.942 -24.854,-40.31 -5.354,-15.99 -4.938,-31.727 2.229,-47.127 1.455,-3.129 3.256,-6.044 5.663,-8.56 7.13,-7.45 18.165,-8.974 27.019,-3.703 0.264,0.156 0.495,0.37 0.772,0.581 z"
   id="path10"
   inkscape:connector-curvature="0"
   style="clip-rule:evenodd;fill:#b7d7f1;fill-rule:evenodd" />
	<path
   d="m 348.807,228.877 c 0.49,1.517 0.636,2.863 0.729,4.2 0.504,7.289 -0.095,14.522 -1.076,21.744 -0.34,2.5 -1.657,3.845 -4.069,4.326 -3.051,0.608 -6.093,1.258 -9.127,1.943 -0.92,0.208 -1.44,-0.003 -1.898,-0.872 -1.23,-2.338 -2.193,-4.776 -3.071,-7.263 -5.89,-16.685 -9.919,-33.812 -12.35,-51.33 -1.131,-8.151 -2.15,-16.313 -2.428,-24.542 -0.097,-2.87 -0.018,-5.752 0.417,-8.606 0.084,-0.551 0.145,-1.121 0.333,-1.639 0.416,-1.145 0.896,-1.338 1.995,-0.78 1.871,0.951 3.446,2.313 4.932,3.771 0.845,0.829 1.783,1.587 2.538,2.816 -3.864,0.7 -4.639,3.461 -4.811,6.697 -0.284,5.34 0.833,10.485 2.077,15.612 1.186,4.884 0.996,4.21 5.022,2.56 3.319,-1.359 6.743,-2.407 10.373,-2.5 0.221,0.836 -0.411,1.034 -0.82,1.364 -3.359,2.708 -6.732,5.399 -10.083,8.118 -2.115,1.716 -2.153,1.909 -1.095,4.438 1.944,4.645 4.051,9.206 7.04,13.297 1.896,2.596 4.042,4.942 6.73,6.759 2.558,1.729 5.12,2.136 7.771,0.219 0.178,-0.132 0.426,-0.168 0.871,-0.332 z"
   id="path12"
   inkscape:connector-curvature="0"
   style="clip-rule:evenodd;fill:#b7d7f1;fill-rule:evenodd" />
</g>
<g
   id="g32"
   transform="matrix(1.2699907,0,0,1.2699907,-101.92644,-48.097198)">
	<path
   d="m 413.438,498.518 c -1.635,0.418 -3.318,0.526 -4.982,0.541 -8.553,0.072 -17.108,0.201 -25.651,-0.387 -10.706,-0.737 -21.247,-2.438 -31.617,-5.241 -7.519,-2.032 -14.295,-5.479 -20.453,-10.2 -13.739,-10.534 -24.894,-23.394 -34.144,-37.964 -0.256,-0.403 -0.484,-0.828 -0.678,-1.265 -0.385,-0.868 -0.2,-1.579 0.71,-1.969 0.806,-0.345 1.634,-0.641 2.463,-0.929 8.596,-2.995 15.952,-7.696 21.141,-15.37 0.804,-1.19 1.488,-2.461 2.256,-3.677 1.1,-1.741 1.479,-1.854 3.266,-0.796 2.131,1.263 4.206,2.621 6.337,3.883 1.823,1.081 2.42,1.146 3.672,-0.587 2.559,-3.538 5.825,-4.813 10.139,-4.473 3.413,0.269 6.105,-1.584 8.211,-4.212 3.638,-4.541 6.293,-9.608 8.05,-15.151 0.192,-0.608 0.358,-1.226 0.538,-1.839 0.688,-2.354 0.713,-2.398 2.805,-1.268 2.765,1.495 5.613,2.224 8.755,1.449 2.247,-0.553 4.141,-1.642 5.662,-3.384 0.367,-0.421 0.724,-0.856 1.129,-1.239 0.752,-0.71 1.563,-0.752 2.351,-0.059 0.538,0.474 1.056,0.976 1.55,1.496 11.109,11.688 18.158,25.592 22.295,41.061 3.399,12.712 5.219,25.648 5.42,38.818 0.085,5.597 0.061,11.186 -0.204,16.777 -0.086,1.821 -0.201,3.695 0.924,5.329 0.014,0.221 0.035,0.439 0.055,0.656 z M 383.736,468.03 c -0.276,-3.511 -0.544,-6.786 -2.267,-9.7 -2.089,-3.531 -5.019,-5.793 -9.313,-5.668 -4.598,0.134 -7.844,2.626 -9.981,6.451 -3.309,5.922 -6.414,11.957 -9.537,17.98 -1.037,1.999 -1.581,4.178 -1.573,6.459 0.013,3.828 2.363,5.857 6.191,5.349 2.069,-0.275 4.111,-0.318 6.183,0.16 2.901,0.671 5.752,0.348 8.334,-1.196 7.58,-4.53 11.486,-11.273 11.963,-19.835 z m -1.425,-39.187 c 0.042,-5.354 -0.89,-9.269 -2.579,-12.281 -1.233,-2.199 -2.847,-4.041 -5.105,-5.241 -3.211,-1.706 -6.643,-1.184 -9.234,1.364 -1.219,1.198 -2.031,2.653 -2.73,4.183 -2.605,5.701 -4.247,11.672 -5.022,17.889 -0.652,5.235 1.687,9.693 6.301,11.414 6.14,2.29 10.289,1.241 13.631,-3.279 3.417,-4.628 4.625,-9.898 4.738,-14.049 z"
   id="path16"
   inkscape:connector-curvature="0"
   style="clip-rule:evenodd;fill:#4d82be;fill-rule:evenodd" />
	<path
   d="m 280.267,105.309 c 1.058,0.428 1.753,-0.122 2.472,-0.365 8.396,-2.844 16.744,-5.833 25.434,-7.718 10.915,-2.368 21.918,-3.61 33.088,-2.604 5.655,0.509 11.263,1.36 16.65,3.269 4.587,1.625 8.688,4.054 12.071,7.585 9.525,9.939 7.279,26.033 -4.604,33.003 -4.488,2.633 -9.458,3.796 -14.526,4.628 -1.815,0.298 -3.639,0.515 -5.481,0.549 -0.412,0.008 -0.865,0.164 -0.969,0.574 -0.146,0.576 0.331,0.872 0.791,1.017 0.526,0.167 1.085,0.243 1.635,0.322 0.713,0.102 1.431,0.167 1.948,0.992 -0.255,0.526 -0.858,0.565 -1.322,0.663 -1.641,0.344 -3.287,0.659 -4.979,0.689 -15.798,0.285 -31.448,-0.983 -46.927,-4.262 -26.447,-5.603 -50.109,-17.015 -71.186,-33.893 -6.803,-5.449 -12.758,-11.629 -17.063,-19.276 -2.018,-3.586 -3.499,-7.354 -3.691,-11.532 -0.131,-2.844 0.201,-5.63 1.575,-8.142 4.374,-8.002 10.341,-14.372 18.893,-18.009 7.708,-3.278 15.505,-3.425 23.378,-0.647 10.096,3.561 18.518,9.641 25.889,17.281 4.061,4.21 7.666,8.799 11.088,13.536 2.668,3.694 5.32,7.399 7.973,11.106 0.418,0.584 0.801,1.194 1.184,1.802 0.602,0.956 0.313,1.68 -0.642,2.159 -0.927,0.465 -1.87,0.904 -2.823,1.312 -2.72,1.166 -5.418,2.374 -7.881,4.037 -0.705,0.475 -1.541,0.842 -1.975,1.924 z"
   id="path18"
   inkscape:connector-curvature="0"
   style="clip-rule:evenodd;fill:#4d82be;fill-rule:evenodd" />
	<path
   d="m 284.224,372.306 c -3.108,-1.21 -6.005,-2.337 -8.901,-3.467 -13.048,-5.091 -26.375,-9.247 -40.132,-11.949 -7.733,-1.519 -15.496,-2.246 -23.33,-0.7 -1.501,0.296 -3.026,0.555 -4.282,1.442 -2.117,1.497 -3.979,1.057 -5.938,-0.339 -6.015,-4.281 -12.714,-7.021 -19.931,-8.457 -10.812,-2.152 -21.672,-3.03 -32.609,-0.894 -0.549,0.107 -1.108,0.158 -1.664,0.226 -1.256,0.154 -1.986,-0.427 -2.212,-1.643 -0.827,-4.472 -1.999,-8.896 -1.978,-13.49 0.016,-3.027 0.919,-4.097 3.936,-4.768 2.824,-0.628 5.691,-0.76 8.574,-0.799 12.841,-0.174 25.503,1.426 38.121,3.64 27.684,4.856 54.275,13.229 79.955,24.586 1.242,0.55 2.494,1.077 3.609,1.874 1.469,1.052 2.617,2.368 3.17,4.104 0.97,3.051 2.264,5.973 3.475,8.927 0.181,0.442 0.351,0.87 0.137,1.707 z"
   id="path20"
   inkscape:connector-curvature="0"
   style="clip-rule:evenodd;fill:#4d82be;fill-rule:evenodd" />
	<path
   d="m 491.986,318.389 c 0.636,-0.33 1.244,-0.733 1.911,-0.977 10.195,-3.736 20.645,-6.223 31.572,-6.196 3.12,0.008 6.229,0.326 9.229,1.267 5.436,1.705 8.372,5.729 8.463,11.438 0.051,3.166 -0.652,6.198 -1.631,9.161 -2.537,7.678 -6.748,14.453 -11.479,20.935 -0.28,0.384 -0.558,0.869 -1.101,0.815 -0.711,-0.07 -0.764,-0.739 -0.893,-1.259 -0.851,-3.418 -1.921,-6.758 -3.426,-9.95 -4.937,-10.47 -13.081,-17.578 -23.445,-22.345 -1.668,-0.767 -3.406,-1.38 -5.089,-2.118 -0.925,-0.406 -1.819,-0.58 -2.769,-0.14 -0.52,-0.055 -1.004,-0.187 -1.342,-0.631 z"
   id="path22"
   inkscape:connector-curvature="0"
   style="clip-rule:evenodd;fill:#4d82be;fill-rule:evenodd" />
	<path
   d="m 486.379,320.639 c -0.112,1.23 0.849,1.573 1.668,2.067 4.795,2.895 9.42,6.025 13.592,9.787 8.013,7.225 12.989,16.096 14.439,26.831 0.362,2.684 0.581,5.399 0.479,8.124 -0.057,1.495 -0.5,2.729 -1.663,3.807 -1.925,1.782 -3.705,3.719 -6.144,5.134 -0.853,-2.312 -1.02,-4.617 -1.46,-6.847 -3.338,-16.894 -10.556,-31.895 -21.753,-44.979 -0.467,-0.546 -0.952,-1.081 -1.377,-1.659 -1.01,-1.373 -0.715,-2.162 0.944,-2.511 0.381,-0.081 0.795,-0.01 1.194,-0.009 0.123,0.055 0.148,0.141 0.081,0.255 z"
   id="path24"
   inkscape:connector-curvature="0"
   style="clip-rule:evenodd;fill:#4d82be;fill-rule:evenodd" />
	<path
   d="m 204.318,374.548 c -2.064,-0.633 -3.81,-1.125 -5.527,-1.699 -11.32,-3.788 -22.953,-6.217 -34.749,-7.878 -3.313,-0.467 -6.689,-0.502 -10.04,-0.684 -2.063,-0.111 -3.693,-0.926 -4.813,-2.68 -0.391,-0.609 -0.637,-1.271 -0.691,-2.016 -0.084,-1.151 0.332,-1.799 1.535,-1.979 1.742,-0.26 3.49,-0.37 5.248,-0.416 15.303,-0.397 29.868,2.438 43.395,9.855 3.39,1.861 4.449,3.212 5.642,7.497 z"
   id="path26"
   inkscape:connector-curvature="0"
   style="clip-rule:evenodd;fill:#4d82be;fill-rule:evenodd" />
	<path
   d="m 423.326,352.4 c -1.343,8.853 1.115,15.759 7.679,21.124 -1.08,0.954 -2.201,1.101 -3.237,1.363 -3.02,0.765 -6.087,1.258 -9.195,1.52 -1.311,0.111 -2.169,-0.293 -2.51,-1.613 -1.422,-5.494 -3.342,-10.817 -5.597,-16.02 -0.466,-1.074 -0.13,-1.739 0.924,-1.985 3.956,-0.923 7.763,-2.272 11.936,-4.389 z"
   id="path28"
   inkscape:connector-curvature="0"
   style="clip-rule:evenodd;fill:#4d82be;fill-rule:evenodd" />
	<path
   d="m 294.402,407.348 c 3.221,-2.169 5.955,-4.207 8.156,-7.157 4.26,4.795 8.415,9.39 12.84,13.77 -7.362,-0.834 -14.028,-3.593 -20.996,-6.613 z"
   id="path30"
   inkscape:connector-curvature="0"
   style="clip-rule:evenodd;fill:#4d82be;fill-rule:evenodd" />
</g>
<g
   id="g44"
   transform="matrix(1.2699907,0,0,1.2699907,-101.92644,-48.097198)">
	<path
   d="m 259.706,300.792 c 0.792,-0.601 1.635,-0.433 2.388,-0.63 0.695,-0.183 1.119,-0.573 1.193,-1.31 0.072,-0.711 -0.195,-1.262 -0.805,-1.609 -0.344,-0.195 -0.725,-0.375 -1.109,-0.44 -8.604,-1.447 -17.171,-1.772 -25.602,1.021 -3.192,1.057 -5.916,2.774 -7.668,5.782 -0.531,0.911 -0.957,1.858 -1.113,2.886 -0.354,2.318 1.332,4.117 3.664,3.893 1.286,-0.124 2.578,-0.451 3.414,-1.531 2.188,-2.829 4.834,-2.877 7.921,-1.669 9.157,3.583 18.544,6.425 28.178,8.437 7.36,1.538 14.783,2.605 22.28,3.202 3.189,0.254 6.379,0.43 9.574,0.556 9.629,0.377 18.662,-2.109 27.477,-5.654 18.233,-7.333 34.48,-17.731 48.549,-31.489 2.343,-2.291 4.768,-4.493 7.479,-6.562 0.381,0.82 -0.19,1.398 -0.434,1.95 -4.71,10.711 -12.096,19.287 -21.178,26.522 -12.178,9.702 -26.036,15.715 -41.191,18.924 -9.195,1.948 -18.482,2.846 -27.875,2.277 -12.439,-0.753 -24.525,-3.291 -36.168,-7.738 -6.701,-2.56 -13.5,-3.575 -20.666,-2.839 -7.019,0.721 -13.857,-0.455 -20.447,-3 -1.197,-0.463 -2.35,-1.009 -3.361,-1.81 -3.061,-2.424 -3.623,-6.147 -1.431,-9.386 0.774,-1.143 1.79,-2.037 2.887,-2.852 7.692,-5.715 16.3,-8.921 25.862,-9.792 11.141,-1.014 21.779,1.17 32.262,4.596 2.351,0.768 4.666,1.643 7.01,2.432 0.787,0.264 1.772,0.592 1.303,-0.925 -0.236,-0.761 0.301,-0.993 0.737,-1.301 14.509,-10.225 29.093,-20.294 46.149,-26.03 9.244,-3.108 18.677,-4.889 28.441,-4.815 0.555,0.004 1.109,0.046 1.728,0.074 0.139,1.019 -0.655,1.448 -1.164,1.955 -6.141,6.119 -11.38,12.974 -16.376,20.026 -0.538,0.758 -1.257,1.472 -1.216,2.543 1.414,0.775 2.259,-0.111 3.055,-1.042 2.493,-2.918 4.964,-5.855 7.452,-8.777 8.27,-9.71 17.787,-17.908 29.09,-23.927 6.509,-3.465 13.362,-6.045 20.463,-8.024 2.957,-0.824 5.157,0.031 6.902,2.424 2.346,3.218 3.929,6.729 4.371,10.74 0.297,2.691 -0.317,5.073 -1.989,7.18 -0.745,0.938 -1.507,1.871 -2.333,2.737 -4.726,4.952 -10.301,8.814 -15.983,12.503 -0.719,-0.484 -0.15,-0.896 -0.025,-1.259 0.913,-2.639 1.858,-5.267 2.806,-7.893 0.624,-1.728 1.04,-1.961 2.855,-1.663 3.75,0.616 3.852,0.535 4.636,-3.094 0.153,-0.709 0.295,-1.408 0.255,-2.132 -0.099,-1.81 -0.854,-2.752 -2.622,-3.258 -2.218,-0.635 -4.273,-0.066 -6.238,0.933 -3.17,1.611 -5.847,3.894 -8.399,6.327 -4.283,4.083 -8.534,8.199 -12.821,12.278 -6.783,6.454 -13.714,12.72 -21.643,17.792 -11.632,7.44 -24.254,12.473 -37.685,15.473 -6.258,1.397 -12.569,0.851 -18.811,-0.397 -11.258,-2.251 -22.039,-5.89 -32.213,-11.25 -0.613,-0.323 -1.353,-0.49 -1.815,-1.365 z"
   id="path34"
   inkscape:connector-curvature="0"
   style="clip-rule:evenodd;fill:#faf291;fill-rule:evenodd" />
	<path
   d="m 240.698,612.857 c 0.169,0.387 -0.093,0.475 -0.272,0.582 -0.595,0.354 -1.5,0.565 -1.158,1.508 0.275,0.758 1.119,0.813 1.828,0.892 0.473,0.053 0.967,0.065 1.436,-0.004 12.633,-1.869 25.309,-3.541 37.48,-7.659 3.854,-1.305 7.68,-2.653 11.23,-4.721 2.982,-1.736 6.222,-2.967 9.657,-3.41 4.922,-0.635 7.86,-3.538 9.661,-7.91 0.3,-0.728 0.355,-1.562 0.94,-2.175 0.753,0.036 1.023,0.695 1.425,1.159 1.206,1.396 2.195,2.946 3.064,4.569 2.224,4.156 2.129,4.858 -1.143,8.382 -1.529,1.646 -3.246,3.078 -5.09,4.363 -10.44,7.276 -21.769,12.679 -34.02,16.14 -0.918,0.26 -1.828,0.572 -2.709,0.939 -0.655,0.273 -0.936,0.822 -0.768,1.562 0.175,0.763 0.763,1.071 1.413,1.054 0.953,-0.027 1.919,-0.157 2.849,-0.372 10.322,-2.396 20.182,-6.012 29.37,-11.336 2.845,-1.648 5.827,-2.467 9.129,-2.382 8.233,0.213 16.468,-0.324 24.702,0.012 0.956,0.039 1.933,-0.058 2.856,0.58 -0.399,1.271 -1.659,1.33 -2.624,1.65 -3.57,1.186 -7.271,1.827 -10.972,2.456 -2.755,0.469 -5.505,0.964 -8.151,1.896 -0.737,0.26 -1.458,0.565 -2.676,1.041 2.103,0.755 3.819,0.776 5.463,0.846 7.432,0.316 14.867,0.272 22.294,-0.166 6.083,-0.359 12.146,0.019 18.212,0.392 0.414,0.024 0.781,0.14 1.147,0.507 -0.82,0.83 -1.921,1.002 -2.957,1.309 -4.688,1.384 -9.547,1.896 -14.323,2.826 -1.859,0.362 -3.721,0.713 -5.438,1.715 10.097,1.231 20.335,1.238 30.167,4.23 -0.028,0.77 -0.699,0.691 -1.166,0.863 -4.541,1.674 -9.328,2.13 -14.069,2.765 -10.455,1.401 -20.962,2.336 -31.471,3.202 -8.442,0.695 -16.897,1.244 -25.357,1.709 -8.939,0.492 -17.879,1.043 -26.829,1.164 -16.134,0.218 -32.093,-1.232 -47.574,-6.093 -9.675,-3.037 -18.699,-7.403 -26.482,-14.051 -2.074,-1.771 -3.986,-3.698 -5.439,-6.032 -1.31,-2.101 -1.133,-2.48 1.266,-2.913 6.005,-1.084 12.086,-1.212 18.154,-1.293 8.635,-0.114 17.271,-0.004 25.908,0.024 0.36,10e-4 0.802,-0.183 1.037,0.18 z"
   id="path36"
   inkscape:connector-curvature="0"
   style="clip-rule:evenodd;fill:#faf291;fill-rule:evenodd" />
	<path
   d="m 463.314,487.167 c -0.091,-6.715 0.379,-13.283 2.617,-19.586 0.507,-1.43 1.239,-2.777 2.304,-3.894 1.526,-1.603 3.163,-1.94 4.942,-0.73 3.914,2.66 6.016,6.512 6.823,11.106 0.133,0.756 -0.19,1.243 -1.104,1.019 -0.696,-0.172 -1.407,-0.279 -2.109,-0.427 -3.282,-0.689 -5.956,0.356 -8.18,2.797 -1.859,2.039 -3.104,4.435 -4.159,6.948 -0.384,0.919 -0.756,1.844 -1.134,2.767 z"
   id="path38"
   inkscape:connector-curvature="0"
   style="clip-rule:evenodd;fill:#faf291;fill-rule:evenodd" />
	<path
   d="m 491.644,477.838 c 0.423,-6.344 1.964,-12.46 5.332,-17.982 1.104,-1.809 2.9,-1.866 4.402,-0.332 0.223,0.227 0.421,0.479 0.612,0.732 1.973,2.605 1.923,3.063 -0.766,4.827 -3.283,2.154 -5.672,5.085 -7.502,8.503 -0.743,1.39 -1.388,2.833 -2.078,4.252 z"
   id="path40"
   inkscape:connector-curvature="0"
   style="clip-rule:evenodd;fill:#faf291;fill-rule:evenodd" />
	<path
   d="m 509.972,495.158 c -0.169,-8.914 -1.265,-17.685 -3.969,-26.21 -0.977,-3.077 -1.579,-3.234 -4.019,-1.139 -3.102,2.664 -5.093,6.121 -6.854,9.729 -2.738,5.616 -4.558,11.577 -6.516,17.486 -0.338,1.021 -0.429,2.447 -1.977,2.243 -1.42,-0.188 -1.378,-1.528 -1.587,-2.621 -0.691,-3.604 -1.208,-7.247 -2.37,-10.75 -0.716,-2.159 -1.726,-4.128 -3.446,-5.664 -1.936,-1.727 -3.897,-1.913 -6.159,-0.613 -1.565,0.9 -2.725,2.212 -3.689,3.704 -1.351,2.092 -2.335,4.355 -3.086,6.727 -1.719,5.432 -2.56,11.038 -3.331,16.658 -0.487,3.54 -0.948,7.083 -1.455,10.878 -1.305,-1.079 -1.765,-2.371 -2.406,-3.53 -1.401,-2.529 -2.89,-4.994 -5.245,-6.774 -2.505,-1.894 -4.337,-1.522 -5.928,1.176 -1.149,1.95 -1.743,4.104 -2.262,6.284 -2.799,11.762 -4.222,23.743 -5.687,35.715 -1.426,11.661 -3.16,23.267 -5.901,34.7 -1.415,5.898 -3.055,11.738 -5.109,17.453 -0.656,1.825 -1.389,2.648 -2.015,2.182 -1.17,-0.872 -0.168,-1.938 0.087,-2.806 1.619,-5.52 3.029,-11.087 4.248,-16.705 3.529,-16.261 5.344,-32.787 7.668,-49.235 0.872,-6.167 1.557,-12.366 2.89,-18.46 0.89,-4.068 2.009,-8.07 4.378,-11.579 1.595,-2.363 3.54,-3 6.231,-2.107 0.604,0.2 1.179,0.488 1.761,0.749 0.298,0.132 0.585,0.246 0.869,-0.01 0.28,-0.254 0.268,-0.608 0.148,-0.888 -0.344,-0.805 -0.705,-1.609 -1.138,-2.369 -1.654,-2.904 -3.8,-5.344 -6.841,-6.857 -3.494,-1.739 -6.554,-0.951 -8.811,2.237 -0.883,1.248 -1.46,2.646 -1.969,4.085 -1.502,4.247 -2.247,8.661 -2.73,13.105 -1.028,9.454 -1.925,18.923 -2.864,28.387 -1.113,11.216 -2.636,22.374 -4.925,33.413 -1.933,9.321 -4.404,18.484 -8.627,27.081 -0.352,0.716 -0.688,1.45 -1.139,2.102 -0.383,0.553 -0.905,1.399 -1.609,1.067 -0.844,-0.397 -0.253,-1.291 -0.084,-1.936 0.605,-2.314 0.273,-2.899 -2.139,-3.382 -1.644,-0.328 -3.324,-0.498 -4.946,-0.903 -22.781,-5.686 -44.737,-13.565 -65.511,-24.606 -9.911,-5.268 -19.416,-11.124 -27.779,-18.687 -0.217,-0.196 -0.447,-0.483 -1.09,-0.146 0,1.104 -0.01,2.354 0.003,3.604 0.021,2.022 -0.322,3.964 -1.098,5.844 -0.952,2.308 -0.927,2.324 1.126,3.884 12.992,9.872 26.381,19.17 40.244,27.778 12.764,7.927 25.768,15.419 39.414,21.751 3.988,1.851 7.85,3.943 11.527,6.363 1.776,1.168 1.772,1.152 2.91,-0.791 0.451,-0.771 0.738,-1.791 1.99,-1.646 0.246,0.89 -0.042,1.645 -0.213,2.417 -1.107,5.022 -3.078,9.729 -5.217,14.377 -1.539,3.345 -2.875,6.758 -3.397,10.438 -0.776,5.466 1.588,7.854 7.064,7.148 4.637,-0.598 9.028,-1.961 13.227,-4.021 7.363,-3.613 14.069,-8.215 20.371,-13.427 16.764,-13.865 30.175,-30.559 41.339,-49.138 0.157,-0.261 0.222,-0.577 0.329,-0.868 0.188,0.019 0.38,-0.104 0.313,-0.243 -0.121,-0.257 -0.37,-0.202 -0.585,-0.062 -2.831,1.479 -5.664,2.955 -8.494,4.437 -13.226,6.925 -26.355,14.049 -40.232,19.635 -0.693,0.278 -1.65,1.385 -2.295,0.269 -0.727,-1.262 0.739,-1.529 1.445,-1.996 5.743,-3.795 11.895,-6.874 17.991,-10.031 10.99,-5.69 22.043,-11.261 33.087,-16.846 1.862,-0.942 3.212,-2.262 4.134,-4.146 1.296,-2.652 2.752,-5.228 4.108,-7.852 0.234,-0.452 0.776,-0.877 0.364,-1.522 -0.733,0.092 -1.293,0.553 -1.905,0.886 -5.547,3.007 -11.1,6.002 -16.629,9.041 -11.059,6.077 -22.133,12.122 -33.767,17.06 -0.533,0.227 -1.04,0.804 -1.762,0.149 0.632,-1.375 1.792,-2.209 3.015,-2.954 1.978,-1.206 3.98,-2.372 5.979,-3.544 14.54,-8.528 29.413,-16.451 44.313,-24.321 2.662,-1.406 4.626,-3.302 5.759,-6.127 8.329,-20.778 12.9,-42.268 12.475,-64.73 z"
   id="path42"
   inkscape:connector-curvature="0"
   style="clip-rule:evenodd;fill:#faf291;fill-rule:evenodd" />
</g>
<g
   id="g72"
   transform="matrix(1.2699907,0,0,1.2699907,-101.92644,-48.097198)">
	<path
   d="m 227.851,447.787 c -0.196,-3.092 -0.491,-5.95 -0.433,-8.825 0.162,-7.95 1.262,-15.756 3.432,-23.407 1.023,-3.612 2.889,-6.745 5.568,-9.369 1.421,-1.39 2.105,-1.223 2.627,0.663 0.472,1.698 0.605,3.457 0.617,5.225 0.035,5.361 -0.368,10.707 -0.646,16.055 -0.187,3.603 -0.255,7.194 0.183,10.773 0.525,4.308 0.09,8.446 -1.859,12.37 -0.105,0.215 -0.217,0.431 -0.293,0.656 -0.158,0.463 -0.249,0.944 0.105,1.355 0.441,0.513 0.881,0.078 1.293,-0.07 1.371,-0.492 2.509,-1.388 3.688,-2.206 4.875,-3.387 10.01,-6.283 15.65,-8.204 8.527,-2.904 17.123,-2.628 25.747,-0.474 2.168,0.542 4.305,1.255 6.5,1.631 2.33,0.398 3.611,1.678 4.444,3.812 3.205,8.215 7.271,15.99 12.404,23.173 14.936,20.901 35.13,33.814 60.12,39.341 5.691,1.259 11.426,2.325 17.281,2.557 2.368,0.094 2.758,0.813 1.711,3.079 -3.48,7.538 -8.112,14.301 -13.849,20.304 -11.438,11.97 -25.569,19.172 -41.396,23.357 -1.418,0.375 -2.883,0.38 -4.187,-0.417 -1.499,-0.916 -2.947,-1.915 -4.405,-2.896 -0.58,-0.392 -1.126,-0.833 -2.096,-1.557 1.771,-0.084 3.082,-0.118 4.39,-0.214 2.478,-0.18 4.398,-1.335 5.748,-3.417 2.139,-3.3 1.821,-6.537 -0.964,-9.341 -3.879,-3.907 -8.659,-5.896 -14.074,-6.479 -0.476,-0.051 -0.96,-0.036 -1.439,-0.021 -0.133,0.005 -0.264,0.118 -0.51,0.236 0.252,1.152 1.255,1.531 2.131,1.979 2.347,1.196 4.723,2.334 7.077,3.513 1.586,0.794 2.981,1.857 4.228,3.116 1.084,1.094 1.646,2.316 1.094,3.896 -0.609,1.746 -1.754,2.853 -3.601,3.084 -1.189,0.149 -2.375,0.028 -3.567,-0.234 -3.296,-0.727 -6.326,-2.195 -9.492,-3.285 -2.678,-0.922 -2.646,-0.927 -2.852,1.982 -0.235,3.346 -0.207,6.71 -0.795,10.031 -0.686,3.865 -2.377,7.095 -5.675,9.359 -1.349,0.927 -2.802,1.509 -4.486,1.388 -2.104,-0.15 -3.179,-1.374 -2.96,-3.485 0.193,-1.857 0.908,-3.558 1.749,-5.194 0.985,-1.917 2.07,-3.781 3.075,-5.688 0.513,-0.972 1.04,-1.964 0.825,-3.303 -1.712,0.22 -2.79,1.245 -3.79,2.343 -2.445,2.682 -5.227,4.939 -8.361,6.757 -1.707,0.989 -3.514,1.521 -5.506,0.949 -1.784,-0.511 -2.309,-1.426 -1.85,-3.208 0.329,-1.274 1.107,-2.281 1.863,-3.314 1.169,-1.595 2.602,-2.997 3.643,-4.802 -0.684,-0.563 -1.316,-0.334 -1.853,-0.136 -3.41,1.261 -5.856,3.507 -6.983,7.04 -0.17,0.53 -0.277,1.081 -0.393,1.626 -0.461,2.184 -0.791,2.445 -2.896,2.038 -4.628,-0.897 -9.19,-2.05 -13.611,-3.699 -15.089,-5.629 -27.284,-14.93 -35.701,-28.771 -6.644,-10.924 -9.613,-22.924 -9.19,-35.689 0.313,-9.428 3.394,-17.979 8.875,-25.661 0.65,-0.91 1.322,-1.812 1.879,-2.778 0.8,-1.389 1.409,-2.855 1.1,-4.584 -1.477,-0.025 -2.08,1.154 -2.867,1.979 -5.32,5.571 -11.453,9.914 -18.694,12.654 -3.61,1.366 -7.347,2.158 -11.15,2.67 -1.422,0.191 -2.87,0.251 -4.287,-0.146 -3.312,-0.928 -3.714,-2.375 -1.353,-4.82 1.012,-1.05 2.229,-1.815 3.469,-2.543 4.076,-2.392 8.418,-4.213 12.818,-5.901 4.172,-1.601 8.352,-3.183 12.517,-4.8 1.478,-0.574 2.985,-1.113 4.308,-2.286 -0.65,-0.785 -1.55,-0.909 -2.34,-0.912 -6.984,-0.031 -12.767,-3.199 -18.227,-7.062 -3.968,-2.806 -7.056,-6.476 -9.313,-10.802 -1.042,-1.998 -1.825,-4.095 -1.89,-6.379 -0.091,-3.201 1.455,-4.741 4.652,-4.686 2.281,0.04 4.389,0.818 6.467,1.644 2.687,1.069 5.135,2.571 7.413,4.353 5.163,4.039 10.327,8.078 15.499,12.106 0.994,0.775 1.944,1.649 3.644,1.971 z"
   id="path46"
   inkscape:connector-curvature="0"
   style="clip-rule:evenodd;fill:#fafafa;fill-rule:evenodd" />
	<path
   d="m 332.632,261.747 c -8.408,2.516 -16.111,5.882 -23.688,9.875 -0.488,-1.133 -0.366,-2.016 -0.397,-2.866 -0.634,-17.425 -3.343,-34.471 -9.238,-50.942 -4.155,-11.606 -9.771,-22.385 -17.923,-31.729 -4.557,-5.223 -9.73,-9.698 -15.918,-12.919 -12.201,-6.354 -24.821,-4.34 -34.438,5.489 -5.849,5.978 -9.017,13.251 -10.468,21.391 -2.059,11.55 -0.46,22.761 3.088,33.78 5.828,18.1 15.943,33.514 29.486,46.759 0.725,0.708 1.56,1.337 2.005,2.58 -2.872,-0.218 -5.542,-0.423 -8.213,-0.624 -12.204,-0.916 -23.677,1.433 -34.275,7.679 -0.413,0.243 -0.842,0.463 -1.232,0.738 -0.986,0.695 -1.78,0.431 -2.501,-0.425 -0.875,-1.04 -1.781,-2.054 -2.648,-3.099 -7.962,-9.586 -14.717,-19.898 -19.075,-31.658 -2.824,-7.621 -4.456,-15.49 -4.882,-23.601 -0.643,-12.262 2.445,-23.558 8.839,-34.009 5.573,-9.108 12.78,-16.749 20.915,-23.576 0.168,-0.142 0.398,-0.211 0.639,-0.335 0.518,0.649 0.146,1.229 -0.031,1.781 -1.963,6.089 -3.494,12.276 -4.363,18.625 -0.906,6.613 -0.948,13.225 -0.131,19.845 0.047,0.387 0.112,0.796 0.6,1.069 1.074,-1.115 1.502,-2.542 1.781,-4.036 1.218,-6.513 2.261,-13.058 3.756,-19.519 1.515,-6.547 3.406,-12.967 6.299,-19.056 1.826,-3.845 3.991,-7.475 6.998,-10.533 6.987,-7.106 15.199,-8.974 24.582,-5.645 5.197,1.844 9.659,4.915 13.831,8.449 5.454,4.62 10.097,10.017 14.753,15.401 1.674,1.936 3.368,3.854 5.074,5.761 0.344,0.386 0.69,1.062 1.332,0.652 0.514,-0.328 0.482,-0.979 0.297,-1.534 -0.251,-0.756 -0.504,-1.517 -0.836,-2.239 -1.846,-4.007 -4.181,-7.722 -6.771,-11.282 -0.416,-0.571 -0.825,-1.146 -1.361,-1.892 0.869,-0.354 1.53,-0.095 2.17,0.053 5.21,1.209 10.396,2.55 15.755,2.956 1.593,0.121 3.198,0.28 4.786,0.203 1.571,-0.076 2.645,0.335 3.096,1.938 0.051,0.179 0.347,0.288 0.538,0.438 0.896,-0.738 0.72,-1.774 0.788,-2.685 0.307,-4.064 0.525,-8.135 0.824,-12.2 0.123,-1.671 0.297,-3.345 0.568,-4.998 0.481,-2.925 2.532,-4.207 5.217,-3.071 4.033,1.706 6.719,4.764 8.125,8.919 0.065,0.192 -0.043,0.444 -0.08,0.739 -0.877,0.128 -1.505,-0.484 -2.258,-0.624 -2.574,-0.48 -4.195,0.291 -5.181,2.705 -0.791,1.938 -1.106,3.982 -1.142,6.084 -0.092,5.444 0.232,10.876 0.643,16.293 0.748,9.884 2.109,19.69 4.17,29.397 2.926,13.79 7.21,27.13 12.975,39.996 0.814,1.824 1.885,3.502 3.12,5.502 z"
   id="path48"
   inkscape:connector-curvature="0"
   style="clip-rule:evenodd;fill:#fafafa;fill-rule:evenodd" />
	<path
   d="m 153.848,387.124 c -1.141,-0.366 -1.988,0.152 -2.834,0.548 -5.986,2.8 -10.893,6.938 -14.896,12.163 -2.187,2.854 -2.359,5.837 -0.377,8.893 0.261,0.401 0.484,0.827 0.712,1.248 0.027,0.052 -0.028,0.149 -0.091,0.415 -6.331,0.282 -12.648,0.234 -18.682,-2.313 -2.081,-0.879 -3.99,-2.04 -5.586,-3.646 -3.457,-3.479 -3.392,-7.792 0.126,-11.209 1.219,-1.184 2.679,-2.008 4.14,-2.836 0.881,-0.499 1.882,-0.813 2.832,-1.749 -1.006,-0.376 -1.848,-0.305 -2.651,-0.197 -4.415,0.587 -8.712,4.497 -9.815,8.8 -0.839,3.267 0.252,5.968 2.331,8.393 0.509,0.593 1.149,1.073 1.675,1.556 -0.371,0.828 -0.867,0.577 -1.318,0.497 -4.73,-0.84 -9.354,-2.059 -13.751,-4.031 -1.907,-0.855 -3.677,-1.933 -5.122,-3.48 -3.107,-3.331 -3.543,-7.527 -1.141,-11.445 1.803,-2.941 4.418,-5.01 7.351,-6.731 5.337,-3.134 11.064,-5.332 16.983,-7.052 8.488,-2.466 17.184,-3.566 25.999,-3.906 5.915,-0.228 11.822,-0.338 17.737,0.006 10.323,0.6 20.497,2.028 30.355,5.288 1.343,0.444 2.659,0.944 4.213,1.924 -2.355,0.535 -4.533,-0.47 -6.596,0.572 1.217,1.351 2.787,1.476 4.229,1.813 4.644,1.09 8.966,2.844 12.764,5.796 3.428,2.666 5.54,6.114 6.409,10.363 0.638,3.114 -0.28,5.679 -2.612,7.765 -1.444,1.291 -3.145,2.178 -4.912,2.945 -5.624,2.443 -11.565,3.599 -17.607,4.354 -1.504,0.188 -3.004,0.426 -4.497,0.687 -0.794,0.139 -1.552,0.275 -2.399,-0.469 2.269,-0.752 4.355,-1.453 6.447,-2.136 4.3,-1.402 8.193,-3.549 11.74,-6.345 2.17,-1.709 3.549,-3.87 3.879,-6.644 0.592,-4.969 -3.117,-8.57 -7.924,-7.479 -4.963,1.126 -9.418,3.47 -13.586,6.355 -0.842,0.583 -1.445,1.362 -0.908,2.437 0.495,0.986 1.474,0.902 2.328,0.695 2.961,-0.718 5.744,-1.928 8.438,-3.328 1.629,-0.847 3.236,-1.745 4.779,-2.736 1.81,-1.161 3.269,0.07 3.457,1.729 0.299,2.613 -0.641,4.689 -2.753,6.249 -4.247,3.137 -9.009,5.089 -14.146,6.199 -5.715,1.234 -11.527,1.749 -17.33,2.3 -4.375,0.415 -8.766,0.677 -13.151,0.978 -1.274,0.087 -2.558,0.124 -3.835,0.094 -3.146,-0.075 -5.204,-1.854 -6.541,-4.507 -0.691,-1.372 -0.41,-2.819 0.439,-4.106 0.84,-1.273 1.887,-2.377 2.939,-3.474 3.057,-3.185 6.541,-5.871 9.96,-8.638 0.967,-0.786 2.076,-1.449 2.799,-2.605 z"
   id="path50"
   inkscape:connector-curvature="0"
   style="clip-rule:evenodd;fill:#fafafa;fill-rule:evenodd" />
	<path
   d="m 314.229,335.286 c 6.875,-0.413 13.018,-1.219 17.673,-6.459 6.552,8.331 12.955,16.471 19.363,24.619 -0.806,0.851 -1.816,0.881 -2.689,1.147 -3.849,1.175 -6.62,3.235 -6.58,7.625 -0.888,0.312 -1.316,-0.263 -1.82,-0.597 -3.416,-2.266 -6.399,-5.035 -9.231,-7.979 -5.596,-5.812 -10.403,-12.332 -16.716,-18.356 z"
   id="path52"
   inkscape:connector-curvature="0"
   style="clip-rule:evenodd;fill:#fafafa;fill-rule:evenodd" />
	<path
   d="m 486.379,320.639 c 0.067,-0.114 0.042,-0.2 -0.08,-0.255 1.589,-1.54 3.663,-1.7 5.688,-1.995 0.337,0.443 0.82,0.576 1.343,0.63 1.003,1.198 2.402,1.832 3.718,2.562 3.771,2.094 7.472,4.295 10.977,6.819 9.567,6.891 15.351,16.261 18.129,27.609 0.383,1.563 0.256,2.927 -0.947,4.191 -1.972,2.072 -3.815,4.266 -5.854,6.564 -0.484,-0.881 -0.309,-1.681 -0.28,-2.416 0.578,-15.12 -9.52,-33.904 -26.734,-41.23 -1.981,-0.842 -3.974,-1.653 -5.96,-2.479 z"
   id="path54"
   inkscape:connector-curvature="0"
   style="clip-rule:evenodd;fill:#fafafa;fill-rule:evenodd" />
	<path
   d="m 201.137,365.57 c -5.9,-3.458 -12.029,-6.291 -18.616,-8.104 -9.093,-2.504 -18.31,-3.585 -27.722,-2.671 -1.588,0.153 -3.159,0.457 -4.742,0.665 -2.404,0.314 -3.205,-0.344 -3.414,-2.774 -0.027,-0.318 0.013,-0.645 -0.035,-0.958 -0.196,-1.291 0.475,-1.689 1.638,-1.727 3.672,-0.119 7.341,-0.368 11.013,-0.402 10.439,-0.096 20.723,0.912 30.599,4.611 3.669,1.374 7.175,3.092 10.614,4.948 2.273,1.227 2.438,1.604 1.652,3.977 -0.245,0.742 -0.231,1.597 -0.987,2.435 z"
   id="path56"
   inkscape:connector-curvature="0"
   style="clip-rule:evenodd;fill:#fafafa;fill-rule:evenodd" />
	<path
   d="m 290.748,406.669 c 0.758,1.312 1.85,1.985 2.961,2.614 6.307,3.571 13.098,5.829 20.146,7.381 0.389,0.086 0.791,0.103 1.188,0.152 0.884,0.111 2.08,-0.327 2.327,1.034 0.261,1.438 -0.914,3.284 -2.18,3.618 -0.868,0.229 -1.758,0.141 -2.624,0.022 -6.357,-0.868 -12.531,-2.416 -18.4,-5.063 -4.23,-1.908 -8.303,-4.099 -12.045,-6.866 -0.25,-0.185 -0.467,-0.413 -0.854,-0.76 3.24,-2.063 6.269,-4.21 8.856,-6.909 2.598,-2.709 4.712,-5.768 6.542,-9.156 1.641,1.23 2.554,2.82 3.363,4.456 0.631,1.275 0.392,2.473 -0.673,3.483 -1.576,1.496 -3.38,2.675 -5.209,3.824 -1.138,0.716 -2.267,1.447 -3.398,2.17 z"
   id="path58"
   inkscape:connector-curvature="0"
   style="clip-rule:evenodd;fill:#fafafa;fill-rule:evenodd" />
	<path
   d="m 418.845,427.622 c -0.197,2.789 -0.995,5.813 -3.784,7.934 -2.123,1.614 -3.054,1.368 -3.708,-1.142 -1.677,-6.43 -4.139,-12.553 -7,-18.53 -0.104,-0.216 -0.23,-0.421 -0.32,-0.642 -0.73,-1.787 -0.623,-3.086 0.427,-3.973 1.238,-1.046 2.622,-0.996 4.044,-0.374 5.348,2.339 10.425,10.298 10.341,16.727 z"
   id="path60"
   inkscape:connector-curvature="0"
   style="clip-rule:evenodd;fill:#fafafa;fill-rule:evenodd" />
	<path
   d="m 415.984,473.171 c 0.51,-4.884 -0.129,-9.735 -0.284,-14.604 -0.031,-0.988 -0.624,-2.232 0.702,-2.733 1.221,-0.462 2.08,0.516 2.896,1.258 0.345,0.313 0.604,0.751 0.814,1.175 2.638,5.305 3.363,10.797 1.464,16.492 -0.56,1.676 -1.379,3.244 -2.894,4.305 -0.609,0.427 -1.291,0.743 -2.007,0.34 -0.623,-0.351 -0.704,-1.008 -0.697,-1.681 0.018,-1.518 0.006,-3.035 0.006,-4.552 z"
   id="path62"
   inkscape:connector-curvature="0"
   style="clip-rule:evenodd;fill:#fafafa;fill-rule:evenodd" />
	<g
   id="g66">
		<path
   d="m 495.462,353.37 c -4.826,-10.162 -10.792,-19.593 -18.24,-28.043 -7.721,-8.761 -16.341,-16.448 -26.818,-21.819 -4.485,-2.299 -9.104,-4.276 -14.116,-5.163 -9.567,-1.693 -17.345,3.85 -18.966,13.441 -0.813,4.804 -0.479,9.57 0.276,14.319 1.635,10.274 6.188,19.236 12.545,27.354 0.424,0.541 0.711,1.29 1.566,1.35 0.079,-0.081 0.157,-0.162 0.236,-0.243 -0.173,-0.612 -0.326,-1.231 -0.523,-1.836 -2.255,-6.923 -3.227,-13.997 -2.537,-21.271 0.261,-2.755 0.788,-5.448 1.78,-8.604 0.415,1.62 0.281,2.713 0.272,3.787 -0.047,5.766 0.281,11.502 1.265,17.192 2.447,14.159 10.573,23.432 24.12,28.036 0.41,0.14 0.877,0.432 1.307,-0.181 -4.483,-7.872 -8.7,-15.862 -6.75,-25.807 0.994,1.418 0.984,1.419 1.173,2.658 1.056,6.93 3.027,13.491 6.849,19.501 3.855,6.063 9.029,8.704 16.189,7.725 4.075,-0.558 8.066,-1.155 11.511,-3.632 3.252,-2.339 3.45,-5.021 0.506,-7.726 -0.585,-0.536 -1.244,-1.013 -1.93,-1.411 -2.029,-1.179 -4.297,-1.684 -6.551,-2.215 -1.086,-0.256 -1.706,0.242 -1.869,1.283 -0.185,1.183 -0.19,2.4 -0.457,3.561 -0.212,0.928 0.036,2.422 -1.379,2.445 -1.408,0.022 -1.278,-1.369 -1.414,-2.365 -0.485,-3.557 -1.639,-6.832 -4.07,-9.552 -0.744,-0.833 -1.581,-1.583 -2.357,-2.389 -0.495,-0.514 -1.148,-1.066 -0.71,-1.853 0.503,-0.902 1.409,-0.565 2.152,-0.374 0.526,0.136 1.002,0.48 1.489,0.751 1.403,0.778 2.876,1.401 4.413,1.841 3.375,0.967 6.769,1.872 10.152,2.812 2.731,0.758 5.52,0.9 8.324,0.691 3.653,-0.27 4.1,-1.024 2.562,-4.263 z"
   id="path64"
   inkscape:connector-curvature="0"
   style="clip-rule:evenodd;fill:#fafafa;fill-rule:evenodd" />
	</g>
	<path
   d="m 379.816,467.363 c -0.438,6.984 -3.059,12.733 -9.059,16.597 -5.293,3.408 -9.528,1.609 -10.739,-4.542 -0.596,-3.028 -0.325,-6.061 0.355,-9.036 0.902,-3.947 2.668,-7.524 5.188,-10.683 1.94,-2.433 4.358,-3.975 7.69,-3.291 2.275,0.467 3.877,1.764 4.9,3.825 1.126,2.264 1.453,4.708 1.665,7.13 z"
   id="path68"
   inkscape:connector-curvature="0"
   style="clip-rule:evenodd;fill:#fafafa;fill-rule:evenodd" />
	<path
   d="m 363.128,430.882 c 0.227,-4.005 0.628,-8.37 2.811,-12.332 0.459,-0.835 0.952,-1.673 1.562,-2.398 1.951,-2.323 4.125,-2.468 6.446,-0.521 2.184,1.831 3.31,4.272 3.898,6.97 1.104,5.06 0.612,9.998 -1.411,14.762 -0.819,1.929 -1.964,3.655 -3.642,4.971 -2.802,2.195 -5.645,1.669 -7.479,-1.378 -1.434,-2.385 -2.287,-6.142 -2.185,-10.074 z"
   id="path70"
   inkscape:connector-curvature="0"
   style="clip-rule:evenodd;fill:#fafafa;fill-rule:evenodd" />
</g>
<g
   id="g78"
   transform="matrix(1.2699907,0,0,1.2699907,-101.92644,-48.097198)">
	<path
   d="m 349.337,370.625 c 0.508,-0.955 -0.184,-1.65 -0.554,-2.4 -0.495,-1.002 -1.135,-1.944 -1.527,-2.982 -1.03,-2.727 -0.149,-4.297 2.677,-4.955 2.291,-0.535 4.59,-0.613 6.878,0.004 9.955,2.682 17.014,8.534 20.26,18.547 0.173,0.531 0.339,1.066 0.47,1.609 1.566,6.467 -3.668,11.473 -10.102,9.716 -1.823,-0.498 -2.84,-1.47 -3.139,-3.42 -0.896,-5.839 -3.646,-10.68 -8.199,-14.469 -1.479,-1.23 -1.548,-1.285 -3.017,-0.126 -0.86,0.679 -1.753,0.667 -2.706,0.646 -3.604,-0.085 -7.189,-0.021 -10.708,0.915 -4.819,1.28 -9.025,3.619 -12.525,7.184 -0.499,0.507 -0.935,1.09 -1.325,1.686 -0.496,0.756 -0.436,1.508 0.221,2.177 0.643,0.656 1.447,0.78 2.199,0.389 0.695,-0.36 1.324,-0.894 1.891,-1.446 6.658,-6.498 14.843,-8.375 23.813,-7.95 2.011,0.096 2.923,1.313 3.54,3.024 2.879,7.985 2.539,15.842 -0.977,23.54 -1.26,2.759 -2.732,5.421 -4.076,8.143 -0.6,1.214 -1.24,2.401 -1.686,3.7 -0.611,1.783 -1.318,2.056 -3.129,1.38 -5.623,-2.097 -11.143,-4.429 -16.221,-7.665 -13.389,-8.532 -24.836,-19.061 -33.132,-32.733 -4.222,-6.958 -6.986,-14.519 -8.702,-22.466 -0.033,-0.156 -0.056,-0.314 -0.084,-0.473 -0.636,-3.6 -0.084,-4.319 3.555,-4.313 9.648,0.016 18.838,2.244 27.682,5.973 9.836,4.146 19.182,9.148 27.385,16.086 0.353,0.297 0.664,0.71 1.238,0.679 z"
   id="path74"
   inkscape:connector-curvature="0"
   style="clip-rule:evenodd;fill:#e04526;fill-rule:evenodd" />
	<path
   d="m 391.604,350.806 c -1.677,-1.886 -3.794,-2.011 -6.024,-1.322 -2.676,0.827 -4.795,2.485 -6.469,4.731 -1.346,1.803 -2.381,3.783 -3.426,5.762 -0.262,0.494 -0.514,0.995 -0.797,1.477 -1.213,2.062 -1.4,2.091 -3.512,0.785 -0.814,-0.504 -1.639,-1.004 -2.504,-1.407 -2.951,-1.378 -4.559,-3.72 -4.852,-6.906 -0.896,-9.767 1.15,-18.746 7.305,-26.582 1.512,-1.925 1.887,-2 3.936,-0.614 9.918,6.709 17.592,15.481 23.604,25.77 4.496,7.694 7.752,15.926 10.524,24.366 1.046,3.186 2.132,6.358 3.153,9.552 0.613,1.919 0.514,2.176 -1.328,2.409 -7.863,0.993 -15.626,0.805 -23.076,-2.34 -1.549,-0.653 -3.064,-1.387 -4.248,-2.635 -1.018,-1.074 -1.626,-2.346 -1.836,-3.821 -0.598,-4.2 -2.182,-8.002 -4.779,-11.354 -1.172,-1.513 -1.268,-3.028 -0.377,-4.678 1.175,-2.179 2.297,-4.387 3.501,-6.55 2.239,-4.024 5.546,-6.307 10.297,-6.164 0.3,0.01 0.631,0.02 0.908,-0.479 z"
   id="path76"
   inkscape:connector-curvature="0"
   style="clip-rule:evenodd;fill:#e04526;fill-rule:evenodd" />
</g>
</svg>