<?xml version="1.0" encoding="UTF-8" standalone="no"?>
<svg
   xmlns:dc="http://purl.org/dc/elements/1.1/"
   xmlns:cc="http://creativecommons.org/ns#"
   xmlns:rdf="http://www.w3.org/1999/02/22-rdf-syntax-ns#"
   xmlns:svg="http://www.w3.org/2000/svg"
   xmlns="http://www.w3.org/2000/svg"
   xmlns:sodipodi="http://sodipodi.sourceforge.net/DTD/sodipodi-0.dtd"
   xmlns:inkscape="http://www.inkscape.org/namespaces/inkscape"
   viewBox="0 0 816 1056"
   height="1056"
   width="816"
   xml:space="preserve"
   id="svg2"
   version="1.1"
   sodipodi:docname="dragonlair.svg"
   inkscape:version="0.92.4 (5da689c313, 2019-01-14)"><sodipodi:namedview
     pagecolor="#ffffff"
     bordercolor="#666666"
     borderopacity="1"
     objecttolerance="10"
     gridtolerance="10"
     guidetolerance="10"
     inkscape:pageopacity="0"
     inkscape:pageshadow="2"
     inkscape:window-width="1366"
     inkscape:window-height="715"
     id="namedview123"
     showgrid="false"
     inkscape:zoom="0.4469697"
     inkscape:cx="230.95624"
     inkscape:cy="597.59895"
     inkscape:window-x="-8"
     inkscape:window-y="22"
     inkscape:window-maximized="1"
     inkscape:current-layer="svg2" /><metadata
     id="metadata8"><rdf:RDF><cc:Work
         rdf:about=""><dc:format>image/svg+xml</dc:format><dc:type
           rdf:resource="http://purl.org/dc/dcmitype/StillImage" /></cc:Work></rdf:RDF></metadata><defs
     id="defs6" /><g
     transform="matrix(1.1159588,0,0,-1.1159588,65.687846,1043.1406)"
     id="g10"><path
       id="path12"
       style="fill:#000000;fill-opacity:1;fill-rule:nonzero;stroke:none"
       d="m 640.0527,35.9932 c 0,0 6.6143,14.7558 -10.1748,16.2822 l -25.9482,39.1758 c 0,0 3.0527,14.2451 1.0176,20.3506 24.4218,21.3691 46.8076,37.6494 54.4394,40.1933 6.6143,6.1055 0.5078,9.667 -19.334,15.2637 -12.2099,-7.6318 -37.6494,-25.9473 -40.1933,-26.9649 -2.544,-1.0175 -5.0889,10.6836 -8.6494,13.2276 1.5263,10.1777 -1.0166,20.3525 -4.0694,30.0195 5.0869,2.0352 6.6133,7.6328 5.5957,20.8604 -3.0517,53.9297 3.5616,98.7021 3.5616,133.2988 0,34.5967 -18.3155,69.1929 -23.9122,77.8418 3.5616,15.772 7.1231,67.6675 5.0879,80.3867 54.4375,30.5234 4.5264,173.4893 -134.3173,149.5772 -5.0879,14.2446 -10.1758,36.6308 -15.2637,37.1396 -23.4033,-1.0176 -38.667,-2.5439 -38.667,-2.5439 5.5967,6.6142 1.0166,18.8247 -4.5791,22.895 2.5439,14.2456 -47.3164,69.7021 -73.2637,69.7021 -25.9473,0 -66.6479,-32.0527 -80.3848,-56.9829 -6.1054,-13.228 -8.1401,-6.6133 -13.228,-23.4033 0,-10.1758 -0.5088,-10.6851 0,-15.7725 0.5088,-5.0874 5.5962,-3.561 4.5786,-11.1928 0,0 -54.4384,-18.3164 -64.6142,-24.9302 -5.0879,-13.228 -15.2632,-50.8779 -15.772,-61.0532 C 92.105,571.7339 65.6484,551.8916 5e-4,460.311 0,452.1709 19.8813,436.9375 19.8813,436.9375 5e-4,391.1211 -17.2827,337.7002 -30.3364,319.5166 c -2.2095,-3.1855 -1.7007,-7.7637 -2.2095,-9.29 -0.5088,-1.5264 -21.8774,-35.1055 -21.8774,-46.8077 2.5439,-15.2636 12.2104,-43.246 42.7373,-73.7724 C 13.7529,161.1543 92.6133,54.8213 92.6133,54.3125 c 0,0 7.6318,3.0527 17.8071,11.7021 5.5962,1.5264 4.5791,-1.5263 1.0176,-6.6142 -3.5615,-5.0879 -42.7373,-62.583 -45.7901,-72.25 h 188.7559 c 4.0703,6.1055 5.5972,5.0879 10.6846,0 h 72.2466 c 0,0 24.4209,14.7539 31.5439,24.4209 12.21,-17.2979 17.8066,-24.9297 17.8066,-24.9297 H 675.1582 L 640.0527,35.9932 M 223.5088,220.2588 c -14.8291,-10.2275 -58.2944,-58.294 -78.7485,-86.419 -9.7159,8.1807 -34.772,45.5108 -47.0445,65.4532 -10.227,28.125 -2.0454,40.3974 -31.7036,85.3965 36.0122,24.5449 64.9414,89.4863 66.9868,96.6455 4.6026,-2.0459 13.8067,-33.2383 16.875,-42.9541 2.5567,-2.5567 40.3965,-20.4541 40.3965,-20.4541 l 3.0684,0.5117 c 4.602,-11.7608 23.0107,-40.3965 36.8174,-58.294 -2.5567,-11.249 -8.1817,-15.3408 -6.6475,-39.8857 m 295.0498,-34.7715 -8.1816,8.1816 c 0,0 3.0683,2.045 3.0683,12.2725 0,10.2275 -8.6933,21.4766 -22.5,21.4766 -13.8066,0 -22.499,-15.3409 -22.499,-28.1241 0,-12.7832 11.249,-16.875 21.4766,-16.875 0,0 5.1132,-13.2949 9.7158,-26.5898 0,0 -3.5801,-4.0908 -10.7383,-14.8291 -16.874,12.7842 -42.9541,54.2031 -75.169,81.8154 1.5342,2.5567 3.0684,24.545 3.0684,40.3975 13.2949,22.499 43.4648,58.8047 54.7148,118.6328 4.6016,4.0908 14.3174,14.3184 21.4766,27.6133 6.1358,-20.9649 -9.2051,-11.2495 -9.2051,-52.1572 0,-29.1465 43.9766,-76.1914 43.9766,-158.5196 -6.1357,-7.6699 -9.2041,-13.2949 -9.2041,-13.2949 z"
       inkscape:connector-curvature="0" /><path
       id="path14"
       style="fill:#f98608;fill-opacity:1;fill-rule:nonzero;stroke:none"
       d="m 507.9326,207.3789 c 0,-9.6914 -7.7197,-17.5478 -17.2441,-17.5478 -9.5244,0 -17.2442,7.8564 -17.2442,17.5478 0,9.6904 7.7198,17.5469 17.2442,17.5469 9.5244,0 17.2441,-7.8565 17.2441,-17.5469 z"
       inkscape:connector-curvature="0" /><path
       id="path16"
       style="fill:#ffffff;fill-opacity:0.25;fill-rule:nonzero;stroke:none"
       d="m 494.7227,222.4473 c -2.9727,0.4248 -7.2315,0.7041 -6.3497,-2.1172 -2.4697,-3.5274 -2.999,-6.3496 -2.999,-6.3496 5.8213,3.7041 10.4063,3.3525 13.7578,0.706 1.9405,3.5274 -0.705,7.2315 -4.4091,7.7608 z"
       inkscape:connector-curvature="0" /><path
       id="path18"
       style="fill:#f98608;fill-opacity:1;fill-rule:nonzero;stroke:none"
       d="m 493.5674,181.1309 3.0967,-5.8496 c 0,0 7.5722,-0.3438 13.6513,7.456 l 0.3438,-2.9824 c 0,0 2.6387,3.3262 3.2119,5.0469 l -4.2441,5.3916 c 0,0 -3.7852,-11.3565 -16.0596,-9.0625 z"
       inkscape:connector-curvature="0" /><path
       id="path20"
       style="fill:#ffffff;fill-opacity:0.25;fill-rule:nonzero;stroke:none"
       d="m 506.8301,179.1787 c 1.1748,0.9414 2.3554,2.1094 3.4853,3.5586 l 0.3438,-2.9824 c 0,0 2.6387,3.3262 3.2119,5.0469 l -4.2441,5.3916 c 0,0 -1.1622,-3.4883 -4.2881,-6.2071 2.1806,-0.4756 2.5879,-1.4843 1.4912,-4.8076 z"
       inkscape:connector-curvature="0" /><path
       id="path22"
       style="fill:#f98608;fill-opacity:1;fill-rule:nonzero;stroke:none"
       d="m 510.6592,176.084 -0.2295,3.0967 c 0,0 -5.3916,-6.0791 -10.668,-5.8496 -1.3769,-0.459 -1.0322,-1.7207 -0.8027,-2.1797 0.2295,-0.459 3.4414,-7.4561 3.4414,-7.4561 0,0 2.4082,-5.7353 7.7998,-1.9502 l 0.3447,-1.8349 c 4.3584,1.6054 9.5215,7.915 10.4385,16.1738 0,1.7207 -4.9326,7.1123 -4.9326,7.1123 0,0 -0.6875,1.2617 -1.4912,-0.459 -0.8037,-1.7207 -1.7207,-4.0146 -3.9004,-6.6533 z"
       inkscape:connector-curvature="0" /><path
       id="path24"
       style="fill:#ffffff;fill-opacity:0.25;fill-rule:nonzero;stroke:none"
       d="m 510.6592,176.084 -0.2295,3.0967 c 0,0 -2.2774,-2.5674 -5.3203,-4.3028 0.1992,-2.1689 -1.7569,-5.6572 -2.3526,-5.7422 -1.1914,1.5313 -2.2412,-1.3418 -2.2412,-1.3418 0.4629,-1.0048 0.9414,-2.0449 1.3008,-2.8261 5.1934,2.3818 0.7695,2.042 8.8428,11.1162 z"
       inkscape:connector-curvature="0" /><path
       id="path26"
       style="fill:#ffffff;fill-opacity:0.25;fill-rule:nonzero;stroke:none"
       d="m 512.207,160.7275 c 3.9209,2.3955 7.9737,8.1299 8.7764,15.3565 0,0.7558 -0.9531,2.2207 -2.0205,3.626 -2.5127,-10.9151 -3.4297,-14.292 -6.7559,-18.9825 z"
       inkscape:connector-curvature="0" /><path
       id="path28"
       style="fill:#f98608;fill-opacity:1;fill-rule:nonzero;stroke:none"
       d="m 510.6592,147.8652 c 4.3594,-9.292 4.4736,-10.8974 11.0117,-5.7353 5.4492,5.4492 8.9482,17.3203 8.2598,22.1387 -2.5235,4.0146 -3.2119,5.8505 -5.5059,7.456 -4.5889,-10.7822 -12.0449,-16.5176 -13.9951,-16.5176 v 1.835 c -1.835,-0.3438 -4.4736,-0.2295 -4.4736,-0.2295 1.4912,-4.1299 3.5556,-7.4551 4.0146,-9.5205 0.3447,-1.377 0.6885,0.5732 0.6885,0.5732 z"
       inkscape:connector-curvature="0" /><path
       id="path30"
       style="fill:#ffffff;fill-opacity:0.25;fill-rule:nonzero;stroke:none"
       d="m 524.1816,145.2646 c 3.9727,6.0137 6.3252,14.9747 5.7491,19.004 -0.7989,1.2705 -1.4131,2.3232 -1.9532,3.2187 -3.4462,-7.8799 -2.2744,-14.0254 -3.7959,-22.2227 z"
       inkscape:connector-curvature="0" /><path
       id="path32"
       style="fill:#f98608;fill-opacity:1;fill-rule:nonzero;stroke:none"
       d="m 533.4863,158.5332 c -2.1797,-12.7324 -5.1611,-19.3848 -15.2558,-22.1387 -2.6387,-0.5742 -3.4414,-4.4746 2.5234,-6.539 2.4092,-1.7207 17.3213,-2.8672 18.6973,20.1894 0.1152,0.917 -5.9649,8.4883 -5.9649,8.4883 z"
       inkscape:connector-curvature="0" /><path
       id="path34"
       style="fill:#ffffff;fill-opacity:0.25;fill-rule:nonzero;stroke:none"
       d="m 537.2715,139.084 c 1.1172,2.8398 1.9092,6.4336 2.1797,10.9609 0.0537,0.4287 -1.2481,2.3135 -2.6494,4.1983 -1.2989,-11.1368 -2.6582,-14.5401 -6.3164,-17.7715 -2.042,-2.8916 1.7851,-2.127 3.3164,0 1.5312,2.1269 3.4697,2.6123 3.4697,2.6123 z"
       inkscape:connector-curvature="0" /><path
       id="path36"
       style="fill:#f98608;fill-opacity:1;fill-rule:nonzero;stroke:none"
       d="m 539.7959,136.165 c 1.2617,0 4.7031,3.212 4.9326,5.2764 0.2295,2.0645 -0.8027,1.835 -1.2617,2.0645 -0.459,0.2295 -1.2627,-0.5733 -2.0654,-3.0967 -0.459,-2.6387 -1.6055,-4.2442 -1.6055,-4.2442 z"
       inkscape:connector-curvature="0" /><path
       id="path38"
       style="fill:#f98608;fill-opacity:1;fill-rule:nonzero;stroke:none"
       d="m 548.9717,64.7139 c -1.3916,-0.2784 -3.7862,-1.2618 -3.7862,-1.2618 -0.2294,-1.2617 0.1153,-2.6386 3.7862,1.2618 z"
       inkscape:connector-curvature="0" /><path
       id="path40"
       style="fill:#f98608;fill-opacity:1;fill-rule:nonzero;stroke:none"
       d="m 548.168,59.0957 c 4.6025,-5.2519 15.372,-18.2393 15.9453,-20.3037 9.291,0.1152 59.5351,10.668 62.8613,11.5859 -2.4092,3.3272 -22.2539,31.6602 -23.9746,33.8399 -3.9004,1.376 -16.3975,-0.8018 -18.6982,-1.9502 l 0.4589,-0.918 c 0,0 -27.5302,-8.2588 -36.5927,-22.2539 z"
       inkscape:connector-curvature="0" /><path
       id="path42"
       style="fill:#ffffff;fill-opacity:0.25;fill-rule:nonzero;stroke:none"
       d="m 619.4863,48.7119 c 4.0225,0.8565 6.7901,1.4736 7.4883,1.666 -2.4092,3.3272 -22.2539,31.6602 -23.9746,33.8399 -1.6055,0.5664 -4.668,0.5312 -7.876,0.2129 8.336,-9.8711 7.9112,-12.4239 10.1221,-15.3155 2.2109,-2.8916 13.9482,-14.205 14.374,-17.3515 0.4258,-3.1465 -0.1338,-3.0518 -0.1338,-3.0518 z"
       inkscape:connector-curvature="0" /><path
       id="path44"
       style="fill:#f98608;fill-opacity:1;fill-rule:nonzero;stroke:none"
       d="m 567.8965,35.123 4.0156,-3.3271 C 574.3203,33 579.126,32.5977 582,33 c 2.874,0.4023 37.6318,6.252 42.335,7.3994 2.0644,0.5742 2.7539,1.6055 7.915,2.294 0,0 -1.6074,3.9004 -2.1797,4.3593 -22.4844,-2.7529 -37.625,-6.997 -62.1738,-11.9297 z"
       inkscape:connector-curvature="0" /><path
       id="path46"
       style="fill:#ffffff;fill-opacity:0.25;fill-rule:nonzero;stroke:none"
       d="m 631.1768,45.125 c -0.42,0.8906 -0.8594,1.7295 -1.1065,1.9277 -22.4844,-2.7529 -37.625,-6.997 -62.1738,-11.9297 l 1.4756,-1.2226 c 24.9023,4.4277 31.4521,4.4287 39.7871,5.7891 8.3349,1.3603 13.2461,4.0664 22.0176,5.4355 z"
       inkscape:connector-curvature="0" /><path
       id="path48"
       style="fill:#f98608;fill-opacity:1;fill-rule:nonzero;stroke:none"
       d="m 606.5537,33.5205 c -34.7578,-7.2266 -31.0869,-5.5068 -28.1045,-9.9805 -1.0322,-1.7207 0.5742,-3.2109 2.1797,-4.3584 8.6035,-12.7275 22.8272,-32.8017 22.8272,-32.8017 h 66.1826 c 0,0 -19.501,31.4306 -31.6602,45.3105 -3.6709,4.0147 -1.2617,5.3907 -4.9326,5.8496 -8.832,-1.0322 -26.4922,-4.0195 -26.4922,-4.0195 z"
       inkscape:connector-curvature="0" /><path
       id="path50"
       style="fill:#ffffff;fill-opacity:0.25;fill-rule:nonzero;stroke:none"
       d="m 666.4004,-13.6201 h 3.2383 c 0,0 -19.501,31.4306 -31.6602,45.3105 -3.6709,4.0147 -1.2617,5.3907 -4.9326,5.8496 -1.7822,-0.208 -3.9238,-0.4961 -6.207,-0.8232 C 628.625,30 631.375,27.75 633.25,26.125 c 3,-2.75 -0.875,-0.875 -2,-3.125 -2.75,-6.875 -6.998,-23.9902 -6.624,-36.6201 h 14.3867 C 643.25,-7.375 642.75,9.375 642.75,9.375 647.375,3 657.1758,-9.1152 666.4004,-13.6201 Z"
       inkscape:connector-curvature="0" /><path
       id="path52"
       style="fill:#ded063;fill-opacity:1;fill-rule:nonzero;stroke:none"
       d="m 600.1064,135.2178 c 1.2872,-3.0918 1.7002,-9.8614 1.7002,-9.8614 19.7227,14.2823 38.4258,27.544 50.667,31.2842 -24.4834,-14.9619 -43.5263,-29.584 -49.3066,-34.6845 -0.1231,-6.3428 0.5918,-5.9141 3.4512,-3.4834 21.0888,17.4423 46.1806,34.6015 51.1845,36.7461 1.5723,0.7861 0.2139,1.0732 -1.2158,1.5732 -1.4297,0.5 -12.582,4.3594 -15.1553,4.8603 -1.6435,0.3575 -2.1445,-0.5722 -3.9316,-1.7871 -9.293,-6.4336 -15.7568,-8.3662 -25.5,-15.0849 -9.7432,-6.7188 -7.8125,-7.5049 -9.5283,-8.6485 -1.7158,-1.1435 -0.8584,0.6436 -2.3653,-0.914 z"
       inkscape:connector-curvature="0" /><path
       id="path54"
       style="fill:#ffffff;fill-opacity:0.39999007;fill-rule:nonzero;stroke:none"
       d="m 650.874,151.1641 c -10.1152,-6.5039 -28.3271,-19.5166 -44.2558,-32.6914 -0.0401,3.3105 2.6816,8.5078 2.6816,8.5078 8.044,6.2998 21.626,16.1728 38.1084,26.5224 1.1611,-1.3925 1.3379,-2.4687 3.4658,-2.3388 z"
       inkscape:connector-curvature="0" /><path
       id="path56"
       style="fill:#ffffff;fill-opacity:0.39999007;fill-rule:nonzero;stroke:none"
       d="m 652.4736,156.6406 c -11.4638,-3.5029 -28.5966,-15.3564 -46.9248,-28.5791 -1.0703,8.0694 14.9102,18.918 27.6241,26.499 7.9316,4.7823 7.8378,5.3614 4.3271,5.3047 1.7871,1.2149 2.2881,2.1446 3.9316,1.7871 1.9766,-0.3847 9.0137,-2.7509 12.8194,-4.0537 -0.4326,-0.122 -1.7774,-0.958 -1.7774,-0.958 z"
       inkscape:connector-curvature="0" /><path
       id="path58"
       style="fill:#d60f14;fill-opacity:1;fill-rule:nonzero;stroke:none"
       d="m 433,633 c -19,-1.5 -25,-4.5 -25,-4.5 25.5,-53 19.5,-47 26,-79 12.5,-54 22,-99 -73.5,-114.5 C 261,418 251,426 229,483 c -18,57.5 -3.5,62 -25.5,105 -2,-0.5 -7.8335,-3.667 -7.8335,-3.667 -14,-6 -17.3335,-5.333 -14,-12.6665 12,-20.6665 36.6665,-118.0005 -20,-184.0005 C 204.333,329 209.5,306.5 315.667,325 c 5.833,1.5 4.833,-1.5 -0.167,-4 -34.5,-9 -93,-22.5 -127,21.5 36.0728,-73.6289 30.8525,-58.4658 52.5,-90 12.3071,-12.1025 32.2715,-21.4277 56.061,-24.7656 -6.375,7.0439 6.9859,7.6767 21.938,8.4961 12.5,0.6845 26.0039,1.8457 31.0547,3.6972 1.4795,1.8477 2.043,4.334 2.5401,6.5713 0.497,2.2373 1.2431,9.4453 3.9775,19.3887 0.7451,10.1914 5.4687,28.5869 2.4853,36.292 -0.497,6.7119 -0.7451,10.6894 -1.4912,12.4297 -0.7461,1.7402 2.4854,2.9824 2.9825,1.4912 0.497,-1.4912 3.9775,-13.4229 1.7402,-28.586 -1.2432,-15.9091 -2.4121,-37.8505 -7.4277,-45.3691 -1.4795,-2.2178 17.6357,2.4688 35.7509,8.7529 1.958,-7.2744 16.7178,4.9668 20.3975,9.2725 8.4521,20.3838 46.9814,69.8506 51.7041,113.3506 C 438.1045,357.3643 415.7324,346.9238 394.6035,347.6699 560.5,394 517,559 433,633 M 353.0449,336.3838 c 20.6162,30.6728 5.7832,78.9463 2.2627,86.2373 0,0 0.8672,-0.0635 2.0117,-0.7544 14.0801,-7.7939 17.8506,-73.6665 -4.2744,-85.4829 z"
       inkscape:connector-curvature="0" /><path
       id="path60"
       style="fill:#d60f14;fill-opacity:1;fill-rule:nonzero;stroke:none"
       d="m 461.667,164.333 c -21.334,17 -57.666,28.332 -76,33.666 -3,1 -2.333,1.001 -4,-0.666 -5.667,-5.334 -7.666,-2.668 -14,-15.334 -10.334,-4.333 -18.668,-4.666 -21.334,-4.333 -2.666,0.333 -15.333,-4.667 -24.333,2.333 -20.3335,-0.666 -22.0005,3.334 -27.667,4.334 -5.6665,1 -50.3335,14.332 -66.3335,29.666 -2.6665,1.667 -1.666,1.335 -3.333,0.001 -13.9014,-11.124 -46.666,-44 -60.333,-62 -6.667,-13.333 -12,-14.999 -14,-18.333 -1.3335,-1.667 -3.333,-3.334 -1,-5.334 2.333,-2 6.6665,-7.334 7.6665,-11 31.3335,-11.333 44.6924,3.0908 61.3335,-1.666 10.6665,-5 9.6665,-23 41,-24.334 5,-0.333 14.333,-12.334 1.333,-19 C 277,62.667 277.3335,46.667 258,39 268,20.667 249.3335,10.666 242.3335,12.333 c 23.333,-22.333 37,-25.666 37,-25.666 0,0 34.6675,0 45.3335,0 57,18 75.333,101.666 173.666,132 0,15.666 -21.666,22.666 -36.666,45.666 M 256,153.25 c -4.75,5 -20.75,29.5 -21.5,31.75 -0.75,2.25 -2.25,6 -2.25,6 6,-10 39.25,-59.25 55,-64 -18.5,0.5 -27.25,21.25 -31.25,26.25 M 400.75,97.75 C 396.7852,91.7852 392.3672,87.7998 387,81.75 352.75,41.5 301.1777,9.3574 276.75,23.5 c -1.25,0 3.75,0.5 3.75,0.5 20.75,-2 60.25,4.25 125.5,84.5 -3.75,-9.75 -4,-9 -5.25,-10.75 z"
       inkscape:connector-curvature="0" /><path
       id="path62"
       style="fill:#d86a07;fill-opacity:1;fill-rule:nonzero;stroke:#000000;stroke-width:1;stroke-linecap:butt;stroke-linejoin:miter;stroke-miterlimit:4;stroke-dasharray:none;stroke-opacity:1"
       d="m 211.5,591 c -6,-2 -3,-4.5 -2,-6.5 13,-27.5 13.5,-74 21,-96 9,-27 29,-59 58.5,-59 29.5,0 85,9.5 116,22.5 31,13 35.5,48 30,77.5 -5.5,29.5 -17.5,80 -32,99 0,0 -18,-3.5 -20,-5.5 1,-5.5 25,-56 25,-88.5 0,-32.5 -4,-62 -60.5,-74 -60,-13 -78,1.5 -87.5,36.5 -10,3.5 -17.5,10.5 -16,26.5 1.5,16 -9.4116,59.6489 -20.4116,71.1489 -2,1 -12.0884,-3.6489 -12.0884,-3.6489 z"
       inkscape:connector-curvature="0" /><path
       id="path64"
       style="fill:#000000;fill-opacity:1;fill-rule:nonzero;stroke:none"
       d="m 218.1123,564.2222 c 0,-5.4034 2.8433,-8.1045 9.6685,-8.1045 6.8252,0 7.9624,4.5493 7.9624,8.5307 0,3.9815 -1.9908,7.5362 -9.5264,7.5362 -4.6919,0 -8.1045,-5.9717 -8.1045,-7.9624 z"
       inkscape:connector-curvature="0" /><path
       id="path66"
       style="fill:#f98608;fill-opacity:1;fill-rule:nonzero;stroke:none"
       d="m 234.542,564.8613 c 0,-3.1006 -2.8184,-5.6157 -6.2959,-5.6157 -3.4766,0 -6.2949,2.5151 -6.2949,5.6157 0,3.1026 2.8183,5.6167 6.2949,5.6167 3.4775,0 6.2959,-2.5141 6.2959,-5.6167 z"
       inkscape:connector-curvature="0" /><path
       id="path68"
       style="fill:#000000;fill-opacity:1;fill-rule:nonzero;stroke:none"
       d="m 228.2075,514.8838 c 0,-4.834 2.7017,-7.3936 6.6826,-7.3936 3.981,0 5.545,2.417 9.0996,4.9766 l -0.2841,7.2515 c 0,0 -1.2793,3.27 -7.6778,3.27 -6.1142,0 -7.8203,-8.1045 -7.8203,-8.1045 z"
       inkscape:connector-curvature="0" /><path
       id="path70"
       style="fill:#f98608;fill-opacity:1;fill-rule:nonzero;stroke:none"
       d="m 232.3311,515.5947 c 0,-3.27 1.8486,-3.8388 5.9716,-3.8388 2.9859,0 3.8389,2.2754 3.8389,4.1235 0,1.8481 -0.1426,3.981 -4.8345,3.981 -4.6919,0 -4.976,-4.2657 -4.976,-4.2657 z"
       inkscape:connector-curvature="0" /><path
       id="path72"
       style="fill:#000000;fill-opacity:1;fill-rule:nonzero;stroke:none"
       d="m 250.6729,463.271 c 0,-4.5498 3.27,-8.8154 8.3886,-8.8154 2.9859,0 5.9717,1.9902 8.6734,8.2465 0.7109,1.7066 -0.5694,8.2471 -6.9673,8.2471 -6.2559,0 -10.0947,-4.8345 -10.0947,-7.6782 z"
       inkscape:connector-curvature="0" /><path
       id="path74"
       style="fill:#f98608;fill-opacity:1;fill-rule:nonzero;stroke:none"
       d="m 255.3647,464.835 c 0.1421,-2.7012 2.9854,-5.545 5.4029,-5.545 2.4175,0 5.8296,2.1329 5.8296,4.5498 0,2.417 -1.8482,5.8296 -4.834,5.8296 -2.9859,0 -1.1372,-1.4218 -4.5498,-1.4218 -0.8535,0 -1.9907,-3.128 -1.9907,-3.128"
       inkscape:connector-curvature="0" /><path
       id="path76"
       style="fill:#000000;fill-opacity:1;fill-rule:nonzero;stroke:none"
       d="m 292.0483,444.2183 c 0,-5.1187 2.9859,-8.1045 7.3936,-8.1045 4.4077,0 10.3794,2.9863 10.3794,7.8203 0,4.834 -2.417,7.6777 -8.3887,7.6777 -5.9717,0 -9.3843,-5.2607 -9.3843,-7.3935 z"
       inkscape:connector-curvature="0" /><path
       id="path78"
       style="fill:#f98608;fill-opacity:1;fill-rule:nonzero;stroke:none"
       d="m 300.7217,440.2373 c 3.5547,0 7.6777,2.1328 7.6777,4.4077 0,2.2749 -1.5635,5.4029 -4.123,5.4029 -2.5596,0 -2.5601,-1.2798 -6.1143,-1.2798 -1.8481,0 -4.9761,-8.5308 2.5596,-8.5308 z"
       inkscape:connector-curvature="0" /><path
       id="path80"
       style="fill:#000000;fill-opacity:1;fill-rule:nonzero;stroke:none"
       d="m 349.3486,451.4697 c 0,-2.417 1.9912,-8.9575 7.3936,-8.9575 5.4023,0 10.0947,3.9815 10.0947,7.2515 0,3.27 -0.8525,1.8481 -0.8525,5.4028 0,1.4219 -6.2559,3.6968 -8.8155,3.6968 -2.5595,0 -0.8535,-1.7061 -3.2705,-1.7061 -2.417,0 -4.5498,-5.6875 -4.5498,-5.6875 z"
       inkscape:connector-curvature="0" /><path
       id="path82"
       style="fill:#f98608;fill-opacity:1;fill-rule:nonzero;stroke:none"
       d="m 353.6143,452.1807 c 0,-2.9859 0.8515,-4.8345 5.6865,-4.8345 4.8349,0 5.4033,3.27 5.4033,4.9766 0,1.7065 -3.4131,4.5498 -5.6875,4.4077 -2.2744,-0.1421 -0.8535,-1.1377 -3.5547,-1.4219 -1.2793,-0.4263 -1.8476,-3.1279 -1.8476,-3.1279 z"
       inkscape:connector-curvature="0" /><path
       id="path84"
       style="fill:#000000;fill-opacity:1;fill-rule:nonzero;stroke:none"
       d="m 396.5527,472.2285 c -0.1425,-7.251 4.4082,-8.6728 6.3985,-8.6728 1.9902,0 9.3838,-5e-4 9.6679,6.9668 0.2842,6.9672 -4.9755,7.8203 -8.6728,7.8203 -3.6973,0 -3.4121,-2.5596 -4.9766,-2.5596 -1.5644,0 -2.417,-3.5547 -2.417,-3.5547 z"
       inkscape:connector-curvature="0" /><path
       id="path86"
       style="fill:#f98608;fill-opacity:1;fill-rule:nonzero;stroke:none"
       d="m 399.6807,472.2285 c 0,-2.2749 1.4218,-4.2651 3.8388,-4.2651 2.417,0 5.4024,0 5.545,6.8247 0,1.2798 -1.5635,-0.5689 -3.4122,1.4219 -3.1279,-0.1421 -5.9716,-1.5645 -5.9716,-3.9815 z"
       inkscape:connector-curvature="0" /><path
       id="path88"
       style="fill:#000000;fill-opacity:1;fill-rule:nonzero;stroke:none"
       d="m 411.7666,528.6733 c 0,-2.9863 -1.2803,-0.2841 -1.2803,-4.2656 0,-3.9814 4.835,-7.3935 7.5362,-7.3935 2.7011,0 9.5263,0.2841 9.5263,5.5449 0,2.8437 -1.2793,1.1377 -2.1328,5.5454 -3.1279,2.7012 -13.6494,4.6924 -13.6494,0.5688 z"
       inkscape:connector-curvature="0" /><path
       id="path90"
       style="fill:#f98608;fill-opacity:1;fill-rule:nonzero;stroke:none"
       d="m 412.0508,525.5449 c 0,-3.1279 2.1318,-5.5449 4.4072,-5.5449 2.2754,0 4.6934,4.123 5.5459,4.123 0.8525,0 0.8516,5.4034 -3.8398,5.4034 -4.6914,0 -6.1133,-3.9815 -6.1133,-3.9815 z"
       inkscape:connector-curvature="0" /><path
       id="path92"
       style="fill:#000000;fill-opacity:1;fill-rule:nonzero;stroke:none"
       d="m 407.3584,561.8022 c 0,-3.5659 10e-4,-7.393 8.6738,-7.5356 6.1133,0 5.8301,5.8291 5.9717,6.9668 0.1416,1.1377 -1.8486,6.3984 -7.1094,6.3984 -5.2607,0 -7.5361,-3.5547 -7.5361,-5.8296 z"
       inkscape:connector-curvature="0" /><path
       id="path94"
       style="fill:#f98608;fill-opacity:1;fill-rule:nonzero;stroke:none"
       d="m 415.4629,566.0679 c -1.8486,0 -2.9854,-1.7066 -5.2608,-1.9908 -0.7109,0 -1.3505,-4.7636 0.4268,-6.5405 1.7774,-1.7768 3.9102,-0.3554 5.5449,1.2798 1.6348,1.6353 2.1328,7.2515 -0.7109,7.2515 z"
       inkscape:connector-curvature="0" /><path
       id="path96"
       style="fill:#000000;fill-opacity:1;fill-rule:nonzero;stroke:none"
       d="m 399.1113,598.3408 c -0.7109,-3.8388 -2.8437,-5.6875 0.4268,-8.8154 3.2705,-3.1279 3.2715,-3.27 6.2568,-3.27 2.9854,0 8.6729,0.9956 8.6729,6.5405 0,5.5449 -7.6778,7.3931 -9.8106,7.6777 -2.1328,0.2847 -5.6875,-1.8481 -5.6875,-1.8481"
       inkscape:connector-curvature="0" /><path
       id="path98"
       style="fill:#f98608;fill-opacity:1;fill-rule:nonzero;stroke:none"
       d="m 400.96,597.3457 c -0.9952,-3.1279 -1.5635,-4.8345 0.5693,-6.5405 2.1328,-1.7061 2.7012,-2.417 4.834,-0.711 2.1328,1.7061 3.6963,0.5689 3.6963,4.4078 0,3.8388 -4.4073,4.9765 -5.545,4.9765 -1.1376,0 -3.5546,-2.1328 -3.5546,-2.1328 z"
       inkscape:connector-curvature="0" /><path
       id="path100"
       style="fill:#000000;fill-opacity:1;fill-rule:nonzero;stroke:none"
       d="m 386.8838,620.8062 c 0,-4.1456 1.2803,-6.3985 5.8301,-8.5313 4.5498,-2.1328 6.54,0.1421 8.6728,1.564 -0.1426,3.6967 1.6348,6.0429 -2.8437,10.5219 -1.8487,1.8482 -11.6592,-0.2841 -11.6592,-3.5546 z"
       inkscape:connector-curvature="0" /><path
       id="path102"
       style="fill:#f98608;fill-opacity:1;fill-rule:nonzero;stroke:none"
       d="m 389.585,619.5264 c 0.1425,-3.6968 1.4218,-4.9766 3.2705,-4.9766 1.8486,0 4.834,3.5547 4.834,6.2564 0,2.7016 -4.1221,1.5639 -4.6915,1.5639 -0.5693,0 -3.413,-0.4263 -3.413,-2.417"
       inkscape:connector-curvature="0" /><path
       id="path104"
       style="fill:#f98608;fill-opacity:1;fill-rule:nonzero;stroke:#000000;stroke-width:1;stroke-linecap:butt;stroke-linejoin:miter;stroke-miterlimit:4;stroke-dasharray:none;stroke-opacity:1"
       d="m 435.71,638.4702 c 50.9004,-57.415 52.1211,-65.1514 56.1933,-73.7026 4.0723,-8.5513 27.6905,-50.9004 21.1748,-92.8418 -3.665,-13.4375 -0.8154,-11.8086 4.4785,-10.9942 5.294,0.8145 17.1026,3.2574 30.9473,12.6231 10.5859,6.9224 30.5381,26.4678 39.4971,42.3486 7.3291,14.252 9.2588,31.7617 1.6289,46.8281 -7.6299,15.0665 -15.4736,41.5347 -45.1992,60.6734 -29.7256,19.1387 -61.4864,24.8393 -99.7637,18.7314 -4.0723,-0.4072 -9.7734,-3.665 -9.7734,-3.665"
       inkscape:connector-curvature="0" /><path
       id="path106"
       style="fill:#f98608;fill-opacity:1;fill-rule:nonzero;stroke:none"
       d="m 166.6729,573.8716 c -59.022,0 -79.4991,-16.8633 -121.3565,-61.732 -23.1875,-36.1357 -19.2725,-18.9711 -39.1475,-49.687 -2.4091,-3.6132 1.5059,-8.7329 15.358,-19.8745 5.1191,6.023 1.1626,8.7329 4.8178,11.1421 -9.0337,2.1079 -10.539,3.9141 -12.0449,3.6133 -2.4092,-0.6021 -2.71,1.5059 -2.1079,2.7104 0,0 0,-0.9033 0.9033,-0.9033 14.4541,0 26.4995,-4.5171 33.7266,-6.625 7.227,-2.1079 16.8637,-5.4199 24.0908,-8.1303 63.2378,-32.8233 71.3682,-53.9029 80.7031,-62.3345 5.7217,27.102 19.5738,65.9482 24.0908,70.164 -9.0341,-21.6816 -6.9262,-28.0053 -10.2387,-36.7382 8.1308,8.4316 12.0449,15.0571 13.852,17.4658 -3.3125,-12.9487 -14.7549,-28.0059 -17.4653,-36.7383 14.2466,19.8916 42.8896,56.5791 26.6001,133.1953 0.5015,9.2398 -4.5679,19.0064 -7.9302,29.416 -3.6133,6.6245 -3.312,4.8184 -3.9145,9.6363 -0.6026,3.6132 -3.0113,-0.3013 -9.937,5.4199 z"
       inkscape:connector-curvature="0" /><path
       id="path108"
       style="fill:#ffffff;fill-opacity:0.5;fill-rule:nonzero;stroke:none"
       d="m 151.6157,382.0508 c 5.7217,27.102 19.5738,65.9482 24.0908,70.164 C 160.75,433 150.2314,387.6016 151.6157,382.0508 Z"
       inkscape:connector-curvature="0" /><path
       id="path110"
       style="fill:#000000;fill-opacity:0.25;fill-rule:nonzero;stroke:none"
       d="m 23.2002,444.9404 c 2.481,4.42 0.0059,6.7105 3.1445,8.7798 -9.0337,2.1079 -10.539,3.9141 -12.0449,3.6133 -1.5254,-0.3814 -2.2056,0.3242 -2.3462,1.1992 -0.3442,-4.7192 2.3726,-9.1186 11.2466,-13.5923 z"
       inkscape:connector-curvature="0" /><path
       id="path112"
       style="fill:#f5e4da;fill-opacity:1;fill-rule:nonzero;stroke:none"
       d="m 333.833,578.833 c 7.834,15.8335 17.5,27.3335 17.5,30.667 0,10.333 -8.666,23.1665 -8.666,40 -24.834,-4.3335 -85.667,-1 -104.667,12.75 0,0 -2.75,-3.5 -2.5,-5.5 l 4.5,1.5 c 0,0 1,-0.5 2,-0.25 0.5,-6.5 4.75,-22.75 26.25,-18.75 l 1.5,3 c 0,0 7,0.75 2.5,-4.5 -2.25,-6 -6.5,-9.5 -10.5,-10.75 v -2.75 c 3.75,0.25 2.75,4.5 7.25,6 2,0.25 2.75,-0.75 2.75,-0.75 -3,-9 -21,-14.5 -27,-19.5 -4.5,-3.5 -6,-6.25 4.25,-11.25 6.75,-0.5 12.75,-7.25 27.25,-3 8,-1.25 9,-3 0.5,-2.5 -8.5,0.5 -9.75,-1.25 -13,-1.25 -11.75,0.75 -37.5,8.5 -22.75,21 9.75,6.5 12.5,1.25 18,10 -7.25,-2 -21.25,-2.75 -25.25,2.25 0,0 14.25,-4.25 24.75,0 l -0.1143,0.6362 C 250.9165,625.417 244.917,622.5 234.8335,635 c -0.5,0.75 -1,0.5835 -2.25,-3.6665 -1.0835,-2.9165 -2.917,7.333 2.6665,12.9165 l 0.1665,0.917 c 0,0 4.4165,-0.5 6.75,-2.3335 1.25,-0.5 1.25,0.1665 0.5,1.25 -0.75,1.0835 -5.25,7.3335 -3.4165,8.75 0.8335,0.5 -0.8335,2.583 -9.5835,-5.3335 -2.083,-7.1665 -1.9995,-4.25 -4.333,-10 -0.0835,-6.4165 -4.667,-18.0835 -4.667,-21 0,-6.4165 6.3335,-16.4165 6.3335,-19.5 28.8335,-51.6665 14.1665,-81.1665 24.3335,-92.1665 C 261,499.6665 310,492.5 317.333,510.6665 c 8.334,25.1665 8.5,25.6665 9.5,25.5 4.334,20 9.834,31.4995 11.667,46.1665 0,0 -2.667,-3.1665 -4.667,-3.5 m -59.208,20.417 c -0.625,0 -3,0.875 -1.5,1.375 1.5,0.5 10,1.625 13.5,1.625 1.25,0 4.75,-1.125 4.75,-1.125 1.875,0 0.875,-1.375 3.5,-1.375 0.5,0 2.125,-1.375 0,-1.375 -3.875,0 -5.75,1.75 -8.625,1.75 -6.125,0 -4.375,-0.875 -11.625,-0.875 m 11.0532,-55.9712 c -13.1777,0 -10.5224,-3.688 -19.914,-3.688 -9.3916,0 -10.1289,3.688 -10.1289,5.2124 3.7368,0 5.6547,-2.1636 8.9492,-2.1636 3.8843,0 7.2768,2.8516 9.7348,2.8516 1.1309,0 11.8008,0.0493 14.6529,0.0493 0,-1.5244 -1.2784,-2.2617 -3.294,-2.2617 m 8.5064,11.3086 c -1.7212,0 -1.7705,2.0649 -4.3272,2.0649 -6.1465,0 -8.1621,1.5738 -13.9638,1.5738 -4.8677,-0.1475 -8.8506,-4.3272 -14.0137,-5.9497 -4.6714,-0.6885 -1.8682,1.8686 -0.2456,2.9008 0,0 3.1958,1.9668 10.9643,4.7207 0.3931,0 1.5244,0.295 1.5244,0.688 0,0.6392 -0.4423,0.2461 -0.4423,1.3277 1.5737,-0.5904 16.9633,-3.0484 18.5859,-3.0484 2.2124,0 3.2944,-2.6552 3.2944,-3.2451 0,-0.5898 -0.1474,-1.0327 -1.3764,-1.0327 M 299.5,587.25 c 0,3.5 0.75,4.75 -3.25,4.75 -1.625,0 -2.875,1.25 -1.25,2.625 4.75,1.375 3.75,6.625 3.75,7.25 0,0.625 0,2.25 0.5,3 2,-3.125 1.375,-7 2.25,-8.75 0,-4.5 -0.25,-8.25 1.75,-18.5 0,-7.125 1.125,-9.25 1.75,-10.875 0.625,-1.625 0.5,0.5 1.375,-10 -3.625,8.75 -5.25,25.125 -6.875,30.5 m 16.25,18 c -12.875,0 -19.5366,5.3633 -21.875,10.625 9.375,-5.875 18.875,-8.75 21.375,-9 2.5,-0.25 2.125,-1.625 0.5,-1.625 z"
       inkscape:connector-curvature="0" /><path
       id="path114"
       style="fill:#ffbe9f;fill-opacity:1;fill-rule:nonzero;stroke:none"
       d="m 342.667,649.5 c -22.5693,-3.9385 -74.8716,-1.5439 -98.4849,9.2466 16.0747,-13.4766 93.0943,-20.7949 98.4849,-9.2466 z"
       inkscape:connector-curvature="0" /><path
       id="path116"
       style="fill:#ffbe9f;fill-opacity:1;fill-rule:nonzero;stroke:none"
       d="m 336.4941,571.6689 c 0.8497,3.4781 1.544,6.9707 2.0059,10.6641 0,0 -1.6641,-1.9751 -3.3486,-2.9702 C 331,571.5 328.5,566.25 326,563.75 c 4.25,2 1.5,-3.75 1.5,-3.75 0,0 5.4883,6.3379 8.9941,11.6689 z"
       inkscape:connector-curvature="0" /><path
       id="path118"
       style="fill:#ffbe9f;fill-opacity:1;fill-rule:nonzero;stroke:none"
       d="m 227.6353,642.0381 c 0.5161,0.873 1.017,1.9722 2.0312,5.4619 8.75,7.9165 10.417,5.8335 9.5835,5.3335 -1.8335,-1.4165 2.6665,-7.6665 3.4165,-8.75 0.75,-1.0835 0.75,-1.75 -0.5,-1.25 -2.3335,1.8335 -6.75,2.3335 -6.75,2.3335 L 235.25,644.25 c -1.8291,-1.8291 -2.8623,-4.1587 -3.3867,-6.3623 -1.6255,1.5977 -4.228,4.1504 -4.228,4.1504 z"
       inkscape:connector-curvature="0" /><path
       id="path120"
       style="fill:#ffbe9f;fill-opacity:1;fill-rule:nonzero;stroke:none"
       d="m 249,598.75 c 6.75,-0.5 12.75,-7.25 27.25,-3 -4.646,4.6294 -8.4888,3.9512 -11.4272,5.7598 -2.9385,1.8086 -3.8428,-0.2261 -6.7813,0.9043 -2.9385,1.1303 -9.0415,2.7129 -10.8501,4.521 -1.8086,1.8081 -8.3628,-0.9991 1.8086,-8.1851 z"
       inkscape:connector-curvature="0" /><path
       id="path122"
       style="fill:#ffbe9f;fill-opacity:1;fill-rule:nonzero;stroke:none"
       d="m 257.2832,502.6758 c -2.5786,0.7104 -4.6304,1.4526 -5.9497,2.1577 -10.167,11 4.5,40.5 -24.3335,92.1665 0,1.1416 -0.8677,3.2305 -1.9604,5.7344 40.6875,-41.4585 18.601,-85.8726 32.2436,-100.0586 z"
       inkscape:connector-curvature="0" /><path
       id="path124"
       style="fill:#ffbe9f;fill-opacity:1;fill-rule:nonzero;stroke:none"
       d="m 231.8633,637.8877 c -3.2075,0.6934 -4.228,4.1504 -4.228,4.1504"
       inkscape:connector-curvature="0" /><path
       id="path126"
       style="fill:#ffbe9f;fill-opacity:1;fill-rule:nonzero;stroke:none"
       d="m 277.4814,599.5874 c 2.7124,-3.4424 10.1719,-5.5937 12.8843,-6.2393 2.7124,-0.6455 2.939,1.0762 2.2608,2.1519 -0.6783,1.0752 -7.9121,5.1631 -10.3985,4.7329 -2.4863,-0.4302 -4.7466,-0.6455 -4.7466,-0.6455 z"
       inkscape:connector-curvature="0" /><path
       id="path128"
       style="fill:#ffbe9f;fill-opacity:1;fill-rule:nonzero;stroke:none"
       d="m 314.25,631.75 c 0.75,-3.25 8.25,-4.25 9.5,-5.5 1.25,-1.25 3.5,1.75 8.5,1 5,-0.75 11,8 10.75,9.5 -0.25,1.5 -0.25,2.5 -4.25,-0.5 C 324,634.5 313.5,635 314.25,631.75 Z"
       inkscape:connector-curvature="0" /><path
       id="path130"
       style="fill:#000000;fill-opacity:1;fill-rule:nonzero;stroke:none"
       d="m 277.375,645.5 c 0.25,-1.625 -3.375,-8.875 0.625,-16.875 3.25,-1.125 2.5,-1.875 2.5,-1.875 5.625,-1.25 2.875,-1.875 2.875,-1.875 0,0 0.625,-1 3.875,-0.75 3.625,-1.625 2.25,-3.125 3.25,-3 3.5,0 9.125,-2.75 11.125,-2.75 6.5,0 3.75,1.375 8.75,1.25 3.125,0 3.375,1.75 5.75,1.75 1.5,0 4.25,2.875 4.25,2.875 1.25,0 2.5,-0.125 0.375,1.875 -0.5,1.375 -2.125,1.875 -5.125,3.375 -3,1.5 0.125,3.125 2.25,3.75 2.875,0 10,-0.125 14.375,-0.375 4.375,-0.25 8.25,1.75 8.25,1.75 0,0 -0.625,0.875 0.25,1.75 0.5625,0.5625 -0.75,0.625 -4.25,-0.125 -3.5,-0.75 -14.125,0.875 -17.75,2.375 -1.125,0 -1.25,0.375 -0.625,1.375 0.625,1 -1.125,1.125 -3.5,0 -3.25,0.75 -0.375,-1.125 -2,-1.125 -3.5,0 -11.875,-9.375 -31,-9.125 -5.125,0 -1.5,10.125 -2.5,13.25 -1,3.125 -1.75,2.5 -1.75,2.5 z"
       inkscape:connector-curvature="0" /><path
       id="path132"
       style="fill:#ffbe9f;fill-opacity:1;fill-rule:nonzero;stroke:none"
       d="m 301.7397,597.6694 c 3.3907,-12.6587 11.3033,-34.5849 5.6509,-49.956 -1.1299,-3.8428 -4.9726,-3.6162 -0.2256,9.042 -4.521,18.3095 -5.4253,40.914 -5.4253,40.914 z"
       inkscape:connector-curvature="0" /><path
       id="path134"
       style="fill:#ffbe9f;fill-opacity:1;fill-rule:nonzero;stroke:none"
       d="m 258.0415,540.7061 c 3.8428,-3.8428 3.1646,-4.5215 3.3906,-5.8775 0.2261,-1.3559 4.7471,-2.4868 14.4668,0 9.7198,2.4868 13.3369,3.8433 15.5972,7.0078 -4.7471,1.356 -9.042,1.356 -12.6587,0.9038 -6.7812,-3.1645 -20.7959,-2.0341 -20.7959,-2.0341 z"
       inkscape:connector-curvature="0" /><path
       id="path136"
       style="fill:#ffffff;fill-opacity:1;fill-rule:nonzero;stroke:none"
       d="m 241.125,632.125 c 1.3247,-2.8384 6.625,-4.75 15.875,-3.75 3.375,1.75 3.375,2.5 0.75,3.5 -2.625,-0.25 -5.375,1.25 -6.5,2.25 -1.125,1 -3.5,1.25 -4.875,1.875 -1.375,0.625 -7.5,5.25 -7.875,5.625 -0.375,0.375 -1,0.125 2.25,-2.625 0.625,-4.875 1.625,-6.375 0.375,-6.875 z"
       inkscape:connector-curvature="0" /><path
       id="path138"
       style="fill:#ffffff;fill-opacity:1;fill-rule:nonzero;stroke:none"
       d="m 302.375,625.875 c -3.375,-1 3,-1.5 -3.25,-4.625 -0.625,-0.25 2.25,-3.125 16.75,2.5 2.875,1.375 1.625,3.75 -0.875,3.875 -2.5,0.125 -4.75,0.625 -5.625,0.75 -1.25,-1.75 -1.5,-0.25 -7,-2.5 z"
       inkscape:connector-curvature="0" /><path
       id="path140"
       style="fill:#ffbe9f;fill-opacity:1;fill-rule:nonzero;stroke:none"
       d="m 286.5229,624.1143 c 4.295,-4.521 8.1373,-11.9805 18.3096,-10.8501 1.5825,2.4863 -18.3096,10.8501 -18.3096,10.8501 z"
       inkscape:connector-curvature="0" /><path
       id="path142"
       style="fill:#ffbe9f;fill-opacity:1;fill-rule:nonzero;stroke:none"
       d="m 242.79,653.4512 c 0.7823,-2.9717 2.2349,-6.3755 4.8252,-9.1739 0.0196,4.1763 -1.2431,7.5674 -4.8252,9.1739 z"
       inkscape:connector-curvature="0" /><path
       id="path144"
       style="fill:#ffbe9f;fill-opacity:1;fill-rule:nonzero;stroke:none"
       d="m 272.2466,637.7344 c -2.25,-6 -6.5,-9.5 -10.5,-10.75 v -2.75 c 3.75,0.25 2.75,4.5 7.25,6 2,0.25 2.75,-0.75 2.75,-0.75 2.5659,2.0415 4.8867,4.7407 5.0762,8.0566 0.1894,3.3159 -0.0948,3.7896 -0.0948,3.7896 0,0 -1.3374,-3.545 -4.4814,-3.5962 z"
       inkscape:connector-curvature="0" /><path
       id="path146"
       style="fill:#f98608;fill-opacity:1;fill-rule:nonzero;stroke:none"
       d="m 232.4897,254.3457 c 0,-18.9121 -4.4365,-15.1572 -2.9575,-35.1211 35.8609,-26.249 78.7461,-32.9043 89.8369,-33.2734 l -17.3754,38.0791 c 0,0 -39.9278,0 -69.504,30.3154 z"
       inkscape:connector-curvature="0" /><path
       id="path148"
       style="fill:#f98608;fill-opacity:1;fill-rule:nonzero;stroke:none"
       d="m 302.7329,229.5762 c 8.1333,-11.8311 19.5933,-38.0791 20.7026,-43.625 2.2188,-5.1758 10.7208,-5.5449 12.9395,-4.8057 11.8311,2.2178 21.8135,1.4775 26.6191,5.5449 2.0303,2.3223 4.1739,2.7002 5.3077,4.8428 10.7128,26.5947 19.5361,41.3408 18.9052,50.667 0,2.8984 -7.6884,-1.7647 -21.4257,-2.8994 -7.9415,-2.2686 -53.6895,-11.3428 -63.0171,-9.3262 z"
       inkscape:connector-curvature="0" /><path
       id="path150"
       style="fill:#ffffff;fill-opacity:0.25;fill-rule:nonzero;stroke:none"
       d="m 378.2393,241.3936 c -3.3086,-0.8096 -7.4873,-1.6817 -12.458,-2.0928 -7.251,-2.0713 -46.0225,-9.8164 -59.8082,-9.6123 -1.5268,-0.2539 -1.2475,-2.2061 0.4248,-2.624 20.3531,-1.2549 63.149,7.1084 64.8218,8.0849 1.6729,0.9766 -1.7138,-0.4765 7.0196,6.2442 z"
       inkscape:connector-curvature="0" /><path
       id="path152"
       style="fill:#f98608;fill-opacity:1;fill-rule:nonzero;stroke:none"
       d="m 376.5039,199.0361 c 18.9424,11.5459 32.1104,20.5645 34.4561,23.6319 1.624,9.5615 1.624,22.3701 2.706,32.292 0,0 -13.5293,-10.2823 -21.1064,-11.1846 -1.4434,-9.2012 -9.9219,-34.8174 -16.0557,-44.7393 z"
       inkscape:connector-curvature="0" /><path
       id="path154"
       style="fill:#f98608;fill-opacity:1;fill-rule:nonzero;stroke:none"
       d="m 450.5,177.25 c -21.6006,10.8008 -47.5,20.25 -62.5,23.5 12.25,7.75 14.5,9.75 14.5,9.75 45,-21 35,-19.75 48,-33.25 z"
       inkscape:connector-curvature="0" /><path
       id="path156"
       style="fill:#e4d8e2;fill-opacity:1;fill-rule:nonzero;stroke:none"
       d="m 271.4839,690.1392 c 0,33.5835 5.4897,53.2807 26.8017,74.916 0,0 2.2608,2.2607 -2.2602,0.3232 -13.8853,-3.229 -47.7915,-27.125 -62.6455,-58.7705 -1.6148,-3.229 -0.3228,-3.229 0.646,-4.1977 0.9687,-0.9688 15.5,-10.6563 42.3017,-14.854 26.8018,-4.1978 38.4263,-3.8755 45.5308,-3.5523 7.1045,0.3232 39.0732,9.042 45.5312,14.2085 6.4581,5.1665 9.0411,7.104 9.0411,7.104 0,0 0.3222,2.2598 -1.292,5.4893 -1.6143,3.2295 -28.7393,42.3017 -52.9571,54.5727 -6.4589,3.5518 -10.6572,1.1489 -14.8545,-1.6147 -4.1972,-2.7637 -21.6352,-11.3018 -30.9995,-44.562 -2.5835,-9.6875 -1.9375,-18.4068 -4.8437,-29.0625 z"
       inkscape:connector-curvature="0" /><path
       id="path158"
       style="fill:#000000;fill-opacity:0.14999001;fill-rule:nonzero;stroke:none"
       d="m 266.812,689.3696 c -4.8491,1.0952 -9.1772,2.3452 -12.9741,3.6289 6.4731,18.9234 24.3809,44.6446 23.3208,39.8457 -2.647,-7.499 -4.2002,-15.5874 -4.9937,-24.7778 -5.6396,-8.2368 -5.353,-18.6968 -5.353,-18.6968 z"
       inkscape:connector-curvature="0" /><path
       id="path160"
       style="fill:#000000;fill-opacity:0.25;fill-rule:nonzero;stroke:none"
       d="m 287.626,752.6123 c 3.0117,4.1514 6.54,8.2607 10.6596,12.4429 0,0 2.2608,2.2607 -2.2602,0.3232 -13.8853,-3.229 -47.7915,-27.125 -62.6455,-58.7705 -1.6148,-3.229 -0.3228,-3.229 0.646,-4.1977 0.3413,-0.3414 2.3662,-1.7647 6.0176,-3.6485 14.2221,6.7779 31.5644,45.4629 47.5825,53.8506 z"
       inkscape:connector-curvature="0" /><path
       id="path162"
       style="fill:#000000;fill-opacity:0.25;fill-rule:nonzero;stroke:none"
       d="m 303.0078,761.0005 c 1.9092,1.3115 3.419,2.1699 4.3193,2.7632 4.1973,2.7636 8.3956,5.1665 14.8545,1.6147 24.2178,-12.271 51.3428,-51.3432 52.9571,-54.5727 1.6142,-3.2295 1.292,-5.4893 1.292,-5.4893 0,0 -1.2705,-0.9541 -4.2608,-3.3071 -19.9892,32.25 -37.9599,55.332 -48.2051,58.9907 -10.2451,3.6587 -13.8662,-2.4819 -20.957,5e-4 z"
       inkscape:connector-curvature="0" /><path
       id="path164"
       style="fill:#e4d8e2;fill-opacity:1;fill-rule:nonzero;stroke:none"
       d="m 220.7861,686.5874 c -1.2148,-9.9834 -0.3227,-10.333 8.396,-15.8228 8.7188,-5.4897 33.2344,-13.9624 40.9844,-14.9311 17.4375,-0.9688 13.8857,-4 41.3335,-4 27.4473,0 58.7959,12.1494 65.2539,16.6704 4.5205,2.5835 3.5527,5.8125 2.9063,9.6875 -0.6465,3.875 -3.2295,16.1455 -1.292,21.6353 0.3496,1.0673 -0.4366,1.5268 -1.8799,0.0835 C 367.834,691.5 337,680.3335 312.667,680.3335 c -24.3335,0 -65.5,3.5 -84.8335,21.5 -0.4297,0.8589 -0.5835,1.2695 -1.6626,-0.6826 -1.0791,-1.9522 -4.4209,-8.7134 -5.3848,-14.5635 z"
       inkscape:connector-curvature="0" /><path
       id="path166"
       style="fill:#000000;fill-opacity:0.39999007;fill-rule:nonzero;stroke:none"
       d="m 378.002,688.7886 c -0.4063,3.7173 -0.5459,7.5449 0.1201,10.2124 -21.7149,-11.6035 -27.8955,-17.0274 -57.5352,-20.4326 12.6133,-2.2705 51.2608,5.1792 57.4151,10.2202 z"
       inkscape:connector-curvature="0" /><path
       id="path168"
       style="fill:#000000;fill-opacity:1;fill-rule:nonzero;stroke:none"
       d="m 319.5,675.8125 c -5.625,0 -11.375,-3.75 -11.375,-9.125 0,-5.375 2,-2.875 2,-5.9375 3.5,-2.5625 7,-3.375 10.1875,-1.625 1.6875,0.9375 -0.8125,0 3.5,3.0625 2.625,2 2.5,2.375 2.5,5.0625 0,4 -1.5,8.5625 -6.8125,8.5625 z"
       inkscape:connector-curvature="0" /><path
       id="path170"
       style="fill:#000000;fill-opacity:1;fill-rule:nonzero;stroke:none"
       d="m 240.3335,672.1665 c 3.3408,-3.3589 10.4995,-6 14.1665,-0.1665 0,6.1665 1.3335,0.4014 1.3335,7 0,1.9736 -3.4341,5.7754 -7.4434,5.7754 -4.0092,0 -5.8413,-2.4541 -6.8437,-3.4566 -1.0025,-1.0024 -0.0347,-3.0073 -1.2442,-4.2167 -0.1386,-1.5899 0.0689,-2.7652 0.0689,-2.7652 1.3828,-1.2441 -0.7666,-1.4375 -0.0376,-2.1704 z"
       inkscape:connector-curvature="0" /><path
       id="path172"
       style="fill:#666464;fill-opacity:1;fill-rule:nonzero;stroke:none"
       d="m 243.3438,678.8994 c 0,-3.1797 0.8989,-6.5669 5.5302,-6.5669 2.9727,0 2.2813,1.6592 4.8389,5.0464 0.4145,0.4146 0.1382,0.7603 0.1382,0.7603 -1.6245,1.6245 -0.3457,2.3505 -2.7652,3.9404 -1.9355,2.0737 -7.7421,2.2119 -7.7421,-3.1802 z"
       inkscape:connector-curvature="0" /><path
       id="path174"
       style="fill:#666464;fill-opacity:1;fill-rule:nonzero;stroke:none"
       d="m 313.0156,668.1348 c 0,-2.6631 0.3858,-6.8677 7.3584,-6.8677 4.0987,0 4.835,3.644 4.835,6.0615 0,2.7329 -1.5772,6.5874 -4.6602,6.5874 -3.083,0 -7.5332,0 -7.5332,-5.7812 z"
       inkscape:connector-curvature="0" /><path
       id="path176"
       style="fill:#666464;fill-opacity:1;fill-rule:nonzero;stroke:none"
       d="m 382.3916,696.8691 c 0,-1.4096 -2.1475,-1.6108 -2.1475,-4.6313 0,-5.9732 0.6045,-10.0674 2.752,-10.0674 2.1475,0 4.2959,2.8858 4.2959,8.3223 0,5.4365 -3.4229,7.1816 -4.0274,7.1816 -1.6113,0 -1.1406,-0.6714 -0.873,-0.8052 z"
       inkscape:connector-curvature="0" /><path
       id="path178"
       style="fill:#e4d8e2;fill-opacity:1;fill-rule:nonzero;stroke:none"
       d="m 375.75,615 c 1.3135,14.4492 3,15.75 1.75,39.25 1,9 0.75,10 -4.25,7 -5,-3 -18.5,-8 -23.75,-8.75 -4.25,-1.5 -3,-7.25 -3,-7.25 1.5,-16.5 6.5,-22.25 6.75,-29.5 l 1.25,-1.5 c 2.5,7.5 12,8.75 -1.25,-8.5 C 334.75,581.5 345,576.25 337,562.5 c -2.25,-9 -10.5,-43.25 -15,-52 10.25,3.5 20,23.5 28,48 1.5,4.5 3,1 2,-2.75 -4.75,-16.25 -9.75,-27.25 -11.5,-30 6,3.75 19,18.5 22.25,25.75 -3,-10.5 -5.25,-15.25 -7,-17.25 -7,-10.25 -32,-29.5 -43.75,-34.25 3.5,-3.25 32.75,-2.5 41.75,4.75 -7,-8.5 -18.75,-17 -44.25,-7 -24.75,-9 -45.5,-1.25 -45.5,-1.25 3.25,-11.25 10.25,-48.75 78.5,-33 58.75,16.25 84.5,38.25 38.75,152.75 l -1.25,-3 c 0,0 17.25,-25.25 9.25,-56.75 -0.5,26.25 -7.5,43.5 -10.5,48.25 -2.5,-6 -4.5,-6.75 -4.5,-6.75 0,0 -1,2.5 -0.5,3.5 0,0 -11,-19.25 -18.5,-26.25 -1,1.75 0,3.25 1.75,5.5 8,11.75 18.5,23 9.5,63 0,8.75 2.5,0 2.5,0 0,0 4.5,-26.5 6.75,-28.75 z"
       inkscape:connector-curvature="0" /><path
       id="path180"
       style="fill:#000000;fill-opacity:0.25;fill-rule:nonzero;stroke:none"
       d="m 340.7217,575.1514 c 0.4551,5.2612 0.5605,10.8003 5.2148,19.4834 17.6045,21.0962 18.6504,24.6513 18.6504,24.6513 -2.0918,-13.8012 -17.6191,-38.0844 -23.8652,-44.1347 z"
       inkscape:connector-curvature="0" /><path
       id="path182"
       style="fill:#000000;fill-opacity:0.25;fill-rule:nonzero;stroke:none"
       d="m 381.0039,600.2949 c -0.8584,1.9883 -1.6396,3.4834 -2.2539,4.4551 -2.5,-6 -4.5,-6.75 -4.5,-6.75 0,0 -1,2.5 -0.5,3.5 0,0 -7.6855,-13.4502 -14.5889,-21.9526 -3.1474,-12.1192 -6.0752,-15.8833 -6.0752,-15.8833 25.0928,24.2563 27.918,36.6308 27.918,36.6308 z"
       inkscape:connector-curvature="0" /><path
       id="path184"
       style="fill:#000000;fill-opacity:0.39999007;fill-rule:nonzero;stroke:none"
       d="m 377.5,654.25 c 0.1064,0.9624 0.1992,1.8335 0.2734,2.6177 0.6192,6.5503 -0.0586,7.0615 -4.5234,4.3823 -5,-3 -18.5,-8 -23.75,-8.75 -4.25,-1.5 -3,-7.25 -3,-7.25 0.5098,-5.6074 1.4238,-9.9731 2.418,-13.5786 4.4619,13.8564 0.4267,14.8657 11.1474,17.3882 10.7207,2.5224 14.9414,3.8222 17.4346,5.1904 z"
       inkscape:connector-curvature="0" /><path
       id="path186"
       style="fill:#000000;fill-opacity:0.39999007;fill-rule:nonzero;stroke:none"
       d="m 376.8545,624.7134 c -0.3496,-2.731 -0.7412,-5.7202 -1.1045,-9.7134 -1.5527,1.5527 -4.1768,14.6553 -5.6553,22.626 2.835,4.749 5.7657,10.039 6.7598,-12.9126 z"
       inkscape:connector-curvature="0" /><path
       id="path188"
       style="fill:#000000;fill-opacity:0.14999001;fill-rule:nonzero;stroke:none"
       d="M 403.4639,511.8193 C 398.1523,483.6006 375.5469,472.6406 342.5,463.5 c -68.25,-15.75 -75.25,21.75 -78.5,33 0,0 20.75,-7.75 45.5,1.25 25.5,-10 37.25,-1.5 44.25,7 -9,-7.25 -38.25,-8 -41.75,-4.75 11.75,4.75 36.75,24 43.75,34.25 1.1152,1.2749 2.4336,3.6665 4.0205,7.9517 5.5908,3.6928 7.7354,6.3413 7.7354,6.3413 0,0 -7.1885,-9.9639 -9.0811,-11.4776 -0.6309,-2.144 0.5039,-2.5229 1.3867,-1.8921 -5.8017,-7.9458 -8.9551,-9.9638 -3.4052,-14.1259 -9.9639,-11.6036 -13.2432,-15.7661 -14.8829,-15.8921 9.0811,-0.3784 16.7745,1.5136 16.7745,1.5136 0,0 -3.2784,-6.0542 -6.9366,-7.3154 17.6582,-3.9101 31.4307,-2.5639 52.1026,12.4658 z"
       inkscape:connector-curvature="0" /><path
       id="path190"
       style="fill:#666464;fill-opacity:1;fill-rule:nonzero;stroke:none"
       d="m 232.6665,664.8335 c -5.6665,2.833 -3.5,-0.334 -4.5,-3.667 -1,-3.333 -2.333,-10.3335 -2.6665,-14.5 5.3335,7.8335 3.5005,8 9.8335,15.8335 1,0.8335 -2.667,2.3335 -2.667,2.3335 z"
       inkscape:connector-curvature="0" /><path
       id="path192"
       style="fill:#e4d8e2;fill-opacity:1;fill-rule:nonzero;stroke:none"
       d="m 219.6665,655.6665 c -22.5527,-4.229 -47.6665,-13.667 -54.1665,-18 -6.1665,-3.1665 9.5,-7.833 33.1665,-42.5 1.5005,-2.5 2.5005,-0.833 3.667,-0.333 7.6665,3.6665 15.167,6.333 16.3335,6.833 1.1665,0.5 1.5,0.5 1,2 -3,10.3335 -7.1665,10.167 1,29.3335 0,0 -1.5,19.6665 -1.0005,22.6665 z"
       inkscape:connector-curvature="0" /><path
       id="path194"
       style="fill:#000000;fill-opacity:0.25;fill-rule:nonzero;stroke:none"
       d="m 202.3335,594.8335 c -1.1665,-0.5 -2.1665,-2.167 -3.667,0.333 -23.6665,34.667 -39.333,39.3335 -33.1665,42.5 0.8979,0.5986 2.1509,1.2944 3.7031,2.0606 -0.7427,-3.335 -3.081,-2.5103 4.3448,-9.1104 7.4257,-6.6001 11.8256,-9.8999 19.2509,-18.9756 7.4253,-9.0757 8.0689,-12.5766 9.5347,-16.8076 z"
       inkscape:connector-curvature="0" /><path
       id="path196"
       style="fill:#e4d8e2;fill-opacity:1;fill-rule:nonzero;stroke:none"
       d="m 160.8335,633.6665 c -4.585,-13.7519 -11.3335,-36 -13.8335,-53.5 14.5,0.5 12,-0.5 18.3335,-0.5 6.8335,-0.1665 4.6665,0.5 31.6665,12.667 -4.6665,9 -11,18 -36.1665,41.333 z"
       inkscape:connector-curvature="0" /><path
       id="path198"
       style="fill:#000000;fill-opacity:0.39999007;fill-rule:nonzero;stroke:none"
       d="m 147,580.1665 c 2.5,17.5 9.2485,39.7481 13.8335,53.5 2.8169,-2.6118 5.3979,-5.0439 7.7671,-7.3169 C 158.9746,596.3779 150.1514,583.0684 147,580.1665 Z"
       inkscape:connector-curvature="0" /><path
       id="path200"
       style="fill:#e4d8e2;fill-opacity:1;fill-rule:nonzero;stroke:none"
       d="m 382.5,630.5 c 27.3848,2.2798 14.167,2.333 41,8.6665 9.667,2.6665 14.833,5.5 14.833,5.5 0,0 -6.166,27.8335 -15.666,33 C 409.833,676.833 390.833,675 389.333,674.5 c 0.334,-1.3335 -1.166,-1.3335 -1.166,-1.3335 0,0 0.499,-3.3335 -4.334,-9.3335 C 384.667,654.6665 382.5,648.5 382.5,630.5 Z"
       inkscape:connector-curvature="0" /><path
       id="path202"
       style="fill:#000000;fill-opacity:0.39999007;fill-rule:nonzero;stroke:none"
       d="m 384.5059,630.6685 c -0.6436,-0.0547 -1.3116,-0.1109 -2.0059,-0.1685 0,18 2.167,24.1665 1.333,33.333 4.833,6 4.334,9.3335 4.334,9.3335 0,0 1.5,0 1.166,1.3335 0.2744,0.0913 1.1358,0.2275 2.4375,0.394 -0.4121,-7.1503 -3.8496,-9.7636 -5.2246,-10.8632 -0.4131,-14.5757 -2.04,-33.3623 -2.04,-33.3623 z"
       inkscape:connector-curvature="0" /><path
       id="path204"
       style="fill:#e4d8e2;fill-opacity:1;fill-rule:nonzero;stroke:none"
       d="m 140.9487,379.5928 c 3.4063,-8.6699 13.0059,-37.4678 13.0059,-37.4678 l 30.6558,-17.96 c 0,0 -5.2637,16.7217 -5.8833,31.585 0,0 -17.6504,20.127 -21.0567,26.0107 -2.1675,-0.3095 -5.2646,-5.5742 -6.5029,-7.122 -1.5484,-2.7871 -2.7866,2.4775 -2.7866,2.4775 z"
       inkscape:connector-curvature="0" /><path
       id="path206"
       style="fill:#e4d8e2;fill-opacity:1;fill-rule:nonzero;stroke:none"
       d="M 35.9761,450.5049 C 9.6553,395.6963 4.0815,363.1826 -32.458,300.3223 c 0.3101,-8.0508 -6.1929,-13.0049 -8.3604,-25.0821 -1.5483,1.5489 -6.8125,-12.3857 -7.122,-17.0312 3.7158,-11.7666 15.1728,-30.0371 14.8633,-32.8233 13.625,-28.1787 70.2915,-65.956 91.3481,-85.1552 0,0 -2.4771,0.6191 -5.8833,2.7871 -3.4063,2.1679 -1.8574,-2.167 -11.1475,6.5029 -9.29,8.6699 -21.3662,14.5537 -26.3208,18.5791 13.9346,-18.8887 61.6211,-83.2969 77.104,-104.3535 8.6704,28.1777 40.8745,53.8799 57.2862,54.8086 -19.5083,25.082 -55.7378,69.0527 -59.4536,89.1807 -2.4771,17.0312 -17.6504,58.2119 -22.605,66.5732 -4.335,9.5996 -29.7266,14.8633 -36.2295,32.5137 8.0508,-11.4571 22.605,-21.0577 31.5849,-19.5088 28.4883,24.1543 58.8345,72.1513 65.9566,101.8779 -27.5596,29.4175 -59.4546,48.6162 -91.3486,57.9058 l 4.645,0.9292 z"
       inkscape:connector-curvature="0" /><path
       id="path208"
       style="fill:#000000;fill-opacity:0.25;fill-rule:nonzero;stroke:none"
       d="m 33.4902,445.2642 c 0,0 1.6363,3.4712 2.4859,5.2407 l 5.8833,-2.4785 -4.645,-0.9292 c 31.894,-9.2896 63.789,-28.4883 91.3486,-57.9058 -1.1441,-4.7744 -2.8872,-10.0205 -5.1255,-15.5635 -51.4014,69.772 -89.9473,71.6363 -89.9473,71.6363 z"
       inkscape:connector-curvature="0" /><path
       id="path210"
       style="fill:#000000;fill-opacity:0.25;fill-rule:nonzero;stroke:none"
       d="M 62.6064,287.3135 C 59.103,286.709 54.751,287.8018 50.2676,290.04 36.897,307.0088 34.1802,315.7031 34.1802,315.7031 45.4102,303.3867 62.6064,287.3135 62.6064,287.3135 Z"
       inkscape:connector-curvature="0" /><path
       id="path212"
       style="fill:#000000;fill-opacity:0.25;fill-rule:nonzero;stroke:none"
       d="m -23.8652,211.6152 c 18.7104,-22.6963 54.4809,-48.2793 74.8589,-65.1201 -20.9932,24.4903 -67.1358,64.9463 -71.3497,66.9688 0,-2.3604 -3.5092,-1.8487 -3.5092,-1.8487 z"
       inkscape:connector-curvature="0" /><path
       id="path214"
       style="fill:#666464;fill-opacity:1;fill-rule:nonzero;stroke:none"
       d="m 105.1143,81.0967 c -2.4561,-4.1446 -5.8326,-13.5088 -6.2935,-19.9561 5.833,3.0703 7.061,4.7598 12.5874,8.2901 -0.9209,7.5214 -6.2939,11.9736 -6.2939,11.9736"
       inkscape:connector-curvature="0" /><path
       id="path216"
       style="fill:#f5e4da;fill-opacity:1;fill-rule:nonzero;stroke:none"
       d="m 112.5,79.5 c 17.75,-48.5 55.5,-96.25 67.25,-92.25 0,23.25 13,14.75 20,34.75 -1,8.25 0,7.5 1.5,14.25 10,10.25 21,11.75 17,30 l 1.25,1 c 0,0 8,-18.5 -7,-27.75 C 195,29.75 205,23 201,16 194.75,3.5 180.5,2.75 180.75,-12.75 c 20.25,-0.25 39,-1 39,8.25 0,5.75 -10.625,0.875 -11.25,1.5 -1.25,1.25 -2.25,1.25 -3.75,1 0,0 6.75,3.75 20.5,3.5 11,0.5 13.25,8 13.25,8 -3,5 -16.25,5 -28.5,3 -2.75,-0.75 -2,0.5 -2,0.5 0,0 1,4.75 26.5,3 13.25,1 18.5,2 20.75,17 0,0 -5.25,6.75 -12.25,6.75 -7.5,-0.25 -14.25,-0.5 -15.25,0 -1,0.5 -3.75,2.25 -3.75,2.25 17,3.25 19.75,0.5 26.5,0.75 12,-0.25 18,4.75 18,12.25 0,7.5 -6.75,11.25 -19,14 -37.75,6.5 -30.5,25.75 -63,27.75 0,0 1.5,1 0.25,1.5 32.75,0 32.75,-24.5 65.5,-24.5 9,0 16,13 8.75,13 -25.5,0 -31.5,10 -43.25,24.75 -15.25,0 -16.75,-5 -30,-5 -13.25,0 -27.25,6.5 -34.5,9.5 C 129.5,116.75 114.5,85.5 112.5,79.5 Z"
       inkscape:connector-curvature="0" /><path
       id="path218"
       style="fill:#000000;fill-opacity:0.09999001;fill-rule:nonzero;stroke:none"
       d="M 257.6191,75.2734 C 256,74.3418 254.1704,73.75 252.25,73.75 c -20.6729,0 -28.2964,9.7617 -39.3442,16.9619 -1.854,3.8975 -4.7276,4.7422 -5.2344,5.334 -0.5068,0.5918 5e-4,1.4355 4.3945,0.084 18.169,-6.7598 31.8589,-20.6192 39.8028,-20.7881 2.4506,0.084 3.1347,-0.8125 5.7504,-0.0684 z"
       inkscape:connector-curvature="0" /><path
       id="path220"
       style="fill:#000000;fill-opacity:0.09999001;fill-rule:nonzero;stroke:none"
       d="M 220.8516,62.8828 C 222.2397,56.835 222.9297,45.9316 212.5,39.5 195,29.75 205,23 201,16 198.5859,11.1719 194.979,8.0967 191.4751,5.2471 184.6665,-5.667 183.6655,-9.6328 185.666,-12.8164 c 18.2676,-0.2402 34.0845,-0.1797 34.084,8.3164 0,5.75 -10.625,0.875 -11.25,1.5 -1.25,1.25 -2.25,1.25 -3.75,1 0,0 6.75,3.75 20.5,3.5 11,0.5 13.25,8 13.25,8 -2.0142,3.3574 -8.6494,4.46 -16.5005,4.2168 -11,-4.0498 -13.3335,-5.3828 -14,-7.0498 C 209.333,14 206.333,18 206.333,18 223.9995,33 227.5005,35.833 227.75,39.75 227.8213,40.8662 224,42 224,42 c 17,3.25 19.75,0.5 26.5,0.75 10.8633,-0.2266 16.8096,3.8496 17.8389,10.1895 C 249.333,49.333 232.333,45.001 230.333,45.667 c -4,-0.334 0,10.334 -4,14 -4,3.666 -4.6294,4.4316 -5.4814,3.2158 z"
       inkscape:connector-curvature="0" /><path
       id="path222"
       style="fill:#000000;fill-opacity:0.09999001;fill-rule:nonzero;stroke:none"
       d="M 145.6895,17.3457 C 133.3862,34.46 120.7715,56.8984 112.5,79.5 c 1.8501,5.5498 14.8213,32.7012 35.5503,36.1523 C 130.6665,88.333 120,69.999 126.6665,54.333 c 6.6665,-15.666 19.023,-36.9873 19.023,-36.9873 z"
       inkscape:connector-curvature="0" /><path
       id="path224"
       style="fill:#ffffff;fill-opacity:0.25;fill-rule:nonzero;stroke:none"
       d="M 185,103.667 C 180.3335,33 182.3335,26.333 183,20.333 c 0.6665,-6 9.3335,-16.667 8,-2 -1.3335,14.667 -6,85.334 -6,85.334 z"
       inkscape:connector-curvature="0" /><path
       id="path226"
       style="fill:#f5e4da;fill-opacity:1;fill-rule:nonzero;stroke:none"
       d="m 589.71,148.2686 -2.042,-1.0215 c 0,0 0.0547,21.9472 -2.8067,30.8789 -2.8613,8.9316 -0.3633,7.9131 -2.8613,15.8232 -2.498,7.9102 -7.3467,11.2276 -7.3467,11.2276 -3.8281,4.5937 -9.4414,7.4013 -13.0146,9.1875 l 5.8691,0.2548 -3.5723,3.0625 c 0,0 -8.4218,-1.2753 -16.5878,-4.083 l 1.5312,-0.7656 c 0,0 -15.0566,-10.4629 -28.0713,-28.8369 34.4512,-53.5908 20.1612,-26.0293 23.7334,-29.6025 6.124,-4.5938 6.8887,-25.5206 -15.3125,-30.1133 -11.7383,2.2968 -14.8017,2.8066 -18.6289,9.6972 0,0 -4.8486,6.8907 -9.9521,18.6309 -0.6221,-2.4883 -5.1036,-5.3584 -5.6143,-10.9727 -0.5107,-5.6142 5.3584,-5.6142 8.4209,-18.374 7.1455,-17.0996 10.208,-35.7285 29.0928,-21.9482 22.2011,10.208 40.5742,14.0361 43.1269,14.0361 2.5528,0 6.126,-1.5322 0.2559,-3.3183 -5.8701,-1.7862 -29.8584,-8.1661 -34.1963,-10.4629 -4.3379,-2.2969 -11.4834,-8.1651 -18.6289,-7.6553 -2.5518,0 -1.2764,-2.5518 0.2549,-4.8486 1.5312,-2.2969 4.3398,-7.6553 16.333,1.5312 11.9931,9.1865 20.414,7.9111 39.2988,12.7598 6.3799,-0.2559 5.1045,-3.0625 0.2559,-3.8282 -5.3594,-1.5312 -14.8028,-1.0214 -27.5616,-5.3593 -8.9316,-4.083 -11.9931,-8.6768 -17.6074,-10.4629 3.3174,-1.7862 4.083,-7.1455 4.083,-7.1455 1.0205,-4.3379 8.167,1.2754 12.7598,4.083 4.5928,2.8076 20.9258,9.4414 26.7949,11.2285 5.8692,1.7871 7.1446,-0.5107 2.8067,-2.5518 -4.3379,-2.041 -20.4161,-6.8916 -28.837,-13.0156 -2.2959,-2.041 -5.1035,-4.3379 -6.6347,-4.8486 0,0 1.7861,-1.5313 7.1455,2.5517 5.3594,4.083 22.9678,13.0147 37.5137,13.7803 7.1455,0 11.4834,5.8701 11.4834,7.6563 0,16.0771 -3.7735,31.6445 -11.4834,52.8252 m -10.4561,-28.8204 c 5.8838,8.2911 7.4883,11.4102 -0.624,28.0791 7.8447,-5.081 10.6972,-11.5878 10.6972,-15.8671 0,-4.2793 0.8917,-6.9532 -10.0732,-12.212 z"
       inkscape:connector-curvature="0" /><path
       id="path228"
       style="fill:#e4d8e2;fill-opacity:1;fill-rule:nonzero;stroke:none"
       d="m 586.9033,366.9746 3.8272,-2.2969 -4.083,4.083 c 0,0 -25.5186,22.2022 -31.1329,29.6026 13.0147,-8.6768 23.1114,-13.7793 26.4844,-17.0977 l 6.4346,-3.8281 -5.1035,4.3379 c 0,0 -7.6553,19.9053 -10.7178,24.7539 0,0 -2.2978,-4.8481 -3.5732,-5.8691 -1.5313,16.8427 6.125,77.3232 2.042,87.5312 -16.5879,-17.8633 -55.8877,-40.831 -60.7364,-31.6455 -1.6093,-17.7192 -9.1855,-33.6855 -10.9726,-36.4927 -1.7871,-2.8071 1.0205,-2.5522 1.0205,-7.1455 0,-33.4302 -10.208,-26.7954 -10.208,-48.2319 0,-35.9815 41.8515,-96.207 41.8515,-139.5899 0,-3.5722 1.2764,-13.2695 -0.2548,-17.0976 6.8906,6.8906 16.8427,14.8008 31.1337,17.6084 11.2286,-5.8692 22.712,-13.5244 25.7745,-22.7119 -2.2969,27.3056 0.5097,55.122 0.5097,97.2285 1.5313,11.2285 1.2764,41.0859 -1.0205,47.9756 -3.3174,10.4638 3.8281,9e-4 -1.2754,18.8857 m -64.3095,-65.3291 c 0.2548,13.0147 -0.2549,41.0859 2.8076,52.5703 0.5107,2.2969 2.5517,5.1035 2.8066,-4.083 -2.5517,-12.249 -3.8281,-32.4101 -3.8281,-36.748 0,-4.3379 0.7656,-5.8692 -1.7861,-11.7393 m 6.125,82.6826 c -14.2911,0.7657 -14.0362,11.4834 -19.1397,14.0352 -1.5312,1.0205 1.5313,1.5312 1.5313,1.5312 l 0.5107,-1.5312 c 0.7656,0.2549 3.0615,-1.0205 3.0615,-1.0205 8.9326,-15.5664 25.2647,-9.6973 33.9414,-3.3174 -1.0205,-4.5938 -5.6142,-10.4629 -19.9052,-9.6973 z"
       inkscape:connector-curvature="0" /><path
       id="path230"
       style="fill:#000000;fill-opacity:0.25;fill-rule:nonzero;stroke:none"
       d="m 572.1035,482.1904 c -0.1846,2.6636 -0.5117,4.7251 -1.0224,6.001 -16.5879,-17.8633 -55.8877,-40.831 -60.7364,-31.6455 -1.6093,-17.7192 -9.1855,-33.6855 -10.9726,-36.4927 -1.7871,-2.8071 1.0205,-2.5522 1.0205,-7.1455 0,-2.3501 -0.0508,-4.5024 -0.1446,-6.4805 17.4297,-4.3017 22.3145,-2.8647 22.3145,-2.8647 26.4355,51.7212 49.541,78.6279 49.541,78.6279 z"
       inkscape:connector-curvature="0" /><path
       id="path232"
       style="fill:#000000;fill-opacity:0.09999001;fill-rule:nonzero;stroke:none"
       d="m 547.7012,140.0732 c -1.6084,-6.6191 -6.9444,-13.4082 -18.4727,-15.7929 -11.7383,2.2968 -14.8017,2.8066 -18.6289,9.6972 0,0 -2.4707,3.5118 -5.7412,9.792 0,0 -2.0176,-5.0429 -6.9551,-8.6406 1.7862,-2.2969 4.0196,-5.4873 5.5508,-11.8672 1.9326,-4.623 3.5654,-9.3584 5.2939,-13.5351 1.587,0.9463 2.3555,-0.5909 2.3555,-0.5909 10.0879,9.6075 16.2373,12.3936 28.1504,15.3721 4.8994,0.961 9.8955,15.4678 8.4473,15.5654 z"
       inkscape:connector-curvature="0" /><path
       id="path234"
       style="fill:#000000;fill-opacity:0.09999001;fill-rule:nonzero;stroke:none"
       d="m 595.1592,132.0137 c 4.0439,-13.4854 6.0342,-24.8936 6.0342,-36.5703 0,-1.7862 -4.3379,-7.6563 -11.4834,-7.6563 -14.5459,-0.7656 -32.1543,-9.6973 -37.5137,-13.7803 -5.3594,-4.083 -7.1455,-2.5517 -7.1455,-2.5517 1.5312,0.5107 4.3388,2.8076 6.6347,4.8486 8.4209,6.124 24.4991,10.9746 28.837,13.0156 4.3379,2.0411 3.0625,4.3389 -2.8067,2.5518 -5.8691,-1.7871 -22.2021,-8.4209 -26.7949,-11.2285 -4.5928,-2.8076 -11.7393,-8.4209 -12.7598,-4.083 0,0 -0.7656,5.3593 -4.083,7.1455 5.6143,1.7861 8.6758,6.3799 17.6074,10.4629 12.7588,4.3379 22.2022,3.8281 27.5616,5.3593 4.8486,0.7657 6.124,3.5723 -0.2559,3.8282 -18.8848,-4.8487 -27.3057,-3.5733 -39.2988,-12.7598 -11.9932,-9.1865 -14.8018,-3.8281 -16.333,-1.5312 -1.5313,2.2968 -2.8067,4.8486 -0.2549,4.8486 7.1455,-0.5098 14.291,5.3584 18.6289,7.6553 4.3379,2.2968 28.3262,8.6767 34.1963,10.4629 1.4678,0.4462 2.206,1.164 2.7959,1.2714 10.0244,1.8223 10.0244,1.8223 11.1494,3.8223 1.125,2 2,13.75 0,19.5 2.875,-0.875 5.2842,-4.6113 5.2842,-4.6113 z"
       inkscape:connector-curvature="0" /><path
       id="path236"
       style="fill:#000000;fill-opacity:0.09999001;fill-rule:nonzero;stroke:none"
       d="m 502.2705,149.0107 c -0.5342,1.1416 -1.0771,2.3418 -1.623,3.5977 -0.6221,-2.4883 -5.1036,-5.3584 -5.6143,-10.9727 -0.1904,-2.1005 0.5117,-3.414 1.625,-4.9052 3.3418,6.1445 1.1328,6.041 5.6123,12.2802 z"
       inkscape:connector-curvature="0" /><path
       id="path238"
       style="fill:#000000;fill-opacity:0.09999001;fill-rule:nonzero;stroke:none"
       d="m 579.7695,199.0908 c -2.4101,4.2344 -5.1162,6.086 -5.1162,6.086 -3.8281,4.5937 -9.4414,7.4013 -13.0146,9.1875 l 5.8691,0.2548 -3.5723,3.0625 c 0,0 -8.4218,-1.2753 -16.5878,-4.083 l 1.5312,-0.7656 c 0,0 -15.0566,-10.4629 -28.0713,-28.8369 1.0684,-1.6611 2.0899,-3.2451 3.0664,-4.7539 16.9395,17.5283 24.8877,26.9941 55.8955,19.8486 z"
       inkscape:connector-curvature="0" /><path
       id="path240"
       style="fill:#e4d8e2;fill-opacity:1;fill-rule:nonzero;stroke:none"
       d="M 115.48,57.2764 C 106.3188,42.6191 80.9639,4.5439 72.335,-12.7139 h 95.8774 c 0,0 -25.4087,12.7139 -52.7324,69.9903 z"
       inkscape:connector-curvature="0" /><path
       id="path242"
       style="fill:#666464;fill-opacity:1;fill-rule:nonzero;stroke:none"
       d="m 218.5376,-13.4814 h 30.5615 c 0,0 0.5552,2.0751 5.3711,7.7783 -4.8154,3.8896 -11.854,10.372 -13.706,12.7802 -3.5191,-5.1855 -4.8155,-8.3339 -15.3731,-9.0751 0.1851,-9.0762 -6.8535,-11.4834 -6.8535,-11.4834 z"
       inkscape:connector-curvature="0" /><path
       id="path244"
       style="fill:#e4d8e2;fill-opacity:1;fill-rule:nonzero;stroke:none"
       d="m 372.8262,14.8574 c 4.9814,-6.4101 17.7812,-24.2646 21.4853,-27.9687 h 201.8897 c -10.5576,15.5586 -57.9727,75.7549 -69.6426,95.5732 0,0 -7.0371,1.4824 -8.7041,8.8906 -1.667,7.4082 -15.3731,7.5938 -17.7813,21.8555 -45.9355,-11.6699 -97.4257,-62.2353 -127.247,-98.3506 z"
       inkscape:connector-curvature="0" /></g></svg>