<?xml version="1.0" encoding="UTF-8" standalone="no"?>
<svg
   xmlns:dc="http://purl.org/dc/elements/1.1/"
   xmlns:cc="http://creativecommons.org/ns#"
   xmlns:rdf="http://www.w3.org/1999/02/22-rdf-syntax-ns#"
   xmlns:svg="http://www.w3.org/2000/svg"
   xmlns="http://www.w3.org/2000/svg"
   viewBox="0 0 1122.6667 793.33331"
   height="793.33331"
   width="1122.6667"
   xml:space="preserve"
   id="svg2"
   version="1.1"><metadata
     id="metadata8"><rdf:RDF><cc:Work
         rdf:about=""><dc:format>image/svg+xml</dc:format><dc:type
           rdf:resource="http://purl.org/dc/dcmitype/StillImage" /></cc:Work></rdf:RDF></metadata><defs
     id="defs6" /><g
     transform="matrix(1.3333333,0,0,-1.3333333,0,793.33333)"
     id="g10"><path
       id="path12"
       style="fill:#000000;fill-opacity:1;fill-rule:nonzero;stroke:none"
       d="m 473.59277,171.03906 c -1.76855,3.75782 -5.74707,5.52637 -5.74707,8.39942 0,1.54687 2.65235,7.95703 2.65235,17.90429 6.18945,0.88379 13.4834,2.87403 18.34668,5.52637 -1.98926,18.78809 -6.85254,41.77734 -7.73633,49.95606 4.4209,1.98925 20.99902,15.91503 20.99902,31.83007 0,9.50489 -8.39941,21.44043 -33.15625,29.84082 3.75781,4.64258 6.85254,11.27442 7.51563,16.3584 10.16797,2.65235 24.09375,14.14551 24.09375,32.27149 0,16.7998 -11.93653,22.54687 -17.46289,22.54687 -6.85254,0 -8.17871,-3.75781 -12.15723,-3.75781 -0.66309,5.30469 -3.09473,6.85156 -3.09473,9.72559 0,1.98925 3.53711,2.21093 3.75782,11.49462 0,4.64209 -0.66309,7.95752 -0.66309,7.95752 3.31543,2.43164 3.53711,4.42041 3.53711,7.07325 0,2.65283 0.2207,4.86328 -7.51563,9.28418 -4.20019,5.52587 -11.71582,11.49414 -20.55761,14.36767 -2.20996,1.10498 -2.21094,3.09473 -10.83106,3.09473 -8.62011,0 -52.16601,2.65185 -59.01855,0.2207 -8.8418,-2.21045 -30.28223,-13.26221 -30.28223,-21.44092 0,-6.63134 4.86231,-5.96777 4.86231,-7.95752 0,-1.98974 -2.43164,-3.53662 -2.43164,-8.6206 0,-7.95801 2.87402,-9.50488 2.87402,-11.93653 0,-2.43164 -5.52637,-8.62011 -5.52637,-15.25195 -7.51562,3.09473 -8.39941,3.31543 -12.82031,3.31543 -4.4209,0 -11.05176,-3.97851 -12.15723,-5.74707 -1.30078,0.16211 -1.64941,0.91992 -2.53125,1.31055 3.02344,8.21094 5.12207,13.9082 5.22754,14.1914 3.85156,10.32715 -1.39648,21.82129 -11.72461,25.67383 -10.32812,3.85254 -21.82226,-1.39746 -25.67383,-11.72461 -0.002,-0.005 -0.002,-0.009 -0.004,-0.0137 l -0.25,0.0937 -4.57324,-12.41797 c -0.1709,0.0889 -0.25879,0.12793 -0.25879,0.12793 -8.6211,0.88477 -18.78907,-1.32617 -15.69434,-13.4834 -5.74707,-4.4209 -9.72559,-8.17968 -5.30469,-19.45215 -3.18554,-3.93457 -6.20654,-11.52148 2.2334,-18.85839 l -5.41308,-14.69825 0.24902,-0.0928 c -0.002,-0.005 -0.004,-0.009 -0.006,-0.0127 -3.85205,-10.32715 1.39648,-21.82129 11.72461,-25.67383 10.32812,-3.85254 21.82324,1.39746 25.6748,11.72461 0.0742,0.20019 1.14551,3.1084 2.83496,7.69629 1.49512,-0.0186 2.71094,-0.0937 2.71094,-0.0937 0.44238,-4.64161 5.52637,-9.72559 9.94727,-9.72559 4.4209,0 5.08398,1.32617 7.73633,1.32617 3.09472,-5.74707 21.2207,-18.56836 27.18847,-22.10449 0,-8.17871 -8.39941,-61.22949 -10.61035,-87.75488 6.63086,-2.20996 12.15723,-2.87305 12.15723,-2.87305 0,-3.53711 -6.18848,-16.57813 -5.96778,-25.19922 -4.86328,-4.4209 -4.86425,-5.74805 -5.30566,-7.07422 -7.73633,-1.76758 -21.88281,-8.39941 -21.88281,-22.32519 0,-7.95703 2.65234,-9.72559 2.65234,-10.83106 0,-1.10547 -0.88672,-7.42676 5.9668,-11.22851 6.85351,-3.80176 8.17871,-3.36035 15.25293,-3.36035 7.07422,0 27.18945,0.88476 41.99902,9.94726 22.98828,2.43164 26.08301,4.4209 26.08301,13.4834 0,7.95801 -2.43164,9.94726 -2.43164,17.02051 0,2.65234 -2.21094,5.08398 -2.21094,6.41015 0,1.32618 9.28418,14.14649 11.27344,29.39844 0.44238,0.44238 1.54785,-0.44141 1.54785,-0.44141 -0.44238,-5.30566 -3.75781,-11.49414 -3.75781,-19.67285 0,-8.17871 0.88379,-12.15722 0.88379,-12.15722 -1.54688,-1.32715 -3.31543,-6.18946 -1.54688,-10.61036 -1.10547,-12.3789 -1.21582,-14.25683 3.09473,-18.56738 4.31054,-4.31054 8.62012,-5.08398 16.79883,-5.52637 8.17871,-0.44238 8.40039,0.44239 10.61035,0.44239 2.20996,0 15.69336,-7.95801 32.05078,-7.95801 15.25195,0 21.88379,3.09473 24.53613,10.83105 2.65235,3.53711 4.86328,7.29493 4.86328,11.93653 0,4.6416 -3.3164,21 -27.63086,25.8623 z" /><path
       id="path14"
       style="fill:#9f0011;fill-opacity:1;fill-rule:nonzero;stroke:none"
       d="m 295.68262,356.06055 c -1.04785,-1.67969 -3.12696,-3.8125 -6.66114,-6.63867 1.10547,-5.74708 -5.52636,-18.78907 -20.77832,-10.38965 -1.24804,0.6875 -2.35839,1.38379 -3.36523,2.08593 l -4.7627,-12.86621 h 0.002 c -0.004,-0.009 -0.006,-0.0156 -0.01,-0.0244 -3.15137,-8.51563 1.19727,-17.97266 9.71094,-21.12402 8.51562,-3.15332 17.97461,1.19531 21.125,9.70996 0.0693,0.18847 6.89453,18.62695 13.87988,37.49707 -2.91015,0.29004 -5.85742,0.81347 -9.14062,1.75 z" /><path
       id="path16"
       style="fill:#003b9f;fill-opacity:1;fill-rule:nonzero;stroke:none"
       d="m 310.00879,415.68066 c -8.51465,3.15235 -17.97363,-1.19531 -21.125,-9.71093 -0.003,-0.007 -0.005,-0.0147 -0.008,-0.0234 l -4.77149,-12.88867 c 2.09473,-1.375 5.53125,-3.8086 10.88574,-8.04785 10.07911,-7.97852 4.00391,-22.53125 1.66504,-25.10547 3.58594,-1.14063 6.91602,-1.97852 9.37403,-2.33496 6.91894,18.6914 13.62207,36.79882 13.6914,36.98632 3.15039,8.51465 -1.19531,17.97364 -9.71191,21.125 z" /><path
       id="path18"
       style="fill:#ffffff;fill-opacity:1;fill-rule:nonzero;stroke:none"
       d="m 271.55957,388.76758 c -2.98633,-2.98633 -3.53613,-11.49512 5.08398,-18.12598 8.62012,-6.63086 14.5879,-8.39941 17.68262,-5.08398 3.09473,3.31543 0.88477,15.03222 -4.8623,19.23144 -5.74707,4.19922 -14.25684,7.62598 -17.9043,3.97852 z" /><path
       id="path20"
       style="fill:#ffffff;fill-opacity:1;fill-rule:nonzero;stroke:none"
       d="m 266.47559,375.94727 c -3.9795,-3.31641 -7.29395,-11.27344 1.32617,-17.6836 8.62012,-6.41015 20.77734,-10.61133 23.87207,0.44141 -11.71485,2.43164 -19.45117,7.5166 -25.19824,17.24219 z" /><path
       id="path22"
       style="fill:#ffffff;fill-opacity:1;fill-rule:nonzero;stroke:none"
       d="m 332.125,334.39063 c -11.49414,10.83105 -19.01074,19.01074 -14.36816,37.79882 l -1.76758,0.44141 -17.24219,-43.98731 c 3.31641,-0.44238 6.41113,9.8e-4 15.47363,7.29493 0,-2.87403 -3.97851,-7.95801 -6.85254,-9.72657 -2.87402,-1.76855 -2.87402,-2.65332 -2.87402,-3.75781 0,-1.10449 3.09473,-5.30469 6.18945,-5.30469 3.09473,0 12.59961,3.09473 21.44141,17.24122 z" /><path
       id="path24"
       style="fill:#ffffff;fill-opacity:1;fill-rule:nonzero;stroke:none"
       d="m 262.49609,356.71582 c -1.76757,-1.54687 -2.43066,-9.28418 4.2002,-12.82031 9.28418,-4.6416 18.56738,-3.97852 17.9043,3.53711 -9.50489,-0.88477 -18.56739,7.51562 -22.1045,9.2832 z" /><path
       id="path26"
       style="fill:#ffffff;fill-opacity:1;fill-rule:nonzero;stroke:none"
       d="m 412.66504,232.04492 c -1.31445,-0.65722 -3.94238,-1.31445 -4.76367,-0.65722 -2.13574,-4.76368 -15.11231,-36.4668 -15.11231,-36.4668 -9.36328,0.49316 -39.91699,4.27148 -40.40918,4.59961 -1.64258,-3.61426 -6.07715,-14.61914 -6.07715,-19.38281 0,-3.1211 0.82129,-3.1211 2.46387,-3.1211 1.64258,0 1.6416,-1.14941 1.9707,-1.64258 -2.79199,-0.16406 -8.86914,-2.2998 -9.52636,-6.89941 6.89844,-1.14941 17.90332,-2.29883 31.04492,-13.30469 9.36328,-0.98633 20.2041,0.32715 23.32519,1.47754 3.1211,1.15039 3.28614,1.31445 3.28614,3.77832 0,6.07813 -2.62891,6.40625 -2.62891,8.70606 0,0.98535 1.14942,2.46386 4.76367,10.34863 3.61426,7.88476 4.92774,12.97754 4.76368,18.2334 -3.94239,0 -6.07813,0.3291 -7.22754,0.82129 -1.14942,0.49218 -0.65723,0.98535 1.80664,1.64257 2.46386,0.65723 17.57715,4.76465 22.01172,6.24219 -0.16407,2.95606 -8.2129,19.54785 -9.69141,25.625 z" /><path
       id="path28"
       style="fill:#ffffff;fill-opacity:1;fill-rule:nonzero;stroke:none"
       d="m 463.91504,195.74219 c -5.91406,-1.64258 -29.89746,-3.77735 -35.48145,-2.95606 -1.31347,0.49219 -2.29882,4.43555 -2.95605,5.74903 -2.13574,0 -5.09277,-0.16407 -6.89941,-4.92774 -1.80665,-4.76367 -4.27051,-11.99121 -4.27051,-15.93359 0,-3.94238 0.16406,-6.57129 0.82129,-7.7207 0.65722,-1.14942 3.77832,-0.49317 4.76367,0.16406 0.98535,0.65722 1.31445,-0.16309 -0.82129,-1.97071 -2.13574,-1.80761 -6.40723,-5.09277 -5.91406,-11.00585 9.52734,-0.98536 20.5332,0.65625 31.53906,5.09179 11.00586,4.43555 17.74121,7.55567 19.87598,8.04883 2.13476,0.49316 1.47851,4.27051 -2.13575,5.4209 -3.61425,1.15039 -3.61425,1.15039 -5.58496,1.31445 -1.9707,0.16406 -1.80664,1.31445 0.82129,1.64258 2.62793,0.32812 4.92774,-0.3291 5.58496,4.27051 0.65723,4.59961 0.65723,12.8125 0.65723,12.8125 z" /><path
       id="path30"
       style="fill:#ffffff;fill-opacity:1;fill-rule:nonzero;stroke:none"
       d="m 463.91504,195.74219 c -4.77441,-1.32617 -21.32031,-2.97168 -30.45996,-3.125 -0.0879,-2.04102 -0.0107,-3.80664 0.53515,-4.16992 0.84375,-0.56153 23.15723,-0.28614 29.87696,3.86914 0.0469,1.99316 0.0478,3.42578 0.0478,3.42578 z" /><path
       id="path32"
       style="fill:#ffffff;fill-opacity:1;fill-rule:nonzero;stroke:none"
       d="m 396.82617,251.4209 c 0,5.63965 2.28809,9.45605 5.11035,11.95703 -11.37402,6.00879 -26.65527,17.49609 -28.01855,17.49609 -1.40234,0 -14.49317,-5.37695 -16.59668,-5.37695 0.93457,7.0127 6.31152,27.11621 6.31152,27.11621 -9.35058,5.61035 -17.06445,13.3252 -21.97363,26.41602 -3.03906,0.46777 -6.54492,2.80468 -6.54492,2.80468 -2.10352,-5.14355 -10.05274,-13.79199 -13.5586,-16.12988 10.05176,-9.11621 25.71387,-19.87012 29.45411,-23.14258 -2.57129,-13.32422 -10.51954,-76.67285 -10.75293,-86.25683 11.6875,-2.33789 32.96093,-5.37598 49.08984,-6.31153 4.75195,12.52832 12.49219,32.03028 13.6416,34.9209 -3.72461,3.42578 -6.16211,9.74805 -6.16211,16.50684 z" /><path
       id="path34"
       style="fill:#ffffff;fill-opacity:1;fill-rule:nonzero;stroke:none"
       d="m 480.04492,259.83691 c 2.80567,-1.63671 17.06446,13.55762 17.06446,25.01172 0,12.15528 -18.7002,21.27246 -32.95997,24.54492 -0.23339,-1.16894 -2.80468,-2.33789 -2.80468,-2.33789 0.70117,-9.81738 4.208,-23.61035 4.4414,-32.25878 -13.32519,4.90917 -17.76562,7.24707 -18.93457,7.24707 -0.99707,0 -20.36523,-15.30957 -26.03027,-19.80469 2.43359,-3.53125 3.82226,-8.52246 3.82226,-14.09082 0,-7.13672 -3.02343,-11.41016 -6.94824,-13.70215 5.50489,-11.33691 16.29883,-36.32227 16.29883,-36.32227 11.68848,0 37.40234,3.27246 49.08984,9.58399 -3.03906,18.93457 -12.62304,81.34863 -12.62304,81.34863 1.63672,0 1.86914,-0.46777 3.50586,-1.87012 1.63672,-1.40234 3.27343,-2.33789 3.97461,-2.33789 0.70117,0 0.70117,-1.16797 0.70117,-2.10351 0,-0.93555 -1.40235,-1.87012 -1.40235,-3.03907 0,-1.16894 1.63575,-12.85644 2.80469,-19.86914 z" /><path
       id="path36"
       style="fill:#ffffff;fill-opacity:1;fill-rule:nonzero;stroke:none"
       d="m 421.60547,270.82324 c 13.79101,10.98633 22.20801,18.4668 23.37598,18.4668 1.16796,0 7.24609,-2.57129 14.25878,-4.67481 -1.87011,6.31153 -4.20703,12.62305 -4.6748,18.2334 -2.33789,-1.40332 -7.48145,-5.84375 -16.12988,-5.14258 -7.71387,-10.75292 -15.89453,-22.208 -16.83008,-26.88281 z" /><path
       id="path38"
       style="fill:#ffffff;fill-opacity:1;fill-rule:nonzero;stroke:none"
       d="m 369.00879,297.70605 c -1.16797,-6.07812 -3.73926,-13.79199 -3.73926,-13.79199 3.73926,-0.23437 7.71387,2.57129 9.11621,2.57129 1.40235,0 24.77832,-15.89551 24.77832,-15.89551 -5.84375,9.11621 -17.99902,24.54395 -17.99902,24.54395 -4.67578,0 -11.45508,1.63769 -12.15625,2.57226 z" /><path
       id="path40"
       style="fill:#ffffff;fill-opacity:1;fill-rule:nonzero;stroke:none"
       d="m 419.50098,282.04395 c -3.50586,-1.16895 -17.06446,-1.63672 -18.93457,-0.46778 2.10449,-4.6748 8.64941,-13.55762 10.51953,-13.55762 1.87011,0 5.60937,4.20801 8.41504,14.0254 z" /><path
       id="path42"
       style="fill:#ffffff;fill-opacity:1;fill-rule:nonzero;stroke:none"
       d="m 410.15137,263.10938 c -3.03907,0 -8.88379,-3.74122 -8.88379,-12.38965 0,-8.64844 4.6748,-14.49317 9.35058,-14.49317 3.97461,0 9.35059,3.50782 9.35059,12.85742 0,7.0127 -3.97266,14.0254 -9.81738,14.0254 z" /><path
       id="path44"
       style="fill:#ffffff;fill-opacity:1;fill-rule:nonzero;stroke:none"
       d="m 361.99902,296.33789 c 0.93555,3.66309 1.63379,6.27539 1.63379,6.27539 -9.35058,5.61035 -17.06445,13.3252 -21.97363,26.41602 -1.49316,0.22949 -3.09668,0.91015 -4.34375,1.54394 2.67578,-11.30273 9.55371,-23.9414 24.68359,-34.23535 z" /><path
       id="path46"
       style="fill:#ffffff;fill-opacity:1;fill-rule:nonzero;stroke:none"
       d="m 396.18457,266.65332 c -10.20215,6.15039 -21.12402,14.2207 -22.2666,14.2207 -1.13086,0 -9.85547,-3.49316 -14.29785,-4.84765 -0.79981,-1.55957 -0.68848,-2.54785 -0.37012,-3.02637 0.5,-0.75 7.75,4 10.25,4 2.5,0 22,-8.75 24,-9.75 0.74609,-0.37305 1.7373,-0.53711 2.68457,-0.59668 z" /><path
       id="path48"
       style="fill:#ffffff;fill-opacity:1;fill-rule:nonzero;stroke:none"
       d="m 426.60156,266.80762 c 5.08106,2.79883 17.82032,9.77539 18.57324,9.77539 0.94141,0 17.19532,-5.83692 17.69825,-5.83692 0.46972,0 0.33496,2.4668 0.11035,5.09473 -11.14746,4.19434 -15.04981,6.20313 -16.13184,6.20313 -0.76465,0 -12.34179,-9.01075 -20.25,-15.23633 z" /><path
       id="path50"
       style="fill:#ffffff;fill-opacity:1;fill-rule:nonzero;stroke:none"
       d="m 412.66504,232.04492 c -1.31445,-0.65722 -3.94238,-1.31445 -4.76367,-0.65722 -2.13574,-4.76368 -15.11231,-36.4668 -15.11231,-36.4668 -9.36328,0.49316 -39.91699,4.27148 -40.40918,4.59961 -0.48925,-1.07715 -1.22851,-2.81738 -2.02246,-4.84668 13.17969,-1.54199 36.57324,-4.50879 44.80274,-4.24317 0.46582,1.02539 1.79297,4.08106 3.48242,8.06543 -0.0322,0.0137 -0.0732,0.0254 -0.10449,0.0391 -0.93848,0.40234 -0.75977,0.80566 0.67089,1.29785 3.40332,8.0625 7.9629,19.16015 10.12305,25.45996 0,0 5.37793,-12.80274 8.83106,-20.15527 1.74511,0.51074 3.22461,0.95898 4.19336,1.28222 -0.16407,2.95606 -8.2129,19.54785 -9.69141,25.625 z" /><path
       id="path52"
       style="fill:#ffffff;fill-opacity:1;fill-rule:nonzero;stroke:none"
       d="m 405.21777,250.62988 c -1.82617,-4.97851 0.33203,-11.28515 2.48926,-11.28515 2.15723,0 2.49024,2.32422 0.9961,3.31933 -1.49415,0.99512 -2.98731,1.16114 -3.48536,7.96582 z" /><path
       id="path54"
       style="fill:#ffffff;fill-opacity:1;fill-rule:nonzero;stroke:none"
       d="m 487.20215,276.85156 c -1.44141,-2.73926 -4.63574,-6.72656 -8.4961,-8.38086 0.33985,-2.3164 0.70118,-4.68847 1.04004,-6.80468 5.32422,5.82421 7.76563,11.15722 7.45606,15.18554 z" /><path
       id="path56"
       style="fill:#ffffff;fill-opacity:1;fill-rule:nonzero;stroke:none"
       d="m 461.34473,307.05566 c 0.0781,-1.0957 0.19629,-2.24707 0.33593,-3.42968 1.94825,1.14355 4.1836,2.94629 6.042,4.8457 -1.21192,0.34375 -2.40821,0.6543 -3.57325,0.92187 -0.23339,-1.16894 -2.80468,-2.33789 -2.80468,-2.33789 z" /><path
       id="path58"
       style="fill:#ffffff;fill-opacity:1;fill-rule:nonzero;stroke:none"
       d="m 361.99902,296.33789 c 0.93555,3.66309 1.63379,6.27539 1.63379,6.27539 -9.35058,5.61035 -17.06445,13.3252 -21.97363,26.41602 -1.49316,0.22949 -3.09668,0.91015 -4.34375,1.54394 2.67578,-11.30273 9.55371,-23.9414 24.68359,-34.23535 z" /><path
       id="path60"
       style="fill:#ffffff;fill-opacity:1;fill-rule:nonzero;stroke:none"
       d="m 396.18457,266.65332 c -10.20215,6.15039 -21.12402,14.2207 -22.2666,14.2207 -1.13086,0 -9.85547,-3.49316 -14.29785,-4.84765 -0.79981,-1.55957 -0.68848,-2.54785 -0.37012,-3.02637 0.5,-0.75 7.75,4 10.25,4 2.5,0 22,-8.75 24,-9.75 0.74609,-0.37305 1.7373,-0.53711 2.68457,-0.59668 z" /><path
       id="path62"
       style="fill:#ffffff;fill-opacity:1;fill-rule:nonzero;stroke:none"
       d="m 426.60156,266.80762 c 5.08106,2.79883 17.82032,9.77539 18.57324,9.77539 0.94141,0 17.19532,-5.83692 17.69825,-5.83692 0.46972,0 0.33496,2.4668 0.11035,5.09473 -11.14746,4.19434 -15.04981,6.20313 -16.13184,6.20313 -0.76465,0 -12.34179,-9.01075 -20.25,-15.23633 z" /><path
       id="path64"
       style="fill:#ffffff;fill-opacity:1;fill-rule:nonzero;stroke:none"
       d="m 412.66504,232.04492 c -1.31445,-0.65722 -3.94238,-1.31445 -4.76367,-0.65722 -2.13574,-4.76368 -15.11231,-36.4668 -15.11231,-36.4668 -9.36328,0.49316 -39.91699,4.27148 -40.40918,4.59961 -0.48925,-1.07715 -1.22851,-2.81738 -2.02246,-4.84668 13.17969,-1.54199 36.57324,-4.50879 44.80274,-4.24317 0.46582,1.02539 1.79297,4.08106 3.48242,8.06543 -0.0322,0.0137 -0.0732,0.0254 -0.10449,0.0391 -0.93848,0.40234 -0.75977,0.80566 0.67089,1.29785 3.40332,8.0625 7.9629,19.16015 10.12305,25.45996 0,0 5.37793,-12.80274 8.83106,-20.15527 1.74511,0.51074 3.22461,0.95898 4.19336,1.28222 -0.16407,2.95606 -8.2129,19.54785 -9.69141,25.625 z" /><path
       id="path66"
       style="fill:#ffffff;fill-opacity:1;fill-rule:nonzero;stroke:none"
       d="m 405.21777,250.62988 c -1.82617,-4.97851 0.33203,-11.28515 2.48926,-11.28515 2.15723,0 2.49024,2.32422 0.9961,3.31933 -1.49415,0.99512 -2.98731,1.16114 -3.48536,7.96582 z" /><path
       id="path68"
       style="fill:#ffffff;fill-opacity:1;fill-rule:nonzero;stroke:none"
       d="m 487.20215,276.85156 c -1.44141,-2.73926 -4.63574,-6.72656 -8.4961,-8.38086 0.33985,-2.3164 0.70118,-4.68847 1.04004,-6.80468 5.32422,5.82421 7.76563,11.15722 7.45606,15.18554 z" /><path
       id="path70"
       style="fill:#ffffff;fill-opacity:1;fill-rule:nonzero;stroke:none"
       d="m 461.34473,307.05566 c 0.0781,-1.0957 0.19629,-2.24707 0.33593,-3.42968 1.94825,1.14355 4.1836,2.94629 6.042,4.8457 -1.21192,0.34375 -2.40821,0.6543 -3.57325,0.92187 -0.23339,-1.16894 -2.80468,-2.33789 -2.80468,-2.33789 z" /><path
       id="path72"
       style="fill:#ffffff;fill-opacity:1;fill-rule:nonzero;stroke:none"
       d="m 361.99902,296.33789 c 0.93555,3.66309 1.63379,6.27539 1.63379,6.27539 -9.35058,5.61035 -17.06445,13.3252 -21.97363,26.41602 -1.49316,0.22949 -3.09668,0.91015 -4.34375,1.54394 2.67578,-11.30273 9.55371,-23.9414 24.68359,-34.23535 z" /><path
       id="path74"
       style="fill:#ffffff;fill-opacity:1;fill-rule:nonzero;stroke:none"
       d="m 396.18457,266.65332 c -10.20215,6.15039 -21.12402,14.2207 -22.2666,14.2207 -1.13086,0 -9.85547,-3.49316 -14.29785,-4.84765 -0.79981,-1.55957 -0.68848,-2.54785 -0.37012,-3.02637 0.5,-0.75 7.75,4 10.25,4 2.5,0 22,-8.75 24,-9.75 0.74609,-0.37305 1.7373,-0.53711 2.68457,-0.59668 z" /><path
       id="path76"
       style="fill:#ffffff;fill-opacity:1;fill-rule:nonzero;stroke:none"
       d="m 426.60156,266.80762 c 5.08106,2.79883 17.82032,9.77539 18.57324,9.77539 0.94141,0 17.19532,-5.83692 17.69825,-5.83692 0.46972,0 0.33496,2.4668 0.11035,5.09473 -11.14746,4.19434 -15.04981,6.20313 -16.13184,6.20313 -0.76465,0 -12.34179,-9.01075 -20.25,-15.23633 z" /><path
       id="path78"
       style="fill:#ffffff;fill-opacity:1;fill-rule:nonzero;stroke:none"
       d="m 412.66504,232.04492 c -1.31445,-0.65722 -3.94238,-1.31445 -4.76367,-0.65722 -2.13574,-4.76368 -15.11231,-36.4668 -15.11231,-36.4668 -9.36328,0.49316 -39.91699,4.27148 -40.40918,4.59961 -0.48925,-1.07715 -1.22851,-2.81738 -2.02246,-4.84668 13.17969,-1.54199 36.57324,-4.50879 44.80274,-4.24317 0.46582,1.02539 1.79297,4.08106 3.48242,8.06543 -0.0322,0.0137 -0.0732,0.0254 -0.10449,0.0391 -0.93848,0.40234 -0.75977,0.80566 0.67089,1.29785 3.40332,8.0625 7.9629,19.16015 10.12305,25.45996 0,0 5.37793,-12.80274 8.83106,-20.15527 1.74511,0.51074 3.22461,0.95898 4.19336,1.28222 -0.16407,2.95606 -8.2129,19.54785 -9.69141,25.625 z" /><path
       id="path80"
       style="fill:#ffffff;fill-opacity:1;fill-rule:nonzero;stroke:none"
       d="m 405.21777,250.62988 c -1.82617,-4.97851 0.33203,-11.28515 2.48926,-11.28515 2.15723,0 2.49024,2.32422 0.9961,3.31933 -1.49415,0.99512 -2.98731,1.16114 -3.48536,7.96582 z" /><path
       id="path82"
       style="fill:#ffffff;fill-opacity:1;fill-rule:nonzero;stroke:none"
       d="m 487.20215,276.85156 c -1.44141,-2.73926 -4.63574,-6.72656 -8.4961,-8.38086 0.33985,-2.3164 0.70118,-4.68847 1.04004,-6.80468 5.32422,5.82421 7.76563,11.15722 7.45606,15.18554 z" /><path
       id="path84"
       style="fill:#ffffff;fill-opacity:1;fill-rule:nonzero;stroke:none"
       d="m 461.34473,307.05566 c 0.0781,-1.0957 0.19629,-2.24707 0.33593,-3.42968 1.94825,1.14355 4.1836,2.94629 6.042,4.8457 -1.21192,0.34375 -2.40821,0.6543 -3.57325,0.92187 -0.23339,-1.16894 -2.80468,-2.33789 -2.80468,-2.33789 z" /><path
       id="path86"
       style="fill:#ffffff;fill-opacity:1;fill-rule:nonzero;stroke:none"
       d="m 412.66504,232.04492 c -1.31445,-0.65722 -3.94238,-1.31445 -4.76367,-0.65722 -2.13574,-4.76368 -15.11231,-36.4668 -15.11231,-36.4668 -9.36328,0.49316 -39.91699,4.27148 -40.40918,4.59961 -1.64258,-3.61426 -6.07715,-14.61914 -6.07715,-19.38281 0,-3.1211 0.82129,-3.1211 2.46387,-3.1211 1.64258,0 1.6416,-1.14941 1.9707,-1.64258 -2.79199,-0.16406 -8.86914,-2.2998 -9.52636,-6.89941 6.89844,-1.14941 17.90332,-2.29883 31.04492,-13.30469 9.36328,-0.98633 20.2041,0.32715 23.32519,1.47754 3.1211,1.15039 3.28614,1.31445 3.28614,3.77832 0,6.07813 -2.62891,6.40625 -2.62891,8.70606 0,0.98535 1.14942,2.46386 4.76367,10.34863 3.61426,7.88476 4.92774,12.97754 4.76368,18.2334 -3.94239,0 -6.07813,0.3291 -7.22754,0.82129 -1.14942,0.49218 -0.65723,0.98535 1.80664,1.64257 2.46386,0.65723 17.57715,4.76465 22.01172,6.24219 -0.16407,2.95606 -8.2129,19.54785 -9.69141,25.625 z" /><path
       id="path88"
       style="fill:#ffffff;fill-opacity:1;fill-rule:nonzero;stroke:none"
       d="m 463.91504,195.74219 c -5.91406,-1.64258 -29.89746,-3.77735 -35.48145,-2.95606 -1.31347,0.49219 -2.29882,4.43555 -2.95605,5.74903 -2.13574,0 -5.09277,-0.16407 -6.89941,-4.92774 -1.80665,-4.76367 -4.27051,-11.99121 -4.27051,-15.93359 0,-3.94238 0.16406,-6.57129 0.82129,-7.7207 0.65722,-1.14942 3.77832,-0.49317 4.76367,0.16406 0.98535,0.65722 1.31445,-0.16309 -0.82129,-1.97071 -2.13574,-1.80761 -6.40723,-5.09277 -5.91406,-11.00585 9.52734,-0.98536 20.5332,0.65625 31.53906,5.09179 11.00586,4.43555 17.74121,7.55567 19.87598,8.04883 2.13476,0.49316 1.47851,4.27051 -2.13575,5.4209 -3.61425,1.15039 -3.61425,1.15039 -5.58496,1.31445 -1.9707,0.16406 -1.80664,1.31445 0.82129,1.64258 2.62793,0.32812 4.92774,-0.3291 5.58496,4.27051 0.65723,4.59961 0.65723,12.8125 0.65723,12.8125 z" /><path
       id="path90"
       style="fill:#b4b4b4;fill-opacity:1;fill-rule:nonzero;stroke:none"
       d="m 463.91504,195.74219 c -4.77441,-1.32617 -21.32031,-2.97168 -30.45996,-3.125 -0.0879,-2.04102 -0.0107,-3.80664 0.53515,-4.16992 0.84375,-0.56153 23.15723,-0.28614 29.87696,3.86914 0.0469,1.99316 0.0478,3.42578 0.0478,3.42578 z" /><path
       id="path92"
       style="fill:#ffffff;fill-opacity:1;fill-rule:nonzero;stroke:none"
       d="m 396.82617,251.4209 c 0,5.63965 2.28809,9.45605 5.11035,11.95703 -11.37402,6.00879 -26.65527,17.49609 -28.01855,17.49609 -1.40234,0 -14.49317,-5.37695 -16.59668,-5.37695 0.93457,7.0127 6.31152,27.11621 6.31152,27.11621 -9.35058,5.61035 -17.06445,13.3252 -21.97363,26.41602 -3.03906,0.46777 -6.54492,2.80468 -6.54492,2.80468 -2.10352,-5.14355 -10.05274,-13.79199 -13.5586,-16.12988 10.05176,-9.11621 25.71387,-19.87012 29.45411,-23.14258 -2.57129,-13.32422 -10.51954,-76.67285 -10.75293,-86.25683 11.6875,-2.33789 32.96093,-5.37598 49.08984,-6.31153 4.75195,12.52832 12.49219,32.03028 13.6416,34.9209 -3.72461,3.42578 -6.16211,9.74805 -6.16211,16.50684 z" /><path
       id="path94"
       style="fill:#ffffff;fill-opacity:1;fill-rule:nonzero;stroke:none"
       d="m 480.04492,259.83691 c 2.80567,-1.63671 17.06446,13.55762 17.06446,25.01172 0,12.15528 -18.7002,21.27246 -32.95997,24.54492 -0.23339,-1.16894 -2.80468,-2.33789 -2.80468,-2.33789 0.70117,-9.81738 4.208,-23.61035 4.4414,-32.25878 -13.32519,4.90917 -17.76562,7.24707 -18.93457,7.24707 -0.99707,0 -20.36523,-15.30957 -26.03027,-19.80469 2.43359,-3.53125 3.82226,-8.52246 3.82226,-14.09082 0,-7.13672 -3.02343,-11.41016 -6.94824,-13.70215 5.50489,-11.33691 16.29883,-36.32227 16.29883,-36.32227 11.68848,0 37.40234,3.27246 49.08984,9.58399 -3.03906,18.93457 -12.62304,81.34863 -12.62304,81.34863 1.63672,0 1.86914,-0.46777 3.50586,-1.87012 1.63672,-1.40234 3.27343,-2.33789 3.97461,-2.33789 0.70117,0 0.70117,-1.16797 0.70117,-2.10351 0,-0.93555 -1.40235,-1.87012 -1.40235,-3.03907 0,-1.16894 1.63575,-12.85644 2.80469,-19.86914 z" /><path
       id="path96"
       style="fill:#ffffff;fill-opacity:1;fill-rule:nonzero;stroke:none"
       d="m 421.60547,270.82324 c 13.79101,10.98633 22.20801,18.4668 23.37598,18.4668 1.16796,0 7.24609,-2.57129 14.25878,-4.67481 -1.87011,6.31153 -4.20703,12.62305 -4.6748,18.2334 -2.33789,-1.40332 -7.48145,-5.84375 -16.12988,-5.14258 -7.71387,-10.75292 -15.89453,-22.208 -16.83008,-26.88281 z" /><path
       id="path98"
       style="fill:#ffffff;fill-opacity:1;fill-rule:nonzero;stroke:none"
       d="m 369.00879,297.70605 c -1.16797,-6.07812 -3.73926,-13.79199 -3.73926,-13.79199 3.73926,-0.23437 7.71387,2.57129 9.11621,2.57129 1.40235,0 24.77832,-15.89551 24.77832,-15.89551 -5.84375,9.11621 -17.99902,24.54395 -17.99902,24.54395 -4.67578,0 -11.45508,1.63769 -12.15625,2.57226 z" /><path
       id="path100"
       style="fill:#ffffff;fill-opacity:1;fill-rule:nonzero;stroke:none"
       d="m 419.50098,282.04395 c -3.50586,-1.16895 -17.06446,-1.63672 -18.93457,-0.46778 2.10449,-4.6748 8.64941,-13.55762 10.51953,-13.55762 1.87011,0 5.60937,4.20801 8.41504,14.0254 z" /><path
       id="path102"
       style="fill:#ffffff;fill-opacity:1;fill-rule:nonzero;stroke:none"
       d="m 410.15137,263.10938 c -3.03907,0 -8.88379,-3.74122 -8.88379,-12.38965 0,-8.64844 4.6748,-14.49317 9.35058,-14.49317 3.97461,0 9.35059,3.50782 9.35059,12.85742 0,7.0127 -3.97266,14.0254 -9.81738,14.0254 z" /><path
       id="path104"
       style="fill:#d8d0d0;fill-opacity:1;fill-rule:nonzero;stroke:none"
       d="m 361.99902,296.33789 c 0.93555,3.66309 1.63379,6.27539 1.63379,6.27539 -9.35058,5.61035 -17.06445,13.3252 -21.97363,26.41602 -1.49316,0.22949 -3.09668,0.91015 -4.34375,1.54394 2.67578,-11.30273 9.55371,-23.9414 24.68359,-34.23535 z" /><path
       id="path106"
       style="fill:#d8d0d0;fill-opacity:1;fill-rule:nonzero;stroke:none"
       d="m 396.18457,266.65332 c -10.20215,6.15039 -21.12402,14.2207 -22.2666,14.2207 -1.13086,0 -9.85547,-3.49316 -14.29785,-4.84765 -0.79981,-1.55957 -0.68848,-2.54785 -0.37012,-3.02637 0.5,-0.75 7.75,4 10.25,4 2.5,0 22,-8.75 24,-9.75 0.74609,-0.37305 1.7373,-0.53711 2.68457,-0.59668 z" /><path
       id="path108"
       style="fill:#d8d0d0;fill-opacity:1;fill-rule:nonzero;stroke:none"
       d="m 426.60156,266.80762 c 5.08106,2.79883 17.82032,9.77539 18.57324,9.77539 0.94141,0 17.19532,-5.83692 17.69825,-5.83692 0.46972,0 0.33496,2.4668 0.11035,5.09473 -11.14746,4.19434 -15.04981,6.20313 -16.13184,6.20313 -0.76465,0 -12.34179,-9.01075 -20.25,-15.23633 z" /><path
       id="path110"
       style="fill:#d8d0d0;fill-opacity:1;fill-rule:nonzero;stroke:none"
       d="m 412.66504,232.04492 c -1.31445,-0.65722 -3.94238,-1.31445 -4.76367,-0.65722 -2.13574,-4.76368 -15.11231,-36.4668 -15.11231,-36.4668 -9.36328,0.49316 -39.91699,4.27148 -40.40918,4.59961 -0.48925,-1.07715 -1.22851,-2.81738 -2.02246,-4.84668 13.17969,-1.54199 36.57324,-4.50879 44.80274,-4.24317 0.46582,1.02539 1.79297,4.08106 3.48242,8.06543 -0.0322,0.0137 -0.0732,0.0254 -0.10449,0.0391 -0.93848,0.40234 -0.75977,0.80566 0.67089,1.29785 3.40332,8.0625 7.9629,19.16015 10.12305,25.45996 0,0 5.37793,-12.80274 8.83106,-20.15527 1.74511,0.51074 3.22461,0.95898 4.19336,1.28222 -0.16407,2.95606 -8.2129,19.54785 -9.69141,25.625 z" /><path
       id="path112"
       style="fill:#d8d0d0;fill-opacity:1;fill-rule:nonzero;stroke:none"
       d="m 405.21777,250.62988 c -1.82617,-4.97851 0.33203,-11.28515 2.48926,-11.28515 2.15723,0 2.49024,2.32422 0.9961,3.31933 -1.49415,0.99512 -2.98731,1.16114 -3.48536,7.96582 z" /><path
       id="path114"
       style="fill:#d8d0d0;fill-opacity:1;fill-rule:nonzero;stroke:none"
       d="m 487.20215,276.85156 c -1.44141,-2.73926 -4.63574,-6.72656 -8.4961,-8.38086 0.33985,-2.3164 0.70118,-4.68847 1.04004,-6.80468 5.32422,5.82421 7.76563,11.15722 7.45606,15.18554 z" /><path
       id="path116"
       style="fill:#d8d0d0;fill-opacity:1;fill-rule:nonzero;stroke:none"
       d="m 461.34473,307.05566 c 0.0781,-1.0957 0.19629,-2.24707 0.33593,-3.42968 1.94825,1.14355 4.1836,2.94629 6.042,4.8457 -1.21192,0.34375 -2.40821,0.6543 -3.57325,0.92187 -0.23339,-1.16894 -2.80468,-2.33789 -2.80468,-2.33789 z" /><path
       id="path118"
       style="fill:#b4b4b4;fill-opacity:1;fill-rule:nonzero;stroke:none"
       d="m 361.99902,296.33789 c 0.93555,3.66309 1.63379,6.27539 1.63379,6.27539 -9.35058,5.61035 -17.06445,13.3252 -21.97363,26.41602 -1.49316,0.22949 -3.09668,0.91015 -4.34375,1.54394 2.67578,-11.30273 9.55371,-23.9414 24.68359,-34.23535 z" /><path
       id="path120"
       style="fill:#b4b4b4;fill-opacity:1;fill-rule:nonzero;stroke:none"
       d="m 396.18457,266.65332 c -10.20215,6.15039 -21.12402,14.2207 -22.2666,14.2207 -1.13086,0 -9.85547,-3.49316 -14.29785,-4.84765 -0.79981,-1.55957 -0.68848,-2.54785 -0.37012,-3.02637 0.5,-0.75 7.75,4 10.25,4 2.5,0 22,-8.75 24,-9.75 0.74609,-0.37305 1.7373,-0.53711 2.68457,-0.59668 z" /><path
       id="path122"
       style="fill:#b4b4b4;fill-opacity:1;fill-rule:nonzero;stroke:none"
       d="m 426.60156,266.80762 c 5.08106,2.79883 17.82032,9.77539 18.57324,9.77539 0.94141,0 17.19532,-5.83692 17.69825,-5.83692 0.46972,0 0.33496,2.4668 0.11035,5.09473 -11.14746,4.19434 -15.04981,6.20313 -16.13184,6.20313 -0.76465,0 -12.34179,-9.01075 -20.25,-15.23633 z" /><path
       id="path124"
       style="fill:#b4b4b4;fill-opacity:1;fill-rule:nonzero;stroke:none"
       d="m 412.66504,232.04492 c -1.31445,-0.65722 -3.94238,-1.31445 -4.76367,-0.65722 -2.13574,-4.76368 -15.11231,-36.4668 -15.11231,-36.4668 -9.36328,0.49316 -39.91699,4.27148 -40.40918,4.59961 -0.48925,-1.07715 -1.22851,-2.81738 -2.02246,-4.84668 13.17969,-1.54199 36.57324,-4.50879 44.80274,-4.24317 0.46582,1.02539 1.79297,4.08106 3.48242,8.06543 -0.0322,0.0137 -0.0732,0.0254 -0.10449,0.0391 -0.93848,0.40234 -0.75977,0.80566 0.67089,1.29785 3.40332,8.0625 7.9629,19.16015 10.12305,25.45996 0,0 5.37793,-12.80274 8.83106,-20.15527 1.74511,0.51074 3.22461,0.95898 4.19336,1.28222 -0.16407,2.95606 -8.2129,19.54785 -9.69141,25.625 z" /><path
       id="path126"
       style="fill:#d8d0d0;fill-opacity:1;fill-rule:nonzero;stroke:none"
       d="m 405.21777,250.62988 c -1.82617,-4.97851 0.33203,-11.28515 2.48926,-11.28515 2.15723,0 2.49024,2.32422 0.9961,3.31933 -1.49415,0.99512 -2.98731,1.16114 -3.48536,7.96582 z" /><path
       id="path128"
       style="fill:#b4b4b4;fill-opacity:1;fill-rule:nonzero;stroke:none"
       d="m 487.20215,276.85156 c -1.44141,-2.73926 -4.63574,-6.72656 -8.4961,-8.38086 0.33985,-2.3164 0.70118,-4.68847 1.04004,-6.80468 5.32422,5.82421 7.76563,11.15722 7.45606,15.18554 z" /><path
       id="path130"
       style="fill:#d8d0d0;fill-opacity:1;fill-rule:nonzero;stroke:none"
       d="m 461.34473,307.05566 c 0.0781,-1.0957 0.19629,-2.24707 0.33593,-3.42968 1.94825,1.14355 4.1836,2.94629 6.042,4.8457 -1.21192,0.34375 -2.40821,0.6543 -3.57325,0.92187 -0.23339,-1.16894 -2.80468,-2.33789 -2.80468,-2.33789 z" /><path
       id="path132"
       style="fill:#470c0c;fill-opacity:1;fill-rule:nonzero;stroke:none"
       d="m 338.1416,163.09473 c -8.56055,0 -20.05664,-6.6045 -20.05664,-15.6543 0,-6.84863 3.18067,-11.74023 8.56152,-12.22949 5.38086,-0.48926 21.52344,-1.22364 30.32911,0.7334 8.80566,1.95703 15.65527,3.91406 19.0791,6.60449 6.35937,-0.48926 21.52441,0.73242 23.72558,4.15722 0.97754,1.46778 -0.48925,6.6045 -0.48925,6.6045 -1.95704,-1.71192 -13.20801,-5.1377 -27.88379,-2.93555 -13.45313,8.56152 -18.34571,12.71973 -33.26563,12.71973 z" /><path
       id="path134"
       style="fill:#870303;fill-opacity:1;fill-rule:nonzero;stroke:none"
       d="m 399.78027,144.50488 c -3.17968,-2.20117 -9.29589,-4.1582 -23.2373,-4.1582 -9.29395,-4.8916 -12.96484,-9.0498 -53.81055,-7.09277 9.8e-4,-3.42481 2.20215,-8.07129 14.43262,-8.07129 12.23047,0 23.72461,2.69043 30.81836,5.38086 7.09375,2.69043 10.76172,6.35937 20.05664,6.35937 9.29492,0 11.74023,3.42383 11.74023,7.58203 z" /><path
       id="path136"
       style="fill:#ffffff;fill-opacity:1;fill-rule:nonzero;stroke:none"
       d="m 331.0498,158.93652 c -4.64746,-0.97851 -10.76171,-3.66894 -10.76171,-8.80566 0,-3.66895 1.71191,-3.66895 2.93457,-3.66895 1.22265,0 1.95703,0.24317 1.95703,3.42383 0,2.93555 1.71191,6.11621 5.87011,9.05078 z" /><path
       id="path138"
       style="fill:#470c0c;fill-opacity:1;fill-rule:nonzero;stroke:none"
       d="m 473.15918,165.54004 c -7.33789,0 -18.09863,-4.8916 -20.79004,-9.04981 -2.69141,-4.1582 -4.64746,-2.69043 -3.4248,-1.22265 1.22265,1.46777 2.44629,4.40234 2.44629,4.40234 -4.15821,-2.44629 -19.81153,-7.82715 -28.37305,-7.82715 -2.11328,0 -6.24512,1.125 -6.57227,1.21485 l -0.0283,0.0254 c -1.91699,-2.16699 -7.75,-10.41602 8.66602,-10.33301 0.22754,0 0.47558,0.0176 0.73437,0.043 8.01856,0.005 14.32129,0.48926 14.32129,0.48926 4.64746,-3.42481 17.85645,-8.80567 32.77637,-8.80567 14.91992,0 23.72559,9.8e-4 23.72559,11.25196 0,9.0498 -7.3379,19.81152 -23.48145,19.81152 z" /><path
       id="path140"
       style="fill:#ffffff;fill-opacity:1;fill-rule:nonzero;stroke:none"
       d="m 471.93652,160.40332 c 5.625,-0.7334 12.2295,-2.68945 13.20801,-5.625 1.46777,-5.13672 5.86914,-5.13672 5.625,-1.95703 -0.24414,3.17969 -4.1582,8.80566 -13.69726,8.80566 -2.20118,0 -5.13575,-1.22363 -5.13575,-1.22363 z" /><path
       id="path142"
       style="fill:#870303;fill-opacity:1;fill-rule:nonzero;stroke:none"
       d="m 417.63672,142.30371 c 0.7334,-4.40234 5.13574,-7.09277 11.98437,-7.09277 6.84864,0 10.02735,9.7e-4 12.71875,0.48926 4.15821,-3.18067 18.34571,-8.56153 31.79786,-8.56153 12.22949,0 16.87695,3.17969 16.87695,6.35938 -3.17969,-0.24414 -6.84863,-1.71192 -16.3877,-1.71192 -9.53906,0 -24.70507,2.20117 -33.99902,8.31641 -5.87012,-0.24512 -16.63086,-0.97852 -22.99121,2.20117 z" /><path
       id="path144"
       style="fill:#f4bdbd;fill-opacity:1;fill-rule:nonzero;stroke:none"
       d="m 366.75,398 c -5,-1.75 -6.5,-6 -6.5,-11 0,-8.75 5.25,-13.25 5.25,-16.5 0,-3.25 -4.75,-2 -4.75,-3.25 0,-1.25 0.25,-4 -0.75,-5 -1,-1 -5.875,0.875 -7.75,-1 -1.875,-1.875 -7.75,-8.25 -7.75,-19 0,-26.25 28.5,-41 34.25,-41 1.25,0 1.25,4.25 2.75,4.25 0,-4.5 9.25,-19.75 28.25,-19.75 20,0 29.25,20 29.25,23.5 2,0 0.5,-5.75 1.75,-5.75 12,0 32,17 32,34.5 0,15.25 -3.75,18.25 -4.5,19 -0.75,0.75 -4.875,-0.875 -8,2.25 -2.5,2.5 -0.625,4.375 -2,5.75 -1.375,1.375 -6.5,1.25 -6.5,6.5 0,5.25 5.5,5.75 5.5,14.25 0,8.5 -4,9.25 -11.75,12.5 -7.75,3.25 -18.25,8 -38.75,8 -29,0 -38.25,-7.75 -40,-8.25 z" /><path
       id="path146"
       style="fill:#000000;fill-opacity:1;fill-rule:nonzero;stroke:none"
       d="m 452.25,361.5 c -1.25,0 -1.25,-0.75 -2,-3.25 -0.75,-2.5 -2.75,-13.25 -13,-14 -1.5,10 -6.5,24.25 -30.75,24.25 -14,0 -29,-7.25 -31.5,-21.25 -1.625,-1.625 -11.25,5 -13.25,8.75 -2,3.75 -4,1.75 -5.25,0.25 -1.25,-1.5 -2.25,-4.25 -2.25,-7.75 0,-3.5 1.75,-10.25 7.75,-13.25 1,-1 -0.25,-5.5 4.25,-10 4.5,-4.5 8.25,-3.75 10,-3.75 1.75,0 5.75,1.25 6.75,1.25 0.5,-1.5 4.25,-4.75 4.25,-4.75 2,-2.5 3.75,-3.5 9.5,-3.5 5.75,0 9.75,2.25 13,4 2.75,-2 12.75,-6.5 17.75,-2.75 5,3.75 6.75,4.75 7.25,6.25 1.75,0.25 9.75,-1.5 14.25,3 2.5,2.5 3.5,5.75 3.25,8.75 4,2.5 9.25,6.25 9.25,13.5 0,8 -7,14.25 -9.25,14.25 z" /><path
       id="path148"
       style="fill:#f4bdbd;fill-opacity:1;fill-rule:nonzero;stroke:none"
       d="m 405.20996,365.16992 c -12.74023,0 -25.48144,-8.63183 -25.48144,-18.49512 0,-6.98632 8.2207,-20.13867 24.66015,-20.13867 13.15137,0 28.76953,4.52051 28.76953,17.26172 0,9.45313 -7.39843,21.37207 -27.94824,21.37207 z" /><path
       id="path150"
       style="fill:#f4bdbd;fill-opacity:1;fill-rule:nonzero;stroke:none"
       d="m 483.71094,380.37695 c -4.52051,0 -8.21973,-1.64453 -10.68555,-3.69922 0.82129,-2.87695 0.82227,-7.80859 -0.41113,-14.38476 2.46582,0 7.80957,6.98633 15.20703,4.52051 C 489.87598,365.58105 486.75,366 485.25,366 c -1.5,0 -6.75,-1.5 -9.5,-7.25 0,-2.25 3,-1 4.25,-1 1.25,0 2.25,-0.25 0.5,-1.25 -1.75,-1 -3.25,-3.75 -5,-4 0.5,-2 1.5,-5.75 1.5,-14.25 3.25,-1.25 18.75,7.5 18.75,26.75 0,10.25 -7.32812,15.37695 -12.03906,15.37695 z" /><path
       id="path152"
       style="fill:#f4bdbd;fill-opacity:1;fill-rule:nonzero;stroke:none"
       d="m 335.5,378.5 c -5.5,0 -15.25,-5 -15.25,-16.75 0,-7 6.5,-19.5 19,-26.25 0.5,11 2.5,14.25 2.5,16 0,2 -3,3.75 -8.5,6 2,1 3.5,2.25 7.75,0.5 0,2.25 -4.5,7 -8.75,8.25 -4.25,1.25 1.25,1.5 3,1.25 1.75,-0.25 6.25,-1.75 7.75,-4.25 1.5,-2.5 4.5,-0.5 4.5,1.5 -1.25,2 -2,5.5 -2,8.25 -3.25,3.5 -7,5.5 -10,5.5 z" /><path
       id="path154"
       style="fill:#000000;fill-opacity:1;fill-rule:nonzero;stroke:none"
       d="m 387,320.75 c 1.25,-8.5 6.5,-27.75 21.25,-27.75 12.25,0 19.75,9.5 20.75,26.25 -12,3.25 -18.25,5.5 -42,1.5 z" /><path
       id="path156"
       style="fill:#635a5a;fill-opacity:1;fill-rule:nonzero;stroke:none"
       d="m 409.75,318.5 c -3.25,-1.75 -7.25,-4 -13,-4 -1.91895,0 -3.38477,0.11426 -4.57129,0.35547 0.42578,-3.3125 1.5293,-6.26172 2.32129,-6.85547 2,1 7.75,3.25 12.25,0.5 1.75,-1 2.75,-0.75 4.25,0.5 1.5,1.25 3.5,2 6.75,2 3.25,0 4.25,-1.75 5.75,-4.5 1.30078,2.22949 2.18457,5.5625 2.55469,8.46191 -5.27735,-2.16503 -13.79785,1.71485 -16.30469,3.53809 z" /><path
       id="path158"
       style="fill:#df0038;fill-opacity:1;fill-rule:nonzero;stroke:none"
       d="m 402,306.5 c -2.5,0 -4.25,-1.75 -4.75,-2.5 1.75,-3 5.75,-7.5 10.5,-7.5 4.75,0 12.25,2.5 14.25,8.75 -3,2.25 -5.25,1.75 -7.75,0.75 -2.5,-1 -3.5,-2.75 -4.25,-2.75 -2.25,0 -4.5,3.25 -8,3.25 z" /><path
       id="path160"
       style="fill:#000000;fill-opacity:1;fill-rule:nonzero;stroke:none"
       d="m 395,393.25 c -5,3.5 -7,4 -9.75,4 -2.75,0 -12.75,-2 -12.75,-15 0,-7.5 3.75,-20.5 9,-24 3.5,2 7,4.5 12,7.25 4.5,1 6,0.75 6,0.75 l -2.75,23 z" /><path
       id="path162"
       style="fill:#ffffff;fill-opacity:1;fill-rule:nonzero;stroke:none"
       d="m 382.5,361.25 c 0.25488,-0.19141 0.52637,-0.29492 0.80566,-0.33496 1.25489,1.01855 2.61426,1.93262 4.05079,2.74805 -3.65235,3.75879 -5.60645,9.6416 -5.60645,13.58691 0,4 1.5,13.25 7.75,13.25 7.5,0 1.75,3.5 -2.25,3.5 -4,0 -11.75,-2.75 -11.75,-13.5 0,-8.25 5,-17.75 7,-19.25 z" /><path
       id="path164"
       style="fill:#00d5ff;fill-opacity:1;fill-rule:nonzero;stroke:none"
       d="m 388.5,365.25 c 0.33301,-0.29199 0.61426,-0.45703 0.85742,-0.54395 0.38965,0.1875 0.78321,0.36817 1.18164,0.542 C 390.70898,365.61133 390.75,366 390.75,366 c -2.75,2.75 -4.25,6.25 -4.25,10.5 0,4.25 2,10.25 5.5,10.25 2,0 2.5,-0.25 3.25,-1 0.75,-0.75 0.75,3 -3.5,3 -4,0 -9,-2.75 -9,-10.75 0,-3 0.5,-8.25 5.75,-12.75 z" /><path
       id="path166"
       style="fill:#000000;fill-opacity:1;fill-rule:nonzero;stroke:none"
       d="m 379.5,410.5 c -5,0 -15.5,-5.5 -10.75,-23.25 C 373.25,400.5 379,402 382,402 c 3,0 13,0 14.5,-24.25 0,-9.25 0.25,-11.5 0.25,-11.5 l 3.5,1 C 402,387.5 394.5,410.5 379.5,410.5 Z" /><path
       id="path168"
       style="fill:#000000;fill-opacity:1;fill-rule:nonzero;stroke:none"
       d="m 426.25,397.25 c -2.5,0 -5.5,-0.25 -6.75,-1 -1.25,-0.75 -3.25,-3.25 -3.75,-10.5 -0.5,-7.25 0.5,-18 0.75,-19.25 3.75,-1.75 6.75,-2 9.75,-5.75 3,-3.75 4,-3.75 4.5,-3 4.25,2.25 8.75,7 8.75,17.5 0,10.75 -3.25,22 -13.25,22 z" /><path
       id="path170"
       style="fill:#ffffff;fill-opacity:1;fill-rule:nonzero;stroke:none"
       d="m 392,379 c -1.5,0 -1.75,-1.25 -1.75,-2 0,-0.75 -0.25,-2.75 1.5,-2.75 2,0 2.25,2 2.25,3 0,1 -1,1.75 -2,1.75 z" /><path
       id="path172"
       style="fill:#ffffff;fill-opacity:1;fill-rule:nonzero;stroke:none"
       d="m 418.75,387.5 c 1.5,1 2.25,1.25 3.75,1.25 1.5,0 9.25,-0.75 9.25,-10.5 0,-8.34961 -4.09277,-12.59473 -6.42285,-14.05273 2.27832,-1.34668 4.11621,-2.94336 5.61523,-4.68262 3.47754,3.08789 6.30762,7.04394 6.30762,14.23535 0,8 -2.25,20.75 -12.75,20.75 -3,0 -5.25,-1.75 -6.25,-3.75 -1,-2 -1,-4.25 0.5,-3.25 z" /><path
       id="path174"
       style="fill:#00d5ff;fill-opacity:1;fill-rule:nonzero;stroke:none"
       d="m 422,384 c 1.5,0 5,-1 5,-7.25 0,-6.25 -2.75,-8 -4,-9.25 -0.57422,-0.57422 -0.53711,-1.43555 -0.15234,-2.02051 0.43554,-0.19629 0.85937,-0.40039 1.26855,-0.6123 0.35059,0.0488 0.73535,0.23437 1.13379,0.63281 1.875,1.875 5,6.25 5,11.25 0,5 -2,10.25 -6.75,10.25 -2.5,0 -5.75,-2.25 -5,-3 0.75,-0.75 2,0 3.5,0 z" /><path
       id="path176"
       style="fill:#ffffff;fill-opacity:1;fill-rule:nonzero;stroke:none"
       d="m 421.5,377.5 c -1.25,0 -1.5,-1 -1.5,-2 0,-1 0.25,-2.75 1.25,-2.75 1,0 1.5,0.5 1.5,2 0,1.5 -0.25,2.75 -1.25,2.75 z" /><path
       id="path178"
       style="fill:#000000;fill-opacity:1;fill-rule:nonzero;stroke:none"
       d="m 430.5,410.75 c -5.25,0 -20.75,-6.75 -17,-42.25 0.25,-2.5 6.25,-3 6.25,-3 -2.25,18.75 -4,36.75 9.75,36.75 8.5,0 15,-11.25 16.25,-15.75 1.25,10.75 -3.5,24.25 -15.25,24.25 z" /><path
       id="path180"
       style="fill:#470c0c;fill-opacity:1;fill-rule:nonzero;stroke:none"
       d="m 358.15625,394.60449 c -5.42676,-2.99511 -8.98242,-9.35742 -8.98242,-20.21191 0,-5.80176 1.87109,-8.9834 4.49121,-8.9834 2.62012,0 5.05273,0.56055 5.05273,2.43262 0,1.49804 2.2461,1.49804 2.2461,2.80761 0,1.30957 -4.11719,3.55567 -4.11719,9.35743 0,3.18164 1.68457,8.98242 1.68457,10.66699 0,1.68457 -0.375,3.93066 -0.375,3.93066 z" /><path
       id="path182"
       style="fill:#470c0c;fill-opacity:1;fill-rule:nonzero;stroke:none"
       d="m 458.83496,392.08594 c 1.52149,-3.99512 1.71192,-6.65723 1.71192,-10.08106 0,-5.89648 -3.80469,-8.94043 -3.80469,-10.65234 0,-3.61328 4.75586,-0.38086 4.75586,-2.47266 0,-2.09179 -0.19141,-7.41797 4.37402,-7.41797 2.09277,0 4.18457,3.80469 4.18457,8.75 0,4.94532 -3.04199,18.44922 -4.37402,20.35157 -1.33203,1.90234 -4.375,4.37597 -6.84766,1.52246 z" /><path
       id="path184"
       style="fill:#470c0c;fill-opacity:1;fill-rule:nonzero;stroke:none"
       d="m 351.91699,423.62207 c 0,-1.70557 1.51563,-5.11621 3.22168,-5.11621 1.70606,0 10.80176,7.76904 53.0586,7.76904 38.84668,0 55.71191,-12.88525 57.79589,-12.88525 2.08399,0 2.46289,3.979 2.46289,5.87402 0,1.89502 -0.94726,4.73731 -6.44238,7.01123 -2.27344,1.32666 -2.65234,4.54785 -6.06347,6.63233 -3.41114,2.08447 -7.01075,2.08496 -8.7168,3.41113 -1.70606,1.32617 -9.28613,5.49512 -23.49805,5.30566 -14.21191,-0.18945 -41.68847,1.51612 -47.37305,-0.94726 -5.68457,-2.46338 -24.44531,-11.55957 -24.44531,-17.05469 z" /><path
       id="path186"
       style="fill:#d8d0d0;fill-opacity:1;fill-rule:nonzero;stroke:none"
       d="m 353.64941,407.49268 c 0,-6.65772 1.33204,-9.3208 3.61426,-9.3208 4.94531,0 23.96582,11.98339 50.59571,11.98339 34.61718,0 49.83496,-14.83593 53.44824,-14.83593 3.61328,0 4.18457,1.90136 4.18457,7.03711 0,5.13623 0.19043,4.9458 -7.6084,7.98925 -7.79883,3.04346 -16.92774,10.08106 -52.6875,10.08106 -35.75977,0 -49.64453,-7.0376 -50.40527,-7.98877 -0.76075,-0.95117 -1.14161,-2.28223 -1.14161,-4.94531 z" /><path
       id="path188"
       style="fill:#000000;fill-opacity:1;fill-rule:nonzero;stroke:none"
       d="m 437.10547,443.55518 c 0,-17.00196 -13.7832,-30.78467 -30.78516,-30.78467 -17.00195,0 -30.78515,13.78271 -30.78515,30.78467 0,17.00195 13.7832,30.78466 30.78515,30.78466 17.00196,0 30.78516,-13.78271 30.78516,-30.78466 z" /><path
       id="path190"
       style="fill:#e2d7d7;fill-opacity:1;fill-rule:nonzero;stroke:none"
       d="m 379.46484,443.55518 c 0,14.83154 12.02344,26.85498 26.85547,26.85498 14.83203,0 26.85547,-12.02344 26.85547,-26.85498 0,-14.83155 -12.02344,-26.85498 -26.85547,-26.85498 -14.83203,0 -26.85547,12.02343 -26.85547,26.85498 z" /><path
       id="path192"
       style="fill:#b4b4b4;fill-opacity:1;fill-rule:nonzero;stroke:none"
       d="m 411.62305,469.88428 c -1.71485,0.34326 -3.48731,0.52588 -5.30274,0.52588 -14.83203,0 -26.85547,-12.02344 -26.85547,-26.85498 0,-5.88038 1.89551,-11.31495 5.10059,-15.73829 z" /><path
       id="path194"
       style="fill:none;stroke:#000000;stroke-width:1;stroke-linecap:butt;stroke-linejoin:miter;stroke-miterlimit:4;stroke-dasharray:none;stroke-opacity:1"
       d="m 381.64844,443.55518 c 0,13.62548 11.0459,24.67138 24.67187,24.67138 13.62598,0 24.67188,-11.0459 24.67188,-24.67138 0,-13.62549 -11.0459,-24.67139 -24.67188,-24.67139 -13.62597,0 -24.67187,11.0459 -24.67187,24.67139 z" /><path
       id="path196"
       style="fill:#000000;fill-opacity:1;fill-rule:nonzero;stroke:none"
       d="m 402.6084,443.55518 c 0,2.05029 1.66211,3.71191 3.71191,3.71191 2.04981,0 3.71192,-1.66162 3.71192,-3.71191 0,-2.0503 -1.66211,-3.71192 -3.71192,-3.71192 -2.0498,0 -3.71191,1.66162 -3.71191,3.71192 z" /></g></svg>