<?xml version="1.0" encoding="UTF-8" standalone="no"?>
<svg
   xmlns:dc="http://purl.org/dc/elements/1.1/"
   xmlns:cc="http://creativecommons.org/ns#"
   xmlns:rdf="http://www.w3.org/1999/02/22-rdf-syntax-ns#"
   xmlns:svg="http://www.w3.org/2000/svg"
   xmlns="http://www.w3.org/2000/svg"
   viewBox="0 0 416.21332 748.34668"
   height="748.34668"
   width="416.21332"
   xml:space="preserve"
   id="svg2"
   version="1.1"><metadata
     id="metadata8"><rdf:RDF><cc:Work
         rdf:about=""><dc:format>image/svg+xml</dc:format><dc:type
           rdf:resource="http://purl.org/dc/dcmitype/StillImage" /></cc:Work></rdf:RDF></metadata><defs
     id="defs6" /><g
     transform="matrix(1.3333333,0,0,-1.3333333,0,748.34667)"
     id="g10"><g
       transform="scale(0.1)"
       id="g12"><path
         id="path14"
         style="fill:#231f20;fill-opacity:1;fill-rule:nonzero;stroke:none"
         d="m 1860.06,5585.37 c 12.31,-3.79 22.74,-11.37 36.46,-11.37 3.79,-9.94 14.69,-4.25 20.37,-9.47 46.89,-16.1 83.81,-56.35 127.39,-79.55 19.41,-31.73 51.62,-52.57 72.93,-83.82 l -2.37,-2.37 c 110.33,-152.49 143.01,-371.26 86.19,-559.26 28.87,7.1 62.97,-9.48 81.92,-29.36 50.67,-77.19 22.72,-187.53 -11.37,-266.14 -43.57,-81.45 -111.28,-173.32 -211.2,-181.84 -26.99,-52.09 -80.97,-85.24 -129.75,-108.92 -18,-13.27 -37.89,-21.31 -56.83,-31.73 1.42,-23.21 -3.79,-54.46 4.74,-77.66 26.03,-7.1 53.98,-9.95 79.55,-18 27.94,23.21 62.52,44.04 99.93,31.73 29.34,-8.52 40.71,-56.83 79.54,-47.83 63,-18.94 141.6,-13.73 197.48,-56.83 l 2.37,2.37 c 17.51,-18.46 22.25,-42.62 22.72,-68.19 8.05,-17.05 30.32,-21.31 45.47,-31.72 74.35,-49.26 80.03,-135.44 116.02,-204.58 8.53,0.95 1.42,-8.99 6.63,-11.36 11.36,-25.1 41.67,-30.79 45.46,-59.2 70.08,-93.29 136.86,-181.84 179.47,-286.5 17.05,-42.62 31.26,-86.19 41.21,-131.65 26.51,-105.6 53.03,-256.19 -22.74,-349.95 -40.72,-57.3 -104.18,-87.61 -159.11,-125.02 -37.41,-18.47 -75.77,-34.56 -118.39,-41.2 -14.2,-33.15 -52.56,-18.94 -74.82,-38.35 -21.78,-8.53 -40.25,-24.63 -68.19,-18.48 -4.73,-17.51 6.62,-43.09 -7.11,-58.72 6.63,-12.78 -5.21,-23.68 -4.25,-36.45 38.82,-35.99 13.25,-88.09 4.25,-129.77 13.73,-23.19 2.85,-62.02 9.48,-90.91 38.83,-64.4 68.18,-133.07 102.28,-199.84 5.22,-39.31 35.04,-69.14 45.46,-107.02 32.69,-56.84 44.52,-122.18 77.2,-179.49 48.3,-121.22 86.66,-250.03 125.01,-372.67 30.31,-125.5 43.57,-260.93 49.72,-393.05 40.25,-163.86 73.87,-344.751 59.19,-525.169 -7.56,-50.672 -28.4,-95.66 -43.09,-143.492 -10.41,-33.148 -30.3,-65.34 -31.72,-99.918 -10.42,-2.84 -8.06,-15.621 -13.74,-22.73 82.88,-36.942 160.07,-88.071 241.04,-129.27 50.68,-47.84 151.06,-75.781 156.75,-159.1327 -0.95,-6.6289 -6.63,-11.3594 -11.37,-16.086 C 3070.94,9.30078 3019.8,5.98828 2978.6,5.03906 2955.39,-3.48828 2929.82,1.71875 2900.93,0.300781 2829.9,0.78125 2758.4,27.7617 2687.35,43.3906 c -66.76,11.3711 -137.8,33.1485 -208.82,34.0899 -68.2,6.6406 -162.43,6.1679 -209.32,70.5705 -6.15,61.558 30.31,110.808 45.46,166.211 -31.24,13.269 -78.6,22.738 -83.81,65.828 -1.43,23.199 11.37,44.039 6.63,65.82 -91.4,81.922 -204.1,155.32 -238.67,272.762 -25.1,66.297 -38.84,137.34 -61.56,204.578 0,33.621 -16.58,60.621 -20.37,93.29 -32.2,26.52 -56.83,60.62 -59.19,102.29 6.63,39.3 -38.36,51.62 -38.36,88.55 -38.83,161 -73.87,323.92 -136.39,474.97 -31.25,62.5 -12.78,145.37 -72.92,195.58 -33.62,-53.51 -65.35,-101.81 -111.28,-150.12 16.1,-71.97 -51.62,-120.28 -63.46,-186.1 -3.79,-15.63 -11.37,-28.9 -11.37,-45.46 l -4.73,-4.74 c -24.62,-67.23 10.89,-158.16 -77.19,-190.84 -11.36,-3.32 -24.15,-10.43 -27.47,-22.73 2.38,-19.88 -14.2,-35.99 -2.37,-54.46 7.11,-73.87 -105.6,-96.13 -95.18,-172.85 3.79,-82.868 -93.76,-130.22 -95.66,-213.56 -12.31,-57.3 -34.09,-110.351 -77.18,-154.859 0,-17.039 -25.11,-11.359 -27.47,-26.992 -14.68,-2.84 -25.104,-21.309 -38.357,-22.727 -18.942,-9.004 -33.625,-28.41 -54.461,-32.203 -26.993,-31.258 -69.137,-40.25 -86.661,-79.559 -2.843,-23.199 20.836,-35.519 29.836,-56.82 21.313,-47.84 73.871,-102.769 34.09,-156.75 -42.14,-56.351 -117.433,-68.199 -181.84,-77.191 -49.246,-12.778 -93.289,-39.297 -147.75,-38.828 -22.254,-15.621 -55.879,-4.27 -75.293,-26.989 -22.257,-2.843 -43.089,-8.531 -63.457,-16.101 C 390.16,138.109 346.117,131.941 305.395,118.68 234.836,110.172 172.801,86.9492 100.82,95.9609 90.4023,104 77.6133,97.3711 64.3555,104.961 c -15.6289,2.359 -37.8867,2.359 -52.0899,16.09 -6.15622,10.89 -15.15232,21.308 -11.367162,36 C 28.8398,200.621 65.3047,232.34 107.453,259.328 c 64.871,50.192 132.113,102.293 206.942,132.121 16.097,12.313 38.355,20.84 56.824,31.731 23.203,10.422 44.984,23.199 65.824,38.832 12.785,15.636 -3.789,30.297 -6.633,45.457 3.793,20.84 -3.789,41.203 -25.097,52.101 -8.524,6.141 -22.727,17.512 -26.993,29.36 -16.097,58.25 32.676,112.23 -7.101,166.211 -16.574,51.621 -4.739,102.757 -13.735,156.738 -0.472,62.98 -1.418,128.331 18.469,188.481 21.309,58.25 22.735,124.54 34.094,186.58 9.469,31.72 8.523,72.92 18,107.02 19.41,78.61 32.672,160.06 59.191,236.3 54.93,214.53 138.274,417.67 227.305,617.99 26.516,44.99 53.035,89.5 79.559,134.02 2.363,3.31 6.625,2.84 8.996,7.1 -6.633,14.2 -22.731,27.93 -34.094,36.46 -32.676,31.26 -42.149,80.03 -26.996,122.66 7.097,17.05 36.465,23.19 20.359,47.82 -13.262,43.56 27.942,90.45 -8.992,126.91 -9,45.46 -66.773,45.46 -90.922,81.93 -28.414,1.89 -60.617,10.42 -72.926,36.46 5.211,35.99 -39.308,39.3 -59.195,59.2 -93.289,80.97 -197,181.84 -213.574,306.85 3.316,21.31 12.785,42.15 8.996,63.46 22.258,80.51 45.937,162.43 95.664,229.67 24.621,41.68 68.187,81.46 93.289,122.66 74.82,78.13 170.473,139.69 245.293,213.57 16.105,26.99 28.891,55.88 56.832,72.92 26.52,36.47 59.188,62.04 95.652,84.3 15.633,29.83 37.414,59.66 74.825,61.08 45.931,24.15 97.081,35.05 145.381,52.57 47.35,-0.95 99.92,-0.48 145.38,8.99 5.69,15.16 21.78,23.68 34.09,31.73 45.94,10.9 81.93,-28.88 125.02,-17.99 9.48,4.26 30.78,-1.42 36.46,13.26 l 2.37,79.55 c -65.82,42.15 -149.16,71.04 -188.47,147.75 -83.34,-7.58 -132.12,62.52 -191.31,102.29 -2.85,9.94 -12.79,19.89 -22.73,22.73 -65.83,82.4 -83.824,198.89 -54.47,297.86 17.53,25.1 41.21,59.67 77.2,59.2 10.88,-0.95 18.94,-3.32 29.83,-6.63 -10.42,67.25 -17.05,124.54 -20.37,197.47 5.69,116.02 50.67,225.88 120.29,320.59 125.49,133.54 281.76,251.93 465.97,243.41 59.2,14.21 113.18,-8.52 168.11,-22.73" /><path
         id="path16"
         style="fill:#f9d38c;fill-opacity:1;fill-rule:nonzero;stroke:none"
         d="m 1973.72,5496.34 c 30.3,-23.67 54.45,-48.3 84.3,-74.82 2.83,-11.84 20.35,-21.78 26.98,-34.09 49.73,-70.09 89.03,-147.75 98.03,-232.05 l 4.26,-4.25 c 20.84,-132.61 7.1,-270.41 -40.73,-388.79 -35.05,-126.91 -74.81,-251.93 -113.65,-377.42 -50.19,-95.19 -160.06,-123.6 -245.29,-172.85 -84.77,-47.36 -165.28,-9.95 -245.78,20.84 -100.39,36.46 -227.31,95.65 -252.41,213.56 -44.04,154.86 -114.12,299.29 -140.64,461.24 -48.3,200.32 35.04,384.05 181.85,516.18 81.45,71.03 179.95,121.7 286.49,143.01 18.94,7.1 42.15,4.26 61.08,11.37 104.19,0 210.27,-26.99 295.51,-81.93" /><path
         id="path18"
         style="fill:#231f20;fill-opacity:1;fill-rule:nonzero;stroke:none"
         d="m 1653.13,5492.08 c -1.43,-7.1 -4.73,-13.26 -11.37,-18.47 -9.01,2.84 -20.36,5.21 -24.63,13.74 -5.67,14.68 8.05,20.83 18,22.73 8.04,-0.95 17.04,-9.95 18,-18" /><path
         id="path20"
         style="fill:#231f20;fill-opacity:1;fill-rule:nonzero;stroke:none"
         d="m 1778.14,5492.08 c -2.85,-6.16 -1.89,-16.58 -11.36,-18.47 -5.69,5.21 -16.11,-0.47 -20.36,9.47 0,9 -0.95,19.89 8.99,22.74 10.89,2.84 21.31,-3.79 22.73,-13.74" /><path
         id="path22"
         style="fill:#ffffff;fill-opacity:1;fill-rule:nonzero;stroke:none"
         d="m 1637.49,5489.71 c -1.89,2.84 -7.57,3.32 -2.36,6.63 h 2.36 v -6.63" /><path
         id="path24"
         style="fill:#231f20;fill-opacity:1;fill-rule:nonzero;stroke:none"
         d="m 1651.23,5385.06 c -5.2,-9.47 -7.58,-19.89 -20.84,-20.37 -8.52,0.95 -19.41,6.17 -20.36,16.11 1.89,8.52 11.84,18.46 20.36,20.36 12.78,2.84 15.64,-7.58 20.84,-16.1" /><path
         id="path26"
         style="fill:#231f20;fill-opacity:1;fill-rule:nonzero;stroke:none"
         d="m 1782.88,5387.43 c -1.89,-9 -5.21,-17.53 -11.37,-25.11 -12.79,-2.36 -24.62,2.37 -29.36,13.74 0.48,9.47 7.1,18.47 15.62,22.73 11.37,2.84 18.48,-3.79 25.11,-11.36" /><path
         id="path28"
         style="fill:#ffffff;fill-opacity:1;fill-rule:nonzero;stroke:none"
         d="m 1635.13,5380.8 h -6.63 c -1.9,4.26 2.36,8.52 6.63,6.63 v -6.63" /><path
         id="path30"
         style="fill:#ffffff;fill-opacity:1;fill-rule:nonzero;stroke:none"
         d="m 1769.14,5378.43 h -8.99 v 6.63 h 8.99 v -6.63" /><path
         id="path32"
         style="fill:#231f20;fill-opacity:1;fill-rule:nonzero;stroke:none"
         d="m 2030.55,5253.41 c -0.95,-44.99 -22.74,-87.14 -36.47,-129.75 l -6.63,-6.63 c -16.1,15.15 -29.36,52.09 -59.19,40.72 -98.02,-35.99 -152.97,-142.06 -211.21,-220.2 h -8.99 c -0.95,25.58 11.83,51.62 20.36,77.19 h 2.36 c 43.1,103.23 85.25,225.41 188.48,286.5 42.15,23.2 91.87,-8.53 111.29,-47.83" /><path
         id="path34"
         style="fill:#231f20;fill-opacity:1;fill-rule:nonzero;stroke:none"
         d="m 1553.2,5242.05 c 52.57,-79.56 56.83,-170.48 75.3,-263.77 -2.38,-19.89 2.84,-42.15 4.25,-63.46 l -4.25,-4.74 c -29.36,25.11 -27.46,66.78 -41.2,99.92 -5.69,2.85 -4.26,8.52 -4.26,13.73 -27.94,41.68 -49.72,101.82 -104.66,116.03 -44.51,5.2 -86.66,-13.26 -116.02,-45.46 -16.1,-8.05 -10.42,-36.94 -34.09,-29.84 -3.32,-1.89 -5.21,-6.63 -9,-6.63 -10.42,11.37 -5.69,25.1 -7.11,40.73 -5.67,20.84 -8.52,51.14 2.37,70.56 20.36,-4.26 -0.95,-25.57 9,-38.36 -7.58,71.51 54.93,122.18 109.4,154.38 20.83,6.15 46.4,14.21 68.18,4.74 l 52.09,-47.83" /><path
         id="path36"
         style="fill:#231f20;fill-opacity:1;fill-rule:nonzero;stroke:none"
         d="m 1655.5,5278.51 c 4.26,-9.95 -3.8,-11.84 -4.27,-20.83 -5.2,-2.37 -9.47,-5.69 -16.1,-4.27 -3.79,8.05 -16.57,15.63 -11.37,25.1 7.58,11.37 24.15,11.37 31.74,0" /><path
         id="path38"
         style="fill:#231f20;fill-opacity:1;fill-rule:nonzero;stroke:none"
         d="m 2014.92,5244.41 c -6.63,-32.67 -12.79,-65.35 -29.84,-93.28 -7.57,25.57 -37.88,25.57 -61.09,26.98 -15.15,-4.73 -29.35,-9.94 -41.19,-22.73 -39.78,-27.93 -75.77,-67.71 -108.92,-106.54 -6.16,3.79 -5.7,-18 -18.47,-22.74 41.67,87.14 71.98,200.32 170.48,256.67 35.05,13.25 70.08,-9.47 89.03,-38.36" /><path
         id="path40"
         style="fill:#231f20;fill-opacity:1;fill-rule:nonzero;stroke:none"
         d="m 1776.25,5276.14 c 0.47,-10.89 0.47,-23.68 -11.37,-27.47 -9.95,0 -16.57,7.11 -22.73,13.74 -2.84,9.47 3.8,17.04 11.37,20.36 4.73,-1.42 18.93,4.73 22.73,-6.63" /><path
         id="path42"
         style="fill:#231f20;fill-opacity:1;fill-rule:nonzero;stroke:none"
         d="m 1560.31,5194.21 c 24.62,-52.55 35.51,-110.81 43.1,-170.48 -27,53.05 -66.3,125.5 -132.13,138.76 -54.93,5.68 -90.45,-30.31 -126.91,-59.19 l 1.89,81.92 c 41.68,38.35 80.5,105.13 147.75,88.55 31.25,-18.93 49.25,-51.14 66.3,-79.56" /><path
         id="path44"
         style="fill:#231f20;fill-opacity:1;fill-rule:nonzero;stroke:none"
         d="m 2050.91,5228.31 c 0.95,-10.42 -11.84,-17.04 -4.27,-27.47 1.43,5.69 5.22,12.32 11.38,13.74 5.67,-9.95 -1.43,-19.42 -2.37,-29.36 2.37,-4.74 6.63,0.95 9,2.37 7.1,-26.52 -20.37,-37.89 -20.37,-63.93 -9.94,-15.63 -24.63,-8.52 -36.47,-2.37 -15.15,10.89 8.53,22.73 7.11,36.46 5.69,27.94 14.2,54.46 26.99,79.56 4.26,-0.47 16.11,-2.37 9,-9" /><path
         id="path46"
         style="fill:#ffffff;fill-opacity:1;fill-rule:nonzero;stroke:none"
         d="m 2035.27,5176.22 -2.36,-11.36 2.36,11.36" /><path
         id="path48"
         style="fill:#231f20;fill-opacity:1;fill-rule:nonzero;stroke:none"
         d="m 1307.9,5075.83 c -2.84,-2.37 -4.73,-5.69 -8.99,-4.26 -7.11,4.73 -2.37,14.68 -7.11,20.36 -2.37,-2.37 -4.73,-6.16 -9,-4.74 -0.94,15.16 -18.46,32.21 -2.36,45.46 l 7.1,-15.62 c 6.15,9.94 -4.26,28.89 9,34.1 11.36,-21.79 6.16,-50.68 11.36,-75.3" /><path
         id="path50"
         style="fill:#231f20;fill-opacity:1;fill-rule:nonzero;stroke:none"
         d="m 1976.08,4928.08 c 30.79,-26.99 31.73,-66.3 52.09,-97.55 3.32,-49.73 6.17,-94.24 -11.36,-141.12 -15.62,-38.36 -41.66,-87.13 -86.18,-92.81 l -2.37,1.89 c 54.46,35.04 80.97,96.6 81.93,157.22 l 4.73,4.26 c -3.32,62.51 -11.84,140.17 -75.3,168.11 -23.67,1.89 -45.46,0 -68.19,-9 -2.37,2.85 -5.68,4.74 -4.26,9 28.89,17.05 80.98,27.47 108.91,0" /><path
         id="path52"
         style="fill:#231f20;fill-opacity:1;fill-rule:nonzero;stroke:none"
         d="m 1398.82,4905.35 c -29.36,-22.73 -54.93,-59.67 -56.82,-99.92 l -4.74,-4.26 c 0.48,-44.04 -12.78,-90.92 11.37,-127.39 -1.42,-36.93 38.36,-51.14 59.19,-72.93 12.32,-4.25 28.42,-10.88 40.73,-2.36 5.68,-2.84 4.26,-8.52 4.73,-13.26 -10.41,-12.79 -28.88,-4.74 -43.09,-7.11 -78.13,33.15 -95.66,117.92 -93.28,193.21 9.46,53.05 18.94,119.81 77.18,138.75 l 4.73,-4.73" /><path
         id="path54"
         style="fill:#f9d38c;fill-opacity:1;fill-rule:nonzero;stroke:none"
         d="m 1151.16,4789.8 c 6.16,-31.25 22.73,-62.5 29.36,-95.66 -28.89,26.52 -49.25,83.82 -93.29,65.83 -38.83,-44.04 -23.68,-113.18 -4.27,-161.48 3.32,-1.89 5.69,-9 11.37,-6.63 16.11,11.84 -5.68,24.62 -4.73,38.83 -4.74,34.57 -15.63,82.87 11.36,111.28 25.1,0.95 35.99,-27.93 50.2,-43.09 -14.68,-38.36 -22.26,-84.76 -2.37,-123.12 l 11.37,-15.63 c 16.1,10.9 -1.43,35.04 -2.37,52.09 -5.22,23.68 -0.47,48.3 4.73,70.56 17.52,-23.21 42.62,-47.35 49.73,-77.19 -29.84,-17.52 -18.47,-58.25 -15.63,-86.66 5.68,-58.72 93.76,-35.04 83.82,-102.29 5.68,-2.84 4.26,-8.52 4.73,-13.26 -62.98,-6.15 -107.97,48.78 -154.85,83.82 -78.61,65.35 -102.76,166.22 -92.81,261.41 8.99,5.68 0.94,18.46 6.63,25.09 12.31,21.32 26.04,39.3 50.19,47.84 22.73,-1.43 41.2,-12.79 56.83,-31.74" /><path
         id="path56"
         style="fill:#f9d38c;fill-opacity:1;fill-rule:nonzero;stroke:none"
         d="m 2273.95,4768.96 c 13.26,-109.39 -24.14,-209.31 -81.93,-295.49 -39.77,-43.09 -80.03,-70.56 -131.64,-83.82 11.37,35.04 18.94,71.98 31.72,106.55 6.63,26.05 13.74,51.62 20.37,77.66 3.31,-9.94 1.9,-22.25 11.37,-29.83 8.98,13.26 11.36,31.73 6.62,47.83 0,9.94 -13.25,20.36 -1.89,29.36 8.05,4.26 13.73,-6.16 15.62,-13.26 4.27,-54.93 -12.31,-100.4 -40.72,-141.12 l 6.64,-6.63 c 51.13,39.78 65.34,109.39 47.82,163.38 -1.43,18.94 -35.52,8.99 -20.37,31.72 3.8,12.32 17.06,32.21 31.74,27.47 28.41,-24.62 22.72,-75.77 13.73,-108.92 -2.37,-12.31 -20.36,-26.52 -7.1,-36.46 40.24,29.36 42.14,86.66 29.83,131.65 -1.9,18.94 -32.68,26.99 -29.83,41.2 17.04,11.84 30.78,34.09 54.93,29.36 3.31,-5.21 4.74,-11.84 11.37,-16.1 4.26,1.42 7.58,5.68 11.35,9.47 -5.2,10.41 -8.51,26.04 -22.72,29.36 -32.21,0.47 -53.53,-29.84 -75.29,-50.2 -3.79,29.36 19.4,46.88 18.46,75.29 29.83,-0.94 60.14,43.57 86.19,4.27 l 13.73,-22.74" /><path
         id="path58"
         style="fill:#231f20;fill-opacity:1;fill-rule:nonzero;stroke:none"
         d="m 1782.88,4741.97 c -4.26,-16.09 1.42,-35.98 -18,-45.45 -15.63,-3.32 -24.15,10.89 -27.47,22.72 -0.94,12.79 0.96,24.15 6.63,34.1 11.37,19.41 34.58,3.79 38.84,-11.37" /><path
         id="path60"
         style="fill:#231f20;fill-opacity:1;fill-rule:nonzero;stroke:none"
         d="m 1621.4,4737.24 c 7.1,-15.15 -6.16,-27.94 -11.37,-40.72 -4.26,-5.69 -10.89,-8.06 -18,-7.11 -24.15,12.78 -14.68,39.78 -13.73,59.2 11.84,17.04 43.57,9.47 43.1,-11.37" /><path
         id="path62"
         style="fill:#231f20;fill-opacity:1;fill-rule:nonzero;stroke:none"
         d="m 1601.04,4710.25 h -6.63 v 34.09 c 15.62,-3.79 7.57,-24.14 6.63,-34.09" /><path
         id="path64"
         style="fill:#231f20;fill-opacity:1;fill-rule:nonzero;stroke:none"
         d="m 1764.88,4739.61 c 1.9,-9 -3.32,-15.16 -4.73,-22.73 h -4.74 c -4.74,8.05 -1.42,33.62 9.47,22.73" /><path
         id="path66"
         style="fill:#231f20;fill-opacity:1;fill-rule:nonzero;stroke:none"
         d="m 1989.82,4582.86 c 13.74,5.68 37.41,8.53 49.72,-2.37 0.94,-3.31 -2.84,-4.73 -4.27,-6.63 l 29.38,-7.1 -4.27,-6.63 h -63.93 c -0.95,3.31 3.31,4.26 4.74,6.63 -19.42,2.37 -35.53,-4.26 -54.46,-2.37 l 11.36,9.47 c -17.04,7.1 -30.3,-13.25 -45.46,-9.47 20.84,19.89 46.88,27 74.82,29.84 l 2.37,-11.37" /><path
         id="path68"
         style="fill:#f9d38c;fill-opacity:1;fill-rule:nonzero;stroke:none"
         d="m 1221.24,4587.12 c 5.68,-35.99 26.52,-65.82 32.2,-102.29 -16.57,7.11 -32.67,20.84 -36.46,38.84 -2.37,20.36 -7.58,43.09 -2.37,63.45 h 6.63" /><path
         id="path70"
         style="fill:#231f20;fill-opacity:1;fill-rule:nonzero;stroke:none"
         d="m 1371.36,4560.13 -11.37,-11.37 c 16.1,4.27 39.31,19.42 56.83,13.74 -7.1,-18.47 -32.68,-10.42 -45.46,-25.1 -7.1,-7.1 -16.1,-15.63 -25.1,-11.36 l -1.89,2.36 17.99,18 c -15.63,0.94 -24.15,-18 -36.46,-27.47 -2.37,-2.84 -0.95,-9 -6.63,-9 -4.26,2.84 -5.21,7.11 -4.74,11.37 18.95,16.1 25.1,43.09 52.57,43.09 l 4.26,-4.26" /><path
         id="path72"
         style="fill:#231f20;fill-opacity:1;fill-rule:nonzero;stroke:none"
         d="m 1321.64,4544.03 c -8.53,-9.95 -9.95,-26.52 -25.1,-29.36 -1.42,10.42 8.05,22.25 15.62,31.73 3.32,-0.95 7.58,1.89 9.48,-2.37" /><path
         id="path74"
         style="fill:#231f20;fill-opacity:1;fill-rule:nonzero;stroke:none"
         d="m 1953.35,4505.67 c 8.06,-26.99 -10.89,-48.3 -27.46,-68.19 -65.35,-72.45 -137.32,-124.07 -220.21,-159.12 -53.98,-9.46 -92.33,12.79 -136.37,34.11 -50.68,32.67 -97.08,60.13 -143.49,104.17 -7.58,15.63 -22.73,30.78 -13.26,50.2 31.73,35.52 77.19,16.57 120.28,25.1 114.13,3.31 225.88,26.99 338.59,40.72 30.31,-8.99 70.56,12.79 81.92,-26.99" /><path
         id="path76"
         style="fill:#1f1919;fill-opacity:1;fill-rule:nonzero;stroke:none"
         d="m 1935.36,4500.94 c 2.37,-18.94 -11.83,-34.1 -22.73,-43.1 -18.47,24.63 -45.94,35.99 -70.56,49.72 8.53,9.48 28.41,1.42 40.73,7.11 15.62,-2.84 44.99,5.21 52.56,-13.73" /><path
         id="path78"
         style="fill:#ed1c24;fill-opacity:1;fill-rule:nonzero;stroke:none"
         d="m 1901.26,4444.11 c -11.36,-19.42 -28.89,-31.73 -43.56,-47.83 -68.67,-58.25 -154.38,-130.7 -245.3,-81.92 -57.3,25.57 -112.71,62.98 -159.12,104.65 42.62,77.19 143.97,48.78 213.58,68.19 59.66,5.21 135.9,22.73 193.2,-11.36 14.69,-8.05 27.47,-21.31 41.2,-31.73" /><path
         id="path80"
         style="fill:#1f1919;fill-opacity:1;fill-rule:nonzero;stroke:none"
         d="m 1476.01,4471.58 c -13.73,-11.37 -28.88,-24.16 -40.72,-34.1 -2.36,8.52 -9.47,21.31 0,29.36 13.73,0.95 25.57,6.63 40.72,4.74" /><path
         id="path82"
         style="fill:#f9d38c;fill-opacity:1;fill-rule:nonzero;stroke:none"
         d="m 1678.21,4164.71 c 57.31,3.79 106.56,26.99 156.76,47.36 l 4.74,4.73 c -0.48,-30.3 -0.95,-66.29 8.99,-95.65 24.63,-17.05 55.87,-18.95 84.3,-26.99 l 47.82,-4.74 c -20.36,-23.2 -49.25,-54.93 -79.56,-68.19 -38.36,-3.79 -83.35,2.84 -107.02,-31.73 -6.62,-0.95 -10.89,-6.63 -16.1,-11.37 5.21,-6.62 13.27,-12.78 20.84,-6.62 21.78,28.41 49.24,24.62 81.45,29.35 -48.78,-48.77 -99.92,-92.34 -149.65,-138.74 -26.51,-10.89 -43.09,-50.2 -72.92,-31.73 -71.99,70.08 -145.86,129.75 -206.95,202.2 43.1,-2.37 89.98,-9.47 125.02,-38.35 l 9,8.99 c -35.98,53.51 -104.18,47.83 -159.11,54.46 -7.1,8.05 -20.37,17.99 -24.63,29.36 35.52,8.05 73.87,9.47 102.29,34.1 l 11.37,98.02 c 53.98,-19.89 107.02,-41.19 163.36,-54.46" /><path
         id="path84"
         style="fill:#f57e14;fill-opacity:1;fill-rule:nonzero;stroke:none"
         d="m 2128.57,4075.68 c 66.77,-5.68 136.38,-11.35 188.47,-47.35 15.16,-116.49 13.26,-242.46 -16.09,-357.06 -4.74,-27.47 -16.58,-57.77 -24.64,-86.18 -11.36,18.94 -15.15,45.46 -22.73,68.19 -3.77,15.63 -10.42,29.83 -20.83,43.09 -4.25,-1.42 -7.58,-5.68 -11.36,-9 15.62,-35.51 23.68,-73.4 32.19,-111.75 -2.83,14.2 -12.3,26.04 -18.46,38.82 -4.26,0.48 -8.53,-0.47 -11.37,-4.73 l 4.75,-26.99 c 18.93,-60.14 61.56,-112.71 56.82,-179.48 -9.48,-18.46 -27,-27.93 -38.83,-45.46 1.41,26.52 6.63,73.88 4.73,108.92 -10.42,19.41 -8.52,44.04 -18.47,63.45 -8.52,15.16 -19.89,29.37 -20.36,47.83 -30.32,50.67 -80.98,74.82 -129.28,95.66 -102.76,14.68 -197,-14.68 -261.4,-88.55 -10.9,-29.36 -35.52,-52.09 -38.83,-84.3 -22.26,-57.29 -31.26,-142.53 2.36,-199.83 1.42,-14.68 15.16,-24.16 15.63,-38.84 44.04,-62.98 120.75,-101.81 195.58,-107.02 80.5,2.84 154.38,39.78 211.68,100.4 10.88,14.2 14.67,31.73 22.73,47.35 9.94,-65.82 12.78,-146.33 -11.37,-206.47 -9.94,-42.62 -31.25,-83.34 -29.84,-127.38 -20.83,-12.79 -27.45,-48.31 -59.19,-34.1 -14.21,21.78 -39.3,17.04 -54.45,36.46 -22.74,5.69 -46.89,7.58 -72.45,6.63 v 4.73 c 40.72,52.1 97.08,85.72 143,136.39 0.48,4.27 -0.47,8.53 -4.73,11.37 -43.1,-26.53 -77.18,-60.62 -117.91,-95.66 -26.53,-26.99 -53.04,-76.24 -99.93,-72.93 -4.25,-4.26 -10.89,-1.42 -16.1,-1.89 53.05,49.25 105.14,105.13 165.75,145.38 2.84,5.68 -4.26,7.57 -6.63,11.36 -62.99,-32.67 -118.39,-92.34 -170.49,-141.12 -16.57,-11.83 -37.88,-12.78 -56.81,-17.99 l 93.29,81.93 c -0.48,3.31 3.78,4.73 2.36,8.99 -20.84,8.06 -31.26,-21.78 -50.19,-25.1 -46.89,-37.88 -94.24,-81.92 -152.49,-86.18 -109.4,-15.16 -231.57,7.57 -340.96,6.63 -67.72,10.89 -128.33,39.3 -190.84,63.46 27.47,17.99 63.93,18.46 86.66,43.56 -9.47,5.69 -24.15,-1.42 -36.47,-2.37 -13.25,2.37 -21.78,-7.1 -34.09,-7.1 -58.72,-28.89 -116.49,-60.14 -177.58,-83.82 -17.52,-1.42 -35.99,2.37 -49.724,15.63 -51.613,69.13 -35.043,171.42 -31.731,257.14 19.899,53.98 41.676,107.49 56.825,163.37 1.9,42.62 -53.504,79.56 -13.73,118.39 11.37,22.73 22.74,45.46 34.1,68.19 -1.42,11.84 8.52,19.42 11.36,29.36 15.63,49.72 43.1,94.71 61.09,143.49 l -6.63,6.62 c -11.84,-5.2 -13.26,-22.73 -27.46,-25.09 9.46,-0.95 0,-6.16 2.36,-11.37 -13.26,-16.57 -19.41,-35.99 -29.36,-54.45 8.06,26.04 18.95,64.4 36.46,93.28 l -9.46,9 c -38.36,-42.62 -44.04,-102.76 -65.83,-154.38 0.48,-17.52 -9.471,-30.3 -8.994,-47.83 -39.305,91.4 -54.461,190.84 -59.199,290.77 4.738,25.1 0,45.46 4.738,70.56 6.629,24.15 2.84,58.71 13.73,84.29 57.305,26.99 121.235,39.3 181.845,59.19 41.2,-2.84 90.92,14.68 136.38,1.89 34.57,9.95 47.36,66.3 90.93,32.21 l 1.89,-16.1 c 90.92,-101.34 185.63,-195.58 286.51,-286.5 14.2,-17.05 29.82,2.84 43.08,7.1 95.19,69.62 177.11,160.53 268.5,233.94 13.74,19.41 36.48,27.46 43.11,52.08 -4.26,13.27 -18,2.85 -25.11,9.48 19.89,7.57 41.2,12.31 63.93,13.26 24.63,-18.47 43.57,-52.57 79.56,-45.47" /><path
         id="path86"
         style="fill:#231f20;fill-opacity:1;fill-rule:nonzero;stroke:none"
         d="m 1678.21,3989.5 v -4.74 c 23.69,-13.25 38.84,14.21 56.83,13.74 2.85,-9.48 -11.84,-6.16 -8.99,-15.63 -13.73,-19.42 -31.25,-15.62 -50.2,-16.1 -17.99,12.31 -31.25,30.78 -38.36,50.2 21.32,13.25 22.74,-24.16 40.72,-27.47" /><path
         id="path88"
         style="fill:#f9d38c;fill-opacity:1;fill-rule:nonzero;stroke:none"
         d="m 971.207,3580.35 c 6.637,-20.36 26.52,-44.04 9.473,-65.82 -5.684,-12.32 -17.52,-21.31 -16.106,-36.47 -55.879,-82.87 -129.75,-146.32 -202.207,-209.31 -22.726,-3.31 -41.195,40.25 -59.187,11.37 51.14,-32.68 105.601,-81.92 138.75,-134.02 -108.918,-32.67 -216.418,-133.54 -245.778,-245.29 v -4.74 c -108.441,72.93 -213.566,175.21 -250.035,297.86 4.735,51.62 17.055,100.4 27.469,150.12 50.199,130.23 143.012,255.24 261.398,345.22 39.305,32.2 83.821,72.45 127.383,104.66 52.571,58.24 92.348,133.54 161.485,172.84 -11.368,-126.91 -5.68,-270.4 47.355,-386.42" /><path
         id="path90"
         style="fill:#f9d38c;fill-opacity:1;fill-rule:nonzero;stroke:none"
         d="m 2514.51,3703 c 54.47,-60.61 99.46,-129.28 145.86,-195.58 1.9,-9.94 6.63,-18.94 13.25,-26.99 66.3,-140.64 125.02,-288.87 116.03,-454.61 -11.37,-30.31 -20.84,-61.56 -40.72,-88.55 -76.72,-78.14 -169.53,-135.91 -275.14,-152.48 -71.51,78.6 -132.6,163.84 -168.12,261.39 l 2.38,11.37 c 43.09,43.56 65.82,108.92 129.27,118.39 21.31,13.25 50.67,14.68 75.3,13.25 3.32,4.27 9,7.58 6.64,13.74 -23.69,18.47 -63.47,5.68 -88.57,-6.63 -18.46,-2.37 -34.57,-10.89 -50.19,-20.36 -38.83,56.82 -72.45,115.54 -99.92,177.11 1.89,26.04 32.67,39.3 27.47,68.19 -1.43,33.14 -19.42,65.82 -25.1,99.92 2.37,9.94 -5.69,30.3 6.63,38.83 14.21,39.78 23.67,80.97 38.83,120.28 17.05,88.08 23.68,174.74 20.36,268.5 101.34,-48.77 104.66,-166.21 165.74,-245.77" /><path
         id="path92"
         style="fill:#231f20;fill-opacity:1;fill-rule:nonzero;stroke:none"
         d="m 1994.08,3857.86 c -56.82,-107.5 -140.65,-203.63 -229.2,-297.87 -77.19,-79.09 -156.73,-152.49 -254.77,-195.58 -38.83,-9 -77.66,-30.78 -120.28,-16.1 -5.69,4.74 -13.74,9 -16.1,16.1 7.57,10.42 16.1,-3.79 25.09,-2.37 107.5,-11.36 184.69,63.93 265.66,122.65 126.45,117.92 229.68,237.25 320.6,377.43 4.27,1.42 6.63,-1.9 9,-4.26" /><path
         id="path94"
         style="fill:#ffffff;fill-opacity:1;fill-rule:nonzero;stroke:none"
         d="m 2053.27,3655.18 27.47,-1.9 -27.47,1.9" /><path
         id="path96"
         style="fill:#ffffff;fill-opacity:1;fill-rule:nonzero;stroke:none"
         d="m 2060.38,3634.81 c -14.69,0.95 -35.52,-12.31 -43.57,2.37 16.1,2.36 27.47,-4.74 43.57,-2.37" /><path
         id="path98"
         style="fill:#231f20;fill-opacity:1;fill-rule:nonzero;stroke:none"
         d="m 2016.81,3609.71 c 30.78,-9.94 70.55,21.31 90.93,-9 -7.58,-17.99 -18.94,-38.35 -38.36,-47.82 -1.89,-7.58 3.78,-12.79 8.99,-18 24.15,-9 67.72,30.31 68.19,-16.1 l -11.36,-70.08 c -36.47,-16.58 -83.34,7.1 -108.92,-29.84 4.74,-35.04 38.84,-7.58 61.08,-15.63 23.22,1.9 48.78,17.05 65.83,-4.73 -3.31,-39.31 -9.94,-77.2 -20.37,-113.65 -50.66,3.79 -95.18,-6.16 -143,-9.01 -11.36,-9.94 -16.1,-26.04 -13.74,-38.82 17.05,-13.27 42.15,-12.79 63.46,-9 -36.46,-3.79 -87.14,-14.21 -117.92,9 -4.73,19.89 38.36,33.15 6.64,50.2 -23.69,8.04 -54.46,-7.11 -79.56,4.25 -6.63,30.79 11.36,66.78 11.36,102.29 l 4.74,4.74 c 26.05,1.9 53.99,-7.58 79.56,2.37 12.31,8.05 36.46,-8.06 40.72,13.73 -2.36,8.52 11.37,15.62 0,22.72 -32.2,14.69 -69.6,-10.88 -104.65,4.27 l 2.37,86.66 c 15.62,9.95 35.99,7.11 50.2,20.36 -1.43,4.27 -5.68,7.58 -9.01,11.37 8.53,18.47 45.94,42.14 40.73,70.56 10.43,7.57 21.31,1.42 31.73,1.89 -1.9,-14.21 10.42,-18.47 20.36,-22.73" /><path
         id="path100"
         style="fill:#231f20;fill-opacity:1;fill-rule:nonzero;stroke:none"
         d="m 2192.02,3559.99 c -11.83,22.73 -36.92,53.98 -65.82,70.56 27.94,-9.48 55.87,-42.15 65.82,-70.56" /><path
         id="path102"
         style="fill:#ffffff;fill-opacity:1;fill-rule:nonzero;stroke:none"
         d="m 1889.9,3559.99 c 0.95,-11.37 -16.57,-6.16 -22.73,-13.74 -14.21,-35.04 -10.9,-66.29 -9.47,-102.28 2.36,-8.53 3.31,-19.41 13.73,-22.73 2.37,0.94 -10.42,-1.89 -13.73,2.37 -24.62,-9 -18.47,-37.89 -22.73,-54.46 -4.73,-17.52 -6.63,-36.46 -8.99,-54.94 -10.43,32.21 -18.01,77.67 -11.38,113.66 0.95,69.14 32.21,154.85 104.66,181.84 l 25.1,16.11 c -8.53,-26.05 -33.15,-47.36 -54.46,-65.83" /><path
         id="path104"
         style="fill:#231f20;fill-opacity:1;fill-rule:nonzero;stroke:none"
         d="m 1853.43,3589.35 c 2.37,12.78 16.58,17.05 25.11,25.09 l -25.11,-25.09" /><path
         id="path106"
         style="fill:#231f20;fill-opacity:1;fill-rule:nonzero;stroke:none"
         d="m 2055.65,3585.09 c -13.27,-17.05 -17.53,-42.62 -45.46,-38.84 -15.64,-1.42 -38.84,-5.21 -52.1,9 10.9,17.05 21.78,29.84 35.99,43.09 21.31,-3.31 47.83,9.48 61.57,-13.25" /><path
         id="path108"
         style="fill:#ffffff;fill-opacity:1;fill-rule:nonzero;stroke:none"
         d="m 2162.67,3562.36 c 41.19,-61.09 35.98,-135.44 24.62,-206.95 -9.96,-18.47 -12.32,-42.62 -26.99,-56.82 8.52,37.88 10.41,69.61 15.63,108.91 -9.47,10.89 -20.36,18.95 -31.74,25.1 26.05,30.31 27.47,78.61 16.11,116.02 -9.47,13.26 -24.16,19.89 -38.83,13.74 -5.69,-5.21 -7.1,0.47 -13.73,-2.37 l 22.72,38.35 c 17.53,-5.2 21.32,-24.15 32.21,-35.98" /><path
         id="path110"
         style="fill:#ffffff;fill-opacity:1;fill-rule:nonzero;stroke:none"
         d="m 2030.55,3577.98 c -1.91,-19.41 -23.68,-9.94 -36.47,-13.73 h -4.26 c 2.84,20.84 26.99,16.58 40.73,13.73" /><path
         id="path112"
         style="fill:#2f2b2c;fill-opacity:1;fill-rule:nonzero;stroke:none"
         d="m 2223.75,3353.05 c -16.57,-43.1 -26.51,-92.82 -70.56,-120.29 -68.66,-48.3 -164.79,-72.45 -245.3,-32.2 -35.04,16.1 -78.6,46.88 -90.92,84.3 16.11,-25.1 41.67,-46.89 68.2,-56.83 17.52,-19.42 44.03,-18 65.82,-27.47 82.87,-9.47 182.31,14.21 232.04,93.29 47.83,67.72 38.83,167.64 20.36,245.78 30.31,-55.41 27.47,-124.55 20.36,-186.58" /><path
         id="path114"
         style="fill:#ffffff;fill-opacity:1;fill-rule:nonzero;stroke:none"
         d="m 2123.84,3521.16 c 0.94,-9.48 -0.95,-17.05 -9,-22.73 -17.05,-9 -41.2,-0.95 -59.19,-6.63 -8.06,6.63 -12.32,15.15 -13.74,25.09 23.21,8.53 48.77,10.89 75.3,11.37 l 6.63,-7.1" /><path
         id="path116"
         style="fill:#ffffff;fill-opacity:1;fill-rule:nonzero;stroke:none"
         d="m 1994.08,3512.16 c -2.84,-6.63 -2.37,-15.15 -9,-20.36 -17.04,5.68 -39.31,-11.84 -54.45,2.36 -3.79,-1.42 -7.1,-3.31 -11.37,-2.36 -4.74,7.1 -10.42,13.73 -11.37,22.73 17.53,16.57 57.31,5.68 77.19,9 l 9,-11.37" /><path
         id="path118"
         style="fill:#ffffff;fill-opacity:1;fill-rule:nonzero;stroke:none"
         d="m 2119.1,3480.43 c -0.48,-13.26 -18,-15.15 -27,-22.73 -22.72,4.26 -49.25,-11.36 -59.19,13.74 17.04,17.99 44.99,8.99 65.82,17.99 7.11,-3.32 15.16,-2.37 20.37,-9" /><path
         id="path120"
         style="fill:#ffffff;fill-opacity:1;fill-rule:nonzero;stroke:none"
         d="m 1980.82,3471.44 c 7.58,-25.58 -22.73,-17.06 -34.09,-25.1 -15.16,0.47 -31.74,-2.84 -41.21,11.36 v 15.63 c 24.16,4.73 44.51,0.47 68.2,4.73 l 7.1,-6.62" /><path
         id="path122"
         style="fill:#ffffff;fill-opacity:1;fill-rule:nonzero;stroke:none"
         d="m 1791.88,3473.33 -4.26,-34.1 4.26,34.1" /><path
         id="path124"
         style="fill:#231f20;fill-opacity:1;fill-rule:nonzero;stroke:none"
         d="m 1319.27,3441.6 c -0.48,-4.27 0.47,-8.52 4.26,-11.37 3.79,5.69 11.36,0.48 11.36,-4.26 0.96,-5.68 -1.89,-12.31 2.37,-16.1 l 7.11,6.63 c 11.36,-7.57 15.62,-25.1 11.36,-38.36 -2.36,-1.42 -3.79,-5.68 -7.1,-4.73 -12.32,9 -4.26,25.57 -11.37,36.46 -1.89,-6.63 -9.47,-11.84 -15.62,-6.63 l -4.73,24.63 c -1.9,0.94 -3.33,-0.95 -4.75,-1.9 -6.63,4.26 -7.1,10.9 -6.63,18 3.32,8.99 10.42,1.42 13.74,-2.37" /><path
         id="path126"
         style="fill:#231f20;fill-opacity:1;fill-rule:nonzero;stroke:none"
         d="m 1787.62,3371.04 -2.38,63.93 4.26,-61.56 z" /><path
         id="path128"
         style="fill:#ffffff;fill-opacity:1;fill-rule:nonzero;stroke:none"
         d="m 957.945,3318.95 c -22.726,-40.25 -39.773,-82.87 -41.195,-131.65 0,-6.15 6.629,-20.83 -2.367,-27.47 4.262,-2.36 5.207,-3.79 4.734,-8.99 v -7.1 c -0.945,18.46 -21.781,19.41 -34.094,25.1 h -11.367 c -24.148,31.25 -44.988,70.08 -79.554,90.92 16.097,19.41 43.089,28.41 59.191,47.82 45.937,28.89 69.613,85.72 113.652,122.65 30.782,-32.2 0.946,-76.71 -9,-111.28" /><path
         id="path130"
         style="fill:#ffffff;fill-opacity:1;fill-rule:nonzero;stroke:none"
         d="m 1959.98,3423.61 -15.62,-2.37 15.62,2.37" /><path
         id="path132"
         style="fill:#ffffff;fill-opacity:1;fill-rule:nonzero;stroke:none"
         d="m 1878.54,3418.87 h 8.99 -8.99" /><path
         id="path134"
         style="fill:#ffffff;fill-opacity:1;fill-rule:nonzero;stroke:none"
         d="m 1930.63,3418.87 h 8.99 -8.99" /><path
         id="path136"
         style="fill:#ffffff;fill-opacity:1;fill-rule:nonzero;stroke:none"
         d="m 2112.47,3378.14 c -2.36,-8.52 -3.32,-19.88 -13.74,-22.73 -25.57,-0.47 -58.25,-21.3 -72.45,9 -1.42,8.05 0.95,16.1 8.99,18 23.22,3.31 39.79,-2.37 61.1,9.47 5.68,-4.74 14.21,-5.68 16.1,-13.74" /><path
         id="path138"
         style="fill:#ffffff;fill-opacity:1;fill-rule:nonzero;stroke:none"
         d="m 1971.35,3382.41 c 0,-12.79 -7.1,-21.31 -18,-27 -21.3,2.85 -51.61,-17.99 -63.45,9 -3.79,40.25 40.73,9.47 56.83,25.1 9.47,0.94 17.99,-1.42 24.62,-7.1" /><path
         id="path140"
         style="fill:#ffffff;fill-opacity:1;fill-rule:nonzero;stroke:none"
         d="m 2103.47,3335.05 c -0.47,-12.31 -7.1,-24.15 -18.47,-29.84 -22.25,8.54 -60.14,-18.93 -70.08,16.1 6.15,23.69 31.72,9.95 49.73,20.37 14.2,0.48 27.45,0 38.82,-6.63" /><path
         id="path142"
         style="fill:#ffffff;fill-opacity:1;fill-rule:nonzero;stroke:none"
         d="m 1967.08,3321.31 c -7.57,-35.51 -48.76,-17.04 -72.92,-25.09 -13.25,4.74 -16.57,20.36 -11.36,31.73 18.46,8.52 54.46,3.31 72.92,4.74 l 11.36,-11.38" /><path
         id="path144"
         style="fill:#ffffff;fill-opacity:1;fill-rule:nonzero;stroke:none"
         d="m 2344.03,3157.47 c -33.15,-34.09 -49.71,-89.03 -99.92,-102.28 13.74,36.45 19.89,75.76 29.84,113.65 v 111.28 l -7.1,32.2 c 26.04,-51.62 39.77,-107.97 77.18,-154.85" /><path
         id="path146"
         style="fill:#ffffff;fill-opacity:1;fill-rule:nonzero;stroke:none"
         d="m 1898.9,3241.76 -34.1,22.73 h 43.09 z" /><path
         id="path148"
         style="fill:#ffffff;fill-opacity:1;fill-rule:nonzero;stroke:none"
         d="m 2121.47,3262.12 c -8.05,-6.15 -16.1,-12.31 -27,-11.36 v 11.36 h 27" /><path
         id="path150"
         style="fill:#ffffff;fill-opacity:1;fill-rule:nonzero;stroke:none"
         d="m 2049.01,3257.39 c -1.89,-9 -17.52,-4.27 -25.09,-9 l -25.1,2.37 c 6.15,9 23.2,0.95 31.73,9 l 18.46,-2.37" /><path
         id="path152"
         style="fill:#ffffff;fill-opacity:1;fill-rule:nonzero;stroke:none"
         d="m 2050.91,3230.4 c 3.78,-5.69 17.52,8.04 18.47,15.63 l 2.37,11.36 6.62,-20.36 -27.46,-6.63" /><path
         id="path154"
         style="fill:#322c71;fill-opacity:1;fill-rule:nonzero;stroke:none"
         d="m 905.383,3091.64 27.469,-22.72 c 1.894,-36.94 10.89,-71.04 31.722,-99.92 -73.398,-42.15 -142.058,-109.87 -170.472,-188.95 -17.524,-17.05 28.886,-43.1 -6.633,-40.73 -5.68,2.84 -4.258,8.53 -4.735,13.74 -27.937,44.04 -94.238,39.77 -113.652,90.92 2.363,31.25 11.367,60.61 27.469,86.18 -3.793,7.58 8.523,13.74 -2.371,18.47 -22.735,-11.83 -29.36,-37.88 -38.828,-59.19 -1.426,-16.57 -13.735,-28.89 -9.004,-47.83 -3.785,8.05 -14.676,-1.9 -20.36,4.74 -17.996,26.04 -3.789,57.3 4.266,86.18 46.402,101.34 143.008,185.16 254.769,195.58 l 20.36,-36.47" /><path
         id="path156"
         style="fill:#322c71;fill-opacity:1;fill-rule:nonzero;stroke:none"
         d="m 2294.32,3028.19 c 31.25,-99.45 100.86,-182.79 165.74,-268.5 -22.74,-13.74 -46.89,-9.94 -68.19,-20.37 l -2.37,2.37 c -11.36,-16.09 -29.84,-14.21 -45.47,-20.36 -26.52,6.15 -34.1,35.98 -58.71,45.46 -18.47,-15.15 16.1,-28.41 15.63,-38.83 -71.52,45.94 -106.09,122.65 -115.56,202.2 7.58,23.68 39.78,37.42 52.1,59.2 5.67,6.63 12.32,11.36 20.36,13.73 6.15,-11.84 4.73,-28.41 20.36,-34.09 l 7.11,6.62 c -2.37,21.31 -14.68,44.05 -7.11,63.94 8.52,3.31 13.27,-6.63 16.11,-11.37" /><path
         id="path158"
         style="fill:#322c71;fill-opacity:1;fill-rule:nonzero;stroke:none"
         d="m 1307.9,2941.53 c -28.88,4.26 -48.29,11.37 -77.19,9 -23.67,4.26 -45.46,11.84 -66.29,2.37 -2.37,-5.69 4.74,-7.58 7.1,-11.37 68.19,-9.47 131.65,-29.36 199.84,-17.99 l 13.73,-4.74 c 31.73,1.42 70.09,-1.42 99.93,-4.26 l -15.63,-50.2 c -33.63,5.68 -69.62,-2.37 -104.66,6.63 -97.55,6.63 -202.21,16.1 -295.5,52.57 -0.47,35.51 42.62,34.09 63.46,52.08 31.26,34.11 72.93,3.79 104.65,-6.62 l 70.56,-27.47" /><path
         id="path160"
         style="fill:#322c71;fill-opacity:1;fill-rule:nonzero;stroke:none"
         d="m 2103.47,2927.79 c -0.95,-11.83 0,-24.14 -7.1,-34.08 -112.23,-30.32 -232.99,-34.11 -349.95,-40.74 l -47.84,56.82 c 54.47,-5.2 91.4,37.42 145.85,25.11 45.47,5.21 102.77,-4.74 140.65,25.1 39.78,-3.79 90.93,2.37 118.39,-32.21" /><path
         id="path162"
         style="fill:#f9d38c;fill-opacity:1;fill-rule:nonzero;stroke:none"
         d="m 1021.4,2937.27 c 3.8,-12.79 14.68,-22.73 11.37,-38.83 -48.774,-52.09 -69.61,-119.82 -104.653,-179.48 -24.625,-54.93 -45.461,-114.13 -43.094,-177.58 -13.261,-11.84 -37.882,-18.94 -43.093,-40.73 7.105,-17.05 9.941,-35.99 17.996,-52.09 -7.11,-12.79 -23.68,-34.57 -36.469,-32.2 -30.301,19.41 -51.613,50.67 -63.457,81.93 0.949,16.56 4.742,31.72 18,43.09 6.156,-9 15.629,-21.3 18.465,-34.1 -11.367,-11.36 -12.781,-26.52 -11.367,-43.1 3.793,-1.89 7.105,-11.36 11.367,-4.26 12.789,8.53 0.953,32.69 22.734,31.74 5.211,-5.69 12.309,-13.26 17.992,-4.74 0.95,10.41 -7.101,23.2 -17.992,31.72 -36.937,64.89 -18.941,149.17 0,214.06 v 4.25 h 2.367 c 18.469,15.64 28.414,42.62 45.461,56.83 0.473,4.74 -0.949,8.52 -4.73,11.37 -19.895,-2.85 -28.895,-22.73 -43.098,-34.1 17.047,79.56 91.867,143.01 159.114,181.85 14.207,-5.69 26.047,-17.06 43.087,-15.63" /><path
         id="path164"
         style="fill:#322c71;fill-opacity:1;fill-rule:nonzero;stroke:none"
         d="m 1592.03,2875.71 11.38,-81.93 c -4.74,-5.21 -1.43,-19.88 -13.74,-15.63 -28.42,41.67 -47.83,91.87 -74.82,136.39 27.93,-20.83 91.39,26.99 77.18,-38.83" /><path
         id="path166"
         style="fill:#ffffff;fill-opacity:1;fill-rule:nonzero;stroke:none"
         d="m 2148.93,2909.79 c -0.47,-7.57 -7.57,-12.3 -11.37,-17.98 -16.09,-3.79 -13.25,13.25 -16.09,22.73 l 27.46,-4.75" /><path
         id="path168"
         style="fill:#322c71;fill-opacity:1;fill-rule:nonzero;stroke:none"
         d="m 1675.85,2907.43 c -8.52,-17.99 -8.99,-49.25 -22.72,-70.56 0,-17.51 -6.16,-36.93 -20.38,-45.46 -17.04,-2.37 -4.25,19.89 -11.35,27.47 0.47,28.89 8.52,67.24 8.99,90.91 14.21,1.9 29.84,0.48 45.46,-2.36" /><path
         id="path170"
         style="fill:#ffffff;fill-opacity:1;fill-rule:nonzero;stroke:none"
         d="m 1607.67,2889.44 -1.9,20.35 h 4.26 z" /><path
         id="path172"
         style="fill:#f57e14;fill-opacity:1;fill-rule:nonzero;stroke:none"
         d="m 1112.33,2887.07 c 4.73,-9 16.57,-0.95 22.72,-6.63 -7.1,-31.25 -31.72,-61.08 -31.72,-98.02 -3.31,-27.94 -13.73,-62.05 0,-88.56 16.1,19.41 5.21,49.72 17.99,70.56 5.69,38.35 11.84,76.71 31.73,108.92 23.68,0.47 48.78,-9.47 75.3,-9 -12.31,-39.31 -31.26,-81.92 -36.47,-127.39 l -4.73,-4.25 c 4.26,-24.63 -8.53,-53.04 2.36,-77.67 8.53,-2.84 12.79,4.26 18.47,9.48 16.58,48.76 28.42,100.38 49.73,147.74 l -4.27,4.26 c -22.25,-20.84 -30.78,-51.62 -41.19,-79.56 1.89,44.05 21.78,80.98 34.09,120.76 70.09,-1.42 142.54,-16.1 213.57,-13.73 -82.39,-218.32 -153.9,-440.88 -213.57,-668.19 -15.15,-32.2 -16.57,-72.45 -25.1,-104.66 v -2.36 c -64.4,56.36 -149.64,101.35 -172.37,190.85 -23.67,50.66 -36.94,104.65 -50.194,159.1 -3.793,3.79 -9,10.42 -13.735,4.75 -7.097,-7.58 1.895,-19.9 2.368,-29.85 21.311,-98.96 47.831,-202.67 131.651,-270.39 32.2,-22.73 60.61,-52.57 95.65,-68.2 0.95,-38.82 -18.94,-61.08 -17.99,-99.91 -11.84,-58.25 -3.31,-116.5 -25.1,-170.48 2.37,-4.74 3.79,-9.94 9,-13.73 37.88,2.84 69.61,19.89 104.65,29.84 79.56,33.15 164.33,53.98 236.31,106.54 0.47,67.24 7.58,142.53 11.36,214.04 19.89,-35.98 48.77,-68.19 50.2,-111.76 6.15,-36.93 39.77,-101.81 -11.37,-131.64 l -16.1,-27.46 c -57.78,-30.31 -105.13,-85.25 -163.85,-113.65 -49.25,-33.16 -103.71,-54.95 -154.38,-86.2 11.37,-17.05 30.31,1.9 45.46,2.37 76.24,38.37 153.44,80.51 220.68,136.38 -41.2,-52.08 -89.03,-101.34 -138.75,-150.1 l 6.63,-6.64 c 39.3,23.21 67.24,49.72 99.92,83.82 9.47,-33.15 -24.15,-54.47 -35.99,-81.92 -30.78,-54.46 -33.62,-121.24 -50.2,-181.84 1.9,-9 -3.31,-21.31 -4.73,-31.73 1.42,-30.78 -0.95,-71.99 -38.36,-83.82 -85.72,-44.99 -169.06,-93.77 -257.14,-132.13 -4.74,-10.41 -22.73,-9.47 -15.63,-25.09 14.21,-14.21 25.58,-1.43 43.1,-1.9 33.62,10.42 65.82,24.15 99.92,34.1 41.67,8.52 36.94,62.51 75.29,70.09 -9.94,-80.51 -100.39,-92.36 -152.49,-134.03 -36.93,-14.21 -74.34,-26.98 -108.91,-47.82 l 6.63,-6.63 c 31.25,1.89 57.77,14.68 86.19,22.73 59.19,25.09 107.49,62.98 161.48,99.92 2.84,-18.47 -8.06,-33.16 -20.37,-43.1 l -63.45,-65.82 c -8.05,-37.88 -11.84,-77.19 -22.73,-113.651 -55.41,-94.239 -149.17,-166.207 -211.683,-257.137 0.953,-2.84 -1.891,-7.102 2.367,-8.992 h 4.739 L 1094.33,859.789 C 1075.86,814.332 1077.29,768.871 1048.87,727.68 974.996,635.801 858.977,617.809 789.359,516.469 c -42.14,-11.36 -89.5,-7.578 -131.644,-4.739 50.676,42.629 107.027,76.719 152.484,127.391 -8.051,18.938 -18.469,-6.629 -29.832,-4.742 -71.976,-51.137 -128.808,-124.059 -220.199,-126.91 -41.203,34.562 -94.242,41.672 -138.75,68.191 -29.836,19.899 -1.902,54.469 2.367,79.559 -11.367,14.683 3.317,33.152 -4.742,49.73 -20.832,70.09 -24.621,150.11 -31.723,223.043 4.262,59.188 4.262,114.598 20.36,174.728 3.789,0 7.582,2.38 11.363,7.11 32.676,207.42 67.246,419.56 127.387,617.98 32.675,101.35 60.144,205.06 102.293,302.61 12.312,22.72 20.832,47.35 34.09,70.08 39.308,103.7 99.449,198.42 159.117,293.12 8.05,26.53 58.242,36.95 34.09,68.2 2.843,8.53 -3.782,17.99 -4.731,27.48 -4.262,3.78 -1.422,10.41 -2.367,16.08 14.203,14.21 37.406,17.06 45.461,36 -9.469,118.86 62.035,221.15 113.647,322.96 15.15,12.31 22.26,39.78 45.47,36.47 12.31,-7.1 26.04,-9 38.83,-13.74" /><path
         id="path174"
         style="fill:#322c71;fill-opacity:1;fill-rule:nonzero;stroke:none"
         d="m 1555.57,2689.12 c -11.84,-87.61 -23.68,-192.25 -25.1,-293.12 -12.31,-158.17 -21.31,-321.07 -26.99,-479.23 -61.56,-41.68 -134.49,-56.36 -200.31,-86.67 -35.05,-14.68 -71.04,-26.05 -108.92,-34.08 9,61.55 18,119.79 26.99,184.2 2.37,42.14 21.78,83.34 27.47,127.39 51.14,182.31 95.66,367.95 163.85,543.15 15.62,67.25 48.78,127.39 68.19,193.22 9,1.42 9,12.78 9,17.99 7.1,10.9 4.26,25.58 11.36,36.47 31.26,-64.41 86.19,-127.39 54.46,-209.32" /><path
         id="path176"
         style="fill:#f9d38c;fill-opacity:1;fill-rule:nonzero;stroke:none"
         d="m 2269.21,2723.22 c 14.22,-10.42 29.36,-18.94 45.46,-24.63 13.27,-53.03 -0.94,-107.49 -31.72,-145.85 -34.57,107.97 -62.04,218.78 -134.02,311.6 -1.42,13.26 10.43,21.31 15.63,31.73 16.57,-62.98 48.3,-127.86 104.65,-172.85" /><path
         id="path178"
         style="fill:#322c71;fill-opacity:1;fill-rule:nonzero;stroke:none"
         d="m 1709.95,2864.34 c 104.65,-138.28 160.53,-300.24 241.04,-449.88 27.94,-67.71 55.41,-135.44 72.93,-206.93 8.04,-26.52 20.36,-51.62 25.09,-79.56 -57.77,-18 -120.28,-33.16 -163.84,-74.83 -22.27,-11.36 -39.79,-34.09 -61.57,-47.83 -23.68,224 -64.4,446.56 -122.64,659.2 -12.32,38.82 -27.95,82.86 -40.73,125.01 15.15,30.3 17.05,66.77 31.72,97.55 8.06,-2.84 14.68,-14.2 18,-22.73" /><path
         id="path180"
         style="fill:#f57e14;fill-opacity:1;fill-rule:nonzero;stroke:none"
         d="m 2126.2,2869.07 c 25.58,-62.03 69.62,-116.01 90.92,-179.95 25.11,-87.61 67.71,-173.79 63.46,-268.03 3.32,-2.37 5.21,-6.63 9,-6.63 16.09,10.9 1.42,26.05 8.99,40.74 12.31,5.2 14.2,-9 16.1,-16.11 -5.21,-64.41 33.15,-110.81 56.82,-163.38 52.57,-107.02 100.41,-216.41 143.02,-327.22 22.26,-33.63 30.78,-72.92 45.47,-109.39 42.62,-116.02 89.49,-230.61 118.38,-352.32 27.47,-133.54 30.79,-274.18 40.72,-409.15 4.27,-3.31 7.58,-8.99 13.74,-6.62 34.09,-205.061 98.02,-445.631 -11.36,-636.459 -4.26,-36 -13.73,-76.25 -49.73,-93.289 -15.15,-1.891 -27.46,3.308 -41.2,4.726 53.04,59.672 76.73,134.492 86.67,208.844 -3.31,2.84 -2.84,7.098 -7.1,9.477 l -13.74,-13.739 c -5.69,-42.621 -22.26,-80.031 -38.36,-118.39 -8.53,-30.782 -27.47,-57.301 -41.19,-86.192 l -38.36,-11.359 c 16.09,22.25 32.67,44.043 38.36,70.562 11.35,5.68 2.83,11.348 7.1,20.36 33.62,73.398 46.88,160.519 49.71,241.031 -3.79,3.32 -7.1,9.008 -13.25,6.629 -9.47,-10.891 -1.42,-28.879 -7.11,-40.719 -12.78,-104.183 -44.03,-206.004 -93.28,-297.863 -7.11,-20.367 -31.73,-17.047 -49.73,-20.367 l -13.74,1.898 c 14.22,7.102 33.16,12.32 38.84,29.828 l -7.1,6.633 c -27.95,-11.359 -52.57,-44.051 -86.19,-22.73 -23.68,11.839 -54.45,6.148 -77.2,20.359 -35.04,2.852 -82.87,-4.262 -104.64,27.469 4.73,15.152 -0.95,34.57 8.99,47.832 l 45.46,-29.84 c 12.31,8.051 -6.62,14.211 -6.62,22.738 -107.02,98.02 -247.67,196.051 -291.24,336.692 -20.36,47.828 -35.99,97.55 -45.46,150.109 -3.31,19.43 -10.89,37.891 -11.37,58.719 14.21,-23.199 34.1,-45.93 59.2,-56.821 10.89,21.321 -25.1,30.313 -31.73,47.832 -6.63,15.629 -18.93,28.418 -20.37,45.46 9.95,-1.901 -1.42,-8.53 6.64,-13.729 17.52,-24.16 42.14,-41.199 68.19,-49.731 21.31,-4.718 45.45,-2.359 63.93,6.629 14.21,10.411 -6.63,21.789 -13.74,25.102 -78.6,26.051 -169.52,65.819 -206.93,147.749 l -4.74,25.09 c 58.72,-29.82 113.65,-58.72 163.85,-104.65 18,-8.04 35.04,-18.94 54.45,-25.09 l 9.01,11.36 c -7.58,9.95 -19.91,9 -29.37,13.73 -65.82,62.98 -138.75,94.71 -211.2,141.12 -27.46,34.1 -30.78,78.61 -41.19,120.29 -10.9,63.45 -32.21,122.65 -43.1,186.57 -16.1,42.63 -22.26,89.04 -38.84,131.65 -16.1,50.2 -36.93,98.03 -54.46,147.75 22.74,-38.36 65.35,-55.87 98.04,-84.29 3.31,3.78 10.41,8.99 4.26,13.73 -59.67,46.41 -107.04,107.97 -140.65,172.85 -8.52,23.68 -28.42,42.14 -32.21,68.19 43.58,-55.87 80.04,-134.01 150.12,-163.85 2.84,2.84 6.15,5.21 4.74,9.47 -48.78,38.83 -89.04,93.76 -122.65,145.38 -20.84,23.68 -31.73,55.88 -52.56,81.93 0,223.98 -13.74,465.02 20.35,697.53 l 2.38,68.2 c 29.83,9 31.26,-16.57 38.83,-36.47 27.46,-96.13 55.4,-195.57 72.45,-293.12 32.67,-146.33 61.56,-302.61 75.29,-456.97 5.68,-0.48 8.06,-10.43 15.63,-6.64 -1.89,-3.79 -9,-5.69 -6.63,-11.36 6.16,-0.48 15.15,4.26 22.74,9 54.93,36.93 110.8,71.5 163.85,113.64 21.3,14.21 54.93,7.11 65.82,36.47 -19.43,26.51 13.73,30.78 25.09,50.19 51.16,55.41 107.02,112.71 143.02,177.11 1.42,4.26 -1.89,6.63 -4.74,9 -58.25,-62.03 -109.86,-130.7 -172.37,-193.22 -4.26,0.48 -1.42,7.58 -2.36,11.37 62.5,49.25 127.85,113.19 129.27,195.59 l -4.26,4.26 c -28.89,-63.94 -65.35,-128.81 -122.65,-177.1 -2.85,-2.86 -7.11,-2.86 -9.47,-6.64 -40.72,121.23 -81.46,244.35 -145.39,354.21 1.43,9.95 -8.52,15.16 -11.36,22.73 -41.2,88.07 -84.3,174.74 -134.01,259.51 37.88,-2.84 82.87,4.73 118.39,1.89 2.37,5.69 9.94,6.16 13.26,2.37 40.72,-65.82 41.67,-153.9 45.46,-229.67 l 4.73,-4.26 6.63,11.36 c 0,38.36 10.41,78.61 0,116.03 -4.26,38.35 -15.62,73.86 -34.1,106.54 17.05,9.95 29.36,-0.95 47.82,9 l 7.11,-1.89 c 39.31,-48.3 55.88,-105.6 70.09,-163.85 l 11.37,-70.57 9.47,-8.98 c 20.36,9.93 14.2,30.77 17.99,47.81 -2.36,35.05 5.69,73.88 -6.62,104.66 -2.37,37.89 -19.89,69.61 -41.2,99.92 -11.37,-9.47 1.89,-19.89 2.36,-29.83 15.63,-38.36 23.68,-82.87 25.11,-125.02 -13.74,53.51 -33.16,103.72 -68.2,147.75 36.94,18.46 85.71,17.52 127.39,29.83 l 8.99,-9" /><path
         id="path182"
         style="fill:#322c71;fill-opacity:1;fill-rule:nonzero;stroke:none"
         d="m 1601.04,2755.42 c -7.1,-146.33 -38.36,-296.91 -52.09,-443.24 4.73,108.91 6.15,232.99 24.62,342.85 9.94,19.89 -0.47,51.14 9.47,68.19 l 1.89,34.09 16.11,-1.89" /><path
         id="path184"
         style="fill:#f9d38c;fill-opacity:1;fill-rule:nonzero;stroke:none"
         d="m 2326.04,2562.22 c -9,-23.68 11.84,-69.61 -27.47,-70.56 l -11.36,43.09 c 17.52,4.73 21.31,27.47 34.09,34.09 l 4.74,-6.62" /><path
         id="path186"
         style="fill:#231f20;fill-opacity:1;fill-rule:nonzero;stroke:none"
         d="m 1026.14,2439.09 c 24.63,-106.55 46.89,-226.36 156.75,-286.02 5.68,-15.16 26.51,-15.63 22.73,-31.74 h -7.11 c -80.5,38.85 -139.22,121.24 -156.74,206.47 -14.68,25.1 -15.16,55.88 -22.74,84.3 4.75,8.05 -9.94,25.58 7.11,26.99" /><path
         id="path188"
         style="fill:#f57e14;fill-opacity:1;fill-rule:nonzero;stroke:none"
         d="m 1578.3,2084.87 -27.46,43.1 c -5.69,50.66 9.47,107.5 13.73,156.74 3.79,28.41 11.36,61.09 11.36,93.3 -2.36,-93.3 4.73,-207.89 2.37,-293.14" /><path
         id="path190"
         style="fill:#ffffff;fill-opacity:1;fill-rule:nonzero;stroke:none"
         d="m 1546.57,2300.82 h 2.38 v -9.01 h -2.38 v 9.01" /><path
         id="path192"
         style="fill:#ffffff;fill-opacity:1;fill-rule:nonzero;stroke:none"
         d="m 1544.2,2278.08 -2.36,-38.83 2.36,38.83" /><path
         id="path194"
         style="fill:#ffffff;fill-opacity:1;fill-rule:nonzero;stroke:none"
         d="m 1880.43,2025.68 c 17.99,9.48 31.25,28.88 50.2,36.46 -10.89,-9.47 -32.21,-27.45 -50.2,-36.46" /><path
         id="path196"
         style="fill:#f79110;fill-opacity:1;fill-rule:nonzero;stroke:none"
         d="m 1166.78,1216.38 -38.36,-13.73 c 28.42,18.46 72.93,31.72 106.56,54.93 -11.84,-30.31 -46.41,-25.1 -68.2,-41.2" /><path
         id="path198"
         style="fill:#f79110;fill-opacity:1;fill-rule:nonzero;stroke:none"
         d="m 2060.38,954.98 c -13.74,2.36 -44.04,11.36 -61.56,27.469 19.41,-11.379 43.09,-13.258 61.56,-27.469" /><path
         id="path200"
         style="fill:#322c71;fill-opacity:1;fill-rule:nonzero;stroke:none"
         d="m 609.887,489 c 28.414,5.691 57.301,0.469 84.293,-4.262 27.941,5.684 62.039,-2.367 88.554,6.633 -53.511,-28.41 -133.539,-39.781 -202.207,-34.09 -37.41,9.949 -75.765,16.098 -111.285,29.348 -6.629,13.262 -6.156,28.891 -9.472,43.57 56.355,1.422 90.925,-70.547 150.117,-41.199" /><path
         id="path202"
         style="fill:#ffffff;fill-opacity:1;fill-rule:nonzero;stroke:none"
         d="M 812.094,441.172 C 784.625,399.031 729.223,404.23 682.813,398.078 l -4.735,-4.258 c -43.562,3.309 -102.285,-9.461 -138.746,11.371 -22.734,17.047 -46.887,30.309 -72.461,40.719 9.949,29.36 36.942,-2.371 56.832,0 83.817,-26.051 191.313,-13.73 268.027,25.102 l 16.102,15.617 c 11.367,-10.41 6.633,-31.731 4.262,-45.457" /><path
         id="path204"
         style="fill:#5e5b5c;fill-opacity:1;fill-rule:nonzero;stroke:none"
         d="M 867.027,345.988 C 794.57,294.852 700.813,296.27 616.992,273.07 525.121,251.762 436.566,216.242 346.117,198.242 265.141,177.398 188.426,146.148 98.4492,145.68 c -20.8359,1.422 -40.7187,5.691 -59.1914,13.73 54.9336,60.61 125.9612,99.918 188.9532,150.11 69.133,44.511 140.164,83.351 213.566,118.402 48.77,-3.793 81.926,-44.52 127.383,-56.84 86.192,-2.363 167.637,-1.41 241.039,34.109 12.317,8.989 17.52,21.297 22.731,34.09 14.683,-27.929 35.992,-59.66 34.097,-93.293" /><path
         id="path206"
         style="fill:#5e5b5c;fill-opacity:1;fill-rule:nonzero;stroke:none"
         d="M 873.656,325.621 C 873.184,308.57 854.238,307.16 844.293,298.16 732.066,243.699 598.996,240.391 482.5,195.879 368.375,173.141 256.617,130.051 139.652,127.68 h -7.101 c 7.57,1.422 17.992,-3.782 22.726,4.73 145.379,23.211 290.762,67.262 427.618,111.289 97.082,26.52 206.464,24.153 290.761,81.922" /><path
         id="path208"
         style="fill:#322c71;fill-opacity:1;fill-rule:nonzero;stroke:none"
         d="m 2655.64,318.531 c -0.95,-28.89 -36,-24.16 -54.47,-34.109 -68.66,-12.781 -152.48,-8.512 -213.56,22.738 -2.84,3.309 -0.95,8.531 -4.74,11.371 53.04,-2.371 95.66,-31.25 152.48,-25.101 5.21,5.679 11.83,8.039 20.36,7.101 27.94,18.938 64.41,24.16 99.93,18" /><path
         id="path210"
         style="fill:#ffffff;fill-opacity:1;fill-rule:nonzero;stroke:none"
         d="m 2714.82,298.16 4.26,-4.73 c -34.57,-9.008 -55.87,-49.731 -88.55,-63.461 -26.53,-25.098 -63.45,0.48 -93.28,-4.739 -50.68,0 -93.29,11.852 -143.01,20.84 -14.69,13.258 -44.04,7.578 -47.83,34.102 l 13.72,26.988 c 9,-36.941 53.51,-34.57 84.29,-43.101 72.46,-12.297 144.92,-9.457 213.58,16.113 18.47,7.109 9.47,31.258 25.1,34.09 9,-8.532 20.36,-11.84 31.72,-16.102" /><path
         id="path212"
         style="fill:#5e5b5c;fill-opacity:1;fill-rule:nonzero;stroke:none"
         d="m 2837.48,232.34 c 87.61,-41.199 185.16,-88.09 245.29,-166.2189 L 2957.76,52.8594 c -114.61,14.6914 -230.62,26.9922 -338.59,58.7226 -96.13,9.949 -190.37,23.207 -279.39,50.199 -11.84,4.731 -24.63,8.039 -34.11,18 8.06,26.52 17.06,54.93 29.37,77.649 l 8.99,-13.731 c 39.31,-23.199 88.09,-29.359 129.76,-38.828 57.77,6.629 125.48,-24.633 177.11,9 26.99,25.57 56.83,53.981 90.92,66.301 34.1,-11.371 62.52,-34.102 95.66,-47.832" /><path
         id="path214"
         style="fill:#5e5b5c;fill-opacity:1;fill-rule:nonzero;stroke:none"
         d="m 2467.16,113.949 c 12.79,-6.629 28.41,-5.679 43.09,-8.988 -73.39,1.891 -140.65,10.41 -206.94,36.461 l -2.36,17.988 c 52.56,-28.41 110.8,-36.941 166.21,-45.461" /><path
         id="path216"
         style="fill:#5e5b5c;fill-opacity:1;fill-rule:nonzero;stroke:none"
         d="m 2855.47,45.7617 c 47.35,-6.6328 98.5,-16.1015 145.85,-9 33.62,0.9375 57.29,5.6797 88.55,13.7383 -11.82,-11.8398 -35.51,-10.4297 -50.19,-13.7383 l -4.26,-4.7422 c -176.64,-16.0898 -345.21,41.1993 -513.8,70.5705 115.07,-2.371 217.36,-49.7306 333.85,-56.8283" /></g></g></svg>