<?xml version="1.0" encoding="UTF-8" standalone="no"?>
<!-- Generator: Adobe Illustrator 16.0.0, SVG Export Plug-In . SVG Version: 6.00 Build 0)  -->

<svg
   xmlns:dc="http://purl.org/dc/elements/1.1/"
   xmlns:cc="http://creativecommons.org/ns#"
   xmlns:rdf="http://www.w3.org/1999/02/22-rdf-syntax-ns#"
   xmlns:svg="http://www.w3.org/2000/svg"
   xmlns="http://www.w3.org/2000/svg"
   xmlns:sodipodi="http://sodipodi.sourceforge.net/DTD/sodipodi-0.dtd"
   xmlns:inkscape="http://www.inkscape.org/namespaces/inkscape"
   version="1.1"
   id="Layer_1"
   x="0px"
   y="0px"
   width="810px"
   height="810px"
   viewBox="0 0 810 810"
   enable-background="new 0 0 810 810"
   xml:space="preserve"
   sodipodi:docname="luigi.svg"
   inkscape:version="0.92.4 (5da689c313, 2019-01-14)"><metadata
   id="metadata56"><rdf:RDF><cc:Work
       rdf:about=""><dc:format>image/svg+xml</dc:format><dc:type
         rdf:resource="http://purl.org/dc/dcmitype/StillImage" /></cc:Work></rdf:RDF></metadata><defs
   id="defs54" /><sodipodi:namedview
   pagecolor="#ffffff"
   bordercolor="#666666"
   borderopacity="1"
   objecttolerance="10"
   gridtolerance="10"
   guidetolerance="10"
   inkscape:pageopacity="0"
   inkscape:pageshadow="2"
   inkscape:window-width="1366"
   inkscape:window-height="715"
   id="namedview52"
   showgrid="false"
   inkscape:zoom="0.29135802"
   inkscape:cx="-434.39477"
   inkscape:cy="163.49084"
   inkscape:window-x="-8"
   inkscape:window-y="22"
   inkscape:window-maximized="1"
   inkscape:current-layer="Layer_1" />
<g
   id="g49"
   transform="matrix(-1.1667577,0,0,1.1667577,741.3907,-67.600648)">
	<path
   d="m 627.664,370.097 c -0.796,-1.187 -1.22,-2.712 -1.501,-4.142 -2.54,-12.921 -10.896,-20.755 -22.764,-24.816 -17.227,-5.896 -34.354,-4.499 -51.04,2.486 -2.615,1.095 -4.878,1.519 -7.615,0.51 -7.169,-2.643 -14.104,-1.488 -20.715,1.989 -1.549,0.814 -2.969,1.168 -4.737,0.901 -5.256,-0.794 -10.544,-1.369 -15.812,-2.078 -17.028,-2.291 -34.151,-2.443 -51.275,-2.036 -9.78,0.232 -19.43,2.843 -29.225,-1.509 -5.921,-2.63 -6.082,-1.615 -4.315,-7.897 0.979,-3.481 2.233,-3.253 4.694,-1.644 3.918,2.562 8.639,4.279 12.719,2.03 4.294,-2.367 8.082,-4.92 13.301,-5.001 2.15,-0.034 3.652,-2.775 4.287,-5.11 0.756,-2.78 0.479,-5.568 -0.322,-8.348 -1.735,-6.031 -3.511,-12.013 -2.532,-18.493 0.625,-4.131 2.006,-5.857 6.413,-4.415 5.478,1.792 11.147,1.67 16.738,0.396 16.109,-3.674 30.914,-21.969 31.193,-38.493 0.04,-2.342 -0.136,-4.571 2.374,-6.067 4.845,-2.888 8.064,-7.388 11.122,-11.975 13.223,-19.836 8.646,-45.232 -11.127,-55.271 -7.734,-3.926 -10.728,-7.659 -11.114,-16.527 -0.879,-20.11 -7.396,-39.108 -15.846,-57.288 C 471.281,87.316 458.222,70.832 436.537,63.114 433.101,62.143 429.479,61.373 425.908,61 h -17.483 c -3.049,0.278 -6.065,0.751 -8.962,1.502 -0.432,0.312 -1.048,0.445 -1.627,0.654 -4.392,1.585 -8.607,3.496 -12.422,6.273 -9.883,7.194 -16.596,16.705 -20.536,28.169 -0.962,2.8 -2.046,3.552 -5.028,2.754 -4.853,-1.298 -9.929,-0.86 -14.911,-0.726 -9.666,0.262 -17.884,3.566 -23.338,12.008 -1.229,1.903 -2.132,2.467 -4.101,0.832 -9.548,-7.933 -20.668,-9.798 -32.721,-8.589 -35.879,3.597 -68.463,37.221 -66.473,73.8 1.179,21.669 11.181,38.275 31.229,47.932 2,0.963 2.879,1.646 3.02,4.215 0.475,8.705 4.132,15.868 12.67,19.182 3.259,1.265 4.654,3.316 5.74,6.201 12.828,34.084 27.16,67.543 42.773,100.429 2.539,5.348 2.332,8.736 -2.014,12.218 -4.308,3.453 -5.771,9.506 -10.843,12.179 -5.152,2.715 -8.472,7.042 -10.751,12.082 -4.23,9.354 -3.383,19.351 -2.84,29.231 0.08,1.463 0.466,2.771 -0.018,4.33 -5.362,17.266 -6.398,34.771 -2.344,52.451 0.747,3.254 -0.473,4.503 -3.425,4.15 -4.073,-0.486 -7.983,-0.008 -11.627,1.709 -1.935,0.91 -3.449,0.438 -5.181,-0.209 -14.46,-5.404 -29.07,-6.206 -43.986,-1.804 -21.89,6.461 -36.889,26.11 -37.129,48.922 -0.024,2.298 0.29,4.643 -0.828,6.863 -6.204,12.325 -4.583,24.695 0.882,36.55 9.078,19.691 25.209,32.697 43.328,43.535 3.172,1.897 5.894,4.02 8.251,6.973 11.107,13.915 25.372,23.116 43.104,25.471 13.742,1.823 25.859,-1.73 32.759,-15.354 0.991,-1.956 2.792,-2.16 4.497,-2.733 10.146,-3.42 16.223,-10.789 19.206,-20.698 1.459,-4.849 0.923,-10.408 7.198,-12.615 0.507,-0.179 0.912,-0.615 1.281,-1.16 0.783,-1.737 1.962,-3.286 2.751,-5.041 0.01,-0.021 0.026,-0.032 0.038,-0.051 0.696,-1.536 1.351,-3.088 2.104,-4.593 0.336,-0.863 0.728,-1.713 1.268,-2.517 0.637,0.697 1.133,1.133 1.5,1.658 17.529,25.166 36.584,49.085 58.051,71.028 1.4,1.431 1.715,3.087 2.084,4.91 1.337,6.619 3.396,12.968 9.302,17.028 2.053,1.412 2.309,3.185 2.043,5.164 -0.823,6.134 -0.257,12.252 0.754,18.234 2.737,16.225 7.744,31.156 20.933,40.949 3.927,2.618 8.053,4.67 13.069,5.247 7.331,0.844 14.713,1.065 22.06,0.215 4.27,-0.495 8.346,-1.571 12.414,-2.723 4.169,-2.121 8.716,-2.875 13.435,-3.743 0.377,-0.069 0.729,-0.166 1.095,-0.246 4.035,-1.331 7.663,-3.076 11.218,-5.467 5.273,-4.562 8.342,-11.256 9.945,-18.922 4.288,-20.509 2.066,-40.695 -4.666,-60.363 -1.138,-3.321 -1.653,-5.393 1.232,-7.868 1.764,-1.512 2.297,-4.168 2.119,-6.472 -0.824,-10.737 -1.354,-21.574 -6.309,-31.479 -3.497,-6.991 -8.332,-12.438 -16.668,-13.49 -1.591,-0.2 -2.736,-1.067 -3.803,-2.186 -3.692,-3.876 -8.074,-6.295 -13.556,-6.586 -4.357,-0.232 -8.631,-0.397 -12.477,-3.321 -2.009,-1.527 -5.201,-1.667 -7.748,-0.896 -2.542,0.768 -3.593,-0.254 -4.774,-2.118 -8.189,-12.914 -16.349,-25.854 -24.744,-38.634 -2.148,-3.273 -2.224,-5.489 0.518,-8.547 8.662,-9.661 13.521,-21.222 15.662,-33.951 2.788,-16.585 0.222,-32.736 -4.437,-48.608 -2.933,-9.994 -6.154,-19.6 -4.664,-30.518 1.625,-11.914 0.819,-11.693 13.234,-12.177 13.937,-0.543 27.799,-0.282 41.662,1.201 2.077,0.223 3.155,0.745 4.036,2.749 2.546,5.793 6.815,9.775 13.252,10.896 2.022,0.352 3.013,1.124 3.662,3.267 2.642,8.707 7.666,15.896 15.232,21.006 10.107,6.827 20.729,9.854 32.012,2.642 1.758,-1.123 2.882,-0.707 4.498,0.034 5.974,2.746 12.255,4.006 18.879,3.767 10.502,-0.378 22.527,-5.164 24.66,-19.363 0.229,-1.53 0.978,-2.633 2.578,-3.346 7.851,-3.494 10.729,-10.088 11.852,-18.208 0.543,-3.923 -1.039,-7.843 0.819,-11.731 5.607,-11.735 5.776,-23.293 -1.719,-34.46 z M 339.297,192.215 c -0.779,1.526 -2.558,0.585 -3.607,0.132 -1.371,-0.593 -0.357,-1.619 0.225,-2.352 2.279,-2.874 4.064,-6.035 5.607,-9.351 0.331,-0.713 0.676,-1.62 1.771,-1.353 0.777,0.189 0.852,0.884 0.938,1.963 -1.523,3.44 -3.059,7.287 -4.934,10.961 z"
   id="path2"
   inkscape:connector-curvature="0"
   style="fill:#0b0304" />
	<g
   id="g12">
		<g
   id="g8">
			<path
   d="m 503.275,632.988 c -4.433,15.367 2.744,29.523 4.241,44.271 1.668,16.437 2.798,32.858 -5.271,48.235 -6.542,12.467 -17.321,17.842 -30.971,18.012 -13.523,0.169 -24.695,-4.765 -32.427,-16.174 -5.028,-7.422 -7.212,-15.967 -8.808,-24.67 -0.844,-4.602 -1.054,-9.239 -0.983,-13.91 0.038,-2.443 0.817,-3.747 3.517,-3.565 20.697,1.399 34.835,-9.087 44.615,-25.947 10.303,-17.76 12.043,-37.08 7.304,-56.924 -0.962,-4.025 0.071,-4.433 3.435,-3.293 9.62,3.258 12.48,11.337 13.966,20.102 0.772,4.554 1.539,9.206 1.382,13.863 z"
   id="path4"
   inkscape:connector-curvature="0"
   style="fill:#874c30" />
			<path
   d="m 239.287,486.926 c 23.938,0.629 41.706,11.385 53.665,32.202 9.019,15.699 14.337,32.812 20.041,49.81 3.441,10.256 7.568,20.209 13.733,29.198 0.541,0.789 1.055,1.726 1.186,2.647 0.885,6.271 -5.851,18.46 -11.661,21.514 -2.04,1.072 -2.891,0.744 -3.426,-1.573 -2.102,-9.097 -6.958,-16.45 -12.876,-23.752 -4.977,-6.14 -7.206,-14.478 -10.812,-21.763 -7.792,-15.744 -16.749,-30.656 -30.983,-41.604 -9.312,-7.161 -19.907,-11.153 -31.524,-12.618 -11.444,-1.443 -22.541,-0.816 -32.815,5.138 -0.724,0.42 -1.661,1.035 -2.275,0.381 -1.009,-1.075 -0.562,-2.526 -0.26,-3.811 2.283,-9.702 7.539,-17.671 14.903,-24.151 9.397,-8.273 20.585,-11.907 33.104,-11.618 z"
   id="path6"
   inkscape:connector-curvature="0"
   style="fill:#874c30" />
		</g>
		<path
   d="m 463.598,209.156 c 3.289,6.095 4.909,12.017 6.847,17.82 0.647,1.946 0.559,3.421 -1.481,4.607 -6.712,3.901 -11.597,9.755 -16.493,15.619 -5.383,6.447 -14.002,6.282 -18.801,-0.2 -3.102,-4.19 -2.25,-9.493 2.281,-11.335 11.762,-4.78 20.309,-12.851 25.971,-24.123 0.359,-0.719 0.928,-1.335 1.676,-2.388 z m -25.269,114.555 c 2.634,1.336 5.435,2.124 8.002,0.257 2.417,-1.757 2.632,-4.417 1.802,-7.191 -0.379,-1.268 -0.438,-2.669 -1.004,-3.835 -2.26,-4.661 -2.31,-9.613 -2.324,-14.618 -0.004,-1.117 0.902,-2.597 -0.885,-3.585 -7.34,7.346 -12.962,15.958 -18.451,24.641 -3.74,5.914 -2.251,9.18 4.567,11.074 1.978,0.549 3.622,0.1 5.001,-1.288 1.32,-1.33 0.639,-2.754 -0.027,-4.136 -0.627,-1.298 -1.229,-2.607 -2.078,-4.416 2.89,0.363 3.779,2.277 5.397,3.097 z"
   id="path10"
   inkscape:connector-curvature="0"
   style="fill:#874c30" />
	</g>
	<g
   id="g18">
		<path
   d="m 505.528,734.099 c 12.585,-24.856 9.999,-49.957 4.028,-75.141 -1.438,-6.064 -2.109,-11.999 -1.69,-18.225 0.75,-11.143 0.711,-22.287 -3.104,-33.235 3.838,0.787 6.254,2.745 8.057,6.636 4.056,8.756 5.757,18.037 5.956,27.642 0.038,1.914 -0.193,4.039 -1.521,5.13 -3.378,2.774 -2.021,5.65 -1.015,8.812 5.672,17.829 8.059,36.042 5.761,54.697 -0.862,6.999 -2.658,13.741 -7.716,19.119 -2.216,2.353 -4.716,4.101 -8.756,4.565 z"
   id="path14"
   inkscape:connector-curvature="0"
   style="fill:#f7b16c" />
		<path
   d="m 301.121,634.942 c 0.697,-8.061 -1.651,-14.632 -5.932,-19.954 -5.55,-6.9 -8.708,-14.844 -12.26,-22.693 -6.271,-13.854 -13.318,-27.234 -24.662,-37.766 -13.215,-12.269 -28.819,-18.283 -46.904,-17.216 -9.257,0.547 -17.606,3.427 -23.712,11.212 -0.853,-6.521 1.774,-12.188 7.571,-15.969 10.912,-7.113 22.903,-7.285 35.159,-5.01 19.676,3.655 33.261,15.981 44.253,31.711 6.009,8.599 10.976,17.833 15.421,27.354 3.012,6.45 5.919,12.894 10.633,18.509 4.828,5.752 7.044,12.806 5.992,20.519 -0.479,3.507 -1.664,6.681 -5.559,9.303 z m -14.447,6.963 c -2.27,0.464 -4.593,0.668 -5.655,0.817 -15.296,-0.865 -26.929,-7.218 -36.598,-16.763 -7.97,-7.866 -16.706,-14.606 -25.538,-21.38 -12.168,-9.332 -22.046,-20.707 -28.075,-35.052 -4.946,-11.769 -0.42,-21.826 11.908,-25.341 17.335,-4.94 32.866,-0.352 46.993,10.053 15.327,11.286 24.118,27.226 30.978,44.41 2.412,6.041 4.755,11.942 9.346,16.809 2.605,2.761 4.239,6.328 5.647,9.923 3.414,8.714 0.242,14.636 -9.006,16.524 z m -4.302,-32.364 c -14.75,0.667 -29.137,0.993 -44.423,3.819 9.044,4.825 39.543,1.973 44.423,-3.819 z"
   id="path16"
   inkscape:connector-curvature="0"
   style="fill:#f7b16c" />
	</g>
	<path
   d="m 479.102,620.733 c -0.782,17.22 -5.517,33.688 -19.452,46.133 -6.612,5.903 -14.039,10.601 -23.604,10.269 -8.501,-0.296 -15.301,-3.63 -16.265,-11.792 -1.228,-10.378 -8.312,-15.798 -14.309,-22.293 -18.967,-20.55 -35.818,-42.728 -51.654,-65.723 -1.499,-2.177 -2.718,-4.354 -0.601,-6.726 2.708,-3.033 3.758,-8.109 9.554,-7.354 16.316,2.124 32.14,0.256 47.315,-6.299 4.732,-2.044 9.321,-4.348 13.396,-7.573 2.406,-1.906 4.021,-1.701 5.913,1.205 9.22,14.156 18.716,28.133 28.124,42.165 1.012,1.507 2.184,1.898 4.205,1.565 8.358,-1.375 12.229,1.152 14.917,9.391 0.824,2.522 1.498,5.13 1.877,7.751 0.404,2.788 0.377,5.638 0.584,9.281 z m -40.258,-168.96 c -1.541,-4.511 -4.643,-8.531 -4.569,-13.533 0.032,-2.38 1.935,-5.545 -0.5,-6.852 -2.229,-1.194 -3.56,2.338 -5.496,3.467 -0.145,0.083 -0.303,0.157 -0.417,0.272 -3.118,3.113 -4.926,2.797 -7.239,-1.397 -3.92,-7.104 -7.854,-14.344 -14.103,-20.782 -0.567,4.33 -0.818,7.95 -1.549,11.472 -1.924,9.277 -5.779,17.365 -14.816,21.83 -4.833,2.388 -9.946,2.042 -15.042,1.835 -0.816,-0.109 -1.63,-0.237 -2.443,-0.405 -1.415,-0.291 -2.787,-0.802 -4.128,-1.42 -1.095,-0.641 -2.248,-1.192 -3.381,-1.784 -1.033,-0.606 -2.043,-1.238 -3.037,-1.854 -0.625,-0.476 -1.217,-1.008 -1.755,-1.634 -8.171,-9.501 -8.86,-20.424 -6.398,-31.938 1.285,-6.009 2.972,-11.904 6.475,-17.151 1.761,-2.638 1.957,-5.061 -2.266,-5.798 -6.688,-1.167 -13.331,-2.489 -20.126,-3.042 -4.41,-0.359 -6.659,1.133 -8.038,5.403 -2.854,8.834 -5.52,17.841 -9.547,26.155 -4.672,9.643 -11.046,18.152 -23.982,16.066 -2.185,-0.353 -2.545,1.278 -2.954,2.621 -3.682,12.087 -4.86,24.35 -2.702,36.896 0.586,3.408 1.58,4.05 4.267,1.695 2.734,-2.394 5.567,-4.682 8.431,-6.921 15.641,-12.229 32.362,-19.947 51.442,-17.734 6.402,1.185 12.511,3.271 18.396,6.343 8.408,4.96 14.421,12.457 20.191,20.312 2.172,2.957 1.055,4.479 -1.196,6.066 -4.364,3.075 -5.484,-1.207 -7.091,-3.475 C 370.74,455.972 348.276,450.032 326,460.91 c -10.08,4.923 -18.94,11.537 -27.349,18.915 -3.097,2.717 -6.208,4.916 -3.765,8.209 0.218,0.467 0.498,0.936 0.834,1.424 0.669,0.971 1.141,1.999 1.55,3.049 -4.007,-0.454 -7.519,-2.629 -11.334,-2.139 -1.057,0.016 -2.206,0.139 -3.144,0.413 -0.165,0.048 -0.319,0.123 -0.465,0.21 -0.406,0.121 -0.749,0.352 -0.948,0.836 -0.364,0.886 0.099,1.48 0.68,1.979 0.149,0.142 0.312,0.271 0.485,0.392 0.173,0.134 0.343,0.266 0.486,0.396 12.846,11.807 19.68,27.286 26.328,42.884 5.475,12.848 8.07,26.695 13.662,39.498 2.24,5.13 4.053,10.515 8.551,14.357 2.286,1.955 3.885,2.027 5.617,-0.673 1.91,-2.978 3.327,-6.088 3.958,-9.562 1.03,-3.977 0.724,-8.151 1.801,-12.121 8.072,-11.17 16.204,-22.301 24.181,-33.538 1.994,-2.811 3.589,-2.745 5.935,-0.473 3.643,3.53 -0.088,6.032 -1.32,8.466 -2.188,4.316 -5.487,8.053 -7.637,13.026 16.433,0.933 31.7,-1.511 45.797,-8.98 15.045,-7.975 26.26,-19.688 31.742,-36.144 6.72,-20.17 3.899,-39.957 -2.801,-59.561 z M 305.019,423.666 c 7.586,-5.047 11.261,-12.788 13.928,-21.175 4.854,-15.26 10.993,-29.894 21.36,-42.376 3.131,-3.768 6.36,-7.453 9.671,-11.324 -0.762,-0.243 -1.115,-0.495 -1.353,-0.412 -15.492,5.409 -26.386,16.747 -36.854,28.629 -0.761,0.863 -0.89,1.896 -0.012,2.669 7.247,6.376 5.224,14.13 3.08,21.738 -3.521,12.505 -11.812,18.805 -22.201,17.237 1.606,6.204 7.06,8.552 12.381,5.014 z m 118.076,-74.895 c -10.95,10.45 -14.226,24.463 -18.085,38.226 v 0 c -3.341,14.31 -2.381,29.468 -8.085,43.272 -4.799,11.612 -17.083,15.745 -28.052,9.872 -4.308,-2.306 -7.012,-6.229 -8.454,-10.651 -2.477,-7.601 -2.824,-15.134 -0.379,-22.414 0.309,-1.147 0.652,-2.312 1.075,-3.522 1.137,-3.257 2.354,-6.575 4.029,-9.604 0.273,-0.494 0.576,-0.963 0.89,-1.423 2.009,-3.548 4.552,-6.804 6.821,-10.182 9.059,-13.485 20.15,-25.047 33.565,-34.336 4.814,-3.334 9.801,-3.727 15.148,-1.815 1.222,0.435 3.178,1.001 1.527,2.577 z m -25.202,62.579 c -0.325,-3.052 -1.042,-6.216 -2.385,-8.963 -0.154,-0.24 -0.308,-0.48 -0.462,-0.722 -4.993,-7.788 -13,-10.311 -21.42,-6.617 -0.752,0.33 -1.456,0.731 -2.127,1.178 -2.825,2.003 -5.24,4.771 -7.021,7.814 -2.064,4.683 -4.017,9.363 -3.486,14.88 0.901,9.393 9.765,18.82 17.674,17.762 8.116,-1.086 13.949,-5.217 17.214,-13.164 1.674,-4.077 2.176,-8.1 2.013,-12.168 z"
   id="path20"
   inkscape:connector-curvature="0"
   style="fill:#0264b1" />
	<g
   id="g30">
		<path
   d="m 431.307,103.678 c -1.603,-12.255 -8.873,-19.761 -19.97,-20.673 -13.123,-1.078 -22.734,5.114 -26.478,17.06 -0.646,2.058 -1.096,3.622 -1.289,4.873 0.799,2.993 3.931,4.204 6.239,6.036 0.352,0.278 0.714,0.547 1.072,0.818 0.003,0.001 0.007,0.002 0.011,0.004 6.035,4.151 12.07,8.302 18.105,12.449 10e-4,0 0.002,0 0.002,0 0,10e-4 -0.001,0.002 -0.002,0.003 3.113,2.731 6.305,5.381 9.314,8.224 1.89,1.786 2.93,1.08 4.354,-0.618 6.876,-8.195 10.04,-17.48 8.642,-28.176 z"
   id="path22"
   inkscape:connector-curvature="0"
   style="fill:#fcfcfc" />
		<path
   id="hand"
   d="m 316.78,170.692 c -4.841,2.748 -9.043,5.658 -14.296,6.209 -9.52,1 -14.192,-3.323 -13.571,-12.931 0.43,-6.64 4.105,-11.484 9.018,-15.491 2.987,-2.437 6.468,-4.083 10.164,-5.225 9.343,-2.885 9.429,-2.829 13.117,6.097 3.203,7.748 7.24,15.043 12.993,21.174 2.353,2.507 2.556,4.646 1.019,7.466 -1.431,2.625 -2.531,5.429 -3.945,8.064 -1.938,3.61 -4.569,5.896 -8.927,7.061 -15.056,4.023 -23.969,20.533 -20.996,37.831 1.437,8.362 1.458,8.426 -6.919,11.081 -8.904,2.822 -17.879,4.41 -26.697,-0.23 -4.999,-2.63 -8.967,-6.175 -9.264,-12.659 5.75,0.103 11.422,1.43 16.759,-1.296 -0.516,-1.492 -1.704,-1.121 -2.541,-1.24 -37.185,-5.286 -57.123,-39.567 -42.09,-74.049 10.843,-24.872 29.852,-40.009 57.806,-41.879 8.907,-0.596 17.14,1.647 24.21,7.474 3.003,2.475 5.111,5.11 4.229,9.354 -0.331,1.591 0.134,3.332 -0.019,4.982 -0.143,1.55 1.776,3.946 -1.099,4.48 -2.579,0.479 -5.133,1.177 -6.872,-2.646 -3.273,-7.197 -9.108,-11.757 -17.185,-12.958 -0.488,-0.073 -1.004,-0.075 -1.488,0.007 -0.251,0.042 -0.46,0.338 -1.136,0.876 6.932,2.397 10.734,7.662 13.773,13.662 1,1.974 0.901,3.213 -1.603,3.978 -3.855,1.178 -7.043,5.153 -10.375,5.448 -3.284,0.291 -5.024,-5.363 -8.3,-7.589 -3.894,-2.646 -7.338,-3.85 -14.003,-3.838 7.298,3.385 11.969,7.879 15.076,14.013 1.214,2.397 1.517,4.303 0.361,6.954 -3.293,7.551 -3.592,15.191 1.157,22.399 0.926,1.405 1.551,2.499 0.112,3.901 -2.128,2.073 -4.704,2.244 -7.439,1.992 -2.235,-0.206 -1.812,-1.864 -1.998,-3.324 -1.842,-14.518 -8.596,-25.344 -23.001,-30.346 -0.444,-0.154 -0.952,-0.125 -1.594,-0.2 -0.116,1.623 1.291,1.775 2.069,2.304 9.995,6.796 14.574,16.566 15.478,28.287 0.15,1.943 -0.221,4.004 -0.739,5.905 -1.379,5.062 -4.473,8.698 -9.875,9.335 -6.085,0.717 -9.939,-2.992 -12.982,-7.672 -0.858,-1.321 -1.344,-2.885 -2.181,-4.738 -0.994,7.811 3.722,15.653 10.448,18.008 6.895,2.413 14.931,-0.691 19.14,-8.001 1.715,-2.979 3.104,-4.19 6.765,-3.451 4.182,0.844 8.467,-0.226 11.282,-3.829 1.704,-2.182 3.558,-2.384 6.03,-2.307 9.213,0.289 16.402,-4.098 20.129,-12.443 z"
   inkscape:connector-curvature="0"
   style="fill:#fcfcfc" />
		<path
   d="m 624.961,395.064 c 3.082,-8.768 1.521,-16.106 -2.778,-23.113 -0.942,-1.536 -2.151,-2.894 -2.402,-4.851 -0.998,-7.792 -5.776,-12.906 -12.29,-16.598 -13.044,-7.394 -27.092,-7.345 -41.312,-5.103 -11.268,1.776 -21.194,6.7 -30.237,13.864 0.774,-2.144 2.024,-3.848 3.038,-5.682 0.697,-1.262 2.979,-2.055 2.207,-3.529 -0.936,-1.788 -3.277,-1.345 -5.033,-1.232 -7.099,0.457 -11.973,4.742 -15.95,10.058 -10.681,14.267 -14.363,30.546 -13.133,48.08 0.243,3.475 1.071,6.932 3.182,9.875 1.301,1.816 2.965,3.691 5.284,3.11 2.421,-0.606 1.122,-3.115 1.231,-4.722 0.499,-7.233 2.092,-14.089 5.893,-20.33 0.229,1.905 -0.048,3.693 -0.209,5.492 -1.141,12.737 0.053,25.046 7.647,35.854 5.08,7.229 11.886,12.109 20.945,13.066 7.562,0.801 12.538,-2.06 14.802,-8.24 0.856,-2.341 1.725,-4.25 -2.366,-4.386 -3.524,-0.117 -1.981,-3.605 -2.307,-5.571 -0.467,-2.824 2.025,-2.026 3.455,-1.985 6.145,0.178 11.786,2.05 16.834,5.56 1.175,0.816 3.789,1.637 1.513,3.538 -1.552,1.297 -2.075,5.27 -5.669,2.918 -1.146,-0.749 -3.08,-2.98 -3.416,0.332 -0.221,2.184 -4.632,4.948 0.46,6.872 4.453,1.685 9.044,2.209 13.75,1.928 12.037,-0.719 18.871,-7.321 20.273,-19.26 0.713,-6.059 -0.673,-11.799 -2.61,-18.125 5.654,3.418 6.311,9.086 8.784,14.056 6.478,-5.628 8.326,-12.531 7.465,-20.392 -0.835,-7.624 -3.144,-14.758 -7.501,-21.276 4.51,1.852 7.278,5.482 10.45,9.792 z m -60.158,4.162 c -3.067,-1.558 -7.91,-10.213 -7.59,-13.528 0.065,-0.683 0.165,-1.219 0.951,-1.492 3.815,-1.328 13.952,6.41 14.045,10.751 0.082,3.864 -3.798,6.101 -7.406,4.269 z m 16.051,-22.233 c -2.977,2.621 -6.213,1.389 -9.422,0.442 -2.268,-0.669 -4.295,-1.76 -6.129,-3.223 -1.008,-0.803 -2.586,-1.502 -2.163,-3 0.396,-1.405 2.08,-1.51 3.358,-1.741 2.123,-0.382 4.272,-0.604 5.887,-0.822 3.854,0.15 7.394,-0.138 9.352,3.328 0.975,1.728 0.659,3.655 -0.883,5.016 z m -1.615,-19.179 c -3.003,0.86 -6.151,1.214 -8.755,1.695 -1.916,-0.547 -3.941,1.02 -4.626,-0.684 -0.737,-1.835 1.452,-2.673 2.646,-3.638 2.455,-1.981 5.105,-3.683 8.193,-4.559 2.65,-0.752 5.251,-0.601 6.244,2.305 1.011,2.948 -1.473,4.242 -3.702,4.881 z"
   id="path25"
   inkscape:connector-curvature="0"
   style="fill:#fcfcfc" />
		<path
   id="teeth"
   d="m 359.265,293.48 c -1.006,-0.139 -2.546,-0.139 -3.938,-0.592 -2.182,-0.71 -4.194,-2.429 -3.87,-4.596 0.27,-1.803 2.842,-0.912 4.37,-1.005 4.498,-0.271 8.969,-0.788 13.218,-2.236 4.48,-1.527 9.101,-1.639 13.708,-1.994 1.127,-0.087 2.864,-0.923 3.114,1.249 0.178,1.547 -0.781,2.354 -2.138,2.954 -7.656,3.386 -15.613,5.551 -24.464,6.22 z"
   inkscape:connector-curvature="0"
   style="fill:#fcfcfc" />
		<path
   d="m 366.163,195.178 c 1.709,0.555 1.879,1.952 1.572,3.222 -0.371,1.538 -0.685,3.522 -2.79,3.605 -1.758,0.068 -2.085,-1.363 -1.879,-2.81 0.273,-1.907 1.152,-3.403 3.097,-4.017 z m 0.857,-19.344 c -4.125,-1.231 -7.02,1.127 -9.359,4.114 -3.533,4.51 -5.382,9.836 -7.063,15.241 -0.512,1.647 -0.043,2.634 1.393,3.146 0.92,0.328 1.356,0.138 1.602,-0.258 0.329,-1.448 0.728,-2.879 1.25,-4.264 0.763,-2.269 2.067,-4.281 3.478,-6.216 3.267,-4.484 7.59,-5.486 12.692,-3.53 -0.314,-3.248 0.131,-7.002 -3.993,-8.233 z m 25.994,56.146 c -4.72,-1.903 -6.959,-5.775 -7.146,-10.49 -0.454,-11.516 2.555,-22.071 10.22,-30.932 3.431,-3.966 7.75,-6.306 13.244,-5.158 5.537,1.156 7.853,5.07 8.518,10.302 -7.934,-4.152 -12.412,-3.692 -17.806,1.822 -2.948,3.014 -5.016,6.509 -6.413,10.519 -2.769,7.948 -2.813,15.897 -0.617,23.937 z m 15.895,-14.591 c 2.595,-0.305 3.145,-2.646 3.323,-4.819 0.141,-1.703 -0.208,-3.624 -2.476,-3.386 -2.666,0.28 -3.512,2.268 -3.258,4.864 0.086,1.562 0.117,3.611 2.411,3.341 z"
   id="path28"
   inkscape:connector-curvature="0"
   style="fill:#fcfcfc" />
	</g>
	<g
   id="g36">
		<path
   d="m 310.95,385.03 v 0.001 c 0,0 -10e-4,-0.001 0,-0.001 -2.956,-3.384 -6.084,-1.736 -8.921,-0.03 -7.584,4.56 -11.865,17.354 -8.875,25.936 1.814,3.561 4.09,4.927 6.696,4.098 0.892,-0.213 1.711,-0.572 2.539,-1.126 2.443,-1.635 4.755,-4.533 6.323,-7.338 1.605,-2.4 2.473,-5.182 3.215,-7.922 1.229,-4.548 2.54,-9.318 -0.977,-13.618 z m -1.671,8.994 c -0.036,2.937 -0.938,5.592 -2.285,8.102 0,0.001 0,0.001 -0.001,0.002 -0.436,0.81 -0.923,1.601 -1.435,2.385 -0.246,0.323 -0.497,0.651 -0.753,0.979 -0.353,0.397 -0.722,0.785 -1.116,1.156 -0.288,0.271 -0.577,0.554 -0.874,0.824 -0.995,0.686 -1.943,1.703 -3.914,0.989 5.103,-4.985 6.68,-11.686 10.134,-17.377 0.185,1.013 0.255,1.989 0.244,2.938 z"
   id="path32"
   inkscape:connector-curvature="0"
   style="fill:#f5d20a" />
		<path
   d="m 384.671,398.679 c -7.436,-2.262 -15.048,2.702 -17.993,11.732 -2.862,8.779 0.773,18.39 7.926,20.601 0.839,0.261 1.706,0.488 2.583,0.599 0.17,0.024 0.34,0.038 0.51,0.056 0.015,0.001 0.028,0.003 0.043,0.004 1.088,0.105 2.188,0.075 3.233,-0.101 2.234,-0.377 3.976,-1.384 5.489,-2.72 3.207,-2.184 5.119,-5.648 6.33,-9.809 2.474,-9.898 -0.813,-18.139 -8.121,-20.362 z m 2.54,10.327 c -0.132,-1.004 0.092,-1.187 1.334,-0.481 0.575,0.519 0.917,1.212 1.11,1.979 0.794,5.062 -0.026,9.778 -3.588,13.883 -1.313,1.515 -2.75,2.897 -5.01,2.706 3.536,-5.521 7.086,-11.009 6.154,-18.087 z"
   id="path34"
   inkscape:connector-curvature="0"
   style="fill:#f5d20a" />
	</g>
	<path
   id="tongue"
   d="m 381.659,290.593 c -2.369,1.129 -4.748,2.228 -7.298,2.959 -6.188,1.775 -11.417,4.862 -14.202,11.038 -1.748,3.875 -1.057,6.526 2.338,9.13 6.741,5.171 15.34,3.354 19.954,-4.365 2.883,-4.822 3.429,-10.323 4.019,-14.602 0.238,-6.092 -0.214,-6.349 -4.811,-4.16 z"
   inkscape:connector-curvature="0"
   style="fill:#e71d26" />
	<path
   d="m 370.106,190.382 c -0.05,0.127 -0.115,0.238 -0.189,0.34 -0.108,0.189 -0.279,0.344 -0.53,0.455 -0.461,0.251 -1.042,0.318 -1.563,0.258 -1.087,-0.125 -2.175,-0.163 -3.261,-0.232 -2.801,0.779 -3.729,4.919 -4.789,7.932 -0.341,0.969 -0.195,2.696 -1.681,2.676 -1.035,-0.014 -2.032,-0.374 -2.561,-1.241 -0.25,-0.554 -0.301,-1.153 -0.093,-1.938 0.06,-0.226 0.134,-0.447 0.208,-0.669 1.421,-3.544 2.408,-7.307 5.25,-10.133 2.475,-2.462 5.032,-3.692 7.842,-1.628 0.282,0.236 0.517,0.514 0.727,0.81 0.785,0.896 1.15,2.06 0.64,3.37 z m 46.808,8.768 c -4.689,-5.098 -9.402,-5.694 -14.146,-1.182 -7.803,7.424 -10.248,16.807 -8.916,27.297 0.394,3.097 1.979,5.603 4.341,7.625 0,0 0,0 0.001,0 1.511,0.365 2.955,0.098 4.293,-0.607 0.906,-0.478 1.794,-1.181 0.562,-2.187 -5.204,-4.244 -4.292,-9.24 -2.938,-14.295 1.859,-6.538 5.546,-15.396 12.835,-13.038 1.191,0.772 2.276,1.946 3.442,2.854 1.326,-2.328 0.719,-4.413 0.526,-6.467 z"
   id="path39"
   inkscape:connector-curvature="0"
   style="fill:#35bbdb" />
	<path
   d="m 498.141,247.244 c -0.997,-9.211 -9.166,-15.472 -18.371,-14.098 -7.729,1.154 -13.248,5.842 -18.258,11.36 -3.452,3.802 -6.206,8.237 -10.733,11.048 -7.923,4.917 -18.907,2.132 -23.322,-6.061 -4.216,-7.823 -0.734,-15.786 8.831,-19.744 12.697,-5.255 18.95,-15.633 22.575,-28.097 1.057,-3.634 -0.199,-5.794 -4.406,-5.68 -6.737,0.183 -12.801,-2.088 -18.217,-5.884 -2.73,-1.914 -4.91,-3.051 -6.869,1.418 -2.832,-23.471 -8.666,-26.643 -31.381,-17.629 0.289,-5.242 4.041,-8.545 6.785,-12.619 -7.147,-3.268 -14.378,-5.043 -21.776,-6.319 -2.401,-0.414 -3.365,0.075 -3.096,2.741 0.324,3.229 -0.256,6.391 -1.437,9.469 -1.753,-0.692 -1.276,-1.906 -1.584,-2.767 -2.906,-8.132 -10.261,-9.728 -15.68,-3.062 -2.549,3.136 -4.935,6.586 -6.236,10.562 -4.141,6.286 -6.701,13.318 -9.561,20.21 -0.535,1.288 -1.108,2.795 0.714,3.272 2.062,0.541 1.758,-1.519 2.093,-2.617 2.006,-6.572 4.973,-12.612 9.562,-17.788 3.797,-3.007 8.086,-3.829 12.418,-1.767 4.146,1.973 4.963,6.099 4.8,10.232 -0.346,8.773 -3.304,16.946 -6.243,25.098 -0.621,1.722 -1.497,3.279 -0.024,5.114 0.894,1.112 2.602,2.454 0.112,4.021 -2.257,1.421 -3.449,0.608 -4.91,-1.204 -4.545,-5.634 -9.962,-10.349 -16.482,-13.526 -9.71,-4.73 -20.014,-7.166 -29.359,-0.164 -9.681,7.253 -12.418,17.925 -9.934,29.557 2.663,12.473 12.563,17.032 23.583,19.371 14.062,2.986 26.771,-0.086 37.434,-10.167 1.029,-0.974 2.016,-2.689 3.595,-0.902 0.942,1.066 3.737,1.587 2.123,3.698 -2.795,3.656 0.282,3.373 2.241,3.57 9.487,0.952 18.657,-0.297 27.104,-4.899 2.708,-1.476 3.832,-1.453 4.891,1.742 4.565,13.792 -1.057,28.234 -14.023,34.665 -2.908,1.442 -4.052,3.1 -4.344,6.364 -0.773,8.651 -2.438,17.184 -6.676,24.919 -5.314,9.7 -14.145,11.582 -22.966,4.923 -4.774,-3.603 -7.516,-8.734 -10.243,-13.945 -3.248,-6.207 -1.944,-14.537 -9.331,-18.876 7.764,0.439 15.039,0.535 23.37,-1.811 -7.327,-2.917 -12.591,-6.786 -17.212,-12.593 -1.636,4.402 -3.602,8.565 -7.287,9.736 -6.919,2.2 -5.979,6.522 -4.538,11.5 0.046,0.159 0.06,0.328 0.098,0.49 4.426,19.129 10.579,36.901 32.958,41.911 1.846,0.413 1.562,1.907 1.578,3.191 0.014,1.126 0.229,2.554 -1.365,2.773 -1.579,0.216 -3.66,-0.426 -3.267,2.329 0.323,2.262 2.352,2.718 4.065,3.155 10.628,2.707 21.403,3.379 32.188,1.32 3.266,-0.624 6.903,-1.458 8.186,-5.544 6.534,-20.799 18.833,-38.046 33.223,-54.043 2.26,-2.513 4.146,-3.052 7.305,-1.696 7.332,3.149 14.938,4.678 22.846,1.977 14.294,-4.887 26.07,-23.287 24.453,-38.234 z m -85.752,-19.015 c -4.95,7.729 -11.736,10.594 -18.999,8.181 -7.479,-2.486 -11.667,-9.099 -11.104,-18.052 0.724,-11.557 3.762,-22.326 11.803,-31.105 7.385,-8.062 19.891,-7.696 25.033,0.64 2.104,3.412 2.201,7.259 2.299,11.281 -0.573,10.319 -3.331,20.156 -9.032,29.055 z m 54.654,27.462 c 3.815,0.336 7.84,-0.56 10.383,3.357 -13.672,-0.217 -15.979,5.132 -11.488,16.757 -6.666,-2.695 -7.778,-7.806 -7.551,-13.303 0.328,-7.927 4.575,-13.345 11.903,-16.173 4.715,-1.819 9.408,-2.054 13.56,1.841 -6.665,-0.142 -12.45,1.303 -16.807,7.521 z"
   id="path41"
   inkscape:connector-curvature="0"
   style="fill:#f9cfb0" />
	<g
   id="g47">
		<path
   d="m 493.229,404.755 c -19.94,-1.887 -39.986,-0.422 -59.952,2.445 -2.478,0.354 -6.543,-0.82 -6.48,4.132 0.033,2.715 0.774,4.154 3.819,3.391 1.638,-0.41 3.822,-1.809 4.72,0.677 0.715,1.984 0.605,4.308 -1.347,5.959 -1.774,1.501 -3.587,2.965 -5.28,4.553 -1.987,1.865 -3.474,1.396 -4.812,-0.736 -4.508,-7.186 -9.572,-13.969 -14.67,-20.741 -2.505,-3.328 -0.604,-7.294 0.103,-10.631 2.471,-11.679 5.267,-23.3 11.56,-33.761 2.803,-4.658 6.329,-7.492 11.753,-8.13 18.744,-2.204 37.519,-2.377 56.312,-0.88 7.287,0.581 14.552,1.442 21.837,2.058 3.367,0.285 3.004,1.917 1.572,3.903 -9.492,13.167 -13.641,27.989 -13.324,44.062 0.093,4.857 -2.87,3.784 -5.811,3.699 z M 280.797,252.708 c -2.741,0.229 -1.523,2.382 -0.944,3.848 2.933,7.42 5.938,14.812 8.872,22.232 9.896,25.033 20.847,49.606 32.125,74.039 1.341,2.904 2.49,3.986 5.401,1.595 3.86,-3.169 8.521,-5.139 12.753,-7.734 5.279,-3.237 11.631,-4.022 16.581,-7.91 2.399,-1.884 2.667,-3.097 -0.278,-4.515 -7.326,-3.53 -12.204,-9.551 -16.413,-16.265 -6.585,-10.504 -9.498,-22.239 -11.644,-34.242 -0.289,-1.617 -0.257,-3.211 -2.158,-4.136 -10.939,-5.323 -14.333,-14.481 -12.992,-25.987 0.33,-2.83 -3.373,-6.848 -6.994,-6.7 -7.227,3.267 -15.622,5.05 -24.309,5.775 z m 110.45,101.128 c 0.979,-1.116 1.562,-2.221 0.12,-2.604 -0.23,-0.061 -0.461,-0.102 -0.692,-0.131 -4.546,-0.035 -9.092,-0.008 -13.639,-0.002 v 0 c -5.526,-1.203 -11.397,-1.968 -15.375,-6.408 -2.588,-2.888 -3.543,-0.933 -3.957,0.952 -1.006,4.58 -4.357,7.347 -7.223,10.535 -4.788,5.326 -8.929,11.145 -12.853,17.115 -1.091,1.66 -2.533,3.754 1.371,3.841 8.351,0.188 16.518,1.598 24.522,3.932 1.995,0.582 3.423,0.431 4.655,-1.52 6.174,-9.771 14.639,-17.536 22.719,-25.633 0.121,-0.019 0.237,-0.048 0.352,-0.077 z"
   id="path43"
   inkscape:connector-curvature="0"
   style="fill:#0daf4a" />
		<path
   d="m 452.635,188.311 c -0.548,0.525 -1.899,0.535 -2.79,0.328 -5.226,-1.218 -9.982,-3.39 -14.036,-7.028 -1.1,-0.988 -1.741,-1.912 -1.362,-3.396 0.126,-0.492 0.217,-0.984 0.289,-1.478 0.196,-5.089 0.503,-10.027 -2.43,-14.589 -0.257,-0.399 -0.517,-0.768 -0.78,-1.114 -0.026,-0.034 -0.055,-0.068 -0.081,-0.102 -0.221,-0.282 -0.442,-0.544 -0.668,-0.792 -0.106,-0.117 -0.218,-0.228 -0.326,-0.341 -3.608,-3.696 -7.918,-3.449 -13.25,-3.857 -1.896,0.526 -3.214,-0.724 -4.251,-2.829 0,0 0,0 0,-0.001 -5.283,-6.855 -11.195,-13.102 -17.551,-18.917 -1.883,-1.566 -3.816,-3.075 -5.687,-4.658 -1.064,-0.721 -2.137,-1.427 -3.223,-2.094 -4.737,-2.587 -9.45,-5.263 -14.979,-6.379 12.341,9.146 24.117,18.816 33.322,33.173 -7.969,-2.452 -14.577,-5.002 -21.599,-5.741 -3.131,-0.329 -5.771,-1.212 -8.409,-3.415 -4.748,-3.964 -10.905,-2.9 -14.181,2.547 -4.177,6.947 -7.549,14.377 -11.259,21.604 -2.598,5.06 -2.608,5.082 -6.79,0.959 -11.315,-11.159 -18.651,-24.19 -18.482,-40.539 0.141,-13.585 8.484,-22.001 22.061,-22.75 15.706,-0.866 29.219,5.422 42.246,13.048 3.791,2.219 7.722,4.338 11.071,7.263 0.884,0.594 1.762,1.209 2.63,1.877 3.191,2.456 6.424,4.921 9.354,7.692 10.488,8.792 19.803,18.753 27.637,30.184 4.991,5.761 9.141,12.105 12.959,18.68 0.495,0.855 1.351,1.913 0.565,2.665 z m 58.528,4.439 c -1.332,-2.039 -3.144,-3.793 -5.224,-5.083 -1.61,-1.502 -3.646,-2.401 -5.624,-3.313 -1.079,-0.497 -2.78,-1.911 -3.448,0.67 -0.05,0.154 -0.102,0.309 -0.15,0.463 -0.056,0.094 -0.086,0.206 -0.104,0.331 -0.133,0.432 -0.232,0.865 -0.271,1.301 -0.384,1.718 -0.67,3.458 -1.186,5.149 -0.349,0.718 -0.776,1.376 -1.245,2.012 -1.596,-3.746 -0.684,-7.578 -0.897,-11.271 -1.045,-11.455 -2.987,-22.774 -6.067,-33.837 -6.928,-24.889 -15.914,-48.617 -35.849,-66.679 -16.966,-15.372 -40.209,-18.806 -59.899,-7.364 -9.732,5.655 -15.544,14.79 -18.946,25.432 -1.279,4.001 2.411,3.59 4.329,4.622 2.67,1.437 2.466,-0.966 2.96,-2.403 1.081,-3.139 1.928,-6.387 3.316,-9.385 8.183,-17.683 35.095,-20.68 46.917,-5.292 9,11.713 8.922,29.198 -0.188,42.468 -5.214,7.595 -5.229,7.609 1.427,14.709 21.091,22.491 35.474,48.855 44.914,78.033 0.947,2.927 2.226,3.983 5.296,3.583 9.775,-1.275 16.731,3.121 21.417,11.403 1.15,2.032 1.927,2.15 3.608,0.71 13.968,-11.953 16.939,-32.872 4.914,-46.259 z M 411.139,91.221 c 0.681,-1.197 2.158,-2.43 0.771,-3.911 -1.256,-1.343 -9.889,-0.56 -10.723,1.059 -3.928,7.625 -8.702,14.901 -10.154,23.594 6.035,4.151 12.07,8.302 18.104,12.449 7.806,1.561 7.685,1.527 9.535,-5.097 0.812,-2.899 -0.037,-3.915 -2.883,-4.221 -3.801,-0.408 -7.55,-1.348 -11.354,-1.664 -3.047,-0.253 -3.125,-1.577 -2.229,-3.904 2.453,-6.363 5.574,-12.388 8.933,-18.305 z"
   id="path45"
   inkscape:connector-curvature="0"
   style="fill:#0daf4a" />
	</g>
</g>
</svg>