<?xml version="1.0" encoding="utf-8"?>
<!-- Generator: Adobe Illustrator 16.0.0, SVG Export Plug-In . SVG Version: 6.00 Build 0)  -->
<!DOCTYPE svg PUBLIC "-//W3C//DTD SVG 1.1//EN" "http://www.w3.org/Graphics/SVG/1.1/DTD/svg11.dtd">
<svg version="1.1" id="Layer_1" xmlns="http://www.w3.org/2000/svg" xmlns:xlink="http://www.w3.org/1999/xlink" x="0px" y="0px"
	 width="810px" height="810px" viewBox="0 0 810 810" enable-background="new 0 0 810 810" xml:space="preserve">
<g>
	<path fill="#0B0304" d="M627.664,370.097c-0.796-1.187-1.22-2.712-1.501-4.142c-2.54-12.921-10.896-20.755-22.764-24.816
		c-17.227-5.896-34.354-4.499-51.04,2.486c-2.615,1.095-4.878,1.519-7.615,0.51c-7.169-2.643-14.104-1.488-20.715,1.989
		c-1.549,0.814-2.969,1.168-4.737,0.901c-5.256-0.794-10.544-1.369-15.812-2.078c-17.028-2.291-34.151-2.443-51.275-2.036
		c-9.78,0.232-19.43,2.843-29.225-1.509c-5.921-2.63-6.082-1.615-4.315-7.897c0.979-3.481,2.233-3.253,4.694-1.644
		c3.918,2.562,8.639,4.279,12.719,2.03c4.294-2.367,8.082-4.92,13.301-5.001c2.15-0.034,3.652-2.775,4.287-5.11
		c0.756-2.78,0.479-5.568-0.322-8.348c-1.735-6.031-3.511-12.013-2.532-18.493c0.625-4.131,2.006-5.857,6.413-4.415
		c5.478,1.792,11.147,1.67,16.738,0.396c16.109-3.674,30.914-21.969,31.193-38.493c0.04-2.342-0.136-4.571,2.374-6.067
		c4.845-2.888,8.064-7.388,11.122-11.975c13.223-19.836,8.646-45.232-11.127-55.271c-7.734-3.926-10.728-7.659-11.114-16.527
		c-0.879-20.11-7.396-39.108-15.846-57.288c-9.284-19.983-22.343-36.467-44.028-44.185c-3.436-0.971-7.058-1.741-10.629-2.114
		h-17.483c-3.049,0.278-6.065,0.751-8.962,1.502c-0.432,0.312-1.048,0.445-1.627,0.654c-4.392,1.585-8.607,3.496-12.422,6.273
		c-9.883,7.194-16.596,16.705-20.536,28.169c-0.962,2.8-2.046,3.552-5.028,2.754c-4.853-1.298-9.929-0.86-14.911-0.726
		c-9.666,0.262-17.884,3.566-23.338,12.008c-1.229,1.903-2.132,2.467-4.101,0.832c-9.548-7.933-20.668-9.798-32.721-8.589
		c-35.879,3.597-68.463,37.221-66.473,73.8c1.179,21.669,11.181,38.275,31.229,47.932c2,0.963,2.879,1.646,3.02,4.215
		c0.475,8.705,4.132,15.868,12.67,19.182c3.259,1.265,4.654,3.316,5.74,6.201c12.828,34.084,27.16,67.543,42.773,100.429
		c2.539,5.348,2.332,8.736-2.014,12.218c-4.308,3.453-5.771,9.506-10.843,12.179c-5.152,2.715-8.472,7.042-10.751,12.082
		c-4.23,9.354-3.383,19.351-2.84,29.231c0.08,1.463,0.466,2.771-0.018,4.33c-5.362,17.266-6.398,34.771-2.344,52.451
		c0.747,3.254-0.473,4.503-3.425,4.15c-4.073-0.486-7.983-0.008-11.627,1.709c-1.935,0.91-3.449,0.438-5.181-0.209
		c-14.46-5.404-29.07-6.206-43.986-1.804c-21.89,6.461-36.889,26.11-37.129,48.922c-0.024,2.298,0.29,4.643-0.828,6.863
		c-6.204,12.325-4.583,24.695,0.882,36.55c9.078,19.691,25.209,32.697,43.328,43.535c3.172,1.897,5.894,4.02,8.251,6.973
		c11.107,13.915,25.372,23.116,43.104,25.471c13.742,1.823,25.859-1.73,32.759-15.354c0.991-1.956,2.792-2.16,4.497-2.733
		c10.146-3.42,16.223-10.789,19.206-20.698c1.459-4.849,0.923-10.408,7.198-12.615c0.507-0.179,0.912-0.615,1.281-1.16
		c0.783-1.737,1.962-3.286,2.751-5.041c0.01-0.021,0.026-0.032,0.038-0.051c0.696-1.536,1.351-3.088,2.104-4.593
		c0.336-0.863,0.728-1.713,1.268-2.517c0.637,0.697,1.133,1.133,1.5,1.658c17.529,25.166,36.584,49.085,58.051,71.028
		c1.4,1.431,1.715,3.087,2.084,4.91c1.337,6.619,3.396,12.968,9.302,17.028c2.053,1.412,2.309,3.185,2.043,5.164
		c-0.823,6.134-0.257,12.252,0.754,18.234c2.737,16.225,7.744,31.156,20.933,40.949c3.927,2.618,8.053,4.67,13.069,5.247
		c7.331,0.844,14.713,1.065,22.06,0.215c4.27-0.495,8.346-1.571,12.414-2.723c4.169-2.121,8.716-2.875,13.435-3.743
		c0.377-0.069,0.729-0.166,1.095-0.246c4.035-1.331,7.663-3.076,11.218-5.467c5.273-4.562,8.342-11.256,9.945-18.922
		c4.288-20.509,2.066-40.695-4.666-60.363c-1.138-3.321-1.653-5.393,1.232-7.868c1.764-1.512,2.297-4.168,2.119-6.472
		c-0.824-10.737-1.354-21.574-6.309-31.479c-3.497-6.991-8.332-12.438-16.668-13.49c-1.591-0.2-2.736-1.067-3.803-2.186
		c-3.692-3.876-8.074-6.295-13.556-6.586c-4.357-0.232-8.631-0.397-12.477-3.321c-2.009-1.527-5.201-1.667-7.748-0.896
		c-2.542,0.768-3.593-0.254-4.774-2.118c-8.189-12.914-16.349-25.854-24.744-38.634c-2.148-3.273-2.224-5.489,0.518-8.547
		c8.662-9.661,13.521-21.222,15.662-33.951c2.788-16.585,0.222-32.736-4.437-48.608c-2.933-9.994-6.154-19.6-4.664-30.518
		c1.625-11.914,0.819-11.693,13.234-12.177c13.937-0.543,27.799-0.282,41.662,1.201c2.077,0.223,3.155,0.745,4.036,2.749
		c2.546,5.793,6.815,9.775,13.252,10.896c2.022,0.352,3.013,1.124,3.662,3.267c2.642,8.707,7.666,15.896,15.232,21.006
		c10.107,6.827,20.729,9.854,32.012,2.642c1.758-1.123,2.882-0.707,4.498,0.034c5.974,2.746,12.255,4.006,18.879,3.767
		c10.502-0.378,22.527-5.164,24.66-19.363c0.229-1.53,0.978-2.633,2.578-3.346c7.851-3.494,10.729-10.088,11.852-18.208
		c0.543-3.923-1.039-7.843,0.819-11.731C634.99,392.822,635.159,381.264,627.664,370.097z M339.297,192.215
		c-0.779,1.526-2.558,0.585-3.607,0.132c-1.371-0.593-0.357-1.619,0.225-2.352c2.279-2.874,4.064-6.035,5.607-9.351
		c0.331-0.713,0.676-1.62,1.771-1.353c0.777,0.189,0.852,0.884,0.938,1.963C342.708,184.694,341.172,188.541,339.297,192.215z"/>
	<g>
		<g>
			<path fill="#874C30" d="M503.275,632.988c-4.433,15.367,2.744,29.523,4.241,44.271c1.668,16.437,2.798,32.858-5.271,48.235
				c-6.542,12.467-17.321,17.842-30.971,18.012c-13.523,0.169-24.695-4.765-32.427-16.174c-5.028-7.422-7.212-15.967-8.808-24.67
				c-0.844-4.602-1.054-9.239-0.983-13.91c0.038-2.443,0.817-3.747,3.517-3.565c20.697,1.399,34.835-9.087,44.615-25.947
				c10.303-17.76,12.043-37.08,7.304-56.924c-0.962-4.025,0.071-4.433,3.435-3.293c9.62,3.258,12.48,11.337,13.966,20.102
				C502.665,623.679,503.432,628.331,503.275,632.988z"/>
			<path fill="#874C30" d="M239.287,486.926c23.938,0.629,41.706,11.385,53.665,32.202c9.019,15.699,14.337,32.812,20.041,49.81
				c3.441,10.256,7.568,20.209,13.733,29.198c0.541,0.789,1.055,1.726,1.186,2.647c0.885,6.271-5.851,18.46-11.661,21.514
				c-2.04,1.072-2.891,0.744-3.426-1.573c-2.102-9.097-6.958-16.45-12.876-23.752c-4.977-6.14-7.206-14.478-10.812-21.763
				c-7.792-15.744-16.749-30.656-30.983-41.604c-9.312-7.161-19.907-11.153-31.524-12.618c-11.444-1.443-22.541-0.816-32.815,5.138
				c-0.724,0.42-1.661,1.035-2.275,0.381c-1.009-1.075-0.562-2.526-0.26-3.811c2.283-9.702,7.539-17.671,14.903-24.151
				C215.58,490.271,226.768,486.637,239.287,486.926z"/>
		</g>
		<path fill="#874C30" d="M463.598,209.156c3.289,6.095,4.909,12.017,6.847,17.82c0.647,1.946,0.559,3.421-1.481,4.607
			c-6.712,3.901-11.597,9.755-16.493,15.619c-5.383,6.447-14.002,6.282-18.801-0.2c-3.102-4.19-2.25-9.493,2.281-11.335
			c11.762-4.78,20.309-12.851,25.971-24.123C462.281,210.825,462.85,210.209,463.598,209.156z M438.329,323.711
			c2.634,1.336,5.435,2.124,8.002,0.257c2.417-1.757,2.632-4.417,1.802-7.191c-0.379-1.268-0.438-2.669-1.004-3.835
			c-2.26-4.661-2.31-9.613-2.324-14.618c-0.004-1.117,0.902-2.597-0.885-3.585c-7.34,7.346-12.962,15.958-18.451,24.641
			c-3.74,5.914-2.251,9.18,4.567,11.074c1.978,0.549,3.622,0.1,5.001-1.288c1.32-1.33,0.639-2.754-0.027-4.136
			c-0.627-1.298-1.229-2.607-2.078-4.416C435.822,320.977,436.711,322.891,438.329,323.711z"/>
	</g>
	<g>
		<path fill="#F7B16C" d="M505.528,734.099c12.585-24.856,9.999-49.957,4.028-75.141c-1.438-6.064-2.109-11.999-1.69-18.225
			c0.75-11.143,0.711-22.287-3.104-33.235c3.838,0.787,6.254,2.745,8.057,6.636c4.056,8.756,5.757,18.037,5.956,27.642
			c0.038,1.914-0.193,4.039-1.521,5.13c-3.378,2.774-2.021,5.65-1.015,8.812c5.672,17.829,8.059,36.042,5.761,54.697
			c-0.862,6.999-2.658,13.741-7.716,19.119C512.068,731.887,509.568,733.635,505.528,734.099z"/>
		<path fill="#F7B16C" d="M301.121,634.942c0.697-8.061-1.651-14.632-5.932-19.954c-5.55-6.9-8.708-14.844-12.26-22.693
			c-6.271-13.854-13.318-27.234-24.662-37.766c-13.215-12.269-28.819-18.283-46.904-17.216c-9.257,0.547-17.606,3.427-23.712,11.212
			c-0.853-6.521,1.774-12.188,7.571-15.969c10.912-7.113,22.903-7.285,35.159-5.01c19.676,3.655,33.261,15.981,44.253,31.711
			c6.009,8.599,10.976,17.833,15.421,27.354c3.012,6.45,5.919,12.894,10.633,18.509c4.828,5.752,7.044,12.806,5.992,20.519
			C306.201,629.146,305.016,632.32,301.121,634.942z M286.674,641.905c-2.27,0.464-4.593,0.668-5.655,0.817
			c-15.296-0.865-26.929-7.218-36.598-16.763c-7.97-7.866-16.706-14.606-25.538-21.38c-12.168-9.332-22.046-20.707-28.075-35.052
			c-4.946-11.769-0.42-21.826,11.908-25.341c17.335-4.94,32.866-0.352,46.993,10.053c15.327,11.286,24.118,27.226,30.978,44.41
			c2.412,6.041,4.755,11.942,9.346,16.809c2.605,2.761,4.239,6.328,5.647,9.923C299.094,634.095,295.922,640.017,286.674,641.905z
			 M282.372,609.541c-14.75,0.667-29.137,0.993-44.423,3.819C246.993,618.185,277.492,615.333,282.372,609.541z"/>
	</g>
	<path fill="#0264B1" d="M479.102,620.733c-0.782,17.22-5.517,33.688-19.452,46.133c-6.612,5.903-14.039,10.601-23.604,10.269
		c-8.501-0.296-15.301-3.63-16.265-11.792c-1.228-10.378-8.312-15.798-14.309-22.293c-18.967-20.55-35.818-42.728-51.654-65.723
		c-1.499-2.177-2.718-4.354-0.601-6.726c2.708-3.033,3.758-8.109,9.554-7.354c16.316,2.124,32.14,0.256,47.315-6.299
		c4.732-2.044,9.321-4.348,13.396-7.573c2.406-1.906,4.021-1.701,5.913,1.205c9.22,14.156,18.716,28.133,28.124,42.165
		c1.012,1.507,2.184,1.898,4.205,1.565c8.358-1.375,12.229,1.152,14.917,9.391c0.824,2.522,1.498,5.13,1.877,7.751
		C478.922,614.24,478.895,617.09,479.102,620.733z M438.844,451.773c-1.541-4.511-4.643-8.531-4.569-13.533
		c0.032-2.38,1.935-5.545-0.5-6.852c-2.229-1.194-3.56,2.338-5.496,3.467c-0.145,0.083-0.303,0.157-0.417,0.272
		c-3.118,3.113-4.926,2.797-7.239-1.397c-3.92-7.104-7.854-14.344-14.103-20.782c-0.567,4.33-0.818,7.95-1.549,11.472
		c-1.924,9.277-5.779,17.365-14.816,21.83c-4.833,2.388-9.946,2.042-15.042,1.835c-0.816-0.109-1.63-0.237-2.443-0.405
		c-1.415-0.291-2.787-0.802-4.128-1.42c-1.095-0.641-2.248-1.192-3.381-1.784c-1.033-0.606-2.043-1.238-3.037-1.854
		c-0.625-0.476-1.217-1.008-1.755-1.634c-8.171-9.501-8.86-20.424-6.398-31.938c1.285-6.009,2.972-11.904,6.475-17.151
		c1.761-2.638,1.957-5.061-2.266-5.798c-6.688-1.167-13.331-2.489-20.126-3.042c-4.41-0.359-6.659,1.133-8.038,5.403
		c-2.854,8.834-5.52,17.841-9.547,26.155c-4.672,9.643-11.046,18.152-23.982,16.066c-2.185-0.353-2.545,1.278-2.954,2.621
		c-3.682,12.087-4.86,24.35-2.702,36.896c0.586,3.408,1.58,4.05,4.267,1.695c2.734-2.394,5.567-4.682,8.431-6.921
		c15.641-12.229,32.362-19.947,51.442-17.734c6.402,1.185,12.511,3.271,18.396,6.343c8.408,4.96,14.421,12.457,20.191,20.312
		c2.172,2.957,1.055,4.479-1.196,6.066c-4.364,3.075-5.484-1.207-7.091-3.475c-14.531-20.514-36.995-26.454-59.271-15.576
		c-10.08,4.923-18.94,11.537-27.349,18.915c-3.097,2.717-6.208,4.916-3.765,8.209c0.218,0.467,0.498,0.936,0.834,1.424
		c0.669,0.971,1.141,1.999,1.55,3.049c-4.007-0.454-7.519-2.629-11.334-2.139c-1.057,0.016-2.206,0.139-3.144,0.413
		c-0.165,0.048-0.319,0.123-0.465,0.21c-0.406,0.121-0.749,0.352-0.948,0.836c-0.364,0.886,0.099,1.48,0.68,1.979
		c0.149,0.142,0.312,0.271,0.485,0.392c0.173,0.134,0.343,0.266,0.486,0.396c12.846,11.807,19.68,27.286,26.328,42.884
		c5.475,12.848,8.07,26.695,13.662,39.498c2.24,5.13,4.053,10.515,8.551,14.357c2.286,1.955,3.885,2.027,5.617-0.673
		c1.91-2.978,3.327-6.088,3.958-9.562c1.03-3.977,0.724-8.151,1.801-12.121c8.072-11.17,16.204-22.301,24.181-33.538
		c1.994-2.811,3.589-2.745,5.935-0.473c3.643,3.53-0.088,6.032-1.32,8.466c-2.188,4.316-5.487,8.053-7.637,13.026
		c16.433,0.933,31.7-1.511,45.797-8.98c15.045-7.975,26.26-19.688,31.742-36.144C448.365,491.164,445.544,471.377,438.844,451.773z
		 M305.019,423.666c7.586-5.047,11.261-12.788,13.928-21.175c4.854-15.26,10.993-29.894,21.36-42.376
		c3.131-3.768,6.36-7.453,9.671-11.324c-0.762-0.243-1.115-0.495-1.353-0.412c-15.492,5.409-26.386,16.747-36.854,28.629
		c-0.761,0.863-0.89,1.896-0.012,2.669c7.247,6.376,5.224,14.13,3.08,21.738c-3.521,12.505-11.812,18.805-22.201,17.237
		C294.244,424.856,299.698,427.204,305.019,423.666z M423.095,348.771c-10.95,10.45-14.226,24.463-18.085,38.226l0,0
		c-3.341,14.31-2.381,29.468-8.085,43.272c-4.799,11.612-17.083,15.745-28.052,9.872c-4.308-2.306-7.012-6.229-8.454-10.651
		c-2.477-7.601-2.824-15.134-0.379-22.414c0.309-1.147,0.652-2.312,1.075-3.522c1.137-3.257,2.354-6.575,4.029-9.604
		c0.273-0.494,0.576-0.963,0.89-1.423c2.009-3.548,4.552-6.804,6.821-10.182c9.059-13.485,20.15-25.047,33.565-34.336
		c4.814-3.334,9.801-3.727,15.148-1.815C422.79,346.629,424.746,347.195,423.095,348.771z M397.893,411.35
		c-0.325-3.052-1.042-6.216-2.385-8.963c-0.154-0.24-0.308-0.48-0.462-0.722c-4.993-7.788-13-10.311-21.42-6.617
		c-0.752,0.33-1.456,0.731-2.127,1.178c-2.825,2.003-5.24,4.771-7.021,7.814c-2.064,4.683-4.017,9.363-3.486,14.88
		c0.901,9.393,9.765,18.82,17.674,17.762c8.116-1.086,13.949-5.217,17.214-13.164C397.554,419.441,398.056,415.418,397.893,411.35z"
		/>
	<g>
		<path fill="#FCFCFC" d="M431.307,103.678c-1.603-12.255-8.873-19.761-19.97-20.673c-13.123-1.078-22.734,5.114-26.478,17.06
			c-0.646,2.058-1.096,3.622-1.289,4.873c0.799,2.993,3.931,4.204,6.239,6.036c0.352,0.278,0.714,0.547,1.072,0.818
			c0.003,0.001,0.007,0.002,0.011,0.004c6.035,4.151,12.07,8.302,18.105,12.449c0.001,0,0.002,0,0.002,0
			c0,0.001-0.001,0.002-0.002,0.003c3.113,2.731,6.305,5.381,9.314,8.224c1.89,1.786,2.93,1.08,4.354-0.618
			C429.541,123.659,432.705,114.374,431.307,103.678z"/>
		<path id="hand" fill="#FCFCFC" d="M316.78,170.692c-4.841,2.748-9.043,5.658-14.296,6.209c-9.52,1-14.192-3.323-13.571-12.931
			c0.43-6.64,4.105-11.484,9.018-15.491c2.987-2.437,6.468-4.083,10.164-5.225c9.343-2.885,9.429-2.829,13.117,6.097
			c3.203,7.748,7.24,15.043,12.993,21.174c2.353,2.507,2.556,4.646,1.019,7.466c-1.431,2.625-2.531,5.429-3.945,8.064
			c-1.938,3.61-4.569,5.896-8.927,7.061c-15.056,4.023-23.969,20.533-20.996,37.831c1.437,8.362,1.458,8.426-6.919,11.081
			c-8.904,2.822-17.879,4.41-26.697-0.23c-4.999-2.63-8.967-6.175-9.264-12.659c5.75,0.103,11.422,1.43,16.759-1.296
			c-0.516-1.492-1.704-1.121-2.541-1.24c-37.185-5.286-57.123-39.567-42.09-74.049c10.843-24.872,29.852-40.009,57.806-41.879
			c8.907-0.596,17.14,1.647,24.21,7.474c3.003,2.475,5.111,5.11,4.229,9.354c-0.331,1.591,0.134,3.332-0.019,4.982
			c-0.143,1.55,1.776,3.946-1.099,4.48c-2.579,0.479-5.133,1.177-6.872-2.646c-3.273-7.197-9.108-11.757-17.185-12.958
			c-0.488-0.073-1.004-0.075-1.488,0.007c-0.251,0.042-0.46,0.338-1.136,0.876c6.932,2.397,10.734,7.662,13.773,13.662
			c1,1.974,0.901,3.213-1.603,3.978c-3.855,1.178-7.043,5.153-10.375,5.448c-3.284,0.291-5.024-5.363-8.3-7.589
			c-3.894-2.646-7.338-3.85-14.003-3.838c7.298,3.385,11.969,7.879,15.076,14.013c1.214,2.397,1.517,4.303,0.361,6.954
			c-3.293,7.551-3.592,15.191,1.157,22.399c0.926,1.405,1.551,2.499,0.112,3.901c-2.128,2.073-4.704,2.244-7.439,1.992
			c-2.235-0.206-1.812-1.864-1.998-3.324c-1.842-14.518-8.596-25.344-23.001-30.346c-0.444-0.154-0.952-0.125-1.594-0.2
			c-0.116,1.623,1.291,1.775,2.069,2.304c9.995,6.796,14.574,16.566,15.478,28.287c0.15,1.943-0.221,4.004-0.739,5.905
			c-1.379,5.062-4.473,8.698-9.875,9.335c-6.085,0.717-9.939-2.992-12.982-7.672c-0.858-1.321-1.344-2.885-2.181-4.738
			c-0.994,7.811,3.722,15.653,10.448,18.008c6.895,2.413,14.931-0.691,19.14-8.001c1.715-2.979,3.104-4.19,6.765-3.451
			c4.182,0.844,8.467-0.226,11.282-3.829c1.704-2.182,3.558-2.384,6.03-2.307C305.864,183.424,313.053,179.037,316.78,170.692z"/>
		<path fill="#FCFCFC" d="M624.961,395.064c3.082-8.768,1.521-16.106-2.778-23.113c-0.942-1.536-2.151-2.894-2.402-4.851
			c-0.998-7.792-5.776-12.906-12.29-16.598c-13.044-7.394-27.092-7.345-41.312-5.103c-11.268,1.776-21.194,6.7-30.237,13.864
			c0.774-2.144,2.024-3.848,3.038-5.682c0.697-1.262,2.979-2.055,2.207-3.529c-0.936-1.788-3.277-1.345-5.033-1.232
			c-7.099,0.457-11.973,4.742-15.95,10.058c-10.681,14.267-14.363,30.546-13.133,48.08c0.243,3.475,1.071,6.932,3.182,9.875
			c1.301,1.816,2.965,3.691,5.284,3.11c2.421-0.606,1.122-3.115,1.231-4.722c0.499-7.233,2.092-14.089,5.893-20.33
			c0.229,1.905-0.048,3.693-0.209,5.492c-1.141,12.737,0.053,25.046,7.647,35.854c5.08,7.229,11.886,12.109,20.945,13.066
			c7.562,0.801,12.538-2.06,14.802-8.24c0.856-2.341,1.725-4.25-2.366-4.386c-3.524-0.117-1.981-3.605-2.307-5.571
			c-0.467-2.824,2.025-2.026,3.455-1.985c6.145,0.178,11.786,2.05,16.834,5.56c1.175,0.816,3.789,1.637,1.513,3.538
			c-1.552,1.297-2.075,5.27-5.669,2.918c-1.146-0.749-3.08-2.98-3.416,0.332c-0.221,2.184-4.632,4.948,0.46,6.872
			c4.453,1.685,9.044,2.209,13.75,1.928c12.037-0.719,18.871-7.321,20.273-19.26c0.713-6.059-0.673-11.799-2.61-18.125
			c5.654,3.418,6.311,9.086,8.784,14.056c6.478-5.628,8.326-12.531,7.465-20.392c-0.835-7.624-3.144-14.758-7.501-21.276
			C619.021,387.124,621.789,390.754,624.961,395.064z M564.803,399.226c-3.067-1.558-7.91-10.213-7.59-13.528
			c0.065-0.683,0.165-1.219,0.951-1.492c3.815-1.328,13.952,6.41,14.045,10.751C572.291,398.821,568.411,401.058,564.803,399.226z
			 M580.854,376.993c-2.977,2.621-6.213,1.389-9.422,0.442c-2.268-0.669-4.295-1.76-6.129-3.223c-1.008-0.803-2.586-1.502-2.163-3
			c0.396-1.405,2.08-1.51,3.358-1.741c2.123-0.382,4.272-0.604,5.887-0.822c3.854,0.15,7.394-0.138,9.352,3.328
			C582.712,373.705,582.396,375.632,580.854,376.993z M579.239,357.814c-3.003,0.86-6.151,1.214-8.755,1.695
			c-1.916-0.547-3.941,1.02-4.626-0.684c-0.737-1.835,1.452-2.673,2.646-3.638c2.455-1.981,5.105-3.683,8.193-4.559
			c2.65-0.752,5.251-0.601,6.244,2.305C583.952,355.881,581.468,357.175,579.239,357.814z"/>
		<path id="teeth" fill="#FCFCFC" d="M359.265,293.48c-1.006-0.139-2.546-0.139-3.938-0.592c-2.182-0.71-4.194-2.429-3.87-4.596
			c0.27-1.803,2.842-0.912,4.37-1.005c4.498-0.271,8.969-0.788,13.218-2.236c4.48-1.527,9.101-1.639,13.708-1.994
			c1.127-0.087,2.864-0.923,3.114,1.249c0.178,1.547-0.781,2.354-2.138,2.954C376.073,290.646,368.116,292.811,359.265,293.48z"/>
		<path fill="#FCFCFC" d="M366.163,195.178c1.709,0.555,1.879,1.952,1.572,3.222c-0.371,1.538-0.685,3.522-2.79,3.605
			c-1.758,0.068-2.085-1.363-1.879-2.81C363.339,197.288,364.218,195.792,366.163,195.178z M367.02,175.834
			c-4.125-1.231-7.02,1.127-9.359,4.114c-3.533,4.51-5.382,9.836-7.063,15.241c-0.512,1.647-0.043,2.634,1.393,3.146
			c0.92,0.328,1.356,0.138,1.602-0.258c0.329-1.448,0.728-2.879,1.25-4.264c0.763-2.269,2.067-4.281,3.478-6.216
			c3.267-4.484,7.59-5.486,12.692-3.53C370.699,180.819,371.144,177.065,367.02,175.834z M393.014,231.98
			c-4.72-1.903-6.959-5.775-7.146-10.49c-0.454-11.516,2.555-22.071,10.22-30.932c3.431-3.966,7.75-6.306,13.244-5.158
			c5.537,1.156,7.853,5.07,8.518,10.302c-7.934-4.152-12.412-3.692-17.806,1.822c-2.948,3.014-5.016,6.509-6.413,10.519
			C390.862,215.991,390.818,223.94,393.014,231.98z M408.909,217.389c2.595-0.305,3.145-2.646,3.323-4.819
			c0.141-1.703-0.208-3.624-2.476-3.386c-2.666,0.28-3.512,2.268-3.258,4.864C406.584,215.61,406.615,217.659,408.909,217.389z"/>
	</g>
	<g>
		<path fill="#F5D20A" d="M310.95,385.03v0.001C310.95,385.031,310.949,385.03,310.95,385.03c-2.956-3.384-6.084-1.736-8.921-0.03
			c-7.584,4.56-11.865,17.354-8.875,25.936c1.814,3.561,4.09,4.927,6.696,4.098c0.892-0.213,1.711-0.572,2.539-1.126
			c2.443-1.635,4.755-4.533,6.323-7.338c1.605-2.4,2.473-5.182,3.215-7.922C313.156,394.1,314.467,389.33,310.95,385.03z
			 M309.279,394.024c-0.036,2.937-0.938,5.592-2.285,8.102c0,0.001,0,0.001-0.001,0.002c-0.436,0.81-0.923,1.601-1.435,2.385
			c-0.246,0.323-0.497,0.651-0.753,0.979c-0.353,0.397-0.722,0.785-1.116,1.156c-0.288,0.271-0.577,0.554-0.874,0.824
			c-0.995,0.686-1.943,1.703-3.914,0.989c5.103-4.985,6.68-11.686,10.134-17.377c0.185,1.013,0.255,1.989,0.244,2.938V394.024z"/>
		<path fill="#F5D20A" d="M384.671,398.679c-7.436-2.262-15.048,2.702-17.993,11.732c-2.862,8.779,0.773,18.39,7.926,20.601
			c0.839,0.261,1.706,0.488,2.583,0.599c0.17,0.024,0.34,0.038,0.51,0.056c0.015,0.001,0.028,0.003,0.043,0.004
			c1.088,0.105,2.188,0.075,3.233-0.101c2.234-0.377,3.976-1.384,5.489-2.72c3.207-2.184,5.119-5.648,6.33-9.809
			C395.266,409.143,391.979,400.902,384.671,398.679z M387.211,409.006c-0.132-1.004,0.092-1.187,1.334-0.481
			c0.575,0.519,0.917,1.212,1.11,1.979c0.794,5.062-0.026,9.778-3.588,13.883c-1.313,1.515-2.75,2.897-5.01,2.706
			C384.593,421.572,388.143,416.084,387.211,409.006z"/>
	</g>
	<path id="tongue" fill="#E71D26" d="M381.659,290.593c-2.369,1.129-4.748,2.228-7.298,2.959
		c-6.188,1.775-11.417,4.862-14.202,11.038c-1.748,3.875-1.057,6.526,2.338,9.13c6.741,5.171,15.34,3.354,19.954-4.365
		c2.883-4.822,3.429-10.323,4.019-14.602C386.708,288.661,386.256,288.404,381.659,290.593z"/>
	<path fill="#35BBDB" d="M370.106,190.382c-0.05,0.127-0.115,0.238-0.189,0.34c-0.108,0.189-0.279,0.344-0.53,0.455
		c-0.461,0.251-1.042,0.318-1.563,0.258c-1.087-0.125-2.175-0.163-3.261-0.232c-2.801,0.779-3.729,4.919-4.789,7.932
		c-0.341,0.969-0.195,2.696-1.681,2.676c-1.035-0.014-2.032-0.374-2.561-1.241c-0.25-0.554-0.301-1.153-0.093-1.938
		c0.06-0.226,0.134-0.447,0.208-0.669c1.421-3.544,2.408-7.307,5.25-10.133c2.475-2.462,5.032-3.692,7.842-1.628
		c0.282,0.236,0.517,0.514,0.727,0.81C370.251,187.908,370.616,189.072,370.106,190.382z M416.914,199.15
		c-4.689-5.098-9.402-5.694-14.146-1.182c-7.803,7.424-10.248,16.807-8.916,27.297c0.394,3.097,1.979,5.603,4.341,7.625
		c0,0,0,0,0.001,0c1.511,0.365,2.955,0.098,4.293-0.607c0.906-0.478,1.794-1.181,0.562-2.187c-5.204-4.244-4.292-9.24-2.938-14.295
		c1.859-6.538,5.546-15.396,12.835-13.038c1.191,0.772,2.276,1.946,3.442,2.854C417.714,203.289,417.107,201.204,416.914,199.15z"/>
	<path fill="#F9CFB0" d="M498.141,247.244c-0.997-9.211-9.166-15.472-18.371-14.098c-7.729,1.154-13.248,5.842-18.258,11.36
		c-3.452,3.802-6.206,8.237-10.733,11.048c-7.923,4.917-18.907,2.132-23.322-6.061c-4.216-7.823-0.734-15.786,8.831-19.744
		c12.697-5.255,18.95-15.633,22.575-28.097c1.057-3.634-0.199-5.794-4.406-5.68c-6.737,0.183-12.801-2.088-18.217-5.884
		c-2.73-1.914-4.91-3.051-6.869,1.418c-2.832-23.471-8.666-26.643-31.381-17.629c0.289-5.242,4.041-8.545,6.785-12.619
		c-7.147-3.268-14.378-5.043-21.776-6.319c-2.401-0.414-3.365,0.075-3.096,2.741c0.324,3.229-0.256,6.391-1.437,9.469
		c-1.753-0.692-1.276-1.906-1.584-2.767c-2.906-8.132-10.261-9.728-15.68-3.062c-2.549,3.136-4.935,6.586-6.236,10.562
		c-4.141,6.286-6.701,13.318-9.561,20.21c-0.535,1.288-1.108,2.795,0.714,3.272c2.062,0.541,1.758-1.519,2.093-2.617
		c2.006-6.572,4.973-12.612,9.562-17.788c3.797-3.007,8.086-3.829,12.418-1.767c4.146,1.973,4.963,6.099,4.8,10.232
		c-0.346,8.773-3.304,16.946-6.243,25.098c-0.621,1.722-1.497,3.279-0.024,5.114c0.894,1.112,2.602,2.454,0.112,4.021
		c-2.257,1.421-3.449,0.608-4.91-1.204c-4.545-5.634-9.962-10.349-16.482-13.526c-9.71-4.73-20.014-7.166-29.359-0.164
		c-9.681,7.253-12.418,17.925-9.934,29.557c2.663,12.473,12.563,17.032,23.583,19.371c14.062,2.986,26.771-0.086,37.434-10.167
		c1.029-0.974,2.016-2.689,3.595-0.902c0.942,1.066,3.737,1.587,2.123,3.698c-2.795,3.656,0.282,3.373,2.241,3.57
		c9.487,0.952,18.657-0.297,27.104-4.899c2.708-1.476,3.832-1.453,4.891,1.742c4.565,13.792-1.057,28.234-14.023,34.665
		c-2.908,1.442-4.052,3.1-4.344,6.364c-0.773,8.651-2.438,17.184-6.676,24.919c-5.314,9.7-14.145,11.582-22.966,4.923
		c-4.774-3.603-7.516-8.734-10.243-13.945c-3.248-6.207-1.944-14.537-9.331-18.876c7.764,0.439,15.039,0.535,23.37-1.811
		c-7.327-2.917-12.591-6.786-17.212-12.593c-1.636,4.402-3.602,8.565-7.287,9.736c-6.919,2.2-5.979,6.522-4.538,11.5
		c0.046,0.159,0.06,0.328,0.098,0.49c4.426,19.129,10.579,36.901,32.958,41.911c1.846,0.413,1.562,1.907,1.578,3.191
		c0.014,1.126,0.229,2.554-1.365,2.773c-1.579,0.216-3.66-0.426-3.267,2.329c0.323,2.262,2.352,2.718,4.065,3.155
		c10.628,2.707,21.403,3.379,32.188,1.32c3.266-0.624,6.903-1.458,8.186-5.544c6.534-20.799,18.833-38.046,33.223-54.043
		c2.26-2.513,4.146-3.052,7.305-1.696c7.332,3.149,14.938,4.678,22.846,1.977C487.982,280.591,499.758,262.191,498.141,247.244z
		 M412.389,228.229c-4.95,7.729-11.736,10.594-18.999,8.181c-7.479-2.486-11.667-9.099-11.104-18.052
		c0.724-11.557,3.762-22.326,11.803-31.105c7.385-8.062,19.891-7.696,25.033,0.64c2.104,3.412,2.201,7.259,2.299,11.281
		C420.848,209.493,418.09,219.33,412.389,228.229z M467.043,255.691c3.815,0.336,7.84-0.56,10.383,3.357
		c-13.672-0.217-15.979,5.132-11.488,16.757c-6.666-2.695-7.778-7.806-7.551-13.303c0.328-7.927,4.575-13.345,11.903-16.173
		c4.715-1.819,9.408-2.054,13.56,1.841C477.185,248.028,471.4,249.473,467.043,255.691z"/>
	<g>
		<path fill="#0DAF4A" d="M493.229,404.755c-19.94-1.887-39.986-0.422-59.952,2.445c-2.478,0.354-6.543-0.82-6.48,4.132
			c0.033,2.715,0.774,4.154,3.819,3.391c1.638-0.41,3.822-1.809,4.72,0.677c0.715,1.984,0.605,4.308-1.347,5.959
			c-1.774,1.501-3.587,2.965-5.28,4.553c-1.987,1.865-3.474,1.396-4.812-0.736c-4.508-7.186-9.572-13.969-14.67-20.741
			c-2.505-3.328-0.604-7.294,0.103-10.631c2.471-11.679,5.267-23.3,11.56-33.761c2.803-4.658,6.329-7.492,11.753-8.13
			c18.744-2.204,37.519-2.377,56.312-0.88c7.287,0.581,14.552,1.442,21.837,2.058c3.367,0.285,3.004,1.917,1.572,3.903
			c-9.492,13.167-13.641,27.989-13.324,44.062C499.133,405.913,496.17,404.84,493.229,404.755z M280.797,252.708
			c-2.741,0.229-1.523,2.382-0.944,3.848c2.933,7.42,5.938,14.812,8.872,22.232c9.896,25.033,20.847,49.606,32.125,74.039
			c1.341,2.904,2.49,3.986,5.401,1.595c3.86-3.169,8.521-5.139,12.753-7.734c5.279-3.237,11.631-4.022,16.581-7.91
			c2.399-1.884,2.667-3.097-0.278-4.515c-7.326-3.53-12.204-9.551-16.413-16.265c-6.585-10.504-9.498-22.239-11.644-34.242
			c-0.289-1.617-0.257-3.211-2.158-4.136c-10.939-5.323-14.333-14.481-12.992-25.987c0.33-2.83-3.373-6.848-6.994-6.7
			C297.879,250.2,289.484,251.983,280.797,252.708z M391.247,353.836c0.979-1.116,1.562-2.221,0.12-2.604
			c-0.23-0.061-0.461-0.102-0.692-0.131c-4.546-0.035-9.092-0.008-13.639-0.002l0,0c-5.526-1.203-11.397-1.968-15.375-6.408
			c-2.588-2.888-3.543-0.933-3.957,0.952c-1.006,4.58-4.357,7.347-7.223,10.535c-4.788,5.326-8.929,11.145-12.853,17.115
			c-1.091,1.66-2.533,3.754,1.371,3.841c8.351,0.188,16.518,1.598,24.522,3.932c1.995,0.582,3.423,0.431,4.655-1.52
			c6.174-9.771,14.639-17.536,22.719-25.633C391.016,353.894,391.132,353.865,391.247,353.836z"/>
		<path fill="#0DAF4A" d="M452.635,188.311c-0.548,0.525-1.899,0.535-2.79,0.328c-5.226-1.218-9.982-3.39-14.036-7.028
			c-1.1-0.988-1.741-1.912-1.362-3.396c0.126-0.492,0.217-0.984,0.289-1.478c0.196-5.089,0.503-10.027-2.43-14.589
			c-0.257-0.399-0.517-0.768-0.78-1.114c-0.026-0.034-0.055-0.068-0.081-0.102c-0.221-0.282-0.442-0.544-0.668-0.792
			c-0.106-0.117-0.218-0.228-0.326-0.341c-3.608-3.696-7.918-3.449-13.25-3.857c-1.896,0.526-3.214-0.724-4.251-2.829
			c0,0,0,0,0-0.001c-5.283-6.855-11.195-13.102-17.551-18.917c-1.883-1.566-3.816-3.075-5.687-4.658
			c-1.064-0.721-2.137-1.427-3.223-2.094c-4.737-2.587-9.45-5.263-14.979-6.379c12.341,9.146,24.117,18.816,33.322,33.173
			c-7.969-2.452-14.577-5.002-21.599-5.741c-3.131-0.329-5.771-1.212-8.409-3.415c-4.748-3.964-10.905-2.9-14.181,2.547
			c-4.177,6.947-7.549,14.377-11.259,21.604c-2.598,5.06-2.608,5.082-6.79,0.959c-11.315-11.159-18.651-24.19-18.482-40.539
			c0.141-13.585,8.484-22.001,22.061-22.75c15.706-0.866,29.219,5.422,42.246,13.048c3.791,2.219,7.722,4.338,11.071,7.263
			c0.884,0.594,1.762,1.209,2.63,1.877c3.191,2.456,6.424,4.921,9.354,7.692c10.488,8.792,19.803,18.753,27.637,30.184
			c4.991,5.761,9.141,12.105,12.959,18.68C452.565,186.501,453.421,187.559,452.635,188.311z M511.163,192.75
			c-1.332-2.039-3.144-3.793-5.224-5.083c-1.61-1.502-3.646-2.401-5.624-3.313c-1.079-0.497-2.78-1.911-3.448,0.67
			c-0.05,0.154-0.102,0.309-0.15,0.463c-0.056,0.094-0.086,0.206-0.104,0.331c-0.133,0.432-0.232,0.865-0.271,1.301
			c-0.384,1.718-0.67,3.458-1.186,5.149c-0.349,0.718-0.776,1.376-1.245,2.012c-1.596-3.746-0.684-7.578-0.897-11.271
			c-1.045-11.455-2.987-22.774-6.067-33.837c-6.928-24.889-15.914-48.617-35.849-66.679c-16.966-15.372-40.209-18.806-59.899-7.364
			c-9.732,5.655-15.544,14.79-18.946,25.432c-1.279,4.001,2.411,3.59,4.329,4.622c2.67,1.437,2.466-0.966,2.96-2.403
			c1.081-3.139,1.928-6.387,3.316-9.385c8.183-17.683,35.095-20.68,46.917-5.292c9,11.713,8.922,29.198-0.188,42.468
			c-5.214,7.595-5.229,7.609,1.427,14.709c21.091,22.491,35.474,48.855,44.914,78.033c0.947,2.927,2.226,3.983,5.296,3.583
			c9.775-1.275,16.731,3.121,21.417,11.403c1.15,2.032,1.927,2.15,3.608,0.71C520.217,227.056,523.188,206.137,511.163,192.75z
			 M411.139,91.221c0.681-1.197,2.158-2.43,0.771-3.911c-1.256-1.343-9.889-0.56-10.723,1.059
			c-3.928,7.625-8.702,14.901-10.154,23.594c6.035,4.151,12.07,8.302,18.104,12.449c7.806,1.561,7.685,1.527,9.535-5.097
			c0.812-2.899-0.037-3.915-2.883-4.221c-3.801-0.408-7.55-1.348-11.354-1.664c-3.047-0.253-3.125-1.577-2.229-3.904
			C404.659,103.163,407.78,97.138,411.139,91.221z"/>
	</g>
</g>
</svg>
