<?xml version="1.0" encoding="UTF-8" standalone="no"?>
<svg
   xmlns:dc="http://purl.org/dc/elements/1.1/"
   xmlns:cc="http://creativecommons.org/ns#"
   xmlns:rdf="http://www.w3.org/1999/02/22-rdf-syntax-ns#"
   xmlns:svg="http://www.w3.org/2000/svg"
   xmlns="http://www.w3.org/2000/svg"
   xmlns:sodipodi="http://sodipodi.sourceforge.net/DTD/sodipodi-0.dtd"
   xmlns:inkscape="http://www.inkscape.org/namespaces/inkscape"
   viewBox="0 0 1632 1056"
   height="1056"
   width="1632"
   xml:space="preserve"
   id="svg2"
   version="1.1"
   sodipodi:docname="mario2.svg"
   inkscape:version="0.92.4 (5da689c313, 2019-01-14)"><sodipodi:namedview
     pagecolor="#ffffff"
     bordercolor="#666666"
     borderopacity="1"
     objecttolerance="10"
     gridtolerance="10"
     guidetolerance="10"
     inkscape:pageopacity="0"
     inkscape:pageshadow="2"
     inkscape:window-width="1366"
     inkscape:window-height="715"
     id="namedview54"
     showgrid="false"
     inkscape:zoom="0.30935922"
     inkscape:cx="603.79625"
     inkscape:cy="469.50922"
     inkscape:window-x="-8"
     inkscape:window-y="22"
     inkscape:window-maximized="1"
     inkscape:current-layer="svg2" /><metadata
     id="metadata8"><rdf:RDF><cc:Work
         rdf:about=""><dc:format>image/svg+xml</dc:format><dc:type
           rdf:resource="http://purl.org/dc/dcmitype/StillImage" /></cc:Work></rdf:RDF></metadata><defs
     id="defs6"><clipPath
       id="clipPath14"
       clipPathUnits="userSpaceOnUse"><path
         id="path12"
         d="M -306,0 H 918 V 792 H -306 Z" /></clipPath></defs><g
     clip-path="url(#clipPath14)"
     transform="matrix(2.0848488,0,0,-2.0848488,587.67035,1380.3477)"
     id="g10"><path
       id="path16"
       style="fill:#000000;fill-opacity:1;fill-rule:nonzero;stroke:none"
       d="m 202.30762,364.35742 c 25.97461,0.17188 33.73535,-34.13672 11.55615,-42.14746 -6.79639,-0.22851 -13.59668,-0.4541 -20.39502,-0.68066 -4.53076,-3.17188 -9.06299,-6.34571 -13.59668,-9.51856 -5.03125,-2.60644 -15.49365,1.03321 -20.39502,-1.3584 -1.7832,-0.87109 -3.854,-5.00586 -6.11816,-6.11914 -13.2417,-6.51269 -24.50049,2.22364 -31.95215,7.47754 -6.28516,-7.22558 -56.28516,-22.70117 -69.34229,-26.51172 -1.36767,-9.95117 -10.16992,-36.84765 -14.95654,-43.50976 -5.41016,-7.53125 -15.39209,-7.67383 -22.43359,-13.59668 -13.87452,-11.67188 -27.82959,-23.2793 -46.22852,-30.5918 -11.10498,-4.41406 -28.04492,-4.12988 -38.75,-8.83887 -2.71875,-2.49218 -5.43945,-4.98535 -8.1582,-7.47656 -3.03906,-2.07812 -6.33252,-0.80469 -10.19678,-2.71972 -2.26562,-2.71973 -4.53271,-5.43946 -6.79883,-8.15821 -6.70898,-5.17969 -14.99023,-9.29687 -24.47412,-11.55762 -33.51514,-7.99218 -54.89258,25.86622 -39.4292,53.02735 0,0.22656 0,0.45215 0,0.67871 -17.49512,-1.85742 -23.78857,-14.63574 -35.35156,-21.75391 -9.33984,-5.74902 -19.02149,-5.05175 -32.63135,-7.47656 -6.57226,-1.17187 -15.67627,-2.15234 -22.43408,0 -17.96533,5.71484 -32.65381,29.73145 -22.43506,54.38672 6.58545,15.88672 19.83984,25.77051 29.9126,38.06738 1.81201,7.02442 3.62549,14.05176 5.4375,21.07617 4.07959,6.11719 8.15869,12.23633 12.23828,18.35547 -34.38477,15.17188 -47.74316,85.44141 -10.19824,108.09131 36.38135,21.94922 59.51269,-24.39795 60.50537,-56.42431 5.21191,4.30468 10.42383,8.61035 15.63623,12.91601 -10.66309,22.87402 -29.18945,64.77197 -31.27246,93.13623 -23.73389,-0.93359 -21.63135,7.75098 -23.11426,24.47461 -13.37207,4.71973 -17.13525,28.29199 -12.91699,46.22949 1.36035,5.89063 2.71875,11.78418 4.0791,17.67432 -1.7749,17.07226 -0.76465,33.00195 7.47754,43.51025 3.39892,2.49121 6.79834,4.98438 10.19873,7.47754 4.55029,7.13086 4.6748,14.46436 11.55664,19.03467 3.39844,0.90723 6.79834,1.81348 10.19678,2.71826 3.85156,4.75928 7.70508,9.52002 11.55713,14.27783 13.95263,10.49707 16.6748,9.93897 31.95312,3.39893 7.24072,-3.1001 12.37305,0.45605 16.31543,-5.43848 6.72949,-10.06396 0.5083,-30.05566 0,-42.82959 22.69434,3.35987 34.80811,-11.1416 25.83252,-31.95117 -2.92334,-6.78076 -10.64307,-12.18652 -12.91699,-18.35547 -0.67871,-4.53271 -1.35889,-9.06543 -2.03809,-13.59668 -1.85547,-4.6748 -9.07177,-11.81347 -7.47949,-14.95703 2.20801,-5.12158 5.28076,-8.92822 2.71924,-15.63574 1.36035,0.67871 2.72119,1.35986 4.07959,2.03906 -6.09522,23.95313 4.39404,38.49854 25.15381,43.50928 -10.76319,29.24853 -6.10108,71.26953 11.55664,89.05908 34.10595,0.10108 53.76025,-26.84033 66.62402,-48.94873 0.22608,0 0.45459,0 0.6792,0 23.10938,20.44483 57.27051,30.63379 93.81689,37.39111 48.5254,8.97217 90.71485,-39.80517 75.46192,-86.33984 38.55469,13.76758 15.21387,-31.25098 12.23633,-41.46875 24.56054,-20.01709 16.3667,-56.59033 -14.27588,-63.90381 -6.15235,-1.46875 -37.04151,-1.16015 -38.75049,-3.39795 -0.90771,-2.26758 -1.81396,-4.5332 -2.71875,-6.80078 8.91162,-6.18262 16.17041,-14.26758 16.99463,-28.55078 4.07959,1.58643 8.15918,3.17236 12.23828,4.7583 6.54102,4.70068 9.65723,13.82178 16.99414,18.35547 5.26074,3.24951 18.13135,2.95947 22.43457,6.11816 6.88281,5.05078 19.83838,12.87745 27.19287,1.35938 11.46875,-17.9585 -10.23974,-49.12451 -10.87646,-67.98389 z"
       inkscape:connector-curvature="0" /><path
       id="path18"
       style="fill:#ffffff;fill-opacity:1;fill-rule:nonzero;stroke:none"
       d="m -167.52002,605.69824 c 1.60059,19.26172 11.03076,32.56543 21.07422,43.50879 -0.45313,0.45313 -0.90674,0.90674 -1.35889,1.36035 -23.98633,4.7295 -38.40429,-29.90576 -39.43066,-52.34668 0.22705,0 0.45361,0 0.6792,0 5.82861,3.06885 10.92773,6.56543 19.03613,7.47754 z"
       inkscape:connector-curvature="0" /><path
       id="path20"
       style="fill:#ffffff;fill-opacity:1;fill-rule:nonzero;stroke:none"
       d="m -140.32666,646.48779 c -6.19287,-5.30859 -13.22656,-11.54687 -16.31592,-19.71582 -2.4331,-6.4331 -2.0459,-20.08008 -6.79834,-24.47363 -7.93066,-3.1709 -15.86328,-6.34473 -23.79443,-9.51709 -6.34473,-5.43848 -12.68945,-10.87793 -19.03467,-16.31592 0,8.83643 0,17.67627 0,26.51367 -0.6792,-0.22705 -1.36035,-0.45312 -2.03955,-0.68066 -2.91895,-3.7793 -6.48193,-7.91504 -8.15869,-12.91553 -2.81738,-8.40722 1.01513,-19.29785 0,-27.19336 -1.74561,-13.58496 -10.35596,-35.11718 -2.71924,-50.30761 7.33594,-14.58838 14.70068,-8.05127 27.19385,-12.91651 -0.45362,-0.22705 -0.90723,-0.45312 -1.36084,-0.68115 -3.07373,-2.33496 -7.78418,-2.17822 -12.23633,-3.39844 -0.83447,-4.63037 -1.06982,-6.83349 0,-11.55664 20.12256,-14.41162 82.14795,13.80469 83.61963,31.95166 -1.15723,2.66113 -1.93799,3.83594 -4.07959,5.43799 -8.14697,-2.09131 -14.43262,-7.30322 -24.47412,-9.51758 0,0.4541 0,0.90723 0,1.36084 12.92236,2.95947 28.14258,15.02002 31.95166,27.19287 0.45361,5.43848 0.90674,10.87793 1.36035,16.31543 5.49268,11.34912 21.08545,13.88233 15.63672,36.03125 -1.8125,1.35889 -3.62647,2.71924 -5.43848,4.0791 -18.26465,9.71436 -32.21289,-15.88964 -38.75195,-23.79443 -6.34278,-2.94531 -12.68897,-5.8916 -19.03418,-8.83789 -9.63818,-6.73682 -13.3916,-16.37256 -20.39502,-25.83301 -0.22559,0 -0.45361,0 -0.6792,0 3.17725,16.64795 12.27979,26.55908 24.47412,33.9917 4.07764,1.81201 8.15674,3.62598 12.23633,5.4375 1.13281,2.71924 2.26562,5.43945 3.39795,8.15869 3.62597,5.91748 9.77783,11.22949 15.63672,14.95752 0.77978,13.98975 7.20654,32.86621 0,44.1875 -3.39844,0.67969 -6.79834,1.36035 -10.19678,2.03955 z"
       inkscape:connector-curvature="0" /><path
       id="path22"
       style="fill:#f2a33f;fill-opacity:1;fill-rule:nonzero;stroke:none"
       d="m -73.02295,635.61035 c -17.49512,-28.41943 -16.41748,-90.43017 9.51709,-109.45215 26.46436,0.50196 45.51172,21.70557 57.10547,38.07129 -4.25244,30.06153 -35.59375,68.57129 -66.62256,71.38086 z"
       inkscape:connector-curvature="0" /><path
       id="path24"
       style="fill:#ffffff;fill-opacity:1;fill-rule:nonzero;stroke:none"
       d="m -189.2749,624.73291 c -7.48242,-8.50537 -15.47022,-21.93115 -12.23633,-38.75 0.22607,0 0.45361,0 0.6792,0 2.94678,2.71924 5.89307,5.43897 8.83838,8.15869 -3.04004,9.85889 1.81836,23.66211 5.4375,29.91211 -0.90528,0.22559 -1.81201,0.45361 -2.71875,0.6792 z"
       inkscape:connector-curvature="0" /><path
       id="path26"
       style="fill:#d81412;fill-opacity:1;fill-rule:nonzero;stroke:none"
       d="m -105.65576,516.64111 c 20.2959,2.78369 30.56689,-3.208 36.71045,-18.35693 0.68115,0.68115 1.36035,1.36035 2.03955,2.04004 10.79834,4.79883 21.3418,15.44531 31.95166,21.75488 25.3042,15.0459 51.40869,19.10205 86.33935,25.83301 2.09424,26.9751 27.27784,54.54297 61.1836,46.90869 10.00293,-2.25293 17.19629,-3.52734 22.43457,-10.19678 6.42724,-8.18261 8.4331,-16.46923 8.1582,-31.95214 -0.10596,-6.00733 -4.80029,-19.21192 -2.71924,-21.0752 2.03858,-1.35938 4.07959,-2.71924 6.12012,-4.07959 0.6792,0.45361 1.3584,0.90674 2.0376,1.36035 2.49365,7.47754 4.98633,14.95703 7.479,22.43457 9.65332,50.57617 -34.78662,80.26416 -84.29785,69.34326 -30.24316,-6.67285 -55.12207,-18.90381 -76.82129,-33.99316 2.10254,-5.17822 6.7915,-16.64844 4.75879,-24.47266 C -6,540.19727 -52.24902,515.5957 -80.50195,524.11865 c -0.22608,0.90723 -0.45362,1.81201 -0.67969,2.71924 2.49316,-0.45361 4.98633,-0.90723 7.47754,-1.36035 -0.22608,0.68066 -0.45313,1.36035 -0.6792,2.03955 -4.92969,4.39893 -8.95215,11.78467 -10.19775,19.71533 -0.90577,0 -1.8125,0 -2.71924,0 -10.45508,-7.96826 -19.36084,-12.8916 -18.35547,-30.59131 z"
       inkscape:connector-curvature="0" /><path
       id="path28"
       style="fill:#000000;fill-opacity:1;fill-rule:nonzero;stroke:none"
       d="m -56.70752,618.61523 c 6.56152,-2.93457 9.93701,-9.64111 13.59668,-15.63623 16.17871,-26.51367 16.66699,-57.90087 -18.35547,-65.26367 0,0.22608 0,0.45362 0,0.6792 2.71924,1.58643 5.43799,3.17236 8.15723,4.75879 -8.89112,16.6416 4.28125,34.54004 12.23779,44.86914 -2.86914,13.13184 -11.10547,19.83154 -15.63623,30.59277 z"
       inkscape:connector-curvature="0" /><path
       id="path30"
       style="fill:#ffffff;fill-opacity:1;fill-rule:nonzero;stroke:none"
       d="m 102.37256,590.06152 c -4.75879,-1.13183 -9.51953,-2.26513 -14.27588,-3.39941 -15.02148,-6.20313 -27.3501,-20.10449 -29.91406,-38.75 27.76758,0.39697 50.44629,-7.65381 74.78125,-12.91553 0.22705,0.6792 0.45263,1.3584 0.68115,2.03955 2.22803,3.92725 1.78369,8.06836 2.71826,13.59668 4.44336,26.29248 -9.91113,39.48535 -33.99072,39.42871 z"
       inkscape:connector-curvature="0" /><path
       id="path32"
       style="fill:#f2a33f;fill-opacity:1;fill-rule:nonzero;stroke:none"
       d="m -39.71289,581.22412 c -4.1709,-6.68213 -14.99024,-22.81543 -9.51709,-35.35205 1.8125,1.58643 3.62598,3.17432 5.43945,4.76074 2.45655,7.29834 9.21533,20.03662 4.07764,30.59131 z"
       inkscape:connector-curvature="0" /><path
       id="path34"
       style="fill:#f2a33f;fill-opacity:1;fill-rule:nonzero;stroke:none"
       d="m 166.27539,540.43408 c -2.71875,-0.90674 -5.43701,-1.81347 -8.15576,-2.71875 -2.04053,-4.30517 -4.07959,-8.61181 -6.12012,-12.91748 0.45459,-0.6792 0.90723,-1.3584 1.35938,-2.03955 5.46533,-1.42725 11.30273,-7.40771 14.27685,-11.55713 0.68018,0.4541 1.35938,0.90723 2.04004,1.36084 2.46777,7.5791 8.81055,17.47022 6.11768,27.87207 -3.17237,0 -6.34473,0 -9.51807,0 z"
       inkscape:connector-curvature="0" /><path
       id="path36"
       style="fill:#d81412;fill-opacity:1;fill-rule:nonzero;stroke:none"
       d="m 58.18262,539.07422 c -12.46289,-1.13281 -24.92725,-2.26563 -37.39014,-3.39844 -19.9043,-4.86865 -36.45947,-13.12207 -52.34668,-21.75537 0.22607,-0.6792 0.4541,-1.3584 0.68018,-2.03857 11.53173,-9.81055 31.04931,-2.49903 44.18945,4.07861 11.79248,5.9043 23.15381,29.09033 44.86719,20.39453 5.21728,-2.08789 7.4873,-7.01904 11.55908,-10.19678 38.71338,2.06397 75.94726,-17.05468 91.09668,-41.46875 -6.11914,4.53076 -12.23828,9.06348 -18.35498,13.59473 -19.96192,12.42676 -40.97412,18.22314 -71.38379,21.0752 0,-0.22657 0,-0.45264 0,-0.68067 l 38.74951,-19.71338 c 11.35303,-2.95312 21.32471,6.71387 27.87549,-8.15869 3.16894,-10.09473 -1.71533,-25.82959 -6.79834,-30.5918 -0.22803,0 -0.45459,0 -0.68115,0 -0.22657,1.35889 -0.45459,2.71924 -0.68018,4.07959 -1.58545,-6.11914 -3.17236,-12.23779 -4.75879,-18.35693 44.30225,-3.44531 74.51709,16.18799 43.50977,55.74658 -20.42237,26.0542 -63.66553,37.81885 -110.1333,37.39014 z"
       inkscape:connector-curvature="0" /><path
       id="path38"
       style="fill:#f3d2bc;fill-opacity:1;fill-rule:nonzero;stroke:none"
       d="m -5.04004,454.77539 c -0.50488,-16.47363 5.78369,-28.10644 19.03467,-30.5918 0.45312,1.81202 0.90674,3.62647 1.36035,5.43848 3.39795,-1.35889 6.79736,-2.71924 10.19629,-4.0791 -1.80518,-6.12744 0.2666,-13.59033 1.36084,-18.35596 8.58154,-37.39697 49.3584,-67.7915 87.69678,-38.06885 6.104,4.73145 8.76318,11.50196 11.55761,19.71387 12.59571,37.01221 -36.09521,51.92578 -69.34277,40.79004 -0.4541,0.22754 -0.90674,0.45313 -1.36035,0.67871 0,1.81445 0,3.62647 0,5.44043 3.84375,0.32568 8.91797,1.03906 10.87793,3.39844 12.38818,20.52685 16.78125,42.40625 36.71045,55.06689 -0.22656,0.45362 -0.45362,0.90723 -0.6792,1.3584 -10.07959,3.76319 -17.93067,10.7085 -30.59131,12.23828 0.08691,-7.23584 -1.61914,-16.09814 -5.43994,-19.71582 1.27099,45.69873 -41.12695,26.38526 -58.46582,12.91797 0,2.26514 0,4.53223 0,6.79785 -14.06055,-6.64502 -35.14014,-13.44336 -44.86914,2.0376 -1.13281,-0.67871 -2.26563,-1.35791 -3.39844,-2.0376 -0.30322,-6.66113 -0.51807,-14.00049 2.71924,-19.03564 3.98584,-6.19873 26.97314,-13.29541 16.99658,-25.8335 -1.60596,-3.26758 -4.0249,-4.06299 -7.47949,-5.43799 4.38965,-16.57568 -17.7461,-29.48095 -31.95166,-20.39453 -20.01709,12.80078 -3.57569,87.55274 -44.18848,71.38135 -35.81494,-14.26221 -34.42383,-101.46533 12.23633,-102.65381 3.29394,-20 22.67383,-34.01855 27.19385,-48.94824 0.45312,-5.8916 0.90625,-11.78516 1.35986,-17.67676 3.47412,-12.90234 14.71826,-24.47851 25.15332,-30.5918 11.17481,-6.54589 37.18945,-7.83105 50.30811,-1.36035 2.03906,1.58692 4.07861,3.17383 6.11816,4.75879 4.98438,0.22754 9.9707,0.4541 14.95508,0.68164 19.28711,4.5625 38.90723,11.80762 48.94873,25.83301 -2.03955,0.90625 -4.07959,1.81348 -6.11914,2.71973 -9.03272,-6.59571 -26.87012,-14.47754 -36.03125,-2.04102 -3.29981,-2.20996 -6.41162,-1.06738 -10.87695,-3.39844 -2.03809,-2.49316 -4.07813,-4.98632 -6.11866,-7.47851 -7.58056,-5.94141 -17.33642,-11.55762 -28.55273,-13.59473 -47.48438,-8.63379 -38.63574,57.63965 -19.71338,77.5 -3.11768,14.40918 0.03467,16.26514 2.03906,27.19287 0,0 -4.80029,13.78711 -3.39941,18.35547 2.40234,7.83887 12.34765,16.06348 21.75488,16.99463 z"
       inkscape:connector-curvature="0" /><path
       id="path40"
       style="fill:#000000;fill-opacity:1;fill-rule:nonzero;stroke:none"
       d="m 37.7876,506.44287 c 50.43164,1.32764 18.40674,-81.43457 -11.55615,-75.46094 -34.27442,6.83252 -24.74707,53.44873 -4.75977,68.6626 4.73779,3.60498 10.30273,4.1377 16.31592,6.79834 z"
       inkscape:connector-curvature="0" /><path
       id="path42"
       style="fill:#5e3417;fill-opacity:1;fill-rule:nonzero;stroke:none"
       d="m -49.22998,501.00537 c -5.15723,-6.47119 -13.18506,-9.68701 -17.67578,-16.99707 0.22754,-5.43799 0.45361,-10.87793 0.68115,-16.31543 2.39453,-12.33349 5.70215,-31.43408 21.75342,-25.15381 4.02246,1.57373 6.46094,2.24121 8.15869,6.11914 3.45312,5.54737 -0.61768,9.94971 -2.04004,14.27588 5.03809,-0.0483 8.30566,0.96192 10.19678,4.07959 0,1.3584 0,2.71826 0,4.07715 -3.17432,6.95361 -12.35889,8.77051 -16.31543,14.95703 -2.41553,3.77735 -1.59082,11.84473 -4.75879,14.95752 z"
       inkscape:connector-curvature="0" /><path
       id="path44"
       style="fill:#ffffff;fill-opacity:1;fill-rule:nonzero;stroke:none"
       d="M 36.42871,500.32422 C 22.36035,490.49512 12.15967,482.55811 7.87549,462.93408 2.30371,437.40625 33.28613,431.52295 43.90674,446.61816 20.65088,443.38184 20.28906,472.00928 28.271,488.0874 c 1.36425,2.75147 9.55175,11.82373 8.15771,12.23682 z"
       inkscape:connector-curvature="0" /><path
       id="path46"
       style="fill:#4e83bb;fill-opacity:1;fill-rule:nonzero;stroke:none"
       d="m 41.1875,498.28418 c -6.39648,-6.55957 -27.72559,-37.81055 -8.15869,-47.58789 7.96728,-4.7041 15.43701,0.43262 18.35644,5.43945 -6.41601,-0.23584 -10.01806,0.56201 -13.59765,2.71924 -6.26026,15.30225 -2.86377,31.4917 10.87744,38.0708 -0.22461,0.45313 -0.45264,0.90674 -0.6792,1.3584 -2.26611,0 -4.53271,0 -6.79834,0 z"
       inkscape:connector-curvature="0" /><path
       id="path48"
       style="fill:#d81412;fill-opacity:1;fill-rule:nonzero;stroke:none"
       d="m -130.80957,492.84619 c -12.76221,-11.24072 -32.01611,-16.86279 -53.02588,-19.71582 0,-0.22558 0,-0.45117 0,-0.6792 9.56445,-28.15478 18.33106,-54.69629 28.55225,-80.21875 3.35937,-8.38965 11.14209,-19.98535 4.7583,-25.15429 -1.81201,1.8125 -3.62598,3.62597 -5.43799,5.43847 -0.45361,-0.45312 -0.90674,-0.90722 -1.36035,-1.35937 -1.58447,-0.90625 -3.17237,-1.81348 -4.75879,-2.71973 -0.88574,-8.3457 -2.89795,-20.65234 4.07959,-24.47363 3.00439,-2.98731 6.19482,-2.42969 11.55664,-3.39844 29.10351,-5.26465 51.60449,15.13672 59.14551,33.99121 -4.82666,6.15527 -9.14112,17.32129 -10.87744,25.83203 -23.38672,3.63281 -45.07764,32.32715 -38.75049,64.58496 2.03955,9.28955 4.0791,18.58301 6.11865,27.87256 z"
       inkscape:connector-curvature="0" /><path
       id="path50"
       style="fill:#000000;fill-opacity:1;fill-rule:nonzero;stroke:none"
       d="m -102.25537,490.80664 c 26.84766,-2.29297 25.14014,-62.54004 -2.72119,-63.22412 0,0.22754 0,0.45361 0,0.68066 0.4541,0.22559 0.90674,0.45215 1.35986,0.67969 4.84815,6.14502 10.91699,10.58399 12.23828,20.39453 -1.81347,2.94531 -3.62744,5.8916 -5.43994,8.83789 -2.49072,0.45362 -4.98584,0.90674 -7.47754,1.35889 0.4541,0.22705 0.90723,0.45312 1.35938,0.68066 3.97265,4.30225 8.74218,1.72071 13.59619,0 0,2.03858 0,4.07959 0,6.11817 -1.3584,4.98633 -2.71924,9.97168 -4.07764,14.95605 -2.26367,3.8003 -7.89892,6.66651 -8.8374,9.51758 z"
       inkscape:connector-curvature="0" /><path
       id="path52"
       style="fill:#ffffff;fill-opacity:1;fill-rule:nonzero;stroke:none"
       d="m 46.62549,483.3291 c -1.13281,-1.13281 -2.26563,-2.26758 -3.39795,-3.40039 0,-2.03808 0,-4.0791 0,-6.11719 0.6792,-0.90673 1.36035,-1.81298 2.03955,-2.7207 1.58594,0.90772 3.17334,1.81397 4.75879,2.7207 1.10254,3.53028 1.66846,6.21094 0,9.51758 -1.13281,0 -2.26758,0 -3.40039,0 z"
       inkscape:connector-curvature="0" /><path
       id="path54"
       style="fill:#f3d2bc;fill-opacity:1;fill-rule:nonzero;stroke:none"
       d="m 103.73291,483.3291 c -1.81396,-0.45361 -3.62598,-0.90722 -5.43994,-1.35986 0,-0.22656 0,-0.4541 0,-0.68018 27.88037,0.5166 15.53808,-33.35547 8.83789,-46.22754 0.45361,0 0.90723,0 1.35986,0 1.13379,0 2.26612,0 3.39893,0 3.40478,10.49854 18.38428,31.04151 10.19775,44.86719 -5.66894,1.77197 -9.96728,3.41162 -18.35449,3.40039 z"
       inkscape:connector-curvature="0" /><path
       id="path56"
       style="fill:#4e83bb;fill-opacity:1;fill-rule:nonzero;stroke:none"
       d="m 98.29297,474.49121 c 5.33105,-10.99414 -1.9458,-27.24512 -10.87744,-30.59326 -4.93164,-1.46973 -10.0625,1.62793 -10.87793,1.36035 -0.45117,-0.6792 -0.90479,-1.36035 -1.3584,-2.03955 1.3584,-1.13281 2.71875,-2.26562 4.07861,-3.39844 19.39698,-6.81445 33.46338,33.83301 19.03516,34.6709 z"
       inkscape:connector-curvature="0" /><path
       id="path58"
       style="fill:#ffffff;fill-opacity:1;fill-rule:nonzero;stroke:none"
       d="m 107.13086,470.41162 c 1.54883,-12.02295 -6.08252,-27.73535 -15.63623,-31.27197 0,-0.22608 0,-0.45215 0,-0.67969 3.62598,-0.45361 7.25195,-0.90723 10.87793,-1.3584 2.55517,7.50782 12.94482,24.13526 4.7583,33.31006 z"
       inkscape:connector-curvature="0" /><path
       id="path60"
       style="fill:#ffffff;fill-opacity:1;fill-rule:nonzero;stroke:none"
       d="m 84.01758,457.49609 c 3.03564,0.46143 2.87207,0.84717 4.7583,2.03809 0.45264,2.26514 0.90723,4.53223 1.36035,6.79883 -1.36035,-0.22656 -2.7207,-0.45264 -4.0791,-0.68018 -0.68067,-2.71875 -1.35986,-5.43945 -2.03955,-8.15674 z"
       inkscape:connector-curvature="0" /><path
       id="path62"
       style="fill:#ffffff;fill-opacity:1;fill-rule:nonzero;stroke:none"
       d="m 196.86865,430.98193 c -10.26709,-7.67089 -16.93164,-16.09912 -23.79394,-27.19287 -28.75635,0.60303 -36.30616,-6.25927 -44.86963,-25.83496 2.49316,0.22852 4.98584,0.4541 7.479,0.68067 0,-0.22657 0,-0.45215 0,-0.68067 -0.58056,-4.86426 -3.39599,-10.17676 -2.03906,-12.23633 4.95703,-10.93066 14.98584,-35.51855 2.03906,-47.58789 -3.4624,1.75098 -5.64746,-0.53125 -8.8374,-2.71875 0.6792,-0.90722 1.35986,-1.81445 2.03906,-2.71875 11.5249,-5.22656 25.47656,-5.9707 29.91309,8.15723 0.22558,3.625 0.45263,7.25098 0.67822,10.87695 0.68018,-0.45215 1.36133,-0.90722 2.04053,-1.35937 1.24609,-4.00489 2.87012,-9.1875 1.35986,-14.27637 17.14795,-0.44238 18.77783,8.06934 29.91211,10.87793 10.66211,2.68848 18.89111,-2.54199 23.79297,5.4375 9.46631,10.97363 -1.49365,25.7041 -12.91455,27.19336 -3.85254,-1.13281 -7.70606,-2.26563 -11.55762,-3.39844 -1.20166,28.64258 21.16699,43.19238 14.27588,72.06201 -1.13281,0.90577 -2.26562,1.81202 -3.39941,2.71875 -2.03858,0 -4.07959,0 -6.11817,0 z"
       inkscape:connector-curvature="0" /><path
       id="path64"
       style="fill:#ffffff;fill-opacity:1;fill-rule:nonzero;stroke:none"
       d="m 171.71533,422.14404 c -6.34717,-4.11816 -11.32715,-6.76123 -14.95605,-13.59668 3.17138,0 6.34472,0 9.51611,0 3.17334,4.53174 6.3457,9.06446 9.51807,13.59668 -1.3584,0 -2.71875,0 -4.07813,0 z"
       inkscape:connector-curvature="0" /><path
       id="path66"
       style="fill:#f2a33f;fill-opacity:1;fill-rule:nonzero;stroke:none"
       d="m -204.22998,404.46826 c -7.7168,-3.08545 -15.47363,-2.29297 -21.75537,-6.11865 -12.51904,-7.62305 -36.47168,-32.20996 -19.03467,-48.94727 0,0.45411 0,0.90723 0,1.3584 10.26416,18.40723 28.25635,44.25196 61.86377,33.3125 -0.34863,6.18262 -2.40576,15.94678 -6.79785,18.35596 -3.25293,1.95654 -9.13184,2.12598 -14.27588,2.03906 z"
       inkscape:connector-curvature="0" /><path
       id="path68"
       style="fill:#000000;fill-opacity:1;fill-rule:nonzero;stroke:none"
       d="m 159.47705,396.99023 c 1.58594,-0.22656 3.17334,-0.45312 4.75928,-0.68115 0,-1.58447 0,-3.17138 0,-4.7583 -5.2417,-2.40332 -9.11377,-5.5039 -13.59668,-8.15625 1.02441,7.21973 4.10058,10.15625 8.8374,13.5957 z"
       inkscape:connector-curvature="0" /><path
       id="path70"
       style="fill:#000000;fill-opacity:1;fill-rule:nonzero;stroke:none"
       d="m 141.12305,394.9502 c 1.36035,-0.22657 2.71777,-0.45215 4.0791,-0.67774 0,-1.13476 0,-2.26758 0,-3.40039 -1.87842,-4.1084 -4.08887,-8.21289 -8.83887,-9.51855 0,0.68066 0,1.36035 0,2.04101 1.38916,5.10547 2.33399,8.0166 4.75977,11.55567 z"
       inkscape:connector-curvature="0" /><path
       id="path72"
       style="fill:#ffffff;fill-opacity:1;fill-rule:nonzero;stroke:none"
       d="m -11.83838,383.39453 c -5.4585,0.70899 -6.74463,3.78516 -10.19775,2.71875 -0.90772,-1.58594 -1.8125,-3.17285 -2.71973,-4.75976 5.85107,-15.23829 21.13721,-46.69336 38.75049,-48.26661 2.94531,1.58497 5.89111,3.17286 8.83691,4.75879 -0.22461,0.45215 -0.45263,0.90528 -0.6792,1.3584 -14.76416,6.19238 -32.91992,23.47461 -33.99072,44.19043 z"
       inkscape:connector-curvature="0" /><path
       id="path74"
       style="fill:#d81412;fill-opacity:1;fill-rule:nonzero;stroke:none"
       d="m -28.83496,373.87695 c -2.5752,-7.69824 -9.09961,-16.77343 -6.79834,-28.55371 4.38476,-22.4414 21.99365,-31.16504 38.75,-15.63574 -0.90625,1.13184 -1.81201,2.26758 -2.71875,3.39941 -16.33887,7.75489 -18.39893,33.13477 -29.23291,40.79004 z"
       inkscape:connector-curvature="0" /><path
       id="path76"
       style="fill:#f2a33f;fill-opacity:1;fill-rule:nonzero;stroke:none"
       d="m -190.63379,368.4375 c -3.62549,-0.67969 -7.25146,-1.35937 -10.87744,-2.04004 -12.58301,-4.6123 -29.00879,-22.89453 -29.91211,-38.75 5.14453,-3.90137 8.74902,-8.4043 14.95508,-11.55664 0.96045,24.0127 25.63769,29.34277 36.7124,44.18945 0.18897,3.90918 0.34326,5.34375 -2.03955,6.79786 -2.94678,0.45312 -5.89355,0.90527 -8.83838,1.35937 z"
       inkscape:connector-curvature="0" /><path
       id="path78"
       style="fill:#1f499e;fill-opacity:1;fill-rule:nonzero;stroke:none"
       d="m -83.22119,365.71777 c -10.18897,-28.39648 -50.5376,-30.19824 -70.02295,-49.62695 -9.75098,-9.72559 -6.70947,-27.11816 3.40039,-34.6709 32.34375,-24.1709 79.8252,16.54785 81.57959,44.87012 -1.58643,4.98437 -3.17432,9.96973 -4.75879,14.95508 -2.60889,12.71289 -2.77881,17.47265 -10.19824,24.47265 z"
       inkscape:connector-curvature="0" /><path
       id="path80"
       style="fill:#d81412;fill-opacity:1;fill-rule:nonzero;stroke:none"
       d="m 127.52588,360.95996 c -4.45459,-5.61426 -10.88086,-5.28808 -19.03516,-7.47754 -2.52978,-13.18554 -39.24658,-40.37793 -53.70654,-44.19043 -0.45361,-5.66406 -0.90674,-11.33105 -1.36035,-16.99511 19.00439,2.48242 48.00586,17.72167 63.22461,26.51269 5.84765,3.37695 16.05176,4.83984 18.35498,11.55762 3.55078,11.23828 -0.70508,26.80859 -7.47754,30.59277 z"
       inkscape:connector-curvature="0" /><path
       id="path82"
       style="fill:#1f499e;fill-opacity:1;fill-rule:nonzero;stroke:none"
       d="m -171.59912,359.59961 c -8.146,-10.97363 -17.63037,-19.78516 -23.79297,-33.30957 -2.8208,-6.1875 -0.51318,-16.42285 -4.07959,-23.11719 -4.44092,-8.3291 -14.10352,-14.50293 -18.35498,-23.79297 -11.85742,-25.90527 0.90332,-54.27441 21.07422,-63.90332 13.92871,-6.64941 51.05078,8.71387 66.62256,11.55762 8.10693,1.47852 19.71582,-7.44336 27.19336,-9.51855 14.55029,-4.03809 32.24853,-1.41602 46.9082,-0.68067 -0.22559,-0.90527 -0.45361,-1.8125 -0.6792,-2.71875 -13.60644,-4.44629 -34.40283,-8.93066 -50.98828,-3.39844 -7.70264,2.94532 -15.41016,5.89063 -23.11377,8.83594 -0.22607,-0.22558 -0.45313,-0.45117 -0.6792,-0.67969 0.22607,-0.67871 0.45313,-1.35839 0.6792,-2.03906 11.24268,-13.18457 20.16943,-26.78516 40.11084,-31.27246 10.84668,-2.43945 13.08838,7.2373 19.71387,9.51855 16.41357,5.64942 31.19629,9.042 46.229,15.63672 8.15674,4.53028 16.3169,9.06446 24.47461,13.59668 0,0.22559 0,0.45215 0,0.67871 -6.5708,-0.39355 -14.97217,-0.93554 -21.07666,1.36133 -17.40625,6.54297 -17.5376,30.82324 -0.67822,38.06934 0,0.22656 0,0.45312 0,0.68066 -0.4541,0 -0.90772,0 -1.35938,0 -6.79834,1.3584 -13.59814,2.71875 -20.39502,4.07813 -13.88965,4.19238 -25.73242,10.59472 -35.35107,19.03515 -2.94531,-2.94629 -5.8916,-5.89355 -8.83789,-8.83789 -18.55127,-8.43554 -42.54444,-20.2539 -65.26465,-4.75879 -23.86035,16.27539 -16.56885,49.19336 9.51758,57.10547 0,0.22559 0,0.4541 0,0.67969 -11.62989,-0.0107 -22.3877,2.62012 -25.83301,10.87793 -2.01367,4.82617 -0.0986,15.14258 -2.03955,16.31543 z"
       inkscape:connector-curvature="0" /><path
       id="path84"
       style="fill:#000000;fill-opacity:1;fill-rule:nonzero;stroke:none"
       d="m 31.67041,355.52051 c -3.93262,-2.75 -10.95654,-2.86328 -17.67578,-2.71973 4.75635,-6.62402 12.42334,-12.23926 23.79297,-12.23535 -0.65528,4.04687 -3.24854,12.70605 -6.11719,14.95508 z"
       inkscape:connector-curvature="0" /><path
       id="path86"
       style="fill:#000000;fill-opacity:1;fill-rule:nonzero;stroke:none"
       d="m -124.69043,324.24805 c 43.22168,1.53418 48.12207,-32.23926 19.03467,-43.50879 -17.75488,-6.87696 -56.49219,-2.66113 -46.90918,23.79394 4.66992,12.89063 15.4331,14.31348 27.87451,19.71485 z"
       inkscape:connector-curvature="0" /><path
       id="path88"
       style="fill:#f2a33f;fill-opacity:1;fill-rule:nonzero;stroke:none"
       d="m -119.93213,317.45117 c -12.34277,-5.4082 -25.10596,-4.09472 -25.15283,-21.75586 10.18701,-22.13281 44.4707,-10.32519 50.98633,8.83789 -1.44141,4.97754 -2.3291,8.25684 -6.79883,10.19922 -4.13037,2.49024 -12.81641,2.70117 -19.03467,2.71875 z"
       inkscape:connector-curvature="0" /><path
       id="path90"
       style="fill:#d81412;fill-opacity:1;fill-rule:nonzero;stroke:none"
       d="m -62.82666,316.09082 c -1.99561,-7.91504 -6.73535,-13.81152 -10.19629,-20.39551 0.90527,-1.13281 1.81201,-2.26465 2.71875,-3.39843 4.53125,-3.17188 9.06397,-6.34668 13.59668,-9.51758 36.65674,-15.97852 57.33447,-11.60938 76.13965,18.35644 0,0.22559 0,0.45117 0,0.67871 -8.15674,-2.94629 -16.31543,-5.89355 -24.47217,-8.83789 -27.75586,-5.53808 -45.91016,11.58789 -57.78662,23.11426 z"
       inkscape:connector-curvature="0" /><path
       id="path92"
       style="fill:#f2a33f;fill-opacity:1;fill-rule:nonzero;stroke:none"
       d="m -220.54736,309.97168 c -4.07618,-5.45703 -10.32422,-10.1582 -12.91553,-16.99512 -1.13281,-5.8916 -2.26758,-11.78418 -3.40039,-17.67578 -9.40723,-15.78418 -26.76709,-24.62793 -31.95166,-45.54785 -4.50488,-18.18652 14.04394,-47.80566 30.59326,-40.79102 -13.67578,4.13575 -25.05176,23.29688 -19.71582,43.50879 4.7085,17.83789 16.34961,27.91895 24.47461,41.47168 2.0376,6.34278 4.0791,12.68946 6.11865,19.03418 3.85205,5.21192 7.70361,10.42383 11.55713,15.63574 -1.58643,0.45411 -3.17432,0.90528 -4.76025,1.35938 z"
       inkscape:connector-curvature="0" /><path
       id="path94"
       style="fill:#1f499e;fill-opacity:1;fill-rule:nonzero;stroke:none"
       d="m 45.26709,306.57324 c -5.43799,-1.13281 -10.87793,-2.2666 -16.31689,-3.40039 -9.16211,-27.29492 -53.19629,-37.34765 -55.74512,-61.86328 1.28906,-2.7334 1.93457,-4.14551 4.75879,-5.43848 -5.87305,28.70801 34.21728,34.0918 56.42529,29.2334 4.63818,7.60352 16.90088,27.46973 10.87793,41.46875 z"
       inkscape:connector-curvature="0" /><path
       id="path96"
       style="fill:#c85540;fill-opacity:1;fill-rule:nonzero;stroke:none"
       d="m -211.02881,305.21289 c -5.16943,-6.81934 -11.96777,-12.69141 -15.63623,-21.07324 -0.6792,-3.17383 -1.35986,-6.3457 -2.03955,-9.51856 -2.26562,-2.49316 -4.53271,-4.98632 -6.79785,-7.47754 -8.06397,-11.53417 -15.0542,-24.83691 -17.67627,-41.46972 -6.29443,-39.92578 49.82959,-43.40137 63.90381,-18.35547 -30.94531,2.6123 -49.31641,38.12598 -36.71045,71.38184 3.89502,10.27636 11.55029,17.78613 17.67578,25.833 -0.90723,0.22657 -1.81348,0.4541 -2.71924,0.67969 z"
       inkscape:connector-curvature="0" /><path
       id="path98"
       style="fill:#f2a33f;fill-opacity:1;fill-rule:nonzero;stroke:none"
       d="m 14.67432,261.02441 c -13.10157,-5.89257 -20.64746,-6.61523 -29.23291,-16.31543 -0.16846,-4.86132 0.41601,-6.94043 2.03906,-9.51953 17.92578,-4.90039 43.90918,3.31641 44.86914,19.7168 -3.02832,5.4834 -8.91016,6.4248 -17.67529,6.11816 z"
       inkscape:connector-curvature="0" /><path
       id="path100"
       style="fill:#f2a33f;fill-opacity:1;fill-rule:nonzero;stroke:none"
       d="m -143.72656,216.83496 c -11.64112,-5.68359 -25.00147,-29.4375 -9.51758,-40.78906 -6.4043,17.76758 6.21435,30.73144 12.91748,40.11035 0,0.22559 0,0.45215 0,0.67871 -1.13281,0 -2.26709,0 -3.3999,0 z"
       inkscape:connector-curvature="0" /><path
       id="path102"
       style="fill:#c85540;fill-opacity:1;fill-rule:nonzero;stroke:none"
       d="m -137.60742,212.75586 c -4.97363,-7.35938 -10.74219,-14.2627 -12.91748,-24.47266 -7.06446,-33.17187 41.03467,-23.91699 52.34717,-8.1582 -13.22901,2.08887 -25.99122,13.3584 -32.63184,22.43359 -2.49414,3.41016 -3.34473,7.76368 -6.79785,10.19727 z"
       inkscape:connector-curvature="0" /><path
       id="path104"
       style="fill:#ffffff;fill-opacity:1;fill-rule:nonzero;stroke:none"
       d="m 97.21045,586.50635 12.62891,-5.3999 0.44873,-6.5879 8.71777,3.36817 8.7832,-3.56397 0.53516,-33.05468 -12.05957,-0.79102 -0.8252,25.50537 -15.55224,-8.4248 -2.77881,13.22168 -15.08203,-22.26953 -12.63867,5.18505 z"
       inkscape:connector-curvature="0" /><path
       id="path106"
       style="fill:#000000;fill-opacity:1;fill-rule:nonzero;stroke:none"
       d="m 97.21045,586.50635 12.62891,-5.3999 0.44873,-6.5879 8.71777,3.36817 8.7832,-3.56397 0.53516,-33.05468 -12.05957,-0.79102 -0.8252,25.50537 -15.55224,-8.4248 -2.77881,13.22168 -15.08203,-22.26953 -12.63867,5.18505 z"
       inkscape:connector-curvature="0" /></g></svg>