<?xml version="1.0" encoding="utf-8"?>
<!-- Generator: Adobe Illustrator 16.0.0, SVG Export Plug-In . SVG Version: 6.00 Build 0)  -->
<!DOCTYPE svg PUBLIC "-//W3C//DTD SVG 1.1//EN" "http://www.w3.org/Graphics/SVG/1.1/DTD/svg11.dtd">
<svg version="1.1" id="Layer_1" xmlns="http://www.w3.org/2000/svg" xmlns:xlink="http://www.w3.org/1999/xlink" x="0px" y="0px"
	 width="810px" height="810px" viewBox="0 0 810 810" enable-background="new 0 0 810 810" xml:space="preserve">
<g>
	<path fill="#11080A" d="M645.688,332.556c-0.718-1.132-1.311-2.204-1.56-3.571c-2.747-15.091-11.853-24.726-26.155-29.404
		c-19.719-6.45-39.165-5.122-58.153,3.085c-1.55,0.669-2.812,0.682-4.412,0.292c-10.781-2.628-21.058-1.904-30.215,5.116
		c-0.816,0.626-1.59,0.936-2.612,0.933c-9.755-0.027-19.51-0.017-29.739-0.017c0.51-1.594,1.101-2.814,1.271-4.089
		c0.435-3.247,2.052-5.257,5.101-6.659c4.593-2.112,8.793-4.983,12.807-8.073c9.472-7.289,16.94-16.063,17.916-28.486
		c1.632-20.758-7.89-35.875-25.076-46.604c-2.075-1.296-2.703-2.478-2.593-4.811c0.579-12.181,0.222-24.33-1.335-36.451
		c-3.518-27.415-11.742-53.101-28.076-75.7c-14.24-19.697-32.392-34.016-56.898-38.417c-19.862-3.566-38.958-1.093-56.223,10.05
		c-9.945,6.418-17.795,15.079-24.074,25.113c-0.991,1.584-1.811,2.598-3.928,1.731c-5.512-2.255-11.388-3.177-17.237-3.797
		c-13.868-1.472-27.064-0.353-37.123,11.766c-2.521-4.292-5.524-8.028-9.506-10.814c-15.844-11.086-33.545-12.975-51.475-7.951
		c-26.055,7.302-45.788,23.426-57.636,47.928c-10.105,20.898-9.388,41.94,2.355,62.29c6.501,11.265,16.087,19.364,26.88,26.231
		c1.144,0.728,2.295,1.054,2.087,3.162c-1.49,15.062,4.724,23.677,19.673,27.044c3.475,0.783,5.276,2.472,6.658,5.545
		c6.964,15.489,14.974,30.445,23.504,45.121c11.799,20.299,24.634,39.96,37.008,59.905c0.471,0.759,1.658,1.525,0.794,2.495
		c-2.52,2.833-3.619,6.687-7.242,8.781c-11.115,6.426-17.822,22.827-14.678,35.503c2.038,8.218,3.562,16.395,2.947,24.993
		c-0.599,8.365,0.369,16.714,3.46,25.043c-1.473-0.438-2.482-0.751-3.499-1.037c-32.597-9.164-64.572,3.994-81.021,33.605
		c-5.656,10.182-8.171,21.21-5.333,32.754c1.029,4.188,1.351,8.187,1.124,12.41c-0.477,8.901,0.117,17.705,5.482,25.293
		c10.487,14.832,24.574,24.938,41.7,30.792c2.396,0.818,3.807,1.419,1.906,3.985c-1.548,2.094-0.994,3.954,0.462,5.896
		c2.758,3.674,5.832,7.057,9.112,10.251c15.309,14.905,32.507,25.231,55.029,22.951c9.994-1.013,18.739-4.407,25.183-12.405
		c1.43-1.774,2.981-2.859,5.107-3.619c10.98-3.925,20.237-9.971,23.443-22.002c1.3-4.88,2.459-9.32,7.845-11.104
		c0.518-0.173,0.901-0.781,1.318-1.217c7.698-8.046,10.21-18.021,10.716-28.751c0.059-1.238-0.546-2.664,0.958-3.646
		c0.326,0.346,0.687,0.662,0.969,1.037c14.411,19.228,30.52,36.939,47.893,53.512c1.435,1.368,1.998,2.811,2.164,4.705
		c0.579,6.612,0.575,13.849,5.02,18.916c4.749,5.415,4.959,10.926,3.886,17.18c-0.04,0.236-0.051,0.479-0.061,0.722
		c-0.512,14.681,1.14,28.971,8.972,41.784c14.854,24.307,44.385,28.08,66.087,16.913c3.312-1.705,6.478-3.29,10.402-3.632
		c11.047-0.963,19.665-6.055,24.676-16.313c5.57-11.407,6.124-23.682,5.861-36.023c-0.193-9.161-0.723-18.337-4.837-26.796
		c-0.8-1.646,0.469-1.831,1.191-2.36c2.958-2.166,4.771-4.743,5.013-8.671c0.542-8.836,0.037-17.581-1.168-26.323
		c-1.718-12.462-9.43-20.176-20.177-25.398c-1.341-0.651-2.424-1.355-3.412-2.425c-4.507-4.875-9.643-8.745-16.456-9.686
		c-1.129-0.154-1.592-0.703-2.082-1.642c-2.851-5.476-7.564-7.888-13.588-7.845c-1.499,0.011-2.441-0.42-3.306-1.634
		c-6.003-8.432-12.021-16.854-18.152-25.191c-1.134-1.542-1.024-2.641-0.125-4.168c2.011-3.417,4.051-6.846,5.702-10.44
		c8.746-19.055,8.845-38.81,3.892-58.712c-3.887-15.618-9.521-30.812-8.77-47.345c0.312-6.876-0.198-7.01,6.591-8.54
		c0.468-0.106,0.959-0.102,1.431-0.194c11.778-2.299,23.531-1.186,35.289,0.207c1.979,0.235,3.187,1.286,4.229,2.9
		c2.515,3.886,6.004,6.703,10.543,7.662c2.221,0.469,2.792,1.601,3.409,3.459c2.647,7.968,6.564,15.202,12.631,21.177
		c11.184,11.017,26.317,13.897,40.475,7.558c1.054-0.472,1.914-0.607,3.04-0.116c11.715,5.125,23.516,4.368,35.194,0.028
		c9.896-3.676,16.233-10.609,17.736-21.324c0.258-1.838,0.943-2.651,2.567-3.367c3.257-1.435,5.819-3.804,7.809-6.776
		c4.623-6.907,5.141-14.643,4.45-22.574c-0.143-1.643,0.119-2.897,0.89-4.394C654.177,357.093,653.34,344.618,645.688,332.556z
		 M298.91,190.257c-0.355,1.063-0.877,1.81-2.387,1.189c-1.617-0.665-3.428-0.856-5.485-1.331c0.709-1.237,1.254-2.159,1.772-3.095
		c2.414-4.372,3.374-4.402,6.754-0.51C301.006,188.17,299.307,189.066,298.91,190.257z"/>
	<g>
		<path id="r_shoe" fill="#F7B16C" d="M519.037,573.665c5.099,1.315,6.945,5.669,8.641,9.826c3.729,9.138,3.685,18.812,3.362,28.479
			c-0.095,2.855-2.261,4.172-4.261,5.414c-1.715,1.064-2.23,1.993-1.543,4.045c5.886,17.601,5.726,35.53,2.288,53.505
			c-1.112,5.819-3.703,11.158-8.176,15.386c-2.498,2.361-5.422,3.356-9.157,3.586c2.03-3.876,4.089-7.34,5.507-11.135
			c5.325-14.238,5.444-29,4.396-43.842c-0.491-6.954-1.514-13.873-2.394-20.795c-0.319-2.515,0.812-4.707,1.243-7.045
			c2.095-11.374,2.332-22.726,0.104-34.104c-0.203-1.036-0.089-2.134-0.121-3.203L519.037,573.665z"/>
		<path id="sole" fill="#F7B16C" d="M291.635,589.911c-5.885,0-10.756,0.013-15.627-0.003c-11.689-0.038-23.388-0.392-35.066-0.062
			c-13.918,0.396-25.919-4.438-36.984-12.286c-5.816-4.125-11.132-8.85-15.564-14.454c-9.939-12.568-5.301-26.696,10.257-30.663
			c21.754-5.547,40.183-0.087,54.799,17.303c10.69,12.719,21.306,25.514,33.938,36.428
			C288.532,587.163,289.66,588.173,291.635,589.911z M303.717,623.306c2.972-2.11,4.783-4.964,5.701-8.489
			c1.638-6.285,0.047-12.163-2.085-17.985c-4.525-12.359-11.767-23.154-19.661-33.517c-9.332-12.251-18.11-24.979-29.493-35.535
			c-12.744-11.819-27.511-18.383-45.178-17.541c-8.224,0.392-16.027,2.166-22.737,7.171c-6.959,5.188-10.874,11.907-9.803,21.517
			c1.361-1.722,2.286-3.083,3.406-4.259c1.158-1.214,2.375-2.456,3.788-3.33c16.702-10.331,33.737-9.007,50.613-0.752
			c10.306,5.041,17.525,13.801,24.474,22.636c9.4,11.95,19.17,23.591,31.098,33.086c3.379,2.69,4.057,4.762,1.912,8.178
			c-1.502,2.39-1.239,4.413,0.542,6.854c4.61,6.317,8.056,13.174,6.952,21.419C303.288,623.038,303.444,623.222,303.717,623.306z
			 M297.7,624.719c-0.296,1.135-0.805,2.116-1.924,2.654c0,0,0,0-0.001,0c-3.786,3.447-8.565,3.405-13.218,3.679
			c-8.05,0.474-15.772-0.641-22.722-5.116c-0.001,0.012,0.001,0.019,0,0.028l0,0l0,0c0,0,0,0,0-0.001
			c-9.358-4.426-17.536-10.395-24.106-18.461l-0.072-0.157c0-0.001,0-0.001,0-0.002c-0.203-0.128-0.491-0.212-0.588-0.396
			c-0.807-1.535-2.98-2.984-2.191-4.536c0.655-1.287,3.067-0.523,4.688-0.535c15.129-0.106,30.277,0.277,45.378-0.406
			c7.039-0.318,10.665,2.655,13.181,8.4l0.174,0.117l-0.047,0.205c0,0.001,0,0.002,0.001,0.002c0,0,0-0.001,0-0.002
			C298.826,614.825,300.78,619.521,297.7,624.719z M244.707,602.479c0.065,0.002,0.131,0.004,0.196,0.006
			C244.838,602.48,244.773,602.479,244.707,602.479z"/>
	</g>
	<path id="body_1_" fill="#0264B1" d="M489.632,587.031c-0.659,3.631-1.176,7.326-2.45,10.805
		c-1.672,6.081-5.446,12.229-10.062,16.92c-5.551,6.92-12.839,11.451-21.169,14.549c-7.035,2.618-14.248,3.518-21.562,1.583
		c-8.488-2.245-11.815-9.715-12.211-17.961c-0.202-4.233-1.443-7.107-4.42-9.948c-10.774-10.285-20.767-21.318-30.145-32.896
		c-5.788-7.146-11.261-14.534-16.366-22.188c-0.525-0.786-1.431-1.628-1.013-2.562c0.557-1.248,1.901-0.614,2.894-0.618
		c6.147-0.025,12.297,0.109,18.442,0.013c9.546-0.149,18.739-2.271,27.802-5.146c11.794-3.741,22.597-9.231,31.79-17.63
		c1.751-1.601,2.829-0.858,4.059,0.729c6.649,8.594,13.389,17.117,20.047,25.702c0.77,0.991,1.484,1.814,2.802,2.04
		c7.946,1.364,10.188,3.844,12.093,11.913C492.129,570.663,491.118,578.849,489.632,587.031z M304.353,347.722
		c-1.71-1.557-2.835-1.547-4.516,0.074c-5.138,4.955-9.117,10.792-12.979,16.704c-1.924,2.946-4.175,5.766-5.098,9.284
		c0.028,0.069,0.067,0.122,0.102,0.182c3.658,0.778,5.687,6.369,6.341,9.519c0.767,3.69,0.967,8.235,0.113,12.308
		c-0.223,1.381-0.524,2.767-0.907,4.243c-0.394,1.519-0.823,3.008-1.503,4.383c-2.821,7.411-9.105,14.195-17.294,15.227
		c-0.988,0.125-2.466,0.014-2.659,1.337c-0.217,1.482,1.249,1.754,2.298,2.333c5.028,2.776,8.819-0.053,12.436-2.865
		c6.423-4.997,8.909-12.416,10.907-19.796c3.865-14.27,9.313-27.937,14.966-41.535C309.396,352.297,309.526,352.434,304.353,347.722
		z M400.183,420.311c-6.118,9.291-15.888,11.706-26.265,9.463c-14.001-3.027-19.798-18.031-17.821-29.619
		c1.604-9.403,4.367-18.293,9.418-26.421v-0.001c1.023-2.594,2.086-5.164,4.247-7.075c0,0,0-0.001,0.001-0.001
		c2.435-5.973,6.75-10.669,10.666-15.628c0.926-1.172,2.428-0.839,3.732-0.925c5.877-0.387,11.705-0.971,17.235-3.275
		c2.218-0.924,3.892-0.556,3.311,2.462c-1.835,9.534-1.669,19.161-1.377,28.792c0.149,4.926,1.757,9.729,1.287,14.711
		c0.032,0.961,0.063,1.922,0.096,2.883C405.359,404.284,405.137,412.789,400.183,420.311z M400.919,397.46
		c-0.217-4.153-0.998-7.981-3.664-11.583c-2.588-3.497-6.279-6.536-10.562-7.646c-4.924-1.276-10.019-0.319-14.353,2.081
		c-0.436,0.331-0.909,0.614-1.391,0.907c-1.232,0.747-2.19,1.756-3.101,2.858c-0.99,1.2-2.08,2.314-3.059,3.526
		c-0.606,0.75-1.026,1.604-1.507,2.425c-0.051,0.103-0.108,0.205-0.153,0.31c-3.567,8.296-3.472,16.314,1.657,24.026
		c5.233,7.87,17.793,9.558,24.488,5.739c8.003-4.563,11.31-10.979,11.571-19.662C400.878,399.458,400.731,398.424,400.919,397.46z
		 M463.141,460.996c-0.615-15.129-6.838-28.921-9.599-43.521c-0.44-2.324-1.829-2.688-3.626-1.438
		c-1.852,1.289-3.698,2.629-5.319,4.185c-1.332,1.277-2.141,1.279-3.528,0.014c-5.475-4.989-10.995-9.935-16.67-14.69
		c-3.788-3.175-7.49-6.541-12.39-9.136c-0.096,6.676,0.143,12.765-1.345,18.799c-2.016,8.188-7.796,16.824-16.24,20.612
		c-2.646,0.996-5.231,1.608-8.253,1.889c-0.438,0.04-0.877,0.071-1.315,0.097c-1.842-0.028-3.683-0.064-5.523-0.1
		c-1.533-0.146-3.057-0.388-4.559-0.744c-3.688-0.874-7.328-2.78-10.651-4.573c-1.585-0.854-3.079-1.891-4.562-2.908
		c-0.17-0.116-0.353-0.237-0.534-0.357c-1.293-0.919-2.45-1.946-3.405-3.249c-0.472-0.644-0.8-1.4-1.25-2.062
		c-0.135-0.199-0.293-0.383-0.454-0.562c-3.688-6.517-5.157-13.65-4.493-21.533c0.533-6.321,2.298-12.242,4.17-18.2
		c0.478-1.517,1.55-3.552-1.501-3.556c-14.557-0.019-29.122-1.262-43.668,0.827c-3.354,0.481-4.386,2.052-5.115,4.792
		c-2.31,8.679-4.741,17.326-7.079,25.998c-2.935,10.884-12.583,19.334-23.594,20.329c-2.294,0.207-3.16,1.123-3.444,3.229
		c-0.601,4.443-0.826,8.897-0.154,13.327c0.876,5.778,1.011,5.797,6.655,5.322c0.479-0.041,1.013-0.155,1.437-0.003
		c3.038,1.093,4.39-0.318,5.693-3.01c8.698-17.971,30.262-26.776,48.417-25.743c6.682,0.381,13.08,1.875,19.477,3.525
		c0.768,0.263,1.529,0.536,2.285,0.824c3.478,1.78,7.097,3.292,10.603,5.02c0.721,0.405,1.437,0.821,2.146,1.248
		c2.623,1.573,5.141,3.188,7.57,5.029c0.671,0.446,1.342,0.905,2.057,1.331c1.206,0.717,2.415,1.375,3.565,2.187
		c0.076,0.055,0.146,0.116,0.22,0.175c0.139,0.063,0.277,0.137,0.416,0.198c0.166,0.106,0.338,0.209,0.497,0.324l0.018,0.014
		c1.575,1.217,3.175,2.363,1.406,4.661c-2.903,3.771-3.357,3.97-6.494,1.679c-0.828-0.604-1.664-1.193-2.506-1.774
		c-2.8-1.44-5.353-3.548-8.115-4.964c-3.908-2.002-7.912-3.804-11.871-5.7c-1.839-0.767-3.706-1.474-5.631-2.061
		c-9.645-2.938-19.481-3.948-29.199-1.622c-11.267,2.697-20.08,9.32-26.155,19.433c-1.538,2.562-1.836,4.563,0.335,6.758
		c0.92,0.929,2.07,2.168,1.081,3.436c-0.781,1.001-2.344,0.489-3.406,0.058c-2.914-1.183-5.836-1.528-8.801-0.451
		c-1.397,0.508-3.505,0.279-3.89,2.101c-0.349,1.651,1.607,2.248,2.601,3.123c14.548,12.81,25,28.438,31.631,46.55
		c4.113,11.234,7.221,22.837,12.41,33.674c0.948,2.707,2.383,5.382,3.794,7.846c0.003,0.013,0.001,0.024,0.005,0.038
		c0.832,2.828,2.972,5.269,4.518,7.739c0.805,1.286,1.567,2.505,2.414,3.646c1.192,2.272,3.136,4.02,4.725,5.997
		c1.188,1.478,2.592,0.553,3.769-0.415c3.483-2.862,5.663-6.473,6.432-10.946c0.804-4.678,0.551-9.372,0.256-14.056
		c-0.104-1.646-0.047-3.111,1.05-4.394c7.505-8.769,11.249-19.454,14.939-30.085c1.066-3.069,1.91-3.731,4.913-2.559
		c4.433,1.732,4.877,2.108,3.735,6.668c-0.873,3.489-2.206,6.837-3.001,10.37c-0.542,2.412,0.073,3.124,2.312,3.716
		c7.241,1.914,14.618,1.632,21.926,1.286c20.945-0.995,39.22-8.434,52.673-24.892C459.41,495.736,463.879,479.15,463.141,460.996z"
		/>
	<path id="eyes_1_" fill="#35BBDB" d="M385.656,243.847c-6.238,4.435-12.256,2.533-14.696-4.408
		c-4.073-11.583,3.762-29.744,15.021-34.391c3.324-1.372,6.841-1.402,9.937,1.021c2.961,2.318,4.383,5.232,3.618,9.151
		c-7.009-5.838-12.187-5.059-17.717,2.708c-2.609,3.664-4.497,7.676-4.78,12.291C376.529,238.517,377.712,240.474,385.656,243.847z
		 M338.144,189.608c-0.02-0.02-0.04-0.04-0.06-0.06c-0.581-1.292-1.7-1.878-2.968-2.272c-0.053-0.035-0.105-0.07-0.158-0.105
		c-1.096-0.215-2.249-0.067-3.389,0.235c-5.045,1.864-8.223,5.872-10.626,10.783c-0.474,0.966-1.076,1.87-1.619,2.801l0,0
		c-0.248,0.651-0.596,1.284-0.726,1.959c-0.364,1.898,1.061,3.104,2.339,3.573c1.388,0.51,1.091-1.37,1.584-2.178
		c1.607-2.632,3.015-5.438,4.95-7.807c3.339-4.086,6.728-4.25,10.308-0.937c0.73-0.861,0.765-1.899,0.842-2.925
		C338.608,191.643,338.528,190.54,338.144,189.608z"/>
	<g>
		<path id="hand" fill="#FCFCFC" d="M642.207,360.331c3.298-8.652,1.979-16.404-2.154-23.932c-1.267-2.309-3.507-4.208-3.815-6.889
			c-1.232-10.66-8.185-16.73-17.159-20.555c-24.997-10.653-48.462-6.182-70.75,8.036c-2.307,1.471-3.84,3.956-6.861,5.085
			c0.694-4.107,3.186-6.924,5.098-10.029c0.48-0.782,1.779-1.401,1.286-2.362c-0.522-1.021-1.893-0.808-2.968-0.919
			c-7.938-0.82-13.949,2.976-19.214,8.241c-7.711,7.711-11.125,17.56-13.426,27.915c-2.409,10.844-3.443,21.68,0.319,32.448
			c1.202,3.438,2.785,6.652,6.188,8.564c1.677,0.941,2.275,0.697,2.338-1.342c0.113-3.73,0.301-7.475,0.771-11.173
			c0.703-5.561,2.271-10.873,5.242-16.02c0.429,0.642,0.66,0.829,0.647,0.997c-0.083,1.082-0.204,2.16-0.34,3.236
			c-1.603,12.624-1.077,25.068,3.768,36.996c4.568,11.248,11.997,19.703,24.196,22.938c8.644,2.292,18.218-1.975,21.422-9.353
			c2.293-5.28,1.111-7.512-4.462-8.408c-0.596-0.095-1.197-0.209-1.796-0.207c-2.073,0.008-2.523-0.964-2.387-2.968
			c0.202-2.931,1.314-4.105,4.265-3.348c1.16,0.298,2.397,0.284,3.573,0.538c7.017,1.52,13.726,3.729,18.93,9.021
			c0.759,0.771,2.341,1.683,1.344,2.902c-1.106,1.354-2.663,2.561-4.273,3.214c-1.223,0.496-1.727-1.361-2.646-2.052
			c-1.123-0.843-2.111-1.917-3.733-2.113c-0.169,3.484-1.086,6.752-2.434,9.825c-0.789,1.801-0.542,2.604,1.223,3.183
			c8.698,2.854,17.376,2.93,25.743-0.922c9.384-4.316,14.768-15.701,13.607-27.339c-0.479-4.805-2.115-9.275-3.985-14.786
			c6.705,4.136,9.139,9.84,10.819,15.979c0.486-0.161,0.751-0.183,0.924-0.319c0.376-0.297,0.723-0.637,1.049-0.988
			c7.083-7.598,7.335-16.67,5.494-26.115c-1.331-6.832-4.872-12.724-8.367-18.613c-0.081-0.132-0.101-0.209-0.094-0.263
			c0.978,0.185,1.878,0.44,2.756,0.871C636.615,351.836,639.129,356.239,642.207,360.331z M582.643,362.799
			c-1.221,2.067-3.153,2.85-5.07,2.706c-2.957-0.096-4.71-1.46-6.05-3.434c-2.527-3.723-3.975-7.924-5.21-12.2
			c-0.323-1.115-0.858-2.667,1.392-2.099c5.568,1.404,10.72,3.587,14.365,8.303C583.674,358.153,584.023,360.461,582.643,362.799z
			 M594.316,337.115c-0.33,2.792-3.326,5.178-6.613,4.817c-5.699-0.627-10.38-3.518-14.575-7.258
			c-1.449-1.292-0.327-1.735,0.8-2.135c3.654-1.297,7.434-1.89,11.706-2.043c0.91,0.077,2.25,0.066,3.535,0.325
			C592.622,331.515,594.674,334.093,594.316,337.115z M591.781,318.733c-5.34,1.527-10.803,2.062-17.365,1.401
			c4.62-4.953,8.974-8.732,14.921-10.135c2.976-0.701,5.879,0.829,6.368,3.227C596.352,316.399,594.408,317.983,591.781,318.733z"/>
		<path id="l_hand" fill="#FCFCFC" d="M226.449,105.729c7.326,2.965,14.088,6.519,19.233,12.556c1.581,1.855,2.841,3.89,3.959,6.015
			c3.08,5.852,2.983,6.237-2.68,9.434c-3.172,1.79-5.578,4.489-8.313,6.843c-9.702-18.029-23.359-26.799-35.855-22.644
			c5.315,1.787,10.109,3.792,14.47,6.725c5.933,3.992,10.589,9.043,13.469,15.64c1.771,4.058,2.599,7.996,0.688,12.457
			c-2.087,4.87-2.209,10.147-0.368,15.209c0.64,1.76,0.155,2.562-1.114,3.592c-2.334,1.895-5.083,2.693-7.894,3.393
			c-2.049,0.509-2.947,0.113-2.76-2.436c0.748-10.165-2.133-19.336-8.598-27.21c-6.493-7.909-14.92-11.728-26.046-11.251
			c1.767,1.832,3.548,2.093,5.053,2.717c13.917,5.768,21.353,16.297,22.835,31.127c0.728,7.279-2.62,13.167-8.554,15.603
			c-6.363,2.611-13.157,0.785-17.879-4.77c-2.854-3.356-5.147-7.115-7.709-11.328c-0.529,15.334,8.205,27.116,24.426,24.024
			c5.469-1.042,10.287-3.496,13.601-8.161c1.019-1.436,2.076-1.554,3.637-1.467c5.432,0.299,10.659-0.571,14.879-4.287
			c1.699-1.496,2.537-0.277,3.68,0.413c10.169,6.142,26.455,0.393,29.791-10.579c-1.283-0.75-1.973,0.445-2.746,0.96
			c-3.031,2.02-6.234,3.661-9.721,4.7c-5.267,1.569-10.087,0.694-14.073-3.173c-3.978-3.858-4.471-8.783-3.044-13.768
			c3.873-13.524,18.763-20.223,29.745-19.752c1.537,0.066,2.232,0.659,2.517,2.315c2.149,12.499,7.898,23.424,15.193,33.593
			c1.35,1.883,1.655,3.597,1.094,5.693c-0.784,2.929-2.044,5.657-3.461,8.312c-1.292,2.421-3.105,3.86-6.014,4.55
			c-17.561,4.161-29.715,20.283-29.345,39.252c0.08,4.12-1.258,6.032-4.856,7.301c-10.66,3.759-21.465,6.544-32.889,4.971
			c-7.42-1.022-12.41-6.477-12.565-13.14c-0.048-2.078,0.287-2.952,2.765-2.646c6.291,0.779,15.096-0.871,20.464-3.745
			c-2.285-0.236-3.826-0.474-5.374-0.545c-39.598-1.822-68.421-49.554-47.291-87.961c11.15-20.268,27.741-33.973,49.883-40.694
			c19.488-5.915,41.418,1.578,51.978,17.365c1.149,1.718,1.662,3.271,1.022,5.361c-0.955,3.118-1.286,6.394-1.261,9.652
			c0.015,1.97-0.806,1.951-2.519,2.287c-6.431,1.263-9.523-0.677-12.507-7.106c-5.024-10.824-14.983-15.84-27.008-16.257
			C227.838,104.854,227.189,104.685,226.449,105.729z"/>
		<path fill="#FCFCFC" d="M312.066,302.841c12.489-0.517,23.979-3.071,34.903-8.151c2.597-1.208,5.36,0.611,8.131,0.391
			c1.22-0.097,1.074,1.354,0.455,2.219c-0.791,1.103-2.008,1.654-3.208,2.233c-9.517,4.593-19.602,7.124-30.063,8.22
			C318.142,308.187,314.357,307.559,312.066,302.841z M390.961,219.477c-2.087-0.029-4.479,3.223-4.562,6.172
			c-0.05,1.739,0.047,3.498,2.458,3.585c2.337,0.084,4.754-3.069,4.82-6.381C393.527,221.218,393.232,219.509,390.961,219.477z
			 M333.635,203.995c-0.683,2.148-1.275,4.883-4.304,5.12c-1.834,0.144-1.682-1.803-1.437-3.013c0.478-2.346,1.176-4.9,4.019-5.227
			C333.569,200.685,333.821,202.31,333.635,203.995z M398.545,204.432c-12.597-4.075-21.813,0.454-27.226,13.245
			c-2.307,5.453-3.994,11.122-3.51,17.163c0.489,6.098,2.613,11.191,9,13.501c-7.388,1.756-14.562-3.131-16.584-11.404
			c-2.679-10.964,4.46-33.823,19.468-39.752C387.618,194.053,395.299,196.732,398.545,204.432z M336.775,185.127
			c-5.506-7.428-12.827-5.105-17.161-0.16c-2.069,2.361-3.777,4.968-5.247,7.747c-3.092,5.847-3.115,5.834,2.457,10.011
			c0.63-1.296,1.25-2.568,1.869-3.841c3.088-6.304,6.299-12.478,14.345-13.522c1.12-0.343,2.03,0.206,2.953,0.696
			C336.616,186.055,336.943,185.8,336.775,185.127z"/>
		<path id="hat_1_" fill="#FCFCFC" d="M412.878,99.05c-13.768-19.02-42.759-18.073-54.627,1.586
			c-2.688,4.453-3.303,6.167-0.855,7.539c1.021,0.889,2.391,1.417,3.678,1.895c0.193,0.118,0.39,0.231,0.584,0.348
			c1.361,0.822,2.73,1.629,4.153,2.37c1.414,0.736,2.691,1.633,3.961,2.547c0.764,0.549,1.522,1.104,2.306,1.637
			c2.653,2.128,5.646,3.805,8.318,5.911c5.253,4.138,10.564,8.202,15.857,12.289c0.295,0.281,0.585,0.566,0.877,0.849
			c1.039,1.007,2.071,2.021,3.144,3.002c0.291,0.267,0.575,0.574,0.86,0.89c0.55,0.609,1.105,1.26,1.729,1.783
			c1.645,1.897,3.664,3.457,5.238,5.417c0.955,1.188,1.67,0.306,2.376-0.319c2.72-2.405,5.107-5.076,6.714-8.379
			C424.011,124.386,421.696,111.231,412.878,99.05z"/>
	</g>
	<g>
		<path id="r_button" fill="#F6ED0F" d="M391.869,386.594c-3.84-3.769-10.699-5.233-15.446-3.174
			c-7.75,3.362-11.739,10.054-11.712,17.971c-0.046,8.216,4.453,14.708,11.823,17.063c5.992,1.915,14.204-0.904,17.858-6.132
			C399.488,405.034,398.299,392.905,391.869,386.594z M391.78,404.342c-1.228,5.171-5.395,8.417-10.889,8.58
			c7.656-5.157,10.099-12.232,8.244-21.088C393.19,395.417,392.829,399.922,391.78,404.342z"/>
		<path id="l_button" fill="#F6ED0F" d="M284.288,384.736c-0.241-2.007-1.121-3.944-3.044-5.101
			c-2.651-1.975-5.306-1.153-7.962-0.007c0,0,0,0-0.001,0c-0.001,0-0.001,0.001-0.002,0.001l0,0
			c-9.25,4.297-13.95,21.074-11.056,29.256c2.797,7.908,8.716,9.369,14.407,3.252C283.874,404.349,285.508,394.894,284.288,384.736z
			 M268.298,410.741c3.579-4.188,5.689-8.396,7.155-12.973c1.453-4.537,2.099-9.194,2.179-14.401
			C282.731,391.26,276.806,409.094,268.298,410.741z"/>
	</g>
	<g>
		<path id="r_shoe_1_" fill="#874C30" d="M515.442,594.021c0.477,6.446-0.515,13.426-2.311,20.358
			c-1.211,4.676,0.568,9.272,1.127,13.878c1.974,16.254,2.319,32.418-2.465,48.287c-4.729,15.684-16.248,23.822-31.632,26.555
			c-15.42,2.738-28.965-1.566-39.119-13.897c-6.05-7.349-8.612-16.354-9.466-25.713c-0.556-6.099-0.604-12.242,0.367-18.373
			c0.378-2.386,1.297-2.875,3.494-2.798c9.877,0.345,19.385-1.31,28.4-5.536c10.229-4.795,18.058-12.216,23.938-21.742
			c9.557-15.479,11.922-32.552,10.759-50.317c-0.183-2.797,0.396-3.062,2.833-2.092c10.004,3.984,13.281,12.208,14.037,22.005
			C515.63,587.51,515.442,590.416,515.442,594.021z"/>
		<path id="l_shoe" fill="#874C30" d="M236.833,465.886c19.818,0.333,35.052,8.881,47.563,22.847
			c13.791,15.396,21.367,34.02,27.948,53.289c4.119,12.062,9.533,23.714,16.977,34.182c3.709,5.218,5.678,10.382,3.587,16.771
			c-2.398,7.324-6.605,13.014-13.545,16.561c-2.511,1.283-3.647,1.201-3.708-2.238c-0.188-10.651-5.031-19.809-10.631-28.379
			c-11.848-18.132-24.368-35.816-39.092-51.785c-13.907-15.083-30.842-23.606-51.757-22.769
			c-11.194,0.447-21.653,3.197-30.197,11.047c-0.588,0.54-1.152,1.462-2.109,1.021c-1.012-0.466-0.508-1.428-0.44-2.237
			c1.822-22.074,19.109-41.292,41.071-46.229c1.992-0.446,3.97-1.114,5.986-1.269C231.482,466.469,234.413,465.479,236.833,465.886z
			"/>
		<path id="hair" fill="#874C30" d="M447.448,260.661c0.948,3.775-0.626,6.419-4.136,8.676c-5.069,3.261-9.237,7.608-12.895,12.459
			c-2.873,3.814-6.521,6.739-11.281,7.991c-5.831,1.533-10.17-2.467-9.075-8.375c0.133-0.709,0.152-1.492,0.48-2.105
			c2.728-5.103,5.398-9.951,3.834-16.355c-0.696-2.851,2.585-5.186,5.532-6.359c2.134-0.85,4.406-1.445,6.703-1.166
			c6.705,0.816,11.848-2.177,16.533-6.454c0.684-0.625,1.306-1.792,2.312-1.449c1.152,0.391,1.078,1.76,1.162,2.792
			C446.891,253.673,447.811,256.971,447.448,260.661z"/>
	</g>
	<path id="face" fill="#F9CFB0" d="M459.213,269.22c-9.545,1.36-17.146,6.761-23.216,14.213c-3.751,4.604-7.693,9.036-12.978,11.898
		c-4.899,2.655-10.14,3.707-15.043,0.225c-4.875-3.463-6.543-8.525-5.409-14.355c0.629-3.234,2.184-6.133,4.446-8.562
		c1.245-1.335,2.056-2.146,0.975-4.437c-1.839-3.894-0.856-7.978,1.538-11.636c3.468-5.297,8.747-6.364,14.516-6.325
		c8.354,0.056,14.295-4.093,19.097-10.569c2.293-3.091,1.046-5.971,0.155-8.905c-0.736-2.422-3.088-1.145-4.662-1.678
		c-0.453-0.153-0.938-0.216-1.409-0.317c-13.035-2.818-20.962-11.516-26.606-22.943c-3.197-6.472-5.812-13.219-9.418-19.5
		c-1.39-2.418-2.933-3.601-5.958-3.481c-5.467,0.216-10.799,0.944-15.999,2.574c-3.905,1.224-7.758,2.613-12.248,4.138
		c2.792-6.008,6.989-9.835,11.341-13.419c2.525-2.079,1.851-2.858-0.625-3.986c-9.253-4.216-18.83-7.3-28.868-9.051
		c-2.763-0.482-3.268,0.179-3.133,2.807c0.289,5.637,0.123,11.277-2.098,17.162c-2.277-5.324-3.919-10.333-6.371-15.042
		c-4.352-8.357-11.77-6.703-16.409-1.5c-6.864,7.698-11.051,17.161-15.911,26.157c-1.062,1.965,0.569,2.043,1.562,2.753
		c1.424,1.019,2.005,0.472,2.619-0.917c2.305-5.203,5.072-10.141,9.216-14.135c8.097-7.807,18.97-5.134,22.011,5.667
		c2.847,10.115-0.051,19.566-4.778,28.5c-1.827,3.452-4.378,6.282-1.884,10.738c1.529,2.733-2.14,2.747-3.587,3.787
		c-1.622,1.167-1.894-0.373-2.396-1.474c-5.1-11.157-13.173-19.42-24.133-24.943c-20.015-10.085-39.571-1.226-44.867,20.388
		c-3.24,13.22,1.271,27.416,11.186,34.363c10.539,7.384,22.523,9.246,35.103,8.841c8.554-0.275,16.072-2.81,22.194-8.96
		c0.649-0.653,1.06-1.497,2.363-0.836c2.885,1.462,4.486,4.332,3.804,7.332c4.45,0.003,8.936,0.373,13.342-0.065
		c13.962-1.386,27.824-3.321,39.5-12.173c1.539-1.167,2.374-0.507,3.177,0.789c4.467,7.207,4.552,14.77,0.689,22.016
		c-3.562,6.685-9.946,8.79-17.228,7.974c-1.904-0.213-2.464,0.322-2.995,1.983c-1.102,3.441-3.258,6.227-6.459,7.941
		c-1.771,0.947-2.191,2.016-2.027,3.981c0.747,8.958,0.156,17.762-2.766,26.404c-5.451,16.123-22.032,22.471-35.438,9.137
		c-5.891-5.859-10.204-12.784-13.909-20.117c-2.257-4.468-3.337-9.832-9.371-11.075c-0.216-0.044-0.404-0.257-0.589-0.411
		c-0.83-0.688-2.047-1.377-1.683-2.55c0.421-1.356,1.78-0.809,2.819-0.701c4.099,0.425,8.196,0.779,13.249,0.271
		c-3.676-1.736-5.937-3.718-7.371-6.405c-1.039-1.944-1.528-2.292-3.446-0.606c-9.357,8.226-20.803,3.311-22.909-5.637
		c-0.307-1.302-0.726-2.146-2.452-1.57c-4.875,1.628-8.275-0.667-11.229-4.344c-2.646-3.294-2.131-7.316-2.757-11.098
		c-1.042,0.278-0.769,0.96-0.771,1.504c-0.017,7.452,1.602,14.581,4.355,21.465c5.648,14.124,15.7,24.675,27.611,33.645
		c3.755,2.827,7.094,5.691,9.488,10.023c4.759,8.609,12.182,14.527,21.543,17.752c16.913,5.826,32.272,1.479,46.81-7.514
		c1.622-1.003,3.153-1.509,5.013-1.583c15.443-0.621,29.573-5.193,42.133-14.298c1.237-0.897,2.104-1.158,3.485-0.28
		c7.25,4.605,15.157,5.578,23.602,4.575c18.38-2.183,35.236-16.871,38.723-34.101C488.972,281.424,476.212,266.798,459.213,269.22z
		 M388.162,248.777c-5.8,5.253-12.809,6.571-20.246,3.894c-7.806-2.811-11.794-8.687-12.878-16.799
		c-2.129-15.938,7.851-35.039,22.208-42.319c12.094-6.133,25.951,1.606,27.494,15.379c0.187,1.673,0.175,3.369,0.256,5.054
		C403.91,227.788,398.396,239.509,388.162,248.777z M460.949,302.542c-5.057-3.039-10.479-4.474-15.706-1.872
		c-5.204,2.591-6.573,8.133-7.438,14.056c-2.111-2.026-2.146-3.914-2.126-5.792c0.123-11.386,12.211-24.235,23.524-25.029
		c6.701-0.47,11.859,2.22,14.066,7.601c-12.172-3.349-16.938-2.802-22.835,2.571C455.292,295.075,459.497,296.855,460.949,302.542z
		 M341.758,291.162c-2.321,0.744-4.221,1.354-6.375,2.045C337.787,288.085,337.787,288.085,341.758,291.162z"/>
	<g>
		<path fill="#E71D26" d="M486.395,375.615c-12.773-0.866-25.052,1.042-36.488,7.079c-1.062,0.56-2.098,1.179-3.096,1.844
			c-4.836,3.226-5.025,3.884-2.482,8.937c0.862,1.713,1.685,3.246,3.943,1.188c1.935-1.763,3.056-0.846,2.757,1.589
			c-0.262,2.126,0.832,4.686-0.619,6.3c-2.124,2.361-4.828,4.229-7.413,6.132c-1.021,0.751-2.021-0.073-2.862-0.846
			c-8.916-8.159-18.014-16.096-28.08-22.845c-1.168-0.783-1.476-2.004-1.714-3.39c-2.091-12.19-1.121-24.215,1.689-36.17
			c0.751-3.195,3.544-4.308,5.765-6.094c2.47-1.987,4.481-1.664,7.425-0.552c16.91,6.391,32.693,2.954,47.688-6.242
			c5.29-3.244,9.827-7.271,13.594-12.153c1.15-1.492,2.46-2.082,4.261-2.118c6.621-0.132,13.239-0.39,19.859-0.482
			c3.331-0.046,3.819,0.931,2.135,3.842c-4.061,7.02-6.54,14.583-8.294,22.486c-2.081,9.383-2.157,18.806-1.312,28.271
			c0.264,2.939-0.749,3.424-3.385,3.287C495.318,375.446,490.854,375.615,486.395,375.615z M248.633,244.511
			c-6.883,3.197-14.064,5.424-21.535,6.782c-1.963,0.357-2.825,1.485-1.737,3.632c1.73,3.415,3.146,6.989,4.898,10.392
			c11.556,22.44,23.77,44.518,37.05,65.985c4.66,7.531,9.768,14.787,14.738,22.123c0.931,1.373,2.009,3.015,3.807,0.637
			c3.1-4.102,6.263-8.158,9.513-12.142c1.249-1.53,1.486-3.186,0.591-4.68c-1.277-2.133-2.536-4.329-4.696-5.841
			c-6.403-4.481-12.256-9.629-17.564-15.351c-8.001-8.625-13.87-18.374-17.075-29.901c-2.48-8.917-0.63-18.642-5.728-27.076
			c-1.428-2.362,0.062-5.631,0.914-8.419c0.647-2.113-1.147-6.432-2.528-6.45C249.064,244.303,248.851,244.41,248.633,244.511z
			 M351.438,304.316c-2.698,1.285-5.406,2.537-8.312,3.37c-7.044,2.021-12.999,5.536-16.171,12.569
			c-1.991,4.413-1.203,7.432,2.663,10.396c7.676,5.889,17.468,3.818,22.722-4.97c3.283-5.491,3.904-11.755,4.576-16.628
			C357.188,302.116,356.672,301.823,351.438,304.316z M356.164,372.604c0.698,0.079,1.515,0.084,1.931-0.651
			c2.684-4.743,5.336-9.5,8.341-14.863c-4.142,1.099-7.587,1.959-11.002,2.927c-12.828,3.635-25.424,3.022-37.617-2.405
			c-2.371-1.056-3.311-0.222-4.214,1.489c-1.99,3.772-3.969,7.557-5.537,12.262C324.468,370.765,340.344,370.821,356.164,372.604z"
			/>
		<path id="hat" fill="#E71D26" d="M494.242,215.967c0,5.062-0.021,10.124,0.021,15.185c0.008,0.756-0.319,1.917,0.813,2.086
			c0.893,0.132,1.501-0.756,1.836-1.502c1.074-2.397,2.229-4.785,2.997-7.286c0.66-2.15,1.742-2.062,3.148-1.041
			c8.345,6.06,14.833,13.39,17.578,23.731c4.289,16.16-4.539,31.092-18.152,39.65c-6.439,4.049-6.146,3.999-8.059-3.498
			c-2.669-10.458-9.663-17.137-19.736-20.624c-5.688-1.968-11.49-2.375-17.311-0.455c-1.67,0.551-2.008-0.311-2.286-1.739
			c-1.057-5.431-1.421-10.953-2.314-16.415c-2.555-15.592-6.761-30.692-12.391-45.401c-6.159-16.092-14.746-30.829-25.696-44.15
			c-1.756-2.135-2.049-3.524,0.419-5.576c7.297-6.069,10.919-14.043,11.325-23.561c0.575-13.44-2.819-25.498-12.596-35.085
			c-17.901-17.557-47.379-12.328-59.829,8.481c-0.997,1.666-1.242,4.458-3.444,4.592c-2.758,0.167-4.935-2.169-7.46-3.22
			c-1.263-0.525-0.078-1.734,0.387-2.411c7.635-11.112,16.526-20.853,29.389-26.046c14.095-5.691,28.547-6.062,43.14-2.358
			c18.34,4.654,31.911,16.312,43.749,30.36c9.987,11.852,16.787,25.443,21.876,40.022c3.991,11.433,7.162,23.08,9.271,34.962
			C493.341,188.297,494.737,202.075,494.242,215.967z M440.19,218.607c-3.245-13.508-8.925-25.975-16.146-37.772
			c-0.035-0.097-0.079-0.198-0.116-0.296c-0.487-0.809-0.961-1.63-1.423-2.475c-0.281-0.515-0.546-1.08-0.809-1.661
			c-0.149-0.186-0.287-0.386-0.449-0.557c-2.384-4.423-5.332-8.417-9.201-11.709l0,0c-6.618-8.553-14.129-16.254-22.239-23.394
			c-16.591-14.607-33.84-28.093-55.189-35.37c-8.813-3.004-17.69-5.188-26.968-5.729c-4.114-0.239-8.207,0.109-12.089,1.514
			c-12.373,4.476-16.995,16.181-16.327,28.074c0.357,6.346,1.774,12.556,3.939,18.599c4.078,11.383,10.511,21.147,19.417,29.303
			c0.999,0.915,2.113,2.092,3.023,0.104c2.65-5.79,6.567-10.781,9.927-16.122c0.431-0.688,1.271-1.658-0.153-1.916
			c-3.81-0.691-2.025-2.889-1.123-4.432c2.657-4.539,5.857-8.665,10.554-11.323c3.309-1.873,6.632-3.271,10.493-1.164
			c4.373,2.387,6.871,6.194,8.351,10.688c0.719,2.186,1.902,3.016,4.04,3.394c4.353,0.771,8.715,1.605,12.974,2.776
			c8.551,2.351,16.864,5.39,24.765,9.479c0.499,0.258,1.048,0.822,1.61,0.275c0.702-0.681,0.185-1.269-0.31-1.84
			c-2.817-3.266-5.432-6.731-8.459-9.787c-18.989-19.152-38.826-37.118-65.416-45.314c-0.565-0.175-1.235-0.362-1.106-1.138
			c0.111-0.674,0.769-0.829,1.322-1.078c0.971-0.436,1.873-0.032,2.82,0.08c9.5,1.122,17.921,5.295,25.893,10.06
			c19.271,11.517,36.148,25.954,50.339,43.434c1.041,1.281,1.929,2.915,4.067,2.209l4.5,0.028c4.48,0.431,9.161,0.614,12.894,3.209
			c3.136,3.073,5.072,6.76,6.758,10.683v0.003c0.447,4.861,1.04,9.742-1.858,14.514c-2.908-3.46-5.12-7.375-10.423-8.591
			c3.681,7.559,6.938,14.498,10.413,21.325c3.934,7.727,10.917,11.419,18.896,13.53C438.332,220.475,440.977,221.879,440.19,218.607
			z M405.334,139.321c0.326-0.08,0.656-0.206,0.988-0.334c0.856-0.225,1.717-0.451,2.588-0.605c1.658-0.294,1.781-1.214,1.539-2.584
			c-2.107-11.968-3.049-24.085-4.521-36.134c-0.338-2.763-1.333-3.177-3.649-1.98c-4.772,2.467-9.595,4.838-14.523,7.313
			c-1.411-4.303-1.508-8.534-2.108-12.68c-0.24-1.654-0.785-2.435-2.462-1c-7.101,6.078-14.4,11.93-20.891,18.691
			c0.002,0.002,0.005,0.005,0.008,0.008c-0.181,0.165-0.354,0.338-0.53,0.506c1.361,0.822,2.73,1.629,4.153,2.37
			c1.414,0.736,2.691,1.633,3.961,2.547c0.636-0.745,1.226-1.531,1.729-2.369c2.122-2.549,4.242-5.1,6.385-7.631
			c0.737-0.871,1.269-2.446,2.615-2.054c1.114,0.325,0.729,1.866,0.918,2.873c0.441,2.357,0.812,4.731,1.128,7.108
			c0.255,1.912,1.192,2.017,2.704,1.276c2.909-1.426,5.843-2.8,8.785-4.157c3.718-1.715,3.686-1.7,3.611,2.549
			c-0.128,7.357-0.209,14.715-0.308,22.074c-0.051,0.288-0.135,0.569-0.195,0.869c-0.01,0.049-0.006,0.1-0.013,0.149
			c1.039,1.007,2.071,2.021,3.143,3.002c0.291,0.267,0.575,0.574,0.861,0.89c0.629-0.095,1.265-0.164,1.905-0.26
			C403.889,139.645,404.612,139.497,405.334,139.321z"/>
	</g>
</g>
</svg>
