<?xml version="1.0" encoding="UTF-8" standalone="no"?>
<svg
   xmlns:dc="http://purl.org/dc/elements/1.1/"
   xmlns:cc="http://creativecommons.org/ns#"
   xmlns:rdf="http://www.w3.org/1999/02/22-rdf-syntax-ns#"
   xmlns:svg="http://www.w3.org/2000/svg"
   xmlns="http://www.w3.org/2000/svg"
   xmlns:sodipodi="http://sodipodi.sourceforge.net/DTD/sodipodi-0.dtd"
   xmlns:inkscape="http://www.inkscape.org/namespaces/inkscape"
   viewBox="0 0 1632 1056"
   height="1056"
   width="1632"
   xml:space="preserve"
   id="svg2"
   version="1.1"
   sodipodi:docname="mario3.svg"
   inkscape:version="0.92.4 (5da689c313, 2019-01-14)"><sodipodi:namedview
     pagecolor="#ffffff"
     bordercolor="#666666"
     borderopacity="1"
     objecttolerance="10"
     gridtolerance="10"
     guidetolerance="10"
     inkscape:pageopacity="0"
     inkscape:pageshadow="2"
     inkscape:window-width="1366"
     inkscape:window-height="715"
     id="namedview58"
     showgrid="false"
     inkscape:zoom="0.21875"
     inkscape:cx="816"
     inkscape:cy="528"
     inkscape:window-x="-8"
     inkscape:window-y="22"
     inkscape:window-maximized="1"
     inkscape:current-layer="svg2" /><metadata
     id="metadata8"><rdf:RDF><cc:Work
         rdf:about=""><dc:format>image/svg+xml</dc:format><dc:type
           rdf:resource="http://purl.org/dc/dcmitype/StillImage" /></cc:Work></rdf:RDF></metadata><defs
     id="defs6"><clipPath
       id="clipPath14"
       clipPathUnits="userSpaceOnUse"><path
         id="path12"
         d="M -306,0 H 918 V 792 H -306 Z" /></clipPath></defs><g
     clip-path="url(#clipPath14)"
     transform="matrix(1.4414166,0,0,-1.4414166,138.44106,1110.846)"
     id="g10"><path
       id="path16"
       style="fill:#000000;fill-opacity:1;fill-rule:nonzero;stroke:none"
       d="m -11.60449,636.67529 c -0.12207,60.3291 34.36133,101.02491 86.87207,109.78565 18.39062,3.06543 33.01953,-4.84717 45.82617,-7.63916 19.22852,37.42236 45.69043,24.71924 52.50684,-14.31836 14.85937,2.74219 33.79004,15.55371 53.45703,7.63623 36.67676,-14.76465 35.55761,-73.81494 7.63769,-98.32861 2.22461,-4.77149 4.4541,-9.54639 6.6836,-14.31788 17.80175,2.15674 28.78613,0.57276 40.08984,-7.63867 12.21289,17.80567 18.01855,39.42969 30.55371,56.32471 24.11817,32.51123 86.61231,80.24365 153.69434,67.77832 13.45019,-2.49902 24.39062,-3.63867 37.2334,-8.59033 29.05859,-11.20459 49.75683,-29.06934 72.55078,-45.82373 44.69824,1.69287 76.89746,-19.01612 64.91504,-68.73291 -3.18653,-13.21045 -10.37305,-24.36573 -13.36426,-36.27784 21.72656,-12.09082 26.55664,-44.1582 4.77637,-60.14013 -4.45899,-2.22998 -8.91407,-4.45703 -13.36915,-6.68506 -9.39843,-11.66943 -14.65527,-29.76807 -23.86425,-42.00342 -28.4961,-37.85937 -64.08594,-55.70605 -110.74219,-76.37109 0.19922,-4.7041 0.50781,-14.66309 1.91309,-16.22949 21.51757,-18.63184 42.82226,-46.36524 30.54492,-89.73438 -2.80078,-9.89941 -10.88575,-19.46973 -13.36035,-27.68652 0.63476,-9.86524 1.26953,-19.72657 1.9082,-29.59278 -4.20996,-21.42187 -15.20801,-40.35156 -33.41309,-47.73437 -34.45605,-13.96777 -66.88281,14.95996 -92.60058,21.00586 -11.76953,-0.95703 -23.55176,-1.90918 -35.32129,-2.86426 -13.36524,3.81934 -26.73438,7.63574 -40.09375,11.45215 -24.00098,-31.18848 -86.71289,-49.59766 -124.10547,-68.73145 -0.99707,-18.94726 -11.11719,-19.333 -21.00098,-28.6416 C 159.28027,86.5957 150.64648,78.65039 135.41406,66.75488 130.95508,61.34863 126.5,55.9375 122.0459,50.52637 106.13867,38.24414 81.36719,41.23633 62.8584,48.61719 53.20703,52.46582 45.36523,55.23047 39.94531,62.93359 29.67676,77.55371 23.16016,107.51465 27.53809,132.625 c 0.95214,6.68066 1.90722,13.36914 2.86425,20.0498 -1.41406,4.16895 -7.958,7.37793 -9.5498,13.35938 -5.89551,22.16113 7.9668,44.72559 17.18555,56.32715 12.58984,15.84765 42.61816,11.00781 53.46289,29.59375 -62.90332,-10.72656 -130.71778,-10.26074 -156.56836,39.14062 -4.53614,8.67969 -10.34668,23.55762 -6.68067,37.23047 8.14942,30.38184 65.36035,57.8584 113.60645,47.73145 31.22461,-6.55274 53.46777,-23.61817 75.41504,-39.13965 0.63867,0.95703 1.27344,1.9082 1.9082,2.86426 2.54688,7.31836 5.09375,14.63867 7.64063,21.95703 0,0.31738 0,0.63672 0,0.9541 -8.40137,-1.54981 -11.97852,-3.65918 -20.04981,-1.90723 -0.95508,2.22461 -1.91211,4.4541 -2.86328,6.68164 -16.79492,-6.48925 -21.63574,1.74024 -31.50586,7.63575 -9.54492,0.63671 -19.09277,1.27441 -28.63672,1.91113 -22.60156,6.93164 -42.11523,26.82129 -42.00683,56.32226 -19.42383,4.6587 -42.42774,25.57715 -36.27247,54.41407 2.86329,7.63574 5.72754,15.27685 8.5918,22.91357 -29.10351,8.79395 -47.03223,38.43897 -56.32715,67.77832 -3.07226,9.70264 -6.69238,31.80274 0,41.05029 12.82129,17.71045 41.16309,17.66065 70.64356,17.18213 z"
       inkscape:connector-curvature="0" /><path
       id="path18"
       style="fill:#f2a33f;fill-opacity:1;fill-rule:nonzero;stroke:none"
       d="m 144.95898,753.14258 c -4.94433,-6.54834 -11.91992,-10.90137 -14.32128,-20.04688 7.63671,-7.31836 15.27246,-14.63965 22.91406,-21.95654 3.81445,2.86182 7.63574,5.72803 11.45605,8.59033 -5.10254,10.06983 -7.1875,31.45752 -20.04883,33.41309 z"
       inkscape:connector-curvature="0" /><path
       id="path20"
       style="fill:#d81412;fill-opacity:1;fill-rule:nonzero;stroke:none"
       d="M 87.67578,735.00391 C 79.08691,733.41309 70.49512,731.82227 61.90332,730.23145 34.30371,720.20068 19.48926,700.95557 8.44043,673.90723 5.78906,667.40625 -4.10449,641.02148 2.7168,633.81104 c 9.50781,-8.25928 25.13379,-9.6753 33.41308,-19.09229 16.02539,-18.22266 19.32422,-88.41699 -0.95605,-105.01123 -13.66309,-11.17725 -42.9541,-0.0151 -53.46289,-6.68213 -5.17481,-32.86523 -6.63477,-43.81689 19.09668,-60.14258 0.95215,0 1.90918,0 2.86426,0 4.31445,19.09033 21.88085,30.95264 41.05078,35.32324 -2.85938,34.13965 16.06152,71.58204 29.59277,95.46241 3.49902,5.09179 6.99805,10.1831 10.5,15.27539 -1.27246,7.31836 -2.54688,14.63965 -3.81934,21.95654 -2.46972,13.81104 4.83887,20.31397 7.64063,28.63916 -24.31836,39.48193 -39.79492,60.71387 3.81641,94.51074 -1.5918,0.3169 -3.18165,0.63623 -4.77735,0.95362 z"
       inkscape:connector-curvature="0" /><path
       id="path22"
       style="fill:#ffffff;fill-opacity:1;fill-rule:nonzero;stroke:none"
       d="m 98.18066,727.36719 c -5.5332,-2.95459 -12.70312,-4.68994 -16.22949,-9.5459 -14.03418,-19.32422 -5.46484,-64.59717 16.22949,-69.68945 6.27637,19.22461 27.11426,46.35693 44.86524,54.41455 0,1.27343 0,2.54687 0,3.81787 -12.1084,12.77539 -18.7207,21.3457 -44.86524,21.00293 z"
       inkscape:connector-curvature="0" /><path
       id="path24"
       style="fill:#369f5c;fill-opacity:1;fill-rule:nonzero;stroke:none"
       d="m 325.38184,628.08545 c -0.21778,-17.64258 -12.22657,-43.28174 -6.67871,-56.32471 10.78906,-3.35351 27.29394,-14.87597 34.36914,-22.91113 28.24707,12.62353 48.19238,33.98242 73.50683,48.68603 -2.20312,17.62061 8.30274,29.96729 11.45215,43.91407 -0.63477,10.81787 -1.27344,21.63965 -1.9082,32.45752 1.9082,-0.63672 3.8164,-1.27344 5.72851,-1.91016 1.27832,-9.90674 6.82129,-21.54443 3.81641,-34.36523 -3.81641,-11.45655 -7.63672,-22.91309 -11.45703,-34.36768 14.07226,9.9043 26.24804,22.22656 42.01074,30.54688 -0.32227,0.6372 -0.63965,1.27343 -0.95996,1.91064 -7.9502,2.22705 -15.9082,4.45508 -23.86621,6.68213 0,1.27344 0,2.54687 0,3.81787 0.95703,0.31982 1.91211,0.63672 2.86426,0.9541 10.66894,3.42383 23.61132,-7.76269 34.37011,-4.77197 7.63672,5.0918 15.27246,10.1831 22.91309,15.27441 16.54199,7.63672 33.09277,15.27491 49.63867,22.91162 -11.64258,11.07569 -66.30664,48.90821 -79.23633,31.50293 -13.68164,-12.09082 -27.36816,-24.18652 -41.04492,-36.27539 -1.27832,0.31739 -2.54687,0.63477 -3.82519,0.9541 0,1.90772 0,3.81836 0,5.72803 14.00293,13.04492 28.00683,26.09473 42.00585,39.13965 -80.5498,9.09082 -136.29589,-24.49463 -167.05859,-73.50732 0.63477,-0.63623 1.26856,-1.27344 1.90723,-1.91016 16.90039,-4.23291 88.66699,25.20898 110.7373,33.41357 2.13965,-1.41162 2.39258,-1.70605 3.82031,-3.81787 -6.7207,-8.47021 -86.74511,-38.71338 -102.14843,-42.00634 -10.27442,-2.19581 -14.08985,5.41357 -21.00196,2.86425 -8.61816,-27.36572 -34.67187,-68.48535 -20.04394,-108.82861 0.31738,0 0.63476,0 0.95117,0 0.63477,0.9541 1.27441,1.91016 1.9082,2.86426 5.82813,10.25586 5,26.76953 15.27735,32.45752 2.22461,0 4.4541,0 6.68066,0 0.31641,-0.63721 0.63379,-1.27344 0.95508,-1.90821 -4.13672,-9.54638 -8.27539,-19.09521 -12.41211,-28.63916 1.41406,-2.13671 1.70801,-2.39257 3.81934,-3.82031 9.38574,3.97901 40.09472,9.82715 39.14257,17.18457 -11.13964,6.99951 -22.27929,14.00147 -33.41406,21.00098 -3.08594,21.46533 5.91406,41.71875 10.50196,60.14258 2.22949,0.31982 4.4541,0.6372 6.67871,0.95654 z"
       inkscape:connector-curvature="0" /><path
       id="path26"
       style="fill:#d81412;fill-opacity:1;fill-rule:nonzero;stroke:none"
       d="m 176.46094,659.58643 c 0.19433,10.72705 4.9707,14.03955 9.54785,20.04882 29.04004,2.10743 31.83984,-17.20068 43.91309,-34.36718 0.95214,0.63672 1.90917,1.27343 2.86425,1.90771 3.87989,10.16992 11.02149,19.92481 14.32129,31.50342 10.28809,36.1582 -28.43359,52.66943 -57.2832,42.00635 -33.87109,-12.52637 -66.68262,-42.35547 -81.14258,-74.46387 0.95508,-0.63672 1.90723,-1.27295 2.86328,-1.90772 3.59473,-1.92822 4.60059,-1.53857 7.63672,0 8.97266,26.62256 44.81934,56.63331 78.2832,58.23243 0,-0.31739 0,-0.63623 0,-0.95362 0,-0.31982 0,-0.6372 0,-0.95605 -22.07031,-4.73633 -70.88671,-41.27686 -70.64257,-62.05078 1.90332,0 3.81543,0 5.72753,0 4.50489,9.53711 31.88672,19.43066 43.91114,21.00049 z"
       inkscape:connector-curvature="0" /><path
       id="path28"
       style="fill:#ffffff;fill-opacity:1;fill-rule:nonzero;stroke:none"
       d="m 582.18555,670.08887 c -10.50391,-2.54688 -21.00391,-5.09131 -31.50586,-7.63819 -18.13574,-9.22656 -36.27735,-18.45605 -54.41309,-27.6831 -44.34472,-28.96533 -82.38574,-67.18506 -129.83496,-92.6001 -14.94531,-8.00977 -64.02637,-36.77148 -88.7793,-24.8208 -1.9082,4.13525 -3.81543,8.27295 -5.72851,12.41016 -0.95117,-0.63672 -1.90723,-1.27344 -2.86426,-1.91016 -30.45019,-67.92871 49.5791,-46.93897 84.0127,-32.45752 47.73437,20.08154 91.21386,49.81055 131.7373,78.2793 16.93555,11.90136 32.25293,26.43213 51.55078,36.27783 17.19727,8.77392 60.98535,22.25391 76.37012,1.9082 -2.86426,0.95606 -5.72852,1.91016 -8.5918,2.86426 2.29785,-9.52344 3.5166,-21.54004 6.68457,-32.45801 2.22461,-0.63623 4.4541,-1.27344 6.68457,-1.90967 15.29102,38.48291 30.89356,90.94825 -35.32226,89.7378 z"
       inkscape:connector-curvature="0" /><path
       id="path30"
       style="fill:#f3d2bc;fill-opacity:1;fill-rule:nonzero;stroke:none"
       d="m 252.83105,508.75391 c 2.125,19.22656 14.02637,20.3413 19.09278,31.50341 0,9.54688 0,19.09327 0,28.63916 2.23047,11.45459 4.45996,22.91309 6.68066,34.36768 -29.14941,20.36865 -61.90527,-5.67627 -71.59472,-30.54932 -1.27344,-6.99951 -2.54688,-14.00146 -3.81641,-21.00341 -2.86426,0 -5.72852,0 -8.5918,0 0.009,10.60742 8.12891,24.06689 5.72754,31.50634 -3.38086,10.43848 -33.7539,43.93653 -9.54883,55.36817 19.60547,9.66211 28.65528,-18.07569 37.2295,-26.73145 1.59472,0.95606 3.18164,1.91016 4.77636,2.86426 -3.79297,17.46338 -16.10547,31.82275 -27.68945,42.00342 -18.19141,0.75 -25.12012,-8.24561 -24.81641,-25.7749 -4.31933,3.98535 -4.49609,12.05273 -5.72851,19.09277 -16.62696,-1.67236 -26.09375,-12.68457 -39.1377,-18.13672 1.26953,-1.27295 2.54297,-2.54639 3.81641,-3.81787 2.54687,-3.81836 5.09375,-7.63867 7.63574,-11.45654 -19.76758,11.18017 -45.54004,2.51464 -50.59863,-17.18262 -3.4707,-13.5459 4.6416,-24.39356 1.91308,-35.32422 -0.63378,0.31982 -1.27343,0.63721 -1.91308,0.95654 -2.54199,4.77198 -5.08887,9.54639 -7.63086,14.31836 -0.32227,0 -0.63965,0 -0.96094,0 -6.62598,-21.93896 -23.28515,-38.76806 -27.68066,-63.00439 16.25976,-11.27783 30.24121,-3.04785 49.6416,-9.54883 2.01758,-3.99756 11.22168,-30.4751 10.50098,-32.45703 -2.26172,-14.7334 -19.81739,-17.52344 -35.32227,-12.41113 -29.55176,9.74365 -61.80566,10.73388 -70.64648,-21.95704 -15.34083,-56.74414 79.17187,-71.56347 96.41992,-32.45703 10.93066,-1.79492 19.92187,-4.66797 33.41308,-4.77246 12.04102,30.12403 56.25098,31.50098 98.3291,31.50391 11.13965,0 22.27833,0 33.41309,0 2.07227,10.82373 9.37695,15.03662 16.22852,21.00098 -4.77637,7.00097 -9.54786,14.00341 -14.32032,21.00244 -11.24414,-0.55469 -17.80468,-1.0083 -27.68554,0.95459 -8.19825,-18.38379 -30.7666,-32.31299 -49.6377,-15.27539 -9.72558,-6.98975 -29.45703,-10.05567 -37.23437,1.91113 -1.58985,4.4541 -3.18164,8.90869 -4.77149,13.36426 -4.4541,1.58984 -8.91406,3.18359 -13.36426,4.77392 -14.43847,9.19727 -10.00585,32.07422 2.86426,39.13965 9.85156,-5.92773 32.15821,-19.3335 47.72949,-7.63818 -0.95117,1.59228 -1.9082,3.1831 -2.86425,4.77392 0.31738,0.63721 0.63379,1.27344 0.95605,1.91065 21.96094,0.28271 26.45215,-14.26465 59.18652,-11.45703 z"
       inkscape:connector-curvature="0" /><path
       id="path32"
       style="fill:#ffffff;fill-opacity:1;fill-rule:nonzero;stroke:none"
       d="m 192.68848,635.72168 c -1.59082,-1.91064 -3.18067,-3.81836 -4.77246,-5.72852 -2.4961,-4.57031 -1.74512,-10.4663 0,-15.27441 4.0205,2.8418 5.63769,3.93799 13.36523,3.81787 11.66406,-6.61426 11.55664,-18.85889 22.91211,-10.50049 -0.31543,0.95606 -0.6377,1.91016 -0.95508,2.86426 -8.37012,11.08984 -11.0166,24.69238 -30.5498,24.82129 z"
       inkscape:connector-curvature="0" /><path
       id="path34"
       style="fill:#f2a33f;fill-opacity:1;fill-rule:nonzero;stroke:none"
       d="m -30.69727,628.08545 c -23.5205,-9.39502 -28.89453,0.45312 -46.77832,-18.13916 -0.81933,-47.7002 25.64258,-73.91748 57.28321,-89.73535 9.79297,-4.89942 32.50781,-13.65479 45.81836,-5.72852 13.31347,7.92383 22.51367,68.00781 11.45507,86.87158 -9.92871,16.94678 -40.56933,27.18457 -67.77832,26.73145 z"
       inkscape:connector-curvature="0" /><path
       id="path36"
       style="fill:#4e83bb;fill-opacity:1;fill-rule:nonzero;stroke:none"
       d="m 193.64453,616.62891 c -1.27344,-1.27344 -2.54687,-2.54688 -3.82031,-3.81836 0.31836,-2.54688 0.63379,-5.0918 0.95605,-7.63819 0.63965,-0.31738 1.27442,-0.6372 1.90821,-0.9541 3.29882,2.8252 5.20312,3.0791 10.50488,1.91016 3.97949,-2.88916 5.57422,-5.57666 7.63184,-10.50244 1.27832,0.95605 2.54687,1.90966 3.82031,2.86425 0,0.31885 0,0.63623 0,0.95606 -1.63574,6.89502 -5.40625,12.74121 -11.45215,15.27246 -3.18164,0.63672 -6.36719,1.27295 -9.54883,1.91016 z"
       inkscape:connector-curvature="0" /><path
       id="path38"
       style="fill:#f2a33f;fill-opacity:1;fill-rule:nonzero;stroke:none"
       d="m 576.45801,591.80762 c 11.51074,-0.30811 17.68262,-4.95606 26.72949,-7.63623 0.30371,12.30175 -1.31055,22.85693 -4.77734,31.50341 -4.76758,-0.31933 -9.54395,-0.63671 -14.32129,-0.95605 -4.8252,-3.51709 -7.01953,-15.56006 -7.63086,-22.91113 z"
       inkscape:connector-curvature="0" /><path
       id="path40"
       style="fill:#000000;fill-opacity:1;fill-rule:nonzero;stroke:none"
       d="m 134.4541,612.81055 c 33.50391,-1.25049 71.73535,-67.90772 33.41797,-84.00977 -41.54883,-17.45459 -82.55371,61.75586 -33.41797,84.00977 z"
       inkscape:connector-curvature="0" /><path
       id="path42"
       style="fill:#ffffff;fill-opacity:1;fill-rule:nonzero;stroke:none"
       d="m 133.50195,607.08252 c -36.36328,-22.54639 -7.15136,-81.88232 32.45703,-74.46143 -21.38085,11.59034 -45.31835,36.40674 -21,63.00489 7.68165,0.81543 11.76075,-0.13819 18.13575,-1.90821 -6.34473,8.05274 -14.8916,13.50049 -29.59278,13.36475 z"
       inkscape:connector-curvature="0" /><path
       id="path44"
       style="fill:#000000;fill-opacity:1;fill-rule:nonzero;stroke:none"
       d="m -37.37695,603.26416 c 34.62304,1.09668 74.74902,-22.16553 59.18652,-59.18848 -3.24023,-0.85254 -3.99316,-1.81787 -6.68066,-0.95459 -21.24512,4.32422 -23.86426,27.21924 -27.68946,49.64063 -13.74023,3.32422 -27.8623,7.20557 -42.00195,1.90967 2.74609,7.42578 10.19629,5.57226 17.18555,8.59277 z"
       inkscape:connector-curvature="0" /><path
       id="path46"
       style="fill:#ffffff;fill-opacity:1;fill-rule:nonzero;stroke:none"
       d="m 196.50879,601.354 c -1.11914,-5.58105 2.55566,-12.49218 7.63672,-6.68261 -1.02442,3.32861 -1.23242,4.00195 -3.81641,5.72851 -1.27832,0.31739 -2.54687,0.63721 -3.82031,0.9541 z"
       inkscape:connector-curvature="0" /><path
       id="path48"
       style="fill:#4e83bb;fill-opacity:1;fill-rule:nonzero;stroke:none"
       d="m 148.77441,592.76172 c -2.54687,-1.59082 -5.08984,-3.18164 -7.63574,-4.77246 -6.04199,-18.54444 7.1416,-59.92285 28.63672,-51.5503 3.49024,1.5503 3.95117,2.5879 5.72852,5.72852 -14.43457,7.05859 -26.00489,12.96094 -26.7295,33.41113 1.27344,2.54493 2.54786,5.09229 3.82032,7.63916 3.49902,0.63379 7.00293,1.271 10.5,1.90723 2.86425,-1.59082 5.72851,-3.18066 8.59277,-4.77393 -4.73145,7.95313 -9.77441,12.64356 -22.91309,12.41065 z"
       inkscape:connector-curvature="0" /><path
       id="path50"
       style="fill:#ffffff;fill-opacity:1;fill-rule:nonzero;stroke:none"
       d="m 575.50098,587.98926 c -1.03223,-13.78125 -1.0459,-30.69873 1.90918,-42.00391 0.63379,-0.31885 1.27246,-0.63623 1.91211,-0.95361 5.72363,1.59082 11.45605,3.18164 17.17968,4.77246 1.90821,9.22656 3.82129,18.45557 5.72852,27.68506 -2.86426,0.95361 -5.72852,1.90771 -8.5918,2.86181 -0.10937,-6.97021 -1.33789,-8.0122 -5.72461,-10.50048 -1.91211,1.27343 -3.82519,2.54687 -5.72851,3.81787 0,4.13818 0,8.27588 0,12.41113 -2.22852,0.63623 -4.45899,1.27344 -6.68457,1.90967 z"
       inkscape:connector-curvature="0" /><path
       id="path52"
       style="fill:#f2a33f;fill-opacity:1;fill-rule:nonzero;stroke:none"
       d="m -4.91992,587.03564 c 2.79199,-14.97363 7.73633,-28.83447 18.13672,-36.27783 1.58984,0.63623 3.18164,1.27344 4.77636,1.91016 0,16.66797 -8.63281,32.20361 -22.91308,34.36767 z"
       inkscape:connector-curvature="0" /><path
       id="path54"
       style="fill:#ffffff;fill-opacity:1;fill-rule:nonzero;stroke:none"
       d="m 161.1875,572.71484 c -1.08301,-2.66748 -1.81738,-3.16113 -0.95703,-5.72851 1.01562,-5.02783 2.01367,-5.51074 5.72851,-7.63574 1.27442,0.31738 2.54688,0.63623 3.81641,0.95361 0.0371,6.16309 -0.9834,7.83789 -2.86426,11.45654 -1.90332,0.31739 -3.8164,0.63672 -5.72363,0.9541 z"
       inkscape:connector-curvature="0" /><path
       id="path56"
       style="fill:#d5e52c;fill-opacity:1;fill-rule:nonzero;stroke:none"
       d="m 608.91602,572.71484 c -1.27442,-6.04541 -2.54786,-12.09326 -3.82129,-18.13916 2.54199,1.27344 5.08886,2.54688 7.63574,3.82032 -7.17871,-26.95557 -66.42383,-25.94287 -93.55567,-16.22852 -12.51269,4.47949 -24.38671,12.72998 -34.36523,20.04688 -6.68555,-4.13526 -13.36426,-8.27295 -20.04492,-12.41016 3.49902,-11.65869 21.53515,-30.70215 9.54492,-48.68652 -15.3457,-23.02149 -52.34375,-1.90332 -58.23535,16.229 -11.13477,-6.0459 -22.27344,-12.09326 -33.4082,-18.13916 27.55273,-31.22314 51.80859,-53.51416 96.41503,-68.73486 8.76856,-2.99121 29.06348,-13.05664 40.09375,-10.50098 19.25977,4.46191 39.77149,27.3252 52.50684,40.09619 10.44141,10.47022 27.20899,25.52588 29.59277,42.95752 -6.35839,-1.0166 -21.10058,-2.82568 -25.77343,0.95606 19.09375,2.63818 46.26269,13.56689 54.41504,27.68359 10.49121,18.16797 -2.47071,39.8667 -21,41.0498 z"
       inkscape:connector-curvature="0" /><path
       id="path58"
       style="fill:#5e3417;fill-opacity:1;fill-rule:nonzero;stroke:none"
       d="m 52.35449,479.16064 c 17.45606,-0.33105 46.45996,-17.35009 54.41797,-8.59277 3.25488,1.98779 3.46387,2.58154 3.81641,7.63818 -2.17578,4.43506 -4.99414,4.46045 -7.63574,7.63721 -5.60645,6.74365 8.24316,8.99365 -7.63575,15.27442 -14.8291,-4.64942 -28.28906,0.52099 -38.18652,5.72607 -2.25293,-8.77588 -4.68652,-15.98828 -4.77637,-27.68311 z"
       inkscape:connector-curvature="0" /><path
       id="path60"
       style="fill:#000000;fill-opacity:1;fill-rule:nonzero;stroke:none"
       d="m 468.58105,492.5249 c 19.72754,-6.99902 39.46387,-14.00146 59.18653,-21.00244 14.9541,-1.27197 29.91504,-2.54443 44.86914,-3.81836 -0.32031,-0.63721 -0.6377,-1.27295 -0.95508,-1.90771 -39.49219,-3.71436 -84.04004,1.84668 -103.10059,26.72851 z"
       inkscape:connector-curvature="0" /><path
       id="path62"
       style="fill:#ffffff;fill-opacity:1;fill-rule:nonzero;stroke:none"
       d="m 370.25195,486.79639 c -22.32812,-11.85743 -45.3457,-21.53076 -55.36523,-44.86768 -3.2627,-7.59668 0.44726,-21.7959 -1.91211,-28.63867 -0.31738,0.63672 -0.63477,1.27246 -0.95215,1.91016 -4.73144,6.76171 -7.5498,19.05664 -3.82129,28.63916 -0.95508,0.95312 -1.90722,1.90771 -2.86426,2.86425 -1.58984,0 -3.18457,0 -4.77148,0 -24.06445,-15.10888 -32.47559,-60.92041 -12.41309,-87.82861 6.52246,-8.74609 28.81836,-24.28125 40.09375,-10.5 -4.00586,8.28906 -8.29296,15.42188 -9.54296,26.72852 8.20117,-7.09375 11.45507,-18.96582 21,-24.82129 19.21093,-11.78223 72.31054,-15.12696 88.78417,1.91406 -6.59375,0.30273 -16.29199,1.27734 -20.0498,4.76855 27.49512,-0.54101 57.72266,7.41407 66.82422,25.77832 -0.5,6.1875 -2.18555,7.82618 -4.76856,11.45411 -2.86425,0.95312 -5.72851,1.91015 -8.59277,2.86425 -2.35644,-25.89355 -54.0332,-34.12597 -72.55566,-16.22949 24.57226,-0.62109 43.08984,-2.19043 59.18652,8.59277 0.95703,4.13575 1.91211,8.27247 2.86426,12.40821 -12.64356,21.41308 -53.43946,18.77832 -73.50684,32.45996 -1.63183,23.71045 18.43555,29.73535 1.91309,50.59375 -3.18164,0.63672 -6.36328,1.27392 -9.54981,1.90967 z"
       inkscape:connector-curvature="0" /><path
       id="path64"
       style="fill:#d5e52c;fill-opacity:1;fill-rule:nonzero;stroke:none"
       d="m 293.88086,472.47803 c -1.41895,-2.94336 -0.74707,0.007 -0.95606,-3.81983 6.38477,-6.11328 8.03907,-12.38818 19.09766,-14.31884 0.31738,1.27441 0.63477,2.54492 0.95215,3.81884 -10.84961,2.2295 -11.20801,10.13477 -19.09375,14.31983 z"
       inkscape:connector-curvature="0" /><path
       id="path66"
       style="fill:#d5e52c;fill-opacity:1;fill-rule:nonzero;stroke:none"
       d="m 396.02539,469.61475 c -1.6084,-9.9292 -11.22559,-21.21436 -7.63086,-30.5503 7.21875,-10.28711 31.5459,-7.33886 44.86426,-11.45312 10.45117,-3.23242 13.98633,-9.3711 21.00098,-15.27539 3.43945,-2.89649 17.50293,-7.58203 22.91406,-11.45703 12.40722,5.40918 24.82031,10.82031 37.2334,16.22851 0,0.31934 0,0.63672 0,0.95703 -41.27637,-1.3584 -71.86621,14.90918 -96.41993,33.41114 -7.31933,6.04541 -14.63867,12.09375 -21.96191,18.13916 z"
       inkscape:connector-curvature="0" /><path
       id="path68"
       style="fill:#000000;fill-opacity:1;fill-rule:nonzero;stroke:none"
       d="m 253.78809,461.97559 c 2.86425,-0.31739 5.72754,-0.63379 8.59179,-0.95313 0.95117,-2.22851 1.90821,-4.45557 2.86426,-6.6831 -0.65234,-8.83545 -3.83008,-11.77393 -8.5918,-16.22803 -2.86425,0.31738 -5.72851,0.63672 -8.59277,0.95312 -0.95215,3.50098 -1.91211,7.00244 -2.86426,10.50342 2.32422,5.93018 4.51367,8.50781 8.59278,12.40772 z"
       inkscape:connector-curvature="0" /><path
       id="path70"
       style="fill:#d81412;fill-opacity:1;fill-rule:nonzero;stroke:none"
       d="m 254.74023,457.20361 c -1.79589,-3.9248 -4.99609,-6.34912 -3.8164,-10.5 0.31738,-1.27392 0.63476,-2.54687 0.95215,-3.8208 1.91211,0 3.81933,0 5.72656,0 0.87109,3.47364 1.36914,3.36719 2.86426,5.72852 -0.31739,2.86426 -0.63379,5.72803 -0.95117,8.59228 -1.59571,0 -3.18067,0 -4.7754,0 z"
       inkscape:connector-curvature="0" /><path
       id="path72"
       style="fill:#000000;fill-opacity:1;fill-rule:nonzero;stroke:none"
       d="m 55.21875,448.61133 c 29.88379,1.10547 38.86523,-20.29102 30.55371,-45.82227 -0.63965,0 -1.27734,0 -1.91211,0 1.0332,10.09082 -1.43262,16.10938 -5.72851,22.91114 -3.18164,-0.31739 -6.36329,-0.63672 -9.54493,-0.95313 -3.94238,-1.95605 -4.17773,-4.48633 -6.68359,-7.63965 -0.31738,0 -0.63965,0 -0.95703,0 0,0.63672 0,1.27442 0,1.91113 -3.63379,8.19532 4.1875,12.89063 7.64062,17.18262 -2.54687,1.27295 -5.09375,2.54688 -7.64062,3.81738 -10.16992,-2.50097 -13.31445,-3.64794 -21.00098,-9.54589 -0.3164,0 -0.63379,0 -0.95117,0 0,1.59082 0,3.18261 0,4.77441 4.12402,8.5376 8.44727,8.64404 16.22461,13.36426 z"
       inkscape:connector-curvature="0" /><path
       id="path74"
       style="fill:#d81412;fill-opacity:1;fill-rule:nonzero;stroke:none"
       d="m 210.8252,424.74707 c -16.45997,-6.58105 -33.57227,-2.97754 -45.81739,-12.41113 -7.6416,-5.88184 -31.18847,-45.76953 -28.6416,-60.13965 3.21777,-18.18262 21.97949,-49.55274 37.23438,-56.32715 18.59472,-4.59082 40.85449,15.35742 42.95312,31.50098 -2.71875,1.63965 -3.36719,1.49511 -4.77246,4.77636 0.32227,1.26856 0.63965,2.54688 0.95605,3.81543 18.02833,7.45118 54.11133,2.10352 66.82813,15.27735 -2.40234,9.49414 -8.33984,19.03222 -10.50586,29.59277 0.63477,14.31836 1.27441,28.6416 1.91309,42.95801 -20.04883,0.31934 -40.09864,0.63672 -60.14746,0.95703 z"
       inkscape:connector-curvature="0" /><path
       id="path76"
       style="fill:#5e3417;fill-opacity:1;fill-rule:nonzero;stroke:none"
       d="m 114.40918,371.28613 c 8.50684,-0.14355 14.13477,2.36621 17.18066,7.63575 2.53809,3.64355 4.21387,6.80859 4.77637,12.41113 -7.63574,0.63574 -15.27246,1.27344 -22.91308,1.91015 -7.98536,-4.64355 -20.24415,-10.83593 -28.6377,-16.22851 0.63477,0 1.27441,0 1.90918,0 10.28711,-8.39746 26.31152,4.70898 34.36914,6.68164 0,-0.31934 0,-0.63574 0,-0.95313 -4.35937,-3.33203 -6.43066,-3.60839 -6.68457,-11.45703 z"
       inkscape:connector-curvature="0" /><path
       id="path78"
       style="fill:#000000;fill-opacity:1;fill-rule:nonzero;stroke:none"
       d="m 357.83984,372.23926 c 4.86719,-0.41992 4.79493,-1.06641 7.64063,-2.86426 0,-0.31641 0,-0.63281 0,-0.95312 -3.27149,-10.75879 -21.50879,-10.68653 -27.68555,-2.86426 0,0.31738 0,0.63769 0,0.9541 7.74024,0.0889 15.20508,2.3584 20.04492,5.72754 z"
       inkscape:connector-curvature="0" /><path
       id="path80"
       style="fill:#f2a33f;fill-opacity:1;fill-rule:nonzero;stroke:none"
       d="m 448.53125,263.41113 c 15.16406,0.22168 29.03613,-0.35742 41.0498,-2.86425 0.31739,-0.95606 0.63965,-1.90821 0.95704,-2.86426 -12.51368,-3.31739 -31.78223,-4.1875 -42.95801,0.95605 -8.34766,-31.19726 -7.98926,-56.02734 18.13672,-70.64355 17.45703,6.30957 28.48242,22.4707 28.6416,45.82324 -0.31738,7.95312 -0.63867,15.91113 -0.95606,23.86426 3.04004,10.77246 11.30176,21.61328 14.32032,34.36523 6.83398,28.9043 -5.85059,72.07129 -30.54883,75.41992 -7.32031,-3.81738 -14.63867,-7.63867 -21.95703,-11.45703 -17.59278,-21.05469 -10.68653,-65.17676 -6.68555,-92.59961 z"
       inkscape:connector-curvature="0" /><path
       id="path82"
       style="fill:#f2a33f;fill-opacity:1;fill-rule:nonzero;stroke:none"
       d="m 9.40039,366.51172 c -6.75195,-10.73535 -18.49902,-19.24707 -23.86914,-31.50098 -8.57813,-19.5957 -6.33984,-64.1084 8.59277,-74.46386 8.69727,-6.03223 26.95118,-6.68458 40.09375,-4.77247 -2.86425,6.99805 -5.72754,14.00391 -8.59179,21.00196 -9.23243,39.87988 10.1914,64.32519 25.77636,84.96289 -11.60546,4.28515 -26.12207,4.83594 -42.00195,4.77246 z"
       inkscape:connector-curvature="0" /><path
       id="path84"
       style="fill:#000000;fill-opacity:1;fill-rule:nonzero;stroke:none"
       d="m 346.3877,355.06055 c 9.31738,-0.40821 19.45507,0.1416 27.68554,-1.91407 0.63477,-1.27246 1.26856,-2.54687 1.90723,-3.81445 -0.95606,-1.2793 -1.90723,-2.54687 -2.86426,-3.82129 -9.96973,-0.009 -22.81836,3.18653 -26.72851,9.54981 z"
       inkscape:connector-curvature="0" /><path
       id="path86"
       style="fill:#f2a33f;fill-opacity:1;fill-rule:nonzero;stroke:none"
       d="M 89.58887,345.51074 C 74.78613,331.55762 50.72754,283.17969 75.26758,259.59082 c 10.2334,0.0449 24.89746,2.34277 30.5498,7.64063 -12.60351,23.92871 -3.25879,42.44628 7.63575,61.09472 -6.58887,6.54395 -14.09375,14.00781 -23.86426,17.18457 z"
       inkscape:connector-curvature="0" /><path
       id="path88"
       style="fill:#f2a33f;fill-opacity:1;fill-rule:nonzero;stroke:none"
       d="m 438.03125,345.51074 c -2.72852,-2.15234 -4.86719,-2.44238 -6.67969,-5.72851 -21.80761,-34.41504 -7.20996,-127.23243 10.5,-151.78711 2.86426,0 5.72852,0 8.5918,0 0,0.31738 0,0.63476 0,0.95215 -0.95508,0.95703 -1.91211,1.91211 -2.86328,2.86425 -3.43067,10.70411 -8.28028,20.19434 -10.50488,33.41407 -2.59278,15.44043 6.01757,28.89941 3.82519,40.09375 -5.51074,28.04687 -4.56445,51.59082 0,80.1914 -0.96094,0 -1.91309,0 -2.86914,0 z"
       inkscape:connector-curvature="0" /><path
       id="path90"
       style="fill:#1f499e;fill-opacity:1;fill-rule:nonzero;stroke:none"
       d="m 292.9248,335.01074 c 0.12793,-18.96191 -9.26367,-53.80273 -24.8164,-57.27929 -5.70215,-21.64844 -45.8086,-16.6543 -59.19141,-7.63575 0,1.26953 0,2.54688 0,3.81641 -1.27344,0 -2.54199,0 -3.82031,0 -1.77637,5.71875 -4.01465,9.69824 -4.76758,17.18359 -7.21094,-1.35351 -12.30859,-6.28906 -20.04883,-7.64062 -26.45703,-4.59473 -36.66699,39.07422 -47.73047,52.50683 -0.63867,-0.3164 -1.27734,-0.63378 -1.9121,-0.95117 -1.80274,-22.43359 -17.8379,-50.62207 -11.45606,-76.37207 -14.41211,-3.19043 -18.74805,-18.96972 -28.64258,-26.72851 -3.7959,-2.98633 -9.7334,-4.05664 -13.35937,-6.68457 -1.09668,-50.49512 6.2041,-62.78125 37.22949,-85.91993 8.0166,-5.98242 19.34668,-21.28222 37.22949,-16.22363 17.52051,4.94824 12.81153,24.87012 22.91309,30.54492 30.16406,16.94825 63.94043,23.61035 91.64355,42.00586 13.09278,8.6875 27.58106,19.14649 38.18653,30.54883 3.14453,3.37695 5.33789,11.47461 9.54785,13.36426 4.20117,1.88183 8.20801,-2.29785 9.5498,-3.82031 2.07422,-1.83985 1.04981,-0.31739 1.90235,-3.81543 -4.13184,-4.10547 -6.90625,-8.61524 -11.45215,-12.41309 0.63476,-0.31738 1.27441,-0.63965 1.90918,-0.95508 0,-0.63476 0,-1.26953 0,-1.90918 15.84179,-0.43945 35.79199,-11.16211 51.5498,-3.81933 -0.55762,5.72363 -2.05371,7.40429 1.90723,9.54785 1.76758,-7.20996 23.28613,-22.01953 30.55371,-16.22852 -2.38281,3.10938 -3.04102,5.43848 -7.64063,6.68067 -4.32324,28.43652 -9.99707,74.08203 1.91309,102.14843 0,0.31739 0,0.63379 0,0.95606 -10.45019,-1.79102 -10.93164,-9.83887 -21.00586,-11.45703 0.61621,5.91894 7.97168,13.99023 5.72852,15.27636 -4.66309,5.78809 -37.1836,23.48926 -43.91309,19.08887 -15.83984,-9.16308 -23,-7.24219 -42.00684,-3.81543 z"
       inkscape:connector-curvature="0" /><path
       id="path92"
       style="fill:#f2a33f;fill-opacity:1;fill-rule:nonzero;stroke:none"
       d="m 282.42871,339.78223 c -8.24805,-4.19629 -28.55957,-2.6416 -34.36914,-9.54883 -8.64746,-7.89356 -5.75586,-23.34766 0,-31.5 2.86426,-0.63965 5.72852,-1.27442 8.59277,-1.90918 6.2627,3.89746 37.72266,30.83594 25.77637,42.95801 z"
       inkscape:connector-curvature="0" /><path
       id="path94"
       style="fill:#c85540;fill-opacity:1;fill-rule:nonzero;stroke:none"
       d="m 428.4873,191.81152 c -3.18652,10.5 -6.36718,21.00586 -9.54882,31.50586 -5.44727,20.19825 -3.89746,47.71192 -2.86426,70.64258 0.60742,13.37012 10.04199,37.37988 4.77734,44.86621 -2.86426,-0.95117 -5.72851,-1.9082 -8.59277,-2.86426 -22.73242,-41.99218 -20.64746,-99.59277 1.90723,-140.3291 5.5791,-1.31836 7.29199,-3.34082 14.32128,-3.82129 z"
       inkscape:connector-curvature="0" /><path
       id="path96"
       style="fill:#ffffff;fill-opacity:1;fill-rule:nonzero;stroke:none"
       d="m 393.16113,333.09766 c -4.45117,-0.31641 -8.91015,-0.63379 -13.35937,-0.95118 0.95019,-1.27343 1.90722,-2.54687 2.86426,-3.82031 2.54687,-0.95605 5.08886,-1.9082 7.63574,-2.86426 3.18164,2.2295 6.36328,4.45508 9.54785,6.68457 -2.22949,0.31739 -4.45898,0.63477 -6.68848,0.95118 z"
       inkscape:connector-curvature="0" /><path
       id="path98"
       style="fill:#1f499e;fill-opacity:1;fill-rule:nonzero;stroke:none"
       d="m 237.55957,329.28223 c -4.55078,0.21777 -7.50098,0.32226 -9.5498,-1.91211 -7.98536,-6.52637 -8.8545,-20.33887 -17.18457,-26.72949 -9.53125,-49.04395 52.99218,-27.5 64.91894,-2.86426 -0.32129,0.31738 -0.63867,0.63965 -0.95605,0.95703 -7.67774,-5.74219 -22.24707,-14.75195 -33.40918,-5.72852 -10.15039,7.68653 -5.36524,24.13184 -3.81934,36.27735 z"
       inkscape:connector-curvature="0" /><path
       id="path100"
       style="fill:#000000;fill-opacity:1;fill-rule:nonzero;stroke:none"
       d="m 270.97266,325.46191 c 0.63379,0 1.26855,0 1.9082,0 -2.30762,-9.43164 -7.42773,-12.62109 -13.36523,-18.13671 -3.18067,0.63867 -6.36231,1.27343 -9.54883,1.9082 0,0.31738 0,0.63476 0,0.95605 11.0625,2.02539 16.61035,6.73926 21.00586,15.27246 z"
       inkscape:connector-curvature="0" /><path
       id="path102"
       style="fill:#f2a33f;fill-opacity:1;fill-rule:nonzero;stroke:none"
       d="M 55.21875,224.26855 C 45.13086,217.89746 8.86621,168.63574 38.03809,158.40234 36.28418,112.57617 33.53711,71.51758 67.63086,56.25488 80.54199,50.4707 107.20313,48.30469 116.31738,59.11914 27.22949,56.79785 37.43555,161.61621 62.8584,223.31738 c 0,0.31739 0,0.63477 0,0.95117 -2.5459,0 -5.09277,0 -7.63965,0 z"
       inkscape:connector-curvature="0" /><path
       id="path104"
       style="fill:#c85540;fill-opacity:1;fill-rule:nonzero;stroke:none"
       d="m 149.73047,111.625 c -36.93848,-0.25391 -44.06348,28.58203 -76.37109,28.6377 0,1.27246 0,2.54589 0,3.81933 2.86328,1.90723 5.72753,3.81641 8.59179,5.72852 -9.18554,14.32031 -15.92871,33.32715 -16.22851,56.32226 -0.63477,-0.31738 -1.27246,-0.63476 -1.91211,-0.95215 -6.78907,-35.35742 -23.25293,-104.58593 7.64062,-128.87793 30.47266,-23.96875 78.9541,-5.71972 78.2793,35.32227 z"
       inkscape:connector-curvature="0" /><path
       id="path106"
       style="fill:#ffffff;fill-opacity:1;fill-rule:nonzero;stroke:none"
       d="m 84.65137,702.5791 11.42871,7.61621 5.76074,-3.229 1.94922,9.14014 7.79004,5.40185 27.96094,-17.63721 -5.93653,-10.52734 -21.7998,13.26416 -1.45899,-17.62842 -12.58691,4.90869 10.38965,-24.80859 -11.25489,-7.74219 z"
       inkscape:connector-curvature="0" /><path
       id="path108"
       style="fill:#000000;fill-opacity:1;fill-rule:nonzero;stroke:none"
       d="m 84.65137,702.5791 11.42871,7.61621 5.76074,-3.229 1.94922,9.14014 7.79004,5.40185 27.96094,-17.63721 -5.93653,-10.52734 -21.7998,13.26416 -1.45899,-17.62842 -12.58691,4.90869 10.38965,-24.80859 -11.25489,-7.74219 z"
       inkscape:connector-curvature="0" /><path
       id="path110"
       style="fill:#f2a33f;fill-opacity:1;fill-rule:nonzero;stroke:none"
       d="m 568.81738,589.89746 c 0,1.27344 0,2.54688 0,3.82031 -2.14843,6.54883 -4.21484,10.53662 -7.63574,15.27442 -1.5918,0 -3.18164,0 -4.77344,0 -17.28515,-12.77295 -30.03222,-9.10205 -35.32129,-35.32373 0,-0.70996 0,-1.42041 0,-2.12989 l 5.09082,1.83204 c 6.81446,11.39306 27.17969,18.09375 42.63965,16.52685 z"
       inkscape:connector-curvature="0" /><path
       id="path112"
       style="fill:#ffffff;fill-opacity:1;fill-rule:nonzero;stroke:none"
       d="m 568.81738,587.98926 c -4.01562,-0.70459 -5.44824,-1.49512 -7.63574,-3.81787 1.68066,-5.70752 -0.43164,-11.11231 -2.86426,-15.27491 -1.59179,0 -3.18164,0 -4.77343,0 -2.39161,3.71143 -3.62891,5.93946 -3.81446,12.41065 -6.34082,-2.68213 -12.68164,-5.36377 -19.02246,-8.04541 l 0.0547,-0.21777 -9.67481,-4.83741 c 0,-4.54345 0,-9.08642 0,-13.63086 1.35059,-1.94189 -0.009,-0.54834 1.90821,-1.90771 8.06152,-4.97363 30.69043,-8.97119 42.00586,-5.72803 2.208,13.10596 4.13379,25.54151 3.8164,41.04932 z"
       inkscape:connector-curvature="0" /><path
       id="path114"
       style="fill:#ffffff;fill-opacity:1;fill-rule:nonzero;stroke:none"
       d="m 530.70703,573.26172 c -1.93457,-0.81787 -3.86914,-1.63672 -5.80371,-2.45459 0.3457,0.87939 0.77734,1.73291 1.27441,2.56348 l -5.09082,-1.83204 c 0,-1.11084 0,-2.22168 0,-3.33203 l 9.67481,4.83741 -0.0547,0.21777 z"
       inkscape:connector-curvature="0" /></g></svg>