<?xml version="1.0" encoding="utf-8"?>
<!-- Generator: Adobe Illustrator 21.1.0, SVG Export Plug-In . SVG Version: 6.00 Build 0)  -->
<svg version="1.0" id="Warstwa_1" xmlns="http://www.w3.org/2000/svg" xmlns:xlink="http://www.w3.org/1999/xlink" x="0px" y="0px"
	 viewBox="0 0 792 792" enable-background="new 0 0 792 792" xml:space="preserve">
<g>
	<path fill-rule="evenodd" clip-rule="evenodd" d="M338.1,152.5c-52.9-6.5-84.9,26.7-95.7,43.5c2.5-39-21.9-66.2-55.7-67.2
		c-68-1.5-89.4,123.8-10.3,135.8c17.6,2.5,29.5-1.8,43.1-10.6c-4.3,26.7,3.8,58.9,22.4,84c-0.5,25.4,24.9,35.2,40.3,40.5
		c-27,10.6-58.9,30.7-66.2,66.4c-12.6,3-20.9,11.3-21.4,27.7c-20.2,14.8-29.7,45.3-26.2,62.1c5.5,25.9,14.9,41.8,38.3,42.3
		c15.4,9.1,30,11.3,37.8,9.3c14.9,12.6,35.5,12.3,47.9,1.5c7.3-6.3,11.3-19.6,10.3-36.5c17.4-10.3,21.4-37,17.4-49.8
		c-6-20.6-28.5-31.4-42.3-36.5c-3.5-5.3-6.3-10.8-11.3-14.8c7.1-30.2,44.1-44.3,70.5-46.5c41.1,47,4.5,157-26.7,207
		c-14.6-0.3-32.7,11.8-35.5,21.4c-29.5-6.5-106-22.6-133.5,37.7c-8.1-2.3-89.2-17.4-35.8-71.2c-58.7,48.6,10.3,71.7,33.2,77.7
		c-6,38,39.5,80,107.8,79.5c43.8-0.3,98-24.4,117.6-50.6c24.9,17.9,74.3,28.2,114.1,26.2c47.4-2.5,96-25.7,96-62.6
		c0.3-38.5-53.7-68.4-132.7-44c1-5.5-0.5-14.8-12.3-14.6c10.1-20.9,19.4-45.8,23.2-59.9c34-13.8,42.8-20.1,44.8-26.9
		c1.8-5.8-11.8-42.8-11.8-49.1c-0.3-19.4,2-37.2-2.8-55.6c-4.5-17.6-16.4-41.5-48.9-63.6c35.8-21.9,82.4-64.7,99-91.6
		c13.9,1.3,21.7-4.3,29-11.3c6.6-0.5,35.3,3.3,60.5,7.5c23.9,4,55.9,20.6,67.3,4.8c24.9-1.5,26.2-27.4,8.3-49.6
		c9.6-20.9-27.5-41.8-53.9-53.3c-25.4-11.3-54.7-26.9-57.7-33.2c12.6-12.3,10.3-25.9,0-45.8c-8.6-16.1-32.5-20.9-41.1-15.1
		c-12.3,7.8,2,42-2,56.9c-19.1,16.6-30.2,44-31,67.9c-12.1,5.3-16.1,16.6-14.6,33.2c-14.1,19.1-33.5,46-54.7,71.2
		c5.5-20.1,7.3-38-2.5-49.8c-3.8-42.3-47.9-74.7-59.4-81.8c38-8.8,51.9-36.7,50.6-67.9c-0.8-27.9-30-61.1-66-61.4
		C316.7,35.7,263.8,96.9,338.1,152.5L338.1,152.5z M378.7,567.8c-4.8,14.1-11.3,27.9-18.6,42.5c8.3-4.8,15.4-7.5,26.2-8.1
		c5-12.6,15.9-29.4,19.6-39.7C399.9,565.8,388.8,566.8,378.7,567.8L378.7,567.8z"/>
	<path fill-rule="evenodd" clip-rule="evenodd" fill="#EC1846" d="M355.3,429.7c0,8.6,15.1,40.3-15.9,129.1
		c26.2-7.3,67.8-29.2,93.5-18.6c1.5-13.3,3-26.9,3.8-40.3c2.8,2,2.8,9.3,2.8,13.6c6.8-1.8,14.4-7.8,18.6-11.6
		c-3.3,7.3-10.6,12.3-19.4,16.9c-0.8,7.3-1,13.8-1.8,21.1c13.6-1.8,41.8-30.4,57.9-20.9c-4-14.8-9.6-33.2-12.1-43.8
		c-2-7,3.5-42.5-5.3-63.9c-2.3-5.3-7.1-21.6-16.6-24.7C417.2,373.1,376.4,386.7,355.3,429.7L355.3,429.7z M408.9,400.8
		c7.3-2.5,17.1,8.1,24.9,27.2c7.6,19.4,5,35-2,37.5c-7.3,2.5-19.4-9.6-25.7-27.4C399.9,420.1,401.6,403.5,408.9,400.8L408.9,400.8z
		 M452.8,396c5.8-2,16.4,10.6,21.2,24.2c4.5,13.3,3.8,26.9-2.3,29.2c-6,2-15.6-6.5-20.2-23.4C446.7,409.3,446.7,398.3,452.8,396
		L452.8,396z"/>
	<path fill-rule="evenodd" clip-rule="evenodd" fill="#BF2F38" d="M456.5,533.9c20.2-14.6,34-16.6,36.8-12.1
		c3.5,5.5-15.9,14.3-38,24.9C455.8,542.7,456,537.6,456.5,533.9L456.5,533.9z M385.7,546.7c-2,5.8-3.8,11.8-5.8,17.9
		c25.7-1.3,54.2-14.3,53.7-19.9C433.1,539.4,404.1,537.1,385.7,546.7L385.7,546.7z"/>
	<path fill-rule="evenodd" clip-rule="evenodd" fill="#F9B392" d="M390.3,324c-9.8,0.8-23.7,7.8-23.7,26.2c-1.5-2-2-5.8-1.5-7.8
		c-12.8-0.3-25.7,10.6-26.7,19.4c10.1,5.8,24.4,7.5,32.7,1.8C386,353.5,390.3,340.1,390.3,324L390.3,324z"/>
	<path fill-rule="evenodd" clip-rule="evenodd" fill="#FCD0AF" d="M382.5,250.8c-5-26.4-10.6-49.6-25.2-69.4
		c-23.2-31.2-71.5-32.5-76.6,7.5c-46.1-31.2-61,83.3-15.1,123.3c-18.9,4.8-27.7,33.5-8.3,48c21.4,16.4,39,18.9,86.1,19.9
		c-4.3-2-10.8-5.5-12.3-8.1c20.4,7.5,42.3,8.8,53.4-0.3c9.6-7.8,15.9-25.9,18.1-40.5c0.5,7.8,1.5,13.6-2.3,22.9
		c21.9-20.6,38-47.3,41.8-76.7C446.5,243,416,224.4,382.5,250.8z M352.2,279.3c6,9.6,1.8,26.7-15.6,36c-10.8,5.8-33.8,7-37.8-2.8
		c-4.8-12.3,2-22.6,13.6-29.7C324,275.7,346.5,269.7,352.2,279.3z M274.4,223.7c6.5-3.5,24.4,5.8,33.8,52.6c4-2.5,9.8-5.8,14.6-7.5
		c-11.6-9.3-31-53.8-15.9-63.4c10.3-6.8,33.8,25.2,32,56.9c3,0.3,7.8,2,10.6,3.3c-19.1,0.3-46.3,15.1-56.4,29.2c0.3-4,2.3-7.3,3-9.1
		c-10.8-8.3-18.1-17.4-22.2-27.7C268.1,243.5,268.1,227.2,274.4,223.7z M402.4,269.2c-1.8,12.6-4.8,23.6-8.3,36.2
		c1.3,37.5-6.8,48.8-17.9,58.1c-13.6,11.8-39.8,5.8-58.9-11.1c-10.8-1.3-30.7-5-43.3-10.3c-1.5,2.3-1.5,5.5-2,10.3
		c-2.3-5-2.8-9.3-0.5-14.1c2-4.3,6.5-8.6,11.1-9.6c-3.5,2.8-6.8,7.5-7.3,11.1c25.9,10.8,60.2,10.6,81.9-3.8
		c21.4-14.3,38-32.5,42.1-67.2c-4.8-0.8-10.3,0-15.6,2c3-3.5,12.6-7,17.6-6.3c7.3,1.3,11.8,4.3,15.6,7.3
		C410.9,270,406.7,269.5,402.4,269.2z"/>
	<path fill-rule="evenodd" clip-rule="evenodd" fill="#FFCB4E" d="M364.1,643.8c-0.5,0.8-1,1.8-1.5,2.5
		c13.1,13.3,21.2,32.5,3.3,55.6c32,21.6,69.8,25.7,104.8,25.7c48.4-0.3,96-20.4,99.2-62.4c1.3-15.1-19.9-44.8-76.1-45.8
		c-13.9-0.3-31.7,1.3-52.9,9.3c0.3,1.5,0,2.8-1.3,4.5c5.3-1.8,11.6-2.5,16.4-3c-16.6,8.8-43.3,23.9-55.9,36.5
		c1-5.5,6.5-11.1,12.6-15.8C392.8,653.4,377.7,650.8,364.1,643.8L364.1,643.8z M384,606.6c-8.6-1-19.6,5.5-24.4,8.6
		c9.3,8.3,9.1,18.4,5.8,26.7c13.6,7,44.1,8.6,53.1,4.8c11.8-5,17.4-8.3,19.1-21.9c0.8-6.3-3-10.8-10.6-10.3
		c2,6.8-13.3,15.6-24.2,13.8C388.3,626.2,370.6,624.7,384,606.6L384,606.6z M273.7,636c-20.4-5.3-44.3-7.5-65-5
		c-28,3.3-64.7,20.6-64.5,54.8c0.5,33,43.1,63.6,101.8,65.7c47.9,1.5,118.6-35,126.2-73.2c1-5-1.8-21.9-12.3-30.2
		c-11.1,10.8-20.4,12.6-43.8,13.1c5,2.5,7.3,5.3,9.6,8.3c-21.9-11.3-47.6-23.6-69.3-29.4c6.3-1.3,11.6-0.3,20.7,3.5
		C274.9,640.3,274.2,638,273.7,636L273.7,636z M309.2,615.9c-12.3-3-37.3,14.1-28,29.2c5.8,2.8,20.9,8.3,28.7,12.6
		c13.1,1,29.7-0.3,40-6.5c14.1-8,18.6-21.1,7.1-33.7c-4,5.8-8.3,11.8-15.1,14.3c-22.2,8.3-43.8,4-43.6-0.5
		C298.8,627.7,305.4,620.9,309.2,615.9L309.2,615.9z"/>
	<g>
		<path fill-rule="evenodd" clip-rule="evenodd" fill="#FFFFFF" d="M409.9,403.8c6.6-2.3,16.1,9.1,21.7,25.2
			c5.8,16.1,5.8,31.2-0.8,33.5c-6.5,2.5-16.1-8.8-21.9-25.2C403.1,421.2,403.4,406.1,409.9,403.8L409.9,403.8z M454.3,399.3
			c5.3-1.8,13.3,9.8,17.6,22.1c4,12.3,3.8,23.1-1.5,24.9c-5.5,2-12.3-5.5-16.4-20.9C449.7,410.3,448.7,401.3,454.3,399.3
			L454.3,399.3z"/>
		<path fill-rule="evenodd" clip-rule="evenodd" fill="#FFFFFF" d="M512.2,196c-19.4,14.1-11.1,39,1,51.1
			c13.9,13.8,25.2,18.9,43.3,4.3C535.9,246.6,512.7,220.4,512.2,196L512.2,196z M562.3,248.6c-25.2-4-45.1-29.7-45.6-53.1
			c-1-31.2,15.9-55.3,31-71.7c-0.5-11.1-1.8-19.9-3.5-30.9c-1-8.8-3-19.6,3.5-22.6c7.3-3,21.7-0.3,28,5.5
			c12.8,12.1,22.7,42,4.8,52.8c4.3,7.5,15.9,14.3,24.4,18.9c26.2,13.8,59.2,25.4,78.1,41.8c6.5,5.5,16.6,14.3,11.3,22.6
			c-20.7-18.1-40.6-29.7-68.3-38.5c30.7,15.3,70.8,35.2,78.6,63.4c3.8,13.8-2.5,25.2-15.4,23.1c7.3-16.6-33-43-58.7-44
			c36.5,12.1,46.6,23.4,53.1,34c4.3,7,3.3,14.6-5.8,17.4c-8.3,2.5-48.4-10.8-65.7-12.8C595.6,252.4,578.7,251.3,562.3,248.6
			L562.3,248.6z M534.4,193.7c4-11.1,16.4-19.6,31.2-19.9c16.1,0,32.2,13.6,37.5,24.4C573.4,176.9,559.3,172.6,534.4,193.7
			L534.4,193.7z M198.3,470.5c0-18.1,17.9-24.9,38.5-26.9c22.2-1.8,25.9,8.1,35.3,20.1C244.2,457.4,223.8,457.9,198.3,470.5
			L198.3,470.5z M230.1,463.7c-13.9,2.3-25.7,6-34.8,13.3c-16.1,13.1-27.2,39.5-23.4,56.6c5.5,25.7,17.1,39.5,32.5,40.8
			c-5.3-5.3-10.6-10.1-10.3-15.8c14.1,18.4,31,26.7,47.1,25.2c-7.1-5.5-11.1-10.3-13.6-16.1c17.9,15.3,29.2,27.9,47.6,25.2
			c21.9-3.3,25.2-22.4,24.9-41c-1.3,0-3-0.5-3.8-1.5c-1.5,2.3-3.5,4-5.8,5.8c7.3-12.3,8.3-24.7,9.1-37.2c2,3.3,2.3,9.3,2,13.1
			c2-0.5,4.5-1.8,7.8-4.3c-2.5,5.8-6.5,8.6-8.3,9.1c-0.3,1.3-1.3,4-1,5c0,2-0.5,5.5,0.5,7.3c5.5-1,8.1-6.5,11.3-11.6
			c4.8-7.5,7.1-15.6,5.8-29.9c-1.3-13.8-12.3-26.4-35.5-37C274.7,467.2,257.8,459.6,230.1,463.7L230.1,463.7z M208.9,475.5
			c-3-1.5-17.9,21.6-17.4,36C198.3,490.3,211.4,476.5,208.9,475.5L208.9,475.5z M220.3,470.7c-2.8-0.3-7.3,14.1-8.8,24.2
			c-1.5,9.3-1,16.6,1.3,25.4c0.3-8,1.3-18.4,3-27.7C218,481,221.3,470.7,220.3,470.7L220.3,470.7z M232.6,470
			c-2.8,0.8-1.3,11.3-0.5,17.1c0.8,6.8,3,13.1,6.3,20.6C235.9,487.6,235.4,469,232.6,470L232.6,470z"/>
		<path fill-rule="evenodd" clip-rule="evenodd" fill="#FFFFFF" d="M306.9,208.6c-7.6,11.6,4.8,47,17.4,59.1c1.8-0.5,4-1.5,5.5-2
			c-10.1-13.6-7.3-28.2,5.3-20.6C330.6,223.4,311.9,201,306.9,208.6L306.9,208.6z"/>
		<path fill-rule="evenodd" clip-rule="evenodd" fill="#FFFFFF" d="M297.8,283.3c-15.1-8.3-33.5-43.3-21.9-56.1
			c4.8-5.5,19.9,13.8,25.4,31.9c-16.9-4.3-8.8,20.6,0.8,21.4C300.6,281.3,299.4,282.3,297.8,283.3L297.8,283.3z"/>
	</g>
</g>
</svg>
