<?xml version="1.0" encoding="utf-8"?>
<!-- Generator: Adobe Illustrator 21.1.0, SVG Export Plug-In . SVG Version: 6.00 Build 0)  -->
<svg version="1.0" id="Warstwa_1" xmlns="http://www.w3.org/2000/svg" xmlns:xlink="http://www.w3.org/1999/xlink" x="0px" y="0px"
	 viewBox="0 0 792 792" enable-background="new 0 0 792 792" xml:space="preserve">
<g>
	<path d="M501.6,651.6c2.3-23.6-3.2-49.7-23.3-75.9c-25.2-32.8-59.1-43.5-88.3-39.3c0.4-0.9,0.8-1.8,1.2-2.6c19,0,41.7-2,41.9-23.5
		c6.4,0.1,13.1-5.3,16.9-14.2c12.8-5.4,25.6-34.3,13.9-67.3c3.9-5.9,7.6-12,11.3-17.9c32.1,6.1,40-16.8,36.2-32
		c5.2-18,10.8-44.3-4.5-51.2c18.7-25.9,21.7-58.2,9.4-74.3c-2.7-23-22.8-56.4-36.8-64.8c26.1,3.8,49.2-28.8,36.5-64.7
		c-16.1-45.4-69.2-52.3-92.7-37.3c-29.3-44.5-83.8-59.8-96.4-45.1C312,58.5,341.1,108,362.8,142c-6,1.4-12.1,5.6-15.6,10.4
		c-24.4-29.5-69.2-51.4-101.2-49.9c-34.9,1.6-54.4,20.1-18.7,58.1c7.4,7.9,15.9,14.8,24.5,20.7c-8.9,24.1,15.5,75.8,51.6,71.3
		c6.4,5.9,14.3,8.7,24,7c-4.2,28.5,3.4,56.8,14.8,72.8c-9-0.4-19.7,7.9-21.4,16.7c-6.4-1.9-15.7-0.6-23.3,9.5
		c-7.8,10.3-10.4,26.7,1,41.7c-2.6,3.4-4.5,7-4.8,10.8c-9.4-1.1-49.1,3.1-52,31.4c-2.2,20.8,10.8,35.3,21.5,45.5
		c-3.3,9,3.8,18.1,11.6,16.7c3.2,18.6,16.9,45.7,26.8,63.9c-22.8,15.5-46.6,52.4-48.1,77.6c-8.3,24.9-29.2,40.4-26.5,52.7
		c4,18.5,92.2,31.9,140.2-20c11.7,2.9,26.5-6.5,30.5-14.6c13.1,8.3,25.4,14.2,35.8,22c14.6,10.9,17.2,24.1,30.6,23.1
		c15.2-1.1,32.8-24.4,36.9-54c15.3,8,79.4-2.1,80.2,27.9c0.4,15.6-26.4,37.6-71.8,43.5c-35.8,4.7-71.2,12.2-91.2,28.8
		c22.4-14.7,57.6-21.5,91.5-26.2c47.5-6.6,74-28.1,73.8-46.2C583.3,648.1,515.7,660.1,501.6,651.6z M337.1,554.6
		c-1-1.8-3.4-8.6-4.6-12.2c2-0.2,3.9-0.5,5.9-0.9C338.2,544.8,337.6,549.7,337.1,554.6z"/>
	<path fill="#F79C85" d="M466.9,361.9c-7.1,4.5-15.7,4.2-24.1,2.1c2.3-11.6,13.3-16.5,19.1-16.8c-0.5,3.5-0.3,5.7,0.7,9.1
		c0.3-14.8,9.3-22.7,15.9-22.3C478,345.5,476.7,355.7,466.9,361.9z"/>
	<path fill="#FEE4CD" d="M393.9,223.2c-5.7-0.1-22.3-7.3-27.8-12c3.5,8.4,19.4,13.6,26.7,13.4c-7.4,12.3-0.8,51,16.9,66.5
		c-5.1,1.2-10.3,3.1-14.8,5.6c-0.4-12.1-10.2-46.4-21.1-55.5c-5.4-8-13.6-22.8-15.7-31.6c-1.4,9.6,7.4,23.3,12.5,29.9
		c-0.4-0.1-0.7-0.1-1.1-0.1c-4.5-2.6-14.7-8.7-22.9-17.9c7.2-14.3,17.8-27.2,31.3-10.4c0.2-2.4,0.6-4.7,1.1-6.8
		c5.3,7.9,12.1,15,16.8,17.3C395.1,222.1,394.4,222.6,393.9,223.2z M367.7,240.1c-5.4-1.8-15.4-7.4-22.3-15.7
		c-1.1,2.4-2.1,5-2.9,7.6c8,5.8,18,10,22.9,10.3C366,241.3,366.8,240.6,367.7,240.1z M503.8,326.7c-5.6-1-12.4,1.4-14.4,3.9
		c0.4-2.4,1-4.5,1.9-6.2c-7.9,4.8-2.4,34-18,44.2c-21.6,14.1-45.8-5.1-61,0.3c4-0.2,8.1,0.4,12.3,1.4c-27.8,5.7-60-0.8-71-17.4
		c-9.1-13.7-0.3-25.7,5-28.8c-19.5-23.6-24.8-61.1-16.9-89.4c7.5,5.8,17.8,9.2,22.9,9.1c-6.2,13.1-0.2,51.3,22.4,58.8
		c-2.1,2.1-3.6,4.4-4.5,6.9c9.5-11.9,36.3-19.2,48.3-18c-1.8-1-4.4-1.6-7.4-1.8c4.1-21.1-7.1-57.6-19.8-66.8
		c-5.1-8.1-9.9-25.3-9.1-34.4c-4.5,5.9,0.3,24.4,6.1,32.8c-0.8-0.2-1.6-0.3-2.3-0.3c-4.1-2.8-11.7-10.7-18.1-20.1
		c2.7-7.9,7.5-13.3,11.7-16.3c6.8,0.5,15,0.5,24.1,1.8c9.2,1.3,18.8,3.5,27.5,5.3c17.3,17.3,27,52.8,27.8,73.6
		c5-9.5,17.1-21.9,31.7-17.2C525.9,255.6,524,297.1,503.8,326.7z M378.7,325.5c1.9,9.2,16.2,14,31.8,10.8
		c15.6-3.3,26.7-13.4,24.8-22.7c-1.9-9.2-16.2-14.1-31.8-10.8C387.8,306.2,376.7,316.3,378.7,325.5z M502.5,281.9
		c-5.6-6.2-22.1-2.4-24.3,5.1c2.3-1.7,4.8-2.9,7.5-3.9c0,17.9-7.8,44-35,59.9c-29.4,17.2-66.8,12.8-84.3-1.5
		c1.9-1.4,3.9-2.4,5.6-2.7c-5.5-1.8-16.3,6.5-13.1,14.5c-0.2-3.7,2.5-7.6,5.8-10.4c10.4,9.6,29.2,15.5,49.3,14.6
		c13.5,3.2,37,18.5,54.8,7.5c17.5-10.8,11.2-34.5,12.9-50.2c4.8-10.6,6.4-21.7,6.1-32.3C493,280.9,498.4,280.8,502.5,281.9z"/>
	<path fill="#D90861" d="M353.1,592.9c3.3,0.1,6,0,9.4,0c9,37.2,47.2,74,87.8,79.8c-11.3,4.3-25.2,2.2-34.3-1.4
		C394,659.1,366.2,641.9,353.1,592.9z M404.4,547.3c-6.2-1.1-12.8-1.3-19.6-0.4c-0.5,1-0.9,1.8-1.1,2.3c2.1,1.2,3.7,2,5.3,2.3
		C393,549.7,398.5,548.2,404.4,547.3z M258.8,635.8c-4.3,13.9-2,25.2,5.3,32.3c1.9-25.7,20-62.7,46.6-82.7c-1.7-3.2-4.4-8-7.5-13.8
		C291.4,579.7,266.8,610.1,258.8,635.8z"/>
	<path fill="#F16EA0" d="M230.3,697.7c-1.8-8,16.6-25.7,23.9-43.5c2.9,19.3,21.9,29.5,50.3,22.7c21.9-5.2,44.6-22.1,58.4-50.4
		c5.6,10.8,11.9,19,18.7,25.5C338.2,732.6,233.2,711,230.3,697.7z M395.6,663.2c-3.9-2.6-7.7-5.5-11.5-8.8
		c-4.1,8.3-8.9,15.6-14.4,22C376.3,677.3,390.9,670.6,395.6,663.2z M476.2,579.2c-24.5-33-58.8-43.6-87.1-41c-1,2.1-2.2,4.3-3.1,6.3
		c62.3-7.2,107.2,76,80.5,118.4c-8.4,13.4-25.9,16.6-40.5,14.1c3.6,2.1,6.8,4.1,9.7,6.3c16.3,12.8,17.9,23.4,27.6,22.7
		C484.7,704.2,521.8,640.7,476.2,579.2z"/>
	<path fill="#F16EA0" d="M329.2,43.5c12.4-14.8,74,9.6,98.5,56.6c-7.8-5.1-15.6-9-21.8-10.1c51.5,25.6,78.1,75,66.7,97.7
		c-5,10-29.6-1.7-56.6-5.2c-12.7-1.7-34.5,0.9-39.2-5.9c-4.7-6.8-2.3-36.9,6.8-50.1c-5.6,3-9.8,13.7-11.5,24.8
		C353.4,118.3,315,60.5,329.2,43.5z M348.8,155.6c-2.6,8.5-2.6,34.7,9.1,39.4c4.3,1.7,9.6,0,14.5-2.8c-1.3-3.4-1.9-6.5-1.6-8.9
		c0.8,2.6,2,5.2,3.3,7.9c3.7-2.4,6.9-5.2,9.1-7.6c-3.3-0.8-6-2.1-8-4.4c-3.8-4.1-4.8-13.7-3.8-23.7c-2.1-3.3-4.4-6.8-6.8-10.5
		C359.1,145.4,350.3,151,348.8,155.6z M356.8,198.6c-12.1-4.6-13.9-24.2-13-32.7c-18.3-13.5-101.8-28.1-109.1-48.4
		c11.8,16.1,86.1,30.1,109.4,46c0.4-2.9,1.1-5.9,1.9-8.5c-24.9-30.4-74.9-51.7-104.6-48.6c-27.1,2.9-42.3,16.5-13.7,48.2
		c25.1,27.9,59.8,44.3,77.7,46.9c-3.7,1.3-11.2,0.1-20.6-3.2c5.4,30.1,17.9,62.8,43.2,58.3c1.7-9.7,4.6-18.8,8.4-26.9
		c-1.9-2.3-3.2-4.9-3.7-7.7c1.2,2,2.8,3.9,4.7,5.7c1.4-2.8,2.9-5.5,4.6-8.1c-1.9-3.2-3.2-6.6-3.7-10.3c1.4,2.9,3.1,5.7,5,8.2
		c5.1-7.5,11-13.8,17.5-18.4C359.7,199.3,358.5,199.2,356.8,198.6z"/>
	<path fill="#00BBE5" d="M438.4,393.8c-0.3,0.4-0.7,0.9-1,1.3c-12.3-12.6-27.9-15.1-41.7-14.5c0.2-1.6,0.3-3.5-0.1-5.2
		c10.5,0.5,22-0.6,34-3.7c1.3,0.4,2.5,0.8,3.8,1.1C430.3,381.4,433.2,389.2,438.4,393.8z M488.2,387.5c-10.9-10.7-31.8-6.7-42-0.7
		c-1.2,1.2-2.6,3-4.3,5.3c14.8-6.9,35.6-3.1,38.1,6.1C482.8,394.1,485.5,390.5,488.2,387.5z M346,445.1
		c5.8,10.4,24.3,16.9,39.3,14.2c-1.2-2.9-2.4-5.4-3.6-7.4c-4.4-1.9-8-3.8-10.6-5.2c-4.8,1.9-10.2,1.3-14.8-1.6
		C353.2,445.5,349.7,445.5,346,445.1z M507.2,330.9c-6-3.9-14.5-0.9-18.2,2.1c-1.4,12.3,0.5,30-13.8,38.7c-14,8.6-26.8,5.6-38.9,1.9
		c-1.2,5.9-0.4,14.1,3.8,17.8c1.1-1.4,2-2.9,3-4.1c9.1-11.8,48-14.4,49,5.3c-0.5-1.1-1.2-2.1-1.9-3c-4.5,4.9-8.9,11.3-13.3,18.3
		c32.9,4,37-21.7,28.3-40.7c1.9,1.7,3.5,4.2,4.7,7.1C512.8,362.9,518,337.9,507.2,330.9z M423,504.6c-3.8,2.6-8,2.3-10.5,1.5
		c-1.2,2.4-3.8,5.5-7.9,7.8c2.9-3.2,4.8-6.4,5.9-8.6c-12-6.1-18.3-29-24.7-44.6c-13.7,4.5-36.4-2.9-42.5-16
		c-8.1-1.8-16.2-6.1-19.6-14.1c-5.7,0.9-11.3,0.9-16.3-0.9c-4.6,2.2-16.1,11.3-22.9,22.4c0.6-7.6,13.2-21.1,19-24.3
		c-5.4-3.3-9.5-9.2-9.9-14.4c-17.7,0.1-45.4,6.4-48.2,28.8c-3.4,27.4,22.5,44.1,32.2,55.3c10.2,11.7,24.7,35.7,40.6,40.8
		c15.9,5.1,36-6.1,54.9-7.3c31.2-2,55.5,2.1,57-21.2C427.7,509.1,425.2,507.4,423,504.6z"/>
	<g>
		<path fill="#FFFFFF" d="M461.7,432c-13.2,19.4-24.1,27.4-35.5,29.3c5.3,10.9,6.8,33.2-1.2,41.6c14.4,15.5,32.5-13.7,22.5-51.5
			c5.2,6.1,8.4,26.4,3.7,41.1C463.2,482.4,468,452.8,461.7,432z"/>
		<path fill="#FFFFFF" d="M422.7,461.7c-11.7,0.8-25.3-3.3-36.2-7.7c9.7,20.1,18.9,53.3,32.3,49.4
			C428.6,500.7,429.7,478,422.7,461.7z"/>
		<path fill="#FFFFFF" d="M327.4,429.9c4.9,10.1,17.2,13.1,25.8,12.7c-3.9-4-6.5-10.2-6.2-18.7C340.9,426.1,334.1,428.5,327.4,429.9
			z"/>
		<path fill="#FFFFFF" d="M391.3,381.1c-14.9-6.4-42.1,8.2-38.6,28.6c1.2,7.1,7.5,11.1,14,11.1c-1.6-3.7-2.7-7.2-2.9-10.3
			C362.4,395.1,375.7,383.7,391.3,381.1z"/>
		<path fill="#FFFFFF" d="M350,422.9c2.4-0.8,4.6-1.5,6.7-2.1c1.8,1,3.9,1.7,5.9,2c-4.5,7.6-1.2,17.4,5.5,22.2
			C360.2,447.2,348.4,437.7,350,422.9z"/>
		<path fill="#FFFFFF" d="M421.4,275c-1.4-5.9-3.9-10.4-7.4-9.4c-5.8,1.8-2.9,18,1.3,24.5c-1.1,0.2-2.3,0.3-3.4,0.6
			c-17.5-16.8-24.5-63.5-14.9-67.2C405,220.5,418.6,249.3,421.4,275z"/>
		<path fill="#FFFFFF" d="M388.1,301.6c-23.9-11.5-26.7-56.6-19.2-59.6c5.4-2.2,14.3,19,20.1,37.7c-1.4-1.4-2.8-1.9-4.4-1.2
			c-5.4,2.4,0.1,17.6,5.4,21.6C389.3,300.5,388.7,301,388.1,301.6z"/>
		<path fill="#FFFFFF" d="M328.4,354.9c-0.5-1.7-2.3-3.5-4.9-4.7c2.8-9.5,14.2-15.6,20.5-15.5c0.8,1,1.6,1.9,2.4,2.8
			c-1.2,5.1-0.5,11.2,3.5,17.3c7.3,11.1,22.9,18.8,42.6,20.5c0.3,1.1,0.5,2.4,0.5,4.3c-5.3-3.1-12.6-3.2-19.8-1.1
			c0-2.1-0.5-4.4-1.9-5.9c0.7,1.7,0.2,4.4-0.4,6.7c-2.3,0.9-4.6,2-6.8,3.3c-0.9,0-1.8,0-2.8,0.1c-0.5-4.1-3.6-11.8-7.8-14
			c3.1,3.6,4.7,10.5,4.4,14.3c-3.6,0.5-7.8,1.3-12.1,2.4c-1.6-3.9-7-9.6-10.2-10.1c2.7,2.9,5.8,7.4,7.3,10.9
			c-9.3,2.6-19.1,6.4-25.9,10.2c-0.3-0.4-7.6-12-6.9-23.5c-1.1,2.8-1.7,6.6-1.4,10.4c-1-1-1.7-2.7-2.7-6c-0.7,4.5,1.5,8.9,3.6,10.3
			c0.2,0.6,0.3,1.1,0.6,1.6c-3,2.4-6.1,5.2-8.9,8.1C280.8,369.6,310.6,340.2,328.4,354.9z"/>
		<path fill="#FFFFFF" d="M264.9,489.7c3.5,3.3,6.9,6.1,9.5,8.8c0,1.4,0.1,2.8,0.2,4.3C267.1,502.3,264.2,497,264.9,489.7z"/>
		<path fill="#FFFFFF" d="M395.8,383.5c-26.4,2.1-34.6,19.7-25.9,38.1c13.8,1.4,38-0.9,45.5-1.4c3.7-3.1,12.6-13.1,20.1-22.6
			C426.9,389,412.7,382.1,395.8,383.5z M405.8,415.6c-3.5-6.1-13.9-14.9-18.2-17.1C392.7,397.5,406.4,409.3,405.8,415.6z
			 M417.2,407.6c-3.3-4.7-17.1-13.7-19.6-13.9C403.5,391.9,418.2,403.2,417.2,407.6z M408.2,389.2c5-2.5,18.3,4.5,18.4,10.6
			C423.7,396,412.7,388.8,408.2,389.2z"/>
		<path fill="#FFFFFF" d="M311.6,588.2c1.9,3.6,7.7,15.3,10.9,21.4C319.7,609,310.3,591.3,311.6,588.2z"/>
		<path fill="#FFFFFF" d="M334.8,581.2c1.6,4.3,6.9,12.4,16.9,11.4c-17-3.8-18.5-14.3-15.1-36.7C335,558.7,331.4,572.2,334.8,581.2z
			"/>
		<path fill="#FFFFFF" d="M364.2,592.9c4.3-0.5,20.3-4.4,26.4-9.2C388.6,588.7,370.1,594.6,364.2,592.9z"/>
		<path fill="#FFFFFF" d="M382.8,550.9c-1.8,3.6-7.7,16.8-8.8,20.7C377.6,567.8,383.5,552.7,382.8,550.9z"/>
		<path fill="#FFFFFF" d="M390.2,552.4c2.7,1.1,8.8,2.7,11.8,2.6C399.9,553.3,392.4,551.5,390.2,552.4z"/>
		<path fill="#FFFFFF" d="M315.8,397.2c-2.5,1.2-5.1,3.6-6.5,5C309.5,399.7,313.1,396.3,315.8,397.2z"/>
	</g>
</g>
</svg>
