<?xml version="1.0" encoding="UTF-8" standalone="no"?>
<svg
   xmlns:dc="http://purl.org/dc/elements/1.1/"
   xmlns:cc="http://creativecommons.org/ns#"
   xmlns:rdf="http://www.w3.org/1999/02/22-rdf-syntax-ns#"
   xmlns:svg="http://www.w3.org/2000/svg"
   xmlns="http://www.w3.org/2000/svg"
   xmlns:sodipodi="http://sodipodi.sourceforge.net/DTD/sodipodi-0.dtd"
   xmlns:inkscape="http://www.inkscape.org/namespaces/inkscape"
   viewBox="0 0 573.33331 666.66669"
   height="666.66669"
   width="573.33331"
   xml:space="preserve"
   id="svg2"
   version="1.1"
   sodipodi:docname="q-bert.svg"
   inkscape:version="0.92.4 (5da689c313, 2019-01-14)"><sodipodi:namedview
     pagecolor="#ffffff"
     bordercolor="#666666"
     borderopacity="1"
     objecttolerance="10"
     gridtolerance="10"
     guidetolerance="10"
     inkscape:pageopacity="0"
     inkscape:pageshadow="2"
     inkscape:window-width="1366"
     inkscape:window-height="715"
     id="namedview118"
     showgrid="false"
     inkscape:zoom="1.0012632"
     inkscape:cx="266.40902"
     inkscape:cy="630.26692"
     inkscape:window-x="-8"
     inkscape:window-y="22"
     inkscape:window-maximized="1"
     inkscape:current-layer="svg2" /><metadata
     id="metadata8"><rdf:RDF><cc:Work
         rdf:about=""><dc:format>image/svg+xml</dc:format><dc:type
           rdf:resource="http://purl.org/dc/dcmitype/StillImage" /></cc:Work></rdf:RDF></metadata><defs
     id="defs6"><clipPath
       id="clipPath14"
       clipPathUnits="userSpaceOnUse"><path
         id="path12"
         d="M 91,146 H 521 V 646 H 91 Z" /></clipPath></defs><g
     clip-path="url(#clipPath14)"
     transform="matrix(-1.8846798,0,0,-1.8846798,864.47678,1077.765)"
     id="g10"><path
       id="path16"
       style="fill:#ffffff;fill-opacity:1;fill-rule:nonzero;stroke:#231f20;stroke-width:2;stroke-linecap:butt;stroke-linejoin:miter;stroke-miterlimit:4;stroke-dasharray:none;stroke-opacity:1"
       d="m 456.833,513 c 0,-30.7437 -16.5,-62 -128.5,-60.3335 -47.9624,-0.709 -92.9106,2.769 -114.0713,23.9668 C 212.1758,478.7227 207.5,469 205.5,458.125 c -8.625,15.625 -1.125,30.75 -1.02,33.7461 -2.2061,6.0098 -3.2056,12.9014 -2.8135,20.7954 C 206.3335,545 242,569.6675 328,568.667 419.333,570.6665 456.833,543.7441 456.833,513 Z"
       inkscape:connector-curvature="0" /><path
       id="path18"
       style="fill:#231f20;fill-opacity:1;fill-rule:nonzero;stroke:none"
       d="m 258.5,541.6665 c 0,0 -38.1665,7.3335 -40.6665,-32.1665 4.1665,-25.3335 17.9165,-24 25.833,-26.1665 0,0 26.0835,0.4165 22.4585,29.6665 -9.25,23.625 -34.625,14.5 -34,-1.75 C 231.25,497.5 251,486.5 255.5,506.625 c 0,0 1.625,9.25 -7.125,9.625 -8.75,0.375 -7,-5.875 -7,-5.875 0,0 0.125,-3.875 3.75,-3.25 1.875,2 2.25,3.125 2.25,3.125 0,0 3.125,-0.25 3,-2 -0.125,-1.75 -1,-6.25 -4.75,-6.375 -3.75,-0.125 -9.875,1 -7.5,12.5 5.25,8.875 11.875,6.375 11.875,6.375 0,0 6.75,0.125 10.125,-13.25 2.375,-13.875 -13.625,-16.25 -15.625,-16.25 -2,0 -16.75,-1.375 -19.25,21.375 3.875,20.125 14.5,19.0835 15.8335,19.375 1.3335,0.2915 14.7915,1.25 18.1665,-1.25 1,8.75 -0.75,10.9165 -0.75,10.9165 z"
       inkscape:connector-curvature="0" /><path
       id="path20"
       style="fill:#231f20;fill-opacity:1;fill-rule:nonzero;stroke:none"
       d="m 279.75,486.625 c 0,-3.8662 -2.854,-7 -6.375,-7 -3.521,0 -6.375,3.1338 -6.375,7 0,3.8662 2.854,7 6.375,7 3.521,0 6.375,-3.1338 6.375,-7 z"
       inkscape:connector-curvature="0" /><path
       id="path22"
       style="fill:#231f20;fill-opacity:1;fill-rule:nonzero;stroke:none"
       d="m 271.4375,497.5 -1.6875,47.6875 0.625,3 c 0,0 6.4375,9.3125 12.3125,-0.5 0,-1.125 -0.0625,-2.125 -0.0625,-2.125 l -4.875,-48.375 z"
       inkscape:connector-curvature="0" /><path
       id="path24"
       style="fill:#231f20;fill-opacity:1;fill-rule:nonzero;stroke:none"
       d="m 287.5835,488.25 12.833,57.5835 c 0,0 6.0825,-0.2495 8.4165,-1.6665 -1.9165,-6.0835 -7.6665,-23.25 -13.583,-57.5 -4,-0.167 -7.6665,1.583 -7.6665,1.583 z"
       inkscape:connector-curvature="0" /><path
       id="path26"
       style="fill:#231f20;fill-opacity:1;fill-rule:nonzero;stroke:none"
       d="m 305.5835,484.5 c 0,0 12.8335,58.167 13.9165,58.417 1.083,0.25 8,-2.25 8,-2.8335 0,-0.5835 -14.916,-56.5835 -13.583,-56.8335 1.333,-0.25 -8.3335,0.9165 -8.3335,1.25 z"
       inkscape:connector-curvature="0" /><path
       id="path28"
       style="fill:#231f20;fill-opacity:1;fill-rule:nonzero;stroke:none"
       d="m 284.4165,508.5 c 0,0 36.1675,-6.4165 45.2505,-10.9165 2.25,6.5835 2.333,9 2.333,9 0,0 -44.583,10.8335 -46.6665,9.5 -0.8335,-3.75 -0.917,-7.5835 -0.917,-7.5835 z"
       inkscape:connector-curvature="0" /><path
       id="path30"
       style="fill:#231f20;fill-opacity:1;fill-rule:nonzero;stroke:none"
       d="m 286.8335,524.5835 c 0,0 37.4995,-3.8335 45.7495,-8.75 3.334,4.5 2.5,8 2.5,8 0,0 -27.083,8.167 -47.583,9.0835 -2.25,-4.8335 -0.6665,-8.3335 -0.6665,-8.3335 z"
       inkscape:connector-curvature="0" /><path
       id="path32"
       style="fill:#231f20;fill-opacity:1;fill-rule:nonzero;stroke:none"
       d="m 355.5,486.1494 c 0,-4.1142 -3.0889,-7.4497 -6.9004,-7.4497 -3.8105,0 -6.8994,3.3355 -6.8994,7.4497 0,4.1148 3.0889,7.4502 6.8994,7.4502 3.8115,0 6.9004,-3.3354 6.9004,-7.4502 z"
       inkscape:connector-curvature="0" /><path
       id="path34"
       style="fill:#231f20;fill-opacity:1;fill-rule:nonzero;stroke:none"
       d="m 344,497.8994 c 0,0 -1.8994,23.2002 -0.7998,24.2002 0.0996,1.1997 0.9004,2.5 0.9004,2.5 0,0 16.5996,3.3003 17.0996,14.1001 0.5,10.7998 -9.9004,8.2998 -9.9004,8.2998 0,0 -5.1006,-1.2998 -5,-10 -1,-6.7002 -9.2988,-3.3999 -9.8994,-2.1001 -0.6006,1.2998 -6.001,13.2002 14.5996,20.1001 0,0 13.501,2.5996 19.1006,-12.3003 0,0 1.5986,-7.5 -0.8008,-11.3999 -2.3994,-3.8999 -4.4004,-9.5996 -16.2998,-13.2998 0.2998,-5.3003 -0.2998,-19.9004 -0.2998,-19.9004 0,0 -4.2002,-1.0996 -8.7002,-0.1997 z"
       inkscape:connector-curvature="0" /><path
       id="path36"
       style="fill:#231f20;fill-opacity:1;fill-rule:nonzero;stroke:none"
       d="m 369.5996,484.9995 c 0,0 14.1016,-3.8999 25.8008,-0.6001 11.6992,3.2998 21.6992,13.1001 23.0996,30.5 -0.2002,18.1001 -11.8994,25.2002 -23.2998,25.1001 -11.4004,-0.1001 -22.5,-6 -23.7002,-18.5 -1.2002,-12.5 1.3008,-23.2998 18.2002,-24.5 16.8994,-1.2002 18.0996,18.2998 18.0996,18.2998 0,0 1.2002,12.5996 -13.2998,13.7998 -14.5,1.2002 -13.5,-11.7998 -13.5,-11.7998 0,0 -0.501,-10.4004 9.0996,-10.7002 9.6006,-0.2998 9,8.1001 9,8.1001 0,0 10e-4,5.1001 -5.6992,6.6001 -4.6006,0 -2.6006,-3.8999 -2.6006,-3.8999 0,0 4.9004,-5.2002 -0.5996,-5.6001 -5.5,-0.3999 -4.7002,6.7998 -4.7002,6.7998 0,0 1.8008,7 8.2002,6 6.3994,-1 7.2002,-2.5996 8.7998,-9.2998 1.5996,-6.7002 -7.2998,-13 -12.7002,-12.8999 -4.5,0.8999 -12.5,0.4995 -12.7998,15.1997 -0.2998,14.7002 17.5996,16 17.5996,16 0,0 15.5,0.7002 17,-18.6997 1.5,-19.3999 -18.2988,-22.3999 -21.3994,-22.3999 -9.6006,-0.4004 -16.3994,2.3999 -18.2998,3.8999 -1.5,-1.2002 -2.8008,-11.4995 -2.3008,-11.3999 z"
       inkscape:connector-curvature="0" /><path
       id="path38"
       style="fill:#231f20;fill-opacity:1;fill-rule:nonzero;stroke:none"
       d="m 427.3008,486.5996 c 0,-4.1699 -2.6641,-7.5503 -5.9502,-7.5503 -3.2861,0 -6.6504,3.2803 -6.6504,7.4502 0,4.1694 3.3643,7.6499 6.6504,7.6499 3.2861,0 5.9502,-3.3804 5.9502,-7.5498 z"
       inkscape:connector-curvature="0" /><path
       id="path40"
       style="fill:#231f20;fill-opacity:1;fill-rule:nonzero;stroke:none"
       d="m 420.2998,497.9995 3.4004,40.7002 1,1.6997 c 0,0 7.0986,10 12.3994,-1.8999 -0.0996,-1.1001 -0.1992,-2.3999 -0.1992,-2.3999 0,0 -10.8008,-39.3999 -11.3008,-39.3999 -0.5,0 -5.2998,0.5996 -5.2998,1.2998 z"
       inkscape:connector-curvature="0" /><path
       id="path42"
       style="fill:#f19830;fill-opacity:1;fill-rule:nonzero;stroke:none"
       d="M 192.375,374.125 C 192.4165,374.5625 188.6665,381.5 192,391 l -2.25,-5.375 c 0,0 1.625,20 4.375,22.625 2.75,2.625 -3,-3.625 -3,-3.625 0,0 0.75,13.875 4.875,15.5 4.125,1.625 -2.5,-1.125 -2.5,-1.125 0,0 4.25,19.5 25.375,36.25 -0.75,0.375 -1.5,-0.125 -1.5,-0.125 0,0 20,16 33.625,18.75 -0.125,-1 -1.25,-2 -1.75,-2.375 -0.5,-0.375 6.375,6.5 25,4.625 0,-0.875 -1.375,-1.5 -1.375,-1.5 0,0 12.25,4.625 23.375,-3.875 0.5,-0.5 -4.375,-1 -4.375,-1 0,0 15,-0.75 16.375,-4.125 -4.625,0 -6.125,-1.375 -6.125,-1.375 0,0 9.5,-0.75 13.375,-7.875 -1.875,0.5 -4.125,0.25 -4.125,0.25 0,0 11.75,-6.125 15.25,-12.75 -1.5,1 -4.75,1 -4.75,1 0,0 10.5,-12.5 9.5,-13.125 -1,-0.625 -6,2.375 -6,2.375 0,0 7.75,-16.375 5.875,-16.25 -1.875,0.125 -1.625,1.125 -1.625,1.125 0,0 8.5,-22.125 6.75,-22.25 -1.75,-0.125 -2.25,1.125 -2.25,1.125 0,0 4.875,-15.625 4.75,-20.125 -0.125,-4.5 -2.625,2.625 -2.625,2.625 0,0 2.75,-9.75 1.625,-10.375 -1.125,-0.625 -1.125,0.75 -1.125,0.75 0,0 1.5,-7.125 0.875,-7.875 -0.625,-0.75 -2.375,0.375 -2.375,0.375 0,0 3.75,-7.75 0.375,-13.5 -1.375,0.125 -1.375,1.375 -1.375,1.375 0,0 0.125,-9.625 -1.125,-11.375 -1.25,-1.75 -1.375,3.125 -1.375,3.125 0,0 0.125,-14.25 -3.75,-14.875 -0.75,0.625 -0.75,1.875 -0.75,1.875 0,0 -0.75,-14.5 -6.625,-14.75 -0.375,1.125 0.125,2.25 0.125,2.25 0,0 -7.5,-13.75 -10,-13.125 -0.25,0.5 0,1.125 0,1.125 0,0 -6.75,-9.625 -8.5,-9.125 -1.75,0.5 -8.25,-7.5 -20,-8.875 0,0 -17.875,-25.875 12.125,-39.25 17.625,-10.375 -5.875,-12.625 -5.25,-10 -2.875,-3.5 -15.4585,-11.375 -20.375,-8.5 -9.75,-21.292 -36,-6.5 -11.9165,5.708 0,0 -10.2085,-4.458 -9.9585,-12.083 -9,-3.25 -18.25,7.625 -2.625,12.875 0,0 -5,-0.5 -8.75,-6.75 -3.625,-1.125 -6,13.25 11.75,11.5 0,0 13.75,9.875 25.5,7.5 -7.625,6.25 -8.625,12.875 -8.125,15.875 0.125,1.125 -1,-2.375 -1.375,-2.375 0,0 -2.4375,13.0625 0.6875,16.8125 0.4375,1.6875 -1.25,-1.25 -1.25,-1.25 0,0 1.375,8.1875 5.25,10.8125 -1.375,-1 -2.25,-2.125 -2.25,-2.125 0,0 -17.5,0.25 -20.9375,2.8125 -1.875,0.75 0.4375,-0.75 0.0625,-1.1875 -0.1875,-0.3125 -16.5,6.375 -19.25,11.625 -2.1875,1.625 -0.3125,-0.6875 -1.125,-0.75 -0.8125,-0.0625 -6.875,8.1875 -7.25,8.1875 -0.375,0 -0.5,-1.3125 -0.75,-1.4375 -0.25,-0.125 -5.4375,6.125 -4.6875,8.5625 1.0625,2.1875 7.25,8.875 8,9.875 -9.1875,-9.75 -12.4375,-17.375 -12.875,-18.125 -0.125,-0.6875 0.6875,-0.4375 0.875,-0.9375 0.1875,-0.5 -2.5625,-7.6875 -3.375,-8.4375 -0.8125,-0.75 -0.5,-0.0625 -0.5,-0.0625 0,0 -0.375,-5.875 -12.6875,-6.375 -6.9375,0.625 -7.3125,2.75 -8.375,3.4375 -1.0625,0.6875 0.8125,-0.9375 0.0625,-1.375 -0.75,-0.4375 -10.75,2.8545 -11.6875,7.375 -1.271,0.5205 1,-2.4375 -0.0625,-1.75 -1.0625,0.6875 -9.8335,8.7295 -9.9375,15.5 -0.4375,3.3545 -0.3125,-2.125 -0.3125,-2.125 0,0 -7.8125,16.75 1.75,27.4375 0.125,0.75 0.25,1 0.25,1 0,0 14.375,14.4375 13.875,14.5 -0.5,0.0625 -1.75,-0.6875 -2.0625,-0.375 -0.3125,0.3125 16,20.1875 16.875,20.125 0.8125,0.375 0.771,0.0625 0.8125,0.5 z"
       inkscape:connector-curvature="0" /><path
       id="path44"
       style="fill:#f19830;fill-opacity:1;fill-rule:nonzero;stroke:none"
       d="m 247.25,287.625 c 0,0 -8.375,-10.375 1.375,-26.25 6.25,-0.5 5.875,-1.0625 6.375,-1.625 1.6875,0.25 15.625,-8.375 -2,-8.75 -5.5,-0.625 -6.375,-9 -22.875,-7 -8,-15.75 -26.5,-10.375 -15.5,3.375 0,0 -3.354,-3.0723 -3.479,-8.6973 -2.75,-5.25 -22.271,0.5723 -6.271,10.6973 -3.5835,-2.583 -3.3125,-2.167 -5.396,-4.75 -6.875,-1.6875 -1.729,14.75 11.271,9.375 6.4375,3.375 18.75,8.75 24.5,6.75 -0.147,0.126 0.3911,-0.4326 0.25,-0.3125 -3.2207,2.748 -5.5937,4.8428 -4.875,9.8125 -0.5625,0.5 -0.9375,-2.0625 -1.375,-1.625 -0.4375,0.4375 -1.25,9.875 1.25,13.625 -0.1875,0.625 -1.1875,-1.125 -1.25,-0.75 -0.0625,0.375 0.75,7.625 4.875,11 6.5,-3.25 8.25,-5.125 13.125,-4.875 z"
       inkscape:connector-curvature="0" /><path
       id="path46"
       style="fill:#f19830;fill-opacity:1;fill-rule:nonzero;stroke:none"
       d="m 247.25,287.625 c 0,0 -8.375,-10.375 1.375,-26.25 6.25,-0.5 5.875,-1.0625 6.375,-1.625 1.6875,0.25 15.625,-8.375 -2,-8.75 -5.5,-0.625 -6.375,-9 -22.875,-7 -8,-15.75 -26.5,-10.375 -15.5,3.375 0,0 -3.354,-3.0723 -3.479,-8.6973 -2.75,-5.25 -22.271,0.5723 -6.271,10.6973 -3.5835,-2.583 -3.3125,-2.167 -5.396,-4.75 -6.875,-1.6875 -1.729,14.75 11.271,9.375 6.4375,3.375 18.75,8.75 24.5,6.75 -0.147,0.126 0.3911,-0.4326 0.25,-0.3125 -3.2207,2.748 -5.5937,4.8428 -4.875,9.8125 -0.5625,0.5 -0.9375,-2.0625 -1.375,-1.625 -0.4375,0.4375 -1.25,9.875 1.25,13.625 -0.1875,0.625 -1.1875,-1.125 -1.25,-0.75 -0.0625,0.375 0.75,7.625 4.875,11 6.5,-3.25 8.25,-5.125 13.125,-4.875 z"
       inkscape:connector-curvature="0" /><path
       id="path48"
       style="fill:#f19830;fill-opacity:1;fill-rule:nonzero;stroke:none"
       d="m 247.25,287.625 c 0,0 -8.375,-10.375 1.375,-26.25 6.25,-0.5 5.875,-1.0625 6.375,-1.625 1.6875,0.25 15.625,-8.375 -2,-8.75 -5.5,-0.625 -6.375,-9 -22.875,-7 -8,-15.75 -26.5,-10.375 -15.5,3.375 0,0 -3.354,-3.0723 -3.479,-8.6973 -2.75,-5.25 -22.271,0.5723 -6.271,10.6973 -3.5835,-2.583 -3.3125,-2.167 -5.396,-4.75 -6.875,-1.6875 -1.729,14.75 11.271,9.375 6.4375,3.375 18.75,8.75 24.5,6.75 -0.147,0.126 0.3911,-0.4326 0.25,-0.3125 -3.2207,2.748 -5.5937,4.8428 -4.875,9.8125 -0.5625,0.5 -0.9375,-2.0625 -1.375,-1.625 -0.4375,0.4375 -1.25,9.875 1.25,13.625 -0.1875,0.625 -1.1875,-1.125 -1.25,-0.75 -0.0625,0.375 0.75,7.625 4.875,11 6.5,-3.25 8.25,-5.125 13.125,-4.875 z"
       inkscape:connector-curvature="0" /><path
       id="path50"
       style="fill:none;stroke:#231f20;stroke-width:1;stroke-linecap:butt;stroke-linejoin:miter;stroke-miterlimit:4;stroke-dasharray:none;stroke-opacity:1"
       d="m 247.25,287.625 c 0,0 -8.375,-10.375 1.375,-26.25 6.25,-0.5 5.875,-1.0625 6.375,-1.625 1.6875,0.25 15.625,-8.375 -2,-8.75 -5.5,-0.625 -6.375,-9 -22.875,-7 -8,-15.75 -26.5,-10.375 -15.5,3.375 0,0 -3.354,-3.0723 -3.479,-8.6973 -2.75,-5.25 -22.271,0.5723 -6.271,10.6973 -3.5835,-2.583 -3.3125,-2.167 -5.396,-4.75 -6.875,-1.6875 -1.729,14.75 11.271,9.375 6.4375,3.375 18.75,8.75 24.5,6.75 -0.147,0.126 0.3911,-0.4326 0.25,-0.3125 -3.2207,2.748 -5.5937,4.8428 -4.875,9.8125 -0.5625,0.5 -0.9375,-2.0625 -1.375,-1.625 -0.4375,0.4375 -1.25,9.875 1.25,13.625 -0.1875,0.625 -1.1875,-1.125 -1.25,-0.75 -0.0625,0.375 0.75,7.625 4.875,11 6.5,-3.25 8.25,-5.125 13.125,-4.875 z"
       inkscape:connector-curvature="0" /><path
       id="path52"
       style="fill:none;stroke:#231f20;stroke-width:1;stroke-linecap:butt;stroke-linejoin:miter;stroke-miterlimit:4;stroke-dasharray:none;stroke-opacity:1"
       d="M 192.375,374.125 C 192.4165,374.5625 188.6665,381.5 192,391 l -2.25,-5.375 c 0,0 1.625,20 4.375,22.625 2.75,2.625 -3,-3.625 -3,-3.625 0,0 0.75,13.875 4.875,15.5 4.125,1.625 -2.5,-1.125 -2.5,-1.125 0,0 4.25,19.5 25.375,36.25 -0.75,0.375 -1.5,-0.125 -1.5,-0.125 0,0 20,16 33.625,18.75 -0.125,-1 -1.25,-2 -1.75,-2.375 -0.5,-0.375 6.375,6.5 25,4.625 0,-0.875 -1.375,-1.5 -1.375,-1.5 0,0 12.25,4.625 23.375,-3.875 0.5,-0.5 -4.375,-1 -4.375,-1 0,0 15,-0.75 16.375,-4.125 -4.625,0 -6.125,-1.375 -6.125,-1.375 0,0 9.5,-0.75 13.375,-7.875 -1.875,0.5 -4.125,0.25 -4.125,0.25 0,0 11.75,-6.125 15.25,-12.75 -1.5,1 -4.75,1 -4.75,1 0,0 10.5,-12.5 9.5,-13.125 -1,-0.625 -6,2.375 -6,2.375 0,0 7.75,-16.375 5.875,-16.25 -1.875,0.125 -1.625,1.125 -1.625,1.125 0,0 8.5,-22.125 6.75,-22.25 -1.75,-0.125 -2.25,1.125 -2.25,1.125 0,0 4.875,-15.625 4.75,-20.125 -0.125,-4.5 -2.625,2.625 -2.625,2.625 0,0 2.75,-9.75 1.625,-10.375 -1.125,-0.625 -1.125,0.75 -1.125,0.75 0,0 1.5,-7.125 0.875,-7.875 -0.625,-0.75 -2.375,0.375 -2.375,0.375 0,0 3.75,-7.75 0.375,-13.5 -1.375,0.125 -1.375,1.375 -1.375,1.375 0,0 0.125,-9.625 -1.125,-11.375 -1.25,-1.75 -1.375,3.125 -1.375,3.125 0,0 0.125,-14.25 -3.75,-14.875 -0.75,0.625 -0.75,1.875 -0.75,1.875 0,0 -0.75,-14.5 -6.625,-14.75 -0.375,1.125 0.125,2.25 0.125,2.25 0,0 -7.5,-13.75 -10,-13.125 -0.25,0.5 0,1.125 0,1.125 0,0 -6.75,-9.625 -8.5,-9.125 -1.75,0.5 -8.25,-7.5 -20,-8.875 0,0 -17.875,-25.875 12.125,-39.25 17.625,-10.375 -5.875,-12.625 -5.25,-10 -2.875,-3.5 -15.4585,-11.375 -20.375,-8.5 -9.75,-21.292 -36,-6.5 -11.9165,5.708 0,0 -10.2085,-4.458 -9.9585,-12.083 -9,-3.25 -18.25,7.625 -2.625,12.875 0,0 -5,-0.5 -8.75,-6.75 -3.625,-1.125 -6,13.25 11.75,11.5 0,0 13.75,9.875 25.5,7.5 -7.625,6.25 -8.625,12.875 -8.125,15.875 0.125,1.125 -1,-2.375 -1.375,-2.375 0,0 -2.4375,13.0625 0.6875,16.8125 0.4375,1.6875 -1.25,-1.25 -1.25,-1.25 0,0 1.375,8.1875 5.25,10.8125 -1.375,-1 -2.25,-2.125 -2.25,-2.125 0,0 -17.5,0.25 -20.9375,2.8125 -1.875,0.75 0.4375,-0.75 0.0625,-1.1875 -0.1875,-0.3125 -16.5,6.375 -19.25,11.625 -2.1875,1.625 -0.3125,-0.6875 -1.125,-0.75 -0.8125,-0.0625 -6.875,8.1875 -7.25,8.1875 -0.375,0 -0.5,-1.3125 -0.75,-1.4375 -0.25,-0.125 -5.4375,6.125 -4.6875,8.5625 1.0625,2.1875 7.25,8.875 8,9.875 -9.1875,-9.75 -12.4375,-17.375 -12.875,-18.125 -0.125,-0.6875 0.6875,-0.4375 0.875,-0.9375 0.1875,-0.5 -2.5625,-7.6875 -3.375,-8.4375 -0.8125,-0.75 -0.5,-0.0625 -0.5,-0.0625 0,0 -0.375,-5.875 -12.6875,-6.375 -6.9375,0.625 -7.3125,2.75 -8.375,3.4375 -1.0625,0.6875 0.8125,-0.9375 0.0625,-1.375 -0.75,-0.4375 -10.75,2.8545 -11.6875,7.375 -1.271,0.5205 1,-2.4375 -0.0625,-1.75 -1.0625,0.6875 -9.8335,8.7295 -9.9375,15.5 -0.4375,3.3545 -0.3125,-2.125 -0.3125,-2.125 0,0 -7.8125,16.75 1.75,27.4375 0.125,0.75 0.25,1 0.25,1 0,0 14.375,14.4375 13.875,14.5 -0.5,0.0625 -1.75,-0.6875 -2.0625,-0.375 -0.3125,0.3125 16,20.1875 16.875,20.125 0.8125,0.375 0.771,0.0625 0.8125,0.5 z"
       inkscape:connector-curvature="0" /><path
       id="path54"
       style="fill:none;stroke:#231f20;stroke-width:1;stroke-linecap:butt;stroke-linejoin:miter;stroke-miterlimit:4;stroke-dasharray:none;stroke-opacity:1"
       d="m 247.25,287.625 c 0,0 -8.375,-10.375 1.375,-26.25 6.25,-0.5 5.875,-1.0625 6.375,-1.625 1.6875,0.25 15.625,-8.375 -2,-8.75 -5.5,-0.625 -6.375,-9 -22.875,-7 -8,-15.75 -26.5,-10.375 -15.5,3.375 0,0 -3.354,-3.0723 -3.479,-8.6973 -2.75,-5.25 -22.271,0.5723 -6.271,10.6973 -3.5835,-2.583 -3.3125,-2.167 -5.396,-4.75 -6.875,-1.6875 -1.729,14.75 11.271,9.375 6.4375,3.375 18.75,8.75 24.5,6.75 -0.147,0.126 0.3911,-0.4326 0.25,-0.3125 -3.2207,2.748 -5.5937,4.8428 -4.875,9.8125 -0.5625,0.5 -0.9375,-2.0625 -1.375,-1.625 -0.4375,0.4375 -1.25,9.875 1.25,13.625 -0.1875,0.625 -1.1875,-1.125 -1.25,-0.75 -0.0625,0.375 0.75,7.625 4.875,11 6.5,-3.25 8.25,-5.125 13.125,-4.875 z"
       inkscape:connector-curvature="0" /><path
       id="path56"
       style="fill:none;stroke:#231f20;stroke-width:1;stroke-linecap:butt;stroke-linejoin:miter;stroke-miterlimit:4;stroke-dasharray:none;stroke-opacity:1"
       d="m 247.25,287.625 c 0,0 -8.375,-10.375 1.375,-26.25 6.25,-0.5 5.875,-1.0625 6.375,-1.625 1.6875,0.25 15.625,-8.375 -2,-8.75 -5.5,-0.625 -6.375,-9 -22.875,-7 -8,-15.75 -26.5,-10.375 -15.5,3.375 0,0 -3.354,-3.0723 -3.479,-8.6973 -2.75,-5.25 -22.271,0.5723 -6.271,10.6973 -3.5835,-2.583 -3.3125,-2.167 -5.396,-4.75 -6.875,-1.6875 -1.729,14.75 11.271,9.375 6.4375,3.375 18.75,8.75 24.5,6.75 -0.147,0.126 0.3911,-0.4326 0.25,-0.3125 -3.2207,2.748 -5.5937,4.8428 -4.875,9.8125 -0.5625,0.5 -0.9375,-2.0625 -1.375,-1.625 -0.4375,0.4375 -1.25,9.875 1.25,13.625 -0.1875,0.625 -1.1875,-1.125 -1.25,-0.75 -0.0625,0.375 0.75,7.625 4.875,11 6.5,-3.25 8.25,-5.125 13.125,-4.875 z"
       inkscape:connector-curvature="0" /><path
       id="path58"
       style="fill:none;stroke:#231f20;stroke-width:1;stroke-linecap:butt;stroke-linejoin:miter;stroke-miterlimit:4;stroke-dasharray:none;stroke-opacity:1"
       d="m 247.25,287.625 c 0,0 -8.375,-10.375 1.375,-26.25 6.25,-0.5 5.875,-1.0625 6.375,-1.625 1.6875,0.25 15.625,-8.375 -2,-8.75 -5.5,-0.625 -6.375,-9 -22.875,-7 -8,-15.75 -26.5,-10.375 -15.5,3.375 0,0 -3.354,-3.0723 -3.479,-8.6973 -2.75,-5.25 -22.271,0.5723 -6.271,10.6973 -3.5835,-2.583 -3.3125,-2.167 -5.396,-4.75 -6.875,-1.6875 -1.729,14.75 11.271,9.375 6.4375,3.375 18.75,8.75 24.5,6.75 -0.147,0.126 0.3911,-0.4326 0.25,-0.3125 -3.2207,2.748 -5.5937,4.8428 -4.875,9.8125 -0.5625,0.5 -0.9375,-2.0625 -1.375,-1.625 -0.4375,0.4375 -1.25,9.875 1.25,13.625 -0.1875,0.625 -1.1875,-1.125 -1.25,-0.75 -0.0625,0.375 0.75,7.625 4.875,11 6.5,-3.25 8.25,-5.125 13.125,-4.875 z"
       inkscape:connector-curvature="0" /><path
       id="path60"
       style="fill:#ffffff;fill-opacity:1;fill-rule:nonzero;stroke:#231f20;stroke-width:1;stroke-linecap:butt;stroke-linejoin:miter;stroke-miterlimit:4;stroke-dasharray:none;stroke-opacity:1"
       d="m 239.6665,413.8335 c 0,-18.7769 -11.0664,-30.6665 -19.1665,-30.6665 -8.1001,0 -14.6665,11.8896 -14.6665,30.6665 0,18.7783 12.3999,34.1665 20.5,34.1665 8.1001,0 13.333,-15.3882 13.333,-34.1665 z"
       inkscape:connector-curvature="0" /><path
       id="path62"
       style="fill:#ffffff;fill-opacity:1;fill-rule:nonzero;stroke:#231f20;stroke-width:1;stroke-linecap:butt;stroke-linejoin:miter;stroke-miterlimit:4;stroke-dasharray:none;stroke-opacity:1"
       d="m 280.6665,411.6665 c 0,-18.7778 -13.7329,-31.3335 -21.833,-31.3335 -8.1001,0 -14.167,9.3897 -14.167,28.167 0,18.7783 13.7334,37.5835 21.8335,37.5835 8.1001,0 14.1665,-15.6387 14.1665,-34.417 z"
       inkscape:connector-curvature="0" /><path
       id="path64"
       style="fill:#231f20;fill-opacity:1;fill-rule:nonzero;stroke:none"
       d="m 272.1025,394.5479 c -0.54,-5.1729 -0.54,-5.2979 -2.79,-9.2354 -2,-1.625 -2,-1.875 -4.5625,-3.3125 -1.5,-1.125 -4.0532,-1.667 -5.9165,-1.667 -2.9585,0.417 -5.8335,1.9795 -5.8335,1.9795 0,0 -1.6875,1.25 -2.9697,3.5889 -0.4854,1.5713 -0.7578,3.3584 -0.7578,5.3574 0,8.9785 7.3183,19.1782 12.9668,19.1782 5.6489,0 9.8632,-6.9126 9.8632,-15.8891 z"
       inkscape:connector-curvature="0" /><path
       id="path66"
       style="fill:#231f20;fill-opacity:1;fill-rule:nonzero;stroke:none"
       d="m 232.7275,397.3604 c 0,-3.2588 -0.7959,-6.3897 -2.08,-9.0557 -1.96,-2.3672 -4.835,-3.4922 -5.8975,-4.1172 -1.0625,-0.625 -3.3794,-0.9375 -4.875,-0.9375 -2.4136,0 -3.3721,0.75 -5.3125,2.4375 -1.5825,1.377 -2.3125,2.0625 -3.6875,4 -0.9375,1.9375 -0.9775,2.3721 -0.9775,4.3838 0,8.9785 7.3183,19.1782 12.9668,19.1782 5.6489,0 9.8632,-6.9126 9.8632,-15.8891 z"
       inkscape:connector-curvature="0" /><path
       id="path68"
       style="fill:#ffffff;fill-opacity:1;fill-rule:nonzero;stroke:none"
       d="m 225.7275,403.5005 c 0,-3.6011 -2.2539,-6.813 -4.3613,-6.813 -2.1074,0 -4.1562,1.8931 -4.1562,5.4941 0,3.6016 2.7304,7.6929 4.8379,7.6929 2.1074,0 3.6796,-2.7729 3.6796,-6.374 z"
       inkscape:connector-curvature="0" /><path
       id="path70"
       style="fill:#ffffff;fill-opacity:1;fill-rule:nonzero;stroke:none"
       d="m 264.8838,400.8442 c 0,-3.601 -2.2539,-6.8129 -4.3613,-6.8129 -2.1075,0 -4.1563,1.8925 -4.1563,5.4941 0,3.6016 2.7305,7.6929 4.8379,7.6929 2.1074,0 3.6797,-2.773 3.6797,-6.3741 z"
       inkscape:connector-curvature="0" /><path
       id="path72"
       style="fill:#231f20;fill-opacity:1;fill-rule:nonzero;stroke:none"
       d="m 226.3125,454.9688 c 0.521,-0.2291 4.5,2.25 10.5,1.4375 0.625,2.3125 0.0313,2.9375 -0.5937,3.2187 -0.625,0.2813 -10.0313,-3.3125 -10.0313,-3.3125 0,0 -0.396,-1.1147 0.125,-1.3437 z"
       inkscape:connector-curvature="0" /><path
       id="path74"
       style="fill:#231f20;fill-opacity:1;fill-rule:nonzero;stroke:none"
       d="m 266.4165,455.75 c 0,0 5.417,-0.2495 9.3335,-3.4165 1.25,-0.167 1.4165,0.4165 1.4165,0.4165 0,0 -8.083,9.0005 -11.333,5.5835 -0.8335,-3.0835 0.583,-2.5835 0.583,-2.5835 z"
       inkscape:connector-curvature="0" /><path
       id="path76"
       style="fill:#231f20;fill-opacity:1;fill-rule:nonzero;stroke:none"
       d="m 229.5,449.5835 c 0,0 -11.083,-2.5835 -19,-11.3335 -0.0537,0.2676 -0.4282,0.3818 -0.25,0.8335 0.0991,0.2515 0.5918,0.7847 0.875,1.083 0.833,0.9165 7.6245,8.834 17.958,10.417 1.3335,-0.417 0.417,-1 0.417,-1 z"
       inkscape:connector-curvature="0" /><path
       id="path78"
       style="fill:#231f20;fill-opacity:1;fill-rule:nonzero;stroke:none"
       d="m 208.7085,435.6665 c 0,0 -1.9165,-1.375 -2.125,-2.625 -0.542,0.292 -0.542,0.7085 -0.542,0.7085 0,0 1.4585,2.625 1.9585,2.375"
       inkscape:connector-curvature="0" /><path
       id="path80"
       style="fill:#231f20;fill-opacity:1;fill-rule:nonzero;stroke:none"
       d="m 264.8125,446.25 c 0,0 13.625,-1.125 18.1875,-18.375 0.5,-1.25 1.375,0.1875 1.375,0.1875 0,0 -5,17.75 -19.4375,20.375 -1.3125,-1 -0.125,-2.1875 -0.125,-2.1875 z"
       inkscape:connector-curvature="0" /><path
       id="path82"
       style="fill:#231f20;fill-opacity:1;fill-rule:nonzero;stroke:none"
       d="m 194.9375,387.75 c 0,0 0.1875,2.4375 1.75,2.875 0.875,-0.625 0.4375,-0.9375 0.4375,-0.9375 0,0 -1.104,-0.917 -1.125,-2.0625 -0.6665,-0.542 -1.1875,-0.25 -1.0625,0.125 z"
       inkscape:connector-curvature="0" /><path
       id="path84"
       style="fill:#231f20;fill-opacity:1;fill-rule:nonzero;stroke:none"
       d="m 199.0625,387.125 c 0,0 -6,-2.4375 -6.25,-4.5 -0.25,-2.0625 0.75,-1.1875 0.75,-1.1875 0,0 2.75,4.1875 5.5625,4 1,0.8125 -0.0625,1.6875 -0.0625,1.6875 z"
       inkscape:connector-curvature="0" /><path
       id="path86"
       style="fill:#231f20;fill-opacity:1;fill-rule:nonzero;stroke:none"
       d="m 199.0625,383.0625 c 0,0 -2.479,-0.25 -3.1875,-2.1875 0.75,-0.25 -0.146,0.1045 0.4375,-0.25 0.5625,0.0625 1.125,1.6875 2.5625,1.4375 0.6875,0.25 0.1875,1 0.1875,1 z"
       inkscape:connector-curvature="0" /><path
       id="path88"
       style="fill:#231f20;fill-opacity:1;fill-rule:nonzero;stroke:none"
       d="m 196.8125,376.625 c 0,0 1.625,1.4688 3.3438,1 0.4687,1.0938 -0.5,1.625 -0.5,1.625 0,0 -2.5,-0.375 -3.2188,-1.375 -0.7187,-1 0.375,-1.25 0.375,-1.25 z"
       inkscape:connector-curvature="0" /><path
       id="path90"
       style="fill:#231f20;fill-opacity:1;fill-rule:nonzero;stroke:none"
       d="m 239.5,363.5 c 0,0 1.1245,-4.499 -2.3335,-5.208 -1.875,0.291 -1,1.416 -1,1.416 0,0 2.333,-0.25 2.25,3.25 0.125,1.042 1.0835,0.542 1.0835,0.542 z"
       inkscape:connector-curvature="0" /><path
       id="path92"
       style="fill:#231f20;fill-opacity:1;fill-rule:nonzero;stroke:none"
       d="m 237.625,368.333 c 0,0 5.9585,-1.582 3,-8.916 0.2915,-0.709 1.375,-0.834 1.375,-0.834 0,0 2.4585,7.667 -2.75,10.584 0,0 -1.0835,0.166 -1.625,-0.834 z"
       inkscape:connector-curvature="0" /><path
       id="path94"
       style="fill:#231f20;fill-opacity:1;fill-rule:nonzero;stroke:none"
       d="m 243.2915,366 c 0,0 1.625,0.126 1.7085,-2.583 0.2085,-0.667 1.0835,-0.167 1.0835,-0.167 0,0 0.083,2.833 -2.417,3.958 -0.875,-0.041 -0.375,-1.208 -0.375,-1.208 z"
       inkscape:connector-curvature="0" /><path
       id="path96"
       style="fill:#231f20;fill-opacity:1;fill-rule:nonzero;stroke:none"
       d="m 173.75,311.083 c 0,0 -0.1665,-2.749 1.5835,-2.916 1.75,-0.167 1.75,0.916 1.5,1.166 -0.25,0.25 -2.667,1.001 -1.667,1.834 -0.1665,0.916 -1.583,0.582 -1.4165,-0.084 z"
       inkscape:connector-curvature="0" /><path
       id="path98"
       style="fill:#231f20;fill-opacity:1;fill-rule:nonzero;stroke:none"
       d="m 180.5,324.583 c 0,0 -12.4165,9.666 -14.9165,-4.25 -0.0835,-0.75 1.833,0.417 1.833,0.417 0,0 0,2.334 1.25,2.667 0,-0.834 0.167,-2.166 0.667,-2.25 0,0 0,-3.166 0.25,-3.5 0.25,-0.334 -1.167,-0.334 -1.3335,-0.667 -0.1665,-0.333 -0.833,-1.917 -0.6665,-2.667 0.1665,-0.75 3.7495,-4.417 4.833,-4 1.0835,0.417 0.8335,2.334 0.8335,2.334 0,0 0.5005,2.916 0.0835,2.833 -0.417,-0.083 1.583,-1.25 1.9165,-1 0.3335,0.25 1.833,-1.166 2.1665,-0.583 0.3335,0.583 0.583,2.916 0.25,3.083 -0.333,0.167 2.2505,-3.166 3.917,-3.583 0.5,-1.584 1,-2.166 1.4165,-2.5 0.4165,-0.334 -0.583,-0.917 -0.6665,-1.417 -0.0835,-0.5 1.166,-1.5 1.833,-1.5 -0.1665,-0.917 -0.166,-2.084 0.167,-2.667 0,0 1.583,-0.25 1.583,0 0,0.25 1.0005,2.418 0.667,2.834 -0.3335,0.416 1.583,-1.334 3.083,-1.417 -0.9165,-1.083 -1.167,-1.751 -1.25,-2.417 0,0 0.9165,-0.834 1.75,-1 0.8335,-0.166 0.583,-0.833 1,-1.083 0.417,-0.25 3,1.083 3.25,1.75 0.25,0.667 0.75,5.999 0.3335,6.333 -0.4165,0.334 -4.833,10.417 -6.1665,10.667 -1.3335,0.25 -4,4.333 -8.0835,3.583 z"
       inkscape:connector-curvature="0" /><path
       id="path100"
       style="fill:#231f20;fill-opacity:1;fill-rule:nonzero;stroke:none"
       d="m 181.75,311.083 c 0,0 -2.5,-0.916 -2.5,-2.166 0,-1.25 -1.3335,0.249 -1.0835,0.666 0.25,0.417 1.6665,2.5 2.75,2.417 1.0835,-0.083 0.8335,-0.917 0.8335,-0.917 z"
       inkscape:connector-curvature="0" /><path
       id="path102"
       style="fill:#231f20;fill-opacity:1;fill-rule:nonzero;stroke:none"
       d="m 186.3335,331.917 c 0,0 3.2495,1 5.583,-1.667 1.5,-0.25 1.3335,0.75 1.3335,0.75 0,0 -1.9165,2.834 -6.5,2.417 -1.1665,-0.834 -0.4165,-1.5 -0.4165,-1.5 z"
       inkscape:connector-curvature="0" /><path
       id="path104"
       style="fill:#231f20;fill-opacity:1;fill-rule:nonzero;stroke:none"
       d="m 184.3335,333.75 c 0,0 2.083,1.667 2.833,1.417 0.75,-0.25 0,0.916 0,0.916 0,0 -3.1665,-0.917 -2.9165,-1.5 C 184.5,334 184.5,334 184.5,334"
       inkscape:connector-curvature="0" /><path
       id="path106"
       style="fill:#231f20;fill-opacity:1;fill-rule:nonzero;stroke:none"
       d="m 201.6665,326.25 c 0,0 2.5835,-0.584 2.3335,-5.917 0.8335,-0.5 0.9995,-0.083 1.4165,0.417 0.417,0.5 -1.4995,6.916 -3.083,6.583 -1,-0.666 -0.667,-1.083 -0.667,-1.083 z"
       inkscape:connector-curvature="0" /><path
       id="path108"
       style="fill:#231f20;fill-opacity:1;fill-rule:nonzero;stroke:none"
       d="m 204.8335,327.625 c 0.375,-0.25 2.375,0.334 2.5415,-4.958 1.2085,-0.667 1.25,0.166 1.25,0.166 0,0 -0.3335,6.833 -3.375,6.125 -0.2915,-0.541 -0.25,-0.75 -0.4165,-1.333 z"
       inkscape:connector-curvature="0" /><path
       id="path110"
       style="fill:#231f20;fill-opacity:1;fill-rule:nonzero;stroke:none"
       d="m 201.2085,335.167 c 0,-0.292 6.4585,3.208 7.625,-6.917 0.458,-0.042 0.708,0.458 0.708,0.458 0,0 0.834,8.584 -8.208,7.459 -1.167,-0.5 -0.125,-0.708 -0.125,-1 z"
       inkscape:connector-curvature="0" /><path
       id="path112"
       style="fill:#231f20;fill-opacity:1;fill-rule:nonzero;stroke:none"
       d="m 210.2915,334.625 c 0,0 2.417,-0.709 1.917,-4.167 0.9165,-0.458 1.2915,0.167 1.2915,0.167 0,0 -0.917,5.042 -2.5835,4.792 -1.6665,-0.25 -0.625,-0.792 -0.625,-0.792 z"
       inkscape:connector-curvature="0" /><path
       id="path114"
       style="fill:#231f20;fill-opacity:1;fill-rule:nonzero;stroke:none"
       d="m 214.3335,338.833 c 2.875,-1.416 2.083,-5.875 2.083,-5.875 0,0 -0.5415,-0.708 -1.208,0.084 1.0835,5.542 -1.3335,4.75 -1.3335,4.75"
       inkscape:connector-curvature="0" /><path
       id="path116"
       style="fill:#231f20;fill-opacity:1;fill-rule:nonzero;stroke:none"
       d="m 220.125,342.792 c 0,0 0.583,-3.334 -2.2085,-3.792 -0.7915,0.083 -0.5,0.958 -0.5,0.958 0,0 2.3755,-0.666 1.792,2.792 0.2915,1 0.9165,0.042 0.9165,0.042 z"
       inkscape:connector-curvature="0" /><path
       id="path118"
       style="fill:#231f20;fill-opacity:1;fill-rule:nonzero;stroke:none"
       d="m 206.6665,331.25 c 0,0 9.7915,1.916 10.625,5.458 0.2085,1.084 0.292,0.334 -0.333,0.834 -1,0.041 -0.792,-3.459 -10.2085,-5.5 -0.7085,-0.417 -0.0835,-0.792 -0.0835,-0.792 z"
       inkscape:connector-curvature="0" /><path
       id="path120"
       style="fill:#231f20;fill-opacity:1;fill-rule:nonzero;stroke:none"
       d="m 208.0415,336.792 c 0,0 5.3335,-0.167 4.9585,3.583 -1.4585,0.167 -1.5835,-2.542 -4.875,-2.417 -1.2085,-0.791 -0.0835,-1.166 -0.0835,-1.166 z"
       inkscape:connector-curvature="0" /><path
       id="path122"
       style="fill:#231f20;fill-opacity:1;fill-rule:nonzero;stroke:none"
       d="m 209.125,340.875 c 0,0 3.167,-0.208 3.3335,2.292 -0.0835,0.833 -0.917,0.5 -0.917,0.5 0,0 -1.291,-2.5 -2.583,-1.625 -0.917,-0.792 0.1665,-1.167 0.1665,-1.167 z"
       inkscape:connector-curvature="0" /><path
       id="path124"
       style="fill:#231f20;fill-opacity:1;fill-rule:nonzero;stroke:none"
       d="m 215.5625,314.625 c 0,0 8.8125,-6.625 14.9375,1.9375 0.25,1 -0.9375,0.6875 -0.9375,0.6875 0,0 -4.5,-8.0625 -13.25,-2 -1.5625,0.4375 -0.75,-0.625 -0.75,-0.625 z"
       inkscape:connector-curvature="0" /><path
       id="path126"
       style="fill:#231f20;fill-opacity:1;fill-rule:nonzero;stroke:none"
       d="m 218.4375,318.6875 c 0,0 2.25,-4.4375 9.25,-1.0625 0.875,0.875 -0.375,1.1875 -0.375,1.1875 0,0 -6.0625,-3.875 -8,0.8125 -1.0625,0.0625 -0.875,-0.9375 -0.875,-0.9375 z"
       inkscape:connector-curvature="0" /><path
       id="path128"
       style="fill:#231f20;fill-opacity:1;fill-rule:nonzero;stroke:none"
       d="m 218.4375,310.875 c 0,0 -2.0625,2.0625 0.125,4.9375 -0.0625,0.6875 -0.75,0.6875 -0.75,0.6875 0,0 -1.5625,-4.1875 -1.1875,-6.5625 1.75,-0.0625 1.8125,0.9375 1.8125,0.9375 z"
       inkscape:connector-curvature="0" /><path
       id="path130"
       style="fill:#231f20;fill-opacity:1;fill-rule:nonzero;stroke:none"
       d="m 221.25,318.875 c 0,0 -1.9375,-4.75 1.125,-7.6875 0.4375,-1.9375 -0.4375,-1.5 -0.4375,-1.5 0,0 -2.5625,0.9375 -1.625,9.5625 0.6875,0.6875 0.9375,-0.375 0.9375,-0.375 z"
       inkscape:connector-curvature="0" /><path
       id="path132"
       style="fill:#231f20;fill-opacity:1;fill-rule:nonzero;stroke:none"
       d="m 226.9375,320.8125 c 0,0 -5.1875,-0.75 -0.75,-6.6875 1.0625,-6.1875 0.5,-7 0.5,-7 0,0 -0.75,-0.5625 -1.125,-0.0625 -0.375,0.5 -0.25,5.1875 -0.25,5.1875 0,0 -5.375,7.375 1.375,9.75 1.25,-0.5625 0.25,-1.1875 0.25,-1.1875 z"
       inkscape:connector-curvature="0" /><path
       id="path134"
       style="fill:#231f20;fill-opacity:1;fill-rule:nonzero;stroke:none"
       d="m 232.625,313.8125 c 0,0 -11,-11.3125 0.9375,-11.625 0.6875,0.625 0,1.25 0,1.25 0,0 -9.125,-1.5 -0.4375,9 1,1.625 -0.5,1.375 -0.5,1.375 z"
       inkscape:connector-curvature="0" /><path
       id="path136"
       style="fill:#231f20;fill-opacity:1;fill-rule:nonzero;stroke:none"
       d="m 228.6875,309.0625 c 0,0 3.9375,-1.8125 1.625,-6 -2.3125,-4.1875 0.8125,-0.8125 0.8125,-0.8125 0,0 3.1875,4.25 -1.3125,8.4375 -1,-0.0625 -1.125,-1.625 -1.125,-1.625 z"
       inkscape:connector-curvature="0" /><path
       id="path138"
       style="fill:#231f20;fill-opacity:1;fill-rule:nonzero;stroke:none"
       d="m 236.625,308.375 c 0,0 -4.375,-1.875 -4.875,-3 -0.5,-1.125 -1,-0.75 -0.875,-0.0625 0.125,0.6875 5.0625,4.875 6.0625,4.0625 1,-0.8125 -0.3125,-1 -0.3125,-1 z"
       inkscape:connector-curvature="0" /><path
       id="path140"
       style="fill:#231f20;fill-opacity:1;fill-rule:nonzero;stroke:none"
       d="m 236.4375,306.6875 c 0,0 -4.3125,-0.3125 -4.5,-0.8125 -0.1875,-0.5 -0.25,-0.9375 -0.25,-0.9375 0,0 4.3125,1 4.5625,0.375 0.25,-0.625 0.1875,1.375 0.1875,1.375 z"
       inkscape:connector-curvature="0" /><path
       id="path142"
       style="fill:#231f20;fill-opacity:1;fill-rule:nonzero;stroke:none"
       d="m 241.6875,305.875 c 0,0 -3.4375,-2.375 0.625,-3.25 0.875,-1.875 -0.5625,-2.125 -0.5625,-2.125 0,0 -6.125,2.4375 -0.4375,6.3125 1.125,0.25 0.375,-0.9375 0.375,-0.9375 z"
       inkscape:connector-curvature="0" /><path
       id="path144"
       style="fill:#231f20;fill-opacity:1;fill-rule:nonzero;stroke:none"
       d="m 245.8125,305.3125 c 0,0 -4.125,-1.625 -0.625,-4.75 1.8125,-0.25 1.125,1.0625 1.125,1.0625 0,0 -3,1.3125 -0.3125,2.5 1.1875,1.25 -0.1875,1.1875 -0.1875,1.1875 z"
       inkscape:connector-curvature="0" /><path
       id="path146"
       style="fill:#231f20;fill-opacity:1;fill-rule:nonzero;stroke:none"
       d="m 247.3125,303.375 c 0,0 -0.125,-2.8125 2.6875,-2.125 2.8125,0.6875 0.5,0.75 0.5,0.75 0,0 -3.6875,0.25 -1.5625,1.4375 -0.625,0.75 -1.625,-0.0625 -1.625,-0.0625 z"
       inkscape:connector-curvature="0" /><path
       id="path148"
       style="fill:#231f20;fill-opacity:1;fill-rule:nonzero;stroke:none"
       d="m 274.0835,309.958 c 0,0 5.0415,-1.209 4.6665,4.5 0.2915,0.709 1.2085,0 1.2085,0 0,0 0.458,-5.834 -5.167,-6.25 -1.958,0.5 -0.708,1.75 -0.708,1.75 z"
       inkscape:connector-curvature="0" /><path
       id="path150"
       style="fill:#231f20;fill-opacity:1;fill-rule:nonzero;stroke:none"
       d="m 280.9165,310.375 c 0,0 4.0835,1.542 0.7085,5 -1,1.083 0.4165,1.25 0.4165,1.25 0,0 5,-5.333 -0.375,-6.958 -1.333,0.041 -0.75,0.708 -0.75,0.708 z"
       inkscape:connector-curvature="0" /><path
       id="path152"
       style="fill:#231f20;fill-opacity:1;fill-rule:nonzero;stroke:none"
       d="m 287.8335,307.167 c 0,0 3.0308,1.5928 3.583,4.416 0.5523,1.8858 1.0835,0.75 1.0835,0.75 0,0 -1.0835,-5.25 -3.5835,-6.25 -2.5,-1 -1.083,1.084 -1.083,1.084 z"
       inkscape:connector-curvature="0" /><path
       id="path154"
       style="fill:#231f20;fill-opacity:1;fill-rule:nonzero;stroke:none"
       d="m 292.6875,310.1875 c 0,0 6.3125,1.4063 3.0625,6.0625 -0.4687,1.3125 0.75,1.1563 0.75,1.1563 0,0 4.4688,-6.6563 -2.9687,-8.3125 -1.125,0.0625 -0.8438,1.0937 -0.8438,1.0937 z"
       inkscape:connector-curvature="0" /><path
       id="path156"
       style="fill:#231f20;fill-opacity:1;fill-rule:nonzero;stroke:none"
       d="m 300.4688,317.3125 c 0,0 3.3437,2.5625 1.4687,6.3125 0.125,1.4063 1.2813,0.75 1.2813,0.75 0,0 1,-7.25 -1.8438,-7.6562 -2.8437,-0.4063 -0.9062,0.5937 -0.9062,0.5937 z"
       inkscape:connector-curvature="0" /><path
       id="path158"
       style="fill:#231f20;fill-opacity:1;fill-rule:nonzero;stroke:none"
       d="m 306.5,318.9063 c 0.3335,-0.0313 6.2188,5.0937 2.375,13.8125 -0.75,-0.1641 -1.0937,-1.0313 -1.0937,-1.0313 0,0 0.5097,-0.6045 0.3017,-1.0625 -0.208,-0.458 -2.4995,-1.751 -3.333,0.208 -0.5,0.667 -0.9165,0.459 -1.1665,0.084 -0.25,-0.375 -1.125,-3.125 3.8335,-2.709 3,0.375 -1.3335,-7.666 -1.3335,-7.666 0,0 -0.8335,-0.875 0.4165,-1.6357 z"
       inkscape:connector-curvature="0" /><path
       id="path160"
       style="fill:#231f20;fill-opacity:1;fill-rule:nonzero;stroke:none"
       d="m 299.917,322.084 c 0,0 13.251,-1.459 13.833,5.416 0.834,0.375 2.5957,0.3047 3.125,2.167 0.166,0.583 0.416,6.417 0.291,6.458 -0.125,0.041 2.252,3.708 2.084,3.833 -0.166,0.125 -1.207,0.834 -1.25,0.667 -0.041,-0.167 -0.916,-1.708 -0.916,-1.875 0,-0.167 -0.543,-0.292 -0.543,-0.292 0,0 -0.582,2.208 -0.832,2.125 -0.25,-0.083 -1.375,0.041 -1.375,-0.167 0,-0.208 1.081,-3.29 1.374,-3.249 0.0723,0.01 -0.0596,-0.8711 -0.166,-1.5 -0.0479,-0.2861 -2.168,0.75 -2.334,0 -0.166,-0.75 2.2158,-1.2109 2.125,-1.542 0.625,-1.792 -0.041,-4.417 -0.041,-4.417 0,0 -1.333,-1.041 -1.875,-1.083 -6.292,-8.25 -13.3335,-4.209 -13.3335,-4.209 0,0 -1.083,-1.289 -0.1665,-2.332 z"
       inkscape:connector-curvature="0" /><path
       id="path162"
       style="fill:#231f20;fill-opacity:1;fill-rule:nonzero;stroke:none"
       d="m 310.167,332.583 c 0,0 2.375,-0.584 1.083,-7 0.292,-0.75 1.167,-0.291 1.167,-0.291 0,0 2.626,8.082 -1.75,9.166 -1.042,-1.125 -0.5,-1.875 -0.5,-1.875 z"
       inkscape:connector-curvature="0" /><path
       id="path164"
       style="fill:#231f20;fill-opacity:1;fill-rule:nonzero;stroke:none"
       d="m 305.4585,336.917 c 0,0 0.6655,-5.168 5.4995,-0.959 -0.041,0.792 -0.875,0.75 -0.875,0.75 0,0 -2.999,-2.749 -2.916,-0.041 -1.0005,1.333 -1.7085,0.25 -1.7085,0.25 z"
       inkscape:connector-curvature="0" /><path
       id="path166"
       style="fill:#231f20;fill-opacity:1;fill-rule:nonzero;stroke:none"
       d="m 311.167,342.958 -2.959,-2.291 c 0,0 0.167,-0.917 1.042,-0.917 0.875,0 2.875,2 2.875,2 0,0 -0.542,1.416 -0.875,1.333"
       inkscape:connector-curvature="0" /><path
       id="path168"
       style="fill:#231f20;fill-opacity:1;fill-rule:nonzero;stroke:none"
       d="m 316.875,342.083 c 0,0 4.084,-1 4.292,2 -0.917,0.75 -1.292,0.042 -1.292,0.042 0,0 -0.708,-1.834 -2.833,-0.667 -1.334,-0.75 -0.125,-1.25 -0.125,-1.25"
       inkscape:connector-curvature="0" /><path
       id="path170"
       style="fill:#231f20;fill-opacity:1;fill-rule:nonzero;stroke:none"
       d="m 318.125,349.417 c 0,0 3.833,-2.916 5.125,1.292 0,1.125 -1.292,0.25 -1.292,0.25 0,0 -0.416,-2.375 -3.041,-0.417 -1.5,0.25 -0.792,-1.125 -0.792,-1.125 z"
       inkscape:connector-curvature="0" /><path
       id="path172"
       style="fill:#231f20;fill-opacity:1;fill-rule:nonzero;stroke:none"
       d="m 320.4785,354.9785 c 0,0 2.9727,4.376 2.0645,5.4492 -0.7842,0.4541 -1.1153,-0.124 -1.1153,-0.124 0,0 0.2061,-0.9082 -1.5683,-4.417 -0.4541,-1.2383 0.6191,-0.9082 0.6191,-0.9082 z"
       inkscape:connector-curvature="0" /><path
       id="path174"
       style="fill:#231f20;fill-opacity:1;fill-rule:nonzero;stroke:none"
       d="m 322.708,355.8457 c 0.4121,-0.124 5.6553,-0.9502 2.8897,9.8242 -1.8164,0.5781 -1.4034,-1.4443 -1.4034,-1.4443 0,0 2.7647,-2.1045 -0.4961,-7.0176 -1.0732,-0.165 -1.4023,-1.2383 -0.9902,-1.3623 z"
       inkscape:connector-curvature="0" /><path
       id="path176"
       style="fill:#231f20;fill-opacity:1;fill-rule:nonzero;stroke:none"
       d="m 314.5762,372.6807 c 0,0 6.3154,-3.2227 3.7558,-8.875 -1.3623,-0.4512 -1.5273,1.0351 -1.5273,1.0351 0,0 2.1474,4.127 -2.2285,5.1182 -2.2705,1.6514 0,2.7217 0,2.7217 z"
       inkscape:connector-curvature="0" /><path
       id="path178"
       style="fill:#231f20;fill-opacity:1;fill-rule:nonzero;stroke:none"
       d="m 320.9736,369.0869 c 0,0 1.6104,7.3057 -3.7148,7.6777 -0.7012,0.9913 -0.7842,1.0733 -0.165,1.8995 0.7841,-1.2383 13.705,-0.083 2.9726,4.2099 0,0 -1.2383,0.8252 -0.124,1.5274 1.1142,0.7021 10.8144,1.6924 0.5361,4.8711 -1.6094,0.4951 -0.041,3.1787 0.2481,3.3437 0.289,0.1651 5.7363,0.5361 4.2099,4.582 0.5781,1.6514 1.8994,0.7432 1.8994,0.7432 0,0 0.9903,-4.0859 -3.1377,-7.0586 4.8711,-3.6328 3.3448,-7.1416 0.3311,-7.6367 0,0 5.4062,-4.2109 -2.3125,-7.4717 1.9814,-2.8896 0.7432,-6.5635 0.7432,-6.5635 0,0 -0.3721,-0.9912 -1.4864,-0.124 z"
       inkscape:connector-curvature="0" /><path
       id="path180"
       style="fill:#231f20;fill-opacity:1;fill-rule:nonzero;stroke:none"
       d="m 328.4873,391.9561 c 0,0 0.9072,-2.8067 -1.1562,-4.004 0.9492,-1.0732 2.7246,-6.8125 -0.6602,-7.5546 0,0 1.6094,-5.6973 -0.5371,-6.1094 -2.1465,-0.4121 -1.3203,0.7851 -1.3203,0.7851 0,0 1.4453,3.5079 0.165,4.9942 2.5586,2.5596 2.4356,5.2431 0.7432,6.8115 1.7334,3.3018 1.1553,4.54 1.1553,4.54 0,0 0.29,1.0323 1.6103,0.5372 z"
       inkscape:connector-curvature="0" /><path
       id="path182"
       style="fill:#231f20;fill-opacity:1;fill-rule:nonzero;stroke:none"
       d="m 319.6533,403.5146 c 0,0 2.8067,-0.248 4.169,-4.9125 0.8261,-0.4952 1.2382,0.4956 1.2382,0.4956 0,0 -0.5781,4.0869 -4.9121,6.0268 -1.4033,-0.9082 -0.4951,-1.6099 -0.4951,-1.6099 z"
       inkscape:connector-curvature="0" /><path
       id="path184"
       style="fill:#231f20;fill-opacity:1;fill-rule:nonzero;stroke:none"
       d="m 320.3965,398.3135 c 0,0 11.4746,5.4067 3.1367,12.9199 5.2432,3.0137 -0.8252,7.3481 -0.8252,7.3481 0,0 -1.1142,-0.5781 -0.4951,-1.7338 0.6191,-1.1558 4.333,-2.9717 -1.2803,-5.5313 -1.0312,-0.7432 -0.123,-1.4448 -0.123,-1.4448 0,0 8.875,-1.5278 -0.1241,-9.7007 -1.7753,-1.6099 -0.289,-1.8574 -0.289,-1.8574 z"
       inkscape:connector-curvature="0" /><path
       id="path186"
       style="fill:#231f20;fill-opacity:1;fill-rule:nonzero;stroke:none"
       d="m 316.0205,416.3525 c 0,0 7.1416,-2.6416 7.1416,7.4717 -1.1142,1.2798 -1.5273,-0.2065 -1.5273,-0.2065 0,0 0.4531,-7.1416 -4.9952,-5.5728 -1.4443,-0.6601 -0.6191,-1.6924 -0.6191,-1.6924 z"
       inkscape:connector-curvature="0" /><path
       id="path188"
       style="fill:#231f20;fill-opacity:1;fill-rule:nonzero;stroke:none"
       d="m 315.7314,422.2144 c 0,0 5.0352,-3.6739 5.3663,5.8203 -0.9493,1.1967 -1.4854,-0.0826 -1.4854,-0.0826 0,0 0.5361,-6.5219 -3.4268,-4.3754 -1.4853,-0.4541 -0.4541,-1.3623 -0.4541,-1.3623 z"
       inkscape:connector-curvature="0" /><path
       id="path190"
       style="fill:#231f20;fill-opacity:1;fill-rule:nonzero;stroke:none"
       d="m 315.7314,426.8374 c 0,0 2.5176,0.2886 1.9815,4.3755 -1.1553,1.0732 -1.1973,0.0825 -1.1973,0.0825 0,0 0.3301,-2.2705 -0.8252,-3.1372 -1.1552,-0.8667 0.041,-1.3208 0.041,-1.3208 z"
       inkscape:connector-curvature="0" /><path
       id="path192"
       style="fill:#231f20;fill-opacity:1;fill-rule:nonzero;stroke:none"
       d="m 313.1729,435.2998 c 0,0 1.8984,-3.1372 1.1142,-3.9629 -0.7842,-0.8257 -1.6103,-0.6191 -1.6103,-0.6191 0,0 0.8261,3.2197 -1.1553,3.4673 0,1.1972 1.6514,1.1147 1.6514,1.1147 z"
       inkscape:connector-curvature="0" /><path
       id="path194"
       style="fill:#231f20;fill-opacity:1;fill-rule:nonzero;stroke:none"
       d="m 274.4375,282.8125 1.0625,-0.75 c 0,0 1.5625,-0.1875 1.25,0.5625 -0.3125,0.75 -1.1875,1.5625 -1.1875,1.5625 0,0 -1.4375,-0.3125 -1.125,-1.375 z"
       inkscape:connector-curvature="0" /><path
       id="path196"
       style="fill:#231f20;fill-opacity:1;fill-rule:nonzero;stroke:none"
       d="m 273.7085,279.833 c 0,0 -2.8335,-2.583 2.4165,-1.666 0.3335,-1.416 -1.0415,-1.5 -1.0415,-1.5 0,0 -6.1255,-0.834 -2.792,3.666 1.292,0.792 1.417,-0.5 1.417,-0.5 z"
       inkscape:connector-curvature="0" /><path
       id="path198"
       style="fill:#231f20;fill-opacity:1;fill-rule:nonzero;stroke:none"
       d="m 270.7085,270.667 c 0,0 4.083,6.124 6.958,5.416 -0.25,-1.583 -0.333,-2 -0.333,-2 0,0 -2.708,-1 -5,-3.833 -1.875,-1.125 -1.625,0.417 -1.625,0.417 z"
       inkscape:connector-curvature="0" /><path
       id="path200"
       style="fill:#231f20;fill-opacity:1;fill-rule:nonzero;stroke:none"
       d="m 277.1665,272.708 c 0,0 -4.1665,-0.416 -4.6665,-6.333 0.5835,-1.208 1.875,-0.5 1.875,-0.5 0,0 -0.4585,4.041 2.5415,4.833 0.125,1.042 0.292,2.084 0.292,2.084"
       inkscape:connector-curvature="0" /><path
       id="path202"
       style="fill:#231f20;fill-opacity:1;fill-rule:nonzero;stroke:none"
       d="m 277.375,266.833 c 0,0 -2.6255,-1.374 -2.8335,-2.666 -0.208,-1.292 0.9585,-0.709 0.9585,-0.709 0,0 1.7085,2.334 2.125,2.084 0.4165,-0.25 -0.25,1.291 -0.25,1.291 z"
       inkscape:connector-curvature="0" /><path
       id="path204"
       style="fill:#231f20;fill-opacity:1;fill-rule:nonzero;stroke:none"
       d="m 278.375,262.583 c 0,0 -3.3335,-0.249 -1.5,-5.916 0.9165,-0.542 1.1665,0.25 1.1665,0.25 0,0 -1.6665,4.041 0.7085,4.583 -0.125,0.458 -0.375,1.083 -0.375,1.083 z"
       inkscape:connector-curvature="0" /><path
       id="path206"
       style="fill:#231f20;fill-opacity:1;fill-rule:nonzero;stroke:none"
       d="m 279.3335,255.75 c 0,0 -1.5005,-2.084 -0.792,-3.542 0.7085,-1.458 1.4585,-0.125 1.4585,-0.125 0,0 -0.4165,2.792 0.375,3.042 -0.0835,0.75 -1.0415,0.625 -1.0415,0.625 z"
       inkscape:connector-curvature="0" /><path
       id="path208"
       style="fill:#231f20;fill-opacity:1;fill-rule:nonzero;stroke:none"
       d="m 282.25,239.875 c 0,0 1.4375,-1.3125 0.375,-3.5625 0.25,-1.25 1.4375,-0.1875 1.4375,-0.1875 0,0 1.4375,2.9375 0.1875,3.8125 -1.25,0.875 -2,-0.0625 -2,-0.0625 z"
       inkscape:connector-curvature="0" /><path
       id="path210"
       style="fill:#231f20;fill-opacity:1;fill-rule:nonzero;stroke:none"
       d="m 280.3125,236.625 -1.5,-1.1875 c 0,0 0,-1.125 1,-1 1,0.125 1.5625,1.1875 1.5625,1.1875 0,0 -0.0625,1.375 -1.0625,1 z"
       inkscape:connector-curvature="0" /><path
       id="path212"
       style="fill:#231f20;fill-opacity:1;fill-rule:nonzero;stroke:none"
       d="m 251.875,223.583 c 0,0 8.5415,-4.666 10.7915,5.042 -0.5,0.792 -1.4165,0.083 -1.4165,0.083 0,0 -0.8335,-3.334 -1.9585,-3.5 -0.208,1.542 0.3335,2.918 -2.2915,3.084 0,0 -1.583,-0.626 -0.6665,-1.709 3.458,-0.5 0.583,-3.875 -1.9585,-1.5 0,0 -2.0415,0.041 -2.5,-1.5 z"
       inkscape:connector-curvature="0" /><path
       id="path214"
       style="fill:#231f20;fill-opacity:1;fill-rule:nonzero;stroke:none"
       d="m 239.8335,226.875 c 0,0 7.75,-5.626 4.875,2.833 -1.9585,0.5 -1.75,-1.291 -1.75,-1.291 0,0 2.958,-3.75 -1.3335,-0.792 -2.1665,0.625 -1.7915,-0.75 -1.7915,-0.75 z"
       inkscape:connector-curvature="0" /><path
       id="path216"
       style="fill:#231f20;fill-opacity:1;fill-rule:nonzero;stroke:none"
       d="m 202,242.167 c 0,0 -0.4995,-2.542 2.167,-1.875 1,0.792 0.0415,0.917 0.0415,0.917 0,0 -1.917,-0.666 -1.3335,0.625 -0.0415,0.916 -0.833,0.458 -0.833,0.458"
       inkscape:connector-curvature="0" /><path
       id="path218"
       style="fill:#231f20;fill-opacity:1;fill-rule:nonzero;stroke:none"
       d="m 205.667,238.667 c 0,0 2.958,-0.084 2.458,2.458 -0.625,1.042 -1.333,-0.041 -1.333,-0.041 0,0 0.917,-1.584 -1,-1.334 -1,-0.375 -0.125,-1.083 -0.125,-1.083 z"
       inkscape:connector-curvature="0" /><path
       id="path220"
       style="fill:#231f20;fill-opacity:1;fill-rule:nonzero;stroke:none"
       d="m 218.1665,237.334 c -0.708,0.375 1.75,-1.125 2.8335,1.375 2.3335,0.083 6.1245,4.333 2.1665,5.708 0,0 -1.208,-0.542 -0.7915,-1.542 0.4165,-1 0.292,-3 -1.4165,-2.458 -0.0835,0.917 -0.625,1.958 -0.625,1.958 0,0 -0.9585,-0.416 -0.9585,-1.041 0,-0.625 0.4165,-1.584 0.4165,-1.584 0,0 -1.125,-1.541 -1.5,-1.333 -0.375,0.208 -0.125,-1.083 -0.125,-1.083 z"
       inkscape:connector-curvature="0" /><path
       id="path222"
       style="fill:#231f20;fill-opacity:1;fill-rule:nonzero;stroke:none"
       d="m 243.125,248.625 2.3125,2.0625 c 0,0 -1.0625,1.125 -1.625,0.75 -0.5625,-0.375 -2.0625,-1.8125 -2.0625,-1.8125 0,0 0.625,-1.3125 1.375,-1 z"
       inkscape:connector-curvature="0" /><path
       id="path224"
       style="fill:#231f20;fill-opacity:1;fill-rule:nonzero;stroke:none"
       d="m 246.3125,249.6875 c 0,0 4.4375,1.3125 3.5625,3.75 -1,0.9375 -1.9375,0 -1.9375,0 0,0 -0.8125,-2.75 -1.75,-2.0625 -0.3125,-0.875 0.125,-1.6875 0.125,-1.6875 z"
       inkscape:connector-curvature="0" /><path
       id="path226"
       style="fill:#231f20;fill-opacity:1;fill-rule:nonzero;stroke:none"
       d="m 241.4375,265.1875 c 0,0 1.125,2.125 3.875,3.1875 -0.4375,0.9063 -0.5,1.4375 -0.5,1.4375 0,0 -4.4375,-2.3125 -4.5,-2.875 -0.0625,-0.5625 -0.4375,-2.0625 1.125,-1.75 z"
       inkscape:connector-curvature="0" /><path
       id="path228"
       style="fill:#231f20;fill-opacity:1;fill-rule:nonzero;stroke:none"
       d="m 244.125,273.1875 c 0.0313,-0.1562 -2.625,-1.125 -3.1875,-2.4375 -1.3125,-0.375 -1.3125,0.875 -1.3125,0.875 0,0 3.3125,3.8125 4.25,3.625 -0.0937,-0.8437 0.2188,-1.9062 0.25,-2.0625 z"
       inkscape:connector-curvature="0" /><path
       id="path230"
       style="fill:#231f20;fill-opacity:1;fill-rule:nonzero;stroke:none"
       d="m 239.125,272.6875 c 0,0 4.0625,5.8125 4.75,5.5 0.6875,-0.3125 -2.6875,4.4375 -2.6875,4.4375 l 3.4375,4.9375 -1.5,0.6875 c 0,0 -3.9375,-5.0625 -3.75,-5.1875 0.1875,-0.125 2.1875,-4.75 2.4375,-4.6875 0.25,0.0625 -3.875,-4.5 -3.6875,-4.6875 0.1875,-0.1875 0.125,-1 1,-1 z"
       inkscape:connector-curvature="0" /><path
       id="path232"
       style="fill:#231f20;fill-opacity:1;fill-rule:nonzero;stroke:none"
       d="m 235.4375,282.9375 c 0,0 4.125,6.625 3.25,7 -0.875,0.375 1.9375,-1 1.9375,-1 0,0 0.5625,-7.0625 4,-6.75 -0.4375,-0.5625 -0.5,-1.125 -0.5,-1.125 0,0 -6.75,2.875 -4.8125,5.4375 1.9375,2.5625 -2,-4.125 -2,-4.125 0,0 -1.0625,-0.6875 -1.875,0.5625 z"
       inkscape:connector-curvature="0" /><path
       id="path234"
       style="fill:#231f20;fill-opacity:1;fill-rule:nonzero;stroke:none"
       d="m 236.25,279.9375 1.5625,-2.5625 c 0,0 2.6875,0.375 2.1875,1.0625 -0.5,0.6875 -1.75,2.9375 -1.75,2.9375 0,0 -2.3125,-0.1875 -2,-1.4375 z"
       inkscape:connector-curvature="0" /></g></svg>