<?xml version="1.0" encoding="UTF-8" standalone="no"?>
<!-- Created with sK1/UniConvertor (http://sk1project.org/) -->

<svg
   xmlns:dc="http://purl.org/dc/elements/1.1/"
   xmlns:cc="http://creativecommons.org/ns#"
   xmlns:rdf="http://www.w3.org/1999/02/22-rdf-syntax-ns#"
   xmlns:svg="http://www.w3.org/2000/svg"
   xmlns="http://www.w3.org/2000/svg"
   xmlns:sodipodi="http://sodipodi.sourceforge.net/DTD/sodipodi-0.dtd"
   xmlns:inkscape="http://www.inkscape.org/namespaces/inkscape"
   width="595.276pt"
   height="841.89pt"
   viewBox="0 0 595.276 841.89"
   fill-rule="evenodd"
   version="1.1"
   id="svg766"
   sodipodi:docname="yun.svg"
   inkscape:version="0.92.4 (5da689c313, 2019-01-14)">
  <metadata
     id="metadata772">
    <rdf:RDF>
      <cc:Work
         rdf:about="">
        <dc:format>image/svg+xml</dc:format>
        <dc:type
           rdf:resource="http://purl.org/dc/dcmitype/StillImage" />
      </cc:Work>
    </rdf:RDF>
  </metadata>
  <defs
     id="defs770" />
  <sodipodi:namedview
     pagecolor="#ffffff"
     bordercolor="#666666"
     borderopacity="1"
     objecttolerance="10"
     gridtolerance="10"
     guidetolerance="10"
     inkscape:pageopacity="0"
     inkscape:pageshadow="2"
     inkscape:window-width="1366"
     inkscape:window-height="715"
     id="namedview768"
     showgrid="false"
     inkscape:zoom="0.14866301"
     inkscape:cx="-194.93503"
     inkscape:cy="582.06106"
     inkscape:window-x="-8"
     inkscape:window-y="22"
     inkscape:window-maximized="1"
     inkscape:current-layer="svg766" />
  <g
     id="g400"
     transform="matrix(1.4980241,0,0,1.4980241,-464.96763,-285.42598)">
    <path
       style="fill:#cd864d;stroke:none"
       d="m 644.75,410.64 25.5,45.5 8,13.75 12.25,11.5 1.75,7.5 -9.5,6.75 -1,12 0.25,5.75 c 0,0 -8.25,12.25 -10,13 -1.75,0.75 -9,5.25 -9,5.25 l -25.25,7.25 -3.25,0.75 -25.5,16.75 -10.25,2 -6.5,-1 -8.5,-0.5 -6.75,1.75 c 0,0 -15,1 -17.75,-2.75 l 1.5,-10.25 -4,-30 -9,-22.25 -3.25,-21 25,-19 z"
       id="path2"
       inkscape:connector-curvature="0" />
    <path
       style="fill:#cc9e79;stroke:none"
       d="m 552.75,422.64 6.25,-0.5 10.25,-20.25 c 0,0 7.5,-5 10.5,-5.75 3,-0.75 7.25,-2.75 7.25,-2.75 0,0 -1.25,-9.25 0.25,-11.5 1.5,-2.25 11,-13.5 11,-13.5 l 8.75,-7.5 13,-4.25 -5.25,-11.25 c 0,0 -10,-8 -12.25,-8.5 -2.25,-0.5 -10.5,-1.5 -10.5,-1.5 l -7.25,0.75 -12.5,2.25 -9,2.5 -2.25,2.75 1.75,6.25 10.5,12.25 -4.5,14.75 c 0,0 -7.25,17.5 -8.25,18.25 -1,0.75 -9,11.5 -9,11.5 l -4,7.25 0.75,4.25 -1,4 z"
       id="path4"
       inkscape:connector-curvature="0" />
    <path
       style="fill:#fadeab;stroke:none"
       d="m 548.75,421.64 c 0,0 3.75,-1.25 4.5,-3 0.75,-1.75 2,-7.5 5.75,-10.25 3.75,-2.75 10.5,-12.5 10.5,-12.5 0,0 8,-9.75 8.75,-11.25 0.75,-1.5 1.25,-3 1.25,-4.25 0,-1.25 12.5,-21.25 12.75,-23.5 0.25,-2.25 2.5,-8.25 1.5,-9.5 -1,-1.25 -15.25,-5.5 -19,-5.75 -3.75,-0.25 -8.25,-1.25 -10.75,0 -2.5,1.25 -5.25,4 -5.25,4 0,0 -10.25,20.5 -11,22.75 -0.75,2.25 -3.75,10.25 -3.75,10.25 l -7.5,8.75 c 0,0 -7.75,9.25 -8,11 -0.25,1.75 1,8.75 2,11.5 1,2.75 4.75,7 4.75,7 l 4.75,4.25 z"
       id="path6"
       inkscape:connector-curvature="0" />
    <path
       style="fill:#cc9e79;stroke:none"
       d="m 631.75,403.39 c 0,0 19.5,27 20.75,30.25 1.25,3.25 6.5,14.75 6.5,14.75 l 4.75,13.5 h 2.75 c 0,0 5.5,9 6.75,10 1.25,1 5.75,6 5.75,6 l 11.5,12 7.5,-6.75 8,-12.75 -2.25,-9 -3,-6.75 -1.75,-6.5 -2.25,-5.25 c 0,0 -0.25,-39.25 -2.5,-46.5 l -4,-19.75 -7,-14.75 c 0,0 -5.75,-5.75 -7.25,-5.5 -1.5,0.25 -10,0.25 -10,0.25 l -16,9.5 -13,12.25 -5.25,12.25 -1.5,7.25 -0.75,3.5 z"
       id="path8"
       inkscape:connector-curvature="0" />
    <path
       style="fill:#fadeab;stroke:none"
       d="m 630.75,400.64 c 0,0 7.75,-16.75 8.75,-18 1,-1.25 22.25,-19 22.25,-19 l 11.25,-6 3,-1.25 -8,-1.75 -16,-1.75 -19.75,1.25 -10.75,1.5 -14,5 -8.75,8 -9.75,11 c 0,0 -3,7.75 -2.75,10 0.25,2.25 0.75,3.5 0.75,3.5 l 16,-4.5 10.25,-1.25 4,1.25 8.75,9.25 2.75,3 z"
       id="path10"
       inkscape:connector-curvature="0" />
    <path
       style="fill:#cc9e79;stroke:none"
       d="m 591,447.39 c 0,0 30.75,-3 50,-30 l -10.25,-14.5 -11,-11 -3.25,-2.75 -14.75,1.5 -12,5.5 -8.75,8.75 -5.75,8.75 -0.5,6.75 2.25,4.25 7,8.75 5.25,8.75 z"
       id="path12"
       inkscape:connector-curvature="0" />
    <path
       style="fill:#fadeab;stroke:none"
       d="m 576,423.14 c 0,0 1.5,-8.75 2.5,-10.5 1,-1.75 13.75,-13.5 18.25,-16 4.5,-2.5 15.5,-6.25 18.5,-6.25 3,0 3,0 3,0 l -5.25,-2.5 c 0,0 -14.75,1 -21,3.5 -6.25,2.5 -19.5,7.5 -19.5,7.5 l -12.5,19.25 -1.75,7 9.25,-2.75 z"
       id="path14"
       inkscape:connector-curvature="0" />
    <path
       style="fill:#f8df7c;stroke:none"
       d="m 680,479.64 c 0,0 -1,5.75 -0.25,6.25 0.75,0.5 4,1.5 5.25,1.5 1.25,0 2,-1.25 2,-1.25 z"
       id="path16"
       inkscape:connector-curvature="0" />
    <path
       style="fill:#f8df7c;stroke:none"
       d="m 645.5,497.39 c 2,1.25 13,11.5 13.75,14.5 0.75,3 0.5,14.5 0.5,14.5 0,0 -2.5,2.75 -5.25,2.75 -2.75,0 -7.75,-1.5 -7.75,-2.75 0,-1.25 -3.25,-30.25 -1.25,-29 z"
       id="path18"
       inkscape:connector-curvature="0" />
    <path
       style="fill:#f8df7c;stroke:none"
       d="m 588.75,526.14 c 1,0.75 3.5,-1 13,16.25 v 9.5 l -13.75,-0.5 -1.75,-3.25 c 0,0 1.5,-22.75 2.5,-22 z"
       id="path20"
       inkscape:connector-curvature="0" />
    <path
       style="fill:#cc9e79;stroke:none"
       d="m 550.5,477.64 c 0,0 39.5,-12.5 43.5,-23 l -7.75,-16.75 -8.5,-12.5 -2.5,-1 -25.75,11 -11,17.75 z"
       id="path22"
       inkscape:connector-curvature="0" />
    <path
       style="fill:#fadeab;stroke:none"
       d="m 538.75,452.64 c 0,0 8.25,-13.75 18.75,-19.25 10.5,-5.5 19.25,-8.75 19.25,-8.75 0,0 -3,-3.25 -10.25,-2.25 -7.25,1 -21,7.5 -21,7.5 0,0 -10.25,6 -13,9.75 -2.75,3.75 -6,9 -6,9 v 1.5 c 0,0 5.75,-0.25 7.5,0.75 1.75,1 3,2.25 3,2.25 z"
       id="path24"
       inkscape:connector-curvature="0" />
    <path
       style="fill:#cc9e79;stroke:none"
       d="m 566.5,558.64 c 2,0.5 9,0.75 9,0.75 l 4.75,-1.25 c 0,0 -5.25,3 -6.75,3.25 -1.5,0.25 -7,0 -7,0 0,0 -2,-3.25 0,-2.75 z"
       id="path26"
       inkscape:connector-curvature="0" />
    <path
       style="fill:#fadeab;stroke:none"
       d="m 559.5,555.89 c 2.75,0.5 6.75,2.75 6.75,2.75 v 2.5 c 0,0 -4,0.25 -5,0.25 -1,0 -5.25,-1.25 -5.25,-1.25 l -1,-1 c 0,0 1.75,-3.75 4.5,-3.25 z"
       id="path28"
       inkscape:connector-curvature="0" />
    <path
       style="fill:#cc9e79;stroke:none"
       d="m 530.25,451.89 c 0.5,2.75 8,0.75 8.5,2 0.5,1.25 21.75,45.5 23,53.75 1.25,8.25 0.25,1.25 0.25,1.25 l 3,4 c 0,0 3.25,23 1.75,24 l -5.25,17.5 c 0,0 -6.5,2.75 -8.25,4.25 -1.75,1.5 -8,3.5 -9.75,3.75 -1.75,0.25 -10.75,-0.25 -10.75,-0.25 0,0 -9.75,-6 -10.5,-7.5 -0.75,-1.5 -14.25,-18 -14.25,-18 l -2,-11 2,-26.25 5.25,-33.5 c 0,0 16.5,-16.75 17,-14 z"
       id="path30"
       inkscape:connector-curvature="0" />
    <path
       style="fill:#fadeab;stroke:none"
       d="m 467.75,450.64 c 0,0 15.25,-0.5 19,-0.25 3.75,0.25 8.75,-3.25 15.75,-0.25 7,3 12.75,2.75 12.75,2.75 l 9,-2.5 c 0,0 11,-0.25 12.5,1.25 1.5,1.5 4.5,6.75 4.5,6.75 0,0 -2.5,-3.75 -7,-3.5 -4.5,0.25 -6.5,0.75 -8.75,2.25 -2.25,1.5 -7.25,6.25 -8.75,7.75 -1.5,1.5 -3.25,2.5 -3.5,6 -0.25,3.5 0.5,44 0.5,45 0,1 -3.25,7.5 -3.75,9.5 -0.5,2 -2,6.25 -2,6.25 l -3.5,0.5 -3,-8 -16.75,-3 -5.75,-2.5 c 0,0 -5.75,11.75 -6.75,12.75 -1,1 -7.5,9 -9.5,9 -2,0 -14.25,-0.25 -14.25,-0.25 0,0 -6.5,-13.25 -9,-16.75 -2.5,-3.5 -3.5,-29 -3.5,-30 0,-1 11.75,-27 11.75,-27 0,0 8.75,-10.25 9.75,-10.75 1,-0.5 10.25,-5 10.25,-5 z"
       id="path32"
       inkscape:connector-curvature="0" />
    <path
       style="fill:#cc9e79;stroke:none"
       d="m 459.25,539.14 c 0,0 6.25,-4 8,-6.5 1.75,-2.5 6,-7.25 6.75,-10 0.75,-2.75 1.25,-3.75 0.75,-6 -0.5,-2.25 -2,-4 -2,-4 0,0 -0.25,-1 2.75,1 3,2 5.5,2.75 8,4 2.5,1.25 5.25,2.5 10,3 4.75,0.5 9.5,0.75 9.5,0.75 l 1.75,2.25 -0.75,4.5 4.25,6.75 6.25,7.25 -5.5,9 -15.75,5.5 -20,-7.25 -9.75,-4 z"
       id="path34"
       inkscape:connector-curvature="0" />
    <path
       style="fill:#cc9e79;stroke:none"
       d="m 473.75,452.14 c 0,-1 7.75,-1.25 9.5,-0.75 1.75,0.5 7.75,-1.5 7.75,-1.5 l 5.5,0.5 -4.75,-3 -12,0.5 -6.25,0.5 c 0,0 0.25,4.75 0.25,3.75 z"
       id="path36"
       inkscape:connector-curvature="0" />
    <path
       style="fill:#cc9e79;stroke:none"
       d="m 490.25,449.14 c 0,0 18,3.5 20.5,5 2.5,1.5 4,1.75 4,1.75 l 7.25,-4 c 0,0 -4.25,-2.25 -5.5,-2.25 -1.25,0 -20,-2.25 -23.25,-2 -3.25,0.25 -3,1.5 -3,1.5 z"
       id="path38"
       inkscape:connector-curvature="0" />
    <path
       style="fill:#f6db96;stroke:none"
       d="m 319.125,630.39 c 0.625,0 5.375,-17.875 5.5,-18.625 0.125,-0.75 1.25,-6.875 1.25,-6.875 0,0 -0.375,-1.125 3,-2.875 3.375,-1.75 9.25,-3.25 9.25,-3.25 l 6.375,-0.125 4.875,5.375 9.5,5.625 3.75,8.5 c 0,0 1.375,2.75 0.625,3.375 -0.75,0.625 -0.625,1.625 -0.625,1.625 0,0 2.625,0.375 5,2.75 2.375,2.375 3.125,3 3.125,3 l -5,13.875 -4.25,5.625 -31.875,-3 -2.375,-4.625 -4,-1.625 c 0,0 -3.25,-1 -3.875,-3.75 -0.625,-2.75 -0.875,-5 -0.25,-5 z"
       id="path40"
       inkscape:connector-curvature="0" />
    <path
       style="fill:#f8df7c;stroke:none"
       d="m 322.75,638.015 c 0,0 9.75,-8.125 10.375,-9.125 0.625,-1 5.125,-8.25 5.125,-8.25 l 0.5,3 c 0,0 2.375,4.125 4.5,4.75 2.125,0.625 6.25,2.125 6.25,2.125 0,0 3.5,1.25 4.25,0.75 0.75,-0.5 1.875,-0.75 1.875,-0.75 0,0 -1.75,2.875 -1.625,4 0.125,1.125 4.625,5 4.625,5 l 4.875,2 0.75,2.875 c 0,0 -2.875,4.375 -3.75,4.375 -0.875,0 -27.25,-1.125 -27.25,-1.125 l -5.125,-1.625 v -4 c 0,0 -2.125,-2.375 -2.875,-2.375 -0.75,0 -2.625,-0.75 -2.625,-0.75 z"
       id="path42"
       inkscape:connector-curvature="0" />
    <path
       style="fill:#cd864d;stroke:none"
       d="m 363.125,642.515 c 0,0 -1.625,3 -2.25,3 -0.625,0 2,1.875 2,1.875 l 2.625,-0.125 4.375,-1.875 c 0,0 -1,-2.125 -3,-2.625 -2,-0.5 -3.375,-1.125 -3.375,-1.125 z"
       id="path44"
       inkscape:connector-curvature="0" />
    <path
       style="fill:#c19070;stroke:none"
       d="m 368.375,627.39 c 0,0 -0.5,4.125 -1,5.875 -0.5,1.75 -2.125,7.125 -3,7.75 -0.875,0.625 0.5,1.75 0.5,1.75 l 1.875,-0.25 c 0,0 4.25,-10 4,-10.875 -0.25,-0.875 0.75,-2.25 -0.125,-3 -0.875,-0.75 -2.25,-1.25 -2.25,-1.25 z"
       id="path46"
       inkscape:connector-curvature="0" />
    <path
       style="fill:#c19070;stroke:none"
       d="M 348.375,609.265 339.5,609.14 c 0,0 -4.5,13.125 -5,14.75 -0.5,1.625 -0.5,2.875 -0.5,2.875 l 7.625,-10 c 0,0 3.875,-6.125 4.875,-6 1,0.125 1.875,-1.5 1.875,-1.5 z"
       id="path48"
       inkscape:connector-curvature="0" />
    <path
       style="fill:#c19070;stroke:none"
       d="m 371.875,631.14 c 0,0 3,-0.375 4.25,0 1.25,0.375 2.25,2.375 3,3.375 0.75,1 1.125,2.375 1.125,2.375 l 0.5,5.875 -9.75,5.75 -0.25,-3.375 c 0,0 -3.25,-1.5 -3.625,-2.125 -0.375,-0.625 2.75,-7.875 2.75,-7.875 L 371,631.265 Z"
       id="path50"
       inkscape:connector-curvature="0" />
    <path
       style="fill:#ac7d49;stroke:none"
       d="m 337.625,642.14 c 0,0 2.125,-3.625 3.5,-3.625 1.375,0 2.625,0.25 3.375,2.125 0.75,1.875 1.25,2.125 1.25,3.25 0,1.125 -4.375,0.5 -4.375,0.5 l -4.625,-0.5 z"
       id="path52"
       inkscape:connector-curvature="0" />
    <path
       style="fill:#c19070;stroke:none"
       d="m 363.25,618.765 c -0.5,0.25 1.375,0.5 2.25,-0.25 0.875,-0.75 4.125,-5.75 4.125,-5.75 l 1.5,8.75 -0.75,6.125 -7.75,-4.875 c 0,0 1.125,-4.25 0.625,-4 z"
       id="path54"
       inkscape:connector-curvature="0" />
    <path
       style="fill:#c19070;stroke:none"
       d="m 362.875,618.765 c 0.375,0.875 2.5,0.375 2.5,0.375 l 3.125,-3.875 1.125,-2.375 -1.5,-1.625 c 0,0 -0.625,2 -1.75,3 -1.125,1 -4.125,2.125 -4.125,2.125 0,0 0.25,1.5 0.625,2.375 z"
       id="path56"
       inkscape:connector-curvature="0" />
    <path
       style="fill:#f5d49d;stroke:none"
       d="m 344.625,599.015 5.625,7.875 v 2.75 l 6.25,0.875 3.25,3.125 2.625,3.125 c 0,0 5.75,-4.625 5.25,-5.375 -0.5,-0.75 -4.75,-11 -5.625,-11.875 -0.875,-0.875 -1.375,-5.125 -3.375,-6.125 -2,-1 -4.125,-1 -4.125,-1 0,0 -7.5,3 -8,3.5 -0.5,0.5 -1.875,3.125 -1.875,3.125 z"
       id="path58"
       inkscape:connector-curvature="0" />
    <path
       style="fill:#f8df7c;stroke:none"
       d="m 401.5,584.64 c 0,0 -8.25,11.5 -9.75,12.75 -1.5,1.25 -21.5,13.25 -21.5,13.25 l -1.25,0.25 c 0,0 1.25,6.25 1.625,8.625 0.195,1.234 0.125,8.125 0.125,8.125 l 0.25,3.25 h 4.75 l 4.5,5.25 3.25,4 c 0,0 12.75,-4.75 13.5,-6.25 0.75,-1.5 15.5,-16 16.25,-17 0.75,-1 2.5,-9.75 2.5,-9.75 l -5.5,-17.25 -3.75,-10.5 z"
       id="path60"
       inkscape:connector-curvature="0" />
    <g
       id="g66">
      <path
         style="fill:none;stroke:none"
         d="m 338.5,619.14 c 0,0 -0.75,6.75 5,9.25 5.75,2.5 9.25,3.5 10.5,2.5 1.25,-1 -0.75,3.75 0.75,5 1.5,1.25 3.25,4 5,4.25 1.75,0.25 4.25,2.25 5.25,2.25 1,0 2,0.25 2,0.25 0,0 0.5,1 2,1.25 1.5,0.25 3.25,1 3.25,1"
         id="path62"
         inkscape:connector-curvature="0" />
      <path
         style="fill:none;stroke:#2c2c2b;stroke-width:1"
         d="m 338.5,619.14 c 0,0 -0.75,6.75 5,9.25 5.75,2.5 9.25,3.5 10.5,2.5 1.25,-1 -0.75,3.75 0.75,5 1.5,1.25 3.25,4 5,4.25 1.75,0.25 4.25,2.25 5.25,2.25 1,0 2,0.25 2,0.25 0,0 0.5,1 2,1.25 1.5,0.25 3.25,1 3.25,1"
         id="path64"
         inkscape:connector-curvature="0" />
    </g>
    <path
       style="fill:#cd864d;stroke:none"
       d="m 380.75,621.14 -5.25,9.5 -4.25,0.75 -0.75,-2.75 z"
       id="path68"
       inkscape:connector-curvature="0" />
    <path
       style="fill:#d29f75;stroke:none"
       d="m 372.25,519.39 c -2,0 4.5,17.75 5.5,18.75 1,1 3.5,5.75 3.5,5.75 l 3.75,1 c 0,0 3.75,-6 2.5,-6.75 -1.25,-0.75 -8.25,-12.75 -8.25,-12.75 0,0 -5,-6 -7,-6 z"
       id="path70"
       inkscape:connector-curvature="0" />
    <path
       style="fill:#f6db96;stroke:none"
       d="m 373.75,521.89 c 2.25,7.25 8,11 8,11 l 6.75,-14 7,-17.5 7,-11 1.5,-5.5 -9.25,-0.75 -8.25,5.25 -0.5,3.75 c 0,0 -13.75,16.25 -13.5,17.25 0.25,1 -1,4.25 1.25,11.5 z"
       id="path72"
       inkscape:connector-curvature="0" />
    <path
       style="fill:none;stroke:#2c2c2b;stroke-width:1"
       d="m 400.25,484.64 c 0,0 -10,3.75 -12.25,6.5 -2.25,2.75 -14,16 -15.75,19.25 -1.75,3.25 2.75,19.5 3.5,21.75 0.75,2.25 5.25,11.75 5.25,11.75 l 7.5,7.5 14.5,30.5 -9,13 c 0,0 -5.75,5.75 -8.25,7.25 -2.5,1.5 -15.25,8.5 -15.25,8.5 l -2.25,-0.25 c 0,0 -3.75,-5.5 -5.5,-9.5 -1.75,-4 -3.25,-7 -4.5,-7.5 -1.25,-0.5 -2.25,-2 -4.5,-1 -2.25,1 -8,3.5 -8,3.5 l -1,2.75 c 0,0 -8.25,-0.25 -10.5,1.25 -2.25,1.5 -8.25,3 -8,4 0.25,1 -6.25,25.75 -7.25,26.5 -1,0.75 0.5,6.25 2.25,7.5 1.75,1.25 5.25,2.5 5.25,2.5 0,0 1.5,1.5 1.75,2.75 0.25,1.25 2.5,5.75 2.5,5.75 l 10,2.75 20,2 44.25,-4.75 20.75,-21.25 13,-35.75 -8.25,-36.5 -16,-70 z"
       id="path74"
       inkscape:connector-curvature="0" />
    <path
       style="fill:none;stroke:#2c2c2b;stroke-width:2"
       d="m 480.75,448.39 c 0,0 10,-2.25 24.25,-0.25 14.25,2 18.75,2.25 18.75,2.25 l 3.25,-1 c 0,0 2.75,-13.5 23.5,-21.75 l 7.25,-2.75 -0.75,-1.25 c 0,0 -15.25,-1.5 -17,-2.5 -1.75,-1 -12.75,-10.25 -12.5,-20.75 0,0 2.5,-6.75 15.75,-22 0,0 14.25,-31.5 15.5,-34.25 1.25,-2.75 2,-3.25 8.25,-4.75 6.25,-1.5 22.5,-6.5 36,-2 13.5,4.5 16.75,18.25 16.75,18.25 0,0 22.75,-3.5 36.5,-2.25 13.75,1.25 20.5,2.5 22.5,4.25 2,1.75 5.25,1.5 12.25,20.75 0,0 5.25,28.25 5.75,40.5 0.5,12.25 -0.75,24.75 0.75,27 1.5,2.25 2.25,3 2.5,4.25 0.25,1.25 0.5,5 1.25,6 0.75,1 4.25,6 4.25,7.5 0,1.5 2.5,2.5 0,8 -2.5,5.5 -9,14 -9,14 0,0 -11.25,7.75 -13,9.75 -1.75,2 -1.25,5.75 -1.25,5.75 0,0 0,10.25 -0.5,12.25 -0.5,2 -9.25,13.75 -19.5,18.75 0,0 -18.75,5 -21.25,5.75 -2.5,0.75 -5.5,0.75 -8.5,2.5 -3,1.75 -13.25,8.75 -15.25,10.25 -2,1.5 -8.5,5.5 -11,6.25 -2.5,0.75 -9.5,1.75 -10.75,1.25 -1.25,-0.5 -4.75,-1.5 -7.75,-1.5 -3,0 -4.25,0.25 -6.5,1.25 -2.25,1 -6.5,3.5 -8,3.5 -1.5,0 -7.75,0.5 -11.75,0 -4,-0.5 -5.25,-1 -6.25,-1.5 -1,-0.5 -0.75,-0.75 -2.75,0 -2,0.75 -13,4.25 -23.25,0.75 0,0 -9.75,-9.75 -10.75,-10.25 -1,-0.5 -3.5,-3.25 -3.5,-3.25 l -13.25,7.25 -26.75,-0.75 -19.25,-9.5 -10.25,-17 -8.5,-42.75 14.75,-24.75 15,-8.5 z"
       id="path76"
       inkscape:connector-curvature="0" />
    <path
       style="fill:none;stroke:#2c2c2b;stroke-width:1"
       d="m 322.25,638.89 c 0,0 10.25,-9 10.75,-10 0.5,-1 10.75,-16.75 12.75,-17.5 2,-0.75 2,-2.5 5.25,-1.75 3.25,0.75 4.25,0.25 5.75,1.25 1.5,1 5,4.75 5.25,6 0.25,1.25 1.75,2.5 1.25,4.5 -0.5,2 -3.75,1.5 -3.75,1.5 l -4.5,8.5 -6.75,7.5"
       id="path78"
       inkscape:connector-curvature="0" />
    <path
       style="fill:none;stroke:#2c2c2b;stroke-width:1"
       d="m 357.25,610.64 c 0,0 2.5,-4.25 5.5,-4 3,0.25 3.75,2 3.75,2 0,0 2,2.25 1.5,3.5 -0.5,1.25 -4,4 -5,4.25 -1,0.25 -3,-1.75 -3,-1.75 z"
       id="path80"
       inkscape:connector-curvature="0" />
    <g
       id="g86">
      <path
         style="fill:none;stroke:none"
         d="m 362.75,618.64 c 0,0 2.5,0.75 3.5,-0.5 1,-1.25 3.5,-4.75 3,-5.75 l -1.25,-2"
         id="path82"
         inkscape:connector-curvature="0" />
      <path
         style="fill:none;stroke:#2c2c2b;stroke-width:1"
         d="m 362.75,618.64 c 0,0 2.5,0.75 3.5,-0.5 1,-1.25 3.5,-4.75 3,-5.75 l -1.25,-2"
         id="path84"
         inkscape:connector-curvature="0" />
    </g>
    <g
       id="g92">
      <path
         style="fill:none;stroke:none"
         d="m 343.875,598.515 c 0,0 6.125,7.125 6.375,7.875 0.25,0.75 0.25,3.75 0.25,3.75"
         id="path88"
         inkscape:connector-curvature="0" />
      <path
         style="fill:none;stroke:#2c2c2b;stroke-width:1"
         d="m 343.875,598.515 c 0,0 6.125,7.125 6.375,7.875 0.25,0.75 0.25,3.75 0.25,3.75"
         id="path90"
         inkscape:connector-curvature="0" />
    </g>
    <g
       id="g98">
      <path
         style="fill:none;stroke:none"
         d="m 362.25,622.89 c 0,0 4.25,1.5 5.25,3 1,1.5 3.5,1 3.5,4.25 0,3.25 -4.75,13.75 -4.75,13.75 l -0.75,1.75"
         id="path94"
         inkscape:connector-curvature="0" />
      <path
         style="fill:none;stroke:#2c2c2b;stroke-width:1.00010002;stroke-linejoin:round"
         d="m 362.25,622.89 c 0,0 4.25,1.5 5.25,3 1,1.5 3.5,1 3.5,4.25 0,3.25 -4.75,13.75 -4.75,13.75 l -0.75,1.75"
         id="path96"
         inkscape:connector-curvature="0" />
    </g>
    <g
       id="g104">
      <path
         style="fill:none;stroke:none"
         d="m 327.5,641.64 8.25,-6.75"
         id="path100"
         inkscape:connector-curvature="0" />
      <path
         style="fill:none;stroke:#2c2c2b;stroke-width:1"
         d="m 327.5,641.64 8.25,-6.75"
         id="path102"
         inkscape:connector-curvature="0" />
    </g>
    <g
       id="g110">
      <path
         style="fill:none;stroke:none"
         d="m 370.75,631.14 c 0,0 4.5,-1 6,0.75 1.5,1.75 3.5,4 3,5"
         id="path106"
         inkscape:connector-curvature="0" />
      <path
         style="fill:none;stroke:#2c2c2b;stroke-width:1"
         d="m 370.75,631.14 c 0,0 4.5,-1 6,0.75 1.5,1.75 3.5,4 3,5"
         id="path108"
         inkscape:connector-curvature="0" />
    </g>
    <g
       id="g116">
      <path
         style="fill:none;stroke:none"
         d="m 369.75,612.265 c -0.5,-1.25 1.5,9.375 1.25,11.625 -0.25,2.25 -0.5,4 -0.5,4 l 8,-5 2.5,-2.75 -9.75,8.375 -0.25,-0.875"
         id="path112"
         inkscape:connector-curvature="0" />
      <path
         style="fill:none;stroke:#230700;stroke-width:1"
         d="m 369.75,612.265 c -0.5,-1.25 1.5,9.375 1.25,11.625 -0.25,2.25 -0.5,4 -0.5,4 l 8,-5 2.5,-2.75 -9.75,8.375 -0.25,-0.875"
         id="path114"
         inkscape:connector-curvature="0" />
    </g>
    <g
       id="g122">
      <path
         style="fill:#5f3513;stroke:none"
         d="m 330.875,604.14 c 0,0 3.625,-0.25 5.125,0.5 1.5,0.75 2.75,1.375 2.75,1.375 l -3.625,0.25 c 0,0 -2.625,-1.5 -3.875,-1.375 -1.25,0.125 -0.375,-0.75 -0.375,-0.75 z"
         id="path118"
         inkscape:connector-curvature="0" />
      <path
         style="fill:none;stroke:#c19070;stroke-width:1.00010002;stroke-linejoin:round"
         d="m 330.875,604.14 c 0,0 3.625,-0.25 5.125,0.5 1.5,0.75 2.75,1.375 2.75,1.375 l -3.625,0.25 c 0,0 -2.625,-1.5 -3.875,-1.375 -1.25,0.125 -0.375,-0.75 -0.375,-0.75 z"
         id="path120"
         inkscape:connector-curvature="0" />
    </g>
    <g
       id="g128">
      <path
         style="fill:#c19070;stroke:none"
         d="m 352.75,611.515 c 1,0.875 4,2.375 4.125,3.125 0.125,0.75 -0.875,1.25 -0.875,1.25 l -3.125,-2.875 c 0,0 -1.125,-2.375 -0.125,-1.5 z"
         id="path124"
         inkscape:connector-curvature="0" />
      <path
         style="fill:none;stroke:#c19070;stroke-width:1"
         d="m 352.75,611.515 c 1,0.875 4,2.375 4.125,3.125 0.125,0.75 -0.875,1.25 -0.875,1.25 l -3.125,-2.875 c 0,0 -1.125,-2.375 -0.125,-1.5 z"
         id="path126"
         inkscape:connector-curvature="0" />
    </g>
    <g
       id="g134">
      <path
         style="fill:#2c2c2b;stroke:none"
         d="m 487.5,448.89 c -1,0.5 -12.75,10.25 -14.5,11.25 -1.75,1 -6,2.5 -6,2.5 0,0 -16.25,14.25 -18,16.5 -1.75,2.25 -5.75,13 -6.25,14 -0.5,1 2.75,10 3.75,11.5 1,1.5 4.5,10.75 6.25,11.75 1.75,1 10.75,6.25 12,7 1.25,0.75 1.75,1.25 1.75,1.25 0,0 -7.5,-1.75 -11.25,-4.75 -3.75,-3 -9,-9.25 -9,-9.25 l -1.5,-5.25 -5.75,-10 12.75,-20 15.5,-11.75 6.75,-3 17.75,-13 c 0,0 -3.25,0.75 -4.25,1.25 z"
         id="path130"
         inkscape:connector-curvature="0" />
      <path
         style="fill:none;stroke:#2c2c2b;stroke-width:1"
         d="m 487.5,448.89 c -1,0.5 -12.75,10.25 -14.5,11.25 -1.75,1 -6,2.5 -6,2.5 0,0 -16.25,14.25 -18,16.5 -1.75,2.25 -5.75,13 -6.25,14 -0.5,1 2.75,10 3.75,11.5 1,1.5 4.5,10.75 6.25,11.75 1.75,1 10.75,6.25 12,7 1.25,0.75 1.75,1.25 1.75,1.25 0,0 -7.5,-1.75 -11.25,-4.75 -3.75,-3 -9,-9.25 -9,-9.25 l -1.5,-5.25 -5.75,-10 12.75,-20 15.5,-11.75 6.75,-3 17.75,-13 c 0,0 -3.25,0.75 -4.25,1.25 z"
         id="path132"
         inkscape:connector-curvature="0" />
    </g>
    <g
       id="g140">
      <path
         style="fill:#2c2c2b;stroke:none"
         d="m 464.75,462.39 c 0,0 -9.5,6 -11,7.5 -1.5,1.5 -3,5.5 -3,5.5 l 5.5,-10 1,2 z"
         id="path136"
         inkscape:connector-curvature="0" />
      <path
         style="fill:none;stroke:#2c2c2b;stroke-width:1"
         d="m 464.75,462.39 c 0,0 -9.5,6 -11,7.5 -1.5,1.5 -3,5.5 -3,5.5 l 5.5,-10 1,2 z"
         id="path138"
         inkscape:connector-curvature="0" />
    </g>
    <g
       id="g146">
      <path
         style="fill:none;stroke:none"
         d="m 503.25,479.64 c 0,0 -15.75,7.75 -18,9.5 -2.25,1.75 -9,14.25 -9,14.25"
         id="path142"
         inkscape:connector-curvature="0" />
      <path
         style="fill:none;stroke:#2c2c2b;stroke-width:1"
         d="m 503.25,479.64 c 0,0 -15.75,7.75 -18,9.5 -2.25,1.75 -9,14.25 -9,14.25"
         id="path144"
         inkscape:connector-curvature="0" />
    </g>
    <g
       id="g152">
      <path
         style="fill:#2c2c2b;stroke:none"
         d="m 476.5,520.14 c 0,0 8.5,9.25 14,12.25 5.5,3 18.25,8 18.25,8 l 1.75,0.5 c 0,0 -16.75,-7.25 -19.5,-8.5 -2.75,-1.25 -14.5,-12.25 -14.5,-12.25 z"
         id="path148"
         inkscape:connector-curvature="0" />
      <path
         style="fill:none;stroke:#2c2c2b;stroke-width:1"
         d="m 476.5,520.14 c 0,0 8.5,9.25 14,12.25 5.5,3 18.25,8 18.25,8 l 1.75,0.5 c 0,0 -16.75,-7.25 -19.5,-8.5 -2.75,-1.25 -14.5,-12.25 -14.5,-12.25 z"
         id="path150"
         inkscape:connector-curvature="0" />
    </g>
    <g
       id="g158">
      <path
         style="fill:#2c2c2b;stroke:none"
         d="m 482.75,527.89 c 0,0 -2.75,5.75 -3.75,6.5 -1,0.75 -7.5,8.75 -7.5,8.75 l -1,3 9,-10.5 c 0,0 3.75,-4.5 5.25,-4.25 1.5,0.25 3.5,0.5 3.5,0.5 z"
         id="path154"
         inkscape:connector-curvature="0" />
      <path
         style="fill:none;stroke:#2c2c2b;stroke-width:1"
         d="m 482.75,527.89 c 0,0 -2.75,5.75 -3.75,6.5 -1,0.75 -7.5,8.75 -7.5,8.75 l -1,3 9,-10.5 c 0,0 3.75,-4.5 5.25,-4.25 1.5,0.25 3.5,0.5 3.5,0.5 z"
         id="path156"
         inkscape:connector-curvature="0" />
    </g>
    <g
       id="g164">
      <path
         style="fill:none;stroke:none"
         d="m 513,542.89 c 0,0 -8.25,-7.5 -9,-13.5 -0.75,-6 -0.75,-62.25 0.25,-64.75 1,-2.5 10,-9 10,-9 0,0 8.5,-5.25 11,-5.25 2.5,0 6,-0.75 7.75,0.25 1.75,1 5.25,1.75 6.5,4.25 1.25,2.5 14,26.25 19.75,45.5 l 3.25,9.5 c 0,0 3,2.75 4.75,4"
         id="path160"
         inkscape:connector-curvature="0" />
      <path
         style="fill:none;stroke:#2c2c2b;stroke-width:2"
         d="m 513,542.89 c 0,0 -8.25,-7.5 -9,-13.5 -0.75,-6 -0.75,-62.25 0.25,-64.75 1,-2.5 10,-9 10,-9 0,0 8.5,-5.25 11,-5.25 2.5,0 6,-0.75 7.75,0.25 1.75,1 5.25,1.75 6.5,4.25 1.25,2.5 14,26.25 19.75,45.5 l 3.25,9.5 c 0,0 3,2.75 4.75,4"
         id="path162"
         inkscape:connector-curvature="0" />
    </g>
    <g
       id="g170">
      <path
         style="fill:#2c2c2b;stroke:none"
         d="m 504.25,526.39 c 0,0 5.5,9 11.5,15.25 6,6.25 7.75,10 7.75,10 0,0 1.5,5 3,6.25 0.732,0.61 -8.823,-7.7 -10.75,-11 -1.472,-2.52 -10.25,-13.482 -10.25,-14.25 0,-1.5 -1.25,-6.25 -1.25,-6.25 z"
         id="path166"
         inkscape:connector-curvature="0" />
      <path
         style="fill:none;stroke:#2c2c2b;stroke-width:1"
         d="m 504.25,526.39 c 0,0 5.5,9 11.5,15.25 6,6.25 7.75,10 7.75,10 0,0 1.5,5 3,6.25 0.732,0.61 -8.823,-7.7 -10.75,-11 -1.472,-2.52 -10.25,-13.482 -10.25,-14.25 0,-1.5 -1.25,-6.25 -1.25,-6.25 z"
         id="path168"
         inkscape:connector-curvature="0" />
    </g>
    <g
       id="g176">
      <path
         style="fill:none;stroke:none"
         d="m 556.75,425.14 c 0,0 10,-2.75 13,-2.5 3,0.25 6.75,0.5 8.25,2.5 1.5,2 9.75,13 11,18 0,0 10.75,23 12,26.5 1.25,3.5 7.25,17.5 7.25,17.5 0,0 4,5 5,6.5 1,1.5 1.25,1.5 1.25,1.5"
         id="path172"
         inkscape:connector-curvature="0" />
      <path
         style="fill:none;stroke:#2c2c2b;stroke-width:2"
         d="m 556.75,425.14 c 0,0 10,-2.75 13,-2.5 3,0.25 6.75,0.5 8.25,2.5 1.5,2 9.75,13 11,18 0,0 10.75,23 12,26.5 1.25,3.5 7.25,17.5 7.25,17.5 0,0 4,5 5,6.5 1,1.5 1.25,1.5 1.25,1.5"
         id="path174"
         inkscape:connector-curvature="0" />
    </g>
    <g
       id="g182">
      <path
         style="fill:none;stroke:none"
         d="m 558.25,423.39 c 0,0 7.25,-19 14.5,-24 7.25,-5 36.75,-14 42.25,-11.5 5.5,2.5 23.5,23 25,26.5 1.5,3.5 14,21.25 19,34.75 5,13.5 5.25,13.25 5.25,13.25"
         id="path178"
         inkscape:connector-curvature="0" />
      <path
         style="fill:none;stroke:#2c2c2b;stroke-width:2"
         d="m 558.25,423.39 c 0,0 7.25,-19 14.5,-24 7.25,-5 36.75,-14 42.25,-11.5 5.5,2.5 23.5,23 25,26.5 1.5,3.5 14,21.25 19,34.75 5,13.5 5.25,13.25 5.25,13.25"
         id="path180"
         inkscape:connector-curvature="0" />
    </g>
    <g
       id="g188">
      <path
         style="fill:none;stroke:none"
         d="m 586.25,392.39 c 0,0 -0.75,-7.25 3,-12.75 3.75,-5.5 15,-16.75 16.75,-17.75 1.75,-1 13.25,-5.5 13.25,-5.5 l 3,-1"
         id="path184"
         inkscape:connector-curvature="0" />
      <path
         style="fill:none;stroke:#2c2c2b;stroke-width:2"
         d="m 586.25,392.39 c 0,0 -0.75,-7.25 3,-12.75 3.75,-5.5 15,-16.75 16.75,-17.75 1.75,-1 13.25,-5.5 13.25,-5.5 l 3,-1"
         id="path186"
         inkscape:connector-curvature="0" />
    </g>
    <g
       id="g194">
      <path
         style="fill:none;stroke:none"
         d="m 682.25,503.14 c 0,0 -6.75,-12.75 -10.75,-15.25 -4,-2.5 -5,-3.25 -6.5,-4.5 -1.5,-1.25 -4.5,-5.75 -4.5,-5.75 l -1,-0.25 h 1"
         id="path190"
         inkscape:connector-curvature="0" />
      <path
         style="fill:none;stroke:#2c2c2b;stroke-width:2"
         d="m 682.25,503.14 c 0,0 -6.75,-12.75 -10.75,-15.25 -4,-2.5 -5,-3.25 -6.5,-4.5 -1.5,-1.25 -4.5,-5.75 -4.5,-5.75 l -1,-0.25 h 1"
         id="path192"
         inkscape:connector-curvature="0" />
    </g>
    <g
       id="g200">
      <path
         style="fill:none;stroke:none"
         d="m 695.75,453.39 c 0,0 6.5,4.25 7.75,7.75 1.25,3.5 2.5,6.5 1.75,9 -0.75,2.5 -0.25,3.25 -0.25,3.25"
         id="path196"
         inkscape:connector-curvature="0" />
      <path
         style="fill:none;stroke:#2c2c2b;stroke-width:2"
         d="m 695.75,453.39 c 0,0 6.5,4.25 7.75,7.75 1.25,3.5 2.5,6.5 1.75,9 -0.75,2.5 -0.25,3.25 -0.25,3.25"
         id="path198"
         inkscape:connector-curvature="0" />
    </g>
    <path
       style="fill:none;stroke:#2c2c2b;stroke-width:1"
       d="m 545.25,376.89 c 0,0 10.75,-4 13.75,-3.75 3,0.25 10.5,2.5 12.5,4.25 2,1.75 5,4.25 6.5,7.25 1.5,3 3.5,6 3,7.75 -0.5,1.75 -0.75,3.25 -0.75,3.25 0,0 -8,4 -9,5 -1,1 -7,9 -7,9 l -5.25,-1 c 0,0 -12.25,-7 -13.25,-7 -1,0 -8.75,0.5 -10,0 -1.25,-0.5 -3.25,-2.75 -2.75,-5.25 0.5,-2.5 1,-7.25 4.25,-10.5 3.25,-3.25 8,-9 8,-9 z"
       id="path202"
       inkscape:connector-curvature="0" />
    <g
       id="g208">
      <path
         style="fill:none;stroke:none"
         d="m 676.5,365.89 c 0,0 -30.25,24.75 -32.5,25.25 -2.25,0.5 -2.75,0 -2.75,0"
         id="path204"
         inkscape:connector-curvature="0" />
      <path
         style="fill:none;stroke:#2c2c2b;stroke-width:1"
         d="m 676.5,365.89 c 0,0 -30.25,24.75 -32.5,25.25 -2.25,0.5 -2.75,0 -2.75,0"
         id="path206"
         inkscape:connector-curvature="0" />
    </g>
    <g
       id="g214">
      <path
         style="fill:none;stroke:none"
         d="m 659.5,361.89 c 0,0 -21.75,19.25 -22.25,21.25"
         id="path210"
         inkscape:connector-curvature="0" />
      <path
         style="fill:none;stroke:#2c2c2b;stroke-width:1"
         d="m 659.5,361.89 c 0,0 -21.75,19.25 -22.25,21.25"
         id="path212"
         inkscape:connector-curvature="0" />
    </g>
    <g
       id="g220">
      <path
         style="fill:none;stroke:none"
         d="m 639.5,384.89 c 0,0 12.75,-12.75 16,-14.75 3.25,-2 3.25,-2 3.25,-2"
         id="path216"
         inkscape:connector-curvature="0" />
      <path
         style="fill:none;stroke:#2c2c2b;stroke-width:1"
         d="m 639.5,384.89 c 0,0 12.75,-12.75 16,-14.75 3.25,-2 3.25,-2 3.25,-2"
         id="path218"
         inkscape:connector-curvature="0" />
    </g>
    <g
       id="g226">
      <path
         style="fill:none;stroke:none"
         d="m 611.75,391.39 c 0,0 -6.25,0.75 -7.25,1.75 -1,1 -1,0.25 -1,0.25"
         id="path222"
         inkscape:connector-curvature="0" />
      <path
         style="fill:none;stroke:#2c2c2b;stroke-width:1"
         d="m 611.75,391.39 c 0,0 -6.25,0.75 -7.25,1.75 -1,1 -1,0.25 -1,0.25"
         id="path224"
         inkscape:connector-curvature="0" />
    </g>
    <g
       id="g232">
      <path
         style="fill:none;stroke:none"
         d="M 596.25,397.89 582,411.14"
         id="path228"
         inkscape:connector-curvature="0" />
      <path
         style="fill:none;stroke:#2c2c2b;stroke-width:1"
         d="M 596.25,397.89 582,411.14"
         id="path230"
         inkscape:connector-curvature="0" />
    </g>
    <g
       id="g238">
      <path
         style="fill:none;stroke:none"
         d="M 591.25,399.14 581,409.64"
         id="path234"
         inkscape:connector-curvature="0" />
      <path
         style="fill:none;stroke:#2c2c2b;stroke-width:1"
         d="M 591.25,399.14 581,409.64"
         id="path236"
         inkscape:connector-curvature="0" />
    </g>
    <g
       id="g244">
      <path
         style="fill:none;stroke:none"
         d="m 541.75,441.89 c 0,0 8.25,-10 11,-11.25 2.75,-1.25 2,-1.25 2,-1.25"
         id="path240"
         inkscape:connector-curvature="0" />
      <path
         style="fill:none;stroke:#2c2c2b;stroke-width:1"
         d="m 541.75,441.89 c 0,0 8.25,-10 11,-11.25 2.75,-1.25 2,-1.25 2,-1.25"
         id="path242"
         inkscape:connector-curvature="0" />
    </g>
    <g
       id="g250">
      <path
         style="fill:none;stroke:none"
         d="m 553.75,431.89 c 0,0 10.75,-5.5 12,-5.5"
         id="path246"
         inkscape:connector-curvature="0" />
      <path
         style="fill:none;stroke:#2c2c2b;stroke-width:1"
         d="m 553.75,431.89 c 0,0 10.75,-5.5 12,-5.5"
         id="path248"
         inkscape:connector-curvature="0" />
    </g>
    <g
       id="g256">
      <path
         style="fill:none;stroke:none"
         d="m 605.25,481.14 c 0,0 9.25,9.25 10.25,10.25 1,1 1,0.5 1,0.5"
         id="path252"
         inkscape:connector-curvature="0" />
      <path
         style="fill:none;stroke:#2c2c2b;stroke-width:1"
         d="m 605.25,481.14 c 0,0 9.25,9.25 10.25,10.25 1,1 1,0.5 1,0.5"
         id="path254"
         inkscape:connector-curvature="0" />
    </g>
    <g
       id="g262">
      <path
         style="fill:none;stroke:none"
         d="m 608.75,511.89 7,9.5"
         id="path258"
         inkscape:connector-curvature="0" />
      <path
         style="fill:none;stroke:#2c2c2b;stroke-width:1.00010002;stroke-linejoin:round"
         d="m 608.75,511.89 7,9.5"
         id="path260"
         inkscape:connector-curvature="0" />
    </g>
    <g
       id="g268">
      <path
         style="fill:none;stroke:none"
         d="m 588.75,522.14 c 0,0 -3,25.75 -2.25,27.5 0.75,1.75 1.75,1.25 1.75,1.25 l -1.75,-3"
         id="path264"
         inkscape:connector-curvature="0" />
      <path
         style="fill:none;stroke:#2c2c2b;stroke-width:1"
         d="m 588.75,522.14 c 0,0 -3,25.75 -2.25,27.5 0.75,1.75 1.75,1.25 1.75,1.25 l -1.75,-3"
         id="path266"
         inkscape:connector-curvature="0" />
    </g>
    <g
       id="g274">
      <path
         style="fill:none;stroke:none"
         d="m 585,533.64 -1.5,13.25 1,-3.75"
         id="path270"
         inkscape:connector-curvature="0" />
      <path
         style="fill:none;stroke:#2c2c2b;stroke-width:1"
         d="m 585,533.64 -1.5,13.25 1,-3.75"
         id="path272"
         inkscape:connector-curvature="0" />
    </g>
    <g
       id="g280">
      <path
         style="fill:none;stroke:none"
         d="m 553.75,526.89 c 0,0 6,9.5 6.5,11 0.5,1.5 0.25,1.25 0.25,1.25"
         id="path276"
         inkscape:connector-curvature="0" />
      <path
         style="fill:none;stroke:#2c2c2b;stroke-width:1"
         d="m 553.75,526.89 c 0,0 6,9.5 6.5,11 0.5,1.5 0.25,1.25 0.25,1.25"
         id="path278"
         inkscape:connector-curvature="0" />
    </g>
    <g
       id="g286">
      <path
         style="fill:#2c2c2b;stroke:none"
         d="m 555,533.89 c 1.25,2 3.5,5.25 3.5,6.25 0,1 0.25,7.75 0.25,7.75 0,0 -1.5,-6.25 -2.5,-8.5 -1,-2.25 -1.25,-5.5 -1.25,-5.5 z"
         id="path282"
         inkscape:connector-curvature="0" />
      <path
         style="fill:none;stroke:#2c2c2b;stroke-width:1.00010002;stroke-linejoin:round"
         d="m 555,533.89 c 1.25,2 3.5,5.25 3.5,6.25 0,1 0.25,7.75 0.25,7.75 0,0 -1.5,-6.25 -2.5,-8.5 -1,-2.25 -1.25,-5.5 -1.25,-5.5 z"
         id="path284"
         inkscape:connector-curvature="0" />
    </g>
    <g
       id="g292">
      <path
         style="fill:none;stroke:none"
         d="m 528.75,529.89 c 0,0 -3.5,8.5 -2.75,12.25 0.75,3.75 2,7.75 2,7.75 l 1,0.5"
         id="path288"
         inkscape:connector-curvature="0" />
      <path
         style="fill:none;stroke:#2c2c2b;stroke-width:1"
         d="m 528.75,529.89 c 0,0 -3.5,8.5 -2.75,12.25 0.75,3.75 2,7.75 2,7.75 l 1,0.5"
         id="path290"
         inkscape:connector-curvature="0" />
    </g>
    <g
       id="g298">
      <path
         style="fill:none;stroke:none"
         d="m 528.25,538.64 c 0,0 -0.75,2.75 0,4.25 0.75,1.5 0.75,1.5 0.75,1.5"
         id="path294"
         inkscape:connector-curvature="0" />
      <path
         style="fill:none;stroke:#2c2c2b;stroke-width:1"
         d="m 528.25,538.64 c 0,0 -0.75,2.75 0,4.25 0.75,1.5 0.75,1.5 0.75,1.5"
         id="path296"
         inkscape:connector-curvature="0" />
    </g>
    <g
       id="g304">
      <path
         style="fill:none;stroke:none"
         d="m 553.25,559.14 c 0,0 7.5,-5.5 12.75,-5.75 5.25,-0.25 13.25,0.25 15.25,1.5 2,1.25 6,1.75 6,1.75"
         id="path300"
         inkscape:connector-curvature="0" />
      <path
         style="fill:none;stroke:#2c2c2b;stroke-width:1"
         d="m 553.25,559.14 c 0,0 7.5,-5.5 12.75,-5.75 5.25,-0.25 13.25,0.25 15.25,1.5 2,1.25 6,1.75 6,1.75"
         id="path302"
         inkscape:connector-curvature="0" />
    </g>
    <g
       id="g310">
      <path
         style="fill:none;stroke:none"
         d="m 565.5,512.39 c 0,0 0.75,15.25 1,17 0.25,1.75 0.25,7.5 -0.25,10 -0.5,2.5 -3.25,13.5 -4.75,15 -1.5,1.5 -2.25,1 -2.25,1"
         id="path306"
         inkscape:connector-curvature="0" />
      <path
         style="fill:none;stroke:#2c2c2b;stroke-width:1"
         d="m 565.5,512.39 c 0,0 0.75,15.25 1,17 0.25,1.75 0.25,7.5 -0.25,10 -0.5,2.5 -3.25,13.5 -4.75,15 -1.5,1.5 -2.25,1 -2.25,1"
         id="path308"
         inkscape:connector-curvature="0" />
    </g>
    <g
       id="g316">
      <path
         style="fill:none;stroke:none"
         d="m 551,476.89 c 0,0 33.5,-8 42.75,-22"
         id="path312"
         inkscape:connector-curvature="0" />
      <path
         style="fill:none;stroke:#2c2c2b;stroke-width:1"
         d="m 551,476.89 c 0,0 33.5,-8 42.75,-22"
         id="path314"
         inkscape:connector-curvature="0" />
    </g>
    <g
       id="g322">
      <path
         style="fill:none;stroke:none"
         d="m 591.75,447.14 c 0,0 30.5,-3.5 49,-29 l -0.25,-2"
         id="path318"
         inkscape:connector-curvature="0" />
      <path
         style="fill:none;stroke:#2c2c2b;stroke-width:1"
         d="m 591.75,447.14 c 0,0 30.5,-3.5 49,-29 l -0.25,-2"
         id="path320"
         inkscape:connector-curvature="0" />
    </g>
    <g
       id="g328">
      <path
         style="fill:none;stroke:none"
         d="m 598.5,500.89 c 0,0 6.5,13.25 6.75,14.25"
         id="path324"
         inkscape:connector-curvature="0" />
      <path
         style="fill:none;stroke:#2c2c2b;stroke-width:1.00010002;stroke-linejoin:round"
         d="m 598.5,500.89 c 0,0 6.5,13.25 6.75,14.25"
         id="path326"
         inkscape:connector-curvature="0" />
    </g>
    <g
       id="g334">
      <path
         style="fill:none;stroke:none"
         d="m 605,514.89 c 0,0 9.25,8.5 10,10.5 0.75,2 1,7.25 1,7.25"
         id="path330"
         inkscape:connector-curvature="0" />
      <path
         style="fill:none;stroke:#2c2c2b;stroke-width:1"
         d="m 605,514.89 c 0,0 9.25,8.5 10,10.5 0.75,2 1,7.25 1,7.25"
         id="path332"
         inkscape:connector-curvature="0" />
    </g>
    <g
       id="g340">
      <path
         style="fill:none;stroke:none"
         d="m 575.75,342.14 c 0,0 26.25,4 27.75,4.75 1.5,0.75 1.75,1 1.75,1"
         id="path336"
         inkscape:connector-curvature="0" />
      <path
         style="fill:none;stroke:#2c2c2b;stroke-width:1"
         d="m 575.75,342.14 c 0,0 26.25,4 27.75,4.75 1.5,0.75 1.75,1 1.75,1"
         id="path338"
         inkscape:connector-curvature="0" />
    </g>
    <g
       id="g346">
      <path
         style="fill:none;stroke:none"
         d="m 577,339.14 c 0,0 21,3.25 23,4 2,0.75 3.25,1.25 3.25,1.25"
         id="path342"
         inkscape:connector-curvature="0" />
      <path
         style="fill:none;stroke:#2c2c2b;stroke-width:1"
         d="m 577,339.14 c 0,0 21,3.25 23,4 2,0.75 3.25,1.25 3.25,1.25"
         id="path344"
         inkscape:connector-curvature="0" />
    </g>
    <g
       id="g352">
      <path
         style="fill:none;stroke:none"
         d="m 671.25,359.89 -9.5,6"
         id="path348"
         inkscape:connector-curvature="0" />
      <path
         style="fill:none;stroke:#2c2c2b;stroke-width:1"
         d="m 671.25,359.89 -9.5,6"
         id="path350"
         inkscape:connector-curvature="0" />
    </g>
    <g
       id="g358">
      <path
         style="fill:none;stroke:none"
         d="M 660.25,366.14"
         id="path354"
         inkscape:connector-curvature="0" />
      <path
         style="fill:none;stroke:#2c2c2b;stroke-width:1"
         d="M 660.25,366.14"
         id="path356"
         inkscape:connector-curvature="0" />
    </g>
    <g
       id="g364">
      <path
         style="fill:none;stroke:none"
         d="m 689.75,445.89 c 0,0 1.75,4.75 2.75,5.5 1,0.75 2.5,2 2.5,2"
         id="path360"
         inkscape:connector-curvature="0" />
      <path
         style="fill:none;stroke:#2c2c2b;stroke-width:1"
         d="m 689.75,445.89 c 0,0 1.75,4.75 2.75,5.5 1,0.75 2.5,2 2.5,2"
         id="path362"
         inkscape:connector-curvature="0" />
    </g>
    <g
       id="g370">
      <path
         style="fill:none;stroke:none"
         d="m 697,454.64 -2.25,-1.25"
         id="path366"
         inkscape:connector-curvature="0" />
      <path
         style="fill:none;stroke:#2c2c2b;stroke-width:1"
         d="m 697,454.64 -2.25,-1.25"
         id="path368"
         inkscape:connector-curvature="0" />
    </g>
    <g
       id="g376">
      <path
         style="fill:none;stroke:none"
         d="m 559,555.89 c 0,0 10.5,4 14.75,3 4.25,-1 8,-1.75 8,-1.75"
         id="path372"
         inkscape:connector-curvature="0" />
      <path
         style="fill:none;stroke:#2c2c2b;stroke-width:1"
         d="m 559,555.89 c 0,0 10.5,4 14.75,3 4.25,-1 8,-1.75 8,-1.75"
         id="path374"
         inkscape:connector-curvature="0" />
    </g>
    <g
       id="g382">
      <path
         style="fill:none;stroke:none"
         d="m 590.25,556.89 c 0,0 12.5,-0.75 15.25,-0.5 2.75,0.25 3.25,-1.25 3.25,-1.25"
         id="path378"
         inkscape:connector-curvature="0" />
      <path
         style="fill:none;stroke:#2c2c2b;stroke-width:1"
         d="m 590.25,556.89 c 0,0 12.5,-0.75 15.25,-0.5 2.75,0.25 3.25,-1.25 3.25,-1.25"
         id="path380"
         inkscape:connector-curvature="0" />
    </g>
    <path
       style="fill:#fadeab;stroke:none"
       d="m 538,533.14 c -1.25,1.25 -6.25,12.75 -6.75,15 -0.5,2.25 -0.75,7.5 0.5,8.5 1.25,1 9,0 10.25,-1.5 1.25,-1.5 1,-13 -0.25,-16 -1.25,-3 -2.5,-7.25 -3.75,-6 z"
       id="path384"
       inkscape:connector-curvature="0" />
    <path
       style="fill:#fadeab;stroke:none"
       d="m 679,463.64 c 1.75,1.25 8.25,1.5 11,7 2.75,5.5 1.5,5.5 1.5,5.5 0,0 0.75,4.5 -0.75,6.25 -1.5,1.75 -3.25,3.25 -3.25,3.25 0,0 -7.75,-5.5 -8,-7.25 -0.25,-1.75 -2.25,-16 -0.5,-14.75 z"
       id="path386"
       inkscape:connector-curvature="0" />
    <g
       id="g392">
      <path
         style="fill:none;stroke:none"
         d="m 677.75,465.39 c 0,0 2,18.5 2,20.25"
         id="path388"
         inkscape:connector-curvature="0" />
      <path
         style="fill:none;stroke:#2c2c2b;stroke-width:1"
         d="m 677.75,465.39 c 0,0 2,18.5 2,20.25"
         id="path390"
         inkscape:connector-curvature="0" />
    </g>
    <g
       id="g398">
      <path
         style="fill:none;stroke:none"
         d="m 663.25,459.39 c 0,0 8.25,10.75 9.25,11.5 1,0.75 3.5,3.75 7.25,7.75 3.75,4 7,6.75 8.25,8.75 1.25,2 2,3.25 2,3.25"
         id="path394"
         inkscape:connector-curvature="0" />
      <path
         style="fill:none;stroke:#2c2c2b;stroke-width:1"
         d="m 663.25,459.39 c 0,0 8.25,10.75 9.25,11.5 1,0.75 3.5,3.75 7.25,7.75 3.75,4 7,6.75 8.25,8.75 1.25,2 2,3.25 2,3.25"
         id="path396"
         inkscape:connector-curvature="0" />
    </g>
  </g>
  <g
     id="g486"
     transform="matrix(1.4980241,0,0,1.4980241,-464.96763,-285.42598)">
    <path
       style="fill:#353430;stroke:none"
       d="m 562.661,655.031 75.75,36 15.75,12.5 c 0,0 21.5,16.5 23.75,17.25 2.25,0.75 5.75,4 14,6.5 8.25,2.5 6.75,3.25 6.75,3.25 0,0 9,22 8.5,25.5 -0.5,3.5 0.5,2.25 0.5,2.25 h -244 c 0,0 -23.75,-14.75 -64.75,-0.25 h -239.25 c 0,0 -1.75,-21 12,-50 0,0 14,-22 23,-28.25 l 7.5,-2.25 c 0,0 16.5,-11.75 48,-22.5 31.5,-10.75 61.5,-12.25 61.5,-12.25 0,0 25.75,0 39.25,2.25 13.5,2.25 22.25,-1.5 22.25,-1.5 0,0 5.75,-5.75 6,-6.25 0.25,-0.5 6.25,-0.75 6.25,-0.75 0,0 5.25,-10.5 6.5,-11 1.25,-0.5 6,-1.75 7.25,-2.75 1.25,-1 8.25,-2 8.25,-2 l 24.75,9.5 9.25,5.75 36.25,-29.25 21,0.5 17.25,7.75 22.5,22.25 z"
       id="path402"
       inkscape:connector-curvature="0" />
    <path
       style="fill:#1b1b17;stroke:none"
       d="m 232.75,758.14 -2,-3.25 c 0,0 32.75,0.25 35.25,-0.25 2.5,-0.5 3.5,-2 3.5,-2 0,0 -2.75,0.75 -22.5,-3.5 -19.75,-4.25 -25,-13 -25,-13 0,0 4,-2.5 15.5,1.5 11.5,4 47.25,5 48.25,3.5 1,-1.5 3.5,0.25 0.25,-2 -3.25,-2.25 -9.75,-4.75 -11,-4.25 -1.25,0.5 -2.75,2.75 -5,0.75 -2.25,-2 -5,-1.25 -3.75,-3.5 1.25,-2.25 5.5,-3 7,-2.75 1.5,0.25 23,-3.5 25.5,-3.25 2.5,0.25 64.25,-1.25 66.75,-1 2.5,0.25 5.5,-1 5.5,-1 0,0 -52.25,-8.75 -53.75,-9.25 -1.5,-0.5 -3,-0.25 -2.5,-2 0.5,-1.75 40.75,-2.75 40.75,-2.75 0,0 -14,-14 -14.75,-15.25 -0.75,-1.25 0.75,0.25 1.75,-0.75 1,-1 1.25,-2.5 0.5,-3.75 -0.75,-1.25 1,-5.5 1,-5.5 h 18.75 l 123.5,-70.5 23.25,-5.5 11.5,13.25 17.25,19 22.25,7.75 5,9 87,38 15.25,14 4.75,7.25 c 0,0 11.75,8.5 13.75,8.75 2,0.25 12.5,4 12.5,4 0,0 10.25,25.75 9,27 -1.25,1.25 -2.75,2 -9.5,2 -6.75,0 -78.25,0 -78.25,0 0,0 2,-18.75 24,-27 0,0 -29,-34.25 -91,-63.25 0,0 -27.75,-10.25 -31.25,-10.5 -3.5,-0.25 6.75,-5.25 13.75,-7 7,-1.75 -5,-2 -5,-2 l -10.75,1 -26,10.5 c 0,0 -7.5,10 -5.25,10.75 2.25,0.75 6,-3.5 9,-2.75 3,0.75 4.5,-1.5 4.75,1.75 0.25,3.25 -1.75,5.5 -1.75,5.5 0,0 -2,3 -1.25,5 0.75,2 -8,9.75 -8,9.75 0,0 -23.25,21.75 -21.75,23.5 1.5,1.75 30,4.5 33.75,5.75 3.75,1.25 11.5,1 13.25,3.25 1.75,2.25 3.25,5.5 3.25,5.5 0,0 -6.25,0.75 -8.75,2.5 -2.5,1.75 -11,2.25 -15.5,8.25 -4.5,6 -5,7 -3.5,7.5 1.5,0.5 18.5,7 18.5,7 l 12.75,3.5 v 1.75 h -59 c 0,0 -21,-16 -64.25,-0.75 z"
       id="path404"
       inkscape:connector-curvature="0" />
    <path
       style="fill:#1b1b17;stroke:none"
       d="m 192.25,726.64 c -0.25,-1.25 1,30.25 1.75,31.25 0.75,1 16.25,0.5 16.25,0.5 0,0 -17.75,-30.5 -18,-31.75 z"
       id="path406"
       inkscape:connector-curvature="0" />
    <path
       style="fill:none;stroke:#2c2c2b;stroke-width:1"
       d="m 563,655.39 75.75,36 15.75,12.5 c 0,0 21.5,16.5 23.75,17.25 2.25,0.75 5.75,4 14,6.5 8.25,2.5 6.75,3.25 6.75,3.25 0,0 9,22 8.5,25.5 -0.5,3.5 0.5,2.25 0.5,2.25 H 464 c 0,0 -23.75,-14.75 -64.75,-0.25 H 160 c 0,0 -1.75,-21 12,-50 0,0 14,-22 23,-28.25 l 7.5,-2.25 c 0,0 16.5,-11.75 48,-22.5 31.5,-10.75 61.5,-12.25 61.5,-12.25 0,0 25.75,0 39.25,2.25 13.5,2.25 22.25,-1.5 22.25,-1.5 0,0 5.75,-5.75 6,-6.25 0.25,-0.5 6.25,-0.75 6.25,-0.75 0,0 5.25,-10.5 6.5,-11 1.25,-0.5 6,-1.75 7.25,-2.75 1.25,-1 8.25,-2 8.25,-2 l 24.75,9.5 9.25,5.75 36.25,-29.25 21,0.5 17.25,7.75 22.5,22.25 z"
       id="path408"
       inkscape:connector-curvature="0" />
    <path
       style="fill:none;stroke:#2c2c2b;stroke-width:1"
       d="m 256.75,660.64 c 0,0 -34.5,13 -53,25.75 0,0 -5.5,2.5 -7.25,3.75 -1.75,1.25 -13.5,13 -18,37"
       id="path410"
       inkscape:connector-curvature="0" />
    <path
       style="fill:none;stroke:#2c2c2b;stroke-width:1"
       d="m 192.25,725.39 c 0,0 13.25,29.5 18.5,32.75"
       id="path412"
       inkscape:connector-curvature="0" />
    <path
       style="fill:none;stroke:#2c2c2b;stroke-width:1"
       d="m 288.75,746.89 c 0,0 16,1.25 20.75,6.5 4.75,5.25 5.5,4.75 5.5,4.75"
       id="path414"
       inkscape:connector-curvature="0" />
    <g
       id="g420">
      <path
         style="fill:#2c2c2b;stroke:none"
         d="m 367.5,647.39 c 1.25,1 6.25,2 8,1.5 1.75,-0.5 3.25,-2.75 3.25,-2.75 l -0.5,-2 -2.5,-1 c 0,0 -9.5,3.25 -8.25,4.25 z"
         id="path416"
         inkscape:connector-curvature="0" />
      <path
         style="fill:none;stroke:#2c2c2b;stroke-width:1"
         d="m 367.5,647.39 c 1.25,1 6.25,2 8,1.5 1.75,-0.5 3.25,-2.75 3.25,-2.75 l -0.5,-2 -2.5,-1 c 0,0 -9.5,3.25 -8.25,4.25 z"
         id="path418"
         inkscape:connector-curvature="0" />
    </g>
    <g
       id="g426">
      <path
         style="fill:#2c2c2b;stroke:none"
         d="m 388,636.14 h 4.5 l 1.25,-3.5 -3.75,-2.25 -3.5,5.25 z"
         id="path422"
         inkscape:connector-curvature="0" />
      <path
         style="fill:none;stroke:#2c2c2b;stroke-width:1"
         d="m 388,636.14 h 4.5 l 1.25,-3.5 -3.75,-2.25 -3.5,5.25 z"
         id="path424"
         inkscape:connector-curvature="0" />
    </g>
    <path
       style="fill:none;stroke:#2c2c2b;stroke-width:1"
       d="m 358,710.14 c -0.5,1.25 47,0 49.5,0.75 2.5,0.75 -49,-2 -49.5,-0.75 z"
       id="path428"
       inkscape:connector-curvature="0" />
    <g
       id="g434">
      <path
         style="fill:#2c2c2b;stroke:none"
         d="m 334.75,757.89 c -0.25,1.75 57.5,-11.25 69,-12.25 11.5,-1 11.5,-0.75 11.5,-0.75 0,0 -80.25,11.25 -80.5,13 z"
         id="path430"
         inkscape:connector-curvature="0" />
      <path
         style="fill:none;stroke:#2c2c2b;stroke-width:1"
         d="m 334.75,757.89 c -0.25,1.75 57.5,-11.25 69,-12.25 11.5,-1 11.5,-0.75 11.5,-0.75 0,0 -80.25,11.25 -80.5,13 z"
         id="path432"
         inkscape:connector-curvature="0" />
    </g>
    <g
       id="g440">
      <path
         style="fill:#2c2c2b;stroke:none"
         d="m 367.25,739.64 c -3.25,0.75 54.5,4 61.75,7.5 7.25,3.5 12.25,4.5 12.25,4.5 0,0 -70.75,-12.75 -74,-12 z"
         id="path436"
         inkscape:connector-curvature="0" />
      <path
         style="fill:none;stroke:#2c2c2b;stroke-width:1"
         d="m 367.25,739.64 c -3.25,0.75 54.5,4 61.75,7.5 7.25,3.5 12.25,4.5 12.25,4.5 0,0 -70.75,-12.75 -74,-12 z"
         id="path438"
         inkscape:connector-curvature="0" />
    </g>
    <g
       id="g446">
      <path
         style="fill:#2c2c2b;stroke:none"
         d="m 424.5,712.14 c 0,-1.25 36.25,0.75 38.25,2.5 2,1.75 -38.25,-1.25 -38.25,-2.5 z"
         id="path442"
         inkscape:connector-curvature="0" />
      <path
         style="fill:none;stroke:#2c2c2b;stroke-width:1"
         d="m 424.5,712.14 c 0,-1.25 36.25,0.75 38.25,2.5 2,1.75 -38.25,-1.25 -38.25,-2.5 z"
         id="path444"
         inkscape:connector-curvature="0" />
    </g>
    <g
       id="g452">
      <path
         style="fill:#2c2c2b;stroke:none"
         d="m 398.25,724.89 c 0.5,-1 120.25,27.75 124.5,32 4.25,4.25 -3.5,-0.5 -1,0.5 -1.75,0.5 -124,-31.5 -123.5,-32.5 z"
         id="path448"
         inkscape:connector-curvature="0" />
      <path
         style="fill:none;stroke:#2c2c2b;stroke-width:1"
         d="m 398.25,724.89 c 0.5,-1 120.25,27.75 124.5,32 4.25,4.25 -3.5,-0.5 -1,0.5 -1.75,0.5 -124,-31.5 -123.5,-32.5 z"
         id="path450"
         inkscape:connector-curvature="0" />
    </g>
    <g
       id="g458">
      <path
         style="fill:#2c2c2b;stroke:none"
         d="m 469.75,716.14 c -2.5,1.5 39.75,2.5 46.25,9 6.5,6.5 -1.75,1 -1.75,1 0,0 -42,-11.5 -44.5,-10 z"
         id="path454"
         inkscape:connector-curvature="0" />
      <path
         style="fill:none;stroke:#2c2c2b;stroke-width:1"
         d="m 469.75,716.14 c -2.5,1.5 39.75,2.5 46.25,9 6.5,6.5 -1.75,1 -1.75,1 0,0 -42,-11.5 -44.5,-10 z"
         id="path456"
         inkscape:connector-curvature="0" />
    </g>
    <path
       style="fill:none;stroke:#2c2c2b;stroke-width:1"
       d="m 443.25,696.64 12.25,-5 z"
       id="path460"
       inkscape:connector-curvature="0" />
    <g
       id="g466">
      <path
         style="fill:#2c2c2b;stroke:none"
         d="m 445.5,688.64 c 0.25,1.25 32,-13.25 32,-13.25 0,0 -32.25,12 -32,13.25 z"
         id="path462"
         inkscape:connector-curvature="0" />
      <path
         style="fill:none;stroke:#2c2c2b;stroke-width:1"
         d="m 445.5,688.64 c 0.25,1.25 32,-13.25 32,-13.25 0,0 -32.25,12 -32,13.25 z"
         id="path464"
         inkscape:connector-curvature="0" />
    </g>
    <g
       id="g472">
      <path
         style="fill:#2c2c2b;stroke:none"
         d="m 478.5,665.39 c 1.5,0.75 46.75,-17.75 52.25,-17.75 5.5,0 6,0 6,0 0,0 -4,-1.5 -9,-0.25 -5,1.25 -47.5,16.25 -47.5,16.25 0,0 -3.25,1 -1.75,1.75 z"
         id="path468"
         inkscape:connector-curvature="0" />
      <path
         style="fill:none;stroke:#2c2c2b;stroke-width:1"
         d="m 478.5,665.39 c 1.5,0.75 46.75,-17.75 52.25,-17.75 5.5,0 6,0 6,0 0,0 -4,-1.5 -9,-0.25 -5,1.25 -47.5,16.25 -47.5,16.25 0,0 -3.25,1 -1.75,1.75 z"
         id="path470"
         inkscape:connector-curvature="0" />
    </g>
    <g
       id="g478">
      <path
         style="fill:#2c2c2b;stroke:none"
         d="m 521,655.64 c -0.25,-1.25 23.75,-0.75 25.25,1.25 1.5,2 -25,0 -25.25,-1.25 z"
         id="path474"
         inkscape:connector-curvature="0" />
      <path
         style="fill:none;stroke:#2c2c2b;stroke-width:1"
         d="m 521,655.64 c -0.25,-1.25 23.75,-0.75 25.25,1.25 1.5,2 -25,0 -25.25,-1.25 z"
         id="path476"
         inkscape:connector-curvature="0" />
    </g>
    <g
       id="g484">
      <path
         style="fill:#2c2c2b;stroke:none"
         d="m 646.25,730.14 c 0,0 10.5,6.75 10.5,9.75 0,3 -1.5,3.5 -1.5,3.5 0,0 -6.25,-9.25 -8,-10.5 -1.75,-1.25 -4.5,-4.75 -4.5,-4.75 z"
         id="path480"
         inkscape:connector-curvature="0" />
      <path
         style="fill:none;stroke:#2c2c2b;stroke-width:1"
         d="m 646.25,730.14 c 0,0 10.5,6.75 10.5,9.75 0,3 -1.5,3.5 -1.5,3.5 0,0 -6.25,-9.25 -8,-10.5 -1.75,-1.25 -4.5,-4.75 -4.5,-4.75 z"
         id="path482"
         inkscape:connector-curvature="0" />
    </g>
  </g>
  <g
     id="g624"
     transform="matrix(1.4980241,0,0,1.4980241,-464.96763,-285.42598)">
    <path
       style="fill:#ffffff;stroke:none"
       d="m 455.101,436.56 5.75,5.75 3,0.25 17,5 c 0,0 -20,10 -23,14 -3,4 -14.25,22.75 -15.75,31.5 0,0 -0.75,3.75 2.5,11.5 0,0 0,7.25 5.5,23 0,0 5.25,9.75 10.25,12.25 5,2.5 38.25,11 38.25,11 l 14,-7 c 0,0 2.5,2.5 2.5,3.5 0,1 -0.75,12.5 -1.75,14.25 -1,1.75 -5.25,18 -6.5,18.75 -1.25,0.75 -0.25,13.25 3.25,18.75 3.5,5.5 2.5,9.5 2.5,9.5 0,0 6.75,0.75 6.5,2.75 -0.25,2 -1.5,5.5 -0.25,6.5 1.25,1 4.75,5.5 4.75,5.5 0,0 4.25,3 7,3.75 2.75,0.75 7,1 7,1 l 5.5,8.75 c 0,0 7.25,1 10.25,4 3,3 15.5,13.5 17.75,13.75 2.25,0.25 28,1 32,0.25 4,-0.75 28.5,-14.5 30.25,-14.5 1.75,0 4.75,3.75 6.25,6.5 1.5,2.75 15.25,26 15.25,26 0,0 14.5,40.25 18.25,44 3.75,3.75 -29,-19.5 -32.75,-21.25 -3.75,-1.75 -37.5,-21 -59,-27.75 -21.5,-6.75 -21.75,-7 -21.75,-7 0,0 -6.25,-5.5 -7,-6.5 -0.75,-1 -3.5,-7 -3.75,-6.75 -0.25,0.25 -11.25,-0.75 -11.25,-0.75 0,0 -15.5,-21.5 -18.25,-24.25 -2.75,-2.75 -13,-9 -16,-9.25 -3,-0.25 -8.5,0 -9.75,1.25 -1.25,1.25 -4,3 -7.5,8.75 -3.5,5.75 -21.5,39.25 -24.25,41.5 -2.75,2.25 -16,20 -35,31 0,0 -13.75,9 -14.75,9.25 -1,0.25 -11.75,0.25 -16.5,-1.25 -4.75,-1.5 -39.25,-15 -42.25,-14.5 -3,0.5 -60.25,-2.5 -66.75,-3 0,0 -7.75,-5.75 -9.25,-5.5 -1.5,0.25 -1.5,0.25 -2.75,-1 -1.25,-1.25 -17.25,-21 -23.25,-24.75 -6,-3.75 0.25,-3.25 -30,-13.75 0,0 -1.25,1.75 -15.75,-6.5 -14.5,-8.25 -16.25,-5.5 -16.25,-5.5 0,0 -53,-15 -59.5,-14.5 -6.5,0.5 -21.75,12 -21.75,12 l -0.75,-19.25 c 0,0 42.25,-22.75 64.5,-28.75 22.25,-6 27.5,-6.25 33.5,-6 6,0.25 43.75,9.75 46.5,11.5 2.75,1.75 34.75,39.5 37.75,44 3,4.5 15.5,19.25 21.25,22.75 5.75,3.5 21.25,12.75 23.5,12.75 2.25,0 12.5,-4.75 16,-5.75 3.5,-1 11.5,-2 13.75,-2.5 2.25,-0.5 6.5,-1.25 8.25,-3 1.75,-1.75 8.5,-8.75 9.5,-8.75 1,0 4.5,0 4.5,0 0,0 7.25,-10.25 6.75,-11.75 -0.5,-1.5 -1.25,-5 0,-5 1.25,0 4.5,-0.25 5.5,-1.5 1,-1.25 5.75,-10.5 6.75,-11.25 1,-0.75 5,-0.5 5,-0.5 0,0 2.5,-1.75 1.75,-3.25 -0.75,-1.5 -5.5,-8.75 -6,-10.75 -0.5,-2 -0.75,-5.25 -2.5,-9.25 -1.75,-4 -4.5,-10.75 -7.25,-12 0,0 -5.5,-16.75 -8.75,-19.75 -3.25,-3 -4.5,-7.25 -5.75,-7 -1.25,0.25 -1.25,-25.75 1.5,-31.25 2.75,-5.5 7.75,-23.25 9.5,-24.5 1.75,-1.25 8.25,-13.5 8.25,-13.5 l 3.5,-17 c 0,0 17.25,-12 19,-12.5 1.75,-0.5 15,-13.75 15,-13.75 l 10,-9.75 7,-2 2.5,6.75 z"
       id="path488"
       inkscape:connector-curvature="0" />
    <path
       style="fill:#b5b8c4;stroke:none"
       d="m 428.75,694.89 -10.25,0.25 c 0,0 -84.75,-32.25 -87.25,-33.25 -2.5,-1 -23,-11.75 -27,-16.5 -4,-4.75 -50.5,-61.5 -51.75,-61.25 -1.25,0.25 -16,-1 -16,-1 0,0 -11.75,-4 -28.25,-0.5 -16.5,3.5 -34.25,9 -46,16 l -31.75,15.75 59.25,14.25 10.25,2.5 19,10 3.25,0.25 c 0,0 21.25,6 28.75,12.5 7.5,6.5 24.5,27.75 24.5,27.75 l 3.25,1 9,4 67.5,2.5 41.75,15.25 16.25,0.5 z"
       id="path490"
       inkscape:connector-curvature="0" />
    <path
       style="fill:#d5d6eb;stroke:none"
       d="m 380.25,679.64 c 1.625,0.375 45.125,-2.5 48.125,-3.625 3,-1.125 1,1.125 1,1.125 -9.436,3.377 -21.186,6.335 -35.25,8.875 -0.25,-0.125 -14.75,-5.875 -14.75,-5.875 0,0 -0.75,-0.875 0.875,-0.5 z"
       id="path492"
       inkscape:connector-curvature="0" />
    <path
       style="fill:#d5d6eb;stroke:none"
       d="m 396.625,639.265 c 1.5,3.875 1.625,5.875 3.875,7.125 2.25,1.25 10.875,4.125 15,3.625 4.125,-0.5 15.5,-4.625 17.75,-5.125 2.25,-0.5 5.875,-2.75 8.375,-3.5 2.5,-0.75 4.875,-1.875 4.875,-1.875 0,0 -15.25,12.5 -34.625,18.875 -19.375,6.375 -17.75,-2.75 -17.75,-2.75 l 0.625,-17.125 c 0,0 0.375,-3.125 1.875,0.75 z"
       id="path494"
       inkscape:connector-curvature="0" />
    <path
       style="fill:#d5d6eb;stroke:none"
       d="m 405.75,627.265 c 1,0.375 17.875,9.75 35.625,1.375 17.75,-8.375 -15.625,10.25 -15.625,10.25 l -9.5,-0.375 -8.5,-2.125 -3.875,-8.125 c 0,0 0.875,-1.375 1.875,-1 z"
       id="path496"
       inkscape:connector-curvature="0" />
    <path
       style="fill:#b5b8c4;stroke:none"
       d="m 482,602.14 c 0.625,0.25 12.75,-8.625 12.75,-8.625 l -0.25,-3 12.5,-8.875 1.25,11.25 3.375,7.875 1.75,6 -0.5,1.625 -10.25,-2.25 -4.5,1 -0.375,-4.5 -2.625,-2.125 c 0,0 -4,4.875 -6.125,5 -2.125,0.125 -4.75,0.375 -5.75,0.375 -1,0 -1.75,-0.5 -1.75,-0.5 0,0 -0.125,-3.5 0.5,-3.25 z"
       id="path498"
       inkscape:connector-curvature="0" />
    <path
       style="fill:#b5b8c4;stroke:none"
       d="m 485.625,547.515 c 0,0 8.25,11.25 12.75,13.125 0,0 8.75,7.5 9.625,7.625 0.875,0.125 3.25,-0.625 3.25,-0.625 l 1.125,-0.875 c 0,0 3.75,-14.875 3.375,-17 -0.375,-2.125 0,-3.5 0,-3.5 0,0 -2.125,-3.125 -2.875,-2.625 -0.75,0.5 -14,7.25 -14,7.25 z"
       id="path500"
       inkscape:connector-curvature="0" />
    <path
       style="fill:#d5d6eb;stroke:none"
       d="m 655.75,673.015 c 0,0 14.625,42.75 16.75,43.875 2.125,1.125 -32.75,-22.375 -32.75,-22.375 l -4.625,-2.375 18.125,-23.125 z"
       id="path502"
       inkscape:connector-curvature="0" />
    <path
       style="fill:#b5b8c4;stroke:none"
       d="m 633.75,644.64 c 0,0 4.5,0.125 5,0.25 0.5,0.125 15.625,25.875 15.625,25.875 l -18.5,22.125 -37.625,-19.25 15.875,-10 c 0,0 5.875,-5.5 6.5,-6.375 0.625,-0.875 10,-11.875 10,-11.875 z"
       id="path504"
       inkscape:connector-curvature="0" />
    <path
       style="fill:#d5d6eb;stroke:none"
       d="m 522.75,625.015 c 0,0 14.625,21 15.125,21.125 0.5,0.125 11,1.25 11,1.25 0,0 2.75,6.125 3.875,6.75 1.125,0.625 5.5,6 7.125,6.25 1.625,0.25 9,3.125 10.875,3.375 1.875,0.25 27.125,9.875 27.125,9.875 0,0 17,-10.375 17.375,-11 0.375,-0.625 3.875,-4.875 3.875,-4.875 l 1.125,-2.625 c 0,0 -0.75,-0.25 -5.75,1.875 -5,2.125 -7.375,3 -9.625,3.25 -2.25,0.25 -5.125,-0.375 -6.75,-1.375 -1.625,-1 -1,-0.75 -4.5,-1.75 -3.5,-1 -6.625,-1.375 -8.125,-1.625 -1.5,-0.25 -5.125,-0.5 -5.125,-0.5 l -8.625,-0.625 -2.125,-0.625 -16.375,-13.75 c 0,0 -8,-3.375 -8.625,-3.125 -0.625,0.25 -6.25,-8.75 -6.25,-8.75 l -6.875,-1 -7.75,-4 -1.5,-0.5 z"
       id="path506"
       inkscape:connector-curvature="0" />
    <path
       style="fill:#d5d6eb;stroke:none"
       d="m 490.75,610.64 c 0.5,1.25 -3.5,4.75 -3.5,6.25 0,1.5 0.5,3.5 0.5,3.5 0,0 5.25,-6.5 8,-7 2.75,-0.5 9.75,0.25 9.75,0.25 l 9,5.25 3.5,1.5 2.25,0.5 c 0,0 -2.25,-6.625 -1.5,-7.625 0.75,-1 1,-2.625 1,-2.625 l -13.5,-3.75 -6,-0.25 c 0,0 -10,2.75 -9.5,4 z"
       id="path508"
       inkscape:connector-curvature="0" />
    <path
       style="fill:#d5d6eb;stroke:none"
       d="m 499,560.64 c 0,0 8.25,6.75 11.25,6.75 3,0 2,0.25 2,0.25 l -5.75,14.25 c 0,0 -8.5,12.25 -9.5,11.75 -1,-0.5 -2.25,-2.25 -2.25,-2.25 l 0.5,-12 1.75,-12.75 z"
       id="path510"
       inkscape:connector-curvature="0" />
    <path
       style="fill:#d5d6eb;stroke:none"
       d="m 412.25,606.64 c 0,0 6.5,6.5 10.25,7.5 3.75,1 24.75,0.75 27.5,0.25 2.75,-0.5 3,-0.5 3,-0.5 0,0 2.75,-0.25 0,2.25 -2.75,2.5 -13,7 -13,7 l -5.5,1.75 -14.5,1.75 c 0,0 -11.25,-8.25 -11.25,-9.5 0,-1.25 3.75,-5.25 3.75,-5.25 0,0 1,-1 0,-3 -1,-2 -0.25,-2.25 -0.25,-2.25 z"
       id="path512"
       inkscape:connector-curvature="0" />
    <path
       style="fill:#d5d6eb;stroke:none"
       d="m 384.75,551.14 c 0,0 2,1.5 6.25,2.25 4.25,0.75 17.5,-1.5 20,-1.5 2.5,0 23.75,-0.25 25.75,-0.25 2,0 21,-12.75 22.25,-12.5 1.25,0.25 23.5,7.5 23.5,7.5 0,0 -33.25,20.75 -37.75,21.25 -4.5,0.5 -49,0.75 -50,0.25 -1,-0.5 -10.25,-14.75 -10.25,-14.75 l -1.75,-1.5 z"
       id="path514"
       inkscape:connector-curvature="0" />
    <g
       id="g520">
      <path
         style="fill:#6c6e77;stroke:none"
         d="m 500.25,606.14 3.5,-4.25 -1.25,3.75 z"
         id="path516"
         inkscape:connector-curvature="0" />
      <path
         style="fill:none;stroke:#6c6e77;stroke-width:1.00010002;stroke-linejoin:round"
         d="m 500.25,606.14 3.5,-4.25 -1.25,3.75 z"
         id="path518"
         inkscape:connector-curvature="0" />
    </g>
    <path
       style="fill:#d5d6eb;stroke:none"
       d="m 422.75,470.39 17.75,-2.625 11,-10.125 17.25,-3.375 11.25,-6.125 1.25,-0.5 -17,-5.5 -2,0.125 -1.625,-4.875 -3.125,-1.875 z"
       id="path522"
       inkscape:connector-curvature="0" />
    <g
       id="g528">
      <path
         style="fill:#517cb8;stroke:none"
         d="m 455.5,437.265 c 0,0 -13.875,15.75 -39.25,38 l -0.625,15.125 -1.5,0.5 c 0,0 -1.5,2.875 -2.25,3.75 -0.75,0.875 -1,4.75 -1,4.75 l -4,12.125 c 0,0 0,1 3,0 3,-1 5.375,-3 5.75,-2.5 0.375,0.5 -0.25,7.625 -0.25,7.625 0,0 -10.25,-1.625 -10.125,-1 0.125,0.625 -1.875,9.875 -1.875,9.875 0,0 -2.25,17.125 -1.875,20.875 0,0 2.875,0.375 4.25,0.125 1.375,-0.25 4.625,-2.125 5.5,-2.125 0.875,0 0.875,5.375 0.25,6.5 -0.625,1.125 -9.375,-1 -9.375,-1 l 6.625,15.375 c 0,0 3.625,11.375 4.125,13.75 0.5,2.375 0.5,2.25 1.875,2 1.375,-0.25 7.125,-3 7.125,-3 l 1.625,4.75 0.125,0.875 -8.5,0.125 5.125,9.875 c 0,0 -1,4.25 1.75,22.5 l 0.25,9 c 0,0 -3.875,4.375 -4.875,4.625 -1,0.25 0.5,5.625 -0.25,6.125 -0.75,0.5 -2.125,3.75 -2.125,3.75 0,0 -1.875,0.125 -2.625,0.625 -0.75,0.5 -1,1.875 -1,1.875 L 419,642.015 c 0,0 0,3.25 -2.125,4.625 -2.125,1.375 -7,-1.25 -7.25,-1.75 -0.25,-0.5 -8.5,13.25 -24.375,19.5 0,0 6.5,4 6.625,4.625 0.125,0.625 -4,4 -5.375,4 -1.375,0 -5.5,-6.25 -5.5,-6.25 l -19.625,7.25 -6.375,-2.75 c 0,0 21,-7.25 21.5,-7.75 0.5,-0.5 -2,-2.5 -2,-2.5 0,0 5,-4.375 5.625,-3.875 0.625,0.5 1.75,3.25 1.75,3.25 l 2.125,0.625 c 0,0 12.75,-10 12.5,-10.625 -0.25,-0.625 3,-0.375 3,-0.375 0,0 5.125,-5.625 4.625,-6.375 -0.5,-0.75 -2.875,-0.875 -2.875,-0.875 l 0.25,-8.5 h 2 c 0,0 1.75,3.5 2.75,3.25 1,-0.25 3.125,-2.25 3.75,-1.75 0.625,0.5 2.25,-0.25 2.5,-1.625 0.25,-1.375 0.75,-7.375 0.75,-7.375 h 2 c 0,0 -2,-6.375 -0.75,-7.25 1.25,-0.875 5.375,3 5.125,3.375 -0.25,0.375 0.125,-4.125 0.125,-4.125 0,0 -3.25,-8.125 -3,-9 0.25,-0.875 -0.75,-16 -0.75,-16 0,0 -4.75,-9.5 -5.625,-9.5 -0.875,0 -1.625,0.375 -3.125,0.375 -1.5,0 -1.5,0 -2.125,-0.75 -0.625,-0.75 -4.125,-4 -3.375,-4.5 0.75,-0.5 3.125,-0.75 3.75,-0.125 0.625,0.625 1.875,-0.125 1.875,-0.125 0,0 -8.125,-26.5 -10.75,-28.125 l -5.75,0.125 c 0,0 -0.625,-6.875 0.25,-6.5 0.875,0.375 5.375,1.75 5.375,1.75 0,0 1.375,0.375 1.375,-0.125 0,-0.5 1,-23.375 3.75,-30.375 l -6.75,-0.25 c 0,0 1.875,-7.375 2.875,-7.125 1,0.25 4.375,3 4.375,3 0,0 4,-15.75 3.5,-16.25 -0.5,-0.5 3.375,-4.125 3.375,-4.125 0,0 0.625,0.125 -0.125,-1.625 -0.75,-1.75 -0.75,-12.75 -0.75,-12.75 h -2.25 l -2,-3.5 0.25,-6.625 7.75,-2.75 18.375,-11.375 10.5,-12.25 5.125,-9.625 8.75,-1.5 3.375,2.375 0.5,3.75 z"
         id="path524"
         inkscape:connector-curvature="0" />
      <path
         style="fill:none;stroke:#2c2c2b;stroke-width:1"
         d="m 455.5,437.265 c 0,0 -13.875,15.75 -39.25,38 l -0.625,15.125 -1.5,0.5 c 0,0 -1.5,2.875 -2.25,3.75 -0.75,0.875 -1,4.75 -1,4.75 l -4,12.125 c 0,0 0,1 3,0 3,-1 5.375,-3 5.75,-2.5 0.375,0.5 -0.25,7.625 -0.25,7.625 0,0 -10.25,-1.625 -10.125,-1 0.125,0.625 -1.875,9.875 -1.875,9.875 0,0 -2.25,17.125 -1.875,20.875 0,0 2.875,0.375 4.25,0.125 1.375,-0.25 4.625,-2.125 5.5,-2.125 0.875,0 0.875,5.375 0.25,6.5 -0.625,1.125 -9.375,-1 -9.375,-1 l 6.625,15.375 c 0,0 3.625,11.375 4.125,13.75 0.5,2.375 0.5,2.25 1.875,2 1.375,-0.25 7.125,-3 7.125,-3 l 1.625,4.75 0.125,0.875 -8.5,0.125 5.125,9.875 c 0,0 -1,4.25 1.75,22.5 l 0.25,9 c 0,0 -3.875,4.375 -4.875,4.625 -1,0.25 0.5,5.625 -0.25,6.125 -0.75,0.5 -2.125,3.75 -2.125,3.75 0,0 -1.875,0.125 -2.625,0.625 -0.75,0.5 -1,1.875 -1,1.875 L 419,642.015 c 0,0 0,3.25 -2.125,4.625 -2.125,1.375 -7,-1.25 -7.25,-1.75 -0.25,-0.5 -8.5,13.25 -24.375,19.5 0,0 6.5,4 6.625,4.625 0.125,0.625 -4,4 -5.375,4 -1.375,0 -5.5,-6.25 -5.5,-6.25 l -19.625,7.25 -6.375,-2.75 c 0,0 21,-7.25 21.5,-7.75 0.5,-0.5 -2,-2.5 -2,-2.5 0,0 5,-4.375 5.625,-3.875 0.625,0.5 1.75,3.25 1.75,3.25 l 2.125,0.625 c 0,0 12.75,-10 12.5,-10.625 -0.25,-0.625 3,-0.375 3,-0.375 0,0 5.125,-5.625 4.625,-6.375 -0.5,-0.75 -2.875,-0.875 -2.875,-0.875 l 0.25,-8.5 h 2 c 0,0 1.75,3.5 2.75,3.25 1,-0.25 3.125,-2.25 3.75,-1.75 0.625,0.5 2.25,-0.25 2.5,-1.625 0.25,-1.375 0.75,-7.375 0.75,-7.375 h 2 c 0,0 -2,-6.375 -0.75,-7.25 1.25,-0.875 5.375,3 5.125,3.375 -0.25,0.375 0.125,-4.125 0.125,-4.125 0,0 -3.25,-8.125 -3,-9 0.25,-0.875 -0.75,-16 -0.75,-16 0,0 -4.75,-9.5 -5.625,-9.5 -0.875,0 -1.625,0.375 -3.125,0.375 -1.5,0 -1.5,0 -2.125,-0.75 -0.625,-0.75 -4.125,-4 -3.375,-4.5 0.75,-0.5 3.125,-0.75 3.75,-0.125 0.625,0.625 1.875,-0.125 1.875,-0.125 0,0 -8.125,-26.5 -10.75,-28.125 l -5.75,0.125 c 0,0 -0.625,-6.875 0.25,-6.5 0.875,0.375 5.375,1.75 5.375,1.75 0,0 1.375,0.375 1.375,-0.125 0,-0.5 1,-23.375 3.75,-30.375 l -6.75,-0.25 c 0,0 1.875,-7.375 2.875,-7.125 1,0.25 4.375,3 4.375,3 0,0 4,-15.75 3.5,-16.25 -0.5,-0.5 3.375,-4.125 3.375,-4.125 0,0 0.625,0.125 -0.125,-1.625 -0.75,-1.75 -0.75,-12.75 -0.75,-12.75 h -2.25 l -2,-3.5 0.25,-6.625 7.75,-2.75 18.375,-11.375 10.5,-12.25 5.125,-9.625 8.75,-1.5 3.375,2.375 0.5,3.75 z"
         id="path526"
         inkscape:connector-curvature="0" />
    </g>
    <path
       style="fill:none;stroke:#2c2c2b;stroke-width:1"
       d="m 461.5,444.89 c 0,0 -13.75,17.25 -20.5,23 -6.75,5.75 -13.5,14.75 -13.5,14.75"
       id="path530"
       inkscape:connector-curvature="0" />
    <path
       style="fill:none;stroke:#2c2c2b;stroke-width:1"
       d="M 422.75,486.89 414,491.64 Z"
       id="path532"
       inkscape:connector-curvature="0" />
    <g
       id="g538">
      <path
         style="fill:#2c2c2b;stroke:none"
         d="m 472.375,543.39 c -1,-0.75 -9.75,9.375 -9.75,9.375 0,0 10.75,-8.625 9.75,-9.375 z"
         id="path534"
         inkscape:connector-curvature="0" />
      <path
         style="fill:none;stroke:#2c2c2b;stroke-width:1"
         d="m 472.375,543.39 c -1,-0.75 -9.75,9.375 -9.75,9.375 0,0 10.75,-8.625 9.75,-9.375 z"
         id="path536"
         inkscape:connector-curvature="0" />
    </g>
    <path
       style="fill:none;stroke:#2c2c2b;stroke-width:1"
       d="m 498.875,550.515 c 0,0 -3.875,33.875 -4.625,34.875 -0.75,1 1.25,15.25 1.25,15.25 l 2.25,1.5 0.5,4.75 c 0,0 2,2.25 2.25,3.75 0.25,1.5 0,2.75 0,2.75"
       id="path540"
       inkscape:connector-curvature="0" />
    <path
       style="fill:none;stroke:#2c2c2b;stroke-width:1"
       d="m 514,609.14 c 0,0 -11.5,-3.5 -13.75,-2.75 -2.25,0.75 -10.75,3 -14.75,7.5"
       id="path542"
       inkscape:connector-curvature="0" />
    <g
       id="g548">
      <path
         style="fill:#2c2c2b;stroke:none"
         d="m 512.75,607.39 -10.25,-1.25 10.5,2.75 z"
         id="path544"
         inkscape:connector-curvature="0" />
      <path
         style="fill:none;stroke:#2c2c2b;stroke-width:1"
         d="m 512.75,607.39 -10.25,-1.25 10.5,2.75 z"
         id="path546"
         inkscape:connector-curvature="0" />
    </g>
    <g
       id="g554">
      <path
         style="fill:#2c2c2b;stroke:none"
         d="m 544,637.39 c 0,0 6.25,8.5 6,9.25 -0.25,0.75 -1.5,0.375 -1.5,0.375 l -5.125,-10.5 z"
         id="path550"
         inkscape:connector-curvature="0" />
      <path
         style="fill:none;stroke:#2c2c2b;stroke-width:1"
         d="m 544,637.39 c 0,0 6.25,8.5 6,9.25 -0.25,0.75 -1.5,0.375 -1.5,0.375 l -5.125,-10.5 z"
         id="path552"
         inkscape:connector-curvature="0" />
    </g>
    <g
       id="g560">
      <path
         style="fill:#2c2c2b;stroke:none"
         d="m 416.25,638.14 10.5,-0.125 c 0,0 40,-21 41.375,-22.375 1.375,-1.375 1.875,-1.875 1.875,-1.875 0,0 -43.125,25.5 -44.125,25.625 -1,0.125 -10.375,0 -10.375,0 z"
         id="path556"
         inkscape:connector-curvature="0" />
      <path
         style="fill:none;stroke:#2c2c2b;stroke-width:1"
         d="m 416.25,638.14 10.5,-0.125 c 0,0 40,-21 41.375,-22.375 1.375,-1.375 1.875,-1.875 1.875,-1.875 0,0 -43.125,25.5 -44.125,25.625 -1,0.125 -10.375,0 -10.375,0 z"
         id="path558"
         inkscape:connector-curvature="0" />
    </g>
    <g
       id="g566">
      <path
         style="fill:#2c2c2b;stroke:none"
         d="m 422.75,625.14 c 1.25,0.125 12.625,-0.25 12.875,-0.875 0.25,-0.625 -13.5,4 -15,3.5 -1.5,-0.5 2.125,-2.625 2.125,-2.625 z"
         id="path562"
         inkscape:connector-curvature="0" />
      <path
         style="fill:none;stroke:#2c2c2b;stroke-width:1"
         d="m 422.75,625.14 c 1.25,0.125 12.625,-0.25 12.875,-0.875 0.25,-0.625 -13.5,4 -15,3.5 -1.5,-0.5 2.125,-2.625 2.125,-2.625 z"
         id="path564"
         inkscape:connector-curvature="0" />
    </g>
    <path
       style="fill:none;stroke:#2c2c2b;stroke-width:1"
       d="m 399.625,661.14 c 0,0 23,-2.625 50.375,-23.375"
       id="path568"
       inkscape:connector-curvature="0" />
    <g
       id="g574">
      <path
         style="fill:#2c2c2b;stroke:none"
         d="m 387.25,643.39 c 0,0 -3.75,6.5 -4,8.25 -0.25,1.75 -0.625,4.875 -0.25,2.125 0.375,-2.75 4.25,-10.375 4.25,-10.375 z"
         id="path570"
         inkscape:connector-curvature="0" />
      <path
         style="fill:none;stroke:#2c2c2b;stroke-width:1"
         d="m 387.25,643.39 c 0,0 -3.75,6.5 -4,8.25 -0.25,1.75 -0.625,4.875 -0.25,2.125 0.375,-2.75 4.25,-10.375 4.25,-10.375 z"
         id="path572"
         inkscape:connector-curvature="0" />
    </g>
    <path
       style="fill:none;stroke:#2c2c2b;stroke-width:1"
       d="m 597.875,674.015 c 0,0 14.875,-8.125 19.625,-13.5 4.75,-5.375 13.375,-15.875 14.125,-15.75 0.75,0.125 1.875,-0.125 1.875,-0.125"
       id="path576"
       inkscape:connector-curvature="0" />
    <path
       style="fill:none;stroke:#2c2c2b;stroke-width:1"
       d="m 393.75,686.14 c 0,0 33.75,-6.25 36.5,-9.25"
       id="path578"
       inkscape:connector-curvature="0" />
    <path
       style="fill:none;stroke:#2c2c2b;stroke-width:1"
       d="m 429.75,694.14 c 0,0 -9.75,1.25 -11.75,0.75 -2,-0.5 -82.5,-30.75 -82.75,-31.25"
       id="path580"
       inkscape:connector-curvature="0" />
    <path
       style="fill:none;stroke:#2c2c2b;stroke-width:1"
       d="m 353.5,688.89 c -5,-1.5 -19,-8.25 -25.25,-8.25 -6.25,0 -4.5,0.25 -4.5,0.25"
       id="path582"
       inkscape:connector-curvature="0" />
    <path
       style="fill:none;stroke:#2c2c2b;stroke-width:1"
       d="m 196.5,629.89 c 0,0 28,-1 66.75,11.5"
       id="path584"
       inkscape:connector-curvature="0" />
    <path
       style="fill:none;stroke:#2c2c2b;stroke-width:1"
       d="m 129.75,614.89 c 0,0 48.25,-25.75 66.5,-29.75 18.25,-4 32.5,-5.25 41.75,-1.75"
       id="path586"
       inkscape:connector-curvature="0" />
    <path
       style="fill:none;stroke:#2c2c2b;stroke-width:1"
       d="m 411.25,613.14 c 0,0 -2,2.5 -2,3.75 0,1.25 5,6.75 5,6.75"
       id="path588"
       inkscape:connector-curvature="0" />
    <path
       style="fill:none;stroke:#2c2c2b;stroke-width:1"
       d="m 408.25,636.14 c -1.25,0 -4.25,-5.5 -4.25,-8.5"
       id="path590"
       inkscape:connector-curvature="0" />
    <path
       style="fill:none;stroke:#6c6e77;stroke-width:1.00010002;stroke-linejoin:round"
       d="m 485.5,589.89 5,-2.75"
       id="path592"
       inkscape:connector-curvature="0" />
    <path
       style="fill:none;stroke:#6c6e77;stroke-width:1"
       d="m 484,601.39 3,-2.5"
       id="path594"
       inkscape:connector-curvature="0" />
    <g
       id="g600">
      <path
         style="fill:#6c6e77;stroke:none"
         d="m 488.5,601.14 3.5,-5.75 -2.5,6 z"
         id="path596"
         inkscape:connector-curvature="0" />
      <path
         style="fill:none;stroke:#6c6e77;stroke-width:1.00010002;stroke-linejoin:round"
         d="m 488.5,601.14 3.5,-5.75 -2.5,6 z"
         id="path598"
         inkscape:connector-curvature="0" />
    </g>
    <path
       style="fill:none;stroke:#6c6e77;stroke-width:1.00010002;stroke-linejoin:round"
       d="m 505.75,605.64 1.5,-1 0.25,1 z"
       id="path602"
       inkscape:connector-curvature="0" />
    <path
       style="fill:none;stroke:#6c6e77;stroke-width:1"
       d="m 527.625,629.14 c 0.5,-0.875 7.125,0 8.875,1.25"
       id="path604"
       inkscape:connector-curvature="0" />
    <g
       id="g610">
      <path
         style="fill:#6c6e77;stroke:none"
         d="m 498,597.64 2,-0.5 z"
         id="path606"
         inkscape:connector-curvature="0" />
      <path
         style="fill:none;stroke:#6c6e77;stroke-width:1.00010002;stroke-linejoin:round"
         d="m 498,597.64 2,-0.5 z"
         id="path608"
         inkscape:connector-curvature="0" />
    </g>
    <path
       style="fill:none;stroke:#2c2c2b;stroke-width:2"
       d="m 413,473.64 c 0,0 -1.25,13.75 -1.5,15.75 -0.25,2 -3.75,5 -3.75,5 l -4.5,20 c 0,0 -3.5,17 -4,26.25 -0.5,9.25 8.5,30.75 8.5,30.75 l 4.75,14.25 3.75,6.25 c 0,0 2,13 1.5,15.5 -0.5,2.5 3,11.75 3,11.75 l -1.25,4.25 c 0,0 -2.5,2.25 -3.25,5.25 -0.75,3 0,10 -2.75,10 -2.75,0 -7,5.75 -8,6.5 -1,0.75 -11,12.5 -13.5,13.25 -2.5,0.75 -7.5,4.25 -7.5,4.25 l -26.25,10"
       id="path612"
       inkscape:connector-curvature="0" />
    <path
       style="fill:none;stroke:#6c6e77;stroke-width:1"
       d="m 486.625,599.515 c 1.75,1.5 2.875,1.5 2.875,1.5"
       id="path614"
       inkscape:connector-curvature="0" />
    <g
       id="g620">
      <path
         style="fill:#2c2c2b;stroke:none"
         d="m 519.75,618.89 -1.25,1.75 7.25,9 c 0,0 3.25,2.75 2.25,0 -1,-2.75 -3.25,-4.75 -3.25,-4.75 z"
         id="path616"
         inkscape:connector-curvature="0" />
      <path
         style="fill:none;stroke:#2c2c2b;stroke-width:1"
         d="m 519.75,618.89 -1.25,1.75 7.25,9 c 0,0 3.25,2.75 2.25,0 -1,-2.75 -3.25,-4.75 -3.25,-4.75 z"
         id="path618"
         inkscape:connector-curvature="0" />
    </g>
    <path
       style="fill:none;stroke:#2c2c2b;stroke-width:1"
       d="m 455.75,436.39 5.75,5.75 3,0.25 17,5 c 0,0 -20,10 -23,14 -3,4 -14.25,22.75 -15.75,31.5 0,0 -0.75,3.75 2.5,11.5 0,0 0,7.25 5.5,23 0,0 5.25,9.75 10.25,12.25 5,2.5 38.25,11 38.25,11 l 14,-7 c 0,0 2.5,2.5 2.5,3.5 0,1 -0.75,12.5 -1.75,14.25 -1,1.75 -5.25,18 -6.5,18.75 -1.25,0.75 -0.25,13.25 3.25,18.75 3.5,5.5 2.5,9.5 2.5,9.5 0,0 6.75,0.75 6.5,2.75 -0.25,2 -1.5,5.5 -0.25,6.5 1.25,1 4.75,5.5 4.75,5.5 0,0 4.25,3 7,3.75 2.75,0.75 7,1 7,1 l 5.5,8.75 c 0,0 7.25,1 10.25,4 3,3 15.5,13.5 17.75,13.75 2.25,0.25 28,1 32,0.25 4,-0.75 28.5,-14.5 30.25,-14.5 1.75,0 4.75,3.75 6.25,6.5 1.5,2.75 15.25,26 15.25,26 0,0 14,41.25 17.75,45 3.75,3.75 -28.5,-20.5 -32.25,-22.25 -3.75,-1.75 -37.5,-21 -59,-27.75 -21.5,-6.75 -21.75,-7 -21.75,-7 0,0 -7.75,-5.25 -8.5,-6.25 -0.75,-1 -1.75,-6.25 -3,-6.25 -0.354,0 -11.5,-1.25 -11.5,-1.25 0,0 -15,-21.5 -17.75,-24.25 -2.75,-2.75 -12.5,-9.25 -15.5,-9.5 -3,-0.25 -8.5,0 -9.75,1.25 -1.25,1.25 -4,3 -7.5,8.75 -3.5,5.75 -21.5,39.25 -24.25,41.5 -2.75,2.25 -16,20 -35,31 0,0 -13.75,9 -14.75,9.25 -1,0.25 -11.75,0.25 -16.5,-1.25 -4.75,-1.5 -39.25,-15 -42.25,-14.5 -3,0.5 -60.25,-2.5 -66.75,-3 0,0 -7,-2.5 -9.25,-3.75 -1.329,-0.739 -2.25,-0.5 -3.5,-1.75 -1.25,-1.25 -16.5,-22 -22.5,-25.75 -6,-3.75 0.25,-3.25 -30,-13.75 0,0 -1.25,1.75 -15.75,-6.5 -14.5,-8.25 -16.25,-5.5 -16.25,-5.5 0,0 -53,-15 -59.5,-14.5 -6.5,0.5 -21.75,12 -21.75,12 L 108,607.39 c 0,0 42.25,-22.75 64.5,-28.75 22.25,-6 27.5,-6.25 33.5,-6 6,0.25 43.75,9.75 46.5,11.5 2.75,1.75 34.75,39.5 37.75,44 3,4.5 15.5,19.25 21.25,22.75 5.75,3.5 21.25,12.75 23.5,12.75 2.25,0 12.5,-4.75 16,-5.75 3.5,-1 11.5,-2 13.75,-2.5 2.25,-0.5 6.5,-1.25 8.25,-3 1.75,-1.75 8.5,-8.75 9.5,-8.75 1,0 4.5,0 4.5,0 0,0 6.75,-10.25 6.25,-11.75 -0.5,-1.5 -0.75,-5 0.5,-5 1.25,0 4.5,-0.25 5.5,-1.5 1,-1.25 5.75,-10.5 6.75,-11.25 1,-0.75 5,-0.5 5,-0.5 0,0 2.5,-1.75 1.75,-3.25 -0.75,-1.5 -5.5,-8.75 -6,-10.75 -0.5,-2 -0.75,-5.25 -2.5,-9.25 -1.75,-4 -4.5,-10.75 -7.25,-12 0,0 -5.5,-16.75 -8.75,-19.75 -3.25,-3 -4.5,-7.25 -5.75,-7 -1.25,0.25 -1.25,-25.75 1.5,-31.25 2.75,-5.5 7.75,-23.25 9.5,-24.5 1.75,-1.25 8.25,-13.5 8.25,-13.5 l 3.5,-17 c 0,0 17.25,-12 19,-12.5 1.75,-0.5 15,-13.75 15,-13.75 l 10,-9.75 7,-2 2.5,6.75 z"
       id="path622"
       inkscape:connector-curvature="0" />
  </g>
  <g
     id="g658"
     transform="matrix(1.4980241,0,0,1.4980241,-464.96763,-285.42598)">
    <path
       style="fill:#ffffff;stroke:none"
       d="m 304.438,485.952 c 0,0 -0.938,1.5 -0.376,1.875 0.563,0.375 0.938,2.813 1.626,3.063 0.687,0.25 1.624,0.375 1.624,0.375 l 2.313,-4.813 z"
       id="path626"
       inkscape:connector-curvature="0" />
    <path
       style="fill:#c0c0c0;stroke:none"
       d="m 304.438,486.765 c 1.75,1.312 0.624,3.875 2.937,4.125 l -1.813,3.812 c 0,0 -5.687,-1.812 -6.187,-1.75 -0.5,0.063 3.313,-7.5 5.063,-6.187 z"
       id="path628"
       inkscape:connector-curvature="0" />
    <path
       style="fill:#ffffff;stroke:none"
       d="m 348.625,487.89 c -0.375,0.75 -1.75,2.5 -1.75,2.5 l -1,1.75 5.75,-0.625 0.375,-4.375 c 0,0 -3,0 -3.375,0.75 z"
       id="path630"
       inkscape:connector-curvature="0" />
    <path
       style="fill:#c0c0c0;stroke:none"
       d="m 347.25,490.765 c 0.375,0.5 4.125,-0.25 4.125,0.25 0,0.5 -0.25,3.25 -0.25,3.25 l -5.125,1 -0.75,-1.125 c 0,0 1.625,-3.875 2,-3.375 z"
       id="path632"
       inkscape:connector-curvature="0" />
    <path
       style="fill:#85542c;stroke:none"
       d="M 351.625,490.265 352,486.89 c 0,0 5.75,-1.75 6.375,-2.5 0.625,-0.75 2.25,-2.5 3.75,-3 1.5,-0.5 3.625,-0.75 4.25,-0.125 0.625,0.625 3.625,1.875 3.625,1.875 0,0 2.75,0.75 3.375,0.75 0.625,0 5.625,-5.375 6.75,-5.625 1.125,-0.25 2.5,-1.125 5.25,0.125 2.75,1.25 4,2.25 4.5,2 0.5,-0.25 8.625,-8.25 8.625,-8.25 l 1.75,-2.125 c 0,0 0.5,-1.625 1,-1.625 0.5,0 3.75,-0.5 3.75,-0.5 l 1.375,1.375 -4.875,8.625 -4.625,3.25 c 0,0 -2.25,2.625 -2.875,2.875 -0.625,0.25 -4.875,2.875 -4.875,2.875 0,0 -3.125,2.125 -4,2.25 -0.875,0.125 -2.75,0.75 -3.375,0.5 -0.625,-0.25 -3.125,-1.25 -4,-1.25 -0.875,0 -4.125,0.25 -4.125,0.25 0,0 -1.25,0 -2.25,0.25 -1,0.25 -1.75,0 -2.75,0.5 -1,0.5 -0.875,-0.125 -3.125,1.25 -2.25,1.375 -2.25,1.5 -2.25,1.5 0,0 -1.5,0.5 -2.875,0.625 -1.375,0.125 -4.5,-0.125 -4.5,-0.125 l -2.75,-0.75 z"
       id="path634"
       inkscape:connector-curvature="0" />
    <path
       style="fill:#5f3513;stroke:none"
       d="m 352.375,490.765 c 0.5,0.5 7.75,0.875 9.5,0.125 1.75,-0.75 5.375,-3 8.125,-3.25 2.75,-0.25 6.25,-0.875 9,0 2.75,0.875 4.5,1.375 6.75,0.125 2.25,-1.25 6.375,-4.375 8.5,-5.5 2.125,-1.125 7.125,-5.75 7.625,-6.625 0.5,-0.875 1.875,-3.25 2.5,-4 0.625,-0.75 1.375,-1.5 1.375,-1.5 h 1.125 l 0.75,5.375 -8.625,9.875 c 0,0 -3.25,1 -4.25,1.375 -1,0.375 -6.875,4.75 -7.375,5 -0.5,0.25 -2.375,1.5 -3.25,1 -0.875,-0.5 -5,-1.75 -6.125,-2.25 -1.125,-0.5 -5.5,0.375 -5.5,0.375 0,0 -7.625,5.375 -8.75,5.5 -1.125,0.125 -8.375,-0.125 -9.375,-0.5 -1,-0.375 -3.25,-1.375 -3.25,-1.375 0,0 0.75,-4.25 1.25,-3.75 z"
       id="path636"
       inkscape:connector-curvature="0" />
    <path
       style="fill:#85542c;stroke:none"
       d="m 310.625,486.765 c 0.5,0.5 2.875,-0.125 2.875,-0.125 0,0 4.75,-3.375 6.125,-3 1.375,0.375 4.375,2.375 6.25,2.625 1.875,0.25 4.125,-0.75 4.125,-0.75 0,0 2.375,-1.75 6.5,-1.875 4.125,-0.125 5.5,-0.25 6.125,0.75 0.625,1 5.25,2.75 5.25,2.75 l 0.75,0.625 -3.125,5 c 0,0 -37.875,0.562 -37.625,-0.938 0.25,-1.5 2.25,-5.562 2.75,-5.062 z"
       id="path638"
       inkscape:connector-curvature="0" />
    <path
       style="fill:#5f3513;stroke:none"
       d="m 308.188,491.577 c 0.498,0.811 36.374,0.875 38.124,-0.75 1.75,-1.625 -0.812,2.188 -0.812,2.188 l 0.375,2 -2.5,2.5 -6.125,1.125 c 0,0 -8.25,-3.25 -8.875,-3.25 -0.625,0 -3.5,1.625 -4.375,2 -0.875,0.375 -2.875,2.125 -3.5,2.125 -0.625,0 -5.75,-1 -6.5,-1.375 -0.75,-0.375 -8.188,-3.375 -8.188,-3.375 0,0 1.876,-4 2.376,-3.188 z"
       id="path640"
       inkscape:connector-curvature="0" />
    <path
       style="fill:#5f3513;stroke:none"
       d="m 276.25,470.765 c 0.375,1.625 -0.625,3.5 0.25,4.625 0.417,0.535 3.67,4.604 7.375,8.312 4.08,4.083 8.625,7.813 8.625,7.813 l 6.25,1.75 c 0,0 3.5,-6.875 4.5,-6.875 1,0 1.125,0 1.125,0 0,0 -3.625,-2.375 -4.125,-4.375 -0.5,-2 -2.25,-14.875 -2.25,-14.875 l 5.375,-7.375 c 0,0 -3.125,0.375 -6.625,5.375 0,0 -1.125,-0.625 -0.75,-1.375 0.375,-0.75 2.375,-5.125 3.5,-6.375 1.125,-1.25 2.25,-2.25 2.25,-2.25 l -5.125,0.875 c 0,0 -4.625,5.375 -5.125,6.125 -0.5,0.75 -1.625,4.875 -2,5.5 -0.375,0.625 -1.875,-2.5 -1.875,-3.5 0,-1 -0.5,-4.75 -1.125,-5.25 -0.625,-0.5 -2.75,-1.75 -3.125,-1.25 -0.375,0.5 -0.625,4.875 -0.375,5.75 0.25,0.875 1.875,4.875 1.75,5.5 -0.125,0.625 -1,4.125 -1.25,4.625 -0.25,0.5 -1.875,0.375 -2.875,-0.75 -1,-1.125 -3.25,-3.375 -3.25,-3.375 0,0 -1.5,-0.25 -1.125,1.375 z"
       id="path642"
       inkscape:connector-curvature="0" />
    <path
       style="fill:#85542c;stroke:none"
       d="m 276.125,469.89 c 0,0 6.125,7.625 8,7.25 1.875,-0.375 0.875,2.75 1.5,-3.125 0.625,-5.875 0.125,-10.25 -0.375,-11.25 -0.5,-1 -1.375,-5.75 0.375,-1.5 1.75,4.25 1.375,6.875 1.5,7.375 0.125,0.5 -0.25,2 1.125,1.75 1.375,-0.25 0.875,2.375 2.25,-2 1.375,-4.375 0.375,-4.25 2.625,-6.625 2.25,-2.375 2,-3.125 3.875,-4.125 1.875,-1 2,-2.125 3.5,-2.125 1.5,0 4.625,-3.25 4.625,-3.25 L 307,449.39 v -4 l 4.25,-5.125 c 0,0 -5.875,0.375 -14.875,9.375 l -0.5,0.5 -1,-1 7.125,-11.5 -14.5,15.375 c 0,0 -1.25,1.125 -1.625,0.5 -0.375,-0.625 3.125,-7.25 3.125,-7.25 0,0 -10,9.125 -12.125,17.125 -2.125,8 -0.75,6.5 -0.75,6.5 z"
       id="path644"
       inkscape:connector-curvature="0" />
    <g
       id="g650">
      <path
         style="fill:#5f3513;stroke:none"
         d="m 451.25,422.14 c 0,0 7.375,0 8.125,2 0.75,2 0.625,7.875 0.625,7.875 l 0.625,1.375 c 0,0 3.375,0.375 4,2 0.625,1.625 0.25,6.625 0.25,6.625 l -3.125,0.125 -5.875,-5.875 c 0,0 0.75,-4 -1.875,-4.5 -2.625,-0.5 -4.75,-0.25 -4.75,-0.25 l -4.125,-0.75 -3.25,-3.625 0.75,-3.625 1.375,-2.625 2.875,-0.25 1.75,0.75 2.125,0.5 z"
         id="path646"
         inkscape:connector-curvature="0" />
      <path
         style="fill:none;stroke:#2c2c2b;stroke-width:1"
         d="m 451.25,422.14 c 0,0 7.375,0 8.125,2 0.75,2 0.625,7.875 0.625,7.875 l 0.625,1.375 c 0,0 3.375,0.375 4,2 0.625,1.625 0.25,6.625 0.25,6.625 l -3.125,0.125 -5.875,-5.875 c 0,0 0.75,-4 -1.875,-4.5 -2.625,-0.5 -4.75,-0.25 -4.75,-0.25 l -4.125,-0.75 -3.25,-3.625 0.75,-3.625 1.375,-2.625 2.875,-0.25 1.75,0.75 2.125,0.5 z"
         id="path648"
         inkscape:connector-curvature="0" />
    </g>
    <path
       style="fill:none;stroke:#2c2c2b;stroke-width:1"
       d="m 399.875,470.265 -8.875,9.5 c 0,0 -2.5,0.625 -3.75,-0.125 -1.25,-0.75 -5.25,-3.375 -8.75,-0.375 -3.5,3 -4.75,4.75 -5.25,4.75 -0.5,0 -2.75,-0.625 -4.125,-1.375 -1.375,-0.75 -5.375,-3.75 -9.5,0.5 -4.125,4.25 -4.5,3 -6.375,3.375 -1.875,0.375 -3.625,0.625 -5.875,0.375 -2.25,-0.25 -5.75,-2.875 -5.75,-2.875 0,0 -7.375,-1.375 -11.75,1.25 0,0 -1.5,1.25 -3,1.25 -1.5,0 -4.5,-2.25 -5.625,-2.5 -1.125,-0.25 -0.75,-0.875 -3.625,0.125 -2.875,1 -4,2.5 -4.875,2.5 -0.875,0 -6.125,-0.5 -6.125,-0.5 0,0 -2.875,0 -4.5,-1.75 -1.625,-1.75 -2.625,-6.375 -3,-8.625 -0.375,-2.25 -1.625,-8.5 -0.5,-9.5 1.125,-1 4,-6.25 5,-6.5 1,-0.25 -0.875,-2.5 -7.125,5.625 0,0 -1.125,-1.25 0.25,-4 1.375,-2.75 9.75,-10.375 10.25,-11.75 0.5,-1.375 -0.75,-4.75 0.875,-6.125 1.625,-1.375 4,-4.125 4,-4.125 0,0 -9.5,3 -15.875,11 0,0 -1.5,-0.75 -0.75,-1.75 0.75,-1 8.75,-14.625 9.75,-15.375 1,-0.75 -17.25,20.375 -18.375,20.25 -1.125,-0.125 -1,-0.375 -1,-0.375 0,0 3,-6.375 3.5,-6.75 0.5,-0.375 -6.25,3.375 -12.75,18.25 0,0 -1,8.125 -0.25,10 0.75,1.875 2.875,4.875 16.375,17 0,0 7.125,2 7.75,1.75 0.625,-0.25 3.875,1.5 5.375,1.5 1.5,0 9,3.75 11.375,4 2.375,0.25 2.5,1.5 5.5,-0.5 3,-2 4.375,-3.125 5.875,-2.875 1.5,0.25 6.125,2.75 9.375,2.75 3.25,0 4.625,-0.25 7.125,-1.875 2.5,-1.625 2.375,-1.75 5.5,-1.375 3.125,0.375 3.375,0.5 3.375,0.5 0,0 0.875,0.625 5.5,0.875 4.625,0.25 4.875,-0.25 5.5,-0.625 0.625,-0.375 7,-4.875 9.375,-5.125 2.375,-0.25 4.625,-0.25 5.75,0.75 1.125,1 6,1.25 6,1.25 0,0 6.125,-4.75 7.5,-5.25 1.375,-0.5 3.75,-1.25 5.25,-2.125 1.5,-0.875 7.25,-7.25 7.25,-7.875 0,-0.625 1.625,-2.625 1.625,-2.625 0,0 0,-2.875 -0.625,-3.625 -0.625,-0.75 -1.5,-3.25 -1.5,-3.25 l -3.75,-2 -2.25,2.625 z"
       id="path652"
       inkscape:connector-curvature="0" />
    <path
       style="fill:none;stroke:#2c2c2b;stroke-width:1"
       d="m 304.562,486.39 c 0,0 -3.51,1.474 -5.5,6.25 l 2.876,0.375 c 0.874,0.75 4.374,-6.5 5,-6.375 0.624,0.125 2.5,0.5 2.5,0.5 0,0 -3.5,7 -3.376,7.625 0.126,0.625 -2.953,-1.48 -2.953,-1.48 -1.355,-0.258 0.671,-1.776 3.829,-6.77 z"
       id="path654"
       inkscape:connector-curvature="0" />
    <path
       style="fill:none;stroke:#2c2c2b;stroke-width:1"
       d="m 348.375,488.015 c -0.5,0.875 -3.25,4.625 -2.875,6.5 0.375,1.875 2.75,0 2.75,0 0,0 1.5,-6.375 2,-7 0.5,-0.625 1.625,-0.25 1.625,-0.25 l -0.5,7.125 c 0,0 -2.75,1 -2.875,0.125 -0.125,-0.875 1.75,-7.125 1.75,-7.125 0,0 -1.375,-0.25 -1.875,0.625 z"
       id="path656"
       inkscape:connector-curvature="0" />
  </g>
  <g
     id="g710"
     transform="matrix(1.4980241,0,0,1.4980241,-464.96763,-285.42598)">
    <g
       id="g664">
      <path
         style="fill:#b38761;stroke:none"
         d="m 447.125,426.515 4.75,9.375 c 0,0 -20.25,24.75 -39.25,37.375 l -3.25,-3.75 1.625,-8.25 11.25,-10 6.625,-9.125 c 0,0 5.25,-11.75 5.375,-12.5 0.125,-0.75 5.5,-4.125 5.5,-4.125 l 3.875,0.5 z"
         id="path660"
         inkscape:connector-curvature="0" />
      <path
         style="fill:none;stroke:#2c2c2b;stroke-width:1"
         d="m 447.125,426.515 4.75,9.375 c 0,0 -20.25,24.75 -39.25,37.375 l -3.25,-3.75 1.625,-8.25 11.25,-10 6.625,-9.125 c 0,0 5.25,-11.75 5.375,-12.5 0.125,-0.75 5.5,-4.125 5.5,-4.125 l 3.875,0.5 z"
         id="path662"
         inkscape:connector-curvature="0" />
    </g>
    <path
       style="fill:#d19f7d;stroke:none"
       d="m 373.875,440.015 2,4.75 8.5,-0.375 4,2.5 20.875,17.75 1,2.75 0.125,1.75 1.75,0.125 24.75,-26 c 0,0 0.875,-14.625 1.625,-14.375 0.75,0.25 5,1.25 5.875,0.125 0.875,-1.125 11.25,-13.125 11.25,-13.125 l -0.25,-11.5 c 0,0 -3.75,-3.5 -4.875,-3.375 -1.125,0.125 -10.875,-1.5 -10.875,-1.5 l -8.125,2.625 -3.5,4.25 c 0,0 -8.125,7.875 -9,9 -0.875,1.125 -11.75,9.75 -11.75,9.75 0,0 -2.75,5.125 -3.75,5.5 -1,0.375 -12.5,1.75 -12.5,1.75 l -10.125,1.25 -5.375,0.875 -2.25,1.25 z"
       id="path666"
       inkscape:connector-curvature="0" />
    <path
       style="fill:#c19070;stroke:none"
       d="m 442.688,414.452 c 0.437,0.563 0.124,2.188 0.374,2.375 0.25,0.188 -0.187,1.188 -0.187,1.188 l -1.313,2.125 c 0,0 -1.187,0.937 -1.124,1.25 0.062,0.312 -0.063,2.375 -0.063,2.375 l 1.687,-1.313 c 0,0 1.313,0.063 1.563,0.063 0.25,0 1.313,0.312 1.437,0 0.126,-0.313 1.313,-0.688 1.313,-1.5 0,-0.813 -0.125,-2.25 -0.063,-2.563 0.063,-0.312 0.313,-2.687 0.313,-2.687 0,0 0,-1.688 -0.25,-2 -0.25,-0.313 -1.187,-0.688 -1.625,-0.563 -0.438,0.125 -1.438,0.438 -1.438,0.438 0,0 -1.062,0.25 -0.624,0.812 z"
       id="path668"
       inkscape:connector-curvature="0" />
    <path
       style="fill:#c19070;stroke:none"
       d="m 390.625,444.265 c 0,0 2.5,-1.875 3.5,-1.125 1,0.75 2.625,1.625 2.5,3.375 -0.125,1.75 -0.5,3.75 -0.5,3.75 0,0 -1.75,0.25 -2.75,-0.5 -1,-0.75 -3.375,-2.125 -4.25,-3.375 -0.875,-1.25 1,-1.75 1,-1.75 z"
       id="path670"
       inkscape:connector-curvature="0" />
    <path
       style="fill:#f6db96;stroke:none"
       d="m 375.5,443.64 c 0,0 6.125,-0.875 8.375,-0.375 2.25,0.5 24.875,18 26,20 0,0 1.875,3.25 1.75,4.375 -0.125,1.125 -0.125,2.125 -0.125,2.125 l -16.625,-0.375 z"
       id="path672"
       inkscape:connector-curvature="0" />
    <g
       id="g678">
      <path
         style="fill:#5f3513;stroke:none"
         d="m 384.5,438.89 v 4.25 c 0,0 0.875,2 2.5,2.375 1.625,0.375 3.5,0.125 3.5,0.125 l -0.125,-0.5 -3,-0.125 c 0,0 -1.125,0.125 -1.625,-1.5 -0.5,-1.625 -0.25,-3.125 -0.25,-3.125 l 0.125,-1.125 z"
         id="path674"
         inkscape:connector-curvature="0" />
      <path
         style="fill:none;stroke:#5f3512;stroke-width:1.00010002;stroke-linejoin:round"
         d="m 384.5,438.89 v 4.25 c 0,0 0.875,2 2.5,2.375 1.625,0.375 3.5,0.125 3.5,0.125 l -0.125,-0.5 -3,-0.125 c 0,0 -1.125,0.125 -1.625,-1.5 -0.5,-1.625 -0.25,-3.125 -0.25,-3.125 l 0.125,-1.125 z"
         id="path676"
         inkscape:connector-curvature="0" />
    </g>
    <path
       style="fill:none;stroke:#5f3513;stroke-width:1.00010002;stroke-linejoin:round"
       d="m 394.25,444.14 0.5,0.875 c 1.625,-0.75 1.875,-0.5 1.875,-1 0,-0.5 -2.375,0.125 -2.375,0.125 z"
       id="path680"
       inkscape:connector-curvature="0" />
    <path
       style="fill:none;stroke:#5f3513;stroke-width:1.00010002;stroke-linejoin:round"
       d="m 390,452.265 c 0,0 25.75,-6.25 27.25,-7.75 l -7.375,2.125 -7.5,2.25 -6,1.5 -5.5,1.375 -1.375,0.5 z"
       id="path682"
       inkscape:connector-curvature="0" />
    <g
       id="g688">
      <path
         style="fill:#230700;stroke:none"
         d="m 396.5,456.14 c 0,0 5.375,-1.75 5.75,-1.25 0.375,0.5 -1.062,0.812 -1.062,0.812 0,0 -2.438,-0.062 -2.563,0.313 0.313,-0.25 -1.375,1.125 -1.375,1.125 z"
         id="path684"
         inkscape:connector-curvature="0" />
      <path
         style="fill:none;stroke:#230700;stroke-width:1.00010002;stroke-linejoin:round"
         d="m 396.5,456.14 c 0,0 5.375,-1.75 5.75,-1.25 0.375,0.5 -1.062,0.812 -1.062,0.812 0,0 -2.438,-0.062 -2.563,0.313 0.313,-0.25 -1.375,1.125 -1.375,1.125 z"
         id="path686"
         inkscape:connector-curvature="0" />
    </g>
    <path
       style="fill:none;stroke:#230700;stroke-width:1.00010002;stroke-linejoin:round"
       d="m 452.625,408.39 c 0,0 0.25,-3.375 -1.5,-3.125 l -4,0.125 c 0,0 -4.625,5.625 -4.5,6.625 0.125,1 0.125,1.625 0.125,1.625 0,0 2.75,-0.875 3.25,-0.375 0.5,0.5 0.5,1.875 0.75,2.75 0.25,0.875 -0.25,3.125 -0.375,3.625 -0.125,0.5 0.25,2.375 -1,2.875 -1.25,0.5 -3,-0.125 -3,-0.125 0,0 -0.875,1 -1.75,1.25 -0.875,0.25 -1.5,2.125 -0.75,0 0.75,-2.125 0.25,-2.625 1.125,-3.375 0.875,-0.75 1.875,-2 2,-2.625 0.125,-0.625 0.5,-0.375 0.75,-0.875"
       id="path690"
       inkscape:connector-curvature="0" />
    <path
       style="fill:none;stroke:#230700;stroke-width:1.00010002;stroke-linejoin:round"
       d="m 445.75,408.39 h 3 l -3.75,0.125 z"
       id="path692"
       inkscape:connector-curvature="0" />
    <g
       id="g698">
      <path
         style="fill:#230700;stroke:none"
         d="m 446.625,420.015 c 0,0 6.375,-6.375 6.5,-7.375 0.125,-1 -0.625,-1.25 -0.625,-1.25 h -1.125 c 0,0 -0.25,-0.75 -0.75,0.875 -0.5,1.625 -1.125,2.625 -1.125,2.625 l -0.75,2.875 z"
         id="path694"
         inkscape:connector-curvature="0" />
      <path
         style="fill:none;stroke:#734521;stroke-width:1.00010002;stroke-linejoin:round"
         d="m 446.625,420.015 c 0,0 6.375,-6.375 6.5,-7.375 0.125,-1 -0.625,-1.25 -0.625,-1.25 h -1.125 c 0,0 -0.25,-0.75 -0.75,0.875 -0.5,1.625 -1.125,2.625 -1.125,2.625 l -0.75,2.875 z"
         id="path696"
         inkscape:connector-curvature="0" />
    </g>
    <g
       id="g704">
      <path
         style="fill:#5f3513;stroke:none"
         d="m 429.812,409.015 c 0,0 4.688,7.187 4.75,9.312 0.063,2.125 -0.062,1.5 -0.062,1.5 0,0 4.625,-11.062 5.5,-11.437 0.875,-0.375 0,-3.438 0,-3.438 l -3.75,-2.062 -4.25,-0.625 -1.938,1.375 -1.374,2.125 0.5,2.562 z"
         id="path700"
         inkscape:connector-curvature="0" />
      <path
         style="fill:none;stroke:#2c2c2b;stroke-width:1"
         d="m 429.812,409.015 c 0,0 4.688,7.187 4.75,9.312 0.063,2.125 -0.062,1.5 -0.062,1.5 0,0 4.625,-11.062 5.5,-11.437 0.875,-0.375 0,-3.438 0,-3.438 l -3.75,-2.062 -4.25,-0.625 -1.938,1.375 -1.374,2.125 0.5,2.562 z"
         id="path702"
         inkscape:connector-curvature="0" />
    </g>
    <path
       style="fill:none;stroke:#2c2c2b;stroke-width:1"
       d="m 373.875,439.765 c 0,0 0.875,3.875 3,6.5 2.125,2.625 17.625,22 17.75,22.875 0.125,0.875 17.25,0.5 18,0 0.75,-0.5 24.125,-26.125 24.125,-26.125 0,0 1,-13.625 1.625,-14.125 0.625,-0.5 0.25,0.5 0.25,0.5 0,0 5.625,0.625 6.125,-0.125 0.5,-0.75 10.75,-13.125 10.75,-13.625 0,-0.5 0.5,-10.5 -0.5,-11.75 -1,-1.25 -4.5,-3.25 -5.5,-3 -1,0.25 -9.375,-1 -9.375,-1 l -15.625,-3.875 -6.375,10.75 -9.625,5.875 -11.5,4.875 -15,1.75 c 0,0 -7,3.625 -7,4.75 0,1.125 0,6.25 0,6.25 l -2.375,5 z"
       id="path706"
       inkscape:connector-curvature="0" />
    <path
       style="fill:none;stroke:#5f3513;stroke-width:1.00010002;stroke-linejoin:round"
       d="m 441.5,432.765 -4.375,18.375"
       id="path708"
       inkscape:connector-curvature="0" />
  </g>
  <g
     id="g764"
     transform="matrix(1.4980241,0,0,1.4980241,-464.96763,-285.42598)">
    <path
       style="fill:#4461b6;stroke:none"
       d="m 358,412.64 c 0,0 13.5,-14 17.875,-14.375 4.375,-0.375 34.625,-0.375 34.625,-0.375 l 8.125,2.375 c 1.125,-0.25 -6.625,-43.75 -13,-43 l -1.625,-0.5 c 0,0 -1.75,-3.875 -4.25,-3.375 l -2.625,-0.25 c 0,0 -2.625,0.5 -3.875,4.25 0,0 -25.75,6.75 -35,25.875 z"
       id="path712"
       inkscape:connector-curvature="0" />
    <path
       style="fill:#2a468d;stroke:none"
       d="m 404.5,357.39 c 0,0 8.25,-1.5 14,42.625 l 22.125,7.75 c 0,0 1.625,-4.75 2.5,-5.5 0.875,-0.75 5,-1 5.5,-0.875 0.5,0.125 2.375,-46.5 -44.125,-44.875 z"
       id="path714"
       inkscape:connector-curvature="0" />
    <g
       id="g720">
      <path
         style="fill:none;stroke:none"
         d="m 376.625,398.39 c 1.75,-25.125 3.125,-27.75 3.125,-27.75 4.125,-6.75 14.5,-13.625 14.5,-13.625 l 15.875,-0.125 c 0,0 23.5,-1.75 22.5,47.625"
         id="path716"
         inkscape:connector-curvature="0" />
      <path
         style="fill:none;stroke:#0e2a69;stroke-width:1"
         d="m 376.625,398.39 c 1.75,-25.125 3.125,-27.75 3.125,-27.75 4.125,-6.75 14.5,-13.625 14.5,-13.625 l 15.875,-0.125 c 0,0 23.5,-1.75 22.5,47.625"
         id="path718"
         inkscape:connector-curvature="0" />
    </g>
    <g
       id="g734">
      <g
         id="g726">
        <path
           style="fill:#9c1e33;stroke:none"
           d="m 417.5,383.515 c 0,-6.904 5.289,-12.5 11.812,-12.5 6.524,0 11.813,5.596 11.813,12.5 0,6.903 -5.289,12.5 -11.813,12.5 -6.523,0 -11.812,-5.597 -11.812,-12.5 z"
           id="path722"
           inkscape:connector-curvature="0" />
        <path
           style="fill:#9c1e33;stroke:none"
           d="M 429.312,383.515"
           id="path724"
           inkscape:connector-curvature="0" />
      </g>
      <g
         id="g732">
        <path
           style="fill:none;stroke:#2c2c2b;stroke-width:1"
           d="m 417.5,383.515 c 0,-6.904 5.289,-12.5 11.812,-12.5 6.524,0 11.813,5.596 11.813,12.5 0,6.903 -5.289,12.5 -11.813,12.5 -6.523,0 -11.812,-5.597 -11.812,-12.5 z"
           id="path728"
           inkscape:connector-curvature="0" />
        <path
           style="fill:none;stroke:#2c2c2b;stroke-width:1"
           d="M 429.312,383.515"
           id="path730"
           inkscape:connector-curvature="0" />
      </g>
    </g>
    <path
       style="fill:#f8df7c;stroke:none"
       d="m 358.625,412.64 c 0,0 9.625,-11.125 17.25,-14.125 L 408.5,398.39 c 0,0 22.625,4.5 23.125,5.75 0.5,1.25 -26.25,34.75 -32.5,35.125 -6.25,0.375 -34.75,0.125 -34.75,0.125 0,0 -15.875,5.125 -18.125,10.125 l -3.875,0.125 z"
       id="path736"
       inkscape:connector-curvature="0" />
    <path
       style="fill:#cd864d;stroke:none"
       d="m 417.688,400.577 c 0.5,-0.75 -22.688,36.813 -24.938,38.188 -2.25,1.375 7.375,-0.125 7.375,-0.125 0,0 5.875,-4.125 8,-6.25 2.125,-2.125 24.263,-26.738 23.563,-27.75 -1.126,-1.625 -13.626,-4.438 -14,-4.063 z"
       id="path738"
       inkscape:connector-curvature="0" />
    <path
       style="fill:none;stroke:#2c2c2b;stroke-width:1"
       d="m 357.875,383.265 c 0,0 11,-19.75 35.5,-26.125 0,0 0.375,-2 1.375,-2.625 1,-0.625 2,-2.375 7.375,-0.375 0,0 1.375,1.25 1.875,2.375 0.5,1.125 42.375,-6.5 44.875,44.5 0,0 -4,0 -5.375,1.125 -1.375,1.125 -2.875,5.75 -2.875,5.75 0,0 -7.75,-3.375 -8.5,-3.125 -0.75,0.25 -24.5,32.5 -33.375,34.375 l -34.125,0.25 c 0,0 -11.75,2.625 -18.5,10 l -3.75,0.125 c 0,0 15.375,-31.75 15.25,-34.875 -0.008,-0.197 0.25,-31.375 0.25,-31.375 z"
       id="path740"
       inkscape:connector-curvature="0" />
    <g
       id="g754">
      <g
         id="g746">
        <path
           style="fill:#c0c0c0;stroke:none"
           d="m 422.375,383.265 c 0,-4.35 3.47,-7.875 7.75,-7.875 4.28,0 7.75,3.525 7.75,7.875 0,4.349 -3.47,7.875 -7.75,7.875 -4.28,0 -7.75,-3.526 -7.75,-7.875 z"
           id="path742"
           inkscape:connector-curvature="0" />
        <path
           style="fill:#c0c0c0;stroke:none"
           d="M 430.125,383.265"
           id="path744"
           inkscape:connector-curvature="0" />
      </g>
      <g
         id="g752">
        <path
           style="fill:none;stroke:#2c2c2b;stroke-width:1"
           d="m 422.375,383.265 c 0,-4.35 3.47,-7.875 7.75,-7.875 4.28,0 7.75,3.525 7.75,7.875 0,4.349 -3.47,7.875 -7.75,7.875 -4.28,0 -7.75,-3.526 -7.75,-7.875 z"
           id="path748"
           inkscape:connector-curvature="0" />
        <path
           style="fill:none;stroke:#2c2c2b;stroke-width:1"
           d="M 430.125,383.265"
           id="path750"
           inkscape:connector-curvature="0" />
      </g>
    </g>
    <g
       id="g760">
      <path
         style="fill:#d2853a;stroke:none"
         d="m 415.5,375.39 c 1.625,-1.813 7.798,-0.403 8,0 0.188,0.375 18.625,8.875 18.875,12.25 0.25,3.375 0.125,5.25 0.125,5.25 0,0 -0.375,1.125 -1.625,0.875 -1.25,-0.25 -21.625,-13.5 -24.625,-12.25 l -1,-0.375 c 0,0 0.083,-5.564 0.25,-5.75 z"
         id="path756"
         inkscape:connector-curvature="0" />
      <path
         style="fill:none;stroke:#2c2c2b;stroke-width:1"
         d="m 415.5,375.39 c 1.625,-1.813 7.798,-0.403 8,0 0.188,0.375 18.625,8.875 18.875,12.25 0.25,3.375 0.125,5.25 0.125,5.25 0,0 -0.375,1.125 -1.625,0.875 -1.25,-0.25 -21.625,-13.5 -24.625,-12.25 l -1,-0.375 c 0,0 0.083,-5.564 0.25,-5.75 z"
         id="path758"
         inkscape:connector-curvature="0" />
    </g>
    <path
       style="fill:none;stroke:#2c2c2b;stroke-width:1"
       d="m 357.875,413.14 c 0,0 10.125,-12 18.375,-14.625 l 34,-0.125 c 0,0 -2.125,-1 22.25,6.125"
       id="path762"
       inkscape:connector-curvature="0" />
  </g>
</svg>
