<?xml version="1.0" encoding="UTF-8" standalone="no"?>
<svg
   xmlns:dc="http://purl.org/dc/elements/1.1/"
   xmlns:cc="http://creativecommons.org/ns#"
   xmlns:rdf="http://www.w3.org/1999/02/22-rdf-syntax-ns#"
   xmlns:svg="http://www.w3.org/2000/svg"
   xmlns="http://www.w3.org/2000/svg"
   viewBox="0 0 153.33333 212"
   height="212"
   width="153.33333"
   xml:space="preserve"
   id="svg2"
   version="1.1"><metadata
     id="metadata8"><rdf:RDF><cc:Work
         rdf:about=""><dc:format>image/svg+xml</dc:format><dc:type
           rdf:resource="http://purl.org/dc/dcmitype/StillImage" /></cc:Work></rdf:RDF></metadata><defs
     id="defs6" /><g
     transform="matrix(1.3333333,0,0,-1.3333333,0,212)"
     id="g10"><g
       transform="scale(0.1)"
       id="g12"><path
         id="path14"
         style="fill:#ffeebc;fill-opacity:1;fill-rule:nonzero;stroke:none"
         d="m 514.41,819.73 c 0,-2.269 -4.531,-8.25 -7.5,-12 l -3,-4.531 1.481,-0.738 c 66.757,-35.981 134.257,1.519 134.257,1.519 l 0.743,0.75 -0.743,0.739 c 0,0 -1.488,3.75 -8.988,15 l -0.781,1.48 -1.481,-1.48 c -54.769,-43.52 -86.25,-19.489 -108.75,-2.27 l -5.238,4.531 z" /><path
         id="path16"
         style="fill:#ffeebc;fill-opacity:1;fill-rule:nonzero;stroke:none"
         d="m 601.41,907.461 c 0.738,-4.492 -0.75,-8.242 -3.012,-9.731 -3.007,-1.519 -6.757,-0.781 -10.507,2.969 -3.75,1.531 -6.762,-0.738 -8.981,-2.219 -2.269,-1.531 -4.5,-3.75 -7.5,-3.011 -1.531,0 -3.012,1.48 -4.5,3.011 -3,3 -6.75,6.75 -15.781,0.739 -1.481,-0.739 -3.75,-0.739 -4.488,0 -3.012,1.48 -3.75,6.011 -3.75,6.761 l -0.743,4.489 -3.007,-5.239 c -4.493,-8.281 -11.25,-18.75 -15,-51.011 -4.493,-26.25 -6.762,-30.739 -6.762,-30.739 l -0.738,-0.75 0.738,-0.781 c 1.531,-1.48 11.25,-11.25 18.012,-8.238 0.738,0 0.738,0.738 1.519,0.738 0.75,-5.969 2.231,-8.238 4.5,-8.238 1.481,0 2.219,0.738 3,2.269 2.969,-6.761 12,-9.769 27,-9.769 16.481,0 25.5,6.019 29.25,11.25 0.75,-2.231 2.231,-3.012 3.75,-3.012 1.488,0 3.75,1.531 5.238,7.5 0,-0.738 0.743,-1.48 0.743,-2.969 v -2.261 l 2.269,1.48 c 1.481,0.781 15,8.281 17.219,12.781 v 0.739 l -0.738,4.492 c -2.231,9.769 -5.231,21.019 -5.231,35.269 0,16.489 -2.269,39.731 -18.75,48.75 l -3.012,1.489 z" /><path
         id="path18"
         style="fill:#fdce8b;fill-opacity:1;fill-rule:nonzero;stroke:none"
         d="m 548.16,897.73 c 0,0 -15,-15.781 -24.762,-38.281 0,17.27 15,48.75 17.262,50.281 2.969,-9.031 1.488,-12 7.5,-12 z" /><path
         id="path20"
         style="fill:#ffeebc;fill-opacity:1;fill-rule:nonzero;stroke:none"
         d="M 434.879,1009.45 C 399.648,971.211 383.91,892.461 380.898,851.211 v -1.481 c 16.481,-24.769 61.481,-47.269 78.75,-48.011 7.5,0 11.993,-0.739 11.993,-0.739 l 2.269,-0.75 c 5.969,-0.781 12.731,0.75 12.731,0.75 h 4.488 c 23.281,1.481 27.031,30 30,53.981 1.531,11.988 3.012,24.019 6.762,31.519 3.75,10.469 11.988,20.239 11.988,20.239 0,-0.739 -0.738,-1.489 -0.738,-2.27 0,-0.738 0,-1.48 0.738,-1.48 2.269,-3.75 4.531,-6.02 6.762,-6.02 3.007,-0.738 4.488,0.781 6.757,2.27 1.481,1.48 3.012,2.261 4.493,2.261 1.519,0 3.75,-2.261 5.269,-3.75 2.231,-2.261 4.5,-4.531 7.5,-3.75 1.488,0 3.75,1.489 5.238,2.969 3.75,4.531 8.243,3.012 12.731,1.531 2.269,-0.75 4.531,-1.531 6.762,-1.531 2.269,0 3.75,0.781 4.488,3.012 0,0.738 0.781,1.519 0.781,2.269 0,3 -1.519,5.969 -2.262,8.981 22.5,-9.731 23.243,-30.742 24.762,-53.242 l 1.488,-17.27 c 4.493,-36.719 30,-43.469 33.012,-44.219 l 5.231,-0.781 c 0,0 0.738,2.27 6.757,-0.738 4.493,-2.231 8.981,-2.231 11.25,-0.742 l 4.493,0.742 c 86.25,11.988 101.988,44.258 100.507,95.269 -1.488,45 -26.25,102.739 -26.25,103.481 l -0.738,0.738 h -3.012 c -191.988,0 -240,5.281 -282.738,10.511 -12.031,1.52 -23.281,2.27 -37.5,3.75 z" /><path
         id="path22"
         style="fill:#fdce8b;fill-opacity:1;fill-rule:nonzero;stroke:none"
         d="m 720.66,803.98 c 0,0 46.488,25.469 45,60 -1.519,34.5 -12.769,46.489 -13.512,48.75 0,1.489 5.231,6.719 5.231,6.719 l -13.469,18.75 c -12,-9.719 -48.012,-18.75 -87.781,-17.219 9.031,-15.75 30.781,-16.531 30.781,-16.531 -21.75,0 -51.012,3.012 -72.031,18.75 -7.5,3.75 -20.231,0 -17.219,-9.719 19.488,-10.511 23.238,-27 23.981,-43.519 -6.762,13.519 -22.5,29.258 -22.5,29.258 -10.512,-0.739 -15,3.75 -18.012,0.742 -2.969,-3.012 -5.231,-3.012 -5.231,-3.012 0,0 0.743,28.52 0.743,30 0,1.531 -24.731,-8.238 -32.231,-0.738 -21.012,-7.5 -14.25,-13.481 -58.512,-5.231 -30,0.739 -49.488,11.989 -65.238,21.75 -15.781,-9.761 -29.25,-28.511 -29.25,-28.511 3,16.48 22.5,81.011 45.738,96.761 36.762,-3.75 162.731,-13.519 210,-13.519 47.262,0 111.762,-1.481 111.762,-1.481 5.231,-11.25 36.75,-96.019 22.5,-141.761 -15,-45 -60.75,-50.239 -60.75,-50.239 z" /><path
         id="path24"
         style="fill:#ffffff;fill-opacity:1;fill-rule:nonzero;stroke:none"
         d="m 608.91,964.449 -1.531,-0.738 v -1.481 c 0,-0.75 0,-4.5 -2.219,-6.761 -2.269,-1.489 -3.75,-1.489 -5.281,-0.739 -2.219,0.739 -2.219,3.75 -2.969,5.231 v 1.519 h -1.519 l -3.012,-0.781 -10.469,-2.219 v -1.531 c 0,-5.969 3.75,-15.738 13.481,-23.98 8.238,-7.5 24.019,-15 48.75,-11.25 26.988,3.75 42.769,21.761 48.75,36.761 3.007,7.5 3.007,13.469 0.738,16.481 l -0.738,0.738 h -0.743 c -48.007,0.781 -83.238,-11.25 -83.238,-11.25 z" /><path
         id="path26"
         style="fill:#ffffff;fill-opacity:1;fill-rule:nonzero;stroke:none"
         d="m 476.129,978.711 c -5.231,-8.981 -5.231,-20.981 1.531,-31.481 6.75,-12 22.5,-25.511 45,-25.511 36.75,-0.739 50.231,34.492 50.231,34.492 v 0.738 l -0.743,0.781 c -4.488,4.5 -13.519,5.239 -14.257,5.239 h -1.481 v -1.489 c 0,-1.519 -1.531,-5.269 -3.012,-5.269 -1.488,0 -2.269,0.738 -3.007,1.519 -0.743,0.75 -0.743,2.231 0.738,3.75 l 0.781,1.489 -2.262,0.742 c -21.019,9.019 -56.25,15 -71.988,15 z" /><path
         id="path28"
         style="fill:#262524;fill-opacity:1;fill-rule:nonzero;stroke:none"
         d="m 413.16,1137.73 c -5.269,0 -49.531,-3.75 -185.269,-18.75 -123.75,-14.25 -221.25037,-39.76 -222.73084,-52.5 -0.75,-10.5 25.50004,-17.26 93.75004,-22.5 l 79.4878,-6.01 146.25,-11.99 c 100.512,-16.53 311.993,-27 363.012,-28.519 h 3.75 l -33.75,44.999 h -0.75 c -141.012,-3.01 -248.281,31.52 -253.512,38.24 -3.007,4.53 2.262,29.26 11.993,55.51 l 0.738,2.27 z" /><path
         id="path30"
         style="fill:#262524;fill-opacity:1;fill-rule:nonzero;stroke:none"
         d="m 628.398,1562.23 c -7.5,-5.28 -15,-10.51 -20.238,-13.52 -20.269,-10.51 -45.781,-31.48 -103.512,-144.73 -53.988,-129.76 -67.5,-192.77 -67.5,-193.51 v -1.49 l 0.743,-0.78 c 1.519,-0.74 34.488,-20.23 196.519,-26.25 h 2.231 v 2.27 c -0.743,14.26 1.519,30.74 6.757,48.75 6.012,19.49 8.981,56.25 0,92.26 -7.5,32.23 -6.019,43.48 -6.019,44.22 l 0.781,6.02 -4.531,-6.02 c -3.75,-4.49 -5.231,-7.5 -12.731,-34.49 -2.269,15.74 -6.019,50.27 -6.019,76.52 0,8.99 0.781,17.23 1.531,23.25 2.219,11.99 17.219,35.97 32.219,62.22 19.531,32.27 39.031,66.02 39.031,81.02 0,1.48 0,3.01 -0.75,3.75 -0.781,3.01 -3,5.23 -6.012,6.01 -10.507,2.97 -33.007,-12.03 -52.5,-25.5 z" /><path
         id="path32"
         style="fill:#e44825;fill-opacity:1;fill-rule:nonzero;stroke:none"
         d="m 434.879,1207.46 c -2.219,-1.48 -3.75,-4.49 -3.75,-10.51 0,0 -0.738,-12.73 -2.969,-15 -3.75,-2.97 -3.75,-8.24 -3.75,-15.74 0,-0.74 -1.519,-8.24 -1.519,-8.24 l -5.231,-17.27 c -8.25,-25.47 -15.75,-47.97 -15.75,-56.99 0,-0.74 0,-1.48 0,-1.48 2.231,-12 88.481,-30 146.25,-36.76 75.75,-7.5 131.25,-3.01 164.219,2.26 35.281,5.24 43.519,12.74 43.519,23.99 0,1.48 0,16.48 0,18.01 0,3 -0.738,5.97 -3.75,8.24 -2.269,77.26 -4.488,81.76 -10.507,86.25 h -1.481 c 0,0 -24.031,-3.75 -101.25,-2.27 -102.781,1.53 -170.281,15.78 -186.762,21.02 l -7.5,3.01 c -3.007,1.48 -6.757,3 -9.769,1.48 z" /><path
         id="path34"
         style="fill:#9f3522;fill-opacity:1;fill-rule:nonzero;stroke:none"
         d="m 635.16,1181.21 c 0,0 11.25,-76.48 9.719,-118.48 10.512,-15.78 13.519,-20.27 13.519,-20.27 41.993,-3.75 96.762,4.49 100.512,22.5 3.75,18.01 0,41.99 -1.531,48.01 -5.231,9.76 -5.969,21.01 -5.969,33.01 0,11.99 -0.75,36.75 -12,40.5 -12.769,3.75 -104.25,-5.27 -104.25,-5.27 z" /><path
         id="path36"
         style="fill:#f6b7d2;fill-opacity:1;fill-rule:nonzero;stroke:none"
         d="m 433.398,1010.23 -3.007,0.75 c 0,0 -20.981,3 -53.981,6.75 h -0.75 l -0.781,-0.78 c -0.738,-0.74 -0.738,-0.74 -1.481,-1.48 l -1.488,0.74 c -27.769,7.5 -102.031,12.77 -134.25,15 l -9.031,0.74 -0.738,-0.74 c -3.012,-2.23 -26.25,-23.24 -27.731,-33.749 v -3.75 c 0,0 -6.019,-16.481 -6.019,-23.981 0,-1.531 0,-2.269 0,-3.75 0.738,-8.25 5.269,-13.519 9.769,-15 l 2.219,-0.75 c 0,0 2.269,-10.5 3.75,-13.511 l 1.531,-3.008 1.481,3.008 c 1.519,3.011 3.007,6.761 4.488,9.761 -2.969,-6.75 -3.75,-12.031 -3.75,-17.261 0,-3.75 0.781,-6.758 1.531,-9.77 l 1.481,-6.719 1.519,6.719 c 4.5,18.75 20.981,42.781 33.75,54.77 -13.512,-18.75 -16.519,-32.27 -16.519,-42.739 0,-5.269 0.738,-9.761 1.519,-14.25 0,0 4.5,-24.031 17.969,-38.25 0,0 17.269,-15.781 23.281,-18.75 l 3.75,-1.519 -1.519,3.75 c -1.481,4.488 -3.012,8.238 -3.75,12.769 2.269,-6.75 6.019,-12.769 11.25,-18.75 l 1.519,-1.519 c 0,0 5.981,-3.012 5.981,-4.492 0,0 8.238,8.98 14.257,1.48 l 3.75,-5.23 c 0,0 8.981,-11.25 13.512,-13.52 l 5.238,-2.969 c 0,0 6.012,-1.519 7.5,-2.261 l 3.012,-1.489 v 3.75 c 0.738,0 2.219,-0.781 3,-0.781 h 2.231 c 0,0 9.019,-17.969 15,-19.488 l 3.007,-0.742 -0.738,3.011 c -1.531,3.75 -3.012,11.25 -3.75,18 4.488,-8.281 12.731,-15.781 18,-19.531 l 2.969,-2.219 -0.738,3.75 c -11.993,108 48.75,195.74 49.488,196.48 z" /><path
         id="path38"
         style="fill:#e47ab0;fill-opacity:1;fill-rule:nonzero;stroke:none"
         d="m 394.41,926.211 c 0,0 -6.012,37.5 -15,38.238 -8.281,0.781 -20.269,-23.98 -23.281,-23.98 -11.988,-0.739 -29.219,-3.75 -41.25,-6.02 3.75,10.512 3.75,10.512 3.75,10.512 0,0 -32.219,41.988 -101.988,75.739 9.769,10.51 11.988,11.25 11.988,11.25 0,0 109.531,-8.24 148.519,-14.22 42.731,-5.27 56.25,-6.75 56.25,-6.75 -8.988,-14.261 -29.257,-43.519 -38.988,-84.769 z" /><path
         id="path40"
         style="fill:#e47ab0;fill-opacity:1;fill-rule:nonzero;stroke:none"
         d="m 943.398,941.211 3.012,0.738 c -1.531,29.262 -33.75,59.261 -35.281,60.781 l -0.738,0.75 h -0.743 c -0.738,0 -49.488,-2.27 -86.988,-3.01 h -3.75 l -59.262,-4.49 h -2.269 l 0.781,-2.269 c 34.5,-85.512 24.731,-133.481 18.75,-161.992 v -0.739 l 2.969,-1.531 c 14.262,-2.969 27.781,15.781 27.781,15.781 8.238,21.719 14.25,-27.031 14.25,-27.031 l 5.238,3.75 5.231,3.012 c 14.262,7.5 19.531,6.019 19.531,6.019 6.719,4.489 11.25,3.75 11.25,3.75 11.25,5.231 20.238,14.25 20.238,14.25 l 3.75,3.75 c 15,12.739 20.231,28.481 20.231,44.219 0,11.25 -2.969,23.281 -7.5,34.531 l 3.012,1.489 c -4.493,21.011 -14.262,44.261 -23.981,59.261 8.981,-7.5 24.719,-24.031 35.231,-35.281 l 12.769,-13.469 -1.519,5.969 c -3.75,15 -16.481,30 -25.512,41.25 0,0 -0.738,0.781 -1.481,2.27 21.762,-9.77 36.762,-26.25 45,-51.758 z" /><path
         id="path42"
         style="fill:#f6b7d2;fill-opacity:1;fill-rule:nonzero;stroke:none"
         d="m 898.398,953.199 c 0,0 -72.738,-53.238 -76.488,-55.469 -2.262,28.481 -17.262,47.231 -18,47.231 -0.75,0 -5.281,0.738 -5.281,0 0,-0.742 -0.738,-25.512 -2.969,-28.481 -2.262,-3 -12.031,-14.25 -12.031,-14.25 0,-4.5 3.75,-39.769 -8.238,-70.511 6.757,-18.75 28.519,-7.5 37.5,3.75 9.019,11.25 -3.75,-29.258 22.5,-20.239 26.988,8.989 55.507,38.25 60.738,45.75 5.281,6.75 15,23.239 10.512,46.481 -2.231,13.519 -2.231,16.519 -2.231,16.519 0,0 -3.75,21.719 -6.012,29.219 z" /><path
         id="path44"
         style="fill:#18b68c;fill-opacity:1;fill-rule:nonzero;stroke:none"
         d="M 887.148,337.461 C 887.148,154.379 738.051,5.98047 554.141,5.98047 370.23,5.98047 221.129,154.379 221.129,337.461 c 0,183.09 149.101,331.519 333.012,331.519 183.91,0 333.007,-148.429 333.007,-331.519 z" /><path
         id="path46"
         style="fill:#b2ddc8;fill-opacity:1;fill-rule:nonzero;stroke:none"
         d="m 278.91,523.48 c 0,0 -9.031,-44.261 65.231,-68.25 75,-24.019 93.75,19.5 207.769,23.25 113.988,3.75 161.25,-144.769 170.238,-180 0,0 33.012,-129.031 -110.238,-213.7495 -142.5,-84.7695625 -270.781,-2.2696 -270.781,-2.2696 0,0 -86.988,64.4881 -112.5,183.0081 -24.719,117.73 16.531,210 50.281,258.011 z" /><path
         id="path48"
         style="fill:#e3f2ed;fill-opacity:1;fill-rule:nonzero;stroke:none"
         d="m 746.129,394.449 c 0,-45.969 -37.578,-83.238 -83.981,-83.238 -46.41,0 -83.988,37.269 -83.988,83.238 0,45.981 37.578,83.281 83.988,83.281 46.403,0 83.981,-37.3 83.981,-83.281 z" /><path
         id="path50"
         style="fill:#e3f2ed;fill-opacity:1;fill-rule:nonzero;stroke:none"
         d="m 813.629,206.949 c 0,0 -44.219,-70.469 -80.969,-89.219 -20.281,15 -20.281,15 -20.281,15 0,0 66.019,64.5 76.531,92.231 18,-8.981 24.719,-18.012 24.719,-18.012 z" /><path
         id="path52"
         style="fill:#e3f2ed;fill-opacity:1;fill-rule:nonzero;stroke:none"
         d="m 305.16,395.98 c 0,0 -20.281,-92.269 23.238,-171.761 -23.988,-11.25 -41.25,-21.02 -41.25,-21.02 0,0 -53.988,73.52 -30,198.012 19.493,0 48.012,-5.231 48.012,-5.231 z" /><path
         id="path54"
         style="fill:#e3f2ed;fill-opacity:1;fill-rule:nonzero;stroke:none"
         d="m 335.898,463.48 c 0,0 -20.238,-27 -20.238,-43.519 -26.25,3.75 -48,11.988 -48,11.988 0,0 15.738,44.262 26.988,55.512 19.493,-15 41.25,-23.981 41.25,-23.981 z" /><path
         id="path56"
         style="fill:#262524;fill-opacity:1;fill-rule:nonzero;stroke:none"
         d="m 242.891,887.23 c -8.243,-6.019 -19.493,-55.511 -19.493,-105.75 0,-12.031 0.743,-24.019 2.262,-35.269 7.5,-60.742 23.988,-85.512 62.231,-95.231 48.75,-8.25 77.269,-38.25 84.019,-46.531 -3.75,-0.738 -12.769,-0.738 -24.762,1.531 l -0.738,-3.011 c 12.731,-5.239 20.231,-10.508 26.988,-15 5.231,-3.75 8.981,-6.02 14.262,-8.239 12.731,-4.5 89.25,-6.019 103.469,-3.75 h 1.531 v 1.481 c 2.219,14.258 20.231,43.519 30.738,60.738 l 6.762,10.512 c 1.481,10.508 3,13.519 5.969,18.008 l 9.031,4.492 c 19.488,9.019 24.719,6.758 37.5,1.519 l 7.5,-2.261 c 8.981,-8.239 16.481,-30.739 24.719,-53.989 3.75,-11.25 7.5,-23.281 12.031,-33.75 l 0.75,-0.781 h 0.738 c 1.481,0 33.75,-1.48 46.481,-0.738 72.031,27.769 96.762,61.519 108.012,76.519 3.75,-0.781 17.269,-2.261 22.5,2.969 1.519,1.531 1.519,3.75 1.519,6.02 0,2.261 -0.781,5.23 -1.519,8.98 0,0 -1.481,3.012 -2.231,6.02 8.988,-3.008 25.469,-8.239 30,-6.02 l 1.488,2.27 c 3.75,75 -14.257,129.761 -33.75,138.75 l -0.738,0.742 -0.75,-0.742 c -127.5,-72.739 -210,-66.758 -232.5,-63.75 -19.531,3.011 -34.531,11.992 -49.531,21.011 -16.481,9.731 -33.75,20.239 -57.731,23.25 -36.757,5.969 -74.257,33 -74.257,33 l -3.012,2.231 v -3.75 c 0,0 0.781,-11.25 0.781,-20.981 0,-2.261 0,-4.531 0,-6.011 -3.75,3.011 -9.762,10.511 -12.769,15 l -3.012,5.23 c 0,0 0,-11.25 0,-13.469 -5.969,0.739 -11.988,5.231 -17.969,10.5 -4.531,3.75 -9.019,8.25 -14.25,10.469 -11.25,2.27 -27,24.031 -33.012,38.281 l -3.007,-0.781 c 0,0 0.738,-16.48 0.738,-20.23 -2.219,0.742 -5.231,2.261 -9.719,6.011 -7.5,2.969 -18.012,12 -27,20.239 -6.012,5.23 -11.25,9.761 -15,12.73 l -0.781,0.781 z" /><path
         id="path58"
         style="fill:#ffe4b8;fill-opacity:1;fill-rule:nonzero;stroke:none"
         d="m 620.16,593.98 c -0.75,2.231 -13.519,57 -26.25,68.989 -13.519,12.73 -35.281,18.75 -53.25,3.011 -8.281,-7.5 -12.031,-14.261 -9.762,-18.75 0.743,-0.75 -3.75,-3.75 -3.75,-3.75 -2.269,-7.5 -19.488,-36.761 -23.238,-40.511 -5.281,-5.239 -6.019,-12.739 -6.019,-14.258 v -0.742 l 0.738,-0.739 c 0,0 5.281,-2.269 9.031,0.739 1.481,1.48 1.481,3.011 1.481,4.492 0,0 0,0 0,0.738 3.007,-15 14.257,-24.719 21.757,-28.469 8.981,-4.5 18.012,-7.5 21.762,-5.281 l 0.738,0.781 c 0,0 0,-1.519 0.743,-3.75 0.738,-1.519 5.269,-6.75 18.007,-6.011 19.493,1.48 36.762,18.75 37.5,32.261 0,3.75 1.481,6.719 3.012,8.25 2.219,1.481 5.231,1.481 5.231,1.481 h 2.269 z" /><path
         id="path60"
         style="fill:#231f20;fill-opacity:1;fill-rule:nonzero;stroke:none"
         d="m 753.629,1126.48 c -0.738,41.25 -1.481,52.5 -11.988,62.97 -7.5,29.26 -45.743,190.51 -66.762,235.51 -1.481,14.26 21.762,86.99 22.5,120.74 1.531,33.75 -6.719,41.25 -6.719,41.25 0,0 -7.5,13.52 -52.5,-16.48 -49.531,-29.26 -64.531,-38.24 -106.519,-111.76 -40.512,-74.26 -54.731,-108.75 -75,-174.73 -19.493,-60.78 -22.5,-76.52 -22.5,-76.52 -3.012,0 -8.981,-3.01 -5.981,-20.23 -6.75,-9.03 -6.75,-15.75 -6.75,-27.78 -6.762,-11.99 -8.25,-22.5 -8.25,-22.5 -20.269,1.53 -355.4998,-26.99 -411.74984,-68.98 -13.51956,-16.49 71.25004,-29.26 224.99984,-37.5 -15,-13.52 -34.5,-27.74 -34.5,-57.74 0,-30 13.481,-15 23.25,-69.019 5.969,20.269 12.731,39.769 22.5,48.75 -12,-28.481 -3.75,-41.25 3,-61.481 -8.281,-17.269 -22.5,-49.5 -19.531,-124.5 3.75,-75 18.75,-98.281 50.281,-130.5 -9.031,-32.269 -10.512,-117 68.981,-127.5 79.488,-10.511 88.519,23.981 233.238,17.219 144.769,-6.719 68.281,-27.73 201.019,-25.469 51.012,1.489 75,77.969 59.262,134.219 22.5,17.27 83.238,106.531 60.738,222.781 12.731,16.481 19.493,38.239 8.981,63 5.281,12 -8.238,45.75 -19.488,61.489 24.769,-19.489 48.007,-43.52 51.019,-98.239 8.981,16.481 -4.5,75.739 -30.75,100.5 23.25,-10.5 43.481,-45 43.481,-69.761 3.75,38.242 -19.493,72.73 -33.012,83.98 42.031,4.531 228.751,12.031 234.771,43.521 6.76,33.01 -281.99,71.99 -396.021,84.76 z m -86.25,-316.519 c 3.75,-6.762 8.281,-11.992 11.25,-12.731 -1.481,-1.531 -5.231,-0.75 -8.981,0.739 -8.988,3.75 -19.488,15.742 -21.757,36.011 -0.743,-0.781 -1.481,-1.519 -1.481,-3 -1.531,-6.761 5.231,-24.769 11.25,-31.531 -3.012,0.781 -27.781,6.762 -31.531,42.781 l -1.481,17.219 c -1.488,24.77 -2.269,48.012 -30.738,56.25 3,-2.969 6.75,-11.25 5.231,-14.219 -0.743,-0.781 -1.481,-1.519 -2.231,-1.519 -1.519,0 -3.75,0.738 -6.012,1.519 -4.488,1.489 -9.769,2.969 -14.257,-1.519 -1.481,-1.481 -3.012,-2.231 -3.75,-2.231 -2.231,0 -3.75,1.489 -5.981,3.75 -2.262,1.489 -3.75,3.75 -6.012,3.75 -2.269,0.75 -4.488,-0.781 -6.019,-2.261 -1.481,-1.489 -3.75,-2.27 -5.231,-2.27 -1.488,0 -3.75,2.27 -5.238,5.281 0,0.739 0,1.481 0,2.219 2.231,4.531 11.25,9.031 14.219,9.77 -1.481,0.742 -16.481,3.011 -29.219,-28.52 -3.75,-8.238 -5.269,-19.488 -6.75,-32.219 -3.012,-25.511 -6.762,-51.019 -28.519,-52.5 6.757,6.75 12.769,22.5 7.5,33.75 l -0.743,-3.75 c -0.738,-8.25 -2.269,-22.5 -11.25,-29.261 -3.75,-3.008 -8.238,-3.75 -13.519,-3.008 5.281,8.238 11.25,17.269 10.512,23.238 l -1.481,-2.969 c -3.75,-8.281 -8.25,-20.269 -24.769,-20.269 -18.012,0.738 -61.481,22.5 -78.012,47.269 3.75,40.5 18.75,119.25 54.031,157.5 14.25,-0.75 25.5,-2.27 36.75,-3.75 42.738,-4.5 90.75,-9.769 282.738,-10.511 0,-0.739 25.512,-57.739 26.25,-102.739 1.481,-42.031 -5.238,-80.269 -98.988,-93 -0.781,-0.75 -2.262,0 -3.75,0.739 -5.269,2.261 -12.769,12.73 -16.519,32.261 -1.481,-3.75 0,-12.031 4.488,-20.269 z m -64.488,97.5 c 15.738,-8.242 18.007,-30.742 18.007,-47.231 0,-14.25 3.012,-25.5 5.231,-35.269 l 0.781,-3.75 c -2.262,-4.492 -16.519,-11.992 -16.519,-11.992 0,0 -0.743,6.011 -3.012,6.011 -0.738,-6.011 -2.219,-9.019 -3.75,-9.019 -1.481,0 -2.969,3.008 -3.75,6.758 -0.738,-6.02 -9.719,-15 -29.219,-15 -18,0 -26.25,4.492 -27.031,13.511 -1.481,-4.531 -2.219,-6.011 -3.75,-6.011 -1.481,0 -2.969,6.761 -3.75,11.992 v 0.738 c 0,-2.969 -0.738,-4.488 -2.969,-5.23 -3.75,-1.489 -10.5,3.011 -15.781,8.242 0,0 2.269,4.488 7.5,31.519 3.75,31.489 10.512,42 15,50.239 l 0.781,1.48 c 0,0 0.75,-5.23 4.5,-7.5 1.481,-0.738 3.75,-0.738 6.75,0 8.25,5.281 11.25,2.27 13.481,-0.738 1.519,-1.481 3.007,-3.012 5.269,-3.75 2.969,-0.742 5.981,1.519 8.988,3.75 2.262,2.269 5.231,3.75 7.5,2.269 3.75,-3.75 8.243,-4.5 11.993,-3.011 3.007,2.261 4.488,6.761 3.75,11.992 z m -83.981,-90 c 23.238,-18.012 54.719,-41.992 110.969,2.269 6.762,-10.511 9.031,-15 9.031,-15 -0.75,-0.75 -66.019,-36.761 -132.781,-1.531 l 2.269,2.27 c 3.75,4.492 8.243,10.511 8.243,13.511 z m -138.75,-6.762 c -6.762,5.281 -19.5,15.781 -20.281,27.031 -2.969,-8.281 3.012,-27.031 3.012,-27.031 -5.981,1.531 -19.493,20.281 -19.493,56.25 0.743,36.02 22.5,96.762 38.981,117.031 -2.969,-0.781 -10.469,-11.25 -17.219,-25.5 -18.75,-36.761 -33.012,-89.261 -19.5,-127.5 -4.531,0 -5.269,2.219 -5.269,2.219 v -3.75 c -1.481,0.781 -35.981,25.512 -8.243,93.012 -8.988,-5.981 -23.238,-51.762 -4.488,-87.731 -4.5,2.219 -10.512,10.5 -13.519,23.981 -3.012,14.258 -4.493,44.258 21.757,83.238 -7.5,-6.719 -33.007,-40.469 -25.507,-89.219 -11.993,15 -29.262,60.75 64.488,162.74 33.012,-3.75 54.031,-6.76 54.031,-6.76 0.738,-0.74 -60.75,-89.261 -48.75,-198.011 z M 506.91,1403.2 c 57,112.5 82.5,133.52 102.738,144.03 5.231,3 12.731,8.24 20.231,13.47 18.012,12.78 41.25,28.52 51.762,25.51 2.269,-0.74 3.75,-2.23 4.488,-5.23 3.75,-12 -17.219,-48.01 -38.238,-83.25 -15,-26.25 -30,-50.27 -32.231,-62.26 -6.012,-27.74 5.238,-108.01 5.238,-109.49 8.981,35.23 11.25,37.5 14.262,42.73 l 0.738,0.74 c 0,0 -1.488,-11.99 6.012,-44.22 8.988,-35.27 5.981,-72.03 0,-91.52 -6.012,-18.01 -8.281,-34.49 -7.5,-49.49 -161.25,6.01 -195,25.51 -195.781,26.25 0.781,0 14.262,63.01 68.281,192.73 z m -87.769,-261.72 5.269,15.75 c 9.731,1.48 21.719,0 37.5,-2.27 20.238,-3.01 47.231,-6.76 90,-6.76 -1.519,-0.74 -6.012,-1.48 -10.5,-1.48 -6.019,-0.74 -12.781,-1.49 -14.262,-3.01 v -0.74 c 1.481,0 30.743,-3.75 37.5,2.26 0.743,0.75 1.481,1.49 1.481,2.23 -2.219,2.27 -19.488,3.75 -45.738,6.02 -24.731,2.22 -59.262,4.49 -93.75,9.72 v 2.27 c 0,7.5 0,13.51 3.007,16.48 1.481,1.53 4.493,2.27 7.5,1.53 5.231,-0.75 11.993,-2.27 18.75,-3.75 6.762,-1.53 13.512,-3.01 18.012,-3.01 -4.5,1.48 -9.769,3.01 -14.262,3.75 -13.519,3.01 -26.988,6.01 -26.25,17.26 0,5.24 1.481,7.5 3.012,8.99 2.219,1.48 5.231,0 9.719,-1.49 l 7.5,-3 c 17.269,-5.28 84.031,-19.5 187.5,-21.02 77.269,-1.48 101.25,2.27 101.25,2.27 5.281,-3.75 7.5,-8.25 9.769,-85.51 4.493,-3.01 3.75,-6.76 3.75,-11.25 0,-3.01 -0.738,-6.02 0,-9.77 1.481,-11.99 -4.488,-20.23 -41.988,-26.25 -33.012,-5.23 -88.519,-9.72 -164.262,-2.22 -69.769,8.24 -143.238,26.25 -144.769,35.97 -2.219,6.02 7.5,36.76 14.262,57.03 z m -240.743,-102.77 -79.4878,6.02 c -65.2813,5.23 -93.01176,11.99 -92.26957,20.97 0.73828,10.51 93.75037,36.76 221.25037,51.02 135.738,15.74 180.738,18.75 185.269,18.75 -8.281,-23.99 -15,-51.02 -12.031,-56.99 3.75,-6.76 111.762,-42 255,-39.03 l 30.781,-41.251 c -51.012,1.531 -262.5,12.031 -363,28.521 z m 60.743,-120.741 c -3.012,13.511 -5.981,30.742 21.757,65.23 -12.738,-5.23 -38.238,-38.238 -43.519,-62.969 -2.219,8.989 -9.719,35.239 68.281,95.98 -6.75,0.74 -54.019,-30.741 -73.512,-78.749 -7.5,11.25 -3.007,48.008 42.731,85.509 -8.981,-3.75 -49.488,-33.009 -50.231,-71.251 -3.007,0.742 -7.5,5.23 -8.238,13.511 -1.531,10.469 2.219,31.489 44.25,59.22 -8.281,-2.22 -22.5,-14.22 -31.519,-21.72 l -6.762,-6.011 c 0.781,10.511 27.031,32.261 27.031,33.011 l 8.25,-0.75 c 31.481,-2.26 105.738,-6.75 133.469,-14.25 -0.738,-0.75 -90,-93.75 -74.219,-162.781 -3.75,5.281 -36.75,54.031 24.731,119.262 -5.231,-0.742 -20.231,-16.481 -30.743,-37.5 -8.988,-18.75 -16.488,-48.012 -0.738,-77.231 l -1.531,1.489 c -32.219,38.98 -5.231,94.492 24.031,134.261 -7.5,-5.281 -59.262,-60.75 -33.75,-129.769 -3.75,1.519 -19.5,13.519 -23.25,37.5 -3.75,24.019 5.981,63.008 68.25,117.769 -2.269,0.75 -19.5,-11.25 -36.019,-30 -19.493,-21.75 -50.231,-65.269 -33.012,-106.519 -8.981,8.238 -13.469,18.75 -13.469,32.269 -0.75,28.469 20.231,65.231 62.219,107.22 -2.969,-0.74 -51.719,-38.239 -64.488,-102.731 z M 551.91,560.98 c -3,-1.531 -11.25,0 -20.269,5.231 -7.5,4.488 -20.981,14.258 -21.762,31.519 -0.738,0 -0.738,0 -1.481,0 -0.738,-0.781 -1.488,-2.261 -1.488,-4.531 0,-1.48 -0.781,-2.969 -0.781,-3.75 -2.969,-2.219 -7.5,-0.738 -7.5,-0.738 0,0.738 0.781,8.238 6.019,13.519 4.493,4.489 21.762,33 23.981,41.25 9.031,-0.75 12.031,0.739 17.269,5.231 1.481,1.519 14.262,12.769 23.243,7.5 3.007,-1.481 4.488,-3.75 3.75,-5.981 0,-4.531 -5.981,-9.019 -16.481,-13.511 -15.75,-4.489 -18.75,-9.77 -18.012,-15.739 0,-3.011 3.012,-6.019 6.762,-9.031 4.488,-2.969 10.5,-3.75 15,-2.219 l 5.231,2.219 c 8.238,3.012 17.269,6.02 20.269,-0.738 0.75,-2.231 0.75,-4.492 -0.781,-6.762 -2.969,-4.488 -11.25,-8.238 -17.219,-8.238 h -2.269 c -8.243,0 -22.5,0 -23.243,-8.981 0,-3.75 0.743,-7.5 3.75,-11.25 3.75,-4.5 10.512,-6.761 17.262,-6.761 5.981,0 9.731,2.261 12.738,3.75 2.262,1.48 4.493,2.261 6.762,2.261 1.481,0 2.219,-0.781 2.219,-2.261 0,-3.008 -5.969,-7.5 -14.219,-8.989 l -6.75,0.75 c -4.5,0.739 -9.031,0.739 -10.512,-0.75 -1.488,-1.519 -1.488,-2.261 -1.488,-3 z m 60,30.739 c -2.262,-2.27 -3.75,-5.239 -3.75,-9.77 -0.781,-12.73 -16.519,-29.219 -35.269,-30.738 -11.993,-0.742 -15.743,3.75 -16.481,5.269 -0.75,1.489 -0.75,2.231 0,3.75 0.738,0.75 1.481,0.75 2.219,0.75 12.781,-3.011 27.781,3 30.781,8.981 0.75,2.269 0.75,3.75 -0.781,5.269 -3.75,3.75 -5.969,2.969 -10.469,0.75 -3,-1.531 -6.75,-3.011 -13.512,-3.75 -8.988,0 -13.519,3.75 -15,6.75 -2.269,3.75 -2.269,8.25 0,11.25 1.481,2.231 3.75,2.969 6.012,2.969 8.25,-0.738 23.988,-2.969 31.488,9.031 3.012,4.489 3.012,9.719 0,13.469 -3.007,3.75 -8.238,5.281 -13.519,3.012 l -3.75,-1.481 c -8.238,-3.75 -17.219,-7.5 -24.719,-0.75 -3.012,2.969 -3.75,5.239 -3.75,7.5 0.738,3.75 6.75,6.719 18,10.469 9.731,3.012 15.75,9.031 15,15.781 0,5.239 -3.75,9.731 -9.019,11.25 -6.762,1.489 -11.993,-3 -17.231,-7.5 -3.75,-3 -6.75,-6.011 -10.5,-6.75 -3.012,-0.75 -5.281,-0.75 -6.762,0.739 -1.488,2.261 0,8.242 8.981,16.48 17.269,15 38.281,9.031 51.019,-2.969 11.993,-12.031 25.512,-67.5 26.25,-68.281 0.743,0.781 -2.269,0.781 -5.238,-1.48 z m 220.469,86.992 -0.738,-0.742 c -4.493,-2.27 -32.231,7.5 -32.231,7.5 0,0 2.231,-4.489 4.5,-9.77 2.219,-6.719 2.219,-10.469 0,-13.469 -5.281,-6.019 -21.762,-2.269 -21.762,-2.269 -10.507,-14.262 -34.488,-48.75 -107.269,-76.481 -12.731,-0.75 -45.738,0.739 -46.481,0.739 -4.488,10.511 -8.238,21.761 -11.988,33.011 -8.25,23.981 -15.75,46.481 -25.512,54.719 l 11.25,4.531 c 31.481,12.739 53.981,21.719 89.262,8.989 -11.25,9.761 -20.281,15.742 -20.281,15.742 0,0 0.781,2.269 4.531,3.008 4.5,1.48 13.481,1.48 30.75,-6.758 l 3.75,-1.481 c 18,-6.761 31.481,-11.25 38.238,-8.25 2.262,0.75 3.012,2.231 4.493,5.239 l -5.231,-2.27 -18.75,18.75 c 8.238,-0.738 13.469,0.781 13.469,0.781 -4.488,2.969 -46.481,0.75 -47.219,0.75 0,0 29.25,38.239 30.738,45.739 -8.238,-9.77 -23.238,-29.258 -31.488,-39.77 l -6.012,-7.5 h -0.738 c -8.25,1.531 -14.262,2.27 -29.262,-11.988 l -6.019,-1.481 c -17.219,-3.75 -36.719,-8.25 -66.719,-22.5 l -2.262,0.739 c -12.738,5.23 -18.75,7.5 -38.988,-1.489 -7.5,13.481 -42.769,34.5 -93,35.981 l -0.75,2.269 c -0.781,4.489 -1.519,13.469 -24.019,11.989 l -5.231,8.242 c -8.25,14.258 -19.5,31.519 -39.031,39.769 15.781,-14.261 22.5,-24.769 19.531,-33.75 -3.75,-3.011 -10.5,-7.5 -18,-12 -12,-7.5 -25.512,-15.781 -25.512,-18 0.743,-0.75 8.243,0.739 18.75,3.75 22.5,5.969 56.25,15 66.012,5.969 2.231,-2.219 2.969,-5.23 2.231,-8.98 -11.993,2.261 -42.731,-6.02 -71.993,-35.239 9.762,5.239 15.743,8.989 20.231,12 6.019,4.489 9.031,5.969 13.519,5.969 l 9.762,-0.738 c 12,-0.742 27.738,-2.231 32.231,0.738 6.019,3.75 12.769,10.512 12.769,11.25 0,0 36.719,0 77.231,-28.469 l -3.75,-6.761 c -2.231,-4.489 -4.493,-7.5 -5.981,-18.008 l -6.012,-10.512 c -10.507,-17.219 -28.519,-46.48 -30.738,-61.48 -15.75,-2.27 -91.531,-0.739 -102.781,3.75 -5.231,2.261 -8.981,4.492 -14.219,8.242 -6.75,4.488 -14.25,9.769 -27.031,15 18.012,-4.492 28.519,-1.481 28.519,-1.481 0,0.739 -30,39.719 -86.988,49.489 -38.25,9.761 -53.25,33.75 -61.531,94.492 -8.238,63.008 8.281,132.769 16.531,139.488 4.488,-2.969 9.719,-7.5 15,-12.73 9.719,-8.239 20.231,-18.008 27.731,-20.239 8.238,-6.011 12.769,-7.5 12.769,-7.5 l -0.781,22.5 c 6.762,-14.25 22.5,-36.75 34.531,-39.019 5.238,-2.231 9.731,-5.981 14.219,-10.512 6.762,-5.969 13.519,-11.25 21.019,-11.25 v 9.77 c 0,0 9.762,-15.739 15.743,-17.27 0.738,10.512 -0.743,30 -0.743,30 0,0 37.5,-26.988 75,-32.969 23.981,-3 40.512,-13.511 56.993,-23.281 15.738,-8.98 30.738,-17.969 50.269,-20.969 22.5,-3.75 105.75,-9.031 233.988,63.75 15,-8.25 36.012,-55.511 31.481,-137.269 z m 18.75,153.008 c 3.012,5.23 30,55.511 -23.238,137.261 l 4.488,-11.25 c 14.262,-31.519 48.012,-106.519 -0.738,-132.769 0.738,1.519 24.019,44.258 -3.75,109.488 l 1.519,-5.23 c 6.719,-25.508 20.238,-71.989 -5.269,-108.008 0,3.008 0.738,6.758 1.519,11.25 2.969,20.269 8.25,56.988 -21.012,146.25 l 4.493,-19.492 c 8.238,-33.008 16.519,-66.758 -2.231,-115.508 9.731,39.019 3.75,109.488 -18,146.25 l 0.738,-2.231 c 11.993,-33.75 32.262,-91.519 -1.488,-159.761 l 0.75,4.492 c 5.231,24.769 15,69.769 2.219,106.519 7.5,-51.75 3.75,-84.761 -11.988,-111.011 v 0.742 c 6.019,28.519 16.519,77.269 -18.75,163.519 21.757,1.481 56.988,3.75 60,3 0,0 26.25,-30.781 41.25,-66.75 18.007,-42 14.257,-74.261 -10.512,-96.761 z m 94.531,110.23 c -9.762,28.52 -27.031,45.781 -51.75,53.281 l 5.969,-6.75 c 9.031,-10.511 21.762,-25.511 25.512,-40.511 l -8.243,8.98 c -13.519,15 -32.269,35.281 -41.25,38.281 11.993,-15 21.762,-39.019 26.25,-63.75 -3.007,4.5 -6.019,10.469 -8.988,15.75 -7.5,14.25 -15.781,30 -28.512,41.25 17.262,-23.25 69.762,-93.75 21.762,-135.75 l 0.738,2.231 c 8.981,42.769 5.231,75 -11.988,96.019 5.969,-9.031 15,-37.5 11.25,-55.511 -1.531,11.992 -9.769,53.98 -39.031,83.98 5.281,-7.5 48.75,-75.738 36.762,-118.469 -3.012,-12 -10.512,-20.281 -20.981,-25.511 12,22.5 15,48.011 8.25,77.261 -8.25,34.5 -36.762,73.481 -47.269,85.469 37.5,0.781 86.988,3.011 87.769,3.011 -0.781,0 31.488,-30.741 33.75,-59.261 z M 713.91,1085.98 c -6.019,-1.53 -9.031,-2.27 -12.781,-5.28 24.769,1.53 43.519,14.26 43.519,15 -15.738,-5.97 -24.769,-8.24 -30.738,-9.72 z m -23.25,-21.02 c -7.5,-1.48 -15,-3.01 -25.5,-5.23 66.75,5.97 80.231,18 80.231,18 -29.262,-8.28 -41.993,-10.5 -54.731,-12.77 z M 374.879,821.949 c -23.238,58.52 43.519,177.781 44.262,179.261 C 350.16,892.461 364.41,830.23 374.879,821.949 Z m -16.481,24.031 c 0.743,-1.531 0.743,-2.269 1.481,-3.011 -2.969,63.011 48.012,158.981 48.012,159.761 C 368.16,949.449 353.91,862.461 358.398,845.98 Z m -0.738,123 c -33.75,-54.761 -34.5,-100.5 -24.031,-123.75 2.269,-5.269 5.281,-9.019 7.5,-9.019 -36.719,71.25 47.269,168.749 48.012,169.489 -4.493,0 -12.731,-5.97 -31.481,-36.72 z m 351.75,-57.031 c 1.488,2.27 2.231,3.75 1.488,5.281 -13.519,-13.519 -36.019,-12.781 -48.007,-10.511 -18.75,2.261 -34.493,9.761 -37.5,14.261 42.769,-1.531 68.238,2.219 69.019,9.719 -8.281,-5.969 -31.519,-8.98 -35.269,-6.719 l -0.743,0.75 c 33.75,9.719 38.981,41.25 37.5,49.489 13.512,1.48 15.743,6.011 15.743,8.98 0.738,3.75 -3.012,7.5 -5.981,8.281 2.231,-4.531 2.231,-6.75 0.75,-9.019 -2.269,-3.012 -8.25,-4.492 -19.5,-4.492 -40.5,0.742 -75,-8.239 -95.269,-13.52 -6.762,-1.48 -11.25,-2.969 -15,-3.75 -1.481,4.531 -0.743,12.031 3.007,20.281 -6.757,-3.75 -7.5,-9.769 -8.988,-17.269 l -0.781,-3.012 c -48.75,17.27 -110.969,23.281 -124.488,24.031 -2.231,0 -3.75,0.739 -4.493,2.219 -1.488,4.531 4.493,14.261 5.231,14.261 -5.231,-5.23 -8.238,-9.73 -8.238,-13.48 0,-0.781 0,-1.519 0,-1.519 2.269,-5.231 13.519,-6.762 24.769,-7.5 l 8.981,-0.742 c -0.743,-4.489 -1.481,-8.989 -1.481,-12.739 0,-25.5 20.231,-34.531 35.231,-41.25 l 8.238,-3.75 c -23.238,0 -35.969,3.75 -44.219,12.739 0,-2.27 0.75,-4.489 2.231,-6.02 6.757,-7.5 25.507,-8.238 30.738,-8.98 -30,-8.239 -32.969,-6.02 -37.5,-3.75 l -2.219,0.742 c 0,-0.742 0,-2.231 1.481,-3.75 3.75,-3.012 15.738,-3.012 36.019,1.519 41.988,7.5 63,23.989 68.981,37.5 2.269,4.5 3.75,6.719 6.019,7.5 2.219,0 5.231,-3 7.5,-9.019 8.981,-20.231 39.719,-37.5 75.738,-43.481 30.743,-7.5 46.481,0.75 51.012,6.719 z m -187.5,10.512 c -22.5,0 -37.5,12.769 -43.512,24.769 -6.019,10.5 -6.019,21.75 -1.488,30 15.75,-0.75 50.238,-6.019 71.25,-15 -1.519,-2.269 -1.519,-3.75 -0.781,-6.019 0.781,-1.481 3.012,-2.231 4.531,-2.231 3.75,0 4.5,6.719 4.5,6.719 0,0 8.981,-0.738 13.469,-4.488 0.781,0 -11.988,-33.75 -47.969,-33.75 z m 62.231,35.269 9.019,1.489 2.231,0.742 c 0,0 0.738,-5.231 3.75,-6.762 1.519,-0.738 4.488,-0.738 6.757,0.781 3.75,3.75 3.012,8.989 3.012,8.989 0,0 35.231,11.992 83.238,11.25 1.481,-2.27 1.481,-8.239 -0.738,-14.258 -6.019,-15 -21.019,-32.231 -47.269,-35.981 -23.981,-3 -38.981,4.5 -47.231,11.25 -9.019,7.5 -12.769,16.489 -12.769,22.5 z M 398.16,920.23 c 8.25,1.489 17.231,2.231 26.25,2.969 -19.531,4.531 -26.25,-2.969 -26.25,-2.969 z m 48.75,-7.5 c -0.781,3.75 -5.269,11.25 -5.269,11.25 -0.743,0 -2.231,-6.75 5.269,-11.25 z m 2.969,6.719 c 0,0 -0.738,-2.969 0.781,-5.23 1.488,-2.27 5.238,-3.008 11.25,-2.27 0,0.781 -0.781,0.781 -2.262,0.781 -3.007,0 -6.757,0.75 -9.769,6.719 z m 16.531,7.5 -3.012,3.012 c -3.007,2.269 -5.238,4.488 -7.5,15.738 0,0 -3.75,-13.469 10.512,-18.75 z m 302.219,-15.738 c 0,1.519 0,3.008 0,3.008 -4.488,-3.75 -5.969,-4.489 -7.5,-5.239 l -5.231,-2.261 c 9.762,-1.489 12.731,1.48 12.731,4.492 z m -23.981,1.519 c 0,0 -1.488,0 -1.488,-0.781 -0.781,-0.738 -0.781,-2.219 0,-3.75 4.5,4.531 12.738,6.02 12.738,6.02 -0.738,2.261 -3.75,3.011 -8.238,2.261 -6.762,-0.781 -15,-3.75 -15.75,-8.281 8.25,6.02 12.738,4.531 12.738,4.531 z m -38.988,21.719 c -1.519,-0.738 -2.262,-1.48 -3,-2.219 11.25,2.219 11.25,8.981 11.25,11.25 v 0.739 c -3.012,-7.5 -6.019,-8.989 -8.25,-9.77 z m 3.75,-25.469 c -1.519,-0.781 -3,-2.261 -5.269,-4.531 14.257,5.281 11.988,12.031 11.988,12.031 -3.75,-5.269 -4.488,-6.75 -6.719,-7.5 z" /></g></g></svg>