<?xml version="1.0" encoding="UTF-8" standalone="no"?>
<svg
   xmlns:dc="http://purl.org/dc/elements/1.1/"
   xmlns:cc="http://creativecommons.org/ns#"
   xmlns:rdf="http://www.w3.org/1999/02/22-rdf-syntax-ns#"
   xmlns:svg="http://www.w3.org/2000/svg"
   xmlns="http://www.w3.org/2000/svg"
   xmlns:sodipodi="http://sodipodi.sourceforge.net/DTD/sodipodi-0.dtd"
   xmlns:inkscape="http://www.inkscape.org/namespaces/inkscape"
   viewBox="0 0 793.7005 1096.0625"
   height="1096.0625"
   width="793.7005"
   xml:space="preserve"
   id="svg2"
   version="1.1"
   sodipodi:docname="babypac2.svg"
   inkscape:version="0.92.4 (5da689c313, 2019-01-14)"><sodipodi:namedview
     pagecolor="#ffffff"
     bordercolor="#666666"
     borderopacity="1"
     objecttolerance="10"
     gridtolerance="10"
     guidetolerance="10"
     inkscape:pageopacity="0"
     inkscape:pageshadow="2"
     inkscape:window-width="1366"
     inkscape:window-height="715"
     id="namedview60"
     showgrid="false"
     inkscape:zoom="0.43063238"
     inkscape:cx="560.76277"
     inkscape:cy="601.3163"
     inkscape:window-x="-8"
     inkscape:window-y="22"
     inkscape:window-maximized="1"
     inkscape:current-layer="svg2" /><metadata
     id="metadata8"><rdf:RDF><cc:Work
         rdf:about=""><dc:format>image/svg+xml</dc:format><dc:type
           rdf:resource="http://purl.org/dc/dcmitype/StillImage" /></cc:Work></rdf:RDF></metadata><defs
     id="defs6"><clipPath
       id="clipPath14"
       clipPathUnits="userSpaceOnUse"><path
         id="path12"
         d="M -1,9.95313 H 594.27539 V 832 H -1 Z" /></clipPath></defs><g
     clip-path="url(#clipPath14)"
     transform="matrix(2.4496323,0,0,-2.4496323,-542.73377,1209.8825)"
     id="g10"><path
       id="path16"
       style="fill:#000000;fill-opacity:1;fill-rule:nonzero;stroke:none"
       d="m 381.333,356.666 c -16.666,0 -18,-6.333 -18,-9 0,-2.667 0.333,-5.667 -4,-4 -4.333,1.667 -7.666,3.333 -11.666,3.333 -4,0 -22.667,-7.999 -22.667,-17.666 0,-9.667 1.666,-13.333 6.333,-17 4.667,-3.667 3.668,-4.334 -0.666,-4.334 -7.334,0.667 -23.333,-3.999 -24,-20.666 0,-12.667 5.667,-11 5,-16.667 0,-3.667 -7.001,-4.667 -8.334,-4.667 -4.333,0 -3.666,1.334 -6.9995,1.334 -3.3335,0 -26,-3.334 -25.3335,-27.334 -10.6665,-20.666 -7.0005,-22 -7.3335,-26 -0.333,-4 4.6665,-28.334 29.3335,-32 13,0 7.333,3.667 15,3.667 5.333,-13.333 20.334,-29.334 24.667,-33.667 4.333,-4.333 0.332,-3.332 -1.334,-2.666 -1.666,0.666 -7,3 -15.333,2.333 -5,4.667 -8.667,4.333 -13,4.333 -7.667,0 -34.833,-10.165 -54.3335,-29.666 -15.0005,-15.001 -26.3335,-47.667 -26.3335,-58 0,-6.334 10.6665,-15.334 24.6665,-17.334 14,-2 12.333,-4 21,-4 8.667,0 48.0005,-0.666 48.0005,33.334 0,9.333 -2.334,7.332 -2.334,13.666 9,-1 29,-2 28.667,22.667 14.333,5 24.667,11 24.667,11 0,0 33.333,0.667 37.333,3.667 4,3 2.334,-3.333 0.667,-5 -1.667,-1.667 -9.666,-9.334 -9,-18.667 0.666,-9.333 3.332,-19.999 12.666,-27.333 9.334,-7.334 30.333,-16 51,-16 20.667,0 63.667,8 63.667,69.333 0,25.333 -26.333,27.667 -30,27.667 -8.667,0 -21.333,-1.001 -21.333,-25.334 -0.667,-6 -3.667,-5.666 -8.667,0.667 -0.667,8.333 2,11.334 2,19.667 0,8.333 -4.667,7.666 -4.667,11.333 0,3.667 6.334,4.666 8.334,17.333 8.333,11 8.999,18.334 8.666,24.334 4,-2 7.334,-1.334 9.334,-1.334 2,0 6.666,-0.667 7.666,8 10.334,-0.666 17.333,0.666 25,16 12.667,-0.333 21.668,5.668 23.334,26.001 0,4.333 -5,10 -5,10 1.666,14 -2.668,20 -11.334,23.333 -1.333,10.333 -6,11.667 -10.333,12 C 512,303.666 495.332,299.999 488.666,279.666 478.333,279 474,267.666 474,256.333 c -6.334,-6.667 -8.334,-3.667 -8.334,-3.667 -3,13.667 -5.666,10.667 -6.333,16.667 -0.667,6 2.8359,-1.7129 1.5615,10.7139 0.333,3.333 -2.2285,0.6191 -1.2285,11.6191 1,11 -3,11.001 -5,11.334 1,16.333 -4.666,26 -10.333,26 -5.667,0 -4.667,-2.334 -6.667,-2.334 -0.333,17 -12.334,23 -19,23 -6.666,0 -9.332,-2.666 -10.666,-5.333 -1.334,-2.667 -10e-4,-2 -2.334,1 -2.333,3 -7,11.333 -24.333,11.333 z"
       inkscape:connector-curvature="0" /><path
       id="path18"
       style="fill:#fdff3f;fill-opacity:1;fill-rule:nonzero;stroke:none"
       d="m 351,244 c 0,-20 10.125,-46.125 34.25,-70.25 0,0 6.5,5.25 16.25,-0.5 14.5,7.75 22.5,6.25 26.25,6.25 3.75,0 14.75,-0.25 30.25,-10 7.5,7.5 7.5,14 7.5,14 0,0 -9.25,-5.25 -16,4 -4,-7 -8.25,-6.5 -11,-6.5 -2.75,0 -11,0.5 -11,16 -14.25,0 -28.75,0.25 -37.25,18.25 -4.5,0 -3.25,-2.75 -6.75,-2.5 0,1 1.5,5.25 6,5.25 4.5,0 6.25,4 8.5,4 0,-2.25 -4,-5.75 -5.25,-5.75 C 394.5,212 399,200.5 422,200.5 c 4.5,0 6.75,1 6.75,1 1.75,11.75 9,18.5 15.25,18.5 3.5,0 4.25,-0.75 5.25,-2 3.25,4.75 13.25,7.5 13.25,7.5 5.75,48.75 -30.75,79.5 -60.5,79.5 -21.25,0 -51,-26 -51,-61 z"
       inkscape:connector-curvature="0" /><path
       id="path20"
       style="fill:#fdff3f;fill-opacity:1;fill-rule:nonzero;stroke:none"
       d="m 463.75,214.25 c -3.5,0 -8.5,-4.5 -8.5,-12.25 0,-5.25 3.5,-8.75 4.5,-8.75 1,0 8.25,5 8.25,15.25 0,5.25 -4.25,5.75 -4.25,5.75 z"
       inkscape:connector-curvature="0" /><path
       id="path22"
       style="fill:#fdff3f;fill-opacity:1;fill-rule:nonzero;stroke:none"
       d="m 429.75,175.75 c -19.5,0 -35.75,-12.25 -40.5,-12.25 0,0 -4.25,-16.5 11.25,-16.5 6,0 21.75,10.75 29.25,10.75 7.5,0 11.5,-5 11.5,-9.25 0,-6.5 -4.75,-12.5 -4.75,-14.5 0,-2 3.75,-7 11,-7 7.25,0 13.75,18.5 13.75,29.25 0,10.75 -20.5,19.5 -31.5,19.5 z"
       inkscape:connector-curvature="0" /><path
       id="path24"
       style="fill:#ffffff;fill-opacity:1;fill-rule:nonzero;stroke:none"
       d="m 378.7891,159.4453 c 0,-7.8086 2.8857,-19.5215 14.5986,-19.5215 8.9961,0 10.8633,3.3955 10.8633,3.3955 -3.9043,0 -18.333,0.8487 -18.333,14.4287 0,7.1299 1.3584,3.3936 1.3584,5.2618 0,1.8681 -1.5284,4.2441 -4.2442,4.2441 -2.7158,0 -4.2431,-3.9043 -4.2431,-7.8086 z"
       inkscape:connector-curvature="0" /><path
       id="path26"
       style="fill:#fdff3f;fill-opacity:1;fill-rule:nonzero;stroke:none"
       d="m 387,132 c 11.5,0 17.25,0 23.5,9 6.25,9 14.75,9 16.75,9 2,0 6.25,-1 7.75,-2.75 1.5,-1.75 5.75,5 -5.25,5 -22.5,0 -19.5,-15 -34.25,-15 -13,0 -19.75,11.25 -19.75,21.25 0,4.5 3.25,7.5 3.25,9.75 0,4.25 -2,1.75 -2,1.75 0,0 -0.5,-3.25 -5,-3.25 -4.5,0 -15.25,4.25 -15.25,12.25 -8.75,0 -19.5,9.5 -19.5,23.75 -5.75,0 -10.25,9 -10.25,9 -2.5,-7 -5.25,-11.25 -8.5,-11.25 0,-5.25 -4.75,-12.5 -7.25,-13.5 0,-3.5 10.25,-23 31,-38.75 C 363,132.5 382,132 387,132 Z"
       inkscape:connector-curvature="0" /><path
       id="path28"
       style="fill:#fdff3f;fill-opacity:1;fill-rule:nonzero;stroke:none"
       d="m 314.8311,267.3369 c -2.3047,0 -5.5049,-2.5605 -5.5049,-4.3525 0,-1.792 2.5605,-2.0479 3.0722,-0.5117 0.5118,1.5361 2.4327,4.8642 2.4327,4.8642 z"
       inkscape:connector-curvature="0" /><path
       id="path30"
       style="fill:#000000;fill-opacity:1;fill-rule:nonzero;stroke:none"
       d="m 403,247.25 c 0,-5.5 3.75,-13.75 10.25,-13.75 6.5,0 8.75,8.75 8.75,15.5 0,8.75 -5.5,28 -11.75,28 -4.25,0 -7.75,-10.25 -7.75,-19.5 0,0 9,-2 11,-3.5 -2.25,-2.25 -4.75,-4 -10.5,-6.75 z"
       inkscape:connector-curvature="0" /><path
       id="path32"
       style="fill:#000000;fill-opacity:1;fill-rule:nonzero;stroke:none"
       d="m 434.25,267.5 c 0,-8.25 2.25,-20 5.5,-25.75 -4.5,-4.75 -2.5,-8 -1.5,-6.5 1,1.5 3.25,4.25 4.75,4.25 1.5,0 5.75,-2 5.75,-5.5 0,-3.5 -2.75,-7.5 -5.25,-7.5 -2.5,0 -3.75,1.75 -3.75,1.75 0,0 -2,-0.25 -0.75,-2.75 0.9219,-1.4551 3.4375,-1.25 4.5,-1.25 1.0625,0 8,2.25 8,9.75 0,5.25 -3.25,4.5 -3.25,7.75 0,1.75 2.75,3.25 2.5,6 -0.25,2.75 0,4.5 0,4.5 0,0 -8.5625,-0.9375 -9,0 -0.4375,0.9375 5.25,9.5 5.25,9.5 -2.75,9.5 -6.25,14.75 -9.25,14.75 -3,0 -3.5,-6.75 -3.5,-9 z"
       inkscape:connector-curvature="0" /><path
       id="path34"
       style="fill:#000000;fill-opacity:1;fill-rule:nonzero;stroke:none"
       d="m 394.2627,288.2617 c 0,-5.3984 0.6113,-8.54 0.6113,-9.0312 0,-0.4912 1.0293,-2.4336 2.4473,6.8906 1.418,9.3242 4.5351,11.8506 6.1162,11.8506 1.5811,0 2.9414,-0.3643 4.0869,-1.5645 1.1455,-1.2002 1.4727,0.0537 0.8184,1.4717 -0.6543,1.418 -3.5449,6.1621 -5.5625,6.1621 -2.0176,0 -8.5176,-5.2549 -8.5176,-15.7793 z"
       inkscape:connector-curvature="0" /><path
       id="path36"
       style="fill:#00f1ff;fill-opacity:1;fill-rule:nonzero;stroke:#00f1ff;stroke-width:1;stroke-linecap:round;stroke-linejoin:round;stroke-miterlimit:4;stroke-dasharray:none;stroke-opacity:1"
       d="m 380.9004,352.0186 c -15.2441,0 -14.9199,-5.1885 -14.9199,-6.8106 0,-5.1894 9.4062,-10.3789 9.4062,-18.4873 -6.9726,6.9727 -19.1367,17.1895 -27.2441,17.1895 -8.1074,0 -19.459,-8.7559 -19.459,-18.8106 0,-10.0547 15.4053,-19.2978 18.4863,-22.3789 -10.0537,0 -11.3515,3.2432 -17.5136,3.2432 -6.1622,0 -19.1358,-6.8106 -19.1358,-20.4326 0,-13.6221 9.082,-18.8116 21.4063,-18.8116 -1.9463,-5.1884 -5.5147,-2.9179 -12.9737,-8.1074 14.2705,-4.8652 20.7569,-11.3506 20.7569,-17.8379 0,-6.4873 -3.2432,-10.3789 -6.1621,-10.3789 0,-7.1348 -4.2159,-10.3789 -4.2159,-10.3789 0,-9.0811 11.3516,-20.4326 16.8653,-14.5947 -11.6758,-12 10.3779,-28.2158 14.2705,-20.7569 -0.9737,-10.0537 8.4316,-20.7558 16.54,-10.7021 5.5137,-5.1895 7.7842,-4.541 7.7842,-4.541 -28.541,31.1357 -36.6494,52.2177 -36.6494,74.2715 0,25.2968 18.1621,65.1894 55.1357,65.1894 36.9737,0 53.5147,-33.7305 53.5147,-33.7305 1.1758,-2.4287 2.0107,1.7461 2.0107,3.1661 0,1.4199 -3.3398,2.1709 -3.3398,4.4257 0,5.5108 1.1689,-1.1689 1.1689,13.3604 0,2.1709 -3.0908,4.7598 -4.6767,-1.9209 -1.586,-6.6807 -2.087,-0.419 -2.087,1.7529 0,7.5987 1.169,-1.5029 1.169,12.1914 0,13.6944 -3.9248,17.1182 -7.5156,17.1182 -3.5909,0 -5.5225,-7.2451 -6.5225,-9.5791 -1.333,11.333 -6.001,28.666 -18.667,28.666 -7,0 -8,-6.667 -8,-16 C 403,344 395.4678,352.0186 380.9004,352.0186 Z"
       inkscape:connector-curvature="0" /><path
       id="path38"
       style="fill:#000000;fill-opacity:1;fill-rule:nonzero;stroke:none"
       d="m 437.8564,306.3633 c -5.6445,0 -6.1308,-4.1885 -6.1914,-4.8555 -0.0605,-0.667 0.0606,-1.5166 0.3038,-2.3662 0.2431,-0.8496 2.124,-2.3672 2.124,-0.6074 0,1.7597 -0.3037,4.1875 2.8525,4.1269 3.1563,-0.0605 7.8906,-4.6123 9.5899,-10.6816 1.3349,5.5234 -1.3956,14.3838 -8.6788,14.3838 z"
       inkscape:connector-curvature="0" /><path
       id="path40"
       style="fill:#ffffff;fill-opacity:1;fill-rule:nonzero;stroke:none"
       d="m 393.0479,173.874 c -3.0557,0 -6.3653,-1.1035 -4.753,-2.7158 1.6123,-1.6123 2.5459,-3.0557 3.5645,-3.0557 1.0185,0 5.7715,1.3584 5.7715,3.2256 0,1.8672 -3.0557,2.5459 -4.583,2.5459 z"
       inkscape:connector-curvature="0" /><path
       id="path42"
       style="fill:#fdff3f;fill-opacity:1;fill-rule:nonzero;stroke:none"
       d="m 318.6719,265.0332 c -1.4082,0 -4.7364,-5.8887 -5.249,-7.9375 3.0722,3.0723 4.6074,4.9932 6.2724,5.249 1.6651,0.2559 1.2803,2.6885 -1.0234,2.6885 z"
       inkscape:connector-curvature="0" /><path
       id="path44"
       style="fill:#ffffff;fill-opacity:1;fill-rule:nonzero;stroke:none"
       d="m 429.7705,145.6533 c -10.293,0 -20.2051,-7.4336 -20.2051,-19.6328 0,-6.6709 14.4864,-20.2051 34.1192,-20.2051 13.7246,0 20.5859,12.7715 20.5859,21.3487 0,4.1933 -1.7158,5.9091 -3.0498,5.9091 -2.668,0 -1.7148,-10.4834 -13.1514,-10.4834 -11.4365,0 -16.2021,8.1954 -16.2021,11.0547 0,4.5752 4.3838,6.0996 4.3838,8.959 0.1904,1.5254 -2.4776,3.0498 -6.4805,3.0498 z"
       inkscape:connector-curvature="0" /><path
       id="path46"
       style="fill:#ffffff;fill-opacity:1;fill-rule:nonzero;stroke:none"
       d="m 400.2256,107.7217 c 0,-11.8174 6.8633,-37.169 59.0898,-37.169 52.2266,0 60.2325,42.8877 60.2325,61.7578 0,18.8702 -14.8682,24.7793 -27.4483,24.7793 -12.5801,0 -16.0107,-4.955 -16.0107,-17.1543 0,-12.1992 2.8593,-13.5341 2.8593,-19.8242 0,-6.29 -3.0234,-5.0254 -4.0029,0.9532 -2.2529,13.7548 -2.3984,9.7646 -6.8623,-2.8594 -0.8525,-2.4112 -8.1963,-17.1543 -25.542,-17.1543 -23.2539,0 -32.7851,18.4892 -36.7871,18.4892 -3.0498,0 -5.5283,-4.0039 -5.5283,-11.8183 z"
       inkscape:connector-curvature="0" /><path
       id="path48"
       style="fill:#00f1ff;fill-opacity:1;fill-rule:nonzero;stroke:#00f1ff;stroke-width:1;stroke-linecap:round;stroke-linejoin:round;stroke-miterlimit:4;stroke-dasharray:none;stroke-opacity:1"
       d="m 459,74.666 c 21.667,0 51.0771,8.8848 56,43.333 1,9.667 -3.666,14 -7.666,13.667 -4,-0.333 -6,-2.667 -10.667,-16.667 -4.667,-14 -18.999,-32.666 -37.333,-32.666 -18.334,0 -33.667,2.333 -52,13.666 10.4394,-13.5107 29.999,-21.333 51.666,-21.333 21.667,0 50.333,8.999 56,43.333"
       inkscape:connector-curvature="0" /><path
       id="path50"
       style="fill:#00f1ff;fill-opacity:1;fill-rule:nonzero;stroke:none"
       d="m 412.334,127.666 c 0,-4.667 12.666,-20.334 27.333,-19.667 4.8525,-0.1035 7.8262,1.3838 10.0566,2.6582 2.2305,1.2744 2.1241,1.7002 -0.7431,2.2305 -2.8672,0.5303 -9.9844,0.6367 -19.3311,7.7529 -9.3467,7.1162 -9.5586,15.9317 -5.5224,20.9239 -6.3731,-1.9122 -11.793,-5.4922 -11.793,-13.8985 z"
       inkscape:connector-curvature="0" /><path
       id="path52"
       style="fill:#ffffff;fill-opacity:1;fill-rule:nonzero;stroke:none"
       d="m 306.7813,153.1563 c -10.1622,0 -17.917,-3.7442 -28.3467,-10.4297 -10.4297,-6.6856 -28.0791,-20.0557 -39.3111,-40.9151 -11.2319,-20.8594 -9.6274,-24.0595 -9.6274,-28.6142 0,-7.7559 0.8022,-20.8594 40.3809,-20.8594 41.4501,0 40.6484,28.3467 40.6484,29.9512 0,5.3486 0.2676,13.3711 -34.4976,17.3828 -5.6162,0 -5.6157,-1.0694 -8.29,-1.0694 -2.6743,0 -3.9131,1.6817 -0.5015,2.3995 6.3741,1.3466 26.5742,1.3466 38.8731,-3.501 2.0654,-0.9873 2.1552,-0.0889 2.1552,1.706 0,1.795 -6.4638,5.7451 -6.4638,10.8623 0,3.1426 -9.6958,7.9004 -10.5039,7.9903 -0.8081,0.0898 -0.4488,0.7177 2.6933,0.7177 3.1421,0 4.8477,-2.1543 4.8477,-2.1543 0.6289,-0.6289 -0.3379,5.127 -0.3379,10.627 0,5.5 4.5,18.5 12.25,21.75 3.5,1.75 -0.1875,4.1563 -3.9687,4.1563 z"
       inkscape:connector-curvature="0" /><path
       id="path54"
       style="fill:#00f1ff;fill-opacity:1;fill-rule:nonzero;stroke:none"
       d="m 291.2969,118.0596 c -0.8081,0.0898 -0.4488,0.7177 2.6933,0.7177 3.1421,0 4.8477,-2.1543 4.8477,-2.1543 0.5342,-0.5341 -0.083,3.5362 -0.2813,8.1426 -4.8295,1.2129 -14.4702,-1.7968 -19.4868,-7.7734 -0.6108,-0.8721 0.2173,-0.4365 1.003,-0.4365 0.7856,0 4.2607,1.9443 6.7607,1.9443 2.5,0 4.4634,-0.4404 4.4634,-0.4404 z"
       inkscape:connector-curvature="0" /><path
       id="path56"
       style="fill:#00f1ff;fill-opacity:1;fill-rule:nonzero;stroke:none"
       d="m 272.1685,100.8477 c 8.7763,0.4794 23.9599,-0.1338 33.9409,-3.3916 2.0654,-0.8174 2.1552,-0.0743 2.1552,1.413 0,1.0879 -3.4677,3.1348 -5.3232,5.8174 -5.9414,0.6358 -9.7744,1.3262 -13.1079,1.3262 -3.3335,0 -12.9966,-1.9102 -17.665,-5.165 z"
       inkscape:connector-curvature="0" /><path
       id="path58"
       style="fill:#00f1ff;fill-opacity:1;fill-rule:nonzero;stroke:none"
       d="m 302.5527,140.5869 c 2.0411,3.707 4.8086,6.9922 8.1973,8.4131 0.793,0.3965 1.2168,0.8262 1.3545,1.2549 C 305.4219,150.3779 296,149 286.75,141.25 c -2.5,-2 1,-2 4.25,-0.5 3.25,1.5 9.3555,1.6738 11.5527,-0.1631 z"
       inkscape:connector-curvature="0" /><path
       id="path60"
       style="fill:#00f1ff;fill-opacity:1;fill-rule:nonzero;stroke:none"
       d="m 266.5,56.667 c 10.1665,0 22.8335,1.5 22.8335,10.333 0,8.833 -8.6665,8 -12.5,8 C 273,75 270.5,73.833 262,73.833 c -8.5,0 -16.3335,5.166 -16.3335,13 0,7.834 4.3335,13.834 4.3335,18.167 0,5 -15.5,-16.333 -15.5,-25.833 0,-9.5 8.8335,-22.5 32,-22.5 z"
       inkscape:connector-curvature="0" /><path
       id="path62"
       style="fill:#ffffff;fill-opacity:1;fill-rule:nonzero;stroke:none"
       d="m 324.833,147.333 c -6.666,0 -22.666,-2.332 -22.666,-25.666 0,-23.334 18.332,-23.167 20.166,-23.167 1.834,0 15,1.333 15,13.833 -12.5,0 -19.833,2.334 -19.833,12.334 0.333,12.333 5.833,17.833 15.333,15.666 1,2.5 -2.334,7 -8,7 z"
       inkscape:connector-curvature="0" /><path
       id="path64"
       style="fill:#00f1ff;fill-opacity:1;fill-rule:nonzero;stroke:none"
       d="m 305.333,124 c 0,-7.8916 2.376,-22.667 16.6299,-22.667 10.6113,0 12.0371,6.5488 12.0371,7.8926 0,1.3428 -1.9785,1.2598 -3.167,0 -1.1894,-1.2608 -4.1191,-3.6943 -6.8105,-3.6943 -5.543,0.1679 -12.1954,2.8535 -18.6895,18.4687 z"
       inkscape:connector-curvature="0" /><path
       id="path66"
       style="fill:#fdff3f;fill-opacity:1;fill-rule:nonzero;stroke:none"
       d="m 321.7188,125.8252 c 0,-4.6318 2.3857,-9.2637 10.5263,-9.2637 8.1406,0 30.8779,11.7891 31.7197,14.0352 -6.8769,1.5439 -15.4375,6.8779 -16.2802,8.7021 -3.3692,-3.5088 -15.0176,-3.79 -19.2285,-3.79 -4.211,0 -6.7373,-2.9463 -6.7373,-9.6836 z"
       inkscape:connector-curvature="0" /><path
       id="path68"
       style="fill:#ffffff;fill-opacity:1;fill-rule:nonzero;stroke:none"
       d="m 466.1758,236.3018 c 0,-8.6797 2.5039,-10.5147 7.8447,-16.5235 5.3408,-6.0088 7.8447,-8.6797 10.8486,-8.6797 3.0039,0 6.5098,2.17 6.5098,4.3399 0,3.3379 -6.6768,2.0029 -6.6768,15.5224 0,1.502 1.836,1.168 1.836,-1.0019 0,-4.0059 6.1748,-9.8467 12.5176,-9.8467 6.3427,0 13.3535,-1.001 18.0263,12.6846 -5.8418,0 -9.5136,5.8408 -9.5136,8.3447 0,2.5039 0.166,-0.167 -8.1788,-0.167 -3.0039,0 -9.3466,-5.3408 -9.3466,-5.3408 -1.669,-0.834 -1.835,1.1689 -0.667,2.6709 1.1679,1.5019 6.0088,4.5068 7.5107,5.3408 1.168,3.0039 1.335,5.3408 1.335,5.3408 0,0 -0.667,4.1729 -1.669,5.1739 -3.1718,0 -8.8447,-0.167 -10.5146,5.0068 5.1738,0 5.3408,-2.0029 12.3506,-2.0029 7.0097,0 16.6904,2.1689 16.6904,14.3535 0,8.0117 -7.5107,4.8408 -26.7051,4.8408 -7.1767,0 -12.6845,-11.3496 -12.6845,-22.5322 0,-11.1826 2.6709,-14.8545 5.6748,-16.1895 3.0039,-1.3349 1.5019,-1.6689 0,-1.6689 -1.502,0 -7.6768,0 -8.1778,16.1894 0,1.335 -1.6699,0.668 -1.6699,0.668 -1.8359,-1.8359 -5.3408,-5.1738 -5.3408,-16.5234 z"
       inkscape:connector-curvature="0" /><path
       id="path70"
       style="fill:#00f1ff;fill-opacity:1;fill-rule:nonzero;stroke:none"
       d="m 486.3438,221.8477 c 1.9775,-4.0313 5.0351,-4.1504 5.0351,-6.4092 -2.8369,-0.668 -4.6719,-0.834 -5.8408,-0.834 -1.169,0 -5.8418,3.5039 -7.5108,6.1748 7.0098,-2.1699 8.3165,1.0684 8.3165,1.0684 z"
       inkscape:connector-curvature="0" /><path
       id="path72"
       style="fill:#00f1ff;fill-opacity:1;fill-rule:nonzero;stroke:none"
       d="m 473.1865,252.1572 c 0.501,-16.1894 6.6758,-16.1894 8.1778,-16.1894 0,-3.0039 -1.835,-2.6709 -3.5039,-2.6709 -1.669,0 -8.0118,3.6719 -8.0118,9.0127 0,8.8467 3.3379,9.8476 3.3379,9.8476 z"
       inkscape:connector-curvature="0" /><path
       id="path74"
       style="fill:#00f1ff;fill-opacity:1;fill-rule:nonzero;stroke:none"
       d="m 497.5547,259.167 c 2.1699,0 11.6836,0.834 11.6836,5.3408 0,4.5068 -2.5029,3.8399 -5.5078,1.336 -3.0049,-2.504 -5.3399,-3.1719 -8.6787,-3.1719 -3.3389,0 -7.8457,0.001 -8.6797,1.1689 0.334,-3.0049 9.0127,-4.6738 11.1826,-4.6738 z"
       inkscape:connector-curvature="0" /><path
       id="path76"
       style="fill:#00f1ff;fill-opacity:1;fill-rule:nonzero;stroke:none"
       d="m 501.7275,222.7822 c 3.1709,0 8.1778,0.335 10.6817,8.1787 -4.5069,0 -2.6699,-2.0029 -10.5147,-2.0029 -7.8447,0 -1.1679,2.1699 -10.8486,2.1699 -3.1719,0 5.1738,-8.3457 10.6816,-8.3457 z"
       inkscape:connector-curvature="0" /><path
       id="path78"
       style="fill:#ffffff;fill-opacity:1;fill-rule:nonzero;stroke:none"
       d="m 514.7461,300.7256 c -5.1738,0 -20.5283,-10.1797 -23.3662,-22.3643 0,0 4.3398,-0.667 6.8428,0.167 0.5009,6.5088 4.8388,9.5127 6.1748,10.0137 1.3359,0.501 3.0048,0.334 1.0019,-1.8359 -2.0029,-2.17 -3.8389,-6.3418 -4.0058,-8.1778 4.8398,0.5 14.0195,1.335 16.0224,-4.1728 0.668,-2.003 2.1699,0.333 2.5039,1.3349 0.334,1.002 3.0049,5.0069 4.1729,14.5205 0.834,6.8428 -5.6748,10.5147 -9.3467,10.5147 z"
       inkscape:connector-curvature="0" /><path
       id="path80"
       style="fill:#00f1ff;fill-opacity:1;fill-rule:nonzero;stroke:none"
       d="m 512.709,278.2373 c 2.1777,-0.6309 3.9521,-1.8057 4.707,-3.8818 0.668,-2.003 2.1699,0.333 2.5039,1.3349 0.334,1.002 3.0049,5.0069 4.1729,14.5205 0.3125,2.5664 -0.4073,4.6866 -1.6221,6.334 -0.5478,-5.499 -6.5557,-14.6797 -9.2266,-15.8476 -1.5859,-1.586 -0.5351,-2.46 -0.5351,-2.46 z"
       inkscape:connector-curvature="0" /><path
       id="path82"
       style="fill:#ffffff;fill-opacity:1;fill-rule:nonzero;stroke:none"
       d="m 514.9131,249.3203 c 5.8408,0 20.5293,8.8457 20.3623,25.2022 -0.167,16.3564 -9.1797,14.3535 -9.1797,14.3535 -1.0019,-9.0127 -4.8408,-16.3565 -8.5127,-18.1924 0.501,-7.0098 -6.6767,-16.3565 -11.3496,-16.8574 2.1699,-3.3379 6.5107,-4.5059 8.6797,-4.5059 z"
       inkscape:connector-curvature="0" /><path
       id="path84"
       style="fill:#00f1ff;fill-opacity:1;fill-rule:nonzero;stroke:none"
       d="m 510.6719,256.2109 c -1.5254,-1.3545 -3.0869,-2.2402 -4.4385,-2.3847 2.1699,-3.3379 6.5107,-4.5059 8.6797,-4.5059 5.8408,0 20.5293,8.8457 20.3623,25.2022 -0.0518,5.0634 -0.9512,8.3681 -2.169,10.5166 -9e-4,-12.6866 -1.4726,-30.2823 -22.4345,-28.8282 z"
       inkscape:connector-curvature="0" /><path
       id="path86"
       style="fill:#ffffff;fill-opacity:1;fill-rule:nonzero;stroke:none"
       d="m 522.4238,235.8008 c 5.6739,0 17.3575,6.0088 17.3575,20.3623 0,11.0156 -3.1709,8.5117 -3.1709,8.5117 -4.1729,-8.6787 -10.8477,-17.8584 -25.2022,-17.8584 -0.835,0 -1.0019,-1.6689 -1.0019,-3.3379 0,-1.6689 3.3388,-7.6777 12.0175,-7.6777 z"
       inkscape:connector-curvature="0" /><path
       id="path88"
       style="fill:#00f1ff;fill-opacity:1;fill-rule:nonzero;stroke:none"
       d="m 539.4727,261.1504 c 0.1904,-1.2344 0.3086,-2.8584 0.3086,-4.9873 0,-14.3535 -11.6836,-20.3623 -17.3575,-20.3623 -8.6787,0 -12.0175,6.0088 -12.0175,7.6777 1.8359,2.0029 3.6718,0.5 7.3437,0.5 3.6719,0 16.4072,-0.039 21.7227,17.1719 z"
       inkscape:connector-curvature="0" /><path
       id="path90"
       style="fill:#00f1ff;fill-opacity:1;fill-rule:nonzero;stroke:none"
       d="m 500.8789,253.1533 c 0,0 -0.4473,-9.1758 -1.5664,-10.0713 5.3711,1.1192 6.043,0.8955 7.3857,0 1.3428,2.4619 1.1192,5.3711 0.2237,5.5948 -3.1328,0 -4.0283,3.3574 -6.043,4.4765 z"
       inkscape:connector-curvature="0" /><path
       id="path92"
       style="fill:#ffffff;fill-opacity:1;fill-rule:nonzero;stroke:none"
       d="m 293.0122,186.46 c 6.7398,0 14.0649,-0.878 20.8052,12.3076 -12.3067,-2.9307 -18.167,-0.8799 -22.856,2.0508 -4.6889,2.9306 0,2.6367 2.6372,2.3437 2.6372,-0.293 4.9815,-1.1719 9.377,-1.1719 4.3955,0 15.5303,-0.8789 18.7539,16.9961 -14.0654,-1.7578 -27.252,1.4658 -29.3032,3.2237 -2.0513,1.7578 1.1718,2.0507 2.3442,2.0507 1.1724,0 11.1358,-2.0507 20.5127,-2.0507 9.377,0 15.5303,1.4648 15.5303,5.8603 0,4.3955 -4.3965,12.3076 -16.7031,17.875 -12.3067,5.5674 -18.4605,8.2051 -18.4605,8.2051 -8.791,-3.5166 -25.2007,-14.6514 -28.7173,-35.75 0.586,-21.9775 16.1167,-32.5264 26.0796,-31.9404 z"
       inkscape:connector-curvature="0" /><path
       id="path94"
       style="fill:#00f1ff;fill-opacity:1;fill-rule:nonzero;stroke:none"
       d="m 311.2168,194.3838 c 0.875,1.2539 1.7422,2.7051 2.6006,4.3838 -2.0098,-0.4785 -3.8477,-0.8242 -5.5371,-1.0547 0.3203,-2.7344 -5.9522,-7.1914 -13.5449,-7.1914 -7.5928,0 -14.3609,3.3017 -15.021,4.1269 6.2724,-6.6025 10.0688,-7.4277 14.6909,-7.5927 12.3799,0 16.8115,7.3281 16.8115,7.3281 z"
       inkscape:connector-curvature="0" /><path
       id="path96"
       style="fill:#00f1ff;fill-opacity:1;fill-rule:nonzero;stroke:none"
       d="m 292.4263,222.21 c -2.0513,1.7578 1.1718,2.0507 2.3442,2.0507 1.1724,0 11.1358,-2.0507 20.5127,-2.0507 9.377,0 15.5303,1.4648 15.5303,5.8603 0,1.0342 -0.2432,2.2637 -0.7764,3.6113 -4.1045,-6.0009 -8.8906,-7.3212 -13.3476,-7.3212 -7.4278,0 -16.837,4.456 -20.3033,4.456 -3.4663,0 -6.4375,-1.9805 -6.4375,-3.4658 0,-2.3106 2.4776,-3.1406 2.4776,-3.1406 z"
       inkscape:connector-curvature="0" /><path
       id="path98"
       style="fill:#00f1ff;fill-opacity:1;fill-rule:nonzero;stroke:none"
       d="m 290.9614,200.8184 c -4.6889,2.9306 0,2.6367 2.6372,2.3437 2.6372,-0.293 4.9815,-1.1719 9.377,-1.1719 4.3955,0 15.5303,-0.8789 18.7539,16.9961 -4.3799,-8.8222 -8.8369,-14.9297 -16.5947,-14.9297 -7.7583,0 -11.3892,3.4668 -15.6812,3.4668 -4.292,0 -4.7871,-1.4843 -4.1269,-2.6406 2.9712,-4.1269 5.6347,-4.0644 5.6347,-4.0644 z"
       inkscape:connector-curvature="0" /><path
       id="path100"
       style="fill:#ffffff;fill-opacity:1;fill-rule:nonzero;stroke:none"
       d="m 309.7148,256.2012 c -2.6367,0.2929 -11.1347,-0.8789 -11.1347,-0.8789 6.4463,-2.0508 5.5683,-2.9307 8.2051,-3.5166 2.6367,-0.586 3.8095,1.7588 3.8095,1.7588 z"
       inkscape:connector-curvature="0" /><path
       id="path102"
       style="fill:#ffffff;fill-opacity:1;fill-rule:nonzero;stroke:none"
       d="m 321.4365,253.8574 c -4.6885,-0.8799 -7.9121,-3.2246 -4.1025,-5.2754 3.8096,-2.0507 14.0644,-9.3759 15.5303,-11.7207 1.4658,-2.3447 2.9306,-2.3447 3.5166,2.0508 0.8789,7.0332 -8.4981,14.9453 -14.9444,14.9453 z"
       inkscape:connector-curvature="0" /><path
       id="path104"
       style="fill:#00f1ff;fill-opacity:1;fill-rule:nonzero;stroke:none"
       d="m 332.6094,237.1162 c -1.1865,1.8965 -7.8711,6.7998 -12.4951,9.7861 7.7998,0.4014 12.7509,-3.7255 12.7509,-7.6865 0,-3.9609 -0.2558,-2.0996 -0.2558,-2.0996 z"
       inkscape:connector-curvature="0" /><path
       id="path106"
       style="fill:#ffffff;fill-opacity:1;fill-rule:nonzero;stroke:none"
       d="m 283.9282,260.0107 c -6.0688,-4.415 -8.2051,-7.6181 -9.084,-15.5302 9.6704,10.8418 23.1499,16.7021 27.2525,16.7021 4.1025,0 0.8779,1.7588 -2.6377,2.3447 -3.5161,0.586 -12.3076,-1.1718 -15.5308,-3.5166 z"
       inkscape:connector-curvature="0" /><path
       id="path108"
       style="fill:#ff3fbb;fill-opacity:1;fill-rule:nonzero;stroke:none"
       d="m 464.3994,222.7158 c -5.5957,0 -17.2334,-4.9238 -17.2334,-20.5898 0,-15.666 7.834,-16.7862 11.8623,-17.0098 4.0283,-0.2236 15.666,3.582 15.666,23.0527 0,10.5186 -5.5947,14.5469 -10.2949,14.5469 m -5.1474,-32.0039 c -1.5665,0 -6.9385,0.8955 -6.9385,10.9658 0,10.0703 6.2666,14.9952 11.1904,14.9952 2.9092,0 6.4902,1.5664 6.4902,-11.6377 0,-13.2041 -9.1757,-14.3233 -10.7421,-14.3233 z"
       inkscape:connector-curvature="0" /><path
       id="path110"
       style="fill:#ff3fbb;fill-opacity:1;fill-rule:nonzero;stroke:none"
       d="m 445.7656,218.0156 c -2.2158,0.3164 -10.2939,-3.581 -12.0849,-19.0234 0,-1.1192 1.791,-0.6709 2.6855,0.6719 0.8945,1.3427 5.5947,7.6103 9.1758,8.5048 1.125,2.9981 2.0137,2.9102 2.0137,6.4903 0,3.5801 -0.2237,3.1328 -1.7901,3.3564 z"
       inkscape:connector-curvature="0" /><path
       id="path112"
       style="fill:#ff3fbb;fill-opacity:1;fill-rule:nonzero;stroke:none"
       d="m 436.6475,214.2109 c -2.6856,-2.9101 -7.3858,-15.665 -7.3858,-18.5752 0,-1.3427 2.4619,-1.3427 2.4619,0 0,1.3428 2.6856,13.6514 4.9239,18.5752 z"
       inkscape:connector-curvature="0" /><path
       id="path114"
       style="fill:#ff3fbb;fill-opacity:1;fill-rule:nonzero;stroke:none"
       d="m 442.0186,195.4121 c -2.2383,0 -5.8184,-2.2383 -5.8184,-4.9238 0,-2.6856 2.2373,-4.4766 4.6992,-4.7002 2.4619,-0.2236 3.3574,-0.2246 4.4766,0.4473 1.1191,0.6718 1.5664,2.0146 0.4472,3.1337 -1.1191,1.1192 0.4483,4.9248 -0.4472,6.043 -0.8955,1.1182 -3.3574,0 -3.3574,0 z"
       inkscape:connector-curvature="0" /><path
       id="path116"
       style="fill:#ff3fbb;fill-opacity:1;fill-rule:nonzero;stroke:none"
       d="m 445.8232,204.8115 c -1.8964,-0.2373 -4.0283,-2.4619 -3.8046,-3.581 0.2236,-1.1192 3.1337,-2.0137 4.0283,-2.0137 -0.4483,1.1191 -0.6709,4.252 -0.2237,5.5947 z"
       inkscape:connector-curvature="0" /><path
       id="path118"
       style="fill:#ff3fbb;fill-opacity:1;fill-rule:nonzero;stroke:none"
       d="m 437.0947,198.3213 c -2.2461,-0.9004 -3.1328,-3.3565 -2.9092,-5.1475 0.2237,-1.791 0.6729,0.4473 1.7911,1.5664 1.1181,1.1192 2.2363,4.0293 1.1181,3.5811 z"
       inkscape:connector-curvature="0" /></g></svg>