<?xml version="1.0" encoding="UTF-8" standalone="no"?>
<!-- Generator: Adobe Illustrator 23.0.3, SVG Export Plug-In . SVG Version: 6.00 Build 0)  -->

<svg
   xmlns:dc="http://purl.org/dc/elements/1.1/"
   xmlns:cc="http://creativecommons.org/ns#"
   xmlns:rdf="http://www.w3.org/1999/02/22-rdf-syntax-ns#"
   xmlns:svg="http://www.w3.org/2000/svg"
   xmlns="http://www.w3.org/2000/svg"
   xmlns:sodipodi="http://sodipodi.sourceforge.net/DTD/sodipodi-0.dtd"
   xmlns:inkscape="http://www.inkscape.org/namespaces/inkscape"
   version="1.1"
   x="0px"
   y="0px"
   viewBox="0 0 164.18813 284.39999"
   xml:space="preserve"
   id="svg312"
   sodipodi:docname="beerus.svg"
   width="164.18813"
   height="284.39999"
   inkscape:version="0.92.4 (5da689c313, 2019-01-14)"><metadata
   id="metadata318"><rdf:RDF><cc:Work
       rdf:about=""><dc:format>image/svg+xml</dc:format><dc:type
         rdf:resource="http://purl.org/dc/dcmitype/StillImage" /><dc:title></dc:title></cc:Work></rdf:RDF></metadata><defs
   id="defs316" /><sodipodi:namedview
   pagecolor="#ffffff"
   bordercolor="#666666"
   borderopacity="1"
   objecttolerance="10"
   gridtolerance="10"
   guidetolerance="10"
   inkscape:pageopacity="0"
   inkscape:pageshadow="2"
   inkscape:window-width="1366"
   inkscape:window-height="715"
   id="namedview314"
   showgrid="false"
   fit-margin-top="0"
   fit-margin-left="0"
   fit-margin-right="0"
   fit-margin-bottom="0"
   inkscape:zoom="0.78666667"
   inkscape:cx="82.749905"
   inkscape:cy="141.8"
   inkscape:window-x="-8"
   inkscape:window-y="22"
   inkscape:window-maximized="1"
   inkscape:current-layer="svg312" />
<style
   type="text/css"
   id="style2">
	.st0{fill:#FFFFFF;}
	.st1{fill:#E3BC39;}
	.st2{fill:#A96EC0;}
	.st3{fill:#320142;}
	.st4{fill:#7A3D9A;}
	.st5{fill:#0C0A0F;}
	.st6{fill:#226AD0;}
	.st7{fill:#FDFFFC;}
	.st8{fill:#7F5336;}
	.st9{fill:#000005;}
	.st10{opacity:0.15;fill:#FFFFFF;}
	.st11{fill:#0149AF;}
	.st12{fill:#9B7712;}
	.st13{fill:#FFDC78;}
	.st14{fill:#3D2417;}
	.st15{opacity:0.54;fill:#A96EC0;}
	.st16{fill:#FFCF48;}
	.st17{fill:#AEB3B7;}
	.st18{fill:#FFD04D;}
</style>
<g
   id="Слой_2"
   transform="translate(-67.250095,-7.4)">
</g>
<g
   id="Слой_1"
   transform="translate(-67.250095,-7.4)">
	<g
   id="g9">
		<path
   d="m 187.5,291.8 c -7.3,0 -14.3,-1.2 -20.7,-3.6 -0.6,-0.2 -1.8,-0.7 -2.9,-1.5 -1.8,-1.4 -3.1,-3.5 -3.6,-6 0,-0.2 -0.1,-0.4 -0.1,-0.5 -0.8,-0.7 -1.8,-1.7 -2.4,-3.2 -0.3,-0.8 -0.5,-1.7 -0.5,-2.7 0,-1.1 0.1,-2.1 0.5,-3.1 0.3,-1 0.9,-1.8 1.6,-2.6 l -0.1,-0.5 c -0.1,-0.8 -0.3,-2.6 0.6,-4.6 -0.3,-0.7 -0.5,-1.4 -0.8,-2.1 -4.2,-2.3 -8.3,-4.8 -12.2,-7.5 -0.9,-0.6 -1.8,-1.2 -2.7,-2 -0.6,0.5 -1.2,1 -1.8,1.4 -1.3,1.1 -2.8,2.3 -4.7,3.2 -1.3,0.6 -2.6,1.1 -3.9,1.3 -0.5,1.2 -1,2.5 -1.6,4 0.6,1.5 0.7,2.8 0.7,4 0,0.9 0,1.7 -0.1,2.6 0.5,1 0.6,1.9 0.6,2.3 0.1,0.6 0.2,1.6 0.1,2.7 -0.1,1.8 -0.7,3.5 -1.8,4.8 0,0.3 0,0.7 -0.1,1 -0.1,1 -0.3,2.2 -0.9,3.5 -1.1,2.4 -3.3,4 -6.3,4.9 -2.8,0.8 -5.6,1.1 -8.1,1.2 l -10.6,0.8 c -2.1,0.2 -4.2,0.3 -6.4,0.3 -1.8,0 -3.5,-0.1 -5,-0.3 -1.7,-0.3 -3.1,-1 -4.2,-2.1 -2.3,-2.5 -2.3,-6.2 -0.1,-9.1 3.1,-3.9 7.3,-7 12,-9 0.6,-1.5 1.6,-2.6 2.4,-3.4 0,-0.4 0.1,-0.8 0.1,-1.2 0.1,-0.9 0.5,-3.6 2.6,-5.8 0.9,-1 2.1,-1.8 3.4,-2.3 0,-0.3 0,-0.6 0,-0.8 -1.1,-0.7 -2.1,-1.6 -3,-2.6 0,0 0,-0.1 -0.1,-0.1 -2.2,-0.5 -3.7,-1.8 -4.7,-2.6 l -0.4,-0.3 c -0.5,-0.4 -1.1,-0.8 -1.7,-1.2 -0.7,-0.4 -1.4,-1 -2.2,-1.5 -2.5,-1.9 -4.1,-3.9 -5,-6.3 -0.5,-1.4 -0.7,-2.7 -0.8,-3.9 -0.2,-2.2 -0.3,-4.4 -0.3,-6.4 -1.2,-2.8 -1.4,-6.1 -0.5,-9.4 1.4,-5.6 3.7,-10.6 6.6,-15 3,-4.5 5.6,-8.6 7.9,-12.3 0.2,-0.3 0.7,-1.2 0.8,-1.6 0.1,-0.3 0.1,-0.9 0.1,-1.4 0,-1 0,-2.3 0.4,-3.8 0.6,-2.8 2.1,-5 3,-6.4 1.6,-2.4 3.3,-4.5 5,-6.7 1.3,-1.7 2.6,-3.3 3.8,-4.9 -0.3,-1.1 -0.3,-2.2 -0.1,-3.3 -0.2,-0.9 -0.3,-1.9 -0.1,-2.8 -0.1,-0.2 -0.3,-0.4 -0.4,-0.5 -0.8,0.8 -2.1,1.7 -3.8,2.2 -0.5,0.1 -1,0.2 -1.5,0.3 -1.1,0.8 -2.3,1.5 -3.3,2.3 l -0.2,0.2 c -0.9,0.6 -2.4,1.7 -4.4,3 -2.2,1.4 -3.5,2.3 -5.3,2.6 -0.6,0.1 -1.2,0.2 -1.8,0.2 -4,0 -7.1,-2.4 -8.9,-3.8 -1.9,-1.5 -3.6,-3.3 -4.9,-5.3 -0.9,-0.6 -1.7,-1.3 -2.4,-2.1 -1,-1.2 -1.6,-2.6 -1.9,-4.1 0,-0.2 -0.1,-0.3 -0.1,-0.5 -1,-0.6 -2,-1.4 -2.9,-2.4 -0.7,-0.8 -1.3,-1.6 -1.7,-2.6 -1,-0.2 -2,-0.5 -3,-1 -1.6,-0.9 -2.8,-2.1 -3.8,-3.8 -2,-3.4 -2.2,-7.7 -0.5,-11.3 0.7,-1.4 1.6,-2.6 2.7,-3.4 0.3,-0.9 0.7,-1.9 1.4,-2.9 1,-1.5 2.4,-2.6 3.9,-3.4 0,-1.2 0.2,-2.5 0.6,-3.6 1.2,-3.4 4.1,-6 7.9,-7 1.1,-0.3 2.2,-0.4 3.3,-0.4 4.5,0 9.3,2.5 12.3,6.3 2.4,3.1 3.3,6.7 3.9,10.5 0,0 0,0 0.1,0 0.6,-1.2 1.7,-2.2 3,-2.8 2.9,-1.2 5.9,-2.3 8.9,-3.1 0.2,-0.1 0.5,-0.1 0.7,-0.2 -1.4,-0.8 -2.8,-1.6 -4,-2.4 -1,-0.6 -2.3,-1.5 -3.5,-2.7 -1.5,-1.5 -2.4,-3.2 -3.1,-4.5 l -3.2,-5.9 c -1.1,-2.1 -2.6,-4.7 -3.1,-7.8 -0.4,-2.1 -0.4,-4 -0.2,-5.5 -0.3,-0.5 -0.6,-1 -0.9,-1.6 -0.2,-0.5 -0.4,-1 -0.6,-1.5 -0.1,-0.2 -0.2,-0.4 -0.2,-0.6 0,0 -0.1,-0.1 -0.1,-0.1 C 97.9,93.9 97.6,93.6 97.3,93.3 94.7,90.6 94,87.1 93.7,85.2 90.4,68.3 91.2,51.2 92,34.6 c 0.2,-3.6 0.3,-7.3 1.2,-11.2 1,-4.3 2.9,-8.5 5.4,-12.2 1.4,-2 3.6,-3.1 6,-3.1 2.4,0 4.9,1.1 7.6,3.2 1.9,1.5 3.8,3 5.6,4.6 2.3,1.9 4.7,3.9 6.9,6.3 2.3,2.4 4.2,5.1 5.8,7.4 5.8,8.2 9.1,13.3 11.9,19.8 2.2,5.2 3.9,10.7 4.9,16.4 1.1,0 1.9,0.2 3.1,0.5 l 1,0.2 c 0.7,-4.1 2.1,-8 3.4,-11.5 2.7,-7.1 6,-15.4 10.5,-23.4 4.7,-8.5 10.2,-15.5 16.3,-21 l 0.2,-0.2 c 1,-1 3.2,-3 6.3,-3 0.1,0 0.2,0 0.3,0 1.8,0.1 6.3,0.9 8.1,7.5 0.4,1.5 0.8,3 1.2,4.5 l 1.5,6.3 c 1.1,4.6 2.4,9.6 2.7,14.9 0.1,0.1 0.1,0.1 0.2,0.2 0.7,0.8 1.3,1.6 1.7,2.7 1,2.8 0.8,5.5 0.6,7.3 0,0.5 -0.1,1.5 -0.5,2.6 -0.4,1.1 -0.9,1.9 -1.5,2.6 -0.2,3.3 -0.5,6.5 -0.9,9.7 -0.7,6.9 -1.4,13.4 -0.7,19.7 l 0.1,0.5 c 0.1,1.2 0.3,2.7 0.2,4.3 -0.3,4.2 -2.4,8.2 -6.1,11.8 0.1,1.1 0,2.4 -0.4,3.6 -0.4,1.5 -1.1,2.7 -1.7,3.8 -3.6,5.9 -8.2,11.1 -13.7,15.4 -0.7,0.6 -1.5,1.2 -2.4,1.7 1.5,0.2 2.4,0.3 2.9,0.3 0.8,0.1 1.1,0.1 1.8,0.2 1.3,0.2 5,0.8 8.8,3.7 0.4,0.3 1.7,1.3 2.4,3 0.6,1.4 0.6,2.7 0.5,3.5 1.6,2.2 2.5,4.6 3.2,6.4 l 0.9,2.2 c 0.2,0.1 0.3,0.2 0.5,0.3 2.1,1.2 3,3.2 3.3,3.9 0.3,0.6 0.8,1.8 0.8,3.3 0,0.2 0,0.4 0,0.6 0.1,0.1 0.2,0.3 0.2,0.4 2.1,3.6 5,8.6 4.8,14.5 0,0.8 -0.1,3 -1.6,5.1 -1.1,1.5 -2.5,2.4 -3.2,2.7 -3.1,1.8 -6.4,3.3 -9.8,4.5 -0.8,1.1 -2,2 -3.4,2.5 -0.8,0.3 -1.6,0.5 -2.4,0.5 -0.2,0.3 -0.5,0.7 -0.8,1 0.4,1.3 0.8,2.5 1.1,3.7 0.8,3 1.6,6.1 2.3,9.1 0.6,2.4 1.3,5.1 1.5,8.1 0,0.3 0,0.6 0,0.9 0,0.5 0,1 0.1,1.2 0.1,0.3 0.4,0.9 0.6,1.3 1.5,2.9 3,5.9 4.6,8.8 0,-0.1 0,-0.2 0,-0.3 0.4,-3.7 1.2,-7.2 2.4,-10.5 0.6,-1.6 1.4,-3.6 2.8,-5.5 1.3,-1.7 2.8,-3 4,-4 1.7,-1.5 3.9,-3.3 6.6,-4.4 2.2,-1 4.8,-1.5 7.9,-1.6 0.3,0 0.6,0 0.8,0 1.7,0 3.1,0.2 4.4,0.6 2.7,0.9 4.9,2.8 6,5.2 0.9,2 0.7,3.7 0.3,4.8 -0.4,1.2 -1.3,3 -3.5,4.1 -2.1,1.1 -4.2,1.5 -5.9,1.8 -1,0.2 -1.9,0.4 -2.5,0.6 -1.3,0.5 -2.6,2 -3.4,3.9 -1,2.4 -1.2,5.3 -1.2,7.8 v 1.3 c -0.1,3.8 -0.1,8.1 -2.2,12.3 -2.3,4.5 -6.5,7.9 -12.3,9.9 -0.5,1.1 -1.2,2.1 -2,3.2 -1.2,1.5 -2.5,2.7 -3.6,3.7 l -0.4,0.4 c -0.9,0.8 -1.7,1.3 -2.3,1.6 -0.1,0.1 -0.3,0.1 -0.4,0.2 -1.9,1.4 -3.8,2.3 -5.6,2.8 -1.3,0.4 -2.5,0.6 -3.8,0.6 l 0.1,1.1 c 0.4,0.2 0.8,0.4 1.2,0.7 2,1.5 2.7,3.4 3,4.1 0.4,1 0.5,1.9 0.6,2.7 1.3,1 2.4,2.4 3,4.1 0.1,0.3 0.2,0.7 0.3,1 l 1.8,0.8 c 1.7,0.8 3.7,1.6 5.6,3 2.5,1.8 4.4,4 5.5,6.5 1.3,3.1 0.5,6.3 -1.9,8.3 -1.4,1.1 -2.9,1.4 -3.4,1.5 -3.5,1 -6.9,1.3 -10.3,1.3 z"
   id="path5"
   inkscape:connector-curvature="0" />
		
	</g>
	<g
   id="g15">
		<path
   d="m 187.5,286.8 c -6.7,0 -13.1,-1.1 -18.9,-3.3 -0.6,-0.2 -1.1,-0.4 -1.6,-0.8 -0.9,-0.7 -1.5,-1.7 -1.7,-3 -0.1,-0.7 -0.2,-1.5 -0.2,-2.5 -0.3,-0.1 -0.6,-0.3 -0.9,-0.5 -0.6,-0.3 -1.3,-0.8 -1.6,-1.7 -0.1,-0.3 -0.2,-0.6 -0.2,-1 0,-0.4 0,-0.8 0.2,-1.2 0.2,-0.6 0.7,-1.2 1.4,-1.6 l 0.2,-0.1 c 0.2,-0.1 0.4,-0.2 0.6,-0.3 l -0.4,-3.4 c -0.1,-0.5 -0.2,-1.3 0.2,-2 0.3,-0.5 0.7,-0.9 1,-1.1 0,0 0.1,-0.1 0.1,-0.1 -0.8,-1.9 -1.6,-3.9 -2.4,-6.4 -4.6,-2.5 -9.2,-5.3 -13.5,-8.2 -1.3,-0.9 -2.5,-1.7 -3.5,-2.9 -0.5,-0.6 -1,-1.3 -1.4,-2.2 -1.7,1.8 -3.6,3.3 -5.4,4.8 -1.2,0.9 -2.4,1.9 -3.8,2.6 -1.3,0.6 -2.5,1 -3.7,1 -0.4,0 -0.8,0 -1.2,-0.1 0,0 0,0 0,0 0,0 0,0 0,0 -1.6,3.4 -2.9,6.7 -3.9,9.7 0.4,0.3 0.7,0.6 0.9,1.1 0.3,0.7 0.3,1.4 0.3,2 0,1.3 -0.1,2.6 -0.2,4.1 0.2,0.1 0.3,0.3 0.5,0.5 0.3,0.4 0.3,0.8 0.4,1.2 0.1,0.5 0.2,1.1 0.1,1.7 -0.1,0.8 -0.3,1.5 -0.7,2 -0.3,0.3 -0.6,0.6 -0.9,0.8 -0.1,0 -0.1,0.1 -0.2,0.2 0,0 0,0 0,0.1 0,0.9 0,1.8 -0.1,2.7 0,0.5 -0.1,1.2 -0.4,1.8 -0.7,1.4 -2.2,2 -3.2,2.3 -2.3,0.7 -4.7,0.9 -7,1 l -10.6,0.8 c -2,0.2 -4,0.3 -6.1,0.3 -1.6,0 -3,-0.1 -4.3,-0.3 -0.3,0 -0.8,-0.1 -1.2,-0.6 -0.5,-0.5 -0.7,-1.5 0.2,-2.6 3.1,-3.9 7.6,-6.9 12.6,-8.4 -0.1,-0.2 -0.1,-0.4 -0.1,-0.7 0,-0.3 0,-0.5 0.1,-0.8 0.3,-1 1.1,-1.7 1.7,-2.2 0.3,-0.2 0.6,-0.5 1.1,-0.7 0,0 0.1,0 0.2,0 -0.1,-1 0,-2.1 0.1,-3.1 0.1,-0.9 0.4,-2.2 1.3,-3.1 0.7,-0.7 1.6,-1.2 2.8,-1.4 0.3,-0.1 1.1,-0.2 1.9,-0.2 0,-1.3 0,-2.7 0,-4 0,-1.4 0,-2.8 0,-4.2 -1.6,-0.4 -3.1,-1.3 -4.2,-2.6 -0.1,-0.1 -0.2,-0.3 -0.3,-0.4 -0.4,-0.5 -0.7,-0.9 -1.1,-1 -0.2,-0.1 -0.3,-0.1 -0.5,-0.1 -0.2,0 -0.3,0 -0.5,-0.1 -1.2,-0.2 -2.2,-1 -3,-1.7 l -0.4,-0.3 c -0.6,-0.5 -1.3,-0.9 -2,-1.4 -0.6,-0.4 -1.3,-0.9 -1.9,-1.4 -1.7,-1.3 -2.8,-2.6 -3.3,-4.1 -0.3,-0.9 -0.5,-1.8 -0.6,-2.7 -0.3,-2.3 -0.3,-4.9 -0.3,-7 -1.1,-1.9 -1.4,-4.4 -0.7,-7 1.3,-5 3.3,-9.5 5.9,-13.4 3.1,-4.6 5.7,-8.7 8.1,-12.5 0.6,-0.9 1.2,-2 1.4,-3.1 0.2,-0.8 0.2,-1.6 0.2,-2.4 0,-0.9 0,-1.8 0.2,-2.8 0.4,-1.7 1.3,-3.1 2.3,-4.7 1.5,-2.2 3.2,-4.3 4.8,-6.4 1.7,-2.2 3.5,-4.5 5.1,-6.9 0.5,-0.7 0.5,-1 0.4,-1 0,-0.1 -0.1,-0.2 -0.2,-0.3 -0.1,-0.2 -0.3,-0.3 -0.4,-0.5 -0.5,-0.9 -0.4,-2.1 0.3,-2.8 0,0 0,0 0,0 -0.1,-0.1 -0.1,-0.1 -0.2,-0.2 -0.5,-0.5 -0.6,-1.3 -0.4,-2 0.1,-0.5 0.5,-1 0.9,-1.3 -0.4,-0.4 -0.8,-0.9 -1.1,-1.3 -1.7,-2.1 -3.4,-4.3 -4.8,-6.7 -0.1,-0.2 -0.2,-0.4 -0.3,-0.5 -0.7,0.4 -1.3,0.9 -1.9,1.4 0.1,0.3 0.1,0.7 0.1,1.1 0,0.3 -0.1,0.8 -0.4,1.3 -0.2,0.3 -0.4,0.6 -0.6,0.8 -0.7,0.6 -1.3,1.3 -2.3,1.5 -0.4,0.1 -0.7,0.2 -1.1,0.2 -0.2,0 -0.4,0 -0.5,0 -1.6,1 -3.2,2.1 -4.8,3.2 l -0.2,0.2 c -0.9,0.6 -2.3,1.6 -4.2,2.9 -1.8,1.1 -2.6,1.7 -3.4,1.9 -0.3,0.1 -0.6,0.1 -0.9,0.1 -2.3,0 -4.3,-1.5 -5.8,-2.7 -1.8,-1.4 -3.3,-3.1 -4.5,-5.2 -0.8,-0.3 -1.5,-0.8 -2,-1.4 -0.4,-0.5 -0.7,-1.1 -0.8,-1.8 -0.1,-0.4 -0.2,-1.1 0.3,-1.7 0.1,-0.1 0.1,-0.1 0.2,-0.2 0,-0.2 -0.1,-0.8 -0.1,-0.9 -1.1,-0.2 -3,-0.7 -4.6,-2.5 -1,-1.1 -1.6,-2.6 -1.7,-4.4 -0.7,0.2 -1.4,0.3 -2,0.3 -0.8,0 -1.6,-0.2 -2.3,-0.5 -0.7,-0.4 -1.4,-1.1 -1.9,-1.9 -1.2,-2 -1.3,-4.5 -0.3,-6.6 0.3,-0.7 0.8,-1.3 1.3,-1.6 0.4,-0.3 0.8,-0.5 1.2,-0.6 0.2,-1.1 0.5,-2.4 1.2,-3.4 0.8,-1.2 2.2,-2 3.7,-2 0.1,-0.4 0.3,-0.8 0.6,-1.2 0.3,-0.4 0.6,-0.7 0.9,-0.9 -0.3,-1 -0.6,-2.4 -0.1,-4 0.9,-2.5 3.2,-3.5 4.5,-3.9 0.6,-0.2 1.3,-0.3 2,-0.3 3.4,0 6.7,2.2 8.4,4.4 2.1,2.7 2.6,6.2 3.2,10.6 0,0.3 0.1,0.6 0.1,0.9 0.9,0.2 1.9,0.5 2.8,0.7 1.6,0.4 2.1,0.6 2.7,0.9 0.6,0.3 1.1,0.6 1.6,0.9 0.2,-0.3 0.5,-0.6 0.8,-0.9 0.5,-0.5 1.1,-0.9 1.8,-1.2 l -0.7,-1.2 c -0.1,-0.2 -0.2,-0.5 -0.1,-0.8 0.1,-0.3 0.3,-0.5 0.6,-0.6 2.7,-1.1 5.5,-2.1 8.3,-2.9 3.3,-0.9 6,-1.4 8,-1.4 2.1,0 3.4,0.5 3.8,1.5 0.3,0.6 0.5,1 1,1.7 0.6,-0.2 1.2,-0.5 1.6,-1 l -0.6,-0.3 c -0.2,-0.1 -0.7,-0.3 -1,-0.8 -0.2,-0.4 -0.2,-0.8 -0.2,-1 l 0.1,-2.8 c 0,-0.4 0,-0.8 0.2,-1.3 0.2,-0.7 0.6,-1.3 1.1,-1.6 -0.2,-0.1 -0.5,-0.2 -0.7,-0.3 -1,0.3 -2,0.4 -3.1,0.4 -1.6,0 -3.3,-0.3 -5.1,-0.9 -2.6,-0.9 -5,-2.4 -7.3,-3.8 -0.9,-0.6 -1.8,-1.2 -2.7,-2 -1,-1 -1.7,-2.3 -2.3,-3.4 l -3.2,-5.9 c -1,-1.9 -2.2,-4 -2.6,-6.3 -0.5,-2.6 -0.3,-4.7 0.4,-6.1 -0.8,-0.4 -1.5,-1.2 -2,-2.2 -0.2,-0.4 -0.3,-0.8 -0.5,-1.1 -0.3,-0.7 -0.5,-1.4 -1,-1.9 -0.2,-0.2 -0.4,-0.4 -0.7,-0.6 -0.2,-0.2 -0.4,-0.4 -0.6,-0.6 -1.5,-1.5 -2,-3.6 -2.3,-5.6 -3.1,-16.4 -2.4,-33.2 -1.6,-49.4 0.2,-3.4 0.3,-6.9 1.1,-10.3 0.8,-3.7 2.5,-7.3 4.6,-10.4 0.5,-0.6 1.1,-1 2,-1 1.5,0 3.2,1.1 4.4,2.1 1.9,1.5 3.7,3 5.5,4.5 2.2,1.9 4.4,3.7 6.4,5.9 2,2.2 3.8,4.6 5.4,6.9 6.4,8.9 9,13.3 11.4,18.8 2.6,6.1 4.4,12.7 5.2,19.5 0.3,0.1 0.5,0.2 0.8,0.3 0.1,0 0.3,0 0.4,0 0.3,0 0.6,-0.1 1,-0.1 0.5,-0.1 1,-0.2 1.8,-0.2 0.6,0 1,0.1 2.3,0.4 l 4.2,1 c 0.5,-0.8 1.3,-1.3 2.3,-1.5 0.1,0 0.1,0 0.2,-0.1 0.2,-4.7 2,-9.5 3.5,-13.8 2.6,-6.9 5.8,-15 10.2,-22.7 4.5,-8 9.6,-14.6 15.3,-19.8 l 0.3,-0.3 c 0.7,-0.7 1.7,-1.6 2.9,-1.6 1.2,0 2.8,0.7 3.6,3.8 0.4,1.4 0.8,2.9 1.1,4.3 l 1.5,6.3 c 1.3,5.4 2.7,10.9 2.7,16.6 0.5,0.1 1,0.3 1.5,0.7 0.3,0.3 0.5,0.7 0.6,1 0.6,1.7 0.5,3.5 0.3,5.1 0,0.4 -0.1,0.9 -0.3,1.4 -0.3,0.9 -1,1.6 -1.6,2.1 -0.2,3.8 -0.6,7.6 -0.9,11.3 -0.7,6.8 -1.4,13.9 -0.7,20.7 l 0.1,0.6 c 0.1,1.1 0.2,2.2 0.1,3.4 -0.3,3.5 -2.4,6.9 -6.4,10.1 0.3,1.4 0.5,2.9 0.1,4.4 -0.3,0.9 -0.7,1.7 -1.2,2.5 -3.3,5.4 -7.5,10.1 -12.5,14 -1.9,1.5 -4.3,3.1 -7,3.4 -0.4,0.1 -0.9,0.1 -1.4,0.1 -0.4,0 -0.8,0 -1.1,0 h -1 c -0.6,0.6 -1.4,1.1 -2.3,1.4 -0.1,0.6 -0.4,1.1 -0.8,1.5 0.1,0.5 0.1,1 0,1.5 -0.1,0.9 -0.7,1.8 -1.6,2.5 0.4,0.8 0.9,1.6 1.6,2.1 1,-1 2.2,-1.7 3.5,-2 0.5,-0.1 0.9,-0.2 1.2,-0.2 0.9,-0.1 1.9,-0.2 2.9,-0.2 2,0 3.8,0.2 4.6,0.3 2.5,0.3 3.7,0.4 4.5,0.5 0.8,0.1 1,0.1 1.7,0.2 0.5,0 3.4,0.4 6.5,2.7 0.3,0.2 0.6,0.5 0.8,1 0.2,0.6 0.1,1.1 0.1,1.4 -0.1,0.4 -0.2,0.9 -0.4,1.4 1.9,2 2.9,4.4 4,7.1 l 1.8,4.5 c 0.1,0 0.3,0 0.4,0 0.4,0 0.8,0.1 1.3,0.3 0.7,0.4 1,1.1 1.2,1.6 0.2,0.4 0.4,0.9 0.4,1.4 0,0.4 -0.1,0.8 -0.3,1.1 0.1,0.3 0.3,0.6 0.4,0.9 0.2,0.5 0.5,1 0.7,1.4 1.9,3.3 4.3,7.3 4.1,11.8 0,0.7 -0.1,1.6 -0.7,2.4 -0.4,0.6 -1,1 -1.6,1.3 -3.4,1.9 -7,3.5 -10.7,4.6 -0.1,0.1 -0.2,0.2 -0.4,0.4 0,0 0,0.1 0,0.1 -0.1,0.7 -0.6,1.3 -1.4,1.6 -0.5,0.2 -1,0.3 -1.5,0.3 -0.4,0 -0.7,0 -1,-0.1 -0.4,0.2 -0.8,0.5 -1.2,0.7 l -0.7,0.5 c 0,0.2 0,0.4 -0.1,0.7 -0.2,0.5 -0.5,0.8 -1,1.1 -0.6,0.3 -1.3,0.5 -2.2,0.5 -0.2,0 -0.4,0 -0.6,0 1.7,2.3 2.4,5 3.1,7.6 0.8,3 1.6,6 2.3,9 0.6,2.3 1.2,4.7 1.3,7.1 0,0.3 0,0.5 0,0.8 0,0.8 0.1,1.5 0.2,2.2 0.2,0.8 0.6,1.7 1,2.5 1.6,3.1 3.2,6.3 4.9,9.4 l 0.2,0.4 c 1.6,3 3.3,6 3.9,9.4 1.9,-0.8 3.2,-2.9 3.8,-4.6 0.7,-1.9 0.8,-3.9 1,-6 0.1,-0.6 0.1,-1.2 0.2,-1.8 0.4,-3.3 1.1,-6.5 2.1,-9.3 0.4,-1.2 1.1,-2.8 2.1,-4.2 0.9,-1.2 2.1,-2.2 3.2,-3.2 1.6,-1.4 3.3,-2.8 5.3,-3.7 1.7,-0.7 3.6,-1.1 6.1,-1.2 0.2,0 0.4,0 0.7,0 1.1,0 2,0.1 2.8,0.4 1.4,0.5 2.5,1.4 3,2.5 0.1,0.2 0.3,0.7 0.1,1.3 -0.2,0.7 -0.8,1 -1.1,1.1 -1.5,0.8 -3.1,1.1 -4.6,1.4 -1.2,0.2 -2.4,0.5 -3.4,0.9 -2.6,1.1 -4.8,3.5 -6.1,6.6 -1.3,3.2 -1.5,6.6 -1.6,9.5 0,0.4 0,0.9 0,1.3 0,3.4 -0.1,6.9 -1.7,10.1 -2.4,4.8 -7.5,7 -11.7,8.1 -0.3,1.3 -1,2.7 -2.1,4.2 -0.9,1.2 -2,2.1 -3,3.1 l -0.4,0.4 c -0.5,0.4 -0.9,0.7 -1.4,1 -0.3,0.1 -0.5,0.3 -0.8,0.5 -1.4,1 -2.8,1.7 -4.1,2.1 -0.8,0.2 -1.7,0.4 -2.5,0.4 v 0 c -0.8,0 -1.6,-0.1 -2.4,-0.4 0,0 0,0 0,0 0,0 0,0 -0.1,0.1 -0.9,1.2 -1.8,1.9 -2.7,2.2 l 0.6,8.1 c 0.4,0 0.7,0 1.1,0.1 0.6,0.1 1.2,0.2 1.8,0.7 0.8,0.6 1.1,1.5 1.3,1.9 0.3,0.9 0.4,1.6 0.4,2.3 0,0.5 0.1,0.9 0.1,1.4 0,0.2 0,0.4 0.1,0.6 0.2,0 0.4,0 0.7,0.1 1.1,0.2 1.9,1.1 2.4,2.4 0.1,0.4 0.3,0.9 0.2,1.4 0,0.4 -0.1,0.7 -0.3,1 l 4.8,2.1 c 1.6,0.7 3.3,1.4 4.8,2.5 1.7,1.2 3,2.7 3.7,4.3 0.4,1 0.3,1.9 -0.4,2.5 -0.4,0.3 -0.8,0.4 -1.1,0.4 -3.2,0.3 -6.4,0.6 -9.5,0.6 z"
   id="path11"
   inkscape:connector-curvature="0" />
		<path
   d="m 188.2,13.8 c 0,0 0,0 0,0 1.5,0.1 2.3,1.7 2.7,3.1 0.4,1.4 0.8,2.9 1.1,4.3 0.5,2.1 1,4.2 1.5,6.3 1.4,5.7 2.8,11.4 2.7,17.3 0.6,0 1.3,0 1.7,0.5 0.2,0.2 0.3,0.4 0.4,0.7 0.6,1.5 0.4,3.1 0.3,4.7 0,0.4 -0.1,0.8 -0.2,1.1 -0.3,0.8 -1,1.4 -1.7,2 -0.4,10.8 -2.8,21.8 -1.7,32.5 0.1,1.2 0.3,2.5 0.2,3.7 -0.3,4 -3.3,7.3 -6.5,9.8 0.3,1.4 0.6,3.1 0.2,4.5 -0.2,0.8 -0.6,1.5 -1.1,2.2 -3.2,5.3 -7.4,10 -12.2,13.8 -1.9,1.5 -4.1,2.9 -6.5,3.2 -0.4,0.1 -0.9,0.1 -1.3,0.1 -0.4,0 -0.7,0 -1.1,0 -0.5,0 -1,0 -1.5,0 -0.7,0.9 -1.7,1.5 -2.8,1.7 0.2,0.8 -0.2,1.5 -0.9,1.8 0.2,0.6 0.2,1.3 0.1,1.8 -0.1,1 -1,1.8 -1.8,2.3 0.5,1.5 1.5,3 3,3.8 0.7,-0.8 1.9,-1.9 3.6,-2.4 0.4,-0.1 0.8,-0.2 1,-0.2 0.9,-0.1 1.9,-0.2 2.8,-0.2 2,0 3.7,0.2 4.5,0.3 5.3,0.6 4.8,0.5 6.1,0.7 0,0 2.9,0.2 6,2.5 0.2,0.1 0.4,0.3 0.5,0.5 0.1,0.3 0.1,0.5 0,0.8 -0.1,0.4 -0.3,1.1 -0.6,1.9 2.1,2 3.2,4.5 4.2,7.2 0.7,1.7 1.4,3.4 2,5.1 0.3,0 0.7,0 1,0.1 0.3,0 0.6,0.1 0.9,0.2 0.4,0.2 0.6,0.7 0.8,1.1 0.1,0.3 0.3,0.7 0.3,1 0,0.4 -0.1,0.8 -0.5,0.9 0.5,0.9 1,2.1 1.5,2.9 2,3.5 4.1,7.2 4,11.2 0,0.7 -0.1,1.4 -0.5,1.9 -0.3,0.5 -0.8,0.8 -1.3,1 -3.4,1.9 -7,3.5 -10.7,4.6 -0.1,0.2 -0.3,0.4 -0.5,0.5 -0.1,0 -0.2,0.1 -0.2,0.1 -0.1,0.1 -0.1,0.4 -0.1,0.6 0,0.4 -0.4,0.6 -0.8,0.8 -0.4,0.1 -0.8,0.2 -1.2,0.2 -0.4,0 -0.8,-0.1 -1.2,-0.2 -0.7,0.4 -1.6,1 -2.3,1.4 -0.2,0.1 -0.3,0.2 -0.5,0.3 0,0 0,0.1 0,0.1 0,0.3 0,0.6 -0.1,0.8 -0.1,0.2 -0.3,0.4 -0.5,0.5 -0.5,0.3 -1.1,0.3 -1.7,0.3 -0.3,0 -0.6,0 -0.9,0 -0.3,0.3 -0.7,0.6 -1.1,0.9 2,2.2 2.8,5.1 3.5,8 0.8,3 1.6,6 2.3,9 0.6,2.3 1.2,4.6 1.3,6.9 0.1,1 0,2.1 0.3,3.1 0.2,0.9 0.6,1.8 1.1,2.7 1.6,3.2 3.2,6.3 4.9,9.4 1.8,3.3 3.8,6.8 4.2,10.6 2.7,-0.5 4.7,-3 5.6,-5.5 0.9,-2.6 1,-5.3 1.3,-8 0.3,-3.1 1,-6.2 2,-9.1 0.5,-1.4 1.1,-2.7 2,-3.9 0.9,-1.1 2,-2.1 3.1,-3 1.6,-1.3 3.2,-2.7 5.1,-3.5 1.8,-0.8 3.7,-1 5.7,-1.1 0.2,0 0.4,0 0.6,0 0.9,0 1.7,0.1 2.5,0.3 1,0.3 2,1 2.4,2 0.1,0.2 0.2,0.4 0.1,0.6 -0.1,0.3 -0.3,0.4 -0.6,0.5 -2.5,1.3 -5.4,1.2 -8,2.2 -3.1,1.3 -5.4,4.1 -6.7,7.2 -1.3,3.1 -1.6,6.5 -1.6,9.9 -0.1,3.7 0.1,7.6 -1.6,11 -2.2,4.3 -7,6.6 -11.7,7.7 -0.1,1.6 -1,3.1 -2,4.4 -1,1.2 -2.2,2.3 -3.3,3.4 -0.6,0.6 -1.4,0.9 -2.1,1.4 -1.2,0.8 -2.4,1.6 -3.8,1.9 -0.7,0.2 -1.5,0.3 -2.2,0.3 -0.7,0 -1.4,-0.1 -2,-0.3 -0.2,-0.1 -0.3,-0.1 -0.5,-0.1 0,0 -0.1,0 -0.1,0 -0.3,0 -0.5,0.3 -0.6,0.5 -0.7,0.9 -1.8,2 -3,2 l 0.7,10 c 0.3,0 0.5,-0.1 0.8,-0.1 0.4,0 0.8,0 1.1,0.1 0.5,0.1 1,0.2 1.4,0.5 0.6,0.4 0.8,1 1,1.5 0.3,0.7 0.3,1.2 0.3,2 0,1 0.2,2 0.2,3 0.2,0 0.4,0 0.7,0 0.2,0 0.5,0 0.7,0.1 0.8,0.2 1.4,1 1.7,1.8 0.1,0.3 0.2,0.6 0.2,1 -0.1,0.7 -0.4,1.1 -0.9,1.5 2,0.9 4,1.8 6,2.7 1.6,0.7 3.2,1.4 4.6,2.4 1.4,1 2.7,2.3 3.3,3.9 0.2,0.4 0.3,1 -0.1,1.3 -0.2,0.1 -0.4,0.2 -0.6,0.2 -3.1,0.5 -6.2,0.7 -9.3,0.7 -6.3,0 -12.7,-1 -18.6,-3.2 -0.5,-0.2 -1,-0.4 -1.4,-0.7 -0.7,-0.6 -1.2,-1.5 -1.4,-2.4 -0.2,-0.9 -0.2,-2 -0.2,-2.9 -0.5,-0.2 -1,-0.4 -1.5,-0.7 -0.5,-0.3 -1,-0.6 -1.2,-1.2 -0.1,-0.2 -0.1,-0.4 -0.1,-0.7 0,-0.3 0,-0.6 0.1,-0.8 0.2,-0.5 0.5,-0.8 1,-1.1 0.4,-0.2 0.9,-0.6 1.4,-0.7 -0.2,-1.4 -0.3,-2.7 -0.5,-4.1 -0.1,-0.5 -0.1,-1 0.1,-1.4 0.3,-0.6 1.1,-0.8 1.4,-1.4 -1.1,-2.4 -1.9,-4.8 -2.7,-7.3 -4.7,-2.5 -9.3,-5.3 -13.8,-8.3 -1.2,-0.8 -2.4,-1.6 -3.3,-2.7 -0.9,-1.1 -1.7,-2.3 -1.6,-3.7 -1.9,2.4 -4.3,4.3 -6.6,6.2 -1.2,0.9 -2.3,1.9 -3.6,2.5 -1,0.5 -2.2,0.8 -3.3,0.8 -0.3,0 -0.7,0 -1,-0.1 -0.2,0 -0.3,-0.1 -0.5,-0.1 -0.1,0 -0.2,0 -0.3,0 -0.2,0.1 -0.5,0.4 -0.4,0.6 -1.7,3.5 -3,7 -4.2,10.7 0,0 0,0 0,0 0.5,0 1,0.4 1.2,0.9 0.2,0.5 0.2,1.1 0.2,1.6 0,1.6 -0.1,3.2 -0.3,4.8 0,0 0.1,0 0.1,0 0.2,0 0.4,0.2 0.6,0.4 0.1,0.2 0.2,0.5 0.2,0.8 0.1,0.5 0.1,1 0.1,1.5 0,0.5 -0.2,1 -0.5,1.4 -0.2,0.2 -0.4,0.4 -0.7,0.6 -0.2,0.2 -0.4,0.4 -0.6,0.6 0.1,1 0,2 0,3 0,0.5 -0.1,1 -0.3,1.4 -0.5,1 -1.6,1.5 -2.6,1.8 -2.2,0.7 -4.5,0.8 -6.8,1 -3.5,0.3 -7.1,0.5 -10.6,0.8 -2,0.2 -4,0.3 -6,0.3 -1.4,0 -2.8,-0.1 -4.2,-0.3 -0.2,0 -0.5,-0.1 -0.6,-0.2 -0.3,-0.4 0,-0.9 0.3,-1.3 3.3,-4.1 8.1,-7.1 13.2,-8.4 -0.3,-0.4 -0.6,-0.8 -0.6,-1.3 0,-0.2 0,-0.3 0.1,-0.5 0.2,-0.7 0.8,-1.3 1.4,-1.8 0.2,-0.2 0.5,-0.4 0.7,-0.5 0.1,0 0.3,-0.1 0.4,-0.1 0.2,0 0.4,0 0.5,0.1 -0.2,-1.3 -0.2,-2.7 0,-4 0.1,-0.9 0.4,-1.9 1,-2.6 0.6,-0.6 1.4,-0.9 2.2,-1.1 0.7,-0.1 1.6,-0.2 2.4,-0.2 0.1,0 0.2,0 0.4,0 0,-3.3 0.1,-6.6 0,-10 -1.7,-0.3 -3.3,-1.1 -4.4,-2.4 -0.6,-0.7 -1.1,-1.5 -1.9,-1.7 -0.4,-0.1 -0.7,-0.1 -1.1,-0.2 -1.2,-0.2 -2.1,-1.1 -3,-1.8 -1.3,-1 -2.7,-1.8 -3.9,-2.7 -1.3,-1 -2.4,-2.2 -3,-3.7 -0.3,-0.8 -0.4,-1.6 -0.5,-2.5 -0.3,-2.3 -0.3,-4.9 -0.2,-7.2 -1.2,-1.9 -1.3,-4.3 -0.7,-6.5 1.6,-6.1 3.9,-10.3 5.8,-13.1 2.8,-4.1 5.5,-8.3 8.1,-12.6 0.7,-1.1 1.3,-2.2 1.6,-3.4 0.4,-1.7 0.1,-3.5 0.4,-5.2 0.3,-1.6 1.3,-3 2.2,-4.3 3.1,-4.6 6.9,-8.6 9.9,-13.2 0.4,-0.6 0.8,-1.4 0.5,-2 -0.1,-0.3 -0.4,-0.6 -0.6,-0.9 -0.3,-0.5 -0.2,-1.2 0.2,-1.6 0.2,-0.2 0.5,-0.4 0.5,-0.7 0,-0.4 -0.4,-0.6 -0.6,-0.9 -0.5,-0.6 -0.2,-1.6 0.5,-1.9 0.2,-0.1 0.4,-0.1 0.5,-0.2 0.2,-0.1 0.4,-0.4 0.2,-0.5 -0.7,-0.5 -1.3,-1.3 -1.9,-2 -1.7,-2.1 -3.4,-4.3 -4.7,-6.6 -0.2,-0.3 -0.3,-0.6 -0.6,-0.8 -0.2,-0.1 -0.4,-0.2 -0.6,-0.2 -0.1,0 -0.3,0 -0.4,0.1 -1,0.6 -1.8,1.2 -2.7,2 0.1,0.2 0.3,0.7 0.3,1.3 0,0.1 -0.1,0.5 -0.3,0.9 -0.1,0.2 -0.3,0.4 -0.5,0.6 -0.6,0.6 -1.1,1.1 -1.9,1.3 -0.2,0.1 -0.5,0.1 -0.8,0.1 -0.2,0 -0.5,0 -0.8,-0.1 -2.2,1.4 -3.9,2.6 -5.1,3.5 -0.8,0.6 -2.3,1.7 -4.4,3 -1.6,1.1 -2.5,1.6 -3.1,1.7 -0.2,0 -0.5,0.1 -0.7,0.1 -2,0 -3.7,-1.4 -5.2,-2.5 -1.2,-0.9 -2.9,-2.5 -4.4,-5.2 -0.5,-0.1 -1.3,-0.5 -1.9,-1.3 -0.2,-0.3 -0.5,-0.7 -0.6,-1.3 -0.1,-0.3 -0.1,-0.6 0.1,-0.9 0.2,-0.2 0.4,-0.2 0.5,-0.3 -0.1,-0.8 -0.1,-1.6 -0.3,-2.4 -0.4,0 -2.9,-0.1 -4.7,-2.2 -1.2,-1.3 -1.6,-3.3 -1.4,-5 -1,0.3 -2,0.6 -3,0.6 -0.6,0 -1.2,-0.1 -1.8,-0.4 -0.6,-0.4 -1.1,-0.9 -1.5,-1.6 -1,-1.7 -1.1,-3.9 -0.3,-5.7 0.2,-0.5 0.5,-0.9 0.9,-1.2 0.3,-0.2 0.8,-0.5 1.2,-0.5 0.1,0 0.3,0 0.4,0.1 0.1,-1.4 0.4,-2.8 1.1,-3.9 0.6,-1 1.8,-1.6 3,-1.6 0.2,0 0.4,0 0.6,0.1 0,-0.3 0.1,-1 0.6,-1.7 0.5,-0.7 1.1,-0.9 1.4,-1 -0.2,-0.4 -1.1,-2.2 -0.4,-4.1 0.8,-2.4 3.4,-3.1 3.9,-3.2 0.6,-0.2 1.1,-0.2 1.7,-0.2 2.9,0 5.9,1.9 7.6,4 1.9,2.5 2.4,5.8 3,10.1 0.1,0.6 0.2,1.2 0.2,1.5 1.4,0.3 2.6,0.6 3.5,0.9 1.5,0.4 2,0.6 2.5,0.8 1,0.5 1.8,1 2.3,1.5 0.3,-0.4 0.7,-1 1.3,-1.6 0.9,-0.9 1.9,-1.3 2.5,-1.5 -0.4,-0.7 -0.8,-1.5 -1.3,-2.2 3.2,-1.4 6.1,-2.3 8.2,-2.8 3.5,-1 6.1,-1.3 7.8,-1.3 1.8,0 2.7,0.4 2.9,0.9 0.3,0.7 0.7,1.2 1.3,2.2 0,0 0.1,0.1 0.2,0.2 0,0 0.1,0 0.1,0 0.1,0 0.1,0 0.2,0 1.4,-0.2 2.6,-1.1 3.2,-2.4 -0.6,-0.3 -1.1,-0.5 -1.7,-0.8 -0.2,-0.1 -0.4,-0.2 -0.5,-0.4 -0.1,-0.2 -0.1,-0.3 -0.1,-0.5 0,-0.9 0.1,-1.9 0.1,-2.8 0,-0.3 0,-0.7 0.1,-1 0.2,-0.8 0.8,-1.3 1.5,-1.3 0.1,0 0.2,0 0.3,0 -0.1,-0.2 0.1,-0.5 0.2,-0.8 -0.7,-0.3 -1.7,-0.9 -2.5,-1.3 -1,0.3 -2.1,0.5 -3.2,0.5 -1.6,0 -3.2,-0.3 -4.7,-0.9 -2.5,-0.9 -4.8,-2.3 -7.1,-3.7 -0.9,-0.5 -1.8,-1.1 -2.5,-1.8 -0.9,-0.9 -1.5,-2 -2.1,-3.1 -1.1,-2 -2.2,-3.9 -3.2,-5.9 -1,-1.9 -2.1,-3.8 -2.5,-6 -0.4,-2.1 -0.5,-5 1,-6.5 0,0 0,0 -0.1,0 -1.2,0 -2.1,-1 -2.6,-2.1 -0.5,-1.1 -0.8,-2.3 -1.6,-3.2 -0.4,-0.5 -0.9,-0.8 -1.3,-1.3 C 100.2,87.9 99.8,86 99.4,84.1 96.3,67.9 97,51.3 97.8,34.9 c 0.2,-3.4 0.3,-6.8 1.1,-10.1 0.8,-3.6 2.4,-7 4.5,-10.1 0.3,-0.4 0.7,-0.6 1.1,-0.6 1.2,0 2.8,1.1 3.8,1.9 1.9,1.5 3.7,3 5.5,4.5 2.2,1.8 4.4,3.7 6.3,5.8 2,2.1 3.7,4.4 5.3,6.8 6.1,8.5 8.9,13 11.3,18.7 1.9,4.5 4.2,11.1 5.2,19.7 0.3,0.2 0.8,0.5 1.5,0.6 0.2,0 0.4,0.1 0.6,0.1 0.9,0 1.5,-0.4 2.7,-0.4 0,0 0,0 0,0 0.5,0 0.8,0 2,0.3 1.6,0.4 3.3,0.8 4.9,1.2 0.5,-1 1.1,-1.4 2.1,-1.7 0.4,-0.1 0.7,-0.3 0.9,-0.4 0.1,-4.7 1.9,-9.7 3.5,-14.1 2.9,-7.7 6.1,-15.4 10.1,-22.6 4,-7.2 9,-14 15.1,-19.5 1,-0.2 2,-1.2 2.9,-1.2 m 0,-2 c 0,0 0,0 0,0 -1.6,0 -2.8,1.1 -3.6,1.9 -0.1,0.1 -0.2,0.2 -0.3,0.2 -5.8,5.2 -11,12 -15.5,20 -4.4,7.8 -7.6,16 -10.3,22.9 -1.5,4.1 -3.2,8.8 -3.6,13.4 -0.8,0.3 -1.4,0.7 -1.9,1.2 l -0.9,-0.2 -2.7,-0.7 c -1.2,-0.3 -1.8,-0.4 -2.5,-0.4 -0.9,0 -1.5,0.1 -2,0.2 -0.3,0.1 -0.6,0.1 -0.8,0.1 -0.1,0 -0.2,0 -0.2,0 0,0 0,0 0,0 -0.9,-6.7 -2.6,-13.2 -5.2,-19.2 -2.4,-5.6 -5.1,-10 -11.5,-19 -1.6,-2.3 -3.4,-4.7 -5.5,-7 -2,-2.2 -4.2,-4.1 -6.5,-5.9 -1.8,-1.5 -3.7,-3 -5.6,-4.5 -1.3,-1.1 -3.3,-2.3 -5.1,-2.3 -1.1,0 -2.1,0.5 -2.8,1.4 -2.3,3.2 -3.9,6.9 -4.8,10.8 -0.8,3.5 -1,7 -1.1,10.5 -0.7,16.3 -1.5,33.2 1.6,49.7 0.4,2 0.9,4.3 2.6,6.1 0.2,0.2 0.5,0.5 0.7,0.7 0.2,0.2 0.4,0.4 0.6,0.5 0.3,0.4 0.6,1 0.8,1.6 0.2,0.4 0.3,0.8 0.5,1.2 0.4,0.9 1,1.6 1.6,2.2 -0.5,1.6 -0.6,3.6 -0.1,5.9 0.4,2.5 1.6,4.7 2.7,6.6 l 1.6,2.9 1.6,2.9 c 0.6,1.2 1.4,2.5 2.5,3.6 0.9,0.9 1.9,1.5 2.8,2.1 2.3,1.5 4.7,3 7.5,3.9 1.8,0.6 3.6,1 5.4,1 0.6,0 1.2,0 1.8,-0.1 0,0.1 -0.1,0.2 -0.1,0.4 -0.2,0.6 -0.2,1.2 -0.2,1.6 v 1.4 1.2 c -0.8,-0.6 -2.1,-0.9 -3.7,-0.9 -2.1,0 -4.9,0.5 -8.3,1.4 -2.8,0.8 -5.7,1.8 -8.4,2.9 -0.5,0.2 -0.9,0.7 -1.1,1.2 -0.2,0.5 -0.1,1.1 0.2,1.6 l 0.2,0.4 c -0.4,0.3 -0.7,0.5 -1.1,0.9 -0.1,0.1 -0.2,0.2 -0.3,0.3 -0.3,-0.2 -0.7,-0.4 -1,-0.5 -0.6,-0.3 -1.2,-0.5 -2.8,-1 -0.7,-0.2 -1.4,-0.4 -2.2,-0.6 0,-0.1 0,-0.1 0,-0.2 -0.6,-4.5 -1.2,-8.1 -3.4,-11.1 -1.9,-2.4 -5.4,-4.8 -9.1,-4.8 -0.8,0 -1.5,0.1 -2.2,0.3 -2.6,0.7 -4.5,2.4 -5.2,4.5 -0.5,1.5 -0.4,2.9 -0.1,4 -0.2,0.2 -0.4,0.4 -0.6,0.6 -0.2,0.3 -0.4,0.6 -0.5,0.9 -1.5,0.3 -2.9,1.1 -3.8,2.4 -0.7,1 -1,2.2 -1.2,3.3 -0.3,0.1 -0.6,0.3 -0.9,0.5 -0.7,0.4 -1.2,1.1 -1.7,2 -1.1,2.4 -1,5.3 0.4,7.5 0.6,1 1.4,1.8 2.3,2.3 0.8,0.4 1.7,0.7 2.7,0.7 0.4,0 0.8,0 1.2,-0.1 0.3,1.5 0.9,2.8 1.8,3.8 1.4,1.5 3,2.3 4.2,2.6 -0.6,0.9 -0.4,1.8 -0.3,2.2 0.1,0.8 0.5,1.6 1.1,2.2 0.6,0.7 1.3,1.2 2.1,1.6 1.2,2 2.8,3.8 4.6,5.2 1.6,1.2 3.8,3 6.4,3 0.4,0 0.7,0 1.1,-0.1 1,-0.2 1.9,-0.8 3.8,-2 1.9,-1.3 3.4,-2.3 4.2,-2.9 l 0.2,-0.2 c 1.4,-1 2.9,-2 4.4,-3 0.1,0 0.2,0 0.3,0 0.5,0 0.9,-0.1 1.4,-0.2 1.3,-0.4 2.1,-1.1 2.7,-1.8 0.2,-0.2 0.5,-0.5 0.8,-1 0.4,-0.7 0.5,-1.4 0.6,-1.7 0,-0.3 0,-0.5 0,-0.7 0.2,-0.1 0.4,-0.3 0.5,-0.4 1.4,2.3 3.1,4.4 4.7,6.5 0.2,0.2 0.3,0.4 0.5,0.7 -0.2,0.3 -0.4,0.7 -0.5,1 -0.2,0.9 -0.1,1.7 0.3,2.5 -0.5,1 -0.5,2.3 0.1,3.3 0.1,0.2 0.2,0.4 0.3,0.5 0,0.1 -0.1,0.2 -0.2,0.3 -1.5,2.3 -3.3,4.6 -5,6.8 -1.6,2.1 -3.3,4.2 -4.8,6.4 -0.9,1.3 -2,3 -2.5,5 -0.2,1 -0.2,2 -0.3,3 0,0.8 0,1.6 -0.2,2.2 -0.2,1 -0.8,2 -1.3,2.8 -2.3,3.8 -5,7.9 -8,12.5 -2.7,4 -4.7,8.6 -6.1,13.8 -0.7,2.7 -0.5,5.4 0.7,7.5 0,2.1 0,4.6 0.3,6.9 0.1,0.9 0.2,1.9 0.6,2.9 0.6,1.7 1.8,3.1 3.7,4.6 0.7,0.5 1.3,1 2,1.4 0.7,0.4 1.3,0.9 1.9,1.3 0.1,0.1 0.3,0.2 0.4,0.3 0.9,0.7 2,1.6 3.5,1.9 0.2,0 0.4,0.1 0.5,0.1 0.1,0 0.3,0 0.3,0 0.1,0.1 0.5,0.5 0.7,0.7 0.1,0.2 0.2,0.3 0.4,0.4 1,1.2 2.4,2.1 4,2.7 0,1.1 0,2.3 0,3.4 0,1 0,2 0,3.1 -0.5,0.1 -0.9,0.1 -1.1,0.2 -1.4,0.2 -2.5,0.8 -3.3,1.7 -1.1,1.2 -1.4,2.6 -1.5,3.6 -0.1,0.9 -0.2,1.7 -0.2,2.6 -0.3,0.2 -0.6,0.4 -0.8,0.6 -0.7,0.6 -1.6,1.5 -2,2.7 -0.1,0.4 -0.2,0.8 -0.2,1.1 0,0 0,0 0,0 -4.8,1.7 -9.2,4.7 -12.2,8.5 -1.3,1.6 -0.9,3.1 -0.1,3.9 0.6,0.7 1.5,0.8 1.8,0.9 1.4,0.2 2.8,0.3 4.5,0.3 2.1,0 4.1,-0.2 6.1,-0.3 l 5.3,-0.4 5.3,-0.4 c 2.4,-0.2 4.8,-0.4 7.2,-1.1 0.7,-0.2 2.9,-0.9 3.9,-2.8 0.4,-0.7 0.5,-1.5 0.5,-2.1 0.1,-0.8 0.1,-1.6 0.1,-2.3 0.3,-0.2 0.6,-0.5 0.8,-0.8 0.5,-0.7 0.9,-1.6 0.9,-2.5 0,-0.7 0,-1.4 -0.1,-1.9 0,-0.4 -0.1,-0.9 -0.5,-1.5 -0.1,-0.1 -0.2,-0.3 -0.3,-0.4 0.1,-1.3 0.2,-2.5 0.2,-3.6 0,-0.7 0,-1.6 -0.4,-2.5 -0.2,-0.4 -0.4,-0.7 -0.7,-1 0.9,-2.6 2,-5.4 3.3,-8.3 0.2,0 0.4,0 0.6,0 1.4,0 2.8,-0.4 4.2,-1.1 1.5,-0.8 2.8,-1.8 4,-2.7 1.5,-1.2 3.1,-2.5 4.6,-3.9 0.3,0.4 0.6,0.8 0.9,1.2 1.1,1.3 2.4,2.2 3.7,3.1 4.3,2.9 8.7,5.6 13.3,8.1 0.7,2 1.3,3.8 2,5.4 -0.3,0.3 -0.6,0.6 -0.8,1.1 -0.5,1 -0.4,2 -0.3,2.5 l 0.3,2.3 0.1,0.5 c 0,0 0,0 0,0 l -0.2,0.1 c -0.9,0.5 -1.5,1.2 -1.8,2.1 -0.2,0.5 -0.2,1 -0.2,1.6 0,0.5 0.1,0.9 0.3,1.3 0.5,1.1 1.4,1.8 2.1,2.2 0.1,0.1 0.3,0.2 0.4,0.2 0,0.8 0.1,1.5 0.2,2 0.3,1.5 1.1,2.8 2.1,3.6 0.6,0.5 1.3,0.7 1.9,1 5.9,2.2 12.4,3.4 19.3,3.4 3.2,0 6.4,-0.2 9.6,-0.7 0.3,0 1,-0.1 1.5,-0.6 1,-0.8 1.3,-2.2 0.7,-3.6 -0.7,-1.8 -2.1,-3.4 -4,-4.8 -1.6,-1.1 -3.3,-1.9 -4.9,-2.6 l -4,-1.8 c 0,-0.1 0,-0.3 0.1,-0.4 0.1,-0.8 -0.1,-1.4 -0.3,-1.9 -0.6,-1.6 -1.7,-2.7 -3.1,-3 0,-0.4 -0.1,-0.8 -0.1,-1.2 0,-0.7 0,-1.6 -0.4,-2.6 -0.2,-0.5 -0.6,-1.6 -1.6,-2.4 -0.8,-0.6 -1.6,-0.8 -2.2,-0.9 -0.1,0 -0.2,0 -0.3,-0.1 l -0.4,-6.6 c 0.7,-0.4 1.4,-1 2.1,-1.7 0.7,0.2 1.3,0.2 2,0.2 0.9,0 1.8,-0.1 2.8,-0.4 1.4,-0.4 2.9,-1.1 4.4,-2.2 0.2,-0.1 0.4,-0.3 0.7,-0.4 0.5,-0.3 1,-0.6 1.6,-1.1 l 0.4,-0.4 c 1.1,-1 2.2,-2 3.1,-3.2 1.1,-1.4 1.8,-2.7 2.2,-4 4.2,-1.2 9.3,-3.6 11.7,-8.4 1.7,-3.3 1.7,-7 1.8,-10.5 0,-0.4 0,-0.9 0,-1.3 0.1,-2.9 0.3,-6.2 1.5,-9.2 1.2,-2.9 3.2,-5.1 5.6,-6.1 1,-0.4 2.1,-0.6 3.3,-0.8 1.6,-0.3 3.3,-0.6 4.9,-1.5 0.3,-0.2 1.2,-0.6 1.6,-1.7 0.2,-0.6 0.1,-1.3 -0.2,-2 -0.6,-1.4 -1.9,-2.5 -3.6,-3.1 -0.9,-0.3 -1.9,-0.4 -3.1,-0.4 -0.2,0 -0.5,0 -0.7,0 -2.6,0.1 -4.6,0.5 -6.4,1.3 -2.2,0.9 -4,2.5 -5.6,3.8 -1.1,0.9 -2.4,2 -3.4,3.3 -1.1,1.5 -1.8,3.2 -2.2,4.4 -1.1,2.9 -1.8,6.1 -2.1,9.5 -0.1,0.6 -0.1,1.2 -0.2,1.8 -0.2,2.1 -0.4,4 -1,5.8 -0.4,1.1 -1.1,2.4 -2.2,3.3 -0.8,-3 -2.3,-5.7 -3.7,-8.3 l -0.2,-0.4 c -1.7,-3.1 -3.3,-6.2 -4.9,-9.3 -0.4,-0.7 -0.8,-1.5 -0.9,-2.2 -0.1,-0.6 -0.2,-1.3 -0.2,-2 0,-0.3 0,-0.6 0,-0.8 -0.1,-2.5 -0.8,-5 -1.4,-7.3 -0.8,-3 -1.5,-6 -2.3,-9.1 -0.5,-2.1 -1.1,-4.3 -2.3,-6.4 0.5,-0.1 1,-0.3 1.4,-0.5 0.9,-0.5 1.3,-1.2 1.5,-1.6 0.1,-0.2 0.1,-0.3 0.1,-0.5 0.1,-0.1 0.2,-0.1 0.3,-0.2 0.3,-0.2 0.6,-0.3 0.8,-0.5 0.3,0 0.6,0.1 0.8,0.1 0.7,0 1.3,-0.1 1.9,-0.3 1,-0.4 1.8,-1.1 2,-2.1 0,0 0,0 0,0 3.7,-1.2 7.3,-2.7 10.6,-4.6 0.5,-0.3 1.3,-0.8 2,-1.6 0.7,-1 0.9,-2.2 0.9,-3 0.2,-4.7 -2.3,-9 -4.2,-12.3 -0.2,-0.4 -0.4,-0.8 -0.7,-1.3 -0.1,-0.2 -0.2,-0.3 -0.2,-0.5 0.1,-0.3 0.2,-0.7 0.2,-1.1 0,-0.8 -0.3,-1.4 -0.5,-1.8 -0.2,-0.5 -0.7,-1.5 -1.6,-2 -0.6,-0.3 -1.1,-0.4 -1.5,-0.5 l -1.6,-4 c -1,-2.6 -2.1,-5 -3.8,-7 0.1,-0.4 0.2,-0.7 0.2,-1 0.1,-0.3 0.2,-1.1 -0.1,-2 -0.3,-0.8 -0.9,-1.2 -1.1,-1.4 -3.1,-2.3 -6,-2.8 -6.9,-2.9 -0.7,-0.1 -1,-0.2 -1.8,-0.2 -0.7,-0.1 -1.9,-0.2 -4.4,-0.5 -0.9,-0.1 -2.7,-0.3 -4.8,-0.3 -1.1,0 -2.1,0.1 -3.1,0.2 -0.4,0 -0.8,0.1 -1.3,0.3 -1.2,0.3 -2.2,0.9 -3.2,1.6 -0.1,-0.2 -0.3,-0.4 -0.4,-0.6 0.8,-0.8 1.2,-1.7 1.3,-2.6 0.1,-0.4 0.1,-0.8 0,-1.3 0.3,-0.3 0.5,-0.7 0.6,-1.2 0.7,-0.3 1.3,-0.7 1.8,-1.2 h 0.6 c 0.4,0 0.8,0 1.2,0 0.6,0 1.1,0 1.5,-0.1 3,-0.4 5.5,-2 7.5,-3.6 5.1,-4 9.4,-8.8 12.7,-14.3 0.5,-0.8 1,-1.7 1.3,-2.7 0.4,-1.4 0.2,-2.9 0,-4.2 3.9,-3.3 6.1,-6.8 6.4,-10.4 0.1,-1.2 0,-2.4 -0.1,-3.5 l -0.1,-0.6 c -0.7,-6.7 0,-13.7 0.7,-20.5 0.4,-3.6 0.7,-7.3 0.9,-10.9 0.6,-0.6 1.2,-1.3 1.6,-2.3 0.2,-0.6 0.3,-1.2 0.3,-1.6 0.1,-1.6 0.3,-3.6 -0.4,-5.6 -0.1,-0.4 -0.4,-0.9 -0.8,-1.4 -0.4,-0.4 -0.8,-0.6 -1.2,-0.8 -0.1,-5.5 -1.4,-10.9 -2.7,-16.1 l -0.9,-3.5 -0.7,-2.8 c -0.4,-1.4 -0.7,-2.9 -1.1,-4.4 -1.1,-3.9 -3.3,-4.5 -4.5,-4.6 -1,-0.3 -1.1,-0.3 -1.1,-0.3 z"
   id="path13"
   inkscape:connector-curvature="0" />
	</g>
	<path
   class="st1"
   d="m 196.7,44.8 c -0.7,0.9 -1.7,1.6 -2.9,1.9 -1.2,0.2 -2.7,-0.1 -3.8,0.3 -1.1,0.4 -1.2,1.9 -1.2,2.9 0,1.2 0.1,2.5 1.3,3.1 1,0.5 2.2,0.4 3.2,0.4 1.7,0 3.3,-0.1 4.8,-1.2 0,0 0,0 0,0 0.1,-0.1 0.1,-0.3 0.2,-0.4 0.1,-0.4 0.2,-0.8 0.2,-1.1 0.1,-1.6 0.3,-3.2 -0.3,-4.7 -0.1,-0.2 -0.2,-0.5 -0.4,-0.7 -0.2,-0.4 -0.6,-0.5 -1.1,-0.5 z"
   id="path17"
   inkscape:connector-curvature="0"
   style="fill:#e3bc39" />
	<path
   class="st1"
   d="m 137.8,100 c -0.9,-0.5 -1.8,-0.9 -2.7,-1.3 -1.2,-0.5 -2.5,-1 -3.7,-1.4 0.1,0.8 -0.7,1.6 -1.6,1.3 -0.4,-0.2 -0.7,-0.5 -0.9,-0.9 -0.1,-0.3 -0.1,-0.8 0.1,-1 -2.1,-0.5 -4.2,-0.8 -6.3,-0.9 -1.3,0 -2.8,0.2 -4.2,0 1.2,0.9 2.6,1.6 3.9,2.2 1.8,0.8 3.6,1.4 5.5,1.9 3.3,0.5 6.7,0.4 9.9,0.1 0.1,0 0.1,0 0,0 z"
   id="path19"
   inkscape:connector-curvature="0"
   style="fill:#e3bc39" />
	<path
   class="st2"
   d="m 196.7,53.7 c -0.9,0.3 -1.9,0.3 -2.9,0.3 -2,0 -4.8,0 -5.5,-2.4 -0.4,-1.5 -0.4,-4.6 1.4,-5.3 1.3,-0.5 3,0 4.4,-0.4 0.9,-0.3 1.5,-0.8 2,-1.4 0.1,-5.8 -1.3,-11.5 -2.7,-17.1 l -1.5,-6.3 c -0.4,-1.4 -0.7,-2.9 -1.1,-4.3 -0.4,-1.4 -1.2,-3 -2.6,-3.1 -0.9,0 -1.9,1 -2.6,1.6 -6.1,5.5 -11.1,12.3 -15.1,19.5 -4,7.2 -7.2,14.9 -10.1,22.6 -1.6,4.2 -3.3,9 -3.5,13.6 1.7,-0.2 3.5,0.5 4.9,1.8 0.1,0.1 0,0.2 -0.1,0.2 -1.8,-0.7 -3.9,-1.4 -5.9,-1.1 -0.7,0.2 -1.3,0.6 -1.7,1.1 0.9,0.5 1.7,1.1 2.4,1.9 0.1,0.1 0,0.3 -0.2,0.2 -1,-0.5 -1.9,-1.1 -2.9,-1.6 -1.5,-0.4 -3.1,-0.8 -4.6,-1.2 -1,-0.3 -1.4,-0.3 -1.8,-0.3 -0.8,0.2 -1.7,0.3 -2.4,0.6 -1.4,0.5 -2.6,1.3 -3.8,2 -0.1,0.1 -0.2,-0.1 -0.1,-0.1 0.6,-1 1.5,-1.7 2.4,-2.2 -0.7,0 -1.4,0 -2.1,0 -2.4,0 -4.4,0.9 -6.7,1.3 -0.1,0 -0.2,-0.2 -0.1,-0.2 2.3,-1.2 4.9,-2.1 7.6,-2.4 -1,-8.3 -3.2,-14.7 -5.1,-19.1 -2.4,-5.7 -5.2,-10.1 -11.3,-18.7 -1.7,-2.3 -3.4,-4.7 -5.3,-6.8 -1.9,-2.1 -4.1,-3.9 -6.3,-5.8 -1.8,-1.5 -3.7,-3 -5.5,-4.5 -1.4,-1.1 -3.9,-2.8 -4.9,-1.3 -2.1,3 -3.7,6.5 -4.5,10.1 -0.8,3.3 -0.9,6.7 -1.1,10.1 -0.8,16.4 -1.5,33 1.6,49.2 0.3,1.8 0.8,3.7 2.1,5.1 0.4,0.5 0.9,0.8 1.3,1.3 0.8,0.9 1.1,2.1 1.6,3.2 0.3,0.6 0.7,1.2 1.2,1.6 0.9,-1 1.7,-2.1 2.4,-3.4 1.2,-2.4 1.6,-5 3.3,-7.1 1.8,-2.1 4.1,-2.7 6.3,-4.2 3.2,-2.2 4,-5.5 3.9,-9.2 -0.1,-8 -2.7,-16.1 -4.8,-23.8 -2.2,-8.1 -4.8,-16.2 -7.8,-24.1 0,-0.1 0.1,-0.2 0.2,-0.1 4,8.2 7.3,16.5 9.9,25.3 2.3,7.7 4.9,16.4 4.4,24.5 -0.4,6.4 -3.9,8 -8.8,11 -3.7,2.3 -4.3,6.7 -6.6,10.1 -0.3,0.5 -0.7,1 -1.1,1.5 0,0 0.1,0 0.1,0 -1.5,1.5 -1.4,4.4 -1,6.5 0.4,2.1 1.4,4.1 2.5,6 1.1,2 2.2,3.9 3.2,5.9 0.6,1.1 1.2,2.2 2.1,3.1 0.7,0.7 1.6,1.3 2.5,1.8 2.3,1.4 4.6,2.9 7.1,3.7 2.3,0.8 4.8,1.1 7.2,0.6 -1.7,-1.6 -2.7,-4.2 -2.8,-6.2 -0.1,-3.3 1.8,-6.2 4.6,-7.8 0.1,-0.1 0.2,0.1 0.1,0.2 -2.4,1.9 -3.9,4.5 -3.6,7.6 0.3,2.9 2.1,5 4.1,7 0.3,0.1 0.6,0.3 0.8,0.4 0,0 0,0 0,0 2.4,0.9 5.3,1.2 7.7,0.8 2.6,-0.5 4.9,-2.2 7.6,-2.5 2.5,-0.3 4.3,0.8 6.6,1.6 2.9,1 6.1,0.2 8.9,-1 1.6,-2.2 3.3,-4.2 3.2,-7.4 -0.1,-3.6 -1.9,-6.2 -3.9,-9.1 -0.1,-0.1 0.1,-0.2 0.1,-0.1 2.6,2.7 4.7,5.2 4.9,9.1 0.1,2.6 -0.9,5 -2.4,7.2 0.1,0 0.1,0 0.2,0 0.8,0 1.6,0.1 2.4,0 2.4,-0.3 4.6,-1.7 6.5,-3.2 4.9,-3.8 9,-8.5 12.2,-13.8 0.4,-0.7 0.8,-1.4 1.1,-2.2 0.4,-1.4 0.1,-3.1 -0.2,-4.5 0.1,-0.1 0.2,-0.1 0.3,-0.2 -0.4,-1.7 -0.9,-3.3 -1.3,-5 -0.7,-2.7 -1.8,-5.8 -3.7,-7.8 -1.1,-1.1 -2.6,-1.7 -3.6,-3 -1.6,-2 -1.9,-4.6 -4.5,-5.9 -1.1,-0.6 -2.6,-0.4 -3.7,-1.3 -1.8,-1.5 -1.8,-3.9 -1.8,-6 0.1,-9.5 1.3,-19.2 4.3,-28.3 1.6,-5 3.8,-9.9 5.6,-14.8 1.3,-3.4 2.6,-6.7 5,-9.4 0.1,-0.1 0.4,0 0.3,0.2 -2.4,4.4 -3.6,9.2 -5.2,13.9 -1.6,4.7 -3.2,9.3 -4.5,14.1 -1.4,5.2 -2.3,10.6 -2.7,16 -0.3,3.1 -1.5,9.9 0.8,12.4 2,2.1 5,1.4 6.5,4.4 0.9,1.8 1.3,3.5 2.8,5.1 1,1 2,1.7 2.9,2.8 2.3,3.1 3.1,6.8 4.2,10.4 0.1,0.3 0.2,0.7 0.3,1 2.5,-2.2 4.5,-5 4.7,-8.3 0.1,-1.2 -0.1,-2.5 -0.2,-3.7 -1.3,-10.7 1.1,-21.7 1.5,-32.5 z m -85.2,6 c 0.1,-0.2 0.3,0 0.3,0.2 -3.2,7.3 -3.9,14.5 -3.9,22.3 0,0.2 -0.2,0.2 -0.3,0 -2.6,-8.5 -0.3,-14.8 3.9,-22.5 z m 39.9,37.1 c 0.3,-1.4 1.2,-2.6 2,-3.7 1.2,-1.5 2.6,-2.8 3.8,-4.2 1.1,-1.3 2.1,-2.7 3.5,-3.7 0.1,-0.1 0.2,0.1 0.1,0.1 -1.8,2 -3.1,4.4 -4.8,6.5 -2.2,2.7 -4.2,5 -2.8,8.7 0.1,0.2 -0.2,0.3 -0.3,0.1 -1,-1.2 -1.8,-2.3 -1.5,-3.8 z m -14.7,-7 c 3.7,2.2 7.7,5.4 7.3,10.2 0,0.3 -0.4,0.4 -0.5,0.1 -0.7,-2.2 -1.5,-4.2 -3,-6 -1.2,-1.4 -2.6,-2.7 -4,-4 0,-0.2 0.1,-0.4 0.2,-0.3 z m -1.9,15.5 c -3.9,0.3 -7.6,0.1 -11.3,-1.1 -3.4,-1.1 -6.4,-2.8 -9,-5.2 0,0 0,-0.1 0.1,-0.1 2.8,2.2 6.1,3.7 9.5,4.8 3.5,1.1 7.1,1.2 10.7,1.4 0.1,0 0.1,0.2 0,0.2 z m 1.1,-2.1 c -3,0.4 -6.1,0.2 -9,-0.5 -2.9,-0.7 -5.9,-1.7 -8.5,-3.1 -1.1,-0.6 -2.2,-1.4 -3.2,-2.2 -0.8,-0.6 -1.6,-1.3 -1.8,-2.3 0,-0.1 0.2,-0.2 0.2,-0.1 0,0 0,0 0,0 2.4,-0.7 5,-0.6 7.5,-0.5 2.3,0.1 4.7,0.4 7,0.8 4.8,0.9 9.3,3 13.6,5.3 0.1,0.1 0.1,0.3 0,0.3 -1.5,1.6 -3.8,2.1 -5.8,2.3 z m 4.5,7.2 c 0,0.2 -0.3,0.2 -0.3,0 -0.7,-3.5 2.5,-7 5.3,-8.5 0.1,-0.1 0.3,0.1 0.1,0.2 -2.5,2.3 -4.5,4.7 -5.1,8.3 z m 15.3,4 c -0.1,0.1 -0.3,0 -0.3,-0.1 0,0 -0.1,-0.4 -0.4,-0.5 -0.3,-0.1 -0.7,0.1 -0.8,0.3 -0.1,0.1 -0.2,0.3 -0.2,0.4 0,0.2 -0.1,0.4 -0.1,0.5 -0.1,0.2 -0.1,0.3 -0.2,0.5 -0.2,0.4 -0.6,0.6 -0.9,0.9 -0.9,0.6 -2,1.4 -3.1,1.3 -1.1,-0.1 -2.4,-0.8 -3.3,-1.5 -0.3,-0.2 -0.5,-0.5 -0.6,-0.8 -0.1,-0.3 0.1,-0.5 0,-0.8 0.1,-0.4 -0.1,-0.7 -0.5,-0.9 -0.4,-0.1 -0.7,0.1 -0.9,0.6 0,0.1 0,0.3 -0.2,0.2 -1.8,-0.4 -2.9,-2.3 -1.4,-3.8 1.7,-1.7 4.7,-2 7,-2 2.1,0 5.1,0.4 6.8,1.8 1.6,1.2 0.6,2.9 -0.9,3.9 z m 3.9,-4.7 c -1.3,-2.4 -2.8,-5.2 -5,-6.8 -0.1,-0.1 0,-0.2 0.1,-0.2 3,1.3 4.4,3.7 5.1,6.9 0.1,0.2 -0.1,0.3 -0.2,0.1 z m 26.5,-11.1 c -2.2,2.6 -5.4,4.7 -8.6,5.9 -1.6,0.6 -3.4,1.1 -5.1,1.3 -2.1,0.3 -4.2,0 -6.3,-0.1 -0.1,0 -0.1,-0.1 0,-0.1 1.8,-0.3 3.6,-0.2 5.5,-0.3 1.8,-0.2 3.6,-0.6 5.3,-1.2 3.4,-1.2 6.5,-3.2 9.2,-5.5 0,-0.1 0.1,0 0,0 z M 171,96.2 c 4.9,-0.9 10.1,-1.4 15,-0.7 0.2,0 0.1,0.3 0,0.3 0,0 -0.1,0 -0.1,0 0,0 0,0 0,0.1 -2.2,1.9 -4.2,3.7 -6.8,5 -2.3,1.2 -4.8,2 -7.4,2.5 -2.7,0.5 -5.4,0.4 -8.1,0.2 -2,-0.2 -4.5,-0.4 -5.8,-2.1 -0.1,-0.1 0.1,-0.3 0.2,-0.2 0,0 0,0 0,0 3.7,-2.7 8.5,-4.3 13,-5.1 z m 12.7,-17.8 c -0.1,0.3 -0.5,0.1 -0.4,-0.2 1.1,-4.2 1.8,-8.2 1,-12.5 -0.6,-3.2 -2,-6.1 -3,-9.2 0,-0.1 0.1,-0.2 0.2,-0.1 2.4,3.3 4.8,7.4 5.2,11.5 0.2,3.6 -1.6,7.2 -3,10.5 z"
   id="path21"
   inkscape:connector-curvature="0"
   style="fill:#a96ec0" />
	<path
   class="st3"
   d="m 154.8,110.1 c -1.5,-0.5 -3.1,-0.8 -4.7,-0.9 -1.9,-0.1 -3.9,0.2 -5.6,1 -0.6,0.3 -1.4,0.7 -1.7,1.3 -0.6,1.1 0.3,2.1 1.3,2.4 0.1,-0.8 1,-1.1 1.7,-0.6 0.5,0.4 0.3,0.9 0.4,1.4 0.2,1.1 1.9,2.1 3,2.3 1.2,0.3 2.7,-0.5 3.6,-1.3 0.4,-0.4 0.6,-0.7 0.8,-1.2 0.1,-0.3 0.1,-0.6 0.3,-0.9 0.5,-0.7 1.6,-0.6 1.9,0.1 0.9,-0.6 1.7,-1.4 1,-2.6 -0.6,-0.5 -1.3,-0.8 -2,-1 z"
   id="path23"
   inkscape:connector-curvature="0"
   style="fill:#320142" />
	<path
   class="st1"
   d="m 177.2,96.5 c -2.2,0 -4.4,0.2 -6.6,0.7 -0.3,0.1 -0.6,0.1 -0.9,0.2 0.4,0.6 0.3,1.6 -0.4,2 -1,0.5 -1.9,-0.5 -1.9,-1.4 -1,0.3 -2,0.6 -3,1 -1.4,0.5 -2.9,1.1 -4.3,1.8 1.2,0.4 2.8,0.3 4,0.4 1.9,0.1 3.9,0 5.8,-0.3 1.9,-0.3 3.6,-0.9 5.3,-1.6 1.6,-0.7 3,-1.7 4.5,-2.6 -0.7,-0.1 -1.6,-0.2 -2.5,-0.2 z"
   id="path25"
   inkscape:connector-curvature="0"
   style="fill:#e3bc39" />
	<path
   class="st2"
   d="m 140.6,128.3 c 2.6,0.8 5.4,1.6 8.2,1.6 2.8,0 5.5,-0.7 8.1,-1.6 1.9,-0.6 3.3,-1.6 4.8,-2.6 -1.3,0.4 -2.7,0.5 -4,0.4 -3.6,-0.3 -6.1,-2.6 -9.8,-1.7 -3.4,0.8 -5.9,2.6 -9.5,2.3 -0.8,-0.1 -1.6,-0.2 -2.4,-0.4 1.4,0.8 2.9,1.5 4.6,2 z"
   id="path27"
   inkscape:connector-curvature="0"
   style="fill:#a96ec0" />
	<path
   class="st1"
   d="m 149.2,131 c -5.4,0.1 -11.9,-1.9 -16.1,-5.4 -0.6,0.1 -1.1,0.6 -1.3,1.3 -0.1,0.3 -0.1,0.7 -0.1,1 0,0.9 -0.1,1.9 -0.1,2.8 0,0.2 0,0.4 0.1,0.5 0.1,0.2 0.3,0.3 0.5,0.4 0.5,0.2 1,0.5 1.6,0.7 4.2,1.1 8.5,1.8 12.8,1.6 4.8,-0.2 9.3,-1.6 13.7,-3.3 0.6,-0.5 1.1,-1.1 1.3,-1.9 0.1,-0.5 0,-1.1 -0.1,-1.6 -3.6,2.6 -8.3,3.8 -12.3,3.9 z"
   id="path29"
   inkscape:connector-curvature="0"
   style="fill:#e3bc39" />
	<path
   class="st2"
   d="m 77.9,140.5 c 1.5,2.3 5.2,3.4 6.6,0.6 -3.4,-1 -5,-5.1 -4.4,-8.6 -1,0.2 -1.9,0.7 -2.5,1.5 -0.6,0.8 -0.8,1.8 -1,2.9 0.2,1.2 0.6,2.5 1.3,3.6 z"
   id="path31"
   inkscape:connector-curvature="0"
   style="fill:#a96ec0" />
	<path
   class="st2"
   d="m 78.7,147 c 0.3,-0.1 0.6,-0.2 0.8,-0.3 0.6,-0.3 1.2,-0.7 1.7,-1.2 0.4,-0.5 0.5,-1 0.6,-1.6 -1.1,0.1 -2.2,-0.2 -3,-0.8 -1.9,-1.2 -2.7,-3.2 -3,-5.3 -0.3,0.1 -0.6,0.3 -0.8,0.4 -0.4,0.3 -0.7,0.7 -0.9,1.2 -0.8,1.8 -0.7,4 0.3,5.7 0.4,0.6 0.9,1.2 1.5,1.6 0.8,0.5 1.8,0.5 2.8,0.3 z"
   id="path33"
   inkscape:connector-curvature="0"
   style="fill:#a96ec0" />
	<path
   class="st2"
   d="m 85.5,140 c 1.5,0.2 3.4,-0.3 4.5,-1.4 1.9,-1.9 0.1,-4.6 -1.2,-6.3 -0.6,0.2 -1.3,0.2 -2.1,0 -1.7,-0.3 -3,-1.2 -3.8,-2.4 -0.3,0.2 -0.6,0.4 -0.9,0.8 -0.2,0.2 -0.3,0.5 -0.4,0.7 -0.3,1.6 -0.4,3.1 0,4.8 0.5,2 1.8,3.5 3.9,3.8 z"
   id="path35"
   inkscape:connector-curvature="0"
   style="fill:#a96ec0" />
	<path
   class="st2"
   d="m 115.3,147.4 c -1,-1.7 -3,-2 -4.7,-2.8 -2.1,-1 -3.6,-2.8 -4.9,-4.7 -0.2,-0.1 -0.4,-0.2 -0.6,-0.3 -0.5,-0.2 -1,-0.4 -2.5,-0.8 -0.9,-0.2 -2.1,-0.6 -3.5,-0.9 0,-0.4 -0.1,-0.9 -0.2,-1.5 -0.6,-4.3 -1.1,-7.6 -3,-10.1 -2,-2.6 -5.9,-4.7 -9.3,-3.8 -0.5,0.1 -3,0.9 -3.9,3.2 -0.2,0.6 -0.3,1.2 -0.2,1.7 0.7,1.3 1.3,2.7 2.8,3.4 2.1,0.9 4.6,0.8 5.1,-1.9 0,-0.1 0.3,-0.1 0.3,0 0.3,1.4 -0.2,2.4 -1,3 1.7,1.9 3.2,4.6 1.7,7 -1.1,1.7 -3.3,2.5 -5.2,2.5 -0.4,0 -0.8,0 -1.2,-0.1 -0.2,1.5 -1.2,2.4 -2.5,2.7 0,1.6 -0.8,2.7 -1.9,3.4 0,1.6 0.4,3.2 1.4,4.3 1.9,2.1 4.4,2.2 4.7,2.2 0,0 0,0.1 0,0.1 3,-0.1 5.9,-1.8 7.8,-4 -0.2,-0.2 -0.5,-0.4 -0.7,-0.6 -0.1,-0.2 0,-0.4 0.2,-0.3 1.7,1.1 3.8,1.5 5.7,0.9 1.3,-0.4 2.2,-1.5 3.6,-1.7 2.6,-0.5 5.1,2.3 7.5,2.8 2.7,0.3 6.3,-0.6 4.5,-3.7 z M 87.8,127.5 c 0,0.6 0.4,1.1 0.5,1.7 0,0.1 -0.1,0.2 -0.2,0.2 -0.3,-0.1 -0.5,-0.5 -0.7,-0.8 -0.3,-0.5 -0.7,-1 -0.9,-1.5 -0.4,-1 -0.1,-2.6 1.3,-2.4 0.8,0.1 1.1,1.2 0.2,1.5 -0.1,0 -0.1,0.1 -0.1,0.1 0,0.1 0,0.1 0,0.2 -0.1,0.2 -0.1,0.6 -0.1,1 z m 4.8,21.5 c -0.9,-0.5 -1.8,-1 -2.6,-1.6 -0.9,-0.5 -1.8,-1 -2.6,-1.5 -0.2,-0.1 -0.1,-0.4 0.1,-0.4 2.2,-0.1 4.2,1.5 5.4,3.3 -0.1,0.1 -0.2,0.2 -0.3,0.2 z"
   id="path37"
   inkscape:connector-curvature="0"
   style="fill:#a96ec0" />
	<path
   class="st2"
   d="m 110.5,157.9 c -0.7,-1.3 -1.7,-2.4 -2.8,-3.4 -1.1,-1 -2.3,-1.7 -3.5,-2.3 -1.2,-0.6 -2.5,-1.3 -3.9,-1.7 -0.1,0 -0.1,0 -0.2,0.1 0.8,1.8 1,3.6 -0.1,5.5 -1,1.6 -2.5,2.8 -4.2,3.6 -2,0.9 -4.3,1.4 -6.4,1.1 1.4,2.2 2.9,3.7 4,4.5 1.7,1.3 3.7,2.9 5.9,2.5 0.6,-0.1 1.4,-0.6 3.1,-1.7 2.1,-1.4 3.6,-2.5 4.4,-3 1.1,-0.8 2.7,-1.9 4.6,-3.1 -0.2,-0.9 -0.5,-1.5 -0.9,-2.1 z"
   id="path39"
   inkscape:connector-curvature="0"
   style="fill:#a96ec0" />
	<path
   class="st1"
   d="m 115.3,155.1 c -0.6,-1 -1.4,-1.9 -2.3,-2.7 -0.1,-0.1 -0.2,-0.2 -0.3,-0.2 -1.1,0 -2.2,-0.2 -3.2,-0.6 -2.5,-0.8 -4.7,-3.3 -7.4,-1.9 -0.4,0.2 -0.7,0.4 -1.1,0.5 0.9,0.2 1.8,0.6 2.8,1 1.4,0.7 2.8,1.4 4.1,2.4 1.8,1.5 3.3,3.6 4.3,5.8 0.6,0.1 1,0 1.3,-0.1 0.8,-0.2 1.3,-0.7 1.9,-1.3 0.2,-0.2 0.3,-0.3 0.5,-0.6 0.2,-0.3 0.3,-0.6 0.3,-0.8 -0.3,-0.5 -0.6,-1 -0.9,-1.5 z"
   id="path41"
   inkscape:connector-curvature="0"
   style="fill:#e3bc39" />
	<path
   class="st1"
   d="m 179.7,155.1 c -0.1,0 -0.2,0 -0.3,0 -0.1,0 -0.1,0 -0.2,0 -0.2,0.1 -0.4,0.2 -0.6,0.3 -0.2,0.1 -0.4,0.3 -0.5,0.4 -0.2,0.9 2,1.2 2.9,1.2 -0.5,-0.5 -0.9,-1.2 -1.3,-1.9 z"
   id="path43"
   inkscape:connector-curvature="0"
   style="fill:#e3bc39" />
	<path
   class="st4"
   d="m 131.7,135.2 c 1.4,1.2 3.2,1.8 4.9,2.3 3.4,1 7.1,1.4 10.6,1.5 3.7,0.1 7.3,-0.4 10.7,-1.7 1.7,-0.6 3,-1.4 4.3,-2.7 -1,-0.7 -1.8,-1.8 -2.3,-3 -4,2.2 -8.9,3.1 -13.3,3.4 -4.1,0.3 -9.3,0.1 -13.3,-1.8 -0.5,0.7 -1.3,1.2 -2.1,1.4 0.2,0.3 0.3,0.5 0.5,0.6 z"
   id="path45"
   inkscape:connector-curvature="0"
   style="fill:#7a3d9a" />
	<path
   class="st5"
   d="m 118.2,140.2 c 1.8,-1.6 3.6,-2.7 5.8,-3.8 1.8,-0.9 3.8,-1.7 5.7,-2.2 -0.5,-0.7 -0.7,-1.1 -1,-1.7 -0.5,-1 -3.4,-1.6 -10.7,0.4 -1.3,0.4 -2.9,0.8 -4.8,1.5 1.6,2.1 3.3,4.1 5,5.8 z"
   id="path47"
   inkscape:connector-curvature="0"
   style="fill:#0c0a0f" />
	<path
   class="st6"
   d="m 123.4,143.5 c 0.9,-1.3 1.8,-2.6 2.8,-3.8 1,-1.2 2,-2.4 3.1,-3.6 0.3,-0.4 0.7,-0.7 1.1,-1.1 0,0 -0.1,-0.1 -0.1,-0.1 0,0 0,0 0,0 -0.1,0 -0.2,-0.1 -0.2,-0.2 0,0 0,0 0,0 -2.1,0.6 -4.1,1.4 -6.2,2.3 -1.4,0.7 -2.7,1.3 -3.9,2.2 -0.5,0.4 -1,0.8 -1.4,1.3 1.4,1.3 2.9,2.5 4.5,3.5 0.1,-0.1 0.2,-0.3 0.3,-0.5 z"
   id="path49"
   inkscape:connector-curvature="0"
   style="fill:#226ad0" />
	<path
   class="st5"
   d="m 157.9,146.5 c -0.2,-1.7 -0.4,-3.5 -0.7,-5.2 -0.2,-0.9 -0.5,-1.8 -0.7,-2.6 -3.1,0.9 -6.3,1.3 -9.5,1.2 -2.8,-0.1 -5.8,-0.4 -8.6,-1 -0.5,2.4 -0.9,4.7 -1,7.2 -0.1,1.4 -0.1,2.8 -0.1,4.2 1.9,0.5 3.9,0.9 5.9,1.1 5,0.6 10,0.8 15,0 0,-1.7 -0.1,-3.3 -0.3,-4.9 z"
   id="path51"
   inkscape:connector-curvature="0"
   style="fill:#0c0a0f" />
	<path
   class="st6"
   d="m 164,145.3 c -1.7,-2.6 -3.4,-5.1 -5.5,-7.4 -0.6,0.2 -1.2,0.4 -1.7,0.6 0.3,1 0.7,2 0.9,3 0.3,1.5 0.5,3.1 0.7,4.7 0.2,1.6 0.4,3.3 0.5,5 0.7,-0.1 1.3,-0.2 2,-0.4 1.8,-0.4 3.6,-1 5.4,-1.6 -0.7,-1.3 -1.5,-2.6 -2.3,-3.9 z"
   id="path53"
   inkscape:connector-curvature="0"
   style="fill:#226ad0" />
	<path
   class="st5"
   d="m 167.1,133.4 c 2.2,0 4.3,0.2 6.4,0.7 3.2,0.6 6.4,1.6 9.5,2.9 0.6,-0.8 1.2,-1.6 1.8,-2.5 -2.2,-1.1 -3.9,-1.2 -3.9,-1.2 -1.3,-0.2 -0.8,-0.1 -6.1,-0.7 -1.2,-0.1 -4.4,-0.5 -7.3,-0.1 -0.3,0 -0.6,0.1 -1,0.2 -0.7,0.2 -1.3,0.5 -1.8,0.8 0.7,-0.2 1.6,-0.1 2.4,-0.1 z"
   id="path55"
   inkscape:connector-curvature="0"
   style="fill:#0c0a0f" />
	<path
   class="st6"
   d="m 180,136.3 c -1.9,-0.7 -3.8,-1.2 -5.8,-1.7 -3.2,-0.7 -6.9,-1.4 -10.3,-0.7 -0.4,0.4 -0.8,0.8 -1.2,1.2 1.6,0.3 3.1,1 4.5,1.6 2,0.9 4.2,1.6 6.1,2.7 1.5,0.8 3,1.8 4.4,3 1.8,-1.5 3.3,-3.2 4.7,-5.1 -0.6,-0.3 -1.5,-0.6 -2.4,-1 z"
   id="path57"
   inkscape:connector-curvature="0"
   style="fill:#226ad0" />
	<path
   class="st5"
   d="m 173.1,139.7 c -1.8,-0.9 -3.6,-1.6 -5.4,-2.4 -1.7,-0.8 -3.4,-1.5 -5.2,-1.9 -1,0.9 -2.2,1.7 -3.5,2.3 2.1,2 3.8,4.8 5.4,7.2 0.9,1.3 1.7,2.7 2.5,4.1 3.3,-1.3 6.4,-3 9.2,-5.1 0.5,-0.4 1,-0.8 1.4,-1.1 -1.3,-1.2 -2.8,-2.2 -4.4,-3.1 z"
   id="path59"
   inkscape:connector-curvature="0"
   style="fill:#0c0a0f" />
	<path
   class="st6"
   d="m 137,145.6 c 0.2,-2.3 0.5,-4.6 1.1,-6.8 -0.7,-0.2 -1.5,-0.4 -2.2,-0.6 -1.5,1.9 -2.8,4 -3.9,6.3 -0.6,1.1 -1.1,2.3 -1.5,3.5 2.1,0.9 4.2,1.6 6.4,2.2 -0.1,-1.7 0,-3.2 0.1,-4.6 z"
   id="path61"
   inkscape:connector-curvature="0"
   style="fill:#226ad0" />
	<path
   class="st5"
   d="m 131.6,144 c 1.1,-2.1 2.3,-4.1 3.8,-6 -1.5,-0.5 -3.1,-1.2 -4.3,-2.2 -0.2,-0.1 -0.3,-0.3 -0.5,-0.5 -1.6,1.3 -2.9,3.2 -4.1,4.7 -1,1.3 -2,2.6 -2.9,3.9 -0.1,0.1 -0.2,0.3 -0.2,0.4 1,0.6 1.9,1.2 3,1.7 1.1,0.6 2.3,1.1 3.5,1.6 0.6,-1.2 1.1,-2.4 1.7,-3.6 z"
   id="path63"
   inkscape:connector-curvature="0"
   style="fill:#0c0a0f" />
	<path
   class="st7"
   d="m 187.4,136.3 c -0.1,-0.2 -0.3,-0.4 -0.5,-0.5 -0.5,-0.3 -0.9,-0.6 -1.3,-0.9 -2.6,4.3 -6.5,8 -10.6,10.8 -4.9,3.3 -10.5,5.5 -16.4,6.4 -5.9,1 -12,0.6 -17.9,-0.4 -5.8,-1 -11.6,-3.1 -16.7,-6.1 -4.6,-2.7 -8.3,-6.5 -11,-11 -0.9,0.3 -1.9,0.7 -3,1.2 0.2,0.3 0.4,0.7 0.6,1 0.5,0.7 1,1.5 1.6,2.2 1.3,1.4 2.7,2.6 4.1,3.9 2.6,2.4 5.3,4.4 8.5,6.1 11.1,5.9 24.1,6.8 36.3,3.9 5.7,-1.4 11.3,-3.5 16.3,-6.7 3.8,-2.4 7,-5.3 10,-8.5 0.1,-0.2 0.1,-0.4 0.1,-0.5 -0.1,-0.3 0,-0.6 -0.1,-0.9 z"
   id="path65"
   inkscape:connector-curvature="0"
   style="fill:#fdfffc" />
	<path
   class="st2"
   d="m 191.1,146.2 c -1,-2.6 -2.1,-5 -4,-7 -3.2,3.4 -7,6.3 -11,8.6 -10.5,6.2 -23.6,8.6 -35.7,7 -6.3,-0.9 -12.3,-2.9 -17.7,-6.1 -2.8,-1.6 -5.2,-3.6 -7.5,-5.8 -1.2,-1.2 -2.6,-2.3 -3.7,-3.6 -0.3,-0.3 -0.5,-0.7 -0.8,-1 -0.6,0.2 -1.3,0.6 -2,1.3 -0.5,0.4 -0.8,0.9 -1.1,1.3 1.2,1.3 2.3,2.5 4.1,3.2 1.5,0.6 3.1,1.1 4.1,2.5 1.4,1.7 1.5,4.3 -0.7,5.3 -0.5,0.2 -1,0.3 -1.5,0.4 0.9,0.9 1.7,1.8 2.4,2.9 2.1,-2.1 5.3,-3.9 8.1,-2 0.1,0 0,0.2 -0.1,0.1 -1.7,-0.7 -3.1,-0.3 -4.4,0.4 0.2,0.2 0.4,0.5 0.6,0.8 1.3,2.4 3,4.5 4.7,6.6 0.4,0.5 0.8,1 1.3,1.5 3.2,-0.6 6.8,-0.4 9.9,-0.4 3.8,0.1 7.5,0.7 11.3,1 3.8,0.4 7.7,0.7 11.6,0.5 3.3,-0.2 7,-0.1 10.1,-1.3 0,0 0,0 0.1,0 0.3,-0.4 0.7,-0.7 1.1,-1.1 1.7,-1.6 3.3,-3.2 4.5,-5.1 1.5,-2.3 2.4,-4.9 3.4,-7.4 0.1,-0.3 0.5,-0.2 0.4,0.1 -0.2,1.2 -0.5,2.3 -0.8,3.4 0.1,0.1 0.1,0.2 0.2,0.3 0.2,0.3 0.4,0.6 0.7,0.9 0.3,0.4 0.7,0.8 1,1.2 0.1,0 0.1,0.1 0.1,0.2 0.6,0.8 1.3,1.6 1.8,2.5 1.3,0.1 2.6,-0.2 3.8,-0.5 2.1,-0.6 4.6,-1.4 6.3,-2.8 0.9,-0.8 1.3,-1.8 1.4,-2.8 -0.8,-1.9 -1.4,-3.5 -2,-5.1 z"
   id="path67"
   inkscape:connector-curvature="0"
   style="fill:#a96ec0" />
	<path
   class="st1"
   d="m 195.8,152.7 c -0.2,-0.4 -0.4,-0.9 -0.8,-1.1 -0.3,-0.2 -0.6,-0.2 -0.9,-0.2 -0.1,0 -0.3,0 -0.5,0 -0.2,1.2 -0.8,2.2 -1.9,3.1 -2.2,1.7 -5.1,2.6 -7.8,3.1 -1.6,0.3 -3.2,0.3 -4.8,-0.2 -0.5,-0.2 -1.2,-0.5 -1.5,-0.9 -0.1,0.3 -0.1,0.5 0,0.9 0.2,0.9 0.9,1.9 1.6,2.6 1.6,1.7 4.1,1 6.1,0.4 2.5,-0.7 5,-2 7.1,-3.6 1.3,-1 2.4,-2.1 3.6,-3.2 0.1,-0.3 -0.1,-0.6 -0.2,-0.9 z"
   id="path69"
   inkscape:connector-curvature="0"
   style="fill:#e3bc39" />
	<path
   class="st1"
   d="m 178.6,181.3 c 0.7,0.3 1.5,0.3 2.2,0.4 0.1,0 0.3,-0.1 0.4,-0.2 0.2,-0.1 0.5,-0.3 0.5,-0.5 0.1,-0.2 0,-0.4 0,-0.6 -2,-0.3 -4.2,-1.5 -5.2,-3.1 -0.6,-1 -0.6,-1.9 -0.9,-3 -0.1,-0.4 -0.5,-1 -1,-0.7 -0.3,0.1 -0.5,0.9 -0.6,1.1 -0.3,1 0.1,1.8 0.5,2.7 0.1,0.1 0.1,0.2 0.2,0.2 0.9,1.1 1.8,2.2 2.7,3.2 0.5,0.2 0.9,0.4 1.2,0.5 z"
   id="path71"
   inkscape:connector-curvature="0"
   style="fill:#e3bc39" />
	<path
   class="st1"
   d="m 179.4,171.4 c -0.6,0.6 -1.3,1.1 -2,1.7 -0.3,0.3 -0.8,0.8 -1.2,0.9 0.1,0.3 0.1,0.6 0.2,0.9 0.2,0.9 0.4,1.8 1,2.5 1.2,1.6 3.1,2 4.9,2.4 0,0 0,0 0,0 0.7,-0.4 1.5,-0.9 2.1,-1.3 -2.4,-1.5 -4.3,-4.4 -5,-7.1 z"
   id="path73"
   inkscape:connector-curvature="0"
   style="fill:#e3bc39" />
	<path
   class="st0"
   d="m 182.6,161.6 c -1.1,0.1 -2.1,0.1 -3,-0.6 -0.9,-0.6 -1.6,-1.6 -2.1,-2.6 -0.4,-0.8 -0.7,-1.7 -0.3,-2.5 0.3,-0.7 1.1,-1 1.8,-1.3 -0.3,-0.5 -0.7,-0.9 -1,-1.4 -0.1,-0.1 -0.2,-0.4 -0.4,-0.6 -0.9,2.5 -2.3,4.9 -4.2,6.8 -1.4,1.5 -3.9,2.8 -3.1,4.9 0.3,0.9 0.8,1.4 0.4,2.3 -0.4,0.9 -0.9,0.9 -0.9,2.1 0.1,1.3 0.7,2.5 1.4,3.5 0.8,1.3 1.7,2.5 2.6,3.7 -0.2,-0.7 -0.1,-1.5 0.3,-2.2 0.4,-0.7 1.2,-1.4 1.9,-0.7 0.1,0.1 0.1,0.2 0.2,0.3 0.1,-0.1 0.3,-0.2 0.4,-0.3 0.3,-0.2 0.5,-0.4 0.8,-0.6 0.7,-0.6 1.4,-1.1 2,-1.7 -0.1,-0.3 -0.1,-0.5 -0.1,-0.7 0,-0.5 0.1,-1.1 0.5,-1.4 0.4,-0.4 1,-0.6 1.5,-0.4 0.3,0.1 0.4,0.3 0.5,0.6 1.1,-1 2.3,-2 3.6,-2.8 0.1,-0.1 0.2,-0.1 0.4,-0.2 -1.2,-1.3 -2.2,-2.8 -3.2,-4.2 z"
   id="path75"
   inkscape:connector-curvature="0"
   style="fill:#ffffff" />
	<path
   class="st1"
   d="m 187.8,177 c -1.3,-0.5 -2.4,-1.3 -3.4,-2.2 -1.5,-1.3 -3.2,-3.4 -3.3,-5.6 -0.1,-0.3 -0.3,-0.5 -0.7,-0.4 -0.4,0.1 -0.6,0.4 -0.7,0.9 -0.1,0.4 0,0.7 0,1.1 0,0.1 0,0.3 0,0.4 0.6,1.8 1.5,3.4 2.8,4.8 1.2,1.3 2.5,2 4,2.5 0.1,0 0.3,-0.1 0.4,-0.1 0.4,-0.1 0.7,-0.4 0.8,-0.8 0.1,-0.2 0,-0.4 0.1,-0.6 0,0 0,0 0,0 z"
   id="path77"
   inkscape:connector-curvature="0"
   style="fill:#e3bc39" />
	<path
   class="st2"
   d="m 197.2,157.6 c -0.5,-0.8 -0.9,-1.8 -1.4,-2.7 -3.5,3.3 -7.8,6 -12.6,6.6 1.1,1.3 2,2.7 3,4 1.1,-0.5 2.3,-0.6 3.6,-0.5 0.1,0 0.1,0.1 0,0.1 -1.8,0.2 -3.4,0.7 -4.8,1.8 -1,0.7 -2,1.7 -3.2,2.3 0,0.1 0,0.1 0,0.2 0.7,1.9 1.6,3.4 3.2,4.8 0.8,0.8 1.8,1.4 2.8,1.9 0.2,0.1 0.5,0.2 0.7,0.3 0,0 0,0 0,-0.1 3.7,-1.1 7.4,-2.7 10.7,-4.6 0.5,-0.3 1,-0.6 1.3,-1 0.4,-0.5 0.5,-1.2 0.5,-1.9 0.3,-4 -1.8,-7.7 -3.8,-11.2 z"
   id="path79"
   inkscape:connector-curvature="0"
   style="fill:#a96ec0" />
	<path
   class="st1"
   d="m 95,153.2 c 1.3,-0.5 2.1,-1.3 2.6,-2.4 -0.9,0 -1.7,-0.2 -2.5,-0.7 -0.6,1.5 -2.1,2.7 -3.9,3.5 1.4,0.2 2.6,0.1 3.8,-0.4 z"
   id="path81"
   inkscape:connector-curvature="0"
   style="fill:#e3bc39" />
	<path
   class="st1"
   d="m 90.4,154.1 c -1.2,0.4 -2.4,0.7 -3.5,0.6 0,0.3 0.1,0.7 0.1,1 2,1.2 4.4,2 6.7,1.6 1.3,-0.2 2.4,-0.8 3.3,-1.8 0.7,-0.8 1.3,-1.9 1.4,-2.9 0,-0.4 0,-0.8 -0.1,-1.2 -1.5,2.4 -5,3.2 -7.9,2.7 z"
   id="path83"
   inkscape:connector-curvature="0"
   style="fill:#e3bc39" />
	<path
   class="st1"
   d="m 99.6,150.7 c -0.3,0.1 -0.6,0.1 -0.9,0.2 0.4,1.5 0.2,3 -0.7,4.4 -0.8,1.2 -2,2.2 -3.4,2.6 -2.7,0.8 -5.5,0 -7.7,-1.6 -0.1,0 -0.3,0.1 -0.4,0.2 -0.2,0.3 -0.2,0.6 -0.1,0.9 0.1,0.6 0.4,1 0.6,1.3 0.6,0.8 1.5,1.1 1.9,1.3 0,0 0,0 0,0.1 2.1,0.3 4.5,-0.1 6.3,-1 1.5,-0.7 2.9,-1.7 3.9,-3 1.5,-2 1.1,-3.6 0.5,-5.4 z"
   id="path85"
   inkscape:connector-curvature="0"
   style="fill:#e3bc39" />
	<path
   class="st2"
   d="m 116.9,265.1 c 1,0.3 2,0.6 3.1,0.7 1.3,0.1 2.6,0 3.8,-0.2 0.5,-1.2 1.3,-2.4 2,-3.5 1.1,-3.2 2.3,-6.4 3.8,-9.4 -1.9,0.8 -3.9,1 -6.3,0.9 -2.2,-0.1 -4.5,-0.2 -6.7,-0.6 0,2.9 0,5.9 0,8.8 0.1,1 0.2,2.1 0.3,3.3 0,0 0,0 0,0 z"
   id="path87"
   inkscape:connector-curvature="0"
   style="fill:#a96ec0" />
	<path
   class="st8"
   d="m 118.7,272.1 c 1.6,0 3.3,-0.3 4.8,-0.7 1.1,-0.3 2.1,-0.7 3.1,-1.3 0.1,-1.5 0.2,-2.9 0.2,-4.4 0,-0.5 0,-1.1 -0.2,-1.6 -0.2,-0.4 -0.6,-0.8 -1,-0.9 -0.4,0.7 -0.9,1.5 -1.2,2.3 0.5,-0.1 0.9,-0.1 1.4,-0.2 0.2,0 0.3,0.2 0.1,0.3 -3.7,1.6 -8.4,1.2 -11.6,-1.4 -0.1,-0.1 0,-0.3 0.2,-0.2 0.6,0.4 1.2,0.6 1.9,0.9 -0.1,-1 -0.2,-2 -0.3,-3 -0.8,0 -1.6,0.1 -2.3,0.2 -0.8,0.1 -1.6,0.5 -2.2,1.1 -0.6,0.7 -0.9,1.6 -1,2.6 -0.2,1.1 -0.2,2.1 -0.1,3.2 1.9,2.5 5.1,3.2 8.2,3.1 z"
   id="path89"
   inkscape:connector-curvature="0"
   style="fill:#7f5336" />
	<path
   class="st1"
   d="m 108.6,273.7 c 0.9,0.6 1.9,0.9 2.9,1.1 2.2,0.5 4.4,1 6.6,1 2.3,0.1 4.6,-0.2 6.9,-0.6 0.6,-0.1 1.2,-0.3 1.8,-0.5 0.1,-0.1 0.2,-0.2 0.3,-0.3 0.3,-0.4 0.5,-0.9 0.5,-1.4 0,-0.5 0,-1 -0.1,-1.5 0,-0.3 -0.1,-0.5 -0.2,-0.8 0,0 0,0 -0.1,-0.1 -2.7,1.5 -6.1,2.1 -9.1,2.1 -2.8,0 -6.3,-0.7 -7.9,-3.2 -0.2,0 -0.4,0 -0.6,0 -0.3,0.1 -0.5,0.3 -0.7,0.5 -0.6,0.5 -1.1,1.1 -1.4,1.8 -0.1,0.2 -0.1,0.3 -0.1,0.5 0,0.1 0,0.2 0,0.3 0.5,0.6 0.8,0.9 1.2,1.1 z"
   id="path91"
   inkscape:connector-curvature="0"
   style="fill:#e3bc39" />
	<path
   class="st8"
   d="m 124,276.2 c -2.4,0.3 -4.7,0.5 -7.2,0.3 -2.3,-0.2 -4.7,-0.6 -6.8,-1.4 -0.9,-0.3 -1.6,-0.7 -2.1,-1.3 -5,1.3 -9.8,4.3 -13,8.4 -0.3,0.4 -0.6,0.9 -0.3,1.3 0.2,0.2 0.4,0.2 0.6,0.2 3.4,0.5 6.8,0.2 10.2,0 3.5,-0.3 7.1,-0.5 10.6,-0.8 2.3,-0.2 4.6,-0.4 6.8,-1 1,-0.3 2.2,-0.8 2.6,-1.8 0.2,-0.4 0.3,-0.9 0.3,-1.4 0.1,-1 0.1,-1.9 0,-2.9 -0.5,0.2 -1.1,0.4 -1.7,0.4 z"
   id="path93"
   inkscape:connector-curvature="0"
   style="fill:#7f5336" />
	<path
   class="st6"
   d="m 141.4,241.3 c 1.2,-2.4 2.4,-4.7 3.1,-7.3 0.5,-2.1 0.8,-4.3 1.1,-6.5 -0.6,-0.5 -1.2,-1 -1.8,-1.5 -2.6,5.8 -9.1,7.9 -14.2,10.7 -0.1,0.1 -0.3,-0.1 -0.1,-0.2 5,-3.5 10.3,-5.8 13.8,-11 0,0 0,0 0,0 -2.4,-2.2 -4.6,-4.8 -6.9,-7.1 -1.6,-1.7 -3.5,-3.3 -4.9,-5.2 -1.2,-1.6 -1.1,-3.3 -0.9,-5.2 0.2,-2.6 0.8,-5.2 1.2,-7.8 0.5,-3.1 0.7,-6.3 1.1,-9.4 0.5,-5.3 1.2,-10.7 1.6,-16 -3.5,-0.1 -7,-0.6 -9.2,-2.6 -2.9,4.3 -6.4,8.1 -9.3,12.4 -0.9,1.3 -1.8,2.7 -2.2,4.3 -0.2,0.9 -0.2,1.8 -0.2,2.7 0.7,4.1 0.8,8.4 0.7,12.4 -0.1,5.9 -1.2,11.4 -2.5,17.1 0,0.1 -0.3,0.1 -0.3,0 0.4,-5.7 1.5,-11.3 1.4,-17.1 0,-2.6 -0.3,-5.1 -0.5,-7.7 -0.2,0.4 -0.4,0.8 -0.7,1.2 -2.6,4.3 -5.3,8.4 -8.1,12.6 -1.9,2.8 -4.2,7.1 -5.8,13.1 -0.3,1.2 -0.4,2.6 -0.2,3.8 1.5,3.7 4,7.2 6.5,10.1 0.2,0.2 -0.1,0.6 -0.3,0.4 -2,-1.4 -3.8,-3.4 -5.2,-5.7 0,1.7 0.1,3.4 0.2,5 0.1,0.8 0.2,1.7 0.5,2.5 0.6,1.5 1.7,2.7 3,3.7 1.3,1 2.7,1.8 3.9,2.7 0.9,0.7 1.9,1.6 3,1.8 0.4,0.1 0.7,0.1 1.1,0.2 0,0 0,0 0,0 0.6,0 1.3,0 2,0.1 1.1,0.1 2,0.7 3.1,0.9 1.7,0.4 3.3,0.1 4.9,-0.3 0.1,0 0.1,0.1 0,0.1 -2.9,1.1 -4.6,1.1 -7.6,0.5 -0.4,-0.1 -0.7,-0.1 -1.1,-0.2 0.2,0.2 0.3,0.4 0.5,0.6 0.1,0.2 0.3,0.3 0.4,0.4 0.9,0.5 1.8,1.1 2.8,1.4 2.2,0.6 4.5,0.6 6.7,0.7 2.2,0.2 4.4,0.3 6.6,-0.3 2.2,-0.7 3.6,-2.2 5.5,-3.4 0.1,-0.1 0.2,0.1 0.2,0.2 -1,1.5 -2.2,2.6 -3.4,3.3 1.4,0.2 2.9,-0.1 4.2,-0.8 1.3,-0.7 2.5,-1.6 3.6,-2.5 2.3,-1.8 4.5,-3.7 6.4,-5.9 0.2,-1.5 0.4,-2.9 0.6,-4.4 0.2,-1.8 0.2,-3.7 0.2,-5.5 -0.7,3.1 -2.3,6.1 -4.2,8.6 -0.2,0.4 -0.4,0.3 -0.3,0.1 z m -24.7,-28 c 0.3,-3.8 -0.1,-7.6 0.5,-11.4 0,-0.1 0.2,-0.1 0.2,0 0.6,8 0.8,16.3 -3.6,23.3 -0.1,0.2 -0.4,0.1 -0.3,-0.1 1.5,-3.8 2.9,-7.6 3.2,-11.8 z m 10.1,22.9 c -5.2,2.3 -11.2,2.1 -16.2,4.8 -0.1,0.1 -0.2,-0.1 -0.1,-0.2 3.9,-2.9 9,-3.1 13.5,-4.7 2.9,-1 6,-2.4 8.4,-4.4 1.9,-1.6 3.4,-3.7 4.9,-5.7 0.1,-0.2 0.4,0.1 0.3,0.2 -2.7,4.5 -6,8 -10.8,10 z"
   id="path95"
   inkscape:connector-curvature="0"
   style="fill:#226ad0" />
	<path
   class="st2"
   d="m 168.7,267.5 c 0,0 0,0 0,0 1.4,0.2 2.8,0.1 4.1,-0.2 1,-0.2 2,-0.5 2.9,-1 0.2,-0.1 0.4,-0.2 0.6,-0.4 0,0 0,0 0,-0.1 0,-1.4 0,-2.8 0.1,-4.3 l -0.5,-7.5 c -1.1,0 -2.1,-0.2 -3.1,-0.5 -1.6,1.5 -3.4,3.8 -5.3,4.5 -1,0.3 -2,0.2 -3.1,-0.2 0.3,1 0.6,1.9 1,2.9 0.9,2.3 2.3,4.5 3.3,6.8 z"
   id="path97"
   inkscape:connector-curvature="0"
   style="fill:#a96ec0" />
	<path
   class="st8"
   d="m 165.6,270.8 c 1.7,2.3 5,2.4 7.7,2.3 1.9,-0.1 3.8,-0.5 5.4,-1.5 1,-0.6 1.7,-1.3 2.4,-2.1 -0.1,-0.7 -0.2,-1.5 -0.2,-2.2 0,-0.7 0,-1.3 -0.3,-2 -0.2,-0.4 -0.4,-1 -1,-1.5 -0.4,-0.3 -0.9,-0.4 -1.4,-0.5 -0.3,-0.1 -0.8,-0.1 -1.4,-0.1 0.1,0.7 0.1,1.4 0,2.2 0.4,-0.3 0.7,-0.7 1.1,-1.1 0.1,-0.1 0.3,0 0.3,0.2 -1,2.2 -3.3,3.1 -5.5,3.5 -1.5,0.3 -2.9,0.3 -4.1,-0.1 -0.1,0.1 -0.3,0 -0.4,-0.1 -0.6,-0.2 -1.1,-0.5 -1.6,-0.9 -0.1,0 0,-0.1 0.1,-0.1 0.4,0.2 0.8,0.4 1.2,0.5 -0.4,-0.8 -0.8,-1.7 -1.3,-2.5 -0.4,0.4 -1,0.7 -1.2,1.2 -0.2,0.4 -0.2,0.9 -0.1,1.4 0,1.1 0.2,2.2 0.3,3.4 z"
   id="path99"
   inkscape:connector-curvature="0"
   style="fill:#7f5336" />
	<path
   class="st1"
   d="m 164.6,275.9 c 0,0 0,0 0,0 3.2,1.4 6.9,1.2 10.4,0.8 2.2,-0.3 4.6,-0.7 6.7,-1.7 1.2,-0.6 2,-1.5 2.8,-2.5 0,-0.1 -0.1,-0.2 -0.1,-0.3 -0.3,-0.8 -0.9,-1.6 -1.7,-1.8 -0.2,-0.1 -0.5,-0.1 -0.7,-0.1 -0.1,0 -0.1,0 -0.2,0 -2.1,2.4 -5.8,3.4 -8.8,3.6 -2.3,0.1 -6,-0.1 -7.4,-2.3 -0.4,0.2 -0.8,0.4 -1.1,0.6 -0.4,0.2 -0.8,0.6 -1,1.1 -0.1,0.3 -0.1,0.5 -0.1,0.8 0,0.2 0,0.5 0.1,0.7 0.1,0.4 0.6,0.8 1.1,1.1 z"
   id="path101"
   inkscape:connector-curvature="0"
   style="fill:#e3bc39" />
	<path
   class="st8"
   d="m 197.5,283.6 c -0.7,-1.6 -1.9,-2.9 -3.3,-3.9 -1.4,-1 -3,-1.7 -4.6,-2.4 -2,-0.9 -4,-1.8 -6,-2.7 0.1,-0.1 0.1,-0.1 0.2,-0.2 -2.2,1.9 -5.6,2.5 -8.3,2.9 -3,0.4 -6.5,0.8 -9.5,-0.2 0,0.8 0,1.6 0.2,2.3 0.2,0.9 0.6,1.8 1.4,2.4 0.4,0.3 0.9,0.5 1.4,0.7 8.8,3.3 18.5,3.9 27.9,2.5 0.2,0 0.4,-0.1 0.6,-0.2 0.3,-0.2 0.2,-0.8 0,-1.2 z"
   id="path103"
   inkscape:connector-curvature="0"
   style="fill:#7f5336" />
	<path
   class="st2"
   d="m 225.4,200.7 c -0.4,-1 -1.4,-1.7 -2.4,-2 -1,-0.3 -2.1,-0.4 -3.2,-0.3 -1.9,0.1 -3.9,0.3 -5.7,1.1 -1.9,0.8 -3.5,2.2 -5.1,3.5 -1.1,0.9 -2.2,1.9 -3.1,3 -0.9,1.2 -1.5,2.5 -2,3.9 -1,2.9 -1.7,6 -2,9.1 -0.3,2.7 -0.4,5.5 -1.3,8 -0.8,2.2 -2.4,4.3 -4.5,5.2 0.3,2.5 0.2,5.1 -0.1,7.5 4.4,-1.2 8.8,-3.5 10.8,-7.5 1.7,-3.3 1.5,-7.2 1.6,-11 0.1,-3.4 0.4,-6.8 1.6,-9.9 1.3,-3.1 3.6,-5.9 6.7,-7.2 2.6,-1 5.5,-1 8,-2.2 0.2,-0.1 0.5,-0.3 0.6,-0.5 0.3,-0.3 0.2,-0.5 0.1,-0.7 z"
   id="path105"
   inkscape:connector-curvature="0"
   style="fill:#a96ec0" />
	<path
   class="st6"
   d="m 193.4,244.2 c 0.3,-0.3 0.5,-0.7 0.7,-1 0.2,-0.8 0.4,-1.6 0.6,-2.4 0.4,-2.1 0.5,-4.3 0.4,-6.5 -0.1,-1.6 -0.4,-3.2 -0.4,-4.8 -0.8,-2.7 -2.2,-5.2 -3.6,-7.7 -1.7,-3.1 -3.4,-6.2 -4.9,-9.4 -0.1,-0.2 -0.2,-0.5 -0.3,-0.7 0.1,8.2 -1.4,16.3 -6.9,22.9 -0.2,0.2 -0.5,-0.1 -0.4,-0.3 3.6,-5.8 5.5,-11.7 5.8,-18.6 0.2,-3.1 0.1,-6.2 0,-9.3 -0.1,-1.5 -0.3,-3.2 -0.4,-4.9 -0.1,-0.6 -0.3,-1.2 -0.5,-1.9 -0.8,-3 -1.5,-6 -2.3,-9 -0.7,-2.7 -1.4,-5.3 -3.1,-7.4 -1.6,-1.9 -3.2,-3.8 -4.6,-5.7 -1,-1.4 -2.9,-3.6 -4,-5.8 -3.2,1.2 -6.6,2 -10.1,2.5 0.4,5 1,10 1.5,15 0.5,5.7 1.2,11.4 1.7,17.1 0.2,2.4 1,5.2 0.3,7.5 -0.6,1.8 -2.1,3.3 -3.4,4.6 -3.5,3.5 -7.5,6.7 -10.8,10.4 -0.1,0.2 -0.3,0.4 -0.5,0.3 2.6,4.9 5,9.8 8.8,13.9 0.1,0.1 -0.1,0.3 -0.2,0.2 -4.3,-3.5 -7.7,-8.8 -9,-14.2 0,0 0,-0.1 0,-0.1 -0.3,-0.2 -0.6,-0.4 -0.9,-0.6 0.2,1.4 0.1,2.9 0.1,4.3 0,2 -0.1,4.1 -0.2,6.1 -0.2,2 -0.4,4 -0.6,6 0.3,0.5 0.6,1 1,1.4 0.9,1.1 2.1,1.9 3.3,2.7 3.6,2.4 7.3,4.7 11,6.8 2.4,0.6 4.8,2.3 7.1,0.5 1.1,-0.9 1.9,-2 3,-2.8 -2.6,0.4 -5.9,0.1 -8.4,-0.8 -2.6,-0.9 -4.4,-2.9 -6.5,-4.7 -0.1,-0.1 0,-0.2 0.1,-0.1 2.4,1.3 4.4,3.3 7,4.1 2.3,0.7 4.5,0.4 6.8,0.6 -4.2,-2.5 -7.6,-7.4 -9.1,-11.6 -0.1,-0.2 0.2,-0.3 0.3,-0.1 1.9,3.8 4.2,6.8 7.6,9.3 1.7,1.3 3.3,2.6 5.5,2.7 0.8,0 1.5,0 2.3,-0.2 0,0 0,0 0,0 1,-2.2 3.1,-4.6 5.3,-5.7 1.5,-0.7 3.3,-0.8 4.7,-1.6 1.4,-0.8 2,-2.3 2.3,-3.8 0.8,-3.4 1.4,-6.5 0.3,-9.9 -1,-3.1 -2.7,-6.1 -3.5,-9.3 0,-0.1 0.1,-0.1 0.1,-0.1 1.8,3.2 3.6,6.7 4.7,10.2 0.9,2.9 0.2,5.8 -0.4,8.7 -0.5,2.3 -1.3,4.3 -3.5,5.3 -1.8,0.8 -3.8,1 -5.4,2.2 -0.8,0.6 -1.4,1.3 -1.9,2.1 0.1,0 0.2,0 0.2,0.1 1.4,0.5 2.9,0.4 4.2,0 1.4,-0.4 2.6,-1.1 3.8,-1.9 0.7,-0.5 1.4,-0.8 2.1,-1.4 1,-0.9 2.2,-1.9 3.2,-3.2 z m -22.9,-4.6 c -3.2,-2 -6.7,-4.2 -9.4,-6.9 -2.7,-2.7 -4.2,-6.2 -5.7,-9.7 -0.1,-0.3 0.2,-0.5 0.4,-0.2 2.3,3 3.8,6.6 6.4,9.4 2.5,2.7 5.6,4.9 8.5,7.2 0.1,0 -0.1,0.3 -0.2,0.2 z m 3.6,-9.3 c -2.7,-1 -5.7,-1.6 -8.1,-3.3 -2.3,-1.7 -3.6,-4.1 -4.9,-6.7 -0.1,-0.3 0.2,-0.5 0.4,-0.2 1.4,2.1 3.1,4.2 5.1,5.8 2.2,1.9 5,2.9 7.6,4.2 0.1,0.1 0,0.2 -0.1,0.2 z"
   id="path107"
   inkscape:connector-curvature="0"
   style="fill:#226ad0" />
	<path
   class="st9"
   d="m 159.5,206.9 c -0.3,-3.7 -0.5,-7.4 -0.8,-11.1 -0.3,-3.8 -0.7,-7.6 -1.1,-11.4 -0.3,-3.2 -0.7,-6.6 -0.6,-9.8 -5,0.5 -10.1,0.5 -14.9,0.3 -1.6,-0.1 -3.5,0 -5.5,0 0,3.5 -0.3,7 -0.7,10.4 -0.3,3.9 -0.6,7.7 -0.9,11.6 -0.3,3.8 -0.8,7.5 -1.2,11.3 -0.1,1 -0.2,2 0.2,3 0.3,0.8 0.9,1.5 1.5,2.2 1.1,1.2 2.2,2.4 3.3,3.6 2.5,2.6 5,5 8.1,6.9 0,0 0,0 0,0 0,0 0,0 0.1,0 0,0 0,0 0,0 1.9,-0.8 3.4,-2.1 5,-3.4 1.6,-1.3 3.2,-2.5 4.5,-4 1.3,-1.4 2.4,-2.8 2.8,-4.7 0.4,-1.7 0.3,-3.3 0.2,-4.9 z"
   id="path109"
   inkscape:connector-curvature="0"
   style="fill:#000005" />
	<path
   class="st10"
   d="m 140.5,203.9 c 3.5,1.7 6.9,-0.8 9,-3.4 2.3,-3 3.8,-6.6 4.7,-10.2 1.1,-4.6 2.1,-9.3 2.9,-14 0,0 0,0 0,0 0,-0.4 0,-0.9 0,-1.3 -0.7,1.5 -1.4,3 -2.1,4.5 -1.5,3.2 -3.3,6.1 -5.1,9.1 -1.5,2.5 -3.1,5.1 -5.5,6.9 -2.2,1.7 -4.7,2.5 -7.4,1.4 -0.6,-0.3 -1.2,-0.6 -1.8,-1 0,0.3 0,0.7 -0.1,1 0,0.4 -0.1,0.8 -0.1,1.1 1.4,2.4 3.1,4.8 5.5,5.9 z"
   id="path111"
   inkscape:connector-curvature="0"
   style="opacity:0.15;fill:#ffffff" />
	<path
   class="st10"
   d="m 140.2,206.7 c 1.3,1.1 2.9,1.7 4.6,1.1 1.4,-0.5 2.7,-1.6 3.7,-2.7 2.3,-2.4 3.9,-5.3 4.7,-8.6 0.5,-2 1,-4.1 1.5,-6.1 0.1,-0.5 0.2,-1 0.3,-1.4 0.9,-3.8 1.6,-7.7 2.2,-11.6 0,-0.3 0,-0.7 0,-1 -0.7,4.7 -1.6,9.3 -2.6,13.9 -0.7,3.2 -1.8,6.2 -3.5,9 -1.3,2.2 -3.1,4.5 -5.6,5.5 -4.9,2 -8.3,-2.3 -10.4,-6.3 0,0.2 0,0.3 0,0.5 1.3,2.8 2.7,5.7 5.1,7.7 z"
   id="path113"
   inkscape:connector-curvature="0"
   style="opacity:0.15;fill:#ffffff" />
	<path
   class="st10"
   d="m 147.5,206.8 c -2.3,2.1 -5.1,2.6 -7.6,0.6 -2.5,-2 -3.9,-5.1 -5.1,-8 0,0.3 -0.1,0.6 -0.1,0.9 1.3,2.7 2.4,5.5 4.2,7.9 1.1,1.6 2.6,3.3 4.5,3.7 1.7,0.4 3.1,-0.3 4.3,-1.5 2.6,-2.7 3.8,-6.9 4.7,-10.4 0.1,-0.3 0.2,-0.7 0.3,-1 -1,2.9 -2.9,5.7 -5.2,7.8 z"
   id="path115"
   inkscape:connector-curvature="0"
   style="opacity:0.15;fill:#ffffff" />
	<path
   class="st2"
   d="m 161.3,203.7 c -0.4,-5.4 -1.3,-10.8 -1.6,-16.2 -0.3,-4.3 -1.1,-8.8 -1,-13.1 -0.4,0 -0.7,0.1 -1.1,0.1 0.1,1.8 0.1,3.5 0.3,5.3 0.2,2.3 0.4,4.6 0.6,6.9 0.4,4.1 0.8,8.2 1.1,12.3 0.2,2 0.3,4 0.4,6.1 0.1,1.6 0.3,3.2 0.2,4.8 -0.1,3.4 -2,5.8 -4.3,8.1 -1.3,1.3 -2.8,2.4 -4.2,3.6 -1.3,1.1 -2.6,2.1 -4.1,2.7 -0.1,0 -0.1,0 -0.2,0 0,0 0,0 0,0 -0.3,0.1 -0.4,-0.1 -0.6,-0.3 0,0 0,0 0,0 -3.5,-2 -6.4,-4.9 -9,-7.8 -1.1,-1.2 -2.3,-2.4 -3.3,-3.6 -1,-1.2 -1.2,-2.4 -1,-3.9 0.3,-4 0.9,-8 1.3,-12 0.3,-4.1 0.6,-8.2 0.9,-12.3 0.3,-3.2 0.6,-6.3 0.8,-9.5 -0.5,0 -0.9,0 -1.4,0 0.3,9.7 -1.2,19.5 -2.8,29.1 -0.4,2.8 -1.5,6.8 0.4,9.2 1.4,1.8 3.2,3.3 4.8,5 2.8,2.9 5.5,5.8 8.6,8.4 0.1,0 0.3,0 0.3,0.2 0,0.1 0,0.1 0,0.2 0.5,0.4 1.1,0.8 1.6,1.2 3,-3.5 6.8,-6.5 10.1,-9.6 2.3,-2.1 4.1,-4 3.9,-7.3 -0.2,-2.7 -0.6,-5.2 -0.7,-7.6 z"
   id="path117"
   inkscape:connector-curvature="0"
   style="fill:#a96ec0" />
	<path
   class="st6"
   d="m 126.2,166.2 c 0,0.3 -0.3,0.5 -0.5,0.7 -0.4,0.4 -0.5,1.1 -0.2,1.6 0,0.1 0.1,0.1 0.1,0.2 2.9,1.6 7.2,0.9 10.2,1.2 3.7,0.4 7.4,1.2 11.2,1.5 3.8,0.3 7.2,-0.6 10.9,-1.1 3.7,-0.5 7.3,-1.2 10.7,-2.7 0,0 0,0 0,-0.1 -1.6,0.1 -3.3,0.1 -4.9,0.4 -1.6,0.3 -3.1,0.7 -4.7,1 -2.9,0.5 -5.8,1.1 -8.7,1.4 -3.2,0.3 -6.3,-0.5 -9.3,-1.1 -2.3,-0.5 -4.8,-0.9 -6.7,-2.3 0,0 0,-0.1 0,-0.1 -0.1,-0.1 -0.2,-0.1 -0.3,-0.2 -0.1,-0.1 0,-0.2 0.1,-0.2 4.2,2 9.9,-0.2 14.3,-0.5 3.1,-0.3 6.2,-0.4 9.3,-0.8 0.8,-0.1 1.7,-0.3 2.5,-0.5 -3.8,0.3 -7.7,0.1 -11.5,-0.2 -4.2,-0.4 -8.4,-1.1 -12.6,-1.2 -3.2,-0.1 -6.6,0.5 -9.8,0.3 -0.1,0 -0.2,0 -0.3,0.1 -0.7,0.2 -1,1.3 -0.5,1.9 0.3,0.1 0.8,0.4 0.7,0.7 z"
   id="path119"
   inkscape:connector-curvature="0"
   style="fill:#226ad0" />
	<path
   class="st11"
   d="m 158.8,171 c -4.4,0.6 -8.2,1.6 -12.6,1.1 -4.5,-0.4 -9,-1.5 -13.6,-1.7 -2.3,-0.1 -4.6,0.1 -6.4,-0.9 0.2,0.6 -0.2,1.3 -0.6,1.9 -0.1,0.1 -0.1,0.2 -0.2,0.3 2.4,1.5 5.4,1.8 8.1,1.9 3.6,0.1 7.2,0.1 10.8,0.4 4.2,0.3 8.3,-0.1 12.5,-0.6 4.2,-0.4 8,-1.5 12.1,-2.4 -0.3,-0.8 -0.5,-1.7 -0.4,-2.4 -2.9,1.4 -6.4,1.9 -9.7,2.4 z"
   id="path121"
   inkscape:connector-curvature="0"
   style="fill:#0149af" />
	<path
   class="st11"
   d="m 168.8,163.9 c 0,-0.1 -0.1,-0.3 -0.1,-0.4 -1.2,0.5 -2.5,0.7 -3.8,0.8 -5.8,1.8 -12.1,1.9 -18.1,2.6 -2.5,0.3 -5.7,1.2 -8.6,1.1 4.7,1.4 10,1.8 14.7,1 5.3,-0.9 11,-2.8 16.5,-2.3 0.5,-1.2 -0.3,-1.7 -0.6,-2.8 z"
   id="path123"
   inkscape:connector-curvature="0"
   style="fill:#0149af" />
	<path
   class="st11"
   d="m 118.4,201.6 c -0.5,-0.7 -0.8,0.1 -0.8,0.6 0,0.2 -0.1,0.4 -0.1,0.6 0.5,7.6 0.6,15.4 -3.5,22.1 0,0.1 0.2,0.1 0.6,-0.2 0.3,-0.3 0.6,-0.6 0.8,-1 0.4,-0.6 0.6,-1.3 0.9,-2 0.5,-1.5 0.8,-3 1.2,-4.5 0.8,-3.3 1.3,-6.7 1.3,-10.2 0,-0.9 0,-1.8 0,-2.6 -0.1,-0.7 0.1,-2.1 -0.4,-2.8 z"
   id="path125"
   inkscape:connector-curvature="0"
   style="fill:#0149af" />
	<path
   class="st11"
   d="m 109.2,208.7 c 0,3.3 -0.3,6.6 -0.6,9.9 -0.1,1.6 -0.5,3.2 -0.4,4.7 0,0.6 0.2,1.4 1,1.1 0.4,-0.2 0.8,-0.7 1,-1.1 0.6,-0.9 0.9,-1.8 1.3,-2.8 0.4,-5.5 1.4,-10.9 1.3,-16.5 0,-2.6 -0.3,-5.1 -0.5,-7.7 -0.2,0.4 -0.4,0.8 -0.7,1.2 -1,1.6 -2,3.2 -3,4.8 0.3,2.2 0.6,4.3 0.6,6.4 z"
   id="path127"
   inkscape:connector-curvature="0"
   style="fill:#0149af" />
	<path
   class="st11"
   d="m 163,252.6 c -2.6,-0.9 -4.4,-2.9 -6.5,-4.7 -0.1,-0.1 0,-0.2 0.1,-0.1 2.4,1.3 4.4,3.3 7,4.1 2.3,0.7 4.5,0.4 6.8,0.6 -3.5,-2.1 -6.5,-5.9 -8.2,-9.6 -0.9,-1.3 -1.7,-2.7 -2.5,-4.1 -2.5,-4.4 -4.7,-9 -5.8,-14 -0.1,-0.3 -0.2,-0.7 -0.2,-1.1 -1.8,1.7 -3.6,3.4 -5.2,5.2 -0.1,0.2 -0.3,0.4 -0.5,0.3 2.6,4.9 5,9.8 8.8,13.9 0.1,0.1 -0.1,0.3 -0.2,0.2 -4.3,-3.5 -7.7,-8.8 -9,-14.2 0,0 0,-0.1 0,-0.1 -0.3,-0.2 -0.6,-0.4 -0.9,-0.6 0.2,1.4 0.1,2.9 0.1,4.3 0,2 -0.1,4.1 -0.2,6.1 -0.2,2 -0.4,4 -0.6,6 0.3,0.5 0.6,1 1,1.4 0.9,1.1 2.1,1.9 3.3,2.7 3.6,2.4 7.3,4.7 11,6.8 2.4,0.6 4.8,2.3 7.1,0.5 1.1,-0.9 1.9,-2 3,-2.8 -2.7,0.4 -5.9,0.1 -8.4,-0.8 z"
   id="path129"
   inkscape:connector-curvature="0"
   style="fill:#0149af" />
	<path
   class="st11"
   d="m 162.4,206.3 c 0.2,2.4 1,5.2 0.3,7.5 -0.6,1.8 -2.1,3.3 -3.4,4.6 -1.3,1.3 -2.7,2.5 -4,3.8 0.5,0.4 0.9,1 1.1,1.4 0.1,0.1 0.2,0.3 0.2,0.4 1.8,2.7 3.2,5.7 5.5,8.1 2.3,2.4 5,4.5 7.6,6.5 1.2,0.1 1,-1.6 1.1,-2.4 0.1,-1.1 0.3,-2.2 0.4,-3.3 0.1,-1.3 0.2,-2.9 -0.9,-3.8 0,0 -0.1,0 -0.1,-0.1 -1.5,-0.5 -3,-1.1 -4.3,-2.1 -2.3,-1.7 -3.6,-4.1 -4.9,-6.7 -0.1,-0.3 0.2,-0.5 0.4,-0.2 1.2,1.8 2.5,3.5 4.1,5 -0.1,-0.2 -0.1,-0.5 -0.1,-0.8 -0.2,-1.9 0.4,-4 0.6,-5.9 0.3,-2.6 0.5,-5.1 0.5,-7.7 0.1,-5.3 -0.3,-10.5 -0.9,-15.8 -0.3,-2.5 -0.7,-5 -1,-7.6 -0.3,-2.4 -0.3,-4.8 0.5,-7.1 0.6,-1.9 1.8,-3.5 3.2,-4.9 0.7,-0.6 1.4,-1.1 2.1,-1.7 -0.4,-0.6 -0.8,-1.3 -1.1,-1.9 -3.2,1.2 -6.6,2 -10.1,2.5 0.4,5 1,10 1.5,15 0.6,5.8 1.2,11.5 1.7,17.2 z"
   id="path131"
   inkscape:connector-curvature="0"
   style="fill:#0149af" />
	<path
   class="st11"
   d="m 195.1,234.4 c -0.1,-1.6 -0.4,-3.2 -0.4,-4.8 -0.8,-2.7 -2.2,-5.2 -3.6,-7.7 -1.7,-3.1 -3.4,-6.2 -4.9,-9.4 -0.1,-0.2 -0.2,-0.5 -0.3,-0.7 0,4.8 -0.5,9.7 -2,14.1 0.9,-1.1 2,-2 3.1,-1.1 0,0 0.1,0.1 0.1,0.1 -0.3,-0.9 -0.6,-1.7 -0.9,-2.6 0,-0.1 0.1,-0.1 0.1,-0.1 1.8,3.2 3.6,6.7 4.7,10.2 0.9,2.9 0.2,5.8 -0.4,8.7 -0.5,2.3 -1.3,4.3 -3.5,5.3 -1.8,0.8 -3.8,1 -5.4,2.2 -0.7,0.6 -1.2,1.4 -1.7,2.1 0,0 0,0 0,0 1.4,0.5 2.9,0.4 4.2,0 1.4,-0.4 2.6,-1.1 3.8,-1.9 0.7,-0.5 1.4,-0.8 2.1,-1.4 1.2,-1.1 2.4,-2.1 3.3,-3.4 0.3,-0.3 0.5,-0.7 0.7,-1 0.2,-0.8 0.4,-1.6 0.6,-2.4 0.4,-1.9 0.5,-4.1 0.4,-6.2 z"
   id="path133"
   inkscape:connector-curvature="0"
   style="fill:#0149af" />
	<path
   class="st11"
   d="m 130,179.9 c 0.6,1.8 0.4,3.9 0.1,5.8 -0.4,2.3 -0.9,4.6 -1,6.9 -0.4,5 -0.8,9.9 -1.4,14.8 -0.3,2.7 0,5 1.8,7.1 1.4,1.6 3.1,2.8 4.7,4.3 2.8,2.7 5.6,5.9 6.7,9.7 0.9,-0.9 1.7,-1.8 2.5,-2.9 0,0 0,0 0,0 -2.4,-2.2 -4.6,-4.8 -6.9,-7.1 -1.6,-1.7 -3.5,-3.3 -4.9,-5.2 -1.2,-1.6 -1.1,-3.3 -0.9,-5.2 0.2,-2.6 0.8,-5.2 1.2,-7.8 0.5,-3.1 0.7,-6.3 1.1,-9.4 0.5,-5.3 1.2,-10.7 1.6,-16 -3.5,-0.1 -7,-0.6 -9.2,-2.6 -0.7,1.1 -1.5,2.2 -2.3,3.2 2.8,0 5.7,1 6.9,4.4 z"
   id="path135"
   inkscape:connector-curvature="0"
   style="fill:#0149af" />
	<path
   class="st11"
   d="m 141.6,241.4 c -0.1,0.1 -0.3,0 -0.2,-0.1 1.2,-2.4 2.4,-4.7 3.1,-7.3 0.5,-2.1 0.8,-4.3 1.1,-6.5 -0.6,-0.5 -1.2,-1 -1.8,-1.5 -2.6,5.8 -9.1,7.9 -14.2,10.7 -0.1,0.1 -0.3,-0.1 -0.1,-0.2 0.7,-0.5 1.3,-0.9 2,-1.3 -0.1,0 -0.3,0.1 -0.4,0.1 -1.1,0.2 -2.1,0.3 -3.2,0.4 -0.4,0.2 -0.7,0.4 -1.1,0.5 -2,0.9 -4.2,1.4 -6.3,1.8 -0.3,0.1 -0.5,0.2 -0.8,0.3 -1.6,0.5 -3.1,1 -4.6,1.6 -1.4,0.5 -2.8,1.1 -4.3,1.3 -3,0.4 -5.4,-1.8 -7.5,-3.7 -1.8,-1.5 -3.4,-3.4 -4.8,-5.4 0,1.6 0.1,3.3 0.2,4.8 0.1,0.8 0.2,1.7 0.5,2.5 0.6,1.5 1.7,2.7 3,3.7 1.3,1 2.7,1.8 3.9,2.7 0.9,0.7 1.9,1.6 3,1.8 0.4,0.1 0.7,0.1 1.1,0.2 0,0 0,0 0,0 0.6,0 1.3,0 2,0.1 1.1,0.1 2,0.7 3.1,0.9 1.7,0.4 3.3,0.1 4.9,-0.3 0.1,0 0.1,0.1 0,0.1 -2.9,1.1 -4.6,1.1 -7.6,0.5 -0.4,-0.1 -0.7,-0.1 -1.1,-0.2 0.2,0.2 0.3,0.4 0.5,0.6 0.1,0.2 0.3,0.3 0.4,0.4 0.9,0.5 1.8,1.1 2.8,1.4 2.2,0.6 4.5,0.6 6.7,0.7 2.2,0.2 4.4,0.3 6.6,-0.3 2.2,-0.7 3.6,-2.2 5.5,-3.4 0.1,-0.1 0.2,0.1 0.2,0.2 -1,1.5 -2.2,2.6 -3.4,3.3 1.4,0.2 2.9,-0.1 4.2,-0.8 1.3,-0.7 2.5,-1.6 3.6,-2.5 2.3,-1.8 4.5,-3.7 6.4,-5.9 0.2,-1.5 0.4,-2.9 0.6,-4.4 0.2,-1.8 0.2,-3.7 0.2,-5.5 -0.8,3.3 -2.3,6.2 -4.2,8.7 z"
   id="path137"
   inkscape:connector-curvature="0"
   style="fill:#0149af" />
	<path
   class="st2"
   d="m 116,239 c -1.6,0.4 -3.2,0.9 -4.7,1.6 0.6,-0.1 1.2,-0.3 1.8,-0.5 1,-0.3 2,-0.7 2.9,-1.1 z"
   id="path139"
   inkscape:connector-curvature="0"
   style="fill:#a96ec0" />
	<path
   class="st4"
   d="m 123.9,32.6 c 4.3,7.5 7.8,15.8 10.2,24.1 1,3.4 1.7,6.8 2,10.3 0.1,1.4 0.2,2.7 0.1,4.1 0,0.5 0,1.2 -0.3,1.6 1.9,-0.8 3.9,-1.4 5.9,-1.6 -1,-8.3 -3.2,-14.7 -5.1,-19.1 -2.4,-5.7 -5.2,-10.1 -11.3,-18.7 -1.5,-2.1 -3,-4.1 -4.7,-6.1 1.2,1.9 2.2,3.6 3.2,5.4 z"
   id="path141"
   inkscape:connector-curvature="0"
   style="fill:#7a3d9a" />
	<path
   class="st4"
   d="m 107.3,81.1 c -2,-7.5 0,-13.4 3.6,-20.2 -5.7,4.4 -8,14.1 -3.6,20.2 z"
   id="path143"
   inkscape:connector-curvature="0"
   style="fill:#7a3d9a" />
	<path
   class="st4"
   d="m 160.7,72 c -0.4,-1.6 -0.1,-3.4 0.1,-5 0.2,-1.9 0.6,-3.8 1,-5.8 0.8,-4.2 1.7,-8.4 2.8,-12.5 0.3,-1.3 0.7,-2.6 1,-3.9 -1.8,4.1 -3.5,8.3 -5.1,12.6 -1.6,4.2 -3.3,9 -3.5,13.6 1.2,0 2.6,0.3 3.7,1 z"
   id="path145"
   inkscape:connector-curvature="0"
   style="fill:#7a3d9a" />
	<path
   class="st4"
   d="m 175.8,46.2 c -1.4,5.2 -2.3,10.6 -2.7,16 -0.3,3.1 -1.5,9.9 0.8,12.4 2,2.1 5,1.4 6.5,4.4 0.9,1.8 1.3,3.5 2.8,5.1 0.1,0.1 0.3,0.3 0.4,0.4 -1.3,-1.6 -1.8,-3.7 -2.2,-5.7 -0.4,-2.5 -0.9,-4.8 -1.7,-7.2 -0.7,-2.4 -1.5,-4.7 -1.9,-7.2 -0.4,-2.4 -0.5,-4.9 -0.4,-7.4 0.2,-5.2 1,-10.3 2.3,-15.3 1.2,-4.6 2.6,-9.3 4.4,-13.7 0.9,-2.2 1.9,-4.4 2.3,-6.7 0.1,-0.3 0.4,-1.8 0.1,-2.1 -0.3,-0.3 -0.7,0.1 -1.1,0.3 -0.3,0.2 -0.7,0.5 -1,0.9 -1.8,3.8 -2.8,7.9 -4.2,11.9 -1.5,4.5 -3.1,9.1 -4.4,13.9 z"
   id="path147"
   inkscape:connector-curvature="0"
   style="fill:#7a3d9a" />
	<path
   class="st4"
   d="m 154.6,102.9 c -0.1,-0.1 0,-0.2 0,-0.2 -0.6,-0.6 -1.2,-1.3 -1.6,-2.1 -0.1,0 -0.2,0 -0.3,0 -0.8,-1.2 -1.7,-2.3 -1.4,-3.8 0.3,-1.4 1.2,-2.6 2,-3.7 0.9,-1.1 1.9,-2.1 2.9,-3.2 -2.4,1.6 -5.5,2.8 -8.2,3.3 -2.8,0.5 -5.6,0.3 -7.9,-1.1 2.4,2 4.2,4.5 3.9,7.8 0,0.1 -0.1,0.2 -0.1,0.2 0.1,1 -0.2,2.1 -0.6,3.1 0.7,-0.6 1.4,-1.1 2.1,-1.4 0.1,-0.1 0.3,0.1 0.1,0.2 -0.5,0.5 -1,0.9 -1.4,1.4 1.4,-0.9 3,-1.5 4.8,-1.5 2.1,0 4.3,0.5 6.2,1.4 -0.1,-0.1 -0.3,-0.2 -0.5,-0.4 z"
   id="path149"
   inkscape:connector-curvature="0"
   style="fill:#7a3d9a" />
	<path
   class="st4"
   d="m 153.4,121.5 c -1.1,-1.8 -0.9,-3.7 -0.3,-5.5 -0.1,0.1 -0.3,0.2 -0.4,0.3 -0.9,0.6 -2,1.4 -3.1,1.3 -0.9,0 -1.9,-0.5 -2.7,-1.1 0.2,3.9 -2.7,7.5 -6.3,9.2 0.3,0 0.6,-0.1 1,-0.1 2.6,-0.5 4.9,-2.2 7.6,-2.5 2.5,-0.3 4.3,0.8 6.6,1.6 1.2,0.4 2.4,0.5 3.7,0.4 -2.5,-0.4 -4.8,-1.4 -6.1,-3.6 z"
   id="path151"
   inkscape:connector-curvature="0"
   style="fill:#7a3d9a" />
	<path
   class="st4"
   d="m 188.9,99.6 c -0.1,-0.3 -0.2,-0.7 -0.3,-1 0,0.3 -0.1,0.6 -0.1,0.9 -0.1,1.4 -0.3,2.8 -0.5,4.1 -0.6,3 -2.7,5.2 -4.8,7.4 -2.2,2.2 -4.2,4.8 -6.7,6.7 -2.5,1.9 -5.6,2 -8.4,3.2 -0.4,0.9 -0.9,1.9 -1.5,2.7 0.1,0 0.1,0 0.2,0 0.8,0 1.6,0.1 2.4,0 2.4,-0.3 4.6,-1.7 6.5,-3.2 4.9,-3.8 9,-8.5 12.2,-13.8 0.4,-0.7 0.8,-1.4 1.1,-2.2 0.4,-1.4 0.1,-3.1 -0.2,-4.5 -0.1,-0.2 0,-0.2 0.1,-0.3 z"
   id="path153"
   inkscape:connector-curvature="0"
   style="fill:#7a3d9a" />
	<path
   class="st4"
   d="m 113.1,111.1 c -2.1,-3.1 -4.2,-6.5 -5.3,-10.1 -0.5,-1.6 -0.4,-3.1 -0.2,-4.8 0,-0.4 0.1,-0.7 0.2,-1.1 -0.2,0.3 -0.5,0.6 -0.7,1 0,0 0.1,0 0.1,0 -1.5,1.5 -1.4,4.4 -1,6.5 0.4,2.1 1.4,4.1 2.5,6 1.1,2 2.2,3.9 3.2,5.9 0.6,1.1 1.2,2.2 2.1,3.1 0.7,0.7 1.6,1.3 2.5,1.8 2.3,1.4 4.6,2.9 7.1,3.7 1.5,0.5 3,0.8 4.5,0.9 -6.2,-2.6 -11.3,-7.4 -15,-12.9 z"
   id="path155"
   inkscape:connector-curvature="0"
   style="fill:#7a3d9a" />
	<path
   class="st2"
   d="m 182.7,58.4 c 1.9,2.9 3.5,6.2 3.9,9.6 0.2,2.2 -0.4,4.4 -1.2,6.5 1.5,-2.1 2.9,-4.4 2.6,-7 -0.4,-3.5 -3.2,-6.4 -5.3,-9.1 z"
   id="path157"
   inkscape:connector-curvature="0"
   style="fill:#a96ec0" />
	<path
   class="st4"
   d="m 121.6,71.7 c -0.1,-8 -2.7,-16.1 -4.8,-23.8 -1.3,-4.8 -2.8,-9.7 -4.4,-14.5 0.2,1 0.4,1.9 0.6,2.9 1.7,8.3 3.5,16.7 4.5,25.1 0.8,6.9 1.3,14.5 -2.1,20.8 0.7,-0.4 1.5,-0.8 2.2,-1.3 3.3,-2.2 4,-5.5 4,-9.2 z"
   id="path159"
   inkscape:connector-curvature="0"
   style="fill:#7a3d9a" />
	<path
   class="st4"
   d="m 185.5,61.5 c -0.9,-1.3 -2,-2.6 -3.2,-3.7 1,1.5 2,3.1 2.7,4.8 0.8,1.7 1.4,3.2 1.5,5.3 0.1,2 -0.3,3.5 -1,5.7 -0.5,1.8 -1.1,3.3 -1.6,4.3 1,-0.9 2.4,-2.5 3.5,-4.8 0.9,-2 1.9,-4 1.3,-6.3 -0.1,-0.9 -1.1,-2.4 -3.2,-5.3 z"
   id="path161"
   inkscape:connector-curvature="0"
   style="fill:#7a3d9a" />
	<path
   class="st2"
   d="m 156.7,126 c -3,-0.6 -5.4,-2.4 -8.8,-1.6 -2.2,0.6 -4.1,1.5 -6.2,2 4.7,2.2 10,1.4 15,-0.4 z"
   id="path163"
   inkscape:connector-curvature="0"
   style="fill:#a96ec0" />
	<path
   class="st4"
   d="m 157.7,126.2 c -2.3,0.9 -4.6,1.5 -6.9,1.8 -3.3,0.4 -6.6,0.1 -9.5,-1.4 -0.9,0.2 -1.9,0.3 -2.9,0.2 -0.8,-0.1 -1.6,-0.2 -2.4,-0.4 1.5,0.7 3,1.5 4.7,2 2.6,0.8 5.4,1.6 8.2,1.6 2.8,0 5.5,-0.7 8.1,-1.6 1.9,-0.6 3.3,-1.6 4.8,-2.6 -1.4,0.3 -2.7,0.4 -4.1,0.4 z"
   id="path165"
   inkscape:connector-curvature="0"
   style="fill:#7a3d9a" />
	<path
   class="st2"
   d="m 84.2,129.8 c 1.8,1.3 4.3,0.5 6.2,-0.6 0,-0.1 0.1,-0.3 0.1,-0.4 0,-0.1 0.3,-0.1 0.3,0 0.1,0.8 0.1,1.4 -0.1,1.9 1.1,2.1 3.3,3.8 3.6,6.3 0.2,1.4 -0.5,2.6 -0.9,3.9 -0.4,1.2 -0.4,2.4 -0.6,3.7 -0.1,0.8 -0.3,1.9 -1,2.3 -0.1,0.1 -0.2,0.1 -0.4,0.1 0.5,0.5 1,1 1.4,1.6 0.3,-0.2 0.6,-0.4 0.9,-0.6 1.5,-0.7 2.9,0.1 4.4,0.1 1.8,0 2.9,-1.6 4.6,-1.9 1.8,-0.3 3.7,0.5 5.3,1.2 1.2,0.5 4.7,2.8 5.4,0.6 0.3,-0.9 -0.5,-2.1 -1.2,-2.9 -0.5,-0.2 -1,-0.4 -1.4,-0.6 -2.1,-1 -3.6,-2.8 -4.9,-4.7 -0.2,-0.1 -0.4,-0.2 -0.6,-0.3 -0.5,-0.2 -1,-0.4 -2.5,-0.8 -0.9,-0.2 -2.1,-0.6 -3.5,-0.9 0,-0.4 -0.1,-0.9 -0.2,-1.5 -0.6,-4.3 -1.1,-7.6 -3,-10.1 -2,-2.6 -5.9,-4.7 -9.3,-3.8 -0.5,0.1 -3,0.9 -3.9,3.2 -0.2,0.6 -0.3,1.2 -0.2,1.7 0.4,0.9 0.8,1.8 1.5,2.5 z m 3.5,-5.2 c 0.8,0.1 1.1,1.2 0.2,1.5 -0.1,0 -0.1,0.1 -0.1,0.1 0,0.1 0,0.1 0,0.2 0,0.4 0,0.7 0,1.1 0,0.6 0.4,1.1 0.5,1.7 0,0.1 -0.1,0.2 -0.2,0.2 -0.3,-0.1 -0.5,-0.5 -0.7,-0.8 -0.3,-0.5 -0.7,-1 -0.9,-1.5 -0.4,-1 -0.1,-2.6 1.2,-2.5 z"
   id="path167"
   inkscape:connector-curvature="0"
   style="fill:#a96ec0" />
	<path
   class="st4"
   d="m 115.3,147.4 c -0.6,-1.1 -1.6,-1.6 -2.7,-2 1,1.3 1.8,3.2 -0.2,3.8 -1.4,0.4 -2.7,-0.4 -3.9,-1 -1.8,-0.8 -4.2,-2.1 -6.2,-1.6 -1.4,0.4 -2.4,1.6 -3.9,1.8 -2,0.2 -3.8,-1.1 -5.6,0.5 -1.1,0.9 -2,2.1 -3.3,2.8 -1.2,0.6 -2.7,0.6 -3.9,0.2 -2.2,-0.8 -3.8,-3.1 -4.3,-5.4 -0.2,0.2 -0.5,0.4 -0.8,0.6 0,1.6 0.4,3.2 1.4,4.3 1.9,2.1 4.4,2.2 4.7,2.2 0,0 0,0.1 0,0.1 3,-0.1 5.9,-1.8 7.8,-4 -0.2,-0.2 -0.5,-0.4 -0.7,-0.6 -0.1,-0.2 0,-0.4 0.2,-0.3 1.7,1.1 3.8,1.5 5.7,0.9 1.3,-0.4 2.2,-1.5 3.6,-1.7 2.6,-0.5 5.1,2.3 7.5,2.8 2.8,0.6 6.4,-0.3 4.6,-3.4 z"
   id="path169"
   inkscape:connector-curvature="0"
   style="fill:#7a3d9a" />
	<path
   class="st2"
   d="m 84,150.5 c 1.5,1.4 3.9,2 5.7,0.9 1,-0.6 1.8,-1.6 2.7,-2.5 -0.8,-0.5 -1.7,-1 -2.5,-1.5 -0.3,-0.2 -0.6,-0.3 -0.8,-0.5 -1,-0.3 -2,-0.6 -3,-0.9 -1.3,-0.3 -2.5,-0.6 -3.8,-1 -0.2,0.5 -0.4,0.9 -0.7,1.3 0.5,1.6 1.2,3.1 2.4,4.2 z"
   id="path171"
   inkscape:connector-curvature="0"
   style="fill:#a96ec0" />
	<path
   class="st4"
   d="m 90.2,129.6 c -1.4,1.2 -3.8,1.5 -5.5,0.7 0.2,0.1 0.4,0.3 0.6,0.4 1.9,0.8 4.1,0.8 4.9,-1.1 z"
   id="path173"
   inkscape:connector-curvature="0"
   style="fill:#7a3d9a" />
	<path
   class="st4"
   d="m 86.2,141.3 c -0.4,0 -0.8,0 -1.2,-0.1 -0.2,1.5 -1.2,2.4 -2.5,2.7 0,0.4 -0.1,0.7 -0.1,1 1.8,0.5 3.6,0.9 5.3,1.3 -0.1,-0.1 -0.3,-0.2 -0.4,-0.3 -0.2,-0.1 -0.1,-0.4 0.1,-0.4 1.3,-0.1 2.5,0.5 3.5,1.3 0.1,0 0.2,0 0.3,-0.1 1.2,-0.4 1.1,-2.5 1.2,-3.5 0.2,-2.3 1.7,-4.4 1.2,-6.7 -0.5,-2.1 -2.2,-3.6 -3.2,-5.4 -0.2,0.3 -0.4,0.5 -0.7,0.7 1.7,1.9 3.2,4.6 1.7,7 -1.1,1.7 -3.3,2.5 -5.2,2.5 z"
   id="path175"
   inkscape:connector-curvature="0"
   style="fill:#7a3d9a" />
	<path
   class="st2"
   d="m 80.2,142.4 c 0.4,-0.1 0.8,-0.2 1.1,-0.4 0.7,-0.5 1.1,-1.2 1.2,-2 -2,-1.7 -2.8,-4.8 -2.4,-7.6 -1,0.2 -1.9,0.7 -2.5,1.5 -0.6,0.8 -0.8,1.8 -1,2.9 0.2,1.3 0.5,2.6 1.2,3.7 0.6,0.8 1.5,1.5 2.4,1.9 z"
   id="path177"
   inkscape:connector-curvature="0"
   style="fill:#a96ec0" />
	<path
   class="st4"
   d="m 82.8,140.2 c -0.1,1.2 -1.2,2.1 -2.4,2.3 1.5,0.6 3.2,0.3 4.1,-1.4 -0.6,-0.2 -1.2,-0.5 -1.7,-0.9 z"
   id="path179"
   inkscape:connector-curvature="0"
   style="fill:#7a3d9a" />
	<path
   class="st2"
   d="m 76.3,145.5 c 1.8,0.3 2.6,-0.7 3.5,-1.9 -0.4,-0.1 -0.7,-0.3 -1,-0.5 -1.9,-1.2 -2.7,-3.2 -3,-5.3 -0.3,0.1 -0.6,0.3 -0.8,0.4 -0.4,0.3 -0.7,0.7 -0.9,1.2 -0.7,1.4 -0.7,3.1 -0.2,4.6 0.6,0.8 1.3,1.4 2.4,1.5 z"
   id="path181"
   inkscape:connector-curvature="0"
   style="fill:#a96ec0" />
	<path
   class="st4"
   d="m 80.1,143.7 c -0.6,1.2 -1.8,2.1 -3.2,2.1 -1.3,0 -2.2,-0.7 -3,-1.5 0.1,0.3 0.2,0.5 0.4,0.8 0.4,0.6 0.9,1.2 1.5,1.6 0.9,0.5 1.9,0.5 2.9,0.3 0.3,-0.1 0.6,-0.2 0.8,-0.3 0.6,-0.3 1.2,-0.7 1.7,-1.2 0.4,-0.5 0.5,-1 0.6,-1.6 -0.6,0 -1.1,0 -1.7,-0.2 z"
   id="path183"
   inkscape:connector-curvature="0"
   style="fill:#7a3d9a" />
	<path
   class="st4"
   d="m 88.8,132.3 c -0.4,0.1 -0.9,0.1 -1.3,0.1 0.8,1.7 1.7,3.8 0.6,5.4 -1.1,1.6 -3,1.8 -4.8,1.3 0.6,0.5 1.3,0.8 2.2,0.9 1.5,0.2 3.4,-0.3 4.5,-1.4 1.9,-2 0.1,-4.6 -1.2,-6.3 z"
   id="path185"
   inkscape:connector-curvature="0"
   style="fill:#7a3d9a" />
	<path
   class="st2"
   d="m 83,138.8 c 1.9,0.6 4.3,0.4 5.1,-1.8 0.6,-1.6 -0.3,-3.2 -1,-4.7 -0.2,0 -0.3,0 -0.5,-0.1 -1.7,-0.3 -3,-1.2 -3.8,-2.4 -0.3,0.2 -0.6,0.4 -0.9,0.8 -0.2,0.2 -0.3,0.5 -0.4,0.7 -0.3,1.6 -0.4,3.1 0,4.8 0.4,1.2 0.8,2.1 1.5,2.7 z"
   id="path187"
   inkscape:connector-curvature="0"
   style="fill:#a96ec0" />
	<path
   class="st1"
   d="m 113.1,152.4 c -0.1,-0.1 -0.2,-0.2 -0.3,-0.2 -1.1,0 -2.2,-0.2 -3.2,-0.6 -0.9,-0.3 -1.7,-0.8 -2.6,-1.3 -0.8,0.4 -1.5,0.8 -2.2,1.4 1.1,0.5 2.2,1.2 3.1,2 1.1,0.9 2.2,2.1 3,3.4 1.2,-1 2.4,-2 3.6,-3 -0.4,-0.7 -0.9,-1.2 -1.4,-1.7 z"
   id="path189"
   inkscape:connector-curvature="0"
   style="fill:#e3bc39" />
	<path
   class="st12"
   d="m 104.5,151.5 c 0.6,-0.6 1.4,-1 2.1,-1.4 -1.4,-0.7 -2.8,-1.2 -4.4,-0.4 -0.4,0.2 -0.7,0.4 -1.1,0.5 0.9,0.2 1.8,0.6 2.8,1 0.2,0.1 0.4,0.2 0.6,0.3 z"
   id="path191"
   inkscape:connector-curvature="0"
   style="fill:#9b7712" />
	<path
   class="st12"
   d="m 114.7,154.2 c -1.1,1.1 -2.3,2.2 -3.5,3.2 0.4,0.7 0.8,1.3 1.1,2 0.6,0.1 1,0 1.3,-0.1 0.8,-0.2 1.3,-0.7 1.9,-1.3 0.2,-0.2 0.3,-0.3 0.5,-0.6 0.2,-0.3 0.3,-0.6 0.3,-0.8 -0.3,-0.5 -0.5,-1.1 -0.9,-1.6 -0.3,-0.2 -0.5,-0.5 -0.7,-0.8 z"
   id="path193"
   inkscape:connector-curvature="0"
   style="fill:#9b7712" />
	<path
   class="st1"
   d="m 195.8,152.7 c -0.2,-0.4 -0.4,-0.9 -0.8,-1.1 -0.3,-0.2 -0.6,-0.2 -0.9,-0.2 -0.1,0 -0.3,0 -0.5,0 -0.2,1.2 -0.8,2.2 -1.9,3.1 -2.2,1.7 -5.1,2.6 -7.8,3.1 -1.6,0.3 -3.2,0.3 -4.8,-0.2 -0.5,-0.2 -1.2,-0.5 -1.5,-0.9 -0.1,0.3 -0.1,0.5 0,0.9 0.2,0.9 0.9,1.9 1.6,2.6 1.6,1.7 4.1,1 6.1,0.4 2.5,-0.7 5,-2 7.1,-3.6 1.3,-1 2.4,-2.1 3.6,-3.2 0.1,-0.3 -0.1,-0.6 -0.2,-0.9 z"
   id="path195"
   inkscape:connector-curvature="0"
   style="fill:#e3bc39" />
	<path
   class="st2"
   d="m 191.1,146.2 c -1,-2.6 -2.1,-5 -4,-7 -3.2,3.4 -7,6.3 -11,8.6 -10.5,6.2 -23.6,8.6 -35.7,7 -6.3,-0.9 -12.3,-2.9 -17.7,-6.1 -2.8,-1.6 -5.2,-3.6 -7.5,-5.8 -1.2,-1.2 -2.6,-2.3 -3.7,-3.6 -0.3,-0.3 -0.5,-0.7 -0.8,-1 -0.6,0.2 -1.3,0.6 -2,1.3 -0.5,0.4 -0.8,0.9 -1.1,1.3 1.2,1.3 2.3,2.5 4.1,3.2 1.5,0.6 3.1,1.1 4.1,2.5 1.4,1.7 1.5,4.3 -0.7,5.3 -0.5,0.2 -1,0.3 -1.5,0.4 0.9,0.9 1.7,1.8 2.4,2.9 2.1,-2.1 5.3,-3.9 8.1,-2 0.1,0 0,0.2 -0.1,0.1 -1.7,-0.7 -3.1,-0.3 -4.4,0.4 0.2,0.2 0.4,0.5 0.6,0.8 1.3,2.4 3,4.5 4.7,6.6 0.4,0.5 0.8,1 1.3,1.5 3.2,-0.6 6.8,-0.4 9.9,-0.4 3.8,0.1 7.5,0.7 11.3,1 3.8,0.4 7.7,0.7 11.6,0.5 3.3,-0.2 7,-0.1 10.1,-1.3 0,0 0,0 0.1,0 0.3,-0.4 0.7,-0.7 1.1,-1.1 1.7,-1.6 3.3,-3.2 4.5,-5.1 1.5,-2.3 2.4,-4.9 3.4,-7.4 0.1,-0.3 0.5,-0.2 0.4,0.1 -0.2,1.2 -0.5,2.3 -0.8,3.4 0.1,0.1 0.1,0.2 0.2,0.3 0.2,0.3 0.4,0.6 0.7,0.9 0.3,0.4 0.7,0.8 1,1.2 0.1,0 0.1,0.1 0.1,0.2 0.6,0.8 1.3,1.6 1.8,2.5 1.3,0.1 2.6,-0.2 3.8,-0.5 2.1,-0.6 4.6,-1.4 6.3,-2.8 0.9,-0.8 1.3,-1.8 1.4,-2.8 -0.8,-1.9 -1.4,-3.5 -2,-5.1 z"
   id="path197"
   inkscape:connector-curvature="0"
   style="fill:#a96ec0" />
	<path
   class="st2"
   d="m 98.2,163 c 1.9,-0.1 3.5,-1.2 4.9,-2.2 1.4,-1 2.8,-2.1 4.2,-3.2 0.6,-0.5 1.3,-1.1 1.9,-1.7 -0.4,-0.5 -0.9,-1 -1.4,-1.4 -1.1,-1 -2.3,-1.7 -3.5,-2.3 -1.2,-0.6 -2.5,-1.3 -3.9,-1.7 -0.1,0 -0.1,0 -0.2,0.1 0.8,1.8 1,3.6 -0.1,5.5 -1,1.6 -2.5,2.8 -4.2,3.6 -0.9,0.4 -2,0.8 -3,1 1.4,1.3 3.2,2.4 5.3,2.3 z"
   id="path199"
   inkscape:connector-curvature="0"
   style="fill:#a96ec0" />
	<path
   class="st4"
   d="m 109.4,156.2 c -1.5,1.3 -3,2.6 -4.6,3.8 -2.3,1.8 -5.1,4 -8.2,3.2 -1.5,-0.4 -2.9,-1.4 -4,-2.6 -1.1,0.2 -2.1,0.2 -3.2,0.1 1.4,2.2 2.9,3.7 4,4.5 1.7,1.3 3.7,2.9 5.9,2.5 0.6,-0.1 1.4,-0.6 3.1,-1.7 2.1,-1.4 3.6,-2.5 4.4,-3 1.1,-0.8 2.7,-1.9 4.6,-3.1 -0.3,-0.6 -0.5,-1.3 -0.9,-1.8 -0.3,-0.8 -0.7,-1.4 -1.1,-1.9 z"
   id="path201"
   inkscape:connector-curvature="0"
   style="fill:#7a3d9a" />
	<path
   class="st4"
   d="m 187.7,165.2 c -0.9,-1.3 -1.8,-2.6 -2.7,-4 -0.6,0.1 -1.2,0.3 -1.8,0.3 1.1,1.3 2,2.7 3,4 0.5,-0.1 1,-0.2 1.5,-0.3 z"
   id="path203"
   inkscape:connector-curvature="0"
   style="fill:#7a3d9a" />
	<path
   class="st2"
   d="m 197.2,157.6 c -0.5,-0.8 -0.9,-1.8 -1.4,-2.7 -3,2.8 -6.6,5.2 -10.5,6.2 0.9,1.3 1.7,2.7 2.7,4 0.6,-0.1 1.2,-0.1 1.9,0 0.1,0 0.1,0.1 0,0.1 -1.8,0.2 -3.4,0.7 -4.8,1.8 -1,0.7 -2,1.7 -3.2,2.3 0,0.1 0,0.1 0,0.2 0.6,1.6 1.3,2.9 2.5,4.1 3.2,-1.7 6.7,-2.8 9.8,-4.7 1.6,-1 3.2,-2.2 4.2,-3.9 0.7,-1.2 0.9,-2.5 0.9,-3.8 -0.7,-1.2 -1.4,-2.4 -2.1,-3.6 z"
   id="path205"
   inkscape:connector-curvature="0"
   style="fill:#a96ec0" />
	<path
   class="st4"
   d="m 199.5,161.9 c -0.5,6.8 -9.6,9 -15.2,11.8 0.2,0.2 0.4,0.4 0.6,0.6 0.8,0.8 1.8,1.4 2.8,1.9 0.2,0.1 0.5,0.2 0.7,0.3 0,0 0,0 0,-0.1 3.7,-1.1 7.4,-2.7 10.7,-4.6 0.5,-0.3 1,-0.6 1.3,-1 0.4,-0.5 0.5,-1.2 0.5,-1.9 0.3,-2.5 -0.4,-4.8 -1.4,-7 z"
   id="path207"
   inkscape:connector-curvature="0"
   style="fill:#7a3d9a" />
	<path
   class="st12"
   d="m 182.8,157.7 c -1.2,0.1 -2.4,0 -3.6,-0.3 -0.5,-0.2 -1.2,-0.5 -1.5,-0.9 -0.1,0.3 -0.1,0.5 0,0.9 0.2,0.9 0.9,1.9 1.6,2.6 1.4,1.5 3.5,1.1 5.3,0.7 -0.6,-1.1 -1.2,-2.1 -1.8,-3 z"
   id="path209"
   inkscape:connector-curvature="0"
   style="fill:#9b7712" />
	<path
   class="st12"
   d="m 194.5,155.2 c 0.6,-0.5 1.1,-1 1.6,-1.6 0,-0.3 -0.2,-0.6 -0.3,-0.9 -0.2,-0.4 -0.4,-0.9 -0.8,-1.1 -0.3,-0.2 -0.6,-0.2 -0.9,-0.2 -0.1,0 -0.3,0 -0.5,0 -0.1,0.6 -0.3,1.1 -0.6,1.6 0.5,0.7 1,1.4 1.5,2.2 z"
   id="path211"
   inkscape:connector-curvature="0"
   style="fill:#9b7712" />
	<path
   class="st1"
   d="m 186.3,157 c -0.8,0.2 -1.6,0.4 -2.3,0.6 -0.3,0.1 -0.6,0.1 -0.9,0.1 0.6,1 1.2,1.9 1.8,2.9 0.2,-0.1 0.4,-0.1 0.6,-0.2 0.9,-0.2 1.8,-0.6 2.6,-0.9 -0.7,-0.9 -1.2,-1.7 -1.8,-2.5 z"
   id="path213"
   inkscape:connector-curvature="0"
   style="fill:#e3bc39" />
	<path
   class="st1"
   d="m 192,157.2 c 0.2,-0.1 0.3,-0.2 0.5,-0.3 0.5,-0.4 1.1,-0.8 1.6,-1.3 -0.2,-0.4 -0.5,-0.8 -0.7,-1.2 -0.2,-0.3 -0.4,-0.6 -0.6,-0.9 -0.3,0.4 -0.6,0.7 -1,1 -0.3,0.3 -0.7,0.5 -1.1,0.7 0.4,0.6 0.9,1.3 1.3,2 z"
   id="path215"
   inkscape:connector-curvature="0"
   style="fill:#e3bc39" />
	<path
   class="st13"
   d="m 190.4,155.3 c -1.1,0.6 -2.4,1.2 -3.7,1.5 0.6,0.8 1.2,1.6 1.8,2.4 1.1,-0.5 2.2,-1.1 3.2,-1.8 -0.4,-0.7 -0.9,-1.4 -1.3,-2.1 z"
   id="path217"
   inkscape:connector-curvature="0"
   style="fill:#ffdc78" />
	<path
   class="st2"
   d="m 111.7,143.9 c 1.5,0.6 3.1,1.1 4.1,2.5 0.6,0.7 0.9,1.6 1,2.5 1,-0.7 2.2,-1.4 3.4,-1.7 -1.8,-1.3 -3.5,-2.7 -5.1,-4.3 -1.2,-1.2 -2.6,-2.3 -3.7,-3.6 -0.3,-0.3 -0.5,-0.7 -0.8,-1 -0.6,0.2 -1.3,0.6 -2,1.3 -0.5,0.4 -0.8,0.9 -1.1,1.3 1.3,1.1 2.5,2.3 4.2,3 z"
   id="path219"
   inkscape:connector-curvature="0"
   style="fill:#a96ec0" />
	<path
   class="st2"
   d="m 187.5,143.1 c -2.6,-1.4 -4.9,1.4 -6.5,3.1 -1,1.1 -2.5,2.5 -2,4.1 0.2,0.9 0.8,1.7 1.3,2.5 0.5,0.8 1,1.7 1.5,2.6 0.3,0.6 0.7,1.1 1,1.7 0.8,-0.1 1.7,-0.2 2.5,-0.5 2.1,-0.6 4.6,-1.4 6.3,-2.8 0.9,-0.8 1.3,-1.8 1.4,-2.8 -0.5,-1.4 -1.1,-2.7 -1.6,-4.1 -1.2,-1.5 -2.4,-2.9 -3.9,-3.8 z"
   id="path221"
   inkscape:connector-curvature="0"
   style="fill:#a96ec0" />
	<path
   class="st4"
   d="m 181.1,154.8 c -1.3,-2.1 -3.7,-4.6 -1.8,-7.1 1.3,-1.7 2.8,-3.3 4.5,-4.5 1.6,-1.1 3,-1 4.5,0.1 1,0.7 1.8,1.7 2.6,2.6 -1,-2.5 -2,-4.8 -3.9,-6.7 -3.2,3.4 -7,6.3 -11,8.6 -10.5,6.2 -23.6,8.6 -35.7,7 -6.3,-0.9 -12.3,-2.9 -17.7,-6.1 -0.6,-0.4 -1.3,-0.8 -1.9,-1.2 -1.3,0.5 -2.5,0.9 -3.7,1.8 0,0 -0.1,0.1 -0.1,0.1 -0.1,1 -0.6,1.9 -1.7,2.4 -0.4,0.2 -0.9,0.3 -1.4,0.4 0,0 0,0 -0.1,0.1 0.9,0.8 1.7,1.8 2.4,2.8 2.1,-2.1 5.3,-3.9 8.1,-2 0.1,0 0,0.2 -0.1,0.1 -1.7,-0.7 -3.1,-0.3 -4.4,0.4 0.2,0.2 0.4,0.5 0.6,0.8 1.3,2.4 3,4.5 4.7,6.6 0.4,0.5 0.8,1 1.3,1.5 1,-0.2 2,-0.3 3,-0.4 -1.6,-2.6 -3,-5.4 -4.2,-8.3 0,-0.1 0.1,-0.2 0.1,-0.1 2.8,2.4 5.9,4.1 9.5,5.1 3.8,1 7.8,1.5 11.8,1.7 4.2,0.1 8.4,-0.2 12.5,-1 4.2,-0.8 7.9,-2.5 11.8,-4 0.2,-0.1 0.3,0.1 0.2,0.3 -1.5,2.6 -3.1,5 -4.8,7.4 1,-0.2 1.9,-0.4 2.8,-0.8 0,0 0,0 0.1,0 0.3,-0.4 0.7,-0.7 1.1,-1.1 1.7,-1.6 3.3,-3.2 4.5,-5.1 1.5,-2.3 2.4,-4.9 3.4,-7.4 0.1,-0.3 0.5,-0.2 0.4,0.1 -0.2,1.2 -0.5,2.3 -0.8,3.4 0.1,0.1 0.1,0.2 0.2,0.3 0.2,0.3 0.4,0.6 0.7,0.9 0.3,0.4 0.7,0.8 1,1.2 0.1,0 0.1,0.1 0.1,0.2 0.6,0.8 1.3,1.6 1.8,2.5 0.3,0 0.7,0 1,0 -0.5,-1.1 -1,-1.9 -1.4,-2.6 z"
   id="path223"
   inkscape:connector-curvature="0"
   style="fill:#7a3d9a" />
	<path
   class="st2"
   d="m 170.5,155.8 c -4.3,1.7 -8.5,3.4 -13.1,4.2 -7.7,1.3 -16,1 -23.4,-1.2 -1.5,-0.4 -2.9,-1 -4.3,-1.8 -0.8,-0.4 -1.5,-0.9 -2.2,-1.4 -0.6,-0.4 -1.2,-1 -1.8,-1.4 -0.1,0 -0.3,-0.2 -0.3,-0.2 0,0 0.3,0.7 0.3,0.8 0.2,0.4 0.4,0.9 0.6,1.3 0.4,0.9 0.8,1.8 1.3,2.6 0.6,1.1 1.2,2.2 1.8,3.2 2.2,-0.1 4.5,0 6.6,0 3.8,0.1 7.5,0.7 11.3,1 3.8,0.4 7.7,0.7 11.6,0.5 2.1,-0.1 4.5,-0.1 6.7,-0.4 1.7,-2.4 3.4,-4.7 4.9,-7.2 z"
   id="path225"
   inkscape:connector-curvature="0"
   style="fill:#a96ec0" />
	<path
   class="st2"
   d="m 116.9,265.1 c 0,0 0,0 0,0 1,0.4 2,0.6 3.1,0.7 0.2,0 0.4,0 0.6,0 0,0 0,0 0,0 0.2,-1.7 1.4,-3.5 2,-5 0.7,-1.7 1.3,-3.4 1.7,-5.2 -2.4,0.7 -5.4,0.2 -7.6,-1 0,2.4 0,4.8 0,7.2 0,1 0.1,2.1 0.2,3.3 z"
   id="path227"
   inkscape:connector-curvature="0"
   style="fill:#a96ec0" />
	<path
   class="st4"
   d="m 123.3,253.5 c -2.2,-0.1 -4.5,-0.2 -6.7,-0.6 0,0.5 0,0.9 0,1.4 1,0.6 2.1,0.9 3.3,1.1 1.5,0.2 3,0 4.5,-0.1 0,-0.1 0,-0.1 0,-0.2 0,-0.1 0.3,-0.1 0.3,0 0,0 0,0.1 0,0.1 0,0 0.1,0 0.1,0 0.1,0 0.1,0.1 0,0.2 -0.1,0 -0.1,0 -0.2,0 -0.4,2.2 -1.2,4.4 -2.1,6.5 -0.4,1.1 -1,2.1 -1.4,3.2 -0.1,0.2 -0.1,0.4 -0.1,0.6 1,0 1.9,-0.1 2.8,-0.2 0.5,-1.2 1.3,-2.4 2,-3.5 1.1,-3.2 2.3,-6.4 3.8,-9.4 -1.9,0.8 -4,1.1 -6.3,0.9 z"
   id="path229"
   inkscape:connector-curvature="0"
   style="fill:#7a3d9a" />
	<path
   class="st8"
   d="m 118.7,272.1 c 0.4,0 0.7,0 1.1,-0.1 0,0 0,-0.1 0.1,-0.1 0.3,-0.6 1,-1 1.3,-1.6 0.6,-1.2 -0.3,-2.5 -0.5,-3.8 -2.3,-0.1 -4.5,-0.8 -6.3,-2.2 -0.1,-0.1 0,-0.3 0.2,-0.2 0.6,0.4 1.2,0.6 1.9,0.9 -0.1,-1 -0.2,-2 -0.3,-3 -0.8,0 -1.6,0.1 -2.3,0.2 -0.8,0.1 -1.6,0.5 -2.2,1.1 -0.6,0.7 -0.9,1.6 -1,2.6 -0.2,1.1 -0.2,2.1 -0.1,3.2 1.8,2.4 5,3.1 8.1,3 z"
   id="path231"
   inkscape:connector-curvature="0"
   style="fill:#7f5336" />
	<path
   class="st14"
   d="m 126.7,264.1 c -0.2,-0.4 -0.6,-0.8 -1,-0.9 -0.4,0.7 -0.9,1.5 -1.2,2.3 0.5,-0.1 0.9,-0.1 1.4,-0.2 0.2,0 0.3,0.2 0.1,0.3 -1.5,0.7 -3.2,0.9 -4.9,0.9 0.1,0.4 0.2,0.9 0.4,1.4 0.5,1.5 0.1,2.3 -0.8,3.3 -0.2,0.2 -0.4,0.5 -0.5,0.8 1.2,-0.1 2.3,-0.3 3.4,-0.6 1.1,-0.3 2.1,-0.7 3.1,-1.3 0.1,-1.5 0.2,-2.9 0.2,-4.4 0,-0.5 0,-1.1 -0.2,-1.6 z"
   id="path233"
   inkscape:connector-curvature="0"
   style="fill:#3d2417" />
	<path
   class="st1"
   d="m 108.6,273.7 c 0.9,0.6 1.9,0.9 2.9,1.1 2.2,0.5 4.4,1 6.6,1 0.2,0 0.3,0 0.5,0 0.3,-0.6 0.4,-1.2 0.5,-1.8 0.1,-0.4 0.2,-0.8 0.3,-1.2 -0.4,0 -0.9,0 -1.3,0 -2.8,0 -6.3,-0.7 -7.9,-3.2 -0.2,0 -0.4,0 -0.6,0 -0.3,0.1 -0.5,0.3 -0.7,0.5 -0.6,0.5 -1.1,1.1 -1.4,1.8 -0.1,0.2 -0.1,0.3 -0.1,0.5 0,0.1 0,0.2 0,0.3 0.5,0.5 0.8,0.8 1.2,1 z"
   id="path235"
   inkscape:connector-curvature="0"
   style="fill:#e3bc39" />
	<path
   class="st1"
   d="m 127.5,271.6 c 0,-0.3 -0.1,-0.5 -0.2,-0.8 0,0 0,0 -0.1,-0.1 -2.2,1.2 -4.9,1.9 -7.4,2 -0.3,1 -0.4,2.1 -0.9,3 2,0 4.1,-0.2 6.1,-0.6 0.6,-0.1 1.2,-0.3 1.8,-0.5 0.1,-0.1 0.2,-0.2 0.3,-0.3 0.3,-0.4 0.5,-0.9 0.5,-1.4 0,-0.3 0,-0.8 -0.1,-1.3 z"
   id="path237"
   inkscape:connector-curvature="0"
   style="fill:#e3bc39" />
	<path
   class="st8"
   d="m 103.4,281.9 c 3.2,-0.1 6.3,-0.8 9.3,-2 1.4,-0.6 2.7,-1.2 3.9,-2.1 0.5,-0.4 1.1,-0.8 1.5,-1.2 -0.4,0 -0.8,0 -1.3,-0.1 -2.3,-0.2 -4.7,-0.6 -6.8,-1.4 -0.9,-0.3 -1.6,-0.7 -2.1,-1.3 -4.4,1.2 -8.6,3.6 -11.7,6.9 2.2,1 4.7,1.3 7.2,1.2 z"
   id="path239"
   inkscape:connector-curvature="0"
   style="fill:#7f5336" />
	<path
   class="st14"
   d="m 125.8,275.9 c -0.6,0.1 -1.2,0.3 -1.8,0.3 -1.9,0.2 -3.7,0.4 -5.5,0.4 -1.7,2 -4.7,3.3 -7.1,4.1 -4.6,1.6 -10.8,2.5 -15.5,0.4 -0.3,0.4 -0.7,0.8 -1,1.2 -0.3,0.4 -0.6,0.9 -0.3,1.3 0.2,0.2 0.4,0.2 0.6,0.2 3.4,0.5 6.8,0.2 10.2,0 3.5,-0.3 7.1,-0.5 10.6,-0.8 2.3,-0.2 4.6,-0.4 6.8,-1 1,-0.3 2.2,-0.8 2.6,-1.8 0.2,-0.4 0.3,-0.9 0.3,-1.4 0.1,-1 0.1,-1.9 0.1,-2.9 z"
   id="path241"
   inkscape:connector-curvature="0"
   style="fill:#3d2417" />
	<path
   class="st4"
   d="m 168.9,259.6 c 0,-0.1 0.1,-0.2 0.2,-0.1 0,0.1 0,0.1 0.1,0.2 2.3,-1.3 5,-2.1 6.7,-4 l -0.1,-1.6 c -1.1,0 -2.1,-0.2 -3.1,-0.5 -1.6,1.5 -3.4,3.8 -5.3,4.5 -1,0.3 -2,0.2 -3.1,-0.2 0.3,1 0.6,1.9 1,2.9 1.1,2.3 2.5,4.5 3.5,6.7 0,0 0,0 0,0 1.1,0.2 2.2,0.1 3.3,0 -1.4,-2.5 -2.7,-5.2 -3.2,-7.9 z"
   id="path243"
   inkscape:connector-curvature="0"
   style="fill:#7a3d9a" />
	<path
   class="st2"
   d="m 176.3,261.5 -0.4,-5.3 c -1.8,1.8 -4.6,2.8 -6.6,3.7 1,2.5 1.8,5 3,7.4 0.2,0 0.3,-0.1 0.5,-0.1 1,-0.2 2,-0.5 2.9,-1 0.2,-0.1 0.4,-0.2 0.6,-0.4 0,0 0,0 0,-0.1 -0.1,-1.3 -0.1,-2.7 0,-4.2 z"
   id="path245"
   inkscape:connector-curvature="0"
   style="fill:#a96ec0" />
	<path
   class="st14"
   d="m 171.4,268.2 c -1,0.1 -2,0 -2.9,-0.3 -0.1,0.1 -0.3,0 -0.4,-0.1 -0.6,-0.2 -1.1,-0.5 -1.6,-0.9 -0.1,0 0,-0.1 0.1,-0.1 0.4,0.2 0.8,0.4 1.2,0.5 -0.4,-0.8 -0.8,-1.7 -1.3,-2.5 -0.4,0.4 -1,0.7 -1.2,1.2 -0.2,0.4 -0.2,0.9 -0.1,1.4 0.1,1.2 0.3,2.3 0.4,3.5 1.5,2 4.2,2.4 6.7,2.3 -1.1,-1.3 -1.1,-3.4 -0.9,-5 z"
   id="path247"
   inkscape:connector-curvature="0"
   style="fill:#3d2417" />
	<path
   class="st8"
   d="m 180.9,267.3 c 0,-0.7 0,-1.3 -0.3,-2 -0.2,-0.4 -0.4,-1 -1,-1.5 -0.4,-0.3 -0.9,-0.4 -1.4,-0.5 -0.3,-0.1 -0.8,-0.1 -1.4,-0.1 0.1,0.7 0.1,1.4 0,2.2 0.4,-0.3 0.7,-0.7 1.1,-1.1 0.1,-0.1 0.3,0 0.3,0.2 -1,2.2 -3.3,3.1 -5.5,3.5 -0.3,0.1 -0.6,0.1 -1,0.1 0,0.7 -0.1,1.5 0,2.2 0.1,1.1 0.4,1.9 1,2.7 0.2,0 0.4,0 0.6,0 1.9,-0.1 3.8,-0.5 5.4,-1.5 1,-0.6 1.7,-1.3 2.4,-2.1 0,-0.6 -0.1,-1.4 -0.2,-2.1 z"
   id="path249"
   inkscape:connector-curvature="0"
   style="fill:#7f5336" />
	<path
   class="st1"
   d="m 184.3,272.1 c -0.3,-0.8 -0.9,-1.6 -1.7,-1.8 -0.2,-0.1 -0.5,-0.1 -0.7,-0.1 -0.1,0 -0.1,0 -0.2,0 -2,2.4 -5.7,3.4 -8.7,3.6 -0.4,1.1 0,2.2 0.9,2.9 0.3,0 0.7,-0.1 1,-0.1 2.2,-0.3 4.6,-0.7 6.7,-1.7 1.2,-0.6 2,-1.5 2.8,-2.5 -0.1,-0.1 -0.1,-0.2 -0.1,-0.3 z"
   id="path251"
   inkscape:connector-curvature="0"
   style="fill:#e3bc39" />
	<path
   class="st1"
   d="m 172.7,273.9 c -2.3,0.1 -5.9,-0.1 -7.3,-2.3 -0.4,0.2 -0.8,0.4 -1.1,0.6 -0.4,0.2 -0.8,0.6 -1,1.1 -0.1,0.3 -0.1,0.5 -0.1,0.8 0,0.2 0,0.5 0.1,0.7 0.2,0.5 0.7,0.9 1.2,1.2 0,0 0,0 0,0 2.7,1.2 5.9,1.2 8.9,0.9 -0.8,-0.7 -1,-2 -0.7,-3 z"
   id="path253"
   inkscape:connector-curvature="0"
   style="fill:#e3bc39" />
	<path
   class="st14"
   d="m 189.5,285.5 c -3.6,-0.1 -7.2,-0.4 -10.7,-1.4 -2.2,-0.6 -9.6,-3.4 -6.6,-6.4 -2.1,0.1 -4.2,0.1 -6.1,-0.5 0,0.8 0,1.6 0.2,2.3 0.2,0.9 0.6,1.8 1.4,2.4 0.4,0.3 0.9,0.5 1.4,0.7 7.4,2.8 15.4,3.7 23.3,3 -1.1,0 -2,0 -2.9,-0.1 z"
   id="path255"
   inkscape:connector-curvature="0"
   style="fill:#3d2417" />
	<path
   class="st8"
   d="m 172.3,280.5 c 0.6,0.8 1.5,1.3 2.4,1.8 2,1.1 4.3,1.7 6.5,2.1 3.1,0.6 6.3,0.8 9.5,0.8 2.4,0.1 4.6,-0.1 6.9,-0.6 0.2,-0.3 0.1,-0.8 0,-1.1 -0.7,-1.6 -1.9,-2.9 -3.3,-3.9 -1.4,-1 -3,-1.7 -4.6,-2.4 -2,-0.9 -4,-1.8 -6,-2.7 0.1,-0.1 0.1,-0.1 0.2,-0.2 -2.2,1.9 -5.6,2.5 -8.3,2.9 -0.9,0.1 -1.9,0.3 -2.9,0.3 -0.9,1.1 -1.2,2 -0.4,3 z"
   id="path257"
   inkscape:connector-curvature="0"
   style="fill:#7f5336" />
	<path
   class="st12"
   d="m 95.2,150.2 c -0.4,1 -1.3,1.9 -2.4,2.7 0,0.3 0.1,0.5 0.2,0.8 0.7,-0.1 1.3,-0.2 2,-0.4 1.3,-0.5 2.1,-1.3 2.6,-2.4 -0.8,-0.1 -1.6,-0.3 -2.4,-0.7 z"
   id="path259"
   inkscape:connector-curvature="0"
   style="fill:#9b7712" />
	<path
   class="st1"
   d="m 91.8,156.3 c -0.1,-0.5 0,-1 0.3,-1.5 0.1,-0.3 0.3,-0.4 0.4,-0.6 -0.7,0 -1.4,0 -2,-0.1 -1.2,0.4 -2.4,0.7 -3.5,0.6 0,0.3 0.1,0.7 0.1,1 1.6,0.9 3.4,1.6 5.2,1.7 -0.1,-0.2 -0.5,-0.9 -0.5,-1.1 z"
   id="path261"
   inkscape:connector-curvature="0"
   style="fill:#e3bc39" />
	<path
   class="st12"
   d="m 98.3,151.4 c -1.1,1.7 -3.1,2.6 -5.3,2.8 -1,0.9 -1.2,2.2 -0.4,3.3 0.4,0 0.7,0 1.1,-0.1 1.3,-0.2 2.4,-0.8 3.3,-1.8 0.7,-0.8 1.3,-1.9 1.4,-2.9 0,-0.5 0,-0.9 -0.1,-1.3 z"
   id="path263"
   inkscape:connector-curvature="0"
   style="fill:#9b7712" />
	<path
   class="st1"
   d="m 91.6,158.5 c 0.1,-0.1 0.2,-0.2 0.3,-0.4 -1.8,-0.1 -3.5,-0.9 -4.9,-1.9 -0.1,0 -0.3,0.1 -0.4,0.2 -0.2,0.3 -0.2,0.6 -0.1,0.9 0.1,0.6 0.4,1 0.6,1.3 0.6,0.8 1.5,1.1 1.9,1.3 0,0 0,0 0,0.1 0.8,0.1 1.6,0.1 2.5,0.1 -0.1,-0.6 -0.1,-1.1 0.1,-1.6 z"
   id="path265"
   inkscape:connector-curvature="0"
   style="fill:#e3bc39" />
	<path
   class="st12"
   d="m 99.6,150.7 c -0.3,0.1 -0.6,0.1 -0.9,0.2 0.4,1.5 0.2,3 -0.7,4.4 -0.8,1.2 -2,2.2 -3.4,2.6 -0.8,0.2 -1.6,0.3 -2.4,0.3 -0.5,0.6 -0.6,1.2 -0.4,1.8 1.2,-0.2 2.4,-0.5 3.5,-1 1.5,-0.7 2.9,-1.7 3.9,-3 1.4,-1.9 1,-3.5 0.4,-5.3 z"
   id="path267"
   inkscape:connector-curvature="0"
   style="fill:#9b7712" />
	<path
   class="st12"
   d="m 176,175.4 c -0.1,-0.4 -0.1,-0.7 -0.2,-1.1 -0.1,-0.4 -0.5,-1 -1,-0.7 -0.3,0.1 -0.5,0.9 -0.6,1.1 -0.2,0.8 0,1.4 0.2,2.1 0.6,-0.5 1.1,-1 1.6,-1.4 z"
   id="path269"
   inkscape:connector-curvature="0"
   style="fill:#9b7712" />
	<path
   class="st12"
   d="m 178.8,179.3 c -0.5,0.4 -1.1,0.7 -1.6,1.1 0.1,0.2 0.3,0.3 0.4,0.5 0.3,0.2 0.7,0.3 1,0.5 0.7,0.3 1.5,0.3 2.2,0.4 0.1,0 0.3,-0.1 0.4,-0.2 0.2,-0.1 0.5,-0.3 0.5,-0.5 0.1,-0.2 0,-0.4 0,-0.6 -0.9,-0.3 -2,-0.7 -2.9,-1.2 z"
   id="path271"
   inkscape:connector-curvature="0"
   style="fill:#9b7712" />
	<path
   class="st1"
   d="m 177.8,176.5 c 0.9,-0.7 1.9,-1.4 2.8,-2.1 -0.3,-0.6 -0.6,-1.1 -0.8,-1.7 -1.1,0.9 -2.2,1.7 -3.3,2.6 0.1,0.6 0.3,1.2 0.6,1.7 0.3,-0.2 0.5,-0.4 0.7,-0.5 z"
   id="path273"
   inkscape:connector-curvature="0"
   style="fill:#e3bc39" />
	<path
   class="st12"
   d="m 180.3,178.3 c -0.3,0.2 -0.7,0.5 -1,0.7 0.9,0.4 2,0.7 3,0.9 0,0 0,0 0,0 0.7,-0.4 1.5,-0.9 2.1,-1.3 -0.7,-0.4 -1.4,-1 -2,-1.6 -0.6,0.3 -1.4,0.8 -2.1,1.3 z"
   id="path275"
   inkscape:connector-curvature="0"
   style="fill:#9b7712" />
	<path
   class="st1"
   d="m 178.9,178.7 c 0.4,-0.3 0.8,-0.5 1.2,-0.8 0.7,-0.5 1.4,-0.9 2.1,-1.3 -0.6,-0.6 -1.1,-1.3 -1.5,-2 -1.1,0.8 -2.1,1.6 -3.2,2.5 -0.1,0.1 -0.2,0.1 -0.3,0.2 0,0 0,0.1 0.1,0.1 0.5,0.6 1.1,1 1.6,1.3 z"
   id="path277"
   inkscape:connector-curvature="0"
   style="fill:#e3bc39" />
	<path
   class="st12"
   d="m 176.5,175.1 c 1.1,-0.9 2.2,-1.7 3.3,-2.6 -0.1,-0.4 -0.2,-0.7 -0.3,-1.1 -0.6,0.6 -1.3,1.1 -2,1.7 -0.3,0.3 -0.8,0.8 -1.2,0.9 0.1,0.3 0.1,0.6 0.2,0.9 -0.1,0 -0.1,0.1 0,0.2 z"
   id="path279"
   inkscape:connector-curvature="0"
   style="fill:#9b7712" />
	<path
   class="st12"
   d="m 179.8,171.2 c 0.1,0.3 0.3,0.7 0.4,1 0.5,-0.4 1,-0.8 1.5,-1.1 -0.2,-0.6 -0.4,-1.2 -0.4,-1.8 -0.1,-0.3 -0.3,-0.5 -0.7,-0.4 -0.4,0.1 -0.6,0.4 -0.7,0.9 -0.1,0.4 0,0.7 0,1.1 -0.1,0 -0.1,0.2 -0.1,0.3 z"
   id="path281"
   inkscape:connector-curvature="0"
   style="fill:#9b7712" />
	<path
   class="st1"
   d="m 182.8,173 c -0.4,-0.6 -0.8,-1.2 -1.1,-1.8 -0.5,0.4 -1,0.8 -1.5,1.2 0.3,0.6 0.6,1.2 0.9,1.7 0.6,-0.4 1.1,-0.8 1.7,-1.1 z"
   id="path283"
   inkscape:connector-curvature="0"
   style="fill:#e3bc39" />
	<path
   class="st1"
   d="m 182.9,176.2 c 0.7,-0.4 1.3,-0.8 2,-1.1 -0.1,-0.1 -0.2,-0.2 -0.4,-0.3 -0.5,-0.5 -1.1,-1 -1.6,-1.6 -0.6,0.4 -1.1,0.7 -1.7,1.1 0.4,0.6 0.8,1.2 1.3,1.7 0.1,0.1 0.3,0.1 0.4,0.2 z"
   id="path285"
   inkscape:connector-curvature="0"
   style="fill:#e3bc39" />
	<path
   class="st12"
   d="m 183.1,176.5 c 1,0.9 2.2,1.5 3.4,2 0.1,0 0.3,-0.1 0.4,-0.1 0.4,-0.1 0.7,-0.4 0.8,-0.8 0,-0.2 0,-0.4 0.1,-0.6 0,0 0,0 0,0 -1,-0.4 -1.9,-1 -2.7,-1.7 -0.7,0.4 -1.3,0.8 -2,1.2 z"
   id="path287"
   inkscape:connector-curvature="0"
   style="fill:#9b7712" />
	<path
   class="st2"
   d="m 225.4,200.7 c -0.4,-1 -1.4,-1.7 -2.4,-2 -1,-0.3 -2.1,-0.4 -3.2,-0.3 -1.9,0.1 -3.9,0.3 -5.7,1.1 -1.9,0.8 -3.5,2.2 -5.1,3.5 -1.1,0.9 -2.2,1.9 -3.1,3 -0.9,1.2 -1.5,2.5 -2,3.9 -1,2.9 -1.7,6 -2,9.1 -0.3,2.7 -0.4,5.5 -1.3,8 -0.8,2.2 -2.4,4.3 -4.5,5.2 0,0.4 0.1,0.7 0.1,1.1 2.3,-0.6 4.4,-1.6 6.2,-3.2 2.7,-2.4 3.3,-5.6 4.1,-9 0.7,-3.3 1.4,-6.6 2.9,-9.7 1.4,-2.8 3.3,-5.7 6.2,-7.1 2.5,-1.2 5.5,-1.7 8.3,-2.1 0.3,-0.1 0.6,-0.2 0.9,-0.4 0.2,-0.1 0.5,-0.3 0.6,-0.5 0.2,-0.2 0.1,-0.4 0,-0.6 z"
   id="path289"
   inkscape:connector-curvature="0"
   style="fill:#a96ec0" />
	<path
   class="st4"
   d="m 208.4,215.6 c -1,3.4 -1.3,7 -2.5,10.3 -1.5,4.2 -5.3,6.6 -9.5,7.7 0.1,2 0,4.1 -0.2,6 4.4,-1.2 8.8,-3.5 10.8,-7.5 1.7,-3.3 1.5,-7.2 1.6,-11 0.1,-3.4 0.4,-6.8 1.6,-9.9 0.6,-1.5 1.5,-3 2.6,-4.3 -2.1,2.4 -3.5,5.7 -4.4,8.7 z"
   id="path291"
   inkscape:connector-curvature="0"
   style="fill:#7a3d9a" />
	<path
   class="st15"
   d="m 156.1,111.7 c -1.7,-1.2 -3.8,-1.6 -5.8,-1.7 -1.3,-0.1 -2.6,-0.2 -3.9,0.1 -1.1,0.2 -2.1,0.7 -3,1.4 -0.2,0.2 -0.2,0.3 -0.2,0.5 1.1,0.1 2.2,-0.7 3.3,-0.4 0.8,0.2 1.4,0.9 2.2,1 0.8,0.1 1.6,-0.3 2.3,-0.6 1.3,-0.5 2.7,-0.6 4,-0.2 0.5,0.1 0.9,0.3 1.4,0.2 -0.1,-0.1 -0.2,-0.2 -0.3,-0.3 z"
   id="path293"
   inkscape:connector-curvature="0"
   style="opacity:0.54000005;fill:#a96ec0" />
	<path
   class="st16"
   d="m 133.9,126.2 c -0.3,-0.2 -0.5,-0.4 -0.8,-0.6 -0.6,0.1 -1.1,0.6 -1.3,1.3 -0.1,0.3 -0.1,0.7 -0.1,1 0,0.9 -0.1,1.9 -0.1,2.8 0,0.2 0,0.4 0.1,0.5 0.1,0.2 0.3,0.3 0.5,0.4 0.5,0.2 1,0.5 1.6,0.7 0.2,0.1 0.4,0.1 0.6,0.2 -0.7,-2 -1.1,-4.4 -0.5,-6.3 z"
   id="path295"
   inkscape:connector-curvature="0"
   style="fill:#ffcf48" />
	<path
   class="st1"
   d="m 159.3,128.5 c -3.2,1.6 -6.8,2.4 -10.1,2.4 -4.9,0.1 -10.9,-1.6 -15,-4.6 -0.5,2 0.1,4.3 0.8,6.3 3.8,1 7.8,1.5 11.7,1.3 3.3,-0.1 6.4,-0.8 9.5,-1.8 1.3,-0.8 2.5,-2 3.1,-3.6 z"
   id="path297"
   inkscape:connector-curvature="0"
   style="fill:#e3bc39" />
	<path
   class="st16"
   d="m 161.5,127.3 c -0.6,0.4 -1.3,0.8 -2,1.1 -0.5,1.6 -1.6,2.8 -2.9,3.7 1.3,-0.4 2.5,-0.9 3.8,-1.3 0.6,-0.5 1.1,-1.1 1.3,-1.9 -0.1,-0.5 -0.1,-1.1 -0.2,-1.6 z"
   id="path299"
   inkscape:connector-curvature="0"
   style="fill:#ffcf48" />
	<path
   class="st17"
   d="m 121.5,143.9 c -3.4,-2.5 -6.3,-5.7 -8.5,-9.3 -0.9,0.3 -1.9,0.7 -3,1.2 0.2,0.3 0.4,0.7 0.6,1 0.5,0.7 1,1.5 1.6,2.2 1.3,1.4 2.7,2.6 4.1,3.9 1.1,1 2.2,2 3.4,2.9 0.6,-0.7 1.2,-1.3 1.8,-1.9 z"
   id="path301"
   inkscape:connector-curvature="0"
   style="fill:#aeb3b7" />
	<path
   class="st17"
   d="m 187.4,136.3 c -0.1,-0.2 -0.3,-0.4 -0.5,-0.5 -0.5,-0.3 -0.9,-0.6 -1.3,-0.9 -2.6,4.3 -6.5,8 -10.6,10.8 -0.1,0.1 -0.2,0.2 -0.4,0.2 0.4,0.4 0.7,0.8 1.1,1.3 0.5,-0.3 1.1,-0.6 1.6,-1 3.8,-2.4 7,-5.3 10,-8.5 0.1,-0.2 0.1,-0.4 0.1,-0.5 0,-0.3 0.1,-0.6 0,-0.9 z"
   id="path303"
   inkscape:connector-curvature="0"
   style="fill:#aeb3b7" />
	<path
   class="st7"
   d="m 174.2,146.1 c -4.7,3.1 -10.1,5 -15.6,6 -5.9,1 -12,0.6 -17.9,-0.4 -5.8,-1 -11.6,-3.1 -16.7,-6.1 -0.7,-0.4 -1.5,-0.9 -2.2,-1.4 -0.6,0.6 -1.1,1.3 -1.7,1.9 1.5,1.1 3,2 4.6,2.9 11.1,5.9 24.1,6.8 36.3,3.9 5,-1.2 9.8,-3 14.2,-5.5 -0.3,-0.4 -0.6,-0.8 -1,-1.3 z"
   id="path305"
   inkscape:connector-curvature="0"
   style="fill:#fdfffc" />
	<path
   class="st18"
   d="m 194.7,50.1 c 2.3,-0.8 3.3,-2.7 3.3,-4.8 0,0 0,-0.1 -0.1,-0.1 -0.3,-0.3 -0.7,-0.4 -1.2,-0.4 -0.7,0.9 -1.7,1.6 -2.9,1.9 -1.2,0.2 -2.7,-0.1 -3.8,0.3 -1,0.4 -1.2,1.7 -1.2,2.7 1.8,0.8 3.9,1.1 5.9,0.4 z"
   id="path307"
   inkscape:connector-curvature="0"
   style="fill:#ffd04d" />
	<path
   class="st1"
   d="m 198.3,45.9 c 0,-0.1 -0.1,-0.1 -0.1,-0.2 -0.1,1.9 -1,3.6 -3.1,4.5 -2,0.8 -4.4,0.6 -6.3,-0.3 0,1.2 0.1,2.5 1.3,3.1 1,0.5 2.2,0.4 3.2,0.4 1.7,0 3.3,-0.1 4.8,-1.2 0,0 0,0 0,0 0.1,-0.1 0.1,-0.3 0.2,-0.4 0.1,-0.4 0.2,-0.8 0.2,-1.1 0.2,-1.7 0.3,-3.3 -0.2,-4.8 z"
   id="path309"
   inkscape:connector-curvature="0"
   style="fill:#e3bc39" />
</g>
</svg>