<?xml version="1.0" encoding="UTF-8" standalone="no"?>
<svg
   xmlns:dc="http://purl.org/dc/elements/1.1/"
   xmlns:cc="http://creativecommons.org/ns#"
   xmlns:rdf="http://www.w3.org/1999/02/22-rdf-syntax-ns#"
   xmlns:svg="http://www.w3.org/2000/svg"
   xmlns="http://www.w3.org/2000/svg"
   xmlns:sodipodi="http://sodipodi.sourceforge.net/DTD/sodipodi-0.dtd"
   xmlns:inkscape="http://www.inkscape.org/namespaces/inkscape"
   viewBox="0 0 816 1056"
   height="1056"
   width="816"
   xml:space="preserve"
   id="svg2"
   version="1.1"
   sodipodi:docname="bomberman.svg"
   inkscape:version="0.92.4 (5da689c313, 2019-01-14)"><sodipodi:namedview
     pagecolor="#ffffff"
     bordercolor="#666666"
     borderopacity="1"
     objecttolerance="10"
     gridtolerance="10"
     guidetolerance="10"
     inkscape:pageopacity="0"
     inkscape:pageshadow="2"
     inkscape:window-width="1366"
     inkscape:window-height="715"
     id="namedview202"
     showgrid="false"
     inkscape:zoom="0.3160553"
     inkscape:cx="-98.211154"
     inkscape:cy="445.67313"
     inkscape:window-x="-8"
     inkscape:window-y="22"
     inkscape:window-maximized="1"
     inkscape:current-layer="svg2" /><metadata
     id="metadata8"><rdf:RDF><cc:Work
         rdf:about=""><dc:format>image/svg+xml</dc:format><dc:type
           rdf:resource="http://purl.org/dc/dcmitype/StillImage" /></cc:Work></rdf:RDF></metadata><defs
     id="defs6" /><g
     transform="matrix(1.4419722,0,0,-1.4419722,-120.05434,1102.0936)"
     id="g10"><path
       id="path12"
       style="fill:#000000;fill-opacity:1;fill-rule:nonzero;stroke:none"
       d="m 305.9126,205.3203 c -4.6123,0 -13.8364,-1.8437 -19.3716,-5.3476 -3.1357,1.1064 -16.4189,2.7656 -17.5273,2.7656 0,1.1084 10.7002,20.665 10.3325,41.6982 2.2119,-0.3672 4.7944,1.292 4.7944,3.3213 0,2.0293 -2.0293,3.1348 -3.3178,3.876 -1.294,0.7353 1.7504,15.0361 -17.3448,34.1318 -19.0952,19.0948 -36.5312,23.4307 -50.7378,23.4307 -10.145,0 -22.9985,-3.2705 -31.4536,-7.1172 -1.8911,0.4512 -2.4414,1.5029 -0.8345,3.2432 2.2144,2.3974 3.5059,9.9619 -0.184,13.4677 -3.69,3.5069 -8.3033,3.6914 -11.2549,3.6914 -2.9517,0 -7.0108,-4.4296 -8.1182,-6.6445 -1.1074,-2.2119 -2.0293,-6.456 -1.291,-9.0381 0.7383,-2.583 3.8735,-8.3037 11.9917,-8.3037 2.0762,0 2.8511,0.167 2.5635,-0.4316 -8.0347,-5.3672 -19.3189,-15.3506 -26.5484,-30.9346 -8.3022,-17.8945 -6.2724,-28.9658 -6.2724,-32.4717 0,-7.0127 -1.1089,-14.5771 13.6518,-34.5019 0,-1.6592 -6.2734,-4.6143 -9.4091,-7.75 -3.1353,-3.1358 -22.8775,-22.5078 -22.8775,-41.6963 0,-14.3916 4.2427,-23.6162 4.2427,-23.6162 -4.0586,-3.874 -9.04,-14.9444 -10.1475,-17.5274 -0.3691,-1.291 -7.0117,-5.7177 -9.5947,-9.7763 -4.981,-0.7383 -17.3433,-1.292 -19.5566,-6.2745 -2.2134,-4.9824 -3.69,-11.624 2.0293,-26.3837 C 95.3965,52.3721 106.6514,33 118.0903,33 c 5.166,0 19.0025,7.75 21.2173,34.502 8.6724,3.1347 10.7017,4.0585 15.3135,6.8261 4.6123,2.7676 10.8872,10.1475 12.3623,14.2071 0.3682,1.4736 4.9829,0.5556 5.7197,0 1.6602,-3.6914 8.1182,-16.2364 16.7891,-15.1299 1.1074,-5.1651 6.2734,-8.8535 6.4575,-9.9629 0.1841,-1.1084 -3.3208,-10.5147 -3.3208,-16.7891 0,-6.2734 9.5933,-9.2236 17.7114,-9.5947 8.1177,-0.3701 22.8789,-2.3994 38.3755,3.874 9.9649,4.0596 12.3648,5.7207 12.3648,7.75 0,2.0303 0.7358,13.4658 -8.1182,21.7695 -11.9941,11.4385 -17.1606,8.6739 -19.5591,11.4385 -1.4756,1.8467 -0.9209,6.4561 -2.3974,11.9922 -1.2925,8.6738 -3.5059,10.1475 -3.5059,12.1768 0,2.0293 1.6587,1.8467 6.6411,11.8095 4.9829,9.962 10.333,16.9747 7.1963,45.5723 8.6724,-2.9531 16.0493,-3.1377 26.0142,-0.1846 9.9653,2.9522 18.2656,7.9327 19.3715,7.9327 1.1089,0 6.8296,-4.9805 15.1304,-4.9805 8.3008,0 20.2949,2.5859 20.2949,19.5576 0,16.9717 -11.6211,19.5537 -16.2358,19.5537 z"
       inkscape:connector-curvature="0" /><path
       id="path14"
       style="fill:#09005f;fill-opacity:1;fill-rule:nonzero;stroke:none"
       d="m 214.1455,305.8643 c -16.9517,0 -32.8735,-3.7823 -48.7939,-19.7022 -15.9209,-15.9189 -20.3877,-31.1533 -20.3877,-49.0215 0,-17.8691 8.9326,-45.5888 47.1899,-51.0869 -1.6025,7.3311 -0.228,16.7246 1.604,19.9326 -14.4321,14.4317 -12.1406,23.5938 -12.1406,31.8408 0,8.2471 0.687,18.3272 9.6211,27.2618 6.2993,6.2978 12.5986,6.1855 16.0346,5.7265 10.5386,-2.0625 58.6451,-15.8095 70.0977,-17.6406 0,6.416 -3.4336,18.0967 -21.0737,35.7363 -14.8911,14.8916 -35.7378,16.9532 -42.1514,16.9532 z"
       inkscape:connector-curvature="0" /><path
       id="path16"
       style="fill:#ffffff;fill-opacity:1;fill-rule:nonzero;stroke:none"
       d="m 177.7217,291.8916 c -25.5928,-16.6279 -42.6089,-56.8154 -13.2857,-88.4287 -3.208,50.3994 11.4536,95.3008 89.3428,80.6377 -21.0776,20.1611 -51.6265,23.6621 -76.0571,7.791 z"
       inkscape:connector-curvature="0" /><path
       id="path18"
       style="fill:#ffae00;fill-opacity:1;fill-rule:nonzero;stroke:none"
       d="m 275.5503,246.2861 c -21.4199,4.5801 -60.8638,17.7285 -69.2852,17.7285 -8.4213,0 -17.2846,-6.9443 -17.2846,-25.707 0,-17.873 3.8403,-20.8291 7.8296,-24.8183 0.1035,-0.1045 0.2378,-0.212 0.3784,-0.3194 2.7182,3.1865 5.643,5.7071 8.4282,5.7071 3.313,0 23.9165,-1.7608 27.4468,-16.3272 9.0952,-1.8789 18.9917,-3.5996 28.6025,-4.8691 8.271,12.8535 15.2158,29.9912 13.8843,48.6054 z"
       inkscape:connector-curvature="0" /><path
       id="path20"
       style="fill:#000000;fill-opacity:1;fill-rule:nonzero;stroke:none"
       d="m 277.6201,238.3076 c -6.3813,0 -13.1489,-3.3984 -22.456,-9.6025 6.7968,1.0342 17.7285,3.8418 21.4223,3.8418 0.5908,2.5127 0.4429,4.2842 1.0337,5.7607 z"
       inkscape:connector-curvature="0" /><path
       id="path22"
       style="fill:#000000;fill-opacity:1;fill-rule:nonzero;stroke:none"
       d="m 223.8447,254.7051 c -2.5112,0 -3.6924,-0.5908 -3.6924,-2.3623 0,-1.7715 16.1031,-16.8399 22.0118,-20.2393 -1.1827,3.3965 -15.2173,22.6016 -18.3194,22.6016 z"
       inkscape:connector-curvature="0" /><path
       id="path24"
       style="fill:#000000;fill-opacity:1;fill-rule:nonzero;stroke:none"
       d="m 234.7773,233.4326 c -3.3984,0 -7.5341,-3.248 -7.5341,-7.8281 0,-3.8438 3.2485,-7.3877 6.352,-7.3877 3.103,0 8.5689,1.3291 8.5689,7.9785 0,5.0205 -5.7608,7.2373 -7.3868,7.2373 z"
       inkscape:connector-curvature="0" /><path
       id="path26"
       style="fill:#ffffff;fill-opacity:1;fill-rule:nonzero;stroke:none"
       d="m 236.1064,230.9199 c -1.1811,0 -2.9541,-1.3261 -2.9541,-2.6572 0,-1.332 0.7378,-2.9531 2.3633,-2.9531 1.6255,0 3.1021,1.4765 3.1021,3.1006 0,1.624 -1.6255,2.5097 -2.5113,2.5097 z"
       inkscape:connector-curvature="0" /><path
       id="path28"
       style="fill:#000000;fill-opacity:1;fill-rule:nonzero;stroke:none"
       d="m 259.8916,227.5244 c -2.8057,0 -7.6807,-3.251 -7.6807,-7.6836 0,-4.4316 2.9532,-7.5351 7.3853,-7.5351 4.1367,0 7.8306,2.5127 7.8306,7.0927 0,3.1026 -2.6602,8.126 -7.5352,8.126 z"
       inkscape:connector-curvature="0" /><path
       id="path30"
       style="fill:#ffffff;fill-opacity:1;fill-rule:nonzero;stroke:none"
       d="m 261.2202,224.4209 c -1.3286,0 -3.1006,-0.5938 -3.1006,-2.3652 0,-1.7715 0.7383,-2.9532 2.3623,-2.9532 2.5127,0 2.9556,1.6241 2.9556,2.8086 0,1.1807 -0.5903,2.5098 -2.2173,2.5098 z"
       inkscape:connector-curvature="0" /><path
       id="path32"
       style="fill:#09005f;fill-opacity:1;fill-rule:nonzero;stroke:none"
       d="m 234.3052,193.8418 c -0.6875,-7.3291 -6.8726,-13.5147 -6.8726,-13.5147 5.9556,-0.915 19.6992,-1.6054 31.6133,9.6221 -12.1396,2.2891 -24.7407,3.8926 -24.7407,3.8926 z"
       inkscape:connector-curvature="0" /><path
       id="path34"
       style="fill:#df00d0;fill-opacity:1;fill-rule:nonzero;stroke:none"
       d="m 172.625,307.4668 c 1.4067,0.8428 2.71,-0.1689 4.7329,-2.0664 1.3784,2.5879 1.6245,5.9375 1.6245,7.0488 0,1.8906 -2.4057,7.2168 -9.7934,7.2168 -2.9209,0 -7.7315,-2.5781 -7.7315,-7.3887 0,-4.289 1.2471,-8.9824 8.2188,-9.9462 -0.043,3.7773 1.3716,4.1914 2.9487,5.1357 z"
       inkscape:connector-curvature="0" /><path
       id="path36"
       style="fill:#ffffff;fill-opacity:1;fill-rule:nonzero;stroke:none"
       d="m 169.189,315.3701 c -1.7837,0.8106 -3.6079,0.8594 -4.1236,0.1719 -0.5151,-0.6875 -0.5151,-3.2647 0.5157,-4.1231 1.0307,-0.8593 2.749,-1.0312 3.9516,-0.5156 1.2027,0.5156 1.5464,3.6084 -0.3437,4.4668 z"
       inkscape:connector-curvature="0" /><path
       id="path38"
       style="fill:#09005f;fill-opacity:1;fill-rule:nonzero;stroke:none"
       d="m 162.1138,143.291 c -8.7461,8.3252 -7.2466,21.0342 -7.2466,22.5772 0,2.2744 4.2939,22.2226 28.0293,18.9394 -17.9287,6.3115 -24.9986,12.626 -24.9986,12.626 -7.2387,-4.1934 -22.3706,-14.1397 -29.3715,-29.8281 8.9004,-11.2373 25.0361,-21.9385 33.5874,-24.3145 z"
       inkscape:connector-curvature="0" /><path
       id="path40"
       style="fill:#09005f;fill-opacity:1;fill-rule:nonzero;stroke:none"
       d="m 238.979,151.1895 c -0.7007,15.3076 -7.2554,23.8388 -8.106,25.538 -2.2724,-0.5048 -6.8173,-0.2529 -6.8173,-0.2529 -1.231,-8.6113 -7.2886,-30.5361 -26.146,-37.9404 16.601,0.2422 31.5205,5.6865 41.0693,12.6553 z"
       inkscape:connector-curvature="0" /><path
       id="path42"
       style="fill:#09005f;fill-opacity:1;fill-rule:nonzero;stroke:none"
       d="m 170.271,101.7324 c 0,3.9512 2.4629,9.5947 6.6724,14.4483 -29.1167,3.1435 -39.1729,18.9873 -51.9336,29.4951 1.4077,-18.6904 11.4116,-46.5049 46.4853,-52.4512 -0.7314,2.5479 -1.2241,5.4043 -1.2241,8.5078 z"
       inkscape:connector-curvature="0" /><path
       id="path44"
       style="fill:#09005f;fill-opacity:1;fill-rule:nonzero;stroke:none"
       d="m 215.6475,119.5254 c 2.6792,-2.4238 5.5141,-5.6729 9.1005,-9.9463 5.3721,6.3574 9.3423,13.9492 11.7398,22.0156 -4.4351,-4.2363 -10.9409,-8.8828 -20.8403,-12.0693 z"
       inkscape:connector-curvature="0" /><path
       id="path46"
       style="fill:#ffffff;fill-opacity:1;fill-rule:nonzero;stroke:none"
       d="m 169.8735,196.8779 c -13.0024,-1.6865 -40.6948,-20.4677 -40.6948,-45.9922 0,-21.4306 10.1123,-37.3252 25.0425,-43.3447 -9.1499,19.0254 -9.8721,21.4317 -9.8721,34.4356 0,13.0029 7.9473,25.0439 13.2442,30.3398 5.2963,5.2969 18.3003,12.5205 20.7085,15.1709 2.4077,2.6494 -8.4283,9.3906 -8.4283,9.3906 z"
       inkscape:connector-curvature="0" /><path
       id="path48"
       style="fill:#ffffff;fill-opacity:1;fill-rule:nonzero;stroke:none"
       d="m 154.2212,107.541 c -4.7608,9.8985 -7.228,15.292 -8.5112,20.0274 -6.1206,4.3379 -10.9771,9.2636 -15.7906,13.7558 2.5479,-16.5556 11.6939,-28.7012 24.3018,-33.7832 z"
       inkscape:connector-curvature="0" /><path
       id="path50"
       style="fill:#ffffff;fill-opacity:1;fill-rule:nonzero;stroke:none"
       d="m 144.3491,141.9766 c 0,2.1582 0.2359,4.2871 0.6255,6.3672 -5.4751,3.7158 -10.3398,7.8144 -14.5679,11.8203 -0.7905,-2.9717 -1.228,-6.0723 -1.228,-9.2784 0,-1.7959 0.0967,-3.538 0.2349,-5.2529 5.9424,-5.1172 10.894,-9.2168 15.2671,-12.5371 -0.2686,2.5391 -0.3316,5.3047 -0.3316,8.8809 z"
       inkscape:connector-curvature="0" /><path
       id="path52"
       style="fill:#ffffff;fill-opacity:1;fill-rule:nonzero;stroke:none"
       d="m 162.0107,194.5068 c -10.8657,-4.7138 -24.7836,-15.8086 -30.3584,-30.5039 4.1329,-4.4326 9.1597,-8.6367 14.1504,-12.1181 2.2242,7.8359 6.6011,14.6201 10.2857,18.8105 2.0669,5.3955 7.2724,13.3154 19.1299,14.3457 0.956,0.669 1.7627,1.2676 2.3545,1.7695 -7.3648,2.9346 -12.4268,5.7129 -15.5621,7.6963 z"
       inkscape:connector-curvature="0" /><path
       id="path54"
       style="fill:#dfd000;fill-opacity:1;fill-rule:nonzero;stroke:none"
       d="m 223.7964,140.043 c 0.185,-3.5274 0.4482,-8.3008 0.7021,-12.0264 5.3047,2.8721 9.7867,6.1533 13.4546,9.3506 0.3008,1.4971 0.5532,3.0039 0.7481,4.5127 0.2158,2.0127 0.3008,3.9111 0.3286,5.7529 -5.1138,-3.0898 -9.9019,-5.6162 -15.2334,-7.5898 z"
       inkscape:connector-curvature="0" /><path
       id="path56"
       style="fill:#5f0011;fill-opacity:1;fill-rule:nonzero;stroke:none"
       d="m 196.5308,125.9736 c 6.6914,0 11.0322,-0.8935 15.0351,-3.3535 2.9341,0.9053 5.7193,1.9492 8.315,3.1221 -0.0708,3.2812 0.2124,8.7275 0.1709,13.0342 -8.6338,-2.6397 -19.0269,-3.9659 -34.3785,-3.9659 -25.7915,0 -45.8906,15.7422 -58.7241,28.7227 -1.3345,-4.0244 -2.1304,-8.373 -2.1304,-13.0684 0,-0.2822 0.0108,-0.5771 0.0152,-0.8642 28.3027,-24.6738 35.9619,-29.2676 55.5054,-30.0459 4.3501,3.7285 9.8789,6.4189 16.1914,6.4189 z"
       inkscape:connector-curvature="0" /><path
       id="path58"
       style="fill:#ffae00;fill-opacity:1;fill-rule:nonzero;stroke:none"
       d="m 193.4141,183.7637 c -2.9204,-2.5772 -3.6079,-2.0616 -10.9956,-2.0616 -7.3882,0 -16.6656,0.1719 -21.3047,-8.5908 -4.6387,-8.7627 -4.5528,-19.5 3.9516,-28.0049 3.7798,-3.7802 11.5113,-6.1855 20.4453,-6.1855 8.9346,0 18.8995,6.1855 24.5694,13.5732 5.6694,7.3877 9.6211,16.6661 9.6211,23.0225 -3.7798,-1.0312 -10.4805,-1.374 -15.9785,1.375 -5.4976,2.748 -10.4805,4.2949 -10.3086,6.8721 z"
       inkscape:connector-curvature="0" /><path
       id="path60"
       style="fill:#bf0060;fill-opacity:1;fill-rule:nonzero;stroke:none"
       d="m 209.2207,215.2051 c -4.1235,0 -8.0752,-1.8906 -9.793,-4.124 -1.7182,-2.2334 -4.9824,-9.9649 -4.9824,-15.8067 0,-5.8408 0.3433,-8.9336 1.0308,-9.793 0.687,-0.8584 10.6518,-6.872 17.0093,-6.872 6.3569,0 11.8544,2.5771 14.4316,7.0439 2.5771,4.4668 3.6084,8.0752 3.6084,12.0274 0,3.9511 -1.8901,9.2773 -5.8418,11.6826 -3.9517,2.4053 -10.1367,5.8418 -15.4629,5.8418 z"
       inkscape:connector-curvature="0" /><path
       id="path62"
       style="fill:#ffffff;fill-opacity:1;fill-rule:nonzero;stroke:none"
       d="m 207.1592,210.5664 c -2.749,0 -5.4981,-1.2031 -7.3882,-10.6523 3.9517,3.7793 10.8242,8.4179 20.2739,6.1845 -3.6079,3.0928 -10.8242,4.4678 -12.8857,4.4678 z"
       inkscape:connector-curvature="0" /><path
       id="path64"
       style="fill:#ffae00;fill-opacity:1;fill-rule:nonzero;stroke:none"
       d="m 284.0869,198.0508 c -5.9892,1.2344 -16.7353,2.3779 -16.7353,2.3779 -0.5689,-1.331 -2.3755,-3.1406 -2.3755,-3.1406 1.9946,-1.5195 2.3755,-1.707 2.3755,-4.2764 0,-2.5693 -2.3785,-3.3291 -4.5635,-3.3291 -2.4727,-3.5195 -10.5557,-12.4531 -27.9556,-12.5498 0.4751,-4.1855 3.6148,-8.1767 5.1358,-9.0332 1.5205,-0.8564 7.228,-2.0947 11.2197,-2.0947 3.9922,0 22.5366,3.3291 33.6616,9.415 0,1.9004 -2.0937,4.1826 -2.0937,11.791 0,7.6075 1.331,10.8399 1.331,10.8399 z"
       inkscape:connector-curvature="0" /><path
       id="path66"
       style="fill:#bf0060;fill-opacity:1;fill-rule:nonzero;stroke:none"
       d="m 304.5327,202.5205 c -4.4697,0 -14.2656,-2.6631 -16.5478,-5.0391 -2.2818,-2.3779 -1.9947,-4.9443 -1.9947,-10.08 0,-5.1358 1.5196,-10.9346 3.3262,-12.7412 1.8096,-1.8067 5.3262,-2.7598 6.8486,-2.7598 3.4229,0 1.4253,2.1885 4.3731,2.1885 1.9004,0 1.3315,-1.0498 1.3315,-1.7129 0,-0.6631 1.1407,-1.6162 2.9478,-1.6162 1.8066,0 5.4199,0.2871 8.3672,2.5693 2.9482,2.2813 4.5634,3.8945 4.5634,11.2188 0,7.3232 -0.8554,12.8369 -4.9414,15.9755 -4.0918,3.1377 -7.1303,1.9971 -8.2739,1.9971 z"
       inkscape:connector-curvature="0" /><path
       id="path68"
       style="fill:#ffae00;fill-opacity:1;fill-rule:nonzero;stroke:none"
       d="m 197.5913,122.7549 c -7.8618,0 -23.9849,-6.9258 -23.9849,-23.3184 0,-16.3916 16.3907,-22.3857 19.4546,-22.7861 0,-4.1309 4.2647,-10.1289 6.396,-11.0606 2.1319,-0.9306 4.2632,-0.7998 6.5288,-0.3994 2.2657,0.3994 13.7261,3.3291 22.2535,10.9258 1.1987,7.3291 1.3315,17.0576 -3.1983,26.1182 -4.5303,9.0605 -13.1919,20.5205 -27.4497,20.5205 z"
       inkscape:connector-curvature="0" /><path
       id="path70"
       style="fill:#bf0060;fill-opacity:1;fill-rule:nonzero;stroke:none"
       d="m 231.9253,76.6719 c 0,-2.3701 -3.7944,-5.9278 -10.9116,-9.7237 -7.1162,-3.7959 -12.8091,-5.8115 -16.7232,-5.8115 -2.0171,0 -3.0844,0.5928 -4.1513,0.5928 -1.5425,0 -4.0323,-6.6465 -4.0323,-12.4561 0,-2.8457 3.44,-8.6572 19.9258,-8.6572 12.6914,0 27.7544,1.0654 37.0049,6.5234 4.0322,2.7276 4.5073,2.8477 4.5073,5.5752 0,2.7276 -1.0654,9.7237 -7.4707,16.129 -5.7558,5.7529 -14.3545,7.8281 -18.1489,7.8281 z"
       inkscape:connector-curvature="0" /><path
       id="path72"
       style="fill:#ffffff;fill-opacity:1;fill-rule:nonzero;stroke:none"
       d="m 200.6948,48.248 c 1.1421,-2.2841 9.5703,-5.0576 16.9756,-5.5996 -7.5854,3.9727 -11.0176,5.959 -11.9194,7.7666 -0.9019,1.8067 -2.71,5.0547 -3.251,9.0274 -1.9863,-3.7901 -2.7085,-9.3877 -1.8052,-11.1944 z"
       inkscape:connector-curvature="0" /><path
       id="path74"
       style="fill:#bf0060;fill-opacity:1;fill-rule:nonzero;stroke:none"
       d="m 106.627,95.918 c -6.5474,0.5957 -14.0455,-0.3575 -16.3072,-4.5235 -1.0708,-2.3789 -0.8344,-7.3799 0.1182,-11.665 0.9531,-4.2842 7.1435,-24.2842 16.5464,-34.2813 5.7124,-6.4267 8.8076,-7.8554 10.9502,-7.8554 2.1421,0 7.0239,3.6894 9.5234,6.7842 2.499,3.0957 6.0693,10.7109 6.0693,16.5449 0,5.833 -0.5942,7.501 -0.5942,7.501 -4.2861,0 -6.3086,1.664 -12.2602,6.9013 -5.9517,5.2373 -11.9034,9.4043 -14.0459,20.5938 z"
       inkscape:connector-curvature="0" /><path
       id="path76"
       style="fill:#ffffff;fill-opacity:1;fill-rule:nonzero;stroke:none"
       d="m 105.5547,92.7041 c -5.2363,-0.1182 -8.69,-2.0244 -9.9985,-4.166 -1.3086,-2.1426 -0.5962,-12.7354 2.2617,-17.2598 0.1196,4.7598 -0.5962,8.9238 0.7143,12.1397 1.3096,3.2168 3.8076,7.2617 7.0225,9.2861 z"
       inkscape:connector-curvature="0" /><path
       id="path78"
       style="fill:#ffae00;fill-opacity:1;fill-rule:nonzero;stroke:none"
       d="m 128.5288,123.1758 c -4.2856,-3.2129 -6.667,-7.8574 -7.7378,-16.4258 -2.8564,-1.1895 -10.9502,-7.2617 -10.9502,-9.7617 0,-2.499 4.522,-10.2383 8.3311,-14.2842 3.8095,-4.0459 11.4282,-9.8789 12.1426,-10.2363 4.8803,0 23.331,0.1211 33.3281,19.165 -15.8321,3.8096 -34.9927,23.9248 -35.1138,31.543 z"
       inkscape:connector-curvature="0" /><path
       id="path80"
       style="fill:#ffffff;fill-opacity:1;fill-rule:nonzero;stroke:none"
       d="m 139.4536,106.7148 c -3.1421,3.0733 -5.8266,6.2149 -7.7407,9.0577 -1.0015,-4.5528 -2.1582,-7.168 -2.353,-9.0225 -0.2378,-2.2607 -1.7837,-1.4258 -3.2134,-1.9033 -1.4297,-0.4785 -3.9277,-2.1426 -2.9756,-5.1201 0.9512,-2.9766 4.2827,-3.2159 6.7837,-2.0235 2.2671,1.0791 6.9526,4.708 9.499,9.0117 z"
       inkscape:connector-curvature="0" /><path
       id="path82"
       style="fill:#000000;fill-opacity:1;fill-rule:nonzero;stroke:none"
       d="m 501.9805,82.0059 c -0.7491,3.4423 -2.8457,7.332 -2.8457,9.4287 0,2.0967 3.8925,6.8857 3.8925,17.5136 0,8.5342 -3.2939,10.628 -3.2939,14.2198 0,3.5918 7.6348,12.4218 7.6348,29.6377 0,17.2158 -5.6885,29.041 -22.1534,47.4521 6.8868,6.4375 24.6983,23.3496 24.6983,49.6953 0,18.3145 -5.2002,36.1553 -19.5947,51.8037 -0.4454,1.5489 -0.0293,2.3487 1.4824,2.2315 1.6455,-1.0479 5.6885,-1.6465 7.9326,-0.5967 2.2441,1.0469 8.3809,4.1904 8.3809,10.626 0,6.4375 -4.3379,12.126 -12.1231,12.126 -3.7422,0 -10.4775,-4.6416 -10.4775,-11.377 0,-1.7959 0.748,-3.7402 1.3476,-4.79 0.5791,-1.0147 2.0879,-4.3702 -1.4717,-3.3682 -16.1503,14.126 -38.5791,16.2412 -45.9755,16.2412 -14.5205,0 -36.0723,-7.9326 -44.4551,-16.3164 -10.0293,-9.1309 -14.669,-16.0166 -18.1133,-24.6982 -1.0469,-2.8457 -4.043,-1.9493 -4.043,-4.7891 0,-6.8857 2.0967,-4.6416 2.0967,-6.1367 0,-6.1367 -1.4971,-21.1065 -0.8994,-24.999 0.5996,-3.8926 2.6934,-16.3164 5.5391,-22.002 -1.0469,0 -3.1446,-1.9492 -3.1446,-3.8926 0,-1.9463 2.0977,-3.7422 4.4922,-4.3437 1.0469,-1.6426 3.5918,-5.836 4.3399,-6.4346 -15.2666,-3.4443 -18.7129,-5.6885 -20.6573,-5.6885 -1.9433,0 -9.1328,1.7989 -12.4238,1.7989 -3.291,0 -23.2002,2.539 -23.2002,-21.1094 0,-13.1699 8.086,-19.0088 17.5137,-19.0088 9.4287,0 18.2637,4.4912 20.5078,7.0361 2.543,0 8.832,-3.8926 20.9551,-3.8926 0,-1.498 -0.3008,-8.8349 -0.3008,-15.7177 0,-17.5137 9.8799,-31.5811 9.8799,-33.0791 0,-1.4981 -6.8858,-15.4199 -6.8858,-24.8477 0,-6.2871 0.1475,-12.4219 1.0469,-15.1172 -7.6348,-2.5449 -23.9492,-8.5342 -23.9492,-28.292 0,-3.5918 2.6953,-8.9795 11.6758,-10.7754 8.9795,-1.7959 15.2695,-1.6484 20.6572,-1.6484 5.3877,0 20.2061,0.5986 27.6904,4.4912 4.9395,2.3946 8.2315,4.9395 8.2315,7.9326 0,2.9932 0.5986,8.083 -5.3877,17.3633 0,1.1973 4.4883,8.3819 4.789,10.3272 1.0489,0.4511 9.1329,8.3818 14.0723,14.2207 0.8965,0 2.0938,-7.6328 4.6387,-13.3213 2.5449,-5.6885 4.9394,-9.1328 4.9394,-10.6279 0,-1.4952 -6.4345,-8.6817 -6.4345,-18.5606 0,-9.8789 4.6416,-16.9131 9.2802,-16.9131 4.6387,0 20.0567,1.9463 32.6309,9.7295 12.5742,7.7822 21.8545,17.3662 21.8545,23.0518 0,2.542 -6.2871,12.7246 -14.3701,15.417 z"
       inkscape:connector-curvature="0" /><path
       id="path84"
       style="fill:#bf000d;fill-opacity:1;fill-rule:nonzero;stroke:none"
       d="m 438.875,320.5244 c -17.4121,0 -31.8437,-7.5596 -38.7168,-12.5986 -6.8721,-5.0391 -17.6348,-16.2656 -21.3018,-26.3428 10.9961,0 39.629,1.6025 52.459,2.29 12.8291,0.6866 24.5127,1.6026 30.0098,-3.665 5.498,-5.2695 9.8496,-12.8291 9.8496,-19.7012 0,-6.873 -0.2275,-23.1386 -7.1006,-31.8418 -6.8721,-8.706 -9.624,-11.6855 -24.9707,-12.6015 -15.3476,-0.9151 -47.418,-1.8301 -54.749,-0.2276 3.665,-6.873 11.2217,-13.0605 30.6953,-16.9531 4.1231,4.1231 8.2471,6.1856 10.9951,6.1856 2.75,0 7.3291,0.6894 15.8067,-7.7881 12.6015,0 30.7011,2.5176 39.4043,6.4131 8.7031,3.8955 25.6562,21.0761 25.6562,46.9638 0,25.8838 -11.3398,41.3467 -21.9922,51.9991 -10.6523,10.6523 -27.7178,17.8681 -46.0449,17.8681 z"
       inkscape:connector-curvature="0" /><path
       id="path86"
       style="fill:#ffae00;fill-opacity:1;fill-rule:nonzero;stroke:none"
       d="m 378.918,273.7949 c -2.9336,-13.7636 -2.7481,-32.3008 3.6728,-49.7363 9.1758,-0.7334 24.2227,-1.2832 36.1524,-1.2832 11.9306,0 27.5302,0.3672 31.2002,2.9365 3.6699,2.5694 9.9082,7.8897 11.3769,14.8643 1.4688,6.9746 2.5693,15.4179 2.5693,19.2724 0,3.8526 -6.0566,15.5977 -12.1132,16.5157 -18.9014,1.1005 -72.8584,-2.5694 -72.8584,-2.5694 z"
       inkscape:connector-curvature="0" /><path
       id="path88"
       style="fill:#000000;fill-opacity:1;fill-rule:nonzero;stroke:none"
       d="m 377.125,266.2705 c 3.5137,-0.7041 14.0566,-7.8476 18.7441,-13.8203 -1.9921,0 -19.6816,8.4346 -19.6816,8.4346 z"
       inkscape:connector-curvature="0" /><path
       id="path90"
       style="fill:#000000;fill-opacity:1;fill-rule:nonzero;stroke:none"
       d="m 432.1846,272.1279 c -0.8213,0 -16.9854,-10.6582 -23.7793,-19.7959 6.6767,3.1621 26.708,13.8223 26.708,16.0479 0,2.2256 -2.3428,3.748 -2.9287,3.748 z"
       inkscape:connector-curvature="0" /><path
       id="path92"
       style="fill:#000000;fill-opacity:1;fill-rule:nonzero;stroke:none"
       d="m 415.7852,253.0352 c -3.75,0 -7.8497,-3.2803 -7.8497,-7.0284 0,-4.4502 2.459,-8.6709 6.6758,-8.6709 4.2178,0 8.5537,3.8662 8.5537,7.4981 0,3.6318 -2.8105,8.2012 -7.3798,8.2012 z"
       inkscape:connector-curvature="0" /><path
       id="path94"
       style="fill:#ffffff;fill-opacity:1;fill-rule:nonzero;stroke:none"
       d="m 414.3789,250.9258 c -1.5225,0 -2.6934,-1.7559 -2.6934,-2.46 0,-1.6396 1.5225,-3.2803 2.8106,-3.2803 1.2891,0 2.9297,1.9922 2.9297,2.8135 0,0.8194 -0.7031,2.9268 -3.0469,2.9268 z"
       inkscape:connector-curvature="0" /><path
       id="path96"
       style="fill:#000000;fill-opacity:1;fill-rule:nonzero;stroke:none"
       d="m 390.4805,252.6836 c -2.459,0 -8.3164,-0.9365 -8.3164,-7.4981 0,-4.6865 2.6953,-7.6132 6.7949,-7.6132 4.9199,0 8.4346,3.3965 8.4346,7.1465 0,3.747 -3.5166,7.9648 -6.9131,7.9648 z"
       inkscape:connector-curvature="0" /><path
       id="path98"
       style="fill:#ffffff;fill-opacity:1;fill-rule:nonzero;stroke:none"
       d="m 389.0762,250.1064 c -1.4063,0 -2.9278,-0.8212 -2.9278,-2.3437 0,-1.5215 0.8204,-3.0439 2.5762,-3.0439 1.7559,0 2.6953,1.1699 2.6953,2.3408 0,1.1709 -0.9365,3.0468 -2.3437,3.0468 z"
       inkscape:connector-curvature="0" /><path
       id="path100"
       style="fill:#ffffff;fill-opacity:1;fill-rule:nonzero;stroke:none"
       d="m 470.6387,237.626 c -1.0801,-4.0694 -2.6289,-7.9512 -4.9854,-10.9336 -6.873,-8.7061 -9.624,-11.6865 -24.9717,-12.5986 -13.4277,-0.8028 -39.6582,-1.6055 -50.9179,-0.7168 -1.0576,0.0507 -1.8604,-1.8956 0.8886,-2.0108 2.7491,-0.1133 38.7598,-0.7412 50.2842,0.6865 15.6914,1.9493 20.043,5.6162 25.541,12.4893 5.4971,6.8721 6.1846,11.3389 6.2998,12.8262 0.1163,1.4873 -1.6455,2.1211 -2.1386,0.2578 z"
       inkscape:connector-curvature="0" /><path
       id="path102"
       style="fill:#ffffff;fill-opacity:1;fill-rule:nonzero;stroke:none"
       d="m 415.2773,311.8184 c -14.0878,-6.6436 -22.5664,-14.6602 -30.6972,-26.459 8.706,1.2597 24.7402,1.375 28.1767,0.6875 -4.8105,3.208 -17.8681,10.1933 2.5205,25.7715 z"
       inkscape:connector-curvature="0" /><path
       id="path104"
       style="fill:#bf000d;fill-opacity:1;fill-rule:nonzero;stroke:none"
       d="m 485.333,132.7471 c 5.2061,-1.2354 8.2549,-3.7188 11.0635,-7.5791 4.5605,7.5517 6.7539,15.1386 7.4844,22.2363 -7.1973,-6.0459 -13.3184,-10.9043 -18.5479,-14.6572 z"
       inkscape:connector-curvature="0" /><path
       id="path106"
       style="fill:#bf000d;fill-opacity:1;fill-rule:nonzero;stroke:none"
       d="m 454.1445,121.9658 c -14.3193,-0.7412 -36.2275,1.5645 -60.8261,17.0918 3.3017,-11.6611 11.0791,-21.7392 18.0664,-27.6826 7.0527,-5.9971 18.7519,-13.1807 37.6425,-13.7852 -1.6669,10.0479 0.7364,18.3008 5.1172,24.376 z"
       inkscape:connector-curvature="0" /><path
       id="path108"
       style="fill:#bf000d;fill-opacity:1;fill-rule:nonzero;stroke:none"
       d="m 448.6309,184.0352 c 0,0 1.6045,-0.46 4.2412,-0.46 5.0468,0 11.4707,9.0635 21.6806,9.0635 4.9307,0 10.6651,-1.0313 15.1407,-5.5059 8.3593,-7.4658 8.6865,-16.2178 8.6279,-21.4795 1.4199,1.0313 2.6387,2.0918 3.7021,3.1543 -3.7802,12.9483 -12.2207,23.3662 -22.1445,30.5342 -9.0449,-2.4805 -23.4717,-4.585 -35.4844,-5.6104 2.1201,-2.9931 4.2364,-6.6982 4.2364,-9.6962 z"
       inkscape:connector-curvature="0" /><path
       id="path110"
       style="fill:#bf000d;fill-opacity:1;fill-rule:nonzero;stroke:none"
       d="m 427.8682,160.1768 c -17.7803,2.8671 -22.252,15.1416 -22.252,21.6777 0,5.2246 3.2315,9.7158 6.9287,13.9443 -0.6015,0.2012 -0.9316,0.335 -0.9316,0.335 -8.5342,-8.1367 -17.2266,-17.1543 -19.4043,-36.2461 11.0156,-7.5547 27.2754,-15.2432 52.0615,-15.541 -5.6455,3.1191 -13.7363,10.3887 -16.4023,15.8301 z"
       inkscape:connector-curvature="0" /><path
       id="path112"
       style="fill:#ffffff;fill-opacity:1;fill-rule:nonzero;stroke:none"
       d="m 430.7813,108.6719 c -7.9249,9.4228 -13.4473,15.0605 -16.8565,19.9863 -4.4053,1.6963 -8.9639,3.79 -13.6455,6.3379 7.6025,-17.124 30.502,-26.3242 30.502,-26.3242 z"
       inkscape:connector-curvature="0" /><path
       id="path114"
       style="fill:#ffffff;fill-opacity:1;fill-rule:nonzero;stroke:none"
       d="m 409.5352,150.6953 c -0.0479,5.9033 0.2607,11.7393 2.457,16.8486 -3.5869,3.5088 -5.3613,7.5889 -6.0293,11.0303 -3.8496,-4.9638 -6.6983,-10.9931 -7.7031,-22.4804 3.3476,-1.9219 7.0849,-3.7637 11.2754,-5.3985 z"
       inkscape:connector-curvature="0" /><path
       id="path116"
       style="fill:#09005f;fill-opacity:1;fill-rule:nonzero;stroke:none"
       d="m 503.9316,158.7949 c -0.1767,1.9619 -0.4775,3.8682 -0.8564,5.7393 -1.8574,-1.294 -3.6348,-2.6553 -5.3633,-4.0371 -1.415,-4.3653 -5.3398,-9.5489 -8.9365,-12.5938 -4.4727,-3.7851 -12.043,-8.832 -19.957,-8.832 -6.4541,0 -9.9327,0.1719 -13.3614,1.3476 -17.6797,-0.1074 -31.3662,2.2442 -41.8281,5.5674 0.0244,-4.8662 0.8887,-10.5234 1.7051,-15.1592 16.668,-7.5976 30.2978,-7.4277 42.123,-4.9931 5.2217,5.0791 11.9434,7.8545 18.0459,7.8545 1.7071,0 3.2315,-0.0694 4.6651,-0.1826 10.4052,5.4072 18.167,12.7519 24.0107,19.2461 0.0166,2.0781 -0.0693,4.0966 -0.2471,6.0429 z"
       inkscape:connector-curvature="0" /><path
       id="path118"
       style="fill:#dfd000;fill-opacity:1;fill-rule:nonzero;stroke:none"
       d="m 410.5176,147.0283 c -8.1367,2.8965 -14.1797,6.3164 -18.6094,9.374 -0.1338,-1.9404 -0.2246,-3.9433 -0.2246,-6.0849 0,-1.6621 0.1338,-3.3047 0.3437,-4.9317 6.8887,-5.4121 13.3282,-9.5468 19.379,-12.666 -1.0567,4.1123 -1.3145,9.3291 -0.8887,14.3086 z"
       inkscape:connector-curvature="0" /><path
       id="path120"
       style="fill:#ffae00;fill-opacity:1;fill-rule:nonzero;stroke:none"
       d="m 449.9785,180.7891 c 0,-6.1934 -3.7158,-15.9297 -18.2314,-19.6485 1.2383,-3.3633 14.5156,-18.9394 33.8095,-18.9394 12.3916,0 18.2305,6.7256 22.834,10.4433 4.6045,3.7178 6.9053,11.6807 6.9053,16.2842 0,6.1963 -7.2568,21.0654 -20.5342,21.0654 -6.5508,0 -18.9424,-10.0878 -21.7744,-10.0878 -2.832,0 -3.0088,0.8828 -3.0088,0.8828 z"
       inkscape:connector-curvature="0" /><path
       id="path122"
       style="fill:#477f00;fill-opacity:1;fill-rule:nonzero;stroke:none"
       d="m 427.1436,202.0322 c -4.2471,0 -8.6709,-3.7187 -12.7432,-8.8515 -4.0723,-5.1328 -5.665,-10.2686 -5.665,-11.8604 0,-1.5918 2.0351,-8.4072 5.665,-12.0371 3.6289,-3.6299 10.4453,-5.8418 14.1601,-5.8418 3.7159,0 7.2569,2.126 10.7979,5.1357 3.54,3.0098 7.2588,7.2588 7.2588,11.1514 0,3.8926 -2.3037,9.9111 -7.082,14.8701 -4.7784,4.9551 -8.1446,7.4336 -12.3916,7.4336 z"
       inkscape:connector-curvature="0" /><path
       id="path124"
       style="fill:#ffffff;fill-opacity:1;fill-rule:nonzero;stroke:none"
       d="m 413.3369,180.6123 c 0,-4.7793 3.5381,-12.2148 13.9834,-13.8066 -6.0185,5.8408 -12.9228,15.7548 -8.8506,24.0742 -5.4873,-4.249 -5.1328,-8.499 -5.1328,-10.2676 z"
       inkscape:connector-curvature="0" /><path
       id="path126"
       style="fill:#ffae00;fill-opacity:1;fill-rule:nonzero;stroke:none"
       d="m 387.6699,206.1045 c -5.1357,0 -11.332,-3.0127 -22.3056,-5.665 -1.4151,-0.5313 -3.1866,-6.0206 -3.1866,-10.7999 0,-4.7783 1.2422,-8.6708 2.3028,-9.5566 1.5918,-0.8857 8.8486,-6.373 26.9043,-6.7275 3.1875,9.0283 12.2148,20.5341 15.0468,22.4834 2.1241,1.414 1.7696,1.7666 -0.5312,2.1201 -2.3008,0.3545 -8.499,1.9492 -11.8594,3.8955 -3.3613,1.9463 -5.4853,4.25 -6.3711,4.25 z"
       inkscape:connector-curvature="0" /><path
       id="path128"
       style="fill:#477f00;fill-opacity:1;fill-rule:nonzero;stroke:none"
       d="m 351.0254,202.209 c -4.6006,0 -12.3906,-2.3008 -15.0469,-5.6641 -2.6543,-3.3642 -3.54,-7.9648 -3.54,-11.5058 0,-3.5411 1.7685,-10.0918 6.373,-12.9239 4.6045,-2.832 7.7901,-2.3007 9.5596,-2.3007 4.7783,-0.1768 1.7695,4.6044 4.25,4.4267 1.5918,0 1.5889,-2.126 3.3603,-2.126 1.7725,0 7.4366,2.3008 7.4366,3.7178 0,0.8867 -4.4268,2.6582 -4.4268,9.9141 0,12.2119 1.9483,12.3896 1.9483,13.2754 0,0.8857 -5.8409,3.1865 -9.9141,3.1865 z"
       inkscape:connector-curvature="0" /><path
       id="path130"
       style="fill:#ffffff;fill-opacity:1;fill-rule:nonzero;stroke:none"
       d="m 355.8047,198.4912 c -10.2656,0.8858 -21.9492,-2.832 -18.9395,-17.3476 5.1328,8.6738 10.7969,14.163 18.9395,17.3476 z"
       inkscape:connector-curvature="0" /><path
       id="path132"
       style="fill:#ffae00;fill-opacity:1;fill-rule:nonzero;stroke:none"
       d="m 475.1162,130.5186 c -12.5693,0 -23.0117,-11.8604 -23.0117,-29.5625 0,-10.0909 6.7275,-22.126 16.6387,-31.1534 7.4336,0 29.0302,5.1328 29.0302,13.6289 0,4.6016 -2.3007,9.7373 -2.3007,9.7373 2.6552,4.6006 4.247,9.5596 4.247,15.0459 0,5.4873 -1.7685,22.3038 -24.6035,22.3038 z"
       inkscape:connector-curvature="0" /><path
       id="path134"
       style="fill:#477f00;fill-opacity:1;fill-rule:nonzero;stroke:none"
       d="m 463.0781,69.9795 c -4.9551,-6.3731 -8.1416,-13.2754 -8.1416,-19.1162 0,-5.8418 3.541,-12.0381 5.3096,-13.1006 1.7695,-1.0635 6.7246,-1.0606 12.9209,0.8857 23.8975,8.6739 39.6533,22.835 39.6533,27.2588 0,5.8418 -10.2685,12.9229 -12.3916,13.1006 -1.2402,-2.3008 -12.2148,-13.4521 -32.749,-13.4521 -2.3008,0.706 -3.3613,4.4238 -4.6016,4.4238 z"
       inkscape:connector-curvature="0" /><path
       id="path136"
       style="fill:#ffffff;fill-opacity:1;fill-rule:nonzero;stroke:none"
       d="m 457.9453,54.4014 c 0.8838,-6.1934 2.1211,-10.9717 3.8926,-12.2119 1.7725,-1.2403 6.1963,-1.2403 18.7656,1.414 -9.914,0.1778 -17.6992,2.2988 -22.6582,10.7979 z"
       inkscape:connector-curvature="0" /><path
       id="path138"
       style="fill:#477f00;fill-opacity:1;fill-rule:nonzero;stroke:none"
       d="m 392.625,78.2988 c -7.6133,-2.4775 -21.4199,-10.2656 -21.4199,-24.6035 0,-2.6553 0,-5.1357 6.0195,-7.082 6.0186,-1.9463 15.9326,-3.3633 20.8887,-3.3633 19.1162,0 34.5176,4.9551 34.5176,10.9736 0,6.0186 -4.0704,12.7461 -5.3106,13.6328 -2.832,-0.1777 -15.3984,-1.9462 -25.666,3.5401 -10.2695,5.4873 -9.0293,6.9023 -9.0293,6.9023 z"
       inkscape:connector-curvature="0" /><path
       id="path140"
       style="fill:#ffffff;fill-opacity:1;fill-rule:nonzero;stroke:none"
       d="m 375.6328,62.5459 c -1.0635,-7.6133 -0.1797,-10.6201 0.7051,-11.6826 0.8867,-1.0635 6.5508,-4.0703 17.8799,-3.0098 -9.7344,2.4776 -15.2217,8.1445 -18.585,14.6924 z"
       inkscape:connector-curvature="0" /><path
       id="path142"
       style="fill:#ffae00;fill-opacity:1;fill-rule:nonzero;stroke:none"
       d="m 401.2988,115.8262 c -4.4258,-6.9053 -6.9043,-15.2217 -6.9043,-22.835 0,-7.6133 0.8887,-12.9209 1.5948,-14.3379 0.706,-1.4179 10.4462,-5.1328 15.0468,-6.1963 4.6016,-1.0625 11.6807,-2.832 15.5752,-0.3545 6.3741,4.7793 3.5391,10.2686 5.6651,12.2149 2.1259,1.9463 6.1963,1.415 12.2148,10.4433 -27.2617,2.3008 -42.3057,21.0655 -43.1924,21.0655 z"
       inkscape:connector-curvature="0" /><path
       id="path144"
       style="fill:#ffffff;fill-opacity:1;fill-rule:nonzero;stroke:none"
       d="m 406.2871,111.3457 c -3.3125,-3.9004 -6.7998,-8.6631 -6.8721,-11.5117 -0.0859,-3.3496 0.6866,-10.3086 4.7246,-10.1367 4.0381,0.1718 3.8663,2.3193 3.8663,6.7871 0,3.8926 3.3046,4.4883 3.9267,10.4394 -2.209,1.5733 -4.1152,3.0957 -5.6455,4.4219 z"
       inkscape:connector-curvature="0" /><path
       id="path146"
       style="fill:#bf0060;fill-opacity:1;fill-rule:nonzero;stroke:none"
       d="m 496.7402,324.6455 c -3.2939,0 -6.5859,-1.0498 -8.832,-4.6416 -2.2471,-3.5918 -0.8994,-8.8291 -0.3008,-10.3252 0.1231,-0.2471 0.3946,-0.5791 0.7403,-0.9394 -0.045,0.1503 -0.0909,0.2959 -0.1075,0.4462 -0.1709,1.7178 1.375,3.6075 2.9209,3.6075 1.5469,0 3.0928,-1.7178 3.0928,-3.6075 0,-1.3886 -0.7519,-2.3974 -2.0322,-2.9746 1.0605,-0.4248 2.2285,-0.7255 3.4687,-0.7255 4.043,0 10.0293,3.8925 10.0293,8.833 0,4.9394 -2.9902,10.3271 -8.9795,10.3271 z"
       inkscape:connector-curvature="0" /><path
       id="path148"
       style="fill:#ffffff;fill-opacity:1;fill-rule:nonzero;stroke:none"
       d="m 495.8008,323.1016 c -2.0625,0 -3.6084,-1.8897 -3.6084,-3.0928 0,-1.2022 1.374,-3.0918 2.5771,-3.0918 1.2032,0 4.1231,2.2334 4.1231,3.4355 0,1.2032 -0.5147,2.7491 -3.0918,2.7491 z"
       inkscape:connector-curvature="0" /><path
       id="path150"
       style="fill:#000000;fill-opacity:1;fill-rule:nonzero;stroke:none"
       d="m 404.0439,726.2505 c -2.9003,2.1006 -8.1142,2.9082 -13.6425,0.3027 -5.2061,-2.4502 -26.9424,-17.6357 -40.4854,-27.7954 2.3779,6.7886 14.2451,40.8281 14.9776,46.2564 0.9834,7.2968 -1.9502,14.8881 -9.1319,15.9858 -7.1836,1.0977 -13.4521,-7.0288 -14.7597,-10.4097 -1.2657,-3.268 -6.7618,-20.5088 -7.127,-21.6567 -2.4502,1.4053 -5.2705,2.6108 -6.791,2.4331 -5.0537,-0.5977 -7.5488,-4.6558 -9.5791,-9.4092 -2.7481,2.0777 -6.9668,3.6953 -8.8291,3.398 -2.336,-0.375 -7.4116,-3.2256 -8.1919,-7.5415 -0.5552,-3.0479 -1.7651,-7.3838 -1.355,-9.9619 0.29,-1.8052 1.0073,-8.504 4.3257,-12.4346 -0.1099,0.0625 -0.21,0.0923 -0.3179,0.1596 -1.3926,-2.8676 -2.0928,-6.4936 -1.6504,-10.9145 0.4429,-4.4209 4.3936,-14.2129 8.4043,-17.8037 4.0137,-3.5879 4.1885,-4.2329 2.2032,-6.6685 -1.7002,-2.0781 -6.4239,-0.1601 -7.7691,0.4478 l -3.6509,2.6401 -0.8925,0.648 -1.1128,0.8027 c -1.5801,1.145 -3.7906,0.79 -4.941,-0.7905 -1.145,-1.5855 -0.79,-3.7984 0.7954,-4.9409 l 1.1075,-0.8052 -18.2837,-25.2598 -1.2149,0.8775 c -1.8427,1.3354 -4.1836,1.2456 -5.2285,-0.1949 -0.7954,-1.1001 -0.6054,-2.6655 0.3399,-3.9409 -2.1455,0.5054 -4.6182,-0.4297 -6.1538,-2.5527 -1.1299,-1.5606 -1.4727,-3.4058 -1.1275,-5.0264 -0.125,0.0903 -0.2178,0.1553 -0.2178,0.1577 -2.8281,2.0454 -7.0312,1.0728 -9.3842,-2.1801 l -2.7256,-3.7686 c -2.3555,-3.2505 -1.9654,-7.5439 0.8603,-9.5918 0.005,-0.005 0.2427,-0.1777 0.6426,-0.4648 -1.1025,0.0546 -2.1255,-0.3277 -2.7305,-1.1631 -0.3828,-0.5298 -0.5376,-1.1626 -0.5078,-1.8203 -5.3559,2.4956 -12.187,0.5976 -16.1181,-4.833 -4.4034,-6.084 -3.4908,-14.2632 2.0429,-18.2686 l 3.0381,-2.2007 -21.4389,-1.0229 c -0.2779,1.3554 -2.8731,3.1308 -6.0313,1.9555 -0.1602,-2.8227 -0.8628,-7.5664 -2.0557,-9.2192 -0.1098,-0.145 -0.2197,-0.3252 -0.332,-0.4976 -5.8716,2.6729 -12.9204,1.0479 -16.7461,-4.2407 -3.4458,-4.7558 -3.2456,-11.0547 0.0127,-15.728 -2.5581,1.0024 -4.9512,0.8628 -5.9863,-0.5703 -1.3877,-1.9204 0.1748,-5.4234 3.4931,-7.9116 l -9.7016,-13.4053 -3.6309,2.626 -7.0063,-9.6797 -4.5811,3.3159 -29.0254,-40.1006 65.8575,-47.668 29.0209,40.1016 -4.061,2.9409 7.0064,9.6768 -3.2828,2.3803 9.7291,13.44 c 3.2309,-1.9981 6.6713,-2.2451 7.9765,-0.4424 0.7954,1.0952 0.6001,2.7104 -0.3052,4.3584 5.439,-1.6104 11.4624,0.1699 14.8931,4.9131 4.3857,6.0566 2.8857,14.623 -3.3457,19.1313 -0.3198,0.2329 -0.6499,0.44 -0.9824,0.6426 0.1274,0.1953 0.2573,0.3901 0.3774,0.5552 1.1953,1.6528 5.961,3.4531 8.5967,4.4858 0.1274,3.3682 -2.3652,5.2788 -3.7432,5.1187 l -1.2426,17.8608 1.4277,-1.0351 c 5.5337,-4.0035 13.5874,-2.3155 17.9956,3.771 3.8311,5.2959 3.6284,12.1796 -0.1323,16.5127 0.6675,0.163 1.2451,0.5253 1.643,1.0756 0.6148,0.8501 0.6499,1.9605 0.2349,3.0054 0.4976,-0.3599 0.7749,-0.5601 0.7749,-0.5601 2.8233,-1.853 6.8691,-0.8676 9.1621,2.3033 l 2.7256,3.7656 c 2.2954,3.1704 1.9702,7.3213 -0.6728,9.4243 l 0.0175,0.0249 c 0,0 -0.0498,0.0376 -0.1323,0.0977 1.6475,0.1748 3.293,1.0825 4.4233,2.6425 1.5601,2.1558 1.6504,4.8511 0.4351,6.7339 1.4702,-0.4448 2.9556,-0.1225 3.7305,0.9453 1.0454,1.4454 0.3979,3.6983 -1.4478,5.0337 l -1.3179,0.9527 18.2837,25.2622 1.7549,-1.27 c 1.583,-1.1455 3.794,-0.793 4.9395,0.79 1.1474,1.5825 0.792,3.7954 -0.7881,4.9434 l -1.7549,1.268 -0.248,0.1797 -5.9414,4.2984 c -0.2344,3.3559 -1.0674,6.559 1.998,7.0488 3.2207,0.5151 4.6758,-4.1006 16.2832,-4.7534 11.6045,-0.6524 26.1455,1.5854 31.9883,9.6591 4.4111,6.0914 4.9316,15.1036 2.6084,20.8345 9.8515,5.2285 31.876,20.6665 34.3642,23.4971 6.7168,6.7588 3.1504,15.688 -0.6377,18.8208 z"
       inkscape:connector-curvature="0" /><path
       id="path152"
       style="fill:#000000;fill-opacity:1;fill-rule:nonzero;stroke:none"
       d="m 201.9624,436.1807 -65.7827,47.6157 28.4477,39.2974 65.7828,-47.6119 z"
       inkscape:connector-curvature="0" /><path
       id="path154"
       style="fill:#591520;fill-opacity:1;fill-rule:nonzero;stroke:none"
       d="m 201.6699,437.9961 -64.0976,46.3926 27.0752,37.4096 64.1025,-46.3964 z"
       inkscape:connector-curvature="0" /><path
       id="path156"
       style="fill:#ce3629;fill-opacity:1;fill-rule:nonzero;stroke:none"
       d="m 168.5835,461.9155 -25.7827,18.6602 27.0879,37.4272 25.7798,-18.6611 z"
       inkscape:connector-curvature="0" /><path
       id="path158"
       style="fill:#ffffff;fill-opacity:1;fill-rule:nonzero;stroke:none"
       d="m 154.5806,472.0488 -6.7237,4.8687 27.0874,37.4248 6.7266,-4.8687 z"
       inkscape:connector-curvature="0" /><path
       id="path160"
       style="fill:#9d3220;fill-opacity:1;fill-rule:nonzero;stroke:none"
       d="m 180.8984,453.0039 -13.0776,9.4619 27.0874,37.4282 13.0776,-9.4668 z"
       inkscape:connector-curvature="0" /><path
       id="path162"
       style="fill:#000000;fill-opacity:1;fill-rule:nonzero;stroke:none"
       d="m 165.7954,512.3193 54.6431,-39.5503 -20.9893,-29.0019 -54.6455,39.5537 z"
       inkscape:connector-curvature="0" /><path
       id="path164"
       style="fill:#cecbd4;fill-opacity:1;fill-rule:nonzero;stroke:none"
       d="m 199.6343,444.9175 -54.8506,39.6987 22.3594,30.8936 54.853,-39.7027 z"
       inkscape:connector-curvature="0" /><path
       id="path166"
       style="fill:#000000;fill-opacity:1;fill-rule:nonzero;stroke:none"
       d="m 167.6655,512.249 -19.476,-26.8974 0.8452,-0.6104 18.8584,26.0601 50.0249,-36.2071 0.6074,0.8428 z"
       inkscape:connector-curvature="0" /><path
       id="path168"
       style="fill:#000000;fill-opacity:1;fill-rule:nonzero;stroke:none"
       d="m 175.1147,494.8257 0.9927,2.7353 -0.6626,0.4829 -1.1606,-3.7182 0.5854,-0.4229 3.1856,2.251 -0.645,0.4649 z"
       inkscape:connector-curvature="0" /><path
       id="path170"
       style="fill:#000000;fill-opacity:1;fill-rule:nonzero;stroke:none"
       d="m 180.6504,494.2759 -2.1553,1.5576 -2.1655,-2.9883 2.2305,-1.6128 0.3803,0.5279 -1.6128,1.165 0.5674,0.7876 1.4102,-1.02 0.3701,0.5102 -1.4102,1.02 0.4654,0.6402 1.5376,-1.1153 z"
       inkscape:connector-curvature="0" /><path
       id="path172"
       style="fill:#000000;fill-opacity:1;fill-rule:nonzero;stroke:none"
       d="m 183.146,492.353 c 0.0752,-0.1279 0.1201,-0.2651 0.125,-0.4101 0.0103,-0.1226 0,-0.2427 -0.0298,-0.3604 -0.0303,-0.1172 -0.0849,-0.2373 -0.1699,-0.3574 -0.1055,-0.1401 -0.2402,-0.2524 -0.4102,-0.3379 -0.1699,-0.0874 -0.3549,-0.0996 -0.5576,-0.0395 0.0947,-0.1529 0.1348,-0.3028 0.1172,-0.4478 -0.0171,-0.1426 -0.0996,-0.3174 -0.2549,-0.5273 l -0.145,-0.2002 c -0.1001,-0.1377 -0.1626,-0.2325 -0.1851,-0.2925 -0.04,-0.0874 -0.0449,-0.1729 -0.01,-0.2525 l -0.0552,-0.0727 -0.6802,0.4902 c 0.0303,0.0825 0.0528,0.145 0.0728,0.1924 0.0473,0.0977 0.0971,0.1875 0.1626,0.2773 l 0.1972,0.2803 c 0.1329,0.1924 0.1924,0.3452 0.1778,0.4551 -0.0176,0.1074 -0.1153,0.2275 -0.2852,0.3525 l -0.6103,0.44 -0.8501,-1.1778 -0.6153,0.4478 2.1656,2.9907 1.4253,-1.0327 c 0.2002,-0.1528 0.3403,-0.29 0.415,-0.4175 m -1.5952,0.4922 -0.5874,-0.81 0.6723,-0.4878 c 0.1353,-0.0948 0.2452,-0.1499 0.335,-0.167 0.1602,-0.0279 0.3027,0.042 0.4253,0.2124 0.1353,0.1821 0.1602,0.3471 0.0952,0.4897 -0.04,0.085 -0.1201,0.1704 -0.25,0.2652 z"
       inkscape:connector-curvature="0" /><path
       id="path174"
       style="fill:#000000;fill-opacity:1;fill-rule:nonzero;stroke:none"
       d="m 184.3413,489.6172 0.3301,1.748 -0.7349,0.5298 -0.3301,-2.6304 -0.8002,-1.1049 0.6176,-0.4478 0.8052,1.1177 2.3555,1.1528 -0.708,0.5103 z"
       inkscape:connector-curvature="0" /><path
       id="path176"
       style="fill:#000000;fill-opacity:1;fill-rule:nonzero;stroke:none"
       d="m 190.0474,486.0415 c 0.1753,0.3174 0.2202,0.6504 0.125,1.0103 -0.0899,0.3598 -0.3247,0.6777 -0.7051,0.9526 -0.44,0.3174 -0.895,0.4277 -1.375,0.3276 -0.478,-0.0976 -0.8877,-0.3877 -1.2407,-0.8676 -0.3448,-0.4776 -0.4849,-0.9502 -0.42,-1.4131 0.0552,-0.4571 0.2828,-0.8325 0.6802,-1.1201 0.2403,-0.1749 0.4776,-0.2676 0.7153,-0.2901 0.1373,-0.0122 0.315,0.0103 0.5401,0.0601 l -0.21,-0.4151 0.4151,-0.2998 1.1601,1.605 -1.248,0.9028 -0.3623,-0.5024 0.6924,-0.5029 c -0.17,-0.1748 -0.3672,-0.2676 -0.585,-0.2925 -0.2227,-0.0225 -0.4375,0.0454 -0.6426,0.1977 -0.2148,0.1524 -0.3501,0.3653 -0.4101,0.6402 -0.0601,0.2724 0.0449,0.5898 0.31,0.9575 0.2627,0.3628 0.5352,0.5776 0.8228,0.6475 0.2876,0.0703 0.5503,0.0175 0.79,-0.1597 0.1279,-0.0903 0.2227,-0.1953 0.293,-0.3149 0.125,-0.2129 0.1396,-0.438 0.0371,-0.6778 z"
       inkscape:connector-curvature="0" /><path
       id="path178"
       style="fill:#000000;fill-opacity:1;fill-rule:nonzero;stroke:none"
       d="m 191.7026,482.1406 c -0.395,-0.0674 -0.8076,0.0503 -1.2299,0.3579 -0.4302,0.3101 -0.6705,0.6602 -0.7251,1.0577 -0.1001,0.5024 0.0449,1.02 0.435,1.5576 0.395,0.5449 0.8399,0.8427 1.3403,0.8955 0.3951,0.0722 0.7999,-0.0479 1.23,-0.3555 0.4253,-0.31 0.6675,-0.6626 0.7251,-1.0576 0.1001,-0.4902 -0.0425,-1.0078 -0.435,-1.5527 -0.3902,-0.5376 -0.835,-0.8379 -1.3404,-0.9029 m -0.06,0.7281 c 0.2803,0.0771 0.5376,0.2846 0.7803,0.6201 0.2451,0.3325 0.3574,0.6474 0.3427,0.935 -0.0127,0.2876 -0.1426,0.52 -0.3926,0.7002 -0.2475,0.1802 -0.5151,0.2324 -0.7929,0.1573 -0.2798,-0.0748 -0.5401,-0.2774 -0.7822,-0.6148 -0.2452,-0.3354 -0.3555,-0.6455 -0.3404,-0.9355 0.0152,-0.2901 0.1499,-0.5249 0.3975,-0.7051 0.2475,-0.1797 0.5127,-0.2324 0.7876,-0.1572 z"
       inkscape:connector-curvature="0" /><path
       id="path180"
       style="fill:#000000;fill-opacity:1;fill-rule:nonzero;stroke:none"
       d="m 196.3086,480.6753 c 0.395,0.5454 0.54,1.063 0.4375,1.5557 -0.0576,0.395 -0.2998,0.7475 -0.7275,1.0576 -0.4248,0.3076 -0.835,0.4277 -1.2251,0.355 -0.5054,-0.0523 -0.9502,-0.3526 -1.3453,-0.8975 -0.3852,-0.5352 -0.5327,-1.0527 -0.435,-1.5552 0.06,-0.3955 0.2998,-0.7505 0.7251,-1.0581 0.4277,-0.3076 0.8374,-0.4272 1.23,-0.3574 0.5078,0.0649 0.9555,0.3647 1.3403,0.8999 m -2.188,-0.0147 c -0.2476,0.1797 -0.3774,0.4126 -0.3926,0.7027 -0.02,0.2925 0.0952,0.6001 0.3355,0.935 0.2446,0.3399 0.5049,0.5425 0.7851,0.6177 0.2798,0.0747 0.545,0.02 0.795,-0.1577 0.2451,-0.1797 0.3798,-0.415 0.3901,-0.7002 0.0151,-0.29 -0.1001,-0.6025 -0.3403,-0.9375 -0.2452,-0.335 -0.5,-0.54 -0.7798,-0.6177 -0.2779,-0.0747 -0.5406,-0.0224 -0.793,0.1577 z"
       inkscape:connector-curvature="0" /><path
       id="path182"
       style="fill:#000000;fill-opacity:1;fill-rule:nonzero;stroke:none"
       d="m 199.6094,480.4556 c 0.1572,-0.2227 0.2348,-0.4727 0.2348,-0.7476 -0.002,-0.2251 -0.0498,-0.438 -0.1401,-0.6377 -0.085,-0.2026 -0.1846,-0.3804 -0.2998,-0.5351 -0.2852,-0.3975 -0.6104,-0.6778 -0.9702,-0.8379 -0.4824,-0.2173 -0.9502,-0.1597 -1.4053,0.1674 l -1.2851,0.9307 2.1626,2.9902 1.288,-0.9326 c 0.1851,-0.1347 0.3199,-0.27 0.4151,-0.3974 m -1.458,0.375 -1.4229,-1.9707 0.5703,-0.4151 c 0.295,-0.2124 0.605,-0.2148 0.9351,-0.002 0.1802,0.1147 0.3452,0.2846 0.5078,0.5049 0.2227,0.31 0.3452,0.5776 0.3701,0.81 0.0225,0.2349 -0.1025,0.4526 -0.3828,0.6577 l -0.5776,0.4151 z"
       inkscape:connector-curvature="0" /><path
       id="path184"
       style="fill:#000000;fill-opacity:1;fill-rule:nonzero;stroke:none"
       d="m 170.4287,490.6099 0.7075,-0.5098 -2.353,-1.1553 -0.8076,-1.1128 -0.6177,0.4449 0.8003,1.1054 0.3325,2.6328 0.7329,-0.5302 -0.3252,-1.75 z"
       inkscape:connector-curvature="0" /><path
       id="path186"
       style="fill:#000000;fill-opacity:1;fill-rule:nonzero;stroke:none"
       d="m 171.8638,485.4365 c -0.395,-0.0698 -0.8023,0.0498 -1.23,0.3599 -0.4253,0.3076 -0.665,0.6577 -0.7251,1.0552 -0.0977,0.5005 0.0498,1.0205 0.4375,1.5532 0.395,0.5473 0.8403,0.8476 1.3379,0.8999 0.3974,0.0674 0.8076,-0.0503 1.2324,-0.3574 0.4277,-0.3101 0.6675,-0.6602 0.7251,-1.0581 0.1025,-0.4898 -0.04,-1.0074 -0.4351,-1.5528 -0.3872,-0.5351 -0.8374,-0.8325 -1.3427,-0.8999 m -0.0547,0.73 c 0.2773,0.0752 0.5347,0.2803 0.7798,0.6152 0.2451,0.3326 0.3554,0.6451 0.3403,0.9327 -0.0151,0.2924 -0.145,0.5224 -0.3901,0.7026 -0.2549,0.1802 -0.5152,0.2349 -0.795,0.1601 -0.2802,-0.0751 -0.5405,-0.2827 -0.7827,-0.6176 -0.2426,-0.335 -0.3579,-0.645 -0.3427,-0.9375 0.0151,-0.2852 0.1499,-0.5205 0.3999,-0.7002 0.25,-0.1826 0.5102,-0.2324 0.7905,-0.1553 z"
       inkscape:connector-curvature="0" /><path
       id="path188"
       style="fill:#000000;fill-opacity:1;fill-rule:nonzero;stroke:none"
       d="m 174.8018,487.4443 0.6328,-0.455 -1.3277,-1.8355 c -0.1474,-0.2051 -0.2324,-0.3725 -0.2524,-0.5024 -0.0503,-0.2251 0.0596,-0.4253 0.3125,-0.6104 0.2524,-0.1821 0.4775,-0.2197 0.6724,-0.1074 0.1201,0.0625 0.25,0.1929 0.4003,0.3975 l 1.3301,1.8354 0.6328,-0.4551 -1.3305,-1.8354 c -0.23,-0.3174 -0.4575,-0.5327 -0.6826,-0.6353 -0.42,-0.1924 -0.8877,-0.0996 -1.4053,0.273 -0.5176,0.375 -0.7476,0.7925 -0.7002,1.2475 0.0303,0.2476 0.1601,0.5303 0.3901,0.8501 z"
       inkscape:connector-curvature="0" /><path
       id="path190"
       style="fill:#000000;fill-opacity:1;fill-rule:nonzero;stroke:none"
       d="m 179.7354,483.876 0.7026,-0.5098 -1.1128,-3.7534 -0.6748,0.4902 0.25,0.7598 -1.0952,0.7905 -0.6504,-0.4653 -0.6499,0.4678 3.2305,2.2202 m -1.3951,-1.8301 0.7652,-0.5552 0.4775,1.4551 z"
       inkscape:connector-curvature="0" /><path
       id="path192"
       style="fill:#000000;fill-opacity:1;fill-rule:nonzero;stroke:none"
       d="m 183.7764,480.833 c 0.08,-0.1274 0.1201,-0.2651 0.1299,-0.4126 0.005,-0.1172 -0.002,-0.2402 -0.0352,-0.3574 -0.0273,-0.1201 -0.085,-0.2354 -0.1699,-0.355 -0.105,-0.1401 -0.2373,-0.2554 -0.4077,-0.3403 -0.1675,-0.0899 -0.3575,-0.1001 -0.5601,-0.0401 0.0977,-0.1523 0.1377,-0.3027 0.1201,-0.4448 -0.02,-0.1426 -0.1074,-0.3179 -0.2573,-0.5278 l -0.145,-0.2027 c -0.1001,-0.1347 -0.1602,-0.2324 -0.1851,-0.2924 -0.04,-0.085 -0.04,-0.17 -0.0102,-0.2525 l -0.0547,-0.0727 -0.6802,0.4926 c 0.0298,0.0801 0.0498,0.1426 0.0747,0.19 0.0449,0.0976 0.0952,0.1875 0.1626,0.2754 l 0.1924,0.2822 c 0.1352,0.1929 0.1953,0.3452 0.1802,0.4551 -0.0176,0.1079 -0.1153,0.2275 -0.2852,0.3506 l -0.6099,0.4423 -0.8501,-1.1752 -0.6152,0.4448 2.1655,2.9931 1.4253,-1.0351 c 0.2022,-0.1548 0.3374,-0.2925 0.4151,-0.4175 m -1.5957,0.4951 -0.5874,-0.81 0.6777,-0.4903 c 0.1299,-0.0947 0.2397,-0.1523 0.3301,-0.1674 0.1601,-0.0274 0.3022,0.0424 0.4248,0.2124 0.1304,0.1826 0.165,0.3476 0.1001,0.4926 -0.0425,0.0801 -0.1299,0.1675 -0.2549,0.2627 z"
       inkscape:connector-curvature="0" /><path
       id="path194"
       style="fill:#000000;fill-opacity:1;fill-rule:nonzero;stroke:none"
       d="m 187.127,478.5249 -2.1553,1.5581 -2.1607,-2.9883 2.2256,-1.6128 0.3799,0.5254 -1.6103,1.1699 0.5703,0.7852 1.4052,-1.02 0.3726,0.5102 -1.4102,1.0201 0.4624,0.6401 1.5406,-1.1152 z"
       inkscape:connector-curvature="0" /><path
       id="path196"
       style="fill:#000000;fill-opacity:1;fill-rule:nonzero;stroke:none"
       d="m 191.1475,475.6147 -0.3824,-0.5253 -0.8979,0.6503 -1.7827,-2.4628 -0.6324,0.457 1.7803,2.4634 -0.8979,0.6499 0.3828,0.5278 z"
       inkscape:connector-curvature="0" /><path
       id="path198"
       style="fill:#000000;fill-opacity:1;fill-rule:nonzero;stroke:none"
       d="m 189.3672,472.3462 2.1655,2.9907 0.6152,-0.4477 -0.8251,-1.1402 1.1674,-0.8452 0.8252,1.1431 0.6177,-0.4453 -2.1655,-2.9932 -0.6148,0.4478 0.9673,1.3349 -1.1675,0.8457 -0.9653,-1.3354 z"
       inkscape:connector-curvature="0" /><path
       id="path200"
       style="fill:#000000;fill-opacity:1;fill-rule:nonzero;stroke:none"
       d="m 196.7437,471.564 -2.1553,1.56 -2.1655,-2.9878 2.2304,-1.6142 0.3799,0.5249 -1.6128,1.1689 0.5679,0.7852 1.4101,-1.02 0.3702,0.5127 -1.4102,1.02 0.4648,0.6377 1.5381,-1.1128 z"
       inkscape:connector-curvature="0" /><path
       id="path202"
       style="fill:#000000;fill-opacity:1;fill-rule:nonzero;stroke:none"
       d="m 158.3965,487.7695 c 0.005,-0.1928 -0.0601,-0.3755 -0.1904,-0.5503 -0.1324,-0.1826 -0.2847,-0.2973 -0.4551,-0.3398 -0.0996,-0.0254 -0.2149,-0.0278 -0.3526,-0.005 0.1128,-0.165 0.168,-0.3379 0.1553,-0.5127 -0.008,-0.1777 -0.0776,-0.3555 -0.1977,-0.5254 -0.1299,-0.1777 -0.2901,-0.3076 -0.48,-0.3823 -0.125,-0.0527 -0.25,-0.0801 -0.3853,-0.0825 -0.1474,-0.005 -0.2949,0.0249 -0.4448,0.0947 -0.1499,0.0654 -0.3027,0.1553 -0.4551,0.2651 l -1.3452,0.9781 2.1602,2.9853 1.4477,-1.0454 c 0.3628,-0.27 0.543,-0.5625 0.543,-0.8799 m -1.7578,0.9825 -0.4829,-0.6651 0.7251,-0.5224 c 0.1303,-0.0953 0.25,-0.1475 0.3652,-0.1553 0.1201,-0.005 0.2251,0.0527 0.3149,0.1802 0.1001,0.1377 0.1153,0.27 0.0401,0.3925 -0.0674,0.0948 -0.1724,0.1973 -0.315,0.2998 l -0.6474,0.4703 m -0.8428,-1.1602 -0.5825,-0.8076 0.7275,-0.5249 c 0.125,-0.0952 0.2398,-0.1504 0.3399,-0.168 0.1753,-0.0273 0.33,0.0527 0.4702,0.2402 0.1123,0.1578 0.1274,0.3101 0.0449,0.4654 -0.0474,0.0825 -0.1348,0.1723 -0.2627,0.2651 z"
       inkscape:connector-curvature="0" /><path
       id="path204"
       style="fill:#000000;fill-opacity:1;fill-rule:nonzero;stroke:none"
       d="m 161.1069,484.0288 c 0.3951,0.5449 0.5401,1.0625 0.4375,1.5552 -0.0551,0.395 -0.2973,0.7475 -0.7226,1.0552 -0.4302,0.31 -0.835,0.4301 -1.2329,0.3623 -0.5025,-0.0572 -0.9473,-0.3575 -1.3428,-0.9024 -0.3848,-0.5351 -0.5322,-1.0527 -0.4351,-1.5527 0.0577,-0.4004 0.3003,-0.75 0.7251,-1.0606 0.4278,-0.3076 0.8404,-0.4272 1.2329,-0.3574 0.5025,0.065 0.9527,0.3653 1.3379,0.9004 m -2.1855,-0.0151 c -0.25,0.1801 -0.3823,0.415 -0.3975,0.7051 -0.0151,0.2875 0.0972,0.5976 0.3423,0.9326 0.2402,0.3374 0.5005,0.5424 0.7803,0.6176 0.2803,0.0752 0.5449,0.0225 0.79,-0.1552 0.25,-0.1822 0.3853,-0.4151 0.398,-0.7022 0.0146,-0.29 -0.1026,-0.6025 -0.3428,-0.938 -0.2427,-0.3349 -0.5,-0.5424 -0.7827,-0.6147 -0.2774,-0.0776 -0.5376,-0.0278 -0.7876,0.1548 z"
       inkscape:connector-curvature="0" /><path
       id="path206"
       style="fill:#000000;fill-opacity:1;fill-rule:nonzero;stroke:none"
       d="m 162.457,481.7358 1.1553,2.7481 -0.9077,0.6553 -2.1655,-2.9908 0.5776,-0.4174 1.4604,2.0224 c 0.0474,0.0576 0.105,0.1402 0.1778,0.2451 0.0747,0.1104 0.1323,0.1905 0.1748,0.2476 l -1.2476,-2.9229 0.6099,-0.4399 2.3857,2.0952 c -0.04,-0.0576 -0.1001,-0.1377 -0.1753,-0.2427 -0.08,-0.1049 -0.1372,-0.185 -0.1801,-0.2421 l -1.4649,-2.0235 0.5747,-0.415 2.1656,2.9883 -0.8951,0.6503 z"
       inkscape:connector-curvature="0" /><path
       id="path208"
       style="fill:#000000;fill-opacity:1;fill-rule:nonzero;stroke:none"
       d="m 168.2031,480.6753 c 0,-0.1899 -0.0649,-0.3774 -0.1948,-0.5547 -0.1304,-0.1826 -0.2803,-0.2954 -0.4551,-0.3379 -0.0952,-0.0249 -0.2129,-0.0249 -0.3501,-0.005 0.1123,-0.165 0.1602,-0.3349 0.1548,-0.5127 -0.01,-0.1772 -0.0747,-0.3549 -0.1997,-0.5249 -0.1304,-0.1777 -0.29,-0.3076 -0.4805,-0.3803 -0.122,-0.0523 -0.25,-0.0821 -0.3847,-0.085 -0.1451,-0.005 -0.3003,0.0278 -0.4478,0.0977 -0.1474,0.0673 -0.3003,0.1552 -0.4502,0.2651 l -1.3476,0.9727 2.1655,2.9907 1.4453,-1.0454 c 0.3599,-0.2701 0.54,-0.5625 0.5449,-0.8804 m -1.7602,0.9805 -0.48,-0.6626 0.7226,-0.5249 c 0.125,-0.0904 0.25,-0.1426 0.3672,-0.1529 0.1153,-0.0102 0.2202,0.0503 0.313,0.1773 0.1001,0.1406 0.1148,0.2729 0.0425,0.3926 -0.0703,0.0976 -0.1802,0.2031 -0.3203,0.3056 l -0.645,0.4649 m -0.8404,-1.1578 -0.5849,-0.81 0.7202,-0.5254 c 0.1323,-0.0923 0.2451,-0.1475 0.3452,-0.1675 0.1748,-0.0273 0.335,0.0528 0.4697,0.2403 0.1153,0.1577 0.1304,0.31 0.045,0.4624 -0.0474,0.0849 -0.1348,0.1728 -0.2598,0.2675 z"
       inkscape:connector-curvature="0" /><path
       id="path210"
       style="fill:#000000;fill-opacity:1;fill-rule:nonzero;stroke:none"
       d="m 171.4087,478.8354 -2.1553,1.5625 -2.1606,-2.9882 2.2256,-1.6153 0.3828,0.5254 -1.6128,1.1699 0.5698,0.7852 1.4102,-1.02 0.3676,0.5102 -1.4077,1.0201 0.46,0.6401 1.543,-1.1152 z"
       inkscape:connector-curvature="0" /><path
       id="path212"
       style="fill:#000000;fill-opacity:1;fill-rule:nonzero;stroke:none"
       d="m 173.9043,476.9146 c 0.0801,-0.1275 0.1201,-0.2676 0.1299,-0.4122 0.0102,-0.1201 -0.002,-0.2426 -0.0322,-0.3579 -0.0279,-0.1176 -0.0879,-0.2373 -0.1729,-0.3549 -0.0996,-0.1426 -0.2373,-0.2579 -0.4048,-0.3428 -0.1699,-0.085 -0.3603,-0.0972 -0.5625,-0.0371 0.0972,-0.1529 0.1372,-0.3028 0.1172,-0.4453 -0.0151,-0.1426 -0.1001,-0.3204 -0.2524,-0.5328 l -0.1451,-0.1997 c -0.0976,-0.1377 -0.1626,-0.2324 -0.185,-0.2929 -0.0401,-0.085 -0.0425,-0.167 -0.01,-0.25 l -0.0576,-0.0747 -0.6777,0.4951 c 0.0273,0.0776 0.0527,0.1421 0.0722,0.1875 0.0479,0.0971 0.0952,0.1924 0.1626,0.2798 l 0.1953,0.2802 c 0.1373,0.1924 0.1973,0.3428 0.1773,0.4551 -0.0147,0.1074 -0.1099,0.2251 -0.2847,0.3526 l -0.6054,0.4375 -0.8501,-1.1729 -0.6202,0.4453 2.1656,2.9883 1.4253,-1.0303 c 0.205,-0.1528 0.3398,-0.2929 0.415,-0.4179 m -1.5928,0.4926 -0.5879,-0.8125 0.6753,-0.4824 c 0.1328,-0.0977 0.2427,-0.1528 0.335,-0.1704 0.1553,-0.0273 0.3003,0.043 0.4228,0.21 0.1324,0.1855 0.1626,0.3505 0.0923,0.4951 -0.0371,0.0801 -0.1172,0.1704 -0.25,0.2627 z"
       inkscape:connector-curvature="0" /><path
       id="path214"
       style="fill:#000000;fill-opacity:1;fill-rule:nonzero;stroke:none"
       d="m 175.0498,473.8916 c -0.3452,-0.48 -0.498,-0.9478 -0.4531,-1.3979 0.0429,-0.4498 0.2729,-0.8272 0.6953,-1.1348 0.3428,-0.2451 0.6977,-0.3477 1.063,-0.3003 0.3696,0.0449 0.6948,0.2124 0.9848,0.5 l -0.6152,0.4453 c -0.1548,-0.125 -0.2871,-0.2002 -0.4023,-0.2349 -0.2178,-0.0625 -0.4278,-0.0151 -0.6402,0.1373 -0.2075,0.1499 -0.3174,0.3598 -0.3349,0.6201 -0.0127,0.2651 0.1001,0.5649 0.3423,0.9004 0.2402,0.3325 0.4926,0.5449 0.7529,0.6352 0.2573,0.0923 0.5024,0.0523 0.7226,-0.1079 0.2198,-0.1577 0.3374,-0.3398 0.355,-0.5474 0.005,-0.1201 -0.02,-0.2627 -0.0849,-0.4375 l 0.6152,-0.4453 c 0.125,0.1924 0.1899,0.4278 0.1973,0.7002 0.008,0.4951 -0.2373,0.9199 -0.73,1.2803 -0.3701,0.2676 -0.7627,0.3623 -1.1802,0.2925 -0.4829,-0.0825 -0.9077,-0.3853 -1.2876,-0.9053 z"
       inkscape:connector-curvature="0" /><path
       id="path216"
       style="fill:#000000;fill-opacity:1;fill-rule:nonzero;stroke:none"
       d="m 177.77,469.6821 0.9678,1.334 1.165,-0.8452 -0.9673,-1.334 0.6148,-0.4448 2.1655,2.9863 -0.6152,0.4478 -0.8301,-1.145 -1.165,0.8476 0.8252,1.1401 -0.6153,0.4449 -2.1655,-2.9878 z"
       inkscape:connector-curvature="0" /><path
       id="path218"
       style="fill:#000000;fill-opacity:1;fill-rule:nonzero;stroke:none"
       d="m 179.9756,468.0815 0.6499,-0.4697 0.6504,0.4697 1.0952,-0.7949 -0.25,-0.7602 0.6748,-0.4849 1.1152,3.7456 -0.705,0.5112 -3.2305,-2.2168 m 3.0806,1.2857 -0.4751,-1.4556 -0.7652,0.5606 z"
       inkscape:connector-curvature="0" /><path
       id="path220"
       style="fill:#000000;fill-opacity:1;fill-rule:nonzero;stroke:none"
       d="m 187.3867,467.2715 0.898,-0.645 -2.1656,-2.9903 -0.5752,0.4151 1.4629,2.02 c 0.045,0.06 0.1026,0.1401 0.1802,0.2451 0.0801,0.105 0.1372,0.1851 0.1802,0.2402 l -2.3906,-2.0957 -0.6104,0.4454 1.2481,2.9155 c -0.0425,-0.0552 -0.1001,-0.1348 -0.1729,-0.2403 -0.0747,-0.1098 -0.1323,-0.1899 -0.1748,-0.2451 l -1.4653,-2.0254 -0.5752,0.4204 2.1655,2.9854 0.9053,-0.6548 -1.1553,-2.7456 z"
       inkscape:connector-curvature="0" /><path
       id="path222"
       style="fill:#000000;fill-opacity:1;fill-rule:nonzero;stroke:none"
       d="m 189.6621,463.0459 c -0.2798,-0.02 -0.585,0.0898 -0.9048,0.3198 l -0.6201,0.4502 -0.7803,-1.0752 -0.6176,0.4453 2.1655,2.9903 1.2778,-0.9248 c 0.2925,-0.2154 0.4751,-0.4605 0.5352,-0.7452 0.0649,-0.2753 -0.02,-0.5751 -0.2554,-0.9003 -0.2549,-0.355 -0.52,-0.5401 -0.8003,-0.5601 m 0.3106,1.4253 c -0.0303,0.125 -0.1153,0.2402 -0.2603,0.3447 l -0.5625,0.4053 -0.645,-0.8901 0.5625,-0.4102 c 0.145,-0.1001 0.2798,-0.145 0.415,-0.1299 0.1299,0.0152 0.25,0.1001 0.3623,0.2549 0.1153,0.1602 0.1577,0.3003 0.128,0.4253 z"
       inkscape:connector-curvature="0" /><path
       id="path224"
       style="fill:#000000;fill-opacity:1;fill-rule:nonzero;stroke:none"
       d="m 192.2554,463.751 -0.6153,0.4448 -2.1626,-2.9902 0.6148,-0.4453 z"
       inkscape:connector-curvature="0" /><path
       id="path226"
       style="fill:#000000;fill-opacity:1;fill-rule:nonzero;stroke:none"
       d="m 193.2231,458.915 c -0.3974,-0.0698 -0.8051,0.0503 -1.2304,0.3599 -0.4302,0.3105 -0.6699,0.6602 -0.7251,1.0557 -0.0977,0.5 0.0449,1.02 0.4326,1.5551 0.395,0.545 0.8428,0.8453 1.3428,0.8999 0.3925,0.0704 0.8027,-0.0498 1.2304,-0.3598 0.4248,-0.3101 0.67,-0.6602 0.7276,-1.0552 0.1025,-0.4902 -0.0449,-1.0102 -0.44,-1.5557 -0.3877,-0.5346 -0.833,-0.8349 -1.3379,-0.8999 m -0.06,0.73 c 0.2773,0.0752 0.54,0.2803 0.7827,0.6153 0.2427,0.3349 0.3574,0.6503 0.3423,0.935 -0.0147,0.2905 -0.145,0.52 -0.395,0.7002 -0.25,0.1802 -0.5122,0.2349 -0.7901,0.1602 -0.2827,-0.0752 -0.5449,-0.2798 -0.7876,-0.6153 -0.2426,-0.3349 -0.3525,-0.6499 -0.3374,-0.935 0.0147,-0.2901 0.1475,-0.5254 0.3999,-0.7051 0.2451,-0.1802 0.5078,-0.2354 0.7852,-0.1553 z"
       inkscape:connector-curvature="0" /><path
       id="path228"
       style="fill:#000000;fill-opacity:1;fill-rule:nonzero;stroke:none"
       d="m 196.1587,460.9253 0.645,-0.4697 -0.3252,-2.9307 1.5005,2.0801 0.5801,-0.4151 -2.1655,-2.9902 -0.6177,0.4448 0.3252,2.9908 -1.5303,-2.1153 -0.5752,0.4151 z"
       inkscape:connector-curvature="0" /><path
       id="path230"
       style="fill:#591520;fill-opacity:1;fill-rule:nonzero;stroke:none"
       d="m 225.7695,478.9927 -55.7461,40.3506 6.0689,8.3838 55.7485,-40.3477 z"
       inkscape:connector-curvature="0" /><path
       id="path232"
       style="fill:#9d3220;fill-opacity:1;fill-rule:nonzero;stroke:none"
       d="m 207.3809,492.3027 -11.3399,8.209 6.0689,8.3843 11.3398,-8.2065 z"
       inkscape:connector-curvature="0" /><path
       id="path234"
       style="fill:#ce3629;fill-opacity:1;fill-rule:nonzero;stroke:none"
       d="m 196.6113,500.0967 -22.872,16.5556 6.0712,8.3843 22.8692,-16.5532 z"
       inkscape:connector-curvature="0" /><path
       id="path236"
       style="fill:#ffffff;fill-opacity:1;fill-rule:nonzero;stroke:none"
       d="m 184.6987,508.7183 -6.6684,4.8286 6.0683,8.3867 6.669,-4.8286 z"
       inkscape:connector-curvature="0" /><path
       id="path238"
       style="fill:#f3b25e;fill-opacity:1;fill-rule:nonzero;stroke:none"
       d="m 228.7651,491.4199 -47.8842,34.6568 10.0117,13.8281 47.8794,-34.6572 z"
       inkscape:connector-curvature="0" /><path
       id="path240"
       style="fill:#ffffff;fill-opacity:1;fill-rule:nonzero;stroke:none"
       d="m 188.1821,520.7935 -3.8759,2.8056 10.0073,13.8272 3.8755,-2.8028 z"
       inkscape:connector-curvature="0" /><path
       id="path242"
       style="fill:#f3b25e;fill-opacity:1;fill-rule:nonzero;stroke:none"
       d="m 245.8809,505.2427 c -0.8628,-1.1953 -4.211,-0.2476 -7.4815,2.1181 l -46.7666,33.8487 c -3.2656,2.3681 -5.2109,5.249 -4.3486,6.4414 v 0 c 0.8628,1.1953 4.2085,0.2451 7.479,-2.1201 l 46.7641,-33.8492 c 3.2706,-2.3657 5.2164,-5.2461 4.3536,-6.4389 z"
       inkscape:connector-curvature="0" /><path
       id="path244"
       style="fill:#ffffff;fill-opacity:1;fill-rule:nonzero;stroke:none"
       d="m 194.8882,542.1523 c -0.8599,-1.1899 -2.2153,-1.6777 -3.0254,-1.0927 -0.8101,0.5879 -0.77,2.0278 0.0923,3.2207 0.8603,1.1904 2.2182,1.6753 3.0283,1.0927 0.8101,-0.5874 0.77,-2.0278 -0.0952,-3.2207 z"
       inkscape:connector-curvature="0" /><path
       id="path246"
       style="fill:#f3b25e;fill-opacity:1;fill-rule:nonzero;stroke:none"
       d="m 281.9404,582.2627 c -0.5551,-0.7627 -2.3657,-0.3926 -4.0532,0.8276 l -24.1074,17.4458 c -1.6826,1.2178 -2.6006,2.8257 -2.0454,3.5884 v 0 c 0.5503,0.7651 2.3657,0.395 4.0483,-0.8227 l 24.1045,-17.4483 c 1.6831,-1.2202 2.603,-2.8257 2.0532,-3.5908 z"
       inkscape:connector-curvature="0" /><path
       id="path248"
       style="fill:#ffffff;fill-opacity:1;fill-rule:nonzero;stroke:none"
       d="m 256.9756,600.3364 c -0.3853,-0.5278 -1.2852,-0.5278 -2.0108,0 -0.7226,0.5249 -1,1.375 -0.6201,1.9004 0.3828,0.5298 1.2779,0.5322 2.0005,0.01 0.7305,-0.5303 1.0103,-1.3828 0.6304,-1.9102 z"
       inkscape:connector-curvature="0" /><path
       id="path250"
       style="fill:#f3b25e;fill-opacity:1;fill-rule:nonzero;stroke:none"
       d="m 237.7065,532.0405 c -3.8803,-5.3584 -11.4946,-6.4687 -17.0131,-2.478 -5.5113,3.9907 -6.8365,11.5698 -2.9556,16.9331 3.8809,5.3589 11.4971,6.4663 17.0083,2.478 5.5161,-3.9931 6.8389,-11.5722 2.9604,-16.9331 z"
       inkscape:connector-curvature="0" /><path
       id="path252"
       style="fill:#ffffff;fill-opacity:1;fill-rule:nonzero;stroke:none"
       d="m 228.0972,548.5737 c -2.9229,0.6602 -6.2285,-1.0678 -7.9991,-3.1806 -1.7753,-2.1104 -2.5605,-7.7266 -1.9751,-8.7569 0.585,-1.0273 1.5953,-0.3076 2.6255,0.2827 1.0303,0.585 3.9307,3.5831 4.6783,4.6158 0.7475,1.0351 3.3984,6.874 2.6704,7.039 z"
       inkscape:connector-curvature="0" /><path
       id="path254"
       style="fill:#f3b25e;fill-opacity:1;fill-rule:nonzero;stroke:none"
       d="m 261.8413,513.9673 c -3.9009,-5.3936 -11.5923,-6.4917 -17.1831,-2.4458 -5.584,4.0434 -6.9438,11.6899 -3.0381,17.0835 3.9033,5.3935 11.5947,6.4936 17.1758,2.4502 5.5884,-4.0459 6.9512,-11.6973 3.0454,-17.0879 z"
       inkscape:connector-curvature="0" /><path
       id="path256"
       style="fill:#ffffff;fill-opacity:1;fill-rule:nonzero;stroke:none"
       d="m 251.4771,532.0205 c -3.1084,0.6724 -6.649,-1.228 -8.5645,-3.5181 -1.9175,-2.2929 -2.8281,-8.332 -2.2202,-9.4345 0.6123,-1.1001 1.7002,-0.3076 2.8056,0.3379 1.105,0.6425 4.2305,3.8979 5.0459,5.0185 0.8077,1.1201 3.7081,7.4263 2.9332,7.5962 z"
       inkscape:connector-curvature="0" /><path
       id="path258"
       style="fill:#f3b25e;fill-opacity:1;fill-rule:nonzero;stroke:none"
       d="m 213.522,549.5464 c -3.8809,-5.3613 -11.4971,-6.4688 -17.0132,-2.478 -5.5112,3.9882 -6.8364,11.5722 -2.9556,16.9306 3.8809,5.3614 11.4971,6.4688 17.0083,2.481 5.5137,-3.9937 6.8389,-11.5752 2.9605,-16.9336 z"
       inkscape:connector-curvature="0" /><path
       id="path260"
       style="fill:#ffffff;fill-opacity:1;fill-rule:nonzero;stroke:none"
       d="m 203.4751,566.1499 c -2.1606,0.7549 -5.5562,0.0244 -8.0918,-3.4761 -2.5303,-3.5005 -1.5752,-6.8613 -1.4902,-8.2563 0.7177,-0.5205 1.1704,-0.7256 2.5605,0.6899 1.3902,1.4204 3.9507,3.4458 4.5259,4.2437 0.5752,0.7949 2.9731,4.2705 2.4956,6.7988 z"
       inkscape:connector-curvature="0" /><path
       id="path262"
       style="fill:#ffffff;fill-opacity:1;fill-rule:nonzero;stroke:none"
       d="m 216.5449,561.3311 4.1485,5.7338 -3.8907,2.813 -2.9707,-4.1084 c 1.1905,-1.3276 2.1055,-2.8354 2.7129,-4.4384 z"
       inkscape:connector-curvature="0" /><path
       id="path264"
       style="fill:#ffffff;fill-opacity:1;fill-rule:nonzero;stroke:none"
       d="m 230.8003,552.4619 3.208,4.436 -4.2329,3.063 -5.3462,-7.3891 c 2.0752,0.4526 4.2559,0.4277 6.3711,-0.1099 z"
       inkscape:connector-curvature="0" /><path
       id="path266"
       style="fill:#f3b25e;fill-opacity:1;fill-rule:nonzero;stroke:none"
       d="m 214.0723,540.9048 -4.566,3.3056 c -2.4355,-1.083 -5.1459,-1.4726 -7.8266,-1.0478 l -0.565,-0.7803 13.6524,-9.8818 0.685,0.9429 c -1.1699,2.3227 -1.6225,4.916 -1.3798,7.4614 z"
       inkscape:connector-curvature="0" /><path
       id="path268"
       style="fill:#f3b25e;fill-opacity:1;fill-rule:nonzero;stroke:none"
       d="m 211.7417,545.4883 2.8403,-2.0503 c 0.4102,1.3823 1.0005,2.7378 1.8907,3.9731 1.4228,1.9605 3.2905,3.4077 5.3759,4.3282 l 6.9463,9.5918 -6.916,5.0063 -4.831,-6.6714 c 0.9101,-3.7534 0.2724,-7.8139 -2.128,-11.1323 -0.8955,-1.2329 -1.9931,-2.2178 -3.1782,-3.0454 z"
       inkscape:connector-curvature="0" /><path
       id="path270"
       style="fill:#f3b25e;fill-opacity:1;fill-rule:nonzero;stroke:none"
       d="m 238.9521,546.9985 3.0503,2.9278 -0.56,1.5903 -3.7608,-3.063 c 0.46,-0.4648 0.8853,-0.9453 1.2705,-1.4551 z"
       inkscape:connector-curvature="0" /><path
       id="path272"
       style="fill:#f3b25e;fill-opacity:1;fill-rule:nonzero;stroke:none"
       d="m 235.8516,550.0464 c 0.5224,-0.3799 1,-0.7949 1.455,-1.2251 1.7027,2.4228 4.4908,4.8808 6.2735,5.0986 0.1455,1.4776 -1.0176,3.5054 -1.94,3.5103 -1.6977,-0.1275 -5.5688,-2.5054 -7.9091,-6.1211 0.7275,-0.3599 1.4404,-0.77 2.1206,-1.2627 z"
       inkscape:connector-curvature="0" /><path
       id="path274"
       style="fill:#f3b25e;fill-opacity:1;fill-rule:nonzero;stroke:none"
       d="m 211.2266,568 c -0.5249,0.3799 -1.0655,0.7026 -1.6202,1.0024 1.7701,2.3731 3.2354,5.7915 2.8853,7.5518 1.3555,0.6001 3.6509,0.1274 3.9409,-0.7427 0.4077,-1.6552 -0.6426,-6.081 -3.3457,-9.4321 -0.5703,0.5801 -1.1802,1.1304 -1.8603,1.6206 z"
       inkscape:connector-curvature="0" /><path
       id="path276"
       style="fill:#ffffff;fill-opacity:1;fill-rule:nonzero;stroke:none"
       d="m 241.4697,538.8169 6.149,8.4941 -4.5811,3.3155 -3.4653,-4.7832 c 1.2602,-2.1582 1.9101,-4.5909 1.8974,-7.0264 z"
       inkscape:connector-curvature="0" /><path
       id="path278"
       style="fill:#ffffff;fill-opacity:1;fill-rule:nonzero;stroke:none"
       d="m 255.48,533.9731 3.2558,4.4986 -2.333,1.6904 -4.0083,-5.5386 c 1.0454,-0.0825 2.0703,-0.31 3.0855,-0.6504 z"
       inkscape:connector-curvature="0" /><path
       id="path280"
       style="fill:#f3b25e;fill-opacity:1;fill-rule:nonzero;stroke:none"
       d="m 248.5688,546.6206 -6.8413,-9.4541 c -0.2299,-2.3057 -1.0351,-4.5732 -2.4804,-6.5688 -0.835,-1.148 -1.8252,-2.1055 -2.9156,-2.9078 l 2.7256,-1.9707 c 0.3902,1.2652 0.9551,2.4932 1.7779,3.628 2.3652,3.2685 5.9785,5.0464 9.7192,5.2788 l 5.0161,6.9311 z"
       inkscape:connector-curvature="0" /><path
       id="path282"
       style="fill:#f3b25e;fill-opacity:1;fill-rule:nonzero;stroke:none"
       d="m 238.4971,523.0938 -4.4409,3.2133 c -2.7833,-1.3081 -5.9815,-1.6455 -9.0469,-0.9555 l -0.19,-0.2598 14.4327,-10.4473 0.705,0.9751 c -1.2251,2.3008 -1.7251,4.896 -1.4599,7.4742 z"
       inkscape:connector-curvature="0" /><path
       id="path284"
       style="fill:#f3b25e;fill-opacity:1;fill-rule:nonzero;stroke:none"
       d="m 240.1548,576.9541 18.7212,-13.5522 3.6655,-19.6465 -2.5078,-4.086 -17.2559,12.4903 c 1.6577,1.3027 3.6905,1.8852 3.6905,1.8852 0,0 -0.6202,3.2232 -4.1958,4.8281 -2.3755,-0.0673 -4.5205,-0.9326 -5.4307,-2.06 -1.9956,1.4453 -19.3667,14.0151 -19.3667,14.0151 0.8579,2.4204 -0.0772,4.7085 -0.0772,4.7085 z"
       inkscape:connector-curvature="0" /><path
       id="path286"
       style="fill:#ffffff;fill-opacity:1;fill-rule:nonzero;stroke:none"
       d="m 219.2031,569.7578 c -0.0449,-0.0327 -0.0625,-0.0727 -0.1025,-0.105 1.8628,-1.3476 5.0835,-3.6782 8.2793,-5.9912 3.0303,2.4229 13.0371,7.9741 17.9458,9.5493 l -4.2486,3.0733 c -5.9233,-1.5806 -18.7431,-4.2837 -21.874,-6.5264 z"
       inkscape:connector-curvature="0" /><path
       id="path288"
       style="fill:#f3b25e;fill-opacity:1;fill-rule:nonzero;stroke:none"
       d="m 278.0195,581.0825 -26.5752,19.2339 c -5.2607,3.8081 -12.6123,2.6304 -16.4233,-2.6304 -3.8106,-5.2636 -2.6328,-12.6176 2.6309,-16.4257 l 26.5752,-19.2364 c 5.2607,-3.8056 12.6147,-2.6279 16.4252,2.6328 3.8086,5.2613 2.6285,12.6153 -2.6328,16.4258 z"
       inkscape:connector-curvature="0" /><path
       id="path290"
       style="fill:#ffffff;fill-opacity:1;fill-rule:nonzero;stroke:none"
       d="m 238.3066,595.4053 c -2.6254,-3.6309 -3.9882,-10.1519 -2.6904,-11.0894 1.2954,-0.9404 4.5108,-1.6855 9.5772,5.3159 3.9555,4.6431 2.165,10.087 1.7754,10.3697 -0.3902,0.2822 -5.9415,-0.8379 -8.6622,-4.5962 z"
       inkscape:connector-curvature="0" /><path
       id="path292"
       style="fill:#f3b25e;fill-opacity:1;fill-rule:nonzero;stroke:none"
       d="m 293.3525,598.6558 0.0127,0.02 c 0,0 -30.0737,21.7671 -30.1386,21.8169 -2.6856,1.9428 -6.4361,1.3403 -8.3789,-1.3452 l -2.2554,-3.1109 c -1.9429,-2.6855 -1.3379,-6.436 1.3452,-8.3789 0.0674,-0.0498 30.1533,-21.7969 30.1533,-21.7969 2.6704,-1.7705 6.2764,-1.1552 8.1714,1.4629 l 2.2529,3.1133 c 1.8931,2.6177 1.3531,6.2383 -1.1626,8.2188 z"
       inkscape:connector-curvature="0" /><path
       id="path294"
       style="fill:#ffffff;fill-opacity:1;fill-rule:nonzero;stroke:none"
       d="m 261.0664,611.4258 c -2.0957,-2.898 -5.0762,-4.3233 -6.6514,-3.1831 -1.5752,1.1406 -1.1504,4.416 0.9478,7.3139 2.0976,2.9009 5.0781,4.3257 6.6538,3.1831 1.5752,-1.1376 1.1499,-4.413 -0.9502,-7.3139 z"
       inkscape:connector-curvature="0" /><path
       id="path296"
       style="fill:#f3b25e;fill-opacity:1;fill-rule:nonzero;stroke:none"
       d="m 297.5356,609.8257 -24.4321,17.6836 c -2.2202,1.6074 -5.311,1.125 -6.9062,-1.0752 -1.5928,-2.2031 -1.085,-5.2891 1.1352,-6.8989 l 24.4321,-17.6861 c 2.2256,-1.6079 5.3135,-1.125 6.9063,1.0801 1.5928,2.2002 1.0879,5.2861 -1.1353,6.8965 z"
       inkscape:connector-curvature="0" /><path
       id="path298"
       style="fill:#ffffff;fill-opacity:1;fill-rule:nonzero;stroke:none"
       d="m 272.3584,621.4331 c -1.0654,-1.4707 -2.8828,-1.9683 -4.0635,-1.1103 -1.1826,0.8525 -1.2773,2.7377 -0.2148,4.2055 1.0625,1.4654 2.8808,1.9605 4.0605,1.1104 1.1831,-0.8579 1.2779,-2.7408 0.2178,-4.2056 z"
       inkscape:connector-curvature="0" /><path
       id="path300"
       style="fill:#f3b25e;fill-opacity:1;fill-rule:nonzero;stroke:none"
       d="m 302.3945,610.5229 c -0.5551,-0.7622 -2.3681,-0.3945 -4.0507,0.8252 l -24.1075,17.4488 c -1.6826,1.2202 -2.603,2.8257 -2.0478,3.5903 v 0 c 0.5498,0.7627 2.3652,0.3926 4.0508,-0.8271 l 24.1045,-17.4434 c 1.6855,-1.2207 2.6005,-2.8311 2.0507,-3.5938 z"
       inkscape:connector-curvature="0" /><path
       id="path302"
       style="fill:#ffffff;fill-opacity:1;fill-rule:nonzero;stroke:none"
       d="m 276.9795,628.9219 c -0.3804,-0.5279 -1.1953,-0.5904 -1.8179,-0.1353 -0.6177,0.4453 -0.81,1.2354 -0.4277,1.7632 0.3774,0.5273 1.1904,0.5898 1.8105,0.145 0.625,-0.4526 0.8174,-1.2451 0.4351,-1.7729 z"
       inkscape:connector-curvature="0" /><path
       id="path304"
       style="fill:#f3b25e;fill-opacity:1;fill-rule:nonzero;stroke:none"
       d="m 324.7266,641.3765 c -0.5557,-0.7622 -2.3662,-0.3926 -4.0537,0.8281 l -24.1045,17.4433 c -1.6856,1.2203 -2.6006,2.8282 -2.0479,3.5909 v 0 c 0.5498,0.7646 2.3628,0.3974 4.0479,-0.8233 l 24.1074,-17.4482 c 1.6826,-1.2202 2.6006,-2.8252 2.0508,-3.5908 z"
       inkscape:connector-curvature="0" /><path
       id="path306"
       style="fill:#ffffff;fill-opacity:1;fill-rule:nonzero;stroke:none"
       d="m 299.311,659.7754 c -0.3823,-0.5278 -1.1923,-0.5874 -1.8178,-0.1377 -0.6177,0.4477 -0.8101,1.2378 -0.4297,1.7651 0.3823,0.5279 1.1948,0.5928 1.81,0.1455 0.625,-0.4526 0.8203,-1.2456 0.4375,-1.7729 z"
       inkscape:connector-curvature="0" /><path
       id="path308"
       style="fill:#f3b25e;fill-opacity:1;fill-rule:nonzero;stroke:none"
       d="m 299.6636,616.582 -21.2588,15.3877 18.2983,25.2798 21.2588,-15.3901 z"
       inkscape:connector-curvature="0" /><path
       id="path310"
       style="fill:#ffffff;fill-opacity:1;fill-rule:nonzero;stroke:none"
       d="m 284.1157,627.8491 -4.1484,3.003 18.2612,25.2324 4.1509,-3.003 z"
       inkscape:connector-curvature="0" /><path
       id="path312"
       style="fill:#f3b25e;fill-opacity:1;fill-rule:nonzero;stroke:none"
       d="m 348.626,699.8281 c 0,0 14.2304,38.2373 14.3095,44.3286 0.0831,6.0913 -0.1494,13.3223 -7.331,14.4204 -7.1836,1.0977 -12.0674,-4.706 -13.3779,-8.0893 -1.3047,-3.3804 -7.5606,-22.0967 -7.5606,-22.0967 2.4971,-1.583 3.4951,-3.6709 3.7998,-6.3965 0.3057,-2.7251 1.9112,-12.7773 2.1104,-15.6528 0.1982,-2.8804 -1.1768,-6.6685 -1.1768,-6.6685 2.2774,0.6275 9.2266,0.1548 9.2266,0.1548 z"
       inkscape:connector-curvature="0" /><path
       id="path314"
       style="fill:#ffffff;fill-opacity:1;fill-rule:nonzero;stroke:none"
       d="m 353.0889,754.4785 c -1.6455,1.188 -4.8057,0.2852 -5.9561,-1.6177 -1.1455,-1.9004 -4.1777,-12.7002 -4.1435,-14.5429 0.0302,-1.8477 1.8378,-4.0684 3.1289,-3.8604 1.2871,0.2071 2.3574,0.1123 3.4101,3.4531 1.0528,3.3404 5.9541,14.835 3.5606,16.5679 z"
       inkscape:connector-curvature="0" /><path
       id="path316"
       style="fill:#f3b25e;fill-opacity:1;fill-rule:nonzero;stroke:none"
       d="m 327.7168,728.8638 c -4.1982,-0.6729 -7.3389,-2.8931 -9.4297,-7.9864 1.2803,-1.3828 2.4111,-9.2622 2.5156,-13.2128 0.1055,-3.9507 0.9805,-7.774 0.9131,-8.1792 3.4551,-3.4156 6.003,-3.6656 8.7744,-3.6182 2.7676,0.0474 6.3428,2.4707 8.0635,5.7861 1.7158,3.3159 -0.9297,19.8115 -1.8428,21.3843 -0.9101,1.5703 -6.1582,6.2812 -8.9941,5.8262 z"
       inkscape:connector-curvature="0" /><path
       id="path318"
       style="fill:#ffffff;fill-opacity:1;fill-rule:nonzero;stroke:none"
       d="m 328.0371,725.2153 c -1.1953,0.8628 -4.1162,0.9229 -4.7217,-0.2299 -0.6074,-1.1529 -1.6972,-6.7461 0.6953,-8.4791 2.3956,-1.7304 4.294,-0.3725 4.7666,-0.0302 0.4698,0.3403 1.7998,6.8989 -0.7402,8.7392 z"
       inkscape:connector-curvature="0" /><path
       id="path320"
       style="fill:#f3b25e;fill-opacity:1;fill-rule:nonzero;stroke:none"
       d="m 308.2432,723.3652 c -2.3384,-0.3725 -5.2339,-2.8208 -6.2188,-5.7563 -0.9853,-2.9331 -1.6929,-6.7461 -1.2803,-9.3267 0.4102,-2.5757 2.0953,-14.7304 10.5918,-14.9555 4.6534,-0.1773 6.5743,1.8457 8.0088,4.456 1.4326,2.6079 -0.4023,17.3833 -1.8222,20.4566 -1.4209,3.0805 -6.7041,5.5385 -9.2793,5.1259 z"
       inkscape:connector-curvature="0" /><path
       id="path322"
       style="fill:#ffffff;fill-opacity:1;fill-rule:nonzero;stroke:none"
       d="m 310.6387,719.1196 c -0.7481,0.545 -2.8936,0.73 -3.6509,-0.3178 -0.7578,-1.0455 -1.9981,-4.0181 -1.1929,-5.7437 0.8028,-1.7227 2.5586,-2.7627 3.6953,-2.4477 1.1407,0.3149 2.2637,1.5502 2.1934,3.6557 -0.0752,2.1026 -0.4453,4.4209 -1.0449,4.8535 z"
       inkscape:connector-curvature="0" /><path
       id="path324"
       style="fill:#f3b25e;fill-opacity:1;fill-rule:nonzero;stroke:none"
       d="m 403.6436,723.5801 c -2.9053,2.103 -6.6065,4.0981 -12.1397,1.4956 -5.5283,-2.6055 -25.96,-16.9834 -39.1572,-27.0278 4.1982,-1.4454 14.9902,-8.5694 17.3486,-12.5552 9.2959,4.6636 30.8233,19.6113 33.3985,22.5371 6.7167,6.7588 2.0429,14.4702 0.5498,15.5503 z"
       inkscape:connector-curvature="0" /><path
       id="path326"
       style="fill:#ffffff;fill-opacity:1;fill-rule:nonzero;stroke:none"
       d="m 396.8604,723.0249 c -2.1729,0.7979 -3.1534,0.6826 -9.5997,-4.4458 -6.4511,-5.1309 -8.8837,-7.2437 -7.0488,-8.7993 1.833,-1.5552 4.1504,-1.1851 10.0342,2.5356 5.8838,3.7159 11.1074,9.0493 6.6143,10.7095 z"
       inkscape:connector-curvature="0" /><path
       id="path328"
       style="fill:#f3b25e;fill-opacity:1;fill-rule:nonzero;stroke:none"
       d="m 365.3467,687.043 c -4.1914,3.0332 -13.7852,11.8022 -20.8692,11.4599 -7.0839,-0.3403 -7.0712,-5.3637 -6.4287,-8.5644 0.6446,-3.1978 3.4502,-7.5064 6.9317,-10.2544 3.4804,-2.7481 1.0097,-3.0108 -1.0811,-1.4951 -2.0947,1.5151 -10.8662,9.2295 -6.9082,17.5307 -5.084,-2.9306 -13.4551,-3.478 -15.5029,1.878 -3.9356,-5.126 -6.9238,-9.5718 -17.6338,-2.9581 -1.3901,-2.8681 -1.6704,-6.0864 -1.2251,-10.5097 0.4448,-4.4204 3.5957,-11.7144 7.6089,-15.3028 4.0107,-3.5859 4.8711,-6.4863 2.8828,-8.9218 -1.9883,-2.4356 -4.6231,-1.6656 -4.6231,-1.6656 2.3252,-2.1401 7.3018,-5.4033 7.3018,-5.4033 -0.1709,3.5381 0.4893,6.2539 3.7129,6.7715 3.2227,0.5151 4.9756,-3.8281 16.5811,-4.4809 11.6044,-0.6529 25.0468,1.2377 30.8925,9.312 5.8438,8.0761 3.7412,18.7085 -1.6396,22.604 z"
       inkscape:connector-curvature="0" /><path
       id="path330"
       style="fill:#000000;fill-opacity:0.5;fill-rule:nonzero;stroke:none"
       d="m 317.835,675.8608 c 8.2216,7.7417 17.6836,6.3936 23.6748,4.4136 -3.1787,3.1631 -7.5293,9.1314 -4.5186,15.4453 -5.084,-2.9306 -13.4551,-3.478 -15.5029,1.878 -3.3037,-4.3057 -5.959,-8.1016 -13.0547,-5.3038 0.0166,-0.0273 0.0166,-0.06 0.042,-0.0874 4.1084,-5.0258 11.1025,-1.6552 13.6074,0.8575 3.1182,-5.4458 -0.8027,-11.4942 -3.373,-14.4175 -2.5684,-2.9253 -1.5254,-3.6831 -0.875,-2.7857 z"
       inkscape:connector-curvature="0" /><path
       id="path332"
       style="fill:#ffffff;fill-opacity:1;fill-rule:nonzero;stroke:none"
       d="m 330,679.1313 c -4.3086,0.0977 -9.2471,-3.3305 -10.5479,-5.123 -1.2968,-1.7979 0.9659,-0.2427 7.3272,1.3027 6.3613,1.5479 6.3213,1.8052 10.1338,1.0948 3.8135,-0.7076 6.0869,2.4331 -6.9131,2.7255 z"
       inkscape:connector-curvature="0" /><path
       id="path334"
       style="fill:#ffffff;fill-opacity:1;fill-rule:nonzero;stroke:none"
       d="m 312.4434,671.5601 c -8.5938,8.2714 -7.0762,14.4628 -7.0733,18.5634 0.005,4.0987 2.6426,0.8203 2.8701,-3.9004 0,0 -0.4121,-1.5253 4.2032,-14.663 z"
       inkscape:connector-curvature="0" /><path
       id="path336"
       style="fill:#ffffff;fill-opacity:1;fill-rule:nonzero;stroke:none"
       d="m 346.7783,695.7021 c -1.3486,0.9727 -3.2334,1.2002 -5.249,-1.9003 -2.0156,-3.0982 -2.3682,-4.2105 -0.0576,-5.4283 2.3135,-1.2177 4.6562,-0.1777 5.416,0.8702 0.7549,1.0449 1.6855,5.1582 -0.1094,6.4584 z"
       inkscape:connector-curvature="0" /><path
       id="path338"
       style="fill:#000000;fill-opacity:1;fill-rule:nonzero;stroke:none"
       d="m 403.1689,491.6489 c -12.0595,12.3062 -14.5224,9.5982 -18.2138,9.5982 -3.6905,0 -10.0918,-2.9517 -12.7969,-6.8902 0.9844,9.1055 0.7402,6.8902 0.7402,15.5044 0,8.6138 -3.3232,27.9317 -15.0136,39.6226 -9.7119,9.7119 -19.6162,16.6885 -36.3721,18.7773 -0.0977,4.0933 -2.6729,11.002 -10.3897,11.002 -7.8759,0 -12.5468,-8.1162 -11.6894,-11.1055 -6.5313,-0.9341 -13.04,-2.8408 -19.0313,-5.9878 -1.75,-1.8276 -3.8554,-3.0903 -6.0883,-3.772 -2.6831,-1.9775 -5.2061,-4.2656 -7.4893,-6.9448 -1.2427,-1.459 -2.4155,-2.873 -3.5381,-4.2685 0,0 -12.5947,-11.1245 -14.1777,-39.2027 0,-0.0312 -0.002,-0.0586 -0.002,-0.0898 0,-4.4297 0.9825,-13.7813 0.9825,-13.7813 0,0 -0.6148,-1.1079 -2.9527,1.23 -2.0156,2.0152 -4.5835,5.4898 -7.7768,7.9878 l -4.6831,-6.4697 c -5.0962,0.3125 -12.9976,-0.3125 -15.3882,-5.1987 -2.2954,-4.6919 1.0229,-9.0655 9.0195,-10.5123 l -1.6582,-2.29 4.061,-2.9409 -13.0502,-18.0322 c 0.1474,-0.1426 0.2827,-0.3101 0.435,-0.4449 6.6441,-6.644 13.0454,-6.644 13.0454,-6.644 3.9356,-5.6611 17.7207,-23.3794 19.1963,-24.8574 0.7373,-2.708 -0.7378,-24.6099 0.4922,-39.1299 -2.708,-7.6309 -9.354,-27.3184 -9.354,-27.3184 -14.273,-7.3828 -22.8872,-12.5488 -25.3477,-32.4863 10.8272,-1.7226 29.0406,-2.4629 35.4395,-2.4629 6.3989,0 31.0112,1.9727 35.4394,2.957 0,7.8731 -2.2153,10.334 -2.2153,11.3184 0,0.9863 10.8272,14.7656 11.812,15.752 0.9854,0 27.8111,0.2461 27.8111,0.2461 2.707,-2.2149 13.7822,-15.502 13.7822,-16.2422 0,-0.7403 -3.4453,-2.461 -2.2158,-11.0743 8.122,-0.9863 21.167,-2.2167 34.7021,-2.2167 13.5352,0 34.7022,2.2167 34.7022,2.2167 -0.2481,6.3985 -1.2305,21.9043 -25.3506,31.5 -2.2149,13.2911 -8.8594,29.0411 -8.8594,29.0411 0.4932,9.104 0.4902,33.4687 -0.2471,37.4067 6.6465,9.3521 17.9659,23.875 18.9512,25.8428 5.168,0.4902 5.9063,0.4927 8.8594,2.9531 2.9531,2.4604 2.708,5.4136 3.9375,6.3984 1.2305,0.9854 9.1074,3.691 9.1074,9.8433 0,6.1538 3.4453,8.8594 -8.6143,21.1655 z"
       inkscape:connector-curvature="0" /><path
       id="path340"
       style="fill:#ffffff;fill-opacity:1;fill-rule:nonzero;stroke:none"
       d="m 309.9629,566.7134 c -16.8154,0 -33.0986,-6.1397 -45.6436,-21.354 -12.5449,-15.2144 -12.5449,-29.3609 -12.5449,-43.7749 0,-14.4141 3.0684,-28.6919 10.4097,-36.0332 7.3413,-7.3413 17.083,-12.8125 25.625,-12.8125 16.8154,0 39.77,0 45.9087,0 6.1386,0 16.2832,3.4707 24.5576,11.7451 8.2734,8.2739 11.7441,14.9463 11.7441,38.1684 0,23.2222 -6.1386,37.3687 -16.8154,48.0455 -10.6768,10.6772 -25.6221,16.0156 -43.2412,16.0156 z"
       inkscape:connector-curvature="0" /><path
       id="path342"
       style="fill:#ffae00;fill-opacity:1;fill-rule:nonzero;stroke:none"
       d="m 306.625,529.1587 -32.9863,-1.0342 -10.2295,-9.6543 -3.2183,-21.9516 2.5283,-12.9873 14.4829,-10.6885 67.3506,-0.8052 14.9405,13.1025 v 30.8008 l -18.2735,12.5288 z"
       inkscape:connector-curvature="0" /><path
       id="path344"
       style="fill:#000000;fill-opacity:1;fill-rule:nonzero;stroke:none"
       d="m 358.1152,523.5278 c -5.5742,5.5733 -9.082,7.9302 -17.4707,7.9302 h -59.7646 c -8.3887,0 -11.897,-2.3569 -17.4707,-7.9302 -5.5738,-5.5737 -6.4361,-12.873 -6.4361,-24.3662 0,-11.4936 1.8951,-17.2969 6.5513,-21.9516 4.6558,-4.6548 9.3115,-7.1265 15.2876,-7.1265 0.9526,0 62.9478,0 63.8999,0 5.9766,0 10.6319,2.4717 15.2881,7.1265 4.6563,4.6547 6.5518,10.458 6.5518,21.9516 0,11.4932 -0.8633,18.7925 -6.4366,24.3662 m -5.5888,-41.4033 c -3.9004,-3.6606 -7.7989,-5.605 -12.8028,-5.605 -0.5547,0 -57.3681,0 -57.9233,0 -5.0034,0 -8.9019,1.9444 -12.8023,5.605 -3.8984,3.6607 -5.4863,8.2266 -5.4863,17.2656 0,9.0396 0.52,15.6158 5.1861,19.9991 4.6684,4.3847 7.809,5.4023 14.8354,5.4023 h 54.458 c 7.0264,0 10.167,-1.0176 14.835,-5.4023 4.666,-4.3833 5.1865,-10.9595 5.1865,-19.9991 0,-9.039 -1.5879,-13.6049 -5.4863,-17.2656 z"
       inkscape:connector-curvature="0" /><path
       id="path346"
       style="fill:#000000;fill-opacity:1;fill-rule:nonzero;stroke:none"
       d="m 281.1475,522.686 c -2.0254,0 -3.1329,-0.6425 -5.896,-2.7627 -2.7632,-2.1206 -4.6509,-4.1025 -3.4082,-5.3447 1.2426,-1.2432 1.8403,-0.6455 2.5781,0.0923 1.06,1.0601 4.2407,4.0532 5.9912,4.0532 1.7505,0 2.2104,-1.29 5.8037,-4.8833 3.5933,-3.5932 6.2637,-6.9101 7.5537,-6.9101 1.2905,0 1.9356,0.3686 1.9356,1.29 0,0.9214 -3.0406,4.147 -5.9888,7.0952 -2.9482,2.9483 -5.8062,7.3701 -8.5693,7.3701 z"
       inkscape:connector-curvature="0" /><path
       id="path348"
       style="fill:#000000;fill-opacity:1;fill-rule:nonzero;stroke:none"
       d="m 342.79,522.5947 c -3.1337,0 -4.0986,-1.7051 -8.292,-5.8969 -4.1933,-4.1924 -7.0937,-8.0157 -7.0937,-8.753 0,-0.7378 0.7324,-0.8291 1.8398,-0.8291 1.1084,0 1.9834,0.875 5.4385,4.3296 3.4561,3.4546 6.1719,7.4639 7.3692,7.4639 1.1982,0 2.5361,0.0449 3.9638,-1.3828 1.4278,-1.4278 2.5782,-3.0406 3.5,-3.0406 0.9229,0 2.3028,0.9214 2.3028,2.1192 0,1.1977 -5.9883,5.9897 -9.0284,5.9897 z"
       inkscape:connector-curvature="0" /><path
       id="path350"
       style="fill:#000000;fill-opacity:1;fill-rule:nonzero;stroke:none"
       d="m 294.415,506.4707 c -1.75,0 -6.6337,-1.8433 -6.6337,-8.8457 0,-7.0024 4.2382,-10.4121 6.0815,-10.4121 1.8428,0 7.2788,2.1206 7.2788,9.8599 0,5.5268 -2.8584,9.3979 -6.7266,9.3979 z"
       inkscape:connector-curvature="0" /><path
       id="path352"
       style="fill:#ffffff;fill-opacity:1;fill-rule:nonzero;stroke:none"
       d="m 294.3252,503.1538 c -1.1978,0 -2.5806,-1.1055 -2.5806,-2.1191 0,-1.0142 1.2876,-3.041 2.3033,-3.041 1.0151,0 3.1328,1.2905 3.1328,2.0268 0,0.7363 -0.1827,3.1333 -2.8555,3.1333 z"
       inkscape:connector-curvature="0" /><path
       id="path354"
       style="fill:#000000;fill-opacity:1;fill-rule:nonzero;stroke:none"
       d="m 328.9697,506.7466 c -3.2256,0 -6.7265,-2.5801 -6.7265,-9.3067 0,-6.726 3.9609,-10.1342 6.4482,-10.1342 2.4883,0 6.8193,2.4868 6.8193,9.4892 0,7.0025 -2.3955,9.9517 -6.541,9.9517 z"
       inkscape:connector-curvature="0" /><path
       id="path356"
       style="fill:#ffffff;fill-opacity:1;fill-rule:nonzero;stroke:none"
       d="m 328.5098,503.3374 c -1.291,0 -2.5811,-1.29 -2.5811,-2.1191 0,-0.8291 0.9199,-2.857 2.1182,-2.857 1.1972,0 3.04,0.7388 3.04,2.0279 0,1.289 -1.1943,2.9482 -2.5771,2.9482 z"
       inkscape:connector-curvature="0" /><path
       id="path358"
       style="fill:#ffffff;fill-opacity:1;fill-rule:nonzero;stroke:none"
       d="m 274.1362,502.4536 c -1.1201,0 -2.8803,-0.3203 -2.6406,-5.1211 0.2402,-4.8008 1.6006,-8.0815 3.7607,-10.8022 2.1607,-2.7202 5.4415,-5.1206 9.2022,-5.1206 3.1206,0 3.1206,0.6396 3.1206,1.9199 0,1.2803 0,2.7207 -1.6006,2.7207 -1.6001,0 -3.2407,0.1201 -6.7212,3.6006 -3.4809,3.4809 -3.0405,9.2021 -3.0405,11.122 0,1.9209 -1.5205,1.6807 -2.0806,1.6807 z"
       inkscape:connector-curvature="0" /><path
       id="path360"
       style="fill:#bf0060;fill-opacity:1;fill-rule:nonzero;stroke:none"
       d="m 310.5254,576.5605 c -2.3252,0 -7.2334,-1.2929 -9.4263,-8.2641 3.0357,0.7099 16.5279,1.3574 18.3364,0.3237 0,2.647 -2.9062,7.9404 -8.9101,7.9404 z"
       inkscape:connector-curvature="0" /><path
       id="path362"
       style="fill:#ffffff;fill-opacity:1;fill-rule:nonzero;stroke:none"
       d="m 308.8711,575.5815 c -1.7861,0.0723 -3.8565,0.1436 -3.8565,-2.7832 0,-2.9267 2.1436,-2.998 2.9288,-2.998 0.7851,0 3.9951,1 3.9951,2.1416 0,1.1416 -1.6397,3.6396 -3.0674,3.6396 z"
       inkscape:connector-curvature="0" /><path
       id="path364"
       style="fill:#bf0060;fill-opacity:1;fill-rule:nonzero;stroke:none"
       d="m 384.7305,499.0063 c -3.5459,0 -11.8828,-5.3193 -12.2354,-10.8154 2.4834,0 3.7256,0.355 4.7891,0.355 1.0625,0 9.9287,-1.5967 9.9287,-7.4478 0,-4.4321 -0.8877,-7.979 -6.7383,-9.7519 0,-1.418 1.8623,-2.3941 3.7256,-4.2544 1.8633,-1.8604 5.1406,-5.8511 10.46,-5.8511 5.3183,0 8.2461,0.9751 11.8789,4.6109 3.6338,3.6333 3.5459,7.0898 3.5459,9.3955 0,2.3051 0.5351,5.4946 -8.5088,14.539 -8.334,8.334 -10.6397,9.2202 -16.8457,9.2202 z"
       inkscape:connector-curvature="0" /><path
       id="path366"
       style="fill:#ffffff;fill-opacity:1;fill-rule:nonzero;stroke:none"
       d="m 378.1719,492.269 c 7.4463,3.3682 27.6601,4.9659 27.4824,-22.3408 -3.9004,6.9151 -7.4443,13.6514 -12.7647,16.8438 -5.3212,3.1914 -14.7177,5.497 -14.7177,5.497 z"
       inkscape:connector-curvature="0" /><path
       id="path368"
       style="fill:#bf0060;fill-opacity:1;fill-rule:nonzero;stroke:none"
       d="m 371.0801,485.354 c -0.3555,-4.0781 -2.836,-10.8144 -3.9004,-12.4111 3.1904,-0.8877 9.2187,-0.8867 12.7646,0.8862 3.5459,1.773 5.1436,3.9009 5.1436,5.4961 0,1.5952 -2.6602,6.3823 -6.5615,6.3823 -4.6104,0.3555 -7.4463,-0.3535 -7.4463,-0.3535 z"
       inkscape:connector-curvature="0" /><path
       id="path370"
       style="fill:#bf0060;fill-opacity:1;fill-rule:nonzero;stroke:none"
       d="m 366.1143,470.105 c 4.2558,-4.6084 6.0283,-5.8516 7.9785,-8.5093 1.9511,-2.6606 7.6269,-8.1567 12.9453,-8.1567 5.3183,0 9.2168,1.5952 12.4101,5.3183 -4.0781,-0.7099 -7.0918,-0.8847 -11.1699,1.418 -4.0781,2.3057 -10.459,8.1567 -10.9922,10.1069 -3.0156,-0.7099 -11.1718,-0.1772 -11.1718,-0.1772 z"
       inkscape:connector-curvature="0" /><path
       id="path372"
       style="fill:#ffffff;fill-opacity:1;fill-rule:nonzero;stroke:none"
       d="m 364.1533,467.5669 c -2.5595,-4.9609 -11.3613,-11.8428 -13.9219,-12.4824 v -0.9605 c 4.1602,-0.6401 18.8838,-13.2827 19.3633,-24.3247 0.3203,-0.6401 0.7998,-0.1601 1.7608,1.2803 0.9599,1.4404 14.082,17.9238 15.2031,20.1641 -2.5606,0 -6.7217,1.2802 -12.8027,7.2011 -6.0811,5.9214 -8.8018,9.2823 -8.8018,9.2823 z"
       inkscape:connector-curvature="0" /><path
       id="path374"
       style="fill:#ffffff;fill-opacity:1;fill-rule:nonzero;stroke:none"
       d="M 261.8262,417.4346 V 390.627 h 18.7412 v 26.7251 z"
       inkscape:connector-curvature="0" /><path
       id="path376"
       style="fill:#dfd000;fill-opacity:1;fill-rule:nonzero;stroke:none"
       d="m 328.2197,393.8203 h -33.1118 v 19.666 h 33.1118 z"
       inkscape:connector-curvature="0" /><path
       id="path378"
       style="fill:#09005f;fill-opacity:1;fill-rule:nonzero;stroke:none"
       d="m 369.3301,415.4019 c -0.0957,13.1748 -1.1778,17.143 -5.5918,23.8393 -4.6406,7.0415 -14.2422,13.9229 -16.6426,13.9229 -1.7607,0 -7.5215,-3.2007 -9.1221,-3.2007 -2.6806,0 -50.9951,0 -53.6753,0 -1.6005,0 -7.3613,3.2007 -9.1215,3.2007 -2.4009,0 -12.0025,-6.8814 -16.6436,-13.9229 -4.4131,-6.6963 -5.4961,-10.6645 -5.5908,-23.8393 22.4219,0 94.918,0 116.3877,0 z"
       inkscape:connector-curvature="0" /><path
       id="path380"
       style="fill:#09005f;fill-opacity:1;fill-rule:nonzero;stroke:none"
       d="m 339.1094,392.3574 h -86.1699 c 0.0351,-3.666 0.4101,-3.9209 3.9936,-4.9668 3.8403,-1.1191 17.6831,-6 21.604,-9.9218 3.9209,-3.92 14.8828,-14.0821 16.3233,-17.2833 1.4404,-3.1992 0.8002,-3.6796 6.7211,-3.6796 1.4126,0 17.6958,0 19.1089,0 5.9209,0 5.2813,0.4804 6.7217,3.6796 1.4395,3.2012 12.4024,13.3633 16.3223,17.2833 3.9209,3.9218 17.7636,8.8027 21.6045,9.9218 3.583,1.0459 3.958,1.3008 3.9931,4.9668 z"
       inkscape:connector-curvature="0" /><path
       id="path382"
       style="fill:#ffffff;fill-opacity:1;fill-rule:nonzero;stroke:none"
       d="m 259.646,386.5215 c 5.5234,-1.8731 15.6304,-5.791 18.8911,-9.0527 3.833,-3.8321 14.3677,-13.6094 16.188,-17.0372 10.6797,-1.33 21.7642,-1.0449 25.1001,-1.0449 3.5205,0 4.4805,5.7598 13.4424,15.3613 -5.6133,-3.0839 -47.1416,-4.6933 -57.291,17.6094 H 256.188 c 0.8125,-1.9785 1.9629,-3.8808 3.458,-5.8359 z"
       inkscape:connector-curvature="0" /><path
       id="path384"
       style="fill:#ffffff;fill-opacity:1;fill-rule:nonzero;stroke:none"
       d="m 308.2559,449.9634 c -11.7251,0 -22.7173,0 -23.9576,0 -1.2705,0 -5.1435,1.998 -7.5742,2.8305 -16.7407,-15.4633 -21.084,-27.9604 -22.1714,-37.392 5.0108,0 11.9898,0 20.1114,0 4.2631,26.3974 22.4668,32.0507 33.5918,34.5615 z"
       inkscape:connector-curvature="0" /><path
       id="path386"
       style="fill:#ffffff;fill-opacity:1;fill-rule:nonzero;stroke:none"
       d="m 256.8281,468.5718 c -0.9453,0 -1.5132,-1.7002 -7.5639,-8.1314 -6.0513,-6.4311 -12.1026,-10.4018 -14.9405,-10.0244 1.3228,-1.5132 13.4302,-17.7788 16.6431,-21.9394 0.7549,-1.1328 0.9478,0.1899 2.0806,3.2158 1.1323,3.0254 6.4287,18.1557 18.5337,22.3169 0.9448,0.1899 -4.3487,2.6479 -8.1319,6.0508 -3.7832,3.4057 -6.6211,8.5117 -6.6211,8.5117 z"
       inkscape:connector-curvature="0" /><path
       id="path388"
       style="fill:#bf0060;fill-opacity:1;fill-rule:nonzero;stroke:none"
       d="m 228.6499,472.5454 -9.647,-13.6152 c 3.4058,-3.7832 9.647,-6.4317 13.2403,-6.4317 3.5932,0 5.8613,0.378 13.8051,8.3218 7.9439,7.9419 9.0791,8.5093 9.0791,9.8335 0,1.3237 -2.458,4.728 -3.2153,7.9439 -0.7578,3.2153 -1.1352,9.0766 -1.1352,10.0229 -4.5386,4.3511 -11.7276,12.4824 -12.6724,12.4824 -0.9453,0 -3.0259,-4.3496 -3.0259,-4.3496 2.648,0 8.8892,-2.0791 10.9697,-5.1055 2.0806,-3.0273 0.7554,-4.1611 0,-4.1611 -0.7553,0 -1.3227,2.8369 -1.3227,2.8369 -2.8379,2.2691 -9.0791,5.295 -15.3203,5.295 -6.2412,0 -9.8345,-4.5386 -9.8345,-6.6192 0,-2.0801 3.4058,-7.1865 10.9697,-7.1865 0,-2.8379 0.1875,-12.8609 2.8355,-15.6963 2.6479,-2.8384 5.6758,-3.2158 5.6758,-4.541 0,-1.3252 -3.4082,-1.1353 -5.1084,1.1352 -1.7002,2.2701 -4.7256,6.6211 -4.3482,9.6455 z"
       inkscape:connector-curvature="0" /><path
       id="path390"
       style="fill:#bf0060;fill-opacity:1;fill-rule:nonzero;stroke:none"
       d="m 229.2773,476.9546 c 0.0103,1.3203 0.3179,2.9668 0.3179,2.9668 -0.7104,0 -1.8306,-0.5449 -2.7881,-1.1787 z"
       inkscape:connector-curvature="0" /><path
       id="path392"
       style="fill:#ffffff;fill-opacity:1;fill-rule:nonzero;stroke:none"
       d="m 252.6523,385.9531 -9.1669,-26.3515 c 2.2929,0 28.0727,4.4668 40.2153,-17.0723 3.3208,4.125 9.5093,12.0312 10.6548,12.7187 l -0.1153,1.4883 c -6.5312,8.1348 -13.1753,20.0528 -41.5879,29.2168 z"
       inkscape:connector-curvature="0" /><path
       id="path394"
       style="fill:#bf0060;fill-opacity:1;fill-rule:nonzero;stroke:none"
       d="m 284.5083,328.4648 c 0,5.8086 -4.7783,28.5332 -36.0244,28.5332 -11.6196,0 -29.9536,-9.8125 -29.9536,-29.0507 15.623,-1.1621 27.5029,-1.1621 32.2788,-1.1621 4.7759,0 33.6992,1.6796 33.6992,1.6796 z"
       inkscape:connector-curvature="0" /><path
       id="path396"
       style="fill:#ffffff;fill-opacity:1;fill-rule:nonzero;stroke:none"
       d="m 260.0234,348.9688 c -11.9145,6.3984 -12.7973,4.746 -17.3208,4.746 -5.7387,0 -12.6899,-8.164 -14.0127,-11.5839 8.8267,7.0605 21.5166,10.9179 31.3335,6.8379 z"
       inkscape:connector-curvature="0" /><path
       id="path398"
       style="fill:#ffffff;fill-opacity:1;fill-rule:nonzero;stroke:none"
       d="m 369.167,385.8379 c -5.4981,0 -30.5879,-8.2481 -42.0459,-29.9024 1.9482,-1.9472 11.2275,-13.748 11.2275,-13.748 1.0303,-0.1152 4.126,6.416 9.6241,10.1973 5.499,3.7812 10.1953,6.9882 19.9345,7.5605 0,4.9258 0.2295,8.1328 5.8438,12.8301 -0.5733,3.7812 -4.584,13.0625 -4.584,13.0625 z"
       inkscape:connector-curvature="0" /><path
       id="path400"
       style="fill:#bf0060;fill-opacity:1;fill-rule:nonzero;stroke:none"
       d="m 403.251,328.4648 c 0,5.8086 -4.7783,28.5332 -36.0244,28.5332 -11.6192,0 -29.9532,-9.8125 -29.9532,-29.0507 15.6231,-1.1621 27.503,-1.1621 32.2793,-1.1621 4.7754,0 33.6983,1.6796 33.6983,1.6796 z"
       inkscape:connector-curvature="0" /><path
       id="path402"
       style="fill:#ffffff;fill-opacity:1;fill-rule:nonzero;stroke:none"
       d="m 378.2314,348.9688 c -11.915,6.3984 -12.7978,4.746 -17.3212,4.746 -5.7383,0 -12.6895,-8.164 -14.0127,-11.5839 8.8271,7.0605 21.5175,10.9179 31.3339,6.8379 z"
       inkscape:connector-curvature="0" /></g></svg>