<?xml version="1.0" encoding="UTF-8" standalone="no"?>
<svg
   xmlns:dc="http://purl.org/dc/elements/1.1/"
   xmlns:cc="http://creativecommons.org/ns#"
   xmlns:rdf="http://www.w3.org/1999/02/22-rdf-syntax-ns#"
   xmlns:svg="http://www.w3.org/2000/svg"
   xmlns="http://www.w3.org/2000/svg"
   version="1.1"
   id="svg2"
   viewBox="0 0 199.99995 320.12365"
   height="90.346008mm"
   width="56.444431mm">
  <defs
     id="defs4" />
  <metadata
     id="metadata7">
    <rdf:RDF>
      <cc:Work
         rdf:about="">
        <dc:format>image/svg+xml</dc:format>
        <dc:type
           rdf:resource="http://purl.org/dc/dcmitype/StillImage" />
        <dc:title></dc:title>
      </cc:Work>
    </rdf:RDF>
  </metadata>
  <g
     transform="translate(383.57141,-372.30038)"
     id="layer1">
    <g
       transform="matrix(0.99999577,0,0,0.99999577,-383.57106,372.30038)"
       id="g4282">
      <path
         style="fill:#000000;fill-opacity:1;fill-rule:nonzero;stroke:none"
         d="M 60.373047,0 C 59.757421,0.18506538 59.146557,0.49154939 58.806641,1.0429688 57.711357,12.728526 56.000493,24.160655 53.677734,35.291016 50.263466,53.427423 37.618962,76.174527 53.0625,92.955078 49.30454,100.2104 53.953125,107.77227 53.953125,115.0918 l -11.960937,1.5332 12.160156,-1.04297 0.34375,3.01172 -2.181641,2.21289 c -4.03367,1.10662 -8.064435,2.21282 -11.826172,3.75 3.621993,-1.10662 7.109228,-2.21249 10.867188,-2.88476 -1.367217,2.64 -2.804167,5.71312 -3.416016,8.9121 l -0.615234,0.30664 0.615234,-0.18554 -0.07031,2.0918 2.185547,-1.72071 c -1.023525,4.11676 0.41241,7.9912 3.898437,10.75586 l -0.480469,-3.75 0.205078,-0.24219 c 2.186793,3.62577 6.351529,6.26869 10.796875,5.95899 l -2.257812,-2.33399 c 6.424413,1.72224 14.352858,1.72245 21.117187,0.86133 3.486027,1.35211 7.036312,3.99571 8.951172,7.00586 -3.210318,-0.42679 -6.629598,0.49165 -9.5,1.78711 -10.590272,6.26956 -20.976567,12.72448 -31.978515,18.19336 -1.91486,1.29545 -4.373728,2.83145 -4.84961,4.98047 -0.615626,9.22306 10.043137,14.94261 16.603516,20.90625 -1.707134,0.30592 -3.210532,1.04159 -4.509766,2.02734 -0.751592,0.37013 -0.954686,-0.55551 -1.570312,-0.92187 -1.367217,-1.9073 -4.786078,-2.82922 -4.646485,-5.6543 -0.547643,-1.10662 -1.778066,-1.96975 -3.28125,-1.59961 -2.802419,2.45872 -5.737902,-0.67759 -8.748046,-0.61719 0.207726,3.25942 -0.272279,6.82593 -1.435547,9.83985 -1.499407,-0.2455 -3.481511,-0.43132 -4.708985,0.49023 -3.418044,4.18097 1.499232,8.29744 2.046875,12.41797 1.36344,3.31985 -0.274656,7.99173 3.623047,10.14453 -6.904071,0.43056 -14.212439,2.39817 -17.5625,8.54688 -0.683609,2.82885 -1.503663,6.33097 1.638672,8.23828 1.231251,0.61184 3.006654,0.36942 4.169922,-0.30664 5.468871,-4.61153 11.273925,-8.9137 17.558594,-11.86719 1.503185,1.78267 3.417924,3.321 5.46875,4.36719 -1.435201,17.21108 0.887384,33.68812 2.046875,50.35156 l -1.363282,1.71875 c -5.536854,2.70422 -12.437668,2.39844 -18.998047,2.39844 -9.087086,-2.21323 -20.22472,-1.96248 -26.4414058,5.28906 -5.26114425,5.53308 -7.9283306,14.32491 -3.8984374,20.84375 4.445346,6.02029 11.3460872,9.09807 19.3378902,7.74219 1.982844,0.86489 4.034287,1.47656 6.289063,1.47656 13.184965,0 23.710581,-5.84176 33.960937,-12.11133 6.288446,-4.61152 12.912353,-10.26595 16.054688,-16.66015 12.02925,5.47265 24.875631,9.28335 38.404291,11.68164 5.26492,0.61185 11.47646,1.22715 16.26172,-0.92188 5.46887,-0.24927 11.27526,-0.98564 14.34961,-5.41211 4.16964,-2.27743 6.21531,-6.26862 5.25977,-10.57422 -1.77512,-6.0845 -8.26309,-11.43401 -14.6875,-13.15625 -7.58768,-1.96774 -15.17086,0.18662 -21.1836,3.75196 -4.36981,0.79691 -9.35933,1.2908 -13.80468,0.42968 l 3.34961,-3.32422 c 5.0572,-5.89942 13.32519,-11.49316 9.36328,-19.73046 -5.26492,-8.18065 -10.387,-16.47851 -14.55664,-25.08594 7.04004,-5.53308 11.75322,-12.29574 16.80664,-18.875 7.10802,-11.18702 12.50942,-23.54651 11.07422,-37.50195 8.47146,1.23125 17.69544,5.71831 26.30664,1.6582 9.29482,-6.02406 14.21231,-14.69212 17.55859,-23.60547 1.71091,-0.98576 2.73402,-2.64372 2.66602,-4.61523 1.63915,-1.2879 2.73355,-2.94451 2.9375,-4.91602 0.068,-2.51916 -1.49852,-4.42423 -2.9375,-6.14648 2.53049,0.0604 4.58034,0.24222 7.03906,-0.55469 1.97907,-0.73649 3.27966,-2.64274 4.03125,-4.30078 1.63914,5.34801 1.09491,11.98804 -0.0684,17.39648 -1.23125,-1.04619 -2.871,-1.90834 -4.57813,-1.22851 -1.70714,0.73649 -3.21349,2.33379 -4.02929,3.81054 -1.37114,2.51915 -3.55444,6.14918 -1.09571,8.79297 0.81957,0.86112 2.39029,0.49009 3.34961,0.42969 -1.23125,1.78267 -1.98618,3.62601 -2.66601,5.59375 -0.47966,2.88929 -0.75127,6.57902 2.11914,8.48633 2.04705,0.55142 3.7569,-0.86006 4.98437,-1.90625 -0.13597,4.30183 -2.18678,10.45067 2.39453,13.40039 1.02353,0.55504 2.25458,0.43093 3.41407,0.125 5.32913,-3.25941 4.17105,-9.83998 4.375,-15.37305 0.81958,0.55516 2.18546,0.98708 3.20898,0.49609 2.94216,-1.97151 1.7117,-6.39952 1.16406,-9.22461 l 1.09571,-0.86132 c 1.57117,-4.61153 -0.75491,-9.03796 -4.03321,-12.48242 -0.88756,-0.49099 -2.1188,-0.54994 -3.07812,-0.24024 -0.95177,-7.68588 -0.33747,-16.53951 -5.39844,-22.99414 0,-3.31985 -0.74828,-6.88983 -4.57422,-8.17773 -1.50696,-0.61563 -3.68822,-0.30832 -5.1914,-0.98438 2.66267,-3.38027 7.78623,-1.71838 10.72461,-4.67187 3.14234,-2.51916 4.85353,-5.84005 4.16992,-9.7793 -0.34369,-0.917778 -0.95549,-2.148887 -2.05078,-2.394532 -3.75796,-0.861121 -6.5593,2.275052 -8.7461,4.488282 -2.93838,3.62955 -8.19953,2.39778 -11.00195,6.08398 -2.79864,-1.71847 -5.81042,4.6e-4 -8.20117,0.92578 -0.61562,-1.53717 -1.02296,-3.20003 -2.66211,-4.30664 -1.50318,-0.61188 -3.48472,-0.61173 -4.91992,0.0606 -4.23762,2.27744 -6.62845,6.33442 -7.58399,10.39453 -3.34629,1.0424 -7.51675,-0.0649 -10.79883,1.29102 -0.88756,0 -1.36674,-0.0603 -1.63867,0.85742 -0.75159,1.10662 -1.98276,1.96694 -3.41797,2.02734 0.68739,1.84687 -0.0692,3.81243 -0.54882,5.34961 1.0273,0.98575 1.71086,2.03059 2.05078,3.32227 4.03367,0.0604 7.92908,1.5369 11.95898,0.67578 1.57494,0.92155 3.55314,1.10813 5.33203,1.41406 l -0.20703,3.68945 c 0.68361,4.54733 6.49212,6.57943 9.22656,10.26563 0,1.29168 -0.001,2.88973 0.47461,4.06055 -3.00259,4.2414 -7.85581,8.11108 -12.36914,11.125 l -4.23242,-1.16602 c -12.50136,-3.19899 -22.00374,-12.72746 -35.05273,-14.6914 -2.32276,-2.21702 -1.84752,-5.59877 -2.52735,-8.36719 5.66904,-5.40844 10.45459,-11.37228 12.77735,-18.13281 l 1.1582,3.50195 c 2.25478,-2.45872 1.43599,-6.20459 1.16406,-9.09766 l 1.43555,1.66016 c 0.33992,-2.45872 -0.68351,-4.86026 -1.70703,-6.82422 0.61562,0.12463 1.29415,1.04591 1.84179,0.67578 -0.75159,-1.35211 -2.46122,-2.45783 -3.55273,-3.56445 3.89392,-2.02817 8.13159,-4.18133 12.0293,-5.654299 -4.58131,1.287904 -8.61237,3.500889 -12.91797,5.408199 l -2.39063,-1.29101 c 4.50955,-3.750406 9.22362,-6.825169 13.86914,-10.33008 -4.91745,2.889286 -9.77012,6.087726 -14.34765,9.95898 -1.09529,0.18507 -2.73579,-0.30954 -4.03125,-0.73632 3.14234,-4.180976 7.10575,-8.056355 11.27539,-11.867191 -4.30183,3.319846 -8.60734,7.750545 -12.02539,11.927731 -3.82972,-0.30593 -7.99602,-0.18534 -11.414064,0.67578 -2.866625,-4.853234 -7.313032,-8.912661 -11.546875,-13.033199 -1.163268,-0.615776 -2.389465,-0.244896 -3.552734,0.246094 -1.91486,-1.046186 -4.10214,-1.537943 -6.285156,-1.904297 l -0.41211,-0.36914 c 4.921229,-7.009824 12.369252,-13.154761 18.585938,-19.552735 9.019111,-10.390099 12.436961,-22.2537 13.732421,-35.472656 0.27571,-7.685878 1.23217,-16.414252 -1.22656,-23.4882814 -0.41167,-0.7327079 -1.16316,-1.9640101 -2.39063,-1.5976562 -1.29923,0.6156257 -2.05077,1.9676038 -2.73437,3.0742186 L 94.675781,29.941406 C 89.894296,40.021804 82.441744,49.12106 75.953125,58.46875 c -3.48225,5.162947 -7.036255,10.080685 -8.607422,15.798828 -1.370995,2.76465 0.06806,6.699152 -3.417969,8.236328 C 65.9068,74.942663 69.531524,68.117884 71.306641,60.556641 76.911478,41.068124 71.715587,20.410534 63.927734,3.3203125 63.040175,2.0286317 62.080181,0.42678343 60.373047,0 Z m 33.414062,171.2207 c -1.982843,7.00605 -4.989217,13.8302 -11.001953,19.36328 -2.186793,0.0643 -4.096482,0.7402 -5.943359,1.53711 -0.683609,-1.47297 -2.596064,-1.10579 -3.347656,-2.02734 -2.458726,-3.62578 -3.689017,-7.68673 -6.355469,-11.3125 7.583904,-4.91746 17.013707,-6.75986 26.648437,-7.56055 z m -23.183593,63.64453 c 4.74261,-0.12519 9.468877,0.7105 12.935546,3.61524 6.764331,5.71436 11.685445,12.23368 13.392579,19.79492 -6.832312,7.93515 -16.056764,13.52469 -24.667969,18.69141 -3.96191,-13.03389 -4.852721,-27.48156 -3.689453,-41.99219 0.674639,-0.0538 1.351781,-0.0915 2.029297,-0.10938 z"
         transform="translate(-7.6293945e-6,0)"
         id="path5430" />
      <path
         id="path5434"
         style="fill:#b5bbbf;fill-opacity:1;fill-rule:nonzero;stroke:none"
         d="M 63.447931,4.3652211 C 71.579478,22.006862 76.228773,45.004068 69.324701,64.36795 67.137908,71.128501 63.791624,77.522699 62.560373,84.592952 62.28844,84.96686 61.193155,84.96686 60.57753,85.027289 63.791624,71.007642 70.144277,58.219247 70.076293,42.972126 70.283869,32.336532 68.025467,22.622487 64.543216,13.339004 c 0,-0.55142 0,-1.106616 -0.275558,-1.537176 l -0.271933,0.309701 C 62.9722,32.887951 53.473436,50.533368 53.677386,71.744127 c 0.343693,6.212909 1.982843,11.991481 5.193161,17.154428 1.367218,2.889286 -1.159491,5.166723 0.887558,7.870944 0.07191,-1.231252 -0.751592,-2.522932 -0.135966,-3.689977 0.751592,1.967736 1.435201,3.995901 2.938385,5.718142 -1.571167,-3.689977 -4.029893,-8.116439 -2.254776,-12.482471 0.751592,-0.857344 1.982843,-0.917773 3.142334,-0.736485 1.571168,0.49099 3.146112,1.352111 4.445346,2.33409 -0.823352,-1.167045 -2.530485,-2.454949 -4.173413,-2.885509 0.415453,-1.35211 1.91486,-2.647568 2.938385,-3.995901 l -1.227474,3.810836 0.751592,0.426783 c 1.71091,-2.024388 3.96191,-3.995901 6.356429,-5.03831 -1.778894,1.412539 -3.965687,3.504911 -4.853245,5.657713 l 0.683609,0.490989 c 1.503184,-0.981979 3.210318,-1.661811 5.057195,-1.907306 -1.367218,0.796914 -3.074352,2.031942 -3.893927,3.380276 4.645519,0.06043 9.359021,0.245646 13.184964,2.213231 0.20395,0.86112 0.479659,1.722241 1.095285,2.402073 -0.07191,-0.864898 -0.343693,-1.786448 0.339916,-2.583362 0.139592,0.736485 0.547642,1.537176 1.231251,2.273661 0,-0.736485 -1.091508,-1.907307 0,-2.583362 1.710911,0.309701 2.734436,1.846877 3.96191,3.074351 -0.479659,0.185217 -1.503184,-0.181288 -1.63915,-0.86112 -0.47966,1.046186 0.339916,2.213231 0.683608,3.259417 2.662676,4.796592 6.764329,9.404342 11.205898,13.154752 0.275559,0.67605 0.475879,1.35211 0.547639,2.03194 -1.095281,0.30592 -2.050823,1.10661 -2.802415,1.96396 l -11.141691,-0.42678 c -2.386966,-8.547 -9.494987,-17.399928 -18.854008,-21.27497 -0.959319,0 -1.982843,-0.43056 -2.870402,0 -0.06798,-0.245344 -0.06798,-0.861121 -0.479659,-0.736485 -1.231251,9.037989 6.148703,15.677685 12.845048,22.196515 -5.604837,0.0604 -11.341864,0.67228 -16.263092,2.64379 l -5.465094,0.24172 c -0.683609,-6.82098 -4.301826,-14.01587 -1.367218,-20.840628 l 1.367218,0.06436 C 46.913057,85.57886 44.866007,73.40609 47.664649,62.09444 53.197726,42.420857 58.190715,22.622639 59.622139,1.4156567 59.830016,0.92089004 60.785407,0.73582466 61.193306,1.2911719 l 2.254776,3.0743514 z" />
      <path
         id="path5438"
         style="fill:#b5bbbf;fill-opacity:1;fill-rule:nonzero;stroke:none"
         d="m 107.24763,10.265408 c 2.32654,15.247121 1.09529,31.479999 -5.05719,44.819813 -4.573759,12.297406 -19.201478,20.655563 -26.781605,32.031419 -1.163268,0.120859 -2.394519,-0.185217 -3.62577,-0.12086 1.163268,-1.295457 2.874178,-2.152801 4.581312,-2.707997 -0.135966,-0.551419 -0.207575,-1.291681 -1.091508,-0.98198 l -0.275861,0 c 9.430781,-11.005724 23.846996,-20.413844 27.193282,-33.817865 2.80242,-8.358157 3.48603,-17.641641 3.82972,-26.864695 l -0.13959,-0.185217 c -1.4352,5.287583 -4.09788,10.023746 -7.172231,14.695702 l -20.021053,28.4623 c -3.010145,4.426462 -5.39711,9.041766 -6.904071,13.898788 -1.639151,0.672279 -3.006369,1.963959 -4.437793,3.070575 l 1.707134,-3.74663 c -0.479659,-0.804468 -1.159491,-0.370131 -1.707134,0.06043 0.679832,-4.490669 2.186793,-8.671635 4.437793,-12.542901 l 19.54517,-28.405647 c 5.60106,-8.667859 7.855836,-18.442332 12.161435,-27.665386 0.68739,-0.7969146 1.16327,-2.5795852 2.53049,-2.3378672 l 1.22747,2.3378672 z" />
      <path
         id="path5442"
         style="fill:#ffffff;fill-opacity:1;fill-rule:nonzero;stroke:none"
         d="m 63.721768,71.437447 c -1.707134,4.796593 -3.142335,9.653615 -4.097877,14.695702 l -0.751592,1.287904 C 50.808736,74.881929 55.658205,57.787931 58.324657,44.448116 c 2.730658,-9.283483 4.849468,-18.812462 6.148703,-28.647365 7.104244,16.720091 5.87677,39.041242 -0.751592,55.636696" />
      <path
         id="path5446"
         style="fill:#ffffff;fill-opacity:1;fill-rule:nonzero;stroke:none"
         d="m 92.96663,64.30752 -19.061734,19.122164 -2.050827,0.305924 c -0.543865,-2.458725 2.598469,-3.074351 4.03367,-4.305602 0.268307,-1.47297 -1.435201,-0.430561 -2.19057,-0.611849 l -0.751592,0.305924 C 75.000181,70.331587 81.832492,62.89498 86.817927,55.084466 93.03839,45.861412 100.75826,37.193554 104.9279,27.234015 c -0.41168,13.46445 -2.87041,26.6192 -11.96127,37.073505" />
      <path
         id="path5450"
         style="fill:#ffffff;fill-opacity:1;fill-rule:nonzero;stroke:none"
         d="m 69.737888,84.534033 1.363441,-0.615625 0,-0.98198 -1.363441,1.597605 z" />
      <path
         id="path5462"
         style="fill:#ffffff;fill-opacity:1;fill-rule:nonzero;stroke:none"
         d="m 77.458514,98.306282 c 3.893926,4.056328 6.760551,8.422358 7.991803,13.464448 l -3.414268,0 c -0.479659,-1.90353 -2.11881,-3.7504 -4.101653,-4.79659 -0.955542,-0.24534 -2.04705,0 -2.254776,0.92155 -0.06798,1.10662 0.479659,1.90731 1.023525,2.76465 -5.872993,-5.40844 -12.025473,-11.372079 -12.229423,-19.239246 0.959319,-0.740261 2.598469,-0.309701 3.554011,0 3.482251,1.533399 6.692568,4.056331 9.430781,6.885188" />
      <path
         id="path5466"
         style="fill:#ffffff;fill-opacity:1;fill-rule:nonzero;stroke:none"
         d="m 97.410465,102.05672 c -0.479659,0 -0.955541,-0.37013 -1.299234,-0.12449 -0.47966,0.43056 -0.611849,1.04241 -0.411676,1.53718 -2.934608,-3.07435 -5.87677,-6.394198 -7.240211,-10.205035 4.305603,1.537176 6.900295,5.533078 8.951121,8.792495" />
      <path
         id="path5470"
         style="fill:#ffffff;fill-opacity:1;fill-rule:nonzero;stroke:none"
         d="m 191.43386,100.51915 c 0.47588,3.38028 -0.47966,6.63969 -3.07435,9.03421 -3.28208,3.56912 -9.15885,1.60138 -11.89328,5.65772 l -3.89393,0.12448 c -0.27193,-2.03194 -0.27193,-4.18097 -1.63915,-5.90321 2.53048,-3.87126 8.19953,-2.51915 11.13791,-6.45463 1.70714,-1.9073 3.75796,-3.931691 6.56038,-4.305598 1.4352,-0.0568 2.45873,0.800691 2.80242,1.846878" />
      <path
         id="path5474"
         style="fill:#ffffff;fill-opacity:1;fill-rule:nonzero;stroke:none"
         d="m 109.29882,102.05672 c -2.32276,3.13478 -4.37358,6.26956 -5.73702,9.71404 l 0.20002,0.24565 c 1.98662,-3.31985 3.82972,-6.76433 6.28844,-9.83868 1.09529,0.18521 2.39075,0.37013 3.41427,0.67983 l -7.71609,7.37618 c -0.75537,-0.18522 -0.20788,0.30592 -0.47966,0.49099 -0.61563,0.61562 -1.36722,1.29168 -1.23125,1.96773 0.75159,-0.18521 1.16327,-1.10661 1.8431,-1.60138 l 0.068,0.0641 -1.22747,1.35211 c 0.54764,0.73648 1.15949,-0.49099 1.63915,-0.37013 0.34369,1.16704 -0.20395,2.21323 -0.88756,3.07435 -0.75159,0.55519 -1.57117,0.98575 -2.73444,0.80069 -0.20395,-0.24565 0,-0.5552 -0.27193,-0.80069 -0.47966,1.17082 -1.23125,2.76842 -2.870401,3.13856 -1.503184,0.30592 -3.418044,0.42678 -4.577536,-0.49099 0.339916,-0.12449 0.751592,-0.12449 1.159492,-0.43056 -0.271933,-0.98954 -1.707134,0.30592 -1.707134,-0.74027 0.411676,-0.24927 1.299234,0.18522 1.299234,-0.55142 l -0.135966,-0.24927 0.135966,-0.18129 c -0.06798,-0.61562 -0.819575,-0.43056 -0.271932,-1.10661 l -1.027302,0.61185 c -10.250356,-0.98198 -20.700885,-1.22748 -30.679308,-0.98198 10.178596,-2.52293 22.343812,-1.53718 32.934084,-1.16705 0.959319,0.98198 2.870402,0.92155 4.509553,1.16705 0.82335,-0.86112 1.23125,-2.3983 0.75159,-3.68998 -1.63915,-0.30592 -1.22747,-1.8431 -1.63915,-2.94971 -0.20395,-1.72225 -0.823351,-3.31985 -1.707133,-4.7966 3.346283,-0.67605 7.108023,-1.29168 10.658253,-0.73648" />
      <path
         id="path5478"
         style="fill:#ffffff;fill-opacity:1;fill-rule:nonzero;stroke:none"
         d="m 116.67917,104.08564 c -3.21409,2.02816 -6.42441,4.42646 -9.97465,6.1487 1.97907,-2.40207 4.91746,-4.79659 7.71987,-7.00982 l 2.25478,0.86112 z" />
      <path
         id="path5482"
         style="fill:#ffffff;fill-opacity:1;fill-rule:nonzero;stroke:none"
         d="m 117.90927,106.05147 c 1.49941,1.72224 3.07436,3.50491 3.07436,5.71814 -0.61563,-0.67605 -1.16327,-1.96773 -2.05083,-2.1528 l -0.27193,0.24927 c 0.95554,3.07058 2.18679,6.51506 0.74781,9.77448 -0.61185,-1.90731 -0.61185,-3.50491 -1.29168,-5.41222 -1.50696,8.29773 -6.97205,15.06206 -13.67218,21.33162 0.82336,3.62955 0.27586,7.68588 3.96569,10.26924 11.40985,7.19489 18.03821,17.95134 19.54139,29.69355 -0.27193,18.32147 -9.29103,33.81409 -22.0681,47.64867 -4.84947,4.92123 -10.386322,9.09842 -16.059142,12.29741 -2.11881,0.79691 -3.965687,1.8431 -6.560379,1.53339 -4.373586,-2.33409 -9.770697,-3.07057 -15.235791,-2.8855 -1.846877,-4.06011 -1.846877,-9.53276 -0.411676,-13.89879 4.373586,-3.56157 10.658255,-7.25154 12.16144,-12.65999 16.334852,-11.0095 28.632258,-26.56254 25.421938,-45.25037 -1.98284,-8.17687 -6.560377,-15.43596 -13.600415,-21.70552 -10.110613,1.72601 -23.163387,3.07435 -32.454425,-1.16705 0.407899,1.78645 2.322759,2.02817 3.554011,3.56534 -4.169637,-0.0604 -7.99558,-3.81083 -9.294815,-7.31575 l -0.615625,-1.90353 c -0.955542,1.71847 0.275558,4.11676 0.203949,6.33 -2.866625,-2.82886 -3.210317,-7.43661 -1.707133,-10.75646 12.025473,-4.79659 24.462622,-8.547 37.651363,-10.69602 -6.220463,2.51915 -13.188741,3.50113 -18.857785,7.1269 -0.823352,0.5552 -1.91486,1.35589 -2.254776,2.27366 6.692568,-5.53307 16.127126,-5.96363 23.775236,-9.89533 l 2.394519,-0.30592 c 2.730659,0.91777 1.363441,3.87126 2.11881,5.839 l -3.146111,-0.67606 c 0.547642,0.8007 1.982843,1.10662 3.214094,1.35211 0,1.84688 0.06798,4.05634 2.186793,4.5511 1.295458,0.49099 3.14233,1.22748 4.7135,0.49099 5.60106,-1.78267 2.66645,-7.68588 5.60106,-10.82066 l 0.13959,-0.86112 c -0.47965,0.43056 -0.88755,1.47675 -1.57494,2.14903 0.13959,-2.14903 -1.09151,-4.36226 -0.13597,-6.33 -1.36344,-2.02816 1.23126,-3.13478 2.73444,-3.81083 0.54764,-0.30593 1.29923,-0.18522 1.91486,-0.61563 l -1.63915,0 7.30819,-4.54732 2.25856,1.53718 -1.7789,-0.0641 z" />
      <path
         id="path5486"
         style="fill:#ffffff;fill-opacity:1;fill-rule:nonzero;stroke:none"
         d="m 162.53043,113.06093 c -0.41168,-0.18521 -0.88756,-0.43056 -1.23503,-0.36635 2.39452,3.31607 9.84245,-0.49477 9.50254,5.22337 -0.41168,1.29169 -1.09529,2.57959 -2.39452,3.25942 -1.16327,-1.96773 -3.48225,-3.87504 -6.01274,-3.62577 -1.22747,-0.0644 -2.31898,0.85734 -2.79864,1.83932 l -0.47966,1.53718 c -2.93838,-1.47675 -4.44157,-4.2414 -5.12518,-6.94562 l -0.27193,1.78267 -6.01651,0.12449 c 0.89133,-4.3056 3.96568,-9.40812 9.29481,-10.32967 4.6493,0.12448 4.03367,4.98166 5.53686,7.50081" />
      <path
         id="path5490"
         style="fill:#000000;fill-opacity:1;fill-rule:nonzero;stroke:none"
         d="m 93.922927,107.83339 c -1.431424,0.37013 -2.594692,1.10661 -3.75796,2.1528 0.411676,-0.98198 1.095285,-1.72224 2.11881,-2.0886 0.479659,-0.12448 1.231251,-0.0643 1.63915,-0.0643" />
      <path
         id="path5494"
         style="fill:#000000;fill-opacity:1;fill-rule:nonzero;stroke:none"
         d="m 97.957715,108.20391 c -2.598469,0.24534 -4.785262,1.35211 -6.696345,3.19521 1.091508,-2.21323 3.961909,-3.87126 6.696345,-3.19521" />
      <path
         id="path5498"
         style="fill:#ffffff;fill-opacity:1;fill-rule:nonzero;stroke:none"
         d="m 170.79646,110.41711 c 1.50318,2.3983 0,6.1487 3.00637,7.74631 1.4352,0.37013 3.07812,1.04619 3.68997,2.33409 0.41168,1.5976 -0.27193,2.95349 -1.29545,4.06011 -1.23503,1.35211 -2.87418,2.1528 -4.78527,2.08859 l -2.4625,-0.30592 c 1.16327,-2.09237 -2.18302,-4.73617 1.23125,-5.71814 1.16327,-1.23126 1.63915,-3.19522 0.88756,-4.85703 -1.50318,-3.93547 -8.47146,0.12449 -8.67541,-4.85702 l 0,-0.43056 c 2.11881,-1.47297 6.5566,-2.88929 8.40348,-0.0604" />
      <path
         id="path5502"
         style="fill:#f3a188;fill-opacity:1;fill-rule:nonzero;stroke:none"
         d="m 101.37425,111.70731 c 0.13596,0.74026 -0.13959,1.35211 -0.54764,1.96774 l -3.210322,-0.61563 c 0.683609,-1.22747 2.04705,-2.14902 3.618222,-2.33409 l 0.13959,0.98198 z" />
      <path
         id="path5506"
         style="fill:#ffffff;fill-opacity:1;fill-rule:nonzero;stroke:none"
         d="m 93.922927,115.76515 c -13.59664,0.92155 -27.46899,1.96774 -40.378245,4.73239 2.183017,-2.39452 4.985435,-4.30183 7.991803,-5.28758 10.522289,-0.55142 21.932136,-0.36636 32.386442,0.55519" />
      <path
         id="path5510"
         style="fill:#b5bbbf;fill-opacity:1;fill-rule:nonzero;stroke:none"
         d="m 55.387783,117.73401 -0.207576,-2.1528 c 1.299235,-0.30593 2.530486,-0.0644 3.965687,-0.30593 l -3.75796,2.45873 z" />
      <path
         id="path5514"
         style="fill:#ffffff;fill-opacity:1;fill-rule:nonzero;stroke:none"
         d="m 106.02052,125.84703 c -0.47966,1.35211 -2.11881,2.45873 -3.48602,3.07435 -2.11504,0.24535 -4.233848,-0.30592 -5.536859,-1.8431 l -0.751592,-7.87094 c 2.326536,0.18522 4.649291,-0.12086 6.084501,-1.96396 0.75159,2.20945 0.75159,4.60775 1.23125,7.00605 0.47588,-2.51916 0.13204,-5.22338 -0.54765,-7.56125 1.02353,0 1.97907,-0.24927 2.86663,-0.92155 0.95932,3.01015 0.75537,6.9494 0.13989,10.0804" />
      <path
         id="path5518"
         style="fill:#f5a42e;fill-opacity:1;fill-rule:nonzero;stroke:none"
         d="m 185.48648,119.20849 c 1.71091,4.61152 1.0273,10.32967 -2.59469,14.01587 -3.2783,1.78644 -7.9276,1.41631 -11.6138,0.74026 1.09151,-0.86112 2.73066,-1.97151 2.59469,-3.50491 -0.61562,1.04618 -2.05082,2.82885 -3.75796,3.13478 -2.66645,0.73648 -5.67282,0.18521 -8.2033,-0.37013 2.59846,-0.85735 6.22046,-3.19521 6.7681,-6.0845 2.25478,0.18522 5.12518,0.37013 6.96828,-1.10661 1.63915,-1.29169 2.73443,-2.88929 2.59847,-4.85703 -0.13959,-2.94971 -4.03367,-3.01392 -5.46887,-4.85702 2.05082,-0.43056 4.92123,-0.37013 7.176,-0.12086 2.11503,0.42679 4.30183,1.04619 5.53308,3.01015" />
      <path
         id="path5522"
         style="fill:#f5a42e;fill-opacity:1;fill-rule:nonzero;stroke:none"
         d="m 154.19342,116.56433 c -0.13959,3.38406 7.37618,4.18097 4.02989,7.68588 -1.8431,3.25942 -6.42063,2.70422 -8.26751,6.1487 -1.57117,-0.24534 -3.28208,-0.37013 -4.64552,-1.23125 0.81958,-0.55142 1.16327,-1.35211 1.29546,-2.21323 -2.79864,4.18097 -8.47146,1.53718 -12.91303,1.47675 0.33991,-0.86112 1.77511,-0.92155 2.93838,-0.92155 0.13959,0.24172 0.61563,0 0.81958,0.12086 0.13596,-1.78267 0.95932,-3.31985 2.66267,-4.42646 -1.15949,-0.92155 -1.50318,-2.45873 -1.22747,-3.75041 -1.02353,-0.24565 -2.11503,-0.61185 -2.8704,-1.35211 3.07435,-0.85734 7.58768,-2.1528 10.45808,0.24927 l 2.18301,2.64002 c 0.068,-1.59761 -1.63915,-3.25564 -3.34628,-4.12054 2.59469,-0.67228 5.94475,-0.24535 8.88314,-0.30593" />
      <path
         id="path5526"
         style="fill:#ffffff;fill-opacity:1;fill-rule:nonzero;stroke:none"
         d="m 91.121626,117.67056 c -14.963858,2.1528 -29.040157,6.39419 -42.228898,12.2974 0.411676,-3.07435 1.710911,-5.90321 3.621994,-8.48657 12.709082,-2.94971 26.377482,-4.23762 40.181849,-4.79281 l -1.574945,0.98198 z" />
      <path
         id="path5530"
         style="fill:#ffffff;fill-opacity:1;fill-rule:nonzero;stroke:none"
         d="m 93.652505,117.24265 -0.339916,0.0604 0.339916,-0.43056 c -0.139592,0.18522 0.271933,0.24535 0,0.37013" />
      <path
         id="path5534"
         style="fill:#ffffff;fill-opacity:1;fill-rule:nonzero;stroke:none"
         d="m 166.28802,119.69987 c 2.1868,2.1528 2.66268,5.65394 1.36722,8.3015 -1.36722,3.56535 -5.87677,3.75041 -8.27129,6.14493 l 0,0.43056 c 1.29924,-2.08859 3.82972,0 5.60484,0.18522 3.34628,1.53717 6.28844,4.61152 5.94475,8.17687 -0.13596,0.18521 -0.068,0.43056 -0.068,0.61562 0.95554,-1.72224 0.27193,-4.48689 -1.16327,-6.1487 -0.95554,-1.10662 -2.25478,-1.90353 -3.48603,-2.76843 l 3.68998,-0.30592 3.82972,0.86112 c 2.25478,1.65803 3.89393,4.30182 3.21032,7.13446 -1.02353,2.82885 -4.44157,4.85324 -7.37996,5.53307 -2.18679,0.18129 -5.12517,0.61563 -7.03626,-0.43056 -3.35006,-2.76842 -6.08449,-6.20913 -9.70649,-8.79249 -1.77134,-1.23125 -2.66645,-3.13478 -2.52671,-5.16672 -0.13959,-1.53718 0.33992,-2.88551 1.36722,-4.05634 3.34629,-1.8431 8.40726,-3.87504 8.40726,-8.05223 -0.1396,-1.23125 0.33991,-2.39829 1.57116,-3.01392 1.70714,-0.43056 3.41427,0.24565 4.64552,1.35211" />
      <path
         id="path5538"
         style="fill:#f5a42e;fill-opacity:1;fill-rule:nonzero;stroke:none"
         d="m 138.40847,122.0362 c 1.7789,1.23125 -1.23125,2.33786 -1.23125,3.7504 0.7516,2.0886 -2.11881,0.5552 -2.86662,1.29168 l -1.43898,0.73649 -1.77512,-2.57959 c 0.7516,-1.35211 0.95555,-2.95349 0.68361,-4.49067 1.4352,-0.37013 2.73066,-1.29168 3.41427,-2.51915 1.29923,1.5976 3.68998,1.47297 3.21409,3.81084" />
      <path
         id="path5542"
         style="fill:#62a522;fill-opacity:1;fill-rule:nonzero;stroke:none"
         d="m 191.43386,144.04804 c 0.20395,2.88928 0.13597,6.1487 0.13597,9.15885 l -0.75159,0.74026 c -0.20395,-1.60138 -0.7516,-3.13856 -2.39075,-3.99968 -1.0273,-0.24565 -2.11881,-0.5552 -2.94216,0.18522 -0.95554,0.92155 -1.49941,1.96773 -1.70713,3.07435 0.68361,-0.74026 1.16327,-2.51916 2.66645,-2.82886 1.4352,-0.18129 2.8704,0.49099 3.21032,1.72224 l 0.68361,3.19521 c 0.33991,-0.73648 1.97906,-2.45872 3.28207,-1.53717 -2.66645,-0.73649 -0.61562,-3.99591 -1.23502,-5.77858 0.6194,-0.42678 1.91863,-0.42678 2.4625,0 3.14233,2.708 4.57753,6.33377 4.64929,10.32967 -0.13989,0.67606 -0.34369,1.53718 -1.09528,1.96774 -0.47966,-1.10662 -0.75159,-2.3983 -1.91108,-3.25942 1.22747,3.56534 2.86662,8.11644 1.22747,12.11234 -0.54764,0.80069 -1.71091,0.86112 -2.45873,0.5552 -1.91486,-0.37391 -1.29923,-2.1528 -2.25477,-3.19899 0.47588,5.22716 1.23125,11.80642 -1.57117,16.41417 -0.81957,1.04618 -1.84688,1.96773 -3.41804,1.84688 -1.36722,0.12085 -2.59847,-0.8007 -3.2783,-1.90731 -1.84688,-4.61153 -0.54765,-10.20503 0.74781,-14.6957 -1.22747,1.54095 -2.59469,4.18474 -5.05342,4.85702 -1.23125,0.0604 -2.4625,-0.55142 -2.73443,-1.53718 -1.77512,-4.79281 0.4079,-9.5894 3.41426,-13.33981 l -0.47588,-0.42678 c -1.02352,0.67227 -2.25477,1.65803 -3.68997,1.10661 -1.29546,-0.67983 -1.50319,-1.97151 -1.43521,-3.25942 0.95555,-3.44448 2.5947,-8.17686 7.31198,-8.91713 1.4352,0.24535 2.66267,1.23126 3.41804,2.33787 1.22747,-6.51883 1.77512,-13.71372 0.068,-20.28921 0.13597,-0.37013 0.33992,-0.80069 0.4079,-1.16704 2.93839,4.05633 2.25856,9.77447 2.73444,14.93742 0.47966,-5.40844 0.95554,-11.55715 -2.66268,-15.80232 l 0.20002,-1.40876 c 3.89771,5.40844 3.89771,12.2332 4.44535,18.81246" />
      <path
         id="path5546"
         style="fill:#ffffff;fill-opacity:1;fill-rule:nonzero;stroke:none"
         d="m 48.8255,131.13537 c -0.271933,-0.55142 0.339916,-0.92155 0.955542,-1.16705 0.07191,0.30593 -0.747815,0.73649 -0.955542,1.16705" />
      <path
         id="path5550"
         style="fill:#b5bbbf;fill-opacity:1;fill-rule:nonzero;stroke:none"
         d="m 102.73959,180.25967 c -3.825941,10.14083 -12.573113,19.54894 -22.619519,26.18864 0.207878,-4.18097 -0.819575,-8.36194 -2.730658,-11.92728 -1.231252,-2.39829 2.183016,-2.08859 3.414267,-2.82885 0.479659,0.0643 0.823352,-0.18522 1.299234,-0.0604 l -0.06798,0.49099 c 1.642928,-0.43056 2.866625,-2.21323 4.101653,-3.50114 4.44157,-5.29136 7.036262,-11.255 8.883139,-17.52456 1.227474,-0.0604 2.458725,-0.24564 3.621994,-0.61562 -7.383731,-0.55142 -15.103602,0.80069 -21.935913,2.76842 -4.509553,1.59761 -9.087088,3.13479 -12.505132,6.82476 0.683608,0.0604 1.299234,-0.61562 2.047049,-0.67605 2.666452,4.36603 4.989212,8.72828 7.247765,13.15475 0,1.78267 -1.299235,3.25941 -2.870402,4.24139 -1.299234,0.43434 -2.802419,0.67606 -4.169636,0.18522 -6.696346,-6.20913 -16.806958,-11.18701 -19.541394,-19.48852 -0.343693,-1.41254 -0.343693,-3.13478 0.47966,-4.3056 2.458725,-2.76465 6.148702,-4.30183 9.427003,-6.0845 8.883139,-4.61152 17.422584,-10.1446 26.237739,-15.12248 3.078128,-1.29168 7.108021,-2.82886 10.386323,-1.29168 1.98662,0.79691 3.55401,2.33786 5.128954,3.87126 -0.479659,-1.9073 -2.874178,-3.7504 -4.785262,-4.73238 -1.778893,-2.9535 -4.989211,-5.84278 -8.339272,-7.50082 l 5.67282,-1.04618 c 11.617568,9.95954 17.494338,24.90073 11.617568,38.98081" />
      <path
         id="path5554"
         style="fill:#b5bbbf;fill-opacity:1;fill-rule:nonzero;stroke:none"
         d="m 145.9244,160.70806 -0.7516,0.91778 c 1.77512,-0.0565 3.2783,-1.47297 4.78149,-2.45495 3.8977,-2.6438 7.176,-6.14871 10.11439,-9.34769 2.80242,2.1528 7.17223,2.82885 10.72624,1.72224 -3.14234,8.48657 -8.40348,16.90893 -17.42259,22.44201 -8.47524,2.94971 -17.22241,-0.73649 -25.28219,-2.33409 -1.91486,-7.87472 -5.87677,-15.12627 -12.43338,-21.21454 l -0.13959,0.43056 -0.068,-0.67605 c -2.11881,-1.90731 -4.57754,-3.50491 -6.4924,-5.10252 13.12076,3.56534 23.64305,12.5429 36.96776,15.61725" />
      <path
         id="path5558"
         style="fill:#ffffff;fill-opacity:1;fill-rule:nonzero;stroke:none"
         d="m 171.27609,148.04279 c 0.95554,-0.30592 1.8431,-0.92155 2.80242,-1.41254 0,1.10662 -0.47966,2.27366 -1.43898,3.07435 -2.73066,2.21323 -6.62459,2.02439 -9.83868,0.91778 -1.50319,-0.49099 -2.93839,-1.34834 -3.21032,-2.82508 l -0.13597,-1.96774 c 2.5947,3.75041 7.71987,3.07435 11.82153,2.21323" />
      <path
         id="path5562"
         style="fill:#000000;fill-opacity:1;fill-rule:nonzero;stroke:none"
         d="m 120.84654,174.29337 c -0.47588,-6.08827 -1.70713,-11.9877 -5.60484,-16.7843 4.92123,4.49067 6.15248,10.69603 5.60484,16.7843" />
      <path
         id="path5570"
         style="fill:#b5bbbf;fill-opacity:1;fill-rule:nonzero;stroke:none"
         d="m 45.479609,190.58556 c -2.666452,2.45873 -2.326536,6.57926 -1.095285,9.52898 0.819575,1.90731 2.326536,4.79659 5.193161,4.79659 3.142335,0.55142 5.533077,-2.1528 8.471462,-0.92155 0.06798,1.29168 -0.887558,2.27366 -2.050826,2.88929 -1.363441,0.92155 -1.295458,-1.10662 -2.251,-1.53718 0,0.61563 0.47966,1.22748 0.47966,1.96774 -2.530486,1.04241 -5.808787,1.47297 -7.379955,3.9959 -0.415452,0.73648 -0.135966,1.72224 -0.207877,2.58336 -2.186793,-1.35589 -0.275559,-3.75041 -0.683609,-5.65771 0,-3.38028 -1.503184,-6.20913 -4.237619,-8.547 -0.20395,-3.38028 -0.475883,-7.25154 -1.091509,-10.57139 l 4.853246,1.47297 z" />
      <path
         id="path5574"
         style="fill:#ffffff;fill-opacity:1;fill-rule:nonzero;stroke:none"
         d="m 53.06312,196.73617 c 0.683609,1.04241 1.846877,1.8431 3.282078,1.5976 2.730658,-0.12448 4.437792,-3.25941 7.447937,-2.27743 0.20395,1.53717 -0.07161,3.38405 1.159491,4.67573 l 1.707134,1.10661 c -1.911083,1.96774 -1.707134,4.73239 -2.11881,7.25155 1.367218,-1.8431 0.683609,-5.09874 2.802419,-7.00605 3.689977,0.12086 6.832311,-1.53718 8.886915,-4.3056 l 1.091508,-1.8431 c 1.979066,4.3056 3.414267,10.45052 0.135966,14.63149 -5.60106,6.3942 -12.981014,11.62135 -20.976594,14.14051 -1.506961,0.18521 -3.210318,0.3097 -4.169636,-0.98198 -3.418045,-3.19899 -4.717279,-7.19489 -4.985435,-11.56092 1.227474,-2.88551 4.917451,-3.56534 7.855836,-4.42269 1.775117,-0.61562 4.16586,-0.74026 6.148703,-0.24927 1.91486,0.86112 1.982844,2.70422 1.982844,4.43024 -0.275861,1.5334 -1.299235,3.01014 -2.942162,3.74663 -1.499407,0.55519 -3.278301,0.86112 -4.981658,0.55519 1.907306,0.73649 5.121401,0.49099 6.828535,-1.04618 1.71091,-1.23125 1.982843,-2.88929 1.982843,-4.73239 -0.06798,-1.47674 -1.163268,-2.88928 -2.666452,-3.56912 -1.163268,-0.42678 -2.526709,-0.49099 -3.893927,-0.30592 0.751592,-0.80069 1.367218,-1.84688 0.955542,-2.95349 -3.621994,-2.0886 -6.900295,2.27743 -10.726238,0.18884 -3.346285,-2.89306 -4.713502,-7.75008 -2.734436,-11.80642 1.095285,-1.47297 2.802419,-2.70422 4.921228,-2.33786 2.390743,1.78644 1.911084,4.73616 3.006369,7.07403" />
      <path
         id="path5578"
         style="fill:#ffffff;fill-opacity:1;fill-rule:nonzero;stroke:none"
         d="m 76.431212,193.0458 c 0.683609,2.64379 -0.751592,5.16294 -3.346284,6.63969 -1.574944,1.22747 -3.689977,1.90731 -5.87677,1.60138 -1.095285,-0.18884 -1.982844,-1.17082 -2.32276,-2.09237 -0.135966,-0.86112 -0.411676,-1.59761 -0.343692,-2.45873 1.4352,1.16705 3.486027,1.71847 5.46887,1.10662 1.363441,-0.24534 2.730659,-1.29168 3.482251,-2.58336 0.683609,-1.10662 1.027302,-2.64379 0.547642,-3.93547 1.231252,-0.12449 1.914861,0.98198 2.390743,1.72224" />
      <path
         id="path5582"
         style="fill:#ffffff;fill-opacity:1;fill-rule:nonzero;stroke:none"
         d="m 40.968153,199.13332 -1.707134,-0.8007 1.091508,-5.96363 c 0.475883,2.1528 0.407899,4.61152 0.615626,6.76433" />
      <path
         id="path5586"
         style="fill:#b5bbbf;fill-opacity:1;fill-rule:nonzero;stroke:none"
         d="m 56.888701,197.59575 c -0.683609,0.43056 -1.499408,0.0604 -2.186793,-0.12449 -1.231252,-0.79691 -1.431424,-2.02816 -1.639151,-3.19521 1.367218,0.98198 2.870402,2.02817 3.825944,3.31985" />
      <path
         id="path5590"
         style="fill:#ffffff;fill-opacity:1;fill-rule:nonzero;stroke:none"
         d="m 43.496373,202.69941 c 2.118809,3.01015 1.982843,7.19111 0.955541,10.51096 2.942162,0.86112 2.666452,4.24517 3.965687,6.3942 0.887558,1.72224 2.115033,3.31984 3.618217,4.79659 -4.917452,-0.49099 -9.494987,-1.90731 -13.460674,-4.36603 -2.186793,-2.45873 -1.023525,-6.20913 -2.254776,-9.03799 -0.679832,-3.93547 -4.849468,-7.62167 -2.318982,-11.68178 1.227474,-0.86112 3.346284,-0.86112 4.781485,-0.43056 1.979066,0.55519 3.621994,2.21323 4.713502,3.81461" />
      <path
         id="path5594"
         style="fill:#b5bbbf;fill-opacity:1;fill-rule:nonzero;stroke:none"
         d="m 67.412138,235.46807 c -1.163269,18.81246 0.479659,37.62492 8.199529,53.5481 -5.465094,6.33377 -12.573115,10.76023 -20.500712,12.48247 -5.057195,0.91778 -5.60106,-4.36603 -8.879361,-6.39797 -3.965687,-3.87127 -8.339273,-7.00605 -13.052775,-9.40434 6.424412,-0.30593 13.532434,0.24564 18.857785,-2.82886 1.231251,-1.10662 2.118809,-2.45873 1.506961,-4.18097 -1.574945,-17.15065 -3.554011,-35.10577 -1.303012,-52.44148 0.207878,-0.30593 0.207878,-0.67606 0.275559,-0.98198 5.533077,1.10661 9.702713,-2.3983 14.076299,-4.5511 -1.091508,4.79659 -1.159491,10.32589 0.819575,14.75613" />
      <path
         id="path5598"
         style="fill:#ffffff;fill-opacity:1;fill-rule:nonzero;stroke:none"
         d="m 47.18635,224.40077 c -7.447938,2.88928 -13.80059,8.11644 -20.296763,13.15852 -0.951764,0.30593 -2.254776,0.67228 -3.346284,0.0604 -1.775117,-1.04618 -1.707134,-2.88928 -1.775117,-4.61152 -0.275861,-3.68998 3.142335,-6.45463 6.284669,-8.54323 3.418045,-1.97151 7.587681,-2.03194 11.685557,-2.64379 2.526709,0.67228 5.261145,1.90353 7.447938,2.57959" />
      <path
         id="path5602"
         style="fill:#ffffff;fill-opacity:1;fill-rule:nonzero;stroke:none"
         d="m 51.49159,225.26304 -0.887559,4.17719 c -1.982843,-0.67228 -3.55401,-2.15281 -4.649295,-3.75041 l 2.598469,-1.04619 c 0.959318,0.37391 2.050826,0.0644 2.938385,0.61941" />
      <path
         id="path5606"
         style="fill:#b5bbbf;fill-opacity:1;fill-rule:nonzero;stroke:none"
         d="m 113.80726,254.03428 c 4.85324,9.64984 -6.69635,15.36798 -12.02547,22.37781 l -1.50319,1.29168 c 4.23762,1.16704 9.84246,0.80069 14.28025,0.24927 l -10.99817,12.29363 c -2.52671,1.8431 -6.628363,1.53717 -9.566748,0.67605 -6.764329,-1.72224 -13.664624,-3.25941 -19.541394,-6.82476 -0.891335,-1.96773 -1.438977,-4.05633 -1.982843,-6.08449 8.747172,-5.22715 17.83426,-10.9453 24.874298,-18.50654 l 0.615625,0.73648 c 0.200324,-5.5935 -3.010145,-10.20503 -6.156256,-14.75235 -1.979067,-2.708 -4.917452,-5.28758 -7.583904,-7.68588 5.87677,-0.61562 10.526066,-4.61153 15.375534,-8.05601 4.305598,8.30151 9.087088,16.35374 14.212268,24.28511" />
      <path
         id="path5614"
         style="fill:#ffffff;fill-opacity:1;fill-rule:nonzero;stroke:none"
         d="m 148.11083,281.02325 c 2.45872,3.13478 4.44156,7.93137 1.77889,11.61757 -0.54764,0.98576 -1.50696,1.66182 -2.4625,2.46251 1.29923,-5.65772 -0.95554,-10.76023 -5.80879,-14.44643 -1.57117,-1.10662 -3.21032,-2.03195 -4.98543,-2.52294 5.87299,2.88929 10.99817,8.66786 10.11061,15.24713 -0.27193,1.72224 -0.61185,3.31984 -2.25478,4.61152 -3.07435,2.33409 -6.83231,2.88929 -10.79422,3.13478 2.18679,-2.64379 2.66268,-6.94561 0.61563,-9.77447 -1.84688,-3.25942 -5.67282,-5.47265 -9.09087,-6.76433 3.622,1.78267 8.3355,5.28758 9.29104,9.40812 0.41545,2.88929 -0.20033,5.96364 -3.00259,7.56124 -9.70649,2.82886 -19.88509,-0.12448 -28.90797,-2.27366 -8.539446,-2.45872 -17.150651,-4.8608 -25.006488,-8.97756 -0.887558,-1.41631 -1.979066,-3.01392 -2.458726,-4.61152 7.447938,3.56912 15.64369,5.84278 24.390862,6.82476 1.846882,-0.0604 3.693752,-0.49099 4.921232,-1.96774 5.94853,-5.16295 9.56674,-13.27939 17.56232,-15.85897 8.88314,-3.56912 20.22501,-1.17082 26.10178,6.32999" />
      <path
         id="path5618"
         style="fill:#000000;fill-opacity:1;fill-rule:nonzero;stroke:none"
         d="m 136.49401,278.13321 -0.75159,-0.18522 0.75159,0.18522 z" />
      <path
         id="path5630"
         style="fill:#ffffff;fill-opacity:1;fill-rule:nonzero;stroke:none"
         d="m 51.082542,301.74148 c 3.142335,1.66181 7.447938,-0.0604 10.522289,-1.29168 5.465094,-2.21323 10.454306,-5.96364 14.348232,-10.38632 1.367218,1.0424 0,2.57958 -0.547642,3.56156 -9.566747,12.5429 -24.050946,20.8444 -39.014804,24.84031 -4.649295,0.98198 -10.726238,1.47297 -14.895874,-0.74027 -2.598469,-2.57958 -3.078129,-6.14492 -2.186793,-9.5894 1.435201,-4.18097 4.169636,-8.42237 8.815155,-10.76023 -5.400888,1.84687 -8.747172,6.88518 -9.842457,11.62135 -0.611849,3.31984 0.275559,6.39419 2.186793,8.97756 -6.216686,0.67605 -12.4333722,-0.86112 -15.71545,-5.90321 -2.7344355,-7.31953 0.8195752,-14.81656 7.176005,-19.79822 0.543865,-0.43056 1.227474,-0.92155 1.775116,-1.35211 -6.5603785,3.32362 -11.2058972,9.46855 -10.797998,16.41794 l 0.5476425,3.75041 c -3.96190992,-3.87504 -2.73065862,-10.9453 -0.5476425,-15.24712 2.8024186,-6.21291 10.050183,-11.06993 17.430137,-11.56092 13.392691,-1.04619 23.091628,8.8567 30.747291,17.46035" />
      <path
         id="path5634"
         style="fill:#000000;fill-opacity:1;fill-rule:nonzero;stroke:none"
         d="m 28.325936,297.25688 0.275861,-0.18521 -0.275861,0.18521 z" />
    </g>
  </g>
</svg>
