<?xml version="1.0" encoding="UTF-8" standalone="no"?>
<svg
   xmlns:dc="http://purl.org/dc/elements/1.1/"
   xmlns:cc="http://creativecommons.org/ns#"
   xmlns:rdf="http://www.w3.org/1999/02/22-rdf-syntax-ns#"
   xmlns:svg="http://www.w3.org/2000/svg"
   xmlns="http://www.w3.org/2000/svg"
   viewBox="0 0 366.66666 426.66666"
   height="426.66666"
   width="366.66666"
   xml:space="preserve"
   id="svg2"
   version="1.1"><metadata
     id="metadata8"><rdf:RDF><cc:Work
         rdf:about=""><dc:format>image/svg+xml</dc:format><dc:type
           rdf:resource="http://purl.org/dc/dcmitype/StillImage" /></cc:Work></rdf:RDF></metadata><defs
     id="defs6" /><g
     transform="matrix(1.3333333,0,0,-1.3333333,0,426.66667)"
     id="g10"><g
       transform="scale(0.1)"
       id="g12"><path
         id="path14"
         style="fill:#ffffff;fill-opacity:1;fill-rule:evenodd;stroke:none"
         d="m 549.961,3048.52 c 70.82,17.34 131.68,-31.49 155.269,-73.83 63.872,-114.3 57.149,-263.99 33.321,-395.63 -26.602,-146.44 -82.379,-296.6 -157.34,-425 -7.852,-13.44 -15.742,-21.76 -22.891,-34.49 -47.89,-83.28 -162.422,-217.27 -279.961,-242.23 -57.379,-12.26 -117.539,12.93 -147.621,54.38 -35.8591,49.49 -58.3161,129.76 -61.0896,200.12 -9.2578,239.45 86.0896,522.65 220.7426,709.61 35.16,48.82 69.648,88.82 108.281,124.45 46.488,42.81 89.297,67.34 151.098,82.38 z m 60.859,92.3 C 493.75,3108.67 500.23,3101.95 422.969,3042.03 364.18,2996.45 267.93,2864.8 229.301,2802.81 92.1094,2581.84 -11.0898,2274.14 18.0508,2008.52 34.7305,1856.29 110.621,1678.12 291.762,1709.8 c 138.828,24.3 265.148,163.83 327.847,248.29 173.551,234.14 296.172,597.14 262.621,882.18 -12.5,105.98 -55.98,237.39 -150.16,282.27 -28.48,13.67 -83.519,28.48 -121.25,18.05 z" /><path
         id="path16"
         style="fill:#5598cd;fill-opacity:1;fill-rule:evenodd;stroke:none"
         d="m 1640.43,2147.11 c -11.6,0 -8.13,0.47 -17.81,4.14 -7.42,-9.22 -8.13,-12.03 -17.85,-18.05 -10.63,4.65 -13.17,6.72 -18.05,17.85 15.51,-3 5.35,-1.87 17.62,-7.42 4.61,5.55 7.14,8.56 12.26,17.35 -5.58,13.9 -7.65,6.72 -7.42,20.35 12.5,-4.61 14.8,-15.04 24.06,-24.96 l 4.61,3.24 c 18.99,16.17 12.97,21.72 27.54,33.32 3.95,-8.36 2.54,-9.49 -7.38,-24.3 -7.42,-10.9 -9.26,-12.97 -17.58,-21.29 z M 1315.59,1989.3 c 13.86,-6.02 149.92,7.18 165.66,14.37 -20.86,15.94 -144.84,-1.17 -165.66,-14.37 z m 57.61,90.23 c 87.42,3.71 87,7.66 166.1,-0.23 -15.28,12.73 -67.31,29.84 -88.36,39.1 z m -287.15,225.59 c 11.33,-9.26 5.32,-33.99 25,-61.29 13.4,3.67 14.34,9.26 23.36,18.94 22.47,24.53 5.32,16.92 23.6,21.06 -5.78,-27.74 -23.6,-29.38 -32.85,-47.66 3.94,-9.92 13.2,-26.83 21.75,-33.08 24.07,12.73 22,24.76 38.64,25.7 -3.95,-12.03 -24.77,-33.32 -42.11,-35.63 -13.64,9.22 -12.03,17.35 -21.76,31.92 -10.63,16.4 -2.3,2.77 -15.04,10.62 -6.48,4.18 -7.15,8.6 -13.4,13.68 -16.21,-12.04 -20.15,-25.71 -44.22,-24.54 -5.54,11.1 -13.86,30.08 -15.27,44.65 -1.6,17.11 0.23,10.2 5.82,13.67 8.79,-15.27 1.6,-32.42 17.81,-50.23 13.87,5.55 21.49,19.22 32.39,28.48 l -7.19,32.85 c -0.24,20.12 -0.9,4.14 3.47,11.09 z m 686.72,32.38 c 8.56,7.19 9.93,14.14 12.23,25.47 5.35,24.53 -2.07,18.28 9.26,32.15 11.79,-19.18 -9.03,-54.14 -15.04,-65.94 4.18,-10.63 3.48,-9.73 11.6,-14.8 3.91,7.42 3.91,10.89 7.15,18.51 5.55,12.73 -0.47,9.49 13.91,8.79 l -16.22,-37.93 c -25.23,3.67 -18.75,18.05 -33.55,25.66 -7.19,-15.03 -3.48,-13.16 -14.34,-24.29 -18.51,2.54 -45.58,32.61 -51.83,54.14 18.98,-8.56 28.47,-37.23 48.12,-44.88 14.57,21.75 8.56,23.82 5.55,47.18 19.69,-9.92 3.01,-6.91 23.16,-24.06 z m -286.21,42.58 c -1.87,5.12 -0.7,8.79 1.6,14.57 5.32,13.44 2.54,9.73 13.68,13.67 0,-13.44 -2.11,-23.83 -15.28,-28.24 z m -53.9,-36.76 c -11.37,1.6 -9.96,2.07 -19.22,9.22 -49.49,38.2 -119.85,81.44 -174.92,111.29 -16.64,9.02 -56.22,27.77 -62.23,40.27 10.86,-0.94 87.93,-43.94 105.27,-54.37 l 64.77,-39.11 c 15.27,-8.78 80.31,-54.37 86.33,-67.53 z m 323.67,164.96 c -16.21,-16.44 -40.51,-28.01 -58.75,-43.28 -11.37,-9.26 -20.86,-12.5 -32.42,-21.29 l -90.9,-62.93 c -12.97,-9.02 -18.52,-12.5 -28.71,-21.52 -9.73,-8.79 -20.35,-17.58 -31.21,-20.82 10.86,26.83 88.12,73.36 115.66,93.94 13.44,9.96 118.91,78.91 125.62,80.98 6.26,11.8 1.18,7.38 14.15,9.96 -4.42,-10.9 -2.58,-8.12 -13.68,-15.04 z m 183.24,115.9 -4.84,22.89 c 19.41,-5.55 3.43,-17.11 23.82,-28.44 4.61,12.74 -2.53,11.57 8.33,21.99 4.37,-12.5 4.17,-20.39 -4.65,-31.48 -12.7,1.64 -3.44,0.7 -7.85,2.31 -13.4,4.64 -37.27,2.53 -44.65,25.23 z m 7.85,34.92 c -2.3,15.51 -11.56,27.07 -13.4,42.35 18.28,-7.86 22.19,-32.39 22,-51.8 -15.98,0.43 -31.96,5.55 -39.11,15.7 9.03,4.65 14.34,-4.84 30.51,-6.25 z m -114.96,-26.37 c 0.9,23.36 16.41,102.97 35.63,107.15 l -26.37,-97.42 c -5.59,-13.63 -4.42,-6.25 -9.26,-9.73 z m 142.03,-188.78 c 7.66,37.5 84.92,121.01 -2.3,245.7 -11.8,16.91 -21.99,30.31 -36.57,45.82 -9.02,9.73 -8.32,11.56 -20.11,22.89 -60.39,58.55 -64.34,51.13 -152.46,49.06 3.24,-9.26 -3.95,-1.17 6.72,-8.55 l 34.45,-19.46 c 7.42,-4.37 15.98,-9.02 21.99,-13.63 11.33,-8.08 11.8,-12.26 15.27,-19.45 -15.03,5.12 -28.71,18.51 -43.51,26.83 l -87.46,48.36 c -16.64,8.6 -25.9,18.05 -46.72,23.83 l 1.6,-33.51 c 64.81,-2.58 25.47,-88.64 14.81,-104.38 l -9.5,-13.4 29.89,-89.1 c -29.65,10.9 -18.99,71.06 -43.52,82.38 0.7,-30.54 3.71,-79.14 -8.79,-101.79 l -91.17,-127.5 c -16.17,-25.2 -29.14,-43.71 -71.25,-32.39 l -27.77,2.54 c 10.19,-15.27 12.73,-8.32 25.46,-20.58 -9.49,-6.02 -26.36,7.18 -35.62,11.79 -43.98,22.93 -37.5,-18.51 -94.41,87.93 -14.11,26.14 -29.85,52.31 -40.47,77.74 -9.5,22.46 -8.6,26.13 -6.72,47.89 0.9,11.33 3.01,47.89 -2.78,57.62 -11.13,-15.98 -18.04,-83.99 -35.85,-100.67 -1.88,3.01 -5.36,-5.08 -2.11,12.03 0.93,5.82 3,9.73 4.41,14.14 5.78,18.29 24.3,78.44 25.66,89.53 3.48,30.55 -46.01,65.47 -9.92,115.9 l 25.2,-10.86 1.64,35.39 c -17.58,-0.46 -126.56,-46.25 -146.02,-55.03 -26.13,-12.04 -114.96,-52.54 -133.71,-68.52 -0.7,-24.96 -4.88,-19.18 18.05,-41.17 10.15,-9.73 9.02,-12.74 17.58,-21.76 38.63,-40.47 71.25,-105.74 68.71,-164.49 -14.1,24.06 -13.64,81.44 -67.35,148.08 l -25.43,28.21 c -11.32,12.03 -0.46,5.35 -12.73,8.59 l -12.03,-133.51 c 42.58,-12.04 69.65,-14.34 71.05,-65.71 20.82,-16.21 35.16,-2.07 52.27,-29.84 3.24,-23.17 -0.94,-47.42 1.41,-70.82 3,-28.67 9.02,-38.63 -9.5,-57.15 -13.67,-6.25 -65.23,13.44 -73.83,33.09 -3.9,9.02 -1.6,7.42 -3.24,15.03 -4.61,20.16 0.24,8.13 -8.55,12.27 -20.82,-18.52 3.24,-46.72 -55.51,-73.09 -8.129,-8.35 8.09,-34.25 -32.379,-57.61 -27.07,-15.74 -20.859,6.68 -39.101,-40.28 -7.192,-18.04 -3.719,-19.41 5.308,-33.32 44.652,-69.88 85.352,-103.16 164.262,-133.04 24.53,-9.22 47.89,-18.95 78.9,-10.16 83.28,23.59 70.12,16.88 121.92,75.43 18.51,20.82 33.08,27.3 47.22,53.44 -10.43,9.72 -70.58,39.57 -95.58,55.31 -22.89,14.57 -24.73,14.1 -26.14,26.13 l 188.79,2.54 c 13.67,9.96 19.22,22.89 29.18,37.27 6.02,8.55 9.22,13.4 14.57,21.29 9.5,14.1 8.56,15.04 17.11,19.88 20.59,-16.45 25.24,-53.91 49.96,-70.35 20.82,-6.25 142.07,24.53 166.61,28.01 -7.66,-26.61 -38.17,-52.74 -55.32,-70.12 l -64.29,-59.92 c 9.02,-27.74 28.43,-48.6 37.69,-83.52 l 42.58,-4.37 c -18.75,-11.84 -21.99,5.54 -37.7,-5.82 -8.36,-6.02 4.61,1.4 -7.18,-5.08 -55.55,26.36 -134.18,17.11 -203.83,15.27 -105.98,-2.77 -127.97,-46.48 -177.46,-44.41 l 7.15,15.97 c -41.88,3.01 -55.28,-53.47 -188.32,17.82 -42.821,23.12 -89.302,61.29 -113.829,104.57 -7.191,12.5 -4.18,13.63 -14.57,18.75 -8.321,-24.3 8.789,-35.2 20.347,-48.83 18.051,-21.53 56.911,-53.91 81.442,-68.95 74.73,-45.82 214.26,-96.01 292.23,-69.88 41.64,13.87 79.34,22.23 128.63,22.66 67.11,0.7 31.68,-23.83 133.95,5.35 42.11,12.03 73.59,24.29 112.46,41.4 l 46.72,28.01 c 13.2,9.45 30.31,26.6 34.26,47.89 -11.8,-5.11 -1.41,3.01 -11.1,-6.72 -5.35,-5.31 -34.26,-47.42 -58.79,-51.6 4.42,11.33 46.76,48.36 59.46,65.24 9.02,12.26 17.14,21.29 25.7,34.96 83.28,132.34 69.41,210.08 82.81,231.6 12.03,-6.95 3.71,-19.45 1.64,-33.79 45.12,0.23 78.21,18.98 102.97,51.13 5.55,7.19 1.84,4.85 11.09,12.03 z" /><path
         id="path18"
         style="fill:#5598cd;fill-opacity:1;fill-rule:evenodd;stroke:none"
         d="m 1325.27,1491.88 c 18.05,-23.13 39.81,-42.11 64.34,-61.57 48.12,-38.16 97.85,-67.07 151.33,-98.79 126.76,-75.19 65.94,-34.22 173.28,-77.26 56.68,-22.66 216.56,-108.75 222.11,-147.38 -16.64,1.17 -12.27,12.03 -30.78,19.88 -37,-68.71 -30.75,-171.451 23.59,-205.201 62.97,-39.098 127.97,-69.18 208.71,-52.297 52.74,10.859 117.31,81.91 135.82,133.508 24.53,68.71 3.01,120.55 -47.65,165.67 -9.97,8.79 -7.9,10.15 -20.16,12.03 -4.84,-9.26 -9.92,-37.5 -12.93,-47.46 -5.35,-17.35 -9.73,-29.38 -16.91,-44.18 -13.4,-28.01 -31.68,-55.08 -56.22,-64.53 -14.57,-0.24 -71.25,39.53 -77.73,55.5 15.51,-3 54.38,-34.25 74.26,-43.28 43.98,26.18 73.59,102.5 79.61,169.38 4.14,46.95 3.9,21.29 -45.59,73.36 -40.74,42.77 -70.35,105.94 -83.28,163.55 -20.62,92.78 11.56,76.37 -45.82,136.76 -60.39,63.4 -189.73,129.57 -270,158.95 -25.94,9.49 -67.81,26.83 -93.48,31.01 -26.36,4.14 -87.22,0.2 -110.35,-8.36 -36.8,-13.63 -102.26,-82.34 -129.33,-117.77 -24.54,-32.15 -86.1,-117.5 -92.58,-151.06 z" /><path
         id="path20"
         style="fill:#ec3e35;fill-opacity:1;fill-rule:evenodd;stroke:none"
         d="m 742.23,2690.12 c 11.829,110.35 -1.14,288.51 -108.949,340.82 -58.082,28.2 -135.351,-0.24 -177.461,-32.62 l -62.699,-51.84 c -17.812,-14.57 -37.262,-37.73 -52.769,-58.08 -5.313,-6.72 -8.082,-7.85 -13.872,-14.81 l -36.089,-49.72 C 219.141,2725.74 143.48,2548.52 115.23,2429.38 89.8008,2321.33 96.4805,2339.14 83.0898,2236.17 66.1719,2106.37 99.2617,1931.25 192.73,1893.28 c 65.04,-26.37 136.059,3.24 177.93,34.73 87.461,65.23 99.731,89.29 165.668,173.98 9.492,12.03 14.801,22.42 22.223,35.16 75.429,130.74 111.961,204.76 152,359.53 24.289,94.18 21.75,100.66 31.679,193.2 z" /><path
         id="path22"
         style="fill:#ec3e35;fill-opacity:1;fill-rule:evenodd;stroke:none"
         d="m 294.34,2624.18 c 8.551,8.09 54.801,100.86 65.23,120.08 l 49.731,90 c 7.648,12.97 8.551,18.98 18.75,24.76 9.019,-13.67 -11.801,-189.25 -11.102,-224.41 l 153.871,8.55 c 0.43,-16.68 -45.351,-59.45 -59.261,-75.89 L 407.93,2449.02 c -15.27,-17.11 -7.891,-50.19 -12.27,-77.97 -3.711,-22.89 -5.308,-57.81 -6.48,-81.44 -1.168,-23.13 -8.789,-147.58 -15.039,-159.18 -22.661,11.8 -58.75,156.64 -75.192,186.72 -18.051,-8.56 -122.621,-142.03 -137.187,-154.77 -9.492,-8.32 -10.903,-13.2 -23.403,-15.04 -9.019,46.02 102.969,320.43 103.911,339.42 0.46,7.85 -9.969,50.9 -12.5,62.69 -4.379,22 -6.02,43.95 -7.622,68.25 22.891,5.54 45.122,6.48 71.723,6.95 z" /><path
         id="path24"
         style="fill:#ec3e35;fill-opacity:1;fill-rule:evenodd;stroke:none"
         d="m 565,2441.88 c -26.129,-83.99 -106.172,-256.61 -165.391,-317.23 -11.371,-11.56 -10.66,-14.34 -19.218,-23.6 -38.161,-40.93 -108.981,-99.25 -175.86,-84.21 -24.062,5.31 -36.761,20.11 -49.961,35.39 -46.289,53.47 -44.879,215.43 -31.449,275.58 l 9.027,54.38 c 3.204,33.75 23.59,92.77 27.262,104.1 34.262,101.56 59.031,152.93 108.289,242.46 l 46.281,68.28 c 8.559,12.7 8.79,9.69 18.75,20.59 37.7,40.93 96.489,107.58 163.09,108.75 107.852,10.86 125.899,-218.21 110.86,-266.33 0,-44.88 -18.75,-179.53 -41.68,-217.93 z" /><path
         id="path26"
         style="fill:#5598cd;fill-opacity:1;fill-rule:evenodd;stroke:none"
         d="m 126.801,2272.73 c -3.25,-27.3 -2.539,-55.74 -2.071,-83.28 3.942,-163.83 105.5,-223.04 220.5,-106.68 40.239,41.21 4.848,0 70.551,79.61 39.34,52.03 66.168,101.57 94.18,163.56 23.828,53.01 64.059,163.12 76.801,224.22 l 12.5,95.31 c 0,0.7 1.636,6.72 3.008,12.97 1.64,30.08 2.3,148.75 -29.149,203.12 -16.672,33.09 -44.41,62.46 -91.641,53.21 -46.48,-9.03 -66.832,-30.08 -95.308,-53.91 -91.832,-76.8 -185.082,-263.28 -218.633,-381.52 l -25.699,-92.54 -10.16,-62 -5.121,-52.07 z" /><path
         id="path28"
         style="fill:#272727;fill-opacity:1;fill-rule:evenodd;stroke:none"
         d="m 2130,136.762 c 13.87,-8.793 25.2,-19.461 38.4,-30.313 25.19,-20.5896 95.31,-69.1795 123.55,-80.7498 38.64,-15.73826 125.16,5.3203 164.96,24.0703 35.16,16.6407 29.61,20.1094 43.05,25.4297 -2.58,-11.8008 -4.18,-12.9297 -13.91,-18.9492 -43.47,-27.3008 -148.28,-59.01953 -195.74,-39.1016 -17.11,7.1524 -27.07,15.2735 -42.77,25.1914 -4.42,2.7813 -7.42,3.9493 -11.13,6.4922 -26.37,17.8086 -68.25,47.418 -90,67.578 -3.48,3 -6.25,5.07 -9.5,8.32 -7.61,8.079 -4.61,8.321 -7.14,12.032 z M 1170.74,1595.51 c 7.15,-14.57 18.05,-5.08 34.46,-0.43 l 74.53,24.26 c 32.85,12.03 29.61,6.01 35.39,19.68 l -144.14,-43.75 z m -56.44,-17.81 c 4.37,-2.31 -8.13,-7.62 22.18,-0.47 13.68,3.24 12.5,0 17.15,11.36 -16.21,1.14 -29.18,-0.23 -39.57,-10.66 z m 526.13,569.18 c 8.55,8.08 10.16,10.19 17.58,21.28 9.92,14.81 11.33,16.18 7.38,24.3 -14.57,-11.56 -8.32,-17.15 -27.54,-33.32 l -4.61,-3.24 c -9.26,9.96 -11.56,20.35 -24.06,25 -0.23,-13.44 1.84,-6.49 7.42,-20.39 -5.12,-8.56 -7.89,-11.56 -12.26,-17.35 -12.27,5.55 -2.35,4.42 -17.62,7.43 4.88,-10.9 7.42,-12.97 18.05,-17.82 9.96,6.02 10.66,8.79 17.85,18.05 9.68,-3.94 6.21,-4.18 17.81,-4.18 z m 132.34,190.19 c -20.15,17.11 -3.47,14.1 -23.16,24.06 3.01,-23.4 9.02,-25.47 -5.55,-47.22 -19.65,7.65 -29.37,36.32 -48.12,44.88 6.25,-21.49 33.32,-51.56 51.83,-54.14 10.86,11.13 7.15,9.26 14.34,24.3 14.57,-7.62 8.32,-22.19 33.55,-25.67 l 16.22,37.93 c -14.38,0.7 -8.36,3.95 -13.91,-8.79 -3.24,-7.62 -3.48,-11.09 -7.15,-18.51 -8.12,5.11 -7.19,4.18 -11.6,14.8 6.01,11.8 26.83,46.76 15.04,65.94 -11.33,-13.87 -3.91,-7.62 -9.26,-32.15 -2.3,-11.33 -3.67,-18.28 -12.23,-25.43 z m -661.72,-93.71 c -19.92,27.3 -13.67,52.03 -25,61.29 -4.37,-6.92 -3.71,9.02 -3.47,-11.1 l 7.19,-32.85 c -10.9,-9.02 -18.52,-22.65 -32.39,-28.43 -16.44,17.81 -9.02,34.92 -17.81,50.19 -5.59,-3.48 -7.42,3.48 -5.82,-13.67 1.41,-14.57 9.73,-33.52 15.27,-44.65 24.07,-1.13 28.01,12.5 44.22,24.53 6.02,-5.08 6.68,-9.49 13.4,-13.63 12.74,-8.13 4.41,5.55 15.04,-10.66 9.73,-14.58 8.12,-22.43 21.76,-31.92 17.34,2.31 38.16,23.59 42.11,35.63 -16.45,-0.94 -14.57,-12.97 -38.64,-25.71 -8.55,6.49 -17.81,23.4 -21.75,33.09 9.25,18.51 27.07,19.92 32.85,47.69 -18.28,-4.18 -1.13,3.44 -23.6,-21.05 -9.02,-9.73 -9.96,-15.27 -23.36,-18.99 z M 2241.72,493.75 c -8.32,-26.371 -11.1,-26.371 -6.21,-60.629 30.51,-23.121 12.69,-13.16 30.97,-43 8.56,-14.141 23.36,-30.082 34.26,-40.98 21.29,-21.52 26.6,-30.981 35.16,-39.801 l 74.96,-75.199 c 13.2,-12.032 26.6,-22.661 39.8,-35.391 20.82,-20.121 49.07,-63.629 48.13,-105.5117 -18.99,-20.1172 -31.91,-30.9688 -64.34,-42.7695 -30.54,-11.129 -52.5,-15.9805 -90.47,-21.0586 -45.54,-6.0118 -78.86,15.039 -116.36,43.25 -17.82,13.4296 -80.98,54.3708 -90.47,74.2498 -30.74,64.809 6.72,60.391 -56.92,132.352 -28.2,32.187 -23.82,28.937 -10.15,106.679 8.32,2.77 2.77,-0.941 7.62,0.469 l 7.42,3.711 c -22.93,46.25 -4.89,13.629 -21.76,65.469 -10.43,32.14 33.79,38.859 -0.24,142.262 -6.71,20.16 -18.74,47.23 -22.22,64.339 13.44,-2.781 22.93,-7.421 36.33,-9.492 18.04,-2.777 32.38,0.93 49.53,-1.609 3.9,-16.91 2.3,-26.399 4.84,-37.5 3.01,-13.629 4.42,-11.559 6.02,-14.328 25.23,2.297 46.29,6.25 66.4,17.808 6.25,56.91 0,62.231 27.07,71.25 -6.25,-37.699 -22.89,-120.082 -13.2,-157.769 3.24,-12.5 16.45,-21.762 23.83,-36.801 z m -350.51,385.941 c 28.91,-15.043 37.03,-41.211 124.49,-61.101 67.07,-15.039 169.57,-10.192 223.48,41.879 19.92,19.222 17.15,9.019 46.29,46.519 14.8,18.953 22.89,34.692 31.44,61.063 4.18,12.258 8.6,24.758 10.2,37.029 2.3,16.4 -0.23,26.6 6.95,38.87 31.68,-167.501 -65.04,-417.149 -263.75,-381.29 -62.26,11.32 -102.07,73.551 -136.05,128.16 -13.44,21.52 -38.21,63.16 -43.28,88.399 z m -858.36,47.418 c 11.1,31.442 17.58,24.532 26.37,82.811 12.73,83.99 -18.99,96.96 19.45,140.47 9.69,-8.36 6.45,-12.03 8.32,-26.87 1.6,-12.04 3.48,-17.35 3.71,-32.62 1.37,-52.74 -5.35,-145.978 -58.08,-163.791 z m 186.72,157.111 c -0.94,-12.03 -63.63,-18.52 -75.19,-4.18 28.2,3.94 43.94,0 72.85,6.72 l 11.79,8.08 z m -131.21,78.4 c 5.35,11.83 17.58,33.79 29.61,40.74 15.74,-23.13 22.46,-65 12.26,-91.88 -8.55,-22.89 -16.87,-73.55 -30.31,-88.12 -7.38,18.28 12.5,66.64 -11.8,139.49 z m 1117.97,35.9 c 19.92,-2.82 49.06,-29.18 65.47,-41.22 10.19,-7.38 10.9,-4.84 20.15,-15.74 31.68,-37.22 30.08,-58.51 27.31,-114.96 -4.42,-84.221 -58.79,-140.659 -113.83,-174.92 -63.16,-39.098 -175.16,-33.09 -244.1,-5.309 -31.49,12.688 -63.63,34.449 -78.91,64.527 -14.1,27.774 -30.31,88.872 -14.33,118.482 5.31,-31.958 2.77,-50.9 19.88,-77.079 16.91,-25.66 24.53,-29.141 50.66,-46.012 65.28,-42.109 98.13,-51.84 174.22,-51.84 99.03,0 270.7,179.771 123.79,317.661 -11.33,10.66 -23.36,13.2 -30.08,26.41 z m -1007.38,130.23 c 3.24,7.66 27.53,41.64 33.55,45.35 5.55,-10.86 8.36,-31.44 14.57,-46.05 33.55,-77.97 44.69,-62.93 24.3,-136.49 -8.79,-31.48 -23.6,-59.02 -40.94,-80.51 -12.97,-16.21 -15.98,-17.81 -39.81,-20.62 -16.17,-1.84 -38.39,-3.01 -50.66,1.17 -1.37,12.97 5.08,32.15 7.19,66.88 l 52.26,1.6 c 2.54,23.4 11.8,63.87 -2.77,80.54 -10.39,0.67 -27.54,-2.81 -35.86,-0.7 -10.16,2.54 -2.54,0.47 -7.62,5.08 12.5,6.48 34.69,3.48 47.89,6.48 1.84,26.84 -10.66,57.15 -2.3,77.27 z M 988.441,1022.42 c 9.02,3.48 4.84,-4.37 18.039,19.46 8.32,14.8 29.61,56.91 43.48,63.59 9.96,-28.44 2.77,-130.47 -29.37,-170.74 -14.11,-17.82 -32.149,-36.761 -55.078,-48.789 -18.992,-9.961 -52.742,-34.031 -72.66,-35.671 -69.614,-6.008 -106.872,7.89 -149.223,59.929 -28.668,35.192 32.391,58.082 -4.609,178.161 -54.372,176.33 -54.84,115.47 -14.61,239.45 22,67.35 69.891,152.03 106.449,211.72 18.051,29.61 66.641,108.28 86.993,123.32 6.488,-4.61 11.328,-7.42 17.808,-13.44 19.692,-17.34 36.801,-29.61 58.559,-45.31 53.901,-38.67 109.181,-70.82 166.091,-105.51 41.88,-25.47 48.6,-29.61 105.51,-30.31 -9.02,-41.87 -74.02,-130.27 -101.56,-169.14 l -108.52,-159.88 c -20.12,-30.08 -57.381,-71.25 -67.541,-116.6 z m 336.639,469.46 c 6.21,33.55 68.01,118.9 92.54,151.09 27.07,35.39 92.54,104.1 129.33,117.73 23.36,8.6 83.99,12.5 110.35,8.36 25.67,-4.18 67.78,-21.52 93.48,-31.01 80.27,-29.14 209.61,-95.32 270,-158.95 57.38,-60.15 25.24,-43.94 45.82,-136.76 12.74,-57.57 42.58,-120.74 83.28,-163.55 49.53,-52.07 49.73,-26.6 45.59,-73.36 -6.02,-66.88 -35.63,-143.2 -79.61,-169.34 -19.88,9.26 -58.75,40.24 -74.26,43.25 6.49,-15.94 63.4,-55.75 77.74,-55.51 24.53,9.49 42.81,36.56 56.21,64.53 6.95,14.8 11.6,26.84 16.91,44.18 3.01,9.73 8.09,38.2 12.97,47.46 12.03,-1.88 10.16,-3.24 20.12,-12.03 50.66,-45.12 72.18,-96.95 47.65,-165.67 -18.51,-51.601 -82.81,-122.609 -135.82,-133.511 -80.74,-16.641 -145.74,13.199 -208.67,52.301 -54.37,33.789 -60.62,136.49 -23.63,205.24 18.51,-7.89 14.14,-18.75 30.78,-19.92 -5.31,38.63 -165.43,124.72 -222.11,147.38 -107.11,43.05 -46.25,2.07 -173.28,77.26 -53.2,31.49 -103.2,60.63 -151.33,98.83 -24.3,19.18 -46.02,38.17 -64.3,61.53 z m -311.21,295.66 32.38,-16.64 c 0.94,-15.98 -3.01,-15.51 2.34,-31.25 l 12.23,-3.44 c 10.43,10.39 8.13,10.39 10.66,24.73 l 45.36,-11.56 c -0.71,-12.74 -7.66,-33.09 -9.96,-53.21 -30.08,0 -77.74,18.75 -99.5,32.38 l 6.25,58.99 z m 43.51,-41.41 c -0.47,0.71 -1.4,1.64 -1.64,2.11 -0.23,0.43 -1.13,1.6 -1.36,2.31 -1.65,5.54 -0.94,25.66 10.15,36.56 7.19,-8.56 -1.37,-31.49 -7.15,-40.98 z m 167.03,-22.42 c 59.22,-1.87 115.9,4.84 168.91,18.75 22.89,6.02 27.77,13.87 38.4,53.91 8.79,32.38 -6.49,32.85 49.96,44.41 -2.3,-16.91 -2.77,-33.79 -5.31,-49.3 -5.55,-34.21 -6.72,-21.52 3.01,-39.57 -106.18,-66.4 -310.04,-111.71 -330.16,-124.21 5.78,-3.72 -7.85,-3.72 11.09,-3.48 13.21,0.23 125.2,33.79 134.69,37.03 47.66,16.17 90.9,36.09 133.48,50.66 -6.49,-16.68 -84.46,-66.87 -90.94,-86.99 17.62,1.84 83.98,61.99 100.19,76.33 l 60.39,57.62 c 4.38,4.65 24.54,24.29 29.85,27.54 0,0 108.05,38.86 127.5,-8.56 -123.09,10.39 -141.13,-11.8 -215.43,-93.01 -62.23,-68.28 -80.51,-99.96 -123.56,-180.93 -17.1,-32.15 -78.43,-29.85 -116.83,-16.21 -38.63,13.67 -255.431,156.87 -276.252,183.24 3.481,14.8 18.512,28.71 31.012,56.25 0.469,0.9 3.949,8.55 4.141,9.26 2.82,4.84 2.347,3.2 5.359,6.21 37.22,-24.07 99.92,-58.52 150.15,-56.92 34.22,44.22 25.2,90.24 46.49,123.09 27.77,-6.45 54.14,0 80.07,-9.26 l -16.91,-75.39 z m -207.77,75.86 c 1.41,16.21 6.48,28.01 11.56,39.34 18.28,-3.68 36.1,-11.1 55.55,-16.18 20.82,-5.31 37.93,-8.32 58.75,-13.2 l -22.42,-50.9 c -9.49,0.47 -27.31,4.89 -34.73,8.09 -17.11,7.42 -4.14,6.95 -9.49,26.4 l -15.04,4.85 -15.04,-17.81 -29.37,19.64 z m 561.52,6.72 c 3.48,13.44 6.49,12.73 15.75,25 4.84,-3.01 7.42,2.3 10.86,-21.06 z m -315.11,-72.42 c 0,8.79 7.89,33.32 9.96,46.75 4.61,28.44 4.61,22.9 31.21,24.54 25.23,1.36 81.01,16.17 98.59,14.57 -1.4,-12.97 -10.43,-43.52 -15.74,-56.45 -4.65,-11.37 -1.17,-6.48 -9.49,-12.5 -13.2,-8.79 -96.96,-19.69 -114.53,-16.68 z m -298.671,63.86 c -6.488,10.67 0.191,25.71 6.672,33.79 1.648,-13.2 -0.231,-25.47 -6.672,-33.79 z m 572.381,2.31 c -28.24,-8.56 -21.06,-19.88 -45.12,-26.37 l 8.79,37.74 21.76,5.78 c 10.86,-11.6 0.47,-17.62 20.35,-5.78 -5.55,14.57 -2.77,-1.64 -9.49,15.23 18.28,1.41 18.28,7.42 34.72,14.61 -5.54,-32.42 -4.18,-32.85 -31.01,-40.98 z m -543.24,-61.76 c -20.59,4.18 -34.032,22.89 -43.989,36.33 -7.152,9.73 -10.621,14.57 -10.859,28.91 -0.231,31.48 6.25,27.3 7.418,28.71 25.898,-15.04 -14.141,-34.03 21.488,-44.69 11.133,9.26 5.121,5.12 11.133,19.45 l 14.098,-6.72 c 0.711,-25.43 -4.18,-31.68 0.472,-61.75 z m -22.231,102.5 c -21.949,-0.23 3.012,-4.18 -14.809,-4.41 -3.71,0 -7.609,1.17 -9.718,7.42 -2.543,7.62 4.648,21.52 7.648,28.44 l 59.93,-25.43 c -2.54,-11.33 -12.27,-30.55 -21.762,-36.57 -24.769,14.57 0.703,15.28 -21.527,31.02 z m 615.231,0.9 c -9.49,17.38 -0.93,17.62 0,19.22 2.31,-1.37 18.71,-0.7 0,-19.22 z m -89.57,8.36 c 11.14,7.62 23.83,11.8 35.63,18.05 l 26.87,15.93 c 13.64,3.95 1.14,0.94 6.68,-1.13 7.89,-26.17 -4.14,-25.94 -13.86,-42.34 l -23.13,5.78 c -5.78,-15.98 -3.94,-24.77 -30.08,-22.89 l -2.11,26.83 z m 106.21,26.13 c -13.43,4.18 -6.71,-1.4 -7.61,7.85 8.79,-2.77 2.77,2.58 7.61,-7.85 z m -28.67,22.46 c 19.42,8.79 17.81,24.96 31.45,28.44 l 0.94,-22.42 c -9.97,-8.6 -11.14,-2.81 -16.45,-11.6 -6.02,-9.69 1.87,-6.45 -7.85,-15.94 l -7.89,21.52 z m -417.61,-78.2 c -7.43,13.87 -15.04,67.77 -17.15,86.99 -2.54,22.89 -12.93,73.79 -7.15,95.31 18.71,-6.48 110.58,-21.99 113.59,-23.82 l -74.06,-28.95 c -7.62,-4.14 -4.14,-2.54 -9.02,-8.79 37.96,2.11 103.9,41.68 111.99,33.79 11.09,-20.35 -0.7,-138.83 -7.62,-162.89 -23.59,-1.84 -91.64,2.11 -110.39,8.36 z m 132.77,158.24 c 23.16,3.95 60.62,-0.47 87.93,2.07 17.11,1.64 67.58,9.26 78.67,7.66 -4.41,-30.78 -60.63,-141.13 -77.5,-163.13 l -97.42,-11.79 c -4.85,12.97 5.55,58.51 6.72,76.32 2.3,29.42 -3.01,59.97 1.6,89.11 z m 25.94,10.86 c 20.82,13.2 145.03,30.31 165.66,14.38 -15.74,-7.19 -151.8,-20.16 -165.66,-14.38 z m 198.51,10.67 9.02,3.24 c 0.43,1.36 1.84,1.13 2.54,1.83 25.43,1.18 67.54,17.82 91.37,24.53 -4.37,-14.33 -2.77,-8.78 -12.93,-18.75 -13.44,-13.16 -8.79,-15.5 -25.94,-27.77 -25.89,-18.71 -0.89,7.19 -29.14,-24.49 -33.79,-37.97 -46.95,-96.06 -72.42,-106.45 -18.05,-7.42 -63.4,-21.75 -81.44,-23.82 3.47,12.5 15.27,30.07 21.05,41.17 63.17,122.19 32.15,124.72 97.42,130.51 z m -274.65,38.39 c 4.42,11.1 3.71,10.86 18.52,14.57 30.31,7.86 22.89,0.71 25,-0.93 l -43.52,-13.87 z m -96.01,-217.73 c -30.32,3.01 -83.75,12.97 -107.82,28.24 l -40.499,216.1 c 16.909,-6.49 41.209,-23.13 58.789,-32.62 19.41,-10.67 43.71,-16.68 61.75,-27.31 7.19,-21.75 6.96,-68 11.8,-96.01 l 15.74,-88.17 z m -289.46,238.09 c -3.242,11.09 1.641,11.56 8.129,15.97 l 8.321,-30.78 c -9.258,5.08 -5.551,1.17 -12.27,7.85 -0.699,0.71 -4.18,6.72 -4.41,6.96 z m 725.12,-97.39 c -3.24,13.4 -1.6,9.03 25.67,35.16 15.74,15.27 16.91,22.66 28.24,36.09 4.65,5.55 80.74,41.41 84.69,41.64 -12.5,-26.83 -28.95,-64.33 -47.66,-82.15 -8.13,-7.61 -50.66,-31.91 -61.8,-35.39 -4.84,-1.6 -9.49,-2.07 -13.4,-3.94 -8.55,-3.67 -5.78,-3.44 -9.02,-6.21 l 11.33,-7.19 c -18.52,-22.69 1.17,-10.43 -38.87,-43.05 -13.67,-11.09 -32.85,-21.95 -52.07,-29.14 5.31,16.21 22.7,42.58 31.49,57.15 9.02,14.81 20.58,42.11 41.64,37.03 z m -128.4,157.07 c 21.06,-9.25 73.09,-26.36 88.36,-39.1 -79.1,7.66 -78.67,3.95 -166.09,0.24 z M 943.52,1957.85 c -9.461,6.95 -15,13.17 -22.43,20.82 -8.551,9.03 -32.379,38.63 -35.86,49.49 -3.71,11.8 -17.57,61.1 -15.031,69.89 3.473,11.79 21.281,47.89 29.602,56.01 10.429,-6.72 14.34,-15.74 26.371,-27.3 l 55.547,-51.6 41.171,-222.82 c -10.39,2.78 -54.37,22.43 -59.921,28.25 -2.071,2.07 -21.989,64.76 -22.66,68.24 11.101,-5.08 13.871,-10.67 27.972,-13.67 -5.551,13.67 -12.73,14.14 -24.531,22.69 z m 751.48,49.49 c 6.25,15.04 20.16,34.73 27.77,53.68 24.53,59.96 7.89,18.28 29.61,43.98 4.18,-28.24 -21.05,-90.23 -57.61,-97.66 z m -419.45,230.71 c 194.33,0 124.72,-12.03 185.54,66.17 4.89,6.21 3.48,4.14 7.43,7.15 8.55,-8.56 14.33,-23.13 20.35,-34.03 8.32,-15.46 12.26,-19.88 21.52,-30.97 51.37,-3.71 113.36,16.17 156.88,26.6 -3.01,-22.7 -88.64,-92.31 -108.99,-115.9 0.94,-28.71 32.85,-57.62 32.85,-85.86 -27.54,5.08 -84.68,33.79 -120.78,48.59 -36.33,14.81 -50.43,-9.02 -115.19,-38.16 -39.11,-17.62 -49.3,-11.6 -89.57,-19.69 3.94,15.75 69.41,66.41 87.93,102.27 -15.04,19.69 -107.58,54.37 -116.84,74.26 l 39.1,-0.67 z m -331.8,20.35 c 0,10.62 19.691,65.47 24.77,73.08 35.62,-34.45 -0.711,-75.86 -24.77,-73.08 z m 127.73,130.94 c 5.79,-13.17 4.38,-28.21 12.74,-36.8 1.83,-1.84 22.66,-16.88 24.53,-17.81 -22.93,1.4 -56.25,33.08 -37.27,54.37 z m -75.191,-66.88 c -16.449,18.75 -23.59,27.54 -15.508,53.95 6.489,20.58 8.789,46.01 18.989,63.59 48.35,-8.32 42.81,-106.41 -3.481,-117.54 z m 138.831,18.28 c -13.91,-3.44 -27.78,3.01 -38.21,10.43 -13.16,9.03 -12.22,18.05 -15.03,34.92 -6.02,38.44 6.24,44.46 10.89,81.92 19.18,-4.85 30.08,-4.18 41.64,-17.58 0.71,-19.88 3.95,-102.03 0.71,-109.45 z m -135.35,113.64 c 12.5,4.84 23.59,-3.95 25.89,-17.15 l -21.28,10.89 c -6.72,5.08 -0.71,-1.17 -4.61,6.49 z m 19.18,81.21 c 88.86,1.13 72.18,-111.29 31.01,-142.07 -15.51,26.6 3.48,50.89 -46.95,71.48 l 15.7,70.59 z m 308.9,39.29 c -3.94,12.27 -11.13,23.17 -12.73,36.8 -1.41,12.03 2.07,32.19 2.54,46.76 11.79,-5.78 21.99,-24.77 25.66,-35.86 -2.07,-7.89 -5.78,-16.45 -7.38,-24.77 -5.08,-25.47 3.01,-10.9 -8.09,-22.93 z m -717.26,566.17 c 37.73,10.43 92.769,-4.37 121.25,-18.04 94.18,-44.89 137.648,-176.53 150.148,-282.27 C 915.551,2555.7 792.93,2192.7 619.379,1958.55 556.68,1873.87 430.352,1734.57 291.52,1710.27 110.16,1678.59 34.2617,1856.72 17.8516,2008.98 c -28.9414,265.59 74.0273,573.09 211.2074,794.26 38.402,62.03 134.652,193.67 193.671,239.26 77.27,59.69 70.79,66.64 187.86,98.79 z m 676.75,-369.96 c 12.04,-9.96 22.89,-28.9 19.46,-50.66 -8.6,7.62 -20.82,37.27 -19.46,50.66 z m -4.37,22.93 c 2.77,12.93 0.9,10.63 10.39,17.58 14.57,-7.42 23.36,-30.31 14.34,-50.47 z m 35.39,121.92 c -19.69,42.58 -46.76,59.45 10.16,110.58 0.46,-16.4 -4.14,-13.16 -7.86,-28.67 0.71,-0.23 1.61,-0.94 1.84,-0.94 l 3.48,-1.6 c 0.23,-0.23 1.64,-0.7 2.54,-1.17 -6.45,-18.28 -27.5,-36.09 -13.64,-63.87 10.86,-21.95 5.32,-11.09 3.48,-14.33 z m -759.809,223.28 c 8.09,9.02 4.379,6.68 19.418,13.16 96.48,41.88 212.621,63.4 298.242,-10.15 20.117,-17.39 50.898,-47.23 63.629,-68.71 l 25.898,-49.07 c 23.832,-47.42 36.802,-101.09 46.962,-156.64 25.7,-139.53 -0.2,-330.39 -37.47,-463.43 -25.46,-90.71 -70.582,-216.33 -114.289,-297.54 -86.761,-161.72 -169.812,-287.58 -324.382,-398.4 -34.02,-24.53 -92.539,-58.09 -136.289,-71.96 -184.141,-58.32 -299.141,41.18 -354.2192,204.07 -7.1406,21.05 -2.3008,13.16 -1.1289,15.74 25.6679,-45.82 21.0586,-57.38 71.2501,-107.15 10.387,-10.16 39.566,-28.44 55.078,-34.92 132.109,-56.92 277.621,42.34 366.02,129.57 26.832,26.37 26.832,30.78 42.57,46.95 127.699,131.88 248.012,413.01 288.711,590.47 39.808,174.22 56.019,442.81 -54.332,584.88 -17.848,22.89 -25.699,27.31 -44.918,44.65 -31.449,28.48 -89.071,43.75 -134.18,43.05 -32.851,-0.47 -48.832,-10.43 -76.801,-14.57 z m 1428.679,-1016.64 6.25,0.94 -58.32,42.57 c -12.04,9.03 -42.78,34.69 -58.05,38.17 7.15,-17.58 8.79,-5.55 18.94,-23.36 -16.4,4.37 -62.69,49.72 -73.55,62.46 2.77,10.86 8.79,24.96 14.57,35.62 6.48,-3 1.17,0.94 6.48,-4.18 9.26,-8.55 2.54,-10.85 17.11,-12.69 -4.37,12.69 -4.14,2.07 -9.25,16.87 19.21,10.63 136.52,13.64 161.95,142.97 l -3.44,7.43 -6.95,-15.98 c -28.01,-76.56 -71.49,-112.89 -161.72,-122.15 l 19.65,78.44 c 28.24,3.24 51.6,8.79 71.95,20.82 12.97,7.61 39.57,33.55 43.52,48.12 l -1.88,5.08 c -9.45,-7.15 -5.54,-4.84 -11.09,-12.03 -25,-32.15 -57.85,-50.9 -102.97,-51.13 2.11,14.33 10.43,26.83 -1.6,33.79 -13.44,-21.29 0.47,-99.26 -82.85,-231.61 -8.56,-13.63 -16.64,-22.65 -25.67,-34.92 -12.73,-17.15 -55.08,-53.9 -59.45,-65.27 24.53,4.18 53.44,46.29 58.75,51.6 9.49,9.73 -0.7,1.64 11.13,6.72 -3.94,-21.06 -21.05,-38.4 -34.26,-47.89 l -46.75,-28.01 c -38.87,-17.11 -70.32,-29.37 -112.43,-41.41 -102.26,-29.14 -66.87,-4.64 -133.98,-5.31 -49.26,-0.47 -86.99,-8.79 -128.63,-22.69 -77.97,-26.14 -217.46,24.06 -292.19,69.88 -24.531,15.04 -63.398,47.42 -81.449,68.95 -11.563,13.86 -28.711,24.53 -20.391,48.82 10.43,-5.08 7.43,-6.01 14.61,-18.75 24.5,-43.28 71.019,-81.44 113.83,-104.57 132.81,-71.48 146.21,-15.04 188.32,-17.81 l -7.19,-15.98 c 49.54,-2.07 71.53,41.64 177.47,44.42 69.64,1.87 148.32,11.13 203.86,-15.28 11.8,6.49 -1.17,-0.89 7.15,5.12 15.74,11.1 18.99,-6.01 37.74,5.78 l -42.58,4.38 c -9.26,34.96 -28.71,55.78 -37.74,83.55 l 64.34,59.92 c 17.11,17.35 47.65,43.48 55.27,70.08 -24.72,-3.47 -145.74,-34.22 -166.56,-27.97 -24.77,16.41 -29.61,53.91 -49.96,70.32 -8.6,-4.85 -7.66,-5.79 -17.15,-19.89 -5.31,-7.89 -8.55,-12.73 -14.57,-21.29 -9.96,-14.33 -15.51,-27.3 -29.14,-37.26 l -188.79,-2.54 c 1.37,-12.03 3.24,-11.33 26.13,-26.13 24.77,-15.75 84.92,-45.59 95.55,-55.32 -14.1,-26.13 -28.91,-32.61 -47.19,-53.43 -51.6,-58.56 -38.63,-51.84 -121.95,-75.43 -30.74,-8.79 -54.34,0.93 -78.87,10.19 -78.9,30.08 -119.412,63.4 -164.291,133.01 -8.789,13.91 -12.269,15.04 -5.32,33.32 18.281,46.99 12.031,24.53 39.101,40.27 40.28,23.36 24.301,49.3 32.391,57.62 58.789,26.37 34.719,54.61 55.539,73.09 9.03,-4.38 3.95,7.65 8.56,-12.23 1.83,-7.66 -0.47,-6.01 3.24,-15.04 8.56,-19.69 60.16,-39.33 73.79,-33.08 18.52,18.47 12.27,28.43 9.49,57.14 -2.3,23.36 1.64,47.66 -1.36,70.79 -17.15,27.77 -31.49,13.63 -52.31,29.84 -1.6,51.6 -28.67,53.91 -71.02,65.7 l 12.04,133.52 c 12.26,-3.24 1.36,3.47 12.69,-8.56 l 25.47,-28.24 c 53.67,-66.64 52.97,-123.79 67.34,-148.08 2.54,58.78 -30.07,123.78 -68.75,164.53 -8.55,9.02 -7.38,11.79 -17.57,21.71 -22.89,22 -18.72,16.45 -18.05,41.22 18.75,15.93 107.62,56.68 133.75,68.47 19.18,8.79 128.4,54.61 145.98,55.04 l -1.61,-35.39 -25.23,10.9 c -36.33,-50.47 13.2,-85.39 9.96,-115.94 -1.17,-11.09 -19.92,-71.25 -25.7,-89.53 -1.37,-4.41 -3.44,-8.32 -4.38,-14.1 -3.01,-17.38 0.24,-9.02 2.07,-12.03 17.82,16.64 24.77,84.69 35.86,100.62 6.02,-9.92 3.71,-46.25 2.78,-57.61 -1.84,-21.72 -2.78,-25.43 6.71,-47.89 10.67,-25.43 26.37,-51.61 40.51,-77.74 56.92,-106.41 50.43,-65.23 94.38,-87.93 9.25,-4.84 26.36,-17.81 35.62,-11.8 -12.93,12.27 -15.27,5.59 -25.43,20.63 l 27.78,-2.58 v 6.95 c -15.75,1.84 -68.99,3.95 -75.2,6.25 -12.73,4.85 -71.29,105.51 -70.59,121.68 0.47,11.84 4.65,40.04 9.97,49.54 9.72,-7.62 3.9,-8.79 16.64,-12.04 -2.07,13.44 -8.09,14.34 -8.79,18.05 -0.24,1.41 -0.94,1.6 -1.37,2.54 3.24,3.71 1.37,4.65 3.91,9.02 l -1.84,2.07 c -13.44,1.64 -5.55,-3.9 -14.57,8.13 -3.71,5.08 -4.88,7.85 -8.55,12.93 -4.89,7.19 -11.37,15.74 -15.28,24.06 -11.8,25 5.78,188.36 9.26,219.14 8.09,72.15 5.55,82.11 58.75,100.63 33.55,11.56 111.05,18.75 148.55,8.32 9.93,-2.07 16.88,-7.85 16.88,6.25 -45.12,11.09 -198.05,15.5 -221.64,-43.25 -2.78,-6.71 -2.54,-9.25 -4.42,-17.14 l -6.71,-15.94 c -8.79,33.75 10.89,34.45 15.97,61.29 2.78,14.8 -3.01,61.09 -3.47,80.08 -17.11,-5.36 -9.26,-2.11 -17.58,-21.06 -7.15,-15.74 -36.1,-74.76 -35.16,-84.02 18.52,-36.99 36.56,-55.74 34.02,-108.48 -71.05,-32.85 -144.6,-53.71 -213.78,-89.8 -12.97,-6.92 -58.09,-31.68 -67.11,-31.45 -8.32,87.23 -8.79,151.76 -36.332,236.21 -47.418,145.31 -154.098,243.63 -316.949,222.11 -93.949,-12.46 -162.188,-61.29 -229.07,-113.83 -27.297,-21.52 -86.989,-72.18 -105.039,-98.79 l -31.25,-36.79 C 140.699,2742.19 1.17188,2383.55 0.0390625,2103.12 -0.660156,1958.55 16.6797,1783.16 122.66,1679.73 c 5.539,-5.55 9.25,-12.03 15.27,-16.88 151.05,-128.16 369.492,-3.71 465.742,82.38 47.187,42.11 122.617,120.51 161.25,178.6 25,37.5 53.199,76.13 73.359,116.13 l 8.09,10.66 c 4.609,-3.24 2.539,-0.93 6.481,-5.07 25.898,-26.41 50.668,-56.68 69.179,-88.4 39.77,-68.71 26.129,-61.76 10.16,-122.38 -24.3,-91.88 57.149,-46.76 -3.48,-132.35 -9.922,-14.1 -18.242,-29.61 -28.91,-42.81 -63.629,-79.14 -124.68,-181.41 -165.422,-274.18 -16.649,-37.93 -25.899,-66.64 -39.809,-106.88 -27.3,-79.6 26.168,-141.6 43.75,-230.66 10.391,-53.242 -14.34,-80.742 -15.039,-125.429 12.93,-23.59 65.239,-75.859 98.789,-80.742 18.051,-2.77 70.551,-3.239 87.93,0 12.5,2.301 99.69,54.371 116.84,65.043 89.76,56.207 67.07,99.258 105.74,168.668 17.11,-12.03 45.31,-15.27 74.72,-9.02 47.66,9.92 96.49,134.18 86.06,180.89 -3.01,13.68 -18.75,47.23 -25.43,60.86 -38.2,76.61 -32.42,66.88 -2.11,132.11 15.51,33.56 16.21,27.78 49.3,41.88 14.8,-9.03 18.98,-17.81 31.01,-28.01 52.03,-43.94 106.64,-85.35 166.57,-119.61 12.03,-6.91 23.12,-14.8 35.39,-21.76 91.64,-51.79 115.23,-49.25 206.64,-86.99 40.47,-16.64 108.04,-59.22 142.26,-89.3 -36.99,-108.51 -72.19,-112.89 -20.11,-253.55 24.76,-67.11 82.14,-161.52 127.46,-197.621 28.47,-22.649 17.61,-8.321 31.71,-46.719 63.87,-175.86 -3.94,-139.059 19.22,-191.559 20.12,-45.351 -6.72,-91.871 -7.65,-139.531 -0.94,-49.73 56.68,-56.449 59.45,-107.34 1.17,-22 5.55,-44.648 12.5,-65.238 10.86,-33.082 62.46,-56.0118 88.63,-75.6603 62.46,-46.2929 93.68,-71.5312 174.89,-51.37107 43.28,10.85937 89.8,23.12887 117.53,47.66017 27.54,24.289 -4.37,99.0192 -19.88,122.6092 -14.57,22.231 -131.17,128.399 -164.72,164.07 -6.96,7.379 -9.73,14.102 -17.15,22.418 -43.71,49.532 -24.07,49.961 -54.34,70.122 0.2,10.39 -0.7,27.531 1.13,36.562 2.54,13.156 9.73,16.168 3.95,29.84 -5.78,13.398 -11.8,9.918 -17.81,21.719 -15.75,31.25 -0.24,74.3 3.24,105.738 2.77,25 4.37,46.293 5.78,73.601 67.77,43 109.65,187.149 110.82,270.469 0.7,54.601 -9.49,116.131 -35.86,152.921 -19.92,27.78 -71.48,66.65 -110.35,82.35 9.22,46.29 -21.05,43.75 -65.98,99.02 -25.19,31.25 -43.47,72.19 -55.5,115.71 -41.18,149.21 21.28,109.21 -125.63,217.92 -65.94,48.83 -148.09,87.93 -228.83,114.54 -19.69,6.48 -47.42,11.36 -60.62,25.23 -28.21,29.84 -44.65,24.06 -52.5,33.09 -2.35,2.54 -13.44,27.77 -13.67,28.67 -0.47,5.35 8.08,24.3 9.96,31.95 8.55,35.16 3.24,38.4 1.13,70.08 19.92,15.98 51.37,31.02 75.66,45.59 12.97,7.65 22.93,16.91 35.63,25.23 41.21,27.07 36.09,91.37 46.76,134.88 2.07,8.56 36.79,67.35 44.41,80.98 26.37,-11.8 51.13,-52.97 78.44,-60.16 24.06,-6.25 26.83,-5.54 46.95,-20.82 14.38,-10.86 28.01,-21.29 46.06,-28.24 z" /><path
         id="path30"
         style="fill:#5598cd;fill-opacity:1;fill-rule:evenodd;stroke:none"
         d="m 988.629,1022.42 c 10.199,45.35 47.461,86.76 67.581,116.6 l 108.52,159.89 c 27.54,38.86 92.54,127.26 101.56,169.14 -56.91,0.7 -63.63,4.84 -105.51,30.31 -57.15,34.69 -112.19,66.84 -166.132,105.51 -21.718,15.47 -39.097,27.73 -58.519,45.35 -6.481,5.78 -11.328,8.79 -17.809,13.4 -20.351,-15.04 -68.941,-93.71 -86.992,-123.32 -36.558,-59.92 -84.449,-144.38 -106.449,-211.68 -40.469,-124.03 -39.758,-63.17 14.57,-239.5 37.031,-120.069 -23.828,-142.96 4.653,-178.12 42.347,-52.07 79.57,-65.98 149.218,-59.961 19.918,1.641 53.668,25.699 72.66,35.66 22.891,12.27 40.93,31.211 55.07,48.789 32.15,40.512 39.57,142.312 29.38,170.782 -13.87,-6.72 -35.16,-48.82 -43.52,-63.63 -13.16,-23.59 -9.019,-15.98 -18.039,-19.45 z" /><path
         id="path32"
         style="fill:#ec3e35;fill-opacity:1;fill-rule:evenodd;stroke:none"
         d="m 558.789,3138.98 c 27.731,4.14 43.941,14.11 76.801,14.57 45.109,0.71 102.961,-14.57 134.18,-43.04 18.98,-17.35 27.07,-21.76 44.878,-44.65 110.391,-142.07 94.18,-410.66 54.372,-584.88 -40.7,-177.46 -161.008,-458.6 -288.75,-590.47 -15.7,-16.17 -15.7,-20.59 -42.54,-46.96 -88.39,-87.22 -233.941,-186.48 -366.05,-129.57 -15.469,6.72 -44.649,24.77 -55.039,34.93 -50.2308,49.53 -45.5902,61.32 -71.2894,107.14 -1.1328,-2.53 -5.7813,5.32 1.1679,-15.74 55.0825,-162.89 170.2815,-262.38 354.2185,-204.06 43.75,13.87 102.274,47.42 136.293,71.95 154.297,110.82 237.379,236.68 324.379,398.4 43.711,81.21 88.82,206.84 114.289,297.54 37.231,133.05 63.171,323.91 37.461,463.44 -10.15,55.54 -23.359,109.45 -46.949,156.64 l -25.902,49.06 c -12.731,21.49 -43.75,51.37 -63.629,68.71 -85.629,73.56 -201.758,52.03 -298.239,10.16 -14.812,-6.45 -11.332,-4.14 -19.461,-13.17 z" /><path
         id="path34"
         style="fill:#ec3e35;fill-opacity:1;fill-rule:evenodd;stroke:none"
         d="m 2184.8,335.98 c 6.72,1.829 61.1,11.09 67.11,10.622 22,-2.071 56.21,-67.114 70.12,-83.512 33.56,-39.34 37.7,-44.418 4.61,-46.531 -37.93,-2.539 -51.37,-7.379 -71.48,-8.789 -9.73,16.449 -69.42,116.839 -70.36,128.21 z m 21.76,862.54 c 6.72,-13.21 18.75,-15.75 30.08,-26.41 146.68,-138.13 -24.76,-317.661 -123.79,-317.661 -75.86,0 -108.94,9.961 -174.22,51.84 -26.13,16.641 -33.55,20.352 -50.66,46.012 -17.35,26.179 -14.57,45.121 -19.88,77.079 -15.75,-29.61 0.46,-90.708 14.33,-118.482 15.28,-30.078 47.42,-52.027 78.91,-64.527 68.94,-27.781 180.94,-33.789 244.1,5.309 55.04,34.261 109.41,90.941 113.83,174.92 3.01,56.45 4.37,77.74 -27.31,114.96 -9.25,10.9 -9.72,8.36 -20.15,15.74 -16.41,12.04 -45.32,38.4 -65.47,41.22 z M 1891.45,879.922 c 5.31,-25.231 29.84,-66.871 43.28,-88.402 33.98,-54.84 73.79,-117.071 136.01,-128.161 198.99,-36.089 295.71,213.75 263.79,381.291 -7.19,-12.27 -4.41,-22.46 -6.95,-38.87 -1.84,-12.499 -6.25,-24.76 -10.2,-37.03 -8.79,-26.371 -16.64,-42.109 -31.44,-61.09 -29.18,-37.699 -26.6,-27.539 -46.29,-46.488 -53.91,-52.07 -156.64,-57.152 -223.48,-41.871 -87.46,19.879 -95.58,46.008 -124.49,61.051 z m 243.16,-387.34 c 99.26,5.117 52.07,23.629 67.34,-55.742 l 40.94,-21.531 c -9.96,-6.477 -19.41,7.191 -35.62,5.55 4.18,-19.879 16.21,-12.699 15.74,-33.32 -77.74,-4.379 -52.31,-25.66 -80.55,18.512 -2.3,3.48 -3.01,3.719 -4.84,5.789 -23.6,-16.18 -18.05,-23.36 -34.69,-24.07 3.24,16.21 21.48,22.46 30.74,34.96 l 0.94,70.079 z m 1.64,14.367 c -3.01,13.641 -6.72,67.539 5.31,73.09 0.24,0 59.22,16.68 61.06,16.68 l -0.67,-77.739 c -17.57,-13.429 -42.81,-15.5 -65.93,-12.031 z m 105.47,-12.969 c -7.38,15.04 -20.59,24.301 -23.83,36.801 -9.69,37.699 6.95,120.078 13.2,157.77 -27.07,-9.02 -20.82,-14.332 -27.07,-71.25 -20.11,-11.563 -41.4,-15.5 -66.4,-17.813 -1.6,2.782 -3.01,0.711 -6.02,14.344 -2.54,11.09 -0.94,20.578 -4.84,37.5 -17.15,2.539 -31.49,-1.172 -49.53,1.598 -13.4,2.07 -22.89,6.718 -36.33,9.492 3.71,-17.113 15.74,-44.184 22.22,-64.332 34.03,-103.399 -10.19,-110.121 0.24,-142.27 16.87,-52.07 -1.17,-19.218 21.76,-65.511 l -7.42,-3.668 c -4.61,-1.411 0.7,2.308 -7.62,-0.469 -13.67,-77.731 -18.28,-74.492 10.15,-106.684 63.64,-71.949 26.18,-67.539 56.92,-132.34 9.49,-19.878 72.65,-60.816 90.47,-74.2574 37.5,-28.4414 70.58,-49.4922 116.36,-43.2422 37.97,5.0821 59.93,9.9219 90.47,21.0508 32.43,11.8008 45.35,22.8906 64.34,42.7813 0.94,42.1095 -27.31,85.6215 -48.13,105.4995 -13.2,12.739 -26.6,23.36 -39.8,35.399 l -74.96,75.191 c -8.56,8.789 -13.87,18.52 -35.16,39.809 -10.9,10.891 -25.7,26.832 -34.26,40.93 -18.28,29.89 -0.23,19.921 -30.97,43.05 -4.89,34.262 -2.11,34.262 6.21,60.621 z" /><path
         id="path36"
         style="fill:#5598cd;fill-opacity:1;fill-rule:evenodd;stroke:none"
         d="m 1114.3,1577.7 c 10.15,10.66 23.12,11.79 39.57,10.66 -4.65,-11.33 -3.48,-8.13 -17.15,-11.33 -30.31,-6.95 -18.05,-1.64 -22.19,0.43 z m 200.82,61.56 c -5.78,-13.91 -2.31,-7.89 -35.39,-19.69 l -74.53,-24.3 c -16.18,-4.61 -27.31,-14.1 -34.46,0.47 l 144.14,43.75 z m -90.47,84.22 16.87,75.43 c -25.9,9.25 -52.26,3 -80.04,9.25 -21.28,-32.85 -12.26,-78.9 -46.52,-123.08 -50.43,-1.64 -112.89,33.08 -150.159,56.91 -3,-3.01 -2.301,-1.4 -5.313,-6.25 -0.226,-0.47 -3.707,-8.12 -4.136,-9.26 -12.262,-27.53 -27.543,-41.4 -31.012,-56.21 20.82,-26.4 237.61,-169.61 276.25,-183.24 38.39,-13.67 99.72,-15.98 116.83,16.17 43.05,80.98 61.33,112.7 123.56,180.94 74.02,81.21 92.07,103.4 215.39,93.01 -19.65,47.42 -127.46,8.79 -127.46,8.55 -5.36,-3.24 -25.47,-22.65 -29.85,-27.54 l -60.39,-57.61 c -16.21,-14.34 -82.85,-74.73 -100.19,-76.33 6.48,20.12 84.45,70.12 90.93,86.99 -42.57,-14.57 -85.62,-34.49 -133.51,-50.66 -9.49,-3.25 -121.45,-36.8 -134.65,-37.03 -18.98,-0.24 -5.31,-0.24 -11.09,3.47 20.11,12.5 223.94,57.85 330.15,124.26 -9.72,18.05 -8.55,5.31 -3.01,39.53 2.54,15.74 3.01,32.42 5.32,49.3 -56.68,-11.56 -41.41,-12.03 -49.96,-44.42 -10.67,-40.04 -15.51,-47.89 -38.4,-53.9 -53.01,-13.91 -109.69,-20.59 -168.91,-18.75 z" /><path
         id="path38"
         style="fill:#272727;fill-opacity:1;fill-rule:evenodd;stroke:none"
         d="m 2043.24,2351.88 3.21,55.74 c 3.94,9.26 117.3,63.16 148.55,25 -12.27,-7.19 -30.31,-6.72 -45.35,-10.9 -78.2,-21.49 -86.06,-58.99 -106.21,-69.84 z m -95.58,307.03 c -16.18,1.6 -21.53,10.86 -30.55,6.21 7.19,-10.16 22.93,-15.47 39.1,-15.71 0,19.65 -3.67,43.95 -21.95,51.8 2.07,-15.47 11.09,-26.83 13.4,-42.3 z m -7.86,-34.96 -29.84,12.5 c 7.38,-22.66 31.21,-20.59 44.65,-25.24 4.41,-1.6 -4.84,-0.66 7.85,-2.3 9.02,11.32 9.02,18.98 4.65,31.48 -10.9,-10.66 -3.71,-9.49 -8.32,-21.99 -20.63,11.33 -4.65,22.89 -23.83,28.48 z m -107.1,8.55 c 4.84,3.48 3.43,-3.67 9.25,9.73 l 26.37,97.42 c -19.22,-4.18 -34.73,-83.99 -35.62,-107.15 z m -76.14,-124.22 -0.47,5.08 c -6.71,-2.07 -112.22,-71.02 -125.62,-80.98 -27.77,-20.58 -105.04,-67.34 -115.7,-93.94 10.89,3.24 21.28,12.03 31.25,20.82 10.19,9.02 15.74,12.5 28.67,21.52 l 90.93,62.93 c 11.57,8.56 21.06,11.8 32.39,21.29 18.51,15.27 42.58,26.84 58.79,43.28 z m -323.67,-164.96 c -6.01,13.16 -71.05,58.75 -86.33,67.54 l -64.76,39.1 c -17.58,10.43 -94.65,53.44 -105.28,54.38 6.02,-12.74 45.82,-31.49 62.23,-40.28 55.08,-29.84 125.43,-73.08 174.92,-111.29 9.26,-7.15 7.85,-7.61 19.22,-9.25 z m 111.72,331.99 c 5.12,5.55 -5.31,2.07 11.6,6.96 17.11,4.84 5.78,-2.78 16.64,7.61 18.05,0.94 24.3,21.53 24.3,37.5 l 23.12,-3.47 c -7.61,-20.82 -15.27,-24.77 -28.2,-38.4 -25.7,-26.6 -14.37,-11.37 -47.46,-9.96 z m 24.3,20.12 -2.31,3.95 c 9.73,12.5 -2.3,14.33 20.59,16.67 -2.54,-14.6 -6.02,-16.21 -18.28,-20.62 z m -22.19,2.58 5.78,-7.66 c -5.55,-5.08 -18.28,-8.08 -21.52,-3.01 5.31,8.56 2.07,8.56 15.74,10.43 z m 66.64,-75.43 c 7.62,11.33 19.41,40 34.69,47.65 -0.24,-25.46 0.7,-70.11 -14.57,-86.09 -6.72,7.89 -15.51,30.31 -20.12,38.44 z m 15.7,41.87 c -3.01,-6.72 -12.03,-24.06 -18.28,-29.84 -5.31,-4.88 -2.3,-2.77 -10.62,-5.78 0.93,13.16 15.74,31.21 26.36,38.16 5.55,9.96 -0.7,5.78 9.73,8.79 z m -198.75,29.61 c -3.43,-3.71 5.12,-2.77 -8.79,-7.18 -6.91,-2.08 -22.89,0 -28.9,2.3 -25.9,9.49 -22.66,15.74 -24.53,19.92 22.22,3.24 18.04,-1.64 28,-15.04 23.6,-0.94 22.43,7.62 34.22,-0.23 z m -55.74,-26.13 c -10.19,16.87 -25,25.66 -29.14,51.09 l 18.28,-1.83 c -12.73,-22.89 32.15,-36.1 55.51,-37.03 -8.32,-6.21 -6.95,-5.32 -21.52,-9.03 -10.86,-2.77 -10.86,-3.2 -23.13,-3.2 z m 288.05,34.45 c -2.54,16.64 0,32.39 5.78,46.06 3.24,7.61 6.25,12.5 10.19,18.28 8.56,12.93 7.62,9.92 14.34,13.63 -1.6,-29.61 -12.5,-67.11 -30.31,-77.97 z m 3.47,64.34 c -2.07,21.48 1.84,54.57 22,27.5 -3.71,-6.21 -15.98,-23.6 -22,-27.5 z m -269.06,174.22 c 25.67,2.54 161.49,9.68 174.88,-4.18 8.36,-8.79 22.7,-143.67 22.93,-164.03 -0.93,-0.46 -1.87,-1.17 -2.54,-1.4 -0.7,-0.24 -1.87,-0.94 -2.57,-1.17 -28.44,-12.93 -30.98,-28.91 -52.74,-40 l -9.72,73.79 -90.24,0.46 c -6.72,-19.88 -8.32,-45.58 -11.8,-70.11 -21.05,1.64 -28.2,24.06 -55.5,29.18 l 27.54,177.69 z m 293.59,32.15 c -5.31,-10.2 -10.42,-18.99 -13.43,-30.79 -5.08,5.79 -3.48,2.11 -7.15,11.57 l -12.27,29.61 c -2.77,6.25 -5.11,37.73 -5.31,42.81 8.56,-4.38 33.28,-39.1 38.16,-53.2 z m -23.59,52.5 c -3.94,2.34 -6.95,-1.61 -10.66,10.19 -3.91,12.5 1.87,9.96 2.11,10.43 7.14,-7.66 4.84,0.43 8.55,-20.62 z m -112.46,-15.94 c 0,-13.91 -7.15,-8.32 -16.87,-6.25 27.96,-2.31 72.42,-13.91 86.99,-28.24 33.08,-32.39 35.86,-151.06 30.54,-192.74 -7.65,-61.29 6.92,-47.89 -14.14,-99.45 -21.71,17.34 -12.46,39.06 -12.46,42.07 -43.04,24.3 -71.99,-18.95 -101.6,-26.6 3.71,7.42 23.17,28.94 28.71,34.02 l 31.21,30.55 48.36,-17.35 c 5.55,40 -5.54,99.69 -20.58,136.96 -6.96,17.11 -10.16,15.5 -26.61,24.06 l -6.24,32.85 c -30.32,17.35 -139.07,17.58 -173.99,12.03 -27.77,-4.37 -20.12,-11.79 -23.83,-40.94 -39.33,-15.27 -33.32,-24.29 -45.35,-71.28 -6.48,-24.96 -17.58,-75.63 -8.55,-97.86 53.9,-1.17 17.34,34.26 83.51,-13.2 9.49,-6.68 8.79,-7.62 16.88,-15.23 11.13,-10.43 8.12,-3.01 13.67,-16.92 -43.52,10.67 -44.88,34.03 -106.21,28.25 -6.25,-33.33 -12.93,-15.98 -16.17,-30.32 2.54,-29.14 27.73,-39.8 37.69,-64.1 l 1.84,-2.07 c 11.13,0.94 50,21.06 62.93,28.2 34.72,18.52 71.29,54.38 63.4,6.02 -2.31,-13.87 -2.78,-14.1 0,-26.84 7.89,8.36 2.57,-3 6.01,8.79 l 5.78,29.65 c 15.51,-0.47 86.8,-40.51 99.06,-51.37 -4.17,-16.91 -6.25,-4.88 -7.18,-20.39 10.86,2.82 6.48,4.42 18.28,11.37 l 15.51,-40.74 c -10.43,-19.65 -44.22,-61.06 -59.69,-82.58 -28.01,-39.1 -18.99,-54.14 -78.91,-57.15 v -6.95 c 42.11,-11.33 55.04,7.19 71.25,32.38 l 91.17,127.5 c 12.5,22.66 9.5,71.02 8.79,101.8 24.53,-11.33 14.11,-71.49 43.48,-82.38 l -29.84,89.1 9.49,13.4 c 10.66,15.97 49.96,101.79 -14.81,104.37 l -1.6,33.52 c 20.59,-5.79 30.08,-15.28 46.72,-23.83 l 87.46,-48.36 c 15.04,-8.56 28.44,-21.72 43.48,-26.84 -3.67,6.96 -4.14,11.14 -15.24,19.46 -6.25,4.37 -14.61,9.25 -21.99,13.63 l -34.49,19.45 c -10.63,7.38 -3.48,-0.47 -6.68,8.56 88.13,1.83 92.07,9.49 152.46,-49.07 11.56,-11.32 11.09,-13.16 20.12,-22.89 14.57,-15.5 24.76,-28.9 36.56,-45.82 87.23,-124.68 9.96,-208.2 2.31,-245.7 l 1.87,-5.08 c 16.88,11.33 17.58,40.24 32.38,50.9 7.39,-14.57 -0.23,-43.52 1.14,-60.16 l 3.47,-7.42 c 4.42,5.78 3.24,16.92 4.65,21.76 4.38,16.64 0.47,4.84 6.02,11.56 17.57,-51.83 18.28,-108.04 -14.57,-151.76 -13.21,-17.61 -26.18,-38.43 -51.61,-45.11 -26.17,-6.72 -76.6,-1.41 -83.51,-4.65 22.89,-13.17 67.54,-11.56 93.01,-0.94 31.91,13.44 42.11,43.52 59.92,51.84 -12.74,-63.17 -1.88,-111.06 33.51,-159.89 8.6,-11.56 24.07,-23.59 32.66,-33.28 -38.67,-6.72 -84.45,11.1 -99.73,11.8 l -6.25,-0.94 c 22.19,-27.07 148.52,-23.12 193.21,-24.76 32.85,-1.14 194.1,-10.63 208.67,2.3 l -15.04,2.58 c -25,4.14 -37.7,-3.01 -63.16,0 -31.02,3.67 -126.8,4.14 -166.57,5.78 -17.85,0.67 -17.38,0 -26.4,10.63 6.72,10.86 37.73,6.48 65.93,6.48 10.9,0 54.85,4.38 57.15,-3.48 l -114.72,-0.46 c -23.83,2.3 -9.96,1.4 -15.98,7.42 -1.64,5.31 0.7,0.9 -2.54,6.72 -22.46,38.16 -46.99,65 -45.12,126.09 0.9,32.62 36.8,98.79 66.84,114.96 20.16,10.9 83.55,30.31 107.85,28.48 30.74,-2.31 104.1,-94.18 136.72,-90 -1.6,6.91 21.05,3.24 27.77,2.3 -55.31,2.54 -55.78,19.45 -86.52,43.28 -23.83,18.48 -49.3,41.88 -76.13,56.21 -50.2,26.84 -71.49,68.95 -194.81,4.38 l -3.01,4.88 -11.56,39.1 c -6.72,18.05 -12.5,28.44 -18.98,43.01 40.04,111.52 -36.56,201.52 -86.06,252.66 -101.13,104.37 -136.05,26.17 -203.63,64.57 -14.8,8.32 -49.73,26.6 -58.05,34.26 0.24,58.28 18.28,73.78 36.57,113.59 -16.21,30.55 -26.18,66.17 -38.44,89.53 -8.09,15.74 -0.24,6.02 -11.33,11.56 -24.53,-105.5 31.02,-112.22 4.41,-140.66 -1.17,2.77 -0.93,1.6 -2.57,7.62 -0.67,2.34 -1.14,5.58 -1.84,9.02 -10.39,39.57 -60.16,50.66 -95.78,59.26 z" /><path
         id="path40"
         style="fill:#ffffff;fill-opacity:1;fill-rule:evenodd;stroke:none"
         d="m 407.699,2626.95 c -3.25,24.77 11.09,155.04 12.031,200.35 l -5.781,-4.14 c -17.578,-18.75 -102.738,-202.46 -109.461,-206.17 -24.289,-3.01 -52.726,-2.54 -70.539,-8.55 1.602,-58.52 18.473,-114.77 17.571,-125.63 -0.7,-9.72 -61.559,-180.47 -70.821,-207.54 -10.148,-30.31 -26.129,-75.89 -31.437,-108.51 11.789,4.88 2.539,-1.6 11.789,9.96 l 27.308,33.55 c 10.161,12.97 104.571,121.02 113.59,124.69 13.871,-18.71 47.192,-152.23 64.77,-174.22 0.703,1.17 2.812,-2.77 4.179,17.58 l 9.493,132.34 c 20.82,138.6 -22.891,98.6 59.918,187.89 7.851,8.33 9.492,12.5 19.222,23.6 l 66.84,76.37 c 5.109,5.78 3.238,6.68 8.551,12.93 9.726,11.56 11.367,4.41 18.988,22.46 l -146.449,-7.19 z" /><path
         id="path42"
         style="fill:#ffffff;fill-opacity:1;fill-rule:evenodd;stroke:none"
         d="m 1275.78,2238.05 -39.1,0.66 c 9.26,-19.88 101.8,-54.57 116.84,-74.26 -18.52,-35.86 -83.99,-86.52 -87.93,-102.26 40.27,8.32 50.46,2.07 89.57,19.69 64.76,29.14 78.86,52.96 115.19,38.16 36.1,-14.81 93.24,-43.52 120.78,-48.59 0.24,28.24 -31.91,57.14 -32.85,85.82 20.35,23.63 105.74,93.24 108.99,115.93 -43.29,-10.43 -105.28,-30.31 -156.88,-26.6 -9.26,11.33 -12.97,15.7 -21.52,30.98 -5.78,10.9 -11.57,25.47 -20.35,34.02 -3.95,-3.01 -2.78,-0.94 -7.43,-7.19 -60.82,-78.16 8.56,-66.13 -185.54,-66.13 z" /><path
         id="path44"
         style="fill:#0a0c0a;fill-opacity:1;fill-rule:evenodd;stroke:none"
         d="m 2406.25,2107.07 c 3.91,3.71 -2.34,3.01 6.91,4.88 12.5,2.54 28.48,-1.87 34.03,-4.88 -3.01,-1.37 2.07,-1.6 -9.03,-3.24 -9.72,-1.37 -23.12,0.23 -32.14,3.24 z m 105.27,124.26 c 5.08,52.73 51.37,39.57 98.56,48.59 13.4,-2.77 65.94,-59.49 77.03,-79.84 -6.49,-19.88 -24.06,-45.59 -37.7,-52.27 -14.33,13.4 -9.49,21.49 -18.04,41.64 -7.19,17.11 -14.57,24.53 -23.6,37 -18.51,25.23 -55.31,15.03 -96.25,4.88 z m 38.64,53.67 c 15.97,9.26 52.73,17.81 70.78,5.08 -8.79,-6.72 2.3,-3.91 -18.52,-1.84 -29.61,3.01 -38.63,-9.49 -52.5,-3.24 z m -17.58,1.6 c 0.47,13.91 5.31,25 12.93,34.02 27.77,-9.49 50.9,-18.28 56.48,12.97 2.31,12.5 -1.17,6.49 4.61,16.41 37.93,12.5 67.58,-28.67 83.05,-45.12 18.05,-19.18 23.4,-24.53 23.83,-44.18 0.47,-21.29 -6.68,-42.81 -23.6,-51.36 -12.03,26.36 -37.22,61.79 -56.68,78.67 -14.1,12.26 -27.54,18.51 -51.83,15.27 -26.14,-3.48 -34.46,-13.44 -49.03,-16.68 z m 123.98,74.77 c 4.89,-14.61 9.03,-9.73 17.39,-25.24 -10.2,7.85 -13.91,14.57 -26.84,19.22 -15.74,5.55 -18.99,-1.64 -33.32,8.79 22.89,5.08 23.83,-0.23 42.77,-2.77 z m 0,0 c -9.26,11.56 -31.68,12.46 -47.65,9.92 6.48,48.59 15.74,59.26 69.18,57.15 0.23,0 102.96,-90.24 39.33,-140.9 -16.87,18.05 -27.77,64.8 -60.86,73.83 z m -111.72,-30.08 c 0.43,77.03 17.82,107.81 16.88,142.26 23.83,-3.71 41.4,-13.63 59.45,-21.75 -4.61,-21.49 -13.87,-38.17 -19.65,-61.53 -15.04,-60.62 -0.93,-75.89 -36.56,-66.4 -6.01,1.6 -16.21,5.54 -20.35,7.18 z m -3.94,-163.59 -2.31,-16.65 c -26.4,-12.03 -16.91,1.14 -18.04,2.54 25.66,4.85 8.08,0.47 15.7,9.26 l -26.6,6.68 c 1.87,23.17 9.49,13.67 25.47,15.74 16.4,2.07 5.54,0.71 9.72,4.18 -7.42,3.25 -21.05,3.71 -30.31,2.07 -14.8,-2.77 -11.13,-8.08 -15.27,-19.41 -37.5,28.91 26.83,54.34 90,53.44 9.26,-19.93 48.36,-79.14 50.9,-86.33 -5.78,-9.45 -5.55,-9.45 -13.68,-16.41 -20.82,-17.34 -20.58,-24.06 -61.28,-15.04 -32.86,7.39 -76.14,-1.83 -112.47,7.39 l -21.75,22.93 c -2.54,22.89 23.86,112.18 43.04,126.56 11.57,8.79 27.07,8.55 31.02,23.59 -14.81,2.31 -10.9,-1.64 -23.59,-8.08 -10.43,16.4 -16.92,60.58 -17.39,84.22 25.47,23.35 59.49,62.46 76.37,94.84 6.95,13.44 1.64,8.55 13.67,13.44 -2.58,-36.57 -14.14,-60.16 -17.62,-111.76 0,-1.64 -0.66,-9.26 -1.13,-10.43 -1.64,-6.25 -2.11,-4.85 -3.71,-7.38 -15.04,24.29 13.2,70.07 3.48,91.13 -15.51,-9.92 -18.75,-68.48 -16.45,-87.23 1.64,-12.69 6.25,-15.04 14.57,-21.95 -6.44,-20.39 -12.03,-18.99 -10.62,-50 -13.87,-21.29 -21.06,-16.64 -22,-55.74 -13.16,-11.1 -35.39,-23.6 -14.33,-49.77 13.44,-16.64 30.08,-28.67 58.09,-28.44 9.49,-14.8 6.01,-20.11 23.12,-24.53 -4.61,14.34 -11.09,19.89 -15.74,38.64 -2.54,10.89 -0.47,9.25 -6.25,17.81 -12.46,-11.8 5.35,11.79 -4.85,-5.31 z m -138.36,149.21 c -6.72,0.94 -29.61,4.65 -27.77,-2.3 6.25,-10.86 33.55,-2.31 59.68,-17.81 l -9.68,-22.66 c -1.65,-17.85 -0.94,-3.48 3,-8.83 17.11,14.14 11.1,34.96 28.68,46.99 7.42,-9.25 12.96,-29.6 14.57,-41.4 -36.57,-23.17 -35.4,-77.31 -54.61,-120.78 8.36,-21.29 17.81,-20.59 24.29,-34.96 -64.06,0.93 -41.87,9.96 -63.16,21.29 -3.91,-8.09 0.47,-10.63 1.41,-16.18 -39.34,-3.47 -87.7,5.32 -126.57,6.49 -47.65,1.36 -93.94,-1.17 -141.36,1.6 6.01,-6.02 -7.86,-5.08 15.97,-7.38 l 114.73,0.43 c -2.31,7.89 -46.49,3.47 -57.15,3.47 -28.2,0 -59.22,4.42 -65.94,-6.48 89.1,9.49 182.35,-7.38 270.71,-6.92 -0.9,-0.7 -2.07,-0.7 -2.54,-2.1 -2.31,-6.92 0.23,-0.24 -7.62,-4.85 l -2.34,-1.17 c -0.43,-0.24 -1.37,-0.66 -2.07,-1.13 l 15.03,-2.54 c 17.11,-1.88 25.24,-4.42 45.36,-4.42 14.8,0 36.79,3.25 50.19,1.64 30.08,-3.71 59.03,-6.48 93.01,-4.41 40.74,2.54 43.52,8.79 63.16,33.32 16.45,20.59 32.19,22.66 47,49.49 7.85,14.14 0.23,7.42 16.64,29.89 8.55,11.56 13.9,16.87 17.81,33.08 3.94,16.17 -2.07,27.03 3.48,42.07 3.47,9.03 13.9,19.69 18.98,31.02 19.41,43.75 -40.27,102.5 -59.45,124.49 -26.64,3.24 -41.68,-3.48 -59.93,-2.77 l 6.68,20.35 c -24.29,16.21 -51.13,28.24 -86.75,31.01 -8.79,-8.79 -18.75,-26.83 -25.67,-37.26 -18.51,-27.54 -35.62,-46.96 -58.55,-70.35 -18.05,-18.29 -5.08,-29.61 -5.78,-52.04 l -20.36,-15.27 -32.61,6.72 z" /><path
         id="path46"
         style="fill:#5598cd;fill-opacity:1;fill-rule:evenodd;stroke:none"
         d="m 1359.53,2629.73 c -9.96,24.29 -35.15,34.96 -37.69,64.1 3.24,14.33 9.92,-3.01 16.17,30.31 61.33,5.78 62.93,-17.58 106.21,-28.24 -5.55,13.9 -2.31,6.48 -13.67,16.91 -8.09,7.39 -7.39,8.32 -16.88,15.24 -66.17,47.69 -29.61,12.03 -83.51,13.2 -9.26,22.23 2.07,72.89 8.55,97.89 12.03,46.95 6.02,55.98 45.35,71.25 3.48,28.91 -3.94,36.33 23.83,40.94 34.92,5.55 143.67,5.31 173.99,-12.03 l 6.24,-32.85 c 16.45,-8.56 19.65,-6.96 26.61,-24.07 15.04,-37.46 25.93,-96.95 20.58,-136.95 l -48.36,17.34 -31.21,-30.54 c -5.54,-4.85 -25,-26.61 -28.71,-34.03 29.85,7.66 58.56,50.9 101.6,26.64 0,-3 -9.02,-24.76 12.46,-42.11 21.06,51.57 6.49,38.17 14.14,99.46 5.08,41.68 2.54,160.35 -30.54,192.73 -14.57,14.14 -59.03,25.7 -86.99,28.24 -37.5,10.39 -115,3.25 -148.56,-8.32 -53.44,-18.51 -50.66,-28.47 -58.75,-100.66 -3.48,-30.98 -20.82,-194.34 -9.26,-219.1 3.95,-8.32 10.16,-17.11 15.28,-24.06 3.47,-5.08 4.61,-7.86 8.55,-12.97 9.02,-12.03 1.37,-6.45 14.57,-8.09 z" /><path
         id="path48"
         style="fill:#6ba9d8;fill-opacity:1;fill-rule:evenodd;stroke:none"
         d="m 2013.36,2421.95 c -25.43,-129.33 -142.74,-132.57 -161.95,-142.97 5.35,-14.8 4.88,-4.18 9.25,-16.87 -14.57,1.84 -7.85,4.14 -17.11,12.69 -5.31,4.89 0,0.94 -6.48,4.18 -5.78,-10.86 -11.8,-25 -14.57,-35.62 10.86,-12.74 57.15,-58.09 73.55,-62.46 -10.15,17.81 -11.79,5.78 -18.94,23.36 15.27,-3.48 46.01,-29.14 58.05,-38.17 l 58.32,-42.57 c 15.27,-0.71 61.32,-18.52 99.72,-11.8 -8.55,9.69 -24.06,21.72 -32.61,33.32 -35.39,48.79 -46.29,96.44 -33.56,159.84 -17.81,-8.32 -28.01,-38.4 -59.92,-51.79 -25.47,-10.67 -70.12,-12.27 -93.01,0.89 6.92,3.25 57.38,-2.07 83.52,4.65 25.47,6.68 38.4,27.54 51.6,45.12 32.85,43.71 32.38,99.92 14.57,151.76 -5.78,-6.92 -1.6,5.11 -6.02,-11.56 -1.4,-4.85 -0.23,-15.98 -4.61,-21.76 z" /><path
         id="path50"
         style="fill:#ffffff;fill-opacity:1;fill-rule:evenodd;stroke:none"
         d="m 1446.05,2846.29 c -4.37,16.21 0.71,37.97 6.49,49.76 60.62,6.92 67.58,-2.77 69.41,-53.24 l -76.13,3.71 z m -49.02,94.41 -27.54,-177.69 c 27.54,-4.89 34.46,-27.54 55.51,-29.14 3.71,24.49 5.12,50.19 11.8,70.08 l 90.23,-0.47 9.73,-73.79 c 21.76,11.09 24.29,27.07 52.77,40.04 0.67,0.23 2.07,0.89 2.54,1.13 0.66,0.23 1.6,0.94 2.54,1.41 0,20.58 -14.34,155.46 -22.93,164.02 -13.4,13.91 -149.22,6.72 -174.88,4.18 z" /><path
         id="path52"
         style="fill:#272727;fill-opacity:1;fill-rule:evenodd;stroke:none"
         d="m 742.23,2690.12 c -9.691,-92.54 -7.152,-99.03 -31.679,-193.21 -40.039,-154.76 -76.571,-228.59 -152,-359.53 -7.18,-12.5 -12.731,-22.89 -22.223,-35.15 -65.937,-84.69 -78.207,-108.99 -165.668,-173.99 -42.109,-31.48 -112.89,-60.86 -177.93,-34.72 -93.6714,37.73 -126.5581,213.08 -109.6402,342.89 13.3907,102.97 6.711,85.15 32.1402,193.2 28.25,119.14 103.911,296.37 175.161,394.49 l 36.089,49.73 c 5.79,6.95 8.79,8.08 13.872,14.8 15.738,20.35 35.199,43.52 52.769,58.09 l 62.699,51.8 c 41.879,32.42 119.141,60.86 177.461,32.65 107.809,-52.3 120.547,-230.47 108.949,-340.82 z M 123.32,2327.58 c -13.398,-60.16 -14.8,-222.11 31.481,-275.59 13.211,-15.23 25.898,-29.84 49.969,-35.39 66.871,-15.04 137.691,43.52 175.851,84.22 8.789,9.26 8.09,12.03 19.18,23.59 59.258,60.63 139.07,233.25 165.429,317.23 22.93,38.4 41.68,173.05 41.68,217.93 15.039,48.13 -2.808,277.19 -110.859,266.33 -66.602,-0.94 -125.391,-67.58 -163.082,-108.75 -9.957,-10.9 -10.43,-7.89 -18.75,-20.59 l -46.289,-68.28 c -49.258,-89.53 -74.02,-140.66 -108.282,-242.46 -3.91,-11.33 -24.058,-70.12 -27.308,-104.1 l -9.02,-54.38 z m 284.61,299.37 146.449,7.19 c -7.43,-18.05 -9.027,-10.9 -18.988,-22.46 -5.313,-6.25 -3.481,-7.15 -8.551,-12.93 l -66.879,-76.37 c -9.691,-11.09 -11.332,-15.27 -19.18,-23.59 -82.621,-89.3 -39.101,-49.3 -59.922,-187.89 l -9.488,-132.35 c -1.172,-20.58 -3.25,-16.4 -4.18,-17.57 -17.582,21.99 -50.902,155.47 -64.769,174.22 -8.793,-3.48 -103.203,-111.76 -113.594,-124.69 l -27.308,-33.56 c -9.25,-11.56 0,-5.07 -11.79,-9.96 5.309,32.85 21.29,78.21 31.442,108.52 9.027,27.07 70.117,197.81 70.816,207.54 0.672,11.09 -16.207,67.11 -17.578,125.62 17.578,6.02 46.25,5.55 70.551,8.56 6.719,3.71 92.07,187.42 109.449,206.17 l 5.789,4.14 c -1.179,-45.35 -15.508,-175.59 -12.039,-200.35 z m -113.59,-2.77 c -26.641,-0.47 -48.828,-1.37 -71.762,-6.95 1.641,-24.3 3.242,-46.25 7.652,-68.25 2.309,-11.79 12.739,-54.84 12.5,-62.69 -0.929,-18.99 -113.16,-293.36 -103.902,-339.41 12.5,1.83 13.672,6.71 23.402,15.03 14.571,12.74 119.141,146.21 137.18,154.77 16.41,-30.08 52.5,-174.88 75.199,-186.68 6.25,11.56 13.871,136.25 15.039,159.18 1.133,23.59 3.012,58.52 6.481,81.41 4.383,27.77 -3.238,60.86 12.269,78 l 103.633,118.21 c 13.668,16.44 59.449,59.22 59.219,75.9 l -153.828,-8.56 c -0.703,35.16 20.348,211.02 11.098,224.41 -10.43,-5.78 -11.329,-11.56 -18.75,-24.76 l -49.731,-90 c -10.199,-19.18 -56.68,-111.95 -65.269,-120.08 z m 308.16,34.26 c -1.602,-6.25 -3.012,-12.5 -3.012,-12.97 l -12.5,-95.31 c -12.968,-61.1 -52.968,-171.21 -76.789,-224.22 -28.008,-62.23 -54.847,-111.53 -94.179,-163.56 -65.711,-79.61 -30.321,-38.4 -70.551,-79.61 -115,-116.36 -216.559,-57.38 -220.508,106.68 -0.699,27.78 -1.172,56.21 2.07,83.28 l 5.117,52.07 10.153,62 25.711,92.54 c 33.508,118 126.758,304.72 218.629,381.52 28.437,23.83 48.828,44.88 95.308,53.91 47.43,9.25 74.961,-20.12 91.641,-53.21 31.449,-54.37 30.75,-173.04 29.14,-203.12 z m -52.301,390.31 C 488.441,3033.71 445.391,3009.18 399.141,2966.37 360.699,2930.74 326.02,2890.7 290.859,2841.91 156.211,2654.96 60.8594,2371.76 70.1211,2132.3 c 2.7695,-70.35 25.2305,-150.62 61.0899,-200.15 29.84,-41.41 90,-66.6 147.617,-54.38 117.301,25 232.031,158.99 279.961,242.27 7.383,12.73 15.231,21.29 22.891,34.45 74.73,128.44 130.699,278.36 157.34,425.04 23.832,131.64 30.281,281.09 -33.321,395.63 -23.59,42.34 -84.449,91.17 -155.269,73.82 z" /><path
         id="path54"
         style="fill:#ffffff;fill-opacity:1;fill-rule:evenodd;stroke:none"
         d="m 1157.07,1819.96 c 18.98,-6.25 86.8,-10.43 110.39,-8.36 6.92,24.3 18.71,142.78 7.62,162.89 -8.09,7.89 -74.03,-31.68 -111.99,-33.75 4.88,6.21 1.64,4.61 9.02,8.79 l 74.06,28.91 c -3.01,1.83 -95.12,17.34 -113.59,23.83 -5.78,-21.53 4.61,-72.43 7.15,-95.32 2.11,-19.22 9.96,-73.12 17.15,-86.99 z" /><path
         id="path56"
         style="fill:#ec3e35;fill-opacity:1;fill-rule:evenodd;stroke:none"
         d="m 1289.88,1978.2 c -4.37,-28.9 0.71,-59.45 -1.6,-89.06 -1.4,-17.58 -11.56,-63.4 -6.72,-76.37 l 97.42,11.8 c 16.64,21.99 72.86,132.34 77.5,163.13 -11.13,1.6 -61.56,-6.02 -78.67,-7.66 -27.54,-2.54 -64.76,1.87 -87.93,-2.07 z" /><path
         id="path58"
         style="fill:#ec3e35;fill-opacity:1;fill-rule:evenodd;stroke:none"
         d="m 1035.86,1848.63 c 24.06,-15.27 77.5,-25.19 107.81,-28.2 l -15.74,88.12 c -4.84,28.01 -4.61,74.3 -11.8,96.02 -18.04,10.66 -42.34,16.91 -61.75,27.31 -17.82,9.49 -42.11,26.36 -58.79,32.61 l 40.5,-216.09 z" /><path
         id="path60"
         style="fill:#ffffff;fill-opacity:1;fill-rule:evenodd;stroke:none"
         d="m 968.281,1934.92 c -14.101,3.01 -16.871,8.6 -27.972,13.67 0.671,-3.47 20.589,-66.17 22.66,-68.24 5.551,-5.78 49.531,-25.7 59.921,-28.24 l -41.171,222.81 -55.547,51.6 c -11.793,11.57 -15.703,20.59 -26.371,27.31 -8.321,-8.13 -25.891,-44.22 -29.602,-56.02 -2.539,-8.79 11.321,-58.04 15.031,-69.88 3.481,-10.86 27.309,-40.47 35.86,-49.49 7.191,-7.62 12.969,-13.87 22.43,-20.82 11.832,-8.56 18.98,-9.03 24.531,-22.7 z" /><path
         id="path62"
         style="fill:#ffffff;fill-opacity:1;fill-rule:evenodd;stroke:none"
         d="m 1525.9,2004.8 c 9.49,-18.28 9.02,2.31 18.94,-19.88 -14.8,2.07 -15.93,4.14 -30.5,14.81 -65.28,-5.78 -34.26,-8.32 -97.43,-130.51 -5.78,-11.1 -17.81,-28.67 -21.05,-41.17 17.81,2.07 63.4,16.44 81.44,23.83 25.2,10.42 38.4,68.47 72.43,106.44 28.2,31.68 3.24,5.78 29.14,24.53 16.87,12.23 12.26,14.57 25.9,27.74 9.96,9.72 8.35,4.18 12.96,18.75 -23.82,-6.72 -65.93,-23.36 -91.36,-24.54 z" /><path
         id="path64"
         style="fill:#000000;fill-opacity:1;fill-rule:evenodd;stroke:none"
         d="m 2184.8,335.98 c 0.94,-11.601 60.86,-111.761 70.36,-128.21 20.11,1.41 33.55,6.25 71.48,8.789 33.09,2.113 28.95,7.421 -4.61,46.531 -13.91,16.172 -48.12,81.211 -70.12,83.512 -5.78,0.468 -60.15,-8.793 -67.11,-10.622 z" /><path
         id="path66"
         style="fill:#6ba9d8;fill-opacity:1;fill-rule:evenodd;stroke:none"
         d="m 1976.6,2438.63 c -3.94,-14.57 -30.55,-40.51 -43.51,-48.12 -20.59,-12.27 -43.71,-17.58 -71.96,-20.82 l -19.65,-78.44 c 90.24,9.26 133.72,45.59 161.72,122.15 l 6.96,15.98 c -1.41,16.64 6.21,45.58 -1.18,60.15 -14.8,-10.66 -15.5,-39.57 -32.38,-50.9 z" /><path
         id="path68"
         style="fill:#ec3e35;fill-opacity:1;fill-rule:evenodd;stroke:none"
         d="m 1579.34,1961.09 c -21.06,4.85 -32.62,-22.22 -41.64,-37.03 -8.79,-14.57 -26.37,-40.94 -31.49,-57.15 19.22,7.43 38.63,18.05 52.07,29.14 40.04,32.43 20.12,20.4 38.87,43.05 l -11.33,7.19 c 3.24,2.77 0.47,2.54 9.02,6.25 3.91,1.6 8.56,2.3 13.4,3.91 11.14,3.47 53.67,27.77 61.8,35.43 18.71,17.81 35.16,55.27 47.66,82.1 -3.95,-0.23 -80.04,-36.32 -84.69,-41.64 -11.33,-13.2 -12.27,-20.82 -28.24,-36.09 -27.07,-26.13 -28.68,-21.52 -25.67,-35.16 z" /><path
         id="path70"
         style="fill:#52362a;fill-opacity:1;fill-rule:evenodd;stroke:none"
         d="m 1263.28,1733.87 c 17.58,-2.78 101.56,7.89 114.53,16.68 8.32,5.78 4.85,0.93 9.49,12.5 5.32,12.93 14.34,43.47 15.75,56.44 -17.62,1.6 -73.6,-12.97 -98.6,-14.57 -26.36,-1.64 -26.6,4.14 -31.21,-24.53 -2.11,-13.2 -9.96,-37.73 -9.96,-46.76 z" /><path
         id="path72"
         style="fill:#000000;fill-opacity:1;fill-rule:evenodd;stroke:none"
         d="m 2134.61,492.582 -0.94,-70.082 c -9.02,-12.5 -27.5,-18.52 -30.74,-34.961 16.64,0.699 11.09,7.891 34.69,24.063 1.83,-2.071 2.54,-2.301 4.84,-5.782 28.24,-44.179 2.81,-22.89 80.55,-18.519 0.47,20.629 -11.56,13.437 -15.74,33.32 16.21,1.649 25.66,-12.031 35.62,-5.539 l -40.94,21.52 c -15.27,79.609 31.92,60.859 -67.34,55.777 z" /><path
         id="path74"
         style="fill:#ec3e35;fill-opacity:1;fill-rule:evenodd;stroke:none"
         d="m 2544.61,2331.29 c 4.14,-1.64 14.34,-5.59 20.35,-7.19 35.63,-9.49 21.52,5.78 36.56,66.41 5.78,23.36 15.04,40.04 19.65,61.52 -18.05,7.89 -35.62,18.05 -59.45,21.76 0.7,-34.45 -16.45,-65.47 -16.88,-142.31 z m -8.56,-168.44 c -7.65,-8.79 10.16,-4.41 -15.74,-9.26 1.14,-1.4 -8.32,-14.57 18.05,-2.54 l 2.3,16.65 c 10.2,17.34 -7.85,-6.49 4.85,5.31 5.78,-8.56 3.71,-6.92 6.25,-17.81 4.65,-18.75 10.9,-24.3 15.74,-38.64 -17.11,4.61 -13.63,9.73 -23.12,24.53 -28.01,-0.23 -44.42,11.8 -58.09,28.44 -21.06,26.17 1.17,38.67 14.33,49.77 0.71,39.1 8.13,34.45 22,55.74 -1.41,31.01 4.18,29.61 10.62,50 -8.32,6.68 -12.93,9.02 -14.57,21.95 -2.3,18.75 0.71,77.07 16.45,87.23 9.72,-21.06 -18.75,-66.84 -3.48,-91.13 1.6,2.53 2.07,1.13 3.71,7.38 0.24,1.41 0.9,8.79 1.13,10.43 3.48,51.6 15.04,75.19 17.62,111.76 -11.83,-4.65 -6.72,0 -13.67,-13.44 -16.88,-32.38 -50.9,-71.25 -76.37,-94.84 0.47,-23.64 7.19,-67.58 17.39,-84.22 12.93,6.44 8.78,10.15 23.59,8.08 -3.95,-15.27 -19.22,-15.04 -31.02,-23.59 -19.18,-14.38 -45.58,-103.67 -43.04,-126.56 l 21.75,-22.93 c 36.33,-9.22 79.61,-0.2 112.47,-7.39 40.46,-9.02 40.46,-2.3 61.28,15.04 8.13,6.96 7.9,6.96 13.68,16.41 -2.54,7.19 -41.64,66.17 -50.9,86.33 -63.17,0.7 -127.5,-24.77 -90,-53.44 4.14,11.09 0.47,16.64 15.27,19.41 9.26,1.64 22.66,1.18 30.31,-2.07 -3.94,-3.24 6.68,-2.11 -9.72,-4.18 -15.98,-2.07 -23.83,7.43 -25.47,-15.74 l 26.6,-6.68 z m -129.8,-55.78 c 8.79,-3.01 22.42,-4.61 32.15,-3.24 11.09,1.64 6.01,1.87 9.02,3.24 -5.54,3.01 -21.52,7.19 -34.02,4.88 -9.49,-1.87 -3.24,-1.17 -6.92,-4.88 z m -295.47,21.29 c 47.42,-2.77 93.71,-0.47 141.37,-1.6 38.87,-1.17 87.23,-9.96 126.56,-6.49 -0.94,5.55 -5.31,8.09 -1.41,16.18 21.06,-11.33 -0.89,-20.59 63.17,-21.29 -6.68,14.37 -15.94,13.67 -24.3,34.96 19.22,43.47 18.05,97.61 54.61,120.78 -1.6,11.8 -7.15,32.15 -14.57,41.4 -17.34,-12.03 -11.56,-32.61 -28.67,-46.99 -3.95,5.59 -4.42,-8.79 -3.01,8.83 l 9.69,22.66 c -26.37,15.5 -53.44,6.95 -59.69,17.81 -32.62,-4.18 -105.94,87.46 -136.72,90 -24.29,1.87 -87.69,-17.58 -107.81,-28.44 -30.08,-16.21 -65.7,-82.38 -66.88,-115 -1.83,-61.09 22.66,-87.93 45.12,-126.09 3.24,-5.78 0.94,-1.41 2.54,-6.72 z m 263.52,-26.13 c 0.7,0.47 1.64,0.89 2.11,1.13 0.43,0.23 1.6,0.94 2.3,1.17 7.85,4.61 5.31,-1.83 7.62,4.85 0.47,1.4 1.87,1.4 2.54,2.1 -88.36,-0.46 -181.6,16.41 -270.67,6.92 9.03,-10.63 8.56,-9.69 26.37,-10.63 39.57,-1.83 135.35,-2.3 166.56,-5.78 25.47,-3.01 38.21,4.14 63.17,0 z m 211.95,27.3 c 11.09,-23.59 3.71,-16.91 2.07,-20.39 -10.39,3.95 -3.48,-2.3 -8.55,7.66 -0.94,1.6 -25.24,62.22 -26.14,70.54 12.27,-6.44 10.39,-3.43 13.64,-19.64 4.41,-23.13 7.42,-13.87 18.98,-38.17 z m -74.96,101.8 c 40.94,10.15 77.5,20.35 96.25,-4.88 9.02,-12.23 16.41,-19.89 23.59,-37 8.32,-20.15 3.48,-28.24 18.05,-41.64 13.63,6.68 31.21,32.39 37.7,52.27 -11.1,20.35 -63.4,77.26 -77.04,79.84 -47.18,-9.26 -93.24,4.14 -98.55,-48.59 z m 21.05,55.51 c 14.81,3.47 22.89,13.2 49.03,16.68 24.29,3.24 37.5,-3.01 51.83,-15.28 19.46,-16.91 44.42,-52.3 56.68,-78.67 16.92,8.55 24.07,30.31 23.6,51.37 -0.43,19.65 -5.78,25 -23.83,44.18 -15.7,16.68 -45.35,57.61 -83.05,45.11 -6.01,-9.92 -2.54,-3.9 -4.61,-16.4 -5.58,-31.25 -28.71,-22.7 -56.48,-12.97 -7.85,-9.02 -12.7,-20.12 -12.93,-34.02 z m 17.58,-1.61 c 13.63,-6.48 22.89,6.25 52.5,3.25 20.63,-2.11 9.73,-4.89 18.52,1.83 -18.05,12.74 -54.81,4.42 -70.78,-5.08 z m 106.21,76.33 c -18.98,2.35 -19.92,7.66 -42.81,2.82 14.57,-10.43 17.58,-3.48 33.32,-8.83 12.93,-4.38 16.64,-11.33 26.84,-19.18 -8.13,15.74 -12.5,10.86 -17.35,25.19 32.85,-9.02 43.95,-55.74 60.82,-73.79 63.64,50.67 -39.1,140.9 -39.33,140.9 -53.44,2.07 -62.7,-8.55 -69.18,-57.15 15.97,2.54 38.44,1.41 47.69,-9.96 z" /><path
         id="path76"
         style="fill:#ec3e35;fill-opacity:1;fill-rule:evenodd;stroke:none"
         d="m 1135.59,2340.51 c 3.24,7.65 0,89.8 -0.71,109.45 -11.33,13.67 -22.22,12.97 -41.64,17.58 -4.65,-37.46 -16.91,-43.48 -10.9,-81.92 2.54,-16.87 1.88,-25.89 15.04,-34.92 10.43,-7.18 24.3,-13.86 38.21,-10.39 z" /><path
         id="path78"
         style="fill:#52362a;fill-opacity:1;fill-rule:evenodd;stroke:none"
         d="m 1016.64,1799.57 29.38,-19.65 15.03,17.81 15.04,-4.84 c 5.36,-19.22 -7.61,-18.75 9.5,-26.37 7.42,-3.24 25.23,-7.65 34.72,-8.12 l 22.42,50.9 c -20.82,5.11 -37.93,7.89 -58.75,13.2 -19.68,5.08 -37.26,12.5 -55.54,16.17 -5.08,-11.09 -10.16,-23.12 -11.56,-39.29 z" /><path
         id="path80"
         style="fill:#52362a;fill-opacity:1;fill-rule:evenodd;stroke:none"
         d="m 1007.85,1728.55 c 21.76,-13.63 69.42,-32.38 99.49,-32.38 2.07,20.12 9.26,40.71 9.96,53.21 l -45.35,11.56 c -2.77,-14.57 -0.23,-14.57 -10.66,-24.73 l -12.27,3.44 c -5.31,15.74 -1.6,15.27 -2.3,31.25 l -32.38,16.64 -6.25,-58.99 z" /><path
         id="path82"
         style="fill:#000000;fill-opacity:1;fill-rule:evenodd;stroke:none"
         d="m 2136.45,506.949 c 23.16,-3.469 48.35,-1.398 65.97,12.031 l 0.67,77.739 c -1.84,0 -60.82,-16.68 -61.06,-16.68 -12.03,-5.551 -8.36,-59.449 -5.35,-73.09 z" /><path
         id="path84"
         style="fill:#6ba9d8;fill-opacity:1;fill-rule:evenodd;stroke:none"
         d="m 2043.24,2351.88 c 20.12,10.85 28.21,48.35 106.17,69.84 15.04,4.18 33.32,3.94 45.36,10.9 -31.25,37.93 -144.61,-15.74 -148.52,-25 l -3.24,-55.74 z" /><path
         id="path86"
         style="fill:#ffffff;fill-opacity:1;fill-rule:evenodd;stroke:none"
         d="m 1458.79,2557.77 c 10.43,3.71 7.85,2.54 9.96,-6.95 -21.05,1.17 -5.55,2.34 -9.96,6.95 z m -43.28,12.97 27.3,-12.03 c -19.88,-11.56 -8.32,6.72 -35.39,7.38 -2.3,-14.33 3.95,-17.11 11.1,-25.66 17.14,-1.64 31.01,0.23 47.89,-3.01 39.33,-7.19 42.11,-8.55 62.5,6.96 10.15,7.61 11.56,6.91 15.93,17.1 -23.36,18.75 -12.26,-13.86 -36.99,-3.47 8.79,9.72 12.27,5.54 17.35,17.81 -16.45,5.78 -34.73,-7.62 -59.93,-5.55 -22.93,1.84 -42.11,21.53 -50,0.71 z" /><path
         id="path88"
         style="fill:#000000;fill-opacity:1;fill-rule:evenodd;stroke:none"
         d="m 1446.05,2846.29 76.14,-3.71 c -2.07,50.47 -8.79,60.15 -69.42,53.24 -5.78,-11.56 -10.86,-33.32 -6.48,-49.77 z" /><path
         id="path90"
         style="fill:#141616;fill-opacity:1;fill-rule:evenodd;stroke:none"
         d="m 1407.66,2566.09 c 27.07,-0.66 15.27,-18.94 35.39,-7.38 l -27.31,12.03 c 7.66,20.82 27.07,1.14 50,-0.7 25.2,-2.07 43.48,11.33 59.92,5.55 -5.11,-12.27 -8.55,-8.32 -17.34,-17.82 24.73,-10.39 13.63,22.46 36.99,3.48 -4.37,-10.2 -5.78,-9.49 -15.93,-17.11 -20.4,-15.51 -23.17,-13.91 -62.5,-6.95 -16.88,3.01 -30.75,1.4 -47.9,3.01 -6.91,8.55 -13.39,11.32 -11.09,25.66 z m -11.8,-8.08 c 18.52,-36.33 38.4,-22.89 82.38,-30.55 27.27,-4.84 57.58,-6.48 77.74,30.55 -6.25,16.44 -18.99,21.99 -36.8,29.84 -29.61,-3.94 -39.8,-17.11 -69.41,-6.25 -31.25,11.56 -45.12,5.55 -53.68,-23.59 z" /><path
         id="path92"
         style="fill:#ec3e35;fill-opacity:1;fill-rule:evenodd;stroke:none"
         d="m 2130,136.762 c 2.54,-3.481 -0.47,-3.711 7.15,-12.032 3.01,-3.25 6.01,-5.32 9.49,-8.32 21.76,-20.16 63.63,-49.7694 90,-67.578 3.71,-2.5429 6.95,-3.7109 11.09,-6.4922 15.75,-9.9179 25.47,-18.039 42.82,-25.1914 47.42,-20.16012 152.26,11.8008 195.74,39.1016 9.96,6.25 11.33,7.1484 13.87,18.9492 -13.4,-5.3203 -7.86,-8.789 -43.01,-25.4297 -39.81,-18.75 -126.33,-39.80856 -164.96,-24.0703 -28.24,11.3321 -98.36,59.9219 -123.56,80.7498 -13.43,10.852 -24.76,21.52 -38.4,30.313 z" /><path
         id="path94"
         style="fill:#52362a;fill-opacity:1;fill-rule:evenodd;stroke:none"
         d="m 993.75,1738.05 c -4.648,30.07 0,36.33 -0.469,61.75 l -14.101,6.72 c -6.02,-14.33 0,-9.96 -11.129,-19.41 -35.629,10.86 4.41,29.61 -21.531,44.65 -1.129,-1.41 -7.848,2.77 -7.379,-28.71 0.238,-14.34 3.48,-18.95 10.859,-28.91 9.961,-13.44 23.398,-32.15 43.98,-36.33 z" /><path
         id="path96"
         style="fill:#52362a;fill-opacity:1;fill-rule:evenodd;stroke:none"
         d="m 1497.19,1849.57 2.11,-26.84 c 26.13,-1.64 24.49,6.92 30.08,22.89 l 23.12,-5.78 c 9.96,16.68 21.76,16.21 13.87,42.35 -5.55,2.07 6.95,5.08 -6.72,1.17 l -26.84,-15.98 c -11.79,-6.25 -24.49,-10.43 -35.62,-18.04 z" /><path
         id="path98"
         style="fill:#52362a;fill-opacity:1;fill-rule:evenodd;stroke:none"
         d="m 971.762,1840.55 c 22.218,-15.75 -3.242,-16.21 21.519,-31.02 9.259,6.02 19.219,25.47 21.759,36.56 l -59.919,25.47 c -3.012,-6.95 -10.199,-20.62 -7.66,-28.47 2.07,-6.25 5.777,-7.43 9.73,-7.43 17.809,0.24 -7.191,4.42 14.797,4.42 z" /><path
         id="path100"
         style="fill:#ffffff;fill-opacity:1;fill-rule:evenodd;stroke:none"
         d="m 1695.23,2007.11 c 36.33,7.42 61.57,69.41 57.62,97.66 -21.76,-25.71 -5.31,15.97 -29.61,-43.95 -7.85,-18.98 -21.52,-38.67 -27.77,-53.71 z" /><path
         id="path102"
         style="fill:#52362a;fill-opacity:1;fill-rule:evenodd;stroke:none"
         d="m 1533.28,1826.21 c 6.72,-16.91 3.71,-0.94 9.49,-15.27 -19.65,-11.56 -9.25,-5.78 -20.35,5.78 l -21.76,-5.78 -8.78,-37.74 c 23.82,6.49 16.87,17.82 45.11,26.37 26.84,8.13 25.47,8.83 31.02,40.98 -16.45,-7.43 -16.45,-13.21 -34.73,-14.57 z" /><path
         id="path104"
         style="fill:#ec3e35;fill-opacity:1;fill-rule:evenodd;stroke:none"
         d="m 943.98,2258.16 c 24.071,-2.77 60.4,38.64 24.77,73.13 -5.078,-7.66 -24.77,-62.5 -24.77,-73.13 z m 59.5,206.61 c 50.43,-20.82 31.21,-44.89 46.95,-71.49 41.17,30.78 57.85,142.97 -31.02,142.07 l -15.74,-70.58 z m -3.25,-10.63 c 3.91,-7.66 -2.109,-1.17 4.61,-6.48 l 21.29,-10.9 c -2.3,13.2 -13.43,21.99 -25.9,17.15 z m -3.468,-131.87 c 46.248,11.09 51.828,109.18 3.468,117.5 -10.191,-17.58 -12.5,-43.01 -18.98,-63.6 -8.32,-26.4 -0.941,-35.19 15.512,-53.9 z" /><path
         id="path106"
         style="fill:#f2f4f2;fill-opacity:1;fill-rule:evenodd;stroke:none"
         d="m 1318.59,2915.94 c 1.84,3.47 7.15,-7.42 -3.47,14.33 -13.91,28.01 7.38,45.59 13.63,63.87 -0.9,0.47 -2.07,0.94 -2.54,1.17 l -3.48,1.6 c -0.23,0.24 -1.36,0.71 -1.83,0.94 3.94,15.51 8.32,12.27 7.85,28.67 -56.91,-51.13 -29.84,-68 -10.16,-110.58 z" /><path
         id="path108"
         style="fill:#f6f6f6;fill-opacity:1;fill-rule:evenodd;stroke:none"
         d="m 1677.42,2942.07 c 2.78,11.8 8.13,20.35 13.44,30.78 -4.88,14.1 -29.84,48.83 -38.2,53.2 0.23,-5.07 2.57,-36.56 5.35,-42.77 l 12.26,-29.65 c 3.68,-9.45 2.07,-5.78 7.15,-11.56 z" /><path
         id="path110"
         style="fill:#e8b484;fill-opacity:1;fill-rule:evenodd;stroke:none"
         d="m 1572.85,2689.41 c -11.09,-10.39 0.24,-2.77 -16.64,-7.61 -16.91,-4.85 -6.48,-1.41 -11.6,-6.96 33.09,-1.36 21.99,-16.4 47.46,9.96 12.93,13.4 20.59,17.58 28.2,38.4 l -23.12,3.48 c 0,-15.98 -6.25,-36.56 -24.3,-37.5 z" /><path
         id="path112"
         style="fill:#101010;fill-opacity:1;fill-rule:evenodd;stroke:none"
         d="m 1507.62,2614.22 c -23.6,-3.67 -7.89,-13.63 -35.2,-16.41 -17.58,9.03 -8.32,15.51 -27.73,17.11 10.62,-36.33 59.22,-33.79 62.93,-0.7 z" /><path
         id="path114"
         style="fill:#0d0b0e;fill-opacity:1;fill-rule:evenodd;stroke:none"
         d="m 1424.77,2507.81 c 11.56,-6.72 17.38,-1.87 40.74,-6.48 16.87,-3.24 27.3,-7.42 39.33,-0.71 -8.36,10.2 -14.14,5.08 -37.03,9.5 -8.79,1.6 -11.09,2.54 -20.35,2.77 -25.47,0.94 -20.16,-3.24 -22.69,-5.08 z" /><path
         id="path116"
         style="fill:#141616;fill-opacity:1;fill-rule:evenodd;stroke:none"
         d="m 2588.32,2109.38 c 1.64,3.24 9.02,-3.25 -2.07,20.39 -11.56,24.29 -14.57,15.03 -18.98,38.16 -3.01,16.21 -1.37,13.4 -13.64,19.65 0.9,-8.09 25.2,-68.71 26.14,-70.55 5.31,-10.19 -1.61,-3.71 8.55,-7.65 z" /><path
         id="path118"
         style="fill:#52362a;fill-opacity:1;fill-rule:evenodd;stroke:none"
         d="m 1574.92,1898.16 7.89,-21.52 c 9.73,9.49 1.84,6.25 7.85,15.98 5.55,9.02 6.49,3 16.45,11.56 l -0.94,22.42 c -13.63,-3.48 -12.03,-19.65 -31.48,-28.44 z" /><path
         id="path120"
         style="fill:#ec3e35;fill-opacity:1;fill-rule:evenodd;stroke:none"
         d="m 1219.8,1084.41 -2.34,2.58 c -28.91,-6.72 -44.41,-3.01 -72.85,-6.72 11.56,-14.33 74.26,-7.85 75.19,4.14 z M 1033.09,927.34 c 52.5,17.82 59.45,111.06 58.04,163.79 -0.43,15.28 -2.3,20.59 -3.67,32.62 -1.87,14.8 1.37,18.52 -8.36,26.84 -38.4,-43.48 -6.91,-56.45 -19.41,-140.43 -8.79,-58.281 -15.28,-51.371 -26.37,-82.82 z m 55.5,235.28 c 24.3,-72.62 4.42,-121.21 11.8,-139.5 13.2,14.81 21.76,65.24 30.31,88.17 10.2,26.83 3.25,68.71 -12.26,91.83 -12.03,-6.95 -24.3,-28.9 -29.61,-40.7 z m 112.93,88.63 c -13.2,-3.01 -35.43,0 -47.89,-6.48 5.08,-4.61 -2.58,-2.78 7.62,-5.08 8.32,-1.88 25.23,1.36 35.86,0.7 14.57,-16.68 5.31,-57.15 2.77,-80.55 l -52.26,-1.6 c -2.35,-34.72 -8.6,-53.9 -7.19,-66.87 12.5,-3.95 34.45,-3.01 50.66,-1.14 23.83,2.78 26.84,4.38 39.81,20.59 17.34,21.52 32.15,49.26 40.94,80.51 20.35,73.36 9.25,58.51 -24.3,136.48 -6.25,14.61 -9.02,35.2 -14.57,46.06 -6.02,-3.95 -30.55,-37.7 -33.56,-45.35 -8.32,-20.12 4.18,-50.43 2.35,-77.27 z" /><path
         id="path122"
         style="fill:#d4d1d4;fill-opacity:1;fill-rule:evenodd;stroke:none"
         d="m 1430.31,2693.83 c -11.79,7.62 -10.62,-0.71 -34.22,0.23 -9.96,13.4 -5.78,18.05 -28,15.04 1.64,-4.18 -1.37,-10.43 24.53,-19.92 6.01,-2.3 22.22,-4.38 28.9,-2.3 13.68,4.17 5.36,3.24 8.79,7.18 z" /><path
         id="path124"
         style="fill:#ec3e35;fill-opacity:1;fill-rule:evenodd;stroke:none"
         d="m 1109.18,2334.73 c -1.84,0.93 -22.89,15.97 -24.49,17.81 -8.36,8.36 -6.96,23.63 -12.74,36.8 -18.75,-21.29 14.34,-52.97 37.23,-54.38 z" /><path
         id="path126"
         style="fill:#e8b484;fill-opacity:1;fill-rule:evenodd;stroke:none"
         d="m 1307.03,2720.2 c 3.44,21.75 -7.42,40.93 -19.45,50.66 -1.41,-13.4 10.86,-43.01 19.45,-50.66 z m 67.54,-52.5 c 12.27,0 12.03,0.42 23.13,3.24 14.8,3.67 13.2,2.54 21.52,9.02 -23.36,0.9 -68.24,14.1 -55.51,36.99 l -18.28,1.88 c 4.14,-25.47 18.95,-34.26 29.14,-51.13 z m 90.7,-218.91 c -7.18,9.49 -4.88,12.26 0,19.45 9.26,-5.78 11.33,-14.8 0,-19.45 z m -40.5,59.02 c 2.53,1.84 -2.78,6.25 22.69,5.08 9.26,-0.47 11.56,-1.17 20.35,-2.77 22.89,-4.42 28.67,0.7 37.03,-9.5 -12.03,-6.71 -22.22,-2.77 -39.33,0.71 -23.36,4.61 -29.18,-0.24 -40.74,6.48 z m -28.91,49.96 c 8.55,29.14 22.42,35.16 53.67,23.6 29.61,-11.1 40.04,2.34 69.42,6.25 17.81,-7.85 30.54,-13.4 36.79,-29.85 -19.92,-37.22 -50.43,-35.39 -77.73,-30.54 -43.75,7.65 -63.63,-5.78 -82.39,30.54 z m 111.99,56.21 c -3.71,-32.85 -52.3,-35.39 -62.93,0.71 19.42,-1.6 10.16,-8.09 27.74,-17.11 27.3,2.77 11.6,12.73 35.19,16.4 z m -146.25,13.44 c -2.77,-4.18 -0.9,-5.31 -3.9,-9.02 0.46,-0.94 1.13,-1.17 1.36,-2.54 0.71,-3.48 6.72,-4.65 8.79,-18.05 -12.69,3.24 -6.91,4.38 -16.64,12.03 -5.31,-9.49 -9.26,-37.73 -9.96,-49.53 -0.7,-16.17 57.85,-116.83 70.59,-121.68 6.25,-2.54 59.45,-4.65 75.19,-6.25 59.92,3.01 50.9,17.82 78.87,57.15 15.51,21.76 49.3,63.17 59.72,82.58 l -15.5,40.74 c -11.8,-6.72 -7.42,-8.55 -18.28,-11.33 0.89,15.47 3,3.44 7.14,20.36 -12.03,10.62 -83.51,50.66 -99.02,51.36 l -5.78,-29.61 c -3.48,-11.79 1.87,-0.7 -6.02,-8.79 -2.77,12.46 -2.3,12.7 0,26.84 7.89,48.55 -28.67,12.46 -63.39,-6.02 -13.17,-6.95 -52.04,-27.3 -62.93,-28.24 z m -33.32,-52.97 c 11.13,12.03 3.24,-2.57 8.13,22.89 1.6,8.09 5.31,16.64 7.38,24.77 -3.67,11.33 -13.87,30.08 -25.67,35.86 -0.46,-14.57 -3.94,-34.73 -2.53,-46.76 1.36,-13.63 8.79,-24.49 12.69,-36.76 z m 285.08,47.43 c 4.61,-8.09 13.4,-30.55 20.12,-38.4 15.27,15.93 14.33,60.58 14.57,86.05 -15.28,-7.62 -27.07,-36.56 -34.69,-47.65 z m 15.7,41.87 -2.54,2.3 c -10.62,-6.95 -25.43,-24.76 -26.36,-38.16 8.32,3.24 5.31,0.94 10.62,5.78 6.25,5.55 15.27,23.13 18.28,29.85 z m 33.56,37.93 c 17.81,11.13 28.71,48.59 30.31,77.97 -6.48,-3.67 -5.78,-0.67 -14.34,-13.63 -3.94,-5.79 -6.95,-10.67 -10.19,-18.29 -5.78,-13.67 -8.09,-29.14 -5.78,-46.05 z m 3.47,64.34 c 6.25,3.94 18.29,21.28 22,27.53 -20.16,27.07 -24.07,-6.01 -22,-27.53 z m -382.93,27.53 24.77,-32.85 c 9.02,20.12 0.23,43.01 -14.34,50.43 -9.49,-6.95 -7.61,-4.65 -10.43,-17.58 z" /><path
         id="path128"
         style="fill:#52362a;fill-opacity:1;fill-rule:evenodd;stroke:none"
         d="m 1578.4,1806.05 26.6,3.95 c -3.44,23.36 -6.02,18.05 -10.86,21.05 -9.26,-12.03 -12.26,-11.56 -15.74,-25 z" /><path
         id="path130"
         style="fill:#f4f1f1;fill-opacity:1;fill-rule:evenodd;stroke:none"
         d="m 1057.62,1746.13 c 5.78,9.49 14.33,32.42 7.15,40.98 -11.1,-10.9 -11.57,-31.02 -10.16,-36.56 0.19,-0.71 1.13,-1.88 1.37,-2.31 0.23,-0.47 1.17,-1.4 1.64,-2.11 z" /><path
         id="path132"
         style="fill:#efefef;fill-opacity:1;fill-rule:evenodd;stroke:none"
         d="m 1239.69,2038.12 43.47,13.87 c -1.83,1.64 5.36,8.83 -24.96,0.94 -14.8,-3.95 -14.14,-3.71 -18.51,-14.57 z" /><path
         id="path134"
         style="fill:#ec3e35;fill-opacity:1;fill-rule:evenodd;stroke:none"
         d="m 870.66,2043.67 -8.32,30.78 c -6.481,-4.41 -11.602,-4.61 -8.121,-15.97 0,-0.24 3.711,-6.25 4.41,-6.92 6.492,-6.72 3.012,-3.01 12.269,-7.89 z" /><path
         id="path136"
         style="fill:#101010;fill-opacity:1;fill-rule:evenodd;stroke:none"
         d="m 1486.8,2379.84 c 13.16,4.42 15.27,15.04 15.27,28.25 -11.37,-3.95 -8.59,-0.24 -13.67,-13.64 -2.31,-5.82 -3.48,-9.49 -1.6,-14.61 z" /><path
         id="path138"
         style="fill:#e9ebe9;fill-opacity:1;fill-rule:evenodd;stroke:none"
         d="m 1566.6,2698.91 2.31,-3.91 c 12.26,4.38 15.74,6.02 18.28,20.59 -22.89,-2.35 -10.86,-4.42 -20.59,-16.68 z" /><path
         id="path140"
         style="fill:#666666;fill-opacity:1;fill-rule:evenodd;stroke:none"
         d="m 1514.34,1999.73 c 14.57,-10.67 15.7,-12.74 30.5,-14.81 -9.92,22.19 -9.68,1.6 -18.94,19.88 -0.7,-0.7 -2.11,-0.7 -2.54,-1.83 z" /><path
         id="path142"
         style="fill:#efefef;fill-opacity:1;fill-rule:evenodd;stroke:none"
         d="m 964.57,1797.5 c 6.481,8.09 8.36,20.59 6.719,33.79 -6.488,-8.09 -13.168,-23.13 -6.719,-33.79 z" /><path
         id="path144"
         style="fill:#d6d6d6;fill-opacity:1;fill-rule:evenodd;stroke:none"
         d="m 1530.98,2687.34 c 3.24,-5.31 15.74,-2.07 21.52,3.01 l -5.78,7.66 c -13.67,-1.88 -10.43,-1.88 -15.74,-10.43 z" /><path
         id="path146"
         style="fill:#52362a;fill-opacity:1;fill-rule:evenodd;stroke:none"
         d="m 1586.95,1841.48 c 18.75,18.72 2.35,18.05 0,19.18 -0.9,-1.6 -9.45,-2.07 0,-19.18 z" /><path
         id="path148"
         style="fill:none;stroke:#52362a;stroke-width:0.69410199;stroke-linecap:butt;stroke-linejoin:miter;stroke-miterlimit:4;stroke-dasharray:none;stroke-opacity:1"
         d="m 1586.95,1841.48 c 18.75,18.72 2.35,18.05 0,19.18 -0.9,-1.6 -9.45,-2.07 0,-19.18 z" /><path
         id="path150"
         style="fill:#1d1d1c;fill-opacity:1;fill-rule:evenodd;stroke:none"
         d="m 1465.27,2448.79 c 11.33,4.65 9.26,13.67 0,19.45 -4.88,-7.19 -7.18,-9.96 0,-19.45 z" /><path
         id="path152"
         style="fill:#adadad;fill-opacity:1;fill-rule:evenodd;stroke:none"
         d="m 1667.03,3025.16 c -3.71,21.05 -1.64,12.93 -8.55,20.58 0,-0.23 -5.82,2.07 -2.11,-10.43 3.71,-11.79 6.72,-8.08 10.66,-10.15 z" /><path
         id="path154"
         style="fill:#272727;fill-opacity:1;fill-rule:evenodd;stroke:none"
         d="m 1756.09,2513.36 0.47,-5.08 c 11.1,6.92 9.03,4.14 13.64,15.04 -12.93,-2.58 -7.86,1.84 -14.11,-9.96 z" /><path
         id="path156"
         style="fill:#6e7171;fill-opacity:1;fill-rule:evenodd;stroke:none"
         d="m 1626.52,2666.52 2.54,-2.3 7.19,11.33 c -10.63,-3.01 -4.18,1.17 -9.73,-8.79 z" /><path
         id="path158"
         style="fill:#d8dbd9;fill-opacity:1;fill-rule:evenodd;stroke:none"
         d="m 1603.4,1875.7 c -5.08,10.43 1.17,5.08 -7.66,7.89 0.94,-9.25 -5.54,-3.71 7.66,-7.89 z" /><path
         id="path160"
         style="fill:#747479;fill-opacity:1;fill-rule:evenodd;stroke:none"
         d="m 1219.8,1084.41 9.46,10.9 -11.8,-8.08 z" /></g></g></svg>