<?xml version="1.0" encoding="UTF-8" standalone="no"?>
<svg
   xmlns:dc="http://purl.org/dc/elements/1.1/"
   xmlns:cc="http://creativecommons.org/ns#"
   xmlns:rdf="http://www.w3.org/1999/02/22-rdf-syntax-ns#"
   xmlns:svg="http://www.w3.org/2000/svg"
   xmlns="http://www.w3.org/2000/svg"
   xmlns:xlink="http://www.w3.org/1999/xlink"
   xmlns:sodipodi="http://sodipodi.sourceforge.net/DTD/sodipodi-0.dtd"
   xmlns:inkscape="http://www.inkscape.org/namespaces/inkscape"
   viewBox="0 0 894.45194 1347.1944"
   width="894.45197"
   height="1347.1943"
   version="1.1"
   id="svg491"
   sodipodi:docname="deadpool.svg"
   inkscape:version="0.92.4 (5da689c313, 2019-01-14)">
  <metadata
     id="metadata497">
    <rdf:RDF>
      <cc:Work
         rdf:about="">
        <dc:format>image/svg+xml</dc:format>
        <dc:type
           rdf:resource="http://purl.org/dc/dcmitype/StillImage" />
        <dc:title></dc:title>
      </cc:Work>
    </rdf:RDF>
  </metadata>
  <defs
     id="defs495" />
  <sodipodi:namedview
     pagecolor="#ffffff"
     bordercolor="#666666"
     borderopacity="1"
     objecttolerance="10"
     gridtolerance="10"
     guidetolerance="10"
     inkscape:pageopacity="0"
     inkscape:pageshadow="2"
     inkscape:window-width="1366"
     inkscape:window-height="715"
     id="namedview493"
     showgrid="false"
     fit-margin-top="0"
     fit-margin-left="0"
     fit-margin-right="0"
     fit-margin-bottom="0"
     inkscape:zoom="0.11901099"
     inkscape:cx="1391.9897"
     inkscape:cy="597.21928"
     inkscape:window-x="-8"
     inkscape:window-y="22"
     inkscape:window-maximized="1"
     inkscape:current-layer="svg491" />
  <style
     id="style2">.st0{clip-path:url(#SVGID_2_)}.st1{fill:#fff}.st2{fill:#010101}.st3{fill:#7e2829}.st4{fill:#984334}.st5{fill:#f5825a}.st6{fill:#fea}.st7{fill:#423e38}.st8{fill:none}.st9{fill:#8b735b}.st10{fill:#d5563d}.st11{fill:#505251}.st12{fill:#fffef9}.st13{fill:#423f3d}.st14{fill:#eebb75}.st15{fill:#bc8d5a}.st16{fill:#bcc7c2}.st17{fill:#888988}.st18{fill:#b08b6c}.st19{fill:#474441}.st20{fill:#ea6849}.st21{fill:#f8a16c}</style>
  <g
     id="Layer_1"
     transform="matrix(0.99394595,0,0,0.99394595,-546.67027,-44.230595)">
    <defs
       id="defs5">
      <path
         id="SVGID_1_"
         d="M 0,-5.5 H 2000 V 1399.9 H 0 Z"
         inkscape:connector-curvature="0" />
    </defs>
    <clipPath
       id="SVGID_2_">
      <use
         overflow="visible"
         xlink:href="#SVGID_1_"
         id="use7"
         style="overflow:visible"
         x="0"
         y="0"
         width="100%"
         height="100%" />
    </clipPath>
    <g
       class="st0"
       clip-path="url(#SVGID_2_)"
       id="g146">
      <path
         d="M 1001.5,1068.5 V 2283.4"
         class="st1"
         id="path10"
         inkscape:connector-curvature="0"
         style="fill:#ffffff" />
    </g>
    <g
       class="st0"
       clip-path="url(#SVGID_2_)"
       id="g488">
      <path
         d="m 916.2,1011.7 21.2,35.3 165.9,-13 40.2,-52.2 v -83.3 l 51.5,-29.7 -7.6,-81.1 12.7,-73.3 -53.8,-5.6 -58.6,-99.1 -44.7,-14.3 -96.6,70.3 -47.5,17.7 -38.7,59.3 18.8,125.9 z"
         class="st3"
         id="path148"
         inkscape:connector-curvature="0"
         style="fill:#7e2829" />
      <path
         d="m 885.8,762.2 11.8,65.8 28.3,18.5 c 0,0 52.5,-27.1 52.5,-28.9 0,-1.8 46.5,-26.6 47,-28 0.5,-1.4 7.7,6.8 7.7,6.8 0,0 -0.9,33.4 0,31.6 0.9,-1.8 6.8,-35.7 6.8,-35.7 0,0 -1.4,-26.6 0,-28.4 1.4,-1.8 9.4,1.4 9.4,1.4 v 29.4 l 4.3,7.7 -4.3,11.7 c 0,0 15.9,15.4 16.8,14.9 0.9,-0.5 29.3,10.8 29.3,10.8 0,0 19.9,-4.1 19.4,-5.9 -0.5,-1.8 11.7,-20.8 11.7,-20.8 l 26.7,-7.9 23.5,4.3 3.5,-36.1 -10.7,-6.5 v -14.7 l -56.6,-26.5 22.5,-6.9 h -59.5 l -17.4,-25.9 -50.6,23.4 -58,-9.4 -33.6,3.7 54.3,7.7 c 0,0 -10.5,4.3 -10.2,2.2 0.3,-2.1 29.7,7.6 29.7,7.6 l -57.2,-5.4 c 0,0 36.8,10 37.5,9.1 0.7,-1 62.3,4.6 62.8,3.6 0.5,-1 46.3,-2.3 46.3,-2.3 l -31.7,18.3 -18.2,-6.4 -24.7,-1.6 z"
         class="st4"
         id="path150"
         inkscape:connector-curvature="0"
         style="fill:#984334" />
      <path
         d="m 1008.1,831.7 -46.7,10.2 54.3,2.8 c 0,0 3.6,-14 2.8,-13 -0.9,1 -10.4,0 -10.4,0 z"
         class="st4"
         id="path152"
         inkscape:connector-curvature="0"
         style="fill:#984334" />
      <path
         d="m 1053.5,753 -4.3,12.2 c 0,0 -1.4,11.4 0,11 1.4,-0.4 66.6,36.1 66.6,36.1 0,0 -9.9,13.8 -9.9,14.2 0,0.4 -13.5,4 -13.5,4 l -34.6,-22.1 c 0,0 -15.2,-3 -14.2,-5.3 1,-2.3 -4.8,1.1 -4.8,1.1 l 10.3,9.8 34.9,21.3 11.3,4.4 19.4,-5.9 c 0,0 3.2,-23.8 5.4,-23.2 2.2,0.6 6.3,2.4 6.3,2.4 l 26.7,-7.9 -15.6,-36.8 5.9,-9.7 h 22.1 l -28.4,-22.1 -24.4,-10.8 -20.8,-3.1 -16.2,-3.7 c 0,0 -27.6,-21.2 -26.3,-21.8 1.3,-0.6 -25.1,21.8 -25.1,21.8 l -25,1.9 c 0,0 34.3,4.3 35.6,4 1.3,-0.3 62.9,4.3 62.9,4.3 l -2.2,7.5 z"
         class="st5"
         id="path154"
         inkscape:connector-curvature="0"
         style="fill:#f5825a" />
      <path
         d="m 917.7,871 c 0.5,-1 12.3,11.1 12.3,10.1 0,-1 18,1.7 18.2,0 0.2,-1.7 12.1,-8.1 12.1,-8.1 0,0 14.9,1 16.1,1 1.2,0 13.7,11.1 13.7,11.1 l 21.7,38.6 23.4,-1.5 5.4,-6.9 -3.5,-20.4 c 0,0 -3.8,-8.6 -4,-9.6 -0.1,-1 3.9,-13.2 4,-14.3 0.1,-1.2 5,-5.1 5,-5.1 h 7.8 c 0,0 5,23.9 4.7,24.6 -0.2,0.7 -2,21.4 -2,21.4 0,0 17.5,5.2 17.5,4.4 0,-0.7 22.6,-39.9 22.6,-39.9 l 16,-2.7 4.4,3.7 18,-11.6 c 0,0 -9.8,-3.4 -9.8,-5.2 0,-1.7 3.7,-8.1 3.7,-8.1 l -8.4,-7.8 -28.8,2.9 -31.5,5.9 -29.3,4.2 h -10.6 l -13,-6.4 -46,4.4 z"
         class="st4"
         id="path156"
         inkscape:connector-curvature="0"
         style="fill:#984334" />
      <path
         d="m 925,893.3 8,6.4 6.4,61.2 86.6,12.6 c 0,0 4.7,-10.2 3.7,-9.9 -1,0.3 -33.2,-5.4 -33.2,-6.4 0,-1 -19.2,-7.9 -19.1,-8.6 0.1,-0.7 3.3,-8.4 3.3,-8.4 l 64.2,7.6 c 0,0 22.4,3.9 21.4,4.4 -1,0.5 -18.1,13.5 -19,13.3 -0.9,-0.2 53.4,14 53.4,14 l 20.6,2.3 c 0,0 3.7,-36.8 3.6,-36.2 -0.1,0.6 -52.7,4.2 -52.7,4.2 l -3.4,-3 c 0,0 56.7,-6.9 56.8,-7.9 l 5,-49.9 -65,42.8 -2.5,3.6 c 0,0 -2.7,-7 -3.4,-7.5 -0.7,-0.5 -9.9,0.7 -9.9,0.7 0,0 -1.4,15.3 -1.4,14.5 0,-0.8 -6.9,-2.3 -6.9,-2.1 0,0.2 -1.7,-7.3 -1.7,-7.3 l -14.3,1.7 c 0,0 -10.8,0.1 -11.3,0 -0.5,-0.1 -9.4,-6.3 -9.4,-6.3 l -38.3,-26.5 c 0,0 -28.6,-8.7 -28.9,-9.4 -0.3,-0.7 -12.6,0.1 -12.6,0.1 z m 12.4,107.1 c 0,-0.2 39,-14.2 38.9,-14.7 -0.1,-0.5 94.7,2.7 94.4,1.7 -0.3,-1 37.9,3.4 37.9,3.4 0,0 -37.2,23.1 -37.9,22.4 -0.7,-0.7 -89.3,8.9 -89.3,8.9 0,0 -43.1,0.6 -43.1,0 0,-0.6 -0.9,-21.7 -0.9,-21.7 z"
         class="st4"
         id="path158"
         inkscape:connector-curvature="0"
         style="fill:#984334" />
      <path
         d="m 919.4,693.7 -38.7,54.1 12.7,120.4 39.5,31.4 c 0,0 7.4,163 6.7,158.1 -0.7,-4.9 -6.7,35.9 -6.7,35.9 0,0 -33.5,66.9 -35.5,64.9 -2,-2 -78.3,56.9 -78.3,56.9 l -83.6,93.7 c 0,0 -36.8,29.4 -37.5,27.4 -0.7,-2 -19.4,4.7 -19.4,4.7 0,0 59.6,-137.8 59.6,-141.2 0,-3.3 -4.7,-98.4 -4.7,-98.4 l -14.1,0.7 -12,-15 15.4,-11.4 c 0,0 7,-72.3 7.4,-73.5 0.4,-1.2 37.8,-9.7 37.8,-9.7 l 4.4,-22.9 50.3,-6.8 4.8,-53.9 -13.3,-82.9 -19.6,-62.2 -11.7,-2 -9.3,-6 -44.6,53.9 -115.8,61.9 -30.2,-7.2 -33,-49.9 c 0,0 31.4,-90.1 31.8,-91.3 0.4,-1.2 10.1,-23.3 10.5,-24.5 0.4,-1.2 17.3,-16.9 17.7,-18.1 0.4,-1.2 22.5,-52.7 22.5,-52.7 l 26.9,-51.5 4.4,-37.8 24.9,-61.5 21.3,-37.4 20.5,-18.5 38.2,-15.5 47.1,-8.2 34.2,-5.6 c 0,0 116.4,-34.4 116.4,-34.5 0,-0.1 -0.3,4.7 -0.3,4.7 l -48.8,24.7 -4.6,55.6 6.6,162 v 89.1 z"
         id="path160"
         inkscape:connector-curvature="0" />
      <path
         d="m 944.4,156.8 27.3,6.2 22.6,9.9 -18.7,-1.3 -15.7,19.2 2.6,63.2 24.6,66.7 18.2,30 32.9,31.3 22.4,4.8 89.9,-6.9 -9.3,25.5 -69.3,7 -30,-17.3 -34,-31.6 -23.3,-38.6 -27.5,-72.2 -10.8,-48.2 z"
         class="st3"
         id="path162"
         inkscape:connector-curvature="0"
         style="fill:#7e2829" />
      <path
         d="m 1150.5,146.8 -27.5,32.7 -5,28.3 4.5,13.6 43.2,-32.8 10,-38.2 z"
         class="st6"
         id="path164"
         inkscape:connector-curvature="0"
         style="fill:#ffeeaa" />
      <path
         d="m 1075.9,368.6 -15.3,18.2 11.3,19.8 c 0,0 13.9,2.6 14.2,1.3 0.3,-1.3 25.2,-8.3 25.2,-8.3 h 28.3 l 10.8,-19.7 -18.5,-7.2 z"
         class="st4"
         id="path166"
         inkscape:connector-curvature="0"
         style="fill:#984334" />
      <path
         d="m 1183.4,253.1 c -0.5,-3.6 0,-87.1 0,-87.1 l -13.9,-48.4 -16.5,-25.2 16.5,58.2 -23.2,22.2 -22.4,42.8 -11.1,47.4 v 12.4 l 2.6,34.5 8.5,43.3 c 0,0 5.9,17 8,19.6 2.1,2.6 18.5,7.2 18.5,7.2 l 16,-12.4 c 0,0 10.8,-49.5 10.8,-52 0,-2.7 6.2,-62.5 6.2,-62.5 z m -223.5,-62.3 2.7,63.2 24.6,66.7 18.2,30 32.9,31.3 22.4,4.8 15.3,-18.2 6.4,-21.1 V 285 l 7.9,-8 -5.1,-4.4 -9.3,-0.5 c 0,0 5.9,-4.8 6.5,-7.7 0.6,-2.9 -3.8,-21.1 -3.8,-21.1 l -8.8,16.6 -21.3,-46 -28.4,-29.4 -25.7,-11.8 -18.7,-1.3 z"
         id="path168"
         inkscape:connector-curvature="0" />
      <path
         d="m 989.7,65.1 48.5,-17.5 44.3,-3.1 39.1,17.5 31.4,30.4 7.8,25.2 -32.5,-3 z"
         class="st3"
         id="path170"
         inkscape:connector-curvature="0"
         style="fill:#7e2829" />
      <path
         d="m 966.9,89.9 22.8,-24.8 53.6,-9.7 h 35.1 c 0,0 38.6,16.4 39.1,14.9 0.5,-1.5 28.8,31.9 28.8,31.9 l 14.4,15.5 8.8,33 -20.1,5.2 -21.1,26.8 -10.3,25.2 6,7.7 -8,32.5 -3.1,14.9 v 12.4 l -13.4,9.8 -14.4,-12.4 -9.3,-0.5 -20.1,-40.2 c 0,0 -81.9,-67 -84,-69 -2.1,-2.1 -18,18 -18.5,16.5 -0.5,-1.5 -9.3,-19.6 -8.8,-22.7 0.5,-3.1 8.2,-47.4 8.2,-47.4 z"
         class="st5"
         id="path172"
         inkscape:connector-curvature="0"
         style="fill:#f5825a" />
      <path
         d="m 985.6,84.2 -25.7,24.7 23.6,15.4 18.2,10.5 12.8,14.3 53,-25.3 20.1,-4.6 22.2,37.1 6.9,-4 -17.8,-42.4 25.1,-13.7 -12.7,-24.4 -32.9,-16.4 -33,4.6 z"
         class="st6"
         id="path174"
         inkscape:connector-curvature="0"
         style="fill:#ffeeaa" />
      <path
         d="m 966.9,107.2 52,30 105.1,-41 -45.6,-40.8 z"
         class="st1"
         id="path176"
         inkscape:connector-curvature="0"
         style="fill:#ffffff" />
      <path
         d="m 1169.5,156.3 6.7,37.1 v 23.7 l -6.7,-8.2 v 9.8 l -29.9,25.2 32,-18.5 4.5,24.2 -3.1,17.5 -3.6,-10.3 c 0,0 -6.4,17.7 -6.4,18 0,0.3 6.4,-3.8 6.4,-3.8 0,0 3.1,40.6 3.1,39.3 0,-1.3 7.1,-59.2 7.1,-59.2 V 181 Z"
         class="st7"
         id="path178"
         inkscape:connector-curvature="0"
         style="fill:#423e38" />
      <path
         d="m 1130.8,265.8 c 1.3,-1 13.4,-10.9 14.7,-11.8 1.3,-1 14.2,-2.9 14.2,-2.9 l -3,7.3 -8.5,10.5 z M 1017,277.1 c 1.4,-0.2 14.3,-3 15.7,-3.3 1.4,-0.2 14.2,1.4 14.2,1.4 l -3.7,3.3 -9.5,3.9 z"
         class="st1"
         id="path180"
         inkscape:connector-curvature="0"
         style="fill:#ffffff" />
      <path
         d="m 1115.2,270.9 h 8.8 l 4.3,-1.9 2.6,5.1 c 0,0 -5.4,3.1 -5.2,3 0.1,-0.1 -10.5,-6.2 -10.5,-6.2 z"
         class="st8"
         id="path182"
         inkscape:connector-curvature="0"
         style="fill:none" />
      <path
         d="m 1128.3,280.8 2.5,10.2 -2.5,13.1 h 11.3 l 2.1,-14 -6.7,2.4 z"
         class="st9"
         id="path184"
         inkscape:connector-curvature="0"
         style="fill:#8b735b" />
      <path
         d="m 1154.1,279.5 c 0,0 -14.6,35.8 -14.5,34.8 0.1,-1 -11.4,-10.2 -11.4,-10.2 l 13.4,-14.1 z"
         class="st7"
         id="path186"
         inkscape:connector-curvature="0"
         style="fill:#423e38" />
      <path
         d="m 1072.7,191.4 c 1.3,-0.6 12.1,-15.3 12.1,-15.3 l 11.5,2.9 6.4,8.9 5.1,-2.2 7.3,-9.6 17.2,-5.9 -17.2,25.7 1.3,25.5 h 6.1 l -3.7,16.2 -3.6,-2.1 -5.1,2.1 5.9,10.4 -10,-5.8 c 0,0 1,20.4 1,19.5 0,-1 6,1.3 6,1.3 0,0 -7.6,3.8 -7.9,4.8 -0.3,1 -12.5,-0.6 -13.1,-1.6 -0.6,-1 -5.7,-24.6 -5.7,-24.6 0,0 -9.3,19.2 -10.9,18.5 -1.6,-0.7 -10.5,-18.2 -10.5,-18.2 l 14.9,-8.6 c 0,0 -15.5,-16.2 -29.4,-30.8 -11.2,-11.7 -21.3,-22.4 -21.6,-22.8 -0.6,-1 28.3,11.2 28.3,11.2 l 23.6,35.1 7.8,-2.2 c 0,0 9.6,19.5 9.6,18.5 v -38.6 z"
         class="st10"
         id="path188"
         inkscape:connector-curvature="0"
         style="fill:#d5563d" />
      <path
         d="m 1090.2,277.1 c 0.8,0.7 -7.9,8 -7.9,8 h 32.9 c 0,0 -2.6,-9.1 -2.3,-9.8 0.3,-0.7 -22.7,1.8 -22.7,1.8 z"
         class="st3"
         id="path190"
         inkscape:connector-curvature="0"
         style="fill:#7e2829" />
      <path
         d="m 1075.9,368.6 c 0,0 19.2,29.1 20.9,29.1 1.7,0 23.8,-2.9 23.8,-2.9 l 11.3,-22.2 -16.7,-87.6 h -32.9 v 62.5 z"
         class="st5"
         id="path192"
         inkscape:connector-curvature="0"
         style="fill:#f5825a" />
      <path
         d="m 1093.5,290.4 c 0,0 3.2,39.3 3.4,38 0.2,-1.3 11.3,2 11.3,0 0,-2 -6.4,-38 -6.4,-38 l -6.7,-5.3 z"
         class="st6"
         id="path194"
         inkscape:connector-curvature="0"
         style="fill:#ffeeaa" />
      <path
         d="m 977.2,182.8 c -0.3,1 10.2,55.9 10.2,55.9 l 8.3,7.7 -13.7,3.5 2.2,-5.4 -13.1,-15.6 -4.9,-16.1 -3.1,-10.2 3.7,-15.5 z"
         class="st9"
         id="path196"
         inkscape:connector-curvature="0"
         style="fill:#8b735b" />
      <path
         d="m 983.9,293.9 c -0.3,-1.6 -14.1,-44.1 -14.1,-44.1 0,0 -3.6,-33.2 -3.6,-37.2 0,-4 18,31.8 18,31.8 l -9,13.1 9,1.3 c 0,0 -2.6,21.1 -1.3,20.8 1.3,-0.3 34.2,10.9 34.2,10.9 l -11.5,-9.6 27.1,7.3 21.4,-12.4 5.1,1.3 -30.7,15.4 13.3,4.5 c 0,0 -16.1,12.3 -15.2,13.3 1,0.9 37,21.4 37,21.4 l -15,17.6 0.6,17.6 15.1,15.5 -16.6,-9.6 -7.4,-22.2 3.2,-16 -11.5,-3.5 c 0,0 -19.8,-19.7 -19.8,-20.7 0.2,-1.2 -28.3,-16.5 -28.3,-16.5 z"
         class="st7"
         id="path198"
         inkscape:connector-curvature="0"
         style="fill:#423e38" />
      <path
         d="m 1012.4,247.3 14.3,8 v -6.7 z"
         class="st8"
         id="path200"
         inkscape:connector-curvature="0"
         style="fill:none" />
      <path
         d="m 1045.4,262 21.2,13.1 5.3,-6.6 -12,-0.5 z m 19.1,17.2 c 0,0 2.8,3.7 3.1,5.8 0.3,2.1 -9.9,8.8 -8.9,10.1 1,1.3 10.2,-2.7 10.2,-2.7 0,0 10.2,17.4 10.2,16.4 v -16.4 l -7.2,-7.4 v -5.5 z"
         class="st7"
         id="path202"
         inkscape:connector-curvature="0"
         style="fill:#423e38" />
      <path
         d="m 975.3,257.5 4.2,8.9 4.8,-7.6 z"
         class="st8"
         id="path204"
         inkscape:connector-curvature="0"
         style="fill:none" />
      <path
         d="m 979.8,279.5 51.5,21.3 -1,-3.5 11.6,-0.3 -13.3,10.9 -15,-3.1 -14.4,-14.3 -17.3,-3 z"
         class="st9"
         id="path206"
         inkscape:connector-curvature="0"
         style="fill:#8b735b" />
      <path
         d="m 1025,294.1 c -0.5,-0.7 7.8,-5.9 7.8,-5.9 l -27.1,-7.3 11.5,9.6 z"
         class="st9"
         id="path208"
         inkscape:connector-curvature="0"
         style="fill:#8b735b" />
      <path
         d="m 963.3,269 0.5,4.1 7.7,65.6 36.4,24.8 -23.3,-38.6 z"
         class="st3"
         id="path210"
         inkscape:connector-curvature="0"
         style="fill:#7e2829" />
      <path
         d="m 972.1,310.7 c 0,0 20.4,42.4 20.2,42.3 -0.2,-0.1 -16,-10.9 -16,-10.9 z"
         class="st4"
         id="path212"
         inkscape:connector-curvature="0"
         style="fill:#984334" />
      <path
         d="m 970.9,333.2 -3.1,0.9 -1.5,28 33.3,26.3 39.1,14 13.7,-1.2 -10.5,-6.1 -34,-31.6 -36.4,-24.8 z"
         id="path214"
         inkscape:connector-curvature="0" />
      <path
         d="m 979.8,372.8 33.3,74.9 17.3,29.5 34.1,28.7 29,6.3 17.9,-7.4 28.3,-9.9 17.3,-22.4 2.7,-17.4 39.8,-1.1 -2.9,-26.4 -8.4,-31.7 c 0,0 -29.3,-9.2 -28.5,-7.4 0.7,1.8 -27.3,29 -27.3,29 l -53.3,0.4 -50.9,-29.4 z"
         class="st3"
         id="path216"
         inkscape:connector-curvature="0"
         style="fill:#7e2829" />
      <path
         d="m 970.9,342.2 1.2,20.5 c 0,0 11.3,10.5 12.1,9.9 0.8,-0.6 -2,-15.2 -2,-15.2 l 17.7,6.1 z"
         class="st11"
         id="path218"
         inkscape:connector-curvature="0"
         style="fill:#505251" />
      <path
         d="m 1166.4,367.5 v 9.5 l 21.8,18.9 8.4,31.7 c 0,0 -31.7,-31.6 -33,-29.9 -1.3,1.7 -18.3,64.6 -18.3,64.6 l 11.7,10.1 V 483 c 0,-3.1 -26.2,0.5 -26.2,0.5 0,0 -10.8,-13.2 -11.2,-14.5 -0.4,-1.3 17.2,-45.7 17.2,-45.7 l -31.2,54.1 9.7,11.9 -11.3,2.6 -7.1,-15.8 28.5,-46.3 -8.4,1.9 -28.6,25.5 15.5,-29 -35.1,-8.4 -21.4,-17.2 5,-1.3 19.5,11.2 69.3,-7 9.3,-25.5 z"
         id="path220"
         inkscape:connector-curvature="0" />
      <path
         d="m 921.3,388.4 42,-15.7 12,5 -3.2,16.1 -47.3,12.1 z"
         class="st8"
         id="path222"
         inkscape:connector-curvature="0"
         style="fill:none" />
      <path
         d="m 919.4,408.3 c 0.3,-1.2 61,-5.2 60.3,-5.8 -0.6,-0.6 0,-18.7 0,-18.7 l -6.7,-16.3 -51.7,21 z"
         class="st8"
         id="path224"
         inkscape:connector-curvature="0"
         style="fill:none" />
      <path
         d="m 916.8,420.5 c 0,-1.3 45.1,13.8 46.5,12.5 1.4,-1.3 10.6,-12.5 10.6,-12.5 l 5.9,35.2 -16.5,7.5 -50.4,-20.7 v 34.1 l 50.4,26.6 -43.9,101.3 v 89.2 h 13.2 l 114.8,-81.5 9.5,13.9 11.9,-11.6 53.1,96.4 19.7,11.6 h 52.6 l -40.1,-57.6 -85.3,-89.8 24.6,-63 -29,-6.3 -34.1,-28.7 -17.3,-29.5 -33.3,-74.9 -13.5,-10.7 -48.8,24.7 z"
         class="st4"
         id="path226"
         inkscape:connector-curvature="0"
         style="fill:#984334" />
      <path
         d="m 1000,437.6 13.4,39.5 -9.3,5.4 34.2,13.3 11,60.8 -20.8,61.2 c 0,0 -59.6,37.1 -60.5,35.5 -0.8,-1.7 -42.1,-44.6 -42.1,-44.6 l 10.8,-30.9 c 0,0 43.5,-45 43,-47.5 -0.5,-2.5 -16.4,-32.1 -16.4,-32.1 0,0 14.9,-13.3 16.5,-14.6 1.6,-1.3 -31.5,-14.6 -31.5,-14.6 l 7.6,-8.8 7.4,3 16.5,-7.5 z"
         class="st5"
         id="path228"
         inkscape:connector-curvature="0"
         style="fill:#f5825a" />
      <path
         d="m 999.6,388.4 c 0,0 40.2,90.9 39.3,89.2 -0.8,-1.7 1.3,-18.4 0,-20 -1.3,-1.6 -39.3,-69.2 -39.3,-69.2 z m 35.6,29.2 c 0,0 25,66.3 25.4,64.6 0.4,-1.7 3.9,-4.6 3.9,-4.6 0,0 0.5,16.1 0,14.1 -0.5,-2 17.4,-15.8 17.4,-15.8 l 6.5,-19 c 0,0 -19.4,22.8 -19.4,20.7 0,-2.1 -10.4,-30.9 -10.4,-30.9 0,0 3.2,29.2 3.3,27.5 -0.1,-1.5 -26.7,-56.6 -26.7,-56.6 z m 18.3,102.2 5,115.9 -26.3,54.2 -20,20 -86.3,-7.1 82,13.3 50.6,-23.4 c 0,0 7.5,-86.3 7.5,-87.6 0,-1.3 -2.1,-78.4 -2.1,-78.4 z m 81.9,199 c -2.6,-1.5 -56,-6.7 -56,-8 0,-1.3 -18.8,-14.2 -18.8,-14.2 l 15.3,22.1 h 59.5 z"
         id="path230"
         inkscape:connector-curvature="0" />
      <path
         d="m 1093.5,512.1 -24.6,63 85.3,89.8 c 0,0 16.2,-48.8 15.3,-50.2 -0.9,-1.4 -29.8,-119.9 -29.8,-119.9 z"
         class="st5"
         id="path232"
         inkscape:connector-curvature="0"
         style="fill:#f5825a" />
      <path
         d="m 1105.5,512.1 -26.2,50.3 33.5,44.4 c 0,0 24.8,19.6 24.8,18.2 0,-1.4 23.3,-8.9 23.3,-8.9 l -25.7,-70.7 V 500.7 L 1120,512 h -14.5 z"
         class="st6"
         id="path234"
         inkscape:connector-curvature="0"
         style="fill:#ffeeaa" />
      <path
         d="m 1188.2,395.9 6,-7.5 8.5,9.3 8.7,39.9 v 17.2 l -12,-0.9 -2.8,-26.4 z"
         class="st9"
         id="path236"
         inkscape:connector-curvature="0"
         style="fill:#8b735b" />
      <path
         d="m 1251.2,425.8 -48.5,-28.1 8.7,39.9 v 17.2 l 39.8,46 15.3,-8.9 z"
         class="st6"
         id="path238"
         inkscape:connector-curvature="0"
         style="fill:#ffeeaa" />
      <path
         d="m 1341,133.1 -138.3,264.6 41.2,23.9 L 1374,153 1361.3,137.2 Z"
         class="st11"
         id="path240"
         inkscape:connector-curvature="0"
         style="fill:#505251" />
      <path
         d="m 1225.3,397.7 c -0.6,-1.7 119.3,-247.5 119.3,-247.5 l 16.6,-13 -15.4,-3.1 -134.5,260.8 4.5,7.5 z"
         class="st12"
         id="path242"
         inkscape:connector-curvature="0"
         style="fill:#fffef9" />
      <path
         d="m 1238.1,386.8 c 1.1,-2.5 7.2,1 7.2,1 l 111.5,-226 -5,-5.6 -50.3,94.8 z"
         class="st12"
         id="path244"
         inkscape:connector-curvature="0"
         style="fill:#fffef9" />
      <path
         d="m 1220.9,408.3 10,-5.8 11.4,5.8 c 0,0 -4.9,11.2 -4.3,9.9 0.6,-1.3 -17.1,-9.9 -17.1,-9.9 z m 30.9,-26.1 -9.5,20.2 11.1,-10.1 z m 7.4,-13.6 1.2,9.4 12.3,-25.3 -1.8,-8.1 z m 17.4,-34.9 1.8,7.7 9.9,-22.8 -2,-5.7 z m 16.6,-33.4 1.8,6.9 13.9,-27.7 -3.3,-7.4 z m 17.5,-37.4 c 0,1.2 2.7,6.1 2.7,6.1 l 17.2,-34.4 -4.8,-3.9 z m 23.5,-45.8 2.7,3.6 21.7,-56 z m -209.4,376.6 c 0,0 16.8,26.7 17.7,24.3 0.8,-2.4 18.6,-1.9 18.6,-1.9 l -10.6,51.1 19,40.4 14.5,11.1 -14.5,33.4 v 14.7 l 33.2,20.6 31.9,17.7 31.9,-21 26.3,-30.7 27.7,-56.8 -14.3,-15.9 c 0,0 -16.4,-15.3 -17.7,-15.8 -1.3,-0.5 -7.1,2 -7.1,2 0,0 -5.9,-11.9 -7.1,-13.5 l -1.3,-1.6 -13.9,-3.4 -5,-34 12.3,-48.7 -9.4,-11.3 c 0,0 15.5,-46.6 15.5,-47.9 0,-1.3 -15.5,-19.3 -15.5,-19.3 l -25.6,-23.1 c 0,0 -15.5,-15.8 -15.5,-14.6 0,1.2 -56.3,5.8 -56.3,5.8 l -2.7,17.4 -17.3,22.4 1.6,20.5 -18,32.5 v 9.8 l 12.8,10.9 z"
         id="path246"
         inkscape:connector-curvature="0" />
      <path
         d="m 1126.5,554.3 8.5,8.7 4.9,-18.2 10.1,-7.5 27.3,8.9 25.4,1.1 12,10.9 -3.3,30.8 3.3,2.7 -6,18.5 7.6,7.8 -4.9,17.5 4.9,9.3 -4.9,7.9 v 23.7 l 4.9,-3.3 v -17.7 c 0,-0.8 5.9,-11.5 5.7,-12.3 -0.2,-0.8 -4.6,-7.9 -4.3,-8.7 0.3,-0.8 6,-17.2 5.7,-18 -0.3,-0.8 -6.5,-18 -6.5,-18 l 5.1,0.5 -1.6,-39 9.5,-13.4 -5.2,-13.6 -18.5,5.2 -6.4,-8.2 -37.2,7.6 -16.4,-4.9 -9.3,9.6 -4.1,5.1 -0.3,6.5 z"
         class="st7"
         id="path248"
         inkscape:connector-curvature="0"
         style="fill:#423e38" />
      <path
         d="m 1145.4,508.2 c 0,-1.1 18,-13.4 18,-13.4 l 22.1,9.8 6.6,-3.8 25.8,21.8 h 6 c 0,0 9.7,23.7 10.7,22.9 1,-0.8 13,-25.3 12.2,-25.8 -0.8,-0.5 -13.1,-7.5 -13.3,-7.7 -0.2,-0.1 -11.6,5.1 -11.6,5.1 l -5.8,-3.3 1.5,-11.4 -23.4,-18.3 -51.3,14.5 z"
         class="st7"
         id="path250"
         inkscape:connector-curvature="0"
         style="fill:#423e38" />
      <path
         d="m 1196.6,473 -2.4,11.2 -48.8,18 v -7.4 z"
         class="st9"
         id="path252"
         inkscape:connector-curvature="0"
         style="fill:#8b735b" />
      <path
         d="m 1202.7,474.4 -57.3,20.4 2.4,-3 47.1,-21.5 z"
         class="st6"
         id="path254"
         inkscape:connector-curvature="0"
         style="fill:#ffeeaa" />
      <path
         d="m 1161,470.3 c -0.9,-0.5 -1.8,12.3 -1.8,12.3 l 27.8,-12.3 7.1,-4.1 13.9,8.2 11.5,13.3 16.1,7.2 18.3,17.3 -7.1,30.2 15.8,-32.8 -12.8,-16.4 -12.5,-3.3 -15.3,-12.3 -14,-8.1 -6.1,-3.4 -8.7,-3.2 -12.8,7.4 z"
         class="st7"
         id="path256"
         inkscape:connector-curvature="0"
         style="fill:#423e38" />
      <path
         d="m 1163.9,505.2 -17.2,6.9 c 0,0 -21.3,39.1 -20.2,38.3 1.1,-0.8 0,3.8 0,3.8 l 6,-0.3 0.3,-6.5 13.4,-14.7 16.4,4.9 37.2,-7.6 -13.4,-8.8 c 0,0 -10.1,2.6 -10.1,1.3 0,-1.3 -6.8,-9 -6.8,-9 z"
         class="st9"
         id="path258"
         inkscape:connector-curvature="0"
         style="fill:#8b735b" />
      <path
         d="m 1162.2,518.7 c 0.4,-1.3 7.3,-5.1 7.3,-5.1 v -12.7 h -6.3 l -5.9,8.9 z"
         class="st6"
         id="path260"
         inkscape:connector-curvature="0"
         style="fill:#ffeeaa" />
      <path
         d="m 1232.3,514.3 -3.7,7.3 c 0,0 5.2,12.6 6,11.8 0.8,-0.9 6,-10.3 6.2,-11.1 0.2,-0.9 -8.5,-8 -8.5,-8 z"
         class="st9"
         id="path262"
         inkscape:connector-curvature="0"
         style="fill:#8b735b" />
      <path
         d="m 1162,672.7 14.8,10.7 h 13.1 c 0,0 17.1,-24.2 16.5,-24.2 -0.6,0 -2.4,-35.3 -2.8,-36.2 -0.4,-0.9 -18.6,-12.2 -19.4,-13.3 -0.8,-1.1 11.7,-16.9 12.4,-17.6 0.7,-0.7 -1.7,-30.8 -1.7,-30.8 0,0 8.2,4.1 7.8,3.2 -0.4,-0.9 1.1,-9.2 1.1,-9.2 l -16.5,-2.8 h -21.4 l -21.4,-6.9 -13.7,50.2 34.3,12.4 -6.9,56.7 z"
         class="st7"
         id="path264"
         inkscape:connector-curvature="0"
         style="fill:#423e38" />
      <path
         d="m 1161,576.5 c 0,0 -2.3,17.6 -1.8,16.9 0.6,-0.6 9.1,11.1 9.2,9.8 0.1,-1.3 3.5,-9 3.5,-9 z m 13,40.9 c 0,-0.2 20.6,38.8 20.2,39.4 -0.4,0.6 -2.5,19.1 -2.5,18.2 0,-0.9 11.6,-18 10.9,-18.8 -0.6,-0.9 -10.7,-31.1 -10.7,-31.1 z"
         id="path266"
         inkscape:connector-curvature="0" />
      <path
         d="m 1133.9,584 c 0,0 8.4,2.7 9,2.1 0.6,-0.6 4.9,-17.1 4.9,-17.1 l 13.2,10.9 c 0,0 20.9,-4.4 21.1,-5.5 0.2,-1.1 1.1,-5.4 1.1,-5.4 l 11.7,-7.7 7.8,3.2 1.1,-9.2 -16.5,-2.8 h -21.4 c 0,0 -21.8,-4.6 -21.4,-6.9 0.3,-2.3 -10.6,38.4 -10.6,38.4 z"
         class="st9"
         id="path268"
         inkscape:connector-curvature="0"
         style="fill:#8b735b" />
      <path
         d="m 1147,552.1 v 7.3 c 0,0 6.7,3.8 6.2,3.6 -0.5,-0.3 -0.3,-10.4 0,-10.9 0.3,-0.5 -6.2,0 -6.2,0 z"
         class="st6"
         id="path270"
         inkscape:connector-curvature="0"
         style="fill:#ffeeaa" />
      <path
         d="m 1196.6,592.1 -24.6,2.2 -7,13.9 19.1,1.5 z m -4.6,33 12.4,8.8 -0.9,-10.9 -19.4,-13.3 z m -13.9,0 c -0.6,-1.2 -14.6,-4.7 -14.6,-4.7 l -5.4,44.5 3.9,7.8 c 0,0 5.5,4 5.2,3.8 -0.2,-0.2 13.6,-14.9 13.6,-14.9 l 12.6,0.7 0.8,-5.4 z"
         class="st9"
         id="path272"
         inkscape:connector-curvature="0"
         style="fill:#8b735b" />
      <path
         d="m 1241.9,578 c 0,0 -1.3,55.9 -1.9,54.8 -0.6,-1.1 -5.8,-41.1 -5.2,-41.8 0.4,-0.6 7.1,-13 7.1,-13 z"
         class="st7"
         id="path274"
         inkscape:connector-curvature="0"
         style="fill:#423e38" />
      <path
         d="m 1004.8,509.9 25.3,47 -50.6,52.8 -63.3,-34.5 13.1,-46.6 z"
         class="st6"
         id="path276"
         inkscape:connector-curvature="0"
         style="fill:#ffeeaa" />
      <path
         d="m 1251.2,425.8 49,29 35,13 19.6,5.3 26.7,21.8 15.4,38.7 19.6,91.6 -8.7,50 13.9,96.5 c 0,0 0.4,8.2 0,7.8 -0.4,-0.4 7.5,5.7 7.5,5.7 l -4.5,12.3 -0.4,14.7 25.6,33.9 -2.6,75.3 -1.1,54.9 -24.1,18.8 c 0,0 -32.7,10.2 -33.9,10.5 -1.2,0.3 -40.3,-36.1 -40.3,-36.1 l -53.1,-30.9 -24.1,-33.9 -11.4,-38.4 c 0,0 -6.3,-33.1 -5.9,-34.2 0.4,-1.1 -19.3,44.4 -19.3,44.4 l -3.7,38 h 29 l 5.4,7.1 9.8,-3.4 13.5,16.6 c 0,0 6.8,36.9 4.9,36.5 -1.9,-0.4 7.6,4.4 7.6,4.4 0,0 2.9,29.5 3.3,29.9 0.4,0.4 -11.4,6 -11.4,6 l 8.2,27 -9.2,7.5 15.5,105.2 -6.3,10.9 c 0,0 -27.6,12.1 -28.2,10.3 -0.6,-1.7 25.3,77.6 25.3,75.9 0,-1.7 -52.9,15.5 -52.9,15.5 l -18.4,-46.6 -24.1,-33.9 -53.5,-58.1 -29.9,-120.7 11.5,-115.5 40.2,-18.4 9.9,-103.3 c 0,0 86.1,-120.7 87.4,-123 1.3,-2.3 0,-16.7 0,-19.3 0,-2.6 -7.5,-4.7 -7.5,-4.7 0,0 9.7,-5.6 10.3,-5.9 0.6,-0.3 -4.3,-84.7 -4.3,-84.7 z"
         id="path278"
         inkscape:connector-curvature="0" />
      <path
         d="m 1186.6,690 -1.3,8.1 c 0,0 14.4,16.9 14.8,16.3 0.4,-0.6 28.5,-12.2 28.5,-12.2 0,0 -28.9,24 -28.1,23.3 0.9,-0.6 30.8,-15 31.3,-15.9 0.5,-0.9 11.1,-14.6 11.1,-15.2 0,-0.6 -31.1,7.9 -30,7.5 1.1,-0.4 -12.9,1.7 -12.9,1.7 l -11.7,-7.1 z"
         class="st7"
         id="path280"
         inkscape:connector-curvature="0"
         style="fill:#423e38" />
      <path
         d="m 1211.4,676.5 36.9,-2.7 -48.2,30 c 0,0 11,-0.7 12.9,-1.7 1.9,-1 46.5,-32.8 46.5,-32.8 l -43.2,4 z m -17.2,46 -3.6,-2.3 -14.5,27 -2.2,15 h 8.9 l 46.9,-25.7 c 0,0 22,-26.1 21.8,-27.2 -0.2,-1.1 16.7,-28.3 16.5,-29.1 -0.2,-0.9 -4.9,-5.1 -4.9,-5.1 0,0 -18.6,31.7 -18.6,31 0,-0.7 -18.8,22.3 -18.8,22.3 0,0 -19.7,18 -20.3,17.8 -0.6,-0.2 -22.5,11.6 -22.5,11.6 0,0 -1.6,-2.1 -2.2,-2.8 -0.6,-0.6 0.9,-9 0.9,-9 z"
         class="st9"
         id="path282"
         inkscape:connector-curvature="0"
         style="fill:#8b735b" />
      <path
         d="m 1252.9,620.4 c 0,0 -2.4,33.1 -2.4,32.2 0,-0.9 6.1,6.7 6.1,6.7 v -10.9 c -0.1,-1.6 -3.7,-28 -3.7,-28 z"
         class="st7"
         id="path284"
         inkscape:connector-curvature="0"
         style="fill:#423e38" />
      <path
         d="m 1268.2,680.2 4.4,-17.5 c 0,0 -1.9,-9.2 -2.2,-9.2 -0.3,0 -9.7,-1.7 -9.7,-1.7 l 2.2,5.7 h 4.5 l 0.1,6.4 -4.3,11.2 z"
         class="st6"
         id="path286"
         inkscape:connector-curvature="0"
         style="fill:#ffeeaa" />
      <path
         d="m 1287.9,684 -16.9,-28.6 1.6,7.2 -4.4,17.5 -16.5,29.1 -21.8,27.2 -46.9,25.7 c 0,0 41.6,-13.4 41.6,-14.2 0,-0.8 29.2,-17.7 29.8,-18 0.6,-0.3 18.3,-29.2 18.3,-29.2 l -13.9,33.1 17.7,-25.1 c 0,0 -13.8,32.4 -13.3,32 0.5,-0.5 17.6,-26.2 17.6,-26.2 0,0 -14.8,31.6 -14,31.3 0.8,-0.3 18.2,-24.7 18.2,-24.7 0,0 -14,31.8 -13.8,31.3 0.2,-0.5 19.1,-27.9 19.1,-27.9 l -14.3,29.8 c 0,0 19.7,-15.2 19.9,-15.9 0.2,-0.6 15.6,-39.2 15.6,-39.6 v -10.6 c 0,0 -12.2,-4.1 -12,-4.9 0.2,-0.8 -9.1,-12.4 -9.1,-12.4 l -4.3,1.6 z"
         class="st13"
         id="path288"
         inkscape:connector-curvature="0"
         style="fill:#423f3d" />
      <path
         d="m 1234,797.3 11.4,-6.1 1.8,-5.1 z m -8.6,-4 2.3,1.7 15.2,-11.9 -2.3,-1.4 z m -7.2,-3.6 3.7,2 14.2,-12.1 -2.1,-1.2 z m -7.1,-4.6 3,2.6 16.3,-12.5 -2.5,-1 z m -5.9,-4.2 3,2.1 c 0,0 15.5,-11.4 16,-11.6 0.5,-0.2 -2.3,-0.9 -2.3,-0.9 z m -5.7,-4.1 2.6,2.5 14.8,-11.1 -2.8,-0.9 z m -5.9,-4.3 c 0,0 3.8,2.2 3.4,2 -0.4,-0.2 6.6,-5.8 6.6,-5.8 h -3.5 z m -6.2,-5.2 3.1,3.2 4.5,-3.2 z"
         class="st7"
         id="path290"
         inkscape:connector-curvature="0"
         style="fill:#423e38" />
      <path
         d="m 1292.4,494.8 c 1.5,-0.3 12.6,19.5 12.6,19.5 0,0 -6.4,-1.2 -7.5,-2.2 -1.1,-0.9 -9.1,-11.3 -9.1,-11.3 l -15.7,5.5 -4,-5.5 z m 58.9,42 c 0,1.5 4,24.4 4,24.4 0,0 -4.3,4.8 -4,4.7 0.3,-0.1 -4,-5 -3.7,-5.9 0.3,-0.9 0,-15.7 0,-15.7 z m -69.7,8.7 c 0,0 15.2,36 15.9,33.9 0.8,-2.2 -5.7,-27.4 -5.7,-28 -0.1,-0.7 -10.2,-5.9 -10.2,-5.9 z m -4.8,112.1 c 1,-2.1 12.7,-17.8 12.7,-17.8 l -8,27 z m 20.7,-0.2 c -0.5,-1.2 20.4,-13.9 20.4,-13.9 l 11.1,-3.7 c 0,0 -6.7,-3.9 -8.5,-4.9 -1.8,-1 -3.6,-2.1 -3.6,-2.1 0,0 8.1,-27 8.7,-29.6 0.6,-2.6 15.7,-27.9 15.7,-27.9 l -8,37.3 c 0,0 0.6,27.5 0.9,27.2 0.3,-0.3 15.4,2.8 15.4,2.8 l 26.2,-7.4 -18.4,10.6 15,11.6 -23.4,-8.3 -15.4,-1.2 c 0,0 3.6,30 3,27.2 -0.6,-2.8 -11.1,-23.3 -11.1,-23.3 z m 47,19.1 -6.5,6.5 17.3,20.7 z m 31.5,102.8 c 0.9,-3.8 10.8,-51.6 10.8,-51.6 0,0 16.7,62.2 16.7,60 0,-2.2 -27.1,2.1 -27.5,0.7 -0.4,-1.4 0,-9.1 0,-9.1 z"
         class="st13"
         id="path292"
         inkscape:connector-curvature="0"
         style="fill:#423f3d" />
      <path
         d="m 1421.7,790 2.8,-4.5 -13.4,-4.2 H 1371 c 0,0 8,4.6 7.5,4.3 -0.5,-0.3 29.3,-1.5 29.3,-1.5 z m 2.6,22 c 0,0 -1.7,18.1 -2,17.1 -0.3,-1 -17.6,-25.1 -17.8,-26.7 -0.2,-1.6 -12.7,-7.7 -12.7,-7.7 l 32.6,43.6 2,-23.4 z"
         class="st6"
         id="path294"
         inkscape:connector-curvature="0"
         style="fill:#ffeeaa" />
      <path
         d="m 1239.9,801.6 13.6,30.4 18.8,51.7 c 0,0 16,-2.3 16,-3.1 0,-0.8 -23.2,-28.8 -23.2,-29.6 0,-0.8 -5.9,-19.9 -5.9,-19.9 l 39.2,48.4 c 0,0 23,-7.4 22.1,-8.2 -0.9,-0.8 -23.9,-54.9 -23.9,-54.9 l 14.6,-77.5 -7.3,-8.4 -11.2,22.9 -26.3,30.7 z"
         class="st3"
         id="path296"
         inkscape:connector-curvature="0"
         style="fill:#7e2829" />
      <path
         d="m 1345.4,858.4 c -0.5,-1.3 -41.9,-77.5 -41.9,-77.5 l -14.4,40 22.3,54.3 c 0,0 18,-6.4 18.5,-7.2 0.5,-0.7 15.5,-9.6 15.5,-9.6 z"
         class="st4"
         id="path298"
         inkscape:connector-curvature="0"
         style="fill:#984334" />
      <path
         d="m 1307.7,725.6 c 0.5,0.4 48.9,55.4 48.9,55.4 l 33,19.1 -2.9,15.3 -15.7,19.9 -25.6,23.2 -41.9,-77.5 z"
         class="st5"
         id="path300"
         inkscape:connector-curvature="0"
         style="fill:#f5825a" />
      <path
         d="m 1338.3,778.4 11.4,18.9 21.3,5.1 15.8,13 2.8,-15.3 z"
         class="st4"
         id="path302"
         inkscape:connector-curvature="0"
         style="fill:#984334" />
      <path
         d="m 1371,835.2 c 1.6,-0.5 15.7,-19.9 15.7,-19.9 l -28.6,-23.6 -8.4,5.6 z"
         class="st3"
         id="path304"
         inkscape:connector-curvature="0"
         style="fill:#7e2829" />
      <path
         d="m 1272.3,886.4 h 16.8 l 4.6,25.5 51.7,38 c 0,0 14.8,25 15,23.9 0.2,-1.1 -52.2,-37.4 -52.2,-37.4 l -23.7,-23.9 z m 26.2,-6.9 32.9,42.5 c 0,0 -24.7,-40.2 -23.9,-41 0.8,-0.8 28.5,-11.2 28.5,-11.2 0,0 43.6,61.2 43.8,60.3 0.3,-0.9 -34.4,-66.1 -34.4,-66.1 l 37.4,-39.2 c 0,0 8,7.4 6.8,6.6 -1.2,-0.8 -4,13.4 -4,13.4 0,0 40.2,47.7 40.8,46.5 0.6,-1.2 -4.2,-41.3 -4.4,-42 -0.3,-0.8 -35.3,-33.9 -35.3,-33.9 l -15.7,19.9 -25.6,23.2 -15.5,9.7 -9.2,3.3 -9.2,3.9 z"
         class="st13"
         id="path306"
         inkscape:connector-curvature="0"
         style="fill:#423f3d" />
      <path
         d="m 1214.8,928.5 v 7 c 0,-0.9 -48.7,5.5 -48.7,5.5 l 44.3,-14.6 z"
         class="st7"
         id="path308"
         inkscape:connector-curvature="0"
         style="fill:#423e38" />
      <path
         d="m 1211.6,944.5 v 5.8 c 0,0 -35.6,16.6 -35.6,15.7 v 15.7 l -6.7,-1.7 v -14.6 c 0,0 4.7,-9.9 5,-10.8 0.2,-0.8 37.3,-10.1 37.3,-10.1 z"
         class="st14"
         id="path310"
         inkscape:connector-curvature="0"
         style="fill:#eebb75" />
      <path
         d="m 1183.6,978.9 -7.6,2.9 v -15.7 l 9.1,-3.7 z m 47.2,-48.8 v 30.1 h 5.9 v -21.5 l 14,-3 h 23 l 5.2,5.3 8.2,93 h 8.2 l -6.2,-23.9 -6.1,-73.2 -6.1,-8.4 z"
         class="st7"
         id="path312"
         inkscape:connector-curvature="0"
         style="fill:#423e38" />
      <path
         d="m 1231.8,921.3 c 0.5,-0.2 26,1.4 25.7,1.1 -0.2,-0.4 -12.9,3.4 -12.9,3.4 h -14.4 z"
         class="st11"
         id="path314"
         inkscape:connector-curvature="0"
         style="fill:#505251" />
      <path
         d="m 1245.1,918 c 0.6,-0.4 8.9,0 8.9,0 l 3.5,4.3 -25.7,-1.1 z m -10.1,12 5.6,3.7 c 0,0 35.5,-0.1 35.6,-1.2 0.1,-1.1 0.7,-7.4 0,-7.7 -0.7,-0.4 -22.5,1 -22.5,1 z m -1,43.2 c 0.6,-0.8 10,-6 10,-6 l 13.7,79.5 c 0,0 -10.6,6.5 -10.8,4.9 0,-0.4 -1.1,-6.9 -2.6,-15.9 -3.8,-23 -10.3,-62.5 -10.3,-62.5 z"
         class="st14"
         id="path316"
         inkscape:connector-curvature="0"
         style="fill:#eebb75" />
      <path
         d="m 1239.5,1048.4 c 0,-0.5 4.4,-14.4 4.4,-14.4 l 2.9,17.5 z"
         class="st9"
         id="path318"
         inkscape:connector-curvature="0"
         style="fill:#8b735b" />
      <path
         d="m 1234,973.2 -10,-3.5 c 0,0 7.9,-5.7 8.8,-5.1 0.9,0.6 11.2,2.5 11.2,2.5 z"
         class="st15"
         id="path320"
         inkscape:connector-curvature="0"
         style="fill:#bc8d5a" />
      <path
         d="m 1217.3,975.8 -4.8,5.4 8.4,0.6 c 0,0 7.6,53.1 7.4,52.2 -0.2,-0.8 -4,0.8 -4.4,0 -0.4,-0.8 -8.1,-50.1 -8.1,-50.1 l -103.5,6.9 -11.7,32.4 29.1,24.7 c 0,0 101,-8.5 100.4,-9.6 -0.6,-1.1 -0.6,7.3 -0.6,7.3 h 6.5 c 0,0 2.6,-4.8 2.4,-6 -0.2,-1.3 -9.5,-62.9 -9.5,-63.8 0.1,-0.9 -11.6,0 -11.6,0 z"
         class="st9"
         id="path322"
         inkscape:connector-curvature="0"
         style="fill:#8b735b" />
      <path
         d="m 1049.8,1000.4 c 0,-0.9 62.6,-9.5 62.6,-9.5 l -11.7,32.4 29.1,24.7 c 0,0 -72.3,11.5 -72.5,10.3 -0.2,-1.3 -7.5,-57.9 -7.5,-57.9 z"
         class="st14"
         id="path324"
         inkscape:connector-curvature="0"
         style="fill:#eebb75" />
      <path
         d="m 1049.8,1000.4 -13.6,-7.3 c 0,0 -73.6,13.8 -72.2,13.8 1.4,0 -5.1,11 -5.1,11 l 10.8,58.2 c 0,0 12.3,12.2 12.7,11.4 0.4,-0.8 66.3,-14 66.3,-14.9 0,-0.9 8.6,-14.3 8.6,-14.3 z"
         class="st16"
         id="path326"
         inkscape:connector-curvature="0"
         style="fill:#bcc7c2" />
      <path
         d="m 1035.1,1009.2 c 0.6,-1.3 14.7,-8.9 14.7,-8.9 l 7.6,57.9 c 0,0 -4.3,8.9 -4.5,8.2 -0.2,-0.6 -12.1,-9.1 -12.3,-9.9 -0.3,-0.8 -5.5,-47.3 -5.5,-47.3 z m -83.6,8.7 c 0,0 9.5,58.3 10.2,57.9 0.6,-0.4 14.9,0.9 14.7,0 -0.2,-0.9 -10.8,-57.9 -10.8,-57.9 z"
         class="st17"
         id="path328"
         inkscape:connector-curvature="0"
         style="fill:#888988" />
      <path
         d="m 976.3,1075.7 c 0,0 5.6,4.3 5.6,3.6 0,-0.7 64.7,-13.3 64.3,-14 -0.5,-0.7 2.3,-2.4 2.3,-2.4 l 4.3,3.5 -4.1,6 -66.3,14.9 -12.7,-11.4 z"
         class="st17"
         id="path330"
         inkscape:connector-curvature="0"
         style="fill:#888988" />
      <path
         d="m 951.5,1017.9 -91.3,25.2 c 0,0 42.4,15.6 42.7,15.3 0.3,-0.3 -37.4,39.3 -37.4,39.3 l 96.2,-21.9 z"
         class="st14"
         id="path332"
         inkscape:connector-curvature="0"
         style="fill:#eebb75" />
      <path
         d="m 893.7,367.8 c 0,-0.7 -63.3,-275.1 -63.3,-275.1 l -25.1,-3.4 c 0,0 -19.1,13.2 -18.7,14.4 0.4,1.2 65.8,285.6 66.3,284.7 0.4,-1 25.9,10.9 25.9,10.9 z"
         class="st11"
         id="path334"
         inkscape:connector-curvature="0"
         style="fill:#505251" />
      <path
         d="m 800.6,1059.4 c 0,0 6.9,56.5 6.9,55.4 0,-1.1 57.9,-17.2 57.9,-17.2 l 37.4,-39.3 -42.7,-15.3 z"
         class="st9"
         id="path336"
         inkscape:connector-curvature="0"
         style="fill:#8b735b" />
      <path
         d="m 812.3,491.9 c 0,-1 44.2,-86.1 44.2,-86.1 L 880.2,374.6 923.6,362 881,420.4 c 0,0 -36.6,77.6 -36.6,76.4 0,-1.2 -12.5,-16.1 -12.5,-16.1 z"
         class="st6"
         id="path338"
         inkscape:connector-curvature="0"
         style="fill:#ffeeaa" />
      <path
         d="m 793.4,542.3 c 0,-1.1 18.9,-50.4 18.9,-50.4 l 19.7,-11.1 12.5,16.1 -16.9,41.4 z"
         class="st15"
         id="path340"
         inkscape:connector-curvature="0"
         style="fill:#bc8d5a" />
      <path
         d="m 762.2,1098.2 c -0.1,-1 -2.5,-47.7 -2.5,-47.7 l 15.4,11.3 2.1,39 4.7,20.3 c 0,0 -6.5,10.2 -6.6,9.7 -0.1,-0.5 -6.2,-23.5 -6.1,-23.9 0.2,-0.3 -7,-8.7 -7,-8.7 z"
         class="st7"
         id="path342"
         inkscape:connector-curvature="0"
         style="fill:#423e38" />
      <path
         d="m 800.7,556.9 c 0,-1.2 -7.2,-14.6 -7.2,-14.6 l 34.2,-3.9 2.4,16.5 z"
         class="st9"
         id="path344"
         inkscape:connector-curvature="0"
         style="fill:#8b735b" />
      <path
         d="m 923.7,362.1 16.1,5.4 -22.9,10.8 -30.6,51.2 -23.7,43.3 -18.1,41.5 -2.4,5.5 v 9.3 h -6.4 l -5.7,25.8 -2.4,-16.5 16.9,-41.4 36.6,-76.5 z"
         class="st9"
         id="path346"
         inkscape:connector-curvature="0"
         style="fill:#8b735b" />
      <path
         d="m 908.7,437.6 c 0.7,-0.7 2.9,-17.9 2.5,-19.2 -0.3,-1.3 -12.2,-10.2 -12.2,-10.2 l -6.9,11.6 z"
         class="st7"
         id="path348"
         inkscape:connector-curvature="0"
         style="fill:#423e38" />
      <path
         d="m 809.6,98.3 -8.5,7.6 c 0,0 60.7,282.7 61,282.6 0.4,-0.1 -9.2,0 -9.2,0 L 793,105.8 l 8.9,-9.5 z"
         class="st12"
         id="path350"
         inkscape:connector-curvature="0"
         style="fill:#fffef9" />
      <path
         d="m 825.3,100 -10.6,11 8.5,6.6 8.5,52.6 c 0,0 7.2,3.6 6.8,0 -0.4,-3.6 -10.8,-57.5 -10.8,-57.5 l -5.3,-4.7 5.3,-3.8 z"
         id="path352"
         inkscape:connector-curvature="0" />
      <path
         d="m 871.1,372.8 c 0.8,-1.4 4.2,-9.3 4.2,-9.3 L 825,114.2 814.7,111 Z"
         class="st12"
         id="path354"
         inkscape:connector-curvature="0"
         style="fill:#fffef9" />
      <path
         d="m 755.9,1033.4 c 0,0 1.8,21.2 2.4,20.9 0.6,-0.3 8.3,10.2 8.3,10.2 l 9.5,-2.8 c 0,0 6.4,-2.6 6.4,-2.9 0,-0.3 -7.9,-26.9 -7.9,-26.9 0,0 -10.3,4.1 -10.4,3.6 -0.1,-0.5 -8.3,-2.1 -8.3,-2.1 z"
         class="st18"
         id="path356"
         inkscape:connector-curvature="0"
         style="fill:#b08b6c" />
      <path
         d="m 856.5,249 5.6,3 5.9,34.4 c 0,0 -6,-2.4 -5.8,-3 0.3,-0.6 -5.7,-34.4 -5.7,-34.4 z m 8.9,42.7 5.2,2.4 6.6,33.4 -5.9,-4.6 z m 8.6,39.6 5,3.7 4.7,23.9 -6.5,-3 z m -19.1,2.9 c 0.8,0 5,2.8 5,2.8 l 6.8,30.5 -5.9,-4.8 z m -7.7,-31.6 c 0,0.6 5,25 5,25 l 6.4,3.8 -5.7,-27 z m -11.2,-52.2 8.3,36 c 0,0 6.4,3.6 6,2.8 -0.4,-0.8 -6.8,-34.4 -7.1,-35 -0.4,-0.6 -7.2,-3.8 -7.2,-3.8 z m 9,-53.7 c 1.4,1 5.3,27.8 5.3,27.8 l 7.8,5.2 -7.8,-33 z"
         id="path358"
         inkscape:connector-curvature="0" />
      <path
         d="m 730.8,618 v 24.6 c 0,0 12.5,38.6 12.9,37.1 0.4,-1.5 -4.5,-35.9 -4.5,-35.9 0,0 7.6,24.6 7.9,23.5 0.4,-1.1 -4.9,-34.8 -4.9,-34.8 0,0 9.5,25.7 9.5,24.2 0,-1.5 -4.5,-34.1 -4.5,-34.1 0,0 9.8,27.3 9.8,26.3 0,-1 -1.9,-26 -1.9,-26 0,0 8.7,26.2 8.7,26 0,-0.2 -2.6,-22.6 -2.6,-22.6 0,0 9.5,23.9 9.5,22.6 v -22.6 c 0,0 6.4,29.9 6.8,28.8 0.4,-1.1 0,-21.9 0,-21.9 0,0 10.6,33.3 9.3,31.8 -1.3,-1.5 -4,-28.8 -4,-28.8 0,0 11.3,43.1 10.8,41.6 -0.5,-1.5 -4,-28.9 -4,-28.9 l 17.8,65.6 43.2,24.9 6.8,-31.7 -1.5,-19.7 -5.6,3.3 -1.2,27.5 c 0,0 -5.7,11.2 -6.1,9.7 -0.4,-1.5 -31.1,-20.8 -31.1,-20.8 L 790,597.9 Z"
         class="st11"
         id="path360"
         inkscape:connector-curvature="0"
         style="fill:#505251" />
      <path
         d="m 808.4,597.9 v -5.3 l -12.5,-3.4 -65.1,28.8 v 17.8 l 4.9,4.5 50.3,-25.5 25.7,92.9 -21.9,-109.8 7.9,-4.6 z"
         class="st9"
         id="path362"
         inkscape:connector-curvature="0"
         style="fill:#8b735b" />
      <path
         d="m 735,622.5 c 0,0 2.6,11.4 2.3,10.2 -0.4,-1.1 48.8,-20.8 49.2,-21.9 0.4,-1.1 0,-11.7 0,-11.7 z"
         class="st6"
         id="path364"
         inkscape:connector-curvature="0"
         style="fill:#ffeeaa" />
      <path
         d="m 797.4,561.6 c 0.4,1.1 -1.5,27.6 -1.5,27.6 l 6.1,1.7 v -23.6 l 23.8,-2.6 4.2,-9.7 -29.4,2 z"
         class="st11"
         id="path366"
         inkscape:connector-curvature="0"
         style="fill:#505251" />
      <path
         d="m 808.4,592.6 17.4,-28 -23.8,2.7 v 23.6 z"
         class="st15"
         id="path368"
         inkscape:connector-curvature="0"
         style="fill:#bc8d5a" />
      <path
         d="m 963.3,433 10.6,-12.6 5.9,35.2 -16.5,7.5 -50.4,-20.6 3.9,-22 z"
         class="st3"
         id="path370"
         inkscape:connector-curvature="0"
         style="fill:#7e2829" />
      <path
         d="m 919.4,693.7 c 0,0 6.1,-5.3 6.5,-6.1 0.4,-0.7 0.8,-72.8 1.8,-74.4 1.1,-1.6 0.9,-12.4 1.2,-13.2 0.3,-0.7 8.1,-2 8.3,-2.8 0.2,-0.7 -1.2,-13 -1.2,-13 0,0 16.5,-3.9 16.7,-4.5 0.2,-0.5 9.7,-18 9.7,-18 l 16.7,-14 6.2,-22.4 -22,-27.4 -5.1,-25.1 -9.9,-4.1 7.6,-8.8 -3.5,-18.3 -21.6,-8.7 -4.9,9.4 c 0,0 -14.2,40.2 -13,34.1 1.1,-6.1 -26.9,1.1 -26.9,1.1 0,0 -23.3,13.8 -23.3,14.1 0,0.3 -20.5,37.4 -20.5,37.4 l -35.4,86.8 19.1,60.4 z"
         id="path372"
         inkscape:connector-curvature="0" />
      <path
         d="m 917.1,476.2 4.2,1.5 13.3,-37.3 z"
         class="st7"
         id="path374"
         inkscape:connector-curvature="0"
         style="fill:#423e38" />
      <path
         d="m 881.4,484.5 6.3,-3.6 10.2,4.5 47.5,-7.4 3.1,3.9 5.6,7 v 13.3 c 0,0 -12.1,-10.2 -12.4,-10.3 -0.3,-0.1 -49.7,-1.8 -49.7,-1.8 z"
         class="st9"
         id="path376"
         inkscape:connector-curvature="0"
         style="fill:#8b735b" />
      <path
         d="m 892.1,490.1 33.8,-3.4 22.7,-4.9 5.6,7.1 v 13.3 l -12.4,-10.4 z"
         class="st8"
         id="path378"
         inkscape:connector-curvature="0"
         style="fill:none" />
      <path
         d="m 864.8,494.2 10.3,-5.2 16,6.8 19.5,-1.2 29.2,0.3 1,15 z"
         class="st9"
         id="path380"
         inkscape:connector-curvature="0"
         style="fill:#8b735b" />
      <path
         d="m 860.5,504.8 c 0.2,-0.5 4.3,-10.6 4.3,-10.6 l 33.2,6.8 42.8,8.8 7.5,50.4 c 0,0 -10.9,-45.9 -10.9,-46.4 0,-0.5 1.6,48.2 1.6,48.2 l 6.7,2.5 c 0,0 -7.9,4.5 -9.2,3.7 -1.2,-0.8 -1.9,-47.4 -2,-47.8 -0.2,-0.5 -23,-7.7 -23,-7.7 l -32.3,-1.2 z"
         class="st19"
         id="path382"
         inkscape:connector-curvature="0"
         style="fill:#474441" />
      <path
         d="m 854.3,507.1 -3.9,7 14.4,1.4 11.2,6.5 47.2,17.9 c 0,0 10.8,-10.4 10.5,-11 -0.3,-0.6 -2.4,-4.2 -2.4,-4.2 l -23.2,-8 h -30.2 c 0,0 -15.3,-8.8 -15.6,-9 -0.5,-0.3 -8,-0.6 -8,-0.6 z"
         class="st9"
         id="path384"
         inkscape:connector-curvature="0"
         style="fill:#8b735b" />
      <path
         d="m 850.4,514.1 c 0,0 -7.9,14.3 -7.5,13.5 0.4,-0.8 10.1,-3.3 10.1,-3.3 l 10.2,0.6 9.3,8.3 c 0,0 51.7,21.8 51.5,21 -0.2,-0.8 -0.9,-14.4 -0.9,-14.4 l -46,-15 -12.3,-9.3 z"
         class="st19"
         id="path386"
         inkscape:connector-curvature="0"
         style="fill:#474441" />
      <path
         d="m 838.7,537.4 13.5,-10 14.5,8.3 48.2,21.2 -9.3,9.7 -18.4,-3.2 -31.8,-19.7 -5.9,-5.3 z"
         class="st9"
         id="path388"
         inkscape:connector-curvature="0"
         style="fill:#8b735b" />
      <path
         d="m 855.4,543.7 1.8,22.9 -9.2,2.5 -5.1,6.1 -10.7,-1.1 v -9.5 l 6.5,-27.2 10.8,1 z"
         class="st8"
         id="path390"
         inkscape:connector-curvature="0"
         style="fill:none" />
      <path
         d="m 799.1,624.6 6.9,33.9 13.8,31.8 13.4,17.3 c 0,0 4.5,-1.4 4.6,-1.9 0.2,-0.5 3.5,-18.7 3.5,-18.7 l -9.1,9.9 -11.4,-15.2 -12.2,-23.8 1,-11 12.6,14.7 22.4,23.2 15.8,-2 11.8,-9.7 v -7 l -15.2,13 h -12.5 l -21.9,-22.1 -1.1,-15.5 12.5,14.6 13.4,0.6 22.4,-20.6 -7.2,-46.9 c 0,0 -9.1,10.5 -9.1,9.9 0,-0.7 -0.5,-21.6 -0.5,-21.6 l -5.1,-8.3 -5.1,6.1 -10.7,-1.1 1,27.5 -16.8,35.8 c 0,0 2.2,-39.5 2.6,-40.3 0.4,-0.8 10.3,-20.8 10.3,-20.8 l -14.4,19.5 -9.5,23.1 c 0,0 2.9,16 2.6,15.5 -0.3,-0.5 -5,-13 -5,-13 z"
         class="st7"
         id="path392"
         inkscape:connector-curvature="0"
         style="fill:#423e38" />
      <path
         d="m 832.2,574.1 10.7,1.1 5.1,-6.1 9.2,-2.5 -1.8,-22.9 -5.9,-5.3 -10.8,-1 -6.5,27.2 z"
         class="st7"
         id="path394"
         inkscape:connector-curvature="0"
         style="fill:#423e38" />
      <path
         d="m 821.1,633.9 c 0.2,-0.5 1.1,-27.2 1.4,-28.2 0.3,-1 9.6,-18.9 9.6,-18.9 V 574 l 10.7,1.1 5.1,-6.1 5.1,8.3 0.5,21.6 9.1,-9.9 6.8,44.1 c 0,0 -16,3.8 -15.9,3.1 0.2,-0.6 -10.2,-14.2 -10.2,-14.2 l -4.7,-3.8 -8.7,4 -1.5,10.4 z m -12.6,-12.3 c -0.2,-0.6 0.8,-5.6 0.8,-5.6 l 6.6,-3.8 0.4,25.3 5.7,9.4 0.7,10.3 -2.3,2.4 z m -9,5 2.5,-1.4 4.7,14.6 2,18.1 z"
         class="st9"
         id="path396"
         inkscape:connector-curvature="0"
         style="fill:#8b735b" />
      <path
         d="m 904.4,569.1 -5.5,6.1 7.6,3.4 -2.1,25.6 c 0,0 8.1,-15.5 8.4,-16.2 0.3,-0.7 3.3,-12.8 3.3,-12.8 z m -12.4,16.1 -1.8,10.2 -6.5,-1.8 z"
         class="st19"
         id="path398"
         inkscape:connector-curvature="0"
         style="fill:#474441" />
      <path
         d="m 879,610.4 c 0.2,0.7 1.2,5.5 1.2,5.5 0,0 23.3,4.9 24.2,3.9 0.9,-0.9 6.9,-0.5 7.2,-1.9 0.2,-1.4 4.6,-16.6 4.6,-16.6 0,0 -10.4,12.9 -10.4,12.2 0,-0.7 -22.4,-1.5 -22.4,-1.5 z m 2.6,21.5 c 0.7,-0.2 -4.8,30.5 -4.8,30.5 L 896,649.5 c 0,0 15.1,-12.6 15.3,-13.6 0.2,-0.9 4.8,-14.1 4.8,-14.1 l -6.5,5.5 -8.5,0.7 v 12 l -17.5,10.9 z"
         class="st19"
         id="path400"
         inkscape:connector-curvature="0"
         style="fill:#474441" />
      <path
         d="m 769.8,733.2 c 0.9,-0.2 24.2,25.4 24.2,25.4 0,0 6.1,-1.7 5.1,-2.9 -1.1,-1.2 -29.3,-22.5 -29.3,-22.5 z m 32.1,18.7 c 0,-0.7 3.2,-2.3 3.2,-2.3 l -28.4,-28.9 z m 8.8,-3.9 c -0.7,-1.4 3.5,-3.5 3.5,-3.5 L 794,723.8 Z m 9.2,-5.3 8.1,-3.3 -13.8,-9.6 6.9,9.6 -14.4,-10.5 z"
         class="st9"
         id="path402"
         inkscape:connector-curvature="0"
         style="fill:#8b735b" />
      <path
         d="m 806.7,776.2 13.6,56.2 36.9,64.8 v 5.3 c 0,0 -13.5,-4.9 -13.5,-6.6 0,-1.7 -19.7,-49.2 -19.7,-49.2 l 2.1,26.3 21.7,58.3 3.9,14.4 2.7,7.8 -26.4,-11.2 23.7,16.8 24,8.2 -47.7,-11.9 49.8,24.6 -49.8,-18 29.2,18 v 37.8 c 0,0 34.1,12.6 33.7,11 -0.4,-1.6 -2.9,-34 -2.9,-34 0,0 24,7 22.9,4.5 -1.1,-2.5 -3.6,-30.8 -3.6,-30.8 l 25.4,4.5 -27.5,-12.3 c 0,0 -3.3,-20.5 -4.5,-21.7 -1.2,-1.2 -28.1,-29.1 -28.4,-30.4 -0.3,-1.3 -12.2,-55 -12.2,-55 l -36.5,-30.4 z"
         class="st7"
         id="path404"
         inkscape:connector-curvature="0"
         style="fill:#423e38" />
      <path
         d="m 833.9,835.9 c 0.9,0.6 13.7,35.8 13.4,34.5 -0.3,-1.2 16.5,17.3 18.4,16.8 1.9,-0.5 -8.5,-31.1 -8.5,-31.1 z m 62.6,107.7 c 0,0 8.1,20.8 6.4,19.9 -1.7,-0.9 -39.7,-10.3 -40.3,-12.8 -0.6,-2.5 -30.5,-70.6 -30.5,-72.2 v -10 l 11.7,27.4 9.8,21.5 z"
         class="st9"
         id="path406"
         inkscape:connector-curvature="0"
         style="fill:#8b735b" />
      <path
         d="m 907.3,968.5 -2.8,4.9 -60.5,-19.8 c 0,0 32.8,5.3 33.8,5.9 0.9,0.5 29.5,9 29.5,9 z m -50.1,16.8 31.2,14.4 c 0,0 0.6,7.5 0.5,6.5 -0.1,-1 -31.7,-14.4 -31.7,-14.4 z"
         class="st6"
         id="path408"
         inkscape:connector-curvature="0"
         style="fill:#ffeeaa" />
      <path
         d="m 789.1,973.4 c 0.9,0 8.1,4.7 8.1,4.7 l 25.5,-2.3 v -7.9 z m -11.8,3.2 c 0.9,-0.3 21.7,10.6 23.3,10.6 1.6,0 6.9,11.5 6.9,11.5 l -0.8,19.2 c 0,0 5.4,-12.1 5.4,-13.3 v -14.3 l -8.6,-5 -21.3,-12.3 z"
         class="st15"
         id="path410"
         inkscape:connector-curvature="0"
         style="fill:#bc8d5a" />
      <path
         d="m 777.3,990.9 c 0,-1.6 -0.2,-9.1 0,-9.4 0.2,-0.4 4.9,-2.8 4.9,-2.8 l -4.9,-2 -3.2,1.6 c 0,0 -1.2,18.4 -1,17.3 0.2,-1.2 4.2,-4.7 4.2,-4.7 z"
         class="st7"
         id="path412"
         inkscape:connector-curvature="0"
         style="fill:#423e38" />
      <path
         d="m 741.8,1018.4 c 0.1,-0.5 0,-10 0,-10 l 12.6,-6.8 29.7,-4.9 5.6,15.8 1.7,20.9 -3.7,0.6 -5.5,-32 -25.9,3.2 -11.5,5.4 z"
         class="st15"
         id="path414"
         inkscape:connector-curvature="0"
         style="fill:#bc8d5a" />
      <path
         d="m 788.6,1045.9 c 0,-0.8 -0.8,-12 -0.8,-12 l 3.7,-0.6 1.1,11.8 z m -52.9,13.3 c 0.2,0.5 1.5,23.9 1.5,23.9 l -4.1,2.4 c 0,0 -2.7,-5.6 -2.9,-6.5 -0.2,-0.9 0,-12.1 0,-12.1 z m -13.8,24.6 -1.9,4.9 4.7,4.1 h 7.2 c 0,0 4.3,2.3 5.3,1.7 1,-0.7 10.5,-9 10.5,-9 v 9.1 l -4.8,9.4 -8,-7.7 c 0,0 -12.5,1 -12.7,0.5 -0.2,-0.5 -6.2,-6.1 -6.2,-6.1 l 0.7,-5.2 z"
         class="st7"
         id="path416"
         inkscape:connector-curvature="0"
         style="fill:#423e38" />
      <path
         d="m 741.8,1097.1 -4.6,-2.7 c 0,0 6.5,-9.9 6.5,-10.7 0,-0.8 -1,-60.6 -1,-60.6 l 5,25 v 37.4 l -1.7,8.4 z"
         class="st15"
         id="path418"
         inkscape:connector-curvature="0"
         style="fill:#bc8d5a" />
      <path
         d="m 751.2,1036.8 c 0.2,0.5 6.8,58.6 7.1,61.1 0.3,2.5 0.4,0.5 0.3,2.5 -0.2,2 0.2,2.3 -0.2,2 -0.4,-0.3 -3.8,10.4 -4.3,11.2 -0.5,0.9 -2.9,-76.8 -2.9,-76.8 z"
         class="st7"
         id="path420"
         inkscape:connector-curvature="0"
         style="fill:#423e38" />
      <path
         d="m 753.7,1176.7 c 0,-1.2 4.9,-11.7 4.9,-11.7 l -2.7,-73 -1.9,21.7 z"
         class="st15"
         id="path422"
         inkscape:connector-curvature="0"
         style="fill:#bc8d5a" />
      <path
         d="m 737.2,1107.5 c 0,0 4.7,92.6 4.5,92.6 -0.2,0 10.4,-17.9 10.4,-17.9 l -4.3,-50.3 -3.1,-9.7 c 0,0 -1.3,24.6 -1.3,23.9 0,-0.7 -6.2,-38.6 -6.2,-38.6 z m 12.5,87.9 v 4.7 l 8.6,-4.7 42.4,-2.9 z m -11.3,22.5 c 0.5,-0.5 9.5,-4 11.4,-4.8 1.8,-0.8 34.9,-6.3 34.9,-6.3 l -34.1,3 z"
         class="st7"
         id="path424"
         inkscape:connector-curvature="0"
         style="fill:#423e38" />
      <path
         d="m 827.6,408.3 -13.7,12.2 -18,6.8 c 0,0 10.6,2.4 10.8,2.3 0.3,0 23.3,-4.3 23.3,-4.3 l 8.7,7.8 -4.6,6.6 -13,-2.1 -12.6,12.3 -23.9,18.7 c 0,0 -3.3,39.1 -3,38.5 0.3,-0.6 -6.2,-15.6 -6.2,-18.1 0,-2.5 4.6,-40 4.6,-40 l 1.2,-6.8 -8.5,10.3 3.1,-9.7 -16,15.8 7.5,-17 -18.5,21.1 9.5,-19.9 c 0,0 -18.5,19.4 -18,18.5 0.5,-0.9 11.6,-20.6 11.6,-20.6 l -16.9,17 6.3,-15.7 c 0,0 -15.6,14.4 -15.1,13.7 0.5,-0.7 8.9,-15.9 8.9,-15.9 l -22.6,24.6 -14.7,29.7 -6.9,25.4 V 551 l 18,1.4 -18,4.4 26.3,7.7 -32.7,4.5 -21.8,35.5 -14.9,30.1 -2.8,28.6 -8.8,6.6 -17.3,6.2 2.1,-16.3 20.6,-39.5 15.6,-26.7 21.8,-31 v -5.6 h -6.2 l 2.6,-25.2 7.1,-17.6 31.7,-68.3 c 0,0 24.6,-18.5 24.8,-19.2 0.3,-0.7 88.6,-18.3 88.6,-18.3 z"
         class="st11"
         id="path426"
         inkscape:connector-curvature="0"
         style="fill:#505251" />
      <path
         d="m 841.7,405.9 -27.8,14.6 -14.4,-7.3 -17,9.8 17,12.4 -10.9,9.6 -11.8,-4.6 -6.9,-10.8 -34.9,3.5 -24.1,26.1 -17.9,37.8 -9.6,40.4 4.8,21.4 -10.5,-17.6 4.8,-27.2 c 0,0 20.6,-52.5 21.2,-55.6 0.6,-3.1 10.5,-16.7 10.5,-16.7 l 20.7,-18 36.3,-14 44.4,-7.9 z"
         class="st6"
         id="path428"
         inkscape:connector-curvature="0"
         style="fill:#ffeeaa" />
      <path
         d="m 807.7,433.1 h 5.2 c 0,0 -28.7,33.6 -29.9,33.3 -1.2,-0.2 0,-5.2 0,-5.2 z"
         id="path430"
         inkscape:connector-curvature="0" />
      <path
         d="m 821.1,429.5 c 1,0.6 7.4,3.5 7.4,3.5 l -7.4,4.5 -12.6,12.3 L 800,448 Z M 622.9,666.6 c 0,0 6.9,2.5 7.3,2.1 0.4,-0.4 4.5,-3.3 4.5,-4.7 0,-1.4 3.5,-23.9 4,-25.1 0.5,-1.2 21.1,-42.8 21.5,-43.8 0.4,-1 25.6,-29.8 25.6,-29.8 l -6.9,-2.8 -21.8,31 -23.2,48 z m 1.9,12.7 v 9 l -20.3,15.9 -10.9,20.6 -6.6,22 16.8,-3.1 c 0,0 22.7,-15.9 23.2,-16.6 0.5,-0.7 1.4,5 1.4,5 l -60.6,67 c 0,0 -8.8,19.4 -9.5,18.7 -0.7,-0.7 -3.3,-7.8 -3.3,-7.8 0,0 30.5,-67.7 30.8,-68.6 0.2,-0.9 9.5,-33.6 9.5,-33.6 l 17.3,-20.1 z"
         class="st6"
         id="path432"
         inkscape:connector-curvature="0"
         style="fill:#ffeeaa" />
      <path
         d="m 626.2,693.3 -1.4,-5 -17.7,9.9 -12.1,15.7 -11.1,38.3 -25.6,65.5 26.3,43.3 c 0,0 29.6,8.5 29.6,7.1 0,-1.4 94.4,-57.5 94.4,-57.5 l -73.8,35.7 c 0,0 -31.9,5.9 -31.9,5 0,-0.9 -11.1,-2 -11.1,-2 v -3.9 l 55.8,-31.9 22.5,-23.4 14.2,-2.6 -14.9,-12.8 2.8,9 -11.4,-5.4 5,10.8 -12.5,-8.8 c 0,0 6.6,14 5.9,13.3 -0.7,-0.7 -14.3,-8.3 -14.3,-8.3 l 5.3,13 -11.1,-8.3 3.8,12.5 -9.3,-7.3 3.9,14.2 -12.5,-9.5 c 0,0 3.1,15.4 3.5,14.7 0.5,-0.7 -9.5,-9.7 -9.5,-9.7 0,0 4,14.9 4,14 0,-0.9 -10.6,-9.2 -10.6,-9.2 l 4.3,13 -11.8,-11.1 2.8,15.6 -6.2,-7.8 c 0,0 -0.5,10.6 -0.2,9.7 0.2,-0.9 -4.7,2.4 -4.7,2.4 l -4.7,-4.7 -10.9,4 v -5 h -3.3 l -11.1,-13.3 6.2,-15.1 62.2,-69.8 -1.3,-5.7 -6.5,5.2 -33.4,15.4 5.7,-22 10.4,-16.3 z"
         class="st7"
         id="path434"
         inkscape:connector-curvature="0"
         style="fill:#423e38" />
      <path
         d="m 629.5,677.9 1.6,18.4 2.3,25.6 1.3,5.7 19.6,27.9 14.9,19.2 14.9,12.8 c 0,0 32.2,14 32.2,13.3 0,-0.7 27,-17.3 27.4,-18.2 0.5,-0.9 27.4,-30.6 27.4,-30.6 l -22,-35.9 -17.5,-40 -3,-29.3 z"
         class="st3"
         id="path436"
         inkscape:connector-curvature="0"
         style="fill:#7e2829" />
      <path
         d="m 676.2,690.5 -45,5.9 -1.7,-18.5 89.2,-26.5 2.2,88 -36.7,48.1 -14.9,-12.8 -34.6,-47.1 z"
         class="st4"
         id="path438"
         inkscape:connector-curvature="0"
         style="fill:#984334" />
      <path
         d="m 634.3,679.3 v 6 l 16.8,-3 62.2,-22.1 -71.9,17 z m 82.6,-10.6 v 36.2 l -46.7,39.3 -17.6,7.7 -13.7,-18.7 z"
         class="st5"
         id="path440"
         inkscape:connector-curvature="0"
         style="fill:#f5825a" />
      <path
         d="m 730.8,750.8 1.7,13.3 c 0,0 -22,12.7 -21.1,12.2 0.8,-0.6 19.4,-25.5 19.4,-25.5 z m -32,42.9 c -0.3,-0.1 36.5,-21.4 36.5,-21.4 l -20.6,21.4 -6.2,4.1 z"
         class="st4"
         id="path442"
         inkscape:connector-curvature="0"
         style="fill:#984334" />
      <path
         d="m 947.5,826.4 c -0.7,-1.3 -61.6,-64.3 -61.6,-64.3 l 69.5,-21.4 c 0,0 46.5,-2 47.4,-3.6 1,-1.6 26.4,0 26.4,0 l 7.8,10.2 c 0,0 -7,4 -6.8,3.9 0.2,-0.1 -11.5,-7.3 -11.5,-7.3 0,0 -14.5,14.9 -13.5,14.9 1,0 13.3,35 13.3,35 l -40.1,23.7 -14.7,8.9 z"
         class="st5"
         id="path444"
         inkscape:connector-curvature="0"
         style="fill:#f5825a" />
      <path
         d="m 963.9,776.2 c -0.7,-1.8 -13.5,-22.4 -13,-24.4 0.5,-2.1 43.4,-13.3 43.4,-13.3 l 10.5,10.9 -1.3,17.5 15,27.1 c 0,0 -7.4,4.9 -6.9,4.1 0.5,-0.8 -15.6,-28.3 -15.6,-28.3 z"
         class="st6"
         id="path446"
         inkscape:connector-curvature="0"
         style="fill:#ffeeaa" />
      <path
         d="m 1089.8,841.3 c -2.7,-1.6 -32.5,-9.6 -32.5,-9.6 h -46 l -6.6,13.1 h 10.9 l 66.9,1.7 z m -128.4,19.6 17.1,8.6 15.8,13.1 14.9,29.3 25.9,-3.5 -8.4,-31.7 6.3,-8.1 4,-2.8 -1.9,-3.4 -13.1,2.7 -12.5,-2 -8.1,-9.3 z m 76.9,-0.2 c 0.7,-0.7 16.7,3.2 16.7,3.2 0,0 20.7,-2.6 20.7,-3.3 0,-0.7 9.1,-3.8 9.1,-4.6 0,-0.8 -2.2,-4.4 -2.2,-4.4 l -21,4.7 z m -73.1,97.9 c -1,-2.2 -32.2,-59 -32.2,-59 l 4.7,-6.5 c 0,0 31.7,2 32,1.2 0.2,-0.7 37.2,29.3 37.2,29.3 l -5.2,10.1 12.6,1.6 22.8,4.5 6,5.2 c 0,0 -33,-3.7 -33.5,-5.4 -0.5,-1.7 -26.6,-0.5 -27.1,-1.7 -0.5,-1.2 -9.4,-9.8 -10.1,-10.1 -0.7,-0.3 -8.4,8.9 -8.4,8.9 v 14 c 0,-1 24,9.8 24,9.8 l 39.8,8.8 -1.8,4.1 -86.6,-12.6 z M 1141,884.2 c -0.1,0.1 -10.4,4.7 -10.4,4.7 0,0 -1.8,18.5 -1.7,17.3 0.1,-1.2 -9.8,-3.2 -9.8,-3.2 l -14.9,11.1 -19.4,5.1 -9.4,12.4 -12.3,3.8 4.4,-10 c 0,0 20.2,-12.8 20.2,-13.5 0,-0.7 34.2,-27.7 34.2,-27.7 z m -91.2,63.4 9.4,-7.7 66.4,-1 -56.8,7.9 z"
         class="st5"
         id="path448"
         inkscape:connector-curvature="0"
         style="fill:#f5825a" />
      <path
         d="m 1059.2,957.4 32,19.7 9.5,2.5 20.6,2.3 2.3,-22.7 c 0,0 -19.1,-0.1 -19.4,-1.8 -0.3,-1.7 -7.9,-7.3 -7.9,-7.3 z"
         class="st4"
         id="path450"
         inkscape:connector-curvature="0"
         style="fill:#984334" />
      <path
         d="m 983.2,998.2 c -0.2,-0.7 -6.8,-12.6 -6.8,-12.6 l 40.5,0.9 c 0,0 2.7,15.2 2.4,13.8 -0.2,-1.3 -36.1,-2.1 -36.1,-2.1 z"
         class="st5"
         id="path452"
         inkscape:connector-curvature="0"
         style="fill:#f5825a" />
      <path
         d="M 678.7,1341.3 646,1451.1 c 0,0 5.8,0 15.7,-0.1 55.7,-0.4 241,-1.8 241.2,-3.8 0.3,-2.4 64.9,-114.8 63.7,-118 -1.3,-3.1 27.8,-37 27.8,-37 l 40.8,7.9 45,62.1 c 0,0 37,94.4 34.6,94.4 -2.4,0 115.1,0 116.1,-3.1 1.1,-3.1 26.8,-151 26.8,-151 l -12.6,-38.7 -18.4,-46.6 -24.1,-33.9 -53.5,-58.1 -19.1,-77.2 -72.5,10.3 -8.6,14.3 -66.3,14.9 -6,-11.7 h -14.7 l -27.4,9.6 -1.3,8.4 -35.5,64.9 -78.3,56.9 -83.6,93.7 -37.5,27.4 z"
         class="st3"
         id="path454"
         inkscape:connector-curvature="0"
         style="fill:#7e2829" />
      <path
         d="m 917.7,1287.1 c -0.4,-2.5 -37.1,70.2 -37.1,70.2 v 31 l 4.1,59.8 -223.1,2.7 36.5,-114.4 37.5,-27.4 83.6,-93.7 41,-27.5 h 33.3 l -20.8,-11.3 17.3,-12.5 48.8,56.3 c 0,0 19.4,35.9 17.7,34.7 -1.8,-1.2 -30.6,-27.1 -30.6,-27.1 l -27.1,-27.9 7.7,27.9 15.3,29.4 z"
         class="st4"
         id="path456"
         inkscape:connector-curvature="0"
         style="fill:#984334" />
      <path
         d="m 733.7,1324 14.1,34.7 c 0,0 0.9,26.5 0,24.7 -0.9,-1.8 -26.8,67.5 -26.8,67.5 h 40.6 l 27.1,-30.4 5.3,-11.8 c 0,0 52.4,-40 53,-41.8 0.6,-1.8 74.8,-109.5 74.8,-109.5 l -10.8,-17.7 -33.4,-33 h 23 l -1.8,-6.7 -22.4,-12.1 h -16.2 l -41,27.5 -83.6,93.7 z"
         class="st20"
         id="path458"
         inkscape:connector-curvature="0"
         style="fill:#ea6849" />
      <path
         d="m 744.6,1334 16.9,27.7 -5.3,23.6 -35.3,65.7 17.5,-0.6 c 0,0 37.2,-63.9 36.9,-65.2 -0.3,-1.3 18.3,-5.1 18.3,-5.1 0,0 11.9,3.2 11.9,2.2 0,-1 34.7,-27 34.7,-27 l 55.9,-88.6 c 0,0 8.1,-14.2 11.5,-20.6 3.4,-6.4 -38.9,-33.8 -38.9,-33.8 l 8.9,-5.6 h 17.6 c -0.5,0 -5.6,-6.7 -5.6,-6.7 l -15.2,-7.5 -18.6,3.8 4.5,10.4 H 844 l -29.5,20.8 -59.3,80 z"
         class="st21"
         id="path460"
         inkscape:connector-curvature="0"
         style="fill:#f8a16c" />
      <path
         d="m 897.5,1158.6 39.9,18.1 9,15.8 -51.2,-22.5 -5.2,-6 z"
         class="st20"
         id="path462"
         inkscape:connector-curvature="0"
         style="fill:#ea6849" />
      <path
         d="m 910.9,1134.3 c 0,0 60.3,-36.3 61.9,-37.2 1.7,-0.9 79.9,-13.3 79.9,-13.3 0,0 28.8,-7.7 30.5,-7.7 h 55.8 l 14.7,54.3 -29.9,9.3 17,9.8 28.8,-1.8 10.1,11 -19.2,5.5 c 0,0 10.5,6 9.2,5.3 -1.3,-0.7 15.1,-5.3 15.1,-5.3 l 17.7,19.2 c 0,0 -80.8,56.7 -80.8,55 0,-1.7 -20.9,5.1 -20.9,5.1 0,0 25.4,-32.7 25.9,-33.8 0.5,-1.1 25.9,-29.3 25.9,-29.3 l -22.7,5.1 -29.1,42.8 -57.5,-21.4 -70.4,36.6 -26.5,-50.8 -9,-15.9 c 0,0 -10.2,-25.8 -10.2,-27.4 0,-1.6 -21.7,-5.3 -21.7,-5.3 z"
         class="st4"
         id="path464"
         inkscape:connector-curvature="0"
         style="fill:#984334" />
      <path
         d="m 951.8,1120.5 c 2.5,-2.3 31.2,-25.3 31.2,-25.3 l 63.2,-7.8 -2.4,100.5 v 12.1 c 0,0 -5.7,6.1 -8.8,3.2 -3.1,-2.8 -36.1,-39.3 -36.1,-39.3 h -29.3 z m 112.3,27.6 c 0.6,2.3 -14.4,48.2 -14.4,48.2 l 11,10.4 30.2,17.4 c 0,0 12.1,-5.7 12.1,-6.2 0,-0.5 31.6,-46.7 31.6,-46.7 l 3.9,5.5 22,-12.6 19.2,-5.5 -10.1,-11 -28.8,1.8 c 0,0 -27.3,34.2 -26.1,32.5 1.2,-1.7 -14,-23.3 -14,-23.3 l -24.2,-11 z"
         class="st20"
         id="path466"
         inkscape:connector-curvature="0"
         style="fill:#ea6849" />
      <path
         d="m 1140.2,1456.5 c -0.6,-2.3 -16.9,-52 -16.9,-52 v -41.1 l 39.4,-53 28.2,-106.3 18.7,-10.8 17,23.9 18.4,46.6 12.6,38.7 71.4,60.4 20.8,87.9 c 0,-0.1 -208.2,10.8 -209.6,5.7 z"
         class="st4"
         id="path468"
         inkscape:connector-curvature="0"
         style="fill:#984334" />
      <path
         d="m 1297.9,1248.2 31.1,114.6 -71.4,-60.4 -12.6,-38.7 z"
         id="path470"
         inkscape:connector-curvature="0" />
      <path
         d="m 1202.4,1211.8 c 0.3,0 15,17.5 15,17.5 l 42.8,90.2 7.9,63.7 -10.5,47.9 -8.6,26.9 c 0,0 -79.7,1.5 -79.3,0 0.4,-1.5 -11.4,-68 -11.4,-68 0,0 -23.4,-42 -21.7,-44.2 1.6,-2.2 3.1,-14.5 4.3,-20.1 1.1,-5.6 33.8,-78.9 34.4,-82.2 0.6,-3.3 6.8,-22 7.3,-23.7 0.5,-1.7 19.8,-8 19.8,-8 z m -66,0 c -0.2,-2.4 51.7,-41.6 51.7,-41.6 h -11.4 l -50,39.4 z m -3.5,12.4 c 0.8,-1.8 20.2,-9.5 21.9,-12.4 1.7,-2.8 40,-31.1 38.8,-31.5 -1.3,-0.4 -26.6,13 -26.6,13 z"
         class="st20"
         id="path472"
         inkscape:connector-curvature="0"
         style="fill:#ea6849" />
      <path
         d="m 1279.2,1040.2 16,105.5 -10.8,11.4 -21.5,-6.2 5.1,8.8 11.1,3.7 c 0,0 19.3,-5.6 19.3,-7.5 0.1,-1.9 4.4,-10.2 4.4,-10.2 L 1283,1034 Z m 11.2,-58.4 c 0,0 3,23.4 3.4,22.2 0.4,-1.2 5.4,-1.2 4.8,-2 -0.6,-0.8 -3.2,-20.8 -3.2,-20.8 z m -120.7,72.5 -6.4,44.4 14.3,19.2 v 34.6 c 0,0 15.3,19.5 16.1,17.6 0.8,-1.8 0.7,-66.9 0,-68.4 -0.7,-1.5 -8.5,-7.5 -8.5,-7.5 l 48.9,-22.6 -38,4.4 -19.9,-24.2 z"
         class="st7"
         id="path474"
         inkscape:connector-curvature="0"
         style="fill:#423e38" />
      <path
         d="m 1173,1098.7 h 6.7 v 59.9 h 10.7 c 0.2,0 -5.3,-72.3 -5.3,-73.4 0,-1.1 11.6,-3.4 11.6,-3.4 l 19.9,-5.8 c 0,0 -14.1,-2.9 -14.4,-4 -0.3,-1.1 -8.7,-13.7 -8.7,-13.7 l -7.1,-6.8 -10.5,0.2 z"
         class="st14"
         id="path476"
         inkscape:connector-curvature="0"
         style="fill:#eebb75" />
      <path
         d="m 771.3,545.6 5.5,34.2 13,18.1 -29,-17.7 12.8,18.9 -35.4,-20.5 15,-3.4 -17.9,-10.3 36,8 z"
         class="st7"
         id="path478"
         inkscape:connector-curvature="0"
         style="fill:#423e38" />
      <path
         d="m 1040.5,211.8 9.8,-9.4 c 0,0 21.3,22.4 21.6,22.7 0.3,0.3 -7.2,16.7 -7.2,16.7 L 1048.4,214 Z m 218.9,237.4 4.9,11.7 37,17.3 c 0,0 -9.3,8.6 -8.3,7.7 0.9,-0.9 24.4,0 24.4,0 l -2.8,-9.3 28.4,7.6 24.7,26.4 19.1,48.4 5.2,27.2 v 26.5 l 6.8,-20.6 -6.8,-46.6 -19.4,-42.9 -28.1,-23.5 -32.1,-13.6 z m 132,327.6 c 0.9,-1.2 9.7,3.3 9.2,1.7 -0.5,-1.6 -13.8,-50.7 -13.8,-50.7 z m 42.1,131 c 0,0 -28.8,-79.5 -29,-79.7 -0.2,-0.2 -33.5,-25.7 -33.5,-25.7 l 32.4,44.8 7.7,25.2 z m -337.8,-171.4 -32.6,22.2 37.6,33.4 34.7,13.1 2.2,-36.8 5.9,-9.7 -24.3,-20.1 z m -161.1,-296 c 0,0 -14.2,38.2 -13.3,37.3 0.9,-0.9 8.3,0.9 8.3,0 0,-0.9 13,-31.5 13,-31.5 z m 1.1,40.5 c 0.5,-0.2 9.8,0 9.8,0 l 1.9,2.6 c 0,0 -21.3,3.8 -21.5,3.2 -0.2,-0.6 9.8,-5.8 9.8,-5.8 z m -31.3,18.5 c 0.7,-0.6 3.3,-1.5 3.6,-2.5 0.3,-1 31.2,1.2 31.2,1.2 l 1.6,11.7 c 0,0 -39.4,-7.4 -39.4,-7.7 0.1,-0.3 3,-2.7 3,-2.7 z m -41.2,12.2 c -0.1,0.6 13.9,13.2 13.9,13.2 v 3.4 l 37.9,13.1 14.2,-12.6 -39.5,-9.9 -8.4,2.7 -15.3,-8.2 z m 9.1,36 c 0.5,-0.4 5.3,-4 5.3,-4 l 30.4,14.2 c 0,0 -3,7.6 -3,6.7 0,-0.9 -32.8,-13.6 -32.6,-14.1 0.1,-0.3 -0.1,-2.8 -0.1,-2.8 z m -38.2,33.7 5.9,-3.4 9.3,-0.8 -7.6,6.3 -7.6,-0.7 z"
         class="st6"
         id="path480"
         inkscape:connector-curvature="0"
         style="fill:#ffeeaa" />
      <path
         d="m 785,1050.6 12.2,79.8 c 0,0 9.4,-0.3 9.4,-1.9 0,-1.7 0.8,-13.6 0.8,-13.6 l -6.9,-55.4 -1.9,-12.5 z"
         class="st15"
         id="path482"
         inkscape:connector-curvature="0"
         style="fill:#bc8d5a" />
      <path
         d="M 774.5,1050.6 H 785 l 12.2,79.8 c 0,0 -11.4,1.1 -11.4,0 0,-1.1 -11.3,-79.8 -11.3,-79.8 z"
         class="st9"
         id="path484"
         inkscape:connector-curvature="0"
         style="fill:#8b735b" />
      <path
         d="m 1035.1,1300 28,-16.6 12.6,-35.2 25,-20.1 26,-18.6 -26,33.8 -19.8,11.5 -11,32 z m -40.8,-7.8 -27.8,-39.9 -16.8,-11.5 6.7,14.3 z"
         id="path486"
         inkscape:connector-curvature="0" />
    </g>
  </g>
</svg>
