<?xml version="1.0" encoding="UTF-8" standalone="no"?>
<svg
   xmlns:dc="http://purl.org/dc/elements/1.1/"
   xmlns:cc="http://creativecommons.org/ns#"
   xmlns:rdf="http://www.w3.org/1999/02/22-rdf-syntax-ns#"
   xmlns:svg="http://www.w3.org/2000/svg"
   xmlns="http://www.w3.org/2000/svg"
   xmlns:sodipodi="http://sodipodi.sourceforge.net/DTD/sodipodi-0.dtd"
   xmlns:inkscape="http://www.inkscape.org/namespaces/inkscape"
   viewBox="0 0 793.7005 1133.8582"
   height="1133.8582"
   width="793.7005"
   xml:space="preserve"
   id="svg2"
   version="1.1"
   sodipodi:docname="donkey.svg"
   inkscape:version="0.92.4 (5da689c313, 2019-01-14)"><sodipodi:namedview
     pagecolor="#ffffff"
     bordercolor="#666666"
     borderopacity="1"
     objecttolerance="10"
     gridtolerance="10"
     guidetolerance="10"
     inkscape:pageopacity="0"
     inkscape:pageshadow="2"
     inkscape:window-width="1366"
     inkscape:window-height="715"
     id="namedview165"
     showgrid="false"
     inkscape:zoom="0.41627782"
     inkscape:cx="766.87232"
     inkscape:cy="493.09185"
     inkscape:window-x="-8"
     inkscape:window-y="22"
     inkscape:window-maximized="1"
     inkscape:current-layer="svg2" /><metadata
     id="metadata8"><rdf:RDF><cc:Work
         rdf:about=""><dc:format>image/svg+xml</dc:format><dc:type
           rdf:resource="http://purl.org/dc/dcmitype/StillImage" /></cc:Work></rdf:RDF></metadata><defs
     id="defs6"><clipPath
       id="clipPath14"
       clipPathUnits="userSpaceOnUse"><path
         id="path12"
         d="M 8,-29.39355 H 603.27539 V 821 H 8 Z" /></clipPath></defs><g
     clip-path="url(#clipPath14)"
     transform="matrix(-2.2362202,0,0,-2.2362202,1183.9389,1208.6096)"
     id="g10"><path
       id="path16"
       style="fill:#ffe51b;fill-opacity:1;fill-rule:nonzero;stroke:#000000;stroke-width:1;stroke-linecap:butt;stroke-linejoin:miter;stroke-miterlimit:25;stroke-dasharray:none;stroke-opacity:1"
       d="m 487.25,291 c -1.375,5.75 -6,9.375 -15.25,9.375 -9.25,0 -8.5,-5.25 -13.875,-6.375 -5.375,-1.125 -13.25,-0.5 -15.375,5.625 -1,-7.625 0.5,-9.5 3.75,-9.5 -2.125,-1.5 -2.5,-1.25 -0.875,-4.5 L 435,280 c -1,-7.5 -1.125,-11 1.5,-14.125 1,3.625 5.875,2.875 4.125,-0.25 -1.75,-3.125 -2.375,-5.25 -2.375,-10 0,-4.75 12.249,-41.0029 12.749,-49.1279 0.5,-8.125 -3.2607,-10.6924 -3.2607,-10.6924 0,0 5.999,0.1308 9.2588,1.043 0,0 -3.5469,-5.3672 -7.1719,-5.8672 7.9961,-3.7793 31.0176,-1.8457 36.5098,5.2158 6.4648,6.4648 5.4931,-1.0596 2.29,-5.1963 6.5,1.625 12.8809,12.2383 12.9688,16.0186 0.7822,-3.3897 3.1562,-4.7686 4.4062,-4.7686 1.25,0 2.875,-0.75 7.5,3.125 0,0 -5.625,4 -5.625,6 -1.9297,6.8477 2.1133,6.8477 3.75,-0.25 2.666,3.8379 3.0088,10.8408 1.8838,12.9658 -3.75,8.75 -2.0322,10.3936 -0.7822,9.5186 0.75,-0.5 5.8984,-2.9844 11.1484,-1.6094 -9.1113,3.9658 -7.0254,14.2676 -11.6699,20.9072 7.1709,-7.4326 8.2949,2.7178 8.2949,8.3428 0,0 -0.75,-0.75 -3.625,-0.75 -8.125,0 -5.3125,14.9375 -12.5,22.125 -2.3125,2.3125 -6.25,6.875 -13.125,6.875 -3.25,-0.625 -4,1.5 -4,1.5 z"
       inkscape:connector-curvature="0" /><path
       id="path18"
       style="fill:#000000;fill-opacity:0.64999001;fill-rule:nonzero;stroke:none"
       d="m 484.2471,266.6592 c 2.7998,0 6.6435,-2.7207 7.6982,-8.5537 -2.7988,5.3652 -8.0859,10.1084 -8.0088,-0.545 0,-5.4433 -0.7002,2.877 -1.5556,-12.1308 0,9.332 -0.3887,10.2656 -2.7217,5.9883 -0.544,-1.0117 -1.71,-0.3116 -2.877,-4.5108 -1.167,-4.1992 -2.7217,-5.2871 -3.3437,-5.5986 2.8769,4.666 1.7099,6.0644 -1.9444,4.7432 -3.6543,-1.3213 -2.6435,-2.877 -2.6435,-2.877 l -10.5762,0.3115 8.4766,25.8164 z"
       inkscape:connector-curvature="0" /><path
       id="path20"
       style="fill:#000000;fill-opacity:0.64999001;fill-rule:nonzero;stroke:none"
       d="m 478.6484,283.5225 c 3.4659,1.0449 8.5254,1.3193 8.5254,-2.3106 0,-3.6299 -1.0986,-7.3154 -4.8945,-9.2402 -3.7959,-1.9248 -3.6309,11.5508 -3.6309,11.5508 z"
       inkscape:connector-curvature="0" /><path
       id="path22"
       style="fill:#000000;fill-opacity:0.79999001;fill-rule:nonzero;stroke:#000000;stroke-width:1;stroke-linecap:butt;stroke-linejoin:miter;stroke-miterlimit:25;stroke-dasharray:none;stroke-opacity:0.79999001"
       d="m 477.5596,285.873 c 3.8886,3.0323 9.7217,5.1329 13.5312,-1.0107 -4.0439,3.499 -8.9433,4.8213 -12.5976,-0.3115 -0.8555,-1.0879 -0.9336,1.3222 -0.9336,1.3222 z"
       inkscape:connector-curvature="0" /><path
       id="path24"
       style="fill:#efc38e;fill-opacity:1;fill-rule:nonzero;stroke:#000000;stroke-width:1;stroke-linecap:round;stroke-linejoin:round;stroke-miterlimit:4;stroke-dasharray:none;stroke-opacity:1"
       d="m 410.9502,280.4551 c 0,-8.9209 9.6191,-28.5762 17.5644,-35.5469 l 0.5577,1.3936 c 0,0 -1.5352,-5.8526 0.2773,-9.8955 1.8125,-4.043 22.0254,-26.6241 22.0254,-26.6241 5.1572,-2.0908 9.0605,4.3213 9.2002,4.8789 3.0664,-6.6914 4.043,-9.6152 4.043,-12.8213 0,-3.206 -0.9766,-12.1279 1.2539,-24.9531 1.6728,-5.7129 -0.1387,-5.2949 0.8369,-10.4531 1.3935,-5.0186 11.7099,-14.6367 11.7099,-14.6367 0,0 3.2051,-0.6963 1.254,1.8125 -1.9512,2.5088 -3.7637,4.3213 -3.7637,4.3213 2.9277,0.2783 7.1103,-1.6729 7.9463,-1.8125 0.8359,-0.1397 1.8115,0.5576 0.2783,1.8125 -1.5332,1.2548 -5.7149,5.4365 -6.8301,5.4365 1.9512,1.3935 4.8779,0.1396 5.7149,-0.418 0.8369,-0.5576 1.5341,0.6963 0.2793,1.3936 -1.2549,0.6972 -3.0674,1.6728 -4.7403,1.8125 -1.1152,2.0908 -4.7392,4.7392 -4.7392,4.7392 -0.2784,8.7823 2.0908,24.3985 2.0908,30.9502 0,6.5518 -1.5322,20.3526 -2.9268,24.3955 0.2783,4.1817 2.0899,18.8184 -10.456,18.8184 l -0.5576,1.2549 c 0,0 -7.1084,-0.2793 -10.5938,1.5332 -2.6494,-2.3701 -3.4844,-5.2979 -3.3457,-7.9463 l -0.6973,0.1396 -0.2793,6.9707 c -4.5996,3.0664 -5.1572,7.3877 -8.5029,9.7579 -3.3457,2.3701 -7.25,3.7636 -13.5225,16.0312 -0.5576,1.3936 1.1153,1.1152 1.1153,1.1152 11.0127,3.2061 21.747,5.4375 27.7412,8.3643 3.4853,1.9512 3.625,3.7637 8.2246,7.9453 1.9521,0.2783 6.5518,0.418 6.5518,0.418 1.6728,0 0.8378,0.9756 -0.1387,1.1152 -0.9766,0.1397 -3.7647,0.2793 -3.7647,0.2793 -2.3691,0.6963 -2.0908,1.3926 -0.4179,1.2539 2.9277,-0.2783 4.042,1.1153 7.1093,1.1153 1.6729,0 1.9512,1.2548 0,1.2548 -1.9511,0 -7.1093,0.1397 -7.1093,0.1397 -2.2305,0 -1.8116,0.3017 -0.2784,0.4414 1.8116,-0.0234 3.7637,0.1162 3.7637,0.1162 0.836,0 1.6729,1.3936 -2.2304,1.3936 -3.9034,0 -4.1133,0.2089 -7.9463,-3.6241 -4.5303,-4.5302 -6.5508,-6.6914 -8.503,-6.6914 -0.6972,0 -1.9521,-1.1152 -4.6006,-1.1152 -4.3212,0 -8.0849,1.3935 -11.4306,1.3935 -3.3457,0 -12.5469,-2.0908 -15.0557,-2.0908 -2.5088,0 -7.1074,1.3721 -7.1074,-5.1689 z"
       inkscape:connector-curvature="0" /><path
       id="path26"
       style="fill:#efc38e;fill-opacity:1;fill-rule:nonzero;stroke:#000000;stroke-width:1;stroke-linecap:round;stroke-linejoin:round;stroke-miterlimit:4;stroke-dasharray:none;stroke-opacity:1"
       d="m 451.375,248.5 c 0.875,-0.25 4.624,-2.1152 10.625,-1.5 5.625,-0.375 9.5,0.375 11.625,1.375 3.5,1.25 4.5,4 4.5,4 0,0 2.25,2 3.375,3.5 0.875,1.75 0.75,3.625 1.5,5.625 0.75,2 2.041,2.8115 2.125,4.75 0.125,2.125 -1.5,3.5 -1.5,3.5 -1.875,2.25 1,5.375 1.375,9.125 0.25,2.75 0.125,4.625 -4.875,4.375 0,0 -0.125,1.125 -2.125,1.5 1.75,1.75 -1.625,5.625 -3.375,5.125 -1.5127,-0.6719 -2.5,-3.125 -4.75,-4.375 -2.666,-1.4814 -6.75,-0.75 -6.75,-0.75 l -0.25,-2.125 -6.375,-5.875 c -2,-1.375 -6.25,-3.875 -6.875,-6.5 -0.625,-2.625 -1.125,-2.375 -1.5,-6.375 -0.375,-4 -2.375,-6.375 -2.875,-7.5 -0.5,-1.125 -0.25,-3.625 1.75,-5.125 2,-1.5 3.5,-2.5 4.375,-2.75 C 452.25,248.25 456,246.375 462,247"
       inkscape:connector-curvature="0" /><path
       id="path28"
       style="fill:#000000;fill-opacity:0.75;fill-rule:nonzero;stroke:none"
       d="m 443.5537,233.6309 c -2.9492,0 -9.458,-1.3223 -9.458,-9.3575 0,-8.0351 11.3916,-12.0009 15.9678,-8.9502 -7.0176,-0.5087 -14.544,2.2383 -14.544,10.1709 0,7.9327 8.0342,8.1368 8.0342,8.1368 z"
       inkscape:connector-curvature="0" /><path
       id="path30"
       style="fill:#efc38e;fill-opacity:1;fill-rule:nonzero;stroke:#000000;stroke-width:1;stroke-linecap:round;stroke-linejoin:round;stroke-miterlimit:4;stroke-dasharray:none;stroke-opacity:1"
       d="m 379.8428,187.4023 c -1.4746,-4.3388 -3.5576,-7.8095 -7.5489,-8.9375 -3.9912,-1.1279 -8.33,-17.7011 -4.7724,-16.0527 3.5576,1.6484 8.8496,4.3389 13.3623,4.6856 4.5127,0.3466 10.5,16.0527 10.5,16.0527 z"
       inkscape:connector-curvature="0" /><path
       id="path32"
       style="fill:#efc38e;fill-opacity:1;fill-rule:nonzero;stroke:#000000;stroke-width:1;stroke-linecap:round;stroke-linejoin:round;stroke-miterlimit:4;stroke-dasharray:none;stroke-opacity:1"
       d="m 392.333,153.7031 c -5.6934,-5.6933 -6.918,-10.3789 -2.5937,-14.7031 4.3242,-4.3242 -1.0088,-3.46 10.0898,-20.4687 11.0986,-17.0088 11.8193,-21.7647 15.8555,-25.9454 0,-6.6308 4.1806,-13.1171 4.1806,-13.1171 0,0 2.0049,-4.5997 5.4776,-2.1622 1.0888,2.1241 -3.0283,11.5313 -3.0283,17.2969 -2.1622,0.8653 -3.7481,13.1182 -8.5049,30.4151 -1.4414,4.4677 -12.3965,14.5585 -12.3965,14.5585 -1.585,1.0088 -1.0098,2.1612 1.4414,4.0352 2.4512,1.874 9.081,5.0449 11.3877,15.2793 l 5.6221,10.8115 -8.2168,0.1436 z"
       inkscape:connector-curvature="0" /><path
       id="path34"
       style="fill:#ff2a59;fill-opacity:1;fill-rule:nonzero;stroke:#000000;stroke-width:1;stroke-linecap:butt;stroke-linejoin:miter;stroke-miterlimit:25;stroke-dasharray:none;stroke-opacity:1"
       d="m 420.0107,79.5225 c -0.8017,-1.9727 -2.6406,-3.8526 -2.5791,-4.5918 0.0616,-0.7393 -9e-4,-1.1094 3.2666,-1.1094 3.2676,0 6.1026,2.3428 5.4864,6.2256 -0.6162,3.8828 -1.7871,7.458 -1.7871,7.458 1.7255,-3.2051 2.7129,-4.1904 3.5752,-9.5537 l 0.9238,0.0615 c 0,4.3144 -1.7256,6.2256 -1.7256,13.0059 0,3.5752 -5.2783,3.4941 -5.2783,3.4941 0,-5.918 2.998,-11.1992 2.998,-16.4385 -2.4043,-0.7392 -4.8799,1.4483 -4.8799,1.4483 z"
       inkscape:connector-curvature="0" /><path
       id="path36"
       style="fill:#ff2a59;fill-opacity:1;fill-rule:nonzero;stroke:#000000;stroke-width:1;stroke-linecap:butt;stroke-linejoin:miter;stroke-miterlimit:25;stroke-dasharray:none;stroke-opacity:1"
       d="m 378.6387,187.8193 c 13.2197,7.4473 27.7412,10.6114 33.6992,11.9151 5.958,1.3037 9.4961,8.5654 9.4961,21.4121 0,5.6728 0.4892,2.9639 4.5986,0.0322 -1.5478,1.6016 -6.4609,5.1797 -6.4609,9.4619 0,4.2823 3.7226,5.586 6.3301,5.958 2.6074,0.3721 8.1933,5.0264 9.4961,6.3301 1.3027,1.3037 6.1435,5.585 9.4951,5.3994 3.3515,-0.1855 1.3037,-1.6758 1.3037,-1.6758 -2.793,-0.372 -13.0322,-8.0058 -12.2881,-13.2187 0.5576,-5.2129 1.8603,-4.6543 2.792,-4.6543 0.9316,0 1.4902,1.3027 4.6553,1.3027 11.1709,0 13.5908,-7.2607 19.3632,-7.2607 3.3506,0 6.3282,3.7226 8.1895,3.9092 1.8613,0.1865 10.29,-0.3955 6.5664,2.7695 4.0957,-1.6758 2.5557,-4.2588 -0.0508,-4.2588 -9.123,0 -6.8887,-4.8408 -12.6601,-4.8408 -2.6065,-0.9307 -5.958,-1.1172 -5.958,-1.1172 0,0 -5.3995,-5.7715 -2.6065,-12.1016 -8.9365,-4.4687 -15.9922,-12.288 -15.9922,-22.7148 0,-30.9043 -18.0801,-24.5742 -18.0801,-41.1445 0,0 -3.165,-2.6065 -3.5371,-4.0957 -0.372,3.7236 -0.373,6.8896 0.3721,7.8203 0,0 -4.0957,-2.6065 -3.165,-9.6817 -0.5586,-4.0966 -3.9102,-5.2129 -3.9102,-1.1172 0.5586,13.7774 2.2344,9.8672 2.2344,24.9483 0,0 2.0478,5.2129 3.3515,6.3301 -6.8886,-2.2334 -6.33,-11.543 -10.2402,-13.7774 -3.9101,-2.2344 -7.0752,-7.4472 -7.0752,-7.4472 0,3.9101 1.1172,6.8896 2.2344,8.1923 1.1172,1.3028 -0.5586,2.42 -2.793,0.3721 -5.5849,-5.7715 -10.6123,-0.5586 -15.2666,-8.751 -0.7451,-1.4892 -2.0488,-1.6757 -1.4902,4.4688 l 1.3037,-0.5586 0.3721,3.9101 c 5.2138,6.1436 3.7236,8.0059 3.7236,8.0059 0,0 -0.9307,1.1172 -1.8613,0 -0.9307,-1.1172 -2.4209,-4.6553 -2.4209,-4.6553 l -1.6748,0.7452 -1.1172,-2.6065 c 0,0 -0.7451,3.9102 -0.1865,4.8408 -3.5371,-2.0478 -4.6543,-0.5586 -4.6543,-0.5586 5.7714,4.2823 8.9365,16.3848 8.9365,17.3155 0,0.9306 0,3.7236 2.2344,4.0957 2.2343,0.372 1.8613,2.2343 -2.2344,2.2343 -2.2344,-5.3994 -5.7715,-3.7236 -5.7715,-3.7236 3.5371,2.6065 0.1855,6.5166 0.1855,6.5166 z"
       inkscape:connector-curvature="0" /><path
       id="path38"
       style="fill:#000000;fill-opacity:0.5;fill-rule:nonzero;stroke:none"
       d="m 443.5537,233.6309 c -2.9492,0 -9.458,-1.3223 -9.458,-9.3575 0,-8.0351 11.3916,-12.0009 15.9678,-8.9502 -7.0176,-0.5087 -14.544,2.2383 -14.544,10.1709 0,7.9327 8.0342,8.1368 8.0342,8.1368 z"
       inkscape:connector-curvature="0" /><path
       id="path40"
       style="fill:#000000;fill-opacity:0.79999001;fill-rule:nonzero;stroke:none"
       d="m 409.6729,190.5459 c -0.9102,-2.0938 -2.003,-2.0029 -1.9122,-8.5576 0,-0.7285 1.0928,-0.6377 1.0928,-0.6377 -1.0019,4.7344 0.8194,9.1953 0.8194,9.1953 z"
       inkscape:connector-curvature="0" /><path
       id="path42"
       style="fill:#000000;fill-opacity:0.75;fill-rule:nonzero;stroke:none"
       d="m 417.2285,183.627 c -10.1045,-6.2813 -22.3037,-17.1153 -27.4931,-26.5831 -0.4551,-0.8193 0.2724,-2.0927 -0.2735,-3.0039 12.1992,18.9356 27.7666,29.587 27.7666,29.587 z"
       inkscape:connector-curvature="0" /><path
       id="path44"
       style="fill:#000000;fill-opacity:0.75;fill-rule:nonzero;stroke:none"
       d="m 402.3896,171.7012 c -4.6425,-2.003 -11.4707,-4.6436 -17.5703,-4.6436 -0.5459,0 -0.3642,-1.0918 -0.3642,-1.0918 7.2832,0 16.1142,4.461 16.1142,4.461 z"
       inkscape:connector-curvature="0" /><path
       id="path46"
       style="fill:#000000;fill-opacity:1;fill-rule:nonzero;stroke:#000000;stroke-width:1;stroke-linecap:round;stroke-linejoin:round;stroke-miterlimit:4;stroke-dasharray:none;stroke-opacity:1"
       d="m 460.2012,282.7676 c -1.667,-1.667 -3.4551,-5.0586 -2.9619,-6.6631 0.4931,-1.6045 0.2461,-2.7139 5.3056,-6.1699 0.7412,3.5791 2.4678,3.5791 2.9619,7.1572 0.4942,3.5781 -4.1338,6.8477 -5.3056,5.6758 z"
       inkscape:connector-curvature="0" /><path
       id="path48"
       style="fill:none;stroke:#000000;stroke-width:1;stroke-linecap:round;stroke-linejoin:round;stroke-miterlimit:4;stroke-dasharray:none;stroke-opacity:1"
       d="m 467.3584,275.6104 c -1.4814,0.124 -2.5918,0.371 -2.9619,0.124"
       inkscape:connector-curvature="0" /><path
       id="path50"
       style="fill:none;stroke:#000000;stroke-width:1;stroke-linecap:round;stroke-linejoin:miter;stroke-miterlimit:4;stroke-dasharray:none;stroke-opacity:1"
       d="m 467.1113,278.9424 c -0.3701,-0.6172 -1.7275,-1.4805 -2.3447,-1.4805"
       inkscape:connector-curvature="0" /><path
       id="path52"
       style="fill:none;stroke:#000000;stroke-width:1;stroke-linecap:round;stroke-linejoin:miter;stroke-miterlimit:4;stroke-dasharray:none;stroke-opacity:1"
       d="m 470.9365,283.3848 c -0.7402,-1.3575 -5.3056,-0.6162 -6.2929,-0.4932 -0.9873,0.123 -1.4815,-2.0977 -1.4815,-2.0977"
       inkscape:connector-curvature="0" /><path
       id="path54"
       style="fill:#efc38e;fill-opacity:1;fill-rule:nonzero;stroke:#000000;stroke-width:1;stroke-linecap:round;stroke-linejoin:round;stroke-miterlimit:4;stroke-dasharray:none;stroke-opacity:1"
       d="m 470.3193,281.7813 c -1.2334,-1.1114 -2.7158,-0.2471 -3.7021,-0.4942 -0.9863,-0.2471 -2.5908,-0.7392 -2.9609,-1.2334"
       inkscape:connector-curvature="0" /><path
       id="path56"
       style="fill:#efc38e;fill-opacity:1;fill-rule:nonzero;stroke:#000000;stroke-width:1;stroke-linecap:round;stroke-linejoin:round;stroke-miterlimit:4;stroke-dasharray:none;stroke-opacity:1"
       d="m 454.8945,273.2666 c 0.8643,0.3701 3.085,2.4678 3.085,2.4678"
       inkscape:connector-curvature="0" /><path
       id="path58"
       style="fill:none;stroke:#000000;stroke-width:1;stroke-linecap:round;stroke-linejoin:miter;stroke-miterlimit:4;stroke-dasharray:none;stroke-opacity:1"
       d="m 453.0439,276.9678 c 1.3575,-0.4932 4.8135,-0.6172 5.4297,0"
       inkscape:connector-curvature="0" /><path
       id="path60"
       style="fill:#efc38e;fill-opacity:1;fill-rule:nonzero;stroke:#000000;stroke-width:1;stroke-linecap:round;stroke-linejoin:round;stroke-miterlimit:4;stroke-dasharray:none;stroke-opacity:1"
       d="m 454.5244,279.6826 c 1.3574,0.124 3.4551,-1.6035 3.4551,-1.6035"
       inkscape:connector-curvature="0" /><path
       id="path62"
       style="fill:#efc38e;fill-opacity:1;fill-rule:nonzero;stroke:#000000;stroke-width:1;stroke-linecap:round;stroke-linejoin:round;stroke-miterlimit:4;stroke-dasharray:none;stroke-opacity:1"
       d="m 457.2393,283.5088 c 0.123,-0.7412 2.5918,-1.9746 2.5918,-1.9746"
       inkscape:connector-curvature="0" /><path
       id="path64"
       style="fill:none;stroke:#000000;stroke-width:1;stroke-linecap:round;stroke-linejoin:round;stroke-miterlimit:4;stroke-dasharray:none;stroke-opacity:1"
       d="m 460.6943,287.9512 c -0.8632,-1.3574 -2.8379,-3.085 -0.123,-5.4297"
       inkscape:connector-curvature="0" /><path
       id="path66"
       style="fill:#efc38e;fill-opacity:1;fill-rule:nonzero;stroke:#000000;stroke-width:1;stroke-linecap:round;stroke-linejoin:round;stroke-miterlimit:4;stroke-dasharray:none;stroke-opacity:1"
       d="m 461.0645,285.9766 c 0.7402,-0.8633 0.9873,-3.5791 0.9873,-3.5791"
       inkscape:connector-curvature="0" /><path
       id="path68"
       style="fill:#ffffff;fill-opacity:1;fill-rule:nonzero;stroke:none"
       d="m 461.8047,280.917 c -1.7276,0 -3.3311,-1.1113 -3.3311,-3.9492 0,-2.8379 3.085,-5.1826 3.085,-5.1826 0.9863,-0.4932 0.9863,0.124 0.8633,0.9873 -0.8633,0.247 -0.9873,0.9863 -0.9873,2.0976 0,1.1113 0.6172,1.3574 1.6045,1.3574 0.9873,0 0.9873,0.8643 0.247,1.3575 -1.4814,0.4941 -2.0986,1.3574 -0.4941,1.9746 0.7402,0.247 -0.9873,1.3574 -0.9873,1.3574 z"
       inkscape:connector-curvature="0" /><path
       id="path70"
       style="fill:#000000;fill-opacity:1;fill-rule:nonzero;stroke:#000000;stroke-width:1;stroke-linecap:round;stroke-linejoin:round;stroke-miterlimit:4;stroke-dasharray:none;stroke-opacity:1"
       d="m 466.3057,266.377 c 3.8818,-3.4971 9.165,-8.0215 13.749,-6.1114 3.8193,1.6553 1.5283,8.5303 -0.2539,8.9121 -4.4561,0.5088 -7.7666,0.2539 -8.5303,-0.1279 -0.7637,-0.3818 -1.0185,-2.0361 -4.9648,-2.6728 z"
       inkscape:connector-curvature="0" /><path
       id="path72"
       style="fill:none;stroke:#000000;stroke-width:1;stroke-linecap:round;stroke-linejoin:round;stroke-miterlimit:4;stroke-dasharray:none;stroke-opacity:1"
       d="m 471.5254,270.96 c -0.2549,-0.5088 0.5088,-2.292 0.5088,-2.292"
       inkscape:connector-curvature="0" /><path
       id="path74"
       style="fill:none;stroke:#000000;stroke-width:1;stroke-linecap:round;stroke-linejoin:round;stroke-miterlimit:4;stroke-dasharray:none;stroke-opacity:1"
       d="m 474.5811,272.9971 c -0.3819,-1.0186 -0.7647,-2.8008 0.5087,-3.8194"
       inkscape:connector-curvature="0" /><path
       id="path76"
       style="fill:none;stroke:#000000;stroke-width:1;stroke-linecap:round;stroke-linejoin:round;stroke-miterlimit:4;stroke-dasharray:none;stroke-opacity:1"
       d="m 478.5273,272.7422 c -1.5273,-0.6367 -1.2734,-3.8193 -1.2734,-3.8193"
       inkscape:connector-curvature="0" /><path
       id="path78"
       style="fill:none;stroke:#000000;stroke-width:1;stroke-linecap:round;stroke-linejoin:round;stroke-miterlimit:4;stroke-dasharray:none;stroke-opacity:1"
       d="m 484.3838,268.6689 c -0.3818,-1.4003 -2.293,-3.0556 -2.9287,-2.8007"
       inkscape:connector-curvature="0" /><path
       id="path80"
       style="fill:none;stroke:#000000;stroke-width:1;stroke-linecap:round;stroke-linejoin:round;stroke-miterlimit:4;stroke-dasharray:none;stroke-opacity:1"
       d="m 485.4023,263.4492 c -1.0185,0.8916 -3.0546,1.1455 -3.5644,1.0186"
       inkscape:connector-curvature="0" /><path
       id="path82"
       style="fill:none;stroke:#000000;stroke-width:1;stroke-linecap:round;stroke-linejoin:round;stroke-miterlimit:4;stroke-dasharray:none;stroke-opacity:1"
       d="m 480.5645,258.2295 c -0.2549,0.6367 -1.0186,2.6738 -1.0186,2.6738"
       inkscape:connector-curvature="0" /><path
       id="path84"
       style="fill:none;stroke:#000000;stroke-width:1;stroke-linecap:round;stroke-linejoin:round;stroke-miterlimit:4;stroke-dasharray:none;stroke-opacity:1"
       d="m 478.4004,257.8477 c -0.1279,0.7636 -0.2549,2.6738 -0.2549,2.6738"
       inkscape:connector-curvature="0" /><path
       id="path86"
       style="fill:none;stroke:#000000;stroke-width:1;stroke-linecap:round;stroke-linejoin:round;stroke-miterlimit:4;stroke-dasharray:none;stroke-opacity:1"
       d="m 476.2354,257.2109 c 0,0.7637 0.1279,4.0743 0.1279,4.0743"
       inkscape:connector-curvature="0" /><path
       id="path88"
       style="fill:none;stroke:#000000;stroke-width:1;stroke-linecap:round;stroke-linejoin:round;stroke-miterlimit:4;stroke-dasharray:none;stroke-opacity:1"
       d="m 473.6895,258.4844 c -0.6368,1.0185 0.5097,3.4375 0.5097,3.4375"
       inkscape:connector-curvature="0" /><path
       id="path90"
       style="fill:none;stroke:#000000;stroke-width:1;stroke-linecap:round;stroke-linejoin:round;stroke-miterlimit:4;stroke-dasharray:none;stroke-opacity:1"
       d="m 470.6338,260.2666 c -0.8906,1.4004 0.7637,3.5645 0.7637,3.5645"
       inkscape:connector-curvature="0" /><path
       id="path92"
       style="fill:#ffffff;fill-opacity:1;fill-rule:nonzero;stroke:none"
       d="m 475.7266,268.4141 c -3.3106,0 -4.711,-1.9102 -6.875,-1.9102 -1.2735,0 0.6367,-2.0361 2.8007,-3.5644 2.1641,-1.5284 3.5645,-2.419 5.9834,-2.419 2.419,0 2.9297,1.2734 2.8018,1.7822 -0.1279,0.5088 -1.5283,0.127 -1.9102,-0.2548 -0.3818,-0.3819 -1.1455,0.5097 -0.3818,0.8916 3.5645,1.5273 1.7832,2.0371 0.6367,1.7822 -1.1465,-0.2549 -1.2734,0.7637 -0.8916,2.0371 0.3819,1.2734 -1.5273,1.6553 -2.164,1.6553 z"
       inkscape:connector-curvature="0" /><path
       id="path94"
       style="fill:none;stroke:#000000;stroke-width:1;stroke-linecap:round;stroke-linejoin:round;stroke-miterlimit:4;stroke-dasharray:none;stroke-opacity:1"
       d="m 478.0186,277.5811 c -0.6368,-3.3106 2.4189,-4.8389 1.7822,-8.4034"
       inkscape:connector-curvature="0" /><path
       id="path96"
       style="fill:#000000;fill-opacity:1;fill-rule:nonzero;stroke:none"
       d="m 457.6484,262.8125 c 0.127,0.7646 -2.291,1.7832 -1.7822,-0.2539 0.5088,-2.0371 -1.7822,-4.0752 -3.8193,-5.3477 -2.0371,-1.2724 -0.8916,-3.5644 1.9092,-3.9463 2.8007,-0.3818 6.748,5.2208 6.875,6.875 0,2.8008 -2.6739,0.8907 -3.1827,2.6729 z"
       inkscape:connector-curvature="0" /><path
       id="path98"
       style="fill:#ffffff;fill-opacity:1;fill-rule:nonzero;stroke:none"
       d="m 458.0303,260.2666 c -1.0186,-0.127 -2.291,-0.127 -2.1641,-1.4004 0.127,-1.2734 -3.0557,-1.9092 -1.9101,-2.9277 1.1455,-1.0186 2.7998,-1.7832 4.9648,3.3095 0.3818,1.0186 -0.8906,1.0186 -0.8906,1.0186 z"
       inkscape:connector-curvature="0" /><path
       id="path100"
       style="fill:#000000;fill-opacity:1;fill-rule:nonzero;stroke:none"
       d="m 459.3027,267.6504 c -0.2539,-0.5088 -0.5088,-1.4014 0.128,-2.0371 1.0185,-0.2539 -0.128,2.0371 -0.128,2.0371 z"
       inkscape:connector-curvature="0" /><path
       id="path102"
       style="fill:#000000;fill-opacity:1;fill-rule:nonzero;stroke:none"
       d="m 462.6133,264.7227 c -1.2735,0 -1.6553,-0.6377 -0.6367,-0.8916 1.0185,-0.254 0.6367,0.8916 0.6367,0.8916 z"
       inkscape:connector-curvature="0" /><path
       id="path104"
       style="fill:#ff2a59;fill-opacity:1;fill-rule:nonzero;stroke:none"
       d="m 421.0068,97.9844 c -1.9111,-1.8496 -3.8213,-3.8223 -7.3964,-3.6367 0.6787,-1.2325 1.541,-1.9727 1.541,-1.9727 3.1435,0.1846 6.7187,3.5752 6.7187,3.5752 z"
       inkscape:connector-curvature="0" /><path
       id="path106"
       style="fill:#000000;fill-opacity:1;fill-rule:nonzero;stroke:#000000;stroke-width:1;stroke-linecap:butt;stroke-linejoin:miter;stroke-miterlimit:25;stroke-dasharray:none;stroke-opacity:1"
       d="m 427.9404,53.584 c 0,7.2226 -6.5849,7.2226 -6.5849,10.1963 0,2.9736 -8.4961,14.4443 -18.9053,14.4443 0,4.4609 -8.9219,6.7979 -8.9219,6.7979 5.7354,10.1963 4.461,13.3828 4.461,15.9316 0,6.1602 -1.9122,4.249 -1.9122,6.7979 0,2.5488 1.9112,1.0625 2.1241,2.7617 0.2129,1.6992 -1.9112,2.7627 -1.9112,2.7627 0,5.3105 -4.8857,8.497 -4.8857,8.497 0,7.4346 -1.3809,5.2051 -6.7979,10.6211 -5.4169,5.416 -12.3203,8.709 -12.3203,8.709 l -0.2129,1.9121 c 5.7354,-0.2129 4.0372,1.0615 2.5498,2.9737 -1.4873,1.9121 -5.3105,4.4609 0,7.4345 -3.6113,5.5235 -3.1865,14.2325 -3.1865,14.2325 l 5.5225,2.9736 c -1.6992,7.6474 1.9121,22.5176 1.9121,22.5176 3.1865,-1.4864 4.0361,-4.2481 4.0361,-4.2481 3.3985,9.1348 -0.2129,9.5596 1.6992,14.4453 1.9122,4.8858 5.7364,9.5586 5.0987,19.7549 1.6308,0.377 2.2207,-0.0615 2.4336,-0.4844 -0.8272,3.9903 -1.7969,3.0342 -1.7969,3.0342 0.6377,4.0361 -1.0615,7.0108 -1.0615,7.0108 2.7607,-1.6993 3.3984,1.4873 3.3984,4.0361 0.2119,5.7353 -2.3359,11.2578 -3.8232,13.5947 1.4082,-0.3515 2.0449,-0.7031 2.3134,-0.9951 -0.4638,11.9883 -12.5097,26.6982 -12.5097,26.6982 -1.6436,1.0039 -5.9961,-1.7871 -13.1934,-8.1503 1.3565,7.8759 10.4639,13.1601 11.918,14.7353 2.5498,2.7617 3.3994,7.6475 3.3994,7.6475 -2.5488,-3.8243 -5.5234,-4.2481 -2.7617,-0.4248 2.7617,3.8232 7.8603,8.9218 8.4971,16.7812 -2.337,-3.6113 -3.8243,-2.125 -1.9122,1.2744 1.9122,3.3994 5.3106,7.6475 5.7354,13.8076 -6.1602,-5.9482 -2.5488,1.4883 -2.124,5.5235 0.4248,4.0351 1.2754,7.6465 1.4873,10.1953 -3.6113,-4.6729 -3.8233,-3.1865 -3.1865,0.8496 0.6367,4.0361 0,7.0107 -0.8497,8.71 -1.0625,-3.8243 -1.9121,-4.461 -1.9121,0 0,4.4609 -1.0625,14.4433 -2.3369,17.8427 -2.124,-4.6728 -2.5488,-4.0351 -2.5488,0.2129 0,4.2481 -0.8496,8.0713 -2.9736,11.2578 -1.6993,-3.8232 -2.337,-5.9472 -2.337,-5.9472 -2.3369,1.6992 0.2129,8.9218 -4.248,13.8076 -0.4248,-7.4346 -3.1865,-6.7979 -3.1865,-6.7979 -1.6992,4.2481 -5.9473,8.0733 -6.585,11.2588 0,-3.8242 -1.9121,-8.7099 -4.4609,-3.3994 -2.5488,5.3106 -4.6738,7.2227 -4.6738,7.2227 1.0625,-3.8233 -1.4864,-5.5235 -3.3985,-5.5235 -1.9121,0 -6.373,1.2744 -8.4971,10.1968 -1.9121,-4.4604 -3.3974,-5.7358 -5.5224,-5.7358 0,2.3369 1.0615,2.3369 1.0615,5.5234 0,3.1865 -1.6992,2.1245 -1.6992,8.0723 0,5.0976 1.9121,2.9741 1.9121,5.9477 0,8.709 -10.6211,14.0196 -15.5068,14.0196 -1.9121,0 -1.2745,-1.0625 -1.2745,-1.0625 -4.248,3.3989 -8.0712,2.7617 -12.9575,2.1245 -2.3369,-0.4248 -0.8501,-2.1245 -0.8501,-2.1245 -5.9477,1.6997 -7.2221,1.2749 -7.2221,1.2749 -4.0357,4.0361 -4.2481,3.8232 -6.585,1.6992 -2.3369,-2.124 -1.4873,-3.1865 -1.4873,-3.1865 -2.7612,-2.7613 -2.3364,-5.5225 -2.3364,-7.8594 -14.6573,0 -28.8887,-1.4868 -50.5557,-9.5591 -9.1343,4.0361 -14.2319,2.7617 -16.9936,2.7617 -2.7618,0 -6.7979,-0.6377 -6.7979,-6.5854 -9.3467,0 -11.0459,-4.461 -11.2583,-6.7974 -0.2124,-2.3364 1.2744,-2.9741 1.2744,-2.9741 -8.4966,0 -11.6846,-5.5664 -11.6846,-11.7051 0,-6.373 0.8497,-13.3838 1.4869,-14.4453 -4.461,-1.9111 -7.8599,-4.249 -8.4971,-5.3106 2.7617,0 2.1245,-1.2744 2.1245,-1.2744 -2.5493,-4.0361 -7.0098,-10.4082 -7.0098,-13.5947 2.9737,3.1865 4.6729,3.1875 3.3985,0.2129 -1.2744,-2.9746 -2.7617,-8.9229 -5.0982,-11.0469 4.0362,1.4873 4.6734,1.0635 3.1866,-2.7607 -1.4869,-3.8242 -2.9742,-8.71 -2.9742,-11.6836 0,-2.9736 1.6997,-11.2588 1.6997,-11.2588 1.6993,4.249 3.3985,5.7363 3.3985,-2.7607 0,-8.4971 1.6997,-10.8331 1.6997,-10.8331 0.6372,3.8233 3.186,8.2832 2.5488,-8.7099 2.5493,-0.6367 1.9121,0.6377 3.3989,0.6377 1.4869,0 1.062,-7.8604 5.9478,-12.1084 4.8857,-4.2481 5.0981,-9.3467 5.3105,-11.4707 2.7613,6.7978 3.6109,0.6377 6.3726,-1.6992 2.7617,-2.337 11.2588,-10.1963 13.1704,-15.5069 0.8496,6.1602 1.9116,4.8858 1.9116,4.8858 2.3365,-2.3369 5.523,-2.5489 5.523,-2.5489 -0.8496,-4.8857 0,-7.4345 0,-7.4345 -4.6734,-3.3955 -8.2842,-7.2198 -8.2842,-10.6182 0,-3.3984 3.8228,-10.833 9.771,-10.833 0,-6.1611 -0.2339,-7.8018 -0.4463,-11.4131 0,-3.6113 1.8691,-9.2021 8.667,-16 5.4165,-5.417 6.8418,-5.7949 9.623,-7.8447 3.9849,-2.9375 5.0171,-3.1953 7.5132,-5.3467 C 268.3335,174 274.3335,169.667 284.98,155.9619 l -0.2124,-1.6992 c -8.2842,0 -13.5947,-0.8496 -13.5947,-0.8496 -3.6109,3.6103 -2.7618,1.2744 -2.7618,1.2744 2.4434,-2.4434 1.4868,-3.3994 1.4868,-3.3994 -5.0981,0 -9.7714,2.3369 -9.7714,2.3369 0.8501,-2.7598 -0.2124,-4.0342 -0.2124,-4.0342 -2.7613,-1.2754 -6.3726,-3.3994 -7.0098,-4.6738 -7.541,7.541 -12.9575,8.0723 -16.144,8.0723 -3.1866,0 -6.9039,-2.2315 -8.9219,-4.2491 -4.2486,0 -12.7451,1.0625 -16.9937,-9.5586 -6.3725,0 -7.6474,-6.7978 -7.6474,-6.7978 0,-2.7608 3.186,-10.834 15.082,-12.3203 4.6733,-0.6328 6.1606,-6.1563 8.0723,-6.793 -5.3106,-3.3984 -5.1309,-4.8867 -5.0982,-6.7978 0.0493,-2.8926 3.5772,-7.4786 3.2246,-9.2422 4.2329,0.5879 13.1699,-0.3526 19.7168,-0.3164 19.1182,-8.4971 22.0928,-8.0723 26.5532,-8.0723 4.4605,0 15.9317,2.7607 15.9317,17.2061 2.7612,0 2.5488,-1.6993 2.5488,-1.6993 3.6113,2.9737 -0.8496,7.2227 -0.8496,7.2227 4.0361,1.9111 2.124,2.124 2.124,2.124 -5.5229,4.0361 -4.4604,11.2578 2.9742,13.5947 3.4072,0.6192 5.7314,0.7413 14.1723,-0.3593 10.0313,-0.9786 29.7988,-5.1641 41.4824,-19.6084 -2.8681,-2.8672 -1.0625,-4.8858 -5.7353,-4.8858 1.0625,-2.124 2.5488,-2.3359 2.5488,-2.3359 -4.248,-3.3994 -10.833,-1.4873 -10.833,-1.4873 0.6367,-2.9737 2.124,-4.0362 2.124,-4.0362 -5.5234,-3.6113 -5.9482,-6.373 -5.9482,-6.373 6.1601,0.8506 5.5234,0 5.5234,0 -3.3994,-6.1602 -3.8242,-8.4961 -3.8242,-8.4961 h 2.3369 c 0,-8.707 2.9737,-9.5576 8.9219,-16.7793 6.585,-6.5849 10.1973,-8.0723 11.2588,-10.6211 1.0615,-2.5488 -0.6377,-8.4961 7.0097,-8.4961 7.6475,0 10.1954,4.8858 10.8331,8.709 5.0986,-2.9736 8.497,-2.9736 8.497,-2.9736 3.1866,-10.1963 5.5235,-14.4444 12.5332,-14.2315 7.0098,0.2129 6.3731,2.336 8.4971,2.1241 2.124,-0.212 2.5488,-2.7608 7.8594,-2.7608 5.3105,0 8.709,4.46 8.709,7.6465 0,3.1865 -1.2745,4.4609 -1.2745,4.4609 5.0987,0 9.7715,2.125 9.7715,6.7979 M 237.1777,315.8359 c -2.1162,-1.6464 -3.0576,-1.4111 -1.7641,-2.7041 0,0 1.2934,0.3526 2.2343,-0.9414 0,0 1.646,0.2354 2.4693,-0.8232 0,0 -0.5879,-1.1758 -0.5879,-2.9395 0,0 -1.5288,0.1172 -2.4692,-0.4707 -0.9405,-0.5879 -1.6465,-3.6445 -1.7642,-5.6445 0,0 2.7046,-0.5879 2.7046,-1.999 0,-1.999 -1.8814,-6.2315 -0.5879,-8.2315 0,0 -3.0571,0.1182 -5.7617,2.7051 -2.7046,2.5869 -1.999,2.3516 0.9404,3.6455 0.8228,0.4707 1.0586,2.1162 -1.4111,2.7041 -6.3501,6.1143 -6.585,6.9385 -4.9385,6.9385 0,0 4.0566,0.999 2.2339,2.8223 -5.8799,4.5859 -4.586,5.5263 -6.1148,7.9961 -1.5288,2.4697 0.2354,1.6464 0.2354,1.6464 0,0 1.1758,-1.2939 2.5869,-0.1181 1.4111,1.1758 -0.8232,2.9404 -0.8232,2.9404 0,0 -2.1167,3.6445 -0.4703,3.6445 2.1167,0 3.4102,-1.7636 13.876,-1.7636 0.4702,-1.7637 1.1758,-4.7032 4.1157,-7.4082 0,0 -2.2343,-2.4698 -4.7036,-1.9991 m 101.0108,-12.4648 c 0,0 -2.2344,0.706 -1.294,-0.4697 1.4102,-1.8809 2.8223,-6.2325 1.1768,-7.7618 0,0 -0.2354,-0.5878 -0.3525,-2.5869 -0.1172,-1.999 -1.4112,-1.2929 -1.8819,-0.705 -0.4707,0.5878 -1.6465,1.5283 -1.6465,0.3525 0,-1.1758 -4.4677,-7.9961 -6.2324,-7.0557 0.9404,4.3506 2.1172,2.8223 2.1172,10.9366 -0.8223,12.4648 -10.3486,16.1093 -15.0527,16.1093 0.1171,0.7051 -0.4698,1.7647 -0.9405,2.4698 -0.4707,0.705 -1.7636,1.6464 0.2354,1.8818 1.999,0.2353 5.292,3.292 3.4101,3.1748 -1.8818,-0.1172 -4.9384,1.1758 -6.5849,2.8223 -1.6465,1.6464 -2.1172,2.1162 1.5283,5.5263 -14.9346,0.1172 -12.1118,1.7637 -11.7588,2.2344 0.353,0.4707 1.646,1.999 1.5283,6.3496 -2.2343,-2.4697 -4.9384,-2.8213 -7.8784,-3.292 -2.9399,-0.4707 -2.352,0.5879 -1.2934,1.293 5.6445,1.4111 19.9902,12.2295 21.0488,13.5234 1.1758,0.1172 2.1162,-0.8232 3.6455,-0.8232 1.4111,-0.1182 4.3506,1.7637 3.4101,-3.6455 0,0 5.2911,0.4707 9.6426,-2.3516 -0.7051,0.3526 -1.2939,0.1172 -5.292,-0.4707 2.1162,-3.5283 6.3506,-5.4092 8.3496,-6.8203 1.9991,-1.4111 -0.1181,-1.999 -0.8232,-1.999 -0.7051,0 -1.4111,-1.293 -0.5879,-1.6465 0.8233,-0.3535 2.3516,-1.7637 3.9981,-3.8799 3.5283,-3.8799 1.4111,-2.9404 0.5878,-2.9404 -0.8232,0 -3.8808,1.0586 1.6465,-5.5264 1.5293,-1.8818 0.8223,-2.3515 -0.706,-2.3515 -1.5283,0 -2.8223,0 0.5879,-4.3516 0,-2.5869 1.0586,-3.9981 1.0586,-5.6436 0,-1.6455 0.4697,-4.5869 -1.6465,-2.3525 z"
       inkscape:connector-curvature="0" /><path
       id="path108"
       style="fill:#f7c169;fill-opacity:1;fill-rule:nonzero;stroke:none"
       d="m 364.5928,69.0947 c 0.541,1.5987 0.541,2.9004 0.541,2.9004 0.8389,-6.7148 6.7129,-18.1289 13.4277,-18.1289 0,7.0498 1.8467,7.2178 1.6787,1.5108 0,-5.7071 3.0215,-2.1827 3.0215,0 0,2.1826 1.0069,1.3427 1.0069,0 -1.1748,-5.5391 -0.8379,-18.6309 11.0791,-18.6309 7.3847,0 7.7207,7.5527 7.7207,7.5527 -2.8536,-0.1679 -4.0293,-1.5107 -7.5538,-1.5107 -0.1669,3.0215 -1.8457,3.6933 -1.8457,3.6933 2.0137,3.8604 4.5323,3.6924 4.5323,3.6924 -2.0147,2.6856 -2.1826,13.7637 -7.0498,13.7637 -2.5186,0 -0.3369,1.3428 0.5029,1.3428 3.5254,-0.8389 7.3857,-9.3985 8.7285,-14.6026 3.1895,-4.5322 4.1963,-6.5468 4.1963,-6.5468 0,0 0.8398,-3.1875 0.3359,-5.8741 3.7764,-3.7763 12.5889,-1.5107 12.7569,5.5391 -3.8604,0 -4.8682,-1.3438 -6.3789,-1.1758 -1.1748,2.3506 -4.5313,6.211 3.5254,6.211 -7.8897,6.7138 -2.6856,13.0927 -12.7569,18.2959 11.0781,0 6.5459,-17.96 18.128,-17.96 11.0781,0 4.1962,9.7353 4.1962,9.7353 -2.5175,-1.5107 -4.8681,-2.6855 -4.8681,-2.6855 0,0 -2.0137,-0.8398 -2.0137,2.0137 0,1.6787 2.3496,3.3574 2.3496,3.3574 -3.6084,3.6084 -1.5107,8.0557 -8.5605,12.085 -7.0498,4.0292 -13.9317,3.0214 -13.9317,3.0214 4.0283,1.1758 4.6992,2.6856 -1.8467,5.5391 -6.5458,2.8535 -4.5312,0.5029 -7.7207,-1.5107 -3.1894,-2.0137 -7.0498,-2.8526 -7.0498,-2.8526 2.6856,3.0205 1.8467,4.8672 1.8467,4.8672 -5.372,-6.3779 -10.7422,-9.2314 -15.6103,-9.2314 -1.6787,0 1.5107,2.0136 1.5107,2.0136 1.0068,1.0069 -5.3662,3.2305 -7.0498,-4.7002 -5.875,0 -5.707,6.3789 -5.707,6.3789 -4.5323,0 -6.3789,-2.6855 -10.9112,-2.6855 -4.5322,0 -4.8671,1.5107 -4.8671,1.5107 0,0 1.3427,0.8379 2.5175,0.503 2.6856,4.1963 5.7071,6.0429 5.7071,6.0429 l -2.3496,1.5108 c 0,0 -7.7217,-4.3643 -7.7217,-8.2246 0,-6.8633 11.6894,-15.4248 17.0312,-20.5977 2.6094,2.9922 5.6094,2.9922 7.6094,-0.0078 -3.75,-1.875 -5.002,-3.5654 -5.002,-3.5654 -1.3427,-2.3496 0.337,-6.8819 3.5254,-6.8819 3.1885,0 9.2315,2.6866 9.2315,8.8965 0,6.21 -6.3779,10.9102 -6.5459,13.9317 -1.834,2.4941 -0.709,3.1191 -0.709,3.1191 0.125,-1.5 1.3428,-1.6553 1.3428,-1.6553 z"
       inkscape:connector-curvature="0" /><path
       id="path110"
       style="fill:#000000;fill-opacity:0.14999001;fill-rule:nonzero;stroke:none"
       d="m 356.248,56.334 c -0.374,-0.3008 -0.7441,-0.6592 -1.1074,-1.0762 -5.3418,5.1729 -17.0312,13.7344 -17.0312,20.5977 0,3.8603 7.7217,8.2246 7.7217,8.2246 l 0.915,-0.5889 C 341,79.25 338.125,77.25 342,71.875 c 3.875,-5.375 7.625,-6.75 10.75,-10.125 3.125,-3.375 3.6211,-4.582 3.498,-5.416 z"
       inkscape:connector-curvature="0" /><path
       id="path112"
       style="fill:#000000;fill-opacity:0.14999001;fill-rule:nonzero;stroke:none"
       d="m 358.2598,52.2393 c -0.3584,-0.3487 -0.5118,-0.5547 -0.5118,-0.5547 -1.3427,-2.3496 0.337,-6.8819 3.5254,-6.8819 2.1748,0 5.6768,1.2491 7.6846,4.0147 C 364.25,46.25 361.25,46.875 360,48.5 c -1.625,1.75 -1.7402,3.7393 -1.7402,3.7393 z"
       inkscape:connector-curvature="0" /><path
       id="path114"
       style="fill:#000000;fill-opacity:0.14999001;fill-rule:nonzero;stroke:none"
       d="m 378.666,56.498 c -0.0654,-0.7353 -0.1045,-1.6113 -0.1045,-2.6318 -6.7148,0 -12.5888,11.4141 -13.4277,18.1289 C 367.75,64.25 372.207,56.4961 378.666,56.498 Z"
       inkscape:connector-curvature="0" /><path
       id="path116"
       style="fill:#000000;fill-opacity:0.14999001;fill-rule:nonzero;stroke:none"
       d="m 382.9824,54.0781 c -0.747,-1.8799 -2.7422,-3.3388 -2.7422,1.2989 0.0469,1.582 -0.0615,2.7128 -0.2422,3.371 2.002,-2.748 0.752,-4.623 1.877,-5.123 0.5,-0.375 1.1074,0.4531 1.1074,0.4531 z"
       inkscape:connector-curvature="0" /><path
       id="path118"
       style="fill:#000000;fill-opacity:0.14999001;fill-rule:nonzero;stroke:none"
       d="m 401.1807,43.9922 c 0.5664,0.1494 1.1748,0.2646 1.8877,0.3066 0,0 -0.336,-7.5527 -7.7207,-7.5527 -11.1006,0 -12.1534,11.3603 -11.295,17.3935 C 385.125,43.625 390.125,38.5 395.625,38.5 c 5.5,0 5.5557,5.4922 5.5557,5.4922 z"
       inkscape:connector-curvature="0" /><path
       id="path120"
       style="fill:#000000;fill-opacity:0.14999001;fill-rule:nonzero;stroke:none"
       d="m 415.377,43.6104 c 0.6367,0.1113 1.3867,0.1855 2.2949,0.1855 -0.168,-7.0498 -8.9805,-9.3154 -12.7569,-5.5391 0.0616,0.3252 0.1026,0.6582 0.128,0.9912 3.332,-2.123 10.4609,-2.4023 10.334,4.3624 z"
       inkscape:connector-curvature="0" /><path
       id="path122"
       style="fill:#000000;fill-opacity:0.14999001;fill-rule:nonzero;stroke:none"
       d="m 424.3857,58.9023 c 0,0 6.8819,-9.7353 -4.1962,-9.7353 -3.3848,0 -5.3936,1.5342 -6.8174,3.7051 3.3779,-2.3721 6.5029,-3.2471 9.7529,-1.4971 3.25,1.75 1.2607,7.5273 1.2607,7.5273 z"
       inkscape:connector-curvature="0" /><path
       id="path124"
       style="fill:#ffffff;fill-opacity:1;fill-rule:nonzero;stroke:none"
       d="M 361.125,55.125 C 359.9531,54.1484 358.5,53 357.75,52.375 c -0.75,-0.625 -2,2.5 -2,2.5 2.75,2.25 3.25,1.5 5.375,0.25 z"
       inkscape:connector-curvature="0" /><path
       id="path126"
       style="fill:#ffffff;fill-opacity:1;fill-rule:nonzero;stroke:none"
       d="m 400,48.5 c -2.75,0 -4.375,-0.875 -4.75,-2 1.125,-1.25 1,-2.75 1,-2.75 0,0 3.25,1.625 4.5,1.625 0.5,1.25 -0.75,3.125 -0.75,3.125 z"
       inkscape:connector-curvature="0" /><path
       id="path128"
       style="fill:#ffffff;fill-opacity:1;fill-rule:nonzero;stroke:none"
       d="m 415.5,47.625 c -1.875,0 -7,-0.25 -3.875,-3.625 2.5,2.125 5.625,1.5 5.625,1.5 0,1.5 -1.75,2.125 -1.75,2.125 z"
       inkscape:connector-curvature="0" /><path
       id="path130"
       style="fill:#ffffff;fill-opacity:1;fill-rule:nonzero;stroke:none"
       d="m 422.375,60.5 c -2.125,0 -4.125,-1.125 -3.5,-3.5 3.375,1.375 4.625,2.75 4.625,2.75 0.125,0.75 -0.375,0.75 -1.125,0.75 z"
       inkscape:connector-curvature="0" /><path
       id="path132"
       style="fill:#f7c169;fill-opacity:1;fill-rule:nonzero;stroke:none"
       d="m 205,131.875 c 0,-7 9.75,-9.75 12.5,-9.75 2.75,0 5.5,1.125 6.75,2.25 -3.875,-3.25 -3.375,-4.25 -0.25,-4.25 3.125,0 4,1.75 4,1.75 0,0 0.375,-0.625 1,-0.625 -3.5,-1.75 -3.25,-2.625 -5,-2.875 2.5625,-2.5625 4,-5.125 13.5,-5.125 9.5,0 2.125,-1.25 2.125,-1.25 3.125,-2.25 3.75,-4.75 1.875,-3.25 -1.875,1.5 -4.625,3.375 -6.875,3.375 -2.25,0 -1.375,-0.75 -6.25,-0.75 -4.875,0 -6.25,-4.5 -6.25,-5.25 0,-3.375 3.125,-4.75 3.125,-8.25 4,0 5.875,3.5 4,6 2.625,1 5.125,-0.875 5,-3.375 C 234.125,98 232,98.25 232,98.25 c 3.875,-0.5 1.75,1.625 13.375,0.625 12.75,-5.5 18.75,-7.125 25.5,-7 6.75,0.125 11.25,4.125 11.25,5.625 0,1.5 -1.25,5.25 -6.5,4.5 -1.875,-0.375 4.875,-2.375 0.125,-2.625 -4.75,-0.25 -8.625,3.125 -9.5,4.5 -2,-0.875 -1.75,-2.375 -2.5,-3.125 -0.75,-0.75 -1,2 -2.25,4.5 -1.25,2.5 -3.75,6.125 -3.5,-0.625 -4.5,2.625 -6.5,7.25 -5.875,9.75 -1.5,-1.25 -2.5,-2.75 -2.75,-3.375 -0.25,-0.625 -1.5,0.625 0,2.875 -0.25,3.75 -1.25,9.5 0,11.25 1.25,1.75 -0.625,1.625 -2.375,-1.375 -1.25,7 2.625,9.625 2.625,9.625 -4.125,-0.75 -3.375,1.25 -0.875,4.375 3.125,4.375 4.125,5.125 0.125,7.875 -4,2.75 -7.375,5 -13.25,5 -4.875,0 -6.375,-3 -6.375,-3 1,0 7.625,-4.5 9.125,-4.5 -1.875,-0.25 -3.375,0.25 -5.625,1.5 -2.25,1.25 -6.625,3 -9.5,3 -2.875,0 -10.25,-3.625 -10.25,-6.75 0,-2.25 1.875,-2.875 2.375,-2.875 2.375,0 5.125,-2.5 7.125,-2.5 2,0 5.875,-1.375 8.625,-0.125 2.75,1.25 3.75,0.375 0.875,-0.875 -1.25,-0.875 0.625,-1.875 0.625,-1.875 1,-0.75 -0.5,-1.5 -1.375,-0.375 -0.875,1.125 0,1.875 -4.75,1.875 -4.75,0 -8.5,0.5 -10.75,2 C 213.125,134.25 213.125,132 213.125,132 l -3.875,0.25 c -1.125,2.375 -0.125,4 0.5,5.125 0.625,1.125 -4.75,-0.125 -4.75,-5.5 z"
       inkscape:connector-curvature="0" /><path
       id="path134"
       style="fill:#000000;fill-opacity:0.14999001;fill-rule:nonzero;stroke:none"
       d="m 224.25,124.375 c -1.25,-1.125 -4,-2.25 -6.75,-2.25 -2.75,0 -12.5,2.75 -12.5,9.75 0,5.375 5.375,6.625 4.75,5.5 -0.3384,-0.6084 -0.7861,-1.3633 -0.9478,-2.3047 -2.1953,-2.4092 0.0806,-9.9473 8.7579,-11.0859 5.5478,-0.9961 6.6899,0.3906 6.6899,0.3906 z"
       inkscape:connector-curvature="0" /><path
       id="path136"
       style="fill:#000000;fill-opacity:0.14999001;fill-rule:nonzero;stroke:none"
       d="m 241.8398,113.0547 c -0.6445,0.1172 -1.9648,0.1953 -4.3398,0.1953 -9.5,0 -10.9375,2.5625 -13.5,5.125 1.127,0.1611 1.4248,0.5811 2.4292,1.3281 1.5151,-3.5429 6.3511,-5.3926 12.7524,-5.6767 4.6944,0 2.6582,-0.9717 2.6582,-0.9717 z"
       inkscape:connector-curvature="0" /><path
       id="path138"
       style="fill:#000000;fill-opacity:0.14999001;fill-rule:nonzero;stroke:none"
       d="m 229.25,103.875 c 1.875,-2.5 0,-6 -4,-6 0,3.5 -3.125,4.875 -3.125,8.25 1.9785,-3.7627 6.0127,-7.4229 7.125,-2.25 z"
       inkscape:connector-curvature="0" /><path
       id="path140"
       style="fill:#000000;fill-opacity:0.14999001;fill-rule:nonzero;stroke:none"
       d="m 278.4395,101.9375 c 2.9072,-0.6699 3.6855,-3.2539 3.6855,-4.4375 0,-1.5 -4.5,-5.5 -11.25,-5.625 -6.75,-0.125 -12.75,1.5 -25.5,7 -11.625,1 -9.5,-1.125 -13.375,-0.625 0,0 2.125,-0.25 2.25,2.25 6.4966,2.1465 7.2075,0.582 8.7725,0.582 5.832,0 17.4965,-7.9658 28.8764,-7.9658 6.5435,0 7.1123,5.2637 7.1123,6.4014 0,1.1377 -0.5717,2.4199 -0.5717,2.4199 z"
       inkscape:connector-curvature="0" /><path
       id="path142"
       style="fill:#000000;fill-opacity:0.14999001;fill-rule:nonzero;stroke:none"
       d="m 238.375,143.125 c -1.5,0 -8.125,4.5 -9.125,4.5 0,0 0.375,0.75 1.3594,1.5 3.167,0 4.3047,-2.5234 5.0161,-3.377 0.4267,-1.2802 2.7495,-2.623 2.7495,-2.623 z"
       inkscape:connector-curvature="0" /><path
       id="path144"
       style="fill:#000000;fill-opacity:0.14999001;fill-rule:nonzero;stroke:none"
       d="m 232,134.5 c 2.875,1.25 1.875,2.125 -0.875,0.875 -2.75,-1.25 -6.625,0.125 -8.625,0.125 -2,0 -4.75,2.5 -7.125,2.5 -0.5,0 -2.375,0.625 -2.375,2.875 0,0.6621 0.3311,1.3467 0.8804,2.0146 0.1235,-2.6894 1.1191,-2.5468 3.1108,-2.5468 1.9917,0 3.272,-2.5606 5.1211,-2.5606 1.8491,0 3.1294,0.9961 4.8364,0.8535 1.8492,-1.707 -0.1421,-2.7041 3.1294,-2.4189 3.2715,0.2852 5.8321,0.5693 4.4097,-0.7109 C 233.0654,134.2256 232,134.5 232,134.5 Z"
       inkscape:connector-curvature="0" /><path
       id="path146"
       style="fill:#ffffff;fill-opacity:1;fill-rule:nonzero;stroke:none"
       d="m 214.25,136.375 c -1.314,-1.3145 -1.875,-3.5 -1.875,-3.5 -2.25,-0.125 -2.875,0.25 -2.25,2.625 0.625,2.375 3.125,1.875 4.125,0.875 z"
       inkscape:connector-curvature="0" /><path
       id="path148"
       style="fill:#ffffff;fill-opacity:1;fill-rule:nonzero;stroke:none"
       d="m 230.5,103.125 c 0.9014,-1.8027 -0.75,-4 -1.125,-4.375 -0.375,-0.375 1.625,-1 3.25,0.625 1.625,1.625 -0.375,4.625 -2.125,3.75 z"
       inkscape:connector-curvature="0" /><path
       id="path150"
       style="fill:#a55f13;fill-opacity:1;fill-rule:nonzero;stroke:none"
       d="m 328.1611,392.7334 c 3.4239,-3.4238 9.8975,-3.0605 9.8975,1.7988 3.5986,-11.875 10.6162,-9.7168 13.8555,-6.4775 1.0791,-4.4981 2.8789,-4.4981 4.3183,-5.9375 1.4395,-1.4395 3.5987,-0.7197 3.5987,2.1592 0,2.8789 5.039,-7.1973 5.7587,-8.9971 0.7198,-1.7998 2.878,1.2588 3.7784,3.7783 0.9004,2.5195 1.2597,0.9004 1.08,-4.498 -0.1796,-5.3985 3.0586,-7.1983 3.0586,-7.1983 0,0 1.2598,5.0381 2.6993,5.5782 1.4394,0.54 0.7197,-18.5342 0.7197,-18.5342 0,0 2.8789,5.9385 4.6787,7.7383 l 0.7197,-2.5196 c 0,0 -3.9599,-2.5205 -3.2392,-7.9179 2.1601,4.3193 3.9589,2.8808 3.0595,-12.9551 2.1592,5.2178 4.8575,5.5771 1.0791,-5.7588 l -0.1797,-5.5781 c 3.2393,5.3984 6.6582,9.3574 -0.1796,-10.9766 3.9589,1.6191 5.3974,1.9785 1.6191,-2.5195 -3.7783,-4.4981 -1.2598,-6.8369 -7.0176,-15.6543 8.6377,3.2373 3.959,5.2168 -5.5781,-13.8574 14.2158,4.499 -10.9766,-7.0186 -10.9766,-25.9122 2.6993,8.6377 3.418,9.8985 4.3184,-0.539 1.2598,12.2353 13.3164,25.5517 23.5732,-4.499 -9.1777,4.8584 -2.3408,4.6787 1.9786,-15.1153 1.08,-2.6992 -3.2383,0.7197 -3.2383,0.7197 0,-8.2773 1.7988,-7.1982 1.7988,-11.5166 -2.3389,0.8995 -2.1592,0.8995 -3.0586,2.1592 0.1797,-9.7168 1.4395,-8.0986 1.4395,-11.3379 0,-5.3984 -2.5196,-5.039 -2.5196,-8.0976 0,0 -5.3984,6.1172 -1.9795,-15.6553 -3.7783,0.001 -5.5781,3.7793 -5.5781,3.7793 l -0.1797,-6.8379 c 0,0 -4.6777,-6.1191 -3.0586,-21.2344 -2.3398,-0.1797 -3.4189,2.6993 -3.4189,2.6993 0,0 -4.8594,-4.3194 1.2588,-16.9151 0,0 -0.3594,-1.9795 -2.5186,-0.7197 v -2.5195 c 0,0 0,-3.5987 4.1387,-7.0176 -4.3184,0 -7.0176,2.1592 -7.0176,2.1592 4.4082,-4.4082 0.0899,-3.8692 -2.3398,-1.4395 1.6201,-3.0605 5.7588,-5.04 5.7588,-5.04 9.8964,-6.6582 19.6132,-15.295 19.6132,-15.295 0,0 0.5401,-2.3388 -3.5986,-1.2597 9.1768,-7.918 7.917,-8.8174 8.2773,-10.0772 0,-3.0586 -1.7998,-0.7197 -3.2392,-0.7197 3.7793,-4.1387 9.1777,-17.6348 -5.0381,-31.1309 -1.5293,-1.5302 -1.4394,-0.3613 -0.7197,2.6983 0.7197,3.0596 -0.7188,1.7998 -3.5987,0.54 -2.1591,-3.4189 -8.997,-9.1777 -11.5166,-9.5371 1.2598,2.3399 0.8995,4.499 0.8995,4.499 -2.1592,0 1.2607,-1.6191 -5.9375,-1.6191 -3.0596,0 -5.0391,-6.2988 -5.0391,-6.2988 0,0 -3.7783,1.2597 -3.7783,6.1181 -6.2979,0 -7.5586,-1.9795 -11.3369,-1.9795 0,1.9795 2.6992,3.7793 2.6992,3.7793 0,0 -3.959,0.5401 -2.6992,2.1592 -5.3985,0 -8.4571,-1.9795 -8.4571,-1.9795 0,0 -1.08,2.3399 3.0586,7.1983 1.9785,1.9795 -5.3984,2.5185 -5.3984,2.5185 0,0 0.54,1.4385 6.4785,2.8789 0.8994,1.6201 -3.0596,3.0596 -3.0596,3.0596 0,0 5.2188,-1.4395 12.0567,3.959 2.3388,2.3389 -2.1592,1.4394 -2.1592,1.4394 3.959,5.7579 5.2187,4.6778 9.5371,-1.6201 1.0791,-1.6191 2.249,0.9903 0.1797,3.0596 -8.9971,12.0557 -26.6309,26.8115 -53.0825,26.8115 -18.8941,0 -25.732,-4.499 -25.732,-4.499 6.2979,0.9004 5.398,0 1.7994,-1.6191 8.0976,2.1591 3.9584,0.9003 3.7788,-5.0381 0,-1.9795 3.4189,-4.3194 3.4189,-4.3194 0,0 -1.6191,-1.0781 -2.519,-0.539 v -1.4395 c 0,0 3.2387,-2.8808 3.5986,-4.8594 -2.6992,1.7998 -5.938,0.5401 -5.938,0.5401 0,0 1.979,-2.3389 1.7993,-4.4981 -0.1797,-2.1591 -2.8789,0.8994 -2.8789,0.8994 l -1.4394,0.1797 c -0.5401,-1.9795 -5.3985,-0.7197 -6.1182,-0.1797 -0.7197,0.5401 -1.7993,-0.54 -1.7993,-0.54 2.8789,-2.1592 1.3491,-5.3086 -6.6582,2.6992 -10e-4,-2.1592 -1.981,-1.0801 -2.1607,-3.2392 -4.4985,10.4375 -6.6577,8.998 -6.6577,3.5996 -4.3188,3.958 -3.5991,10.2568 -3.5991,10.2568 0,0 -1.2593,-1.6201 -2.8789,-1.7998 0,7.918 -0.7202,10.2568 1.4394,12.416 2.1597,2.1592 -3.2387,-0.1797 -3.2387,-0.1797 0,2.6993 1.9795,5.3985 4.1386,6.8379 2.1592,1.4395 -3.7788,0.3594 -3.7788,0.3594 4.1387,7.3779 5.2178,11.1572 14.2154,12.0566 0.54,1.9795 -1.2593,3.419 -1.2593,3.419 5.938,-2.3418 10.7969,-1.2617 11.3364,-1.2617 0.3599,2.1591 2.8784,3.5986 12.2359,1.4394 4.6787,-7.0176 12.7768,-15.1152 30.9506,-15.1152 18.1739,0 32.0313,13.3164 32.0313,28.791 0,15.4746 -5.5781,23.3926 -16.0147,30.2305 -1.6191,0.7168 0.1797,1.2558 2.6993,3.0556 2.5195,1.7998 12.0566,8.8174 12.0566,25.9121 0,17.0948 -8.2773,27.8916 -19.0742,29.3311 2.5195,6.6572 2.5185,17.9932 -10.0772,23.9316 4.4991,0.8995 8.4571,5.3985 8.4571,5.3985 0.1806,-2.3399 5.5791,1.4385 8.458,7.917 0.1797,-3.6016 0.7197,-4.6807 4.1386,1.7968 1.4395,5.5782 3.419,4.3194 3.419,11.337 0,7.0175 -2.6992,8.6367 -2.6992,8.6367 -2.3399,2.3398 -10e-4,1.7998 1.0791,0.7197 0,0 1.6201,-1.2598 2.3398,-3.5986 -0.7197,6.4775 -1.8887,8.0068 -4.3183,10.4365 -1.17,1.1699 0.54,2.1592 1.6191,1.0801 2.0693,-2.0694 4.499,0.539 -3.5986,8.6367 -1.3496,1.3506 0.3593,2.5205 2.6992,0.1807 -1.9795,5.038 -4.6777,7.5556 -8.9971,9.1757 -4.3193,1.6202 0.8994,1.7989 5.0381,0.7198 -5.9385,7.7373 -12.0566,6.2978 -12.0566,6.2978 l -0.5391,4.6787 -0.9004,-0.3593 c 0,8.457 2.1592,6.1171 2.1592,12.5957 -2.5186,-0.8995 -3.419,-3.2393 -3.419,-3.2393 -0.539,4.1387 1.4405,8.2783 4.3194,13.1367 -4.3194,-0.54 -5.5781,-2.6992 -5.5781,-2.6992 0,5.9375 6.4775,7.1973 6.4775,9.8965 0,2.6992 -2.6992,3.7793 -4.1387,3.7793 0,0 1.4395,2.6982 8.2774,2.6982 0,0 -2.1612,3.0596 -2.1612,5.9551 z"
       inkscape:connector-curvature="0" /><path
       id="path152"
       style="fill:#a55f13;fill-opacity:1;fill-rule:nonzero;stroke:none"
       d="m 282.4585,283.667 c 10.6167,0 12.7759,-3.959 27.8911,-3.959 0,0 0.2754,0.292 -0.8496,1.417 2.875,0 3.375,-0.75 3.375,-0.75 7.625,0 14.125,5.625 14.125,13.125 0,9 -4.375,17.125 -12.125,17.125 -7.75,0 -10.875,-7.125 -10.875,-8.875 -0.875,1.625 -0.25,8.625 9.625,11.125 C 311.5,317.125 308,319 308,319 c 3.5,0.625 5.75,-1.375 7.125,0.25 -4.375,0.875 -8,5.75 -12.875,5.75 6.125,1.375 9,2.75 -0.375,2.125 0.375,1.5 -0.375,1.25 -5.375,1.25 -1.5,0.125 0.25,1.25 1.375,1.875 1.125,0.625 2.625,3.875 2.625,3.875 -2.5,-2.375 -8.875,-2.375 -13.5,-1.875 -0.5,5.875 2.5,6.375 2.5,6.375 -6.125,-1.625 -8.75,-6.25 -14.75,-6.25 2.5,3 1.125,3 1.125,3 -5,-2.375 -7.375,-3.25 -12.125,-3.125 -4.75,0.125 -6,1.75 -6,1.75 6.125,-4.625 5.625,-4.875 -3.25,-4.875 -2.875,0 -5.875,1.375 -5.875,1.375 0,0 -1.25,-0.75 2.125,-2.625 3.375,-1.875 5.375,-4.5 -3.75,-4.5 -4.75,0 -6.75,1.625 -6.75,1.625 0,-2.125 2.125,-3.5 5.75,-5.625 -3.25,-4.5 -4.375,-11.125 -4.375,-11.125 0,0 4.25,-0.5 7,-3.125 C 263.5,318 266.25,321 269,320.875 c 2.75,-0.125 10.125,-1 15,-16.875 -5.5,9 -9.875,9.75 -11,9.75 -1.125,0 -3.375,-0.75 -5.125,-3 6.5,0 16.125,-6.75 16.125,-17.375 0.25,-5.875 -1.5415,-9.708 -1.5415,-9.708 z"
       inkscape:connector-curvature="0" /><path
       id="path154"
       style="fill:#a55f13;fill-opacity:1;fill-rule:nonzero;stroke:none"
       d="m 234.375,265.5 c -4.125,-4.125 -6.125,-10 -6.125,-13.125 -3.5,1.25 -3.75,3.375 -8.125,4.875 -1.75,0 -0.25,-2.625 -0.25,-2.625 -1.875,0 -3.75,4.625 -3.75,4.625 -8.25,5.625 -12.875,11.25 -12.875,18.375 0,2.25 -0.875,2.5 -0.875,-0.625 0,-3.125 0.25,-6 0.25,-6 -2.125,1.125 -2.5,3.875 -2.5,3.875 0.875,2.25 -9.75,10.25 -9.375,18.5 -0.875,0.875 -2.5,-3.25 -2.5,-3.25 0,0 -0.75,2.875 -0.5,6.75 0,11.75 -1.875,8.5 -1.875,10.375 -1.25,-0.875 -2,-4.875 -2,-4.875 -2.125,12.75 -0.125,9.25 -0.5,15.75 -1,5.875 -2.875,0 -3.375,-1.25 -0.5,-1.25 -1.5,2.5 -0.75,6.5 0.75,4 2,4.125 2.375,7.875 0.375,3.75 1.25,3.5 1.375,7 0.125,3.5 -1.25,3.125 -2.25,2.375 1.875,4.75 4.625,8.625 4.625,10.5 0,1.875 -0.875,2.125 -3.625,0.375 4.375,4.5 6.375,10 6.375,10 l 2.5,0.25 c 9.5,-11.125 15.875,-17.125 20,-18.625 2,-6.75 11.375,-14.375 11.375,-14.375 l -0.25,-4.375 c 0,0 -1.375,0.375 -1.5,1.375 -2,-5.875 1.75,-11 6.625,-14.625 C 221.125,310.625 221,312 221,312 c 3.25,-8.5 9.25,-11.125 9.25,-11.125 0.875,-0.375 -0.875,-1.75 -2.25,0 -1.875,-3.875 3.5,-9.625 10.125,-9.625 L 238,289 c -11.375,3.125 -12.625,-9.875 -12.625,-9.875 0,0 1.25,-12.5 9,-13.625 z"
       inkscape:connector-curvature="0" /><path
       id="path156"
       style="fill:#a55f13;fill-opacity:1;fill-rule:nonzero;stroke:none"
       d="m 238.25,287.667 c -2.5,0 -9.9165,-1.584 -9.9165,-8.584 0,-4.916 4.4165,-7.416 5.4165,-10.25 1.5,-2.416 2.4165,-1.582 3.6665,1.084 0.5835,1.666 -1.9165,3.75 -1.9165,3.75 1.5835,-0.75 2.6665,-0.416 2.75,1 0.0835,1.416 1.3335,1.333 1.3335,2.333 0,1 -0.667,2 -1.5835,2 -0.9165,0 -1.5835,-1.583 -1.5835,-1.583 0,0 -0.833,1 -0.1665,2 -1.5835,0 -3,-1.25 -3,-3.25 0,-1.167 -1,-1.084 -1,0.916 0,2 2.0835,4.167 4.75,4.167 3.8335,0 2.333,-3.083 4.4165,-3.083 1.0835,0 0.834,1 0.417,1.833 -0.417,0.833 -2.5835,3.5 -3.5835,7.667 z"
       inkscape:connector-curvature="0" /><path
       id="path158"
       style="fill:#f9c693;fill-opacity:1;fill-rule:nonzero;stroke:none"
       d="m 236.4165,277.417 c 0,0 0.667,1.583 1.5835,1.583 0.9165,0 1.5835,-1 1.5835,-2 0,-1 -1.25,-0.917 -1.3335,-2.333 -1.167,-0.917 -1.667,0.25 -1.8335,2.75 z"
       inkscape:connector-curvature="0" /><path
       id="path160"
       style="fill:#000000;fill-opacity:1;fill-rule:nonzero;stroke:none"
       d="m 318.917,303.167 c -3.25,0 -5.667,-1.084 -6.917,-2.334 -2.75,-2.75 -1.208,-3.875 -2.583,-5.25 -0.75,-1.083 0.249,-4.417 2.666,-6.833 2.417,-2.416 2.333,-1.5 8.5,-1.5 2.834,0 -1.583,0.833 -1.583,0.833 2.041,2.042 1.667,4.584 1.667,5.584 0,1 -0.25,6.833 -4,6.833 -2.167,0 -1.584,1.25 -0.084,1.25 1.584,0 1.167,1.417 2.334,1.417 z"
       inkscape:connector-curvature="0" /><path
       id="path162"
       style="fill:#f9c693;fill-opacity:1;fill-rule:nonzero;stroke:none"
       d="m 315.667,298.667 c -2.5,0 -2.583,-1.251 -3.5,-2.334 -0.917,-1.083 0.083,-2.167 -0.75,-3 -0.833,-0.833 -0.75,-1.25 -0.75,-1.75 0,-0.5 2,-3.583 4,-3.583 2.416,-0.083 5.083,5.084 5.083,5.917 0,0.833 -1.333,1.916 -1.333,3.416 -0.75,0.667 -0.5,1.417 -2.75,1.334 z"
       inkscape:connector-curvature="0" /><path
       id="path164"
       style="fill:#cc7e0d;fill-opacity:1;fill-rule:nonzero;stroke:#000000;stroke-width:1;stroke-linecap:butt;stroke-linejoin:miter;stroke-miterlimit:4;stroke-dasharray:none;stroke-opacity:1"
       d="m 208.9697,366.833 c 0,-22.667 19.2022,-38.833 19.2022,-38.833 15.0273,0 36.9004,-0.5 48.7558,3.5 11.855,4 30.2227,9.666 39.5723,20.833 L 302.8086,413 c 0,0 -7.3467,0.9116 -18.0332,0.9116 -25.8809,0 -44.4146,-4.7456 -59.9434,-16.0786 -15.5283,-11.333 -15.8623,-25 -15.8623,-31 z"
       inkscape:connector-curvature="0" /><path
       id="path166"
       style="fill:none;stroke:#000000;stroke-width:1;stroke-linecap:butt;stroke-linejoin:miter;stroke-miterlimit:4;stroke-dasharray:none;stroke-opacity:1"
       d="m 291.5786,403.3408 c -12.9809,2.1636 -41.4995,2.9502 -66.2812,-9.5351"
       inkscape:connector-curvature="0" /><path
       id="path168"
       style="fill:none;stroke:#000000;stroke-width:1;stroke-linecap:butt;stroke-linejoin:miter;stroke-miterlimit:4;stroke-dasharray:none;stroke-opacity:1"
       d="m 209.3667,366.9551 c 12.9805,4.917 49.7603,17.5039 81.6221,17.5039"
       inkscape:connector-curvature="0" /><path
       id="path170"
       style="fill:none;stroke:#000000;stroke-width:1;stroke-linecap:butt;stroke-linejoin:miter;stroke-miterlimit:4;stroke-dasharray:none;stroke-opacity:1"
       d="m 290.9888,393.9004 c -34.8125,1.77 -69.2315,-8.8145 -79.8521,-14.1611"
       inkscape:connector-curvature="0" /><path
       id="path172"
       style="fill:none;stroke:#000000;stroke-width:1;stroke-linecap:butt;stroke-linejoin:miter;stroke-miterlimit:4;stroke-dasharray:none;stroke-opacity:1"
       d="m 209.9565,358.1045 c 6.8838,0 70.0181,18.0947 83.3921,18.0947"
       inkscape:connector-curvature="0" /><path
       id="path174"
       style="fill:none;stroke:#000000;stroke-width:1;stroke-linecap:butt;stroke-linejoin:miter;stroke-miterlimit:4;stroke-dasharray:none;stroke-opacity:1"
       d="m 213.1035,349.8438 c 5.7036,0 32.8452,4.1298 41.106,5.9003 8.2607,1.7705 36.1889,9.4414 41.4995,12.5879"
       inkscape:connector-curvature="0" /><path
       id="path176"
       style="fill:none;stroke:#000000;stroke-width:1;stroke-linecap:butt;stroke-linejoin:miter;stroke-miterlimit:4;stroke-dasharray:none;stroke-opacity:1"
       d="m 217.8237,340.2061 c 14.751,0 48.3833,-1.1797 81.8189,20.455"
       inkscape:connector-curvature="0" /><path
       id="path178"
       style="fill:none;stroke:#000000;stroke-width:1;stroke-linecap:butt;stroke-linejoin:miter;stroke-miterlimit:4;stroke-dasharray:none;stroke-opacity:1"
       d="m 223.3306,332.7324 c 17.5048,-1.5732 48.3833,-3.3437 81.4257,20.2578"
       inkscape:connector-curvature="0" /><path
       id="path180"
       style="fill:#a5c2dd;fill-opacity:1;fill-rule:nonzero;stroke:none"
       d="m 210.0674,379.7568 c -1.0835,-3.9306 -1.9048,-7.8994 -1.9048,-10.8974 0,-8.7998 1.7173,-24.0371 17.5986,-39.919 h -3.2192 c -10.9458,10.9463 -16.7402,26.3985 -16.7402,37.7735 0,4.5752 0.7124,9.2734 1.6557,13.4873 0.7051,-0.3955 2.6099,-0.4444 2.6099,-0.4444 z"
       inkscape:connector-curvature="0" /><path
       id="path182"
       style="fill:none;stroke:#000000;stroke-width:1;stroke-linecap:round;stroke-linejoin:round;stroke-miterlimit:4;stroke-dasharray:none;stroke-opacity:1"
       d="m 222.0322,328.9404 c -10.9458,10.9463 -16.7402,26.3985 -16.7402,37.7735 0,4.5752 0.7124,9.2734 1.6558,13.4873"
       inkscape:connector-curvature="0" /><path
       id="path184"
       style="fill:none;stroke:#000000;stroke-width:1;stroke-linecap:round;stroke-linejoin:round;stroke-miterlimit:4;stroke-dasharray:none;stroke-opacity:1"
       d="m 210.5771,379.7568 c -1.0834,-3.9306 -1.9047,-7.8994 -1.9047,-10.8974 0,-8.7998 1.7172,-24.0371 17.5986,-39.919"
       inkscape:connector-curvature="0" /><path
       id="path186"
       style="fill:#a5c2dd;fill-opacity:1;fill-rule:nonzero;stroke:none"
       d="m 234.1309,379.8057 c 0,19.354 5.6274,25.8379 6.7334,26.9248 l 0.2373,0.1269 c -0.0552,-0.0224 -0.1221,-0.0493 -0.1827,-0.0737 0.0845,0.0801 0.1343,0.1221 0.1343,0.1221 l -0.4922,-0.2662 c -2.1616,-0.8706 -6.8535,-2.8027 -13.309,-7.1782 l 0.0112,-0.0185 c -3.4815,-15.1421 -3.6485,-15.8687 -3.6485,-26.9351 0,-14.5937 7.5743,-32.1201 19.9146,-44.4609 2.0889,0.0195 4.2017,0.0527 6.3091,0.1084 2.3887,0.0644 4.7724,0.1582 7.1094,0.2929 -12.2334,9.2286 -22.8169,23.8868 -22.8169,51.3575 z"
       inkscape:connector-curvature="0" /><path
       id="path188"
       style="fill:none;stroke:#000000;stroke-width:1;stroke-linecap:round;stroke-linejoin:round;stroke-miterlimit:4;stroke-dasharray:none;stroke-opacity:1"
       d="m 257.4575,328.4482 c -12.2334,9.2286 -22.8169,23.8868 -22.8169,51.3575 0,19.354 5.6275,25.8379 6.7334,26.9248 l 0.2373,0.1269 c -0.0551,-0.0224 -0.122,-0.0493 -0.1826,-0.0737 0.0845,0.0801 0.1343,0.1221 0.1343,0.1221 l -0.4922,-0.2662"
       inkscape:connector-curvature="0" /><path
       id="path190"
       style="fill:none;stroke:#000000;stroke-width:1;stroke-linecap:round;stroke-linejoin:round;stroke-miterlimit:4;stroke-dasharray:none;stroke-opacity:1"
       d="m 226.9971,399.2065 0.0112,-0.0185 c -3.4814,-15.1421 -3.6484,-15.8687 -3.6484,-26.9351 0,-14.5937 7.5107,-31.9424 19.851,-44.2832"
       inkscape:connector-curvature="0" /><path
       id="path192"
       style="fill:#a5c2dd;fill-opacity:1;fill-rule:nonzero;stroke:none"
       d="m 276.1963,389.6777 c 0,19.316 5.4365,24.2051 5.4365,24.2051 l -9.2851,-0.2944 c -4.0782,-8.585 -5.5943,-15.5396 -5.5943,-23.481 0,-9.2295 -1.393,-35.1084 28.0103,-52.2783 l 6.7578,3.1299 c -12.4478,7.5117 -25.3252,26.6133 -25.3252,48.7187 z"
       inkscape:connector-curvature="0" /><path
       id="path194"
       style="fill:none;stroke:#000000;stroke-width:1;stroke-linecap:round;stroke-linejoin:round;stroke-miterlimit:4;stroke-dasharray:none;stroke-opacity:1"
       d="m 271.7622,413.4058 c -4.0781,-8.585 -5.5185,-15.357 -5.5185,-23.2984 0,-9.2295 -1.4673,-35.1806 27.936,-52.3506"
       inkscape:connector-curvature="0" /><path
       id="path196"
       style="fill:none;stroke:#000000;stroke-width:1;stroke-linecap:round;stroke-linejoin:round;stroke-miterlimit:4;stroke-dasharray:none;stroke-opacity:1"
       d="m 301.5186,341.2979 c -12.4478,7.5117 -24.8125,26.2744 -24.8125,48.3798 0,19.316 5.4365,24.2051 5.4365,24.2051"
       inkscape:connector-curvature="0" /><path
       id="path198"
       style="fill:#a5c2dd;fill-opacity:1;fill-rule:nonzero;stroke:none"
       d="m 295.4722,386.8877 c -0.6441,15.0234 0.3095,21.8481 2.8852,26.5698 l 5e-4,0.003 c -1.2134,0.0914 -2.647,0.1846 -4.2685,0.2657 l 4e-4,-0.0196 c -1.7168,-8.3701 -2.2661,-15.0141 -2.2661,-19.9506 0,-4.9366 0.2134,-31.7627 20.3882,-45.7139 l 1.8584,1.7324 c -11.1601,11.1602 -17.9541,22.0899 -18.5981,37.1133 z"
       inkscape:connector-curvature="0" /><path
       id="path200"
       style="fill:none;stroke:#000000;stroke-width:1;stroke-linecap:butt;stroke-linejoin:miter;stroke-miterlimit:4;stroke-dasharray:none;stroke-opacity:1"
       d="m 314.5801,349.7744 c -11.1602,11.1602 -17.9541,22.0899 -18.5982,37.1133 -0.644,15.0234 0.3096,21.8481 2.8853,26.5698 l 5e-4,0.003"
       inkscape:connector-curvature="0" /><path
       id="path202"
       style="fill:none;stroke:#000000;stroke-width:1;stroke-linecap:round;stroke-linejoin:round;stroke-miterlimit:4;stroke-dasharray:none;stroke-opacity:1"
       d="m 293.5796,413.7261 5e-4,-0.0196 c -1.7168,-8.3701 -2.2661,-15.0141 -2.2661,-19.9506 0,-4.9366 0.2133,-31.7627 20.3881,-45.7139"
       inkscape:connector-curvature="0" /><path
       id="path204"
       style="fill:#f9c693;fill-opacity:1;fill-rule:nonzero;stroke:#000000;stroke-width:1;stroke-linecap:butt;stroke-linejoin:miter;stroke-miterlimit:4;stroke-dasharray:none;stroke-opacity:1"
       d="m 210.125,343.875 c -12.0288,9.7734 -18.375,21.875 -18.375,34.5 0,8.5 3.125,13.25 8.75,13.25 3,0 2.5771,-0.1172 3.2021,-0.1172 C 206,391 207.1567,389.9092 208.75,389 c 0.875,-1.5 0.125,-3 0.125,-3 0,0 1.625,-0.875 3.25,-2.375 2.375,1.25 3.375,0.75 4.625,2.125 3.3125,-3.3125 0.25,-9.5 -4.125,-9.5 -4.375,0 -6.25,0.625 -7.375,3.25 -1.875,-0.125 -1.875,1.25 -2,3.875 0,0 -0.75,0.875 -0.75,-3.625 -2.875,1.375 -3.125,2.625 -3.125,2.625 -0.3125,0.3125 -1.375,0.125 -0.625,-0.625 2.625,-2.625 3.875,-3.625 3.875,-5.25 0,-1.625 -1,-3.25 -2.375,-3.5 -1.375,-0.25 -0.25,-1.5 0.5,-1.5 0.75,0 1.625,1.875 2.25,1.875 0.625,0 1.25,0.125 1.25,-3 -1.25,-14.5 7.875,-28.125 5.875,-26.5 z"
       inkscape:connector-curvature="0" /><path
       id="path206"
       style="fill:#000000;fill-opacity:0.14999001;fill-rule:nonzero;stroke:none"
       d="m 201.3647,379.1074 c -0.2426,1.2481 1.2603,-1.6738 1.2603,-2.6074 0,-1.625 -1,-3.25 -2.375,-3.5 0.875,1.75 1.6045,3.5898 1.1147,6.1074 z"
       inkscape:connector-curvature="0" /><path
       id="path208"
       style="fill:#000000;fill-opacity:0.2;fill-rule:nonzero;stroke:none"
       d="m 214.7549,384.6094 c 0.7529,0.2129 1.3393,0.4189 1.9951,1.1406 3.3125,-3.3125 0.25,-9.5 -4.125,-9.5 -4.375,0 -6.25,0.625 -7.375,3.25 4.75,-2.75 7.25,-2.125 9,-0.75 1.75,1.375 1.5,3.625 1.125,4.125 -0.375,0.5 -0.6201,1.7344 -0.6201,1.7344 z"
       inkscape:connector-curvature="0" /><path
       id="path210"
       style="fill:#000000;fill-opacity:0.2;fill-rule:nonzero;stroke:none"
       d="m 201.3301,371.793 c 0.5918,0.5273 1.2012,1.582 1.6699,1.582 0.625,0 1.25,0.125 1.25,-3 -0.7041,-8.1709 1.8853,-16.0635 3.9229,-21.1064 -6.7979,13.2314 -6.8428,22.5244 -6.8428,22.5244 z"
       inkscape:connector-curvature="0" /><path
       id="path212"
       style="fill:#ffffff;fill-opacity:1;fill-rule:nonzero;stroke:none"
       d="m 209.6587,386.0215 c 1.3906,-0.5156 2.293,-1.8809 2.293,-1.8809 0,0 0.5053,0.2578 0.8847,0 0.0874,1.0703 3.8936,1.6924 3.4136,1.6739 -2.0229,1.6738 -3.54,2.3183 -5.1836,2.0605 -1.6435,-0.2578 -1.4077,-1.8535 -1.4077,-1.8535 z"
       inkscape:connector-curvature="0" /><path
       id="path214"
       style="fill:#f9c693;fill-opacity:1;fill-rule:nonzero;stroke:#000000;stroke-width:1;stroke-linecap:butt;stroke-linejoin:miter;stroke-miterlimit:4;stroke-dasharray:none;stroke-opacity:1"
       d="m 202.0137,396.6338 c 0,-0.8775 0.2192,-1.7559 0.1645,-2.4131 -0.0547,-0.6572 -0.1094,-0.8769 0.4937,-0.8769 4.9345,0 6.4697,-4.0577 7.4018,-4.0577 0.9322,0 1.3701,-0.6572 2.5767,-0.6572 1.2065,0 2.9746,-0.3789 3.7246,-1.6289 0.75,-1.25 1.875,-1.5 2.625,-1.5 0.75,0 7.75,3 7.75,6.625 0,3.625 -1.875,4.375 -3.625,4.375 -1.375,-2.25 -3,-3 -4.875,-3 -1.875,0 -2.25,1.5 -2.25,2.625 0,0.75 0.3125,1.3125 0.6875,1.6875 0.375,0.375 -1.6875,3.625 -6.8125,3.625 -3.8125,0 -5.812,-2.1436 -5.812,-2.1436 0,0 -2.0493,-1.5888 -2.0493,-2.6601 z"
       inkscape:connector-curvature="0" /><path
       id="path216"
       style="fill:#000000;fill-opacity:0.09999001;fill-rule:nonzero;stroke:none"
       d="m 205.96,400.5806 c 0.9555,0.4555 2.2656,0.8569 3.915,0.8569 5.125,0 7.1875,-3.25 6.8125,-3.625 -0.375,-0.375 -0.6875,-0.9375 -0.6875,-1.6875 -0.125,2.125 -0.375,1.375 -1.375,1.625 -1,0.25 -2.75,1.75 -3,2.5 -2.125,1 -5.665,0.3306 -5.665,0.3306 z"
       inkscape:connector-curvature="0" /><path
       id="path218"
       style="fill:#000000;fill-opacity:0.09999001;fill-rule:nonzero;stroke:none"
       d="m 221.0083,394.2363 c 0.7612,0.4717 1.4668,1.2002 2.1167,2.2637 1.75,0 3.625,-0.75 3.625,-4.375 0,-1.4004 -1.0444,-2.707 -2.3696,-3.7832 3.3696,5.9082 -2.6992,5.7646 -3.3721,5.8945 z"
       inkscape:connector-curvature="0" /><path
       id="path220"
       style="fill:#ffffff;fill-opacity:1;fill-rule:nonzero;stroke:none"
       d="m 217.625,398.2061 c -1.875,-1.8741 -0.5625,-6.8926 3.375,-2.6768 1.25,1.0703 0.25,2.0073 0.25,2.0073 -2.5,-0.5351 -2,1.3384 -3.125,1.3384 z"
       inkscape:connector-curvature="0" /><path
       id="path222"
       style="fill:#f9c693;fill-opacity:1;fill-rule:nonzero;stroke:#000000;stroke-width:1;stroke-linecap:butt;stroke-linejoin:miter;stroke-miterlimit:4;stroke-dasharray:none;stroke-opacity:1"
       d="m 213.5625,405.3003 c 0,-1.2798 -0.25,-3.7114 4.5,-5.8867 4.75,-2.1758 5.8125,-2.1758 6.75,-2.1758 1.875,0 1.0625,-1.2798 4.25,-1.2798 3.1875,0 6.1875,2.9434 6.1875,6.3989 0,3.4556 -3.25,4.9273 -4.75,4.9273 0,-1.7915 -1.375,-1.1519 -1.375,-3.7754 0,-0.832 -1.1875,-0.96 -1.4375,-0.96 -0.25,0 -1.5625,-0.0639 -2.6875,1.0879 -1.125,1.1519 -0.4375,3.3277 -0.4375,3.3277 0,0 -1.875,1.5356 -4.6875,1.5356 -2.8125,0 -6.3125,-0.832 -6.3125,-3.1997 z"
       inkscape:connector-curvature="0" /><path
       id="path224"
       style="fill:#000000;fill-opacity:0.09999001;fill-rule:nonzero;stroke:none"
       d="m 224.4014,406.2461 c 0.061,0.4448 0.1611,0.7539 0.1611,0.7539 0,0 -1.875,1.5 -4.6875,1.5 -0.9795,0 -2.0425,-0.0986 -3.0117,-0.3252 4.2617,-1.6748 7.5381,-1.9287 7.5381,-1.9287 z"
       inkscape:connector-curvature="0" /><path
       id="path226"
       style="fill:#000000;fill-opacity:0.09999001;fill-rule:nonzero;stroke:none"
       d="m 229.4805,405.3301 c 0.4077,0.7046 1.0195,0.8149 1.0195,1.9824 1.5,0 4.75,-1.4375 4.75,-4.8125 0,-2.1533 -1.2207,-4.1025 -2.9321,-5.2319 1.8071,3.6069 0.3071,6.2319 0.3071,6.2319 -1.25,0 -3.1445,1.8301 -3.1445,1.8301 z"
       inkscape:connector-curvature="0" /><path
       id="path228"
       style="fill:#ffffff;fill-opacity:1;fill-rule:nonzero;stroke:none"
       d="m 230.1514,407.5073 c -0.2207,-1.2168 -1.6377,-1.6548 -1.774,-3.1596 -0.1367,-1.5044 -3.0024,-1.5044 -3.0024,0.1503 0,1.6553 1.6377,2.2569 1.7739,3.1597 0.1367,0.9028 3.1392,0.6021 3.0025,-0.1504 z"
       inkscape:connector-curvature="0" /><path
       id="path230"
       style="fill:#f9c693;fill-opacity:1;fill-rule:nonzero;stroke:#000000;stroke-width:1;stroke-linecap:butt;stroke-linejoin:miter;stroke-miterlimit:4;stroke-dasharray:none;stroke-opacity:1"
       d="m 298.5,380.5 c 0,-9.667 6.667,-28.5 21,-28.5 -0.833,2.167 0.667,4 0.667,4 0,0 1.834,0.499 -0.5,1.333 -0.167,1.834 -0.167,2.5 -0.167,2.5 -2.5,1.667 2.167,10 2.167,10 -4.334,-2.5 -2.334,-2.166 -2.334,-2.166 -2.5,0 -3,3.332 -1.5,5.666 2.167,3.834 6.334,6.168 6.334,7.834 0,1.666 -1.334,2.167 -4.667,2 3.833,6 8.833,4.833 8.833,4.833 l -1.833,2 c 0,0 -0.833,4.5 0,6.1665 2,-1.6665 3.666,-2.8335 4.333,-3.1665 -0.166,3.5 1.168,1.167 1.334,4.3335 0.166,3.1665 -1.167,-5e-4 -1.167,5.333 -2.333,-3 -3.167,-2.5 -1.167,1 2,3.5 1.167,5.5005 1.167,7.167 0,1.6665 -1.5,12.833 -12.667,12.833 C 323,415.833 322,408 322,408 c 0,8.1665 -3.5,17.6665 -12.667,17.6665 -2.9995,0 -5.1665,-2 -5.1665,-2 9.1665,-4 7.3335,-19.333 7.3335,-19.333 -1,14 -5.5005,20 -13.8335,20 -3.833,0 -6.5,-2.667 -6.5,-2.667 0,0 -1.8335,1.167 -2,2.667 -2.333,-4.3335 -1.5,-6.5 -1.5,-6.5 0,0 2.3335,-8.667 11.8335,-8.667 L 301.8335,409 C 298.1665,407.5 299,407.0005 299,405.3335 c 0,-1.667 0.833,-6.6665 7,-10 2.333,-1.3335 -2,-1.1665 -4.5,1.1665 -2,1.1665 3.1665,-5.833 3.1665,-5.833 1.8335,-2.5 -0.5,-0.833 -2.6665,1 -2.1665,1.833 -3.5,-7.167 -3.5,-11.167 z"
       inkscape:connector-curvature="0" /><path
       id="path232"
       style="fill:#000000;fill-opacity:0.45;fill-rule:nonzero;stroke:none"
       d="m 293.5254,410.5835 c -4.5684,2.457 -5.8589,7.25 -5.8589,7.25 0,0 -0.833,2.1665 1.5,6.5 0.1665,-1.5 2,-2.667 2,-2.667 -2.2915,-1.7915 -1.5415,-3.5415 -1.5415,-4.1665 0.125,-2.5 -0.0742,-4.333 3.9004,-6.9165 z"
       inkscape:connector-curvature="0" /><path
       id="path234"
       style="fill:#000000;fill-opacity:0.45;fill-rule:nonzero;stroke:none"
       d="m 310.8867,409.6665 c 0.2715,-1.6294 0.4756,-3.4053 0.6133,-5.333 0,0 1.833,15.333 -7.3335,19.333 0,0 0.6333,0.5845 1.689,1.1216 C 310.875,420.875 314.25,413.25 313.375,410 c -0.875,-3.25 -0.25,-6.375 -0.25,-7.125 0,-0.75 -2.7266,-2.542 -2.2383,6.7915 z"
       inkscape:connector-curvature="0" /><path
       id="path236"
       style="fill:#000000;fill-opacity:0.45;fill-rule:nonzero;stroke:none"
       d="M 321.6582,412.4014 C 321.8896,410.9326 322,409.4453 322,408 c 0,0 1,7.833 -3.667,15.6665 0.8906,0 1.7197,-0.0713 2.4922,-0.2026 3.0498,-8.9639 2.7998,-14.9639 2.0498,-16.8389 -0.75,-1.875 -1.5,-0.375 -1.625,1.625 0.5,3 0.4082,4.1514 0.4082,4.1514 z"
       inkscape:connector-curvature="0" /><path
       id="path238"
       style="fill:#000000;fill-opacity:0.14999001;fill-rule:nonzero;stroke:none"
       d="m 320.167,356 c 0,0 -1.5,-1.833 -0.667,-4 -14.333,0 -21,18.833 -21,28.5 0,1.8857 0.2964,4.8828 0.8369,7.332 0.3296,-18.165 2.9971,-29.665 20.8301,-31.832 z"
       inkscape:connector-curvature="0" /><path
       id="path240"
       style="fill:#ffffff;fill-opacity:1;fill-rule:nonzero;stroke:none"
       d="m 289.0786,425.0688 c 0.5,-1.1669 1.1665,-2.333 2.1665,-2.5 1,-0.1669 1.3335,1.3335 3.3335,1.5 2,0.1666 -2.667,3.6666 -2.667,3.6666 0,0 -1.9995,-2.9996 -2.833,-2.6666 z"
       inkscape:connector-curvature="0" /><path
       id="path242"
       style="fill:#f7c169;fill-opacity:1;fill-rule:nonzero;stroke:none"
       d="m 231.1665,221.667 c -1.5,0 -1.1665,-2.334 -1.1665,-5.167 0,-2.833 0.833,-13.333 11.5,-24 6.333,-6.333 15.333,-6.167 19.6665,-6.167 4.3335,0 9.167,0.166 12.3335,2 C 271,185.667 267,183 255.5,183 c 14.3335,-7.167 27,-16.334 30,-23.167 0,3.834 2.29,7.7979 2.29,7.7979 -0.8335,-5 -1.2905,-6.7979 -1.1235,-9.6309 0.167,-2.833 2.9995,-19.667 28.1665,-19.667 25.167,0 31.834,17.668 31.834,28.334 0,7.833 -2,15.499 -14.667,28.666 -1.333,1.167 -2.166,0.168 -3.833,-0.666 -1.667,-0.834 -6.501,-3.834 -19.167,-3.834 -12.6665,0 -18.3335,2.501 -20,3.834 0,0 30.666,-7.167 48.833,11 8.75,8.75 7.834,15.667 7.834,20.667 0,5 -1.333,19.334 -16.5,25.5 0,0 -0.667,3.666 -2.334,0.166 -4,-6.5 -12,-8.333 -12,-8.333 -3.166,-10.333 -18.1665,-24.833 -49.1665,-24.833 -24.1665,0 -11.5005,2.833 -34.5,2.833 z"
       inkscape:connector-curvature="0" /><path
       id="path244"
       style="fill:#000000;fill-opacity:0.25;fill-rule:nonzero;stroke:none"
       d="m 345.623,221.2422 c -0.2929,-4.2852 -1.7011,-9.4863 -7.79,-15.5752 -18.167,-18.167 -48.833,-11 -48.833,-11 -2.3867,2.9707 1.2832,1.626 2.5063,1.3809 1.2232,-0.2452 10.0318,-1.4688 14.6802,-1.1016 4.6485,0.3672 13.8233,1.3457 24.5889,8.9307 10.7656,7.5849 14.8476,17.3652 14.8476,17.3652 z"
       inkscape:connector-curvature="0" /><path
       id="path246"
       style="fill:#000000;fill-opacity:0.14999001;fill-rule:nonzero;stroke:none"
       d="m 286.6665,158 c -0.167,2.833 0.29,4.6309 1.1235,9.6309 0,0 -2.29,-3.9639 -2.29,-7.7979 0.1348,8.5703 3.3154,9.916 3.3154,9.916 z"
       inkscape:connector-curvature="0" /><path
       id="path248"
       style="fill:#000000;fill-opacity:0.25;fill-rule:nonzero;stroke:none"
       d="m 281.332,165.5684 c -5.541,5.7353 -15.2304,12.1308 -25.832,17.4316 1.7798,0 3.3799,0.0645 4.8228,0.1826 11.9755,-7.0742 14.996,-10.7832 21.0092,-17.6142 z"
       inkscape:connector-curvature="0" /><path
       id="path250"
       style="fill:#000000;fill-opacity:0.25;fill-rule:nonzero;stroke:none"
       d="m 271.9287,186.876 c 0.5996,0.4746 1.1109,0.9658 1.5713,1.457 -3.1665,-1.834 -8,-2 -12.3335,-2 -4.3335,0 -13.3335,-0.166 -19.6665,6.167 -5.9951,5.9951 -8.8838,11.9375 -10.2642,16.4961 4.3614,-8.544 8.0313,-12.459 10.9673,-14.9053 2.9361,-2.4463 8.9302,-6.3613 18.7168,-6.3613 9.7866,0 13.4571,2.8135 14.1909,3.5478 0.7339,0.7344 2.7525,-0.0605 1.4678,-1.3457 -1.2847,-1.2851 -4.6499,-3.0556 -4.6499,-3.0556 z"
       inkscape:connector-curvature="0" /><path
       id="path252"
       style="fill:#934a09;fill-opacity:1;fill-rule:nonzero;stroke:#512b04;stroke-width:1;stroke-linecap:butt;stroke-linejoin:miter;stroke-miterlimit:4;stroke-dasharray:none;stroke-opacity:1"
       d="m 306.4487,165.1699 c -4.5273,0 -3.1186,-3.7226 -0.1006,-3.7226 3.9234,0 2.5152,3.7226 0.1006,3.7226 z"
       inkscape:connector-curvature="0" /><path
       id="path254"
       style="fill:#934a09;fill-opacity:1;fill-rule:nonzero;stroke:#512b04;stroke-width:1;stroke-linecap:butt;stroke-linejoin:miter;stroke-miterlimit:4;stroke-dasharray:none;stroke-opacity:1"
       d="m 313.7705,202.4092 c -1.4678,0 -3.6699,-1.4678 -3.6699,-2.2022 0,-0.7343 0.4892,-2.3242 2.6914,-2.3242 3.0586,0 3.792,1.4668 3.792,2.0791 0,0.6123 -1.4678,2.4473 -2.8135,2.4473 z"
       inkscape:connector-curvature="0" /><path
       id="path256"
       style="fill:#934a09;fill-opacity:1;fill-rule:nonzero;stroke:#512b04;stroke-width:1;stroke-linecap:butt;stroke-linejoin:miter;stroke-miterlimit:4;stroke-dasharray:none;stroke-opacity:1"
       d="m 249.4233,193.9678 c -2.5688,0 -2.9565,-1.084 -2.5688,-1.9571 0.4893,-1.1015 0.6113,-2.4462 3.0581,-2.4462 2.4468,0 3.4253,0.8564 3.4253,1.4677 0,0.6114 -1.7124,2.9356 -3.9146,2.9356 z"
       inkscape:connector-curvature="0" /><path
       id="path258"
       style="fill:#ffffff;fill-opacity:1;fill-rule:nonzero;stroke:#000000;stroke-width:1;stroke-linecap:butt;stroke-linejoin:miter;stroke-miterlimit:4;stroke-dasharray:none;stroke-opacity:1"
       d="m 271.1987,211.7061 c -4.1591,-4.2813 -6.6064,-9.1758 -6.7285,-10.3985 -0.1221,-1.2226 0.2446,-3.1806 2.6914,-3.3027 2.4468,-0.1221 4.1592,3.3027 4.1592,4.6484 -1.1006,4.0371 0.2446,4.2813 0.2446,5.9942 0,1.7129 -0.3667,3.0586 -0.3667,3.0586 z"
       inkscape:connector-curvature="0" /><path
       id="path260"
       style="fill:#ffffff;fill-opacity:1;fill-rule:nonzero;stroke:#000000;stroke-width:1;stroke-linecap:round;stroke-linejoin:round;stroke-miterlimit:4;stroke-dasharray:none;stroke-opacity:1"
       d="m 208.6406,227.1514 c -3.2998,0 -10.0376,-3.9883 -10.0376,-8.251 0.2749,-1.9248 3.8496,-2.4746 5.3623,-0.2744 1.5127,2.2002 4.5376,7.5625 8.1128,7.5625"
       inkscape:connector-curvature="0" /><path
       id="path262"
       style="fill:#ffffff;fill-opacity:1;fill-rule:nonzero;stroke:#000000;stroke-width:1;stroke-linecap:round;stroke-linejoin:round;stroke-miterlimit:4;stroke-dasharray:none;stroke-opacity:1"
       d="m 296.644,215.7432 c -0.2446,-1.3457 1.2237,-1.3457 1.1011,-3.5479 -0.1225,-2.2021 -0.3667,-1.5898 0,-3.4248 0.3667,-1.835 2.6909,-4.4043 4.4038,-4.0371 1.7129,0.3672 2.6914,3.0576 -2.0796,10.1533 -1.3457,2.4473 -2.2021,2.8135 -2.2021,2.8135"
       inkscape:connector-curvature="0" /><path
       id="path264"
       style="fill:#ffffff;fill-opacity:1;fill-rule:nonzero;stroke:#000000;stroke-width:1;stroke-linecap:round;stroke-linejoin:round;stroke-miterlimit:25;stroke-dasharray:none;stroke-opacity:1"
       d="m 196.2651,206.25 c -12.2378,-4.9502 -8.3877,-18.8369 1.9253,-0.8242"
       inkscape:connector-curvature="0" /><path
       id="path266"
       style="fill:#ffffff;fill-opacity:1;fill-rule:nonzero;stroke:#000000;stroke-width:1;stroke-linecap:round;stroke-linejoin:round;stroke-miterlimit:4;stroke-dasharray:none;stroke-opacity:1"
       d="m 215.791,213.4004 c -3.9878,-3.8496 -5.5,-2.749 -8.1128,-5.2246 -2.6128,-2.4756 -3.8506,-6.4629 -0.1377,-6.6006 3.7129,-0.1377 5.5005,4.3994 6.8755,6.875 1.375,2.4756 1.375,4.9502 1.375,4.9502 z"
       inkscape:connector-curvature="0" /><path
       id="path268"
       style="fill:#ffffff;fill-opacity:1;fill-rule:nonzero;stroke:#000000;stroke-width:1;stroke-linecap:round;stroke-linejoin:round;stroke-miterlimit:4;stroke-dasharray:none;stroke-opacity:1"
       d="m 225.4155,196.4873 c -3.1626,-2.3369 -8.3882,-7.1504 -8.3882,-9.2129 0,-2.0625 0.6871,-6.0498 4.5376,-1.0996 2.4751,3.2998 -0.1377,3.5752 2.8877,6.4629"
       inkscape:connector-curvature="0" /><path
       id="path270"
       style="fill:#ffffff;fill-opacity:1;fill-rule:nonzero;stroke:#000000;stroke-width:1;stroke-linecap:butt;stroke-linejoin:miter;stroke-miterlimit:25;stroke-dasharray:none;stroke-opacity:1"
       d="m 408.2959,274.3174 c 0,0 -4.9492,1.2373 -9.3496,1.2373 -4.4004,0 -3.1631,-1.5127 -3.1631,-2.2002 0,-0.6875 2.0625,-2.4746 3.5752,-2.6123 1.5127,-0.1377 1.9248,0.9619 4.125,0.9619 2.2002,0 4.8125,2.6133 4.8125,2.6133 z"
       inkscape:connector-curvature="0" /><path
       id="path272"
       style="fill:#ffffff;fill-opacity:1;fill-rule:nonzero;stroke:#000000;stroke-width:1;stroke-linecap:butt;stroke-linejoin:miter;stroke-miterlimit:25;stroke-dasharray:none;stroke-opacity:1"
       d="m 413.1094,254.791 c -9.4883,0 -12.5137,0.5498 -12.5137,-1.9248 0,-2.4746 4.125,-2.0625 4.125,-2.0625 2.3379,0 6.7383,3.4375 6.7383,3.4375 z"
       inkscape:connector-curvature="0" /><path
       id="path274"
       style="fill:#ffffff;fill-opacity:1;fill-rule:nonzero;stroke:#000000;stroke-width:1;stroke-linecap:butt;stroke-linejoin:miter;stroke-miterlimit:25;stroke-dasharray:none;stroke-opacity:1"
       d="m 431.8096,296.8682 c -5.7754,0 -7.0127,4.5371 -7.8379,4.5371 -5.0879,0 -7.4942,-0.6182 -4.8125,-3.2998 2.6816,-2.6817 7.0127,-2.2002 8.25,-2.2002 1.2373,0 -0.1377,1.2373 -0.1377,1.2373"
       inkscape:connector-curvature="0" /><path
       id="path276"
       style="fill:#ffffff;fill-opacity:1;fill-rule:nonzero;stroke:#000000;stroke-width:1;stroke-linecap:butt;stroke-linejoin:miter;stroke-miterlimit:25;stroke-dasharray:none;stroke-opacity:1"
       d="m 496.5801,248.7393 c -2.6123,0 2.3369,-6.3252 4.125,-6.3252 1.7881,0 1.9258,3.0244 0.4131,4.125 -1.5127,1.1005 -2.751,2.2002 -4.5381,2.2002 z"
       inkscape:connector-curvature="0" /><path
       id="path278"
       style="fill:#ffffff;fill-opacity:1;fill-rule:nonzero;stroke:#000000;stroke-width:1;stroke-linecap:butt;stroke-linejoin:miter;stroke-miterlimit:25;stroke-dasharray:none;stroke-opacity:1"
       d="m 485.168,238.7021 c 0,-2.7509 0,-8.1132 1.375,-9.6259 1.375,-1.5127 3.8486,-0.8252 3.7119,1.375 -0.1367,2.2002 -2.9561,6.1191 -5.0869,8.2509 z"
       inkscape:connector-curvature="0" /><path
       id="path280"
       style="fill:#ffffff;fill-opacity:1;fill-rule:nonzero;stroke:#000000;stroke-width:1;stroke-linecap:butt;stroke-linejoin:miter;stroke-miterlimit:25;stroke-dasharray:none;stroke-opacity:1"
       d="m 397.0254,289.3037 c -5.6377,0 -10.7256,0.8252 -10.7256,-0.6875 0,-1.5127 0.6875,-1.7881 4.9502,-1.7881 2.6123,0 4.2637,1.2383 5.7754,2.4756 z"
       inkscape:connector-curvature="0" /><path
       id="path282"
       style="fill:#f7c169;fill-opacity:1;fill-rule:nonzero;stroke:none"
       d="m 229.7769,225.1475 c 10.664,0 11.1562,3.2812 21.6562,3.2812 8.0391,0 19.523,12.7969 26.5776,12.7969 7.0547,0 -1.1484,-1.3125 -1.1484,-1.3125 0,0 -0.2925,-0.8037 1.6406,-0.8203 2.0601,-0.3057 -0.164,-1.4766 -2.789,-0.8203 -0.4541,-0.6016 -0.1748,-1.1807 -0.1748,-1.1807 -0.9556,-0.0918 -2.9556,0.2412 -2.9556,0.2412 -5,-7.25 -16.5005,-12.917 -25.417,-12.75 -1,0 0.2505,-2.582 6.167,-2.916 5.9165,-0.334 9.3335,-1 14.75,-0.917 24.1665,0 42.1665,13.917 42.1665,21.417 0,1.083 -1.583,0.75 -8.1665,0.75 -1.417,0 -1.5835,1.25 4.1665,1.25 3.167,0 20.667,4.666 20.667,15.416 0,10.75 -8.917,17.917 -22.917,17.917 -9.8335,0 -14.8335,-4.833 -14.8335,-4.833 -1.0835,-1.083 0.167,2.166 2.667,3.333 C 290,276 287,274.333 285.5,274.333 c -1.5,0 -0.6665,1.334 0.5,1.334 1.1665,0 7.5,3.166 14.5,3.166 -7.1665,0.667 -8.1665,2.667 -20,2.667 -11.8335,0 -13.1665,-2.167 -13.1665,-2.167 0,-3.666 -3.5,-8.166 -6,-8.833 4.1665,5.167 4.9995,10.833 -0.8335,10.833 -5.833,0 -3.666,-3.666 -11.333,-3.666 -5.8335,0 -9.667,-0.668 -9.667,-5.834 0,-2.666 4.3335,-5.333 4.3335,-5.333 -2.8335,0 -4.6665,1.333 -4.6665,1.333 -6.167,-8.333 -9.5,-15 -9.5,-22.5 0,-7.5 5,-11.666 8.1665,-11.666 0,0 -5.6665,-2.5 -9.5,6.333 -4.5,0 -6,-6.167 -6,-7.667 0,-1.5 2.2202,-7.1855 7.4434,-7.1855 z"
       inkscape:connector-curvature="0" /><path
       id="path284"
       style="fill:#000000;fill-opacity:0.14999001;fill-rule:nonzero;stroke:none"
       d="m 276.8623,239.9131 c 0,0 8.2031,1.3125 1.1484,1.3125 3.7056,2.0791 7.188,-1.3008 -1.1484,-1.3125 z"
       inkscape:connector-curvature="0" /><path
       id="path286"
       style="fill:#000000;fill-opacity:0.25;fill-rule:nonzero;stroke:none"
       d="m 325.5068,266.4824 c 0.9239,-2.0742 1.4102,-4.3886 1.4102,-6.8994 0,-10.75 -17.5,-15.416 -20.667,-15.416 11.7588,4.541 19.2832,9.1582 19.2832,15.3154 0.5137,2.5655 -0.0264,7 -0.0264,7 z"
       inkscape:connector-curvature="0" /><path
       id="path288"
       style="fill:#000000;fill-opacity:0.25;fill-rule:nonzero;stroke:none"
       d="m 305.8662,242.9482 c 3.4443,0.0469 4.3838,0.0538 4.3838,-0.7812 0,-7.5 -18,-21.417 -42.1665,-21.417 -5.4165,-0.083 -8.8335,0.583 -14.75,0.917 -5.9165,0.334 -7.167,2.916 -6.167,2.916 1.6958,-0.0322 3.4849,0.1475 5.3052,0.5088 0.2046,-2.0381 6.3613,-3.2354 15.9389,-3.2354 9.5777,0 20.7798,0.7696 36.771,16.7608 3.1641,3.1641 0.6846,4.331 0.6846,4.331 z"
       inkscape:connector-curvature="0" /><path
       id="path290"
       style="fill:#000000;fill-opacity:0.25;fill-rule:nonzero;stroke:none"
       d="m 257.9849,230.4287 c -2.3174,-1.2002 -4.5425,-2 -6.5518,-2 -10.5,0 -10.9922,-3.2812 -21.6562,-3.2812 -5.2232,0 -7.4434,5.6855 -7.4434,7.1855 2.6367,-3.4639 4.6885,-4.832 8.1094,-4.832 9.0649,0 10.4331,2.2226 13.6826,2.2226 8.3804,-0.6836 13.8594,0.7051 13.8594,0.7051 z"
       inkscape:connector-curvature="0" /><path
       id="path292"
       style="fill:#f7c169;fill-opacity:1;fill-rule:nonzero;stroke:none"
       d="m 274.3335,283.167 c 2.8335,0 6.1665,0.333 6.1665,0.333 1.8335,2 2.5,6.5 2.5,8.5 0,2 -1.333,17 -17.6665,17 L 252.5,298 c -2.5,-0.166 -8.5,1.834 -11.5,3.834 -1.333,-2 -1.666,-5.5 -1.333,-6.667 3,2.833 7.5,4.833 14.6665,-2 3,7.833 6.8335,8.5 11.3335,8.5 4.5,0 11.5,-4.333 11.5,-11 0,-4 -1.8335,-5.167 -2.8335,-7.5 z"
       inkscape:connector-curvature="0" /><path
       id="path294"
       style="fill:#000000;fill-opacity:0.25;fill-rule:nonzero;stroke:none"
       d="m 250.2822,263.9297 c 0.8555,2.3945 -1.0263,2.5654 -3.2495,-1.1973 -2.2231,-3.7627 -7.1831,-11.459 -7.1831,-19.1553 0,-3.7861 1.4883,-6.457 3.8311,-7.166 -2.0108,3.2071 -1.294,5.46 -1.294,7.4063 0,1.9463 1.0244,7.7851 3.4824,13.6221 3.1748,7.6806 4.4131,6.4902 4.4131,6.4902 z"
       inkscape:connector-curvature="0" /><path
       id="path296"
       style="fill:none;stroke:#6d3803;stroke-width:1;stroke-linecap:butt;stroke-linejoin:miter;stroke-miterlimit:4;stroke-dasharray:none;stroke-opacity:1"
       d="m 239.8496,243.5771 c 0,-4.4462 2.0523,-7.3544 5.1309,-7.3544 3.0786,0 2.7363,3.25 2.7363,3.25 0,2.5654 -1.71,2.5654 -1.71,8.8935 0,1.3682 1.1968,9.4063 4.2754,15.5635 0.8555,2.3945 -1.0263,2.5654 -3.2495,-1.1973 -2.2231,-3.7627 -7.1831,-11.459 -7.1831,-19.1553 z"
       inkscape:connector-curvature="0" /><path
       id="path298"
       style="fill:#000000;fill-opacity:1;fill-rule:nonzero;stroke:none"
       d="m 258.833,278.4668 c -3.0786,0 -2.7368,-1.5391 -2.7368,-2.7363 0,-3.0782 1.1977,-2.9073 2.2236,-2.9073 1.0259,0 3.2495,0.1709 3.2495,0.1709 0,1.0264 1.0259,1.0274 1.0259,2.2237 0,1.1963 -0.3413,3.249 -3.7622,3.249 z"
       inkscape:connector-curvature="0" /><path
       id="path300"
       style="fill:#000000;fill-opacity:1;fill-rule:nonzero;stroke:none"
       d="m 245.8345,275.3887 c -2.2232,0 -3.7622,-2.0528 -3.7622,-3.4209 0,-1.3682 1.8813,-3.25 3.2495,-3.25 1.3681,0 4.1045,1.8818 4.1045,3.0791 0,1.1972 -2.395,3.5918 -3.5918,3.5918 z"
       inkscape:connector-curvature="0" /><path
       id="path302"
       style="fill:#000000;fill-opacity:1;fill-rule:nonzero;stroke:none"
       d="m 244.7437,233.0635 c 14.5434,0 28.0625,16.1816 33.4907,16.5918 2.7651,0.6142 7.0669,1.8437 11.5732,1.8437 4.5064,0 6.1455,-1.2295 12.9048,-1.2295 6.7593,0 16.0796,3.585 16.0796,11.6758 0,8.0908 -11.0615,9.1152 -16.0796,9.1152 -5.0186,0 -12.5464,-3.7382 -20.3813,-11.5732 -7.835,-7.835 -13.1109,-14.0312 -18.7437,-17.5137 -5.6328,-3.4824 -14.7461,-8.9101 -18.8437,-8.9101 z"
       inkscape:connector-curvature="0" /><path
       id="path304"
       style="fill:#000000;fill-opacity:0.25;fill-rule:nonzero;stroke:none"
       d="m 244.7437,233.0635 c 4.0976,0 13.2109,5.4277 18.8437,8.9101 5.6328,3.4825 10.9087,9.6787 18.7437,17.5137 7.8349,7.835 15.3627,11.5732 20.3813,11.5732 5.0181,0 16.0796,-1.0244 16.0796,-9.1152 0.1016,9.627 -13.2124,10.7539 -18.231,10.7539 -5.0185,0 -11.4702,-3.0722 -23.0439,-14.6455 -11.5737,-11.5732 -20.689,-22.3271 -32.877,-24.0683 -3.1753,0 -0.1025,-0.9219 -0.1025,-0.9219"
       inkscape:connector-curvature="0" /><path
       id="path306"
       style="fill:#ffffff;fill-opacity:1;fill-rule:nonzero;stroke:none"
       d="m 285.9033,252.8164 c -7.8315,-0.7607 -8.5517,-1.8848 -9.7969,-1.8848 1.4932,2.1153 4.4195,4.6543 8.6016,6.8623 0.5249,-1.4277 1.1953,-3.0224 1.1953,-4.9775 z"
       inkscape:connector-curvature="0" /><path
       id="path308"
       style="fill:#ffffff;fill-opacity:1;fill-rule:nonzero;stroke:none"
       d="m 296.061,253.3896 c -3.6504,-0.1005 -6.5747,-0.2646 -8.9311,-0.4619 0,1.3653 -0.2549,2.8848 -1.398,5.3868 2.4702,1.2148 5.336,2.3037 8.565,3.1328 1.0156,-2.7598 1.7641,-5.293 1.7641,-8.0577 z"
       inkscape:connector-curvature="0" /><path
       id="path310"
       style="fill:#ffffff;fill-opacity:1;fill-rule:nonzero;stroke:none"
       d="m 307,253.6787 c -0.7686,-0.1172 -1.6016,-0.1816 -2.5029,-0.1816 -2.5733,0 -4.8975,-0.0254 -6.9976,-0.0723 -1.5005,2.3623 -0.3745,4.4502 -2.0058,8.3125 2.9008,0.669 6.0771,1.125 9.5058,1.2793 1.1255,-1.7041 1.7505,-5.5342 2.0005,-9.3379 z"
       inkscape:connector-curvature="0" /><path
       id="path312"
       style="fill:#ffffff;fill-opacity:1;fill-rule:nonzero;stroke:none"
       d="m 308.2646,253.9307 c 5.5127,1.3662 7.1788,5.5517 7.1788,6.4072 0,1.0264 0.1709,2.7363 -7.8672,2.7363 -0.4033,0 -0.8037,-0.004 -1.2012,-0.0117 1.3125,-2.5 0.9668,-5.7637 1.8896,-9.1318 z"
       inkscape:connector-curvature="0" /><path
       id="path314"
       style="fill:#ffffff;fill-opacity:1;fill-rule:nonzero;stroke:none"
       d="m 284.019,258.7471 c -0.8955,-0.2715 -2.2275,-1.2217 -2.8881,-1.2217 0.7417,0.7422 2.0454,2.2578 2.7993,2.9668 -0.0552,-0.8047 0.0888,-1.7451 0.0888,-1.7451 z"
       inkscape:connector-curvature="0" /><path
       id="path316"
       style="fill:#ffffff;fill-opacity:1;fill-rule:nonzero;stroke:none"
       d="m 291.8057,266.7471 c -2.4151,-1.5166 -4.7207,-3.3672 -6.9605,-5.4073 -0.0327,-1.2148 0.3565,-2.2011 0.3565,-2.2011 2.2158,0.7822 5.0366,1.9824 8.5239,2.9863 -0.1006,2.75 -1.9199,4.6221 -1.9199,4.6221 z"
       inkscape:connector-curvature="0" /><path
       id="path318"
       style="fill:#ffffff;fill-opacity:1;fill-rule:nonzero;stroke:none"
       d="m 301.627,270.6123 c -3.1646,-0.4971 -6.1119,-1.6728 -8.9082,-3.3105 1.7187,-2.2393 2.0957,-2.9268 2.0957,-4.876 2.9096,0.7685 6.2524,1.3711 10.0625,1.4902 0,2.7715 -3.25,6.6963 -3.25,6.6963 z"
       inkscape:connector-curvature="0" /><path
       id="path320"
       style="fill:#ffffff;fill-opacity:1;fill-rule:nonzero;stroke:none"
       d="m 306.25,263.9375 c 5,0 8.9375,-0.3125 8.9375,-0.3125 0,0 -1.0625,7.25 -10.1875,7.25 -0.5908,0 -1.1738,-0.0244 -1.75,-0.0703 1.75,-2.9922 3,-6.8672 3,-6.8672 z"
       inkscape:connector-curvature="0" /><path
       id="path322"
       style="fill:#ffffff;fill-opacity:1;fill-rule:nonzero;stroke:none"
       d="m 239.5366,290.6602 c 0,-2.9053 1.8345,-9.4825 3.8228,-11.7754 l 5.4287,0.1533 c 0,0 -0.2295,1.6064 0.1528,1.7588 -1.6055,0.7646 -1.2231,1.5283 -1.2231,3.2871 0,1.7588 2.0639,3.7471 3.4404,3.7471 1.3765,0 3.3643,-0.0772 4.2817,-0.6885 0,4.4345 -4.2817,9.4043 -9.4809,9.4043 -6.728,0 -6.4224,-5.3516 -6.4224,-5.8867 z"
       inkscape:connector-curvature="0" /><path
       id="path324"
       style="fill:#ffffff;fill-opacity:1;fill-rule:nonzero;stroke:none"
       d="m 264.6152,300.3701 c -5.5053,0 -9.3281,-4.3594 -9.3281,-7.9521 0,-2.2168 0.9942,-1.7578 0.9942,-3.5166 0,-0.8409 0.9936,-0.7647 0.9936,0.2295 0,1.2998 2.1406,2.2168 3.3643,2.2168 1.2236,0 6.1167,-1.5293 6.1167,-5.7344 0,-3.1348 -1.2998,-1.6055 -1.2998,-3.9756 0,-2.3701 0.5351,-1.835 1.2998,-1.835 0.7646,0 1.2236,1.4532 3.4409,1.4532 2.2173,0 4.5107,3.1337 4.5107,8.792 0,5.6582 -4.5869,10.3222 -10.0923,10.3222 z"
       inkscape:connector-curvature="0" /><path
       id="path326"
       style="fill:#ffffff;fill-opacity:1;fill-rule:nonzero;stroke:none"
       d="m 253.4521,286.9902 c -1.4526,0 -1.3764,-0.5351 -1.3764,-1.4531 0,-0.918 0.2295,-1.835 1.147,-1.835 0.9174,0 1.1469,1.2247 1.9116,1.4532 0.7646,0.2285 -0.0767,0.7646 -0.3823,1.0703 -0.3057,0.3057 -0.688,0.7646 -1.2999,0.7646 z"
       inkscape:connector-curvature="0" /><path
       id="path328"
       style="fill:#ffffff;fill-opacity:1;fill-rule:nonzero;stroke:none"
       d="m 262.3286,289.333 c -0.6406,0 -0.9253,-1.1963 -1.4951,-1.1963 -0.5698,0 -0.5693,-1.3945 -0.2847,-1.3945 0.7827,0 1.0679,-1.1289 1.6377,-1.1289 0.5694,0 0.5689,1.1289 1.2105,1.1289 0.6411,0 0.7119,1.5947 0.2138,1.5947 -0.499,0 -0.5703,0.9961 -1.2822,0.9961 z"
       inkscape:connector-curvature="0" /></g></svg>