<?xml version="1.0" encoding="UTF-8" standalone="no"?>
<!-- Generator: Adobe Illustrator 23.0.3, SVG Export Plug-In . SVG Version: 6.00 Build 0)  -->

<svg
   xmlns:dc="http://purl.org/dc/elements/1.1/"
   xmlns:cc="http://creativecommons.org/ns#"
   xmlns:rdf="http://www.w3.org/1999/02/22-rdf-syntax-ns#"
   xmlns:svg="http://www.w3.org/2000/svg"
   xmlns="http://www.w3.org/2000/svg"
   xmlns:sodipodi="http://sodipodi.sourceforge.net/DTD/sodipodi-0.dtd"
   xmlns:inkscape="http://www.inkscape.org/namespaces/inkscape"
   version="1.1"
   x="0px"
   y="0px"
   viewBox="0 0 285.03259 297.5"
   xml:space="preserve"
   id="svg292"
   sodipodi:docname="garydos.svg"
   width="285.03259"
   height="297.5"
   inkscape:version="0.92.4 (5da689c313, 2019-01-14)"><metadata
   id="metadata298"><rdf:RDF><cc:Work
       rdf:about=""><dc:format>image/svg+xml</dc:format><dc:type
         rdf:resource="http://purl.org/dc/dcmitype/StillImage" /><dc:title /></cc:Work></rdf:RDF></metadata><defs
   id="defs296" /><sodipodi:namedview
   pagecolor="#ffffff"
   bordercolor="#666666"
   borderopacity="1"
   objecttolerance="10"
   gridtolerance="10"
   guidetolerance="10"
   inkscape:pageopacity="0"
   inkscape:pageshadow="2"
   inkscape:window-width="1366"
   inkscape:window-height="715"
   id="namedview294"
   showgrid="false"
   fit-margin-top="0"
   fit-margin-left="0"
   fit-margin-right="0"
   fit-margin-bottom="0"
   inkscape:zoom="1.5733333"
   inkscape:cx="52.352139"
   inkscape:cy="183.6576"
   inkscape:window-x="-8"
   inkscape:window-y="22"
   inkscape:window-maximized="1"
   inkscape:current-layer="svg292" />
<style
   type="text/css"
   id="style2">
	.st0{fill:#FFFFFF;}
	.st1{fill:#059FE9;}
	.st2{fill:#F0706D;}
	.st3{fill:#F5D2AA;}
	.st4{fill:#FFF7A2;}
	.st5{fill:#A7D8FF;}
	.st6{fill:#D8B18B;}
	.st7{fill:#F6BECB;}
	.st8{fill:#B54E52;}
	.st9{fill:#F01E27;}
	.st10{fill:#0D72BC;}
	.st11{opacity:0.56;fill:#80B0D1;}
	.st12{fill:#E0D586;}
</style>
<g
   id="Слой_1"
   transform="matrix(-1,0,0,1,296.84337,-1.3)">
</g>
<g
   id="Слой_2"
   transform="matrix(-1,0,0,1,296.84337,-1.3)">
	<g
   id="g9">
		<path
   d="m 247.9,293.2 c -2.5,0 -4.8,-1.3 -6.1,-2.5 -0.1,0.1 -0.3,0.3 -0.5,0.4 -1.5,1.2 -3.2,1.8 -5,1.8 -1.5,0 -3,-0.5 -4.2,-1.4 -1.4,-1 -2.2,-2.5 -2.6,-4.2 -2.3,0 -4.3,-1.1 -5.6,-2.9 -0.6,0.1 -1.2,0.2 -2,0.2 -2.1,0 -3.6,-0.8 -4.4,-1.5 -1.5,-1.2 -2.3,-3 -2.5,-4.8 -3.3,1.3 -7.1,2.5 -10.5,2.9 -0.3,0 -0.7,0.1 -1.2,0.1 -2.9,0 -4.7,-1.2 -5.7,-2.2 -1.3,-1.3 -2,-3 -2.1,-4.9 -0.3,-0.1 -0.5,-0.2 -0.8,-0.3 -1.2,-0.6 -3.3,-2.1 -3.5,-5.5 0,-0.4 -0.1,-1.1 -0.2,-1.7 -1.4,-0.2 -2.6,-0.9 -3.5,-2 -0.8,-1 -1.3,-2.3 -1.3,-3.6 -0.8,0.4 -1.8,0.7 -2.9,0.7 -0.9,0 -1.7,-0.2 -2.5,-0.5 -2.1,-0.9 -3.5,-2.8 -3.9,-5 -0.1,0.1 -0.2,0.2 -0.3,0.3 -2,4.6 -8.3,16.1 -21.9,21.2 -4.2,1.6 -8.6,2.4 -13.1,2.4 -6.5,0 -11.5,-1.7 -13.1,-2.2 -6.8,-2.3 -12.5,-6 -16.9,-11 -1.3,-1.5 -2.5,-3.2 -3.6,-4.9 -2.7,-2.7 -4.9,-5.7 -6.6,-9.1 -1.5,-2.9 -3.5,-7.8 -4.1,-17.1 -0.1,-2.1 -0.2,-4.3 -0.1,-6.4 -0.8,1.9 -2,3.9 -3.9,5.6 -3.8,3.4 -8.6,3.8 -11.9,3.8 -1.2,0 -2.3,-0.1 -3.3,-0.1 l -16,-1 c -2.1,-0.1 -5.2,-0.3 -8,-1.8 -0.5,4 -1.5,8.7 -4,13 -3.8,6.4 -10.2,10.4 -16.8,10.4 -0.3,0 -0.6,0 -0.8,0 -6.6,-0.3 -12.4,-4.7 -14.6,-10.8 -2.2,-6.2 -0.1,-13.7 5.1,-17.7 2.3,-1.8 5.2,-2.7 8.2,-2.7 2.5,0 5.1,0.7 7.4,1.9 0,-1.7 0,-3.5 -0.1,-5.3 v -0.9 c -0.2,-6.2 -0.2,-12.2 1.7,-18.2 0.5,-1.6 1.1,-3 1.8,-4.4 0,0 0,0 0,0 -3.8,-0.8 -6.2,-4.7 -5.6,-8.8 0.3,-1.7 1,-3.1 1.6,-4 0.1,-0.2 0.2,-0.3 0.3,-0.5 0.7,-1.3 0.8,-2.8 0.4,-4.2 -0.4,-1.4 -1.5,-2.6 -2.7,-3.2 -0.3,-0.2 -0.7,-0.3 -1,-0.5 -2.1,-1 -5.7,-2.6 -6.9,-6.7 -1,-3.3 0.2,-6.2 1,-7.9 0.1,-0.2 0.2,-0.4 0.3,-0.6 1,-2.5 0.9,-5.8 -0.2,-9.3 -1.1,-3.5 -2.6,-7.5 -5,-10 -1.7,-1.9 -3.3,-3.9 -4.6,-6 -1.7,-2.5 -2,-5 -1.1,-7.3 1.1,-2.7 3.7,-4.5 6.8,-4.5 0.5,0 1.1,0.1 1.6,0.2 2.8,0.6 4.6,2.4 5.1,2.9 1.4,1.6 7,5.3 13.2,8.8 1.9,1 3.9,1.8 6.2,2.3 0.5,-0.8 1.1,-1.6 1.9,-2.3 1.5,-1.4 3.5,-2.4 5.5,-2.9 1,-1.6 1.5,-3.6 1.5,-5.8 C 60.2,116.7 59.2,103 57.2,90.1 55.1,76.5 52.7,68.8 50.9,63.7 50.1,61.5 49.2,59.3 48.3,57.1 44.5,55.4 38.8,51.8 35.5,45.1 32.7,39.4 32.9,34 33,31.7 c 0.1,-2.5 0.3,-7.3 3.3,-12.4 1.2,-1.9 3.8,-5.6 8.5,-8.3 1.3,-0.8 6.2,-3.4 12.7,-3.4 1.4,0 2.8,0.1 4.1,0.4 8.7,1.5 18.6,8.4 21,20.3 1.4,-8.6 7,-15.8 15,-19.3 3.1,-1.3 6.4,-2 9.9,-2 6,0 11.8,2 16.2,5.7 9.2,7.6 9.9,19.1 8.8,24.8 -1.4,7.5 -6,13.8 -12.5,17.6 0.6,0.1 1.2,0.2 1.7,0.4 2.5,1 4.1,3.4 4.4,6.6 0,0.5 0,0.9 -0.1,1.4 -0.5,2.8 -1,5.5 -1.6,8.2 -0.8,3.5 -1.4,6.3 -1.8,9.1 0.3,-0.4 0.7,-0.7 1.1,-1 1.3,-0.9 2.8,-1.4 4.4,-1.4 1.7,0 3.3,0.6 4.5,1.7 1.4,1.2 2.2,2.8 2.5,4.8 0.4,2.8 -0.1,5.5 -1.1,7.9 1,-0.8 2.2,-1.2 3.4,-1.2 0.6,0 1.3,0.1 1.9,0.4 2.3,0.9 3.8,3.2 3.5,5.7 -0.2,1.5 0.1,3.3 0.6,5.1 l 4.9,-4.2 c -0.6,-9.5 -1,-20.3 0.7,-30.6 1.6,-9.8 4.9,-22.3 16.1,-31.2 7.1,-5.6 15.8,-8.4 25.9,-8.4 7.6,0 13.7,1.6 16,2.4 9.4,3 22.4,10.3 31.1,28.4 8.4,17.7 4.8,34.3 3,42.3 -1.7,7.7 -4.6,15 -8.5,21.9 6.4,4.7 10.7,12 11.6,19.8 0.1,0.1 0.2,0.2 0.3,0.3 7.7,-3.2 16.1,-4.8 24.6,-4.8 4.7,0 9.4,0.5 14,1.5 6.1,1.3 7.3,5.3 7.5,6.9 0.5,3.1 -1.1,6.2 -3.9,7.9 -1.7,1 -3.3,1.3 -4.5,1.5 -3.3,0.6 -6.5,1.4 -9.7,2.3 1.8,1.3 3.6,3.3 3.8,6.4 0.3,4.2 -2.8,8.1 -7.4,9.2 -1.5,0.3 -2.8,0.4 -3.9,0.4 0.5,1 0.9,2.2 1,3.7 0.4,3.8 -1.9,7.3 -5.3,8.3 -0.6,0.2 -1.1,0.2 -1.7,0.3 0.1,0.9 0.2,1.9 0.2,2.8 0.2,4.3 -0.1,8.5 -1,12.7 0,4.3 -0.6,8.6 -1.8,12.8 -1,3.5 -2.4,6.9 -4.2,10.1 0.5,0.7 0.9,1.3 1.4,2 6.2,9.8 6.9,19.4 7.1,23.1 0.1,1.2 0,3.4 -0.1,8.8 0,2.1 -0.5,20.2 -5.5,29.2 -1.5,2.8 -3.6,4.4 -6.2,4.9 -0.1,-0.3 -0.5,-0.3 -1,-0.3 z M 34.1,240.4 c -0.6,0 -1.2,0.2 -1.5,0.5 -0.6,0.6 -0.8,1.9 -0.3,2.6 0.3,0.6 1.2,1 2,1 0.2,0 0.4,0 0.6,-0.1 0.9,-0.3 1.8,-1.4 2.5,-2.9 -0.7,-0.1 -1.4,-0.4 -2,-0.8 -0.5,-0.2 -0.9,-0.3 -1.3,-0.3 z m 159.5,-22.5 c -0.4,5.1 -1.4,10 -3.2,14.8 -0.6,1.7 -1.3,3.3 -2.1,4.9 8.7,-9.1 19.2,-16.9 30.4,-22.6 -0.6,-2.5 -0.7,-5 -0.4,-7.4 -2,-3.5 -3.2,-7.7 -3.4,-11.9 -4.1,-4.5 -6.6,-10.9 -6.9,-17.2 -0.6,-0.3 -1.1,-0.6 -1.6,-1 -0.6,0.2 -1.1,0.3 -1.7,0.5 -0.4,2 -0.9,4 -1.5,5.9 -0.8,2.5 -1.7,4.9 -2.8,7.2 -0.6,6.1 -1.8,12.1 -3.6,17.9 -0.9,3 -1.9,6 -3.2,8.9 z M 73.7,52.9 c 0.2,7.1 0.5,14.3 1,21.3 0.8,13.1 2.1,26.3 3.8,39.4 2.9,-3.4 5.6,-5.8 5.7,-5.9 2.3,-2 4.7,-3.8 7.3,-5.5 C 91.3,98.8 91.1,95.5 90.6,92.1 90,87.6 89.2,83 88.1,78.6 c -0.6,-2.5 0.6,-5 2.8,-6.2 0.8,-0.4 1.7,-0.6 2.5,-0.6 0.2,0 0.3,0 0.5,0 C 94,70.6 94,69.5 94,68.3 94.1,63.6 94.1,58.8 93.9,54.1 88,50.1 84,44 82.7,37.3 c -1,6 -4.2,11.6 -9,15.6 z"
   id="path5"
   inkscape:connector-curvature="0" />
		
	</g>
	<g
   id="g15">
		<path
   d="m 247.9,288.2 c -1.6,0 -2.8,-1.2 -3,-1.4 -0.3,-0.4 -0.5,-0.9 -0.7,-1.4 -0.3,-0.7 -0.6,-1.3 -1.2,-1.6 -0.2,-0.1 -0.4,-0.1 -0.6,-0.1 -0.6,0 -1.3,0.4 -1.9,1 -0.3,0.3 -0.6,0.7 -0.9,1.1 -0.4,0.6 -0.9,1.1 -1.4,1.6 -0.6,0.5 -1.2,0.7 -1.9,0.7 -0.4,0 -0.8,-0.1 -1.1,-0.4 -0.7,-0.5 -0.9,-1.5 -0.7,-2.6 0.1,-0.5 0.3,-1 0.5,-1.5 0.2,-0.5 0.4,-0.9 0.5,-1.4 0.1,-0.8 -0.1,-1.8 -0.8,-2 -0.1,-0.1 -0.3,-0.1 -0.4,-0.1 -0.4,0 -0.9,0.2 -1.4,0.5 -0.2,0.2 -0.4,0.3 -0.6,0.5 -0.4,0.4 -0.9,0.7 -1.4,1 -0.4,0.2 -0.8,0.3 -1.2,0.3 -0.7,0 -1.3,-0.3 -1.6,-0.8 -0.5,-0.7 -0.3,-1.5 -0.2,-2.2 0,-0.2 0.1,-0.4 0.1,-0.6 0,-0.2 0,-0.4 0,-0.6 -0.1,-0.5 -0.3,-0.8 -0.4,-0.9 v 0 c -0.2,0 -0.6,0.3 -0.9,0.6 -0.7,0.5 -1.7,1.3 -3.1,1.6 -0.4,0.1 -0.9,0.2 -1.4,0.2 -0.5,0 -1,-0.1 -1.3,-0.4 -1,-0.8 -0.8,-2.4 0,-3.4 0.3,-0.4 0.5,-0.7 0.7,-0.9 0.4,-0.4 0.6,-0.7 0.9,-1.5 0.4,-0.9 0.5,-2.1 0.1,-2.5 0,0 -0.1,-0.1 -0.6,-0.1 -0.2,0 -0.4,0 -0.6,0 -2,0.2 -3.2,0.8 -3.2,0.8 -2.5,1.2 -9,4.1 -13.9,4.6 -0.2,0 -0.4,0 -0.7,0 -0.9,0 -1.7,-0.2 -2.1,-0.7 -0.9,-0.9 -0.7,-2.4 -0.1,-3.4 0.4,-0.6 0.9,-1.1 1.4,-1.6 0.2,-0.2 0.4,-0.4 0.7,-0.7 0.6,-0.7 1.1,-1.3 1,-2 -0.1,-0.5 -0.7,-0.8 -1.2,-0.8 0,0 -0.1,0 -0.1,0 -0.7,0.1 -1.3,0.5 -1.9,1 l -0.2,0.2 c -0.6,0.5 -1.2,1 -2,1.2 -0.3,0.1 -0.5,0.1 -0.8,0.1 -0.3,0 -0.6,-0.1 -0.8,-0.2 -0.6,-0.3 -0.6,-0.9 -0.6,-1.3 v -0.2 c -0.2,-1.6 -0.3,-3.1 -1.1,-4.3 -0.7,-1.1 -1.8,-1.8 -2.9,-1.8 -0.2,0 -0.3,0 -0.5,0 0,0 -0.1,0 -0.1,0 -0.1,0 -0.3,-0.1 -0.4,-0.2 -0.1,-0.1 -0.1,-0.3 -0.1,-0.5 0.7,-1.6 0.1,-3.7 -1.2,-4.8 -0.7,-0.6 -1.7,-0.9 -2.7,-0.9 -0.8,0 -1.6,0.2 -2.3,0.7 l -0.2,0.1 c -0.5,0.3 -1,0.7 -1.6,0.7 -0.2,0 -0.4,0 -0.6,-0.1 -1,-0.4 -1.1,-1.7 -0.7,-2.8 0.8,-2.2 2.2,-4.1 3.5,-5.7 10.2,-12.9 24.1,-23.7 39.2,-30.5 -1.7,-3.5 -2.2,-7.7 -1.4,-11.1 -2.6,-3.5 -3.9,-8.2 -3.6,-12.9 -5,-4.5 -7.7,-12.1 -6.8,-18.8 -2.4,-0.1 -4.4,-1.3 -5.5,-3.2 -2.2,1.1 -4.6,1.8 -7.4,2 -0.3,3 -1,5.9 -1.9,8.8 -0.8,2.5 -1.8,5 -2.9,7.3 -0.6,6 -1.7,12 -3.5,17.8 -0.9,3.1 -2.1,6.2 -3.4,9.2 -0.3,4.9 -1.3,9.7 -3,14.2 -1.9,5.1 -4.5,9.8 -7.9,14 -0.5,1.4 -1.1,2.8 -1.9,4.2 -0.9,1.7 -2.1,3.3 -3.3,4.8 -1.4,3.4 -6.8,14.4 -19.4,19.2 -3.6,1.3 -7.4,2 -11.3,2 -5.7,0 -10.1,-1.5 -11.5,-1.9 -6,-2 -10.9,-5.2 -14.7,-9.5 -1.3,-1.4 -2.4,-3 -3.4,-4.7 -2.5,-2.4 -4.6,-5.2 -6.1,-8.2 -1.3,-2.5 -3,-6.8 -3.5,-15.1 -0.5,-8.2 0.5,-16.6 2.8,-25.1 -1.3,-2 -3,-3.7 -4.9,-4.9 L 94,224.5 c -0.8,2.2 -1.7,5 -3.7,6.8 -2.5,2.3 -6.1,2.5 -8.5,2.5 -1.1,0 -2.1,-0.1 -3,-0.1 l -16,-1 c -2.8,-0.2 -5.8,-0.5 -7.7,-2.5 -2.4,-2.4 -2.1,-6.2 -1.6,-9.5 0.4,-3.1 0.8,-6.3 1.2,-9.5 0.3,-2.7 0.6,-5.4 1,-8 -3.4,3.7 -4.7,8.7 -5.2,12.5 -0.5,3.4 -0.5,6.9 -0.5,10.3 0,1.7 0,3.4 -0.1,5.2 -0.2,6.6 -1.4,11.3 -3.6,15.2 -2.8,4.8 -7.7,7.9 -12.5,7.9 -0.2,0 -0.4,0 -0.6,0 -4.5,-0.2 -8.7,-3.3 -10.1,-7.4 -1.5,-4.3 -0.1,-9.3 3.5,-12 1.4,-1.1 3.2,-1.7 5.2,-1.7 2.5,0 5.1,0.9 7.1,2.6 0.2,0.2 0.2,0.5 0.1,0.7 -0.1,0.1 -0.2,0.2 -0.4,0.2 -0.1,0 -0.2,0 -0.3,-0.1 -1.1,-0.7 -2.5,-1.1 -3.9,-1.1 -1.9,0 -3.7,0.7 -5,1.9 -2.3,2.2 -2.8,6.1 -1.1,8.9 1.3,2 3.7,3.3 6.2,3.3 0.8,0 1.5,-0.1 2.2,-0.4 4.2,-1.5 5.9,-6.3 6.6,-9.1 1.2,-5 1,-10.4 0.9,-15.5 v -0.9 c -0.2,-5.8 -0.2,-11.4 1.4,-16.6 1.5,-4.7 5,-10.6 10.5,-12.8 0.1,-1.3 0.5,-5.8 0.5,-6.8 -3.3,2.9 -6.8,5.7 -10.5,8.1 -0.6,0.4 -1.3,0.8 -2.1,0.8 -0.2,0 -0.3,0 -0.4,0 -1.3,-0.3 -1.9,-1.8 -1.7,-3.1 0.1,-0.9 0.6,-1.6 1,-2.3 0.1,-0.2 0.2,-0.4 0.3,-0.6 1.3,-2.5 1.5,-5.4 0.7,-8 -0.8,-2.6 -2.7,-4.9 -5.2,-6.2 -0.4,-0.2 -0.8,-0.4 -1.2,-0.6 -1.7,-0.8 -3.6,-1.6 -4.2,-3.6 -0.5,-1.6 0.2,-3.1 0.8,-4.5 0.1,-0.3 0.2,-0.5 0.3,-0.8 1.5,-3.6 1.4,-8.1 -0.1,-12.7 -1.3,-4 -3.1,-8.6 -6,-11.8 -1.5,-1.7 -2.9,-3.4 -4.1,-5.3 -0.5,-0.8 -1,-1.8 -0.7,-2.8 0.3,-0.8 1.2,-1.3 2.2,-1.3 0.2,0 0.4,0 0.6,0.1 1.2,0.2 2.1,1 2.5,1.4 2.9,3.2 12.6,8.7 14.5,9.8 3.5,1.9 7.5,3.1 12,3.4 0.1,-1.1 0.5,-2.8 1.9,-4.1 1.2,-1.1 2.9,-1.8 4.4,-1.8 0.1,0 0.2,0 0.3,0 2.5,-2.7 3.9,-6.4 3.9,-10.6 -0.1,-14.5 -1.1,-28.5 -3.1,-41.6 -2.2,-14 -4.6,-22 -6.6,-27.4 -1.1,-3 -2.2,-5.9 -3.5,-8.8 -2.7,-1 -8.9,-3.8 -12.1,-10.4 -2.3,-4.6 -2.1,-8.9 -2,-11 0.1,-2.2 0.2,-6 2.6,-10 0.7,-1.2 2.8,-4.3 6.7,-6.6 1.1,-0.6 5,-2.7 10.2,-2.7 1.1,0 2.2,0.1 3.3,0.3 7.1,1.2 15,6.8 16.9,16.4 1.6,8.2 -2.1,16.8 -9.1,21.3 0.2,8 0.5,16.1 1,24.2 1.1,16.5 2.8,33.2 5.2,49.6 l 0.1,1 c 0,0.1 0,0.2 0.1,0.2 0,0.1 0.1,0.1 0.2,0.1 0.1,0.1 0.3,0.1 0.5,0.1 0.1,0 0.4,0 0.6,-0.2 0.2,-0.1 0.3,-0.3 0.6,-0.7 0.2,-0.3 0.3,-0.5 0.5,-0.8 0.1,-0.2 0.2,-0.4 0.3,-0.6 l 0.2,-0.3 c 3.2,-5.9 9.4,-11.4 9.7,-11.6 2.9,-2.6 6.1,-4.8 9.6,-6.7 -0.3,-4.4 -0.9,-8.9 -1.5,-13.2 -0.7,-4.7 -1.6,-9.5 -2.6,-14.1 -0.1,-0.2 0.1,-0.5 0.3,-0.6 0.1,0 0.1,-0.1 0.2,-0.1 0.1,0 0.3,0.1 0.4,0.2 1.6,1.8 3,3.9 4.3,6 0.5,-4.8 0.8,-9.7 0.9,-14.5 C 99.9,62.8 99.8,57 99.5,51.2 91.8,47.1 87.3,39.1 88,30.7 88,23 92.7,16.4 99.7,13.4 c 2.5,-1.1 5.1,-1.6 7.9,-1.6 4.8,0 9.5,1.6 13.1,4.6 9.3,7.6 7.1,19.5 7.1,20 -1.4,7.4 -6.8,13.6 -14,16.1 -0.9,3.5 -1.8,7 -2.5,10.5 -0.6,2.7 -1.1,5.4 -1.5,8.2 0.8,-1.7 1.8,-3.4 2.8,-5 0.1,-0.1 1.3,-1.9 4.9,-5.1 0.7,-0.6 1.4,-1.1 2.1,-1.1 0.2,0 0.3,0 0.5,0.1 1,0.4 1.2,1.7 1.2,2.3 0,0 0,0.1 0,0.1 -0.5,2.7 -1,5.4 -1.6,8 -1.4,6.1 -2.3,10.5 -2.4,16.3 0,1.5 0.1,3.6 1.4,4.4 0.4,0.2 0.8,0.4 1.3,0.4 1,0 2.1,-0.5 2.9,-1.4 0.9,-1 1.4,-2.2 2,-3.5 0.1,-0.3 0.3,-0.7 0.5,-1 0.3,-0.8 0.8,-1.5 1.5,-2 0.4,-0.3 1,-0.5 1.5,-0.5 0.5,0 0.9,0.2 1.3,0.4 0.6,0.5 0.7,1.2 0.8,1.7 0.5,3.5 -1.2,6.7 -2.8,9.5 -0.8,1.5 -2.1,4.1 -3.3,8.5 3.1,1.2 5.9,3.3 7.9,6 0.6,-4.6 2.4,-9 5.1,-12.8 0.1,-0.1 0.2,-0.2 0.4,-0.2 0.1,0 0.1,0 0.2,0 0.2,0.1 0.3,0.3 0.3,0.5 -0.3,3 0.3,6.6 1.8,9.8 0.3,0.6 1.3,2.6 2.7,2.6 0.1,0 0.1,0 0.2,0 0.7,-0.1 1.3,-0.6 1.8,-1 l 9.1,-7.7 c -0.7,-9.9 -1.3,-21.2 0.5,-32 1.5,-8.9 4.4,-20.2 14.3,-28.1 6.2,-4.9 13.8,-7.3 22.8,-7.3 7.1,0 12.9,1.6 14.5,2.1 8.5,2.7 20.2,9.3 28.1,25.8 7.7,16.1 4.3,31.6 2.6,39.1 -1.9,8.8 -5.5,17.1 -10.6,24.7 8,3.7 13.5,11.9 13.7,20.5 1.7,1.4 2.9,2.6 3.9,4 7.9,-3.9 16.8,-5.9 25.8,-5.9 4.3,0 8.7,0.5 13,1.4 2.2,0.5 3.4,1.4 3.6,2.8 0.2,1.2 -0.7,2.3 -1.6,2.9 -0.9,0.5 -1.9,0.7 -2.8,0.9 -5,0.9 -9.9,2.2 -14.6,3.9 -1.3,0.5 -2.8,1.2 -3,2.5 -0.3,1.9 2.4,3.2 3.2,3.5 1.5,0.6 4.2,1.7 4.4,4.1 0.1,2 -1.7,3.5 -3.6,4 -1,0.2 -2.1,0.3 -3.1,0.3 -0.7,0 -1.4,0 -2,0.1 -1.4,0.2 -3.1,0.9 -3.6,2.3 -0.3,1.2 0.3,2.3 0.9,3.6 0.5,1 1,2 1.1,3.1 0.1,1.2 -0.4,2.6 -1.7,3 -0.2,0 -0.4,0.1 -0.6,0.1 -0.7,0 -1.4,-0.3 -1.9,-0.6 -1.4,-0.8 -2.8,-1.9 -3.9,-3 0,0.3 0.1,0.5 0.1,0.8 0.1,1.1 0.1,2.1 -0.1,3.2 0.6,2.6 1,5.2 1.2,7.8 0.2,4 -0.1,8 -1,11.9 0,4 -0.5,8.1 -1.6,12 -1.2,4.2 -3,8.2 -5.4,11.8 1.2,1.4 2.2,2.8 3.2,4.3 5.5,8.7 6.1,17.5 6.4,20.8 0.1,0.9 0,3.4 -0.1,8.4 0,0.9 -0.4,18.8 -4.9,26.9 -0.8,1.4 -1.7,2.2 -2.7,2.4 -0.2,-0.4 -0.3,-0.4 -0.5,-0.4 z"
   id="path11"
   inkscape:connector-curvature="0" />
		<path
   d="m 107.6,12.3 c 4.6,0 9.2,1.5 12.8,4.4 9,7.4 7,18.9 6.9,19.5 -1.4,7.4 -6.8,13.4 -13.9,15.8 -0.9,3.4 -1.8,7 -2.6,10.8 -0.9,4.3 -1.6,8.3 -2.2,12.2 1.4,-3.9 3.1,-6.8 4.4,-8.7 0,0 1.2,-1.8 4.8,-5 0.5,-0.5 1.2,-1 1.8,-1 0.1,0 0.2,0 0.3,0.1 0.8,0.3 0.9,1.6 0.9,1.9 -0.6,3.4 -1.2,6.2 -1.6,8 -1.4,6 -2.3,10.5 -2.4,16.4 0,1.8 0.2,3.9 1.7,4.9 0.5,0.3 1,0.4 1.6,0.4 1.2,0 2.4,-0.6 3.2,-1.5 1.2,-1.3 1.8,-3.1 2.6,-4.7 0.3,-0.7 0.7,-1.4 1.3,-1.8 0.3,-0.2 0.8,-0.4 1.2,-0.4 0.3,0 0.7,0.1 0.9,0.3 0.4,0.3 0.5,0.9 0.6,1.4 0.5,3.2 -1.1,6.4 -2.8,9.2 -1.2,2 -2.4,5.1 -3.5,9.1 3.6,1.3 6.8,3.8 8.8,7.1 0.5,-4.9 2.3,-9.8 5.2,-13.9 -0.3,3.3 0.4,7 1.8,10.1 0.6,1.4 1.7,2.9 3.2,2.9 0.1,0 0.2,0 0.3,0 0.8,-0.1 1.5,-0.6 2.1,-1.2 3.1,-2.6 6.2,-5.3 9.3,-7.9 -0.8,-10.6 -1.3,-21.7 0.4,-32.1 1.6,-10 4.8,-20.4 14.1,-27.7 7.2,-5.7 15.5,-7.2 22.5,-7.2 7.3,0 13.1,1.7 14.3,2.1 18.3,5.8 26,21.8 27.8,25.5 7.6,16 4.3,31.1 2.6,38.7 -2.5,11.4 -7.4,19.9 -10.8,25 8.1,3.5 13.8,11.8 14,20.5 1.6,1.3 3,2.7 4.2,4.4 8.1,-4 17,-6 26,-6 4.3,0 8.6,0.5 12.8,1.4 1.4,0.3 3,0.9 3.3,2.3 0.1,0.9 -0.5,1.9 -1.3,2.4 -0.8,0.5 -1.8,0.7 -2.7,0.8 -5,0.9 -9.9,2.2 -14.6,4 -1.4,0.5 -3.1,1.3 -3.3,2.8 -0.3,1.9 1.7,3.3 3.5,4.1 1.8,0.7 3.9,1.8 4.1,3.7 0.1,1.7 -1.5,3.1 -3.2,3.4 -1.7,0.3 -3.4,0.1 -5.1,0.3 -1.7,0.2 -3.5,1.1 -4,2.7 -0.7,2.3 1.8,4.5 2,6.9 0.1,1 -0.3,2.2 -1.3,2.4 -0.1,0 -0.3,0.1 -0.4,0.1 -0.6,0 -1.1,-0.3 -1.6,-0.5 -1.9,-1.1 -3.7,-2.6 -5.1,-4.4 0.2,0.7 0.4,1.6 0.5,2.6 0.1,1.2 0,2.3 -0.1,3.2 0.5,2.2 1,4.8 1.2,7.8 0.3,4.8 -0.3,8.8 -1.1,11.8 0,3 -0.3,7.2 -1.6,11.9 -1.5,5.3 -3.8,9.3 -5.5,12 0.8,1 2.1,2.5 3.4,4.6 5.3,8.4 6,16.9 6.3,20.6 0.1,0.9 0,3.4 -0.1,8.4 0,0 -0.4,18.5 -4.8,26.5 -0.6,1.1 -1.3,1.9 -2.4,2.1 -0.1,0 -0.3,0 -0.4,0 -1.3,0 -2.4,-1 -2.6,-1.2 -0.8,-1 -0.9,-2.6 -2.1,-3.2 -0.3,-0.1 -0.6,-0.2 -0.8,-0.2 -0.8,0 -1.7,0.5 -2.3,1.1 -0.8,0.8 -1.4,1.9 -2.3,2.6 -0.4,0.3 -1,0.6 -1.5,0.6 -0.3,0 -0.6,-0.1 -0.8,-0.3 -0.6,-0.5 -0.7,-1.3 -0.5,-2.1 0.2,-1 0.7,-1.9 0.9,-2.9 0.2,-1 -0.1,-2.2 -1.1,-2.6 -0.2,-0.1 -0.4,-0.1 -0.6,-0.1 -0.6,0 -1.2,0.3 -1.7,0.6 -0.6,0.5 -1.2,1.1 -1.9,1.4 -0.3,0.1 -0.6,0.2 -1,0.2 -0.5,0 -1,-0.2 -1.2,-0.6 -0.5,-0.7 -0.1,-1.6 0,-2.5 0,-0.2 0,-0.4 0,-0.8 0,-0.1 -0.2,-1 -0.6,-1.2 -0.1,0 -0.2,-0.1 -0.2,-0.1 -0.8,0 -1.9,1.6 -4.2,2.2 -0.4,0.1 -0.8,0.2 -1.3,0.2 -0.4,0 -0.7,-0.1 -1,-0.3 -0.8,-0.6 -0.5,-1.9 0.1,-2.7 0.8,-1.1 1.2,-1.3 1.7,-2.5 0.4,-0.9 0.7,-2.5 0,-3.1 -0.2,-0.1 -0.4,-0.3 -1,-0.3 -0.2,0 -0.4,0 -0.7,0 -2.1,0.2 -3.4,0.8 -3.4,0.8 -1.4,0.7 -8.5,4.1 -13.7,4.6 -0.2,0 -0.4,0 -0.6,0 -0.6,0 -1.3,-0.1 -1.8,-0.6 -0.7,-0.7 -0.6,-1.9 -0.1,-2.8 0.5,-0.9 1.3,-1.5 2,-2.2 0.7,-0.7 1.2,-1.5 1.1,-2.4 -0.1,-0.7 -0.9,-1.2 -1.7,-1.2 -0.1,0 -0.1,0 -0.2,0 -0.8,0.1 -1.5,0.6 -2.2,1.1 -0.6,0.5 -1.3,1.1 -2.1,1.3 -0.2,0.1 -0.4,0.1 -0.6,0.1 -0.2,0 -0.4,0 -0.6,-0.1 -0.4,-0.2 -0.3,-0.7 -0.4,-1.1 -0.2,-1.6 -0.4,-3.2 -1.2,-4.5 -0.7,-1.2 -1.9,-2.1 -3.3,-2.1 -0.2,0 -0.4,0 -0.5,0.1 0.7,-1.8 0.1,-4.1 -1.4,-5.4 -0.8,-0.7 -1.9,-1 -3,-1 -0.9,0 -1.8,0.2 -2.5,0.7 -0.5,0.3 -1,0.7 -1.5,0.7 -0.1,0 -0.2,0 -0.4,-0.1 -0.7,-0.3 -0.7,-1.4 -0.4,-2.2 0.7,-2 2.1,-3.8 3.4,-5.5 10.4,-13.1 24.2,-23.8 39.5,-30.6 -1.7,-3.4 -2.5,-7.8 -1.5,-11.4 -2.7,-3.6 -3.9,-8.5 -3.6,-13 -5.1,-4.5 -7.9,-12.4 -6.8,-19.1 0,0 -0.1,0 -0.1,0 -2.4,0 -4.7,-1.2 -5.7,-3.4 -2.5,1.4 -5.2,2 -8,2.2 -0.3,2.6 -0.8,5.7 -1.9,9.1 -0.9,2.8 -1.9,5.3 -2.9,7.3 -0.5,5.1 -1.5,11.2 -3.5,17.8 -1,3.4 -2.2,6.5 -3.4,9.2 -0.2,3.6 -0.9,8.6 -2.9,14.2 -2.3,6.3 -5.5,11 -7.9,13.9 -0.4,1.2 -1,2.7 -1.9,4.2 -1.1,2 -2.3,3.6 -3.3,4.7 -0.8,2.1 -5.9,14 -19.1,18.9 -4,1.5 -7.8,2 -11.2,2 -5.5,0 -9.7,-1.3 -11.4,-1.9 -2.4,-0.8 -9,-3.1 -14.5,-9.4 -1.6,-1.8 -2.7,-3.5 -3.4,-4.7 -1.7,-1.7 -4.1,-4.4 -6.1,-8.2 -1.2,-2.4 -3,-6.6 -3.5,-14.9 -0.3,-5.5 -0.2,-14.3 2.9,-25.1 -1.4,-2.3 -3.4,-4.2 -5.7,-5.5 -2.2,6.5 -4.5,12.9 -6.7,19.4 -0.8,2.4 -1.7,4.9 -3.6,6.6 -2.2,2 -5.2,2.4 -8.2,2.4 -1,0 -2,0 -3,-0.1 -5.3,-0.3 -10.7,-0.6 -16,-1 -2.6,-0.2 -5.5,-0.4 -7.3,-2.3 -2.2,-2.3 -1.9,-5.9 -1.5,-9 0.8,-6.2 1.5,-12.8 2.3,-19 -3.8,3.5 -5.7,8.7 -6.4,13.8 -0.7,5.1 -0.4,10.3 -0.6,15.5 -0.2,5.2 -0.9,10.5 -3.6,14.9 -2.5,4.3 -7.1,7.7 -12.1,7.7 -0.2,0 -0.4,0 -0.5,0 -4.2,-0.2 -8.3,-3.1 -9.7,-7.1 -1.4,-4 -0.1,-8.9 3.3,-11.4 1.4,-1.1 3.1,-1.6 4.9,-1.6 2.4,0 4.9,0.9 6.8,2.5 -1.2,-0.8 -2.7,-1.2 -4.2,-1.2 -2,0 -3.9,0.7 -5.4,2.1 -2.5,2.4 -3,6.6 -1.2,9.5 1.4,2.2 4,3.6 6.6,3.6 0.8,0 1.6,-0.1 2.4,-0.4 3.8,-1.3 6,-5.5 6.9,-9.4 1.3,-5.4 1,-11 0.9,-16.5 -0.2,-5.5 -0.2,-11.2 1.4,-16.5 1.6,-5.3 5.4,-10.7 10.5,-12.6 0.2,-2.8 0.4,-5.6 0.7,-8.4 -3.5,3.3 -7.3,6.2 -11.4,8.9 -0.5,0.4 -1.2,0.7 -1.8,0.7 -0.1,0 -0.2,0 -0.3,0 -1,-0.2 -1.5,-1.5 -1.3,-2.5 0.2,-1 0.8,-1.9 1.3,-2.8 1.3,-2.6 1.6,-5.7 0.7,-8.4 -0.9,-2.8 -2.9,-5.1 -5.5,-6.4 -2,-1 -4.5,-1.7 -5.2,-3.8 -0.5,-1.6 0.5,-3.3 1.1,-4.9 1.7,-4.1 1.3,-8.8 -0.1,-13.1 -1.4,-4.2 -3.1,-8.7 -6.1,-12 -1.5,-1.6 -2.9,-3.4 -4.1,-5.3 -0.5,-0.7 -0.9,-1.5 -0.6,-2.3 0.3,-0.7 1,-1 1.7,-1 0.2,0 0.3,0 0.5,0 1.2,0.2 2,1 2.2,1.2 3.1,3.4 13.7,9.3 14.6,9.9 2.6,1.5 6.7,3.2 12.8,3.5 0,-0.4 0,-2.6 1.8,-4.2 1,-1 2.6,-1.7 4.1,-1.7 0.2,0 0.3,0 0.5,0 2.9,-2.9 4.2,-7 4.2,-11.1 -0.1,-11.8 -0.8,-26.3 -3.2,-41.7 -2,-13.3 -4.4,-21.3 -6.6,-27.5 -1.4,-3.8 -2.6,-6.9 -3.6,-9 -1.8,-0.6 -8.6,-3.2 -12,-10.2 -2.2,-4.5 -2,-8.7 -2,-10.8 0.1,-2.4 0.3,-6 2.6,-9.8 0.5,-0.8 2.5,-4 6.5,-6.4 0.6,-0.4 4.6,-2.6 9.9,-2.6 1,0 2.1,0.1 3.2,0.3 7.2,1.3 14.7,7 16.5,16 1.6,8.2 -2.1,16.5 -9.2,20.9 0.2,7.9 0.5,16.1 1.1,24.5 1.1,17.6 3,34.2 5.3,49.7 0,0.3 0.1,0.7 0.2,1 0,0.1 0,0.3 0.2,0.5 0.1,0.2 0.2,0.2 0.3,0.3 0.2,0.1 0.4,0.2 0.7,0.2 0.3,0 0.6,-0.1 0.8,-0.2 0.3,-0.2 0.4,-0.4 0.7,-0.8 0.2,-0.4 0.4,-0.7 0.5,-0.9 0.1,-0.3 0.3,-0.6 0.5,-0.9 3.2,-5.9 9.6,-11.5 9.6,-11.5 2.3,-2 5.5,-4.5 9.7,-6.8 -0.3,-4.3 -0.8,-8.8 -1.5,-13.6 -0.7,-5 -1.7,-9.8 -2.6,-14.2 1.9,2.2 3.5,4.7 5.1,7.1 0.5,-5 0.9,-10.3 1,-15.9 C 99.9,62.1 99.8,56.3 99.5,50.8 91.7,47 87.2,39 87.9,30.7 c 0.6,-7 4.9,-13.8 12,-16.9 2.4,-1 5.1,-1.5 7.7,-1.5 m 0,-1 c -2.9,0 -5.6,0.6 -8.1,1.6 -7.1,3.1 -12,9.8 -12.6,17.7 -0.7,8.5 3.8,16.6 11.5,20.8 0.3,5.6 0.3,11.3 0.2,16.9 -0.1,4.3 -0.4,8.7 -0.8,13 -1.1,-1.7 -2.3,-3.3 -3.6,-4.8 -0.2,-0.2 -0.5,-0.4 -0.8,-0.4 -0.2,0 -0.3,0 -0.4,0.1 -0.4,0.2 -0.6,0.7 -0.5,1.1 1,4.6 1.9,9.4 2.6,14.1 0.6,4.3 1.1,8.6 1.5,12.9 -3.4,1.9 -6.5,4.1 -9.4,6.6 -0.3,0.2 -6.5,5.8 -9.8,11.8 -0.1,0.1 -0.1,0.2 -0.2,0.3 -0.1,0.2 -0.2,0.4 -0.3,0.6 -0.1,0.3 -0.3,0.5 -0.4,0.7 -0.2,0.3 -0.3,0.5 -0.4,0.6 -0.1,0.1 -0.2,0.1 -0.3,0.1 -0.1,0 -0.1,0 -0.2,0 0,0 0,0 0,0 -0.1,-0.3 -0.1,-0.7 -0.1,-1 C 73,107.7 71.2,91 70.2,74.5 69.7,66.6 69.3,58.6 69.2,50.6 76.2,46 79.9,37.4 78.3,29 76.4,19.2 68.2,13.5 61,12.2 59.9,12 58.8,11.9 57.6,11.9 c -5.3,0 -9.3,2.1 -10.4,2.7 -4,2.3 -6.1,5.5 -6.9,6.7 -2.5,4.1 -2.6,7.9 -2.7,10.2 -0.1,2.1 -0.3,6.6 2.1,11.3 3.2,6.6 9.3,9.5 12.2,10.6 1.2,2.8 2.4,5.7 3.4,8.5 1.9,5.4 4.4,13.3 6.6,27.3 2,13.1 3.1,27.1 3.1,41.6 0,4 -1.2,7.5 -3.6,10.1 0,0 -0.1,0 -0.1,0 -1.6,0 -3.5,0.8 -4.8,1.9 -1.4,1.2 -1.9,2.8 -2,3.9 -4.3,-0.4 -8.1,-1.5 -11.3,-3.3 -1.9,-1.1 -11.6,-6.6 -14.4,-9.7 -0.1,-0.1 -1.1,-1.2 -2.7,-1.5 -0.2,0 -0.4,-0.1 -0.7,-0.1 -1.2,0 -2.2,0.6 -2.6,1.6 -0.5,1.4 0.3,2.7 0.7,3.2 1.2,1.9 2.7,3.7 4.2,5.4 2.9,3.2 4.6,7.7 5.9,11.6 1.5,4.5 1.5,8.9 0.1,12.4 -0.1,0.2 -0.2,0.5 -0.3,0.7 -0.6,1.5 -1.3,3.1 -0.8,4.8 0.6,2.1 2.7,3.1 4.5,3.9 0.4,0.2 0.8,0.4 1.2,0.6 2.4,1.2 4.2,3.3 5,5.9 0.8,2.5 0.6,5.3 -0.7,7.7 -0.1,0.2 -0.2,0.4 -0.3,0.6 -0.4,0.7 -0.9,1.6 -1,2.5 -0.2,1.5 0.5,3.3 2.1,3.6 0.2,0 0.4,0.1 0.6,0.1 0.9,0 1.6,-0.4 2.3,-0.9 3.4,-2.2 6.6,-4.6 9.6,-7.3 0,0.6 -0.1,1.1 -0.1,1.7 -0.1,1.2 -0.2,2.4 -0.3,3.6 -5.5,2.4 -9.1,8.2 -10.5,13 -1.6,5.3 -1.6,11 -1.5,16.8 v 0.9 c 0.1,5.1 0.3,10.4 -0.9,15.4 -0.5,2.1 -2.1,7.3 -6.2,8.7 -0.6,0.2 -1.3,0.3 -2,0.3 -2.3,0 -4.6,-1.2 -5.8,-3.1 -1.6,-2.5 -1.1,-6.2 1,-8.2 1.2,-1.1 2.9,-1.8 4.7,-1.8 1.3,0 2.6,0.4 3.6,1 0.2,0.1 0.4,0.2 0.6,0.2 0.3,0 0.6,-0.1 0.8,-0.4 0.3,-0.4 0.2,-1 -0.2,-1.4 -2.1,-1.7 -4.8,-2.7 -7.4,-2.7 -2.1,0 -4,0.6 -5.5,1.8 -3.7,2.8 -5.2,8.1 -3.6,12.6 1.5,4.3 5.9,7.5 10.6,7.8 0.2,0 0.4,0 0.6,0 4.9,0 10,-3.2 12.9,-8.2 3,-5.1 3.6,-11.2 3.7,-15.4 0.1,-1.7 0.1,-3.5 0.1,-5.2 0,-3.4 0,-6.9 0.5,-10.2 0.4,-3.2 1.5,-7.4 4,-10.9 -0.3,2.1 -0.5,4.2 -0.8,6.3 -0.4,3.1 -0.8,6.4 -1.2,9.5 -0.3,2.5 -0.9,7 1.8,9.9 2,2.1 5.1,2.5 8,2.6 l 8.3,0.5 7.8,0.5 c 0.9,0.1 2,0.1 3,0.1 2.5,0 6.2,-0.3 8.9,-2.6 2.1,-1.9 3.1,-4.7 3.9,-7 l 4.7,-13.6 1.6,-4.6 c 1.6,1.1 3,2.5 4.1,4.2 -2.3,8.4 -3.3,16.8 -2.8,25 0.5,8.5 2.3,12.8 3.6,15.3 1.6,3.1 3.6,5.9 6.2,8.3 1,1.7 2.1,3.3 3.4,4.7 3.9,4.4 8.9,7.6 15,9.7 1.5,0.5 5.9,2 11.7,2 4,0 7.9,-0.7 11.5,-2.1 12.7,-4.7 18.2,-15.8 19.6,-19.4 1.3,-1.5 2.4,-3.1 3.4,-4.8 0.7,-1.3 1.4,-2.7 1.9,-4.2 3.4,-4.2 6.1,-9 8,-14.1 1.7,-4.6 2.7,-9.4 3,-14.3 1.3,-3 2.4,-6.1 3.3,-9.2 1.8,-5.8 2.9,-11.7 3.5,-17.8 1.2,-2.3 2.1,-4.8 2.9,-7.3 0.9,-2.8 1.5,-5.6 1.8,-8.5 2.5,-0.3 4.7,-0.9 6.7,-1.8 1.1,1.6 2.9,2.7 5.1,3 -0.7,6.7 2,14.1 6.9,18.6 -0.2,4.7 1.1,9.3 3.6,12.8 -0.8,3.3 -0.3,7.3 1.2,10.7 -14.9,6.8 -28.7,17.6 -38.9,30.5 -1.3,1.6 -2.8,3.6 -3.6,5.8 -0.6,1.6 -0.2,2.9 1,3.4 0.2,0.1 0.5,0.2 0.8,0.2 0.8,0 1.4,-0.4 1.9,-0.8 l 0.2,-0.1 c 0.6,-0.4 1.3,-0.6 2,-0.6 0.9,0 1.7,0.3 2.3,0.8 1.2,1 1.7,2.8 1.1,4.2 -0.1,0.3 -0.1,0.7 0.2,1 0.2,0.2 0.5,0.4 0.8,0.4 0.1,0 0.1,0 0.2,0 0.1,0 0.2,0 0.4,0 0.9,0 1.8,0.6 2.4,1.6 0.7,1.2 0.9,2.6 1,4.1 0,0.1 0,0.1 0,0.2 0,0.4 0.1,1.4 0.9,1.8 0.3,0.1 0.7,0.2 1,0.2 0.3,0 0.6,0 0.9,-0.1 0.9,-0.3 1.6,-0.8 2.2,-1.3 l 0.2,-0.2 c 0.5,-0.4 1.1,-0.8 1.7,-0.9 0,0 0.1,0 0.1,0 0.4,0 0.7,0.2 0.7,0.4 0.1,0.5 -0.2,0.9 -0.8,1.6 -0.2,0.2 -0.4,0.4 -0.6,0.7 -0.5,0.5 -1,1 -1.4,1.7 -0.7,1.1 -0.9,2.8 0.2,4 0.6,0.6 1.4,0.9 2.5,0.9 0.2,0 0.5,0 0.7,0 4.9,-0.5 11.5,-3.4 14,-4.7 0,0 1.2,-0.5 3,-0.7 0.2,0 0.4,0 0.6,0 0.2,0 0.3,0 0.3,0 0.1,0.2 0.1,1 -0.2,1.9 -0.3,0.7 -0.5,0.9 -0.8,1.3 -0.2,0.2 -0.4,0.5 -0.7,1 -0.9,1.2 -1.1,3.1 0.1,4.1 0.4,0.3 1,0.5 1.6,0.5 0.5,0 1.1,-0.1 1.5,-0.2 1.5,-0.4 2.5,-1.2 3.3,-1.7 0.1,-0.1 0.3,-0.2 0.4,-0.3 0,0.1 0.1,0.2 0.1,0.3 0,0.2 0,0.3 0,0.5 0,0.2 -0.1,0.4 -0.1,0.6 -0.1,0.8 -0.3,1.7 0.3,2.6 0.4,0.6 1.2,1 2.1,1 0.5,0 1,-0.1 1.4,-0.3 0.6,-0.3 1.1,-0.7 1.5,-1.1 0.2,-0.2 0.4,-0.3 0.6,-0.5 0.4,-0.3 0.8,-0.4 1.1,-0.4 0.1,0 0.2,0 0.2,0 0.4,0.2 0.6,0.9 0.4,1.5 -0.1,0.4 -0.3,0.9 -0.4,1.3 -0.2,0.5 -0.4,1 -0.5,1.5 -0.3,1.3 0,2.4 0.9,3.1 0.4,0.3 0.9,0.5 1.5,0.5 0.7,0 1.5,-0.3 2.2,-0.8 0.6,-0.5 1.1,-1.1 1.5,-1.7 0.3,-0.4 0.6,-0.7 0.8,-1 0.5,-0.5 1.1,-0.8 1.6,-0.8 0.1,0 0.3,0 0.4,0.1 0.4,0.2 0.6,0.8 0.9,1.4 0.2,0.5 0.5,1 0.8,1.5 0.3,0.4 1.7,1.6 3.4,1.6 0.2,0 0.4,0 0.6,0 1.2,-0.2 2.2,-1.1 3.1,-2.6 4.6,-8.2 4.9,-26.8 4.9,-27 0.1,-5.1 0.1,-7.5 0.1,-8.5 -0.2,-3.3 -0.9,-12.2 -6.5,-21 -0.9,-1.4 -1.9,-2.8 -3,-4.1 2.3,-3.6 4.1,-7.5 5.3,-11.6 1.1,-3.9 1.7,-8 1.6,-12 0.9,-3.9 1.3,-7.9 1,-11.9 -0.1,-2.6 -0.5,-5.2 -1.2,-7.8 0.1,-0.9 0.1,-1.7 0.1,-2.6 0.9,0.8 2,1.6 3,2.2 0.6,0.3 1.3,0.7 2.1,0.7 0.2,0 0.5,0 0.7,-0.1 1.5,-0.4 2.2,-2.1 2,-3.5 -0.1,-1.2 -0.7,-2.3 -1.2,-3.3 -0.6,-1.2 -1.1,-2.2 -0.8,-3.2 0.4,-1.2 1.9,-1.8 3.1,-2 0.6,-0.1 1.3,-0.1 2,-0.1 1,0 2.1,0 3.2,-0.3 2,-0.5 4.1,-2.2 3.9,-4.5 -0.2,-2.7 -3.1,-3.9 -4.7,-4.6 -1.5,-0.6 -3.1,-1.8 -2.9,-3 0.1,-0.8 1,-1.5 2.7,-2.1 4.7,-1.7 9.5,-3 14.4,-3.9 h 0.1 c 1,-0.2 2,-0.4 3,-0.9 1,-0.6 2,-1.9 1.8,-3.4 -0.2,-1.6 -1.6,-2.6 -4,-3.2 -4.3,-0.9 -8.7,-1.4 -13.1,-1.4 -9,0 -17.9,2 -25.7,5.8 -0.9,-1.2 -2.1,-2.3 -3.5,-3.6 -0.3,-8.6 -5.6,-16.6 -13.5,-20.5 4.9,-7.5 8.4,-15.7 10.3,-24.4 1.7,-7.5 5.1,-23.1 -2.7,-39.4 -8,-16.6 -19.8,-23.3 -28.4,-26 -1.6,-0.5 -7.4,-2.1 -14.6,-2.1 -9.1,0 -16.9,2.5 -23.1,7.4 -10,7.9 -13,19.3 -14.5,28.4 -1.7,10.7 -1.2,22 -0.5,31.8 l -8.9,7.6 c -0.6,0.5 -1.1,0.9 -1.5,0.9 -0.1,0 -0.1,0 -0.1,0 -0.9,0 -1.8,-1.2 -2.3,-2.3 -1.4,-3.2 -2,-6.6 -1.7,-9.6 0,-0.5 -0.2,-0.9 -0.6,-1 -0.1,0 -0.2,-0.1 -0.4,-0.1 -0.3,0 -0.6,0.1 -0.8,0.4 -2.5,3.5 -4.2,7.6 -5,11.9 -1.9,-2.2 -4.3,-4 -7,-5.1 1.2,-4.1 2.3,-6.6 3.1,-8 1.7,-2.9 3.4,-6.3 2.9,-9.9 -0.1,-0.6 -0.3,-1.4 -1,-2 -0.4,-0.4 -1,-0.6 -1.6,-0.6 -0.6,0 -1.2,0.2 -1.8,0.6 -0.8,0.6 -1.2,1.4 -1.6,2.2 -0.2,0.3 -0.3,0.7 -0.5,1 -0.6,1.3 -1.1,2.5 -1.9,3.4 -0.7,0.7 -1.7,1.2 -2.5,1.2 -0.4,0 -0.7,-0.1 -1,-0.3 -0.9,-0.6 -1.3,-1.8 -1.2,-4 0.1,-5.8 1,-10.2 2.4,-16.2 0.6,-2.6 1.1,-5.3 1.6,-8 0,-0.1 0,-0.2 0,-0.3 -0.1,-0.8 -0.4,-2.3 -1.5,-2.7 -0.2,-0.1 -0.4,-0.1 -0.7,-0.1 -0.9,0 -1.7,0.6 -2.5,1.3 -3.3,2.8 -4.7,4.7 -5,5.2 v 0 c -0.5,0.7 -0.9,1.4 -1.4,2.2 0.3,-1.7 0.6,-3.4 1,-5 0.7,-3.4 1.5,-6.8 2.4,-10.2 7.3,-2.6 12.7,-8.8 14.1,-16.4 0.1,-0.5 2.3,-12.7 -7.2,-20.5 -4.1,-3.1 -8.8,-4.8 -13.8,-4.8 z"
   id="path13"
   inkscape:connector-curvature="0" />
	</g>
	<path
   class="st1"
   d="m 80.4,123.5 c 1.6,-0.4 3.3,-0.5 4.9,-0.3 3.1,0.4 5.5,2.1 7,4.7 -0.2,-1.8 0,-3.6 0.3,-5.4 0.4,-2.5 0.9,-4.3 1.2,-5.3 0.7,-2.4 1.6,-6 1.9,-11.2 -2.9,1.8 -5.2,3.5 -6.9,4.9 -5.1,4.3 -8,8.3 -8.8,9.5 -1.1,1.6 -2.2,3.6 -2.2,3.6 -0.1,0.2 -0.2,0.4 -0.4,0.7 1.1,-0.3 2.3,-1 3,-1.2 z"
   id="path17"
   inkscape:connector-curvature="0"
   style="fill:#059fe9" />
	<path
   class="st1"
   d="m 28.3,141.8 c 0.7,0.8 1.4,1.7 2,2.6 0,-0.2 0,-0.3 0,-0.5 0,-1.6 1.3,-1.5 2.4,-0.9 2.8,1.7 5.3,3.7 8.1,5.4 3,1.8 6.2,3.1 9.6,4.2 0.2,0.1 0.3,0.4 0.1,0.5 -1.7,1 -3.7,1 -5.4,2 -3,1.8 0.1,4.4 2.1,5.2 1.7,0.7 3.5,1.1 5.2,1.7 1.6,0.5 3.2,1.1 3.4,3 0.2,2.1 -1.4,3.8 -2.6,5.3 -1.3,1.5 -1.2,3.2 0.3,4.6 0.8,0.8 1.5,1.4 2.1,2.4 0.7,1.3 1.2,2.7 1.4,4.1 0.1,-0.6 0.1,-1.3 0.1,-2 0.1,-3.9 0,-7.9 -0.2,-11.8 -0.2,-4.2 -0.8,-8.4 -1.5,-12.5 -0.3,-1.7 -0.6,-3.3 -0.6,-5 0,-0.8 0,-1.6 0.1,-2.4 -5.7,-0.4 -9.6,-2 -12.1,-3.4 -1,-0.5 -11.6,-6.5 -14.6,-9.9 -0.2,-0.2 -1,-1 -2.2,-1.2 -0.8,-0.2 -1.8,0.1 -2.1,0.9 -0.3,0.8 0.2,1.6 0.6,2.3 0.9,2 2.3,3.8 3.8,5.4 z"
   id="path19"
   inkscape:connector-curvature="0"
   style="fill:#059fe9" />
	<path
   class="st1"
   d="m 55.7,199.1 c 0.1,-1.4 0.1,-2.8 0,-4.3 -4.9,2.1 -8.4,7.3 -10,12.4 -1.6,5.3 -1.6,10.9 -1.4,16.5 0.2,5.6 0.4,11.1 -0.9,16.5 -0.9,4 -3,8.1 -6.9,9.4 -3.2,1.1 -7.2,-0.3 -9,-3.2 -1.8,-2.9 -1.3,-7.1 1.2,-9.5 2.5,-2.4 6.7,-2.8 9.5,-0.9 -3.3,-2.7 -8.3,-3.5 -11.6,-0.9 -3.3,2.6 -4.7,7.4 -3.3,11.4 1.4,4 5.4,6.9 9.7,7.1 5.2,0.3 10,-3.2 12.6,-7.7 2.6,-4.5 3.4,-9.8 3.6,-14.9 0.2,-5.2 -0.1,-10.4 0.6,-15.5 0.7,-4.7 2.3,-9.5 5.6,-12.9 0.1,-1 0.3,-2.2 0.3,-3.5 z"
   id="path21"
   inkscape:connector-curvature="0"
   style="fill:#059fe9" />
	<path
   class="st0"
   d="m 64,160.2 c -0.1,-2.2 -0.4,-4.4 0.1,-6.6 0.2,-1 0.6,-2 1.1,-3 -1.3,-0.3 -2.5,-0.4 -3.6,0.1 -1.5,1.4 -1.9,3.4 -1.8,5.5 0.9,1.6 2.8,3.1 4.2,4 z"
   id="path23"
   inkscape:connector-curvature="0"
   style="fill:#ffffff" />
	<path
   class="st0"
   d="m 84.2,159.7 c -0.1,-2.7 1.1,-5.6 2.9,-7.8 -0.1,-0.1 -0.2,-0.2 -0.2,-0.2 -1.5,-1.3 -3.5,-1.4 -5.5,-1.3 -1.1,3.2 0.6,6.8 2.8,9.3 z"
   id="path25"
   inkscape:connector-curvature="0"
   style="fill:#ffffff" />
	<path
   class="st0"
   d="m 61,219.8 c -0.8,-0.7 -1.7,-1.6 -2.4,-2.6 -0.1,0.5 -0.1,1.1 -0.2,1.6 0,0.4 0,0.8 0,1.2 0,0.7 0.1,1.3 0.3,1.8 0.3,0.9 0.9,1.8 1.7,2.6 0.1,0.1 0.1,0.1 0.2,0.2 0.7,0 1.3,-0.2 1.8,-0.6 1.7,-1.7 -0.2,-3.1 -1.4,-4.2 z"
   id="path27"
   inkscape:connector-curvature="0"
   style="fill:#ffffff" />
	<path
   class="st0"
   d="m 85.9,219.5 c -1,-0.9 -1.7,-1.9 -2.2,-3 -0.4,1.6 -0.3,3.4 -0.1,5 0.2,1.4 0.6,2.7 2.1,3.3 0.5,0.2 0.9,0.2 1.2,0.1 0.3,-0.2 0.6,-0.4 0.8,-0.7 0.9,-1.7 -0.1,-3.2 -1.8,-4.7 z"
   id="path29"
   inkscape:connector-curvature="0"
   style="fill:#ffffff" />
	<path
   class="st2"
   d="m 89.1,213.1 c 5.7,-7.8 7.5,-17.9 7.4,-27.3 -0.1,-4.2 -1.1,-10.6 -6.6,-10.4 -2.2,0.1 -4.3,1 -6.6,1 -2,-0.1 -3.9,-0.6 -5.8,-1.4 -0.6,-0.1 -1.3,-0.1 -1.9,-0.1 -5.4,0.5 -7,6.9 -7.9,11.3 -1.1,5.4 -1.7,10.7 -1.8,16.2 0,4.5 -0.2,9.3 1.8,13.4 2,4.2 6.2,5.8 10.7,4.9 1.5,-0.3 2.9,-0.9 4.3,-1.7 0,-1.3 0.3,-2.6 0.7,-3.6 0.1,-0.3 0.5,-0.3 0.6,0 0.3,0.7 0.7,1.3 1.1,1.9 1.5,-1.2 2.8,-2.7 4,-4.2 z"
   id="path31"
   inkscape:connector-curvature="0"
   style="fill:#f0706d" />
	<path
   class="st3"
   d="m 99.2,163.6 c -0.7,-3.5 -1.8,-6.9 -3.4,-10.2 -1.2,-2.7 -2.5,-5.5 -4.6,-7.6 -5.1,-5.2 -13.4,-1.7 -19.6,-2 -3.2,-0.1 -6.3,-1.4 -9.5,-1.6 -1.1,-0.1 -2.5,0.1 -3.7,0.4 -0.5,0.3 -0.9,0.6 -1.3,0.9 -1.1,1 -1.5,2.2 -1.7,3.1 0.1,1.3 0.1,2.5 0.1,3.8 0.1,2 0.4,4.1 0.7,6.1 0.5,3.9 1,7.8 1.2,11.7 0.3,6.1 0.6,12.8 -0.6,19 -0.2,2.2 -0.3,4.4 -0.5,6.5 0.4,3.7 0.4,7.8 -0.5,11.4 -0.6,5.2 -1.2,10.5 -1.9,15.6 -0.4,3.1 -0.7,6.8 1.5,9 1.8,1.9 4.7,2.2 7.3,2.3 5.3,0.3 10.7,0.6 16,1 3.9,0.2 8.3,0.3 11.2,-2.3 1.9,-1.7 2.8,-4.2 3.6,-6.6 l 6.2,-18 c 0.7,-6.9 1.3,-13.8 1.3,-20.7 0.1,-7.1 -0.3,-14.6 -1.8,-21.8 z M 98,196.1 c -0.4,4 -0.7,8.1 -1.5,12.1 -0.8,3.8 -2.4,7.3 -4.1,10.7 -1.4,2.7 -2.7,5.6 -5.4,7.2 -2.9,1.7 -6.1,1 -9.3,1 -2.1,0 -4.3,0 -6.4,0.2 -1.7,0.2 -3.5,0.4 -5.3,0.3 -2.8,-0.2 -5.7,-1.4 -7.3,-3.9 -1.5,-2.2 -1.5,-5 -1.2,-7.6 0.8,-7.9 1.9,-15.7 2.4,-23.7 0.6,-8.8 0.7,-17.6 -0.2,-26.4 -0.4,-3.8 -1.4,-8 -0.9,-11.8 0.1,-0.7 0.3,-1.4 0.5,-2 0,0 0,0 0,0 0.6,-2 1.8,-2.8 3.3,-2.9 0.1,0 0.1,0 0.1,-0.1 0.1,0 0.1,0 0.2,0 1,-0.1 2.1,0.1 3.2,0.3 4.3,0.9 8.8,0.2 13.1,-0.2 2.9,-0.3 6.1,-0.7 8.4,1.4 2.6,2.3 3.7,6.3 5,9.4 3.3,7.5 5.4,15 5.7,23.2 0.3,4.3 0.1,8.6 -0.3,12.8 z"
   id="path33"
   inkscape:connector-curvature="0"
   style="fill:#f5d2aa" />
	<path
   class="st4"
   d="m 48.4,50.8 c 3.1,1.3 6.6,1.9 10,1.6 3.3,-0.2 6.8,-1.1 9.6,-2.7 2,-1.1 3.6,-2.6 5.2,-4.2 3.6,-4.5 5.1,-10.5 4,-16.3 -1.8,-9 -9.3,-14.7 -16.5,-16 -6.9,-1.2 -12.4,1.9 -13.1,2.3 -4,2.4 -6,5.6 -6.5,6.4 -2.3,3.8 -2.5,7.3 -2.6,9.8 -0.1,2.1 -0.2,6.3 2,10.8 2.1,4.1 5.3,6.7 7.9,8.3 z"
   id="path35"
   inkscape:connector-curvature="0"
   style="fill:#fff7a2" />
	<path
   class="st4"
   d="m 97.7,49.9 c 3.3,1.8 7.2,2.6 10.9,2.5 2.2,-0.1 4.4,-0.5 6.5,-1.2 0.8,-0.3 1.5,-0.6 2.2,-0.9 5.1,-3 8.8,-8.1 10,-14 0.1,-0.6 2.1,-12.2 -6.9,-19.5 -5.6,-4.6 -13.8,-5.7 -20.5,-2.9 -7.1,3.1 -11.4,9.9 -12,16.9 -0.6,7.6 3.2,15 9.8,19.1 z"
   id="path37"
   inkscape:connector-curvature="0"
   style="fill:#fff7a2" />
	<path
   class="st1"
   d="m 129.7,160.1 c -0.3,-1.5 -2.9,-2.4 -4,-3.1 -1.3,-0.8 -2.6,-1.6 -3.9,-2.4 -5.1,-3.4 -9,-7.6 -12.8,-12.4 -1.9,-2.4 -3.8,-4.8 -5.4,-7.4 -1.1,-1.8 -2.2,-3.5 -2.8,-5.5 -0.1,0 -0.2,-0.1 -0.2,-0.2 -1.4,-4.9 0,-10 1,-14.8 1.2,-6.2 1.7,-12.6 2.5,-18.9 0.8,-6.1 1.6,-12.2 3.3,-18.1 0.5,-1.8 1.1,-3.6 1.7,-5.3 0.5,-2.9 1,-6 1.7,-9.1 0.7,-3.5 1.5,-6.8 2.4,-10 -4.6,1.2 -9.5,1 -13.7,-1.1 0.3,5.2 0.3,10.8 0.2,16.7 -0.2,5.4 -0.5,10.4 -1,15.2 0.2,0.9 0.4,1.8 0.4,2.8 0.2,3 -0.1,6.1 -0.5,9.1 -0.4,3.2 -1.1,6.3 -1.7,9.5 -0.1,0.8 -0.3,1.7 -0.4,2.5 0,2.5 -0.3,5.1 -0.9,7.4 -1.2,4.7 -3,9.5 -2.6,14.4 0,0.2 -0.3,0.2 -0.3,0 -0.1,-0.3 -0.1,-0.5 -0.1,-0.8 -2.3,-3.3 -6.2,-4.9 -10.2,-4.6 -1.9,0.2 -3.4,1 -5.1,1.7 -0.2,0.1 -0.3,0.1 -0.5,0.2 0,0 0,0 -0.1,0 -0.5,0.3 -1.3,0.4 -1.7,-0.1 -0.2,-0.2 -0.2,-0.4 -0.3,-0.8 -0.1,-0.3 -0.1,-0.6 -0.1,-0.8 -2.3,-15.5 -4.1,-32.1 -5.3,-49.7 -0.5,-8.1 -0.8,-16 -1,-23.7 -0.2,0.1 -0.3,0.2 -0.5,0.2 -2.9,1.4 -6.3,2.2 -9.5,2.4 -1.9,0.1 -3.7,0 -5.4,-0.4 0.9,2.1 2.1,5 3.4,8.5 2.2,6.1 4.6,14.2 6.6,27.5 2.4,15.4 3.1,30 3.2,41.7 0,3.8 -1.1,7.5 -3.5,10.4 3,0.2 5.9,1.3 8.9,1.5 6.5,0.3 14.4,-3.1 20,1.7 2.3,2 3.8,4.9 5,7.6 1.6,3.3 2.8,6.7 3.6,10.3 1.8,7.8 2.1,15.9 2,23.8 0,1.5 0,3 -0.1,4.6 0,-0.2 0.1,-0.4 0.1,-0.6 1.4,-5.7 6.6,-9.4 11.5,-12.3 0.2,-0.2 0.5,-0.3 0.7,-0.5 0.6,-0.4 1.8,-1.2 1.9,-2 0.2,-1.2 -1.3,-1.8 -2,-2.3 -1.7,-1.1 -3.1,-2.8 -3.4,-4.9 -0.7,-5.3 6.2,-5.9 9.9,-5.7 1.7,0.2 9.6,1.2 9,-2.2 z"
   id="path39"
   inkscape:connector-curvature="0"
   style="fill:#059fe9" />
	<path
   class="st5"
   d="m 97.1,100.7 c 0.3,-2 0.6,-3.7 0.7,-5 0.4,-3.5 0.6,-5.9 0.4,-9 -0.1,-1.3 -0.3,-2.5 -0.5,-3.7 -1.3,-2 -2.7,-4 -4.2,-5.8 1,4.2 1.9,8.7 2.6,13.6 0.4,3.5 0.7,6.8 1,9.9 z"
   id="path41"
   inkscape:connector-curvature="0"
   style="fill:#a7d8ff" />
	<path
   class="st5"
   d="m 34.5,166.9 c -0.6,1.6 -1.6,3.3 -1.1,4.9 0.6,2.1 3.2,2.8 5.2,3.8 2.6,1.3 4.6,3.7 5.5,6.4 0.9,2.8 0.6,5.9 -0.7,8.4 -0.5,0.9 -1.1,1.8 -1.3,2.8 -0.2,1 0.3,2.3 1.3,2.5 0.7,0.2 1.5,-0.3 2.1,-0.7 3.7,-2.4 7.3,-5.2 10.6,-8.1 0.2,-1.6 0.3,-3.1 0.2,-4.7 -0.1,-1.6 -0.5,-3.2 -1.3,-4.6 -0.7,-1.2 -1.7,-1.8 -2.5,-2.8 -1.1,-1.4 -1,-3.1 0,-4.5 0.9,-1.2 2.1,-2.3 2.5,-3.8 0.7,-2.4 -0.9,-3.2 -2.8,-3.8 -2.7,-0.9 -7.5,-1.5 -8.8,-4.4 -1.6,-3.7 3.6,-4.1 6.1,-5.2 -4.7,-1.4 -9,-3.7 -13,-6.6 -1.1,-0.8 -2.2,-1.6 -3.2,-2.5 -0.2,-0.2 -0.7,-0.6 -1,-0.7 -2.2,-0.8 -1.7,0.8 -1.5,1.7 0,0.1 0.1,0.3 0.1,0.4 1.5,2.6 2.6,5.6 3.5,8.4 1.4,4.2 1.8,8.9 0.1,13.1 z"
   id="path43"
   inkscape:connector-curvature="0"
   style="fill:#a7d8ff" />
	<path
   class="st1"
   d="m 103.5,132.9 c 0.9,1.6 1.9,3.2 2.9,4.7 2.2,3.2 4.8,6.2 7.4,9.1 0.8,0.9 1.6,1.7 2.4,2.4 7.2,-5.5 15.1,-10.2 23.7,-13.1 4.3,-1.4 8.8,-2.5 13.4,-2.8 0,0 0.1,0 0.1,0 1,-3.8 -3.8,-4.1 -6.6,-4.6 -2.7,-0.4 -5.3,-1.5 -7.5,-3.2 -5.1,-4.1 -6.4,-10.5 -8.2,-16.5 -1.9,-2.3 -4.4,-4 -7.1,-5.1 -2.7,1.6 -6.2,2.4 -8.6,3.3 -3.9,1.4 -8.1,3.4 -11.1,6.3 -0.9,0.8 -1.6,1.8 -2.3,2.8 -0.9,4.2 -1.8,8.5 -0.6,12.6 0.5,1.4 1.3,2.8 2.1,4.1 z"
   id="path45"
   inkscape:connector-curvature="0"
   style="fill:#059fe9" />
	<path
   class="st5"
   d="m 134.2,115.1 c 3.4,1.6 6.8,3 9.8,5.2 3,2.2 5.3,5.2 7,8.6 0.2,0.1 0.4,0.1 0.6,0.2 1.6,0.7 2.5,1.9 2.5,3.3 1.6,-0.9 3.2,-1.8 4.7,-2.9 2.8,-2 5.9,-4.9 6.7,-8.3 0.3,-1.2 0.4,-3 -1.2,-3.2 -1.3,-0.1 -2.6,0.9 -3.5,1.6 -1.6,1.2 -3.5,2.9 -5.7,2.6 -5.9,-0.7 -1,-8.9 0.8,-11.2 2,-2.7 4.4,-5.2 7,-7.4 2.2,-1.9 6,-4.4 6.4,-7.5 0.6,-4.8 -7,-0.6 -8.7,0.4 -2.4,1.5 -4.6,3.2 -6.9,4.6 -3,2.5 -5.9,5 -8.9,7.5 -0.6,0.5 -1.3,1.1 -2.1,1.2 -1.6,0.2 -2.8,-1.4 -3.5,-2.9 -1.3,-3.1 -2.1,-6.7 -1.8,-10.1 -2.8,3.9 -4.6,8.7 -5.1,13.4 0.2,0.5 0.4,1.1 0.6,1.7 0.6,1.1 0.9,2.2 1.3,3.2 z"
   id="path47"
   inkscape:connector-curvature="0"
   style="fill:#a7d8ff" />
	<path
   class="st1"
   d="m 157.4,120.8 c 0.3,-0.2 0.6,-0.3 0.9,-0.5 -0.2,-0.7 -0.4,-1.3 -0.6,-2 -0.6,-2 -1.2,-3.9 -1.8,-5.9 -1.2,1.7 -2.1,3.5 -2.5,5.4 -0.6,2.7 1.6,4.2 4,3 z"
   id="path49"
   inkscape:connector-curvature="0"
   style="fill:#059fe9" />
	<path
   class="st3"
   d="m 143.2,176.6 c -0.2,-1.7 -0.1,-3.4 -0.5,-5 0,-0.2 -0.1,-0.3 -0.1,-0.5 -2.8,0.7 -6.7,1.8 -7.5,5 -0.4,1.4 -0.1,3 0.4,4.6 2.6,-1.3 5.3,-2.4 7.8,-3.8 -0.1,-0.2 -0.1,-0.2 -0.1,-0.3 0,0 -0.1,0 0,0 z"
   id="path51"
   inkscape:connector-curvature="0"
   style="fill:#f5d2aa" />
	<path
   class="st1"
   d="m 155.8,151.1 c -0.5,-3.4 -1.1,-6.7 -1.6,-10 -1.6,2.3 -3.2,4.6 -4.5,7.1 -1.2,2.5 -2.2,5.3 -2.1,8.1 0.2,2.7 1.6,4.1 3.2,6.1 4.5,5.6 -3.1,7.3 -7.5,8.5 0.6,1.7 0.9,3.6 0.7,5.5 1.1,-0.6 2.2,-1.3 3.2,-2.1 3.1,-2.3 6.1,-4.9 7.9,-8.5 2.3,-4.6 1.4,-9.8 0.7,-14.7 z"
   id="path53"
   inkscape:connector-curvature="0"
   style="fill:#059fe9" />
	<path
   class="st3"
   d="m 147.8,189.8 c -0.5,-4.4 -1.9,-8.1 -3.9,-11.9 -2.7,1.4 -5.6,2.6 -8.2,3.5 0.4,1.2 0.8,2.3 1,3.4 0.4,1.9 0.8,4.6 -0.6,6.3 -2.1,2.4 -5.9,0.8 -8.2,-0.4 -4.5,-2.4 -8.8,-4.6 -13.8,-5.9 -2.3,-0.6 -5.3,-1 -7.9,-0.6 -1.9,2 -3,4.4 -3.5,7.2 -0.3,1.9 -0.6,3.9 -0.8,5.8 4.8,2.9 9.6,6.6 12.2,11.4 0.3,0.6 0.6,1.1 0.8,1.7 1.5,-0.3 2.9,-0.2 4.4,-0.3 2.5,-0.2 5,-0.6 7.4,-1 3.4,-0.6 6.7,-1.6 10,-2.6 3.6,-1.1 7.3,-2.3 10.6,-4.1 0.2,-4.1 1,-8.2 0.5,-12.5 z"
   id="path55"
   inkscape:connector-curvature="0"
   style="fill:#f5d2aa" />
	<path
   class="st1"
   d="m 158.4,184.6 c -0.2,-6.2 -1.1,-12.2 -2,-18.3 0,0 0,0.1 0,0.1 -2.4,4.8 -6.8,8.3 -11.6,11 2.6,3.1 3.6,7.6 4.2,11.4 0.6,4.2 0.6,8.8 -0.4,12.9 1,-0.6 2,-1.2 3,-1.9 2.2,-1.6 4.2,-3.6 5.4,-6 1.4,-2.8 1.5,-5.9 1.4,-9.2 z"
   id="path57"
   inkscape:connector-curvature="0"
   style="fill:#059fe9" />
	<path
   class="st1"
   d="m 158.8,192.3 c -1,2.9 -2.7,5.5 -5.4,7.7 -1.4,1.1 -2.8,2.1 -4.4,2.9 4.3,5.3 5.4,12.5 5.7,19.1 0.1,3.7 -0.1,7.6 -0.6,11.4 0.7,-0.9 1.4,-1.9 2.1,-2.8 4.2,-6 6.6,-13.1 6.5,-20.5 -0.1,-6.2 -1.7,-12.1 -3.9,-17.8 z"
   id="path59"
   inkscape:connector-curvature="0"
   style="fill:#059fe9" />
	<path
   class="st3"
   d="m 152.6,234.4 c 0.7,-3.8 1,-7.6 0.9,-11.5 -0.1,-7.2 -1.6,-13.4 -5.3,-19.5 -3.2,1.6 -6.6,2.8 -10,3.9 -3.4,1.1 -6.7,2.1 -10.2,2.8 -1.9,0.4 -3.8,0.7 -5.8,0.9 -2.3,0.3 -4.6,0.2 -6.9,0.4 1.9,5.1 2.1,10.8 1.8,16.1 -0.3,6.9 -0.6,17.6 7.5,20.5 3.9,1.4 9,-1.8 8,-6.3 -1.2,-5.1 -6.5,-5.2 -10.3,-3.3 -0.3,0.1 -0.7,-0.2 -0.5,-0.5 2.3,-3 6,-4.7 9.8,-4.4 3.4,0.2 5.9,2.8 7.5,5.6 1.5,2.7 1.9,5.5 1.2,7.9 4.4,-3.2 8.4,-7.1 11.9,-11.4 0.2,-0.4 0.3,-0.8 0.4,-1.2 z"
   id="path61"
   inkscape:connector-curvature="0"
   style="fill:#f5d2aa" />
	<path
   class="st3"
   d="m 166.9,247.5 c -2.5,-3.1 -5.3,-5.9 -8.8,-8 -1.8,-1.1 -3.8,-1.9 -5.8,-2.8 -3.7,4.4 -7.9,8.5 -12.4,11.9 -0.1,0.1 -0.2,0.2 -0.3,0.2 -1.1,1.9 -2.9,3.5 -5.4,4.4 -1.6,0.6 -3.3,1 -5,1.1 -2.9,1.1 -5.9,1.8 -9,2.3 -2.8,0.4 -5.7,0.7 -8.7,0.8 0.4,0.4 0.8,0.8 1.1,1.1 0.7,1.2 1.8,2.9 3.4,4.7 5.5,6.3 12.2,8.6 14.5,9.4 2.7,0.9 12,3.9 22.6,-0.1 11.4,-4.3 16.7,-13.8 18.5,-17.6 -1.2,-2.6 -2.9,-5.1 -4.7,-7.4 z"
   id="path63"
   inkscape:connector-curvature="0"
   style="fill:#f5d2aa" />
	<path
   class="st1"
   d="m 174,226.2 c -1.3,-4.4 -2.9,-8.9 -5.6,-12.6 -1.2,-1.6 -2.8,-2.9 -4.3,-4.2 0,1.1 0,2.2 -0.1,3.2 -0.5,7.5 -4.1,14 -8.5,20 -0.7,1 -1.5,2 -2.3,3 5.8,2.3 10.8,5.9 14.8,10.9 1.7,2.2 3.2,4.5 4.3,6.9 1,-1.2 2.2,-2.7 3.2,-4.6 0.4,-0.7 0.7,-1.4 1,-2.1 0.4,-6.8 -0.5,-13.7 -2.5,-20.5 z"
   id="path65"
   inkscape:connector-curvature="0"
   style="fill:#059fe9" />
	<path
   class="st1"
   d="m 187.2,216.5 c -1.4,-4.9 -3.8,-9.4 -7.3,-13.1 -3.3,-3.5 -7.3,-6.5 -11.5,-8.7 -2.6,-1.3 -5.5,-1.8 -8.3,-2.5 2.2,4.8 3.6,10 3.9,15.3 2.1,1.5 4.1,3.1 5.7,5.3 2.8,3.8 4.3,8.6 5.5,13.1 1.7,5.9 2.6,12.3 2.5,18.5 2.4,-3 5.4,-7.5 7.6,-13.6 1.5,-4.2 2.3,-8.1 2.7,-11.2 -0.2,-1.1 -0.5,-2.1 -0.8,-3.1 z"
   id="path67"
   inkscape:connector-curvature="0"
   style="fill:#059fe9" />
	<path
   class="st1"
   d="m 157.2,164.3 c 0.5,1.9 0.9,3.9 1.3,5.9 3.7,0.2 7.5,0.9 11,1.8 4.6,1.2 9.1,3 13.2,5.6 4.1,2.6 7.5,6 10.6,9.7 0.7,0.8 1.3,1.6 1.9,2.4 1,-2 2,-4.4 2.9,-7.3 1,-3.1 1.5,-6 1.8,-8.5 0,-0.2 0,-0.4 0,-0.5 -0.2,-3.2 -0.7,-6.4 -1.7,-9.5 -1.5,-5.1 -4.1,-10 -7.5,-14 -3.8,-4.4 -8.6,-7 -14,-8.6 -4.1,-1.2 -8.3,-1.8 -12.5,-2.8 0,0 0,0.1 -0.1,0.1 -1.7,1.8 -5.2,1.4 -7.4,1.4 -0.5,0 -1.1,0 -1.6,0 0,0 0,0 0,0 1.1,4.5 2,9.1 2.6,13.7 0.3,3.6 0.5,7.2 -0.5,10.6 z"
   id="path69"
   inkscape:connector-curvature="0"
   style="fill:#059fe9" />
	<path
   class="st1"
   d="m 180.7,178.2 c -4.1,-2.4 -8.5,-4 -13.1,-5.1 -2.9,-0.7 -6,-0.9 -8.9,-1.2 0.7,4.7 0.9,9.6 1,14.1 0,1.6 -0.1,3.1 -0.4,4.6 0,0 0,0 0,0 3.8,0.7 7.6,1.7 10.9,3.6 4.1,2.4 8.1,5.3 11.3,8.8 3.3,3.6 5.7,8 7.1,12.7 0,0 0,0 0,0 1,-2.5 2.1,-5.2 3,-8.2 1.7,-5.7 2.7,-11.1 3.3,-15.7 -3.6,-5.6 -8.6,-10.4 -14.2,-13.6 z"
   id="path71"
   inkscape:connector-curvature="0"
   style="fill:#059fe9" />
	<path
   class="st6"
   d="m 106.5,250.5 c 1.1,2.1 2.3,3.9 3.5,5.3 4.1,0.1 8.3,0 12.5,-0.8 1,-0.2 2,-0.4 3,-0.7 -3.3,-0.4 -6.4,-1.8 -8.9,-4.3 -5.4,-5.4 -6.5,-13.4 -6.8,-20.7 -0.2,-4.1 0.2,-8.2 -0.9,-12.2 -0.6,-2.3 -1.8,-4.1 -3.3,-5.7 -2.8,10.3 -2.9,18.8 -2.6,24.1 0.5,8.4 2.3,12.6 3.5,15 z"
   id="path73"
   inkscape:connector-curvature="0"
   style="fill:#d8b18b" />
	<path
   class="st1"
   d="m 103.9,207.8 c 4.4,3.4 6.7,7.8 7.2,13.5 0.5,6.6 -0.2,13.1 1.8,19.6 2,6.4 6.7,11.8 13.7,12.1 6,0.3 14.2,-2.7 12.6,-10.1 -0.6,-3 -2.6,-6.5 -5.5,-7.9 -3.2,-1.5 -7.3,-0.5 -9.9,1.8 1.9,-0.8 4,-1.1 5.9,-0.3 2.3,1 4,3.3 4.2,5.8 0.3,5.1 -5.5,8.3 -9.9,6.5 -5.1,-2 -7.6,-8 -8.1,-13.1 -0.7,-7.5 0.8,-15.1 -1.4,-22.5 -2,-6.6 -7.2,-11.3 -12.7,-15.2 -0.3,2.4 -0.5,4.8 -0.8,7.2 1,0.9 2,1.7 2.9,2.6 z"
   id="path75"
   inkscape:connector-curvature="0"
   style="fill:#059fe9" />
	<path
   class="st5"
   d="m 124.2,187.2 c 2.6,1.2 11,7.2 11.5,1.1 0.2,-2.9 -1.1,-5.9 -1.8,-8.7 -1.5,-6.1 3.3,-8.5 8.4,-9.9 1.9,-0.5 8.9,-1.6 8.5,-4.5 -0.2,-1.6 -2.4,-3.1 -3.3,-4.4 -0.9,-1.3 -1.2,-2.6 -1.3,-4.2 -0.3,-6 3.3,-11.7 7.2,-16.5 -6.4,0.6 -13,2.8 -18.6,5.7 -3.4,1.8 -6.7,4 -9.6,6.6 -0.7,0.6 -1.4,1.3 -2,1.9 2,1.2 4.2,2.3 6.1,3.7 1.2,0.9 2,2.4 0.9,3.7 -1.5,1.8 -4.7,1.7 -6.8,1.6 -3.3,-0.2 -7.4,-0.9 -10.3,1.3 -2.7,2.1 -1.2,5.8 1.2,7.4 1.2,0.9 3.4,1.8 2.6,3.7 -0.4,0.8 -1.3,1.4 -2,1.9 -0.6,0.4 -1.2,0.8 -1.9,1.2 -0.6,0.4 -1.1,0.8 -1.7,1.2 -0.1,0.1 -0.3,0.2 -0.4,0.3 0,0 0,0 0,0 -1.3,0.9 -2.5,1.8 -3.6,2.9 5.5,-0.7 12.8,2.1 16.9,4 z"
   id="path77"
   inkscape:connector-curvature="0"
   style="fill:#a7d8ff" />
	<path
   class="st7"
   d="m 188,145.9 c 2.7,0.2 5.5,0.1 8,-0.1 2.6,-0.2 5.2,-0.9 7.7,-1.6 2.6,-0.7 4.6,-1.7 6.6,-3.5 1.8,-1.6 3.5,-3.2 5.7,-4.1 1.7,-0.7 3.4,-1.2 5.1,-1.6 1.7,-0.5 3.7,-1.1 4.6,-2.7 1.4,-2.6 -0.9,-4.5 -3.3,-4.8 -0.4,0.1 -0.8,0.3 -1.2,0.4 -0.2,0 -0.2,-0.2 -0.1,-0.3 0.3,-0.2 0.6,-0.3 0.8,-0.5 0,-0.1 0.1,-0.1 0.2,-0.1 1.2,-0.7 2.3,-1.5 3.4,-2.4 3.4,-5.2 8,-13.4 10.5,-24.5 1.7,-7.7 5,-22.8 -2.6,-38.7 -1.8,-3.7 -9.4,-19.7 -27.8,-25.5 -2.3,-0.7 -22,-6.6 -36.8,5.1 -9.4,7.4 -12.5,17.8 -14.1,27.7 -1.7,10.2 -1.2,21.1 -0.5,31.4 2.7,-2 5.3,-4.1 8.2,-5.6 2,-1 6,-2.9 7.6,-0.2 1.3,2.1 -0.9,4.6 -2.2,6.1 -2.6,2.8 -5.7,5.2 -8.4,8 -1,1 -2,2.1 -2.9,3.3 0.6,1.9 1.3,3.7 1.9,5.6 0.3,0.8 0.5,1.7 0.8,2.5 0.6,-0.4 1.2,-0.9 1.8,-1.3 1.3,-0.9 3.8,-2.2 5.1,-0.5 1.1,1.4 0.4,3.7 -0.4,5.1 -0.8,1.7 -1.9,3.1 -3.2,4.4 0,0.2 -0.2,0.4 -0.4,0.4 -2.1,2.1 -4.7,3.8 -7.4,5.3 2.7,-0.2 5.9,-0.2 8.2,1 1.4,0.7 2.1,2.1 1.6,3.4 8.4,1.2 17,3.1 23.5,8.3 z"
   id="path79"
   inkscape:connector-curvature="0"
   style="fill:#f6becb" />
	<path
   class="st3"
   d="m 240.4,206.2 c 0.3,-1.5 0.4,-3 0.3,-4.5 -0.1,-2.6 -0.7,-4.9 -1.6,-7.2 -5.8,2.1 -12.7,1.7 -18.6,-0.4 -0.1,4.2 1,8.6 3.4,12 4.3,3.4 9.9,4.5 15.4,3.2 0.4,-1 0.9,-2 1.1,-3.1 z"
   id="path81"
   inkscape:connector-curvature="0"
   style="fill:#f5d2aa" />
	<path
   class="st1"
   d="m 254,189.8 c -0.1,-2.5 -0.5,-4.7 -0.9,-6.7 -0.8,1.4 -1.9,2.7 -3.1,3.9 -2.8,2.8 -5.9,5.4 -9.7,7 -0.1,0.1 -0.2,0.1 -0.4,0.1 2.4,4.3 2.5,10.5 0.3,14.9 3.4,-0.9 6.5,-2.7 9.2,-4.9 1.4,-1.1 2.6,-2.4 3.7,-3.6 0.7,-2.8 1.2,-6.4 0.9,-10.7 z"
   id="path83"
   inkscape:connector-curvature="0"
   style="fill:#059fe9" />
	<path
   class="st3"
   d="m 236.5,223.8 c 1.1,-1.6 2,-3.3 2.5,-5.3 0.8,-2.6 0.7,-5.2 0.8,-7.9 -0.1,0 -0.3,0.1 -0.4,0.1 -5.6,1.1 -11.2,0 -15.4,-3.5 -0.7,3.5 0,7.5 1.7,10.6 0,0 0,0 -0.1,0 2.8,3.2 7,5 10.9,6 z"
   id="path85"
   inkscape:connector-curvature="0"
   style="fill:#f5d2aa" />
	<path
   class="st1"
   d="m 249.9,205.8 c -2.8,2.1 -5.9,3.8 -9.2,4.7 1,4.4 -0.2,9.7 -2.8,13.6 3,0.6 6,0.6 9,-0.1 1.6,-2.6 3.4,-6.1 4.6,-10.6 1.1,-3.9 1.5,-7.4 1.6,-10.2 -1.2,1 -2.2,1.9 -3.2,2.6 z"
   id="path87"
   inkscape:connector-curvature="0"
   style="fill:#059fe9" />
	<path
   class="st5"
   d="m 198.6,268.9 c 0.8,-0.2 1.4,-0.8 2.1,-1.3 0.6,-0.5 1.4,-1 2.2,-1.1 0.6,-0.1 1.3,0.2 1.7,0.7 3,-3.4 5.5,-7.1 8.1,-11 3.7,-5.8 7.4,-11.5 10.3,-17.8 1,-2.2 3.1,-7.8 -1.1,-7.1 -2.2,0.3 -4.3,1.5 -6.2,2.5 -5,2.7 -9.8,5.8 -14.5,9.1 -5.2,3.7 -11.5,7.4 -15.7,12.4 1.6,-0.8 3.7,-0.7 5.1,0.5 1.5,1.3 2.1,3.5 1.4,5.4 1.5,-0.3 3,0.7 3.8,2 0.8,1.3 1,3 1.2,4.5 0,0.4 0,1 0.4,1.1 0.3,0.3 0.8,0.2 1.2,0.1 z"
   id="path89"
   inkscape:connector-curvature="0"
   style="fill:#a7d8ff" />
	<path
   class="st1"
   d="m 255.5,250.6 c -0.3,-3.7 -1,-12.1 -6.3,-20.6 -1.2,-2 -2.4,-3.4 -3.2,-4.4 -3.5,0.5 -7,0.4 -10.4,-0.6 -4,-1.1 -8.5,-3.2 -10.9,-6.6 -14.8,6.8 -28.3,17.4 -38.5,30.1 -1.4,1.7 -2.7,3.5 -3.4,5.5 -0.3,0.8 -0.3,1.8 0.4,2.2 0.3,0.1 0.6,0.1 0.9,0 2.1,-3.4 5.4,-5.8 8.6,-8.3 4,-3.1 8,-6.2 12.3,-9 4.6,-3.1 9.4,-6.7 14.6,-8.6 1.5,-0.6 3.8,-1.2 5.2,-0.1 2,1.5 1.2,4.8 0.5,6.8 -2.8,7.5 -8,14.2 -12.3,20.8 -2.5,3.8 -5.2,7.9 -8.4,11.3 -0.2,0.4 -0.5,0.8 -0.9,1.1 -0.7,0.7 -1.5,1.4 -2,2.2 -0.5,0.9 -0.6,2.1 0.1,2.8 0.6,0.6 1.7,0.6 2.4,0.6 3.1,-0.3 6.9,-1.6 9.8,-2.8 1.8,-0.9 3.6,-1.9 5.3,-3.2 4,-2.8 7.7,-6.2 10.7,-10 2.9,-3.6 5.1,-7.4 6.6,-11.8 0.7,-2.2 1.4,-4.5 2.1,-6.7 0.4,-1.3 0.8,-2.9 1.7,-4 3.2,-3.7 6.2,5.8 6.8,7.6 1.5,4.2 2,8.5 2.2,13 0.2,4.6 0.6,9.2 0.7,13.8 0.1,5.2 -0.4,11.2 -2.9,15.9 0.4,0.1 0.8,0.2 1.2,0.1 1,-0.2 1.8,-1 2.4,-2.1 4.5,-8 4.8,-26.5 4.8,-26.5 0,-5.1 0,-7.6 -0.1,-8.5 z"
   id="path91"
   inkscape:connector-curvature="0"
   style="fill:#059fe9" />
	<path
   class="st5"
   d="m 246.3,287.2 c 2.8,-6.1 2.7,-13.2 2.4,-19.8 -0.5,-8.2 -0.7,-16.6 -3.8,-24.3 -0.4,-1.1 -0.9,-2.3 -1.5,-3.3 -0.2,-0.3 -0.6,-1.3 -1,-1.4 -1.3,-0.4 -1.8,2.2 -2,2.9 -1.1,3.2 -2,6.6 -3.3,9.7 -2.7,6.4 -7.6,11.8 -12.9,16.2 -1.3,1.1 -2.7,2.2 -4.2,3.3 0.4,-0.1 0.7,-0.1 1.2,-0.2 1.1,-0.1 1.4,0 1.7,0.2 0.7,0.6 0.4,2.1 0,3.1 -0.5,1.2 -0.9,1.4 -1.7,2.5 -0.6,0.8 -0.9,2.1 -0.1,2.7 0.6,0.5 1.6,0.3 2.2,0.1 2.5,-0.7 3.7,-2.6 4.4,-2.1 0.4,0.2 0.6,1.1 0.6,1.2 0.1,0.3 0.1,0.5 0,0.8 -0.1,0.8 -0.4,1.8 0,2.5 0.5,0.7 1.5,0.7 2.2,0.4 0.7,-0.3 1.3,-1 1.9,-1.4 0.6,-0.5 1.5,-0.8 2.2,-0.5 0.9,0.4 1.2,1.6 1.1,2.6 -0.2,1 -0.7,1.9 -0.9,2.9 -0.2,0.7 -0.1,1.6 0.5,2.1 0.7,0.5 1.7,0.2 2.4,-0.3 0.9,-0.7 1.5,-1.8 2.3,-2.6 0.8,-0.8 2.1,-1.4 3.1,-0.9 1.1,0.6 1.3,2.1 2.1,3.2 0.2,-0.2 0.6,0.1 1.1,0.4 z"
   id="path93"
   inkscape:connector-curvature="0"
   style="fill:#a7d8ff" />
	<path
   class="st3"
   d="m 239,190.6 c 0,-3.2 -0.7,-6.2 -1.7,-9.3 -1,-3 -2.1,-6.1 -3.8,-8.7 -1,-1.6 -2.3,-2.8 -3.5,-4.1 -4.6,3.8 -10.3,5.4 -16.2,6.1 -1,6.2 1.3,13.5 5.8,18 6.2,2.2 13,3 19.3,0.7 0,-1 0,-1.9 0.1,-2.7 z"
   id="path95"
   inkscape:connector-curvature="0"
   style="fill:#f5d2aa" />
	<path
   class="st1"
   d="m 251.8,173.6 c -0.7,-3.2 -1.4,-6.5 -2.3,-9.7 -0.9,-3.5 -2.4,-6.7 -4,-9.9 -0.9,-1.9 -2.4,-3.7 -3.3,-5.6 -0.5,-0.6 -1.1,-1.1 -1.6,-1.6 -0.1,2.4 -0.6,4.7 -1.3,7 -1.4,4.2 -3.4,8.2 -6.3,11.6 -0.7,0.8 -1.5,1.6 -2.2,2.3 1.5,1.2 2.7,2.4 3.9,4.1 1.7,2.6 2.9,5.7 3.8,8.6 1.3,4 1.9,8.1 1.7,12.2 3.4,-1.5 6.2,-4 8.8,-6.6 1.5,-1.6 2.9,-3.2 3.7,-5.3 0.1,-0.2 0.1,-0.4 0.2,-0.6 -0.4,-2.2 -0.6,-4.4 -1.1,-6.5 z"
   id="path97"
   inkscape:connector-curvature="0"
   style="fill:#059fe9" />
	<path
   class="st5"
   d="m 285.5,147.6 c -0.2,-1.4 -1.9,-2 -3.3,-2.3 -12.8,-2.8 -26.4,-1.4 -38.2,4.3 2.8,4.4 5.2,8.9 6.6,14 1.3,4.6 2.2,9.3 3,14 1.1,1.2 2.4,2.2 3.9,3 0.6,0.4 1.3,0.7 2,0.5 1,-0.3 1.4,-1.4 1.3,-2.4 -0.2,-2.4 -2.7,-4.5 -2,-6.9 0.5,-1.6 2.3,-2.5 4,-2.7 1.7,-0.2 3.4,0 5.1,-0.3 1.7,-0.4 3.3,-1.8 3.2,-3.4 -0.1,-1.9 -2.3,-3 -4.1,-3.7 -1.8,-0.7 -3.8,-2.1 -3.5,-4.1 0.3,-1.5 1.9,-2.3 3.3,-2.8 4.7,-1.8 9.6,-3.1 14.6,-4 0.9,-0.2 1.9,-0.3 2.7,-0.8 0.9,-0.5 1.5,-1.5 1.4,-2.4 z"
   id="path99"
   inkscape:connector-curvature="0"
   style="fill:#a7d8ff" />
	<path
   class="st3"
   d="m 222,158.5 c -3.6,5.2 -8.7,9.2 -14,12.8 0.7,1.3 1.8,2.2 3.2,2.7 6.6,-0.6 12.8,-2.1 17.8,-6.4 -1.6,-3.8 -3.5,-7.3 -7,-9.1 z"
   id="path101"
   inkscape:connector-curvature="0"
   style="fill:#f5d2aa" />
	<path
   class="st1"
   d="m 239,143.3 c -1,-7.6 -6,-14.5 -13,-17.9 -0.8,0.6 -1.7,1.2 -2.6,1.6 1.3,0.2 2.6,0.7 3.3,2 0.8,1.4 0.3,3.3 -0.7,4.5 -0.1,0.1 -0.2,0.3 -0.4,0.4 0.9,2.6 1.6,5.3 1.7,8 0.2,4.1 -1,8.2 -2.7,12 -0.6,1.3 -1.3,2.5 -2,3.7 3.4,1.7 5.6,5.4 7.2,9.3 0.7,-0.7 1.4,-1.5 2.1,-2.3 2.9,-3.6 4.9,-7.9 6.1,-12.4 1,-3 1,-6 1,-8.9 z"
   id="path103"
   inkscape:connector-curvature="0"
   style="fill:#059fe9" />
	<path
   class="st1"
   d="m 191.9,149.7 c 3.3,4 5.9,8.8 7.4,13.8 0.9,3 1.6,6.3 1.8,9.6 2,-0.2 3.9,-0.7 5.8,-1.6 6,-5.1 12.5,-9.7 16.1,-17 1.9,-3.9 3.2,-8.4 3,-12.7 -0.1,-2.5 -0.7,-4.8 -1.4,-7.2 -1,0.6 -2.2,1 -3.3,1.3 -3,0.8 -5.8,1.8 -8.2,3.8 -2.1,1.8 -3.9,3.7 -6.5,4.7 -2.8,1.1 -6,1.8 -9,2.2 -2.8,0.4 -5.6,0.3 -8.4,0.1 0.9,1 1.8,1.9 2.7,3 z"
   id="path105"
   inkscape:connector-curvature="0"
   style="fill:#059fe9" />
	<path
   class="st1"
   d="m 142.6,126.5 c 1.7,0.9 3.5,1.4 5.4,1.7 0.7,0.1 1.3,0.2 1.9,0.3 -1.9,-3.2 -4.1,-6 -7.5,-8 -2.5,-1.5 -5.2,-2.8 -7.8,-4.1 0.3,0.9 0.6,1.7 1,2.5 1.5,3.1 3.8,6 7,7.6 z"
   id="path107"
   inkscape:connector-curvature="0"
   style="fill:#059fe9" />
	<path
   class="st1"
   d="m 152.9,139.3 c 2.6,-0.3 5.3,0 7.9,-0.4 1.4,-0.2 3.9,-1.1 2.9,-3 -0.5,-1 -2.1,-1.3 -3.1,-1.5 -2.2,-0.4 -4.5,-0.5 -6.9,-0.4 -0.1,0.1 -0.2,0.1 -0.3,0 -6,0.4 -12,2.3 -17.3,4.4 -6.9,2.8 -13.3,6.8 -19.5,11.1 1.5,1.3 3.1,2.6 4.7,3.7 0.2,0.1 0.4,0.3 0.6,0.4 3.4,-3.3 7.3,-6.1 11.4,-8.2 6.1,-3.2 12.8,-5.2 19.6,-6.1 z"
   id="path109"
   inkscape:connector-curvature="0"
   style="fill:#059fe9" />
	<path
   class="st5"
   d="m 110.4,108.6 c 3.4,-1.7 6.9,-3.1 10.4,-4.5 1.1,-0.4 2.2,-0.9 3.2,-1.6 1,-3.4 2.1,-6.1 3.2,-7.9 1.6,-2.8 3.2,-6 2.8,-9.2 -0.1,-0.5 -0.2,-1.1 -0.6,-1.4 -0.6,-0.5 -1.5,-0.4 -2.1,0.1 -0.6,0.4 -1,1.1 -1.3,1.8 -0.7,1.6 -1.3,3.4 -2.6,4.7 -1.2,1.3 -3.3,2 -4.8,1.1 -1.5,-1 -1.7,-3.1 -1.7,-4.9 0.1,-5.9 1,-10.4 2.4,-16.4 0.4,-1.8 1,-4.5 1.6,-8 0,-0.3 -0.1,-1.6 -0.9,-1.9 -0.7,-0.3 -1.5,0.4 -2.1,1 -3.6,3.2 -4.8,5 -4.8,5 -0.7,1 -1.4,2.2 -2.2,3.7 -0.7,2 -1.5,4.1 -2.1,6.1 -1.9,6.1 -2.8,12.5 -3.6,18.8 -0.8,6 -1.4,12 -2.4,18 -0.1,0.7 -0.2,1.4 -0.4,2.1 1.9,-2.8 4.7,-5 8,-6.6 z"
   id="path111"
   inkscape:connector-curvature="0"
   style="fill:#a7d8ff" />
	<path
   class="st2"
   d="m 74.1,216.5 c 4.3,0.9 8.7,-1.7 11.6,-4.7 3.3,-3.4 5.1,-7.7 6.1,-12.2 0.9,-3.9 1.7,-8 1.7,-12 0,-1.8 -0.1,-5.5 -2.7,-5.6 -1.4,-0.1 -3,1.1 -4.1,1.8 -1.9,1.2 -3.7,3 -6,3.2 -2.4,0.3 -5,-0.3 -6.2,-2.5 -0.7,-1.3 -1.6,-4.6 -3.7,-3.5 -1.3,0.7 -2,2.7 -2.5,4 -0.6,1.7 -1.1,3.4 -1.5,5.2 -0.6,4 -1,8.1 -1,12.2 0,1.7 0,3.3 0,5 1.7,4.3 3.9,8.2 8.3,9.1 z"
   id="path113"
   inkscape:connector-curvature="0"
   style="fill:#f0706d" />
	<path
   class="st8"
   d="m 96.4,185.8 c -0.1,-4.2 -1.1,-10.6 -6.6,-10.4 -2.2,0.1 -4.3,1 -6.6,1 -2,-0.1 -3.9,-0.6 -5.8,-1.4 -0.6,-0.1 -1.3,-0.1 -1.9,-0.1 -4.9,0.4 -6.6,5.7 -7.6,9.9 0.3,-0.9 0.7,-1.8 1.2,-2.5 1.3,-2.1 3.3,-2.6 4.7,-0.3 0.5,0.8 0.7,1.6 1.2,2.4 0.9,1.6 2.6,2.1 4.3,2.2 2.1,0.1 3.5,-0.8 5.2,-2 1.8,-1.3 5,-4.1 7.5,-2.9 2.9,1.4 2.3,6.4 2.1,8.9 -0.5,4.9 -1.3,10.2 -3.2,14.8 -2.7,6.4 -10.7,14.9 -18.5,11.5 -2.9,-1.3 -4.9,-3.9 -6.3,-7 0.2,2.1 0.7,4.2 1.6,6.1 2,4.2 6.2,5.8 10.7,4.9 1.5,-0.3 2.9,-0.9 4.3,-1.7 0,-1.3 0.3,-2.6 0.7,-3.6 0.1,-0.3 0.5,-0.3 0.6,0 0.3,0.7 0.7,1.3 1.1,1.9 1.5,-1.3 2.9,-2.8 4,-4.3 5.6,-7.9 7.5,-18 7.3,-27.4 z"
   id="path115"
   inkscape:connector-curvature="0"
   style="fill:#b54e52" />
	<path
   class="st9"
   d="m 204.4,117.8 c -5.1,-7.7 -8.9,-16.2 -8.9,-25.6 0,-6.9 2.2,-16.9 10,-18.9 8.7,-2.3 10.1,11.3 9.4,16.9 -0.4,3.3 -1.2,7.4 -4.7,8.7 -1.9,0.7 -3.9,0.4 -5.3,-0.7 1.9,3.7 6.4,3.9 9.7,0.8 3.8,-3.6 4.5,-9.6 4,-14.6 -0.8,-8.3 -4.8,-19.3 -15.1,-17.6 -9.5,1.5 -14.6,11.3 -15.7,20 -1.3,10.4 1.8,20.7 5.5,30.3 2,5.3 4.1,10.6 7,15.5 2.1,3.6 4.6,6.9 7.1,10.2 1,-0.5 2,-1.2 2.9,-2 1.8,-1.6 3.5,-3.2 5.7,-4.1 1.5,-0.7 3.1,-1.1 4.6,-1.5 -6.4,-4.7 -12,-10.9 -16.2,-17.4 z"
   id="path117"
   inkscape:connector-curvature="0"
   style="fill:#f01e27" />
	<path
   class="st7"
   d="m 233.4,61.3 c -1.8,-3.7 -9.4,-19.7 -27.8,-25.5 -2.3,-0.7 -22,-6.6 -36.8,5.1 -9.4,7.4 -12.5,17.8 -14.1,27.7 -1.7,10.2 -1.2,21.1 -0.5,31.4 2.7,-2 5.3,-4.1 8.2,-5.6 2,-1 6,-2.9 7.6,-0.2 1.3,2.1 -0.9,4.6 -2.2,6.1 -2.6,2.8 -5.7,5.2 -8.4,8 -1,1 -2,2.1 -2.9,3.3 0.6,1.9 1.3,3.7 1.9,5.6 0.3,0.8 0.5,1.7 0.8,2.5 0.6,-0.4 1.2,-0.9 1.8,-1.3 1.3,-0.9 3.8,-2.2 5.1,-0.5 1.1,1.4 0.4,3.7 -0.4,5.1 -0.8,1.7 -1.9,3.1 -3.2,4.4 0,0.2 -0.2,0.4 -0.4,0.4 -2.1,2.1 -4.7,3.8 -7.4,5.3 2.7,-0.2 5.9,-0.2 8.2,1 1.4,0.7 2.1,2.1 1.6,3.4 8.3,1.3 16.9,3.1 23.4,8.3 2.7,0.2 5.5,0.1 8,-0.1 2.6,-0.2 5.2,-0.9 7.7,-1.6 1.2,-0.3 2.2,-0.7 3.2,-1.2 -3.6,-4.6 -6.9,-9.4 -9.5,-14.7 -3.4,-6.9 -6.3,-14.2 -8.3,-21.6 -3,-10.5 -4.1,-22.9 2.3,-32.4 4.4,-6.6 13.9,-11.9 21.2,-6.3 3.7,2.8 5.4,7.7 6.3,12 1.1,4.9 1.2,10.4 -0.8,15.1 -1.4,3.3 -4.2,6.5 -8,6.9 -3.4,0.4 -5.4,-1.8 -6.1,-4.8 -0.2,-0.3 -0.4,-0.7 -0.6,-1.1 -0.1,-0.3 0.4,-0.5 0.5,-0.2 1.3,2.6 4.6,3.4 7,1.8 1.9,-1.3 2.5,-3.8 2.9,-5.9 0.9,-4.9 0.6,-10.6 -2,-14.9 -2.2,-3.6 -6,-3.6 -9.2,-1.3 -2.8,2.1 -4.4,5.2 -5.3,8.5 -1.9,7.1 -1.1,15.2 1.8,22 2.8,6.8 6.8,13.1 11.6,18.7 3.4,3.9 7.2,7.1 11.3,10 1.5,-0.5 3,-1.1 3.7,-2.5 1.4,-2.6 -0.9,-4.5 -3.3,-4.8 -0.4,0.1 -0.8,0.3 -1.2,0.4 -0.2,0 -0.2,-0.2 -0.1,-0.3 0.3,-0.2 0.6,-0.3 0.8,-0.5 0,-0.1 0.1,-0.1 0.2,-0.1 1.2,-0.7 2.3,-1.5 3.4,-2.4 3.4,-5.2 8,-13.4 10.5,-24.5 1.8,-7.7 5.2,-22.8 -2.5,-38.7 z"
   id="path119"
   inkscape:connector-curvature="0"
   style="fill:#f6becb" />
	<ellipse
   transform="matrix(0.5484,-0.8362,0.8362,0.5484,30.3326,182.8085)"
   class="st1"
   cx="184.39999"
   cy="63.299999"
   rx="8"
   ry="4.4000001"
   id="ellipse121"
   style="fill:#059fe9" />
	<ellipse
   class="st1"
   cx="177.39999"
   cy="88.199997"
   rx="4.4000001"
   ry="8"
   id="ellipse123"
   style="fill:#059fe9" />
	<ellipse
   transform="matrix(0.118,-0.993,0.993,0.118,132.8996,247.7382)"
   class="st1"
   cx="205.89999"
   cy="49.099998"
   rx="5.1999998"
   ry="8.5"
   id="ellipse125"
   style="fill:#059fe9" />
	<ellipse
   transform="matrix(0.8334,-0.5527,0.5527,0.8334,2.392,133.9436)"
   class="st1"
   cx="223.3"
   cy="63"
   rx="3.9000001"
   ry="7"
   id="ellipse127"
   style="fill:#059fe9" />
	<ellipse
   transform="matrix(0.9809,-0.1943,0.1943,0.9809,-11.4663,45.7789)"
   class="st1"
   cx="227.60001"
   cy="81.300003"
   rx="3.4000001"
   ry="6"
   id="ellipse129"
   style="fill:#059fe9" />
	<circle
   class="st9"
   cx="53.099998"
   cy="29.700001"
   r="7.4000001"
   id="circle131"
   style="fill:#f01e27" />
	<circle
   cx="53.099998"
   cy="29.700001"
   r="2.5999999"
   id="circle133" />
	<circle
   class="st9"
   cx="102.7"
   cy="29.5"
   r="7.4000001"
   id="circle135"
   style="fill:#f01e27" />
	<circle
   cx="102.7"
   cy="29.5"
   r="2.5999999"
   id="circle137" />
	<path
   class="st10"
   d="m 90.4,113 c 1,1.3 2.4,2.1 3.9,2.4 0.6,-2.3 1.1,-5.3 1.4,-9.3 -2.7,1.6 -4.8,3.2 -6.4,4.5 0.2,0.9 0.6,1.7 1.1,2.4 z"
   id="path139"
   inkscape:connector-curvature="0"
   style="fill:#0d72bc" />
	<path
   class="st1"
   d="m 90,113.3 c -0.5,-0.7 -0.9,-1.5 -1.1,-2.3 0,0 0,0 0,0 -5.1,4.3 -8,8.3 -8.8,9.5 -1.1,1.6 -2.2,3.6 -2.2,3.6 -0.1,0.2 -0.2,0.4 -0.4,0.7 1.1,-0.5 2.2,-1.1 2.9,-1.3 1.6,-0.4 3.3,-0.5 4.9,-0.3 3.1,0.4 5.5,2.1 7,4.7 -0.2,-1.8 0,-3.6 0.3,-5.4 0.4,-2.5 0.9,-4.3 1.2,-5.3 0.1,-0.4 0.3,-0.9 0.4,-1.4 -1.6,-0.3 -3.1,-1.1 -4.2,-2.5 z"
   id="path141"
   inkscape:connector-curvature="0"
   style="fill:#059fe9" />
	<path
   class="st1"
   d="m 150.1,129.2 c -2.2,0.6 -4.5,1.1 -6.7,1.7 -4,1 -8,2.1 -12.1,2.6 -4.2,0.6 -10.5,0.5 -13.2,-3.3 -3.6,-5 2.3,-10.1 4.4,-14.3 0.8,-1.6 2.1,-5.4 -0.7,-5.7 -2,-0.2 -4.3,0.8 -6.1,1.7 -2.8,1.4 -5.5,3.1 -8.4,4.4 -1.9,0.9 -3.8,1.6 -5.7,2.1 -0.7,3.5 -1.2,7.1 -0.2,10.5 0.6,1.4 1.4,2.7 2.1,4 0.9,1.6 1.9,3.2 2.9,4.7 2.2,3.2 4.8,6.2 7.4,9.1 0.8,0.9 1.6,1.7 2.4,2.4 7.2,-5.5 15.1,-10.2 23.7,-13.1 4.3,-1.4 8.8,-2.5 13.4,-2.8 0,0 0.1,0 0.1,0 0.7,-2.5 -1.2,-3.5 -3.3,-4 z"
   id="path143"
   inkscape:connector-curvature="0"
   style="fill:#059fe9" />
	<path
   class="st10"
   d="m 109.8,114.5 c 2.6,-1.4 5,-2.9 7.8,-4 1.5,-0.6 3.5,-1.3 5,-0.6 1.4,0.6 1.5,2.2 1.2,3.5 -0.6,2.8 -2.4,5 -3.9,7.3 -1.7,2.5 -3.5,5.6 -1.8,8.6 1.4,2.5 4.5,3.4 7.1,3.7 2.6,0.3 5.3,0.2 7.9,-0.4 5.3,-1.1 10.6,-2.4 15.8,-3.7 -0.7,-0.1 -1.4,-0.2 -2,-0.3 -2.7,-0.4 -5.3,-1.5 -7.5,-3.2 -5.1,-4.1 -6.4,-10.5 -8.2,-16.5 -1.9,-2.3 -4.4,-4 -7.1,-5.1 -2.7,1.6 -6.2,2.4 -8.6,3.3 -3.9,1.4 -8.1,3.4 -11.1,6.3 -0.9,0.8 -1.6,1.8 -2.3,2.8 -0.1,0.5 -0.2,1.1 -0.3,1.6 2.7,-0.8 5.4,-2 8,-3.3 z"
   id="path145"
   inkscape:connector-curvature="0"
   style="fill:#0d72bc" />
	<path
   class="st1"
   d="m 150.9,162.4 c 0.4,0.5 0.7,0.9 0.9,1.4 0,-0.1 0.1,-0.1 0.1,-0.2 1.8,-2.9 1.4,-6.6 0.6,-9.8 -0.6,-2.2 -1.5,-4.2 -2.5,-6.1 -0.1,0.2 -0.2,0.3 -0.3,0.5 -1.2,2.5 -2.2,5.3 -2.1,8.1 0.2,2.7 1.7,4.1 3.3,6.1 z"
   id="path147"
   inkscape:connector-curvature="0"
   style="fill:#059fe9" />
	<path
   class="st10"
   d="m 155.8,151.1 c -0.5,-3.4 -1.1,-6.7 -1.6,-10 -1.4,1.9 -2.8,3.9 -3.9,6.1 1.3,2.4 2.4,4.8 3,7.5 0.6,3.1 0.7,6.4 -0.9,9.2 -0.1,0.2 -0.2,0.3 -0.3,0.5 1.5,4.1 -4.8,5.6 -8.7,6.5 0.6,1.7 0.9,3.6 0.7,5.5 1.1,-0.6 2.2,-1.3 3.2,-2.1 3.1,-2.3 6.1,-4.9 7.9,-8.5 2.2,-4.6 1.3,-9.8 0.6,-14.7 z"
   id="path149"
   inkscape:connector-curvature="0"
   style="fill:#0d72bc" />
	<path
   class="st10"
   d="m 158.4,184.6 c -0.2,-6.2 -1.1,-12.2 -2,-18.3 0,0 0,0.1 0,0.1 -1.1,2.3 -2.8,4.3 -4.6,6.1 6.4,5.7 7.3,17.3 3.1,24.5 0.9,-1 1.6,-2 2.2,-3.1 1.3,-2.9 1.4,-6 1.3,-9.3 z"
   id="path151"
   inkscape:connector-curvature="0"
   style="fill:#0d72bc" />
	<path
   class="st10"
   d="m 159.5,210.6 c 0.9,3.8 1.2,7.7 1,11.5 1.4,-3.8 2.1,-7.9 2.1,-12.1 -0.1,-6.1 -1.7,-12.1 -3.8,-17.7 -0.7,2.3 -1.9,4.3 -3.7,6.1 1.7,4 3.4,8 4.4,12.2 z"
   id="path153"
   inkscape:connector-curvature="0"
   style="fill:#0d72bc" />
	<path
   class="st10"
   d="m 174,226.2 c -0.2,-0.6 -0.4,-1.3 -0.6,-1.9 0.1,0.8 0.3,1.6 0.4,2.3 0.5,4.1 0.6,8.7 -1.1,12.6 -1.2,2.9 -3.4,4.7 -6.2,5.6 0.5,0.6 1,1.1 1.5,1.7 1.7,2.2 3.2,4.5 4.3,6.9 1,-1.2 2.2,-2.7 3.2,-4.6 0.4,-0.7 0.7,-1.4 1,-2.1 0.4,-6.8 -0.5,-13.7 -2.5,-20.5 z"
   id="path155"
   inkscape:connector-curvature="0"
   style="fill:#0d72bc" />
	<path
   class="st1"
   d="m 171.9,220.2 c 0,0 0,-0.1 0,-0.1 -0.7,-1.8 -1.5,-3.5 -2.5,-5 -1.1,3.1 -4.1,4.8 -7.2,5.6 -1.6,4.3 -4,8.2 -6.7,12 -0.7,1 -1.5,2 -2.3,3 4.9,2 9.3,4.9 12.9,8.8 9.5,-2.6 8.1,-16.7 5.8,-24.3 z"
   id="path157"
   inkscape:connector-curvature="0"
   style="fill:#059fe9" />
	<path
   class="st3"
   d="m 169,214.5 c -0.2,-0.3 -0.4,-0.6 -0.6,-1 -1.2,-1.6 -2.8,-2.9 -4.3,-4.2 0,1.1 0,2.2 -0.1,3.2 -0.2,2.6 -0.8,5.1 -1.6,7.5 2.9,-0.7 5.7,-2.5 6.6,-5.5 z"
   id="path159"
   inkscape:connector-curvature="0"
   style="fill:#f5d2aa" />
	<path
   class="st3"
   d="m 169.8,204.2 c -1.6,-1.8 -4.2,-2.3 -6.4,-1.4 0.3,1.6 0.5,3.2 0.6,4.7 2.1,1.5 4.1,3.1 5.7,5.3 0.2,0.3 0.4,0.6 0.6,0.9 1.2,-2.9 1.9,-6.9 -0.5,-9.5 z"
   id="path161"
   inkscape:connector-curvature="0"
   style="fill:#f5d2aa" />
	<path
   class="st1"
   d="m 180.6,213.4 c -0.1,-3.1 -1,-5.9 -2.6,-8.6 -1.4,-2.4 -3.1,-4.7 -4.7,-7 -1.6,-1.1 -3.3,-2.2 -5,-3.1 -2.6,-1.3 -5.5,-1.8 -8.3,-2.5 1.5,3.2 2.6,6.6 3.2,10.1 2.3,-0.9 5.1,-0.4 6.9,1.5 2.6,2.8 1.8,7.1 0.5,10.3 0,0.1 -0.1,0.1 -0.1,0.1 1.7,2.8 2.9,6 3.9,9.2 5.2,0.9 6.4,-6.1 6.2,-10 z"
   id="path163"
   inkscape:connector-curvature="0"
   style="fill:#059fe9" />
	<path
   class="st10"
   d="m 187.2,216.5 c -1.4,-4.9 -3.8,-9.4 -7.3,-13.1 -1.6,-1.7 -3.4,-3.3 -5.4,-4.8 1.6,2.4 3.4,4.7 4.7,7.3 1.4,2.8 2,6 1.9,9.1 -0.2,3.9 -1.8,9.5 -6.5,8.9 0.2,0.7 0.4,1.3 0.6,2 1.7,5.9 2.6,12.3 2.5,18.5 2.4,-3 5.4,-7.5 7.6,-13.6 1.5,-4.2 2.3,-8.1 2.7,-11.2 -0.2,-1.1 -0.5,-2.1 -0.8,-3.1 z"
   id="path165"
   inkscape:connector-curvature="0"
   style="fill:#0d72bc" />
	<path
   class="st3"
   d="m 182.7,177.6 c 1.2,-3.2 2.4,-6.4 2.3,-9.8 -0.1,-2.3 -0.8,-5.3 -3.3,-6.1 -2.8,-0.8 -5.7,1.4 -7.7,3.2 -1.9,1.8 -4.1,4.3 -4.7,7 0,0 0,0 0,0 4.6,1.2 9.1,3 13.2,5.6 0.1,0.1 0.2,0.1 0.2,0.1 z"
   id="path167"
   inkscape:connector-curvature="0"
   style="fill:#f5d2aa" />
	<path
   class="st1"
   d="m 178.3,149.4 c -3.5,-1.4 -7.4,-2 -11.2,-2 -3.4,0 -7.1,0.3 -10.2,1.8 0.3,1.5 0.5,3 0.7,4.6 0.4,3.6 0.7,7.1 -0.4,10.5 0.5,1.9 0.9,3.9 1.3,5.9 3.5,0.2 7.1,0.9 10.4,1.7 0.6,-2.4 2.2,-4.5 3.9,-6.3 2.5,-2.7 8.1,-6.9 11.3,-2.8 1.3,1.7 1.6,4 1.5,6 -0.1,3.2 -1.2,6.2 -2.4,9.2 0.6,0.4 1.3,0.9 1.9,1.3 4.7,-1.4 6.4,-6.4 6.3,-10.9 -0.2,-8.2 -5.6,-16 -13.1,-19 z"
   id="path169"
   inkscape:connector-curvature="0"
   style="fill:#059fe9" />
	<path
   class="st10"
   d="m 199.8,173.3 c -0.2,-3.2 -0.7,-6.4 -1.7,-9.5 -1.5,-5.1 -4.1,-10 -7.5,-14 -3.8,-4.4 -8.6,-7 -14,-8.6 -4.1,-1.2 -8.3,-1.8 -12.5,-2.8 0,0 0,0.1 -0.1,0.1 -1.7,1.8 -5.2,1.4 -7.4,1.4 -0.5,0 -1.1,0 -1.6,0 0,0 0,0 0,0 0.7,2.8 1.3,5.7 1.8,8.6 3.8,-1.8 8.3,-2 12.5,-1.7 3.9,0.3 7.8,1.1 11.2,2.9 3.9,2.1 7,5.4 9.1,9.3 3.2,6.2 4.2,17.8 -3.9,20.5 2.8,2.2 5.3,4.8 7.6,7.5 0.7,0.8 1.3,1.6 1.9,2.4 1,-2 2,-4.4 2.9,-7.3 1,-3.1 1.5,-6 1.8,-8.5 -0.1,0.1 -0.1,-0.1 -0.1,-0.3 z"
   id="path171"
   inkscape:connector-curvature="0"
   style="fill:#0d72bc" />
	<path
   class="st3"
   d="m 177.6,199.2 c 0,-0.1 0.1,-0.2 0.2,-0.2 0.4,-2 1.3,-3.6 1.3,-5.7 0,-1.6 -0.3,-3.4 -1.6,-4.5 -3.1,-2.5 -7.9,1.4 -9.8,4.1 0.9,0.4 1.7,0.8 2.5,1.2 2.6,1.5 5.1,3.3 7.4,5.1 z"
   id="path173"
   inkscape:connector-curvature="0"
   style="fill:#f5d2aa" />
	<path
   class="st10"
   d="m 186.2,182 c 0.6,1.8 1.4,3.5 2,5.3 0.7,2.3 0.8,4.6 0,6.9 -1.3,3.7 -4.7,6.4 -8.5,7 0.6,0.6 1.2,1.2 1.8,1.8 3.3,3.6 5.7,8 7.1,12.7 0,0 0,0 0,0 1,-2.5 2.1,-5.2 3,-8.2 1.7,-5.7 2.7,-11.1 3.3,-15.7 -2.4,-3.7 -5.4,-7 -8.7,-9.8 z"
   id="path175"
   inkscape:connector-curvature="0"
   style="fill:#0d72bc" />
	<path
   class="st3"
   d="m 247.8,189.1 c -1.5,1.3 -3,2.5 -4.7,3.5 2.2,2.5 4.7,-0.8 4.7,-3.5 z"
   id="path177"
   inkscape:connector-curvature="0"
   style="fill:#f5d2aa" />
	<path
   class="st1"
   d="m 249,188.1 c -0.2,0.2 -0.4,0.4 -0.6,0.6 0.1,1.8 -0.5,3.7 -1.9,4.8 -1.4,1.1 -2.8,0.6 -3.8,-0.5 -0.7,0.4 -1.5,0.8 -2.3,1.1 -0.1,0.1 -0.2,0.1 -0.4,0.1 2.4,4.3 2.5,10.5 0.3,14.9 3.4,-0.9 6.5,-2.7 9.2,-4.9 0,0 0,0 0,0 2.1,-5 1.5,-11.1 -0.5,-16.1 z"
   id="path179"
   inkscape:connector-curvature="0"
   style="fill:#059fe9" />
	<path
   class="st10"
   d="m 254,189.8 c -0.1,-2.5 -0.5,-4.7 -0.9,-6.7 -0.8,1.4 -1.9,2.7 -3.1,3.9 -0.2,0.2 -0.4,0.4 -0.6,0.6 2,4.9 2.7,10.8 1,15.8 1,-0.9 2,-1.9 2.9,-2.9 0.5,-2.8 1,-6.4 0.7,-10.7 z"
   id="path181"
   inkscape:connector-curvature="0"
   style="fill:#0d72bc" />
	<path
   class="st10"
   d="m 249.9,205.8 c -0.7,0.5 -1.4,1 -2.1,1.5 -0.1,6.2 -0.9,12.4 -4.7,17.3 1.2,-0.1 2.5,-0.2 3.7,-0.5 1.6,-2.6 3.4,-6.1 4.6,-10.6 1.1,-3.9 1.5,-7.4 1.6,-10.2 -1.1,0.9 -2.1,1.8 -3.1,2.5 z"
   id="path183"
   inkscape:connector-curvature="0"
   style="fill:#0d72bc" />
	<path
   class="st1"
   d="m 247,207.8 c 0.1,1.5 0.2,3.7 -1.2,4.4 -1.7,1 -2.9,-0.7 -3.3,-2.3 -0.6,0.2 -1.2,0.4 -1.8,0.6 1,4.4 -0.2,9.7 -2.8,13.6 1.5,0.3 3,0.5 4.5,0.4 3.9,-4.8 4.8,-10.9 4.9,-17 -0.1,0.2 -0.2,0.2 -0.3,0.3 z"
   id="path185"
   inkscape:connector-curvature="0"
   style="fill:#059fe9" />
	<path
   class="st1"
   d="m 238.2,156.5 c -0.3,0.8 -0.7,1.6 -1,2.3 1.7,2.2 3.9,5.7 1.9,8.1 -1.7,2 -5,0.9 -6.4,-0.9 -0.1,-0.1 -0.1,-0.2 0,-0.2 -0.6,0.7 -1.3,1.4 -1.9,2 1.5,1.2 2.7,2.4 3.9,4.1 1.7,2.6 2.9,5.7 3.8,8.6 1.3,4 1.9,8.1 1.7,12.2 2.2,-1 4.2,-2.4 6.1,-4 1.6,-11 1.4,-24.8 -8.1,-32.2 z"
   id="path187"
   inkscape:connector-curvature="0"
   style="fill:#059fe9" />
	<path
   class="st3"
   d="m 233.1,165.6 c 1.3,1.6 4.5,2.8 5.8,0.6 1.3,-2.1 -0.5,-5 -2,-7 -1.1,2.2 -2.4,4.2 -4,6.1 0,0.1 -0.1,0.1 -0.1,0.2 0.1,0 0.2,0.1 0.3,0.1 z"
   id="path189"
   inkscape:connector-curvature="0"
   style="fill:#f5d2aa" />
	<path
   class="st10"
   d="m 251.8,173.6 c -0.7,-3.2 -1.4,-6.5 -2.3,-9.7 -0.9,-3.5 -2.4,-6.7 -4,-9.9 -0.9,-1.9 -2.4,-3.7 -3.3,-5.6 -0.5,-0.6 -1.1,-1.1 -1.6,-1.6 -0.1,2.4 -0.6,4.7 -1.3,7 -0.2,0.7 -0.5,1.5 -0.8,2.2 9.5,7.4 10,21 8.3,32.1 0.5,-0.5 1.1,-1 1.6,-1.5 0,-0.1 -0.1,-0.2 -0.1,-0.3 -0.1,-0.3 0.3,-0.5 0.4,-0.3 0,0.1 0.1,0.1 0.1,0.2 0.1,-0.1 0.2,-0.1 0.2,-0.2 1.5,-1.6 2.9,-3.2 3.7,-5.3 0.1,-0.2 0.1,-0.4 0.2,-0.6 -0.4,-2.2 -0.6,-4.4 -1.1,-6.5 z"
   id="path191"
   inkscape:connector-curvature="0"
   style="fill:#0d72bc" />
	<path
   class="st3"
   d="m 230.1,152.3 c 2,-2.6 0,-6.5 -2.8,-7.4 -0.3,3.1 -1.3,6.1 -2.6,8.9 0,0.1 -0.1,0.2 -0.2,0.3 2.1,0.3 4.3,-0.1 5.6,-1.8 z"
   id="path193"
   inkscape:connector-curvature="0"
   style="fill:#f5d2aa" />
	<path
   class="st1"
   d="m 226.9,138.2 c 0.2,1.2 0.4,2.4 0.5,3.6 0,0.9 0,1.7 -0.1,2.6 3,0.9 5.1,4.4 3.7,7.4 -1.1,2.4 -4.1,3.1 -6.7,2.7 -0.5,1 -1,2 -1.6,2.9 3.4,1.7 5.6,5.4 7.2,9.3 0.7,-0.7 1.4,-1.5 2.1,-2.3 1.1,-1.3 2,-2.8 2.8,-4.2 2.3,-7.6 1,-19.8 -7.9,-22 z"
   id="path195"
   inkscape:connector-curvature="0"
   style="fill:#059fe9" />
	<path
   class="st10"
   d="m 239,143.3 c -1,-7.6 -6,-14.5 -13,-17.9 -0.8,0.6 -1.7,1.2 -2.6,1.6 1.3,0.2 2.6,0.7 3.3,2 0.8,1.4 0.3,3.3 -0.7,4.5 -0.1,0.1 -0.2,0.3 -0.4,0.4 0.4,1.3 0.8,2.6 1.1,3.9 8.6,1.9 10.6,12.7 9.1,20.6 0.9,-2 1.7,-4.1 2.3,-6.2 0.9,-3 0.9,-6 0.9,-8.9 z"
   id="path197"
   inkscape:connector-curvature="0"
   style="fill:#0d72bc" />
	<path
   class="st3"
   d="m 202.6,152.3 c 1.1,-2 0.8,-4.6 -1,-6.1 -0.1,-0.1 -0.2,-0.1 -0.3,-0.2 -1.3,0.3 -2.5,0.5 -3.8,0.7 -2.8,0.4 -5.6,0.3 -8.4,0.1 1,0.9 1.9,1.8 2.8,2.9 1.9,2.3 3.5,4.9 4.9,7.6 2.4,-1.2 4.6,-2.8 5.8,-5 z"
   id="path199"
   inkscape:connector-curvature="0"
   style="fill:#f5d2aa" />
	<path
   class="st1"
   d="m 211.2,143.5 c -0.3,-0.5 -0.7,-0.9 -1.1,-1.2 -1.1,0.9 -2.2,1.6 -3.6,2.2 -1.4,0.6 -3,1 -4.5,1.4 1.6,1.4 2.2,3.6 1.6,5.6 -0.9,2.9 -3.7,4.8 -6.5,6.2 0.9,1.9 1.7,3.8 2.2,5.8 0.9,3 1.6,6.3 1.8,9.6 0.9,-0.1 1.8,-0.3 2.7,-0.5 4.6,-5.9 9,-12.3 9.5,-20 0.2,-3.1 -0.2,-6.5 -2.1,-9.1 z"
   id="path201"
   inkscape:connector-curvature="0"
   style="fill:#059fe9" />
	<path
   class="st10"
   d="m 225.9,141.8 c -0.1,-2.5 -0.7,-4.8 -1.4,-7.2 -1,0.6 -2.2,1 -3.3,1.3 -3,0.8 -5.8,1.8 -8.2,3.8 -0.9,0.7 -1.7,1.5 -2.5,2.2 4.1,3.7 3.8,10.3 2.5,15.2 -1.5,5.7 -4.8,10.6 -8.4,15.2 0.8,-0.2 1.5,-0.5 2.2,-0.8 6,-5.1 12.5,-9.7 16.1,-17 2,-3.8 3.2,-8.3 3,-12.7 z"
   id="path203"
   inkscape:connector-curvature="0"
   style="fill:#0d72bc" />
	<path
   class="st3"
   d="m 153.5,177 c 1.7,0 3.1,-0.7 4.1,-1.9 -0.4,-2.9 -0.8,-5.8 -1.2,-8.7 0,0 0,0.1 0,0.1 -1.7,3.3 -4.3,6.1 -7.4,8.3 1.1,1.3 2.7,2.1 4.5,2.2 z"
   id="path205"
   inkscape:connector-curvature="0"
   style="fill:#f5d2aa" />
	<path
   class="st3"
   d="m 161.5,201.1 c -0.7,-3 -1.6,-5.9 -2.7,-8.8 -0.8,2.6 -2.3,4.9 -4.5,6.9 1.9,2.5 4.9,3.4 7.2,1.9 z"
   id="path207"
   inkscape:connector-curvature="0"
   style="fill:#f5d2aa" />
	<path
   class="st3"
   d="m 155.2,168.4 c -0.3,0.4 -0.5,0.8 -0.8,1.1 -0.1,0.1 -0.1,0.2 -0.2,0.3 -0.4,0.5 -0.7,0.9 -1.1,1.3 0,0 -0.1,0.1 -0.1,0.1 -0.3,0.4 -0.7,0.7 -1.1,1.1 -0.1,0.1 -0.1,0.1 -0.2,0.2 1.3,1.2 2.4,2.6 3.2,4.2 1.1,-0.3 2,-0.9 2.7,-1.7 -0.4,-2.9 -0.8,-5.8 -1.2,-8.7 0,0 0,0.1 0,0.1 -0.3,0.5 -0.5,1 -0.9,1.5 -0.1,0.2 -0.2,0.3 -0.3,0.5 z"
   id="path209"
   inkscape:connector-curvature="0"
   style="fill:#f5d2aa" />
	<path
   class="st3"
   d="m 158.1,194.1 c -0.2,0.5 -0.5,0.9 -0.7,1.4 0,0.1 -0.1,0.1 -0.1,0.2 -0.3,0.5 -0.6,0.9 -0.9,1.4 0,0 -0.1,0.1 -0.1,0.1 -0.4,0.5 -0.7,0.9 -1.1,1.3 0.3,0.8 0.7,1.6 1,2.5 1.7,1.1 3.7,1.2 5.4,0.2 -0.5,-2.2 -1.2,-4.4 -1.9,-6.6 0,0 0,0 0,0 -0.3,-0.7 -0.5,-1.4 -0.8,-2.2 -0.2,0.5 -0.4,1 -0.6,1.5 -0.1,0 -0.1,0.1 -0.2,0.2 z"
   id="path211"
   inkscape:connector-curvature="0"
   style="fill:#f5d2aa" />
	<path
   class="st6"
   d="m 143.2,176.6 c -0.2,-1.7 -0.1,-3.4 -0.5,-5 0,-0.2 -0.1,-0.3 -0.1,-0.5 -2.8,0.7 -6.7,1.8 -7.5,5 -0.4,1.4 -0.1,3 0.4,4.6 2.6,-1.3 5.3,-2.4 7.8,-3.8 -0.1,-0.2 -0.1,-0.2 -0.1,-0.3 0,0 -0.1,0 0,0 z"
   id="path213"
   inkscape:connector-curvature="0"
   style="fill:#d8b18b" />
	<path
   class="st3"
   d="m 115,189.8 c -0.7,2.8 -0.4,5.9 1.2,8.3 2,2.9 5.6,4.4 8.9,5.1 3.6,0.8 7.2,0.8 10.8,0.8 4,0 7.8,-0.1 11.5,-1.7 0,-4.2 0.8,-8.2 0.3,-12.4 -0.5,-4.4 -1.9,-8.1 -3.9,-11.9 -2.7,1.4 -5.6,2.6 -8.2,3.5 0.4,1.2 0.8,2.3 1,3.4 0.4,1.9 0.8,4.6 -0.6,6.3 -2.1,2.4 -5.9,0.8 -8.2,-0.4 -3.6,-1.9 -7.1,-3.7 -10.9,-5 -0.8,1.1 -1.5,2.5 -1.9,4 z"
   id="path215"
   inkscape:connector-curvature="0"
   style="fill:#f5d2aa" />
	<path
   class="st6"
   d="m 134,204.5 c -6.5,0 -16,-0.7 -19,-7.7 -1.6,-3.7 -0.7,-8 1.4,-11.3 -0.8,-0.3 -1.6,-0.5 -2.4,-0.7 -2.3,-0.6 -5.3,-1 -7.9,-0.6 -1.9,2 -3,4.4 -3.5,7.2 -0.3,1.9 -0.6,3.9 -0.8,5.8 4.8,2.9 9.6,6.6 12.2,11.4 0.3,0.6 0.6,1.1 0.8,1.7 1.5,-0.3 2.9,-0.2 4.4,-0.3 2.5,-0.2 5,-0.6 7.4,-1 3.4,-0.6 6.7,-1.6 10,-2.6 2.6,-0.8 5.2,-1.7 7.8,-2.7 -3.2,0.9 -6.8,0.8 -10.4,0.8 z"
   id="path217"
   inkscape:connector-curvature="0"
   style="fill:#d8b18b" />
	<path
   class="st3"
   d="m 122.5,225.9 c 0.1,3.3 0.6,6.6 2.4,9.3 2,-1.2 4.4,-1.8 6.8,-1.7 3.4,0.2 5.9,2.8 7.5,5.6 0.3,0.6 0.6,1.1 0.8,1.7 1.5,-0.2 3,-0.6 4.5,-1.1 2.3,-0.7 4.7,-1.6 6.8,-2.9 0.4,-0.4 0.7,-0.8 1,-1.2 0.1,-0.4 0.2,-0.8 0.3,-1.2 0.7,-3.8 1,-7.6 0.9,-11.5 -0.1,-7.2 -1.6,-13.4 -5.3,-19.5 -3.2,1.6 -6.6,2.8 -10,3.9 -3.4,1.1 -6.7,2.1 -10.2,2.8 -1.9,0.4 -3.8,0.7 -5.7,0.9 0.7,4.9 0.1,9.9 0.2,14.9 z"
   id="path219"
   inkscape:connector-curvature="0"
   style="fill:#f5d2aa" />
	<path
   class="st6"
   d="m 143.3,240.6 c -1,0.3 -2.1,0.5 -3.1,0.7 0.7,2 0.7,4 0.2,5.8 3.6,-2.6 6.9,-5.7 9.9,-9.1 -2.2,1.1 -4.7,2 -7,2.6 z"
   id="path221"
   inkscape:connector-curvature="0"
   style="fill:#d8b18b" />
	<path
   class="st3"
   d="m 126.7,237.3 c 1.6,1.4 3.5,2.4 5.5,3 -1.1,-2.2 -3.2,-3.1 -5.5,-3 z"
   id="path223"
   inkscape:connector-curvature="0"
   style="fill:#f5d2aa" />
	<path
   class="st6"
   d="m 132.4,240.9 c -2.4,-0.6 -4.6,-1.8 -6.4,-3.6 -1.3,0.1 -2.5,0.5 -3.7,1.1 -0.3,0.1 -0.7,-0.2 -0.5,-0.5 0.7,-1 1.6,-1.8 2.6,-2.5 -1.8,-2.7 -2.3,-5.9 -2.4,-9.2 -0.2,-5.1 0.5,-10.2 -0.2,-15.3 -2.1,0.2 -4.3,0.1 -6.4,0.3 1.9,5.1 2.1,10.8 1.8,16.1 -0.3,6.9 -0.6,17.6 7.5,20.5 3.9,1.4 9,-1.8 8,-6.3 -0.1,-0.1 -0.2,-0.3 -0.3,-0.6 z"
   id="path225"
   inkscape:connector-curvature="0"
   style="fill:#d8b18b" />
	<path
   class="st3"
   d="m 131.8,264.6 c 3.5,2 7.5,2.5 11.4,2.6 3.9,0 7.9,-0.5 11.5,-2.2 7.2,-3.3 10.8,-11.1 11.1,-18.8 -2.2,-2.6 -4.8,-4.9 -7.7,-6.7 -1.8,-1.1 -3.8,-1.9 -5.7,-2.7 0,0 -0.1,0.1 -0.1,0.1 -3.6,4.4 -7.8,8.4 -12.3,11.8 -0.1,0.1 -0.2,0.2 -0.3,0.2 -1.1,1.9 -2.9,3.5 -5.4,4.4 -1.6,0.6 -3.3,1 -5,1.1 -1.8,0.7 -3.7,1.2 -5.6,1.6 1.9,3.6 4.5,6.6 8.1,8.6 z"
   id="path227"
   inkscape:connector-curvature="0"
   style="fill:#f5d2aa" />
	<path
   class="st6"
   d="m 166.9,247.5 c -0.2,-0.2 -0.4,-0.5 -0.6,-0.7 -0.2,4.1 -1.4,8.1 -3.5,11.6 -2.2,3.5 -5.2,6.1 -9,7.5 -3.8,1.5 -8,1.9 -12.1,1.7 -4.1,-0.2 -8,-1.1 -11.4,-3.4 -3.1,-2 -5.4,-4.9 -7.2,-8.1 -1,0.2 -1.9,0.4 -2.9,0.5 -2.8,0.4 -5.7,0.7 -8.7,0.8 0.4,0.4 0.8,0.8 1.1,1.1 0.7,1.2 1.8,2.9 3.4,4.7 5.5,6.3 12.2,8.6 14.5,9.4 2.7,0.9 12,3.9 22.6,-0.1 11.4,-4.3 16.7,-13.8 18.5,-17.6 -1.2,-2.6 -2.9,-5.1 -4.7,-7.4 z"
   id="path229"
   inkscape:connector-curvature="0"
   style="fill:#d8b18b" />
	<path
   class="st3"
   d="m 231.3,206.1 c 2.9,1 6.1,0.8 9.1,0.1 0,0 0,0 0,0 0.3,-1.5 0.4,-3 0.3,-4.5 -0.1,-2.6 -0.7,-4.9 -1.6,-7.2 -3.8,1.3 -7.9,1.6 -12,1.1 -2,4.2 -0.4,8.9 4.2,10.5 z"
   id="path231"
   inkscape:connector-curvature="0"
   style="fill:#f5d2aa" />
	<path
   class="st6"
   d="m 229.8,206 c -4,-2.1 -5,-6.6 -3.2,-10.4 -2.1,-0.3 -4.1,-0.8 -6.1,-1.5 -0.1,4.2 1,8.6 3.4,12 4.3,3.4 9.9,4.5 15.4,3.2 0.3,-0.9 0.7,-1.7 0.9,-2.6 -3.5,0.9 -7.3,0.9 -10.4,-0.7 z"
   id="path233"
   inkscape:connector-curvature="0"
   style="fill:#d8b18b" />
	<path
   class="st3"
   d="m 229,216.6 c 0.9,1.9 2.8,3.2 4.8,3.7 1.4,0.4 2.9,0.5 4.4,0.4 0.3,-0.7 0.6,-1.4 0.8,-2.2 0.8,-2.6 0.7,-5.2 0.8,-7.9 -0.1,0 -0.3,0.1 -0.4,0.1 -3.7,0.7 -7.4,0.5 -10.6,-0.8 -0.4,2.4 -0.8,4.7 0.2,6.7 z"
   id="path235"
   inkscape:connector-curvature="0"
   style="fill:#f5d2aa" />
	<path
   class="st6"
   d="m 232.7,220.6 c -1.9,-0.7 -3.6,-2.1 -4.3,-4 -0.8,-2.1 -0.4,-4.5 -0.2,-6.7 -1.5,-0.6 -2.9,-1.5 -4.2,-2.6 -0.7,3.5 0,7.5 1.7,10.6 0,0 0,0 -0.1,0 2.8,3 7,4.9 10.9,5.9 0.6,-0.8 1.1,-1.7 1.5,-2.6 -1.8,0.2 -3.6,0 -5.3,-0.6 z"
   id="path237"
   inkscape:connector-curvature="0"
   style="fill:#d8b18b" />
	<path
   class="st3"
   d="m 224.2,187.6 c 2.4,2 5.4,3.1 8.6,3.1 2.2,0 4.2,-0.6 6.2,-1.5 -0.2,-2.7 -0.8,-5.3 -1.7,-7.9 -1,-3 -2.1,-6.1 -3.8,-8.7 -1,-1.6 -2.3,-2.8 -3.5,-4.1 -2.7,2.2 -5.7,3.7 -9,4.6 -3.2,4.8 -1.2,10.9 3.2,14.5 z"
   id="path239"
   inkscape:connector-curvature="0"
   style="fill:#f5d2aa" />
	<path
   class="st6"
   d="m 232.1,191.2 c -3.2,-0.1 -6.2,-1.4 -8.6,-3.5 -4.2,-3.7 -6.1,-9.6 -3.3,-14.5 -2.1,0.6 -4.3,1 -6.6,1.2 -1,6.2 1.3,13.5 5.8,18 6.2,2.2 13,3 19.3,0.7 0.1,-0.9 0.2,-1.8 0.2,-2.6 0,-0.3 0,-0.5 0,-0.8 -2.1,1 -4.4,1.6 -6.8,1.5 z"
   id="path241"
   inkscape:connector-curvature="0"
   style="fill:#d8b18b" />
	<path
   class="st3"
   d="m 224.8,170.5 c 1.5,-0.8 3,-1.7 4.3,-2.9 -1.7,-3.7 -3.6,-7.2 -7.1,-9.1 -2.1,3.1 -4.8,5.7 -7.7,8.1 1.6,3.4 6.5,4.4 10.5,3.9 z"
   id="path243"
   inkscape:connector-curvature="0"
   style="fill:#f5d2aa" />
	<path
   class="st6"
   d="m 221.2,171.9 c 0.1,-0.1 0.2,-0.1 0.3,-0.1 0.7,-0.2 1.3,-0.5 1.9,-0.8 -2.2,0.1 -4.5,-0.2 -6.4,-1.1 -1.5,-0.7 -2.5,-1.8 -3,-3.1 -1.9,1.5 -3.9,3 -5.8,4.4 0.7,1.3 1.8,2.2 3.2,2.7 3.3,-0.3 6.6,-0.8 9.8,-2 -0.1,0.1 -0.1,0.1 0,0 z"
   id="path245"
   inkscape:connector-curvature="0"
   style="fill:#d8b18b" />
	<path
   class="st11"
   d="m 221.7,231.3 c -2.2,0.3 -4.3,1.5 -6.2,2.5 -5,2.7 -9.8,5.8 -14.5,9.1 -5.2,3.7 -11.5,7.4 -15.7,12.4 1.4,-0.7 3.2,-0.7 4.6,0.1 3.7,-3 7.4,-6 11.5,-8.6 1.8,-1.1 3.6,-2.2 5.5,-3.2 1.4,-0.8 2.9,-1.7 4.5,-1.9 3.5,-0.4 2.7,3.7 1.6,5.7 -2.1,3.9 -5.5,7.1 -8.1,10.7 -2.5,3.5 -5.1,7 -8,10.3 0,0.2 0.1,0.4 0.3,0.4 0.4,0.2 0.8,0.1 1.2,0 0.8,-0.2 1.4,-0.8 2.1,-1.3 0.7,-0.5 1.4,-1 2.2,-1.1 0.6,-0.1 1.3,0.2 1.7,0.7 3,-3.4 5.5,-7.1 8.1,-11 3.7,-5.8 7.4,-11.5 10.3,-17.8 1.1,-2.1 3.2,-7.7 -1.1,-7 z"
   id="path247"
   inkscape:connector-curvature="0"
   style="opacity:0.56000001;fill:#80b0d1" />
	<path
   class="st5"
   d="m 195.8,263.2 c 0.8,1.3 1,3 1.2,4.5 0,0 0,0 0,0 2.9,-3.4 5.6,-6.9 8.1,-10.6 2.2,-3.1 5.1,-5.8 7.1,-9.1 0.8,-1.3 2.1,-3.7 1.1,-5.2 -0.9,-1.3 -3.2,-0.2 -4.3,0.3 -6.8,3.2 -12.8,7.8 -18.6,12.6 0,0 0.1,0.1 0.1,0.1 1.5,1.3 2.1,3.5 1.4,5.4 1.6,-0.3 3.1,0.7 3.9,2 z"
   id="path249"
   inkscape:connector-curvature="0"
   style="fill:#a7d8ff" />
	<path
   class="st11"
   d="m 248.6,267.4 c -0.5,-8.2 -0.7,-16.6 -3.8,-24.3 -0.4,-1.1 -0.9,-2.3 -1.5,-3.3 -0.2,-0.3 -0.6,-1.3 -1,-1.4 -1.3,-0.4 -1.8,2.2 -2,2.9 -1.1,3.2 -2,6.6 -3.3,9.7 -2.7,6.4 -7.6,11.8 -12.9,16.2 -1.3,1.1 -2.7,2.2 -4.2,3.3 0.4,-0.1 0.7,-0.1 1.2,-0.2 1.1,-0.1 1.4,0 1.7,0.2 0.7,0.6 0.4,2.1 0,3.1 -0.5,1.2 -0.9,1.4 -1.7,2.5 -0.1,0.2 -0.3,0.4 -0.4,0.7 5.3,-3 9.4,-7.8 12.9,-12.7 1.5,-2.1 3.1,-4.2 4.4,-6.4 0.9,-1.6 1.8,-3.6 3.3,-4.7 1.2,-0.9 2.4,-0.5 3.1,0.7 0.9,1.6 0.7,3.9 0.6,5.7 -0.3,5.6 -1.3,11.1 -3,16.5 -1.2,3.8 -2.8,7.5 -4.5,11.2 0.1,-0.1 0.2,-0.1 0.2,-0.2 0.9,-0.7 1.5,-1.8 2.3,-2.6 0.8,-0.8 2.1,-1.4 3.1,-0.9 1.1,0.6 1.3,2.1 2.1,3.2 0.1,0.1 0.4,0.4 0.9,0.7 3,-6.2 2.9,-13.3 2.5,-19.9 z"
   id="path251"
   inkscape:connector-curvature="0"
   style="opacity:0.56000001;fill:#80b0d1" />
	<path
   class="st5"
   d="m 234.9,279.7 c 0.9,0.4 1.2,1.6 1.1,2.6 -0.2,1 -0.7,1.9 -0.9,2.9 -0.2,0.7 -0.1,1.6 0.5,2.1 0.4,0.3 0.9,0.3 1.4,0.2 2,-4.3 3.9,-8.6 5.2,-13.1 1.5,-4.9 2.3,-10 2.5,-15.1 0.1,-1.7 0.4,-4.9 -1.3,-5.9 -1.7,-1 -3.3,2.3 -4,3.4 -2.4,4.1 -5.2,8 -8.2,11.7 -3,3.6 -6.4,6.9 -10.5,9.2 -0.1,0.5 0,1.1 0.5,1.4 0.6,0.5 1.6,0.3 2.2,0.1 2.5,-0.7 3.7,-2.6 4.4,-2.1 0.4,0.2 0.6,1.1 0.6,1.2 0.1,0.3 0.1,0.5 0,0.8 -0.1,0.8 -0.4,1.8 0,2.5 0.5,0.7 1.5,0.7 2.2,0.4 0.7,-0.3 1.3,-1 1.9,-1.4 0.8,-0.9 1.6,-1.2 2.4,-0.9 z"
   id="path253"
   inkscape:connector-curvature="0"
   style="fill:#a7d8ff" />
	<path
   class="st10"
   d="m 212.9,226.8 c 4.5,-1.9 12.2,-4.6 15.6,0.5 1.3,2 1.2,4.1 0.6,6.3 -0.4,1.3 -0.8,2.7 -0.9,4.1 0,0.7 -0.2,2.9 0.9,3 1.3,0.2 3,-2.3 3.7,-3.2 1.6,-1.9 3.3,-3.6 5.4,-4.7 4.3,-2.1 9,-0.5 11.8,3.2 3,3.9 4.2,9 5.4,13.7 -0.3,-4 -1.3,-11.9 -6.2,-19.7 -1.2,-2 -2.4,-3.4 -3.2,-4.4 -3.5,0.5 -7,0.4 -10.4,-0.6 -4,-1.1 -8.5,-3.2 -10.9,-6.6 -7.8,3.6 -15.2,8.2 -21.9,13.6 3.2,-1.9 6.6,-3.7 10.1,-5.2 z"
   id="path255"
   inkscape:connector-curvature="0"
   style="fill:#0d72bc" />
	<path
   class="st1"
   d="m 254.2,246.8 c -1.4,-5.1 -3.2,-11.1 -8.4,-13.6 -5.3,-2.6 -9.7,1.3 -13,5.1 -1,1.2 -4.2,4.8 -5,1.5 -1.1,-4.5 3.5,-9.3 -0.5,-13.2 -2,-2 -5.2,-2 -7.8,-1.5 -3.4,0.6 -6.7,2.1 -9.8,3.6 -3.2,1.5 -6.2,3.3 -9.3,5.1 0,0 -0.1,0 -0.1,0 -5.2,4.4 -10,9.3 -14.2,14.6 -1.4,1.7 -2.7,3.5 -3.4,5.5 -0.3,0.8 -0.3,1.8 0.4,2.2 0.3,0.1 0.6,0.1 0.9,0 2.1,-3.4 5.4,-5.8 8.6,-8.3 4,-3.1 8,-6.2 12.3,-9 4.6,-3.1 9.4,-6.7 14.6,-8.6 1.5,-0.6 3.8,-1.2 5.2,-0.1 2,1.5 1.2,4.8 0.5,6.8 -2.8,7.5 -8,14.2 -12.3,20.8 -2.5,3.8 -5.2,7.9 -8.4,11.3 -0.2,0.4 -0.5,0.8 -0.9,1.1 -0.7,0.7 -1.5,1.4 -2,2.2 -0.5,0.9 -0.6,2.1 0.1,2.8 0.6,0.6 1.7,0.6 2.4,0.6 3.1,-0.3 6.9,-1.6 9.8,-2.8 1.8,-0.9 3.6,-1.9 5.3,-3.2 4,-2.8 7.7,-6.2 10.7,-10 2.9,-3.6 5.1,-7.4 6.6,-11.8 0.7,-2.2 1.4,-4.5 2.1,-6.7 0.4,-1.3 0.8,-2.9 1.7,-4 3.2,-3.7 6.2,5.8 6.8,7.6 1.5,4.2 2,8.5 2.2,13 0.2,4.6 0.6,9.2 0.7,13.8 0.1,5.2 -0.4,11.2 -2.9,15.9 0.4,0.1 0.8,0.2 1.2,0.1 1,-0.2 1.8,-1 2.4,-2.1 4.5,-8 4.8,-26.5 4.8,-26.5 0.1,-2.9 0.1,-4.9 0.1,-6.3 -0.4,-2 -0.9,-3.9 -1.4,-5.9 z"
   id="path257"
   inkscape:connector-curvature="0"
   style="fill:#059fe9" />
	<path
   class="st1"
   d="m 47.7,206 c -0.8,0.2 -1.4,0.6 -1.9,1.3 -1.6,5.3 -1.6,10.9 -1.4,16.4 0.2,5.5 0.4,11.1 -0.9,16.5 -0.9,4 -3,8.1 -6.9,9.4 -3.2,1.1 -7.2,-0.3 -9,-3.2 -1.8,-2.9 -1.3,-7.1 1.2,-9.5 2.5,-2.4 6.7,-2.8 9.5,-0.9 -3.3,-2.7 -8.3,-3.5 -11.6,-0.9 -3.4,2.6 -4.7,7.4 -3.3,11.4 1.4,4 5.4,6.9 9.7,7.1 5.2,0.3 10,-3.2 12.6,-7.7 2.6,-4.5 3.4,-9.8 3.6,-14.9 0.2,-5.1 -0.1,-10.4 0.6,-15.5 0.3,-2.3 0.9,-4.6 1.7,-6.7 -0.8,-1.5 -2,-3.2 -3.9,-2.8 z"
   id="path259"
   inkscape:connector-curvature="0"
   style="fill:#059fe9" />
	<path
   class="st10"
   d="m 55.7,194.9 c -4.6,2 -8,6.6 -9.7,11.4 0.5,-0.4 1.1,-0.7 1.8,-0.8 1.9,-0.2 3.1,1.2 3.9,2.9 0.9,-2.1 2.1,-4 3.6,-5.6 0.2,-1.2 0.3,-2.4 0.4,-3.7 0.1,-1.4 0.1,-2.8 0,-4.2 z"
   id="path261"
   inkscape:connector-curvature="0"
   style="fill:#0d72bc" />
	<path
   class="st10"
   d="m 104.4,208.2 c 2.9,-0.2 6,1.7 7.7,4.2 2,2.7 3,5.9 3.7,9.2 -0.1,-2.7 -0.4,-5.5 -1.2,-8.2 -2,-6.6 -7.2,-11.3 -12.7,-15.2 -0.3,2.4 -0.5,4.8 -0.8,7.2 1.1,0.7 2,1.5 2.9,2.4 0.1,0.2 0.2,0.3 0.4,0.4 z"
   id="path263"
   inkscape:connector-curvature="0"
   style="fill:#0d72bc" />
	<path
   class="st1"
   d="m 139.2,243 c -0.6,-3 -2.6,-6.5 -5.5,-7.9 -3.2,-1.5 -7.3,-0.5 -9.9,1.8 1.9,-0.8 4,-1.1 5.9,-0.3 2.3,1 4,3.3 4.2,5.8 0.3,5.1 -5.5,8.3 -9.9,6.5 -5.1,-2 -7.6,-8 -8.1,-13.1 -0.4,-3.9 -0.1,-7.8 -0.1,-11.6 -0.6,-3.4 -1.3,-6.8 -3,-9.8 -1.5,-2.8 -4.7,-5.8 -8,-5.8 3.7,3.3 5.8,7.4 6.2,12.7 0.5,6.6 -0.2,13.1 1.8,19.6 2,6.4 6.7,11.8 13.7,12.1 6.1,0.4 14.3,-2.6 12.7,-10 z"
   id="path265"
   inkscape:connector-curvature="0"
   style="fill:#059fe9" />
	<path
   class="st11"
   d="m 30.9,145.4 c 0.4,0.8 0.9,1.6 1.2,2.4 3.9,0.6 7.5,2.8 10.8,5 0.1,0.1 0.2,0.3 0,0.4 -1.3,0.7 -2.5,1.7 -2.2,3.2 0.2,1.2 1.1,2.2 1.9,3.1 1.8,1.8 3.9,2.7 6.2,3.7 1.6,0.7 3.2,1.5 4.1,3.1 0.4,0.7 0.7,1.5 0.8,2.3 0.5,-0.6 1,-1.3 1.2,-2.2 0.7,-2.4 -0.9,-3.2 -2.8,-3.8 -2.7,-0.9 -7.5,-1.5 -8.8,-4.4 -1.6,-3.7 3.6,-4.1 6.1,-5.2 -4.7,-1.4 -9,-3.7 -13,-6.6 -1.1,-0.8 -2.2,-1.6 -3.2,-2.5 -0.2,-0.2 -0.7,-0.6 -1,-0.7 -2.2,-0.8 -1.7,0.8 -1.5,1.7 0.1,0.2 0.2,0.4 0.2,0.5 z"
   id="path267"
   inkscape:connector-curvature="0"
   style="opacity:0.56000001;fill:#80b0d1" />
	<path
   class="st5"
   d="m 56.3,182.3 c -0.1,-1.6 -0.5,-3.2 -1.3,-4.6 -0.7,-1.2 -1.7,-1.8 -2.5,-2.8 -1.1,-1.4 -1,-3.1 0,-4.5 0.3,-0.4 0.6,-0.8 0.9,-1.2 -0.2,-1.2 -0.6,-2.4 -1.4,-3.3 -1.6,-1.8 -4.2,-2.3 -6.2,-3.4 -2,-1.1 -4.2,-2.8 -5.2,-4.9 -0.9,-2 0.1,-3.5 1.8,-4.5 -3,-2 -6.3,-4 -9.9,-4.6 0.8,1.8 1.5,3.6 2.1,5.4 1.4,4.2 1.7,8.9 0.1,13.1 -0.6,1.6 -1.6,3.3 -1.1,4.9 0.6,2.1 3.2,2.8 5.2,3.8 2.6,1.3 4.6,3.7 5.5,6.4 0.9,2.8 0.6,5.9 -0.7,8.4 -0.5,0.9 -1.1,1.8 -1.3,2.8 -0.2,1 0.3,2.3 1.3,2.5 0.7,0.2 1.5,-0.3 2.1,-0.7 3.7,-2.4 7.3,-5.2 10.6,-8.1 0.1,-1.6 0.2,-3.1 0,-4.7 z"
   id="path269"
   inkscape:connector-curvature="0"
   style="fill:#a7d8ff" />
	<path
   class="st11"
   d="m 113.1,165 c 1.7,-0.9 3.7,-1.1 5.6,-1 3.7,0 8.5,1.3 11.9,-0.8 1.3,-0.8 2.4,-2.5 2.1,-4.1 -0.1,-0.9 -0.8,-1.5 -1.4,-2.3 -0.9,-1.3 -1.5,-3 -0.8,-4.5 0.8,-1.7 2.5,-2.8 4,-3.6 1.9,-1.1 4,-1.9 6.1,-2.7 3.3,-1.3 6.7,-2.1 10.2,-3 0.7,-1 1.5,-2 2.3,-3 -6.4,0.6 -13,2.8 -18.6,5.7 -3.4,1.8 -6.7,4 -9.6,6.6 -0.7,0.6 -1.4,1.3 -2,1.9 2,1.2 4.2,2.3 6.1,3.7 1.2,0.9 2,2.4 0.9,3.7 -1.5,1.8 -4.7,1.7 -6.8,1.6 -3.3,-0.2 -7.4,-0.9 -10.3,1.3 -0.5,0.4 -0.8,0.8 -1,1.2 0.5,-0.2 0.9,-0.4 1.3,-0.7 z"
   id="path271"
   inkscape:connector-curvature="0"
   style="opacity:0.56000001;fill:#80b0d1" />
	<path
   class="st5"
   d="m 146.1,156.6 c -0.2,-4.5 1.8,-8.9 4.5,-12.9 -3.8,1 -7.6,1.9 -11.2,3.5 -3,1.3 -10,3.7 -8.1,8.1 0.6,1.4 2.2,2.5 2.1,4.2 0,1.9 -1.3,3.6 -2.9,4.4 -5.5,2.6 -14.8,-1.9 -18.9,3.1 -0.3,1.9 1,3.9 2.6,5.1 1.2,0.9 3.4,1.8 2.6,3.7 -0.4,0.8 -1.3,1.4 -2,1.9 -0.6,0.4 -1.2,0.8 -1.9,1.2 -0.6,0.4 -1.1,0.8 -1.7,1.2 -0.1,0.1 -0.3,0.2 -0.4,0.3 0,0 0,0 0,0 -1.3,0.9 -2.5,1.8 -3.6,2.9 5.7,-0.8 13,2 17,3.9 2.6,1.2 11,7.2 11.5,1.1 0.2,-2.9 -1.1,-5.9 -1.8,-8.7 -1.5,-6.1 3.3,-8.5 8.4,-9.9 1.9,-0.5 8.9,-1.6 8.5,-4.5 -0.2,-1.6 -2.4,-3.1 -3.3,-4.4 -1,-1.3 -1.3,-2.6 -1.4,-4.2 z"
   id="path273"
   inkscape:connector-curvature="0"
   style="fill:#a7d8ff" />
	<path
   class="st11"
   d="m 159,128.5 c -3.3,0.5 -5.6,-2 -7.7,-4.2 -2.5,-2.6 -5,-5.3 -8.1,-7.2 -2.4,-1.4 -5.6,-1.8 -7.5,-4 -1.5,-1.8 -2,-4.4 -2.4,-6.8 -0.3,1.3 -0.6,2.7 -0.7,4 0.2,0.5 0.4,1.1 0.6,1.7 0.3,1 0.7,2.1 1,3.1 3.4,1.6 6.8,3 9.8,5.2 3,2.2 5.3,5.2 7,8.6 0.2,0.1 0.4,0.1 0.6,0.2 1.6,0.7 2.5,1.9 2.5,3.3 1.6,-0.9 3.2,-1.8 4.7,-2.9 0.6,-0.5 1.3,-1 1.9,-1.5 -0.5,0.2 -1.1,0.4 -1.7,0.5 z"
   id="path275"
   inkscape:connector-curvature="0"
   style="opacity:0.56000001;fill:#80b0d1" />
	<path
   class="st5"
   d="m 160.8,96.5 c -2.4,1.5 -4.6,3.2 -6.9,4.6 -3,2.5 -5.9,5 -8.9,7.5 -0.6,0.5 -1.3,1.1 -2.1,1.2 -1.6,0.2 -2.8,-1.4 -3.5,-2.9 -1.3,-3.1 -2.1,-6.7 -1.8,-10.1 -1.8,2.5 -3.2,5.3 -4.1,8.3 0.6,3.4 1.1,7.3 4.2,9 1.6,0.9 3.3,1.3 4.9,2.1 1.6,0.9 3.1,2 4.5,3.3 1.5,1.3 2.8,2.8 4.2,4.2 1.6,1.6 3.2,3.6 5.5,4.1 1.8,0.4 3.6,-0.2 5.2,-1.2 1.6,-1.6 3,-3.5 3.5,-5.6 0.3,-1.2 0.4,-3 -1.2,-3.2 -1.3,-0.1 -2.6,0.9 -3.5,1.6 -1.6,1.2 -3.5,2.9 -5.7,2.6 -5.9,-0.7 -1,-8.9 0.8,-11.2 2,-2.7 4.4,-5.2 7,-7.4 2.2,-1.9 6,-4.4 6.4,-7.5 0.8,-4.6 -6.9,-0.4 -8.5,0.6 z"
   id="path277"
   inkscape:connector-curvature="0"
   style="fill:#a7d8ff" />
	<path
   class="st11"
   d="m 117.5,103.8 c -1.8,-0.2 -3.7,-0.5 -5.2,-1.6 -3,-2.2 -3,-6.4 -2.6,-9.7 0.5,-4.3 1.2,-8.7 2.1,-12.9 1,-5.2 1.8,-10.9 3.8,-16.1 -1.9,1.9 -2.6,2.9 -2.6,2.9 -0.7,1 -1.4,2.2 -2.2,3.7 -0.7,2 -1.5,4.1 -2.1,6.1 -1.9,6.1 -2.8,12.5 -3.6,18.8 -0.8,6 -1.4,12 -2.4,18 -0.1,0.7 -0.2,1.4 -0.4,2.1 2.1,-2.7 4.9,-4.8 8.1,-6.5 3.4,-1.7 6.9,-3.1 10.4,-4.5 0,0 0.1,0 0.1,0 -1.1,-0.1 -2.2,-0.1 -3.4,-0.3 z"
   id="path279"
   inkscape:connector-curvature="0"
   style="opacity:0.56000001;fill:#80b0d1" />
	<path
   class="st5"
   d="m 129.9,85.4 c -0.1,-0.5 -0.2,-1.1 -0.6,-1.4 -0.6,-0.5 -1.5,-0.4 -2.1,0.1 -0.6,0.4 -1,1.1 -1.3,1.8 -0.7,1.6 -1.3,3.4 -2.6,4.7 -1.2,1.3 -3.3,2 -4.8,1.1 -1.5,-1 -1.7,-3.1 -1.7,-4.9 0.1,-5.9 1,-10.4 2.4,-16.4 0.4,-1.8 1,-4.5 1.6,-8 0,-0.3 -0.1,-1.6 -0.9,-1.9 -0.7,-0.3 -1.5,0.4 -2.1,1 -0.5,0.4 -0.9,0.8 -1.3,1.2 -0.8,1.9 -1.4,4 -1.9,6 -0.9,3.7 -1.6,7.5 -2.3,11.3 -0.8,4.1 -1.5,8.2 -2,12.4 -0.4,3.6 -0.5,8.2 3.2,10.1 1.7,0.9 3.9,1 5.8,1.1 0.9,0.1 1.8,0.1 2.8,0.1 0.7,-0.3 1.4,-0.6 2,-1 1,-3.4 2.1,-6.1 3.2,-7.9 1.5,-3 3.1,-6.2 2.6,-9.4 z"
   id="path281"
   inkscape:connector-curvature="0"
   style="fill:#a7d8ff" />
	<path
   class="st12"
   d="M 77.3,29.2 C 76.1,23 72.2,18.4 67.5,15.7 c 1.4,1.8 2.6,3.9 3.4,6.1 1.6,4.6 2.1,9.8 -0.3,14.2 -2,3.7 -5.6,6.2 -9.5,7.6 -6.2,2.4 -13.7,2.3 -20.1,-0.2 2,3.6 4.9,5.9 7.4,7.3 3.1,1.3 6.6,1.9 10,1.6 3.3,-0.2 6.8,-1.1 9.6,-2.7 2,-1.1 3.6,-2.6 5.2,-4.2 C 76.9,41 78.4,35 77.3,29.2 Z"
   id="path283"
   inkscape:connector-curvature="0"
   style="fill:#e0d586" />
	<path
   class="st12"
   d="m 120.4,16.8 c -2.4,-1.9 -5.2,-3.3 -8.2,-3.9 1.2,0.9 2.3,1.9 3.4,3 3.4,3.6 6.2,8.1 6.7,13.1 0.4,4.3 -0.8,8.8 -3.6,12.1 -6.2,7.6 -17.4,7.3 -26.2,4.2 1.5,1.8 3.2,3.4 5.3,4.7 3.3,1.8 7.2,2.6 10.9,2.5 2.2,-0.1 4.4,-0.5 6.5,-1.2 0.8,-0.3 1.5,-0.6 2.2,-0.9 5.1,-3 8.8,-8.1 10,-14 0,-0.7 1.9,-12.3 -7,-19.6 z"
   id="path285"
   inkscape:connector-curvature="0"
   style="fill:#e0d586" />
	<path
   class="st11"
   d="m 246.9,148.3 c -0.6,0.3 -1.2,0.6 -1.8,0.9 -0.3,0.2 -0.7,0.3 -1,0.4 2.8,4.4 5.2,8.9 6.6,14 1.3,4.6 2.2,9.3 3,14 0.5,0.6 1.2,1.2 2,1.7 0.4,0.3 0.8,0.5 1.1,0.7 0.1,-4 -0.3,-9.7 -2.2,-16.1 -2.2,-7 -5.4,-12.3 -7.7,-15.6 z"
   id="path287"
   inkscape:connector-curvature="0"
   style="opacity:0.56000001;fill:#80b0d1" />
	<path
   class="st5"
   d="m 285.5,147.6 c -0.2,-1.4 -1.9,-2 -3.3,-2.3 -10.4,-2.3 -21.4,-1.7 -31.4,1.6 4.1,11.1 6.8,22.6 8.2,34.4 0.2,0 0.3,0 0.5,-0.1 1,-0.3 1.4,-1.4 1.3,-2.4 -0.2,-2.4 -2.7,-4.5 -2,-6.9 0.5,-1.6 2.3,-2.5 4,-2.7 1.7,-0.2 3.4,0 5.1,-0.3 1.7,-0.4 3.3,-1.8 3.2,-3.4 -0.1,-1.9 -2.3,-3 -4.1,-3.7 -1.8,-0.7 -3.8,-2.1 -3.5,-4.1 0.3,-1.5 1.9,-2.3 3.3,-2.8 4.7,-1.8 9.6,-3.1 14.6,-4 0.9,-0.2 1.9,-0.3 2.7,-0.8 0.9,-0.6 1.5,-1.6 1.4,-2.5 z"
   id="path289"
   inkscape:connector-curvature="0"
   style="fill:#a7d8ff" />
</g>
</svg>