<?xml version="1.0" encoding="UTF-8" standalone="no"?>
<svg
   xmlns:dc="http://purl.org/dc/elements/1.1/"
   xmlns:cc="http://creativecommons.org/ns#"
   xmlns:rdf="http://www.w3.org/1999/02/22-rdf-syntax-ns#"
   xmlns:svg="http://www.w3.org/2000/svg"
   xmlns="http://www.w3.org/2000/svg"
   xmlns:sodipodi="http://sodipodi.sourceforge.net/DTD/sodipodi-0.dtd"
   xmlns:inkscape="http://www.inkscape.org/namespaces/inkscape"
   viewBox="0 0 166.92222 275.0985"
   version="1.1"
   id="svg353"
   sodipodi:docname="gogeta.svg"
   inkscape:version="0.92.4 (5da689c313, 2019-01-14)"
   width="166.92223"
   height="275.09851">
  <metadata
     id="metadata357">
    <rdf:RDF>
      <cc:Work
         rdf:about="">
        <dc:format>image/svg+xml</dc:format>
        <dc:type
           rdf:resource="http://purl.org/dc/dcmitype/StillImage" />
        <dc:title>Gogeta dragonball</dc:title>
      </cc:Work>
    </rdf:RDF>
  </metadata>
  <sodipodi:namedview
     pagecolor="#ffffff"
     bordercolor="#666666"
     borderopacity="1"
     objecttolerance="10"
     gridtolerance="10"
     guidetolerance="10"
     inkscape:pageopacity="0"
     inkscape:pageshadow="2"
     inkscape:window-width="1366"
     inkscape:window-height="715"
     id="namedview355"
     showgrid="false"
     inkscape:zoom="2.2612086"
     inkscape:cx="107.12711"
     inkscape:cy="170.67546"
     inkscape:window-x="-8"
     inkscape:window-y="22"
     inkscape:window-maximized="1"
     inkscape:current-layer="svg353"
     fit-margin-top="0"
     fit-margin-left="0"
     fit-margin-right="0"
     fit-margin-bottom="0" />
  <defs
     id="defs4">
    <style
       id="style2">.cls-1{fill:#fff;}.cls-2{fill:#2a55c8;}.cls-3{fill:#f0f0f0;}.cls-4{fill:#303230;}.cls-5{fill:#b9b9ba;}.cls-6{fill:#babab6;}.cls-7{fill:#90918c;}.cls-8{fill:#3064d3;}.cls-9{fill:#0b337e;}.cls-10{fill:#bf6d4e;}.cls-11{fill:#ffd2a1;}.cls-12{fill:#313131;}.cls-13{fill:#1a1c16;}.cls-14{fill:#040402;}.cls-15{fill:#eae764;}.cls-16{fill:#1c1c1a;}.cls-17{fill:#f6f8f6;}.cls-18{fill:#f1d6ab;}.cls-19{fill:#bb6053;}.cls-20{fill:#cec937;}.cls-21{fill:#cdc73a;}.cls-22{fill:#a39d24;}.cls-23{fill:#a5a321;}.cls-24{fill:#a59d2f;}.cls-25{fill:#0b0a08;}.cls-26{fill:#0c0c0e;}.cls-27{fill:#191411;}.cls-28{fill:#c7744d;}.cls-29{fill:#8f8f8e;}.cls-30{fill:#dadad9;}.cls-31{fill:none;stroke:#000;stroke-miterlimit:10;stroke-width:2px;}</style>
  </defs>
  <title
     id="title6">Gogeta dragonball</title>
  <g
     id="Слой_7"
     data-name="Слой 7"
     transform="translate(-9.9949368,-9.9984616)" />
  <g
     id="Слой_6"
     data-name="Слой 6"
     transform="translate(-9.9949368,-9.9984616)">
    <path
       class="cls-2"
       d="m 196.34,191.23 a 22.61,22.61 0 0 0 9.84,-8.75 c -0.61,-0.7 -1.22,-1.38 -1.79,-2 -1.79,-2.07 -3.67,-4.06 -5.39,-6.19 -2.86,-3.56 -6,-7.76 -7,-12.3 a 12.53,12.53 0 0 1 2.6,-10.89 c 2.2,-2.49 5.42,-3.79 8.58,-4.77 0.66,-3.17 1.23,-7 0.44,-8.19 -1.42,-2.21 -7.82,0.27 -7.82,0.27 0.47,-0.33 0.91,-0.67 1.36,-1 -1.16,0.37 -2.34,0.71 -3.54,1 -4.34,0.91 -8.47,1.91 -12.4,4.08 -3.33,1.84 -6.2,4.37 -9.5,6.27 a 58.72,58.72 0 0 1 -9.38,4.27 c -7.4,2.7 -15.07,4.48 -22.4,7.37 -7.33,2.89 -13.5,6.76 -20,10.91 a 45.61,45.61 0 0 0 14.12,-1.92 c 0,0 -2.83,2.52 -2.05,5.2 a 10.28,10.28 0 0 0 2.21,4.1 12.71,12.71 0 0 0 1.88,8.31 c 2.68,4.57 4.89,9.15 4.89,9.15 0,0 -16.4,-6.94 -20,-7.73 a 48,48 0 0 0 -40.06,8.36 c 0,0 4.74,3 6.79,5.83 a 25.37,25.37 0 0 0 6.15,5.36 l 4.25,-5 c 0,0 4.89,-1.42 4.89,3.78 0,0 -19.71,4.42 -25.23,21.29 0,0 6.15,-3.47 9.3,2.68 3.15,6.15 14.2,8.83 14.2,8.83 l 1.57,-6.15 a 12.39,12.39 0 0 1 6.63,2.52 c 2.83,2.37 12.93,3.47 18.6,3.63 0,0 4.14,-2 1.43,1.39 -2.71,3.39 -10.65,3.42 -13.67,8.95 -3.02,5.53 1.69,15.11 1.69,15.11 l -5.43,5.23 c 0,0 -3.41,2.81 -6.33,3.41 -2.92,0.6 -11.45,5.73 -10.25,9.45 1.2,3.72 8.34,4.22 14.37,2.21 6.03,-2.01 8.24,-5.93 8.24,-5.93 2.32,-0.58 6.12,-3.12 7.4,-4 a 0.8,0.8 0 0 1 0.79,-0.09 c 0.79,0.34 3.24,0.81 10.1,-0.92 9.15,-2.31 18.89,-10.55 20,-12.06 1.11,-1.51 3.42,-5.33 3.42,-5.33 l 4,-1.71 4.73,-7.63 c 2.51,0.9 5.42,-0.81 5.42,-0.81 1.61,4.12 7.54,5.43 7.54,5.43 l 0.7,3.32 c 0.71,3.31 5.93,5.12 5.93,5.12 a 4.25,4.25 0 0 0 3.32,4.12 c -0.8,2.71 0.8,8 2.91,10.15 2.11,2.15 5.83,-0.8 3.92,-3.62 a 13.26,13.26 0 0 1 -2.11,-5.93 c 4.83,1.81 2.72,-2.71 2.72,-2.71 a 18.46,18.46 0 0 1 -4.12,-8.94 c 2.51,0.2 4.22,-0.91 3.61,-2.62 -0.45,-1.27 -3.65,-3.28 -5.24,-4.21 a 0.77,0.77 0 0 1 -0.2,-1.13 c 1.69,-2.39 1.53,-9.93 0.72,-16.66 a 38.24,38.24 0 0 0 -5.24,-14.24 c 0.78,-1.73 -0.79,-6.15 -0.79,-6.15 l 1.89,-5 a 24.84,24.84 0 0 0 6.79,-12.52 z"
       transform="translate(-57.02,-2.25)"
       id="path11"
       inkscape:connector-curvature="0"
       style="fill:#2a55c8" />
    <path
       class="cls-3"
       d="m 117.14,264.5 a 25.35,25.35 0 0 1 -2.55,-9.15 c -0.12,-3.19 1,-6.57 3.5,-8.51 1.93,-1.47 4.41,-2 6.7,-2.78 2.29,-0.78 4.63,-2.28 5.24,-4.64 l -16.81,-2.15 -0.74,-0.56 a 11.33,11.33 0 0 1 -5.82,-5.71 19.44,19.44 0 0 1 -1.69,-8.11 30.43,30.43 0 0 1 1.79,-10.89 44.8,44.8 0 0 1 16.45,-5.66 69.23,69.23 0 0 1 14,0.4 c -0.1,-0.62 -0.23,-1.52 -0.33,-2.13 a 0.54,0.54 0 0 1 0,-0.31 0.52,0.52 0 0 1 0.44,-0.18 7.48,7.48 0 0 1 4.07,0.47 4.25,4.25 0 0 0 1.05,0.51 0.84,0.84 0 0 0 1,-0.41 c 3.09,4.51 6.35,8.79 10.87,11.85 4.52,3.06 10.33,4.65 15.57,3.08 1.13,3.38 3.7,6.38 5.17,9.63 1.47,3.25 2.34,7 1,10.34 a 17.41,17.41 0 0 1 -3.81,5.31 L 159,259.17 a 73,73 0 0 1 -7,6.85 44.08,44.08 0 0 1 -17.79,8.37 c -3.53,0.83 -7.37,1.28 -10.67,-0.19 -3.47,-1.57 -4.87,-6.2 -6.4,-9.7 z"
       transform="translate(-57.02,-2.25)"
       id="path13"
       inkscape:connector-curvature="0"
       style="fill:#f0f0f0" />
    <path
       class="cls-4"
       d="m 98.86,277.52 a 6.31,6.31 0 0 0 -2.34,3.54 4.08,4.08 0 0 0 1.4,3.49 6.24,6.24 0 0 0 3.57,1.43 13.34,13.34 0 0 0 3.88,-0.3 26.23,26.23 0 0 0 12,-5.43 3.91,3.91 0 0 0 1.51,-2.09 4.37,4.37 0 0 0 -1,-3 c -0.92,-1.44 -1.93,-3 -3.51,-3.62 a 6.46,6.46 0 0 0 -3.65,-0.18 20,20 0 0 0 -5,1.82 39.82,39.82 0 0 0 -4.57,2.42 19.62,19.62 0 0 0 -2.29,1.92 z"
       transform="translate(-57.02,-2.25)"
       id="path15"
       inkscape:connector-curvature="0"
       style="fill:#303230" />
    <path
       class="cls-5"
       d="m 114.35,233 a 5.61,5.61 0 0 0 1.72,3.7 10.51,10.51 0 0 0 2.77,1.71 6.62,6.62 0 0 0 1.32,0.5 8,8 0 0 0 2.34,0 38.86,38.86 0 0 1 6.65,0.1 1.69,1.69 0 0 0 2.21,-0.18 10.38,10.38 0 0 0 1.49,-1.92 2.38,2.38 0 0 1 2,-1.1 6.92,6.92 0 0 0 0.77,0.14 2.06,2.06 0 0 0 1.08,-0.45 l 10.48,-7.07 a 26.61,26.61 0 0 0 -7.45,1.46 c 2.31,-1.65 3,-4.72 4.7,-7 1.24,-1.71 3,-3 4.44,-4.5 1.44,-1.5 2.63,-3.58 2.28,-5.66 a 0.77,0.77 0 0 0 -0.12,-0.34 0.65,0.65 0 0 0 -0.55,-0.22 3,3 0 0 0 -1.52,0.56 66.21,66.21 0 0 0 -6,4.09 10.8,10.8 0 0 0 -1.8,1.64 9.2,9.2 0 0 0 -1.31,2.43 57.44,57.44 0 0 0 -2.36,8 23.34,23.34 0 0 0 -1.07,-6.15 q -0.24,3.3 -0.26,6.63 a 12.5,12.5 0 0 1 -2.06,-3.27 16.66,16.66 0 0 1 -0.61,-3 54.89,54.89 0 0 1 -0.82,-9.57 c -0.91,3 -0.5,6.15 0,9.21 q 0.45,2.9 1,5.77 a 8.85,8.85 0 0 1 0.08,4.48 18.53,18.53 0 0 0 -1.32,-3.67 15,15 0 0 1 -0.62,-2.65 q -0.9,-5.29 -1.53,-10.63 a 26.77,26.77 0 0 0 -1.14,3.73 19.77,19.77 0 0 1 -1,4.61 c -0.57,1.22 -1.57,2.25 -1.89,3.56 a 6.24,6.24 0 0 0 -0.11,1.78 23.38,23.38 0 0 0 1.38,6.92 1,1 0 0 0 0.54,0.72 13.27,13.27 0 0 1 -2.8,-0.58 c -1.69,-0.66 -3.23,-1.66 -4.91,-2.36 a 30.32,30.32 0 0 0 -6,-1.42 z"
       transform="translate(-57.02,-2.25)"
       id="path17"
       inkscape:connector-curvature="0"
       style="fill:#b9b9ba" />
    <path
       class="cls-6"
       d="m 166.87,233.14 a 38.65,38.65 0 0 1 1.17,7.54 4.61,4.61 0 0 0 0.33,2.06 1.36,1.36 0 0 0 1.76,0.66 c 0.55,-0.34 0.6,-1.11 0.59,-1.76 a 61,61 0 0 0 -2.34,-15.07 20.84,20.84 0 0 0 -1.47,-3.9 c -0.29,-0.54 -1.7,-3.13 -2.52,-2.83 -0.82,0.3 0.13,2.73 0.22,3.17 l 1.07,4.78 z"
       transform="translate(-57.02,-2.25)"
       id="path19"
       inkscape:connector-curvature="0"
       style="fill:#babab6" />
    <path
       class="cls-7"
       d="m 167.12,227.54 c 0.34,0.9 0.69,1.81 0.94,2.74 a 30.31,30.31 0 0 1 0.69,5.12 c 0.16,1.81 0.35,3.61 0.58,5.42 a 2.9,2.9 0 0 0 0.45,1.41 2.18,2.18 0 0 0 1,0.67 4.56,4.56 0 0 0 4.38,-0.77 7.08,7.08 0 0 0 2,-3.07 8.3,8.3 0 0 0 0.6,-2.94 11.37,11.37 0 0 0 -0.61,-3.1 41.11,41.11 0 0 0 -3.05,-8.02 14.39,14.39 0 0 0 -5.9,-6.14 c -0.95,-0.48 -2.2,-0.87 -3.14,-0.13 a 1.76,1.76 0 0 0 -0.66,2.1 c 0.79,2.23 1.85,4.45 2.72,6.71 z"
       transform="translate(-57.02,-2.25)"
       id="path21"
       inkscape:connector-curvature="0"
       style="fill:#90918c" />
    <path
       class="cls-8"
       d="m 151.9,214.23 a 14.93,14.93 0 0 1 1.13,1.12 14.59,14.59 0 0 0 3.12,2.42 21.87,21.87 0 0 0 7.47,2.39 5,5 0 0 0 1.59,0.09 1.76,1.76 0 0 0 1.64,-1.77 6,6 0 0 0 -0.87,-3.3 6.49,6.49 0 0 0 -1.32,-1.79 9.33,9.33 0 0 0 -2.21,-1.38 l -5.28,-2.63 a 10.73,10.73 0 0 0 -2.93,-1.11 3,3 0 0 0 -1.74,0.14 3.62,3.62 0 0 0 -1.41,1.31 c -0.4,0.59 -1.43,1.9 -1.25,2.65 0.18,0.75 1.45,1.37 2.06,1.86 z"
       transform="translate(-57.02,-2.25)"
       id="path23"
       inkscape:connector-curvature="0"
       style="fill:#3064d3" />
    <path
       class="cls-9"
       d="m 153,203.47 a 24.53,24.53 0 0 0 4.38,3.46 c 1.48,1 3,1.88 4.54,2.73 a 10.9,10.9 0 0 0 5.85,1.75 12.48,12.48 0 0 0 1.51,8.44 c -3.5,0.72 -3.44,0.34 -4.57,0.3 a 28.29,28.29 0 0 0 -1.55,-5.46 4.93,4.93 0 0 1 -2.84,-0.4 c -2.6,-1 -5.06,-2.31 -7.73,-3 a 25.86,25.86 0 0 0 4.71,4.64 c 2.1,1.47 4.66,2.32 6.43,4.17 a 8,8 0 0 1 -4.41,-1.55 c -1.39,-1 -2.41,-2.48 -3.71,-3.64 -1.3,-1.16 -3.07,-2 -4.73,-1.52 -2.79,-2.39 -5.7,-4.93 -7,-8.38 a 0.65,0.65 0 0 1 -0.06,-0.33 0.73,0.73 0 0 1 0.25,-0.42 c 1.22,-1.24 2.69,-2.58 4.42,-2.41 a 1.3,1.3 0 0 1 0,-1.58 c 0.62,-0.87 2.14,-1.28 2.45,0 a 7.29,7.29 0 0 0 2.06,3.2 z"
       transform="translate(-57.02,-2.25)"
       id="path25"
       inkscape:connector-curvature="0"
       style="fill:#0b337e" />
    <path
       class="cls-9"
       d="m 143.44,202.55 a 5.33,5.33 0 0 0 -1.73,-2 40.38,40.38 0 0 0 -8.16,-4.78 26.2,26.2 0 0 1 -5,-2.76 5.55,5.55 0 0 0 -1.84,-1.14 4.16,4.16 0 0 0 -1.41,-0.07 39.37,39.37 0 0 0 -10.06,2.05 c -2.43,0.84 -4.78,1.92 -7.12,3 a 44.81,44.81 0 0 0 -9.32,5.22 12.68,12.68 0 0 1 3,1.23 2.91,2.91 0 0 1 1,0.84 4,4 0 0 1 0.47,1.2 10.78,10.78 0 0 0 2.95,4.82 2.53,2.53 0 0 1 1.2,-2.38 6.75,6.75 0 0 1 2.64,-0.91 c 9,-1.66 18.26,-0.79 27.38,0.1 -0.2,-0.9 0,-2.13 -0.5,-2.87 0,0 1.69,0.09 1.94,0.1 a 9.88,9.88 0 0 1 2.7,0.48 c 0.51,0.16 1.16,0.43 1.63,0 a 2.06,2.06 0 0 0 0.23,-2.13 z"
       transform="translate(-57.02,-2.25)"
       id="path27"
       inkscape:connector-curvature="0"
       style="fill:#0b337e" />
    <path
       class="cls-9"
       d="m 92.73,235.83 c 0,-1.78 1.1,-3.34 1.9,-4.92 0.53,-1.06 1,-2.17 1.45,-3.25 a 27.09,27.09 0 0 1 6.58,-8.83 30.77,30.77 0 0 0 -5.24,16.62 c 0,0.73 0,1.46 0,2.2 0,0.16 -0.05,0.37 -0.21,0.4 a 0.38,0.38 0 0 1 -0.18,0 19,19 0 0 1 -4.3,-2.22 z"
       transform="translate(-57.02,-2.25)"
       id="path29"
       inkscape:connector-curvature="0"
       style="fill:#0b337e" />
    <path
       class="cls-9"
       d="m 99.29,235.79 a 4.4,4.4 0 0 1 -0.14,-1.14 2.76,2.76 0 0 1 2.6,-2.5 1.43,1.43 0 0 1 1,0.24 1.34,1.34 0 0 1 0.46,1 4.06,4.06 0 0 1 -0.17,1.09 c -0.35,1.36 -0.76,2.71 -1.22,4 -0.1,0.28 -0.36,0.87 -0.75,0.82 -0.39,-0.05 -0.62,-0.69 -0.76,-0.95 a 9.14,9.14 0 0 1 -1.02,-2.56 z"
       transform="translate(-57.02,-2.25)"
       id="path31"
       inkscape:connector-curvature="0"
       style="fill:#0b337e" />
    <path
       class="cls-10"
       d="m 229.14,161.27 a 52.87,52.87 0 0 0 -6,-2.05 l -0.79,-3.16 a 10.93,10.93 0 0 0 3.62,-1.89 c 1.11,-1.1 -0.78,-3.78 -0.78,-3.78 0,0 -0.16,1.42 -2.68,1.89 a 7.65,7.65 0 0 0 -4.1,2.36 c -5.14,1.08 -11.89,-1.55 -14.87,-2.89 a 2,2 0 0 1 -1.12,-2.31 c 0.14,-0.58 0.31,-1.27 0.48,-2 -3.25,1 -6.49,2.5 -8.41,5.37 -2.77,4.14 -2,8.95 0.13,13.13 a 54.38,54.38 0 0 0 8.08,11.16 c 1.27,1.41 2.7,2.88 4,4.42 a 23.08,23.08 0 0 0 2.67,-7.76 l -2.53,-4.41 2.84,-0.63 c 0.16,2.68 5.52,5.2 5.52,5.2 V 180 c 1.26,1.26 3.16,0 3.16,0 a 24.42,24.42 0 0 1 1.26,-8.83 c 0,0 2,5.2 2.68,6.15 0.68,0.95 3.47,0 3.47,0 0,0 0.15,-0.95 -1.42,-2.84 -1.57,-1.89 -1.58,-5.67 -1.58,-5.67 a 16.28,16.28 0 0 1 2.68,2.83 c 1,1.42 3.79,2.05 4.1,1 0.31,-1.05 -1.89,-3 -2.36,-3.94 -0.47,-0.94 -3.63,-3.51 -3.63,-3.51 l 0.31,-1.7 c 0,0 4.1,0.95 5.52,1.42 1.42,0.47 3.31,0.48 3.47,-1.1 0.16,-1.58 -1.67,-1.6 -3.72,-2.54 z"
       transform="translate(-57.02,-2.25)"
       id="path33"
       inkscape:connector-curvature="0"
       style="fill:#bf6d4e" />
    <path
       class="cls-11"
       d="m 178.81,188.56 3.34,6.23 c 3.45,6.47 6.93,13.44 6.24,20.74 a 4.24,4.24 0 0 1 -0.21,1.06 c -0.47,1.18 -1.83,1.71 -3.06,2 a 27.41,27.41 0 0 1 -7.65,0.81 11.63,11.63 0 0 0 -3.68,0.17 1.55,1.55 0 0 1 -0.73,0.11 1.35,1.35 0 0 1 -0.56,-0.36 l -2.09,-1.89 a 5,5 0 0 1 -1.09,-1.26 c -0.61,-1.2 -0.1,-2.65 -0.21,-4 a 6.14,6.14 0 0 0 -3.45,-4.57 37.33,37.33 0 0 0 -5.59,-2 23.67,23.67 0 0 1 -8.78,-5.51 6.5,6.5 0 0 0 -2.4,-1.81 c -1,-0.32 -2.1,-0.09 -3.07,-0.48 a 4,4 0 0 1 -2.07,-3.08 c -0.53,-2.9 0.54,-5.84 1.7,-8.55 a 17.43,17.43 0 0 1 1.94,-3.61 c 2.83,-3.77 8,-4.87 12.7,-5 a 33.17,33.17 0 0 1 9.88,1 18.17,18.17 0 0 1 3.69,1.23 c 1.14,0.61 1.65,2.28 2.23,3.35 z"
       transform="translate(-57.02,-2.25)"
       id="path35"
       inkscape:connector-curvature="0"
       style="fill:#ffd2a1" />
    <path
       class="cls-11"
       d="m 192.19,200.82 a 28.61,28.61 0 0 0 3.72,-5.61 6.25,6.25 0 0 0 0.77,-2.07 5.09,5.09 0 0 0 -0.11,-1.65 12.83,12.83 0 0 0 -0.73,-2.43 1.79,1.79 0 0 0 -0.64,-0.88 c -0.54,-0.33 -1.24,0 -1.82,0.23 -1.86,0.88 -3.89,1.61 -5.2,3.19 a 12.73,12.73 0 0 0 -1.68,3.1 15.11,15.11 0 0 0 -1.71,5.19 12.43,12.43 0 0 0 0.16,2.36 2.62,2.62 0 0 0 1.15,2.07 c 0.67,0.43 1.28,0.09 1.93,-0.23 a 14.22,14.22 0 0 0 4.16,-3.27 z"
       transform="translate(-57.02,-2.25)"
       id="path37"
       inkscape:connector-curvature="0"
       style="fill:#ffd2a1" />
    <path
       class="cls-10"
       d="m 191.88,193.47 c -0.32,0.56 -0.71,1.07 -1,1.62 a 11.6,11.6 0 0 0 -1.65,4.37 c -0.27,1.71 -0.17,3.48 -0.57,5.16 -0.13,0.52 -0.31,1 -0.48,1.54 l -1,2.89 -2.2,-4 c -0.23,-0.43 -0.47,-0.86 -0.66,-1.31 -0.31,-0.77 -0.47,-1.6 -0.77,-2.37 a 13.81,13.81 0 0 0 -1,-1.95 16.84,16.84 0 0 1 -2.55,-6.39 1.51,1.51 0 0 1 0,-0.6 1.43,1.43 0 0 1 0.46,-0.58 10,10 0 0 1 2.55,-1.74 10.25,10.25 0 0 1 3.68,-0.71 8.54,8.54 0 0 1 4.24,0.71 3.7,3.7 0 0 1 1.54,1.31 c 0.3,0.69 -0.27,1.5 -0.59,2.05 z"
       transform="translate(-57.02,-2.25)"
       id="path39"
       inkscape:connector-curvature="0"
       style="fill:#bf6d4e" />
    <path
       class="cls-11"
       d="m 164.56,243.58 a 0.81,0.81 0 0 1 -0.15,-0.49 c 0,-0.32 0.39,-0.49 0.71,-0.58 2.67,-0.75 5.84,-0.23 8,-2 1.49,-1.27 2,-3.34 3.08,-5 a 7.65,7.65 0 0 1 5.68,-3.3 15.3,15.3 0 0 1 5,0.76 8.94,8.94 0 0 1 3.64,1.61 6.07,6.07 0 0 1 1.88,3.78 18.75,18.75 0 0 1 0,4.3 5.05,5.05 0 0 0 0.45,3.29 5.17,5.17 0 0 0 1.1,1.09 l 3.06,2.46 c 0.69,0.56 1.45,1.29 1.32,2.17 A 2,2 0 0 1 197,253 c -0.6,0.26 -1.26,0.37 -1.84,0.64 a 0.75,0.75 0 0 0 -0.33,0.24 0.88,0.88 0 0 0 0,0.79 l 2.09,5.52 c 0.6,1.57 2.17,3.68 2,5.36 -0.42,0 -1.82,-0.5 -2.24,-0.51 a 15.45,15.45 0 0 0 1,5.34 c 0.44,1.14 1,2.41 0.51,3.52 a 2.49,2.49 0 0 1 -2.37,1.33 4.05,4.05 0 0 1 -2.54,-1.21 c -2,-1.95 -2.44,-5.07 -2.19,-7.88 a 2.34,2.34 0 0 0 -0.11,-1.29 c -0.41,-0.79 -1.6,-0.84 -2.13,-1.56 -0.53,-0.72 -0.22,-1.68 -0.55,-2.46 -0.48,-1.11 -1.91,-1.33 -2.94,-2 -2.28,-1.43 -2.35,-4.88 -4.36,-6.66 -2.01,-1.78 -5.09,-1.58 -6.31,-3.74 -0.24,-0.43 -0.38,-0.92 -0.66,-1.32 -0.69,-1 -1.54,-0.38 -2.49,-0.26 a 7.32,7.32 0 0 1 -7,-3.35 z"
       transform="translate(-57.02,-2.25)"
       id="path41"
       inkscape:connector-curvature="0"
       style="fill:#ffd2a1" />
    <path
       class="cls-12"
       d="m 194,191.76 a 28,28 0 0 0 5.67,-2.67 c 4.42,-2.92 7,-7.83 9.44,-12.53 a 3.53,3.53 0 0 0 0.55,-1.86 2.81,2.81 0 0 0 -0.26,-0.93 17.44,17.44 0 0 0 -1.18,-2.27 60.57,60.57 0 0 0 -4.65,-6.39 l -1.07,-1.33 a 10.45,10.45 0 0 0 -4.09,-3.62 10.12,10.12 0 0 0 -5.54,0 67.52,67.52 0 0 0 -16.29,5.3 4,4 0 0 0 -1.73,1.31 3.33,3.33 0 0 0 -0.42,1.52 c -0.21,2.64 0.72,5.23 0.94,7.86 0.14,1.7 0,3.41 0.17,5.1 a 24.63,24.63 0 0 0 1,4.3 c 0.45,1.5 0.91,3 1.48,4.46 a 11.6,11.6 0 0 0 1.9,3.78 c 0.82,0.84 2.67,0.56 3.72,0.51 a 25.82,25.82 0 0 0 4.94,-0.79 54.91,54.91 0 0 0 5.42,-1.75 z"
       transform="translate(-57.02,-2.25)"
       id="path43"
       inkscape:connector-curvature="0"
       style="fill:#313131" />
    <path
       class="cls-13"
       d="m 179.27,192.78 a 3,3 0 0 0 1,1.44 3.08,3.08 0 0 0 1.88,0.27 1.27,1.27 0 0 0 0.55,-0.13 1,1 0 0 0 0.4,-0.68 8.41,8.41 0 0 0 -0.05,-3.53 c -0.28,-1.74 -0.64,-3.48 -1.06,-5.19 a 13.42,13.42 0 0 0 -0.81,-2.49 1.56,1.56 0 0 0 -0.81,-0.88 1.35,1.35 0 0 0 -1,0.17 4.2,4.2 0 0 0 -1.84,2.29 6,6 0 0 0 -0.43,3.8 c 0.62,1.67 1.44,3.29 2.17,4.93 z"
       transform="translate(-57.02,-2.25)"
       id="path45"
       inkscape:connector-curvature="0"
       style="fill:#1a1c16" />
    <path
       class="cls-14"
       d="m 180.58,177.78 c 0.12,3 0.51,6 0.9,8.93 l 0.62,4.75 a 3.93,3.93 0 0 1 -0.39,3.1 c 0.68,-0.11 1.32,0 2,-0.14 a 2.18,2.18 0 0 1 -0.17,-1.08 46.88,46.88 0 0 0 -0.21,-6.27 c -0.32,-2.77 -1,-5.49 -1.34,-8.27 -0.08,-0.76 -0.13,-1.52 -0.19,-2.28 l -0.33,-5 a 11.75,11.75 0 0 1 3,-2.42 1.6,1.6 0 0 1 1.13,-0.25 16.91,16.91 0 0 0 5.5,0 c 1.83,-0.11 3.8,-0.83 4.66,-2.45 a 1.59,1.59 0 0 0 -1.35,-0.57 14.73,14.73 0 0 0 -6.36,1.08 4.21,4.21 0 0 1 1.4,-1.14 l 3.65,-2.18 a 12.41,12.41 0 0 0 3.42,-2.62 37.4,37.4 0 0 1 -8.21,2.75 18.35,18.35 0 0 1 -3,0.52 21.26,21.26 0 0 1 -4.14,-0.29 l -4.22,-0.57 a 6.47,6.47 0 0 0 -2.48,0 2.19,2.19 0 0 0 -1.68,1.64 2.23,2.23 0 0 0 0.18,1.14 c 0.59,1.44 2.07,2.34 2.81,3.72 a 9.55,9.55 0 0 1 0.78,2.8 29.72,29.72 0 0 0 1.42,5 6.49,6.49 0 0 0 1.38,2.39 c 0.4,-0.85 1.01,-1.31 1.22,-2.29 z"
       transform="translate(-57.02,-2.25)"
       id="path47"
       inkscape:connector-curvature="0"
       style="fill:#040402" />
    <path
       class="cls-15"
       d="m 188.89,159.2 a 72.9,72.9 0 0 1 -15,5.07 9.13,9.13 0 0 1 2.76,3.15 c 1.83,2.9 3.65,5.92 4.28,9.29 a 28.93,28.93 0 0 1 -0.09,8.36 4.29,4.29 0 0 1 -1,2.33 4.36,4.36 0 0 1 -2.27,1.4 c -1.2,-1.3 -1,-3.47 -2.18,-4.78 a 5.66,5.66 0 0 0 -1.67,-1.13 l -5.5,-2.81 a 16.69,16.69 0 0 0 -4.82,-1.87 13.64,13.64 0 0 0 -5.53,0.45 21.63,21.63 0 0 0 -6.46,2.55 11.52,11.52 0 0 0 -4.57,5.13 c -1.46,3.47 -0.74,7.63 -2.54,10.94 a 0.86,0.86 0 0 1 -0.29,0.36 0.92,0.92 0 0 1 -1,-0.14 4.58,4.58 0 0 1 -1.94,-2.68 c -0.41,-1.6 -1.37,-2.67 -2,-4.19 a 24.77,24.77 0 0 0 -1.74,-3.45 c -0.55,-0.85 -1.21,-1.63 -1.73,-2.49 a 9.83,9.83 0 0 1 -1.21,-6.89 18.46,18.46 0 0 1 0.86,-2.8 l 1.39,-3.87 a 21.34,21.34 0 0 1 1.42,-3.34 19.31,19.31 0 0 1 2.13,-2.88 c 1.56,-1.84 3.15,-3.92 5.43,-4.79 2.92,-1.12 5.78,-2.39 8.6,-3.73 5.6,-2.67 11,-5.64 16.63,-8.34 5.63,-2.7 11.15,-5.05 16.81,-7.48 a 40.91,40.91 0 0 1 6.36,-2.3 20.7,20.7 0 0 1 7.48,-0.43 1.18,1.18 0 0 1 0.59,0.19 1.08,1.08 0 0 1 0.35,0.73 c 0.4,2.39 -1,4.69 -1.47,7.07 -0.42,2.07 -0.15,4.28 -0.84,6.28 -1,3 -3.86,4.83 -6.52,6.48 -1.36,0.84 -3,1.72 -4.47,1.09"
       transform="translate(-57.02,-2.25)"
       id="path49"
       inkscape:connector-curvature="0"
       style="fill:#eae764" />
    <path
       class="cls-16"
       d="m 155.55,153.57 a 10.12,10.12 0 0 0 -2.11,3.5 c 0,0.09 -0.06,0.2 0,0.27 a 0.25,0.25 0 0 0 0.14,0.06 3.91,3.91 0 0 0 1.91,-0.2 c 1.08,-0.31 2.16,-0.62 3.26,-0.88 a 16.27,16.27 0 0 0 4.5,-1.47 0.74,0.74 0 0 0 0.41,-0.44 0.53,0.53 0 0 0 -0.23,-0.48 1.31,1.31 0 0 0 -0.52,-0.2 24.06,24.06 0 0 0 -4.73,-0.3 11.86,11.86 0 0 0 -1.79,0 3.27,3.27 0 0 0 -1.65,0.62"
       transform="translate(-57.02,-2.25)"
       id="path51"
       inkscape:connector-curvature="0"
       style="fill:#1c1c1a" />
    <path
       class="cls-12"
       d="m 78.65,158.12 a 40.38,40.38 0 0 1 9.52,-22.87 c 2.25,4.92 2.48,11 1.7,16.4 0,0 9.65,13.72 20.53,17.82 a 28.43,28.43 0 0 0 7.79,1.66 c 2.22,-1.42 4.37,-2.95 6.59,-4.38 a 93.46,93.46 0 0 1 20,-9.28 c 7.28,-2.52 14.86,-4.18 21.9,-7.34 6.46,-2.91 11.61,-7.93 18.2,-10.53 3.46,-1.36 7.09,-1.84 10.67,-2.73 a 37,37 0 0 0 3.83,-1.22 103.61,103.61 0 0 0 15.88,-16 36.21,36.21 0 0 0 -15.66,2.56 82.26,82.26 0 0 0 22.28,-42.81 57.28,57.28 0 0 1 -19.4,11.6 c 7,-15.42 10.61,-33 8.76,-49.83 A 52.39,52.39 0 0 1 198.19,54.8 C 197.43,40.35 209,28 207.93,13.52 A 247.14,247.14 0 0 0 163.57,29.8 41.89,41.89 0 0 1 174.62,18.25 109.57,109.57 0 0 0 125.3,38.12 c 3.06,-5.06 6.19,-10.32 9.26,-15.38 -17.88,8.59 -33.4,23.83 -43.5,40.9 C 90.45,56.78 92.34,50.01 95.45,43.87 80.38,57.32 73.32,79.62 76.18,99.62 a 102,102 0 0 1 -7.61,-21.3 c -4,29.11 14.88,48.22 14.88,48.22 a 46.41,46.41 0 0 0 -4.8,31.58 z"
       transform="translate(-57.02,-2.25)"
       id="path53"
       inkscape:connector-curvature="0"
       style="fill:#313131" />
    <path
       class="cls-12"
       d="m 96.1,126 c 0,0 5.42,10.49 6.28,15.74 -1.14,-2.5 -3.45,-4.32 -5.47,-6.18 l -4.09,-3.76 c -0.42,-0.39 -0.89,-0.91 -0.73,-1.46 a 1.65,1.65 0 0 1 0.46,-0.65 c 1.3,-1.25 2.25,-2.38 3.55,-3.69 z"
       transform="translate(-57.02,-2.25)"
       id="path55"
       inkscape:connector-curvature="0"
       style="fill:#313131" />
    <path
       class="cls-16"
       d="m 96.11,125.78 c -0.75,0.69 -1.44,1.55 -2.1,2.19 -0.66,0.64 -1.45,1.37 -2.19,2 a 3.62,3.62 0 0 0 0.49,0.54 l 2.61,2.4 a 28,28 0 0 1 3.24,-2.84 c -0.82,-1.78 -1.57,-3.33 -2.05,-4.29 z"
       transform="translate(-57.02,-2.25)"
       id="path57"
       inkscape:connector-curvature="0"
       style="fill:#1c1c1a" />
    <path
       class="cls-12"
       d="m 189.48,216 a 17.89,17.89 0 0 0 -10.93,-0.94 17.62,17.62 0 0 0 -9.1,6 66.76,66.76 0 0 1 6.43,15 38.59,38.59 0 0 1 5.43,-1.06 13.85,13.85 0 0 1 2.41,-0.11 8.09,8.09 0 0 1 5.37,2.64 9,9 0 0 1 2.27,5.56 2,2 0 0 1 -0.44,1.55 1.37,1.37 0 0 0 1.61,0.64 2.22,2.22 0 0 0 1.3,-1.28 6.44,6.44 0 0 0 0.4,-1.84 l 0.45,-3.73 a 59.13,59.13 0 0 0 -0.75,-11.28 49.92,49.92 0 0 0 -1.52,-4.92 56.21,56.21 0 0 0 -2.93,-6.23 z"
       transform="translate(-57.02,-2.25)"
       id="path59"
       inkscape:connector-curvature="0"
       style="fill:#313131" />
    <path
       d="m 134.12,180.67 a 13.36,13.36 0 0 1 1.89,-5.43 23.6,23.6 0 0 1 3.43,-4.64 29.39,29.39 0 0 1 9.46,-6.52 42.52,42.52 0 0 1 11,-3.16 c 0.95,-0.15 1.9,-0.26 2.86,-0.36 a 15.73,15.73 0 0 1 2.92,-0.1 6.64,6.64 0 0 1 2.92,0.87 4.36,4.36 0 0 1 2,2.4 l -0.57,-0.27 a 3.46,3.46 0 0 1 2.2,-0.1 5.48,5.48 0 0 1 1.87,1 9.42,9.42 0 0 1 1.46,1.43 c 0.46,0.49 0.86,1 1.27,1.55 a 23.38,23.38 0 0 1 3.54,7.12 22.35,22.35 0 0 1 0.93,7.87 12.6,12.6 0 0 1 -0.75,3.89 4,4 0 0 1 -2.83,2.56 4,4 0 0 0 2.69,-2.61 12.79,12.79 0 0 0 0.59,-3.85 23.42,23.42 0 0 0 -1.11,-7.71 22.75,22.75 0 0 0 -3.6,-6.86 c -0.41,-0.51 -0.81,-1 -1.26,-1.48 a 9.44,9.44 0 0 0 -1.39,-1.3 3.33,3.33 0 0 0 -3.28,-0.7 l -0.42,0.19 -0.15,-0.46 a 3.48,3.48 0 0 0 -1.63,-1.86 5.51,5.51 0 0 0 -2.51,-0.69 33.3,33.3 0 0 0 -5.57,0.49 43.41,43.41 0 0 0 -10.86,2.92 25.61,25.61 0 0 0 -12.57,10.78 c -0.96,1.59 -1.59,3.36 -2.53,5.03 z"
       transform="translate(-57.02,-2.25)"
       id="path61"
       inkscape:connector-curvature="0" />
    <path
       d="m 174.26,164.71 a 38.27,38.27 0 0 0 5.76,0.22 36.16,36.16 0 0 0 5.69,-0.63 35.7,35.7 0 0 0 10.72,-3.79 11.36,11.36 0 0 0 4.34,-3.36 7.89,7.89 0 0 0 0.79,-5.3 18.07,18.07 0 0 0 -5,-10.08 16.77,16.77 0 0 1 5.73,10 8.37,8.37 0 0 1 -0.78,5.9 12.35,12.35 0 0 1 -4.63,3.75 34.79,34.79 0 0 1 -11.07,3.67 35.48,35.48 0 0 1 -5.82,0.36 31.72,31.72 0 0 1 -5.73,-0.74 z"
       transform="translate(-57.02,-2.25)"
       id="path63"
       inkscape:connector-curvature="0" />
    <path
       d="m 139.18,171.19 a 12.28,12.28 0 0 1 1.64,-4.65 16.76,16.76 0 0 1 3.2,-3.82 26.18,26.18 0 0 1 8.67,-4.83 c 3.13,-1.1 6.28,-1.95 9.44,-2.83 l 4.74,-1.29 c 1.59,-0.39 3.17,-0.82 4.77,-1.18 -1.53,0.58 -3.09,1.1 -4.63,1.65 l -4.66,1.56 c -3.1,1 -6.27,1.93 -9.32,3 a 29,29 0 0 0 -8.51,4.47 16.82,16.82 0 0 0 -3.29,3.5 13.27,13.27 0 0 0 -2.05,4.42 z"
       transform="translate(-57.02,-2.25)"
       id="path65"
       inkscape:connector-curvature="0" />
    <path
       class="cls-16"
       d="m 83.48,111.08 a 37.7,37.7 0 0 0 -3,-7.85 c -1.54,-2.91 -3.55,-5.6 -4.6,-8.71 l 0.4,7.46 A 47,47 0 0 1 71,91.21 a 156.13,156.13 0 0 0 3.88,18.32 63.67,63.67 0 0 0 3,8 56.29,56.29 0 0 0 3.66,6.69 c 0.33,0.53 1.17,3.93 1.52,4 1,0.33 1.85,-4.48 1.92,-5.14 a 25.65,25.65 0 0 0 -0.37,-6.83 c -0.84,-5.06 -2.26,-10 -2.63,-15.15 -1,-13.83 0.94,-28.24 8,-40.15 a 158.79,158.79 0 0 0 -0.39,26.17 c 0.87,-7.4 5,-14 9.71,-19.8 a 79.32,79.32 0 0 0 -5.37,25.88 23,23 0 0 1 -0.39,4.31 27.09,27.09 0 0 1 -1.94,4.94 21,21 0 0 1 -2.94,5.42 c -1.37,1.56 -3.24,3.92 -5.18,3.21 z"
       transform="translate(-57.02,-2.25)"
       id="path67"
       inkscape:connector-curvature="0"
       style="fill:#1c1c1a" />
    <path
       class="cls-16"
       d="m 95,97.81 a 95.45,95.45 0 0 1 30,-32 105.69,105.69 0 0 1 21.56,-11.16 152.44,152.44 0 0 0 -16.29,16.84 c 5.15,-5.48 11.94,-9.26 16.83,-15 A 126,126 0 0 1 133.78,76.4 c -1,1.18 -2,2.34 -2.89,3.59 a 44.25,44.25 0 0 0 -2.78,4.5 q -1.68,3 -3.29,6 a 5.46,5.46 0 0 0 -3.38,-5.06 8.48,8.48 0 0 0 -6.32,0.08 20.28,20.28 0 0 0 -5.48,3.41 89.65,89.65 0 0 0 -10,9.66 4.65,4.65 0 0 1 -2.74,1.86 c -1.14,0.1 -2.43,-1.65 -1.9,-2.63 z"
       transform="translate(-57.02,-2.25)"
       id="path69"
       inkscape:connector-curvature="0"
       style="fill:#1c1c1a" />
    <path
       class="cls-16"
       d="m 125.9,98.36 a 79.05,79.05 0 0 1 4.87,-7.56 c 5.54,-7.62 12.42,-14.19 19.63,-20.27 a 179.82,179.82 0 0 1 15.89,-12 276.22,276.22 0 0 0 -23.39,22.76 43.75,43.75 0 0 0 -4.9,6.18 18.61,18.61 0 0 0 -1.38,2.66 c 3.33,-3.48 7,-7.14 10.37,-10.61 2.25,-2.34 4.5,-4.69 6.86,-6.91 4.82,-4.56 10.14,-8.7 13.95,-14.13 -2.2,6.29 -4.76,13 -8.19,18.72 -1,1.66 -2.09,3.26 -3.12,4.91 A 68.21,68.21 0 0 0 147.64,104 c 0.21,-1.23 0.84,-1.63 1.76,-2.48 a 107,107 0 0 1 16.15,-12.34 28.35,28.35 0 0 0 6.08,-4.48 c -2.8,5.17 -7.94,8.75 -11.12,13.7 a 48.25,48.25 0 0 0 9.55,-9.33 c -1,2.14 -1.28,4 -2.24,6.15 -1.33,3 -3.86,5.47 -4.55,8.68 1.52,-2.91 4,-4.86 6.3,-7.18 a 62.13,62.13 0 0 0 4.55,-5.29 c 3.76,-4.73 15.13,-21.42 15.79,-23.33 -0.08,2.73 -1,5.32 -1.48,8 a 264.53,264.53 0 0 0 20.14,-26.3 34.86,34.86 0 0 1 -0.33,11.84 c -0.55,2.58 -1.4,5.08 -2,7.63 -1.71,7.18 -1.53,14.75 -3.61,21.83 -9.41,4.74 -18.57,9.54 -28.13,14 -4.36,2 -8.74,4 -12.93,6.35 -2.58,1.44 -5.09,3 -7.8,4.21 a 50.45,50.45 0 0 1 -13.58,3.26 q -7.58,1 -15.23,1.37 c -3.34,0.17 -7.18,0 -9.34,-2.51 l 3.74,-4.06 a 33.72,33.72 0 0 0 5.31,-6.85 11.65,11.65 0 0 0 1.23,-8.51 z"
       transform="translate(-57.02,-2.25)"
       id="path71"
       inkscape:connector-curvature="0"
       style="fill:#1c1c1a" />
    <path
       class="cls-16"
       d="m 155.8,120.24 a 270.69,270.69 0 0 1 37.9,-12.9 c -5.42,3.71 -10.82,7.48 -14.69,12.79 A 111.73,111.73 0 0 0 203,104 c -3,5.59 -7.29,10.11 -11.85,14.49 l -8,7.7 a 56.54,56.54 0 0 1 -5.18,4.6 64.46,64.46 0 0 1 -6.71,4.2 q -3.82,2.21 -7.57,4.56 a 21.26,21.26 0 0 0 -3.28,2.38 c -2,1.83 -3.39,4.44 -5.91,5.38 a 2,2 0 0 1 -2.16,-0.23 2.48,2.48 0 0 1 -0.5,-1.09 c -0.83,-3.06 -1.66,-6.2 -1.41,-9.36 a 27.8,27.8 0 0 1 2.37,-8.18 c 0.89,-2.19 1.93,-4.56 4,-5.64"
       transform="translate(-57.02,-2.25)"
       id="path73"
       inkscape:connector-curvature="0"
       style="fill:#1c1c1a" />
    <path
       class="cls-16"
       d="m 186.35,143.55 a 16.11,16.11 0 0 1 7,-3.62 147.35,147.35 0 0 0 14,-17.84 78.3,78.3 0 0 1 -12.19,5.72 8,8 0 0 1 -3.5,0.82 2.11,2.11 0 0 0 -0.83,0 1.64,1.64 0 0 0 -0.55,0.43 57.54,57.54 0 0 1 -6,5 c -2.82,2.17 -5.72,5.11 -8.93,6.67 -2.94,1.42 -4.44,3.49 -5.7,6.52 -0.86,2.06 -2.57,4.42 -3.16,6.58 1.26,-0.25 4.65,-1.15 4.65,-1.15 0,0 6.09,-4.16 9.51,-5.22 a 9.14,9.14 0 0 0 2,-0.75 10.89,10.89 0 0 0 2.08,-1.94 10,10 0 0 1 1.62,-1.22 z"
       transform="translate(-57.02,-2.25)"
       id="path75"
       inkscape:connector-curvature="0"
       style="fill:#1c1c1a" />
    <path
       class="cls-11"
       d="m 165.81,154.1 c 0.39,0.13 9,-3.45 11.83,-15.77 2.83,-12.32 -3,-13.22 -11.83,-6.91 -8.83,6.31 -10.93,12.69 -10.93,12.69 l 0.53,-10.21 2.09,-1.69 c 0,0 0.11,-18.14 -9.87,-27.71 a 56.63,56.63 0 0 0 -26.86,7.62 c 0,0 4.64,-3.93 4.76,-9.53 0,0 -10.71,6.91 -17.14,12.51 -6.43,5.6 -19.39,16.26 -23.48,24.52 a 31.55,31.55 0 0 1 3.2,-4.3 41.46,41.46 0 0 1 2.39,7.89 12.51,12.51 0 0 1 -0.81,7.58 c 1.66,2.18 3.15,4.06 4.81,6.24 2.91,3.82 5.93,7.74 10.06,10.19 5.53,3.29 12.3,3.52 18.73,3.57 a 29.59,29.59 0 0 0 6.24,-0.39 28.33,28.33 0 0 0 6.13,-2.23 q 3.15,-1.47 6.24,-3.07 c 0.89,-0.47 1.47,-1.5 2.29,-2.07 a 33.79,33.79 0 0 1 10.81,-4.92 8.06,8.06 0 0 1 0.65,-3.06 c 1.65,0 3.7,0.19 5.35,0.18 a 9.73,9.73 0 0 0 4.81,-1.13 z"
       transform="translate(-57.02,-2.25)"
       id="path77"
       inkscape:connector-curvature="0"
       style="fill:#ffd2a1" />
    <path
       d="m 81.88,131.59 c 0.5,-3.6 2.18,-6.74 3.6,-10 1.42,-3.26 3.06,-6.37 4.79,-9.46 1.73,-3.09 3.57,-6.12 5.55,-9 a 71.58,71.58 0 0 1 6.57,-8.37 56.27,56.27 0 0 1 8,-7 26.89,26.89 0 0 1 4.61,-2.76 12.14,12.14 0 0 1 2.64,-0.84 6,6 0 0 1 2.88,0.13 5.45,5.45 0 0 1 2.43,1.6 10.36,10.36 0 0 1 1.53,2.34 23.38,23.38 0 0 1 1.75,5.11 21.09,21.09 0 0 1 0.51,5.37 12.41,12.41 0 0 1 -1.34,5.19 28.53,28.53 0 0 0 -0.25,-10.31 21.82,21.82 0 0 0 -1.73,-4.84 6,6 0 0 0 -3.25,-3.37 7,7 0 0 0 -4.73,0.65 26,26 0 0 0 -4.44,2.56 c -1.41,1 -2.78,2.1 -4.11,3.24 a 41.46,41.46 0 0 0 -3.78,3.6 c -4.7,5.16 -8.37,11.21 -11.71,17.36 -0.84,1.54 -1.64,3.1 -2.42,4.67 -0.78,1.57 -1.58,3.13 -2.33,4.72 -1.54,3.15 -2.65,6.46 -4.77,9.41 z"
       transform="translate(-57.02,-2.25)"
       id="path79"
       inkscape:connector-curvature="0" />
    <path
       class="cls-17"
       d="m 140.78,136.06 c 0,0 1.31,0.7 1.19,5.71 a 39.75,39.75 0 0 1 -1.19,8.82 c -9.29,5.73 -24.18,-1.12 -24.18,-1.12 l -0.71,-3.17 a 19.82,19.82 0 0 1 8.26,-6 q 6,-2.57 12.25,-4.58 a 7.42,7.42 0 0 1 2,-0.44 4.37,4.37 0 0 1 2.38,0.78 z"
       transform="translate(-57.02,-2.25)"
       id="path81"
       inkscape:connector-curvature="0"
       style="fill:#f6f8f6" />
    <path
       class="cls-12"
       d="m 110.77,146.3 1.66,1 c 0,0 22.75,-9.75 33.35,-13.32 l 2.74,-6.91 c 0,0 -16.44,7.53 -23.82,11.21 a 155.48,155.48 0 0 0 -13.93,8.02 z"
       transform="translate(-57.02,-2.25)"
       id="path83"
       inkscape:connector-curvature="0"
       style="fill:#313131" />
    <path
       class="cls-17"
       d="m 113.18,162.93 c 3.61,0.1 9.25,-0.35 12.52,-3.65 0,0 2.33,1.61 -0.52,3.66 -2.85,2.05 -6.67,2.43 -11.08,0.81"
       transform="translate(-57.02,-2.25)"
       id="path85"
       inkscape:connector-curvature="0"
       style="fill:#f6f8f6" />
    <path
       class="cls-17"
       d="m 90,132.41 a 29.37,29.37 0 0 0 3.5,10.09 c 0,0 5.11,4.18 10.29,4.59 a 55.23,55.23 0 0 0 -1.6,-5.85 C 101.48,139.39 93,129.6 93,129.6"
       transform="translate(-57.02,-2.25)"
       id="path87"
       inkscape:connector-curvature="0"
       style="fill:#f6f8f6" />
    <ellipse
       class="cls-12"
       cx="77.949997"
       cy="144.57001"
       rx="3.8499999"
       ry="4.5300002"
       id="ellipse89"
       style="fill:#313131" />
    <path
       class="cls-12"
       d="m 103.16,144.47 c -1.1,2.3 -5.44,-1.9 -5.23,-5 0.21,-3.1 2.12,-1.32 2.12,-1.32 a 7.21,7.21 0 0 0 1.49,2.34 c 0.84,1.14 2.25,2.67 1.62,3.98 z"
       transform="translate(-57.02,-2.25)"
       id="path91"
       inkscape:connector-curvature="0"
       style="fill:#313131" />
    <path
       class="cls-18"
       d="M 99.24,99.15 94,92.64 c -12.63,11.47 -12.09,22.67 -12.09,22.67 l 3,7.63 a 51.53,51.53 0 0 1 2.68,-5.55 c 1.21,-2.11 2.55,-4.14 3.9,-6.16 2.65,-3.92 5.12,-8.14 7.75,-12.08 z"
       transform="translate(-57.02,-2.25)"
       id="path93"
       inkscape:connector-curvature="0"
       style="fill:#f1d6ab" />
    <path
       d="M 93.51,88.7 C 95.89,81 98.33,73.25 102.13,66.07 A 55.18,55.18 0 0 1 108.9,56 a 39.57,39.57 0 0 1 9.23,-8 l 1.87,-1.12 -1.2,1.77 a 66.82,66.82 0 0 0 -9.6,23.08 l -0.79,-0.43 c 3,-2.92 6.08,-5.71 9.32,-8.32 a 119.4,119.4 0 0 1 10.13,-7.31 115.79,115.79 0 0 1 10.81,-6.21 121.71,121.71 0 0 1 11.33,-5.05 c -3.81,1.65 -7.56,3.43 -11.2,5.41 -3.64,1.98 -7.21,4.1 -10.64,6.41 A 129.67,129.67 0 0 0 109,72 l -1.12,1.12 0.34,-1.55 A 73.41,73.41 0 0 1 112,59.35 59.5,59.5 0 0 1 118,48.13 l 0.62,0.65 a 38.79,38.79 0 0 0 -9.07,7.74 56.13,56.13 0 0 0 -6.84,9.86 c -3.88,7.05 -6.53,14.71 -9.2,22.32 z"
       transform="translate(-57.02,-2.25)"
       id="path95"
       inkscape:connector-curvature="0" />
    <path
       d="m 125.7,88.7 a 57.11,57.11 0 0 1 10.85,-15.22 110.21,110.21 0 0 1 14.53,-11.87 c 10.26,-7.23 21.65,-12.67 33.21,-17.41 l 1.2,-0.49 -0.62,1.13 c -3.6,6.6 -7.32,13.13 -11.24,19.54 -3.92,6.41 -8.09,12.68 -12.48,18.79 l -0.54,-0.7 a 121.9,121.9 0 0 0 15.48,-7.7 164.69,164.69 0 0 0 14.44,-9.56 l 1.17,-0.87 -0.65,1.3 a 133.3,133.3 0 0 1 -11.47,19.1 124.85,124.85 0 0 1 -14.58,16.8 124.74,124.74 0 0 0 14.24,-17.05 137.9,137.9 0 0 0 11.19,-19.16 l 0.53,0.44 A 151.26,151.26 0 0 1 176.53,75.51 122.28,122.28 0 0 1 161,83.32 l -1.49,0.62 0.94,-1.31 A 387.6,387.6 0 0 0 184.06,44.4 l 0.58,0.65 C 173.1,49.76 161.75,55.1 151.46,62.15 A 117.81,117.81 0 0 0 136.83,73.76 56.88,56.88 0 0 0 125.7,88.7 Z"
       transform="translate(-57.02,-2.25)"
       id="path97"
       inkscape:connector-curvature="0" />
    <path
       class="cls-16"
       d="m 132.72,147.52 a 3.34,3.34 0 0 1 3.63,-1.06 c 1.18,0.55 1.46,1.91 1.36,3.32 a 4.94,4.94 0 0 0 1,-3 c 0,-2.5 -1.73,-4.53 -3.85,-4.53 -2.12,0 -3.85,2 -3.85,4.53 a 5.06,5.06 0 0 0 0.9,2.89 3.87,3.87 0 0 1 0.81,-2.15 z"
       transform="translate(-57.02,-2.25)"
       id="path99"
       inkscape:connector-curvature="0"
       style="fill:#1c1c1a" />
    <path
       class="cls-16"
       d="m 100.76,141.54 a 4.38,4.38 0 0 1 2.06,3.19 1.09,1.09 0 0 0 0.19,-0.27 c 0.62,-1.3 -0.79,-2.83 -1.62,-4 a 7.18,7.18 0 0 1 -1.5,-2.35 c 0,0 -1.91,-1.8 -2.12,1.33 a 4.61,4.61 0 0 0 0.37,2 3.23,3.23 0 0 1 2.62,0.1 z"
       transform="translate(-57.02,-2.25)"
       id="path101"
       inkscape:connector-curvature="0"
       style="fill:#1c1c1a" />
    <path
       class="cls-10"
       d="m 164.35,141.05 a 4.17,4.17 0 0 1 2.9,-1.2 2.87,2.87 0 0 1 2.32,2.33 5.55,5.55 0 0 1 -0.54,3.41 10.88,10.88 0 0 1 -9.53,6.22 1.8,1.8 0 0 1 -1.49,-0.49 1.84,1.84 0 0 1 -0.14,-1.58 10.19,10.19 0 0 1 2.23,-4.48 34.49,34.49 0 0 1 4.25,-4.21 z"
       transform="translate(-57.02,-2.25)"
       id="path103"
       inkscape:connector-curvature="0"
       style="fill:#bf6d4e" />
    <path
       class="cls-19"
       d="m 124.07,153.85 c -1.14,-0.1 -2.29,-0.19 -3.44,-0.27 0.19,0.63 0.93,0.89 1.57,1 a 35.19,35.19 0 0 0 3.81,0.51 43.43,43.43 0 0 0 11.33,0.11 3.78,3.78 0 0 0 -2.29,-0.69 l -11.56,-0.87"
       transform="translate(-57.02,-2.25)"
       id="path105"
       inkscape:connector-curvature="0"
       style="fill:#bb6053" />
    <path
       class="cls-19"
       d="m 98.12,154.33 a 1.2,1.2 0 0 1 0.31,-1.07 1.75,1.75 0 0 1 1,-0.51 3.77,3.77 0 0 1 1.16,0 1,1 0 0 1 0.42,0.15 0.37,0.37 0 0 1 0.18,0.39 0.64,0.64 0 0 1 -0.21,0.26 c -0.56,0.53 -2.43,2.58 -2.86,0.78 z"
       transform="translate(-57.02,-2.25)"
       id="path107"
       inkscape:connector-curvature="0"
       style="fill:#bb6053" />
    <path
       class="cls-19"
       d="m 94.06,147.9 a 13.15,13.15 0 0 0 2.88,1.1 l 3.22,0.95 c -0.12,-1 -1.06,-1.62 -1.94,-2.06 a 22,22 0 0 0 -4.56,-1.7 c -0.49,-0.12 -1.79,-0.59 -1.2,0.33 a 4.57,4.57 0 0 0 1.6,1.38 z"
       transform="translate(-57.02,-2.25)"
       id="path109"
       inkscape:connector-curvature="0"
       style="fill:#bb6053" />
    <path
       class="cls-20"
       d="m 204,139.85 a 2.38,2.38 0 0 0 -0.33,-1 2.9,2.9 0 0 0 -0.53,-0.52 3.09,3.09 0 0 0 -2.1,-0.93 2.78,2.78 0 0 0 -1.38,0.71 10.34,10.34 0 0 0 -1.66,1.89 3.25,3.25 0 0 1 -0.23,0.29 17.31,17.31 0 0 1 1.14,3.09 c 0.41,1.15 0.76,2.3 1.09,3.48 a 10.83,10.83 0 0 1 0.75,1 8.52,8.52 0 0 1 0.47,1 c 0.19,0.43 0.38,0.86 0.58,1.29 a 4.78,4.78 0 0 0 0.79,-2.79 11.28,11.28 0 0 1 0.54,-2.42 15.24,15.24 0 0 0 1,-3.26 7.26,7.26 0 0 0 -0.13,-1.83 z"
       transform="translate(-57.02,-2.25)"
       id="path111"
       inkscape:connector-curvature="0"
       style="fill:#cec937" />
    <path
       class="cls-20"
       d="m 185.45,164.33 a 42.83,42.83 0 0 0 5.81,-1.32 c 1.54,-0.49 3,-1.12 4.52,-1.74 a 13.65,13.65 0 0 0 3.12,-1.64 3.83,3.83 0 0 0 1.07,-1.16 4,4 0 0 0 0.42,-1.34 7.78,7.78 0 0 0 0,-2.36 2.56,2.56 0 0 0 -1.39,-2.13 2.88,2.88 0 0 0 -1.54,0.05 56.29,56.29 0 0 0 -8.66,2.86 34.43,34.43 0 0 0 -3.95,1.83 c -1.13,0.63 -2.19,1.38 -3.29,2.07 a 46.25,46.25 0 0 1 -4.27,2.31 c -0.73,0.35 -1.46,0.68 -2.21,1 l -1.13,0.48 a 3.37,3.37 0 0 0 -1,0.42 c -0.31,0.31 0.13,0.45 0.43,0.56 a 10.34,10.34 0 0 0 1.69,0.61 21.37,21.37 0 0 0 4.93,0.17 44,44 0 0 0 5.45,-0.67 z"
       transform="translate(-57.02,-2.25)"
       id="path113"
       inkscape:connector-curvature="0"
       style="fill:#cec937" />
    <path
       class="cls-21"
       d="m 174.83,172.32 -2,4.63 a 13.63,13.63 0 0 0 -2.76,-2.16 c -2.37,-1.24 -5.25,-0.95 -7.84,-0.28 a 29.55,29.55 0 0 0 -10.85,5.42 10.1,10.1 0 0 0 -2.1,2.08 c -0.4,0.56 -0.7,1.18 -1,1.77 a 37.72,37.72 0 0 1 -2.34,3.29 12.86,12.86 0 0 0 -1.57,2.55 15.19,15.19 0 0 0 -0.92,5.32 3.28,3.28 0 0 0 0.09,1.21 c 0.3,0.92 1.32,1.37 2.23,1.7 1.43,0.53 2.87,1 4.3,1.53 L 149,197.55 a 8,8 0 0 1 -1.28,-3.2 9,9 0 0 1 0.7,-3.48 24.36,24.36 0 0 0 0.84,-3.47 5.46,5.46 0 0 1 0.79,-2.52 c 0.46,-0.58 0.71,-1.11 1.21,-1.65 a 1.26,1.26 0 0 1 0.4,-0.33 1.31,1.31 0 0 1 0.68,-0.07 117,117 0 0 0 20.67,-0.6 c 0.25,0.53 0.81,0.8 1.17,1.27 0.21,0.28 0.32,0.62 0.52,0.91 a 10.77,10.77 0 0 0 0.9,1 6.45,6.45 0 0 1 0.66,1 l 1.34,2.44 a 4.17,4.17 0 0 0 1.47,-2.51 12.92,12.92 0 0 0 -0.37,-6.58 38.2,38.2 0 0 0 -2.59,-6.12 c -0.36,-0.57 -0.6,-1.24 -1.28,-1.32 z"
       transform="translate(-57.02,-2.25)"
       id="path115"
       inkscape:connector-curvature="0"
       style="fill:#cdc73a" />
    <path
       class="cls-19"
       d="m 98.16,130.11 20,-17.51 c 0,0 -0.47,-2.47 -0.51,-2.57 -0.04,-0.1 -0.76,-1.53 -0.76,-1.53 0,0 -14.25,10.91 -16.34,13.43 A 24.07,24.07 0 0 1 96.1,126 Z"
       transform="translate(-57.02,-2.25)"
       id="path117"
       inkscape:connector-curvature="0"
       style="fill:#bb6053" />
    <path
       class="cls-16"
       d="m 78.67,154.1 c 0,0 -2.22,-9.36 -0.62,-15.76 C 79.65,131.94 88,118 88,118 l 11.69,-17.34 -10.26,24.19 c 0,0 -5.17,7.65 -6.32,13.49 0,0 2.66,-7.2 5.45,-10 l -0.43,6.28 c 0,0 -5.19,7.59 -6.55,11.41 -1.36,3.82 -2.91,8.07 -2.91,8.07 z"
       transform="translate(-57.02,-2.25)"
       id="path119"
       inkscape:connector-curvature="0"
       style="fill:#1c1c1a" />
    <path
       class="cls-19"
       d="m 90,132.52 a 3.1,3.1 0 0 0 0.27,1.68 q 0.3,0.9 0.51,1.83 a 0.92,0.92 0 0 1 0,0.29 0.82,0.82 0 0 1 -0.12,0.25 l -0.91,1.51 a 15.66,15.66 0 0 0 -1.55,-3 c -0.2,-0.32 -0.19,-0.34 0,-0.64 0.19,-0.3 0.37,-0.46 0.57,-0.69 0.2,-0.23 0.37,-0.42 0.57,-0.62 0.2,-0.2 0.66,-0.45 0.66,-0.61 z"
       transform="translate(-57.02,-2.25)"
       id="path121"
       inkscape:connector-curvature="0"
       style="fill:#bb6053" />
    <path
       class="cls-16"
       d="m 117.08,108.49 a 36.15,36.15 0 0 1 1.34,5.13 c 0.86,-1.16 1.77,-2.22 2.63,-3.38 0.29,-0.39 0.58,-0.79 0.83,-1.2 a 13.56,13.56 0 0 0 0.91,-1.83 6,6 0 0 0 0.66,-2.77 32.44,32.44 0 0 0 -6.37,4.05 z"
       transform="translate(-57.02,-2.25)"
       id="path123"
       inkscape:connector-curvature="0"
       style="fill:#1c1c1a" />
    <path
       class="cls-16"
       d="m 109.14,70.89 a 108,108 0 0 1 16.24,-29.36 c 2.79,-3.6 7.38,-5.18 11.54,-7 3.34,-1.49 6.8,-2.68 10.26,-3.87 L 154.9,28 a 118.3,118.3 0 0 1 12.33,-3.75 c -1.27,2 -2.61,4.15 -3.72,6.22 a 63.1,63.1 0 0 1 25.06,-4.27 c -7.7,6.37 -15.44,12.76 -22.12,20.19 -3.3,3.66 -6.33,7.57 -10,10.91 -1.75,1.61 -3.62,3.07 -5.49,4.53 l -9.38,7.33 c 1.26,-2.92 3.33,-5.41 5,-8.1 a 70.55,70.55 0 0 0 5.71,-12.23 c 0.93,-2.36 1.87,-4.82 1.71,-7.35 -2.33,2.65 -5.52,4 -8.66,5.64 -10.77,5.48 -21.86,10.88 -31.1,18.75 -1.81,1.55 -3.86,2.99 -5.1,5.02 z"
       transform="translate(-57.02,-2.25)"
       id="path125"
       inkscape:connector-curvature="0"
       style="fill:#1c1c1a" />
    <path
       class="cls-12"
       d="m 121.71,110.43 0.57,-0.7 c 0.22,-0.27 0.45,-0.54 0.67,-0.82 a 12.35,12.35 0 0 0 2,-3.25 7.35,7.35 0 0 0 0.48,-2.79 0.18,0.18 0 0 0 -0.06,-0.16 c -0.06,0 -0.12,0 -0.17,0 a 20,20 0 0 0 -2.18,1.71 9.36,9.36 0 0 0 -1,1 15.36,15.36 0 0 0 -1.83,3.33 12.47,12.47 0 0 1 -0.82,1.42 5.14,5.14 0 0 0 -0.73,1.2 2.66,2.66 0 0 0 -0.06,0.89 5.89,5.89 0 0 1 -0.08,1.26 c 0.63,-0.1 1.32,-0.92 1.74,-1.36 0.42,-0.44 0.99,-1.16 1.47,-1.73 z"
       transform="translate(-57.02,-2.25)"
       id="path127"
       inkscape:connector-curvature="0"
       style="fill:#313131" />
    <path
       class="cls-22"
       d="m 171.4,163.44 a 17.72,17.72 0 0 0 0.13,-6.65 18.37,18.37 0 0 1 1,2.87 c 0.12,0.46 0.22,0.91 0.35,1.36 a 10.4,10.4 0 0 0 0.78,1.93 c 3.81,-2.36 7.66,-4.56 11.67,-6.56 a 8.79,8.79 0 0 0 1.77,-1 c 1.38,-1.14 1.94,-3 2.43,-4.71 a 10.49,10.49 0 0 1 -0.26,4.56 37.81,37.81 0 0 1 6.1,-3.06 9.69,9.69 0 0 0 1.93,-0.9 4.91,4.91 0 0 0 2,-3.64 6.73,6.73 0 0 0 -1.09,-4.1 3,3 0 0 0 -1,-1.1 3.78,3.78 0 0 0 -2.86,0.05 l -10.45,3 A 33.69,33.69 0 0 1 202.15,137 c -1.44,1 -3,2.14 -3.57,3.8 a 39.61,39.61 0 0 1 3.15,9.29 10.66,10.66 0 0 1 0.48,4.22 c -0.34,2.18 -2,3.93 -3.69,5.34 a 10.6,10.6 0 0 0 0.71,-3.73 2.34,2.34 0 0 0 -0.65,-1.9 2.47,2.47 0 0 0 -2.18,-0.12 22.92,22.92 0 0 0 -6.93,3.26 2.39,2.39 0 0 0 -1.13,1.34 c -0.13,0.58 0.39,1.31 1,1.13 a 3.9,3.9 0 0 0 -1.43,4.58 A 14.74,14.74 0 0 1 184,165 c 0.64,-2.45 3.31,-4.27 3.11,-6.79 a 40.63,40.63 0 0 0 -6.59,3 12.62,12.62 0 0 1 -2.63,1.24 c -1.37,0.39 -2.89,0.26 -4.14,1 a 6,6 0 0 1 -1.06,0.57 1.5,1.5 0 0 1 -1.29,-0.58 z"
       transform="translate(-57.02,-2.25)"
       id="path129"
       inkscape:connector-curvature="0"
       style="fill:#a39d24" />
    <path
       class="cls-23"
       d="m 170,163.87 a 3.51,3.51 0 0 1 2.94,2 c 0.58,1.24 0.4,2.78 1.11,3.95 a 3.71,3.71 0 0 1 3,2.44 26.11,26.11 0 0 1 1.12,4 c 0.46,1.66 1.25,3.22 1.59,4.91 a 9.72,9.72 0 0 1 -1.59,7.47 12.62,12.62 0 0 0 0.15,-7.13 37.5,37.5 0 0 0 -2.54,-6.76 c -0.16,-0.34 -0.38,-0.73 -0.75,-0.74 a 10.37,10.37 0 0 0 -0.79,6.45 13.53,13.53 0 0 0 -3,-4.3 6,6 0 0 0 -1.58,-1.16 6.33,6.33 0 0 0 -2.69,-0.52 c -5.2,-0.1 -10.09,2.39 -14.46,5.23 a 16.73,16.73 0 0 0 -3.36,2.67 3,3 0 0 0 1.66,0.82 0.35,0.35 0 0 1 -0.19,0.43 c -2.2,0.84 -3.13,3.32 -4.74,5.05 a 9.82,9.82 0 0 0 -1.69,2.21 5,5 0 0 0 0.53,5.26 c 1.39,1.77 3.45,2.27 5.52,3.14 -1.51,0.62 -3.7,0.16 -5.5,-0.57 -1.29,-0.53 -2.66,-1.4 -2.89,-2.77 -0.23,-1.37 0.73,-2.56 1.31,-3.79 a 29.87,29.87 0 0 0 1.12,-3.51 13.74,13.74 0 0 1 4.36,-6.39 1.76,1.76 0 0 0 0.72,-0.88 1.89,1.89 0 0 0 -0.24,-1.1 7,7 0 0 1 0.67,-6.43 8.65,8.65 0 0 0 0.1,5.64 31.57,31.57 0 0 1 11.44,-6.58 12.54,12.54 0 0 0 0.11,-3.46 7,7 0 0 1 1.09,2.89 7.05,7.05 0 0 1 3.3,-0.23 14.77,14.77 0 0 1 3.91,0.73 5,5 0 0 1 2.9,2.58 24.72,24.72 0 0 0 -2.64,-11.55 z"
       transform="translate(-57.02,-2.25)"
       id="path131"
       inkscape:connector-curvature="0"
       style="fill:#a5a321" />
    <path
       class="cls-10"
       d="m 151.3,185.22 a 3.54,3.54 0 0 0 1,2.86 5.88,5.88 0 0 0 2.71,1.15 l 6.26,1.49 a 7.07,7.07 0 0 0 -2,-0.48 14.45,14.45 0 0 0 -6.38,0.08 9,9 0 0 0 -5.14,4.87 7,7 0 0 1 -0.47,-2.89 c 0,-0.39 0.17,-0.77 0.26,-1.16 0.28,-1.24 0.24,-2.53 0.43,-3.78 a 4.22,4.22 0 0 1 0.35,-1.26 5.49,5.49 0 0 1 0.77,-1 14.77,14.77 0 0 1 1.21,-1.29 c 0.23,-0.22 1,-1.06 1.37,-1 0.52,0.02 -0.33,1.99 -0.37,2.41 z"
       transform="translate(-57.02,-2.25)"
       id="path133"
       inkscape:connector-curvature="0"
       style="fill:#bf6d4e" />
    <path
       class="cls-24"
       d="m 135.89,176.15 a 9.38,9.38 0 0 1 0.82,-1.49 c 0.17,-0.22 0.35,-0.42 0.51,-0.64 a 9.37,9.37 0 0 0 0.59,-1 2,2 0 0 0 0.18,-0.39 1.2,1.2 0 0 0 -0.07,-0.62 7.09,7.09 0 0 0 -1.35,-2.23 2,2 0 0 0 -0.92,-0.77 1.52,1.52 0 0 0 -1.3,0.41 6.41,6.41 0 0 0 -1.81,3.19 5.27,5.27 0 0 0 -0.26,1.24 4.66,4.66 0 0 0 0.37,1.79 8.56,8.56 0 0 0 0.82,1.73 c 0.22,0.34 0.46,0.67 0.67,1 0.21,0.33 0.38,0.52 0.6,0.13 0.44,-0.69 0.77,-1.5 1.15,-2.35 z"
       transform="translate(-57.02,-2.25)"
       id="path135"
       inkscape:connector-curvature="0"
       style="fill:#a59d2f" />
    <path
       class="cls-10"
       d="m 136.48,169.82 a 6.15,6.15 0 0 1 0.74,1 10.53,10.53 0 0 1 0.41,1.06 1.54,1.54 0 0 0 0.7,0.86 8.17,8.17 0 0 0 1.1,-3 6.18,6.18 0 0 1 0.36,-1.18 6.6,6.6 0 0 1 0.46,-0.82 l 1.42,-2.32 c -0.09,0.16 -0.57,0.3 -0.73,0.39 l -0.76,0.39 -1.56,0.77 -1.6,0.76 c -0.29,0.13 -1.24,0.38 -1.34,0.71 -0.1,0.33 0.58,1.1 0.8,1.38 z"
       transform="translate(-57.02,-2.25)"
       id="path137"
       inkscape:connector-curvature="0"
       style="fill:#bf6d4e" />
    <path
       class="cls-25"
       d="m 205.83,158.59 a 9.52,9.52 0 0 1 -3,5.73 l 2.11,3.43 a 2,2 0 0 0 0.51,0.64 2.09,2.09 0 0 0 1,0.3 c 0.82,0.1 1.64,0.18 2.46,0.25 a 3.9,3.9 0 0 0 1.77,-0.16 c 0.32,-0.13 0.85,0 1.12,-0.22 0.67,-0.53 1.17,-0.76 1.84,-1.29 0.39,-0.31 0.7,-1.25 1,-1.64 a 4.67,4.67 0 0 0 0.8,-1.59 9.53,9.53 0 0 0 0.28,-4.74 18.87,18.87 0 0 0 -0.58,-2.08 c -0.16,-0.48 -0.16,-1.49 -0.32,-2 -0.1,-0.31 -0.35,-0.11 -0.53,-0.39 a 2.34,2.34 0 0 0 -1.14,-0.87 11.42,11.42 0 0 0 -3,-0.33 16.6,16.6 0 0 1 -3,-0.76 c -0.5,-0.15 -2.15,-0.86 -2.29,-0.11 -0.06,0.36 0.33,0.9 0.45,1.21 a 9.35,9.35 0 0 1 0.42,1.46 9.45,9.45 0 0 1 0.1,3.16 z"
       transform="translate(-57.02,-2.25)"
       id="path139"
       inkscape:connector-curvature="0"
       style="fill:#0b0a08" />
    <path
       class="cls-16"
       d="m 193.69,190.87 a 15.2,15.2 0 0 0 2,-2.89 c 0.36,-0.73 0.6,-1.51 0.93,-2.24 0.54,-1.16 1.31,-2.19 1.94,-3.3 a 25.76,25.76 0 0 0 2,-5.12 4.66,4.66 0 0 1 0.48,-1.15 2.61,2.61 0 0 1 0.81,-0.81 3.48,3.48 0 0 1 2.79,-0.44 19.87,19.87 0 0 1 0.64,6.44 9.57,9.57 0 0 1 -0.14,1.78 6.77,6.77 0 0 1 -1,2.16 11.72,11.72 0 0 1 -1.87,2.28 c -2,1.83 -4.56,2.77 -7.09,3.67 a 10.18,10.18 0 0 1 -1.79,0.52 c -0.36,0 -0.85,0.12 -1,0.49 a 7.41,7.41 0 0 0 1.3,-1.39 z"
       transform="translate(-57.02,-2.25)"
       id="path141"
       inkscape:connector-curvature="0"
       style="fill:#1c1c1a" />
    <path
       class="cls-26"
       d="m 197.91,183.2 a 26.88,26.88 0 0 0 2.82,-7.95 1.74,1.74 0 0 1 0.24,-0.81 1.54,1.54 0 0 1 0.53,-0.41 2.8,2.8 0 0 1 2.11,-0.54 2.84,2.84 0 0 1 1.46,1.49 13.47,13.47 0 0 1 0.76,1.52 7.63,7.63 0 0 1 -1.94,8.31 4.23,4.23 0 0 1 0.28,-2.15 9.52,9.52 0 0 0 -0.38,-6 c -0.1,-0.24 -0.24,-0.51 -0.5,-0.56 a 0.8,0.8 0 0 0 -0.59,0.24 10.21,10.21 0 0 0 -2.5,3.56 c -1.82,3.75 -3.28,7.86 -6.33,10.71 a 3.69,3.69 0 0 0 -0.92,1 c 1.12,-0.86 1.89,-2.56 2.58,-3.77 0.86,-1.5 1.62,-3.07 2.38,-4.64 z"
       transform="translate(-57.02,-2.25)"
       id="path143"
       inkscape:connector-curvature="0"
       style="fill:#0c0c0e" />
    <path
       class="cls-10"
       d="m 169.06,192.21 a 11.91,11.91 0 0 1 2,0.81 26.73,26.73 0 0 0 4.91,1.72 0.71,0.71 0 0 0 0.38,0 0.79,0.79 0 0 0 0.25,-0.19 7.58,7.58 0 0 0 1.32,-1.72 3.59,3.59 0 0 0 0.44,-2.1 c 0.6,1.56 1.21,3.1 1.84,4.65 a 8.25,8.25 0 0 0 -2.18,2.52 13.3,13.3 0 0 1 -1.27,-0.6 l -5.45,-2.81 a 18.82,18.82 0 0 0 -4,-1.7 c -0.61,-0.15 -0.41,-0.49 0,-0.63 a 3.34,3.34 0 0 1 1.76,0.05 z"
       transform="translate(-57.02,-2.25)"
       id="path145"
       inkscape:connector-curvature="0"
       style="fill:#bf6d4e" />
    <path
       class="cls-10"
       d="m 167.6,212.32 a 8.2,8.2 0 0 1 1.14,-3.56 25.21,25.21 0 0 1 2.19,-3.07 15.81,15.81 0 0 0 -1,6.45 10.74,10.74 0 0 0 2.29,6.23 6.26,6.26 0 0 0 -2,1.66 c -0.1,0.12 -0.24,0.25 -0.37,0.19 -0.13,-0.06 -0.19,0.12 -0.22,0.06 -0.34,-0.59 -0.66,-1.06 -1,-1.66 a 17,17 0 0 1 -0.79,-2 c -0.61,-1.39 -0.33,-2.79 -0.24,-4.3 z"
       transform="translate(-57.02,-2.25)"
       id="path147"
       inkscape:connector-curvature="0"
       style="fill:#bf6d4e" />
    <path
       class="cls-27"
       d="m 171.91,218.06 a 39.54,39.54 0 0 1 6.26,17.23 c -0.78,0.16 -1.57,0.26 -2.36,0.42 a 20.26,20.26 0 0 1 -1.13,-3.23 50,50 0 0 0 -5.21,-10.86 0.64,0.64 0 0 1 -0.14,-0.51 0.74,0.74 0 0 1 0.31,-0.37 5.08,5.08 0 0 0 1.39,-1.63 c 0.25,-0.46 0.37,-0.92 0.88,-1.05 z"
       transform="translate(-57.02,-2.25)"
       id="path149"
       inkscape:connector-curvature="0"
       style="fill:#191411" />
    <path
       class="cls-10"
       d="m 176.29,244.5 a 3.72,3.72 0 0 0 1.8,-2.25 c 1.65,-0.15 3.15,0.85 4.48,1.83 a 19.79,19.79 0 0 1 3.7,3.25 c 0.6,0.72 1.09,1.52 1.7,2.24 a 9.91,9.91 0 0 0 3,2.37 10.71,10.71 0 0 0 1.82,11.2 3.07,3.07 0 0 0 -0.54,3.38 35.51,35.51 0 0 0 1.76,3.2 8.17,8.17 0 0 1 0.67,5.33 4.15,4.15 0 0 1 -1.4,-1.59 15.11,15.11 0 0 1 -2,-6.2 6.3,6.3 0 0 0 -0.44,-2.29 c -0.51,-1 -1.63,-1.6 -2.26,-2.56 a 14.24,14.24 0 0 0 -1.21,-2.16 6,6 0 0 0 -1.75,-1.05 8.71,8.71 0 0 1 -4.15,-4.59 7.66,7.66 0 0 0 -1.32,-2.81 6.85,6.85 0 0 0 -2.09,-1.24 11.35,11.35 0 0 1 -3.65,-2.8 c -0.44,-0.51 -0.8,-1 -0.29,-1.64 a 13,13 0 0 1 2.17,-1.62 z"
       transform="translate(-57.02,-2.25)"
       id="path151"
       inkscape:connector-curvature="0"
       style="fill:#bf6d4e" />
    <path
       class="cls-28"
       d="m 152.57,203 a 26.49,26.49 0 0 0 10.5,8 7.76,7.76 0 0 0 4.66,0.58 13,13 0 0 0 0.47,-2.38 c -0.44,-0.44 -1.25,-0.46 -1.78,-0.78 a 6.84,6.84 0 0 0 -1.51,-0.8 72.73,72.73 0 0 1 -8.73,-4 c -0.47,-0.23 -0.94,-0.46 -1.39,-0.73 a 21.75,21.75 0 0 1 -1.82,-1.33 13.06,13.06 0 0 0 -1.54,-1.24 c -0.33,-0.19 -0.37,-0.25 -0.35,0.15 a 4.87,4.87 0 0 0 1.49,2.53 z"
       transform="translate(-57.02,-2.25)"
       id="path153"
       inkscape:connector-curvature="0"
       style="fill:#c7744d" />
    <path
       class="cls-29"
       d="m 127.91,238.08 a 16.15,16.15 0 0 1 -2.38,-8.23 11.12,11.12 0 0 1 0.14,-2.64 c 0.48,-2.5 2.16,-4.59 3,-7 0.26,-0.7 0.45,-1.42 0.64,-2.14 l 0.77,-2.88 a 10.28,10.28 0 0 1 -0.18,2.59 l -1.22,8.22 c -0.13,0.83 -0.26,1.66 -0.32,2.5 a 28.4,28.4 0 0 0 -0.05,2.92 c 0,2.37 0.17,4.78 0.07,7.16 a 1.24,1.24 0 0 1 -0.47,-0.5 z"
       transform="translate(-57.02,-2.25)"
       id="path155"
       inkscape:connector-curvature="0"
       style="fill:#8f8f8e" />
    <path
       class="cls-29"
       d="m 114.77,234.24 a 6.05,6.05 0 0 0 1.14,0.71 40.52,40.52 0 0 0 10,3.55 34.1,34.1 0 0 0 -6.52,-4.56 14.18,14.18 0 0 0 -6.58,-1.69 20.86,20.86 0 0 1 1.96,1.99 z"
       transform="translate(-57.02,-2.25)"
       id="path157"
       inkscape:connector-curvature="0"
       style="fill:#8f8f8e" />
    <path
       class="cls-5"
       d="m 127,265.56 a 12.17,12.17 0 0 0 5.2,2.42 c 2.17,0.32 4.35,-0.37 6.44,-1 l 12.77,-4.13 c -3.62,2 -6.93,4.53 -10.46,6.7 a 28.63,28.63 0 0 1 -11.47,4.5 4.17,4.17 0 0 1 -2.64,-0.33 4.68,4.68 0 0 1 -1.53,-1.92 l -3.39,-6.24 6.2,5 -3.33,-4.9 a 20,20 0 0 1 -1.61,-2.39 c -0.16,-0.33 -0.17,-0.42 0.15,-0.32 a 5,5 0 0 1 1.17,0.78 c 0.85,0.58 1.67,1.27 2.5,1.83 z"
       transform="translate(-57.02,-2.25)"
       id="path159"
       inkscape:connector-curvature="0"
       style="fill:#b9b9ba" />
    <path
       class="cls-29"
       d="m 142.76,266.14 a 86.25,86.25 0 0 0 -13.44,4 8.54,8.54 0 0 0 6.06,0.35 25.2,25.2 0 0 0 5.63,-2.6 l 5.44,-3.07 -4.68,1.54"
       transform="translate(-57.02,-2.25)"
       id="path161"
       inkscape:connector-curvature="0"
       style="fill:#8f8f8e" />
    <path
       class="cls-8"
       d="m 110,271.36 a 11.94,11.94 0 0 0 -1,2.54 4.19,4.19 0 0 0 0.16,2.71 4.1,4.1 0 0 0 2.33,2 10.37,10.37 0 0 0 3.08,0.53 12.17,12.17 0 0 0 5.82,-0.68 3.3,3.3 0 0 0 1.9,-1.85 4,4 0 0 0 -0.17,-2.28 27.85,27.85 0 0 0 -2.81,-6.6 2.91,2.91 0 0 0 -1.64,-1.54 2.81,2.81 0 0 0 -1.93,0.45 28.63,28.63 0 0 0 -6.31,5.17"
       transform="translate(-57.02,-2.25)"
       id="path163"
       inkscape:connector-curvature="0"
       style="fill:#3064d3" />
    <path
       class="cls-9"
       d="m 116.62,265.52 a 14.72,14.72 0 0 1 2.63,12.27 13.14,13.14 0 0 0 2.94,0 4.4,4.4 0 0 0 2.62,-1.21 2.69,2.69 0 0 0 0.68,-2.71 0.66,0.66 0 0 0 -0.14,-0.26 c -0.14,-0.12 -0.36,-0.08 -0.52,-0.19 a 11.17,11.17 0 0 1 -3.45,-3.52 c -0.77,-1.49 -1.7,-2.74 -2.59,-4.16 -0.23,-0.37 -0.24,-0.9 -0.65,-1 a 1,1 0 0 0 -1.06,0.45 0.92,0.92 0 0 0 0.24,1.12"
       transform="translate(-57.02,-2.25)"
       id="path165"
       inkscape:connector-curvature="0"
       style="fill:#0b337e" />
    <path
       class="cls-30"
       d="m 97.7,282.31 a 6.05,6.05 0 0 0 2.21,1.56 10.08,10.08 0 0 0 5,0.62 31.11,31.11 0 0 0 5,-1.08 l 3.18,-0.88 a 1.41,1.41 0 0 1 -0.53,1.11 3.72,3.72 0 0 1 -1.13,0.6 22.38,22.38 0 0 1 -6.23,1.53 15,15 0 0 1 -6.34,-0.75 4.6,4.6 0 0 1 -2,-1.19 3,3 0 0 1 -0.59,-2.65 c 0.12,-0.45 0.35,-0.91 0.62,-0.3 a 5.31,5.31 0 0 0 0.81,1.43 z"
       transform="translate(-57.02,-2.25)"
       id="path167"
       inkscape:connector-curvature="0"
       style="fill:#dadad9" />
  </g>
  <g
     id="Слой_5"
     data-name="Слой 5"
     transform="translate(-9.9949368,-9.9984616)">
    <path
       class="cls-31"
       d="m 128.06,239.48 c -5.67,-0.16 -15.77,-1.26 -18.6,-3.63 a 12.39,12.39 0 0 0 -6.63,-2.52 l -1.57,6.15 c 0,0 -11,-2.68 -14.2,-8.83 -3.2,-6.15 -9.3,-2.68 -9.3,-2.68 5.52,-16.87 25.24,-21.29 25.24,-21.29 0,-5.2 -4.89,-3.78 -4.89,-3.78 l -4.25,5 a 25.37,25.37 0 0 1 -6.15,-5.36 c -2,-2.84 -6.79,-5.83 -6.79,-5.83 A 48,48 0 0 1 121,188.39 c 3.62,0.79 20,7.73 20,7.73 0,0 -2.21,-4.58 -4.89,-9.15 a 12.71,12.71 0 0 1 -1.89,-8.36 10.28,10.28 0 0 1 -2.21,-4.1 c -0.78,-2.68 2.05,-5.2 2.05,-5.2 0,0 -12.77,4.26 -23.65,0.16 -10.88,-4.1 -20.53,-17.82 -20.53,-17.82 0.78,-5.36 0.55,-11.48 -1.7,-16.4 a 40.38,40.38 0 0 0 -9.52,22.87 46.41,46.41 0 0 1 4.8,-31.58 c 0,0 -18.89,-19.11 -14.89,-48.22 a 102,102 0 0 0 7.61,21.3 c -2.86,-20 4.2,-42.3 19.27,-55.75 -3.11,6.14 -5,12.91 -4.39,19.77 10.1,-17.07 25.62,-32.31 43.5,-40.9 -3.07,5.06 -6.2,10.32 -9.26,15.38 A 109.57,109.57 0 0 1 174.62,18.25 41.89,41.89 0 0 0 163.57,29.8 247.14,247.14 0 0 1 207.93,13.52 C 209,28 197.43,40.35 198.19,54.8 a 52.39,52.39 0 0 0 13.05,-13.59 c 1.85,16.84 -1.74,34.41 -8.76,49.83 a 57.28,57.28 0 0 0 19.4,-11.64 82.26,82.26 0 0 1 -22.31,42.81 36.21,36.21 0 0 1 15.66,-2.56 99.13,99.13 0 0 1 -19.46,18.71 c 0,0 6.4,-2.48 7.82,-0.27 1.08,1.68 -0.39,8.28 -1.16,11.35 a 2,2 0 0 0 1.12,2.31 c 3,1.34 9.73,4 14.87,2.89 a 7.65,7.65 0 0 1 4.1,-2.36 c 2.52,-0.47 2.68,-1.89 2.68,-1.89 0,0 1.89,2.68 0.78,3.78 a 10.93,10.93 0 0 1 -3.62,1.89 l 0.79,3.16 a 52.87,52.87 0 0 1 6,2.05 c 2.05,0.94 3.94,0.94 3.78,2.52 -0.16,1.58 -2,1.58 -3.47,1.1 -1.47,-0.48 -5.52,-1.42 -5.52,-1.42 l -0.31,1.7 c 0,0 3.15,2.56 3.63,3.51 0.48,0.95 2.68,2.84 2.36,3.94 -0.32,1.1 -3.15,0.47 -4.1,-1 a 16.28,16.28 0 0 0 -2.68,-2.83 c 0,0 0,3.78 1.58,5.67 1.58,1.89 1.42,2.84 1.42,2.84 0,0 -2.84,1 -3.47,0 -0.63,-1 -2.68,-6.15 -2.68,-6.15 a 24.42,24.42 0 0 0 -1.26,8.83 c 0,0 -1.9,1.26 -3.16,0 v -6.15 c 0,0 -5.36,-2.52 -5.52,-5.2 l -2.84,0.63 2.53,4.41 a 23.36,23.36 0 0 1 -13.09,17.51 24.84,24.84 0 0 1 -6.78,12.45 l -1.89,5 c 0,0 1.57,4.42 0.79,6.15 a 38.24,38.24 0 0 1 5.24,14.24 c 0.81,6.73 1,14.27 -0.72,16.66 a 0.77,0.77 0 0 0 0.2,1.13 c 1.59,0.93 4.79,2.94 5.24,4.21 0.61,1.71 -1.1,2.82 -3.61,2.62 a 18.46,18.46 0 0 0 4.12,8.94 c 0,0 2.11,4.52 -2.72,2.71 a 13.26,13.26 0 0 0 2.11,5.93 c 1.91,2.82 -1.81,5.73 -3.92,3.62 -2.11,-2.11 -3.71,-7.44 -2.91,-10.15 a 4.25,4.25 0 0 1 -3.32,-4.12 c 0,0 -5.22,-1.81 -5.93,-5.12 l -0.7,-3.32 c 0,0 -5.93,-1.31 -7.54,-5.43 0,0 -2.91,1.71 -5.42,0.81 l -4.73,7.63 -4,1.71 c 0,0 -2.32,3.82 -3.42,5.33 -1.1,1.51 -10.85,9.75 -20,12.06 -6.86,1.73 -9.31,1.26 -10.1,0.92 a 0.8,0.8 0 0 0 -0.79,0.09 c -1.28,0.89 -5.08,3.43 -7.4,4 0,0 -2.21,3.92 -8.24,5.93 -6.03,2.01 -13.16,1.51 -14.37,-2.21 -1.21,-3.72 7.34,-8.84 10.25,-9.45 2.91,-0.61 6.33,-3.41 6.33,-3.41 l 5.43,-5.23 c 0,0 -4.72,-9.65 -1.71,-15.17 3.01,-5.52 11,-5.53 13.67,-8.95 2.67,-3.42 -1.45,-1.28 -1.45,-1.28 z"
       transform="translate(-57.02,-2.25)"
       id="path170"
       inkscape:connector-curvature="0"
       style="fill:none;stroke:#000000;stroke-width:2px;stroke-miterlimit:10" />
    <path
       d="m 133.31,264.59 c 2.33,-1 4.71,-1.9 7.1,-2.76 2.39,-0.86 4.79,-1.67 7.21,-2.44 2.42,-0.77 4.86,-1.49 7.32,-2.11 a 44.21,44.21 0 0 1 7.49,-1.43 c -1.24,0.27 -2.45,0.63 -3.65,1 -1.2,0.37 -2.42,0.75 -3.62,1.15 l -7.24,2.32 c -2.42,0.75 -4.84,1.52 -7.27,2.22 -2.43,0.7 -4.88,1.46 -7.34,2.05 z"
       transform="translate(-57.02,-2.25)"
       id="path172"
       inkscape:connector-curvature="0" />
    <path
       d="m 131.7,268.51 c 1.18,-0.19 2.35,-0.49 3.51,-0.78 1.16,-0.29 2.33,-0.56 3.48,-0.88 2.31,-0.63 4.61,-1.25 6.87,-2 a 70.74,70.74 0 0 0 6.63,-2.62 c 1.1,-0.48 2.19,-1 3.25,-1.52 a 24.78,24.78 0 0 0 3.15,-1.73 29.18,29.18 0 0 1 -6.06,3.94 42.77,42.77 0 0 1 -6.66,2.88 58.63,58.63 0 0 1 -7,1.81 42.12,42.12 0 0 1 -7.17,0.9 z"
       transform="translate(-57.02,-2.25)"
       id="path174"
       inkscape:connector-curvature="0" />
    <path
       d="M 117.63,263.74 120,267 c 0.78,1.07 1.58,2.13 2.41,3.15 a 29.23,29.23 0 0 0 2.64,2.91 12.43,12.43 0 0 0 3.19,2.3 8,8 0 0 1 -3.69,-1.71 16.47,16.47 0 0 1 -2.91,-2.87 24.63,24.63 0 0 1 -4.01,-7.04 z"
       transform="translate(-57.02,-2.25)"
       id="path176"
       inkscape:connector-curvature="0" />
    <path
       d="m 110.06,271.68 a 8,8 0 0 0 -0.58,3.8 3.4,3.4 0 0 0 2,2.69 11.17,11.17 0 0 0 3.7,0.83 23.91,23.91 0 0 0 4,0 11.23,11.23 0 0 1 -4,0.77 9.24,9.24 0 0 1 -4.11,-0.71 4.2,4.2 0 0 1 -1.71,-1.42 4.05,4.05 0 0 1 -0.68,-2.1 6.18,6.18 0 0 1 1.38,-3.86 z"
       transform="translate(-57.02,-2.25)"
       id="path178"
       inkscape:connector-curvature="0" />
    <path
       d="m 114.81,267.83 a 21.52,21.52 0 0 0 3.12,4.95 21.76,21.76 0 0 0 4.38,3.86 10,10 0 0 1 -7.5,-8.81 z"
       transform="translate(-57.02,-2.25)"
       id="path180"
       inkscape:connector-curvature="0" />
    <path
       d="m 112.53,270.72 a 11.09,11.09 0 0 0 2.34,4.86 11.2,11.2 0 0 0 4.46,3 6.86,6.86 0 0 1 -6.8,-7.89 z"
       transform="translate(-57.02,-2.25)"
       id="path182"
       inkscape:connector-curvature="0" />
    <path
       d="m 97,280.16 a 4,4 0 0 0 1.29,2.5 5.45,5.45 0 0 0 2.41,1.34 14.77,14.77 0 0 0 5.66,0 26.46,26.46 0 0 0 5.58,-1.5 30.87,30.87 0 0 0 5.22,-2.65 19.87,19.87 0 0 1 -10.64,5.15 13.2,13.2 0 0 1 -6,-0.24 A 5.5,5.5 0 0 1 97.91,283 4,4 0 0 1 97,280.16 Z"
       transform="translate(-57.02,-2.25)"
       id="path184"
       inkscape:connector-curvature="0" />
    <path
       d="m 114.09,269.81 c 0.43,1.13 0.68,2.19 1,3.26 a 31.35,31.35 0 0 1 0.75,3.33 6.56,6.56 0 0 1 -1.71,-3.07 6.48,6.48 0 0 1 -0.04,-3.52 z"
       transform="translate(-57.02,-2.25)"
       id="path186"
       inkscape:connector-curvature="0" />
    <path
       d="m 168.77,246.8 a 2.24,2.24 0 0 1 -1.74,0.1 5.84,5.84 0 0 1 -1.54,-0.86 5.18,5.18 0 0 1 -1.17,-1.34 3.32,3.32 0 0 1 -0.39,-0.87 1.39,1.39 0 0 1 0.18,-1.21 1.62,1.62 0 0 1 1,-0.57 c 0.33,-0.06 0.59,-0.08 0.86,-0.11 l 1.61,-0.17 c 1.08,-0.1 2.15,-0.19 3.24,-0.26 v 0 l -0.29,0.18 a 4.24,4.24 0 0 1 1.37,-1.36 3.87,3.87 0 0 1 1.86,-0.58 l -0.46,0.48 a 6.23,6.23 0 0 1 0.75,-2.84 4.86,4.86 0 0 1 2.15,-2.08 c 1.86,-0.82 3.74,-0.68 5.51,-0.87 a 10.08,10.08 0 0 1 5.5,1 6.27,6.27 0 0 1 3.32,4.41 l -0.1,-0.16 a 4.13,4.13 0 0 1 1.42,1.9 4,4 0 0 1 0.1,2.34 c -0.16,0.77 -0.73,1.4 -0.65,2.13 0.08,0.73 0.94,1.12 1.62,1.37 a 4.48,4.48 0 0 1 -1.06,-0.44 1.39,1.39 0 0 1 -0.69,-0.91 2,2 0 0 1 0.18,-1.15 5.39,5.39 0 0 0 0.33,-1.06 3.66,3.66 0 0 0 -1.54,-3.78 l -0.08,-0.05 v -0.11 a 5.76,5.76 0 0 0 -3.16,-3.85 9.3,9.3 0 0 0 -5.09,-0.75 c -1.8,0.23 -3.67,0.22 -5.15,0.9 a 3.82,3.82 0 0 0 -1.66,1.67 5.37,5.37 0 0 0 -0.68,2.35 v 0.47 h -0.45 a 3.31,3.31 0 0 0 -2.61,1.42 l -0.1,0.15 h -0.2 v 0 c -1.07,0.17 -2.15,0.31 -3.22,0.45 l -1.61,0.19 c -0.55,0.05 -1.08,0.14 -1.14,0.28 -0.06,0.14 0,0.53 0.22,0.95 a 4.35,4.35 0 0 0 0.92,1.13 4.58,4.58 0 0 0 1.25,0.77 13.25,13.25 0 0 1 1.39,0.74 z"
       transform="translate(-57.02,-2.25)"
       id="path188"
       inkscape:connector-curvature="0" />
    <path
       d="m 184,237.61 a 5.84,5.84 0 0 0 0.75,4.48 5.35,5.35 0 0 0 3.62,2.35 3,3 0 0 0 2,-0.23 1.72,1.72 0 0 0 0.76,-1.67 c -0.05,-1.46 -1.43,-2.58 -2.69,-3.54 a 9.19,9.19 0 0 1 2.14,1.23 3.53,3.53 0 0 1 1.33,2.22 2.54,2.54 0 0 1 -1,2.56 3.87,3.87 0 0 1 -2.68,0.42 5.75,5.75 0 0 1 -4.14,-3 5.33,5.33 0 0 1 -0.09,-4.82 z"
       transform="translate(-57.02,-2.25)"
       id="path190"
       inkscape:connector-curvature="0" />
    <path
       d="m 195.51,253.23 a 11.06,11.06 0 0 1 -3.19,-0.28 8.38,8.38 0 0 1 -3,-1.32 6.14,6.14 0 0 1 -2.07,-2.61 4.17,4.17 0 0 1 -0.08,-3.23 5.47,5.47 0 0 0 0.78,2.88 7,7 0 0 0 2,2.15 20.21,20.21 0 0 0 5.56,2.41 z"
       transform="translate(-57.02,-2.25)"
       id="path192"
       inkscape:connector-curvature="0" />
    <path
       d="m 190.61,253.24 a 9,9 0 0 1 0.26,2.36 8.68,8.68 0 0 1 -0.3,2.36 4.23,4.23 0 0 1 0,-4.72 z"
       transform="translate(-57.02,-2.25)"
       id="path194"
       inkscape:connector-curvature="0" />
    <path
       d="m 191.07,260.64 a 4.58,4.58 0 0 0 1.48,1.63 c 0.58,0.42 1.26,0.81 1.89,1.22 1.26,0.79 2.64,1.46 4,2.3 a 9.75,9.75 0 0 1 -2.33,-0.48 10.84,10.84 0 0 1 -2.18,-1 10.19,10.19 0 0 1 -1.91,-1.46 3,3 0 0 1 -0.95,-2.21 z"
       transform="translate(-57.02,-2.25)"
       id="path196"
       inkscape:connector-curvature="0" />
    <path
       d="m 172.49,247 a 11.94,11.94 0 0 1 2.27,-1.93 c 0.8,-0.55 1.56,-1 2.45,-1.62 a 3.27,3.27 0 0 1 -0.73,1.39 5.72,5.72 0 0 1 -1.15,1 6.23,6.23 0 0 1 -2.84,1.16 z"
       transform="translate(-57.02,-2.25)"
       id="path198"
       inkscape:connector-curvature="0" />
    <path
       d="m 129.59,241.25 a 27.22,27.22 0 0 1 3.55,-5.48 26.83,26.83 0 0 1 4.67,-4.55 60.59,60.59 0 0 1 -3.9,5.19 63.1,63.1 0 0 1 -4.32,4.84 z"
       transform="translate(-57.02,-2.25)"
       id="path200"
       inkscape:connector-curvature="0" />
    <path
       d="m 118.41,231.16 a 13.4,13.4 0 0 1 7.69,7.69 c -1.29,-1.36 -2.46,-2.7 -3.73,-4 -1.27,-1.3 -2.6,-2.41 -3.96,-3.69 z"
       transform="translate(-57.02,-2.25)"
       id="path202"
       inkscape:connector-curvature="0" />
    <path
       d="m 115,233 a 10.05,10.05 0 0 1 4.47,0.79 9.91,9.91 0 0 1 3.75,2.57 c -1.46,-0.51 -2.77,-1.11 -4.13,-1.65 -1.36,-0.54 -2.68,-1.04 -4.09,-1.71 z"
       transform="translate(-57.02,-2.25)"
       id="path204"
       inkscape:connector-curvature="0" />
    <path
       d="m 133.6,208.83 a 86.22,86.22 0 0 0 0.28,10.68 85.17,85.17 0 0 0 1.75,10.54 33.64,33.64 0 0 1 -2,-21.22 z"
       transform="translate(-57.02,-2.25)"
       id="path206"
       inkscape:connector-curvature="0" />
    <path
       d="m 138.74,206.11 a 76.59,76.59 0 0 0 -1.92,10.31 79.33,79.33 0 0 0 -0.38,10.48 31.77,31.77 0 0 1 2.3,-20.79 z"
       transform="translate(-57.02,-2.25)"
       id="path208"
       inkscape:connector-curvature="0" />
    <path
       d="m 137.34,232.12 a 36.39,36.39 0 0 1 0.33,-6.25 17.58,17.58 0 0 1 2,-6 12.44,12.44 0 0 1 1.91,-2.6 11.43,11.43 0 0 1 2.54,-2 c 1.84,-1.08 3.8,-1.73 5.61,-2.77 a 56.71,56.71 0 0 1 -5.19,3.43 12.26,12.26 0 0 0 -4,4.38 20.84,20.84 0 0 0 -2.07,5.69 c -0.47,2 -0.78,4.07 -1.13,6.12 z"
       transform="translate(-57.02,-2.25)"
       id="path210"
       inkscape:connector-curvature="0" />
    <path
       d="m 138.82,227.9 a 27.49,27.49 0 0 1 3.81,-6.92 27.17,27.17 0 0 1 5.54,-5.64 c -1.58,2.13 -3.2,4.14 -4.74,6.24 -1.54,2.1 -3.03,4.2 -4.61,6.32 z"
       transform="translate(-57.02,-2.25)"
       id="path212"
       inkscape:connector-curvature="0" />
    <path
       d="M 138.44,230.43 A 39.7,39.7 0 0 1 150,217.05 c -1.9,2.29 -3.86,4.46 -5.77,6.69 -1.91,2.23 -3.8,4.48 -5.79,6.69 z"
       transform="translate(-57.02,-2.25)"
       id="path214"
       inkscape:connector-curvature="0" />
    <path
       d="m 133.37,236.94 c 2,-0.78 4.07,-1.46 6.13,-2.12 2.06,-0.66 4.12,-1.28 6.19,-1.87 2.07,-0.59 4.16,-1.15 6.26,-1.65 l 3.15,-0.75 c 1.06,-0.21 2.11,-0.45 3.18,-0.64 -1,0.4 -2,0.74 -3.05,1.12 l -3.07,1 c -2,0.67 -4.12,1.27 -6.2,1.87 -2.08,0.6 -4.15,1.15 -6.25,1.64 -2.1,0.49 -4.2,1.02 -6.34,1.4 z"
       transform="translate(-57.02,-2.25)"
       id="path216"
       inkscape:connector-curvature="0" />
    <path
       d="m 138.24,230.4 a 58.2,58.2 0 0 1 7,-2.93 68,68 0 0 1 14.73,-3.36 c 1.26,-0.13 2.52,-0.24 3.77,-0.32 1.25,-0.08 2.52,-0.09 3.78,-0.06 l -3.73,0.55 c -1.24,0.18 -2.47,0.37 -3.71,0.59 -2.46,0.45 -4.91,0.91 -7.34,1.48 -2.43,0.57 -4.85,1.19 -7.26,1.85 -2.41,0.66 -4.84,1.44 -7.24,2.2 z"
       transform="translate(-57.02,-2.25)"
       id="path218"
       inkscape:connector-curvature="0" />
    <path
       d="m 145.94,228.56 a 67.78,67.78 0 0 1 12.06,-2.07 66.94,66.94 0 0 1 12.26,0 c -4.08,0.38 -8.13,0.64 -12.18,1 -4.05,0.36 -8.08,0.76 -12.14,1.07 z"
       transform="translate(-57.02,-2.25)"
       id="path220"
       inkscape:connector-curvature="0" />
    <path
       d="m 175.88,236 c -0.47,-1.28 -0.94,-2.57 -1.46,-3.83 -0.52,-1.26 -1,-2.52 -1.61,-3.75 -1.15,-2.46 -2.41,-4.87 -3.78,-7.21 l -0.18,-0.29 0.23,-0.27 a 21.4,21.4 0 0 1 4.19,-3.81 14.85,14.85 0 0 1 5.22,-2.27 17.15,17.15 0 0 1 11,1.36 18.8,18.8 0 0 0 -10.8,-0.54 17.91,17.91 0 0 0 -8.87,5.9 l 0.06,-0.57 a 55.71,55.71 0 0 1 3.57,7.43 c 0.5,1.28 1,2.57 1.38,3.88 0.38,1.31 0.76,2.66 1.05,3.97 z"
       transform="translate(-57.02,-2.25)"
       id="path222"
       inkscape:connector-curvature="0" />
    <path
       d="m 171,221.37 a 9.94,9.94 0 0 1 9.56,-3.85 34.39,34.39 0 0 0 -4.95,1.52 33.8,33.8 0 0 0 -4.61,2.33 z"
       transform="translate(-57.02,-2.25)"
       id="path224"
       inkscape:connector-curvature="0" />
    <path
       d="m 112.48,236.71 a 10.84,10.84 0 0 1 -5.26,-4.41 16.2,16.2 0 0 1 -2.31,-6.58 29.19,29.19 0 0 1 -0.07,-7 30.8,30.8 0 0 1 1.54,-6.84 l 0.05,-0.14 0.13,-0.08 a 52.42,52.42 0 0 1 7.19,-3.39 40.59,40.59 0 0 1 7.67,-2.14 c 5.29,-0.9 10.64,-0.37 15.85,0.16 l -0.51,0.54 -0.17,-1.17 -0.09,-0.58 v -0.29 a 1.48,1.48 0 0 1 0,-0.43 0.75,0.75 0 0 1 0.44,-0.58 1.32,1.32 0 0 1 0.45,-0.1 h 0.59 c 0.4,0 0.81,0 1.22,0 a 5.63,5.63 0 0 1 2.48,0.58 4.68,4.68 0 0 0 0.95,0.48 c 0.23,0.07 0.5,-0.06 0.5,-0.14 v -1.22 l 0.77,1.13 a 73.28,73.28 0 0 0 4.83,6.49 30.88,30.88 0 0 0 5.93,5.43 22.22,22.22 0 0 0 7.3,3.3 16.25,16.25 0 0 0 8,0 16,16 0 0 1 -8.09,0.36 21.44,21.44 0 0 1 -7.55,-3.14 31.87,31.87 0 0 1 -6.17,-5.42 61.44,61.44 0 0 1 -5,-6.49 l 0.77,-0.09 a 1.08,1.08 0 0 1 -0.69,0.64 1.47,1.47 0 0 1 -0.83,0.05 5.26,5.26 0 0 1 -1.16,-0.55 4.86,4.86 0 0 0 -2.1,-0.47 11,11 0 0 0 -1.14,0 h -0.58 a 0.32,0.32 0 0 0 -0.13,0 c 0,0 0.1,-0.1 0.09,-0.14 l 0.35,2.2 0.09,0.6 -0.6,-0.06 c -2.62,-0.24 -5.23,-0.48 -7.83,-0.56 a 40.25,40.25 0 0 0 -7.77,0.4 46.71,46.71 0 0 0 -14.62,5.32 l 0.19,-0.22 a 29.81,29.81 0 0 0 -1.64,6.65 28.53,28.53 0 0 0 -0.09,6.85 16.17,16.17 0 0 0 2,6.49 11,11 0 0 0 5.02,4.56 z"
       transform="translate(-57.02,-2.25)"
       id="path226"
       inkscape:connector-curvature="0" />
    <path
       d="m 141.45,196 a 13.53,13.53 0 0 0 8.33,3.51 6.28,6.28 0 0 1 -4.85,-0.12 6.36,6.36 0 0 1 -3.48,-3.39 z"
       transform="translate(-57.02,-2.25)"
       id="path228"
       inkscape:connector-curvature="0" />
    <path
       d="m 143.35,204.73 a 4.39,4.39 0 0 1 2,-2.24 5,5 0 0 1 3,-0.64 l -0.35,0.49 a 2.37,2.37 0 0 1 0.26,-1.81 3.9,3.9 0 0 0 0.44,1.56 l 0.23,0.41 -0.57,0.09 a 10.05,10.05 0 0 0 -2.54,0.75 14.53,14.53 0 0 0 -2.47,1.39 z"
       transform="translate(-57.02,-2.25)"
       id="path230"
       inkscape:connector-curvature="0" />
    <path
       d="m 147.28,191.74 a 11,11 0 0 0 2.47,6.64 17.74,17.74 0 0 0 5.52,4.47 c 4.2,2.34 9,3.55 13.28,6.15 l 0.32,0.2 -0.15,0.33 a 10.83,10.83 0 0 0 -0.93,5.37 11.14,11.14 0 0 0 1.72,5.29 10.53,10.53 0 0 1 -2.25,-5.23 11.72,11.72 0 0 1 0.69,-5.76 l 0.18,0.52 c -4.19,-2.36 -9,-3.55 -13.31,-6.06 a 17,17 0 0 1 -5.57,-4.92 10.36,10.36 0 0 1 -1.97,-7 z"
       transform="translate(-57.02,-2.25)"
       id="path232"
       inkscape:connector-curvature="0" />
    <path
       d="m 142.58,193.09 a 18.53,18.53 0 0 1 8.7,-10 c -1.55,1.64 -3.09,3.19 -4.53,4.86 -1.44,1.67 -2.75,3.36 -4.17,5.14 z"
       transform="translate(-57.02,-2.25)"
       id="path234"
       inkscape:connector-curvature="0" />
    <path
       d="m 150.22,182.69 c 2.18,-0.18 4.36,-0.25 6.54,-0.31 2.18,-0.06 4.35,0 6.53,0 2.18,0 4.35,0.13 6.49,0.07 A 15.44,15.44 0 0 0 176,181 a 11,11 0 0 1 -2.94,1.49 19.18,19.18 0 0 1 -3.26,0.64 57.66,57.66 0 0 1 -6.56,0.17 c -2.18,0 -4.36,-0.08 -6.53,-0.19 -2.17,-0.11 -4.31,-0.19 -6.49,-0.42 z"
       transform="translate(-57.02,-2.25)"
       id="path236"
       inkscape:connector-curvature="0" />
    <path
       d="m 150.68,200.31 a 28.31,28.31 0 0 0 17.13,11.58 19.55,19.55 0 0 1 -17.13,-11.58 z"
       transform="translate(-57.02,-2.25)"
       id="path238"
       inkscape:connector-curvature="0" />
    <path
       d="m 147.54,202.56 c 0.8,1.68 1.32,3.54 2.79,4.57 1.42,1.19 2.77,2.48 4.16,3.67 a 60.69,60.69 0 0 0 9.15,6.19 29.17,29.17 0 0 1 -9.79,-5.42 c -1.41,-1.23 -2.72,-2.55 -4,-3.86 a 6.5,6.5 0 0 1 -1,-1.11 6.88,6.88 0 0 1 -0.62,-1.32 c -0.29,-0.91 -0.48,-1.81 -0.69,-2.72 z"
       transform="translate(-57.02,-2.25)"
       id="path240"
       inkscape:connector-curvature="0" />
    <path
       d="m 117.11,195.35 c 2.22,0.3 4.41,0.73 6.6,1.2 2.19,0.47 4.35,1 6.5,1.6 2.15,0.6 4.3,1.23 6.41,2 l 3.16,1.11 c 1,0.42 2.09,0.8 3.12,1.25 -1.1,-0.23 -2.18,-0.52 -3.26,-0.78 l -3.24,-0.84 -6.4,-1.78 -6.43,-1.82 c -2.19,-0.62 -4.33,-1.24 -6.46,-1.94 z"
       transform="translate(-57.02,-2.25)"
       id="path242"
       inkscape:connector-curvature="0" />
    <path
       d="m 148.84,206 c 1.67,2.31 3.32,4.55 5.17,6.64 1.85,2.09 3.82,4.06 5.87,6 a 24.86,24.86 0 0 1 -11,-12.67 z"
       transform="translate(-57.02,-2.25)"
       id="path244"
       inkscape:connector-curvature="0" />
    <path
       d="m 126.69,193.43 a 27.63,27.63 0 0 1 8.39,2.87 33.56,33.56 0 0 1 7.07,5.33 c -2.6,-1.42 -5,-3.08 -7.55,-4.45 -2.55,-1.37 -5.22,-2.49 -7.91,-3.75 z"
       transform="translate(-57.02,-2.25)"
       id="path246"
       inkscape:connector-curvature="0" />
    <path
       d="m 96.35,203.86 a 44.55,44.55 0 0 1 7,-5.08 50.44,50.44 0 0 1 16,-6.2 l 2.13,-0.38 2.13,-0.29 2.15,-0.17 c 0.72,0 1.43,-0.06 2.15,-0.07 l -2.12,0.34 -2.1,0.39 -2.1,0.43 -2.07,0.5 a 73.38,73.38 0 0 0 -8.1,2.59 72,72 0 0 0 -7.75,3.53 81.65,81.65 0 0 0 -7.32,4.41 z"
       transform="translate(-57.02,-2.25)"
       id="path248"
       inkscape:connector-curvature="0" />
    <path
       d="m 103.33,206.11 c 0.52,0.66 0.94,1.39 1.44,2 a 5.4,5.4 0 0 0 1.73,1.61 L 106,210 a 3.53,3.53 0 0 1 1.47,-2.27 7.39,7.39 0 0 1 2.39,-1.07 28.39,28.39 0 0 1 4.93,-0.93 26.06,26.06 0 0 1 9.91,0.87 44.56,44.56 0 0 0 -9.8,0.08 38.54,38.54 0 0 0 -4.79,0.91 7,7 0 0 0 -2.15,0.84 2.84,2.84 0 0 0 -1.28,1.69 l -0.11,0.51 -0.4,-0.27 a 5.45,5.45 0 0 1 -1.72,-2 c -0.45,-0.74 -0.75,-1.5 -1.12,-2.25 z"
       transform="translate(-57.02,-2.25)"
       id="path250"
       inkscape:connector-curvature="0" />
    <path
       d="m 97.94,230.44 a 34,34 0 0 1 8.7,-17.42 c -1.67,2.83 -3.3,5.62 -4.73,8.52 -1.43,2.9 -2.71,5.87 -3.97,8.9 z"
       transform="translate(-57.02,-2.25)"
       id="path252"
       inkscape:connector-curvature="0" />
    <path
       d="m 100.6,239.38 a 15.08,15.08 0 0 0 -1.4,-2.38 3.73,3.73 0 0 1 -0.6,-2.95 2.34,2.34 0 0 1 1,-1.31 4.16,4.16 0 0 1 1.36,-0.61 3.09,3.09 0 0 1 0.74,-0.12 2.25,2.25 0 0 1 0.76,0.11 9.48,9.48 0 0 0 1.32,0.4 5,5 0 0 1 -1.39,0.05 2,2 0 0 0 -0.61,0 4.5,4.5 0 0 0 -0.58,0.21 c -0.75,0.36 -1.54,0.86 -1.67,1.49 a 3.78,3.78 0 0 0 0.36,2.32 5.67,5.67 0 0 1 0.71,2.79 z"
       transform="translate(-57.02,-2.25)"
       id="path254"
       inkscape:connector-curvature="0" />
    <path
       d="m 147.43,192.37 a 9.62,9.62 0 0 1 0.75,-6.07 8.78,8.78 0 0 1 0.12,3.1 8.5,8.5 0 0 1 -0.87,2.97 z"
       transform="translate(-57.02,-2.25)"
       id="path256"
       inkscape:connector-curvature="0" />
    <path
       d="m 146.92,178.53 a 13.32,13.32 0 0 0 0.62,2 16.29,16.29 0 0 0 0.9,1.87 2.44,2.44 0 0 1 -1.52,-3.85 z"
       transform="translate(-57.02,-2.25)"
       id="path258"
       inkscape:connector-curvature="0" />
    <path
       d="m 148.84,175.15 c 0.19,1.24 0.32,2.34 0.58,3.45 0.26,1.11 0.6,2.17 1,3.37 a 5.72,5.72 0 0 1 -1.55,-6.82 z"
       transform="translate(-57.02,-2.25)"
       id="path260"
       inkscape:connector-curvature="0" />
    <path
       d="m 161.49,168.47 a 1.8,1.8 0 0 1 0.75,2.37 1.74,1.74 0 0 1 -0.85,-1 1.77,1.77 0 0 1 0.1,-1.37 z"
       transform="translate(-57.02,-2.25)"
       id="path262"
       inkscape:connector-curvature="0" />
    <path
       d="m 134.12,180.67 a 13.36,13.36 0 0 1 1.89,-5.43 23.6,23.6 0 0 1 3.43,-4.64 29.39,29.39 0 0 1 9.46,-6.52 42.52,42.52 0 0 1 11,-3.16 c 0.95,-0.15 1.9,-0.26 2.86,-0.36 a 15.73,15.73 0 0 1 2.92,-0.1 6.64,6.64 0 0 1 2.92,0.87 4.36,4.36 0 0 1 2,2.4 l -0.57,-0.27 a 3.46,3.46 0 0 1 2.2,-0.1 5.48,5.48 0 0 1 1.87,1 9.42,9.42 0 0 1 1.46,1.43 c 0.46,0.49 0.86,1 1.27,1.55 a 23.38,23.38 0 0 1 3.54,7.12 22.35,22.35 0 0 1 0.93,7.87 12.6,12.6 0 0 1 -0.75,3.89 4,4 0 0 1 -2.83,2.56 4,4 0 0 0 2.69,-2.61 12.79,12.79 0 0 0 0.59,-3.85 23.42,23.42 0 0 0 -1.11,-7.71 22.75,22.75 0 0 0 -3.6,-6.86 c -0.41,-0.51 -0.81,-1 -1.26,-1.48 a 9.44,9.44 0 0 0 -1.39,-1.3 3.33,3.33 0 0 0 -3.28,-0.7 l -0.42,0.19 -0.15,-0.46 a 3.48,3.48 0 0 0 -1.63,-1.86 5.51,5.51 0 0 0 -2.51,-0.69 33.3,33.3 0 0 0 -5.57,0.49 43.41,43.41 0 0 0 -10.86,2.92 25.61,25.61 0 0 0 -12.57,10.78 c -0.96,1.59 -1.59,3.36 -2.53,5.03 z"
       transform="translate(-57.02,-2.25)"
       id="path264"
       inkscape:connector-curvature="0" />
    <path
       d="m 172.84,182.19 a 23.66,23.66 0 0 1 2.9,3.1 26.38,26.38 0 0 1 2.3,3.59 36.85,36.85 0 0 1 1.7,3.9 c 0.54,1.28 1.13,2.54 1.75,3.79 1.23,2.52 2.58,5 3.7,7.6 0.56,1.3 1.08,2.62 1.51,4 a 24.52,24.52 0 0 1 0.88,4.15 c -1.42,-5.48 -4.48,-10.21 -7,-15.27 -0.61,-1.28 -1.2,-2.57 -1.73,-3.89 -0.53,-1.32 -0.94,-2.63 -1.52,-3.91 a 27.55,27.55 0 0 0 -2,-3.65 31.36,31.36 0 0 0 -2.49,-3.41 z"
       transform="translate(-57.02,-2.25)"
       id="path266"
       inkscape:connector-curvature="0" />
    <path
       d="m 180.79,194.56 a 47.36,47.36 0 0 0 18.55,-6 24.62,24.62 0 0 1 -18.55,6 z"
       transform="translate(-57.02,-2.25)"
       id="path268"
       inkscape:connector-curvature="0" />
    <path
       d="m 174.26,164.71 a 38.27,38.27 0 0 0 5.76,0.22 36.16,36.16 0 0 0 5.69,-0.63 35.7,35.7 0 0 0 10.72,-3.79 11.36,11.36 0 0 0 4.34,-3.36 7.89,7.89 0 0 0 0.79,-5.3 18.07,18.07 0 0 0 -5,-10.08 16.77,16.77 0 0 1 5.73,10 8.37,8.37 0 0 1 -0.78,5.9 12.35,12.35 0 0 1 -4.63,3.75 34.79,34.79 0 0 1 -11.07,3.67 35.48,35.48 0 0 1 -5.82,0.36 31.72,31.72 0 0 1 -5.73,-0.74 z"
       transform="translate(-57.02,-2.25)"
       id="path270"
       inkscape:connector-curvature="0" />
    <path
       d="m 207.13,171.19 c -1.49,-1.84 -2.78,-3.77 -4.14,-5.63 a 50.83,50.83 0 0 0 -4.37,-5.4 11.39,11.39 0 0 1 2.86,2.11 22,22 0 0 1 2.32,2.7 26.24,26.24 0 0 1 3.33,6.22 z"
       transform="translate(-57.02,-2.25)"
       id="path272"
       inkscape:connector-curvature="0" />
    <path
       d="m 204.33,151.94 a 8.23,8.23 0 0 1 -0.89,11.81 12.37,12.37 0 0 0 0.89,-11.81 z"
       transform="translate(-57.02,-2.25)"
       id="path274"
       inkscape:connector-curvature="0" />
    <path
       d="m 208.48,168.81 a 5.43,5.43 0 0 0 4.1,-1.18 6.88,6.88 0 0 0 2.28,-3.53 13,13 0 0 0 0.45,-4.33 c -0.08,-1.49 -0.29,-3 -0.44,-4.53 a 21.22,21.22 0 0 1 1.21,4.45 10.85,10.85 0 0 1 -0.27,4.7 6.84,6.84 0 0 1 -2.78,3.87 4.89,4.89 0 0 1 -4.55,0.55 z"
       transform="translate(-57.02,-2.25)"
       id="path276"
       inkscape:connector-curvature="0" />
    <path
       d="m 169.15,162.66 a 15.58,15.58 0 0 1 2.91,4.83 15.36,15.36 0 0 1 1.12,5.52 c -0.77,-1.74 -1.37,-3.45 -2.05,-5.16 -0.68,-1.71 -1.37,-3.39 -1.98,-5.19 z"
       transform="translate(-57.02,-2.25)"
       id="path278"
       inkscape:connector-curvature="0" />
    <path
       d="m 139.18,171.19 a 12.28,12.28 0 0 1 1.64,-4.65 16.76,16.76 0 0 1 3.2,-3.82 26.18,26.18 0 0 1 8.67,-4.83 c 3.13,-1.1 6.28,-1.95 9.44,-2.83 l 4.74,-1.29 c 1.59,-0.39 3.17,-0.82 4.77,-1.18 -1.53,0.58 -3.09,1.1 -4.63,1.65 l -4.66,1.56 c -3.1,1 -6.27,1.93 -9.32,3 a 29,29 0 0 0 -8.51,4.47 16.82,16.82 0 0 0 -3.29,3.5 13.27,13.27 0 0 0 -2.05,4.42 z"
       transform="translate(-57.02,-2.25)"
       id="path280"
       inkscape:connector-curvature="0" />
    <path
       d="m 171.27,152.64 a 23.16,23.16 0 0 1 18.09,-6.34 46.2,46.2 0 0 0 -9.4,2.16 45.35,45.35 0 0 0 -8.69,4.18 z"
       transform="translate(-57.02,-2.25)"
       id="path282"
       inkscape:connector-curvature="0" />
    <path
       d="m 182.3,146.67 a 21.94,21.94 0 0 1 14.7,-8.34 57.33,57.33 0 0 0 -7.69,3.57 54.84,54.84 0 0 0 -7.01,4.77 z"
       transform="translate(-57.02,-2.25)"
       id="path284"
       inkscape:connector-curvature="0" />
    <path
       d="m 193,151.35 a 8.4,8.4 0 0 1 -1.86,2.44 8.08,8.08 0 0 1 -2.54,1.72 8.37,8.37 0 0 1 1.85,-2.44 8.61,8.61 0 0 1 2.55,-1.72 z"
       transform="translate(-57.02,-2.25)"
       id="path286"
       inkscape:connector-curvature="0" />
    <path
       d="m 197.32,145.55 a 4.54,4.54 0 0 1 2,1.92 4.47,4.47 0 0 1 0.62,2.67 12.61,12.61 0 0 1 -1.49,-2.18 12.13,12.13 0 0 1 -1.13,-2.41 z"
       transform="translate(-57.02,-2.25)"
       id="path288"
       inkscape:connector-curvature="0" />
    <path
       d="m 187.78,147.09 a 5.28,5.28 0 0 1 1.22,7 19.49,19.49 0 0 0 -0.23,-3.57 18.34,18.34 0 0 0 -0.99,-3.43 z"
       transform="translate(-57.02,-2.25)"
       id="path290"
       inkscape:connector-curvature="0" />
    <path
       d="m 169.64,154.42 a 6.72,6.72 0 0 1 3.12,4 l -1,0.19 a 9.3,9.3 0 0 1 0.79,-4.86 c 0.05,1.66 0.05,3.21 0.2,4.77 l -1,0.19 a 15.21,15.21 0 0 0 -2.11,-4.29 z"
       transform="translate(-57.02,-2.25)"
       id="path292"
       inkscape:connector-curvature="0" />
    <path
       d="m 134.71,168.34 a 22.63,22.63 0 0 1 3.29,-1.67 22,22 0 0 1 3.49,-1.19 8.73,8.73 0 0 1 -3.1,2.11 8.57,8.57 0 0 1 -3.68,0.75 z"
       transform="translate(-57.02,-2.25)"
       id="path294"
       inkscape:connector-curvature="0" />
    <path
       d="m 135.5,169.06 a 3.1,3.1 0 0 1 2.6,3.26 9.76,9.76 0 0 1 -1.46,-1.51 9.63,9.63 0 0 1 -1.14,-1.75 z"
       transform="translate(-57.02,-2.25)"
       id="path296"
       inkscape:connector-curvature="0" />
    <path
       d="m 158.11,151.35 a 4.56,4.56 0 0 1 -0.17,-2.59 8.14,8.14 0 0 1 0.94,-2.47 15.75,15.75 0 0 1 3.31,-4 33,33 0 0 1 4.1,-3.15 10.23,10.23 0 0 1 4.82,-1.82 7.71,7.71 0 0 0 -2.3,1 c -0.72,0.43 -1.4,0.93 -2.08,1.43 -1.33,1 -2.62,2.11 -3.87,3.24 a 19.78,19.78 0 0 0 -3.32,3.71 9.47,9.47 0 0 0 -1.13,2.19 4.77,4.77 0 0 0 -0.3,2.46 z"
       transform="translate(-57.02,-2.25)"
       id="path298"
       inkscape:connector-curvature="0" />
    <path
       d="m 162.24,150.59 0.72,-1.89 a 7.17,7.17 0 0 0 0.41,-1.8 2.25,2.25 0 0 0 -0.41,-1.56 5.74,5.74 0 0 0 -1.47,-1.23 3,3 0 0 1 2,0.69 2.61,2.61 0 0 1 0.84,2.16 4.69,4.69 0 0 1 -0.71,2.08 5.25,5.25 0 0 1 -1.38,1.55 z"
       transform="translate(-57.02,-2.25)"
       id="path300"
       inkscape:connector-curvature="0" />
    <path
       d="m 165.81,154.1 a 10.29,10.29 0 0 0 3.26,-1.79 20,20 0 0 0 2.75,-2.53 23.54,23.54 0 0 0 4,-6.29 30.53,30.53 0 0 0 2.07,-7.15 22,22 0 0 0 0.29,-3.7 6.76,6.76 0 0 0 -0.9,-3.48 3.3,3.3 0 0 0 -3.09,-1.36 10.68,10.68 0 0 0 -3.51,1 31.6,31.6 0 0 0 -6.25,4 36.85,36.85 0 0 0 -5.34,5.18 23.09,23.09 0 0 0 -3.88,6.24 l -0.74,1.88 0.09,-2 0.49,-10.21 v -0.16 l 0.13,-0.11 2.07,-1.7 -0.14,0.3 a 51.47,51.47 0 0 0 -0.71,-7.42 54.34,54.34 0 0 0 -1.72,-7.26 40,40 0 0 0 -2.94,-6.82 28.3,28.3 0 0 0 -4.46,-5.85 l 0.33,0.14 a 42.68,42.68 0 0 0 -6.92,0.62 58.81,58.81 0 0 0 -13.4,3.86 63.86,63.86 0 0 0 -6.28,3.06 l -3.82,2.09 3.26,-2.88 a 15,15 0 0 0 1.8,-1.92 16.28,16.28 0 0 0 1.45,-2.22 12.55,12.55 0 0 0 1,-2.43 11.3,11.3 0 0 0 0.42,-2.58 v 0 l 0.64,0.36 q -5.74,3.82 -11.27,8 c -1.83,1.38 -3.64,2.79 -5.38,4.28 l -5.22,4.54 c -3.49,3 -6.93,6.07 -10.15,9.34 a 88.08,88.08 0 0 0 -8.83,10.53 18.89,18.89 0 0 1 3.46,-6.05 69.29,69.29 0 0 1 4.63,-5.2 c 3.23,-3.33 6.66,-6.44 10.13,-9.49 l 5.25,-4.51 c 1.77,-1.51 3.61,-2.93 5.46,-4.32 3.73,-2.74 7.57,-5.31 11.47,-7.81 l 0.7,-0.45 -0.06,0.81 v 0 a 11.9,11.9 0 0 1 -0.41,2.79 13.58,13.58 0 0 1 -1,2.63 15.75,15.75 0 0 1 -1.54,2.34 15,15 0 0 1 -1.9,2.09 l -0.56,-0.8 a 64.88,64.88 0 0 1 6.38,-3.12 58.38,58.38 0 0 1 6.69,-2.37 59.29,59.29 0 0 1 6.93,-1.57 45.39,45.39 0 0 1 7.11,-0.63 h 0.2 l 0.13,0.14 a 27.94,27.94 0 0 1 4.62,6.1 41.08,41.08 0 0 1 2.95,7 53.76,53.76 0 0 1 1.69,7.39 53.07,53.07 0 0 1 0.65,7.56 v 0.19 l -0.14,0.11 -2.09,1.68 0.14,-0.27 -0.58,10.21 -0.64,-0.12 a 23.77,23.77 0 0 1 4.06,-6.42 37.3,37.3 0 0 1 5.46,-5.2 32.53,32.53 0 0 1 6.39,-4 10.83,10.83 0 0 1 3.68,-1 4.61,4.61 0 0 1 1.93,0.31 3.35,3.35 0 0 1 1.51,1.25 7.12,7.12 0 0 1 0.93,3.7 20.54,20.54 0 0 1 -0.34,3.76 30.18,30.18 0 0 1 -2.19,7.19 23.49,23.49 0 0 1 -4.1,6.27 21.3,21.3 0 0 1 -2.79,2.5 10.29,10.29 0 0 1 -3.31,1.75 z"
       transform="translate(-57.02,-2.25)"
       id="path302"
       inkscape:connector-curvature="0" />
    <path
       d="m 81.88,131.59 c 0.5,-3.6 2.18,-6.74 3.6,-10 1.42,-3.26 3.06,-6.37 4.79,-9.46 1.73,-3.09 3.57,-6.12 5.55,-9 a 71.58,71.58 0 0 1 6.57,-8.37 56.27,56.27 0 0 1 8,-7 26.89,26.89 0 0 1 4.61,-2.76 12.14,12.14 0 0 1 2.64,-0.84 6,6 0 0 1 2.88,0.13 5.45,5.45 0 0 1 2.43,1.6 10.36,10.36 0 0 1 1.53,2.34 23.38,23.38 0 0 1 1.75,5.11 21.09,21.09 0 0 1 0.51,5.37 12.41,12.41 0 0 1 -1.34,5.19 28.53,28.53 0 0 0 -0.25,-10.31 21.82,21.82 0 0 0 -1.73,-4.84 6,6 0 0 0 -3.25,-3.37 7,7 0 0 0 -4.73,0.65 26,26 0 0 0 -4.44,2.56 c -1.41,1 -2.78,2.1 -4.11,3.24 a 41.46,41.46 0 0 0 -3.78,3.6 c -4.7,5.16 -8.37,11.21 -11.71,17.36 -0.84,1.54 -1.64,3.1 -2.42,4.67 -0.78,1.57 -1.58,3.13 -2.33,4.72 -1.54,3.15 -2.65,6.46 -4.77,9.41 z"
       transform="translate(-57.02,-2.25)"
       id="path304"
       inkscape:connector-curvature="0" />
    <path
       d="m 117.15,108.31 c 0.18,0.25 0.4,0.44 0.54,0.67 a 4,4 0 0 1 0.36,0.72 2.7,2.7 0 0 1 0.1,1.7 2.66,2.66 0 0 1 -1,-1.36 3.14,3.14 0 0 1 -0.16,-0.82 1.3,1.3 0 0 1 0.16,-0.91 z"
       transform="translate(-57.02,-2.25)"
       id="path306"
       inkscape:connector-curvature="0" />
    <path
       d="m 118.63,107.26 a 21.36,21.36 0 0 1 1.19,4.06 h -0.94 c 0.25,-1 0.55,-1.94 0.89,-2.89 a 19.17,19.17 0 0 1 1.23,-2.83 18.78,18.78 0 0 1 -0.43,3 c -0.22,1 -0.49,2 -0.8,2.92 l -0.65,2 -0.28,-2.08 a 21.24,21.24 0 0 1 -0.21,-4.18 z"
       transform="translate(-57.02,-2.25)"
       id="path308"
       inkscape:connector-curvature="0" />
    <path
       d="m 112.43,134.63 c -1.07,1.51 -2.11,3 -3.05,4.58 a 17.94,17.94 0 0 0 -1.22,2.39 4.42,4.42 0 0 0 -0.39,2.4 l -0.18,-0.27 a 59.16,59.16 0 0 1 4.84,4.12 59.33,59.33 0 0 1 -5.39,-3.36 l -0.14,-0.1 v -0.16 a 4.79,4.79 0 0 1 0.38,-3 13,13 0 0 1 1.4,-2.5 20.7,20.7 0 0 1 1.76,-2.18 19.32,19.32 0 0 1 1.99,-1.92 z"
       transform="translate(-57.02,-2.25)"
       id="path310"
       inkscape:connector-curvature="0" />
    <path
       d="m 140.78,136.06 a 3.1,3.1 0 0 1 0.94,1.6 12.76,12.76 0 0 1 0.37,1.84 23.63,23.63 0 0 1 0.11,3.76 37.13,37.13 0 0 1 -1,7.46 l -0.05,0.16 -0.15,0.1 a 16.94,16.94 0 0 1 -6.05,2.15 25.55,25.55 0 0 1 -6.36,0 34.07,34.07 0 0 1 -6.19,-1.31 37.32,37.32 0 0 1 -5.88,-2.25 h -0.08 v -0.07 c -0.2,-1.07 -0.39,-2.13 -0.56,-3.2 0.3,1 0.58,2.08 0.86,3.13 l -0.08,-0.11 a 47.38,47.38 0 0 0 5.93,1.86 41.2,41.2 0 0 0 6.1,1.06 26.72,26.72 0 0 0 6.13,-0.1 17.08,17.08 0 0 0 5.71,-1.93 l -0.2,0.26 c 0.32,-1.16 0.56,-2.38 0.78,-3.59 0.22,-1.21 0.38,-2.43 0.49,-3.66 a 35,35 0 0 0 0.13,-3.69 11.15,11.15 0 0 0 -0.21,-1.82 3.17,3.17 0 0 0 -0.74,-1.65 z"
       transform="translate(-57.02,-2.25)"
       id="path312"
       inkscape:connector-curvature="0" />
    <path
       d="m 120.29,153.43 a 9.89,9.89 0 0 1 3.33,-0.16 10.08,10.08 0 0 1 3.22,0.83 9.57,9.57 0 0 1 -3.32,0.16 10.2,10.2 0 0 1 -3.23,-0.83 z"
       transform="translate(-57.02,-2.25)"
       id="path314"
       inkscape:connector-curvature="0" />
    <path
       d="m 122.2,155.24 a 20.36,20.36 0 0 1 4.24,-0.55 c 1.42,-0.08 2.83,-0.09 4.25,-0.09 a 60.43,60.43 0 0 1 8.49,0.64 67.22,67.22 0 0 1 -8.5,0.36 c -1.41,0 -2.83,0 -4.24,-0.13 l -2.12,-0.13 a 18.8,18.8 0 0 0 -2.12,-0.1 z"
       transform="translate(-57.02,-2.25)"
       id="path316"
       inkscape:connector-curvature="0" />
    <path
       d="m 110.77,146.3 1.69,1 v 0 q 8.18,-3.72 16.47,-7.18 c 2.75,-1.17 5.52,-2.31 8.32,-3.39 2.8,-1.08 5.58,-2.17 8.43,-3.15 l -0.29,0.28 2.72,-6.92 0.66,0.63 c -6.4,3 -12.78,6 -19.21,8.91 l -4.82,2.2 c -1.58,0.77 -3.15,1.58 -4.71,2.4 -3.17,1.64 -6.23,3.4 -9.26,5.22 z m 0,0 c 2.91,-2 5.93,-3.85 9,-5.63 1.54,-0.88 3.09,-1.73 4.67,-2.54 l 4.76,-2.32 c 6.35,-3.09 12.76,-6.09 19.13,-9.13 l 1.14,-0.55 -0.47,1.18 -2.76,6.9 -0.08,0.2 -0.21,0.07 c -2.83,1 -5.63,2 -8.42,3.06 l -8.37,3.24 -16.68,6.62 v 0 z"
       transform="translate(-57.02,-2.25)"
       id="path318"
       inkscape:connector-curvature="0" />
    <path
       d="m 109.83,162.66 a 36.45,36.45 0 0 0 4.18,0 25.7,25.7 0 0 0 4.11,-0.44 20,20 0 0 0 3.91,-1.14 11.24,11.24 0 0 0 3.32,-2.18 l 0.31,-0.31 0.33,0.25 a 3,3 0 0 1 0.8,0.91 2.14,2.14 0 0 1 0.28,1.25 3,3 0 0 1 -1.21,2 9.16,9.16 0 0 1 -3.78,1.79 11.61,11.61 0 0 1 -4.11,0.14 15.63,15.63 0 0 1 -3.87,-1.18 18.45,18.45 0 0 0 3.92,0.7 11.13,11.13 0 0 0 3.87,-0.39 9.35,9.35 0 0 0 3.36,-1.77 2.18,2.18 0 0 0 0.85,-1.34 1.52,1.52 0 0 0 -0.68,-1.26 l 0.64,-0.06 a 12.08,12.08 0 0 1 -3.66,2.37 17.84,17.84 0 0 1 -4.16,1 26.08,26.08 0 0 1 -4.23,0.17 26.55,26.55 0 0 1 -4.18,-0.51 z"
       transform="translate(-57.02,-2.25)"
       id="path320"
       inkscape:connector-curvature="0" />
    <path
       d="m 98.86,155.08 a 1,1 0 1 1 1,-0.32 1.06,1.06 0 0 1 -1,0.32 z"
       transform="translate(-57.02,-2.25)"
       id="path322"
       inkscape:connector-curvature="0" />
    <path
       d="m 92.43,146.3 a 6.6,6.6 0 0 1 1.85,1.27 4.87,4.87 0 0 1 1.24,1.9 4.52,4.52 0 0 1 -1.94,-1.19 5.07,5.07 0 0 1 -0.71,-0.88 2.39,2.39 0 0 1 -0.44,-1.1 z"
       transform="translate(-57.02,-2.25)"
       id="path324"
       inkscape:connector-curvature="0" />
    <path
       d="m 95.05,146.3 a 5.51,5.51 0 0 1 3.33,3.17 5.12,5.12 0 0 1 -2,-1.23 5.07,5.07 0 0 1 -1.33,-1.94 z"
       transform="translate(-57.02,-2.25)"
       id="path326"
       inkscape:connector-curvature="0" />
    <path
       d="m 98.86,147.35 a 1.72,1.72 0 0 1 1.19,2.12 1.66,1.66 0 0 1 -1,-0.82 1.64,1.64 0 0 1 -0.19,-1.3 z"
       transform="translate(-57.02,-2.25)"
       id="path328"
       inkscape:connector-curvature="0" />
    <path
       d="m 90,132.41 a 33.08,33.08 0 0 0 3.87,9.9 l -0.09,-0.11 a 28.17,28.17 0 0 0 4.81,2.87 22,22 0 0 0 2.59,1 14.85,14.85 0 0 0 2.69,0.52 l -0.52,0.6 c -0.38,-1.68 -0.79,-3.38 -1.28,-5 a 6.66,6.66 0 0 0 -0.44,-1.13 c -0.21,-0.36 -0.43,-0.71 -0.68,-1.07 -0.49,-0.7 -1,-1.4 -1.52,-2.1 -2.08,-2.78 -4.25,-5.51 -6.37,-8.28 q 3.63,3.77 7,7.81 c 0.55,0.68 1.11,1.36 1.62,2.07 0.27,0.36 0.52,0.73 0.76,1.12 a 7.34,7.34 0 0 1 0.55,1.29 c 0.55,1.68 1,3.38 1.36,5.09 l 0.16,0.66 -0.68,-0.06 a 16.45,16.45 0 0 1 -5.62,-1.65 25,25 0 0 1 -4.88,-3.13 l -0.06,-0.05 v -0.06 a 29.6,29.6 0 0 1 -2.13,-5 26,26 0 0 1 -1.14,-5.29 z"
       transform="translate(-57.02,-2.25)"
       id="path330"
       inkscape:connector-curvature="0" />
    <path
       d="m 96.1,126 a 42.08,42.08 0 0 1 4.05,7.5 37.79,37.79 0 0 1 1.46,4 16.79,16.79 0 0 1 0.77,4.22 c -0.43,-1.36 -1,-2.65 -1.51,-4 l -1.64,-3.89 C 98.15,131.32 97,128.73 96.1,126 Z"
       transform="translate(-57.02,-2.25)"
       id="path332"
       inkscape:connector-curvature="0" />
    <path
       d="m 138.87,146.82 a 6.17,6.17 0 0 1 -0.83,3.26 3.41,3.41 0 0 1 -3.07,1.68 4,4 0 0 1 -2.97,-1.76 6.19,6.19 0 0 1 -1.17,-3.17 4.9,4.9 0 0 1 0.93,-3.36 4,4 0 0 1 3.19,-1.7 3.69,3.69 0 0 1 3.09,1.79 6.21,6.21 0 0 1 0.83,3.26 z m -0.1,0 a 4,4 0 0 0 -1.23,-2.86 3.66,3.66 0 0 0 -2.57,-1.13 3.29,3.29 0 0 0 -2.45,1.21 5.22,5.22 0 0 0 -1.13,2.78 4.14,4.14 0 0 0 0.88,3 3.21,3.21 0 0 0 2.7,1.14 4.06,4.06 0 0 0 2.58,-1.24 4,4 0 0 0 1.22,-2.9 z"
       transform="translate(-57.02,-2.25)"
       id="path334"
       inkscape:connector-curvature="0" />
    <path
       d="m 100.05,138.11 c -0.44,-0.26 -1,-0.45 -1.3,-0.23 -0.3,0.22 -0.35,0.71 -0.39,1.17 a 4.93,4.93 0 0 0 0.65,2.71 9.4,9.4 0 0 0 1.74,2.32 3.83,3.83 0 0 0 1.17,0.77 1,1 0 0 0 1.24,-0.38 l -0.16,0.37 a 1.74,1.74 0 0 1 -0.3,0.31 2.63,2.63 0 0 1 -0.42,0.17 h -0.45 a 3.56,3.56 0 0 1 -1.56,-0.65 7.06,7.06 0 0 1 -2.14,-2.47 6.19,6.19 0 0 1 -0.56,-1.58 4.22,4.22 0 0 1 0,-1.7 3.22,3.22 0 0 1 0.27,-0.83 1.31,1.31 0 0 1 0.68,-0.67 1.09,1.09 0 0 1 0.91,0.12 1.87,1.87 0 0 1 0.62,0.57 z"
       transform="translate(-57.02,-2.25)"
       id="path336"
       inkscape:connector-curvature="0" />
    <path
       d="m 84.91,122.94 q -1.72,-3.73 -3.32,-7.51 v -0.05 -0.06 a 20.82,20.82 0 0 1 1,-6.62 32,32 0 0 1 2.65,-6.13 c 0.58,-0.95 1.14,-1.91 1.8,-2.81 a 32.56,32.56 0 0 1 2,-2.64 c 0.69,-0.87 1.49,-1.65 2.24,-2.46 0.75,-0.81 1.72,-1.51 2.48,-2.26 l 0.25,-0.24 0.22,0.28 c 1.71,2.2 3.37,4.44 5,6.71 q -2.8,-3.11 -5.52,-6.31 h 0.47 c -0.76,0.78 -1.54,1.55 -2.28,2.35 -0.74,0.8 -1.47,1.6 -2.13,2.47 a 41.74,41.74 0 0 0 -3.67,5.37 34.46,34.46 0 0 0 -2.65,5.97 22.94,22.94 0 0 0 -1.25,6.31 v -0.1 q 1.4,3.79 2.71,7.73 z"
       transform="translate(-57.02,-2.25)"
       id="path338"
       inkscape:connector-curvature="0" />
    <path
       d="m 91.08,58.91 a 42.53,42.53 0 0 1 -0.11,7 41.46,41.46 0 0 1 -1.1,6.87 42.51,42.51 0 0 1 0.11,-7 42.54,42.54 0 0 1 1.1,-6.87 z"
       transform="translate(-57.02,-2.25)"
       id="path340"
       inkscape:connector-curvature="0" />
    <path
       d="m 89.61,96.65 a 16.61,16.61 0 0 1 -0.49,-6.51 16.27,16.27 0 0 1 1.95,-6.23 c -0.34,2.16 -0.73,4.24 -0.95,6.34 -0.22,2.1 -0.36,4.22 -0.51,6.4 z"
       transform="translate(-57.02,-2.25)"
       id="path342"
       inkscape:connector-curvature="0" />
    <path
       d="M 93.51,88.7 C 95.89,81 98.33,73.25 102.13,66.07 A 55.18,55.18 0 0 1 108.9,56 a 39.57,39.57 0 0 1 9.23,-8 l 1.87,-1.12 -1.2,1.77 a 66.82,66.82 0 0 0 -9.6,23.08 l -0.79,-0.43 c 3,-2.92 6.08,-5.71 9.32,-8.32 a 119.4,119.4 0 0 1 10.13,-7.31 115.79,115.79 0 0 1 10.81,-6.21 121.71,121.71 0 0 1 11.33,-5.05 c -3.81,1.65 -7.56,3.43 -11.2,5.41 -3.64,1.98 -7.21,4.1 -10.64,6.41 A 129.67,129.67 0 0 0 109,72 l -1.12,1.12 0.34,-1.55 A 73.41,73.41 0 0 1 112,59.35 59.5,59.5 0 0 1 118,48.13 l 0.62,0.65 a 38.79,38.79 0 0 0 -9.07,7.74 56.13,56.13 0 0 0 -6.84,9.86 c -3.88,7.05 -6.53,14.71 -9.2,22.32 z"
       transform="translate(-57.02,-2.25)"
       id="path344"
       inkscape:connector-curvature="0" />
    <path
       d="m 125.7,88.7 a 57.11,57.11 0 0 1 10.85,-15.22 110.21,110.21 0 0 1 14.53,-11.87 c 10.26,-7.23 21.65,-12.67 33.21,-17.41 l 1.2,-0.49 -0.62,1.13 c -3.6,6.6 -7.32,13.13 -11.24,19.54 -3.92,6.41 -8.09,12.68 -12.48,18.79 l -0.54,-0.7 a 121.9,121.9 0 0 0 15.48,-7.7 164.69,164.69 0 0 0 14.44,-9.56 l 1.17,-0.87 -0.65,1.3 a 133.3,133.3 0 0 1 -11.47,19.1 124.85,124.85 0 0 1 -14.58,16.8 124.74,124.74 0 0 0 14.24,-17.05 137.9,137.9 0 0 0 11.19,-19.16 l 0.53,0.44 A 151.26,151.26 0 0 1 176.53,75.51 122.28,122.28 0 0 1 161,83.32 l -1.49,0.62 0.94,-1.31 A 387.6,387.6 0 0 0 184.06,44.4 l 0.58,0.65 C 173.1,49.76 161.75,55.1 151.46,62.15 A 117.81,117.81 0 0 0 136.83,73.76 56.88,56.88 0 0 0 125.7,88.7 Z"
       transform="translate(-57.02,-2.25)"
       id="path346"
       inkscape:connector-curvature="0" />
    <path
       d="m 163.8,110.94 c 3.83,-2.1 7.71,-4.1 11.59,-6.09 3.88,-1.99 7.81,-3.85 11.71,-5.85 3.9,-2 7.85,-3.8 11.81,-5.64 l 5.94,-2.75 c 2,-0.88 4,-1.8 6,-2.66 -1.92,1.05 -3.85,2.05 -5.78,3.1 l -5.82,3 c -3.89,2 -7.81,3.9 -11.71,5.85 -3.9,1.95 -7.86,3.8 -11.82,5.64 -3.96,1.84 -7.91,3.67 -11.92,5.4 z"
       transform="translate(-57.02,-2.25)"
       id="path348"
       inkscape:connector-curvature="0" />
    <path
       d="m 183.42,135.88 c 1.4,-1.56 2.88,-3 4.37,-4.51 1.49,-1.51 3,-2.88 4.55,-4.3 1.55,-1.42 3.1,-2.79 4.7,-4.13 l 2.41,-2 c 0.83,-0.64 1.63,-1.31 2.48,-1.93 -0.69,0.79 -1.43,1.53 -2.15,2.29 l -2.22,2.21 c -1.48,1.48 -3,2.89 -4.55,4.31 -1.55,1.42 -3.1,2.79 -4.7,4.13 -1.6,1.34 -3.21,2.67 -4.89,3.93 z"
       transform="translate(-57.02,-2.25)"
       id="path350"
       inkscape:connector-curvature="0" />
  </g>
</svg>
