<svg xmlns="http://www.w3.org/2000/svg" width="239.18" height="410.16" viewBox="0 0 239.18 410.16">
  <title>goten</title>
  <g id="Layer_2" data-name="Layer 2">
    <g id="Layer_1-2" data-name="Layer 1">
      <g>
        <path d="M205.73,79.51a4.61,4.61,0,0,0,4-2.32,44.72,44.72,0,0,1,14-13.17c7.31-4.15.85-7.68-2-7.32S213.54,62,211.71,62s-7-3.78-7.56-12.2,2.93-20.49,2.07-23.78-5.85-2.93-6.83-.37-1.34,19.27-4.14,22-4.52-12.2-7.57-16.35-6.63-1.69-7.26-.08c-.37,1,1.65,6.79,3.85,12.28s2.07,8.05,1.22,8.29-11.1-11.34-15.37-10-1.46,5.49-1.46,5.49,10.61,8.29,11.83,10.24-11.22-1.7-13.17-.48-2.32,4-.25,5.12,7.56.49,11.22,2.32Z" fill="#e6bdad"/>
        <path d="M44.9,188.43s-7,14-7.94,16.35-2.42,7.57-2.42,7.57l-1.06,11.27-3.11,3.71L27,233.08l-.23,3.56,4.54,12.18s7.42,6,8.78,6.81a17.76,17.76,0,0,0,4.16,1.44l60.08,64.8,1.24,4.1,3.73,5.73,2.37,7.09V344l-3.11,10.57s2.83,8.87,4.4,11.26l7.39,2.17,2,3.13,5.23,6.87,1.87.3,7.76-2.39,5.53,1.12,3.58-.22,2.54-1.2,2.09-3.8,3.44-1.42,4-3.44,2.91-3.88,3.06-7.17,1.79-8.88.15-3.89-7-12.24,2,.67,8.51-1.27,2.24,1.12,3.14.15L179.9,330l7.17-3.36,6.42-4.48,6-8.81,7.77-12.69,1.12-3.51-1.12-2.92-3.73-4-.45-9-1.72-3.58-4.26-5.83-6.27-6.94-6.57-5.75-.6-3.44-1-1.56-.67-3.29-2.24-1.34-14.41-4-3.21.75L158,248.39l4.63-15.16,6.42-15.08-1.42-12.77-1.87-12.17,1.35-1.05,1.94-5,1.19-6.2-.45-17.47-1.12-8.66Z" fill="#f08721"/>
        <path d="M59.63,324.46s1.46,8.38,3.77,11.73l-1.78,5.35s.31,8.69,2.3,12l1.89,4,5.34,6,6.6-.11,4.19-2.2,2,.11,4.61-2.1L91,356.31l2.1.31,1.15-.21.28,2,1.62,1.41,2-.35,4-2.89,6.47-2,5.13-5.27.49-3.38-1.61-2-1.27-.7-.42-7.1-4.08-8.45-3.17-3.86L97,320.05l-11.18-4.72-20.54,1.9Z" fill="#e6bdad"/>
        <path d="M37.94,166.62s5.79,20.91,10.81,25.76,14.88,9.72,14.88,9.72l2.51,3.6s8.46,12.69,13.79,15,24.6,2,37.13-.31a15.6,15.6,0,0,0,4.65-1.74c3-1.55,13.72-12.26,13.72-12.26s6.9-7.16,9.23-10.87a57,57,0,0,0,3.28-5.78l.52-9.06a8.26,8.26,0,0,0,2.59-.26c.78-.35,7.77-9.32,9.41-15.54s1.72-26.75,1.72-26.75l-34.55-26-40.75-3.72L61.74,123Z" fill="#e6bdad"/>
        <path d="M39.8,234.64s26.76,3.12,44.61,17.18l1.78,20.74,2.4,2.69-.08,10,1.67,2,1.53,11.17,5.22,7.33L98.68,312l.86.33,5.87,8.91.13,4.69-2.74-2.79s-6.35-3.49-9.4-4.07-13.29-2.35-18-1.71-5.85,1.33-5.85,1.33-7,4.83-9.15,7.12l-.51,1,3.43,9.78A16.73,16.73,0,0,0,62,341.11c-.26,2.22.88,9.85.88,9.85a4.9,4.9,0,0,1-3,.7c-1.27-.32-13.73-4.64-14.24-6.8s.19-7.76.19-7.76l4.89-7.43.07-2.74,1-4.38L43.5,308.31,42.67,302l1.78-8.2,1.34-7.18s-4.64-9.09-4.83-11.95,1.65-12.84,1.65-12.84l-1.15-7.88-1.65-6.36Z" fill="#2b4480"/>
        <path d="M164,85.76l7.58-8.29.4-6.35s4.63-5.69,7.3-7.3S185.16,60,185.16,60l8.41,3.32,8.91,6.19,1.76,2.47,1.49,7.58.32,11.15-.5.8L199.2,96.3l-1.2,4.83-10.58,13.59-2.11.71-32.83-3.12Z" fill="#2b4480"/>
        <path d="M131.93,377.88a17.71,17.71,0,0,0,3.48,4.77l.94,4.75,2.47,2.61s5.12,3.84,13.8.23,10.32-10.56,10.32-10.56l-.73-3.6-2.15-2.33-1-8.41s-3,5.07-7.82,6.35l-1,1.37s-1.05,4.61-7.08,4-6.4-1.24-6.4-1.24Z" fill="#2b4480"/>
        <path d="M63.63,202.1s10.09,15.66,16.3,18.64,30.55.37,30.55.37l27,2,3.31,8.58-12.5,14.45L97,237.16,86.89,233.3l-9.63-7.48S64.3,211,61.91,205.38s-.8-4.39-.8-4.39Z" fill="#2b4480"/>
        <path d="M88.59,275.25s12.59,1.85,14.46,1.85,8.12-.73,8.12-.73l14.06-5.21,6.6-3.15,10.42-5.27s7.88-9.94,10.55-11.39,6.12-3.39,6.12-3.39l5.57-2.24,4.36.72s8.79-.48,11.63.12a15.27,15.27,0,0,1,4.85,1.58c.61.42,24.6,30.41,24.6,30.41l.68-.26s4.11-11.17,5.36-11.51,6.91.11,6.91.11l4.86,1.14s3.84,4.48,4.83,5.36l5.54,4.82-2.43-6.53s-2.2-4-3-4.41-8.13-3.19-8.13-3.19l-18.35-9.27L186.8,243.26a30.62,30.62,0,0,0-5.51-1.51c-1.83-.16-20.25-.12-20.25-.12l.68-1.78s9.2-1.22,11.63-.69S186,237.87,186,237.87s14.81-4.1,17-3.61S222.43,242,222.43,242l.34,1.26.07,2.05,1.45,2.58,4.9,11.59s2.12-10.18.8-13.49a23.17,23.17,0,0,1-1.52-6.49s.87-5.4-.54-6.31-17.58-4.56-17.58-4.56l-14.74.5-22.07,5.66s-10.68.3-11.25,0-1.51.68-1.51.68l-15.33,17.38-1.22,3.49-25.07,13.05-2-1-21,3.27-5.56.23-4.23-2.18.28,3.55Z" fill="#34322f"/>
        <path d="M141.8,391.65s3.06,7.74,5.25,10.22,10.22,7.73,12.4,7.88a3.79,3.79,0,0,0,3.3-1.58l.83-4.22s.62-11.34.21-12.93-2.42-7.06-2.42-7.06,1.24,5.47.55,7.54-4.08,3.25-4.08,3.25l-6.71,3.39-2.35.41a11.09,11.09,0,0,1-3.46-3.38,33.51,33.51,0,0,1-2.14-3.39Z" fill="#34322f"/>
        <path d="M143.18,391.78s3.61,5.85,5.86,6.74,12.61-6.11,12.61-6.11l.47-2.55s-.4-5.47-.75-5.9-2.18,2-3.88,3.27a65.74,65.74,0,0,1-6.58,3.69l-4.79.94Z" fill="#fff"/>
        <path d="M152.44,390.51s5.94-2.34,6.78,1.24a3.65,3.65,0,0,1-.52,2.55s2.78-1.22,3-2a67.46,67.46,0,0,0,.08-7l-.44-1.36-2.82,2.52Z" fill="#665a5f"/>
        <g>
          <path d="M154.15,192.84l-3.74-12.24-2.14.2-.61,9.75L145,195.23c-16.31,20.86-25.51,24.56-25.51,24.56l-7.83,1-4.92.56c1.67,1.17,6.18,2,7.68,3s-3.67,4-4.67,4.34-12.19.67-24.54-1.67-23.73-25.51-23.73-25.51l-3.08-1.64s3,5.52,5,8.88,11.75,14.74,11.75,14.74l4.49,4a28.57,28.57,0,0,1,8.14,1.68c5.77,3.41,25.86,4.66,28.24,4s10.31-10.17,12.5-11.2-5.28,14.94-9.4,15.71S87.81,233.63,86.65,233c-.6-.34-2.42-1.61-4-2.76l1.88,1.69,4.19,2.27,38.6,12s4.08,1.8,5,1,4-6,4-6c19.18-29.25,19.52-40.33,19.52-40.33Zm-27,49.67c-4,1.32-5.59-.95-5.59-.95l21-18.55S131.12,241.19,127.15,242.51Z" fill="#25223d"/>
          <path d="M79.4,227.77c.69.82.42.45.42.45l2.8,2-3-2.68C79.4,227.58,79.29,227.65,79.4,227.77Z" fill="#25223d"/>
        </g>
        <path d="M168.93,155.44S170,163,170,166.09s.46,11.11.46,11.11l-.46,5.41-2.16,8s-1.08,2-2,2.16l.93,6.33,2.31,17-.15,3.24-6.64,14.35-5.71,7.1-10.8,11.88-1.54,3.4-4.56,2.7-20.19,10.55-2.47-.77-18.37,2.81s-8.24,1.59-11.24-1.07-2.57-18.8-2.57-18.8,10.21,7.88,9.43,5.88S82.4,240.29,82.4,240.29s17,17.86,14.42,9.76l-3.36-3.71s8.49-.77,14.51.62,21.61,7.87,22.84,7.1,20.37-38.43,20.37-38.43,4.48-10.65,4.63-14.81-5.4-20.22-5.4-20.22,1.59-.16,4.35-4.18,6-12.41,6-12.41Z" fill="#a34a26"/>
        <path d="M88.48,275.05l.25,5.6-.33,4.53,1.65,1.73,1.81,11.69,5.19,7.25,1.48,5.93,1,.46,2.73,3.93s.45-3-2.43-9.87S96.91,285.34,98,285s3.21,6.31,4.7,8a47.41,47.41,0,0,1-2.88-14.33s3.53.43,4.6,1.5,2.46,7.7,5.45,10.8c0,0-3.53-9.31-3.85-12.52,0,0,9.73-3.31,14.33.86s2.25,10,4.92,15a60.25,60.25,0,0,1,3.42,7,9.92,9.92,0,0,1-6.84-1.18,61.82,61.82,0,0,0,11.44,13.58s-.85,5.35-2.78,7.28-13.47-1.4-17.43-2.89,9.2,8,9.73,10.16-2.56,1.6-10.8-1.29c0,0,12.24,11.92,19.46,15.18l3,1.34s9.91.4,11.66.24h.71s.77-.25.64,4.09-1.79,12.66-3.19,14.7-30-1.66-30.81-.64a4,4,0,0,0-.13,4c.64.76,7.16,1.91,7.16,1.91l.21,1s5.75,8.64,7,9.12a7.3,7.3,0,0,0,3.08.2l6-2.05,6.38,1.09,3.42-.41,1.92-.82,2.47-4.11,2.19-.82s5.21-4.32,5.76-4.94,3-4.64,3-4.64l2.59-6.58,2-9.18-1.2-4.07L159.48,331l-2-1.2-3.15-4.45-.37-3.43-9.55-4.45L142,313l-2.22-6.12L137.42,293v-2.6l1.21-3.05-1.58-4.54-.55-5.75.55-4.73,1.21-3,3.52-6.12-14.73,7.23-7.79,3.24-7.78,2.69-8.53.65-5.28-.37Z" fill="#a34a26"/>
        <path d="M114.39,347.25s2.73,4.32,9.48,5.44a.16.16,0,0,0,.17-.23c-.66-1.25-3.25-6.32-3.12-7.88.15-1.78,13.41,4.82,24.69,3l-4.73,11.82-.57.65-14.48-1-12-9.53Z" fill="#a34a26"/>
        <path d="M148.66,319.47s11.53,0,13.94-.94a30.06,30.06,0,0,0,5.19-3,.32.32,0,0,0-.18-.59l-6.37-.28s-.32-.83,1.15-1.46,13.31-6,19.18-11.84c4.94-4.94,4.08-13.45,3.69-16a.25.25,0,0,1,.43-.22,15.85,15.85,0,0,1,3.52,4.7c.84,2.31,0,6.81-.73,8.28s-7.33,14.14-9.11,15.93-8.81,9.32-8.81,9.32l-5.13,2.83-2.83-.31-8.68-4Z" fill="#a34a26"/>
        <path d="M168.79,246.64s3.83,1.42,2.92,2.63-8.07.4-10.8,1.61-6.66,6-6.66,6,6.46-4,7.87-4.34,5.15-.91,5.15-.91,19.18,7.77,28,26.54-21.4,49-23.11,49.86-7.88,3.33-11.11,3.23a21.06,21.06,0,0,0,6.67-.4l3-.81a1,1,0,0,0,.91,1.42,34,34,0,0,0,4.93-.11s11.4-3.92,16-8.33,15.63-24,15.75-24.88-.92-3.56-.92-3.56l-3.73-4.35s-.43-8.39-.92-9.87a46.45,46.45,0,0,0-3.56-5.94L192,266.18l-8.09-7.6-.24-3.13-1-2.45-1.05-2.63Z" fill="#a34a26"/>
        <path d="M39.31,234.77l.1,9.63.46,4.21,2.25,7.58s-5.44-2.12-7.37-4.72-6.12-15.15-2.19-16A26.3,26.3,0,0,1,39.31,234.77Z" fill="#a34a26"/>
        <path d="M162.56,148.21c-1.55-11-7.72-3.47-8.5-2.51s-5,9.27-6,3.86-5.22-21-9.85-23.94-14.48-8.3-16.22-5-10.82,30.51-10.82,30.51,3.29,18.73-6.56,22S74.31,161.73,73.54,150s18.15-26.45,23.75-17.38a63.35,63.35,0,0,1,7.34,16l4.05-32.06L57.51,129.1l.4,47.48s8.44,10,16.43,13c4.07,1.5,20.28,4.74,25.68,3.88s5.17-8.2,12.51-6.47c6.9,1.62,12.72,2.6,24.16-2.5a2.29,2.29,0,0,1,3.12,1.41c.72,2.4,1.5,6.13.56,9.07-1.51,4.75-17.8,22.61-20.64,23.42s-10.76.2-11.27,1,6.8.91,6.8.91l4.27-.51,2.94-1.42L128,213.9s16.75-15.33,19.7-23.35l.61-9.75a13.59,13.59,0,0,1,2.14-.2c1.37,0,7-7.81,7.65-10.16S164.1,159.22,162.56,148.21Zm-26.77-7s-4,5-5.23,5,.54-5.76.54-8.1a9.8,9.8,0,0,0-1.4-4.28.35.35,0,0,1,.44-.5,45.76,45.76,0,0,1,5.29,2.62C136.69,136.86,135.79,141.18,135.79,141.18Z" fill="#c88778"/>
        <path d="M81.65,194.14s12,.44,14.82,1.11-12.75,2.24-17.55,4.81c0,0-.61-1.47,7.63-4,0,0-1.32-1.57-6.1-.91,0,0-3.33.5-2.3-.4a4.51,4.51,0,0,1,2.92-.72Z" fill="#a8827b"/>
        <path d="M109.82,194.72s-2.41-1.69-.89-1.87,4.1-1.07,4.46-.36a6.08,6.08,0,0,1-.36,3.66C112,197.58,109.82,194.72,109.82,194.72Z" fill="#a8827b"/>
        <path d="M45.18,176.11s3,.09,4.29,1.43,4.92,5.18,4.92,5.18l-1.16,3.21,5.27,7.33s4.2-.18,5,1l.89-.8-2.86-3.93-4.37.62-.81-2,1.16-3.58-1.43-3.21-1.6-2.5-4.2-3.22-3.67-2.41-1.34.09Z" fill="#a8827b"/>
        <path d="M67.35,202.56s8.07,13.7,12.1,13.7l4.49-1.55L87,216l-1.29,1.1-2.4,1.11-3,3a59.93,59.93,0,0,1-9.11-8.66c-3.32-4.24-7.09-10.13-7.09-10.13Z" fill="#c88778"/>
        <path d="M156.27,143.12s-5.2,5.89-5.59,7.85.29,7.75.29,7.75l1.08,1.17,1.57.1.68,2-.49,1.28-1.17.88-2,.79-1.18,4.9,1.08,1.77s2.84-2.75,3.43-5,1.13-6.57,1.13-6.57l.06-2.81a3.54,3.54,0,0,0-2-2c-1.57-.62-.17-6.4.45-6.79S156.27,143.12,156.27,143.12Z" fill="#a8827b"/>
        <path d="M60.29,326.38a7.83,7.83,0,0,0,.74,3.1c.75,1.49,5.17-13.73,32.63-9.56l-.37-.92s-14.3-3-20.77-1.23S60.29,326.38,60.29,326.38Z" fill="#c88778"/>
        <path d="M111.53,344.26a3.71,3.71,0,0,1-1.13,2.55c-1.14,1-7.38,4.41-11.36-4,0,0,3,8-.71,10.79S90,356.18,85.7,348.52c0,0,3,7.38.42,9.51s-5,4-8.94.14c0,0,0,2.52-1.64,3.64A10.24,10.24,0,0,1,71.06,363l6.35.37,3-1,.84-.84,2.89-.1,2.8-1,2.71-2.34L91,356.39l1.4.47L94,356.3l.65,2.15,1.12,1.21,1.59.19,5.51-3.36,5.69-2,5.21-5,.49-3.52L112.23,344Z" fill="#c88778"/>
        <path d="M202.72,69.84s3.55,1.47,4.78,3.43,2.69.12,3.67-1.35,9.06-9.06,13.35-8.69c0,0-4.53,3.43-4.9,3.67s-2.15,1.66-2.15,1.66l-3.7,3.64-3.43,4-1.65,2.26s-2.33,1.44-2.74,1.23-1.92-8.3-1.92-8.3Z" fill="#c88778"/>
        <path d="M185.93,68.29a.23.23,0,0,1,0-.46c2.17-.41,6.36-1.09,7.48-.27,5.27,3.85,6.53,15.88,8.29,15.88s2.08-11.15,1-13.6,1.59,2.59,1.59,2.59l.95,4.93s1.36,10.5.63,13.65l-5.89,5-.94.63-.53,3.79-4.2,5.67-6.72,8.29-3.25,2-21.54-5.67-3.47-2.67S186.8,89.48,189,86.24s-3.91-5.94-3.49-6.28,2.79-1.31,7.24,2.91a.63.63,0,0,0,1-.09c.85-1.25,2.13-4.81-2.22-12.68C191.46,70.1,190,69,185.93,68.29Z" fill="#25223d"/>
        <path d="M150.41,180.6l4.9,17.79s4.79,16.64-29.55,41.05c0,0-4.57,3.12-4.2,2.12s20.92-19.05,21.67-30.51c0,0-21,20.28-26,21.92-5.29,1.74,5.73-6.48,2.49-9.22a11.66,11.66,0,0,0-7.22-2.61,42.78,42.78,0,0,0,7.06-1.35c2-.77,8.26-5.75,11.37-8.37s15.94-18.55,15.94-18.55l1.37-3.49.06-8.58Z" fill="#13131f"/>
        <path d="M140.45,234.37s-7.43,11.82-12.73,11.82l3.93,1.2,1.26-1.14Z" fill="#13131f"/>
        <path d="M39.34,241.83a.14.14,0,0,0,.2.12c1.35-.76,9.51-4.82,22.63.29,14.39,5.62,20.18,11.93,21.24,26.14,0,0,0,0,0,.07s-.6.63-3.94-1.54a.14.14,0,0,0-.18.21c2.4,2.39,8,8.14,8.4,9.66.45,1.94.22,4.23-.58,4.23s-9.7-7-9.93-6.08,10.73,10.64,11.3,12,.69,3.89-.11,3.89-7.89-7-7.89-6.18S93,303.14,92.88,306.45s-7.94-3.18-12.4-3.86a23.35,23.35,0,0,0-6.62-.14.14.14,0,0,0,0,.28c1.92.36,6.85,1.5,9.48,3.85,3.31,3,2.74,3.66,8.1,5.48s5.3.49,5.53,3.57-19.8-.71-24.14.66-13.13,5.25-20.44,16.78c-7.16,11.3-3.14,12.63,2.39,14a.14.14,0,0,0,.16-.21c-.72-1.12-3-5.17.53-6.45,3.73-1.34,7-2.78,7.56-3a.13.13,0,0,0,.08-.15l-.33-2.05v0l-2.47-8.67a.12.12,0,0,1,0-.13c.58-.64,6.47-7.09,11.16-8.2,4.9-1.15,15.5-.23,15.69-.21h0l8.4,1.81h0c.26.12,7.31,3.41,8.77,4.7l0,0,1,1.51-.07-4.18a.25.25,0,0,0,0-.07l-5.8-9.45a.1.1,0,0,0-.06,0l-.93-.44-1.48-5.91a.08.08,0,0,0,0,0l-5.15-7.2s0,0,0-.06L90.05,287a.09.09,0,0,0,0-.07l-1.58-1.66a.12.12,0,0,1,0-.1l.38-7v0l-.29-3a.2.2,0,0,0,0-.08l-2.11-2.4a.11.11,0,0,1,0-.08l-1.46-21a.11.11,0,0,0-.06-.11c-.83-.49-10.46-6.22-12-7s-13.85-5.75-14-5.81h0l-12-3.19h0l-7.32-.69a.15.15,0,0,0-.16.14Z" fill="#25223d"/>
        <path d="M52.81,320.78s2.1-7.35,7.52-10.41-6.73.87-7.78,2.54S51.67,321.13,52.81,320.78Z" fill="#25223d"/>
        <path d="M46.1,286.31s3.1-15.57,2.68-16.15-2.35,11-4.43,9.84-1.82-1-1.66.09S44.94,286.31,46.1,286.31Z" fill="#25223d"/>
        <path d="M132.6,379.19s3.58.14,4.68.83,6.06,3.44,11,2.06,5.37-1.51,5.65-.55-7.61,7.09-6.61,7.16c.4,0,6.06-2.34,6.19-1.38s-.68,1.93-1.37,2.89,5.52-3,5.52-3l3.46-3.14s1.78-3.67,1.88-5.24-2.93-4.71-2.93-4.71l-.88-8-5.46,4.44L151,371.78l-.94,1.23-1.27,2.46-3,1.6h-5L137,375.8l-5.3,2.07Z" fill="#25223d"/>
        <path d="M136.82,376s5.6,5.74,13.21,3.57,9.23-4.21,9-1.49-7.5,7.91-8.59,8.72,10.08-3.43,11.17-6.14.27-4.76-.55-5.57-1.57-3.74-1.57-7.14-1.7-.66-1.7-.66-4.15,3.68-5.29,4.15-1.45.31-1.45.31-1.3,3.5-2.47,4.11a13.34,13.34,0,0,1-3.56,1.27c-1.2.24-7.14-1.08-7.14-1.08S137.18,375.62,136.82,376Z" fill="#13131f"/>
        <path d="M88.45,275s9.82,1.58,10.86,1.58,2.24.07,2.24-1,.93-2.54,2-2.39,4.56-.62,3.86-.7-4.71.16-4.79-.15,0-1.47-.61-1.39S91.36,272,91.36,272s-3.71-1.47-4.33-2.16-1-.08-1-.08l.31,2.82Z" fill="#1a1814"/>
        <path d="M120.93,268.55s3.64-1.08,4.26-.31c1,1.23-.61,3.06-.61,3.06l6.64-2.86,8.78-4.59,1.78-.61,6.48-7.35a41.86,41.86,0,0,1-6.18,5.54,1.31,1.31,0,0,1-1.85-1.76,7.25,7.25,0,0,1,1.29-1.8c.61-.27-5.5,2.75-5.5,2.75Z" fill="#1a1814"/>
        <path d="M148.5,255.15s10.49-13.53,8.08-14.36l5.26-6,8.19,0s2.75,4.09,7.06,4.46l-7.21-.37-8.54,1-.46,1.92,7.74-.22s8,3.95,6.41,4.59l-6.18.14-3.87-.59a15.64,15.64,0,0,0-4.19,1.36c-1.91,1-5,2.23-5,2.23l-4,3.05Z" fill="#1a1814"/>
        <path d="M200.67,251.87s13.62,13.11,16.34,13c4.61-.18,5,1.89,5,1.89l5.25,1.07s9.44,9.36,10.5,10l-.27-2.05-4.27-7.94-6.34-3.33-2.2-.29L206.3,255Z" fill="#1a1814"/>
        <path d="M218.9,230.55s7.14,2,7.56,4.57,1,5.33,2.13,7l0-3.1-.25-4.85-.45-1L226,232.05Z" fill="#1a1814"/>
        <path d="M229.31,244.3s0,3.62-1.33,3.26-1.63-3.28-4.84-4.69a3.68,3.68,0,0,0-.23,1.88,8.79,8.79,0,0,0,1.1,2.49l1.55,2.9,3.53,9.51s1.22-6.93,1.32-8.16-.16-4.06-.19-4.63A14.82,14.82,0,0,0,229.31,244.3Z" fill="#1a1814"/>
        <path d="M157.36,395s3.88-.91,4.31.67,1.19,11.66,0,13.23c0,0-.18.38.42.19s1.7-4.43,1.7-5.11.42-11.54.16-12.45-1.63-4.35-1.63-4.35-.12,4.61-.53,5.22S157.36,395,157.36,395Z" fill="#1a1814"/>
        <path d="M172.25,331.58s2.89,4.41,5.86,5.6a2.92,2.92,0,0,0,4-1.53l1.71-3.76.43-3.58-7,2.86Z" fill="#1a1814"/>
        <path d="M79.58,137.36a.65.65,0,0,1,1.06.51c-.07,4.59-.13,19.88,1.67,23.48,2.13,4.25-9.92-2.59-9.92-2.59S71.52,144,79.58,137.36Z" fill="#f1f2ea"/>
        <path d="M92,198.86a1.11,1.11,0,0,0-1.19-1.34c-3.31.29-10.33,1-10.91,2.39-.72,1.67,4.66,10.56,11,10a1.11,1.11,0,0,0,1-1.24C91.64,206.62,91.25,201.86,92,198.86Z" fill="#f1f2ea"/>
        <path d="M125,189.27a.83.83,0,0,0-.12,1.35c1,.84,2.64,2,3.47,1.41,1.22-.91,7.47-6.55,6.09-6.55C133.29,185.48,127.5,187.83,125,189.27Z" fill="#f1f2ea"/>
        <path d="M47.55,183.63c.57,1.94,2.13,5.79,5.49,6.08a.32.32,0,0,0,.34-.38c-.23-1.1-.87-4.16-1.25-5.19-.5-1.39-.44,1.54-1.18,1.47-.53-.05-1.51-.61-3-2.21A.26.26,0,0,0,47.55,183.63Z" fill="#f1f2ea"/>
        <path d="M86.41,167.45s-9.3-1.55-13.26,4.31.14,18.5,4.74,22.83c0,0,19.53-2.12,21.3-2.65,3-.91,2-15.2-6-20.68S86.41,167.45,86.41,167.45Z" fill="#fff"/>
        <path d="M138.07,178.47s-12.37,8.47-17.85,9.25-7.81-9.64-6.12-19.15,13.29-13.67,15-13.54a10.53,10.53,0,0,1,7.3,5.08C138.07,163.36,139.11,171.44,138.07,178.47Z" fill="#fff"/>
        <path d="M109,194s1.74,0,1.85.41a10.41,10.41,0,0,1,.1,1.54S109.29,194.89,109,194Z" fill="#fff"/>
        <path d="M65.69,332.71s6-7.17,4.49-6.66S64,328.87,64,329.51,65.69,332.71,65.69,332.71Z" fill="#f1f2ea"/>
        <path d="M66.08,337.71s9.48-12.3,15.88-12.94,11.53-1.41,11.53.13-.52,2.69-1.28,3-4.62-.13-5,.76,2.05,6.15.38,6.15-3.2-4.35-4.48-3.71-1.53,2.05-2.56,2.56-5.38-2.31-6.27-1.28S72,339,70.82,339.24,66.33,339.37,66.08,337.71Z" fill="#f1f2ea"/>
        <path d="M97.59,327.82a.61.61,0,0,1,.51-.54,1.54,1.54,0,0,1,1.73,1.7c0,1.55.28,2.63-.21,2.42S97.47,329.2,97.59,327.82Z" fill="#f1f2ea"/>
        <path d="M74.12,338a.65.65,0,0,1,.63-.51c.65.07,1.57.76,1.13,2.41-.49,1.8-.53,3.14-.92,2.78A6.81,6.81,0,0,1,74.12,338Z" fill="#f1f2ea"/>
        <path d="M64.8,344.69a.36.36,0,0,1,.39-.22,1,1,0,0,1,.84,1.22c-.23.86-.2,1.5-.47,1.31A3,3,0,0,1,64.8,344.69Z" fill="#f1f2ea"/>
        <path d="M100.14,334.77a1.3,1.3,0,0,1,2.28-.71,5.91,5.91,0,0,1,.71,1c1.27,2.14,4.51,7.68,4.28,8.62s-3,3.72-4,3.25C102.66,346.54,99.76,338.44,100.14,334.77Z" fill="#f1f2ea"/>
        <path d="M86.45,342.8c.11-1.14,2.7-3.4,3.45-2.54a5.91,5.91,0,0,1,.71,1c1.27,2.14,4.06,8.09,3.82,9s-2,3-3,2.5C90.66,352.41,86.07,346.47,86.45,342.8Z" fill="#f1f2ea"/>
        <path d="M74.43,347.88c.11-1.14,2.78-2.75,3.54-1.88.22.25,1.61,2.76,1.86,3.17,1.27,2.14,3.36,5.5,3.12,6.45s-2.25,1.53-3.2,1.06C79,356.28,74.05,351.55,74.43,347.88Z" fill="#f1f2ea"/>
        <path d="M65.55,350.14c.12-1.14,2.56-.05,3.31.81a6.73,6.73,0,0,1,.71,1c1.27,2.14,3.8,6.68,3.57,7.63s-2.52.39-3.47-.08C68.88,359.11,65.18,353.81,65.55,350.14Z" fill="#f1f2ea"/>
        <path d="M221.21,56.76s-4.47,7.38-6.86,7.17-2.59-1.87-2.59-1.87Z" fill="#f1f2ea"/>
        <path d="M198.67,31.52s1.24-1.77,1.76-.94-1,15.69-3,15.79-.31-3.74-.31-3.74Z" fill="#f1f2ea"/>
        <path d="M182.56,34.11s2.7,13.41,4.05,13.3,1.67-3.63-.83-9.24S182.56,34.11,182.56,34.11Z" fill="#f1f2ea"/>
        <path d="M172.69,45.33s7,6.24,8.42,6.24-5.82-6.13-6.44-6.24S172.48,44.4,172.69,45.33Z" fill="#f1f2ea"/>
        <path d="M170.87,58.81c.07.49,5.24.56,6.16.16s-2.58-1.07-3.95-1.15S170.82,58.24,170.87,58.81Z" fill="#f1f2ea"/>
        <path d="M198.34,49.56a.82.82,0,0,1,.82.86c0,.51.16,2.2-.53,2.15s-1.08-2-1.08-2.25A1.22,1.22,0,0,1,198.34,49.56Z" fill="#f1f2ea"/>
        <path d="M189,52.19c.21-.24.7-.39.91-.12s1.16.91.72,1.32-1.63-.26-1.73-.36A.94.94,0,0,1,189,52.19Z" fill="#f1f2ea"/>
        <path d="M56,171.91s14.42,32.12,19.66,37,20.86,13.51,42,11.14c2.87-.32,6-.34,23.83-20.16,0,0,5.66-7,6.32-9.66s.65-45.55.65-45.55" fill="none" stroke="#000" stroke-linecap="round" stroke-miterlimit="10"/>
        <path d="M70.16,201s-1.74,2.83-7.19.87S50.32,194.25,47.26,191s-6.71-15.92-4.47-20.46,16.15,7.71,16.15,7.71" fill="none" stroke="#000" stroke-linecap="round" stroke-miterlimit="10"/>
        <path d="M148.2,180.69a4.83,4.83,0,0,0,4.08-1.16c1.58-1.65,6.14-8.52,7.49-13.5s3.18-21.81-1.61-25.76-9.71,10.18-9.71,10.18" fill="none" stroke="#000" stroke-linecap="round" stroke-miterlimit="10"/>
        <path d="M65.81,197a9.15,9.15,0,0,1-2.8.09,13,13,0,0,1-2.64-.61A14.17,14.17,0,0,1,58,195.34a16.53,16.53,0,0,1-2.15-1.55,16.63,16.63,0,0,0,2.27,1.33,13.5,13.5,0,0,0,2.44.9,12.31,12.31,0,0,0,2.55.34,8.18,8.18,0,0,0,2.46-.3h0a.51.51,0,0,1,.63.33.51.51,0,0,1-.34.63Z"/>
        <path d="M45.72,180.89a36.31,36.31,0,0,1-.82-5c0-.42-.06-.85-.07-1.28a4.52,4.52,0,0,1,.15-1.37.87.87,0,0,1,.36-.43,1,1,0,0,1,.49-.11,2.63,2.63,0,0,1,.73.14,6.71,6.71,0,0,1,1.22.53A30,30,0,0,1,52,176.25a28,28,0,0,1,3.76,3.48A8.85,8.85,0,0,1,58,184.52c0,.23,0,.46,0,.68a2.26,2.26,0,0,1-.11.78c-.15.46-.32.83-.47,1.21a3,3,0,0,0-.3,2c.13.3.21.37.46.39a4.09,4.09,0,0,0,1.07-.21,11.45,11.45,0,0,1,1.28-.3,4,4,0,0,1,.7-.06,2,2,0,0,1,.8.14,5.14,5.14,0,0,1,2,1.86,14.44,14.44,0,0,1,1.3,2.25l.15.31-.26.22-1,.83-.35.29-.27-.36a1.86,1.86,0,0,0-.87-.49,8.48,8.48,0,0,0-1.18-.26,18.73,18.73,0,0,0-2.48-.22h-.2l-.11-.16-5.07-7.37-.07-.1,0-.11a12.68,12.68,0,0,1,.8-2.56,6.08,6.08,0,0,1,1.52-2.22.18.18,0,1,1,.25.27h0a5.87,5.87,0,0,0-1.33,2.13,13.26,13.26,0,0,0-.7,2.46l0-.2L58.83,193l-.31-.16a18.92,18.92,0,0,1,2.6.17,9,9,0,0,1,1.31.27,2.63,2.63,0,0,1,1.31.76l-.62-.07,1-.85-.12.53a13.65,13.65,0,0,0-1.25-2.08,4.44,4.44,0,0,0-1.64-1.48.91.91,0,0,0-.43-.07,3.41,3.41,0,0,0-.55,0,11,11,0,0,0-1.16.3,4.53,4.53,0,0,1-1.39.26,1.43,1.43,0,0,1-.9-.31,1.78,1.78,0,0,1-.51-.72c-.69-2.22,1.15-3.68.73-5a7.72,7.72,0,0,0-2-4.19A32.87,32.87,0,0,0,51.36,177a29.48,29.48,0,0,0-4-2.9c-.36-.19-.71-.38-1.06-.53a2.4,2.4,0,0,0-.49-.13h-.12l0,.05a7.86,7.86,0,0,0-.2,2.34c0,1.67.14,3.35.3,5l0,0A0,0,0,0,1,45.72,180.89Z"/>
        <path d="M49.51,182.21a16.78,16.78,0,0,1,0-3.17,6.91,6.91,0,0,1,1-3.17.49.49,0,0,1,.69-.15.5.5,0,0,1,.15.69l0,.07h0A6.31,6.31,0,0,0,50,179.13,16.75,16.75,0,0,0,49.51,182.21Z"/>
        <path d="M157.91,148.46a42,42,0,0,0-1.06-4.72,2,2,0,0,0-.22-.42s0,0,0,0,.13,0,.13,0a5,5,0,0,0-.76.73c-.52.6-1,1.26-1.49,1.92a41.66,41.66,0,0,0-2.58,4.16,9.5,9.5,0,0,0-.88,2.14,12,12,0,0,0-.09,2.35,17.4,17.4,0,0,0,.21,2.4,8.09,8.09,0,0,0,.26,1.13,2.7,2.7,0,0,0,.43.9c0,.33,1.23-.05,2.19.61a2,2,0,0,1,.84,1.46,4.93,4.93,0,0,1-.07,1.4,2.77,2.77,0,0,1-.6,1.41,2.89,2.89,0,0,1-1.28.82,10.73,10.73,0,0,1-1.27.32c-.38.06-.73.22-.7.26L150,170h0l-.08-.39,1.18,1.65h0l-.76-.06a15.45,15.45,0,0,0,2.9-4.06,7.18,7.18,0,0,0,.43-1.14c.11-.39.18-.79.26-1.23.16-.86.35-1.7.53-2.54s.34-1.68.44-2.52a6.63,6.63,0,0,0-.07-2.44,2.78,2.78,0,0,0-1.52-1.66,5.05,5.05,0,0,0-2.36-.51h0a.28.28,0,0,1-.28-.28.27.27,0,0,1,.26-.28,5.82,5.82,0,0,1,2.67.52,4.66,4.66,0,0,1,1.14.79,2.7,2.7,0,0,1,.75,1.23,7.34,7.34,0,0,1,.15,2.71c-.09.87-.24,1.74-.4,2.59s-.33,1.69-.47,2.53a11.53,11.53,0,0,1-.25,1.31,8.2,8.2,0,0,1-.45,1.29,16.13,16.13,0,0,1-3,4.39l-.4.44-.36-.5h0l-1.18-1.65-.13-.18,0-.21h0l.46-2.44.24-1.22.11-.61.06-.31,0-.15a2.31,2.31,0,0,1,.1-.28,1.41,1.41,0,0,1,.74-.65,3.56,3.56,0,0,1,.69-.21,8.73,8.73,0,0,0,1.13-.3,1.5,1.5,0,0,0,1.13-1.36c.14-.76.09-1.51-.29-1.71a1.79,1.79,0,0,0-.9-.23l-.28,0h-.15l-.27-.05a1,1,0,0,1-.47-.2,1.19,1.19,0,0,1-.35-.31,3.6,3.6,0,0,1-.66-1.31,9.19,9.19,0,0,1-.3-1.29,20.29,20.29,0,0,1-.23-2.56,14.52,14.52,0,0,1,.13-2.6,10.58,10.58,0,0,1,1-2.44,42.56,42.56,0,0,1,2.7-4.26c.5-.68,1-1.35,1.58-2a4.79,4.79,0,0,1,1.06-1,.89.89,0,0,1,.72,0,1.19,1.19,0,0,1,.46.36,2.5,2.5,0,0,1,.36.68,9.76,9.76,0,0,1,.47,2.55,16.31,16.31,0,0,1,0,2.52.19.19,0,0,1-.2.17A.19.19,0,0,1,157.91,148.46Z"/>
        <path d="M150,174.67a15.24,15.24,0,0,0,2-1.59,19.36,19.36,0,0,0,1.75-1.87,20.06,20.06,0,0,0,2.73-4.37s0,0,.08,0a.08.08,0,0,1,0,.08,20.13,20.13,0,0,1-4,6.73,16.3,16.3,0,0,1-1.93,1.87.51.51,0,0,1-.71-.08.5.5,0,0,1,.08-.7l0,0Z"/>
        <path d="M155.64,152.83a8,8,0,0,0-.87-2.8,5.67,5.67,0,0,0-.85-1.13,4.11,4.11,0,0,0-1.12-.74h0a.5.5,0,1,1,.42-.91l0,0a4.58,4.58,0,0,1,1.3,1.09,5.68,5.68,0,0,1,.83,1.4,8.39,8.39,0,0,1,.6,3.07.16.16,0,0,1-.16.16.16.16,0,0,1-.16-.14Z"/>
        <path d="M98.64,200.6a20,20,0,0,0,6.42,1.4c3,0,11.38-2.48,13.17-3.67,3.83-2.55,4.54-5,4.54-5" fill="none" stroke="#000" stroke-linecap="round" stroke-miterlimit="10" stroke-width="0.75"/>
        <path d="M87.92,193.44,78,195l-.22,0-.18-.19h0a30.67,30.67,0,0,1-5.28-9.41,19.72,19.72,0,0,1-.8-10.74,10.41,10.41,0,0,1,7.35-7.6,12,12,0,0,1,5.46-.06,15.55,15.55,0,0,1,5,2.12.36.36,0,0,1,.12.51.37.37,0,0,1-.52.12,14.48,14.48,0,0,0-4.77-2,11.26,11.26,0,0,0-5.1.06,9.62,9.62,0,0,0-6.74,7,18.91,18.91,0,0,0,.82,10.25,29.78,29.78,0,0,0,5.14,9.08h0l-.4-.15,10-.79a0,0,0,0,1,.06,0A.07.07,0,0,1,87.92,193.44Z"/>
        <path d="M127.61,184.65l10.4-6.5-.23.34h0a48.3,48.3,0,0,0,.16-9.84,27.91,27.91,0,0,0-.82-4.82,15.09,15.09,0,0,0-1.86-4.43,7.84,7.84,0,0,0-3.43-3.08,6.56,6.56,0,0,0-4.54-.25,17.68,17.68,0,0,0-7.82,5.44l0,0a.5.5,0,1,1-.74-.66,23,23,0,0,1,3.76-3.43,14.4,14.4,0,0,1,4.57-2.32,7.61,7.61,0,0,1,5.19.31,8.82,8.82,0,0,1,3.85,3.45,15.92,15.92,0,0,1,2,4.71,28.16,28.16,0,0,1,.84,5,48.84,48.84,0,0,1-.18,10h0l0,.24-.18.1-10.76,5.88a.11.11,0,0,1-.15,0A.11.11,0,0,1,127.61,184.65Z"/>
        <ellipse cx="95.46" cy="183.64" rx="3.42" ry="4.52" transform="translate(-24.28 14.83) rotate(-7.88)"/>
        <ellipse cx="117.38" cy="178.51" rx="3.4" ry="4.26"/>
        <path d="M33.51,223.25s.42-4,1.07-10.35,10.49-24.42,10.49-24.42" fill="none" stroke="#000" stroke-linecap="round" stroke-miterlimit="10"/>
        <path d="M41.21,214.94c-2.14,2.52-4.28,5-6.36,7.6a77,77,0,0,0-5.8,8c-.42.7-.82,1.41-1.17,2.13-.18.36-.33.73-.48,1.1a3.65,3.65,0,0,0-.1,1,16.84,16.84,0,0,0,1,4.67,97.56,97.56,0,0,0,3.65,9.16h0l-.13-.16c1.61,1.35,3.27,2.67,5,3.93.84.63,1.7,1.24,2.56,1.83A18.46,18.46,0,0,0,42,255.72h0a.5.5,0,0,1-.4.92h0A19.44,19.44,0,0,1,38.75,255q-1.34-.9-2.61-1.86-2.55-1.92-5-4l-.08-.07L31,249h0a83.35,83.35,0,0,1-3.79-9.24,17.38,17.38,0,0,1-1-5,4.3,4.3,0,0,1,.18-1.44c.17-.39.34-.78.53-1.16.39-.76.8-1.5,1.25-2.21a69.07,69.07,0,0,1,6-8,89.73,89.73,0,0,1,6.88-7.18.11.11,0,0,1,.15,0A.1.1,0,0,1,41.21,214.94Z"/>
        <path d="M34.5,248.23A31.1,31.1,0,0,1,32,243.88,15.71,15.71,0,0,1,30.58,239a4.4,4.4,0,0,1,.41-2.66,3.83,3.83,0,0,1,2.18-1.67,14.89,14.89,0,0,1,5.11-.49c1.68.05,3.34.25,5,.45s3.31.43,5,.77a97,97,0,0,1,9.66,2.63,115.87,115.87,0,0,1,18.45,7.64A63.71,63.71,0,0,1,84.87,251a32.63,32.63,0,0,1,3.82,3.34,12.84,12.84,0,0,1,2.85,4.28l0-.07a.69.69,0,0,1,.09.45,1.5,1.5,0,0,1,0,.26,2.51,2.51,0,0,1-.18.4,3.74,3.74,0,0,1-.46.61,7.92,7.92,0,0,1-1.07.95.19.19,0,0,1-.27,0,.19.19,0,0,1,0-.23c.26-.38.54-.74.75-1.11a3.17,3.17,0,0,0,.27-.56.8.8,0,0,0,.07-.24V259s0-.07,0,.11l0-.06a23.55,23.55,0,0,0-6.57-7,62.16,62.16,0,0,0-8.37-5.14,132.94,132.94,0,0,0-18.24-7.61,95.83,95.83,0,0,0-9.5-2.69c-1.59-.36-3.22-.58-4.85-.81s-3.27-.42-4.9-.51a13.85,13.85,0,0,0-4.75.32,2.89,2.89,0,0,0-1.72,1.22,3.7,3.7,0,0,0-.39,2.15,15.62,15.62,0,0,0,1.18,4.69,31.92,31.92,0,0,0,2.16,4.44.12.12,0,0,1,0,.17A.13.13,0,0,1,34.5,248.23Z"/>
        <path d="M78.37,234.6q4.45,5.57,8.82,11.22,2.19,2.82,4.32,5.69,1.06,1.44,2.1,2.91c.34.49.69,1,1,1.5a14.68,14.68,0,0,1,1,1.65l.05.12v.15h0a3.22,3.22,0,0,1-.17,1.12,4.08,4.08,0,0,1-.41.9,5.66,5.66,0,0,1-1.21,1.4l-2.52,2-5,4a.49.49,0,0,1-.7-.07.51.51,0,0,1,0-.69l4.75-4.3,2.34-2.13A3.76,3.76,0,0,0,93.6,259a2.19,2.19,0,0,0,.21-.57,1.25,1.25,0,0,0,0-.46h0l.06.26a25.05,25.05,0,0,0-1.68-2.94c-.63-1-1.28-2-1.94-3q-2-3-4-5.88-4.08-5.83-8.27-11.61a.22.22,0,0,1,0-.31A.22.22,0,0,1,78.37,234.6Z"/>
        <path d="M47.76,191c.07,3.35.25,6.72.54,10.06a41.43,41.43,0,0,0,1.75,9.8,5.92,5.92,0,0,0,.49,1.08l.29.5c.12.17.26.32.38.48.52.64,1.1,1.24,1.67,1.85,1.16,1.2,2.38,2.36,3.61,3.5,2.48,2.28,5,4.5,7.57,6.7a.1.1,0,0,1,0,.16.11.11,0,0,1-.16,0c-2.7-2-5.34-4.12-7.91-6.33-1.27-1.11-2.53-2.25-3.74-3.44-.61-.6-1.19-1.22-1.75-1.88-.13-.17-.28-.33-.41-.51l-.36-.59a7.24,7.24,0,0,1-.56-1.2,42.65,42.65,0,0,1-1.9-10c-.35-3.37-.48-6.75-.52-10.14a.51.51,0,0,1,.5-.51.5.5,0,0,1,.5.49Z"/>
        <path d="M51.31,194.42c.88,2.89,1.67,5.83,2.67,8.7a54.39,54.39,0,0,0,3.6,8.33.22.22,0,0,1-.08.3.22.22,0,0,1-.29-.07,46.49,46.49,0,0,1-4.05-8.26,61.68,61.68,0,0,1-2.82-8.76.51.51,0,0,1,.39-.59.49.49,0,0,1,.58.34Z"/>
        <path d="M39.53,235s-.33,11.78.44,14.1,2.57,8.25,2.57,11.42S40.61,270.8,41,274.25s4.69,12.95,4.69,12.95" fill="none" stroke="#000" stroke-linecap="round" stroke-miterlimit="10"/>
        <path d="M48.5,273.37c-.38,3-.83,6-1.3,8.93s-1,5.92-1.59,8.87c-.29,1.48-.6,3-.93,4.43-.17.74-.33,1.47-.54,2.21-.1.37-.23.75-.37,1.13a7.43,7.43,0,0,0-.31,1,14.7,14.7,0,0,0-.18,4.31,36,36,0,0,0,.6,4.38h0l-.06-.14,8.29,13.89a.5.5,0,0,1-.86.52L43,309l0-.07v-.07h0a36.26,36.26,0,0,1-.75-4.51,15.33,15.33,0,0,1,.17-4.67,9.12,9.12,0,0,1,.36-1.15c.11-.33.23-.65.32-1,.21-.7.38-1.43.56-2.15.34-1.45.66-2.92,1-4.38l1.82-8.82,1.88-8.81a.14.14,0,0,1,.16-.11A.13.13,0,0,1,48.5,273.37Z"/>
        <path d="M61.37,309.76c-1.39,1.42-2.8,2.83-4.12,4.28a12.19,12.19,0,0,0-1.74,2.26,24.46,24.46,0,0,0-1.31,2.61,57.12,57.12,0,0,0-2.05,5.52c-.29.94-.54,1.89-.73,2.82s-.22,1.95-.36,2.92v0a.5.5,0,0,1-.57.42.49.49,0,0,1-.42-.53c.07-1,.08-2,.23-3a24.22,24.22,0,0,1,.7-3,40.62,40.62,0,0,1,2.11-5.67,25.93,25.93,0,0,1,1.4-2.72,12.82,12.82,0,0,1,2-2.38,41.4,41.4,0,0,1,4.59-3.89.22.22,0,0,1,.28.33Z"/>
        <path d="M56.05,321.9q-2.77,4.94-5.8,9.67L48.74,334c-.48.79-1.06,1.6-1.45,2.35a12.64,12.64,0,0,0-1.24,5.17c0,.45,0,.9,0,1.35l0,.68a1.84,1.84,0,0,0,.1.52,2.12,2.12,0,0,0,.58.89,2.83,2.83,0,0,0,.43.32l.61.34c1.62.93,3.27,1.82,4.94,2.62s3.41,1.45,5.14,2.21a6.53,6.53,0,0,0,2.49.71,5.38,5.38,0,0,0,1.26-.12l1.36-.33a.5.5,0,0,1,.26,1L61.9,352a5.35,5.35,0,0,1-1.54.21,5.72,5.72,0,0,1-1.54-.21c-.53-.15-.94-.34-1.38-.5-1.75-.67-3.53-1.31-5.26-2.13s-3.41-1.69-5.06-2.61l-.61-.35a3.85,3.85,0,0,1-.7-.52,3.53,3.53,0,0,1-.92-1.47,3.47,3.47,0,0,1-.17-.85l0-.73c0-.49,0-1,0-1.47a13.84,13.84,0,0,1,1.43-5.7,23.72,23.72,0,0,1,1.58-2.4L49.33,331q3.21-4.65,6.67-9.11s0,0,0,0A0,0,0,0,1,56.05,321.9Z"/>
        <path d="M39.08,245.72a41.77,41.77,0,0,1-3.8-6.48.06.06,0,1,1,.11-.05,42.88,42.88,0,0,0,4.46,5.9h0a.48.48,0,0,1,0,.7.5.5,0,0,1-.71,0Z"/>
        <line x1="84.54" y1="251.54" x2="86.49" y2="272.98" fill="none" stroke="#000" stroke-linecap="round" stroke-miterlimit="10"/>
        <path d="M92.45,310.87l7.1.8.19,0,.12.17h0c1.4,2.1,2.78,4.2,4.08,6.36a24.46,24.46,0,0,1,1.81,3.41,2.19,2.19,0,0,1,.13.62l0,.46,0,.94.06,1.87h0a.5.5,0,1,1-1,0h0l0-1.89,0-.95v-.47a2.75,2.75,0,0,0-.08-.3,24.58,24.58,0,0,0-1.7-3.24c-1.28-2.15-2.64-4.26-4-6.35h0l.3.2-7-1.17a.26.26,0,0,1-.21-.3A.26.26,0,0,1,92.45,310.87Z"/>
        <path d="M81.13,285.18q2.19,2.44,4.31,4.95c1.43,1.66,2.8,3.36,4.19,5.05s2.73,3.42,4.06,5.16a57.7,57.7,0,0,1,3.8,5.43l0,0,0,.05c.32,1,.6,1.91.86,2.88a19.77,19.77,0,0,1,.65,3,.5.5,0,0,1-.44.55.49.49,0,0,1-.55-.43v0a20.32,20.32,0,0,0-.68-2.8c-.28-.94-.59-1.89-.89-2.82l0,.09c-1.08-1.8-2.43-3.55-3.71-5.3s-2.64-3.47-4-5.2l-4-5.2-4-5.23a.16.16,0,0,1,0-.22A.17.17,0,0,1,81.13,285.18Z"/>
        <path d="M79.09,277.1c1.79,1.35,3.57,2.73,5.31,4.15s3.45,2.86,5.11,4.43a7,7,0,0,1,.62.68,1.48,1.48,0,0,1,.27.44,2.54,2.54,0,0,1,.17.45,16.12,16.12,0,0,1,.43,1.69c.23,1.11.43,2.22.61,3.33q.51,3.35.84,6.7a.5.5,0,0,1-1,.12l-1-6.64c-.17-1.11-.34-2.21-.55-3.3a15.2,15.2,0,0,0-.36-1.58,2.38,2.38,0,0,0-.12-.33.66.66,0,0,0-.16-.28,5.84,5.84,0,0,0-.5-.59c-1.52-1.59-3.21-3.08-4.84-4.61l-5-4.56a.06.06,0,0,1,0-.09A.06.06,0,0,1,79.09,277.1Z"/>
        <path d="M76.48,264.41l6.29,5.11,3.12,2.59c1,.89,2.06,1.73,3.08,2.72h0l.13.12v.21c.09,1.69.14,3.38.14,5.08q0,1.27-.06,2.55a17.76,17.76,0,0,1-.26,2.59.5.5,0,0,1-1-.17v0a31,31,0,0,0,.27-4.95c0-1.67-.07-3.35-.16-5l.13.32h0c-.87-.93-1.89-1.86-2.87-2.77l-3-2.73-6-5.39a.16.16,0,0,1,0-.22A.15.15,0,0,1,76.48,264.41Z"/>
        <path d="M70.48,327.77a77.61,77.61,0,0,0-6,8.33,11.35,11.35,0,0,0-1.78,4.52,22.64,22.64,0,0,0,.07,5,34.58,34.58,0,0,0,2.6,9.73,19.32,19.32,0,0,0,2.65,4.2,16.33,16.33,0,0,0,3.62,3.34h0l-.31-.08c1.6,0,3.21,0,4.81-.1a16,16,0,0,0,2.29-.21,3.34,3.34,0,0,0,1.69-1l0-.06a.64.64,0,0,1,1,.83h0a4.47,4.47,0,0,1-2.42,1.44,15.46,15.46,0,0,1-2.53.25c-1.63.07-3.25.09-4.87.1h-.17L71,364h0a18.93,18.93,0,0,1-7-8,33.1,33.1,0,0,1-2.69-10.21,22.62,22.62,0,0,1,0-5.33,9.38,9.38,0,0,1,.82-2.65,20.12,20.12,0,0,1,1.31-2.32,52.65,52.65,0,0,1,6.68-8,.25.25,0,0,1,.34,0,.24.24,0,0,1,0,.32Z"/>
        <path d="M72.86,351.33s4.2,10.71,9.69,10.2a10.68,10.68,0,0,0,7.9-4.46" fill="none" stroke="#000" stroke-linecap="round" stroke-miterlimit="10" stroke-width="1.28"/>
        <path d="M84.33,345.21s3.32,12.5,8.42,11.48,9.44-5.49,9.44-5.49" fill="none" stroke="#000" stroke-linecap="round" stroke-miterlimit="10" stroke-width="1.28"/>
        <path d="M97.71,335.51c.69,3,1.46,5.95,2.39,8.85a37,37,0,0,0,1.59,4.24,8,8,0,0,0,1.08,1.8.87.87,0,0,0,.27.23s.06,0,.06,0,.09,0,.16,0a1.45,1.45,0,0,0,.44-.06,2.85,2.85,0,0,0,.48-.13,14.84,14.84,0,0,0,3.79-2.23,19.58,19.58,0,0,0,1.7-1.44,10.62,10.62,0,0,0,.74-.78l.14-.18.06-.09h0c0,.05,0-.1,0-.17l0-.27a30,30,0,0,0-.52-9c-.66-2.89-2.3-5.51-3.93-8.07-.84-1.27-1.73-2.53-2.67-3.68-.12-.14-.24-.29-.35-.4a2,2,0,0,0-.36-.29l-1-.59c-.65-.38-1.33-.79-2-1.13a14.81,14.81,0,0,0-8.68-1.48c-1.52.12-3,.27-4.55.5a19.69,19.69,0,0,0-4.41,1h0a.24.24,0,0,1-.32-.13.26.26,0,0,1,.13-.33,32.5,32.5,0,0,1,9.08-2,15.41,15.41,0,0,1,9.26,1.44c.72.38,1.36.76,2,1.15.34.2.67.4,1,.62a2.74,2.74,0,0,1,.54.42c.16.17.28.31.41.47,1,1.22,1.9,2.48,2.77,3.77a46.1,46.1,0,0,1,2.41,4,18.41,18.41,0,0,1,1.74,4.42,31.42,31.42,0,0,1,.6,9.37l0,.3a1.32,1.32,0,0,1-.08.39,2.18,2.18,0,0,1-.11.27l-.1.15a3.4,3.4,0,0,1-.21.28,10.37,10.37,0,0,1-.84.9c-.58.55-1.18,1.06-1.8,1.55a16.08,16.08,0,0,1-4.14,2.44,3.86,3.86,0,0,1-.63.18,2.86,2.86,0,0,1-.69.1,1.55,1.55,0,0,1-.89-.2,2.16,2.16,0,0,1-.6-.49,8.7,8.7,0,0,1-1.31-2.13,39,39,0,0,1-1.64-4.4c-.93-3-1.7-5.95-2.39-9a.64.64,0,0,1,1.25-.28Z"/>
        <path d="M73.06,337.6c0,.7.1,1.4.18,2.08a7.19,7.19,0,0,0,.42,1.88,12.38,12.38,0,0,0,1,1.71l1.2,1.76h0a.15.15,0,0,1,0,.2.16.16,0,0,1-.15,0,7.38,7.38,0,0,1-1.81-1.32,6.61,6.61,0,0,1-1.37-1.87,5.53,5.53,0,0,1-.41-2.33,7.27,7.27,0,0,1,.36-2.22.3.3,0,0,1,.39-.2.31.31,0,0,1,.22.27Z"/>
        <path d="M63.71,343.57a9.45,9.45,0,0,0,.4,2.65,8.12,8.12,0,0,0,.67,1.15c.26.39.54.77.81,1.18a.11.11,0,0,1,0,.14.12.12,0,0,1-.1,0,4.85,4.85,0,0,1-1.21-.89,3.91,3.91,0,0,1-.92-1.25,3.47,3.47,0,0,1-.28-1.56,5,5,0,0,1,.24-1.49.21.21,0,0,1,.27-.13.21.21,0,0,1,.14.18Z"/>
        <path d="M79,341.82a14.51,14.51,0,0,0-.63-4.73v0a.5.5,0,0,1,1-.33s0,.05,0,.07a15.22,15.22,0,0,1,0,5,.16.16,0,0,1-.18.14.16.16,0,0,1-.14-.16Z"/>
        <path d="M91,336.62a14.51,14.51,0,0,0-.63-4.73h0a.5.5,0,0,1,.95-.33.25.25,0,0,0,0,.07,15.42,15.42,0,0,1,0,5,.16.16,0,0,1-.18.14.16.16,0,0,1-.14-.16Z"/>
        <path d="M85.54,335.05a3.78,3.78,0,0,0,.18.74,7.05,7.05,0,0,0,.3.76,8.24,8.24,0,0,0,.84,1.43.2.2,0,0,1,0,.28.2.2,0,0,1-.26,0,9.13,9.13,0,0,1-1.12-1.35,8.69,8.69,0,0,1-.46-.77,5,5,0,0,1-.37-.87.49.49,0,0,1,.31-.61.49.49,0,0,1,.61.32s0,.05,0,.08Z"/>
        <path d="M98.18,328.55a4.94,4.94,0,0,0,.18.74c.09.26.19.51.3.76a10.91,10.91,0,0,0,.84,1.43.2.2,0,0,1,0,.28.2.2,0,0,1-.26,0,10,10,0,0,1-1.13-1.36,8.24,8.24,0,0,1-.46-.77,5.06,5.06,0,0,1-.37-.87.48.48,0,1,1,.92-.28.19.19,0,0,1,0,.08Z"/>
        <path d="M105.12,331.67a16.85,16.85,0,0,0,0-3.55A5.76,5.76,0,0,0,104,325h0a.5.5,0,0,1,.76-.65l0,0a5,5,0,0,1,.77,1.83,9.22,9.22,0,0,1,.2,1.87,17.75,17.75,0,0,1-.35,3.64.16.16,0,0,1-.19.13.16.16,0,0,1-.13-.17Z"/>
        <path d="M54.09,347a10.07,10.07,0,0,1-4.28-1.55,4.81,4.81,0,0,1-1.59-1.78,3.85,3.85,0,0,1-.35-2.43,8.41,8.41,0,0,1,.91-2.16c.37-.67.78-1.29,1.2-1.92.84-1.23,1.75-2.41,2.69-3.57A83.66,83.66,0,0,1,65.27,321a28.21,28.21,0,0,1,3.76-2.5,8.71,8.71,0,0,1,2.15-.86c.37-.1.74-.21,1.11-.28l1.13-.18a43.23,43.23,0,0,1,9-.16,69.66,69.66,0,0,1,8.85,1.19c1.46.27,2.91.64,4.35,1.05A18.86,18.86,0,0,1,99.79,321a.5.5,0,0,1,.16.69.49.49,0,0,1-.68.16h0a18.3,18.3,0,0,0-4-1.59c-1.4-.4-2.82-.75-4.26-1a71.28,71.28,0,0,0-8.72-1.15,41.81,41.81,0,0,0-8.74.12l-1.07.16c-.35.07-.69.17-1,.26a7.87,7.87,0,0,0-2,.78,26.32,26.32,0,0,0-3.62,2.39,82.66,82.66,0,0,0-12.5,12.38c-.92,1.13-1.82,2.29-2.65,3.5a13.52,13.52,0,0,0-2,3.74,3.05,3.05,0,0,0,.23,1.88,4.25,4.25,0,0,0,1.3,1.51,7.51,7.51,0,0,0,1.84,1,11.46,11.46,0,0,0,2.05.68h0a.24.24,0,0,1-.09.48Z"/>
        <path d="M63.36,336.59A52.1,52.1,0,0,1,60,326.4" fill="none" stroke="#000" stroke-linecap="round" stroke-miterlimit="10"/>
        <path d="M111.54,343.63s2.13.95,2.53,2.29a7.18,7.18,0,0,1-.37,3.5s-3.5,4.3-5.25,5.24-5.92,1.62-6.86,2.29-2.52,2.6-4.6,2.9a2.72,2.72,0,0,1-2.89-3.26" fill="none" stroke="#000" stroke-linecap="round" stroke-miterlimit="10"/>
        <path d="M108.93,354.52c.91,2.69,1.84,5.39,2.91,8,.26.66.55,1.29.86,1.91a6.68,6.68,0,0,0,.51.84c0,.05.09.14.12.17l.1.09a1.72,1.72,0,0,0,.36.18c1.29.45,2.69.78,4.07,1.11,2.78.63,5.58,1.15,8.4,1.58a78.36,78.36,0,0,0,8.51.86.17.17,0,0,1,.15.17.15.15,0,0,1-.15.15,61.75,61.75,0,0,1-8.6-.49c-2.85-.34-5.69-.77-8.51-1.33a42,42,0,0,1-4.24-1,2.47,2.47,0,0,1-.6-.28l-.3-.27a2.19,2.19,0,0,1-.2-.25,7.57,7.57,0,0,1-.61-1c-.34-.66-.65-1.32-.93-2a79.39,79.39,0,0,1-2.81-8.16.5.5,0,0,1,.34-.62.49.49,0,0,1,.61.32Z"/>
        <path d="M120.53,367.61c1.37,2.14,2.78,4.26,4.26,6.31.75,1,1.51,2,2.34,2.95a3,3,0,0,0,1.25,1,5.47,5.47,0,0,0,1.72-.14,27.32,27.32,0,0,0,3.58-1.1c.6-.22,1.18-.45,1.77-.69a5.73,5.73,0,0,1,1-.36,2.79,2.79,0,0,1,1.15,0,3.32,3.32,0,0,1,.54.15l.43.15c.29.09.58.17.88.24a18.4,18.4,0,0,0,1.83.32,24.4,24.4,0,0,0,3.73.14,4.58,4.58,0,0,0,3.23-1.08,4,4,0,0,0,1-1.35c.24-.53.49-1.15.74-1.73l3-7c1.95-4.7,4-9.36,5.84-14.09h0a.14.14,0,0,1,.18-.08.13.13,0,0,1,.08.16c-.69,2.47-1.58,4.86-2.47,7.25s-1.85,4.75-2.79,7.12-1.93,4.71-2.91,7.06c-.25.6-.47,1.16-.75,1.78a5.23,5.23,0,0,1-3.09,2.69,6.5,6.5,0,0,1-2,.3,26.58,26.58,0,0,1-3.89-.14,18.31,18.31,0,0,1-1.94-.34c-.32-.08-.64-.17-1-.27l-.48-.17a1.7,1.7,0,0,0-.37-.1,1.89,1.89,0,0,0-.75,0,7.55,7.55,0,0,0-.82.31c-.6.24-1.19.47-1.8.69a28.54,28.54,0,0,1-3.72,1.11,6.1,6.1,0,0,1-2.07.13,2.26,2.26,0,0,1-1-.55,6.87,6.87,0,0,1-.71-.72,34.21,34.21,0,0,1-2.35-3.07c-1.47-2.1-2.84-4.25-4.18-6.42a.34.34,0,0,1,.12-.48A.34.34,0,0,1,120.53,367.61Z"/>
        <path d="M150.72,372.07a21.74,21.74,0,0,0,10.08-8.56c3.07-4.83,4.82-13.38,5.52-17.42a6.2,6.2,0,0,0-.74-4.13l-6.43-11" fill="none" stroke="#000" stroke-linecap="round" stroke-miterlimit="10"/>
        <path d="M146.17,271.92c-1.53,3.78-3.26,7.46-4.94,11.16-.85,1.84-1.69,3.69-2.47,5.56-.2.46-.38.93-.55,1.39l-.23.68a1.34,1.34,0,0,0-.06.57c.06,1,.15,2,.27,3a95.74,95.74,0,0,0,2,11.94A49.31,49.31,0,0,0,142,312a18.53,18.53,0,0,0,2.81,5.18l-.13-.11h0a83.29,83.29,0,0,0,7.86,3.61c1.32.52,2.74,1,4.08,1.61s2.63,1.35,3.9,2a9.56,9.56,0,0,0,3.92,1.15,4.58,4.58,0,0,0,1.92-.28,10.2,10.2,0,0,0,1.84-.92,38.41,38.41,0,0,0,6.46-5.61c1-1,2-2.1,2.93-3.19a27.24,27.24,0,0,0,2.55-3.43c1.57-2.42,3-4.92,4.41-7.46a71.44,71.44,0,0,0,3.74-7.8l.36-1c.09-.33.2-.67.26-1a11.53,11.53,0,0,0,.08-2.07,9.55,9.55,0,0,0-.66-4.13.15.15,0,0,1,.06-.19.16.16,0,0,1,.17,0,4.74,4.74,0,0,1,1,2,12.84,12.84,0,0,1,.34,2.21,9.7,9.7,0,0,1,0,2.28c-.08.39-.19.74-.28,1.12l-.37,1.05a72,72,0,0,1-3.75,7.94c-1.38,2.58-2.83,5.1-4.4,7.57a27.42,27.42,0,0,1-2.63,3.58c-1,1.1-1.93,2.19-3,3.24a38.65,38.65,0,0,1-6.68,5.79,12,12,0,0,1-2.06,1,6,6,0,0,1-2.36.34,10.56,10.56,0,0,1-4.38-1.28c-1.33-.66-2.56-1.39-3.86-2s-2.63-1.07-4-1.63a84.31,84.31,0,0,1-7.94-3.73h0l-.08,0-.06-.07a19.67,19.67,0,0,1-3.1-5.44,43.7,43.7,0,0,1-1.88-5.88,89,89,0,0,1-2.09-12.1c-.11-1-.2-2-.25-3.09a2.69,2.69,0,0,1,.11-.93l.26-.77c.19-.48.38-1,.58-1.43.8-1.89,1.66-3.74,2.53-5.59,1.76-3.67,3.57-7.32,5.64-10.84a.18.18,0,0,1,.32.16Z"/>
        <path d="M154.6,322a6.6,6.6,0,0,0,.25,3,11.71,11.71,0,0,0,1.56,2.68,10.87,10.87,0,0,0,2.2,2.19,5.43,5.43,0,0,0,2.7,1.14,14.57,14.57,0,0,0,3.13-.17c1.06-.13,2.13-.34,3.19-.54,2.12-.45,4.23-1,6.3-1.58a32.1,32.1,0,0,0,3-1c.25-.09.47-.21.71-.31a2.3,2.3,0,0,0,.55-.39,15.36,15.36,0,0,0,1-1.16c1.38-1.66,2.69-3.41,4-5.14,2.66-3.46,5.27-7,8-10.36a.13.13,0,0,1,.17,0,.11.11,0,0,1,0,.16c-2.32,3.71-4.83,7.29-7.4,10.84-1.29,1.76-2.6,3.51-4,5.23l-.54.64a7.13,7.13,0,0,1-.61.64,3.16,3.16,0,0,1-.78.56c-.26.12-.52.25-.78.36-1,.43-2.1.77-3.15,1.1-2.11.64-4.24,1.19-6.41,1.62-1.08.21-2.16.42-3.27.55a15.31,15.31,0,0,1-3.41.16,6.56,6.56,0,0,1-3.26-1.37,11.8,11.8,0,0,1-2.39-2.45,12.54,12.54,0,0,1-1.67-3,7.37,7.37,0,0,1-.24-3.52.5.5,0,0,1,1,.16Z"/>
        <path d="M138.5,287.5a27.76,27.76,0,0,1-1.66-13.87c1-7.84,14.32-21.41,16.73-22.91s9.35-5,11.31-5,15.08,3.62,16.58,4.82.91,3.62,1.81,4.68.76,3.31.76,3.31" fill="none" stroke="#000" stroke-linecap="round" stroke-miterlimit="10"/>
        <path d="M204.08,290.18a23.56,23.56,0,0,1,2.72,3,9.65,9.65,0,0,1,1.87,3.73,3.94,3.94,0,0,1,0,1.14,4.19,4.19,0,0,1-.31,1.07c-.26.65-.56,1.24-.87,1.84-.61,1.19-1.27,2.35-1.94,3.5-2.69,4.59-5.54,9.06-8.48,13.49-.74,1.1-1.48,2.2-2.26,3.29a13.2,13.2,0,0,1-3,2.81,55.07,55.07,0,0,1-6.83,4.19,47.15,47.15,0,0,1-7.36,3.19,15.93,15.93,0,0,1-2,.5,13.33,13.33,0,0,1-4.12-.12,5.22,5.22,0,0,1-1-.35,2.16,2.16,0,0,1-.51-.32,1.17,1.17,0,0,1-.43-.65A.42.42,0,0,1,170,330a.41.41,0,0,1,.47.35c0-.07.06.09.15.14a1.55,1.55,0,0,0,.33.21,4.68,4.68,0,0,0,.85.27,12.54,12.54,0,0,0,3.8.11,14.27,14.27,0,0,0,1.87-.48,45.42,45.42,0,0,0,7.2-3.15,53.38,53.38,0,0,0,6.7-4.14,11.79,11.79,0,0,0,2.78-2.62c.76-1.06,1.5-2.17,2.23-3.27,2.92-4.41,5.76-8.89,8.42-13.45.66-1.15,1.3-2.3,1.9-3.46.3-.59.59-1.18.83-1.76a2.7,2.7,0,0,0,.21-1.67A8.83,8.83,0,0,0,206,293.8a23,23,0,0,0-2.6-2.88h0a.5.5,0,0,1,0-.71.49.49,0,0,1,.7,0Z"/>
        <path d="M203.35,296.57c0-3.94-.07-7.9-.44-11.81-.1-1-.22-1.94-.39-2.9a8.41,8.41,0,0,0-.87-2.69,31.24,31.24,0,0,0-3.22-4.86,84.82,84.82,0,0,0-7.88-8.75,81.15,81.15,0,0,0-8.94-7.65c-.79-.57-1.59-1.15-2.42-1.66-.41-.25-.81-.53-1.23-.78l-1.27-.7c-.84-.51-1.74-.83-2.61-1.25a22.19,22.19,0,0,0-2.74-.84,17.37,17.37,0,0,0-11.18,1.12,25.08,25.08,0,0,0-4.91,3c-1.5,1.22-3,2.57-4.37,3.92s-2.83,2.75-4.16,4.19a23.51,23.51,0,0,0-3.57,4.62v0a.16.16,0,0,1-.22.07.15.15,0,0,1-.07-.21,22.06,22.06,0,0,1,3.35-5q1.92-2.28,4-4.41c1.4-1.41,2.8-2.8,4.33-4.12a25.57,25.57,0,0,1,5.13-3.25,19.18,19.18,0,0,1,5.87-1.66,17.87,17.87,0,0,1,6.1.42,23,23,0,0,1,2.92.91,26.48,26.48,0,0,1,2.73,1.33l1.31.74c.43.26.84.55,1.26.82.85.53,1.66,1.12,2.46,1.72a83.86,83.86,0,0,1,9,7.84,87,87,0,0,1,7.88,8.94,32.25,32.25,0,0,1,3.27,5,8.15,8.15,0,0,1,.59,1.45,13.15,13.15,0,0,1,.31,1.49c.15,1,.26,2,.34,3,.29,4,.29,7.93.19,11.89a.27.27,0,0,1-.27.27A.28.28,0,0,1,203.35,296.57Z"/>
        <path d="M158.1,330.06c-.47,2.94-1.08,5.85-1.68,8.77v.08l-2.6,6.63c-.87,2.21-1.77,4.4-2.69,6.59a.14.14,0,0,1-.18.08.15.15,0,0,1-.08-.17c.72-2.26,1.45-4.52,2.21-6.77l2.3-6.73,0,.08c.55-2.93,1.09-5.86,1.78-8.76a.5.5,0,0,1,1,.2Z"/>
        <path d="M113.8,349.29,126,358.71l-.21-.08h0c4.69.36,9.4.77,14.07,1h.57s-.09,0-.07,0l0,0a4.51,4.51,0,0,0,.41-.68c.26-.5.5-1,.74-1.57.47-1.07.9-2.16,1.33-3.25q1.28-3.28,2.42-6.62a69.33,69.33,0,0,0,2-6.73c.56-2.28,1.08-4.57,1.51-6.87a60.86,60.86,0,0,0,.93-7,17.59,17.59,0,0,0-.65-6.81v0a.38.38,0,0,1,.22-.48.37.37,0,0,1,.48.23h0a17.92,17.92,0,0,1,.71,7.14,61.37,61.37,0,0,1-.94,7c-.43,2.33-1,4.63-1.53,6.92a66.26,66.26,0,0,1-2,6.79c-.77,2.24-1.57,4.45-2.43,6.65-.43,1.1-.87,2.19-1.34,3.28-.24.54-.49,1.08-.77,1.62a4.72,4.72,0,0,1-.51.82l-.11.12a.71.71,0,0,1-.26.14l-.28,0h-.47c-4.73-.22-9.41-.63-14.11-1h-.12l-.08-.07-11.9-9.74a.17.17,0,0,1,0-.24A.16.16,0,0,1,113.8,349.29Z"/>
        <path d="M111.87,326.65c3.45,3.12,7,6.14,10.65,9,1.83,1.42,3.7,2.79,5.63,4.06a24.45,24.45,0,0,0,6,3.11l-.1,0c2.1.2,4.2.34,6.3.46,1,.06,2.11.12,3.15.13a13.29,13.29,0,0,0,3-.18h.08a.37.37,0,0,1,.45.27.38.38,0,0,1-.25.44,11.59,11.59,0,0,1-3.28.42c-1.08,0-2.14,0-3.2,0-2.13-.08-4.24-.25-6.36-.43h-.1a25.67,25.67,0,0,1-6.27-3.36c-1.93-1.33-3.8-2.74-5.59-4.24-3.6-3-7-6.13-10.32-9.44a.12.12,0,0,1,0-.16A.11.11,0,0,1,111.87,326.65Z"/>
        <path d="M138.15,317.62c1.93.81,3.87,1.59,5.82,2.36,1,.38,1.95.75,2.93,1.1a20.25,20.25,0,0,0,2.9.89l.06,0a.49.49,0,0,1,.4.58.5.5,0,0,1-.58.4h0a21,21,0,0,1-3.05-1.11c-1-.41-1.93-.84-2.88-1.27-1.91-.88-3.8-1.77-5.69-2.68a.15.15,0,0,1-.07-.21A.15.15,0,0,1,138.15,317.62Z"/>
        <path d="M122.07,299.85a56.41,56.41,0,0,0,4,5.89,58.84,58.84,0,0,0,4.69,5.41.11.11,0,1,1-.16.16,59.68,59.68,0,0,1-5-5.18,56.45,56.45,0,0,1-4.38-5.77.5.5,0,0,1,.14-.69.51.51,0,0,1,.7.14v0Z"/>
        <path d="M100.36,277.06a59.54,59.54,0,0,0,.74,8.33,29,29,0,0,0,.91,4.05,13.12,13.12,0,0,0,1.63,3.65h0a.64.64,0,0,1-1,.74h0a13.86,13.86,0,0,1-1.75-4.05,32.48,32.48,0,0,1-.88-4.21,62.11,62.11,0,0,1-.61-8.51.5.5,0,0,1,1,0Z"/>
        <path d="M106.21,277.29a67.85,67.85,0,0,0,2.06,8.47,40.71,40.71,0,0,0,3.41,8.05.11.11,0,0,1,0,.13.1.1,0,0,1-.12,0,41.19,41.19,0,0,1-4-7.88,67.81,67.81,0,0,1-2.72-8.46.72.72,0,1,1,1.4-.35.09.09,0,0,1,0,0Z"/>
        <path d="M123.29,272.49q.46,4.85,1.14,9.69c.22,1.61.47,3.21.76,4.81a42.49,42.49,0,0,0,1.1,4.75,0,0,0,1,1-.07,0,40.2,40.2,0,0,1-1.45-4.68c-.41-1.59-.78-3.18-1.12-4.78-.69-3.19-1.3-6.4-1.86-9.63a.76.76,0,0,1,1.5-.26v.06Z"/>
        <path d="M137.37,293c-1.94-2.59-4.66-10.11-5.31-13.22s-3.54-10-2.72-10.42,3.26,4,4.2,8.94c.83,4.3,2.94,8.33,3.77,12.72" fill="none" stroke="#000" stroke-linecap="round" stroke-miterlimit="10"/>
        <path d="M88.58,275.19s10.68,1.73,13,1.88a61.07,61.07,0,0,0,9.42-.59c1.77-.29,17.23-6.33,21.2-8.69a110.77,110.77,0,0,1,10-5" fill="none" stroke="#000" stroke-linecap="round" stroke-miterlimit="10"/>
        <path d="M96.15,263.61c3.93.54,7.84,1.13,11.74,1.88a56.14,56.14,0,0,1,11.45,3.4h-.44q8.28-4.14,16.51-8.36c2.72-1.43,5.51-2.82,8.11-4.38a1,1,0,0,0,.35-.27,3.63,3.63,0,0,0,.25-.45c.15-.33.3-.69.44-1,.28-.71.54-1.43.79-2.16.51-1.45,1-2.91,1.47-4.38l5.72-17.6c1-2.92,2-5.85,3.08-8.74a75.19,75.19,0,0,1,3.66-8.51,0,0,0,0,1,.07,0,0,0,0,0,1,0,.06c-.66,1.4-1.2,2.84-1.72,4.29s-1,2.9-1.53,4.36c-1,2.92-1.94,5.85-2.87,8.79l-5.7,17.61c-.49,1.47-1,2.93-1.49,4.39-.26.73-.53,1.46-.82,2.18-.14.36-.29.73-.46,1.09a5.39,5.39,0,0,1-.31.56,1.91,1.91,0,0,1-.54.46c-2.68,1.63-5.41,3-8.14,4.49q-8.19,4.32-16.44,8.52l-.21.11-.22-.1h0a51.63,51.63,0,0,0-5.47-2.13,55.76,55.76,0,0,0-5.7-1.55c-3.85-.86-7.74-1.57-11.64-2.22a.14.14,0,0,1-.12-.17A.15.15,0,0,1,96.15,263.61Z"/>
        <path d="M86.29,269.17a8.71,8.71,0,0,0,5.59,2.73c3.27.11,25.26-3.29,25.26-3.29" fill="none" stroke="#000" stroke-linecap="round" stroke-miterlimit="10"/>
        <path d="M145.43,252.16q4-4.18,7.87-8.47c2.57-2.85,5.21-5.7,7.48-8.73A55.39,55.39,0,0,0,166,224.8c.72-1.77,1.4-3.57,1.94-5.38a8.87,8.87,0,0,0,.52-2.66c0-.92-.13-1.88-.24-2.82-1-7.63-2.29-15.25-3-22.95-.19-1.92-.35-3.85-.43-5.79s-.06-3.86-.09-5.79l-.14-11.58a.11.11,0,0,1,.22,0l.43,11.56.23,5.78c.11,1.91.3,3.83.53,5.74.92,7.65,2.32,15.22,3.37,22.89.12,1,.24,1.93.28,2.94a5.61,5.61,0,0,1,0,.81c0,.25-.09.51-.15.76-.11.48-.24,1-.38,1.43-.57,1.88-1.26,3.69-2,5.49a56.09,56.09,0,0,1-5.36,10.38c-2.35,3.15-5,6-7.57,8.84s-5.28,5.63-8,8.4a.5.5,0,0,1-.71,0A.5.5,0,0,1,145.43,252.16Z"/>
        <path d="M158.37,170.92c0,3.07.08,6.16.23,9.24.09,1.54.18,3.08.35,4.61a18.26,18.26,0,0,0,.9,4.49h0a.11.11,0,0,1-.06.14.1.1,0,0,1-.14-.06,18.32,18.32,0,0,1-1.12-4.53c-.23-1.53-.39-3.07-.54-4.61-.29-3.09-.49-6.18-.63-9.28a.5.5,0,0,1,.48-.52.51.51,0,0,1,.52.48Z"/>
        <path d="M168.79,157s1.27,0,1.34,22.63c0,4.74-2.65,14-4.11,13.37" fill="none" stroke="#000" stroke-linecap="round" stroke-miterlimit="10"/>
        <path d="M88.3,240.78,93.7,246c.91.86,1.81,1.73,2.73,2.57a25.1,25.1,0,0,0,2.84,2.32,6.61,6.61,0,0,0,1.62.66c.58.2,1.19.36,1.78.55,1.2.34,2.41.67,3.62,1,2.42.64,4.86,1.26,7.29,1.85,4.87,1.19,9.76,2.45,14.65,3.35.29,0,.63.11.87.12l.36,0a.84.84,0,0,0,.25-.12A7.68,7.68,0,0,0,131,257.2c.87-.87,1.68-1.82,2.49-2.78,1.61-1.91,3.17-3.87,4.72-5.85a.21.21,0,0,1,.29,0,.22.22,0,0,1,.05.29c-1.39,2.1-2.84,4.15-4.39,6.15-.78,1-1.58,2-2.46,2.9a9.8,9.8,0,0,1-1.5,1.33,1.68,1.68,0,0,1-.6.27,5.61,5.61,0,0,1-.58,0c-.39,0-.66-.09-1-.13-2.52-.41-5-1-7.42-1.51s-4.91-1.11-7.35-1.72-4.87-1.24-7.3-1.9c-1.22-.33-2.43-.67-3.64-1-.6-.19-1.21-.35-1.81-.57a6.88,6.88,0,0,1-1.85-.79,24.9,24.9,0,0,1-2.93-2.51c-.92-.87-1.81-1.76-2.68-2.67-1.75-1.81-3.44-3.68-5.09-5.58a.22.22,0,0,1,0-.29A.21.21,0,0,1,88.3,240.78Z"/>
        <path d="M168.11,245.8c3.43-.11,6.84-.12,10.28.11a27.85,27.85,0,0,1,5.15.76,7.36,7.36,0,0,1,2.31,1.55c.65.58,1.26,1.19,1.86,1.81,4.7,5,8.83,10.44,13,15.84L206.9,274c1,1.34,2.06,2.73,3.14,4l.2.21.07.06s-.14-.09-.28-.05-.12.06-.1,0a1.74,1.74,0,0,0,.13-.2,9.19,9.19,0,0,0,.52-1.09c.32-.77.62-1.56.93-2.36.61-1.59,1.21-3.19,2-4.76a15.56,15.56,0,0,1,1.28-2.32,4.73,4.73,0,0,1,1-1.06,1.82,1.82,0,0,1,.79-.38c.28,0,.48,0,.72-.08a31.48,31.48,0,0,1,5.19.51q2.53.41,5,1l.16,0,.11.12c1.75,1.86,3.52,3.7,5.31,5.5.9.9,1.81,1.8,2.73,2.67.46.43.93.86,1.4,1.27.24.21.47.41.71.59a3.9,3.9,0,0,0,.36.25c.08.07.3.14.15.11l-.48.71c-.92-2.34-1.89-4.67-3-6.93a19.2,19.2,0,0,0-1.84-3.17,10.63,10.63,0,0,0-2.95-2,25,25,0,0,0-3.42-1.43c-.29-.08-.58-.17-.85-.22a2.45,2.45,0,0,0-.38,0H225l-1.89.06c-2.53.1-5.06.14-7.59.1a.15.15,0,0,1-.16-.16.16.16,0,0,1,.14-.17c2.52-.31,5-.56,7.56-.71l1.9-.11.49,0a3.53,3.53,0,0,1,.56.05,8.19,8.19,0,0,1,1,.26,25,25,0,0,1,3.58,1.48c.57.29,1.14.61,1.69,1a6.54,6.54,0,0,1,1.58,1.3,19.32,19.32,0,0,1,2,3.36c1.12,2.3,2.1,4.64,3,7l.31.81-.8-.1a1.38,1.38,0,0,1-.71-.28,3.19,3.19,0,0,1-.42-.3c-.27-.2-.52-.41-.77-.62-.49-.43-1-.86-1.44-1.3-.93-.88-1.84-1.78-2.75-2.69-1.81-1.81-3.58-3.65-5.34-5.51l.27.16c-1.65-.36-3.32-.68-5-.95a31.54,31.54,0,0,0-5-.48l-.54.05a.9.9,0,0,0-.35.18,3.74,3.74,0,0,0-.73.83,16,16,0,0,0-1.19,2.16c-.7,1.51-1.3,3.1-1.91,4.69-.3.8-.6,1.6-.94,2.4a11.14,11.14,0,0,1-.58,1.22,3.77,3.77,0,0,1-.22.33,1,1,0,0,1-.59.39.76.76,0,0,1-.57-.16l-.16-.15a3,3,0,0,1-.25-.26c-1.15-1.33-2.16-2.68-3.21-4l-6.2-8.12c-2.08-2.7-4.17-5.38-6.3-8s-4.28-5.28-6.6-7.74c-.58-.61-1.17-1.21-1.79-1.76a6.73,6.73,0,0,0-1.88-1.33,28.3,28.3,0,0,0-4.93-.74,101.21,101.21,0,0,0-10.16-.16h0a.5.5,0,1,1,0-1Z"/>
        <path d="M161,241.74s17.28-.61,22,.09,20.43,11.93,24.12,13.42,18.46,9.13,18.46,9.13" fill="none" stroke="#000" stroke-linecap="round" stroke-miterlimit="10"/>
        <path d="M162.14,234.73s8.73.43,10.88.14,20.46-5.73,23.47-5.87,14.45-.28,14.45-.28,14.6,3,16.6,4.15.72,7.87.72,7.87,2.29,5.93,2.23,9a104.58,104.58,0,0,1-1.31,10.39s-3.66-11.21-5.41-13.18a5.25,5.25,0,0,1-1-4.64" fill="none" stroke="#000" stroke-linecap="round" stroke-miterlimit="10"/>
        <path d="M161.55,239.38a49.38,49.38,0,0,1,8-.91c.67,0,1.35,0,2,0l2,.18a29.71,29.71,0,0,0,3.89,0,39.29,39.29,0,0,0,7.69-1.11c2.5-.83,5.08-1.52,7.65-2.16a70.16,70.16,0,0,1,7.84-1.57,15.41,15.41,0,0,1,2.06-.12,9.59,9.59,0,0,1,2.08.39c1.3.37,2.55.82,3.8,1.29,5,1.92,9.76,4.12,14.55,6.4h0A17.91,17.91,0,0,1,226,244a11.49,11.49,0,0,1,1.25,1.35,4.35,4.35,0,0,1,.84,1.71.25.25,0,0,1-.19.28.24.24,0,0,1-.26-.14h0a4.41,4.41,0,0,0-1-1.33,11.72,11.72,0,0,0-1.29-1.13,30.76,30.76,0,0,0-2.88-1.93l0,0c-4.76-2.25-9.57-4.45-14.46-6.34-1.23-.46-2.46-.9-3.7-1.26a9,9,0,0,0-1.81-.34,15.31,15.31,0,0,0-1.89.11,68.88,68.88,0,0,0-7.69,1.55c-2.56.64-5.08,1.32-7.59,2.15a40.39,40.39,0,0,1-8,1.18,31.9,31.9,0,0,1-4,0l-2-.2c-.64,0-1.29-.07-1.93-.06a47.28,47.28,0,0,0-7.78.79h0a.51.51,0,0,1-.58-.41A.51.51,0,0,1,161.55,239.38Z"/>
        <path d="M162.82,233.87a20.73,20.73,0,0,1-.48,4c-.29,1.32-.67,2.62-1.08,3.9a24.54,24.54,0,0,1-1.54,3.76,12,12,0,0,1-2.36,3.32.15.15,0,0,1-.22,0,.15.15,0,0,1,0-.21,14.57,14.57,0,0,0,1.92-3.42,34.9,34.9,0,0,0,1.28-3.73c.38-1.27.67-2.56,1-3.85s.61-2.58,1-3.86h0a.28.28,0,0,1,.35-.19A.29.29,0,0,1,162.82,233.87Z"/>
        <path d="M162.45,235.77a18.06,18.06,0,0,1-.86,3.64,18.86,18.86,0,0,1-1.51,3.37,16.64,16.64,0,0,1-4.88,5.4.13.13,0,0,1-.19,0,.14.14,0,0,1,0-.18h0a16.06,16.06,0,0,0,4.39-5.53,18.61,18.61,0,0,0,1.25-3.31,17.33,17.33,0,0,0,.58-3.43v0a.6.6,0,1,1,1.19.07Z"/>
        <path d="M141.92,391.7s3.06,8.55,6.42,11.31,9.47,7.33,12.07,6.57,3.46-.48,3.51-16.39a9.66,9.66,0,0,0-.42-2.93c-.53-1.78-1.48-4.88-2.19-6.62" fill="none" stroke="#000" stroke-linecap="round" stroke-miterlimit="10"/>
        <path d="M131.77,377.78A21.67,21.67,0,0,0,135,382.1a2.51,2.51,0,0,1,.8,1.81c0,1.33.14,3.46.92,4.31,1.17,1.28,3.91,3.83,9.34,3.62s13.28-4,16-9.69c1.42-3,.61-5.46-.57-6.46a5.18,5.18,0,0,1-1.69-3.54l-.57-6.41" fill="none" stroke="#000" stroke-linecap="round" stroke-miterlimit="10"/>
        <path d="M143.38,391.83s3.42,6.53,5.83,6.76c2.14.21,7.94-3.74,11.28-5.18a2.37,2.37,0,0,0,1.45-1.87,20.7,20.7,0,0,0-.61-7.79" fill="none" stroke="#000" stroke-linecap="round" stroke-miterlimit="10"/>
        <path d="M184.28,328.36s-.15,5-2.66,8.19-6.37-.84-9.17-5" fill="none" stroke="#000" stroke-linecap="round" stroke-miterlimit="10"/>
        <path d="M58,199.5s11.5,23,29.22,34c0,0,5.36,2.79,43.81,13.83a1.3,1.3,0,0,0,1.41-.53c3.25-4.57,20.45-29.33,23-44.54a9.55,9.55,0,0,0-.14-3.65c-.82-3.53-2.82-11.85-4.93-17.89" fill="none" stroke="#000" stroke-linecap="round" stroke-miterlimit="10"/>
        <path d="M63.88,202.37S74.23,218.1,80.2,221s36.53.09,39.91-1.46" fill="none" stroke="#000" stroke-linecap="round" stroke-miterlimit="10"/>
        <path d="M87.63,216.05a18.72,18.72,0,0,0-7.43,5" fill="none" stroke="#000" stroke-linecap="round" stroke-miterlimit="10"/>
        <path d="M165,84.08c1.8-1.9,3.59-3.82,5.42-5.7l5.46-5.66a.1.1,0,0,1,.14,0,.11.11,0,0,1,0,.14l-5.13,6c-1.7,2-3.43,4-5.16,5.93a.51.51,0,0,1-.71,0,.5.5,0,0,1,0-.7Z"/>
        <path d="M184,117.07a28,28,0,0,0,2.93-2.73c.45-.49.89-1,1.28-1.52s.72-1.07,1.15-1.67c1.66-2.25,3.45-4.28,5.14-6.41.85-1.06,1.68-2.13,2.42-3.24a13.19,13.19,0,0,0,1-1.69,3.77,3.77,0,0,0,.3-.85c.07-.31.13-.65.18-1,.4-2.67.68-5.39,1.07-8.09a.2.2,0,0,1,.23-.17.2.2,0,0,1,.17.2,66.3,66.3,0,0,1-.46,8.2c0,.35-.08.68-.15,1a4.89,4.89,0,0,1-.36,1.08,14.43,14.43,0,0,1-1,1.86c-.76,1.17-1.6,2.27-2.44,3.35-1.67,2.17-3.51,4.22-5.11,6.36-.36.51-.74,1.14-1.17,1.7a19.25,19.25,0,0,1-1.4,1.58,29.29,29.29,0,0,1-3.11,2.77.5.5,0,1,1-.62-.78Z"/>
        <path d="M171.25,77.57a26.47,26.47,0,0,1,0-4.71,8,8,0,0,1,.57-2.45,12.56,12.56,0,0,1,1.56-1.9,63.09,63.09,0,0,1,7-6.23,20.36,20.36,0,0,1,4.06-2.55,3.27,3.27,0,0,1,.65-.19,2.1,2.1,0,0,1,.75,0,7.25,7.25,0,0,1,1.22.32,23.76,23.76,0,0,1,2.21.9,70.71,70.71,0,0,1,8.21,4.57c1.32.85,2.61,1.74,3.85,2.71a22.24,22.24,0,0,1,1.81,1.58,7.07,7.07,0,0,1,1.31,2.16,34.57,34.57,0,0,1,1.8,9.29,79.64,79.64,0,0,1,.2,9.4c0,.2,0,.39,0,.62a1.23,1.23,0,0,1-.08.3,1,1,0,0,1-.17.24l-.23.24c-.31.28-.61.53-.91.79-.61.5-1.22,1-1.84,1.46q-1.84,1.44-3.72,2.83a.5.5,0,0,1-.7-.1.51.51,0,0,1,.1-.7q1.86-1.4,3.69-2.84c.61-.48,1.21-1,1.8-1.46.29-.24.59-.49.85-.74a1.36,1.36,0,0,0,.17-.18c.07-.09,0,.1,0,0s0-.35,0-.54a81.76,81.76,0,0,0-.24-9.25,33.85,33.85,0,0,0-1.7-9,6,6,0,0,0-1.08-1.81,20.46,20.46,0,0,0-1.7-1.5c-1.2-.94-2.47-1.82-3.77-2.66a70.08,70.08,0,0,0-8.07-4.51c-.7-.32-1.4-.62-2.11-.87a5.42,5.42,0,0,0-1-.27,1.2,1.2,0,0,0-.42,0,2.6,2.6,0,0,0-.46.14,20,20,0,0,0-3.82,2.39,62.94,62.94,0,0,0-6.92,6.12,10.71,10.71,0,0,0-1.41,1.69A7.46,7.46,0,0,0,172.2,73c-.2,1.51-.31,3.06-.42,4.6h0a.27.27,0,0,1-.28.25A.28.28,0,0,1,171.25,77.57Z"/>
        <path d="M205.73,79.51a4.61,4.61,0,0,0,4-2.32,44.72,44.72,0,0,1,14-13.17c7.31-4.15.85-7.68-2-7.32S213.54,62,211.71,62s-7-3.78-7.56-12.2,2.93-20.49,2.07-23.78-5.85-2.93-6.83-.37-1.34,19.27-4.14,22-4.52-12.2-7.57-16.35-6.63-1.69-7.26-.08c-.37,1,1.65,6.79,3.85,12.28s2.07,8.05,1.22,8.29-11.1-11.34-15.37-10-1.46,5.49-1.46,5.49,10.61,8.29,11.83,10.24-11.22-1.7-13.17-.48-2.32,4-.25,5.12,7.56.49,11.22,2.32" fill="none" stroke="#000" stroke-linecap="round" stroke-miterlimit="10"/>
        <path d="M184.35,122.29c2.11-4.93,10.32-40.37,8.68-38.73s-31.92,22.3-31.92,22.3,1.41-3.75,3.52-10.56,1.88-24.18,1.88-24.18c-2.82,5.87-22.77,24.41-22.77,24.41C137.87,86.14,122.61,81,122.61,81c2.35-27.7,19.25-51.4,19.25-51.4A219.65,219.65,0,0,0,120,40.14c-9.86,5.63-26.76,24.18-26.76,24.18s.94-21.36.94-32.63S104.07,0,104.07,0c-16.2,8-47.42,42-54.7,52.81S39.05,96.47,39.05,96.47l-5.4,3.29C27.78,94.36,13,69.24,13,69.24s-.71,11.74.93,35.92,20.66,48.12,20.66,48.12C19.33,151.63,0,141.71,0,141.71c20.21,39.65,49.37,50.53,49.37,50.53-8.24-10.39-7.51-21.5-7.1-22.32s6.34.41,6.34.41l20.65,15.33C67,180.35,67,166.24,67,166.24s7.36-.41,10.84-.41,10.22,3.48,10.22,3.48l-5.72,10.83s31.08-20.85,36.81-30.87,6.75-24.54,6.75-24.54c4.09.61,13.7,11,13.7,11v23.11l4.5-7.16,1.22,5.93c1-3.48,8-17,8-17s6.34-5.12,7.15,6.54a85,85,0,0,1-1,20.61s15.72-18.07,19.24-22.3a78.77,78.77,0,0,0,6.81-10.09l-11.27,5.63S182.23,127.22,184.35,122.29ZM97,150.11a128,128,0,0,1-7,15.92s-9.1-7.65-13.24-8.06a82.07,82.07,0,0,0-9.51-.21s-.42-18,5-24.2c0,0,19-5.58,29-5.79C101.08,127.77,100.05,141.42,97,150.11Z" fill="#1a1814"/>
        <path d="M132.44,143a48.17,48.17,0,0,1,3.77,7.68.22.22,0,0,1-.15.28c-1.95.61-16.69,5.65-22.65,20.28a.23.23,0,0,1-.44-.12,36.45,36.45,0,0,1,6.86-15.72v0c.1-.16,3.22-5.62,12.26-12.45A.24.24,0,0,1,132.44,143Z" fill="#1a1814"/>
        <path d="M133,142.37s3.42,5.78,4,8.21l.28-.05a67.38,67.38,0,0,0-3.77-8.37Z" fill="#1a1814"/>
        <path d="M134.52,141.77s2.78,6.11,3.1,8.58h.29a67.35,67.35,0,0,0-2.86-8.73Z" fill="#1a1814"/>
        <path d="M13.93,78.32s-.68,23.47,2,35,17,37.21,17,37.21l7.45,1.57s-.68-7.49,1.36-10.55a67.53,67.53,0,0,0,4.09-7.48s-14.63-21.43-18-26.2S13.93,78.32,13.93,78.32Z" fill="#34322f"/>
        <path d="M43.52,93.29s3.07-24.84,7.83-37.42S95.57,9.94,95.57,9.94,80.94,41.24,79.24,50.08s-4.42,28.58-4.42,28.58-9.18,1-14.63,3.74S43.52,93.29,43.52,93.29Z" fill="#34322f"/>
        <path d="M93.19,70.83s9.19,7.15,11.23,9.87,2,4.08,2,4.08,10.2-27.89,25.85-47.62c0,0-18.37,9.18-27.89,19.39S93.19,70.83,93.19,70.83Z" fill="#34322f"/>
        <path d="M102.72,102.13s-1.62,9.09-3.66,9.09c0,0-14.71-7.73-22.88-9.09s-41.16.68-41.16.68l-11.91,4.42S39.1,95,52,92.61s33.68,1,33.68,1Z" fill="#34322f"/>
        <path d="M138.72,102s.27,9.57-.27,13.56c0,0,13.57-16.22,17.29-22.34s10.37-19.68,10.37-19.68S141.91,100.68,138.72,102Z" fill="#34322f"/>
        <path d="M161,106s11.73,4.22,13.85,4.22,17.29-25.79,17.29-25.79S163.16,105.77,161,106Z" fill="#34322f"/>
        <path d="M132.34,121.15s12.66,1.06,14.09,2.66c2.3,2.56-1.33,19.14-1.33,19.14l-5.52,15.65,1.27-25.48Z" fill="#34322f"/>
        <path d="M107.34,113.71l10.47,6.9a4.38,4.38,0,0,1,2,3.77l-.2,6.61-8.71,16.61a40.64,40.64,0,0,1-6.79,9.41l-17.2,17.85s14.89-27.65,16.22-34S107.34,113.71,107.34,113.71Z" fill="#34322f"/>
        <path d="M102.56,120.09a16.64,16.64,0,0,0-7.18,6.64l-1,1.67,6.79-.58Z" fill="#34322f"/>
        <path d="M88.56,129.55s-9.37-4.13-10.83-3.94-5.48,7.9-5.48,7.9S82.89,130.28,88.56,129.55Z" fill="#34322f"/>
        <path d="M76.67,119.9S66,126.5,63.08,134.58s-.55,34.15-.55,34.15L68,184.34s-10.65-9.73-13.77-14.14-9.36-18.54-9.36-21.48,4.77-18.54,7.16-22.77,11.38-7,11.38-7Z" fill="#34322f"/>
        <path d="M48.2,163l1.19,8.9-3.31-1.65s-2.14-.57-2.79.25-.5,7.75-.5,7.75-25.26-13-39.69-33.29C3.1,144.94,31.47,160,48.2,163Z" fill="#34322f"/>
        <path d="M89.77,127.56s2.69-4,14.83-16c2.49-2.46,6.77-1.22,12.65,1.77a108,108,0,0,1,9.49,6s.24,1.19-1.66.71-9.67-8-17.47-8.4a3.27,3.27,0,0,0-2.57,1.09C101.76,116.3,91.22,127.7,89.77,127.56Z" fill="#232121"/>
        <path d="M90.29,127.4a.76.76,0,0,0,0-1.39c-6.66-3.3-34.51-14.64-42-17.89-7.84-3.42-22-2.85-22-2.85s15.58,2,19.52,3.11c4.17,1.14,43.7,19.34,43.7,19.34Z" fill="#232121"/>
        <path d="M40.5,152.1S20.69,122.12,17.74,96c0,0,15.23,34.82,24.82,44.41l-1,1.62s-10.85-15.39-12.85-20.73c0,0,10.06,19.36,12.4,21.8Z" fill="#665a5f"/>
        <path d="M48.68,89.59s1.58-17.88,4.69-26.88A76.13,76.13,0,0,1,65.92,40.84c3.89-4.78,14-13.55,14-13.55a70.07,70.07,0,0,0-9.44,15.88C66.59,52.39,62,72.82,61.7,76.82a43.31,43.31,0,0,0-.26,5l-5,2.59a80.25,80.25,0,0,1,3.34-20.88s-4.33,8.13-4.33,21.67L52.59,87s1.78-21.21,8.67-35.53c0,0-7.8,14.77-10,36.31Z" fill="#665a5f"/>
        <path d="M99.92,66.27l2.49,2.5L113,55.12,102.81,69.43l2,2s9.81-16.58,12.11-19,15.39-15.26,15.39-15.26-19.86,14.53-23.13,17.92S99.92,66.27,99.92,66.27Z" fill="#665a5f"/>
        <path d="M85.64,93.54l-7.1-.9S61.15,90.79,53,92.52c-6.17,1.3-14.84,5.24-14.84,5.24s13.44-3,25.89-2.3,19.45,3.71,19.45,3.71Z" fill="#665a5f"/>
        <path d="M145.78,95.56l-.14,4.13s15.49-18,19.62-25.17C165.26,74.52,148.85,94,145.78,95.56Z" fill="#665a5f"/>
        <path d="M114.29,118.23s-4.41,18.08-8.5,27.17S88.9,171,88.9,171s13.39-25.2,15.28-36.57c1.6-9.7,3.21-20.75,3.21-20.75l2.57,1.67s-3,17.57-5.08,24.39c0,0,4.79-13.14,6-23.63Z" fill="#665a5f"/>
        <path d="M65,119.73s-5.69,5.34-7.93,9.47S49.52,143,49.86,152.62s15.71,29.47,15.71,29.47-15.19-13.62-20.7-30.67c0,0-1.25-8.15,5.5-22.19A12.12,12.12,0,0,1,54,124.81,30.35,30.35,0,0,1,65,119.73Z" fill="#665a5f"/>
        <path d="M48.37,163.05s-21.48-5.66-34.85-12.66l-7.6-3.86s10.66,15.31,36.67,27.13l.19-2.67s-10.34-5.53-17.58-11.88c0,0,9.16,6.94,19.35,9.9l4.52,1.15-.25-2.73L30.66,160s16.15,5.22,17.77,5.22Z" fill="#665a5f"/>
      </g>
    </g>
  </g>
</svg>
