<?xml version="1.0" encoding="UTF-8" standalone="no"?>
<!-- Generator: Adobe Illustrator 23.0.3, SVG Export Plug-In . SVG Version: 6.00 Build 0)  -->

<svg
   xmlns:dc="http://purl.org/dc/elements/1.1/"
   xmlns:cc="http://creativecommons.org/ns#"
   xmlns:rdf="http://www.w3.org/1999/02/22-rdf-syntax-ns#"
   xmlns:svg="http://www.w3.org/2000/svg"
   xmlns="http://www.w3.org/2000/svg"
   xmlns:sodipodi="http://sodipodi.sourceforge.net/DTD/sodipodi-0.dtd"
   xmlns:inkscape="http://www.inkscape.org/namespaces/inkscape"
   version="1.1"
   x="0px"
   y="0px"
   viewBox="0 0 210.05608 278.89999"
   xml:space="preserve"
   id="svg251"
   sodipodi:docname="grookey.svg"
   width="210.05608"
   height="278.89999"
   inkscape:version="0.92.4 (5da689c313, 2019-01-14)"><metadata
   id="metadata257"><rdf:RDF><cc:Work
       rdf:about=""><dc:format>image/svg+xml</dc:format><dc:type
         rdf:resource="http://purl.org/dc/dcmitype/StillImage" /><dc:title></dc:title></cc:Work></rdf:RDF></metadata><defs
   id="defs255" /><sodipodi:namedview
   pagecolor="#ffffff"
   bordercolor="#666666"
   borderopacity="1"
   objecttolerance="10"
   gridtolerance="10"
   guidetolerance="10"
   inkscape:pageopacity="0"
   inkscape:pageshadow="2"
   inkscape:window-width="756"
   inkscape:window-height="480"
   id="namedview253"
   showgrid="false"
   fit-margin-top="0"
   fit-margin-left="0"
   fit-margin-right="0"
   fit-margin-bottom="0"
   inkscape:zoom="0.78666667"
   inkscape:cx="105.60265"
   inkscape:cy="139.6"
   inkscape:window-x="0"
   inkscape:window-y="0"
   inkscape:window-maximized="0"
   inkscape:current-layer="svg251" />
<style
   type="text/css"
   id="style2">
	.st0{fill:#FFFFFF;}
	.st1{fill:#875B32;}
	.st2{fill:#94C16C;}
	.st3{opacity:0.68;fill:#68814F;}
	.st4{fill:#FFE969;}
	.st5{fill:#EA7242;}
	.st6{fill:#282727;}
	.st7{fill:#4A4643;}
	.st8{fill:#FF926C;}
	.st9{fill:#BC532F;}
	.st10{fill:#A06C48;}
	.st11{fill:#BD9574;}
	.st12{fill:#664332;}
	.st13{fill:#684223;}
	.st14{fill:#AA7546;}
	.st15{fill:#AAD680;}
</style>
<g
   id="Слой_8"
   transform="translate(-44.397347,-10.7)">
	<g
   id="g8">
		<g
   id="g6">
			
		</g>
	</g>
	<path
   class="st0"
   d="m 91.1,210.8 c -2.4,-2.1 -5.8,-2.9 -9,-2.8 -8.7,0.4 -16.5,7.2 -18.9,15.5 -2.4,8.4 0.2,17.8 5.9,24.4 2.1,2.4 4.6,4.5 7.6,5.6 6.8,2.6 15,-0.9 18.9,-7 5.4,-8.3 3.2,-28.8 -4.5,-35.7 z"
   id="path10"
   inkscape:connector-curvature="0"
   style="fill:#ffffff" />
	<path
   class="st0"
   d="m 86.4,183.6 c -2,1.9 -4.9,2.4 -7.6,3.2 -2.6,0.8 -5.5,2.6 -5.7,5.4 -0.1,1.4 0.5,2.7 1.1,3.9 7.3,14.1 21.8,24.2 37.5,26.2 1.7,0.2 3.5,0.3 5.1,-0.3 2.4,-1 3.9,-3.4 5,-5.8 5.1,-11 6.3,-24.5 0.3,-35.1 -2.6,-4.6 -6.5,-8.4 -10.4,-12 -5.2,-4.8 -10.7,-9.3 -16.4,-13.5 -4.9,-3.6 -28.6,-16.7 -21.2,-1.3 3.6,7.1 21,20.8 12.3,29.3 z"
   id="path12"
   inkscape:connector-curvature="0"
   style="fill:#ffffff" />
</g>
<g
   id="Слой_7"
   transform="translate(-44.397347,-10.7)">
	<path
   class="st1"
   d="m 91.5,257.5 c -0.7,-2.3 -0.9,-4.8 -1.5,-7.1 -4.1,0.4 -21.6,1.1 -26.1,-17.6 -0.6,-2.7 -0.7,-5.2 0.3,-7.7 0.7,-1.8 2,-3.4 3.6,-4.5 3.9,-2.9 8.6,-3.6 12.9,-5.5 3,-1.4 5.8,-3.6 6.9,-6.7 0.3,-1 0.5,-2 0.5,-3.1 0,-5.5 -4.3,-10 -9.7,-10.8 -16.5,-2.5 -27,12.4 -28.2,14.9 -16.9,36.8 17.3,50.8 25,52.6 3,0.7 6,1 9.1,1.3 3.1,0.3 6.3,0.5 9.4,0.1 -0.8,-2.1 -1.6,-4 -2.2,-5.9 z"
   id="path15"
   inkscape:connector-curvature="0"
   style="fill:#875b32" />
	<path
   class="st2"
   d="m 250,211.2 c 0,0 3.9,-2.5 3.5,-4.3 -0.4,-1.8 -5.6,-0.9 -5.6,-0.9 0,0 4.1,-3.7 3.2,-5.7 -0.9,-2 -6.2,0 -6.2,0 0,0 3.2,-5 2.3,-6.6 -0.9,-1.6 -7.8,3 -7.8,3 l -2.1,-2.3 -3.2,3.2 c -19.9,3.9 -48,5.7 -47.6,3.7 0.5,-2.1 11.2,-3 11.2,-3 51.9,-14.2 49.4,-52.2 49.4,-52.2 13.8,-21.1 0.8,-45.1 -2.3,-47.5 -3.1,-2.3 -12,3.4 -12,3.4 0,0 -7.8,-8.3 -21.4,-16.7 C 197.8,77 171.2,71.2 171.2,71.2 l 25.6,-5 c 0,0 3.9,-2.9 3.4,-8.1 -0.5,-5.2 -7,-6.3 -7,-6.3 l -13.6,3.1 c 12.8,-24 -3,-42.8 -3,-42.8 -17.7,8.9 -23.1,36.4 -23.1,36.4 0,0 -11.5,-26.2 -45.4,-24.9 0,0 0.3,27.6 20.1,38.9 l -22.9,3.1 c 0,0 -5.7,5.2 -3.7,11.2 2.1,6 10.2,5.7 10.2,5.7 l 30.3,-6.3 c 0,0 -2.6,2.9 -11.2,8.1 -8.6,5.2 -25.8,23.5 -28.2,40.2 0,0 -26.3,0.8 -31.8,11 -5.5,10.2 27.4,51.6 44.6,47.2 0,0 2.9,5.2 11.9,8.8 0,0 -0.2,4.3 -16.7,17.6 -15.7,12.8 -21.4,28.9 -20,39.9 0.9,2.7 1.1,5.5 1.9,8.3 0.7,2.5 2,4.8 2.5,7.3 0,0 0,0 0,0 0.9,2 2.9,5.5 6.9,9.3 -1.6,2.1 -1.7,5.2 -0.4,7.5 1.3,2.3 4,3.8 6.6,3.9 1.8,0.1 3.6,-0.4 4.9,-1.6 0.4,0.8 1.2,1.5 2.1,1.6 0.3,0 0.6,0.1 0.8,0.1 1.2,0 2.6,-0.3 3.4,-1.2 0.9,0.2 1.9,0.3 2.9,0.3 0.9,0 1.9,-0.1 2.7,-0.6 0.8,-0.5 1.3,-1.5 1,-2.4 -0.1,-0.3 -0.3,-0.6 -0.5,-0.9 -1,-1.2 -0.5,-1.3 -2.9,-2.3 2.8,-1.3 4.4,-1.3 6.5,-3 1.8,0.1 3.7,-0.4 5.3,-1.1 1,3.4 2.1,6.9 4.1,9.9 1,1.4 2.2,2.6 3.7,3.5 0.8,0.5 2,1.2 2.9,0.7 0.6,-0.3 0.9,-1 0.7,-1.7 0.7,0.4 1.4,0.8 2.1,1.2 0.5,0.3 1.1,0.6 1.7,0.8 0.6,0.1 1.3,0.1 1.8,-0.3 0.5,-0.4 0.6,-1.2 0.2,-1.7 0.5,0.8 1.3,1.3 2.2,1.6 0.5,0.2 1.2,0.2 1.7,0 0.5,-0.3 0.8,-1 0.6,-1.6 1.4,0.6 2.9,1 4.4,0.7 0.2,0 0.3,-0.1 0.5,-0.2 0.1,-0.1 0.2,-0.2 0.3,-0.3 0.4,-0.8 0.1,-1.9 -0.4,-2.7 1.1,0.2 2.2,0 3.3,-0.1 0.5,-0.1 1.2,-0.2 1.3,-0.7 0.1,-0.3 0,-0.6 0,-0.9 -0.1,-0.3 -0.1,-0.7 0.2,-0.9 1.1,0.2 2.2,0.3 3.3,0.3 0.3,0 0.7,0 1,-0.1 0.4,-0.1 0.7,-0.4 1.1,-0.5 0.8,0 1.5,0.4 2.3,0.4 0.8,0 1.6,-0.7 2.2,-1.2 0.7,-3.2 -5,-4.1 -5,-4.1 0,0 15.3,0.7 19,-12.3 3.7,-13 -12.1,-25.6 -12.1,-25.6 l 2.3,-6.6 c 0,0 0.7,1.7 26.5,0 29.7,-2 47.1,-16.7 47.4,-18.5 0.2,-2.1 -3.7,-2.1 -3.7,-2.1 z"
   id="path17"
   inkscape:connector-curvature="0"
   style="fill:#94c16c" />
	<path
   class="st3"
   d="m 197.9,198.1 c 42.4,-11.6 48.5,-39.1 49.3,-48.8 -8.1,8.9 -17.4,16.7 -28.3,22.1 -10.8,5.4 -22.5,7.7 -34.5,8.2 -14.7,0.5 -29.7,0.4 -44.2,-1.5 -3.5,-0.4 -6.9,-1.2 -10.1,-2.5 -2.4,-1 -4.6,-2.4 -7.1,-3.1 -5.7,-1.6 -11.2,2.2 -16.2,4.3 -2.2,0.9 -4.4,1.4 -6.6,1.6 5.6,3.6 11,5.5 15.4,4.4 0,0 2.9,5.2 11.9,8.8 0,0 0,0.5 -0.8,1.8 0.4,0.1 0.8,0.3 1.2,0.5 2.4,1.1 4.4,2.9 6.4,4.7 2.7,2.4 5.5,4.9 8.5,6.9 5.7,3.8 12.6,6.1 19.2,7.7 6.7,1.6 14.1,2.5 20.8,0.5 0.3,-0.1 0.6,0.1 0.7,0.4 0.8,5.5 -3.3,12.1 -3.6,17.8 1,0.4 5.4,1.2 26.3,-0.2 0.8,-0.1 1.5,-0.1 2.3,-0.2 -6,-9.5 -12,-18.9 -16.1,-29.4 -3.6,0 -5.8,-0.3 -5.6,-0.9 0.3,-2.2 11.1,-3.1 11.1,-3.1 z"
   id="path19"
   inkscape:connector-curvature="0"
   style="opacity:0.6800001;fill:#68814f" />
	<path
   class="st3"
   d="m 177.4,238.2 c -0.1,0 -0.3,0.1 -0.4,0.1 -2.9,1 -4.5,3.9 -6.4,6.2 -1.6,2 -3.3,3.5 -5.7,4.6 -1.5,0.7 -3.2,1 -4.7,1.6 -1.6,0.6 -1.9,1.6 -2.1,3.3 -0.6,6.8 -0.2,14 0.4,20.7 0,0.3 -0.3,0.5 -0.5,0.5 -13.5,0.2 -19.6,-14.7 -31.7,-17.6 -7.1,-1.7 -14.4,-2 -21.4,-4.3 -5.4,-1.8 -10.2,-4.7 -14.5,-8.3 0,1.3 0,2.5 0.2,3.7 0.9,2.7 1.1,5.5 1.9,8.3 0.7,2.5 2,4.8 2.5,7.3 0,0 0,0 0,0 0.9,2 2.9,5.5 6.9,9.3 -1.6,2.1 -1.7,5.2 -0.4,7.5 1.3,2.3 4,3.8 6.6,3.9 1.8,0.1 3.6,-0.4 4.9,-1.6 0.4,0.8 1.2,1.5 2.1,1.6 0.3,0 0.6,0.1 0.8,0.1 1.2,0 2.6,-0.3 3.4,-1.2 0.9,0.2 1.9,0.3 2.9,0.3 0.9,0 1.9,-0.1 2.7,-0.6 0.8,-0.5 1.3,-1.5 1,-2.4 -0.1,-0.3 -0.3,-0.6 -0.5,-0.9 -1,-1.2 -0.5,-1.3 -2.9,-2.3 2.8,-1.3 4.4,-1.3 6.5,-3 1.8,0.1 3.7,-0.4 5.3,-1.1 1,3.4 2.1,6.9 4.1,9.9 1,1.4 2.2,2.6 3.7,3.5 0.8,0.5 2,1.2 2.9,0.7 0.6,-0.3 0.9,-1 0.7,-1.7 0.7,0.4 1.4,0.8 2.1,1.2 0.5,0.3 1.1,0.6 1.7,0.8 0.6,0.1 1.3,0.1 1.8,-0.3 0.5,-0.4 0.6,-1.2 0.2,-1.7 0.5,0.8 1.3,1.3 2.2,1.6 0.5,0.2 1.2,0.2 1.7,0 0.5,-0.3 0.8,-1 0.6,-1.6 1.4,0.6 2.9,1 4.4,0.7 0.2,0 0.3,-0.1 0.5,-0.2 0.1,-0.1 0.2,-0.2 0.3,-0.3 0.4,-0.8 0.1,-1.9 -0.4,-2.7 1.1,0.2 2.2,0 3.3,-0.1 0.5,-0.1 1.2,-0.2 1.3,-0.7 0.1,-0.3 0,-0.6 0,-0.9 -0.1,-0.3 -0.1,-0.7 0.2,-0.9 1.1,0.2 2.2,0.3 3.3,0.3 0.3,0 0.7,0 1,-0.1 0.4,-0.1 0.7,-0.4 1.1,-0.5 0.8,0 1.5,0.4 2.3,0.4 0.8,0 1.6,-0.7 2.2,-1.2 0.7,-3.2 -5,-4.1 -5,-4.1 0,0 15.3,0.7 19,-12.3 3.4,-12.4 -10.8,-24.5 -12.1,-25.5 z"
   id="path21"
   inkscape:connector-curvature="0"
   style="opacity:0.6800001;fill:#68814f" />
	<path
   class="st1"
   d="m 100.3,124.7 c 0,0 11.3,-0.2 13.4,3.6 2.1,3.9 8.4,18.2 7.5,37.5 -0.9,19.3 -7.9,17.2 -7.9,17.2 -8.3,-1.1 -15.6,-6.8 -21.8,-12.5 -7.7,-7.1 -15.2,-14.9 -19.2,-24.7 -1.4,-3.4 -2.3,-7.5 -0.6,-10.8 1.9,-3.7 6.3,-5.2 10.3,-6.3 5.3,-1.4 10.6,-2.6 16,-3.6"
   id="path23"
   inkscape:connector-curvature="0"
   style="fill:#875b32" />
	<path
   class="st4"
   d="m 184.6,173.8 c -14.7,18.7 -34.1,10 -34.1,10 -24.6,-5.3 -37.5,-56.6 -9.9,-72.3 23.5,-13.5 44.7,10.5 44.7,10.5 0,0 -3.2,-20.1 0,-22.9 10.2,-0.7 19.1,21.4 19.1,21.4 0,0 -0.5,-18.6 10.9,-21.9 11.4,-3.3 22.7,9.4 22.7,9.4 4.1,7.3 8.6,15 10,23.2 0.7,3.7 -1,7.8 -1,11.6 0.1,6.7 1.5,13.5 -2.4,18.9 -2.7,3.7 -7.6,6.3 -11.8,4.6 -1,-0.4 -1.8,-1 -2.8,-1.4 -2,-0.8 -4.2,-0.6 -6.3,-0.3 -5.5,0.7 -10.9,2.1 -16.3,3.5 -6.9,1.7 -16,4 -22.8,5.7 z"
   id="path25"
   inkscape:connector-curvature="0"
   style="fill:#ffe969" />
	<path
   class="st5"
   d="m 204.5,132.4 c -6,-0.9 -12,1.2 -16,5.8 -3.6,4.2 -7.3,11 -7.1,21.4 0.3,20.5 16.8,31.9 26.9,30.5 10.2,-1.4 21.9,-13 21,-31.7 -0.6,-14.9 -12.9,-24.1 -24.8,-26 z"
   id="path27"
   inkscape:connector-curvature="0"
   style="fill:#ea7242" />
	<path
   class="st0"
   d="m 174.5,144.5 c 3.8,12 -0.1,23.9 -8.5,26.6 -8.5,2.6 -18,-5.1 -22.2,-17 -2.8,-8.2 0.1,-23.9 8.5,-26.6 8.6,-2.6 18.5,5 22.2,17 z"
   id="path29"
   inkscape:connector-curvature="0"
   style="fill:#ffffff" />
	<path
   class="st6"
   d="m 149.5,128.7 c 6.5,-2.3 14.4,3.3 17.6,12.5 3.2,9.2 0.5,18.5 -6,20.7 -6.5,2.2 -14.4,-3.3 -17.6,-12.5 -1.6,-4.6 -0.3,-9.6 1.4,-14.2 0.9,-2.4 2.3,-5.7 4.6,-6.5 z"
   id="path31"
   inkscape:connector-curvature="0"
   style="fill:#282727" />
	<ellipse
   transform="matrix(0.9581,-0.2864,0.2864,0.9581,-34.8217,49.8856)"
   class="st0"
   cx="153.10001"
   cy="144"
   rx="4.5"
   ry="8.6999998"
   id="ellipse33"
   style="fill:#ffffff" />
	<path
   class="st0"
   d="m 229.5,157.9 c 1.1,0.1 2.2,-0.1 3.3,-0.5 7.1,-2.5 10.3,-13.5 7.1,-24.7 -3.1,-11.2 -11.4,-18.2 -18.5,-15.8 -5.4,1.9 -8.1,10.7 -8,18.2 0,-0.8 0.2,-1.5 0.4,-2.3 0,1.2 0.6,2.5 1.6,3.2 0.6,0.4 1.3,0.7 1.9,1 3.7,1.8 6.5,5.2 8.3,9 1.8,3.8 2.9,7.9 3.9,11.9 z"
   id="path35"
   inkscape:connector-curvature="0"
   style="fill:#ffffff" />
	<path
   class="st6"
   d="m 218.8,118.1 c 5.1,-2 11.2,2.9 13.7,10.8 2.5,7.9 0.4,16 -4.7,17.9 -0.5,0.2 -0.9,0.3 -1.4,0.4 -1.4,-2.8 -3.6,-5 -5.9,-7 -1.2,-1.1 -2.5,-2 -3.8,-2.9 -0.6,-0.4 -1.3,-0.8 -1.8,-1.4 -0.8,-1 -1,-2.3 -1,-3.5 0,-1.8 0.4,-3.6 0.8,-5.4 0.4,-1.8 0.9,-3.5 1.4,-5.2 0.6,-1.4 1.5,-3.2 2.7,-3.7 z"
   id="path37"
   inkscape:connector-curvature="0"
   style="fill:#282727" />
	<path
   class="st0"
   d="m 214.9,136 c -0.4,-0.9 -0.7,-2 -0.8,-3.1 -0.6,-4.4 1,-8.3 3.7,-8.8 2.7,-0.5 5.3,2.7 5.9,7.1 0.6,4.1 -0.8,7.8 -3.2,8.7"
   id="path39"
   inkscape:connector-curvature="0"
   style="fill:#ffffff" />
	<path
   class="st7"
   d="m 157.6,153.1 c 2.7,-1.5 6.4,-1.2 8.6,1 0.2,0.2 0.5,0.5 0.6,0.8 0.2,0.4 0.1,0.9 0,1.3 -0.5,1.9 -2,3.2 -3.6,4.3 -1,0.7 -2.1,1.4 -3.3,1.8 -1.8,0.6 -7.2,0.5 -7.1,-2.3 0.1,-2.6 2.6,-5.7 4.8,-6.9 z"
   id="path41"
   inkscape:connector-curvature="0"
   style="fill:#4a4643" />
	<path
   class="st7"
   d="m 226.9,138.7 c 2.2,0.6 3.9,2.3 5.2,4.1 0.1,0.1 0.2,0.3 0.2,0.5 0,0.1 -0.1,0.3 -0.3,0.3 -1.5,1.3 -3.1,2.4 -4.8,3.3 -0.3,0.2 -0.6,0.3 -0.9,0.1 -0.2,-0.1 -0.3,-0.3 -0.4,-0.4 -0.6,-1.1 -1.4,-2.2 -2.2,-3.2 -0.4,-0.5 -0.9,-1.1 -1.4,-1.6 -0.3,-0.3 -1.3,-1 -1.3,-1.4 -0.1,-0.8 1.9,-1.7 2.5,-1.8 1.1,-0.2 2.3,-0.2 3.4,0.1 z"
   id="path43"
   inkscape:connector-curvature="0"
   style="fill:#4a4643" />
	<path
   class="st8"
   d="m 193.2,150 c 0,1.3 0.4,2.6 0.9,3.8 0.7,1.8 1.7,3.5 2.8,5.1 0.4,0.5 0.8,1 1.4,1.1 0.7,0.1 1.3,-0.5 1.7,-1 1.9,-2.1 3.4,-4.6 4.1,-7.4 0.7,-2.8 0.5,-5.8 -0.8,-8.3 -3.6,-7.5 -10.2,2.2 -10.1,6.7 z"
   id="path45"
   inkscape:connector-curvature="0"
   style="fill:#ff926c" />
	<path
   class="st9"
   d="m 198,177.1 c -3.5,0.7 -7,1.3 -10.5,1.6 5.8,8.2 14.6,12.3 20.9,11.4 9.8,-1.4 21.1,-12.2 21.1,-29.9 -6.6,14.6 -17.5,17.8 -31.5,16.9 z"
   id="path47"
   inkscape:connector-curvature="0"
   style="fill:#bc532f" />
	<path
   class="st1"
   d="m 233.6,102 c 2.1,2.2 4.1,4.4 5.9,6.8 0.7,0.9 1.4,1.8 1.9,2.8 0.6,1.2 1.1,2.5 1.5,3.8 0.9,2.8 1.9,5.6 2.8,8.5 0.6,1.8 1.2,3.6 1.6,5.4 1.2,5.1 1.2,10.4 1.2,15.7 2.4,-4.1 3.3,-8.9 4.2,-13.6 0.4,-2 0.7,-3.9 0.8,-5.9 0.3,-4.4 -0.7,-8.9 -2.2,-13 -1.6,-4.5 -3.7,-8.9 -6.3,-12.9 -0.4,-0.6 -0.9,-1.3 -1.7,-1.5 -0.4,-0.1 -0.8,0.1 -1.2,0.2 -3.4,1.1 -6.7,2.3 -10,3.8"
   id="path49"
   inkscape:connector-curvature="0"
   style="fill:#875b32" />
	<path
   class="st10"
   d="m 113.7,64.6 c 4,-0.5 8.1,-1 12.1,-1.5 1.2,-0.1 2.4,-0.3 3.5,0 1.1,0.3 2.1,0.9 3.1,1.4 3.3,1.9 6.8,3.4 10.4,4.6 1.4,0.5 3.2,1.1 3.5,2.6 0.2,1 -0.4,2 -1.2,2.8 -1.7,1.6 -4.2,2.2 -6.5,2.7 -7.4,1.7 -14.8,3.4 -22.2,5 -1.3,0.3 -2.6,0.6 -4,0.6 -2.8,0.1 -5.7,-0.9 -7.8,-2.7 -0.7,-0.6 -1.3,-1.3 -1.8,-2.2 -0.5,-0.9 -0.7,-2 -0.8,-3.1 -0.2,-2.5 -0.1,-7.4 2.4,-8.9 0.9,-0.5 2.2,-0.4 3.2,-0.5 2,-0.3 4,-0.6 6.1,-0.8 z"
   id="path51"
   inkscape:connector-curvature="0"
   style="fill:#a06c48" />
	<path
   class="st11"
   d="m 101.5,71.8 c -0.4,1.9 -0.3,3.9 0.7,5.5 1.2,2.2 3.6,3.4 5.9,4.3 0.8,0.3 1.8,0.6 2.5,0 0.4,-0.3 0.6,-0.7 0.7,-1.1 0.9,-2 1.6,-4.2 1.6,-6.4 0,-2.2 -0.7,-4.5 -2.3,-6.1 -1.5,-1.5 -3.9,-2.2 -5.9,-1.5 -1.8,0.7 -2.8,3.6 -3.2,5.3 z"
   id="path53"
   inkscape:connector-curvature="0"
   style="fill:#bd9574" />
	<path
   class="st12"
   d="m 170.3,65.6 c 3.4,-2.2 5.4,-6 7.5,-9.5 0.1,-0.2 0.2,-0.4 0.4,-0.5 0.2,-0.2 0.5,-0.2 0.7,-0.3 3.6,-0.8 7.2,-1.6 10.8,-2.4 1.9,-0.4 4,-0.9 5.8,-0.2 1.7,0.6 3,2 4,3.6 0.7,1 1.2,2.1 1.3,3.2 0,1.5 -0.9,2.9 -1.7,4.1 -0.6,0.8 -1.1,1.7 -2,2.2 -0.9,0.6 -1.9,0.8 -3,1 -6.4,1.1 -12.8,2 -19.1,3.6 -1.5,0.4 -3,0.8 -4.6,0.8 -1.9,0 -3.7,-0.5 -5.3,-1.5 -2.3,-1.4 0.8,-2.2 2.1,-2.7 1.1,-0.3 2.1,-0.8 3.1,-1.4 z"
   id="path55"
   inkscape:connector-curvature="0"
   style="fill:#664332" />
	<path
   class="st12"
   d="m 125.7,75 c -1.5,1.9 -3,3.8 -4.9,5.1 2.2,-0.1 4.3,-0.6 6.4,-1.1 3.6,-0.9 7.1,-1.8 10.6,-2.8 1.5,-0.4 3,-0.8 4.6,-1 0.5,0 1,-0.1 1.5,-0.2 0.9,-0.3 1.5,-1 1.9,-1.8 0.4,-0.8 0.6,-1.7 0.7,-2.6 0,-0.2 0,-0.4 0,-0.6 -0.1,-0.2 -0.4,-0.3 -0.6,-0.4 -0.8,-0.3 -1.6,-0.5 -2.4,-0.7 -1.2,-0.3 -2.4,-0.5 -3.5,-0.8 -1.4,-0.4 -2.7,-1.2 -4,-1.9 -0.9,-0.5 -2.6,-2 -3.7,-1.6 -0.9,0.3 -1.3,2.5 -1.8,3.3 -1.2,2.6 -3.2,4.7 -4.8,7.1 z"
   id="path57"
   inkscape:connector-curvature="0"
   style="fill:#664332" />
	<path
   class="st5"
   d="m 165.4,282.1 c -1.3,-1.4 -2.7,-2.8 -3.9,-4.3 0,0 0,0 0,0 -0.5,-0.1 -0.9,-0.4 -1.1,-1 -0.5,-8.6 -0.8,-16.7 -0.7,-25.2 -8.5,4 -18.9,4 -28,2.3 0.4,3.7 0.5,7.4 1.2,11 0.8,4.4 1.8,8.7 2.9,13 0,0.2 0.1,0.3 0,0.4 0.7,2 1.6,3.9 2.8,5.6 1,1.4 2.2,2.6 3.7,3.5 0.8,0.5 2,1.2 2.9,0.7 0.6,-0.3 0.9,-1 0.7,-1.7 0.7,0.4 1.4,0.8 2.1,1.2 0.5,0.3 1.1,0.6 1.7,0.8 0.6,0.1 1.3,0.1 1.8,-0.3 0.5,-0.4 0.3,-0.9 0.2,-1.7 0.9,0.6 1.3,1.3 2.2,1.6 0.5,0.2 1.2,0.2 1.7,0 0.5,-0.3 0.8,-1 0.6,-1.6 1.4,0.6 2.9,1 4.4,0.7 0.2,0 0.3,-0.1 0.5,-0.2 0.1,-0.1 0.2,-0.2 0.3,-0.3 0.4,-0.8 0.1,-1.9 -0.4,-2.7 1.1,0.2 2.2,0 3.3,-0.1 0.5,-0.1 1.2,-0.2 1.3,-0.7 0,-0.3 -0.1,-0.6 -0.2,-1 0.1,0.1 0.1,0.1 0,0 z"
   id="path59"
   inkscape:connector-curvature="0"
   style="fill:#ea7242" />
	<path
   class="st9"
   d="m 125.5,280.6 c -0.7,-0.9 -0.6,-1.2 -1.6,-1.7 -2.8,-0.1 -5.6,-0.2 -8.4,-0.3 -2.9,-0.1 -5.5,-0.4 -8,-2.1 -0.1,-0.1 -0.2,-0.2 -0.3,-0.3 -1.9,-0.7 -3.7,-1.5 -5.5,-2.5 0.1,0.1 0.1,0.1 0.2,0.2 -1.6,2.1 -1.7,5.2 -0.4,7.5 1.3,2.3 4,3.8 6.6,3.9 1.8,0.1 3.6,-0.4 4.9,-1.6 0.4,0.8 1.2,1.5 2.1,1.6 0.3,0 0.6,0.1 0.8,0.1 1.2,0 2.6,-0.3 3.4,-1.2 0.9,0.2 1.9,0.3 2.9,0.3 0.9,0 1.9,-0.1 2.7,-0.6 0.8,-0.5 1.3,-1.5 1,-2.4 0,-0.3 -0.2,-0.6 -0.4,-0.9 z"
   id="path61"
   inkscape:connector-curvature="0"
   style="fill:#bc532f" />
	<path
   class="st5"
   d="m 250,211.2 c 0,0 3.9,-2.5 3.5,-4.3 -0.4,-1.8 -5.6,-0.9 -5.6,-0.9 0,0 4.1,-3.7 3.2,-5.7 -0.9,-2 -6.2,0 -6.2,0 0,0 3.2,-5 2.3,-6.6 -0.9,-1.6 -7.8,3 -7.8,3 l -2.1,-2.3 -3.2,3.2 c -6.7,1.3 -14.4,2.4 -21.6,3.2 -6.1,9.6 -6.1,20.1 -3.4,30.6 27.8,-2.7 44,-16.5 44.3,-18.3 0.5,-1.9 -3.4,-1.9 -3.4,-1.9 z"
   id="path63"
   inkscape:connector-curvature="0"
   style="fill:#ea7242" />
	<path
   class="st9"
   d="m 170,276.3 c 0.5,0 0.9,0 1.4,0.1 0.4,0.1 0.8,0.3 1.2,0.5 0.5,0.3 1,0.5 1.4,0.8 0.4,0.2 0.7,0.5 0.9,0.9 0.4,0.7 0.2,1.6 -0.4,2.2 -0.6,0.6 -1.4,0.7 -2.2,0.6 -0.3,0 -0.7,-0.1 -1,-0.2 -1.6,-0.2 -3.2,0.9 -4.8,0.6 -0.9,-0.1 -1.6,-0.7 -2.3,-1.2 -0.8,-0.6 -1.6,-1.2 -2.3,-1.9 -0.5,-0.5 -0.9,-1.1 -1.2,-1.8 -0.3,-0.9 0.7,-0.7 1.3,-0.7 1.7,0 3.4,0.1 5.1,0.1 1,0.1 2,0 2.9,0 z"
   id="path65"
   inkscape:connector-curvature="0"
   style="fill:#bc532f" />
	<path
   class="st13"
   d="m 91.5,257.5 c -0.7,-2.3 -0.9,-4.8 -1.5,-7.1 -2.4,0.2 -9.1,0.6 -15.2,-2.7 -1.7,2.1 -2.9,4.5 -3.1,7.4 -0.1,2.4 0.6,4.4 1.8,6.2 0.6,0.2 1.1,0.3 1.5,0.4 3,0.7 6,1 9.1,1.3 3.1,0.3 6.3,0.5 9.4,0.1 -0.6,-1.8 -1.4,-3.7 -2,-5.6 z"
   id="path67"
   inkscape:connector-curvature="0"
   style="fill:#684223" />
	<path
   class="st13"
   d="m 102.5,176.1 c 5.1,0.2 10.2,-0.8 14.9,-2.8 1,-0.4 2,-0.9 2.8,-1.7 0.1,3.1 -1.2,6.1 -2.7,8.8 -0.4,0.6 -0.8,1.2 -1.3,1.6 -0.8,0.5 -1.8,0.6 -2.8,0.6 -6.8,-0.1 -13.6,-2.7 -18.8,-7.1 -0.7,-0.6 -1.5,-1.3 -1.5,-2.3 1.5,-0.2 2.5,1.3 3.7,1.9 1.9,0.7 3.8,1 5.7,1 z"
   id="path69"
   inkscape:connector-curvature="0"
   style="fill:#684223" />
	<path
   class="st9"
   d="m 132.4,260.7 c 1.5,4.4 4.6,8.2 8.5,10.6 4,2.4 8.8,3.2 13.4,2.4 1,-0.2 2.1,-0.5 2.9,-1 1.2,-0.7 2.1,-2 2.8,-3.2 -0.2,2 -0.2,4 0.1,6 0.1,0.6 0.2,1.3 0.4,1.9 0.3,0.7 0.7,1.3 1.2,1.8 0.8,1 1.7,1.9 2.7,2.8 0.2,0.2 0.5,0.5 0.5,0.8 0,0.4 -0.6,0.6 -1,0.7 -1.1,0.2 -2.2,0.4 -3.3,0.5 0.5,0.9 0.9,2.2 0.1,2.9 -0.3,0.3 -0.7,0.4 -1.1,0.4 -1.3,0.1 -2.6,-0.2 -3.6,-1 0.3,0.5 0,1.1 -0.5,1.4 -0.5,0.3 -1.1,0.3 -1.6,0.2 -0.9,-0.1 -1.8,-0.5 -2.5,-1.1 -0.3,0.8 -0.7,1.7 -1.6,1.7 -0.3,0 -0.5,-0.1 -0.7,-0.2 -1.1,-0.5 -2.1,-1.2 -3,-2 -0.2,0.8 -0.9,1.6 -1.7,1.7 -0.9,0.2 -1.9,-0.3 -2.6,-0.8 -1.8,-1.3 -2.9,-3.3 -4.1,-5.1 -1,-1.7 -2,-3.3 -2.6,-5.2 -0.6,-2 -0.7,-4.2 -1.2,-6.3 -0.6,-3.3 -2.3,-6.6 -1.5,-9.9 0.2,0.4 0.4,0.8 0.6,1.2"
   id="path71"
   inkscape:connector-curvature="0"
   style="fill:#bc532f" />
	<path
   class="st14"
   d="m 61.1,203.9 c -0.3,0.6 -0.5,1.3 -0.4,2 0.2,1 1,1.7 2,2 0.9,0.3 2,0.2 3,0.1 2.7,-0.3 5.3,-0.7 8,-1.3 1.4,-0.3 2.8,-0.7 4,-1.5 1.2,-0.8 2.1,-2.2 2,-3.6 -0.1,-2 -2.2,-3.4 -4.2,-3.9 -2.8,-0.7 -5.5,0.2 -8.1,0.8 -2.8,0.7 -5.2,3 -6.3,5.4 z"
   id="path73"
   inkscape:connector-curvature="0"
   style="fill:#aa7546" />
	<path
   class="st15"
   d="m 125.5,105.9 c 9.4,2.8 19.8,0.8 28.3,-4.1 3,-1.7 5.8,-3.8 7.6,-6.7 1.8,-2.9 2.5,-6.7 1,-9.8 -0.7,-1.4 -1.8,-2.6 -3,-3.6 -4.6,-3.6 -11,-4.3 -16.6,-2.9 -7.5,1.9 -16.3,7.3 -21.4,13.2 -4.6,5.4 -2.6,11.9 4.1,13.9 z"
   id="path75"
   inkscape:connector-curvature="0"
   style="fill:#aad680" />
	<path
   class="st15"
   d="m 97.8,234.8 c 0.4,0.9 0.8,1.7 1.6,2.3 1.1,0.8 2.6,0.9 3.9,0.4 1.3,-0.5 2.4,-1.4 3.4,-2.3 3,-2.9 5.4,-6.4 6.9,-10.3 1,-2.5 1.6,-5.2 0.9,-7.7 -0.7,-2.5 -3.1,-4.7 -5.7,-4.5 -1,0.1 -2,0.5 -2.9,1 -7.2,4 -11.3,13.1 -8.1,21.1 z"
   id="path77"
   inkscape:connector-curvature="0"
   style="fill:#aad680" />
	<path
   class="st11"
   d="m 129.8,65.4 c 0.4,-0.1 0.8,-0.1 1.1,0 0.3,0.2 0.5,0.7 0.2,0.9 -0.1,0.1 -0.2,0.1 -0.3,0.1 -4.5,1.1 -14.8,3.4 -15.1,2.9 -0.3,-0.5 0,-1.1 -0.4,-1.6 0.4,-0.2 0.7,-0.1 1.1,0 0.6,0 1.1,-0.1 1.7,-0.2 1.3,-0.2 2.6,-0.5 4,-0.7 2.5,-0.4 5.1,-0.9 7.7,-1.4 z"
   id="path79"
   inkscape:connector-curvature="0"
   style="fill:#bd9574" />
</g>
<g
   id="Слой_6"
   transform="translate(-44.397347,-10.7)">
	<g
   id="g84">
		<path
   d="m 150.3,289.6 c -0.3,0 -0.5,0 -0.8,-0.1 -0.8,-0.2 -1.4,-0.5 -2,-0.9 l -0.8,-0.4 c -0.2,0.4 -0.6,0.7 -1,1 -1.6,0.8 -3.3,-0.3 -4,-0.7 -1.7,-1 -3,-2.3 -4,-3.8 -1.9,-2.9 -3.1,-6.1 -4,-9 -1.4,0.5 -2.9,0.8 -4.3,0.8 -1.4,1 -2.6,1.5 -3.9,1.9 -0.1,0 -0.2,0.1 -0.4,0.1 0.3,0.2 0.5,0.5 0.7,0.8 0.1,0.2 0.2,0.4 0.4,0.6 0.3,0.3 0.6,0.7 0.7,1.3 0.4,1.3 -0.2,2.8 -1.5,3.6 -1.1,0.7 -2.4,0.8 -3.2,0.8 -0.8,0 -1.7,-0.1 -2.6,-0.2 -0.9,0.7 -2.2,1.1 -3.7,1.1 -0.3,0 -0.6,0 -1,-0.1 -0.8,-0.1 -1.5,-0.5 -2.1,-1.1 -1.3,0.8 -3,1.2 -4.7,1.1 -3.1,-0.2 -6,-1.9 -7.5,-4.5 -1.4,-2.4 -1.4,-5.6 -0.1,-7.9 -4.3,-4.3 -6.2,-8.2 -6.8,-9.9 -3.3,0.4 -6.6,0.2 -9.7,-0.1 -2.8,-0.2 -6.1,-0.6 -9.2,-1.3 -5.4,-1.3 -20.7,-7.5 -27.3,-21 -4.6,-9.5 -4.1,-20.6 1.6,-33.1 1.5,-3.1 12.5,-18 29.3,-15.5 6.1,0.9 10.6,6 10.6,11.9 0,1.2 -0.2,2.3 -0.5,3.4 -1.3,3.8 -4.8,6.1 -7.4,7.4 -1.6,0.8 -3.3,1.3 -5,1.9 -2.8,0.9 -5.4,1.8 -7.7,3.5 -1.5,1.1 -2.6,2.5 -3.2,4.1 -0.8,2.1 -0.9,4.3 -0.2,7.1 4.2,17.5 20.5,17.2 24.7,16.8 -1.5,-11.2 4.1,-27.9 20.5,-41.1 12.1,-9.8 15.2,-14.5 16,-16.2 -6.7,-3 -9.9,-6.7 -11,-8.2 -10.1,1.8 -24.5,-9.9 -34.5,-22.7 -6.8,-8.6 -13.6,-20.7 -10.6,-26.2 5.2,-9.6 27.1,-11.2 31.8,-11.5 2.9,-16.9 19.7,-34.7 28.5,-40 3.6,-2.2 6.2,-4 7.9,-5.3 L 112,83.6 c -0.4,0 -8.9,0.2 -11.2,-6.5 -2.3,-6.6 3.7,-12.1 3.9,-12.4 l 0.2,-0.2 20.4,-2.8 C 107.7,49.6 107.2,24.6 107.2,23.5 v -1 h 1 c 27.8,-1.1 41,16.3 45,23 1.9,-7.3 8.2,-27 23,-34.4 l 0.8,-0.4 0.5,0.6 c 0.2,0.2 15.2,18.6 4.1,42 l 11.5,-2.7 h 0.2 c 0.3,0 7.3,1.2 7.9,7.2 0.6,5.8 -3.6,8.9 -3.8,9.1 l -0.2,0.1 -20.9,4.1 c 8.4,2.1 25.4,6.8 35.6,13.1 11.4,7 18.9,14.1 21,16.2 2.6,-1.6 9.3,-5.3 12.5,-2.9 3.2,2.4 16.9,26.7 2.8,48.6 0.1,1.9 0,10.7 -5.4,21 -5.5,10.5 -17.7,24.5 -44.8,32 h -0.2 c -3.6,0.3 -7.2,1 -9,1.6 6,0.5 27.2,-0.9 44.8,-4.3 l 3.8,-3.8 2.2,2.4 c 2.1,-1.3 5.6,-3.3 7.4,-2.9 0.6,0.1 1,0.5 1.1,0.8 0.7,1.3 0,3.5 -1,5.4 1.9,-0.4 4.1,-0.4 4.9,1.3 0.7,1.5 -0.3,3.4 -1.5,4.8 1.8,0 3.6,0.4 3.9,2 0.3,1.4 -0.8,2.8 -2,3.9 0.6,0.2 1.2,0.5 1.5,1 0.4,0.5 0.6,1.1 0.4,1.7 -0.5,2.7 -18.9,17.4 -48.4,19.4 -17,1.1 -23.4,0.8 -25.9,0.3 l -1.7,4.9 c 2.9,2.5 15.3,14 11.9,26.2 -2.5,9 -10.4,11.9 -15.5,12.7 0.4,0.3 0.7,0.6 1,1 0.5,0.8 0.7,1.7 0.5,2.6 l -0.1,0.3 -0.2,0.2 c -0.5,0.5 -1.6,1.5 -2.9,1.5 -0.6,0 -1,-0.1 -1.5,-0.3 -0.3,-0.1 -0.6,-0.2 -0.9,-0.2 0,0 -0.1,0.1 -0.2,0.1 -0.2,0.1 -0.3,0.2 -0.5,0.3 -0.5,0.2 -1,0.2 -1.4,0.2 -0.8,0 -1.5,-0.1 -2.3,-0.2 0,0.3 0,0.6 -0.1,0.9 -0.2,0.6 -0.7,1.3 -2.2,1.4 l -0.5,0.1 c -0.4,0 -0.8,0.1 -1.2,0.1 0.1,0.7 0.1,1.4 -0.3,2 -0.2,0.3 -0.3,0.5 -0.6,0.7 -0.3,0.3 -0.7,0.3 -0.9,0.4 -1.2,0.3 -2.4,0.2 -3.7,-0.2 -0.2,0.5 -0.6,0.8 -1,1.1 -0.7,0.4 -1.6,0.4 -2.5,0.1 -0.4,-0.1 -0.8,-0.3 -1.1,-0.5 -0.1,0.1 -0.2,0.3 -0.4,0.4 0,0.9 -0.7,1.1 -1.4,1.1 z m -6.1,-5.3 4.3,2.5 c 0.5,0.3 0.9,0.5 1.4,0.6 0.3,0.1 0.5,0 0.7,0 0,-0.3 -0.1,-0.7 0.1,-1.2 l 0.4,-1.7 1.3,1.1 c 0.2,0.2 0.4,0.4 0.6,0.6 0.4,0.4 0.8,0.7 1.2,0.9 0.3,0.1 0.6,0.1 0.8,0.1 0.1,-0.1 0.2,-0.3 0.2,-0.3 l -0.8,-2.4 2.3,1.1 c 1.4,0.6 2.5,0.8 3.6,0.6 v 0 c 0.2,-0.5 0,-1.1 -0.4,-1.5 l -1.6,-2.2 2.7,0.5 c 0.7,0.1 1.6,0 2.4,-0.1 l 0.5,-0.1 c 0.2,0 0.3,-0.1 0.4,-0.1 0,0 0,-0.1 0,-0.2 v -0.1 c -0.2,-1 0.1,-1.5 0.4,-1.8 l 0.4,-0.4 0.6,0.1 c 1.1,0.2 2.1,0.3 3.1,0.3 0.2,0 0.5,0 0.6,0 0.1,0 0.2,-0.1 0.2,-0.1 0.3,-0.2 0.7,-0.4 1.2,-0.4 0.6,0 1.1,0.1 1.5,0.3 0.3,0.1 0.6,0.2 0.8,0.2 0.3,0 0.8,-0.4 1.2,-0.7 0,-0.2 -0.1,-0.5 -0.2,-0.7 -0.8,-1.1 -3.2,-1.7 -4,-1.9 l 0.2,-2.1 c 0.6,0 14.5,0.5 17.9,-11.6 3.4,-12.2 -11.6,-24.4 -11.8,-24.5 l -0.6,-0.5 3.5,-10.1 0.9,2.3 c 1,0.3 5.6,1 25.6,-0.3 28.1,-1.9 45,-15.2 46.5,-17.7 -0.2,-0.3 -1.5,-0.5 -2.5,-0.5 h -3.6 l 3,-2 c 1.7,-1.1 3.2,-2.7 3.1,-3.2 -0.3,-0.3 -2.5,-0.4 -4.4,-0.1 l -3.7,0.6 2.8,-2.5 c 1.7,-1.5 3.3,-3.7 2.9,-4.5 -0.2,-0.6 -2.7,-0.3 -4.8,0.6 l -3,1.2 1.8,-2.8 c 1.3,-2.1 2.3,-4.5 2.3,-5.3 -1,0.1 -3.8,1.5 -6.3,3.1 l -0.8,0.5 -1.9,-2.1 -2.6,2.6 -0.3,0.1 c -16,3.1 -46,6.1 -48.4,3.6 -0.3,-0.3 -0.4,-0.8 -0.4,-1.2 0.5,-2.3 6.8,-3.3 12.1,-3.8 26.3,-7.2 38.1,-20.7 43.4,-30.8 5.7,-10.9 5.2,-20.3 5.2,-20.4 v -0.4 l 0.2,-0.3 c 13.5,-20.7 0.5,-44.1 -2.1,-46 -1.7,-1.3 -7.3,1.2 -10.8,3.4 l -0.7,0.5 -0.6,-0.7 C 232.1,102.3 224.3,94.1 211,85.9 197.8,77.7 171.4,72 171.2,72 l -5.1,-1.1 30.4,-5.9 c 0.7,-0.6 3.2,-3 2.8,-7 -0.4,-3.9 -5,-5.1 -6,-5.3 l -15.6,3.6 1.1,-2.1 c 11,-20.6 0.2,-37.4 -2.3,-41 -16.4,8.9 -21.7,35 -21.8,35.2 l -0.7,3.3 -1.4,-3.1 c -0.1,-0.2 -11.1,-24.3 -42,-24.3 -0.4,0 -0.8,0 -1.3,0 0.3,5.1 2.6,27.3 19.5,36.9 l 2.8,1.6 -25.7,3.5 c -1,1 -4.7,5.2 -3.1,9.9 1.7,4.9 8.2,5 9,5 0,0 0,0 0,0 L 145.2,74.3 143,77 c -0.1,0.1 -2.8,3 -11.5,8.3 -8.4,5.1 -25.4,23.2 -27.7,39.4 l -0.1,0.9 h -0.9 c -0.3,0 -25.8,0.9 -30.9,10.4 -2,3.7 2.3,13.6 10.4,23.9 9.5,12.1 23.9,24.1 33,21.8 l 0.8,-0.2 0.4,0.7 c 0,0 2.9,4.9 11.3,8.4 l 0.7,0.3 v 0.8 c 0,0.5 -0.7,5.2 -17.1,18.4 C 95.3,223 90,239.4 91.8,250 c 0.1,0.4 0,0.7 -0.2,1 -0.2,0.3 -0.5,0.5 -0.9,0.5 -2.3,0.3 -22.9,2.5 -27.9,-18.4 -0.8,-3.2 -0.7,-5.9 0.3,-8.4 0.8,-1.9 2.1,-3.6 3.9,-5 2.6,-1.9 5.5,-2.9 8.3,-3.8 1.6,-0.5 3.2,-1.1 4.8,-1.8 2.3,-1.1 5.3,-3 6.3,-6.1 0.3,-0.8 0.4,-1.7 0.4,-2.7 0,-4.8 -3.8,-9 -8.8,-9.8 -15.5,-2.4 -25.7,11.4 -27.1,14.3 -5.4,11.8 -6,22.3 -1.6,31.2 6.2,12.8 20.8,18.7 25.9,19.9 3,0.7 6.2,1 8.9,1.3 3,0.3 6.2,0.5 9.3,0.1 0.9,-0.1 1.8,0.4 2.1,1.2 0.6,1.5 2.5,5.5 7,9.8 l 0.7,0.7 -0.6,0.8 c -1.3,1.7 -1.4,4.4 -0.3,6.4 1.1,1.9 3.4,3.3 5.8,3.4 1.6,0.1 3.1,-0.4 4.1,-1.3 l 1.1,-1 0.6,1.3 c 0.3,0.5 0.8,0.9 1.3,1 0.2,0 0.4,0 0.6,0 0.9,0 2,-0.2 2.7,-0.9 l 0.4,-0.4 0.6,0.1 c 0.9,0.2 1.8,0.3 2.6,0.3 1,0 1.6,-0.2 2.1,-0.5 0.4,-0.3 0.7,-0.8 0.6,-1.2 -0.1,-0.2 -0.2,-0.4 -0.3,-0.6 -0.3,-0.3 -0.4,-0.6 -0.6,-0.8 -0.3,-0.4 -0.3,-0.5 -1.8,-1.1 l -2.4,-0.9 2.3,-1.1 c 1,-0.5 1.9,-0.8 2.7,-1 1.4,-0.5 2.4,-0.8 3.6,-1.8 l 0.3,-0.2 h 0.4 c 1.5,0 3.3,-0.3 4.9,-1 l 1.1,-0.5 0.3,1.2 c 0.9,3.1 2,6.6 4,9.6 0.8,1.2 2,2.3 3.4,3.2 1.2,0.8 1.7,0.7 1.9,0.6 0.1,-0.1 0.2,-0.3 0.2,-0.4 z m 16.2,1.9 0.4,0.9 -0.3,-0.8 z m 92.1,-73.5 z"
   id="path82"
   inkscape:connector-curvature="0" />
	</g>
	<g
   id="g88">
		<path
   d="M 94,264.8 C 90.1,258.5 89.6,249.4 89.6,249 l 2.1,-0.1 c 0,0.1 0.5,9 4.1,14.8 z"
   id="path86"
   inkscape:connector-curvature="0" />
	</g>
	<g
   id="g92">
		<path
   d="m 99.7,270.9 c 2.1,1.1 3.9,2.5 5.6,3.7 0.9,0.6 1.7,1.3 2.6,1.8 0.9,0.6 1.8,1.2 2.9,1.7 -1.2,0.3 -2.4,0.1 -3.6,-0.2 -1.2,-0.4 -2.2,-1 -3.2,-1.6 -1,-0.7 -1.8,-1.5 -2.6,-2.4 -0.7,-0.9 -1.3,-1.9 -1.7,-3 z"
   id="path90"
   inkscape:connector-curvature="0" />
	</g>
	<g
   id="g96">
		<path
   d="m 126.2,277.1 c -0.4,0.7 -1.1,1.2 -1.8,1.6 -0.7,0.3 -1.5,0.6 -2.3,0.6 -0.8,0.1 -1.6,0 -2.3,-0.1 -0.8,-0.2 -1.5,-0.5 -2.1,-1 0.8,-0.3 1.5,-0.5 2.2,-0.6 0.7,-0.1 1.4,-0.2 2,-0.3 0.7,-0.1 1.3,-0.1 2,-0.1 0.8,-0.1 1.5,-0.2 2.3,-0.1 z"
   id="path94"
   inkscape:connector-curvature="0" />
	</g>
	<g
   id="g100">
		<path
   d="m 135.2,215.2 c -0.4,0.5 -0.6,1.1 -0.9,1.6 -0.2,0.6 -0.4,1.2 -0.6,1.8 -0.3,1.2 -0.5,2.4 -0.7,3.7 -0.4,2.5 -0.5,4.9 -0.7,7.4 -0.2,5 -0.3,10 -0.3,14.9 0,5 0.3,9.9 0.9,14.8 0.2,2.5 0.6,4.9 1,7.3 0.2,1.2 0.4,2.4 0.7,3.6 0.1,0.6 0.2,1.2 0.4,1.8 l 0.2,0.9 c 0,0.3 0.5,0.5 -0.8,1.2 -1.5,0.1 -1.1,-0.4 -1.3,-0.6 l -0.3,-0.9 c -0.2,-0.6 -0.3,-1.2 -0.5,-1.8 -0.3,-1.2 -0.6,-2.5 -0.9,-3.7 -0.5,-2.5 -0.9,-5 -1.2,-7.5 -0.5,-5 -0.6,-10.1 -0.4,-15.1 0.2,-5 0.5,-10 1.1,-15 0.3,-2.5 0.7,-5 1.2,-7.5 0.3,-1.2 0.6,-2.4 1.1,-3.6 0.6,-1.2 1.1,-2.5 2,-3.3 z"
   id="path98"
   inkscape:connector-curvature="0" />
	</g>
	<g
   id="g104">
		<path
   d="m 132.2,266.8 c 0.5,0.8 0.6,1.6 0.6,2.5 0,0.8 -0.2,1.7 -0.6,2.4 -0.3,0.8 -0.9,1.5 -1.5,2 -0.6,0.6 -1.4,1 -2.2,1.2 0.3,-0.8 0.6,-1.5 0.9,-2.2 l 0.9,-1.9 0.9,-1.9 z"
   id="path102"
   inkscape:connector-curvature="0" />
	</g>
	<g
   id="g108">
		<path
   d="m 113.6,235.3 c 0.6,-0.2 1.2,-0.2 1.8,-0.1 0.6,0.1 1.2,0.3 1.8,0.5 1.1,0.5 2.2,1.4 2.6,2.6 -0.6,-0.3 -1,-0.6 -1.5,-0.9 -0.5,-0.2 -1,-0.5 -1.5,-0.7 -1.1,-0.4 -2.1,-0.8 -3.2,-1.4 z"
   id="path106"
   inkscape:connector-curvature="0" />
	</g>
	<g
   id="g112">
		<path
   d="m 122.8,240.1 c 1.2,0.3 2.2,0.9 3.2,1.5 1,0.7 1.8,1.5 2.6,2.5 0.8,0.9 1.4,2 1.8,3.1 0.4,1.1 0.7,2.3 0.6,3.5 -0.8,-0.9 -1.4,-1.9 -2.1,-2.7 -0.7,-0.9 -1.3,-1.7 -2,-2.6 -1.3,-1.7 -2.7,-3.3 -4.1,-5.3 z"
   id="path110"
   inkscape:connector-curvature="0" />
	</g>
	<g
   id="g116">
		<path
   d="m 154.8,214 c 1,0.4 1.8,1.2 2.4,2 0.6,0.8 1.1,1.8 1.2,2.9 -0.8,-0.7 -1.4,-1.5 -2,-2.3 -0.6,-0.8 -1.2,-1.6 -1.6,-2.6 z"
   id="path114"
   inkscape:connector-curvature="0" />
	</g>
	<g
   id="g120">
		<path
   d="m 160.7,224.1 c 1.8,4.1 2.6,8.7 2.1,13.3 -0.1,1.1 -0.3,2.3 -0.5,3.4 -0.2,1.1 -0.3,2.2 -0.5,3.3 -0.3,2.2 -0.5,4.4 -0.6,6.6 -0.2,4.4 -0.3,8.9 -0.3,13.3 0.1,4.4 0.1,8.9 0,13.4 v 0 l -0.2,-0.3 c 1.1,0.6 2,1.4 2.8,2.1 0.4,0.4 0.9,0.8 1.3,1.2 0.4,0.4 0.8,0.8 0.7,1.9 -1,0.2 -1.4,-0.2 -1.9,-0.6 -0.5,-0.4 -0.9,-0.8 -1.3,-1.2 -0.8,-0.8 -1.6,-1.7 -2.3,-2.7 l -0.1,-0.2 v -0.1 0 c -0.5,-4.5 -0.8,-8.9 -1.1,-13.4 -0.1,-4.5 -0.1,-9 0.3,-13.5 0.2,-2.2 0.5,-4.5 0.9,-6.7 0.2,-1.1 0.4,-2.2 0.7,-3.3 0.3,-1.1 0.5,-2.2 0.7,-3.2 0.7,-4.5 0.4,-9 -0.7,-13.3 z"
   id="path118"
   inkscape:connector-curvature="0" />
	</g>
	<g
   id="g124">
		<path
   d="m 163.7,277.9 c 0.4,-0.1 0.9,0 1.3,0.1 0.4,0.2 0.8,0.4 1.1,0.8 0.3,0.4 0.4,1 0.3,1.4 -0.1,0.5 -0.4,0.8 -0.8,1.1 0,-0.5 0,-0.8 -0.1,-1.1 -0.1,-0.3 -0.2,-0.5 -0.3,-0.8 -0.3,-0.5 -0.9,-0.9 -1.5,-1.5 z"
   id="path122"
   inkscape:connector-curvature="0" />
	</g>
	<g
   id="g128">
		<path
   d="m 168.2,277.9 c 0.4,-0.2 0.9,-0.2 1.3,-0.1 0.5,0.1 0.9,0.4 1.2,0.7 0.3,0.4 0.5,0.9 0.5,1.3 0,0.5 -0.1,0.9 -0.3,1.3 -0.2,-0.4 -0.3,-0.8 -0.5,-1.1 -0.2,-0.3 -0.3,-0.6 -0.5,-0.8 -0.3,-0.5 -0.9,-0.9 -1.7,-1.3 z"
   id="path126"
   inkscape:connector-curvature="0" />
	</g>
	<g
   id="g132">
		<path
   d="m 180.1,229.5 c -0.8,3.4 -1.9,6.7 -3.2,9.9 -1.3,3.2 -2.7,6.4 -4.3,9.5 -0.8,1.5 -1.7,3.1 -2.6,4.6 -1,1.5 -1.8,3 -2.9,4.4 -2.1,2.8 -4.4,5.5 -7.3,7.5 2.3,-2.6 4.1,-5.5 5.9,-8.4 1.8,-2.9 3.4,-5.9 5,-9 3.2,-6.2 6.1,-12.4 9.4,-18.5 z"
   id="path130"
   inkscape:connector-curvature="0" />
	</g>
	<g
   id="g136">
		<path
   d="m 184.6,211.2 c -0.1,2.2 -0.4,4.4 -0.8,6.5 -0.4,2.1 -0.9,4.2 -1.4,6.3 -0.6,2.1 -1.2,4.2 -2,6.2 -0.8,2 -1.7,4.1 -3,5.8 0.5,-2.1 0.9,-4.2 1.4,-6.3 0.5,-2.1 1,-4.2 1.6,-6.3 0.6,-2.1 1.2,-4.1 1.9,-6.2 0.6,-2 1.3,-4 2.3,-6 z"
   id="path134"
   inkscape:connector-curvature="0" />
	</g>
	<g
   id="g140">
		<path
   d="m 158.4,280.2 c 0.4,0.8 0.6,1.6 0.9,2.1 0.2,0.3 0.4,0.6 0.6,0.8 0.2,0.3 0.6,0.5 0.9,0.8 -0.4,0.1 -0.9,0.1 -1.4,-0.1 -0.4,-0.2 -0.8,-0.6 -1.1,-1 -0.2,-0.4 -0.4,-0.9 -0.4,-1.4 0.2,-0.3 0.3,-0.8 0.5,-1.2 z"
   id="path138"
   inkscape:connector-curvature="0" />
	</g>
	<g
   id="g144">
		<path
   d="m 154.2,283 c 0.7,0.4 1.1,0.9 1.5,1.5 0.3,0.6 0.6,1.2 0.5,2 -0.7,-0.4 -1.1,-0.9 -1.5,-1.5 -0.3,-0.6 -0.6,-1.2 -0.5,-2 z"
   id="path142"
   inkscape:connector-curvature="0" />
	</g>
	<g
   id="g148">
		<path
   d="m 150.1,283.5 c 0.7,0.4 1.1,1 1.5,1.6 0.3,0.6 0.6,1.3 0.6,2.1 -0.7,-0.4 -1.1,-1 -1.5,-1.6 -0.3,-0.6 -0.6,-1.3 -0.6,-2.1 z"
   id="path146"
   inkscape:connector-curvature="0" />
	</g>
	<g
   id="g152">
		<path
   d="m 143.9,283.5 c 0.7,0.3 1.1,0.7 1.5,1.2 0.3,0.5 0.6,1.1 0.6,1.8 -0.7,-0.3 -1.1,-0.7 -1.5,-1.2 -0.4,-0.5 -0.6,-1.1 -0.6,-1.8 z"
   id="path150"
   inkscape:connector-curvature="0" />
	</g>
	<g
   id="g156">
		<path
   d="m 110.4,280.1 c 0.5,0 1,0.1 1.5,0.2 0.5,0.2 0.9,0.4 1.4,0.8 0.2,0.2 0.5,0.5 0.6,0.7 0.1,0.3 0.2,0.6 0.1,0.9 -0.1,0.6 -0.5,1.2 -1,1.3 0.2,-0.5 0.2,-0.9 0.2,-1.3 0,-0.2 -0.1,-0.4 -0.2,-0.5 -0.1,-0.2 -0.2,-0.3 -0.4,-0.4 -0.3,-0.2 -0.7,-0.5 -1.1,-0.8 -0.3,-0.2 -0.7,-0.5 -1.1,-0.9 z"
   id="path154"
   inkscape:connector-curvature="0" />
	</g>
	<g
   id="g160">
		<path
   d="m 117.8,279.8 c 0.6,0 1.1,0.2 1.6,0.5 0.5,0.3 1,0.8 1.1,1.6 0.1,0.7 -0.3,1.4 -0.8,1.8 -0.5,0.4 -1.1,0.5 -1.6,0.6 0.3,-0.5 0.8,-0.8 1,-1.2 0.3,-0.4 0.4,-0.7 0.3,-1 0,-0.3 -0.2,-0.7 -0.5,-1.1 -0.4,-0.4 -0.7,-0.8 -1.1,-1.2 z"
   id="path158"
   inkscape:connector-curvature="0" />
	</g>
	<g
   id="g164">
		<path
   d="m 231,200.5 c 0.3,-0.6 0.6,-1.1 0.9,-1.5 0.3,-0.4 0.6,-0.8 1,-1.1 0.3,-0.3 0.7,-0.6 1.1,-0.9 0.4,-0.3 0.9,-0.6 1.5,-0.8 0.1,0.7 0,1.3 -0.2,1.8 -0.2,0.5 -0.6,1 -1,1.4 -0.4,0.4 -0.9,0.7 -1.5,0.9 -0.6,0.3 -1.2,0.4 -1.8,0.2 z"
   id="path162"
   inkscape:connector-curvature="0" />
	</g>
	<g
   id="g168">
		<path
   d="m 238.7,195.6 c 0.8,0.3 1.4,0.9 1.8,1.7 0.4,0.7 0.6,1.6 0.5,2.5 -0.1,0.9 -0.3,1.6 -0.7,2.3 -0.4,0.7 -1,1.4 -1.8,1.7 0.1,-0.8 0.1,-1.5 0.2,-2.2 l 0.2,-1.9 c 0,-0.6 0,-1.2 0,-1.8 0,-0.8 -0.1,-1.4 -0.2,-2.3 z"
   id="path166"
   inkscape:connector-curvature="0" />
	</g>
	<g
   id="g172">
		<path
   d="m 132.7,45.3 c 2.5,1.1 4.8,2.4 7.2,3.7 2.3,1.3 4.6,2.8 6.9,4.2 2.2,1.5 4.5,3.1 6.5,4.9 1,0.9 2,1.8 3,2.9 0.9,1 1.8,2.2 2.4,3.7 l -1.6,-0.5 c 0.7,-0.5 1.4,-1.3 2,-2 0.7,-0.7 1.3,-1.6 1.8,-2.4 1.1,-1.7 2.1,-3.5 3,-5.3 0.9,-1.8 1.6,-3.8 2.3,-5.7 0.3,-1 0.6,-2 1,-3 l 0.9,-3 c -0.1,1 -0.2,2.1 -0.3,3.1 -0.2,1 -0.3,2.1 -0.6,3.1 -0.2,1 -0.5,2.1 -0.8,3.1 l -0.5,1.5 -0.6,1.5 c -0.8,2 -1.7,3.9 -2.8,5.7 -0.6,0.9 -1.2,1.8 -1.9,2.6 -0.7,0.9 -1.4,1.6 -2.3,2.4 l -1,0.9 -0.6,-1.3 c -0.4,-1 -1.2,-2 -2.1,-3 -0.9,-1 -1.8,-1.9 -2.8,-2.7 -2,-1.7 -4.1,-3.4 -6.2,-5 -4.1,-3.2 -8.5,-6.2 -12.9,-9.4 z"
   id="path170"
   inkscape:connector-curvature="0" />
	</g>
	<g
   id="g176">
		<path
   d="m 107,66.9 c 1.5,-0.5 3.3,0.3 4.4,1.5 1.1,1.3 1.7,2.9 2,4.4 0.3,1.5 0.4,3.2 -0.1,4.8 -0.2,0.8 -0.6,1.6 -1.1,2.2 -0.5,0.6 -1.3,1.2 -2.1,1.2 1.2,-1 1.4,-2.4 1.5,-3.7 0,-1.3 -0.1,-2.7 -0.4,-4.1 -0.2,-1.4 -0.6,-2.7 -1.3,-3.8 -0.5,-1.1 -1.4,-2.1 -2.9,-2.5 z"
   id="path174"
   inkscape:connector-curvature="0" />
	</g>
	<g
   id="g180">
		<path
   d="m 127.2,60.7 6.3,3.5 c 2.1,1.1 4.2,2.2 6.3,3.1 0.5,0.2 1.1,0.4 1.6,0.6 0.5,0.1 1.1,0.3 1.7,0.4 0.6,0.2 1.2,0.4 1.8,0.6 0.6,0.3 1.3,0.6 1.8,1.2 0.3,0.3 0.5,0.8 0.6,1.3 0,0.5 -0.1,0.9 -0.3,1.3 -0.4,0.7 -0.8,1.1 -1.3,1.6 -1,0.8 -2,1.5 -3.1,2.1 0.8,-1 1.6,-1.8 2.3,-2.8 0.3,-0.5 0.6,-1 0.8,-1.4 0.1,-0.2 0.1,-0.4 0,-0.5 0,-0.1 -0.1,-0.2 -0.2,-0.3 -1.3,-1 -4.2,-1 -6.5,-2.1 -2.3,-1 -4.4,-2.2 -6.4,-3.7 -1.9,-1.5 -3.8,-3.1 -5.4,-4.9 z"
   id="path178"
   inkscape:connector-curvature="0" />
	</g>
	<g
   id="g184">
		<path
   d="m 180.8,51.9 c -0.6,2 -1.5,3.8 -2.5,5.6 -1,1.8 -2.2,3.5 -3.6,5.1 -1.4,1.6 -3,3 -4.7,4.2 -1.8,1.2 -3.8,2.1 -5.9,2.5 l 0.6,-1.4 c 0,0 0.2,0.2 0.3,0.3 0.1,0.1 0.3,0.3 0.5,0.4 0.3,0.2 0.7,0.5 1.1,0.7 0.8,0.4 1.7,0.8 2.6,1.1 0.9,0.3 1.8,0.5 2.8,0.8 l 2.9,0.6 c -1,0.1 -2,0.1 -3,0.1 -0.5,0 -1,-0.1 -1.5,-0.1 -0.5,-0.1 -1,-0.1 -1.5,-0.2 -1,-0.2 -2,-0.4 -3,-0.8 -0.5,-0.2 -1,-0.4 -1.4,-0.7 -0.2,-0.2 -0.5,-0.3 -0.7,-0.5 -0.2,-0.2 -0.4,-0.3 -0.7,-0.8 l -0.7,-1 1.3,-0.4 c 0.9,-0.3 1.8,-0.6 2.7,-1 0.9,-0.4 1.7,-0.9 2.5,-1.4 1.6,-1.1 3.1,-2.4 4.5,-3.8 1.4,-1.4 2.7,-2.9 4,-4.5 1.1,-1.5 2.3,-3.1 3.4,-4.8 z"
   id="path182"
   inkscape:connector-curvature="0" />
	</g>
	<g
   id="g188">
		<path
   d="m 100.3,124.7 c 1.5,-0.7 3.1,-0.7 4.7,-0.6 1.6,0.1 3.1,0.4 4.7,0.9 0.8,0.2 1.5,0.5 2.3,0.9 0.7,0.4 1.5,0.9 2,1.6 0.1,0.2 0.3,0.4 0.4,0.6 l 0.3,0.5 c 0.2,0.3 0.4,0.7 0.5,1 0.3,0.7 0.7,1.4 1,2.1 2.5,5.7 4.3,11.7 5.3,17.8 0.5,3.1 0.7,6.2 0.9,9.3 0,1.6 0.1,3.1 0,4.7 0,1.6 -0.1,3.1 -0.2,4.7 -0.3,3.1 -0.8,6.2 -1.9,9.2 -0.6,1.5 -1.3,3 -2.4,4.2 -0.6,0.6 -1.2,1.2 -2,1.6 -0.8,0.3 -1.8,0.4 -2.5,-0.2 0.8,-0.2 1.4,-0.5 2,-0.9 0.6,-0.4 1.1,-0.8 1.5,-1.4 0.9,-1.1 1.4,-2.5 1.9,-3.9 0.8,-2.8 1.2,-5.8 1.4,-8.9 0.2,-3 0.2,-6.1 0.1,-9.1 -0.2,-3 -0.4,-6 -0.9,-9 -0.9,-6 -2.3,-12 -4.5,-17.6 -0.3,-0.7 -0.6,-1.4 -0.9,-2.1 -0.2,-0.3 -0.3,-0.7 -0.5,-1 l -0.3,-0.5 c -0.1,-0.1 -0.2,-0.3 -0.3,-0.4 -0.8,-1 -2.3,-1.5 -3.7,-1.8 -1.4,-0.3 -2.9,-0.5 -4.4,-0.7 -1.5,-0.2 -3,-0.4 -4.5,-1 z"
   id="path186"
   inkscape:connector-curvature="0" />
	</g>
	<g
   id="g192">
		<path
   d="m 248.4,146.1 -2.1,-0.3 c 3.2,-26.4 -13.8,-43 -14,-43.2 l 1.5,-1.5 c 0.1,0.2 18,17.6 14.6,45 z"
   id="path190"
   inkscape:connector-curvature="0" />
	</g>
	<g
   id="g196">
		<path
   d="m 243.3,117.3 c -0.6,-0.4 -0.9,-1 -1.1,-1.6 -0.2,-0.6 -0.3,-1.2 -0.3,-1.9 0,-0.6 0.2,-1.3 0.5,-1.8 0.3,-0.6 0.7,-1.1 1.3,-1.5 0.2,0.7 0.3,1.3 0.3,1.8 0,0.6 0,1.1 0,1.6 0,0.5 -0.1,1 -0.2,1.6 -0.1,0.5 -0.2,1.1 -0.5,1.8 z"
   id="path194"
   inkscape:connector-curvature="0" />
	</g>
	<g
   id="g200">
		<path
   d="m 237.9,108.1 c -3.1,-3 -6.6,-5.6 -10.4,-7.4 -1.9,-0.9 -4,-1.5 -6,-1.8 -2.1,-0.3 -4.2,-0.1 -6.1,0.5 -1.9,0.6 -3.6,1.8 -5,3.4 -1.3,1.5 -2.3,3.4 -3,5.4 -1.4,3.9 -2,8.2 -2,12.4 v 4.6 l -1.8,-4.2 c -1,-2.2 -2.1,-4.5 -3.2,-6.7 -1.2,-2.2 -2.5,-4.3 -3.9,-6.3 -1.4,-2 -3,-3.9 -4.8,-5.4 -1.8,-1.5 -4,-2.7 -6.3,-2.6 l 0.4,-0.2 c -0.4,0.4 -0.8,1.3 -0.9,2.2 -0.2,0.9 -0.3,1.9 -0.3,2.8 -0.1,1.9 -0.1,3.8 0,5.8 0.2,3.9 0.6,7.7 1.2,11.5 l 0.2,1.2 -0.8,-0.9 c -3.8,-4.2 -8.5,-7.7 -13.6,-10.3 -5.1,-2.6 -10.7,-4.2 -16.4,-4 -5.6,0.2 -11.2,2.1 -15.8,5.3 -4.7,3.1 -8.2,7.7 -10.3,12.9 -1,2.6 -1.8,5.3 -2.3,8.1 -0.4,2.8 -0.6,5.6 -0.6,8.4 0.1,5.6 1.1,11.2 3,16.6 1.8,5.3 4.4,10.4 8,14.7 3.5,4.3 8.2,7.8 13.6,9.1 h 0.1 0.1 c 1.4,0.6 2.9,1 4.4,1.4 0.8,0.2 1.5,0.3 2.3,0.4 0.8,0.1 1.5,0.2 2.3,0.2 3.1,0.2 6.3,-0.1 9.3,-0.9 0.8,-0.2 1.5,-0.4 2.2,-0.7 0.7,-0.3 1.5,-0.5 2.2,-0.9 l 2.1,-1.1 c 0.7,-0.4 1.3,-0.9 2,-1.3 l 1,-0.7 c 0.3,-0.2 0.6,-0.5 0.9,-0.8 l 1.8,-1.5 c 1.2,-1.1 2.2,-2.3 3.3,-3.4 l 0.2,0.1 -1.5,1.8 c -0.5,0.6 -1,1.3 -1.6,1.8 l -1.7,1.7 c -0.3,0.3 -0.6,0.6 -0.9,0.8 l -1,0.7 c -2.5,2.1 -5.5,3.5 -8.6,4.5 -3.1,1 -6.4,1.4 -9.7,1.3 -0.8,0 -1.6,-0.1 -2.4,-0.2 -0.8,-0.1 -1.6,-0.2 -2.4,-0.4 -1.6,-0.3 -3.2,-0.7 -4.8,-1.4 l 0.2,0.1 c -2.9,-0.6 -5.7,-1.9 -8.2,-3.5 -2.5,-1.6 -4.7,-3.7 -6.6,-5.9 -3.8,-4.5 -6.6,-9.8 -8.5,-15.4 -1.9,-5.6 -2.9,-11.4 -3,-17.3 0,-2.9 0.2,-5.9 0.7,-8.8 0.5,-2.9 1.4,-5.7 2.5,-8.5 2.3,-5.4 6.2,-10.3 11.2,-13.5 4.9,-3.2 10.8,-5 16.7,-5 5.9,0 11.6,1.8 16.7,4.5 2.6,1.4 5,2.9 7.3,4.7 2.3,1.8 4.5,3.6 6.5,5.8 l -0.6,0.3 c -0.6,-3.9 -1.1,-7.7 -1.4,-11.6 -0.2,-1.9 -0.3,-3.9 -0.2,-5.9 0,-1 0.1,-2 0.2,-3 0.2,-1 0.3,-2.1 1.3,-3.1 l 0.1,-0.1 h 0.3 c 1.4,-0.1 2.8,0.2 4,0.7 1.2,0.5 2.4,1.2 3.4,2.1 2.1,1.6 3.7,3.6 5.3,5.6 1.5,2.1 2.8,4.2 4.1,6.5 1.2,2.2 2.3,4.5 3.3,6.9 l -1.8,0.4 c 0,-2.3 0.2,-4.4 0.6,-6.6 0.4,-2.2 0.9,-4.3 1.7,-6.4 0.8,-2.1 1.9,-4.1 3.4,-5.8 1.5,-1.7 3.5,-3 5.7,-3.7 2.2,-0.6 4.5,-0.7 6.7,-0.3 2.2,0.4 4.3,1.2 6.3,2.2 2,1 3.8,2.3 5.5,3.6 1.7,1.4 3.3,2.9 4.7,4.5 z"
   id="path198"
   inkscape:connector-curvature="0" />
	</g>
	<g
   id="g204">
		<path
   d="m 204.5,132.5 c -3.4,-0.5 -7,0 -10,1.6 -1.5,0.8 -2.9,1.8 -4.1,2.9 -1.2,1.2 -2.2,2.6 -3.1,4 -3.6,5.8 -5,12.6 -4.8,19.4 l 0.1,2.5 c 0,0.8 0.2,1.7 0.3,2.5 l 0.2,1.3 0.3,1.2 c 0.2,0.8 0.4,1.7 0.6,2.5 1,3.3 2.6,6.3 4.6,9.1 2.1,2.7 4.6,5.1 7.6,6.9 2.9,1.8 6.2,3 9.6,3.2 0.8,0.1 1.7,-0.1 2.5,-0.1 0.4,0 0.8,-0.2 1.2,-0.3 0.4,-0.1 0.8,-0.2 1.2,-0.3 0.8,-0.3 1.6,-0.5 2.3,-0.9 0.8,-0.3 1.5,-0.7 2.2,-1.2 2.9,-1.7 5.3,-4.1 7.3,-6.8 2,-2.7 3.5,-5.8 4.4,-9 0.9,-3.2 1.4,-6.6 1.5,-9.9 0.4,-6.7 -1.8,-13.4 -6.2,-18.6 -4.5,-5.2 -10.8,-8.9 -17.7,-10 z m 0.1,-0.2 c 6.8,1.1 13.5,4.1 18.6,9.2 2.5,2.5 4.6,5.6 5.8,9 1.3,3.4 1.8,7.1 1.7,10.6 -0.1,3.6 -0.6,7.1 -1.7,10.6 -1.1,3.4 -2.8,6.7 -4.9,9.5 -2.2,2.9 -4.9,5.3 -8,7.1 -0.8,0.4 -1.6,0.9 -2.4,1.2 -0.8,0.4 -1.7,0.6 -2.6,0.9 -0.4,0.1 -0.9,0.2 -1.3,0.3 -0.4,0.1 -0.9,0.2 -1.3,0.2 -0.9,0 -1.8,0.1 -2.7,0 -3.6,-0.3 -6.9,-1.8 -9.9,-3.7 -3,-1.9 -5.5,-4.4 -7.7,-7.1 l -0.8,-1 c -0.3,-0.4 -0.5,-0.7 -0.7,-1.1 -0.5,-0.7 -1,-1.4 -1.4,-2.2 -0.4,-0.8 -0.9,-1.5 -1.2,-2.3 l -1,-2.4 c -0.4,-0.8 -0.5,-1.7 -0.8,-2.5 l -0.4,-1.3 -0.3,-1.3 c -0.2,-0.9 -0.4,-1.7 -0.5,-2.6 l -0.2,-2.6 c -0.1,-1.8 -0.1,-3.5 0.1,-5.3 0.1,-1.8 0.4,-3.5 0.9,-5.3 0.9,-3.5 2.4,-6.8 4.6,-9.6 1.1,-1.4 2.2,-2.8 3.6,-3.9 1.4,-1.1 2.9,-2.1 4.5,-2.8 2.9,-1.7 6.5,-2.1 10,-1.6 z"
   id="path202"
   inkscape:connector-curvature="0" />
	</g>
	<g
   id="g208">
		<path
   d="m 188.8,170.3 c 2,1.3 4.1,2.4 6.2,3.4 2.1,1 4.3,1.8 6.5,2.5 2.2,0.7 4.5,1.2 6.7,1.4 2.3,0.3 4.6,0.2 6.8,0.1 l -0.3,0.1 c 2.4,-1.1 4.4,-2.8 6.1,-4.9 1.7,-2.1 3.2,-4.4 4.4,-7 -0.3,1.4 -0.7,2.7 -1.3,4 -0.6,1.3 -1.2,2.6 -2,3.8 -0.8,1.2 -1.7,2.3 -2.8,3.3 -1.1,1 -2.3,1.9 -3.6,2.6 l -0.1,0.1 h -0.2 l -1.8,0.2 -0.9,0.1 h -0.9 -1.8 c -0.6,-0.1 -1.2,-0.1 -1.8,-0.2 -0.6,-0.1 -1.2,-0.2 -1.8,-0.3 -0.6,-0.1 -1.2,-0.2 -1.8,-0.4 -1.2,-0.3 -2.3,-0.7 -3.5,-1.1 -2.3,-0.8 -4.5,-1.9 -6.5,-3.2 -2,-1.3 -3.9,-2.8 -5.6,-4.5 z"
   id="path206"
   inkscape:connector-curvature="0" />
	</g>
	<g
   id="g212">
		<path
   d="m 201.1,149.5 c 0.8,0.1 1.4,0.5 1.9,1 0.5,0.5 1,1 1.2,1.8 -0.8,-0.1 -1.4,-0.5 -1.9,-1 -0.5,-0.5 -1,-1 -1.2,-1.8 z"
   id="path210"
   inkscape:connector-curvature="0" />
	</g>
	<g
   id="g216">
		<path
   d="m 215.6,146.2 c 0.6,0.8 0.9,1.6 1,2.5 0.2,0.9 0.2,1.8 0,2.7 -0.6,-0.8 -0.9,-1.6 -1,-2.5 -0.2,-0.9 -0.2,-1.8 0,-2.7 z"
   id="path214"
   inkscape:connector-curvature="0" />
	</g>
	<g
   id="g220">
		<path
   d="m 229.5,163.8 c 1.6,1.3 3.4,2.3 5.1,2.6 0.9,0.1 1.7,0.1 2.5,-0.2 0.8,-0.3 1.6,-0.7 2.3,-1.3 1.5,-1.1 2.7,-2.6 3.9,-4.2 1.1,-1.6 2.1,-3.3 2.9,-5.2 0.1,2.1 -0.6,4.2 -1.5,6.1 -1,1.9 -2.3,3.6 -4,5 -0.9,0.7 -1.9,1.3 -3,1.6 -1.2,0.3 -2.4,0.3 -3.5,-0.1 -2.2,-0.8 -3.8,-2.4 -4.7,-4.3 z"
   id="path218"
   inkscape:connector-curvature="0" />
	</g>
	<g
   id="g224">
		<path
   d="m 174.6,144.5 c 0.8,2.4 1.3,5 1.5,7.5 0.3,2.6 0.3,5.2 -0.2,7.8 -0.5,2.6 -1.4,5.2 -3,7.3 -1.6,2.2 -3.9,4 -6.5,4.8 -2.6,0.8 -5.5,0.5 -8,-0.4 -2.5,-0.9 -4.7,-2.5 -6.6,-4.2 -1.9,-1.8 -3.5,-3.8 -4.9,-5.9 -1.4,-2.2 -2.6,-4.5 -3.6,-6.9 -1,-2.5 -1.4,-5.1 -1.4,-7.7 0,-2.6 0.2,-5.3 0.8,-7.8 0.6,-2.6 1.5,-5.1 3,-7.4 0.7,-1.1 1.6,-2.2 2.7,-3.1 1.1,-0.9 2.3,-1.7 3.7,-2 2.7,-0.8 5.6,-0.6 8.2,0.4 2.6,0.9 4.8,2.5 6.7,4.4 3.8,3.6 6.1,8.3 7.6,13.2 z m -0.2,0 c -1.5,-4.8 -4.5,-9.3 -8.3,-12.4 -1.9,-1.6 -4.1,-2.8 -6.4,-3.5 -2.3,-0.7 -4.7,-0.8 -6.9,-0.1 -2.1,0.6 -3.9,2.3 -5.2,4.2 -1.3,2 -2.3,4.3 -2.9,6.7 -0.6,2.4 -1,4.9 -1.1,7.3 0,2.5 0.1,5 0.8,7.3 1.5,4.8 4.1,9.4 7.9,12.7 1.9,1.7 4.1,2.9 6.5,3.6 2.4,0.7 4.9,0.7 7.1,-0.2 2.2,-0.8 4.1,-2.3 5.6,-4.2 1.5,-1.9 2.5,-4.1 3.2,-6.5 1.4,-4.7 1.2,-10 -0.3,-14.9 z"
   id="path222"
   inkscape:connector-curvature="0" />
	</g>
	<g
   id="g228">
		<path
   d="m 149.5,128.6 c 2.8,-1.4 6.3,-1 9,0.4 2.8,1.4 5.1,3.7 6.7,6.4 1.6,2.7 2.4,5.7 3,8.6 0.3,1.5 0.5,3 0.6,4.5 0.1,1.5 0,3 -0.2,4.6 -0.2,1.5 -0.6,3 -1.3,4.5 -0.7,1.4 -1.7,2.8 -3,3.8 -1.3,1 -2.8,1.8 -4.5,2.1 -1.6,0.3 -3.4,0.2 -4.9,-0.3 -3.1,-1 -5.7,-3 -7.6,-5.5 -1.9,-2.4 -3.2,-5.3 -3.9,-8.2 l 0.2,-0.1 c 1.3,2.7 2.9,5.1 5,7.2 2,2 4.4,3.7 7,4.4 2.6,0.8 5.4,0.4 7.5,-1.2 1.1,-0.8 2,-1.8 2.7,-3 0.7,-1.2 1.3,-2.5 1.7,-3.9 0.7,-2.8 0.8,-5.8 0.1,-8.7 -0.7,-2.9 -2.1,-5.5 -3.8,-7.8 -0.8,-1.2 -1.8,-2.2 -2.7,-3.3 -1,-1 -2.1,-1.9 -3.3,-2.6 -2.4,-1.5 -5.2,-2.2 -8.2,-1.7 z"
   id="path226"
   inkscape:connector-curvature="0" />
	</g>
	<g
   id="g232">
		<path
   d="m 157.6,142.7 c 0.5,1.7 1.1,3.4 1.2,5.3 0.1,0.9 0,1.9 -0.4,2.9 -0.2,0.5 -0.5,1 -0.9,1.4 -0.4,0.4 -1,0.7 -1.5,0.9 -0.6,0.1 -1.2,0.1 -1.7,-0.1 -0.5,-0.2 -1,-0.5 -1.4,-0.8 -0.8,-0.6 -1.4,-1.4 -1.9,-2.1 -1.1,-1.5 -1.9,-3.1 -2.6,-4.8 -0.7,-1.7 -1.2,-3.6 -1.1,-5.5 0,-1 0.2,-2 0.6,-3 0.4,-1 1.2,-2 2.5,-2.4 1.3,-0.3 2.6,0.1 3.4,0.7 0.9,0.6 1.5,1.4 1.9,2.3 0.9,1.7 1.3,3.5 1.9,5.2 z m -0.3,0 c -0.5,-1.7 -1.6,-3.2 -2.8,-4.3 -0.6,-0.6 -1.3,-1 -1.9,-1.4 -0.6,-0.3 -1.2,-0.4 -1.7,-0.3 -0.9,0.2 -1.6,1.8 -1.8,3.4 -0.2,1.6 -0.1,3.3 0.2,5 0.3,1.7 1,3.4 2.1,4.7 0.6,0.6 1.2,1.2 2,1.5 0.7,0.4 1.5,0.4 2,0.2 1,-0.4 1.6,-2 2,-3.6 0.4,-1.6 0.5,-3.5 -0.1,-5.2 z"
   id="path230"
   inkscape:connector-curvature="0" />
	</g>
	<g
   id="g236">
		<path
   d="m 93.9,141.9 c 2.2,-0.1 4.5,0.2 6.6,0.5 2.2,0.4 4.3,1 6.5,1.7 2.1,0.8 4.2,1.7 6.1,2.9 1.9,1.2 3.7,2.7 4.8,4.7 -1.8,-1.3 -3.7,-2.3 -5.6,-3.2 -1.9,-0.9 -3.9,-1.7 -6,-2.4 -2,-0.8 -4.1,-1.4 -6.1,-2.1 -2.1,-0.6 -4.2,-1.3 -6.3,-2.1 z"
   id="path234"
   inkscape:connector-curvature="0" />
	</g>
	<g
   id="g240">
		<path
   d="m 213.3,135.2 c -0.4,-3.3 -0.1,-6.7 0.8,-10 0.5,-1.6 1.1,-3.2 2,-4.7 0.9,-1.5 2.2,-2.9 3.8,-3.7 1.7,-0.8 3.5,-1 5.3,-0.7 1.7,0.3 3.3,1 4.8,1.9 2.9,1.8 5.2,4.3 7.2,7 1.9,2.8 3.3,5.9 4.1,9.2 0.9,3.3 1.2,6.8 0.8,10.2 -0.1,0.9 -0.3,1.7 -0.4,2.6 -0.2,0.8 -0.4,1.7 -0.7,2.5 -0.6,1.6 -1.4,3.2 -2.5,4.6 -1.1,1.4 -2.4,2.6 -4,3.3 -1.6,0.7 -3.4,1.1 -5,0.8 V 158 c 3.3,-0.2 6.1,-2.2 7.7,-4.9 0.8,-1.3 1.5,-2.8 1.9,-4.3 0.2,-0.7 0.4,-1.5 0.6,-2.3 0.1,-0.8 0.3,-1.6 0.3,-2.3 0.6,-6.3 -0.8,-12.8 -3.7,-18.6 -1.5,-2.8 -3.7,-5.5 -6.5,-7 -2.8,-1.6 -6.4,-1.7 -8.9,-0.2 -2.5,1.6 -4,4.5 -5.2,7.4 -1.1,3 -1.7,6.2 -2.1,9.5 z"
   id="path238"
   inkscape:connector-curvature="0" />
	</g>
	<g
   id="g244">
		<path
   d="m 218.8,118 c 1.5,-1 3.6,-1.2 5.3,-0.6 0.9,0.3 1.7,0.7 2.5,1.2 0.4,0.2 0.8,0.5 1.1,0.8 0.4,0.3 0.7,0.6 0.9,1 1.2,1.4 1.9,3.1 2.6,4.6 0.7,1.6 1.5,3.1 2.1,4.8 0.6,1.6 1.1,3.4 1.2,5.2 0.1,1.8 0,3.6 -0.4,5.4 -0.5,1.8 -1.4,3.5 -2.7,4.8 -1.3,1.3 -3.1,2.2 -4.9,2.1 v -0.2 c 1.6,-0.6 2.8,-1.7 3.7,-3 0.9,-1.3 1.4,-2.8 1.8,-4.3 0.4,-1.5 0.6,-3.1 0.6,-4.8 0,-1.6 -0.1,-3.3 -0.3,-4.9 -0.2,-1.7 -0.7,-3.3 -1.6,-4.8 -0.8,-1.5 -2.1,-2.6 -3.3,-3.7 -1.2,-1.1 -2.4,-2.1 -3.8,-2.7 -1.4,-0.7 -3,-0.9 -4.7,-0.8 z"
   id="path242"
   inkscape:connector-curvature="0" />
	</g>
	<g
   id="g248">
		<path
   d="m 214.8,136 c -0.9,-1.2 -1.4,-2.6 -1.7,-4.1 -0.2,-1.5 -0.2,-3 0.4,-4.5 0.6,-1.4 1.7,-2.7 3.1,-3.4 0.7,-0.3 1.5,-0.5 2.3,-0.4 0.8,0.1 1.5,0.4 2.2,0.9 1.3,0.9 2.3,2.2 2.8,3.6 0.6,1.4 1,2.9 1,4.4 0,1.5 -0.3,3.1 -1,4.5 -0.3,0.7 -0.8,1.3 -1.4,1.9 -0.6,0.5 -1.3,0.9 -2.1,1 l -0.1,-0.2 c 1.1,-0.8 1.6,-2 1.9,-3.3 0.3,-1.2 0.3,-2.5 0.3,-3.8 -0.1,-2.5 -0.7,-5.2 -2.3,-7.2 -0.4,-0.5 -0.9,-0.9 -1.5,-1 -0.6,-0.2 -1.3,-0.1 -1.8,0.2 -1.1,0.7 -1.5,2.1 -1.7,3.3 -0.6,2.5 -0.6,5.1 -0.3,7.9 z"
   id="path246"
   inkscape:connector-curvature="0" />
	</g>
</g>
</svg>