<?xml version="1.0" encoding="UTF-8" standalone="no"?>
<svg
   xmlns:dc="http://purl.org/dc/elements/1.1/"
   xmlns:cc="http://creativecommons.org/ns#"
   xmlns:rdf="http://www.w3.org/1999/02/22-rdf-syntax-ns#"
   xmlns:svg="http://www.w3.org/2000/svg"
   xmlns="http://www.w3.org/2000/svg"
   xmlns:sodipodi="http://sodipodi.sourceforge.net/DTD/sodipodi-0.dtd"
   xmlns:inkscape="http://www.inkscape.org/namespaces/inkscape"
   viewBox="0 0 172 221.33333"
   height="221.33333"
   width="172"
   xml:space="preserve"
   id="svg2"
   version="1.1"
   sodipodi:docname="kai.svg"
   inkscape:version="0.92.4 (5da689c313, 2019-01-14)"><sodipodi:namedview
     pagecolor="#ffffff"
     bordercolor="#666666"
     borderopacity="1"
     objecttolerance="10"
     gridtolerance="10"
     guidetolerance="10"
     inkscape:pageopacity="0"
     inkscape:pageshadow="2"
     inkscape:window-width="1366"
     inkscape:window-height="715"
     id="namedview33"
     showgrid="false"
     inkscape:zoom="1.0662651"
     inkscape:cx="86"
     inkscape:cy="110.66666"
     inkscape:window-x="-8"
     inkscape:window-y="22"
     inkscape:window-maximized="1"
     inkscape:current-layer="svg2" /><metadata
     id="metadata8"><rdf:RDF><cc:Work
         rdf:about=""><dc:format>image/svg+xml</dc:format><dc:type
           rdf:resource="http://purl.org/dc/dcmitype/StillImage" /></cc:Work></rdf:RDF></metadata><defs
     id="defs6" /><g
     transform="matrix(-1.3333333,0,0,-1.3333333,171.04565,221.33333)"
     id="g10"><g
       transform="scale(0.1)"
       id="g12"><path
         id="path14"
         style="fill:#ede3f0;fill-opacity:1;fill-rule:nonzero;stroke:none"
         d="m 244.34,108.52 c 0,0 24.762,-18.7505 24.762,-36.7583 C 239.84,68.75 188.828,62.0313 149.102,61.25 109.34,59.7695 81.6016,59.0195 80.8594,71.7617 80.0781,84.5313 139.34,111.52 169.34,119.02 c 42.769,-3.75 75,-10.5 75,-10.5 z"
         inkscape:connector-curvature="0" /><path
         id="path16"
         style="fill:#dfcbe3;fill-opacity:1;fill-rule:nonzero;stroke:none"
         d="m 961.328,21.5195 c 0,0 -0.738,15.75 -46.488,50.2422 -53.238,0 -186.012,-2.2304 -186.012,-2.2304 9.024,-7.5 25.512,-12.0313 34.531,-13.5118 C 773.828,52.2695 829.34,35.7813 833.09,35 839.102,33.5195 961.328,21.5195 961.328,21.5195 Z"
         inkscape:connector-curvature="0" /><path
         id="path18"
         style="fill:#ffc121;fill-opacity:1;fill-rule:nonzero;stroke:none"
         d="m 679.34,560.781 c 0,-116.011 -94.692,-210 -211.488,-210 -116.801,0 -211.524,93.989 -211.524,210 0,115.981 94.723,210 211.524,210 116.796,0 211.488,-94.019 211.488,-210 z"
         inkscape:connector-curvature="0" /><path
         id="path20"
         style="fill:#d0214e;fill-opacity:1;fill-rule:nonzero;stroke:none"
         d="m 1038.59,998.012 c 0,0 59.26,-6.762 131.25,-68.992 64.5,-60 86.25,-108.75 99.77,-150.739 13.48,-42.031 17.23,-116.25 -3.01,-159.761 -19.49,-43.52 -75.74,-117.739 -185.27,-117.739 -18.75,47.231 -48.75,77.969 -48.75,77.969 l -86.252,81.762 C 940.352,671.02 929.84,687.5 929.84,687.5 c -3.75,18.012 12.738,84.02 20.238,117.77 8.281,33.75 32.262,90.75 50.272,127.5 18.75,36.761 38.24,65.242 38.24,65.242 z"
         inkscape:connector-curvature="0" /><path
         id="path22"
         style="fill:#ed3d7f;fill-opacity:1;fill-rule:nonzero;stroke:none"
         d="m 982.34,893.75 c 0,0 34.5,30.781 60.75,18.75 26.25,-11.25 43.51,-58.48 19.49,-127.5 -23.24,-68.98 -102.74,-62.969 -122.228,-16.48 14.257,59.25 41.988,125.23 41.988,125.23 z"
         inkscape:connector-curvature="0" /><path
         id="path24"
         style="fill:#d0214e;fill-opacity:1;fill-rule:nonzero;stroke:none"
         d="m 97.3398,730.27 -33,-101.989 c -9.7304,5.239 -34.5,20.981 -43.4804,45.739 -8.2813,24.73 25.4687,126.761 35.2304,133.48 6.0196,-17.23 21.7618,-56.25 41.25,-77.23 z"
         inkscape:connector-curvature="0" /><path
         id="path26"
         style="fill:#ffc121;fill-opacity:1;fill-rule:nonzero;stroke:none"
         d="m 744.609,1120.27 c 0,0 3.75,2.23 12.731,-6.01 8.988,-8.24 27,-33.01 31.488,-60.74 4.531,-28.52 -0.738,-64.5 -7.5,-81.02 -6.719,-16.48 -19.488,-45.738 -50.976,-76.48 -31.524,-30.75 -80.274,-57.739 -122.262,-71.25 -42.738,-14.258 -123.012,-28.52 -170.238,-19.5 -47.262,8.25 -99.762,28.48 -135,71.25 -35.274,42.742 -53.243,93.75 -20.274,119.261 6.012,-7.5 8.281,-12.769 8.281,-12.769 -2.269,-7.5 6.719,-37.5 17.969,-54.731 11.25,-18.011 43.512,-48.75 99.762,-65.269 56.25,-16.492 121.488,-15.742 158.25,-6.762 36.75,9.02 81.012,23.281 111.012,49.531 30.738,26.25 53.988,53.239 64.488,83.989 10.512,30 14.262,50.23 6.762,77.26 -7.5,26.99 -17.262,35.98 -17.262,35.98 z"
         inkscape:connector-curvature="0" /><path
         id="path28"
         style="fill:#d0214e;fill-opacity:1;fill-rule:nonzero;stroke:none"
         d="m 290.078,982.27 c 0,0 -0.738,-47.27 46.524,-83.989 47.226,-36.761 117.738,-57.031 195.738,-48.75 77.269,8.239 143.988,40.469 181.488,88.481 37.5,48.008 57.774,111.008 19.531,161.988 -2.269,-4.49 -6.757,-8.98 -6.757,-8.98 4.488,-13.52 6.757,-78.01 -25.512,-117 -13.512,-22.5 -37.5,-51.008 -118.512,-75 -62.969,-13.508 -116.988,-20.27 -161.25,-7.5 -43.476,12.742 -92.226,30 -111.719,69.73 -15.781,15 -19.531,21.02 -19.531,21.02 z"
         inkscape:connector-curvature="0" /><path
         id="path30"
         style="fill:#b8e4fa;fill-opacity:1;fill-rule:nonzero;stroke:none"
         d="m 724.34,1092.5 c 0,0 22.5,24.02 32.262,63.75 8.988,42.03 19.488,97.5 11.25,138.01 -25.512,-11.99 -52.5,-45 -67.5,-66.76 -28.512,23.28 -106.524,63.01 -188.243,70.51 -82.5,7.5 -129.019,-28.48 -129.019,-28.48 -8.25,-15 -18.75,-32.26 -30.75,-70.51 -4.488,8.99 -37.5,81.76 -41.25,83.99 -6.75,-3.75 -11.988,-45 -7.5,-95.24 5.238,-41.25 8.988,-59.25 8.988,-59.25 -4.488,-4.5 -44.219,-34.5 -42.738,-87 -39.762,-20.27 -45,-29.25 -57.731,-47.258 -12.769,-17.231 -11.25,-32.231 -3.75,-32.231 7.5,0 8.243,16.489 8.243,17.231 1.488,8.238 26.988,46.518 52.5,48.748 7.5,-22.5 14.257,-53.24 63.007,-82.498 26.25,-27.742 90,-48.75 124.493,-48.75 33.75,0 98.238,18.75 124.488,31.519 26.25,12.739 91.488,67.5 91.488,67.5 6.012,-8.281 20.274,-35.269 22.5,-43.511 1.524,-8.989 1.524,-19.5 6.762,-18.008 5.269,1.519 3,26.25 -3.012,38.238 7.5,8.281 27.774,39.77 27.774,76.52 0,37.5 -2.262,43.48 -2.262,43.48 z"
         inkscape:connector-curvature="0" /><path
         id="path32"
         style="fill:#6dcef5;fill-opacity:1;fill-rule:nonzero;stroke:none"
         d="m 635.859,1263.52 c 0,0 15,-97.5 -60,-139.5 20.981,-6.75 24.731,-30 24.731,-55.5 26.25,-6.76 78.75,-30 98.238,-96.02 18.75,17.27 37.5,80.27 25.512,119.26 -9.731,-3.75 -27,-13.48 -32.231,-12.74 -5.269,0.75 -2.269,21.76 9.731,33.01 11.25,11.25 36.75,29.22 41.988,60.74 3.75,27 5.274,24.73 5.274,28.48 0,3.75 10.507,47.27 5.976,55.51 0,0 -44.219,-43.48 -68.238,-101.25 -3.75,-5.24 -5.238,-10.51 -5.238,-13.48 -3.75,-1.52 -21.012,-7.5 -21.012,-7.5 0,0 12.769,54.73 40.5,93.75 -23.981,30.74 -65.231,35.24 -65.231,35.24 z"
         inkscape:connector-curvature="0" /><path
         id="path34"
         style="fill:#1b75bb;fill-opacity:1;fill-rule:nonzero;stroke:none"
         d="m 675.59,1183.28 -124.5,-15 c 0,12.74 -9.762,42.74 -38.238,46.49 -29.262,3 -48.012,-14.26 -52.5,-42 -10.512,0.75 -11.25,0.75 -11.25,0.75 0,0 -5.274,36.01 -39.762,36.01 -34.5,0.74 -38.988,-28.51 -41.25,-36.01 -5.981,3 -19.5,8.24 -19.5,8.24 -2.262,-5.98 -2.262,-5.98 -2.262,-5.98 l 21.762,-9.02 c 1.519,-6.76 6.75,-36.76 39.019,-38.99 32.231,-1.52 41.25,30.75 41.993,39.73 11.988,-1.48 11.25,-0.74 11.25,-0.74 2.226,-15 11.25,-38.99 41.25,-41.99 30,-2.27 48.007,23.98 49.488,38.98 10.512,0.78 122.269,14.26 122.269,14.26 z"
         inkscape:connector-curvature="0" /><path
         id="path36"
         style="fill:#3cb994;fill-opacity:1;fill-rule:nonzero;stroke:none"
         d="m 489.609,1166.02 c 0.743,0.74 5.231,35.23 15,40.5 -14.257,3.75 -45,-12.77 -38.281,-46.52 18.012,0 23.281,6.02 23.281,6.02 z"
         inkscape:connector-curvature="0" /><path
         id="path38"
         style="fill:#3cb994;fill-opacity:1;fill-rule:nonzero;stroke:none"
         d="m 380.078,1160 c 0,0 27.031,19.53 25.512,41.25 -4.5,3.01 -28.481,-4.49 -29.262,-30.74 0,-11.25 3.75,-10.51 3.75,-10.51 z"
         inkscape:connector-curvature="0" /><path
         id="path40"
         style="fill:#9e1b3c;fill-opacity:1;fill-rule:nonzero;stroke:none"
         d="m 422.852,1066.25 -17.262,-17.97 c -3.012,0 -19.5,11.25 -16.488,20.98 3.75,11.25 16.488,2.26 33.75,-3.01 z"
         inkscape:connector-curvature="0" /><path
         id="path42"
         style="fill:#d0214e;fill-opacity:1;fill-rule:nonzero;stroke:none"
         d="m 422.852,1067.03 -17.262,-18.75 c 8.238,-3.01 26.25,-8.28 50.269,-3.01 23.981,5.24 41.25,17.23 38.981,29.26 -2.262,11.99 -14.25,8.24 -20.231,4.49 -5.269,-3 -27.031,-18 -51.757,-11.99 z"
         inkscape:connector-curvature="0" /><path
         id="path44"
         style="fill:#6dcef5;fill-opacity:1;fill-rule:nonzero;stroke:none"
         d="m 595.352,1049.77 c 0,0 -35.274,-117 -108.75,-135 -45,-12.739 -71.993,-15 -93.012,20.23 -11.988,-5.23 -16.481,-6.719 -30,-1.48 -12.731,5.23 -43.512,17.261 -50.231,24.761 5.231,-19.531 49.493,-56.25 116.25,-66.761 3.75,-11.989 8.243,-27.77 8.243,-27.77 7.5,8.281 15,23.281 16.488,24.02 3.75,0.75 36.012,-4.489 89.25,5.242 53.25,9.019 124.5,31.519 148.519,69.019 -2.269,17.969 -43.519,77.229 -96.757,87.739 z"
         inkscape:connector-curvature="0" /><path
         id="path46"
         style="fill:#6dcef5;fill-opacity:1;fill-rule:nonzero;stroke:none"
         d="m 320.859,1235.78 c 0,0 -17.269,-14.26 -6.757,-42.03 0.738,-20.23 12.738,-50.98 12.738,-50.98 7.5,11.25 16.519,23.99 17.262,29.26 -3.012,8.24 -23.243,63.75 -23.243,63.75 z"
         inkscape:connector-curvature="0" /><path
         id="path48"
         style="fill:#ed3d7f;fill-opacity:1;fill-rule:nonzero;stroke:none"
         d="m 295.352,958.281 19.488,-6.761 c 11.25,-15.739 47.269,-40.5 55.512,-42.77 5.238,-11.988 50.238,-49.488 50.238,-49.488 -20.981,3.008 -101.25,26.988 -125.238,99.019 z"
         inkscape:connector-curvature="0" /><path
         id="path50"
         style="fill:#ffc121;fill-opacity:1;fill-rule:nonzero;stroke:none"
         d="m 1121.09,965 c 0,0 10.51,20.27 18.75,84.02 7.5,60.75 8.25,72 4.5,78.01 -5.98,4.49 -42.74,14.22 -51.76,13.48 C 1080.59,1136.02 983.09,1022.03 952.34,935 921.602,848.012 887.109,740 897.578,690.512 c 9.024,-35.981 49.531,-32.231 49.531,-32.231 -2.269,8.239 -16.519,27.739 -16.519,29.219 -2.231,10.512 3,58.52 18.75,117.77 15,59.261 56.99,134.261 70.5,162 13.52,28.511 19.5,30.742 19.5,30.742 7.5,-0.742 60.74,-16.492 81.75,-33.012 z"
         inkscape:connector-curvature="0" /><path
         id="path52"
         style="fill:#ffc121;fill-opacity:1;fill-rule:nonzero;stroke:none"
         d="m 98.0898,1162.27 c 0,0 -18.0117,-12.74 -33.0117,-52.5 C 50.0781,1070 48.5898,987.5 68.0898,890.781 86.8398,815.781 108.59,762.5 108.59,762.5 104.84,749.77 96.6016,729.531 96.6016,729.531 80.0781,747.5 49.3398,806.02 28.3594,899.77 c -21.01956,93.75 -9.0196,221.25 34.4922,265.5 35.2382,1.49 35.2382,-3 35.2382,-3 z"
         inkscape:connector-curvature="0" /><path
         id="path54"
         style="fill:#ed3d7f;fill-opacity:1;fill-rule:nonzero;stroke:none"
         d="m 58.3594,805.27 c 0,0 -40.5078,-80.27 -31.5196,-142.5 -10.5117,16.492 -22.49996,44.261 -14.2617,99.73 7.5,55.512 25.5117,92.27 27.7735,93.012 C 43.3594,845 58.3594,805.27 58.3594,805.27 Z"
         inkscape:connector-curvature="0" /><path
         id="path56"
         style="fill:#ffffff;fill-opacity:1;fill-rule:nonzero;stroke:none"
         d="m 642.578,560 c 0,-95.66 -79.566,-173.238 -177.738,-173.238 -98.16,0 -177.731,77.578 -177.731,173.238 0,95.699 79.571,173.281 177.731,173.281 98.172,0 177.738,-77.582 177.738,-173.281 z"
         inkscape:connector-curvature="0" /><path
         id="path58"
         style="fill:#ffc121;fill-opacity:1;fill-rule:nonzero;stroke:none"
         d="m 1118.09,158.75 c 0,0 5.27,-29.219 -2.23,-53.98 -16.52,-8.2505 -87.03,-21.7583 -129.02,-25.5083 -42,-4.4922 -98.25,-9.7304 -131.25,-9.7304 -33.012,0 -128.988,0.7382 -172.5,2.2304 -44.262,1.5196 -166.488,7.5 -209.262,11.9883 -42.738,4.5313 -152.969,18.012 -152.969,18.012 L 167.852,119.02 c 0,0 -155.2739,24.73 -160.51216,28.48 -5.23046,5.27 -6.01171,44.262 -3.75,44.262 C 24.6094,186.52 337.34,137.031 359.102,134.02 c 22.5,-2.258 170.238,-13.508 170.238,-13.508 l 131.25,-5.981 123,-3.75 116.25,6.719 103.52,10.512 z"
         inkscape:connector-curvature="0" /><path
         id="path60"
         style="fill:#ede3f0;fill-opacity:1;fill-rule:nonzero;stroke:none"
         d="m 963.59,19.2617 c 0,1.5196 -13.512,25.5078 -78.75,33.75 C 843.59,57.5 827.109,42.5 823.359,38.0117 845.859,29.7695 917.109,6.51953 937.34,5.78125 958.359,5 965.859,6.51953 963.59,19.2617 Z"
         inkscape:connector-curvature="0" /><path
         id="path62"
         style="fill:#dfcbe3;fill-opacity:1;fill-rule:nonzero;stroke:none"
         d="m 230.078,111.52 c 1.524,0 39.024,-17.2583 32.262,-40.5005 34.5,5.2305 99.769,15.7422 111.019,23.9805 -47.269,5.27 -143.281,16.52 -143.281,16.52 z"
         inkscape:connector-curvature="0" /><path
         id="path64"
         style="fill:#231f20;fill-opacity:1;fill-rule:nonzero;stroke:none"
         d="m 1230.59,561.52 c 66.01,65.98 62.26,169.5 28.51,250.511 -33.01,80.981 -102.77,131.25 -135,152.231 6.76,18.008 28.48,129.758 23.99,161.988 -21.76,15.78 -102,22.5 -176.25,22.5 -120.75,-0.74 -225.75,-27.73 -225.75,-27.73 21.762,33.75 30.75,168 24.769,176.25 -9.769,-2.27 -39.019,-26.25 -51.757,-42.74 -17.262,70.47 -72.774,101.25 -95.274,109.49 30.781,97.5 78.75,171.76 102.031,195.75 16.481,-58.52 19.493,-105 17.231,-145.51 8.238,21.76 3,98.24 -15,149.26 102.769,124.49 163.512,81.75 186.75,55.5 53.988,-63.75 47.269,-228.75 47.269,-228.75 11.993,207 -53.281,263.25 -106.519,269.26 -53.25,5.98 -105.75,-45 -130.512,-75.78 -2.226,8.28 -10.469,62.27 -60.738,69.77 -50.238,8.24 -91.488,-25.51 -138.012,-106.49 -46.488,-81.01 -81.719,-162.03 -88.476,-210.78 -57.774,-48.75 -79.493,-110.23 -85.512,-132.73 -5.231,3.75 -33,75.74 -40.5,83.24 -27,-34.49 0,-149.26 -1.488,-158.99 -81.012,24.73 -241.5239,44.26 -248.2426,38.25 -6.0196,-5.24 -34.5313,-47.27 -39.0196,-96.76 C 12.5781,950.781 28.3594,890.781 39.6094,856.25 32.8516,848.75 11.8398,795.512 9.60938,731.762 7.33984,668.012 42.5781,636.52 62.1094,628.281 59.1016,610.27 4.33984,428.012 1.32813,323.012 -1.64063,218.012 0.589844,156.52 5.85938,147.5 26.8398,137.031 162.578,118.281 162.578,118.281 c 0,0 -17.226,-5.269 -52.5,-21.0115 C 74.8398,80.7813 71.8398,65 95.0781,61.25 117.578,58.2813 179.102,59.7695 244.34,68.0117 332.109,77.0313 368.828,89.7695 377.109,94.2617 507.578,74.7695 726.602,68.75 726.602,68.75 c 0,0 4.488,-4.4883 44.257,-15.7383 38.981,-11.25 83.981,-26.9922 119.219,-38.2422 34.531,-11.24997 71.25,-11.99997 75,-6.0195 11.25,17.2695 -23.238,45.7813 -44.219,63.0117 93.751,3.0078 192.731,26.9883 199.491,33.0083 3.01,6.75 5.24,58.511 0,150.742 -11.99,141.008 -26.99,205.508 -32.26,243.75 -2.23,-0.742 77.26,-3.75 142.5,62.258 z m -85.51,560.24 c -2.23,-86.99 -24.73,-153.748 -24.73,-153.748 -16.52,13.508 -60,27.769 -77.26,31.519 39.02,69.729 93,116.989 101.25,123.749 0,-0.78 0.74,-1.52 0.74,-1.52 z m -3.75,3.75 C 1082.85,1083.52 1037.11,999.531 1037.11,999.531 1026.6,985.27 976.328,893.75 956.09,833.75 c -21.75,-62.969 -30.738,-135 -26.25,-146.988 2.269,-5.981 6.019,-11.25 8.988,-15 -5.238,2.258 -15,7.5 -16.488,11.25 -3,4.488 -11.25,24.758 5.238,93.75 16.524,69.019 38.281,137.258 81.762,218.238 39.76,75 101.25,131.25 111.01,139.53 8.99,-3.75 16.49,-6.76 20.98,-9.02 z M 903.59,758.75 c 10.512,63.75 37.5,143.281 74.262,219.77 36.758,76.48 95.978,140.23 118.478,159.76 6.76,-0.78 12.77,-1.52 18.75,-3.01 -19.49,-14.25 -62.23,-63 -90.74,-106.52 -30,-45.738 -57.738,-107.23 -81.762,-180 -23.988,-72.73 -33.75,-140.23 -30,-158.98 3.75,-16.489 23.281,-21.02 27.774,-21.758 1.488,-2.231 2.226,-4.492 2.226,-5.981 -48.75,15.739 -49.488,33.75 -38.988,96.719 z m -156.75,360 c 0,0 54.019,-35.23 39.019,-124.488 C 770.859,905.781 661.328,812.77 492.578,802.27 323.09,791.762 230.859,941.02 281.84,992.031 c 0.738,-0.781 0.738,-1.519 1.519,-2.261 C 251.84,930.512 338.09,815 507.578,826.25 c 162.031,10.512 232.5,88.52 258.75,164.262 24.024,69.758 -14.219,117.768 -20.976,125.268 1.488,2.23 1.488,2.97 1.488,2.97 z M 671.84,560 c 0,-110.98 -91.488,-200.98 -203.988,-200.98 -112.5,0 -204.024,90 -204.024,200.98 0,111.02 91.524,201.02 204.024,201.02 112.5,0 203.988,-90 203.988,-201.02 z m -247.5,294.77 c 144.019,-38.989 303.75,40.5 326.988,156.75 0,0 15,42.74 -15.738,90 3,4.5 5.269,8.25 7.5,11.25 28.512,-36.01 56.988,-123 -42,-210.739 C 600.59,812.77 440.078,820.27 379.34,851.02 c -114.731,55.5 -96.762,124.492 -93.012,136.48 3.012,-3.75 3.012,-3.75 3.012,-3.75 0,0 -8.25,-90 135,-128.98 z m 277.5,112.5 -0.75,3.75 7.5,6.75 c 11.25,17.23 18.75,38.25 20.238,61.49 1.524,37.5 1.524,42.77 -1.488,51.76 3.012,3 6.762,6.75 6.762,6.75 0,0 35.976,-54.02 4.488,-114.758 C 707.109,922.27 659.84,860.781 506.84,848.75 c 0,0 -189.731,-5.23 -214.5,126.762 7.5,-8.242 15.75,-14.262 15.75,-14.262 2.262,-13.48 32.262,-56.988 120.738,-73.48 0,0 5.274,-15.739 9.024,-27.77 7.5,3.012 16.488,24.77 16.488,24.77 68.238,-4.5 174.762,10.5 233.238,66.75 l 6.012,5.98 c 6.762,-19.488 2.269,-27.73 8.25,-26.988 9.019,0.738 4.488,21.758 0,36.758 z m -164.262,573.75 c 60.781,99.76 98.281,110.23 135,101.25 36.012,-8.25 46.524,-65.24 46.524,-65.24 0,0 -72.774,-83.28 -114.024,-205.51 -20.976,10.51 -95.238,18.75 -152.969,-27.77 7.5,42.77 24.731,97.5 85.469,197.27 z M 371.09,1244.77 c 11.25,23.24 15.75,25.5 22.5,28.51 2.269,0.74 12.738,5.98 28.519,10.47 -7.5,-8.98 -24.769,-34.49 -25.507,-41.99 14.257,26.99 28.476,40.51 33.007,44.26 5.981,1.48 12.731,3 20.231,4.49 6.762,-6.76 6.762,-25.51 6.762,-32.23 3.75,21.72 0,30 -2.262,32.97 9.019,1.52 19.488,2.27 30,3.01 -7.5,-7.5 -16.488,-26.25 -14.262,-27.74 1.524,5.98 14.262,22.5 18.75,27.74 4.531,0 8.281,0 12.774,0 -29.262,-23.99 -41.993,-78.75 -39.024,-86.25 15.781,60.74 41.25,82.5 45.781,85.51 3.75,0 6.719,0 10.469,-0.75 12.774,-18.75 15.781,-43.51 16.524,-66.75 7.5,23.98 -6.012,58.51 -9.024,66.75 3.75,-0.74 8.281,-0.74 12.031,-1.52 8.243,-12.73 9.731,-30.74 13.481,-38.98 1.519,15.74 -5.981,32.26 -8.988,38.24 6.757,-1.49 13.476,-2.23 20.238,-4.49 81.012,-20.24 123.75,-51.76 134.25,-60 -8.981,-12 -17.262,-27 -23.238,-42 l -122.262,-15 c 0,25.51 -20.981,46.49 -47.231,46.49 -24.019,0 -44.257,-18.01 -46.519,-41.99 l -9.731,0.74 c -3.007,21.01 -20.269,36.76 -41.25,36.76 -21.019,0 -39.019,-15.75 -42.031,-36.76 l -15.738,7.5 c 7.5,21.01 12.769,45 21.75,63.01 z m 301.488,-63.01 c 0,-0.74 -0.738,-1.49 -0.738,-2.23 l -120,-15 c 0,0.74 0,1.49 0,2.97 43.512,5.27 108.75,12.77 120.738,14.26 z m -154.488,25.51 c -38.988,12.73 -60,-26.25 -51.762,-50.24 8.281,-24.76 38.281,-30 38.281,-30 -10.507,-3.01 -54.019,13.48 -42.031,54.73 12.031,41.25 60,35.27 74.262,18.75 13.512,-16.49 15.738,-33.75 5.269,-50.24 0,0 15,44.26 -24.019,57 z m -33.75,-23.99 c -3.012,-3.75 -3.75,-12.03 -3.75,-12.03 0,0 -1.488,4.53 -0.75,9.77 -3.75,-3.01 -3.75,-8.25 -3.75,-8.25 l -3.75,5.98 -1.481,-8.98 c -3.75,0.74 -1.519,30 29.219,35.23 0,0 -13.476,-15.74 -14.219,-34.49 -5.269,0.74 -1.519,12.77 -1.519,12.77 z m 0,-17.26 c 0,0 -6.762,-5.24 -15.75,-3.01 0.75,3.75 0.75,3.75 0.75,3.75 z m -25.512,3 -8.988,0.75 c 0,0.74 0,1.48 0,1.48 4.5,0 7.5,0 8.988,0 0,-0.74 0,-1.48 0,-2.23 z m -11.988,0 c 0,-21.75 -17.231,-39.76 -38.988,-39.76 -21.762,0 -39.024,18.01 -39.024,39.76 0,21.76 17.262,39.73 39.024,39.73 20.976,-0.74 38.988,-17.97 38.988,-39.73 z m -80.981,3.75 c 0,-1.52 0,-2.26 0,-3.75 l -17.269,8.99 c 0,0.74 0.75,1.52 0.75,2.26 7.5,-3.75 12.769,-6.01 16.519,-7.5 z m -54.769,108.75 c 12,-20.27 38.988,-82.5 38.988,-82.5 0,0 -1.488,-8.24 -5.238,-21.75 -5.231,16.48 -27.731,81.01 -38.238,90.74 1.488,6.01 3.007,10.51 4.488,13.51 z m 30,-114.02 c -2.262,-4.49 -5.231,-8.98 -8.238,-13.48 -9.024,7.5 -3.012,34.5 -0.743,44.26 2.969,-9.02 5.981,-19.53 8.981,-30.78 z m -36.012,93.75 c 2.262,-2.97 6.762,-9.73 13.512,-25.47 -11.988,-8.28 -10.5,-40.51 -3.75,-41.25 -6.75,22.5 1.488,34.49 5.238,38.24 3.012,-7.5 6.762,-17.26 10.512,-30 -12,-33 -3.75,-47.26 0,-51.75 -5.981,-6.76 -12,-13.52 -17.231,-18.01 -11.25,65.27 -11.25,105.74 -8.281,128.24 z m 4.531,-297.73 c -18.007,17.261 -33.75,39.76 -38.281,65.23 0,0 9.762,3.01 12.031,5.27 -6.019,0.75 -45,-6.01 -69.019,-51.008 -2.231,-5.981 -0.75,-19.492 -7.5,-18.75 -6.762,0.738 -2.231,19.488 11.25,38.238 14.25,18.75 44.25,36.76 68.238,45 -4.488,2.27 -17.226,-4.49 -17.226,-4.49 0,10.51 2.226,21.76 7.5,33.75 20.238,46.52 49.488,58.51 62.226,81.76 2.262,4.49 4.531,9.76 6.762,15.74 l 18.75,-7.5 c 1.519,-20.24 16.519,-36.76 36.012,-39.73 0.738,0 3.75,-0.78 3.75,-0.78 0.738,0 1.488,0 2.226,0 21.762,0 40.512,17.27 42.031,39.02 4.493,0 7.5,0 8.981,0 2.269,-24.02 22.5,-42.77 46.488,-42.77 23.281,0 42.774,17.27 46.524,39.02 42.738,5.24 106.488,12.74 119.257,14.26 -8.281,-20.27 -12.769,-38.28 -10.507,-45 17.226,60 34.488,86.25 39.726,92.97 l 0.781,-0.74 c 11.25,16.52 49.493,62.26 66.719,68.24 6.012,-27.73 -0.738,-152.23 -43.476,-197.23 0,0 -37.5,-30 -44.262,0.75 -2.262,-7.5 6.019,-33.01 44.262,-5.24 2.226,-13.51 8.988,-62.26 -19.493,-108.749 l -3.75,-5.269 c -26.25,89.258 -106.519,93.008 -106.519,93.008 0,0 41.25,-4.5 76.519,-46.49 38.243,-44.999 33.75,-87.03 32.231,-87.03 -4.5,-0.738 -3.75,23.281 -18.75,50.27 -27.738,48.01 -89.262,71.25 -97.5,64.5 0,0 44.25,-3.75 83.238,-52.5 10.512,-13.52 18.012,-26.25 21.762,-35.239 l -5.981,-7.5 c -11.25,-11.25 -25.507,-21.011 -42.769,-30.781 0,0 -72.738,-40.469 -185.981,-35.23 0,0 2.231,3.75 5.231,5.23 -11.25,-1.48 -15,-18.75 -23.238,-29.219 -2.262,2.969 -6.762,26.989 -6.762,26.989 -44.25,8.25 -91.481,29.261 -114.762,61.492 M 95.0781,1161.52 c 0,0 -45,-33.75 -43.4765,-141.01 0.7382,-108.01 30,-194.998 53.9884,-257.229 0,-3.011 -1.488,-9.019 -3.012,-14.261 -43.4764,73.48 -62.9686,209.261 -59.2186,288.75 2.9687,71.25 33.75,117 40.4687,125.98 3.0117,-0.74 6.7617,-1.48 11.25,-2.23 z M 29.8398,905.781 c -14.25,83.989 -10.5,157.499 6.0196,207.739 11.25,30.74 27.7304,50.23 27.7304,50.23 0,0 6.0196,0.78 15.75,0 -36.7617,-50.98 -53.25,-122.23 -33.75,-247.5 18,-113.238 48,-165 53.2383,-173.98 -1.4883,-5.239 -3.75,-8.989 -3.75,-8.989 -8.2383,11.25 -50.9765,88.481 -65.2383,172.5 z m -18,-174.761 c 3,73.511 27.7696,120.742 27.7696,120.742 0,0 26.25,-86.992 56.25,-121.492 0,0 -15,-41.25 -26.25,-79.489 L 53.0898,636.52 c -17.2304,10.511 -40.5117,36.761 -41.25,94.5 z m 43.5118,-96.758 11.9882,11.25 c -1.4804,-5.242 -3,-9.731 -3.75,-15 -1.4804,0.738 -4.4882,1.519 -8.2382,3.75 z M 151.328,110.781 c 3.012,-1.519 15.781,-6.761 25.512,-9.019 -4.5,-2.2307 -25.512,4.488 -32.231,6.758 2.231,0.742 4.493,1.48 6.719,2.261 z m 180,-26.2497 c -15.738,-3.0118 -36.719,-6.7618 -63.75,-10.5118 0,2.2305 -0.738,5.9805 -2.226,8.9922 0,0 0.738,-5.2422 0.738,-8.9922 -1.481,0 -3.75,-0.7382 -5.231,-0.7382 0,2.9687 -0.781,9.7304 -1.519,12.7382 0,0 -1.488,-8.25 -3.75,-13.5195 -12.738,-1.4805 -26.25,-2.9687 -41.25,-4.4883 2.262,6.0078 3,15 3,15 -2.262,-5.9804 -5.231,-12.7422 -7.5,-15.7422 -3.75,-0.75 -8.238,-0.75 -11.988,-1.4882 3.75,4.4882 5.976,14.2187 5.976,14.2187 -2.226,-5.9805 -7.5,-11.9883 -10.469,-15 -3.75,0 -7.5,-0.7383 -11.25,-0.7383 -53.281,-3.75 -96.7574,-3.0117 -98.2809,6.7578 -0.7383,5.2305 15.7813,17.2618 37.4999,26.9922 3.75,-1.4922 12.774,-5.9804 20.274,-3.75 -6.762,0 -14.262,6.0083 -14.262,6.0083 3.75,1.492 6.762,3.011 10.512,4.5 5.238,-1.489 41.988,-10.5083 53.238,-5.2387 -11.25,2.9687 -30,9.7307 -36.012,11.2497 2.262,0.739 4.531,1.489 6.762,2.231 22.5,-5.242 42.769,-16.4925 48.75,-19.4925 -5.981,10.5005 -35.238,18.7505 -43.481,21.0115 2.231,0.739 4.493,0.739 6.719,1.489 4.531,-0.75 10.512,-1.489 15.781,-2.27 17.231,-5.98 31.481,-13.48 37.5,-18.75 -1.519,8.281 -18.75,15 -25.507,17.27 41.25,-5.239 95.238,-10.508 131.988,-15.0005 C 332.852,95 331.328,88.2813 331.328,84.5313 Z m 3.75,0.7382 c 0.781,3.75 2.262,8.9922 3.012,12 14.25,-1.4882 25.5,-3.0078 31.519,-3.75 -0.781,0 -12.031,-3.0078 -34.531,-8.25 z M 746.09,62.0313 c -11.25,4.4882 -10.5,5.2382 -10.5,5.2382 3.75,0 8.238,-0.75 12.769,-0.75 z m 4.5,-0.7813 1.519,6.0195 c 2.969,0 5.231,0 8.243,0 l -6.012,-6.7578 c -1.488,-0.7422 -3.012,0 -3.75,0.7383 z m 7.5,-2.9687 4.488,8.2382 c 1.524,0 3.75,0 5.274,0 L 761.09,57.5 c -0.738,0 -2.262,0.7813 -3,0.7813 z m 6.012,-2.2618 7.5,9.7618 c 2.226,0 4.488,0 6.757,0 -1.519,-3.0118 -5.269,-10.5118 -6.019,-12.0313 -3,0.7813 -6.012,1.5195 -8.238,2.2695 z m 11.25,-3.0078 c 0.738,3.0078 5.238,10.5078 6.757,13.5078 2.231,0 4.493,0 6.719,0 -2.226,-3 -8.988,-11.25 -9.726,-14.25 -0.743,0 -2.262,0 -3.75,0.7422 z m 7.5,-2.2304 c 0,0 5.238,10.4687 10.507,15.7382 2.231,0 3.75,0 5.981,0 -3.012,-3 -8.988,-10.5 -12.738,-16.5195 -1.524,0 -2.262,0.7813 -3.75,0.7813 z m 138.007,13.4804 c 1.481,-1.4922 3.75,-3.0117 5.231,-4.4922 -6.75,0.7422 -26.25,0.7422 -38.238,-8.9882 11.988,3.75 30,7.5 42.738,5.9804 1.519,-1.4922 3,-2.2304 4.488,-3.75 -4.488,-0.7422 -16.488,-2.2304 -17.969,-7.5 4.493,2.2578 17.969,3.0078 22.5,3.0078 0.743,-0.75 1.481,-1.4882 2.231,-2.2695 -3.012,0 -8.25,0 -12.738,-3.75 3.75,0.7813 11.988,0.7813 15.738,0.7813 13.519,-14.2618 23.25,-27.7696 14.262,-33.75005 -10.512,-6.76172 -41.25,0.73825 -77.262,11.98825 0.738,2.2305 2.262,7.5 3.75,9.7305 -3.012,0 -5.981,-5.2305 -7.5,-8.2383 -4.5,1.5196 -8.25,3.0078 -12.738,3.75 -0.743,2.2578 0,6.0078 4.488,9.0196 -3,0.7382 -7.5,-3.75 -8.981,-7.5 -9.769,2.9687 -18.75,6.7187 -28.519,9.7304 -2.262,0.7383 -4.488,1.5196 -6.75,1.5196 0,1.4882 1.519,5.2382 8.238,11.25 -5.976,0 -11.25,-7.5 -11.988,-10.5118 -0.75,0 -2.231,0.75 -3.012,0.75 0,3 1.524,9.7618 9.762,14.25 -3.75,0 -11.25,-5.2695 -11.988,-13.5078 -3.012,0.7383 -5.274,1.5196 -7.5,2.2578 0,2.2305 2.226,8.9922 15.738,19.5 -6.012,-1.4882 -16.481,-9.7695 -19.488,-18.75 -5.274,1.4805 -9.762,3 -14.262,3.75 0,0 1.488,7.5 14.262,18 29.257,0.75 59.257,1.4922 81.757,2.2305 -7.5,-1.4805 -27.031,-6.7187 -33.007,-15.7383 11.988,5.2696 33.75,13.5078 46.488,16.5196 6.012,0 11.25,0 15.738,0 0.781,0 0.781,-0.7813 1.524,-0.7813 -6.012,0 -30,-2.9687 -45.743,-15.7383 9.731,3.75 26.993,9.7578 48.75,11.25 z M 1115.86,108.52 C 1104.61,104.02 1031.84,77.7695 842.852,71.7617 687.578,72.5 497.109,78.5195 365.859,98.0117 234.609,117.5 150.59,116.762 8.82813,149.02 c -4.48829,13.48 -3.75,16.492 -3.75,16.492 0,0 61.52347,-18.012 303.74987,-47.231 C 549.609,89.0195 592.34,86.0195 782.852,84.5313 974.102,83.75 1095.59,118.281 1117.34,131.02 c 0.75,0 0,-18.008 -1.48,-22.5 z m 2.23,42.73 V 135.512 C 1102.34,128.75 996.602,93.5195 821.84,89.7695 c -162,-3.75 -274.5,3.75 -402,18.7505 -127.5,15 -348.0002,42.73 -413.23844,60.742 -2.26172,18.75 -2.26172,18.75 -2.26172,18.75 0,0 123.00016,-29.262 308.23816,-50.242 185.274,-21.75 369.024,-30.739 499.531,-28.508 128.981,2.258 275.231,29.258 305.981,41.988 z m -42.74,389.262 c 4.49,0 9.73,0.738 15,1.519 5.98,-12.031 51.76,-4.531 55.51,1.489 -37.5,-6.758 -48.01,-3.008 -50.27,-0.75 41.99,8.25 92.26,33.75 91.52,42 -51.02,-29.258 -101.25,-39.77 -114.02,-41.25 0,0 -0.75,0 -0.75,0.742 -3.75,2.258 -9.76,15.738 -15.74,26.25 5.98,-3.012 18.01,-12.742 26.25,-13.481 8.99,0 48.01,16.489 53.24,24.731 -6.01,-2.231 -41.25,-18.75 -49.49,-18.75 -6.76,0 -25.51,9.758 -33.75,14.258 -0.74,0.742 -0.74,1.48 -1.52,2.261 -14.22,7.5 -86.252,64.489 -101.99,83.239 0,0 -0.75,7.5 -15.75,23.992 0,3.75 0,6.758 0.75,10.508 15.738,1.48 56.25,3 68.24,5.23 -15.74,3.012 -57.74,0.781 -67.502,0 0.781,6.02 0.781,12.031 1.524,18.012 22.5,-4.492 80.978,0.738 85.508,7.5 -48.008,-5.981 -78.751,-4.492 -85.508,-3.75 17.226,146.25 104.998,271.519 104.998,271.519 35.24,-3.75 139.49,-47.261 205.51,-165.781 61.48,-121.48 15.74,-215.98 15.74,-215.98 -47.26,-93 -142.5,-108.75 -176.25,-111.75 -1.52,20.23 -6.76,32.261 -11.25,38.242 z M 272.852,563.75 c 0,-105.738 86.25,-191.25 192.738,-191.25 106.519,0 192.769,85.512 192.769,191.25 C 658.359,669.531 572.109,755 465.59,755 359.102,754.262 272.852,668.75 272.852,563.75 Z m 380.976,0 c 0,-102.73 -84.726,-186.719 -188.988,-186.719 -104.25,0 -188.981,83.239 -188.981,186.719 0,102.77 84.731,186.762 188.981,186.762 104.262,0 188.988,-83.992 188.988,-186.762 z m -367.5,-0.738 c 0,-98.242 80.274,-177.742 179.262,-177.742 99.019,0 179.25,79.5 179.25,177.742 0,98.238 -80.231,177.769 -179.25,177.769 C 365.859,741.52 286.328,661.25 286.328,563.012 Z m 15.781,49.488 c 7.5,0 55.469,-1.48 55.469,-1.48 0,0 -15.738,-18.75 -65.976,-35.239 1.488,26.989 3.007,36.719 10.507,36.719 z m -10.507,-59.219 c 0,0 53.238,20.981 60.738,27.739 l -0.738,-38.989 C 292.34,542.77 292.34,542.77 292.34,542.77 Z M 296.09,515 c 48.75,-0.738 141.762,-0.738 141.762,-0.738 v -32.231 c -45.743,0 -129.762,0 -129.762,0 0,0 -10.512,26.25 -12,32.969 z M 441.602,408.52 c -40.512,2.261 -74.262,30 -74.262,30 0,0 -0.738,-4.5 -7.5,-15.75 -3.75,0 -20.231,20.242 -33.75,33.011 0,0 96.762,-2.261 115.512,-3.75 z m -63.75,132.73 -5.274,53.281 c 12.031,9.731 21.012,16.489 21.012,16.489 53.25,3.75 116.25,3 116.25,3 0,0 18.012,-14.25 23.25,-16.52 l 2.262,-52.5 c -55.512,-2.23 -157.5,-3.75 -157.5,-3.75 z M 577.34,428.75 c 0,0 -6.012,7.5 -15.738,13.52 -18.75,-24.77 -64.493,-36.758 -79.493,-34.5 -3.75,6.761 -5.269,45 -5.269,45 0,0 94.488,5.242 127.5,6.761 0,-0.781 -12.738,-18.75 -27,-30.781 z m 46.488,63.012 c 0,0 -79.488,-6.762 -150.738,-8.992 l -0.75,31.492 c 0,0 105.75,6.008 160.512,3.75 0.738,-12.742 -9.024,-26.25 -9.024,-26.25 z m 15,53.238 c 0,0 -44.219,0 -75,-0.738 l -0.738,40.508 c 30,-18.008 58.512,-25.508 75,-31.489 6.75,-5.269 0.738,-8.281 0.738,-8.281 z m -8.238,75.781 c 0,0 10.5,-26.25 9.019,-38.281 -40.507,7.5 -83.281,36.762 -83.281,36.762 0,0 64.531,1.519 74.262,1.519 z m -60,46.489 c 4.488,-6.758 18.75,-21.758 18.75,-21.758 0,0 -95.981,-7.5 -123.75,-3.75 -1.488,5.269 0,23.238 0,23.238 0,0 74.25,3.012 105,2.27 z m -20.238,26.992 -85.512,-3.012 c 0,0 -3,10.512 -3,25.512 48.75,4.488 84.019,-18.75 88.512,-22.5 z m -116.25,22.5 V 689.77 c 0,0 -22.5,-3.75 -59.262,-3.008 22.5,23.238 54.769,30.738 59.262,30 z m 0.738,-54.731 0.75,-21.761 c 0,0 -72,-3.75 -106.488,-3.75 0.738,2.23 19.488,22.5 19.488,22.5 0,0 40.512,1.492 86.25,3.011 z m -26.988,541.489 c -18.75,0 -34.493,-15.75 -34.493,-35.24 0,-19.53 15.743,-35.27 34.493,-35.27 18.75,0 34.488,15.74 34.488,35.27 0,19.49 -15.738,35.24 -34.488,35.24 z m -7.5,-18.01 c 0,0 -17.262,-20.98 -19.493,-22.5 -2.269,5.27 8.981,21.01 12.731,26.25 -6.75,-5.98 -12.731,-16.49 -15,-19.49 -3,3.75 6.762,14.25 15.75,23.24 -11.25,-8.24 -15.75,-14.26 -15.75,-14.26 0,0 3.012,19.53 23.988,22.5 -1.488,-5.98 -10.469,-20.23 -14.219,-26.25 8.981,9.02 11.993,10.51 11.993,10.51 z m -84.762,-230.979 1.519,-0.781 c 26.25,-19.488 60.743,-26.988 63.75,-22.5 -33.007,5.27 -65.269,27.77 -70.507,31.52 l -0.743,0.75 z m 363.75,157.499 c -3.75,-8.28 6.012,-12.03 15,-5.27 13.512,9.02 10.5,28.51 9.762,33.01 0.738,1.48 0.738,3 0.738,5.23 0,7.5 -6.012,12.77 -12.731,12.77 -0.781,0 -2.269,0 -3.007,-0.74 0.738,2.23 3.007,7.5 5.976,13.48 6.762,-15.74 22.5,-5.24 24.024,1.52 -12.774,-14.26 -20.274,-2.26 -22.5,1.49 3.007,5.23 5.976,11.99 10.507,19.49 4.493,0.74 15,1.52 23.243,-10.51 10.507,-15 -1.524,-39.73 -3.75,-44.22 7.5,4.49 13.476,23.24 11.25,37.5 -2.262,13.48 -15,21.72 -28.512,20.24 4.488,8.24 10.5,16.48 17.262,25.5 20.976,30 27.738,32.23 27.738,32.23 0,-4.49 -3.012,-45.74 -7.5,-56.25 9.019,6.76 11.988,54.02 9.019,63.01 -9.019,-2.23 -61.519,-70.51 -71.25,-105.74 -3.007,-2.27 -5.269,-6.02 -5.269,-10.51 0,-7.5 6.012,-12.74 12.769,-12.74 3.75,0 6.719,1.49 8.981,3.75 1.488,-6.75 0.75,-11.99 -0.738,-16.52 0,0.78 -17.262,1.52 -21.012,-6.72 z m 4.488,-6.01 c -4.488,0.74 -2.969,9.76 15,10.5 0,0.75 -2.969,-10.5 -15,-10.5 z m 8.281,29.25 c -5.269,0 -9.769,4.5 -9.769,9.73 0,5.27 4.5,9.77 9.769,9.77 5.231,0 9.731,-4.5 9.731,-9.77 0,-5.23 -4.5,-9.73 -9.731,-9.73 z M 439.34,1283.01 c 10.5,0 6.75,-46.49 3.75,-75 0,0 10.5,47.26 4.488,68.24 -3.75,10.51 -15.738,27.77 -50.976,-52.5 11.988,20.27 32.226,59.26 42.738,59.26 z M 392.852,938.012 c 11.25,-50.242 90.738,-33.75 94.488,-21.762 -71.988,-27.73 -94.488,21.762 -94.488,21.762 z m -3.012,135.738 c -5.231,-6.72 -5.231,-31.48 47.269,-31.48 51.719,0 66.719,28.51 58.481,37.5 -7.5,8.98 -16.488,5.23 -27.738,-2.27 -11.25,-8.24 -27.774,-9.73 -27.774,-9.73 0,0 -7.5,-1.52 -18.75,1.49 -11.25,3.01 -26.25,11.25 -31.488,4.49 z m 33.75,-8.24 c 4.5,-0.74 8.988,-0.74 15,-0.74 0.75,0 12.738,-0.75 27,8.24 14.25,8.24 21.012,11.99 26.25,5.27 6.012,-6.01 -5.981,-29.26 -51.762,-32.26 -14.219,-0.75 -24.726,0.74 -32.226,3 z m -3,0.74 -15.75,-15.74 c -0.738,0 -1.481,0.74 -2.262,0.74 l 10.512,11.25 c -1.488,-0.74 -9.731,-7.5 -12.738,-9.73 -0.743,0.75 -1.524,0.75 -1.524,1.49 l 12.774,15 c 2.226,-1.49 5.238,-2.23 8.988,-3.01 z m -10.512,2.27 -13.476,-13.52 c -0.743,0.78 -1.524,1.52 -1.524,1.52 l 12.031,12.74 c 0.743,0 1.481,0 2.969,-0.74 z m -5.238,2.26 -11.25,-12.03 c -0.738,0.78 -0.738,1.52 -1.481,2.27 l 8.981,10.5 c 1.488,0 2.269,-0.74 3.75,-0.74 z m -12.731,0 c 2.231,2.23 4.493,2.23 7.5,1.49 l -8.281,-10.51 c -0.738,3.75 -0.738,7.5 0.781,9.02 z m -34.531,-18.75 c 2.262,15 2.262,25.47 16.524,38.24 0,-0.74 -24.762,-10.5 -16.524,-38.24 z m 13.512,-16.52 c -3,17.26 -4.488,33.75 23.25,53.24 0,-0.74 -48.012,-17.23 -23.25,-53.24 z m -4.488,79.49 c 0,0 5.976,2.27 21.757,5.27 15,3.01 17.231,5.98 17.231,5.98 -1.488,0 -2.231,0 -3.75,0 -3.75,-0.74 -14.262,-3.75 -19.5,-4.49 -6.75,0.74 -11.25,-2.23 -15.738,-6.76 z m -24.024,6.02 c -1.488,0 -3.75,-1.49 -3.75,-6.76 6.012,6.01 20.274,7.5 20.274,7.5 0,0 -2.262,-0.74 -2.262,-5.98 10.5,7.5 20.269,8.24 20.269,8.24 -8.281,2.23 -15.781,-3 -15.781,-3 0,0 0,1.48 2.262,3.75 -3.75,0 -15.738,-3.75 -16.481,-3.75 -0.781,0 1.481,1.48 1.481,4.49 -6.75,0 -23.981,-8.99 -21.75,-11.99 3,4.49 12.769,6.75 15.738,7.5 z m 177.031,-63.75 c 8.243,3.75 2.969,43.51 -27.031,39.76 0,0 29.262,-3.01 27.031,-39.76 z m 20.981,7.5 c 0,22.5 -18.75,32.26 -17.231,30.74 8.981,-8.24 13.481,-21.76 17.231,-30.74 z m 6.012,51.75 c 5.976,8.25 13.476,5.24 13.476,5.24 0,0 0,0 -3.75,-5.98 15.781,6.72 26.25,9.73 39.762,8.24 -7.5,3.01 -21.012,0 -21.012,0 0,0 0,0 1.524,3.01 -34.493,4.49 -46.524,-9.76 -46.524,-9.76 9.024,3.75 15.781,5.23 15.781,5.23 0,0 -1.519,-2.23 0.743,-5.98 z m 3.007,-150 c 6.719,-0.739 6.719,3.75 6.719,3.75 0,0 -4.488,0 -6.719,-3.75 z"
         inkscape:connector-curvature="0" /></g></g></svg>