<?xml version="1.0" encoding="UTF-8" standalone="no"?>
<!-- Generator: Adobe Illustrator 15.0.0, SVG Export Plug-In . SVG Version: 6.00 Build 0)  -->

<svg
   xmlns:dc="http://purl.org/dc/elements/1.1/"
   xmlns:cc="http://creativecommons.org/ns#"
   xmlns:rdf="http://www.w3.org/1999/02/22-rdf-syntax-ns#"
   xmlns:svg="http://www.w3.org/2000/svg"
   xmlns="http://www.w3.org/2000/svg"
   xmlns:sodipodi="http://sodipodi.sourceforge.net/DTD/sodipodi-0.dtd"
   xmlns:inkscape="http://www.inkscape.org/namespaces/inkscape"
   version="1.1"
   id="ƒŒƒCƒ_x201E__x7C__1"
   x="0px"
   y="0px"
   width="171px"
   height="223px"
   viewBox="0 0 171 223"
   xml:space="preserve"
   sodipodi:docname="knuckles.svg"
   inkscape:version="0.92.4 (5da689c313, 2019-01-14)"><metadata
   id="metadata161"><rdf:RDF><cc:Work
       rdf:about=""><dc:format>image/svg+xml</dc:format><dc:type
         rdf:resource="http://purl.org/dc/dcmitype/StillImage" /></cc:Work></rdf:RDF></metadata><defs
   id="defs159" /><sodipodi:namedview
   pagecolor="#ffffff"
   bordercolor="#666666"
   borderopacity="1"
   objecttolerance="10"
   gridtolerance="10"
   guidetolerance="10"
   inkscape:pageopacity="0"
   inkscape:pageshadow="2"
   inkscape:window-width="1366"
   inkscape:window-height="715"
   id="namedview157"
   showgrid="false"
   inkscape:zoom="1.058296"
   inkscape:cx="-86.947031"
   inkscape:cy="111.5"
   inkscape:window-x="-8"
   inkscape:window-y="22"
   inkscape:window-maximized="1"
   inkscape:current-layer="ƒŒƒCƒ_x201E__x7C__1" />
<g
   id="g154"
   transform="matrix(-1.0592243,0,0,1.0592243,175.88623,-6.1054218)">
	<path
   d="m 148.835,112.298 c -2.053,-0.429 -5.563,-1.682 -8.314,-0.832 -0.663,0.202 -1.273,0.841 -1.767,1.247 -1.611,1.306 -3.394,2.826 -5.404,3.638 -0.357,-1.01 -0.721,-1.406 -1.351,-2.079 -0.806,-0.857 -1.949,-1.728 -3.014,-2.286 -0.572,-0.302 -1.832,-0.429 -2.183,-0.936 -0.325,-0.471 -1.307,-3.419 -0.542,-3.572 0.766,-0.153 3.368,-4.899 5.052,-8.879 1.883,-4.451 3.606,-7.731 4.516,-10.18 0.085,0.772 1.367,4.911 1.761,10.333 0.565,7.794 0.238,14.194 0.332,14.211 0.785,-1.15 5.205,-6.43 8.471,-14.084 3.126,-8.289 4.239,-15.291 4.287,-15.512 0.464,4.169 0.995,15.231 0.995,15.231 0.627,-2.41 2.346,-7.73 2.985,-9.925 2.909,-9.976 3.514,-18.611 2.296,-29.188 -1.023,-8.873 -6.206,-22.96 -13.318,-33.271 -7.163,-10.382 -15.411,-20.31 -32.454,-18.676 -9.59,0.918 -28.665,7.599 -35.516,13.502 -4.976,4.286 -8.292,8.567 -12.043,13.543 -2.15,-1.686 -5.178,-1.448 -6.123,1.939 -0.88,3.14 2.468,10.267 3.572,12.349 0.508,0.961 0.842,2.069 0.714,1.735 0.279,0.747 0.973,3.134 1.123,3.878 0.305,1.552 0.612,1.684 1.225,3.062 -1.023,0.487 -3.61,1.347 -4.851,1.506 -1.809,0.227 -5.304,0.178 -5.763,0.943 -0.582,0.969 0.99,2.865 3.292,4.057 0.695,0.36 1.433,0.401 2.056,0.716 1.393,0.705 5.205,3.502 6.593,4.311 5.613,3.266 12.757,4.082 12.859,4.592 0.102,0.51 -1.615,0.741 -2.959,1.735 -2.848,2.098 -6.328,4.389 -6.65,12.261 -0.075,1.818 0.724,3.238 0.831,4.573 0.127,1.611 -1.461,2.923 -2.182,3.845 -0.676,-1.429 -1.607,-2.338 -2.702,-3.326 l -1.543,-0.718 c 0,0 -1.633,-4.695 0,-6.94 1.633,-2.246 8.436,-7.643 7.858,-10.818 -0.408,-2.245 -2.415,-4.503 -8.334,-3.278 -5.499,1.138 -7.654,7.909 -8.879,8.113 -1.225,0.204 -2.896,-3.803 -5.052,-6.889 -3.895,-5.575 -10.291,-4.273 -10.291,-4.273 0,0 -10.818,-7.96 -11.838,-6.736 -1.02,1.224 0.408,12.655 0.408,12.655 0,0 -3.674,3.062 -5.715,5.919 -2.041,2.857 -2.449,7.348 -3.266,7.348 -0.817,0 -10.615,5.105 -11.227,6.738 -0.613,1.633 9.593,5.715 10.41,6.736 0.816,1.02 3.062,7.756 9.593,9.593 6.531,1.837 12.894,3.661 17.35,2.245 3.742,-1.189 4.695,-2.347 4.695,-2.347 0.365,-0.031 2.472,1.968 5.103,1.837 4.083,-0.204 5.284,-2.518 5.715,-2.552 0.974,-0.081 2.055,-0.017 3.455,-0.107 4.167,-0.276 8.021,-5.242 9.561,-8.314 0.221,0.598 0.624,1.315 0.728,1.871 0.208,1.127 -0.253,2.121 -0.416,2.91 -1.065,5.083 -2.877,9.256 -5.196,13.095 -0.334,0.549 -0.691,1.059 -1.039,1.663 -0.332,0.568 -0.926,1.114 -1.247,1.663 -0.922,1.559 3.407,-0.961 3.741,-1.143 2.504,-1.377 7.385,-4.254 9.041,-6.339 1.117,3.797 1.872,6.568 2.677,10.625 0.702,3.55 1.218,8.56 1.76,12.324 0.627,4.374 0.85,7.472 1.486,11.762 -2.091,0.546 -3.611,1.449 -4.677,3.014 -1.938,2.838 -0.257,6.461 0.832,10.289 -1.832,-0.468 -3.111,-0.994 -5.404,-0.728 -1.215,0.14 -1.552,1.234 -2.598,1.351 -1.033,0.11 -1.676,-0.302 -2.806,-0.104 -0.89,0.153 -1.399,1.01 -2.182,1.247 -0.802,0.241 -1.66,0.539 -2.494,0.624 -0.679,0.065 -1.156,-0.237 -1.871,0 -0.312,0.101 -0.39,0.503 -0.624,0.624 -0.838,0.413 -1.851,0.65 -2.598,0.936 -0.649,0.243 -1.526,0.24 -2.078,0.624 -0.653,0.448 -0.575,1.851 -1.248,2.286 -0.841,0.539 -2.059,0.429 -3.118,0.728 -0.685,0.188 -1.627,0.672 -2.286,1.039 -3.208,1.777 -5.498,5.235 -6.859,8.833 -0.328,0.864 -0.234,1.767 -0.624,2.702 -0.097,0.224 -0.588,0.413 -0.728,0.624 -0.48,0.705 -0.85,1.827 -1.039,2.806 -1.337,6.915 7.312,11.048 11.522,12.196 8.659,2.361 13.983,-0.546 20.284,-3.368 3.68,-1.653 7.484,-3.112 11.635,-4.21 2.699,-0.718 5.38,-1.189 8.209,-1.708 1.542,-0.286 3.352,-0.163 4.573,-0.728 0.477,1.922 0.912,3.664 1.974,4.988 2.303,2.871 6.427,4.495 9.457,6.651 3.04,2.16 5.895,4.511 8.938,6.755 2.822,2.082 6.728,4.478 11.639,6.547 4.25,1.79 12.081,1.988 19.434,-0.52 4.195,-1.431 12.25,-6.534 10.288,-13.094 -0.386,-1.286 -2.108,-2.5 -2.286,-3.014 -0.247,-0.705 0.084,-1.75 0,-2.494 -0.094,-0.818 -0.286,-1.854 -0.52,-2.702 -0.877,-3.153 -2.962,-5.966 -5.3,-7.69 -0.916,-0.675 -2.41,-0.968 -3.222,-1.767 -0.909,-0.89 -0.649,-2.838 -1.767,-3.533 -1.413,-0.88 -3.075,-1.098 -4.469,-1.975 -0.422,-0.267 -0.597,-0.844 -1.143,-1.039 -0.809,-0.289 -1.79,-0.179 -2.494,-0.52 -0.383,-0.188 -1.364,-0.53 -1.767,-0.832 -0.279,-0.211 -0.286,-0.653 -0.624,-0.832 -0.555,-0.299 -1.056,-0.097 -1.767,-0.312 -0.582,-0.179 -2.195,-1.111 -2.702,-1.559 -0.393,-0.348 -0.464,-1.082 -0.935,-1.351 -0.594,-0.341 -1.468,-0.179 -2.079,-0.52 -0.88,-0.494 -0.883,-1.54 -2.078,-1.247 -0.065,0.013 -0.25,-0.016 -0.312,0 0,0 -0.152,0.084 -0.208,0.104 -0.266,-1.013 0.17,0.341 -0.06,-0.714 1.406,-0.464 3.904,-0.28 5.307,-0.51 3.604,-0.594 7.614,0.931 10.716,0.612 3.179,-0.328 5.149,-3.005 6.633,-5.103 3.115,0.461 10.644,0.437 11.022,-0.408 0.378,-0.845 -5.472,-9.457 -7.654,-11.532 0.695,-1.799 -0.391,-5.849 -0.816,-7.654 -1.933,-8.151 -9.222,-13.22 -15.275,-17.299 3.179,-2 5.066,-5.973 9.041,-7.067 3.329,-0.919 7.551,-0.877 11.12,-1.143 2.082,-0.159 6.307,0.529 7.898,0.104 0.257,-0.072 0.263,-0.413 0.416,-0.52 -4.682,-2.175 -9.969,-3.818 -15.588,-4.991 z M 102.382,96.294 c 0.244,-0.133 -0.104,0.52 -0.104,0.52 -0.517,1.913 -1.172,3.537 -1.767,5.3 -0.325,-0.978 -0.591,-2.146 -0.832,-3.325 0.949,-0.673 1.742,-1.985 2.703,-2.495 z m -2.39,60.899 c -0.341,-2.293 -0.536,-4.784 -1.559,-6.443 -0.945,-1.533 -2.946,-2.286 -5.404,-2.286 -1.319,-8.886 -3.504,-18.901 -3.845,-27.852 5.992,9.837 9.71,21.713 13.718,33.567 -1.189,0.809 -2.429,1.504 -2.91,3.014 z m 8.266,-26.101 c -0.494,0.643 -1.169,1.285 -1.607,1.99 -1.166,-2.15 -1.417,-3.38 -2.398,-5.819 2.168,0.614 3.546,1.073 5.944,1.558 -0.701,1.127 -1.15,1.239 -1.939,2.271 z m 3.477,-27.523 c -0.062,0.721 -0.571,1.796 -0.727,2.494 -0.828,3.676 -1.979,6.43 -3.269,9.606 -0.845,-0.806 -1.908,-1.347 -2.551,-2.332 -0.753,-1.149 -1.27,-2.361 -1.871,-3.637 3.179,-1.975 5.891,-5.167 7.794,-8.417 0.182,0.672 0.696,1.403 0.624,2.286 z"
   id="path2"
   inkscape:connector-curvature="0" />
	<path
   d="m 99.057,188.474 c -1.268,5.574 7.375,8.178 11.951,11.432 4.267,3.033 8.222,6.773 12.678,9.561 4.107,2.569 6.573,3.192 8.418,3.533 8.512,1.562 16.251,-0.038 21.714,-3.337 3.065,-1.854 6.965,-5.817 5.306,-9.653 -1.253,4.573 -4.521,6.473 -8.417,8.417 -2.056,1.023 -4.329,1.461 -7.067,1.975 -16.403,3.06 -23.146,-8.005 -32.839,-13.614 -3.729,-2.156 -9.575,-4.751 -11.744,-8.314 z"
   id="path4"
   inkscape:connector-curvature="0"
   style="fill:#bfbfbf" />
	<path
   d="m 98.641,185.149 c 0.078,1.016 0.084,1.779 0.416,2.598 1.234,3.066 9.058,6.934 12.159,8.73 9.697,5.608 16.231,16.55 32.528,13.406 5.112,-0.987 8.427,-2.179 11.639,-4.884 0.991,-0.834 4.176,-4.186 3.118,-6.443 -0.101,-0.214 -0.432,-0.266 -0.624,-0.416 -0.714,1.832 -0.929,3.543 -2.182,4.78 -4.667,4.599 -13.549,7.95 -22.759,6.131 -3.624,-0.717 -7.027,-2.643 -9.873,-4.365 -4.137,-2.5 -7.437,-6.173 -11.328,-8.937 -2.384,-1.695 -5.06,-3.215 -7.586,-4.677 -1.384,-0.802 -3.222,-1.377 -4.157,-2.598 -0.38,-0.494 -1.176,-2.741 -1.351,-3.325 z"
   id="path6"
   inkscape:connector-curvature="0"
   style="fill:#d9d9d9" />
	<path
   d="m 97.498,184.733 c -0.938,0.071 -2.452,1.01 -3.533,1.247 -4.715,1.026 -9.278,1.741 -13.406,3.222 -9.548,3.42 -20.142,10.938 -32.008,4.365 -2.877,-1.595 -5.206,-3.676 -5.923,-7.378 0,0.854 0.023,1.49 0,2.182 -0.102,3 3.831,6.239 6.339,7.586 11.546,6.205 20.184,-0.61 29.826,-4.261 4.806,-1.822 10.412,-2.705 15.9,-3.637 1.27,-0.218 2.215,-0.526 3.222,-0.936 -0.036,-0.305 -0.188,-0.971 -0.208,-1.247 -0.043,-0.526 0.252,-1.182 -0.209,-1.143 z"
   id="path8"
   inkscape:connector-curvature="0"
   style="fill:#bfbfbf" />
	<path
   d="m 43.354,183.694 c -1.03,2.215 0.438,4.735 1.559,6.339 1.309,1.874 3.088,2.851 5.3,3.845 11.639,5.219 21.541,-2.296 30.553,-5.3 4.423,-1.478 9.272,-1.949 13.926,-3.429 -6.359,0.941 -12.104,1.883 -17.251,4.053 -4.485,1.887 -8.548,4.573 -13.926,5.508 -6.599,1.143 -15.949,-1.91 -18.394,-5.508 -1,-1.472 -1.673,-3.141 -1.767,-5.508 z"
   id="path10"
   inkscape:connector-curvature="0"
   style="fill:#d9d9d9" />
	<path
   d="m 145.614,182.966 c -4.907,0.503 -10.828,2.644 -14.965,4.469 -1.422,0.624 -3.537,2.387 -4.988,2.702 -0.188,0.039 -0.624,-0.104 -0.624,-0.104 -2.186,-1.03 -3.774,-2.397 -5.404,-3.949 -1.744,1.082 -2.663,3.458 -3.118,5.82 -0.474,2.432 -0.461,5.803 0.831,7.378 0.448,0.546 1.39,0.919 1.975,1.351 1.562,1.149 3.03,2.686 4.78,3.637 1.345,0.731 2.637,1.195 4.053,1.871 1.487,0.708 3.287,1.715 5.196,1.975 5.495,0.744 11.022,-0.273 14.861,-1.663 1.478,-0.539 6.222,-3.274 6.962,-4.365 0.663,-0.981 1.438,-3.079 1.552,-4.596 0.487,-6.527 -2.679,-10.539 -6.54,-13.071 -1.256,-0.825 -2.194,-1.701 -4.571,-1.455 z"
   id="path12"
   inkscape:connector-curvature="0"
   style="fill:#da2032" />
	<path
   d="m 146.341,179.745 c -1.315,-0.114 -3.245,0.899 -4.365,1.247 -3.962,1.214 -7.606,2.264 -11.224,3.533 -1.565,0.546 -3.329,1.121 -4.677,1.975 -0.614,0.383 -0.805,3.021 -0.52,3.014 l 0.208,-0.208 c 4.235,-2.121 8.723,-4.235 13.614,-5.716 2.329,-0.708 5.037,-1.455 7.794,-1.455 l 0.208,-0.416 c -0.112,-0.572 -0.395,-1.923 -1.038,-1.974 z"
   id="path14"
   inkscape:connector-curvature="0"
   style="fill:#d9d9d9" />
	<path
   d="m 137.196,175.276 c -1.068,0.958 1.897,0.809 0.624,0.208 -0.192,-0.091 -0.364,-0.114 -0.624,-0.208 z"
   id="path16"
   inkscape:connector-curvature="0"
   style="fill:#d9d9d9" />
	<path
   d="m 113.709,173.405 c -0.162,0.646 -0.545,1.565 -0.52,2.183 0.02,0.526 0.539,1.247 0.728,1.663 1.702,3.796 3.702,6.141 6.651,8.625 1.406,1.186 2.569,2.604 4.469,3.326 0,-1.582 -0.055,-2.354 -0.936,-3.014 -3.844,-2.881 -9.06,-7.544 -10.392,-12.783 z"
   id="path18"
   inkscape:connector-curvature="0"
   style="fill:#808080" />
	<path
   d="m 107.163,173.301 c -0.961,0.334 -2.598,4.083 -3.014,5.3 -0.948,2.764 -2.537,7.866 -0.832,11.12 0.149,0.286 5.476,3.017 6.235,3.534 2.182,1.484 4.287,3.173 6.339,4.78 -1.478,-5.018 0.968,-9.6 3.222,-12.471 -2.598,-1.776 -3.962,-4.612 -5.508,-7.482 -0.25,-0.465 -0.825,-1.095 -0.935,-1.663 -0.143,-0.711 0,-1.562 0,-2.286 -0.759,-0.114 -5.313,-0.903 -5.507,-0.832 z"
   id="path20"
   inkscape:connector-curvature="0"
   style="fill:#ffcb05" />
	<path
   d="m 56.968,170.496 c -3.819,0.416 -7.239,2.978 -9.042,5.508 -1.357,1.9 -3.926,7.232 -3.222,10.392 0.107,0.491 0.688,1.049 0.936,1.455 2.565,4.206 10.201,6.979 17.563,6.132 2.669,-0.309 4.861,-1.53 6.962,-2.391 3.391,-1.393 6.395,-2.786 9.769,-4.157 -0.429,-3.826 -1.095,-6.658 -2.494,-9.353 -0.497,-0.955 -1.169,-2.075 -2.079,-2.598 -0.893,-0.517 -1.734,0.124 -2.806,-0.208 -0.981,-0.305 -1.907,-1.159 -2.806,-1.559 -3.558,-1.578 -8.884,-3.65 -12.781,-3.221 z"
   id="path22"
   inkscape:connector-curvature="0"
   style="fill:#da2032" />
	<path
   d="m 102.486,170.288 c -2.292,3.579 -3.493,7.523 -3.09,12.892 0.071,0.984 0.304,2.783 0.612,3.598 0.348,0.926 2.007,2.077 2.79,2.633 -2.179,-5.878 1.163,-12.734 4.053,-16.42 -1.975,-0.388 -3.436,-1.297 -4.365,-2.703 z"
   id="path24"
   inkscape:connector-curvature="0"
   style="fill:#da2032" />
	<path
   d="m 89.704,167.897 c -3.959,3.215 -9.424,4.667 -14.549,6.755 0.146,0.084 0.364,0.299 0.52,0.416 2.997,2.25 4.611,7.385 4.988,12.159 2.475,-0.789 4.981,-1.396 7.794,-1.975 1.734,-0.36 3.4,-1.039 5.508,-1.039 1.779,-5.338 -0.235,-14.416 -4.261,-16.316 z"
   id="path26"
   inkscape:connector-curvature="0"
   style="fill:#ffcb05" />
	<path
   d="m 58.215,167.897 c -0.26,0.555 -0.497,1.163 -0.832,1.663 4.05,-0.789 12.604,3.043 15.173,4.781 0.331,-2.449 -0.26,-2.222 -2.079,-2.91 -3.61,-1.37 -7.741,-3.352 -12.262,-3.534 z"
   id="path28"
   inkscape:connector-curvature="0"
   style="fill:#d9d9d9" />
	<path
   d="m 88.457,165.507 c -2.205,1.286 -4.583,2.754 -7.067,3.741 -1.649,0.653 -3.212,1.088 -4.884,1.663 -1.003,0.341 -1.922,0.74 -3.118,1.039 -0.133,0.88 -0.208,1.673 -0.208,2.702 1.52,-0.318 2.546,-0.932 3.845,-1.351 4.709,-1.529 8.727,-3.332 12.367,-5.819 -0.214,-1.036 -0.442,-1.322 -0.935,-1.975 z"
   id="path30"
   inkscape:connector-curvature="0"
   style="fill:#808080" />
	<path
   d="m 100.927,163.325 c -0.987,2.121 -4.449,3.722 -6.963,4.261 -0.948,0.201 -2.042,0.208 -3.222,0.208 2.13,1.922 3.423,4.677 3.949,8.21 0,-0.029 0.295,0.52 0,0.52 0.279,2.52 0.49,5.196 -0.104,7.482 1.159,-0.175 2.955,-0.386 3.741,-1.039 0.23,-0.195 0,-0.728 0,-0.728 0.542,-4.881 0.806,-9.229 3.118,-12.263 0.166,-0.221 0.666,-0.587 0.728,-0.831 0.266,-1.131 -0.938,-4.878 -1.247,-5.82 z"
   id="path32"
   inkscape:connector-curvature="0"
   style="fill:#da2032" />
	<path
   d="m 77.856,162.701 c 1.383,3.163 -2.592,2.585 -4.469,1.767 0.101,0.686 0.078,1.14 0.104,1.767 -1.711,0.887 -4.813,0.676 -5.3,-1.247 -0.718,0.175 -1.088,0.27 -1.871,0.416 0.429,0.059 1.614,0.617 1.767,1.247 0.039,0.162 0.013,0.728 -0.104,0.728 0,0 0.175,0.478 0.104,0.728 -0.276,0.922 -2.212,0.958 -3.326,0.727 -0.906,-0.188 -1.416,-0.708 -2.078,-1.039 -0.036,0 -0.068,0 -0.104,0 -1.068,-0.948 -0.029,-1.186 -1.767,-0.624 -0.309,0.098 -0.533,0.124 -0.728,0.208 -0.042,0.016 -0.208,0.104 -0.208,0.104 H 59.67 c 2.095,0.776 4.459,1.14 6.651,1.871 1.857,0.617 4.611,2.475 6.547,2.286 1.286,-0.126 2.475,-0.867 3.533,-1.247 2.462,-0.893 4.849,-1.595 7.067,-2.702 1.536,-0.77 3.157,-1.607 4.469,-2.598 -0.809,-0.065 -1.218,-0.068 -1.975,-0.208 -0.747,-0.14 -1.621,-0.422 -2.39,-0.624 1.741,3.754 -2.442,2.79 -4.469,2.286 0.578,2.627 -2.176,2.211 -4.365,1.767 0.169,0.517 0.565,1.591 0.312,2.079 -0.741,1.399 -5.307,-0.049 -6.235,-0.936 0.601,-2.302 1.929,-2.494 4.676,-1.767 0.309,-2.777 2.563,-2.669 4.78,-1.767 0.413,-2 1.146,-2.146 3.014,-2.39 -1.34,-0.202 -2.188,-0.511 -3.429,-0.832 z"
   id="path34"
   inkscape:connector-curvature="0"
   style="fill:#bfbfbf" />
	<path
   d="m 100.91,159.719 c 0.598,2.257 0.904,3.597 1.395,5.933 0.244,1.169 0.387,2.999 0.936,4.019 0.325,0.61 1.397,1.567 2.109,1.837 0.922,0.347 5.587,2.755 7.868,0.553 0.109,-0.106 0.149,-0.461 0.312,-0.52 1.042,-0.387 2.192,-0.202 3.221,-0.416 2.481,-0.52 4.865,-1.247 7.067,-2.078 1.487,-0.565 1.449,0.094 1.102,-1.341 -0.107,-0.429 -2.645,0.947 -2.755,0.408 -4.293,0.581 -12.451,-3.955 -11.635,-7.348 -3.573,0.407 -7.543,1.21 -9.62,-1.047 z"
   id="path36"
   inkscape:connector-curvature="0"
   style="fill:#00ab4e" />
	<path
   d="m 103.109,155.842 c -6.414,4.849 3.175,4.526 7.394,3.902 -0.409,-0.867 0.237,-0.224 -0.51,-0.714 -0.37,-0.244 -2.384,0.339 -2.755,0.204 -3.368,-1.224 -2.914,-2.599 -4.129,-3.392 z"
   id="path38"
   inkscape:connector-curvature="0"
   style="fill:#008739" />
	<path
   d="m 98.018,152.621 c -2.277,4.829 -13.433,6.201 -18.216,2.927 0.182,0.607 1.071,5.205 1.684,7.348 0.244,0.059 1.266,0.478 1.464,0.533 1.182,0.331 2.319,0.714 3.429,0.935 0.871,0.172 2.014,0.01 2.702,0.416 0.572,0.334 0.737,1.747 1.351,1.975 2.085,0.77 7.177,-2.033 8.313,-2.91 0.523,-0.406 0.753,-1.117 1.247,-1.559 0,0 -0.174,-1.407 -0.213,-1.533 -0.867,-2.657 -1.005,-5.635 -1.761,-8.132 z"
   id="path40"
   inkscape:connector-curvature="0"
   style="fill:#00ab4e" />
	<path
   d="m 94.796,149.918 c 0,0 -0.627,0.065 -0.728,0.104 -0.331,0.114 0.353,1.239 -1.247,1.975 -1.451,0.668 -7.2,2.166 -8.21,0.104 -0.253,-0.52 -0.341,-1.4 -0.312,-1.871 -1.351,0.409 -6.19,2.793 -3.741,4.677 2.14,1.649 6.498,2.202 10.08,1.455 2.153,-0.451 8.973,-2.614 6.547,-5.404 -0.437,-0.503 -1.474,-1.075 -2.389,-1.04 z"
   id="path42"
   inkscape:connector-curvature="0"
   style="fill:#008739" />
	<path
   d="m 141.457,112.298 c -0.487,0.094 -7.434,5.352 -7.482,5.508 -0.306,0.922 0.477,3.075 0.727,3.949 0.241,0.851 0.607,1.851 0.728,2.91 4.855,-2.254 5.878,-6.775 12.783,-7.483 4.618,-0.477 9.577,-0.555 13.614,-0.104 -0.867,-0.338 -1.923,-0.747 -2.806,-1.04 -2.199,-0.737 -4.498,-1.237 -6.755,-1.871 -2.203,-0.615 -8.003,-2.424 -10.809,-1.869 z"
   id="path44"
   inkscape:connector-curvature="0"
   style="fill:#ed1a3b" />
	<path
   d="m 123.375,111.987 c -3.664,0.302 -7.764,1.712 -9.758,3.797 -1.695,1.767 -2.428,3.683 -2.22,6.736 0.117,1.783 0.011,3.025 0.459,4.363 2.332,-2.221 6.923,-3.99 10.896,-4.399 0.604,-0.065 1.653,-0.344 1.02,-0.091 4.027,0 7.144,0.611 10.001,1.939 0.179,-1.614 -0.383,-2.192 -0.837,-3.511 -1.468,-4.235 -1.007,-7.002 -5.715,-8.21 -1.391,-0.358 -2.59,-0.732 -3.846,-0.624 z"
   id="path46"
   inkscape:connector-curvature="0"
   style="fill:#ffffff" />
	<path
   d="m 112.047,104.816 c -0.883,5.937 -3.088,11.064 -5.716,15.381 1.075,-0.438 3.783,-1.644 4.573,-2.39 0.309,-0.296 0.354,-0.809 0.624,-1.144 0.669,-0.838 1.64,-1.62 2.494,-2.286 -0.383,-1.299 -0.403,-2.598 -0.624,-4.157 -0.247,-1.705 -0.913,-3.839 -1.351,-5.404 z"
   id="path48"
   inkscape:connector-curvature="0"
   style="fill:#ed1a3b" />
	<path
   d="m 74.011,104.816 c -0.916,6.161 -3.342,12.971 -6.962,16.42 0.428,-0.224 0.772,-0.351 1.143,-0.624 3.085,-2.303 6.777,-4.319 9.561,-6.963 -1.397,-2.825 -2.228,-6.141 -3.742,-8.833 z"
   id="path50"
   inkscape:connector-curvature="0"
   style="fill:#ed1a3b" />
	<path
   d="m 69.958,94.32 c -0.406,0.99 -0.815,2.026 -1.455,2.806 -0.37,0.445 -1.039,0.857 -1.247,1.455 -0.309,0.867 -0.188,1.588 -0.52,2.39 -1.098,2.631 -3.179,5.417 -5.612,6.755 0.458,0.257 0.968,0.669 1.767,0.624 0.098,-0.006 0.37,-0.104 0.312,-0.104 3.472,-0.471 6.583,-4.307 8.313,-6.651 0.312,-0.425 0.461,-0.99 0.832,-1.351 0.075,-0.078 -0.299,-0.588 -0.312,-0.624 -0.707,-1.777 -1.422,-3.53 -2.078,-5.3 z"
   id="path52"
   inkscape:connector-curvature="0"
   style="fill:#ed1a3b" />
	<path
   d="m 62.289,93.058 c -0.311,1.055 -1.133,3.618 -2.44,5.313 -2.009,2.606 -6.045,4.744 -6.242,4.937 -0.172,0.166 -0.788,3.078 -1.684,4.133 -0.601,0.705 -0.986,1.572 -1.656,2.211 3.68,3.502 11.99,-2.307 14.685,-8.118 3.266,-7.042 -2.494,-8.343 -2.663,-8.476 z"
   id="path54"
   inkscape:connector-curvature="0"
   style="fill:#ffffff" />
	<path
   d="m 107.059,90.371 c -0.724,1.351 -1.728,2.79 -2.702,3.949 -0.24,0.282 -1.039,0.812 -1.143,1.143 -0.104,0.315 0.055,0.809 0,1.143 -0.253,1.448 -0.851,3.215 -1.351,4.677 -0.198,0.571 -1.081,1.406 -1.143,1.871 -0.094,0.698 0.802,2.144 1.04,2.806 0.367,1.033 0.659,1.991 1.039,3.014 1.188,-0.935 7.794,-7.687 8.002,-8.833 0.2,-1.135 -3.155,-8.722 -3.742,-9.77 z"
   id="path56"
   inkscape:connector-curvature="0"
   style="fill:#ed1a3b" />
	<path
   d="m 112.102,82.245 c -0.685,1.475 -1.568,2.465 -2.341,3.865 -0.413,0.737 -1.78,2.069 -1.871,2.91 -0.084,0.757 2.978,6.817 3.429,8.106 1.734,4.966 2.85,9.894 3.691,16.477 3.114,-1.621 5.678,-3.246 10.546,-2.862 -1.318,-3.274 -2.335,-6.463 -3.533,-9.769 -2.611,-7.204 -6.164,-12.744 -9.921,-18.727 z"
   id="path58"
   inkscape:connector-curvature="0"
   style="fill:#ed1a3b" />
	<path
   d="m 93.324,74.489 c -2.608,0.848 -15.921,11.125 -18.472,6.838 -1.233,-2.071 1.003,-5.064 2.857,-6.327 -1.984,0.604 -4.572,2.471 -5.715,4.082 -1.348,1.89 -2.373,5.946 -1.327,9.083 2.958,8.879 19.235,-9.82 20.907,-11.408 0.37,-0.354 1.899,-2.317 1.75,-2.268 z"
   id="path60"
   inkscape:connector-curvature="0"
   style="fill:#ffffff" />
	<path
   d="m 81.806,73.951 c -2.24,0.159 -5.033,1.996 -6.155,3.894 -1.236,2.091 -0.521,4.227 3.385,3.584 1.696,-0.279 4.502,-2.065 5.817,-2.857 2.812,-1.702 4.617,-2.948 7.553,-4.413 -1.965,0.217 -4.069,0.383 -6.443,0.208 -1.28,-0.098 -3,-0.498 -4.157,-0.416 z"
   id="path62"
   inkscape:connector-curvature="0"
   style="fill:#ed1a3b" />
	<path
   d="m 101.655,71.561 c -0.702,0.091 -1.257,0.789 -1.871,1.039 -1.267,0.51 -2.783,0.367 -3.949,1.04 -0.887,0.506 -2.13,2.108 -2.919,2.891 -3.053,3.007 -6.034,5.97 -9.083,8.981 -3.007,2.961 -12.198,10.731 -14.082,1.638 -0.92,3.567 2.593,11.27 4.08,14.589 2.14,4.774 4.334,8.686 5.896,13.782 1.4,4.573 2.088,9.21 2.806,14.238 0.743,5.235 2.721,20.002 2.932,21.886 0.552,0.225 2.066,0.842 3.062,0.689 1.294,-0.199 2.876,-0.648 3.444,-1.148 0.741,-0.656 0.135,-2.331 0.019,-3.033 -1.243,-7.53 -2.927,-19.088 -3.429,-22.863 -0.371,-2.79 -0.182,-5.794 -0.624,-6.651 -0.484,-0.938 -4.358,-3.134 -5.404,-3.845 -1.062,-0.724 -2.264,-1.13 -2.495,-2.39 1.51,1.023 3.082,2.176 4.677,3.014 1.172,0.614 2.667,1.046 3.533,1.975 0.864,0.926 1.095,1.702 1.767,2.702 3.433,5.102 5.953,10.921 8.313,17.147 2.098,5.54 1.807,6.663 4.214,13.523 0.118,0.336 -1.939,-9.491 1.531,-14.186 0.097,-0.131 1.939,-2.143 1.939,-2.143 -0.645,-0.175 -1.093,-2.409 -1.528,-3.496 -1.684,-4.209 -4.136,-11.467 -4.285,-12.509 -0.315,-2.179 -0.312,-3.614 -0.624,-5.716 0.386,0.715 0.64,1.367 0.936,2.391 0.77,2.689 2.754,10.305 3.118,10.6 0.883,0.718 5.748,2.098 7.001,2.173 -0.459,-3.138 -0.705,-5.752 -0.247,-8.824 -0.568,0.166 -0.731,0.152 -1.144,0.416 -1.393,0.874 -3.276,2.03 -4.884,2.286 0.89,-1.893 2.189,-3.257 3.014,-5.3 -5.229,-3.536 -7.304,-9.57 -8.314,-17.043 1.232,-0.963 -0.126,0.033 -4.053,3.118 0.955,-2.965 2.4,-5.768 3.222,-8.833 1.025,-3.833 1.975,-7.678 2.957,-11.859 0.104,-0.458 -0.307,-0.729 -0.463,-1.131 -0.575,-1.472 -2.929,-1.965 -3.845,-3.222 -0.195,-0.266 -1.059,-2.101 -0.312,-2.494 0.318,-0.172 0.211,0.821 0.312,1.143 0.357,1.156 1.695,1.77 2.702,2.286 0.624,0.318 1.676,0.789 2.218,1.172 0.816,-2.653 1.13,-5.301 1.429,-7.96 -0.278,-0.003 -1.295,-0.113 -1.567,-0.073 z"
   id="path64"
   inkscape:connector-curvature="0"
   style="fill:#ed1a3b" />
	<path
   d="m 144.782,178.498 c -0.656,-0.27 -0.994,-0.422 -1.767,-0.624 0.094,0.318 0.12,0.539 0.208,0.832 -1.017,0.802 -5.897,2.572 -7.482,1.039 -0.403,-0.39 -0.208,-1.851 -0.208,-2.598 -1.776,0.572 -3.458,0.422 -5.196,-0.104 -0.386,-2.841 0.231,-2.861 2.391,-3.637 0.987,-0.357 0.058,-0.617 -0.624,-1.039 -0.176,0.38 -0.497,0.925 -0.832,1.143 -0.708,0.452 -5.547,1.436 -6.235,0 -1.247,-2.595 1.244,-3.361 3.118,-3.637 -0.185,-0.149 -0.341,-0.478 -0.52,-0.624 -0.218,-0.179 -0.565,-0.432 -0.936,-0.416 -1.403,0.052 -4.576,1.838 -6.131,2.287 -2.104,0.601 -4.092,0.925 -6.443,1.247 0.604,5.437 6.277,10.191 9.769,12.99 0.253,0.202 0.851,0.88 1.143,0.936 0.507,0.094 6.726,-2.845 7.898,-3.222 3.31,-1.075 6.911,-2.186 10.289,-3.118 1.516,-0.419 4.299,-0.335 1.558,-1.455 z m -27.019,-2.183 c -0.61,-0.117 -1.02,-0.572 -1.144,-1.144 -0.013,-0.059 0.065,-0.448 0.104,-0.312 0,-0.841 -0.039,-1.601 0.416,-1.975 0.581,-0.481 2.072,-0.806 3.014,-0.832 2.208,-0.065 2.54,0.721 3.118,2.287 0.633,1.717 -3.93,2.275 -5.508,1.976 z m 9.56,7.898 c -0.334,0.036 -0.705,0 -1.039,0 0,0 -0.799,0.084 -1.143,-0.104 -1.143,-0.633 -0.649,-3.287 0.312,-3.845 -1.163,0.341 -4.465,0.653 -4.78,-0.416 -0.078,-0.26 0.023,-0.666 0,-0.936 -0.055,-0.61 -0.334,-1.237 0.104,-1.663 0.659,-0.646 2.708,-1.221 3.741,-1.351 0.256,-0.036 -0.055,0.12 0.208,0.104 0.322,-0.023 1.069,-0.24 1.559,-0.104 1.234,0.338 1.744,2.695 0.832,3.534 3.433,-0.578 3.871,-0.198 4.884,2.598 -1.226,0.959 -2.758,1.959 -4.678,2.183 z"
   id="path66"
   inkscape:connector-curvature="0"
   style="fill:#bfbfbf" />
	<path
   d="m 140.937,177.978 c -0.854,0.172 -1.767,0.578 -2.91,0.52 -0.364,-0.02 -1.559,-0.208 -1.559,-0.208 -0.211,0.186 -0.416,0.101 -0.208,0.728 0.452,1.364 4.231,0.367 5.3,0.104 -0.168,-0.569 -0.376,-0.764 -0.623,-1.144 z"
   id="path68"
   inkscape:connector-curvature="0"
   style="fill:#808080" />
	<path
   d="m 135.118,175.38 c -1.163,0.464 -2.855,0.604 -4.365,0.312 0.23,1.955 3.345,1.215 4.884,0.832 -0.165,-0.546 -0.35,-0.79 -0.519,-1.144 z"
   id="path70"
   inkscape:connector-curvature="0"
   style="fill:#808080" />
	<path
   d="m 125.453,172.054 c 0.056,0.371 -0.075,0.896 0.104,1.247 0.256,0.507 3.904,0.425 4.677,0 0.416,-0.234 0.149,-1.185 -0.312,-1.143 -1.592,0.14 -2.901,0.374 -4.469,-0.104 z"
   id="path72"
   inkscape:connector-curvature="0"
   style="fill:#808080" />
	<path
   d="m 69.542,168.625 c -0.289,2.325 6.593,1.536 2.079,0.728 -0.877,-0.16 -1.484,-0.329 -2.079,-0.728 z"
   id="path74"
   inkscape:connector-curvature="0"
   style="fill:#808080" />
	<path
   d="m 74.011,166.65 c 0.663,1.241 1.741,1.455 3.637,1.455 -0.062,-0.056 0,-0.526 0,-0.624 -0.529,-0.072 -1.039,-0.14 -1.455,-0.208 -0.935,-0.158 -1.338,-0.366 -2.182,-0.623 z"
   id="path76"
   inkscape:connector-curvature="0"
   style="fill:#808080" />
	<path
   d="m 62.788,166.131 c -0.838,1.91 1.767,2.023 3.43,2.39 0.065,-0.38 0.081,-0.848 0.104,-1.143 -0.741,-0.033 -1.169,-0.026 -1.767,-0.208 -0.653,-0.198 -1.258,-0.679 -1.767,-1.039 z"
   id="path78"
   inkscape:connector-curvature="0"
   style="fill:#808080" />
	<path
   d="m 78.896,164.988 c -0.253,1.425 1.712,1.468 3.222,1.351 -0.032,-0.14 -0.312,-0.718 -0.312,-0.728 0.084,0.006 -0.228,0.11 -0.312,0.104 -0.955,-0.101 -1.946,-0.347 -2.598,-0.727 z"
   id="path80"
   inkscape:connector-curvature="0"
   style="fill:#808080" />
	<path
   d="m 68.711,164.676 c -0.098,0.331 -0.107,0.432 -0.208,0.728 0.909,0.529 3.488,2.117 3.741,-0.104 -1.565,-0.001 -2.542,-0.137 -3.533,-0.624 z"
   id="path82"
   inkscape:connector-curvature="0"
   style="fill:#808080" />
	<path
   d="m 73.596,163.325 c 0.003,0.003 0,0.728 0,0.728 0.877,0.341 1.89,0.471 3.014,0.624 0,0 0.214,-0.714 0,-0.52 -0.436,-0.154 -2.176,-0.446 -3.014,-0.832 z"
   id="path84"
   inkscape:connector-curvature="0"
   style="fill:#808080" />
	<path
   d="m 129.402,181.719 c -0.679,0.27 -1.267,0.572 -2.182,0.728 -0.737,0.12 -1.371,-0.055 -1.975,-0.208 0.032,0.315 0,0.728 0,0.728 0.123,0.227 0.11,0.38 0.208,0.624 1.89,-0.001 5.936,-0.28 3.949,-1.872 z"
   id="path86"
   inkscape:connector-curvature="0"
   style="fill:#808080" />
	<path
   d="m 121.088,178.394 c 0.033,0.468 -0.123,0.874 0,1.143 0.432,0.952 3.423,0.253 4.261,0 0.094,-0.435 0.478,-1.133 -0.416,-1.143 -1.383,-0.017 -2.38,0.678 -3.845,0 z"
   id="path88"
   inkscape:connector-curvature="0"
   style="fill:#808080" />
	<path
   d="m 121.608,174.237 c -1.306,0.412 -2.569,0.393 -4.053,0.208 -0.708,-0.091 -0.24,0.715 -0.104,1.247 1.799,0.267 3.381,-0.123 4.677,-0.52 -0.144,-0.26 -0.439,-0.698 -0.52,-0.935 z"
   id="path90"
   inkscape:connector-curvature="0"
   style="fill:#808080" />
	<path
   d="m 139.794,176.107 c -1.361,-0.049 -5.427,1.296 -2.39,1.767 0.867,0.133 5.673,-0.471 3.949,-1.351 -0.393,-0.201 -1.13,-0.403 -1.559,-0.416 z"
   id="path92"
   inkscape:connector-curvature="0"
   style="fill:#d9d9d9" />
	<path
   d="m 134.598,173.717 c -0.36,0.02 -4.979,1.188 -3.014,1.559 0.575,0.107 1.494,0.081 2.079,0 1.036,-0.15 3.318,-1.698 0.935,-1.559 z"
   id="path94"
   inkscape:connector-curvature="0"
   style="fill:#d9d9d9" />
	<path
   d="m 128.466,170.392 c -1.218,0.02 -2.27,0.399 -2.806,1.143 0.893,0.221 2.046,0.445 3.222,0.312 2.202,-0.257 1.66,-1.491 -0.416,-1.455 z"
   id="path96"
   inkscape:connector-curvature="0"
   style="fill:#d9d9d9" />
	<path
   d="m 70.582,167.793 c -1.802,0.292 1.994,1.559 3.637,1.143 -0.14,-0.565 0.126,-0.49 -0.624,-0.728 -0.283,-0.091 -0.517,-0.146 -0.936,-0.208 -0.564,-0.086 -1.307,-0.333 -2.077,-0.207 z"
   id="path98"
   inkscape:connector-curvature="0"
   style="fill:#d9d9d9" />
	<path
   d="m 75.674,165.819 c -2.387,0.175 1.081,1.247 2.702,1.247 0.033,-0.104 0.208,-0.357 0.312,-0.52 -0.857,-0.289 -1.799,-0.818 -3.014,-0.727 z"
   id="path100"
   inkscape:connector-curvature="0"
   style="fill:#d9d9d9" />
	<path
   d="m 63.827,165.507 c -0.601,0.055 -0.757,0.341 -0.312,0.727 0.718,0.617 5.58,1.276 3.43,0 -0.318,-0.188 -0.497,-0.286 -0.936,-0.416 -0.503,-0.151 -1.546,-0.373 -2.182,-0.311 z"
   id="path102"
   inkscape:connector-curvature="0"
   style="fill:#d9d9d9" />
	<path
   d="m 79.935,164.156 c -2.075,0.289 1.646,1.507 3.325,0.624 0.481,-0.257 -0.857,-0.48 -1.143,-0.52 -0.535,-0.074 -1.481,-0.204 -2.182,-0.104 z"
   id="path104"
   inkscape:connector-curvature="0"
   style="fill:#d9d9d9" />
	<path
   d="m 69.75,163.844 c -0.646,0.114 -0.422,0.315 -0.52,0.728 0.896,0.364 2.042,0.416 3.429,0.416 0.371,-1.004 0.017,-0.867 -1.247,-1.04 -0.356,-0.049 -1.142,-0.198 -1.662,-0.104 z"
   id="path106"
   inkscape:connector-curvature="0"
   style="fill:#d9d9d9" />
	<path
   d="m 75.674,162.493 c -3.15,0.072 -0.698,1.079 1.039,1.04 2.157,-0.053 0.104,-1.069 -1.039,-1.04 z"
   id="path108"
   inkscape:connector-curvature="0"
   style="fill:#d9d9d9" />
	<path
   d="m 128.674,179.641 c -0.978,0.11 -2.374,0.503 -3.014,1.04 -1.13,0.935 0.565,1.393 1.663,1.247 0.76,-0.104 4.108,-1.393 2.702,-2.078 -0.305,-0.151 -0.798,-0.274 -1.351,-0.209 z"
   id="path110"
   inkscape:connector-curvature="0"
   style="fill:#d9d9d9" />
	<path
   d="m 125.349,176.523 c -0.52,0.013 -1.809,0.374 -2.286,0.52 -0.584,0.175 -0.964,0.283 -1.351,0.624 -0.867,0.753 2.826,0.429 3.534,0.208 0.312,-0.101 0.675,-0.442 0.935,-0.624 -0.261,-0.436 -0.143,-0.751 -0.832,-0.728 z"
   id="path112"
   inkscape:connector-curvature="0"
   style="fill:#d9d9d9" />
	<path
   d="m 120.153,172.678 c -0.383,0.033 -1.104,0.221 -1.455,0.312 -0.506,0.126 -0.844,0.227 -1.247,0.416 0.052,0.11 0.208,0.416 0.208,0.416 1.552,0.387 3.02,0.208 4.365,-0.312 -0.173,-0.864 -0.559,-0.952 -1.871,-0.832 z"
   id="path114"
   inkscape:connector-curvature="0"
   style="fill:#d9d9d9" />
	<path
   d="m 119.552,76.632 c 0.496,-5.379 0.302,-11.322 0.122,-15.784 -1.652,11.191 -6.43,19.927 -6.959,20.274 -0.021,0.011 4.018,6.004 4.797,7.246 0.628,-3.511 1.637,-7.368 2.04,-11.736 z"
   id="path116"
   inkscape:connector-curvature="0"
   style="fill:#ed1a3b" />
	<path
   d="m 59.424,59.855 c -0.52,-0.021 1.946,2.625 -2.153,1.84 -3.885,-0.744 -0.059,-1.928 -0.331,-1.923 -2.709,0.05 -2.453,1.283 -1.313,2.41 1.096,1.083 3.01,2.068 3.888,1.81 0.291,-0.088 2.716,-1.635 2.468,-3.288 -0.102,-0.677 -1.256,-0.796 -2.559,-0.849 z"
   id="path118"
   inkscape:connector-curvature="0"
   style="fill:#1a1a1a" />
	<path
   d="m 99.359,58.267 c 1.056,4.244 -5.741,7.001 -9.315,7.745 3.763,1.182 14.787,1.68 13.468,-4.265 -0.098,-0.438 -0.368,-0.484 -0.786,-0.674 -2.925,-1.326 -1.119,2.291 -1.571,4.041 -0.964,-0.684 -1.901,-0.604 -3.255,-0.449 -0.116,0.453 -0.123,1.007 -0.449,1.235 -0.579,0.396 -1.992,0.225 -2.918,0.225 0.6,-0.183 1.673,-0.477 2.469,-0.674 0.126,-0.558 0.386,-1.477 0.898,-1.684 0.688,-0.284 1.985,0.141 2.469,-0.336 0.186,-0.186 0,-0.449 0,-0.449 -0.039,-0.333 -0.112,-2.02 -0.112,-2.02 0.895,-0.705 2.571,-0.691 1.347,-1.571 -0.695,-0.503 -1.294,-0.847 -2.245,-1.124 z"
   id="path120"
   inkscape:connector-curvature="0"
   style="fill:#ffffff" />
	<path
   d="m 101.249,51.527 c -4.099,0.759 -6.117,2.646 -8.515,4.133 -2.397,1.488 -3.802,3.307 -5.841,4.685 -0.465,0.314 1.607,-2.366 1.916,-2.639 -4.671,-1.108 -8.505,-2.297 -13.692,-1.908 -0.345,0.024 -1.984,1.043 -3.406,1.075 -1.458,0.033 -2.696,-0.92 -2.767,-0.963 -2.248,1.406 -4.465,2.476 -7.52,3.255 2.15,1.028 1.817,2.992 0.112,4.265 -0.618,0.456 -1.803,0.736 -0.898,1.459 2.585,2.066 5.707,4.191 9.091,5.387 8.481,2.992 20.185,4.465 29.63,1.571 1.543,-0.473 3.767,-1.143 4.377,-2.469 0.417,-0.919 0.195,-2.454 0.241,-3.302 0.028,-0.621 0.134,-2.015 0.208,-2.646 -1.536,4.139 -7.025,5.079 -12.009,4.041 -1.08,-0.228 -2.315,-1.021 -3.255,-1.123 -1.494,-0.165 -4.358,0.451 -6.189,0.307 6.696,-1.075 12.923,-2.148 15.505,-6.256 0.656,-1.048 0.445,-2.218 -1.038,-2.755 0,-0.018 0.592,-0.163 0.589,-0.163 3.241,0 5.694,1.403 6.51,4.49 0,-3.602 0,-6.422 0,-9.877 -0.74,-0.228 -1.36,-0.879 -3.049,-0.567 z"
   id="path122"
   inkscape:connector-curvature="0"
   style="fill:#fedcbd" />
	<path
   d="m 66.906,53.249 c -0.191,-0.938 0.132,-0.711 0.038,-0.938 -0.149,-0.358 -0.171,-0.367 -0.358,-0.666 -0.177,0.475 -0.101,1.107 -0.005,1.642 0.17,0.95 0.498,1.684 1.072,2.488 0.302,-0.229 0.228,-0.145 0.613,-0.32 -0.338,-0.46 -1.051,-1.368 -1.36,-2.206 z"
   id="path124"
   inkscape:connector-curvature="0"
   style="fill:#472f92" />
	<path
   d="m 63.331,45.023 c -0.61,5.472 -0.108,9.067 1.459,12.234 0.926,-0.235 1.446,-0.755 2.153,-1.183 -0.312,-1.193 -0.894,-2.126 -0.992,-3.431 -0.063,-0.803 0.333,-1.263 -0.083,-1.777 -1.237,-1.534 -1.902,-4.735 -2.537,-5.843 z"
   id="path126"
   inkscape:connector-curvature="0"
   style="fill:#ffffff" />
	<path
   d="m 103.287,44.462 c -0.361,2.651 -0.947,4.437 -2.132,6.173 1.084,-0.161 2.09,-0.063 3.03,0.225 -0.175,-2.21 -0.315,-4.627 -0.898,-6.398 z"
   id="path128"
   inkscape:connector-curvature="0"
   style="fill:#ed1a3b" />
	<path
   d="m 102.406,44.335 c 0.413,-3.219 -0.964,-5.946 -0.964,-5.946 0,0 -3.857,-0.331 -7.936,1.102 -5.87,2.063 -8.331,3.563 -12.235,7.737 -1.81,1.929 -5.323,7.109 -4.827,7.688 0.496,0.579 4.276,-0.083 8.324,1.106 1.249,0.367 3.954,0.699 5.05,0.373 1.097,-0.327 1.814,-0.967 2.656,-1.539 C 91,51.453 90.157,42.567 94.173,41.869 c 2.347,-0.408 2.448,8.221 1.685,10.901 2.415,-1.491 4.729,-2.152 4.729,-2.152 0,0 1.407,-3.063 1.819,-6.283 z"
   id="path130"
   inkscape:connector-curvature="0"
   style="fill:#ffffff" />
	<path
   d="M 153.345,48.278 C 149.61,35.245 142.915,25.653 134.729,17.056 129.485,11.549 122.835,7.898 113.07,8.624 c -8.126,0.6 -25.048,4.298 -36.208,12.647 -7.34,5.491 -11.074,13.091 -12.234,13.971 0.863,1.101 1.207,2.956 1.396,4.394 -0.853,-1.263 -3.308,-5.076 -5.241,-4.915 -0.54,0.042 -1.904,0.233 -2.356,2.298 -0.868,3.968 2.223,10.466 3.668,12.605 0.21,-2.711 0.961,-9.919 -1.933,-6.034 0.053,-0.677 1.24,-6.117 3.555,-1.57 0.929,1.824 1.304,5.435 1.736,6.448 1.075,2.521 1.91,3.215 2.029,3.513 -0.127,-3.1 0.699,-4.422 2.352,-6.902 -0.827,2.356 -3.648,8.767 0.248,10.747 1.834,0.932 3.354,-0.005 3.885,-0.496 2.232,-2.067 2.905,-3.67 5.55,-7.417 3.96,-5.611 7.494,-8.258 14.979,-10.405 1.008,-0.292 4.394,-0.729 6.594,-0.526 0.61,0.056 -0.112,-2.875 0.24,-2.704 0.111,0.054 0.878,1.601 1.541,3.308 0.663,1.707 0.821,3.744 1.088,5.08 2.704,13.686 0.385,32.436 -1.962,40.09 -1.815,5.92 -2.83,12.143 -5.103,17.043 1.34,-0.908 4.837,-3.86 5.817,-5.103 3.062,-3.878 6.021,-8.675 9.287,-14.696 3.289,-6.064 4.593,-9.593 6.551,-17.243 0.418,-1.631 1.105,-3.406 1.01,-5.275 -0.242,-4.626 -1.098,-9.165 -1.459,-14.03 -0.144,-1.887 -0.589,-4.047 -0.112,-5.612 0.842,3.813 1.179,7.864 1.684,12.122 0.733,6.194 1.866,12.767 1.347,19.754 -0.347,4.623 -0.41,8.765 -1.122,13.244 -0.204,1.273 -2.062,5.779 -1.571,6.634 2.976,5.181 4.898,11.022 7.246,16.941 1.531,-2.143 2.918,-3.902 3.641,-5.505 3.539,-7.898 7.411,-16.625 8.867,-26.488 0.294,-2.006 0.708,-3.904 1.01,-6.173 0.056,-0.435 0,-1.123 0,-1.123 0,-0.028 0.021,-0.326 0,-0.337 0.516,-3.079 0.719,-7.235 0.449,-10.887 -0.442,-5.907 -1.049,-11.567 -2.02,-17.172 -0.337,-1.926 -1.396,-4.984 -0.898,-6.51 1.838,4.521 2.655,9.684 3.255,15.489 0.807,7.874 1.448,16.397 0.112,24.804 -0.53,3.325 -1.347,6.563 -2.133,9.541 -0.316,1.178 -1.175,2.69 -1.347,3.816 -0.119,0.768 0.33,1.245 0.449,1.796 0.512,2.389 0.853,5.184 1.123,7.52 0.726,6.331 0.644,15.231 0.679,15.189 0.43,-0.578 5.992,-9.546 9.471,-21.412 2.332,-7.952 3.167,-18.707 2.982,-23.521 -0.007,0.056 0,-0.561 0,-0.561 -0.235,-5.763 -1.477,-11.385 -2.806,-16.611 -1.102,-4.314 -3.073,-9.07 -5.163,-12.683 -1.125,-1.947 -2.739,-3.655 -3.479,-5.949 2.63,3.237 4.847,6.843 6.734,10.887 2.143,4.595 3.22,9.67 4.377,15.376 0.596,2.96 1.473,6.594 1.459,10.213 -0.021,3.967 -0.347,8.478 -0.561,11.673 -0.077,1.122 -0.442,2.22 -0.337,3.592 0.319,4.293 0.786,8.642 0.786,13.244 1.168,-3.009 1.792,-6.219 2.469,-9.877 0.716,-3.896 1.561,-8.309 1.908,-12.907 0.688,-9.237 -1.378,-17.129 -3.254,-23.681 z m -53.2,-16.162 c -8.94,0.993 -13.552,3.276 -18.855,7.745 -1.329,1.119 -4.413,5.327 -5.893,6.295 0.887,-2.406 4.946,-6.313 6.791,-7.754 4.118,-3.227 8.639,-6.75 15.458,-7.248 0.897,-0.067 1.69,0.422 2.5,0.514 -0.001,0.034 -0.022,0.437 -0.001,0.448 z"
   id="path132"
   inkscape:connector-curvature="0"
   style="fill:#ed1a3b" />
	<path
   d="m 93.989,42.808 c -1.816,0.596 -2.073,5.091 -1.996,6.992 0.121,2.978 0.538,3.637 1.24,4.794 0.62,-0.372 2.033,-1.227 2.149,-1.736 0.545,-2.427 0.493,-10.669 -1.393,-10.05 z m 0.173,10.686 c -0.58,0.016 -1.3,-1.736 -1.404,-3.73 -0.135,-2.592 0.246,-4.565 1.193,-4.768 0.768,-0.165 1.106,2.858 1.161,4.854 0.055,1.997 -0.37,3.628 -0.95,3.644 z"
   id="path134"
   inkscape:connector-curvature="0"
   style="fill:#472f92" />
	
		<ellipse
   transform="matrix(0.0276,0.9996,-0.9996,0.0276,139.5904,-46.7511)"
   cx="93.824997"
   cy="48.375"
   rx="1.618"
   ry="0.426"
   id="ellipse136"
   style="fill:#ffffff" />
	<ellipse
   cx="57.602001"
   cy="60.702999"
   rx="1.52"
   ry="0.70099998"
   id="ellipse138"
   style="fill:#ffffff" />
	<path
   d="m 39.829,68.863 c -2.037,0.259 -3.691,2.972 -5.499,3.737 -1.193,0.499 -2.468,1.095 -3.601,1.44 -0.525,0.158 -1.159,-0.015 -1.68,0.24 l -0.24,0.24 c -2.028,1.65 -3.544,1.906 -5.666,4.292 -1.545,1.739 -2.755,5.362 -3.697,7.59 -0.874,2.052 0.859,4.235 0.96,6.722 0.071,0.034 0.12,2.235 0.12,2.761 0.079,-0.848 0.12,1.894 -0.72,3.241 -1.924,3.064 2.885,8.51 5.327,9.538 8.942,3.766 20.203,6.244 25.837,-2.334 1.751,-2.674 2.092,-4.926 1.004,-8.644 1.485,0.795 1.609,2.847 1.44,4.562 1.414,-0.702 2.229,-1.348 3.372,-2.246 6.903,-5.421 2.348,-8.776 5.871,-15.76 1.491,-2.955 7.629,-5.656 6.961,-10.083 -0.112,-0.747 -0.776,-1.722 -1.32,-2.041 -1.305,-0.761 -3.725,-0.458 -5.161,-0.12 -5.559,1.291 -7.532,6.737 -8.642,12.363 -0.327,1.643 -0.308,2.971 -0.96,4.201 -1.662,3.106 -5.341,4.921 -7.562,7.562 -1.009,1.197 -1.129,2.179 -1.681,3.961 -0.945,3.027 -3.732,6.463 -6.602,7.562 -2.397,0.912 -5.555,0.019 -7.202,-0.96 -0.465,-0.277 -1.028,-1.069 -1.561,-1.2 -0.855,-0.214 -1.797,0.112 -2.521,-0.12 -1.253,-0.405 -2.813,-1.575 -3.601,-2.521 -0.308,-0.368 -0.758,-0.646 -0.12,-0.96 1.114,1.062 2.839,2.258 4.561,2.641 0.825,0.18 0.233,-0.176 0,-0.48 -0.761,-0.994 -1.332,-1.756 -1.56,-3.001 2.843,2.228 6.594,6.774 12.363,4.801 0.108,-0.041 0.469,-0.304 0.6,-0.36 5.06,-2.352 4.287,-8.444 7.202,-12.724 0.623,-0.923 2.401,-2.123 0.84,0.12 -0.259,0.368 -1.316,1.939 -0.36,1.08 0.976,-0.881 2.229,-1.792 3.121,-2.761 0.619,-0.679 0.957,-1.474 1.68,-2.041 l 0.12,-0.12 c 0.195,-0.233 0.45,-0.461 0.6,-0.72 0.173,-0.308 0.379,-0.72 0.48,-0.96 0.071,-0.18 0.071,-0.146 0.12,-0.24 0.102,-0.206 0.31,-0.653 0.36,-0.84 1.557,-5.787 -2.894,-11.356 -5.178,-14.053 -1.292,-1.524 -4.774,-3.755 -7.805,-3.365 z"
   id="path140"
   inkscape:connector-curvature="0"
   style="fill:#ffffff" />
	<path
   d="m 27.223,62.468 c -0.509,0.551 0.619,10.521 0.795,10.874 0.176,0.353 3.359,-0.088 6.012,-1.591 2.653,-1.503 3.802,-2.387 3.448,-3.183 -0.354,-0.796 -9.195,-7.25 -10.255,-6.1 z"
   id="path142"
   inkscape:connector-curvature="0"
   style="fill:#ffffff" />
	<path
   d="m 7.596,93.676 c -0.493,0.739 8.487,5.569 9.99,5.569 1.503,0 2.21,-2.475 2.033,-4.951 -0.177,-2.475 -0.884,-6.1 -1.945,-5.923 -1.06,0.177 -9.565,4.534 -10.078,5.305 z"
   id="path144"
   inkscape:connector-curvature="0"
   style="fill:#ffffff" />
	<path
   d="m 67.097,52.56 0.268,0.287 c 0,0 0,0.268 0.058,0.459 0.057,0.191 0.153,0.574 0.153,0.574 0,0 -0.383,-0.459 -0.44,-0.766 -0.058,-0.306 -0.039,-0.554 -0.039,-0.554 z"
   id="path146"
   inkscape:connector-curvature="0"
   style="fill:#ffffff" />
	<path
   d="m 146.562,136.623 c -4.237,-5.958 -9.657,-10.464 -17.699,-12.614 -1.961,-0.525 -3.674,-1.016 -6.382,-0.604 -0.743,0.111 -3.75,0.519 -4.378,0.758 -6.262,2.37 -7.563,5.686 -10.731,9.792 -1.311,1.697 -2.918,3.365 -3.772,5.487 -0.764,1.89 -0.761,4.587 -0.571,7.087 0.293,3.955 0.432,8.742 2.744,10.746 0.821,0.715 1.754,1.726 3.201,1.144 2.458,-0.993 4.88,-7.22 4.115,-10.631 -0.189,-0.836 -0.307,-1.522 -1.029,-1.715 -0.936,-0.254 -2.269,0.089 -2.858,0.114 2.065,-1.279 4.439,-3.669 7.302,1.635 -0.354,1.072 -1.783,-1.057 -2.729,-1.407 0.386,1.458 1.003,2.894 0.571,4.916 -0.296,1.361 -1.322,2.351 -1.714,3.544 -2.008,6.023 -1.118,8.667 4.115,10.975 1.429,0.628 3.14,1.54 5.03,1.6 4.062,0.125 7.452,-1.411 11.088,-1.829 0.961,-0.114 2,0 2.972,0 -0.425,0.325 -0.796,0.658 -1.486,0.8 2.461,0 5.147,1.043 7.659,0.343 1.029,-0.289 5.776,-3.397 4.687,-4.458 -0.232,-0.229 -0.732,-0.182 -1.029,-0.343 -1.933,-1.05 -3.09,-2.829 -2.743,-6.173 0.286,-2.801 2.883,-6.716 6.287,-6.173 0.586,0.093 1.357,0.675 1.943,0.915 0.468,-5.993 -1.928,-10.161 -4.593,-13.909 z m -15.184,18.708 c -0.204,1.994 -4.762,10.964 -6.059,11.203 -1.529,0.279 -6.412,-8.595 -6.63,-10.517 -0.308,-2.654 0.589,-4.244 1.829,-5.373 0.961,-0.879 2.386,-1.886 4.001,-2.058 4.016,-0.432 7.259,2.769 6.859,6.745 z"
   id="path148"
   inkscape:connector-curvature="0"
   style="fill:#ffffff" />
	<path
   d="m 124.839,149.533 c -5.092,0.521 -5.894,5.389 -5.781,5.95 0.113,0.561 5.108,10.272 6.118,10.16 1.01,-0.112 5.501,-9.486 5.557,-10.833 0.056,-1.347 -0.954,-5.782 -5.894,-5.277 z"
   id="path150"
   inkscape:connector-curvature="0"
   style="fill:#ffffff" />
	<path
   d="m 144.485,153.014 c -2.249,3.177 -0.056,6.904 0.618,7.69 0.674,0.786 12.461,2.245 13.135,1.066 0.674,-1.179 -3.592,-6.455 -5.389,-8.419 -1.796,-1.965 -4.828,-5.333 -8.364,-0.337 z"
   id="path152"
   inkscape:connector-curvature="0"
   style="fill:#ffffff" />
</g>
</svg>