<?xml version="1.0" encoding="UTF-8" standalone="no"?>
<svg
   xmlns:dc="http://purl.org/dc/elements/1.1/"
   xmlns:cc="http://creativecommons.org/ns#"
   xmlns:rdf="http://www.w3.org/1999/02/22-rdf-syntax-ns#"
   xmlns:svg="http://www.w3.org/2000/svg"
   xmlns="http://www.w3.org/2000/svg"
   viewBox="0 0 274.66666 534.66669"
   height="534.66669"
   width="274.66666"
   xml:space="preserve"
   id="svg2"
   version="1.1"><metadata
     id="metadata8"><rdf:RDF><cc:Work
         rdf:about=""><dc:format>image/svg+xml</dc:format><dc:type
           rdf:resource="http://purl.org/dc/dcmitype/StillImage" /></cc:Work></rdf:RDF></metadata><defs
     id="defs6" /><g
     transform="matrix(1.3333333,0,0,-1.3333333,0,534.66667)"
     id="g10"><g
       transform="scale(0.1)"
       id="g12"><path
         id="path14"
         style="fill:#f9a753;fill-opacity:1;fill-rule:nonzero;stroke:none"
         d="m 623.16,131.84 38.442,-44.258 68.089,-48.5234 74.411,-21.3281 h 86.519 l 80.938,21.3281 79.181,44.2227 50.24,61.3277 28.08,63.051 18.17,71.559 -8.09,101.25 -25.66,98.832 h -12.89 L 609.609,165.941 Z" /><path
         id="path16"
         style="fill:#814329;fill-opacity:1;fill-rule:nonzero;stroke:none"
         d="M 1002.23,824.141 H 492.148 V 480.98 l 11.012,-144.73 42.621,-120.121 68.129,-66.359 69.84,-31.532 108.09,-11.09 98.781,7.692 82.617,34.93 43.442,41.71 64.69,80.04 26.83,67.23 12.82,81.762 -19.18,149.488 -74.96,224.801 z" /><path
         id="path18"
         style="fill:#ed1c24;fill-opacity:1;fill-rule:nonzero;stroke:none"
         d="m 897.191,3623.24 175.699,60.39 174.57,18.32 120.98,-14.88 113.16,-48.55 103.2,-80.36 102.93,-139.33 87.7,-158.36 51.95,-164.42 16.14,-127.65 -11.02,-91.29 -32.42,-114.81 -55.74,-61.36 -551.37,-406.45 5.62,-69.14 32.58,-3.47 67.35,-46.8 87.77,-91.49 17.93,-50.82 4.37,-75.66 10,-57.58 -13.63,-8.4 -79.14,8.4 -22.19,1.33 -1092.501,30.27 14.492,98.79 65.551,234.18 10.199,28.13 -44.262,153.98 -56.168,261.99 -32.421,175.94 -13.641,154.02 v 24.14 l 690.16,530.43 z" /><path
         id="path20"
         style="fill:#1c63b7;fill-opacity:1;fill-rule:nonzero;stroke:none"
         d="m 1218.75,2228.67 35.9,-24.14 17.54,-29.45 25.11,-112.42 21.68,-163.87 24.03,4.96 61.95,-12.58 74.96,-40.27 47.31,-70.47 22.93,-68.55 7.14,-65.51 v -534.42 h -527.81 l -20.47,17.89 -23.86,44.34 8.551,95.35 -133.281,-66.01 -3.871,-38.32 62.66,-245.509 33.672,-10.589 30.121,-17.262 25.508,-47.27 7.73,-49.8 -13.13,-78.399 -46.87,-91.492 -85.23,-85.539 -129.418,-52.43 -114.961,-7.609 -125.981,37.418 -34.922,45.582 -11.328,50.16 4.969,66.059 11.48,30.699 -86.879,169.883 -84.332,200.508 -60.039,196.72 -33.199,148.2 -21.719,217.97 v 209.45 l 17.258,117.35 9.18,29.14 59.609,56.17 102.153,69.88 51.129,17.58 h 21.289 l 51.062,71.8 72.891,91.99 30.578,56.17 35.469,84.18 22.031,-10.04 100.859,-94.57 8.992,-16.6 -8.992,-112.38 v -89.96 l 80.512,-15.43 114.961,-37.66 107.848,-55.31 9.69,17.38 43.05,153.28 51.44,20 z" /><path
         id="path22"
         style="fill:#814329;fill-opacity:1;fill-rule:nonzero;stroke:none"
         d="m 1181.05,868.75 30.67,-20.781 56.17,-28.09 599.45,408.751 21.18,32.74 5.23,143.51 -34.77,93.67 -96.79,97.78 -118.75,58.12 h -131.56 l -129.11,-40.93 -110.62,-75.75 -95.35,-116.64 -71.57,-122.69 -45.97,-146.45 v -109.84 l 30.66,-88.56 42.89,-38.32 z" /><path
         id="path24"
         style="fill:#f9a753;fill-opacity:1;fill-rule:nonzero;stroke:none"
         d="m 1247.46,824.141 62.97,-19.532 h 54.53 l 75.82,8.512 62.7,21.258 53.82,34.371 77.62,66.129 16.17,7.621 103.05,58.79 85.16,87.69 25.54,61.29 6.76,31.53 2.66,67.26 -6.72,36.02 -29.96,64.49 -70.7,58.75 -91.1,31.52 -80.27,3.21 -130.08,-40.71 -80.86,-49.33 -87.73,-92.03 -74.81,-157.74 -31.64,-32.15 -33.24,-50.23 -14.42,-60.469 10.2,-51.95 40.86,-55.32 z" /><path
         id="path26"
         style="fill:#fff200;fill-opacity:1;fill-rule:nonzero;stroke:none"
         d="m 1140.23,1995.2 -29.06,-35.9 -15.08,-47.31 3.79,-36.6 15.39,-32.58 14.42,-3.86 43.24,26.21 65.59,25.97 50.86,9.77 h 19.25 v 40.9 l -29.84,36.68 -35.9,27.93 -43.91,7.85 z" /><path
         id="path28"
         style="fill:#fff200;fill-opacity:1;fill-rule:nonzero;stroke:none"
         d="m 472.77,2170.43 -21.719,-33.83 -5.781,-43.12 3.832,-52.7 28.789,-44.65 44.019,-23.67 64.891,-3.16 42.461,19.76 40.859,37.54 21.09,43.01 8.949,47.81 -18.558,50.51 -32.582,36.41 -70.86,21.01 -61.32,-13.2 z" /><path
         id="path30"
         style="fill:#fbcba5;fill-opacity:1;fill-rule:nonzero;stroke:none"
         d="m 1772.03,2690.74 -31.52,18.52 -40.9,7.46 -47.66,-14.92 c 0,0 -2.73,1.99 -6.44,4.53 l 12.97,57.62 -0.51,104.88 -2.15,96.09 -10.7,15.12 -24.69,-11.64 -81.29,50.19 v 21.33 l -20.9,56.88 -55.35,43.24 -75.78,41.21 -82.62,47.66 -71.52,23.82 -62.15,14.5 -88.55,6.01 h -28.09 l -117.578,-7.73 -76.641,-48.91 -52.731,-15.27 -51.101,3.9 -31.168,15.9 -36.09,-15 -28.133,-59.8 -53.078,-50.78 -20.898,-33.28 0.347,-89.46 5.512,-168.12 10.231,-163.32 13.597,-129.46 16.281,-53.28 50.122,-58.28 75.347,-58.75 23.442,-47.11 78.32,-84.02 80.937,-42.54 73.752,-7.73 108.01,17.14 100.97,48.01 97.82,14.57 106.52,42.93 52.81,36.45 23.87,30.66 10.15,-6.64 45.86,-9.96 54.5,15.86 79.37,46.87 55.31,65.59 44.46,91.95 v 86.06 z" /><path
         id="path32"
         style="fill:#814329;fill-opacity:1;fill-rule:nonzero;stroke:none"
         d="m 656.051,3151.37 22.699,-5.08 -0.512,-66.33 0.512,-39.65 29.301,-67.5 v -46.17 l -20.039,-18.67 h -15.313 l -5.121,-9.45 -11.527,-56.22 -17.852,-21.71 H 593.98 l -11.05,185.23 -1.84,74.14 38.25,26.76 z" /><path
         id="path34"
         style="fill:#814329;fill-opacity:1;fill-rule:nonzero;stroke:none"
         d="m 1654.49,2816.76 4.03,-35.78 -6.57,-79.18 -16.21,-58.75 -19.14,-51.1 -38.32,-43.43 -35.78,-12.74 -25.55,22.11 v 30.23 l 10.9,30.67 12.15,21.72 -17.93,19.14 0.86,28.51 11.05,25.55 39.22,25.12 37.03,30.66 26.41,40.04 10.66,25.12 z" /><path
         id="path36"
         style="fill:#ed1c24;fill-opacity:1;fill-rule:nonzero;stroke:none"
         d="m 871.02,2385.9 42.609,35.82 94.891,-5.16 123.12,-66.56 -13.16,-19.88 -30.08,-39.61 -56.8,-31.29 h -58.748 l -61.762,32.19 -20.93,32.61 z" /><path
         id="path38"
         style="fill:#ffffff;fill-opacity:1;fill-rule:nonzero;stroke:none"
         d="m 905.16,2576.64 -21.25,-37.15 -12.93,-30.04 v -75.9 l 6.051,-11.87 63.867,15.27 128.552,-40 61.76,-50.9 11.49,3.91 38.94,74.65 -16.8,73.67 z" /><path
         id="path40"
         style="fill:#ffffff;fill-opacity:1;fill-rule:nonzero;stroke:none"
         d="m 1078.24,3411.37 10.82,-7.03 101.49,3.51 86.29,-15.62 43.43,-14.11 111.14,-52.34 33.82,-27.46 h 12.74 l 26.21,36.41 17.93,40.86 3.16,62.57 -20.43,70.9 -45.39,61.37 -68.9,43.4 -84.96,22.97 -83.21,-3.01 -62.42,-24.45 -53.01,-39.61 -30,-51.33 -8.32,-60.43 z" /><path
         id="path42"
         style="fill:#ffffff;fill-opacity:1;fill-rule:nonzero;stroke:none"
         d="m 993.711,3140.04 38.519,-8.44 33.86,-29.33 19.81,-50.36 -5.78,-52.07 -8.32,-55.93 -8.95,-32.43 -96.088,-18.71 -47.782,-23.94 -32.808,-45.63 -10.391,-2.58 -19.801,32.54 -7.109,31.02 1.328,60.94 5.582,41.6 27.028,78.48 40.632,47.81 43.321,23.08 z" /><path
         id="path44"
         style="fill:#ffffff;fill-opacity:1;fill-rule:nonzero;stroke:none"
         d="m 1292.19,3014.65 -31.96,-41.84 -19.8,-50.66 -9.92,-39.45 0.35,-19.26 48.55,-36.41 30.39,-46.05 13.87,-45.47 -2.15,-31.13 11.49,-8.91 18.51,4.41 34.53,16.8 38.33,63.05 33.2,101.52 v 78.16 l -15.98,32.97 -33.01,36.92 -40.15,12.89 -40.94,-6.37 z" /><path
         id="path46"
         style="fill:#ffffff;fill-opacity:1;fill-rule:nonzero;stroke:none"
         d="m 71.9492,3319.18 19.1016,-45.94 27.2302,-40.94 -26.3708,-53.63 3.9101,-63.83 31.8787,-45.35 68.942,-54.8 134.179,-34.46 137.461,6.49 108.129,44.69 75.82,57.85 34.918,73.24 -8.949,39.18 -18.82,28.94 -19.93,22.97 88.563,63.87 51.91,76.64 24.918,47.7 27.539,61.32 v 49.89 l -8.117,35.27 -19.422,34.92 -27.57,19.92 6.949,25.83 3.402,68.32 -16.211,62.18 -34.93,57.89 -54.878,60.47 -76.211,38.32 -74.102,22.19 -103.867,3.36 -91.133,-19.61 -104.769,-48.52 -63.821,-53.59 -63.871,-77.54 -46.8397,-94.49 -23.8672,-104.73 -5.5,-97.11 21.7187,-94.49 z" /><path
         id="path48"
         style="fill:#ffffff;fill-opacity:1;fill-rule:nonzero;stroke:none"
         d="m 1404.22,2032.77 0.7,-81.91 13.67,-51.33 15.71,-24.14 49.45,-33.24 43.44,-61.72 17.85,-78.75 v -47.27 h 73.94 l 76.84,-19.14 60.04,-34.53 45,-31.01 h 42.66 l 91.95,40.43 57.11,62.96 35.74,96.26 11.91,94.49 -11.91,95.39 -23.83,98.12 -49.41,97.78 -63.83,77.46 -72.73,49.37 -103.56,17.7 -77.93,-15.59 -62.58,-30.58 -45.04,-44.77 -12.46,-60.04 -18.43,-4.14 -52.62,-19.26 -20.55,-42.03 z" /><path
         id="path50"
         style="fill:#59c9eb;fill-opacity:1;fill-rule:nonzero;stroke:none"
         d="m 1022.66,3064.14 16.6,-3.4 17.15,-10.9 13.51,-14.64 13.13,-17.9 -3.75,-28.51 -17.39,-80.78 -35.7,-3.67 -43.831,-8.56 -41.789,-18.71 -17.11,-11.33 -5.71,11.33 -1.321,36.76 4.762,41.79 13.75,39.97 13.59,23.39 18.25,18.4 19.219,14.53 17.69,8.29 z" /><path
         id="path52"
         style="fill:#59c9eb;fill-opacity:1;fill-rule:nonzero;stroke:none"
         d="m 1257.19,2964.92 20.23,15.39 21.1,6.41 h 19.21 l 22,-9.18 14.92,-18.13 10.31,-20.03 5.98,-20.86 1.29,-31.45 -3.79,-27.97 -9.42,-34.69 -14.96,-36.01 -23.36,-26.99 -11.44,0.89 -4.73,23.4 -22.62,31.92 -33.75,32.81 -23.36,15.35 14.5,51.88 z" /><path
         id="path54"
         style="fill:#ffffff;fill-opacity:1;fill-rule:nonzero;stroke:none"
         d="m 1063.48,2949.53 c 0,-20.66 -16.57,-37.46 -37.03,-37.46 -20.43,0 -36.962,16.8 -36.962,37.46 0,20.74 16.532,37.5 36.962,37.5 20.46,0 37.03,-16.76 37.03,-37.5" /><path
         id="path56"
         style="fill:#ffffff;fill-opacity:1;fill-rule:nonzero;stroke:none"
         d="m 1309.84,2883.12 c 0,-20.7 -16.52,-37.46 -36.99,-37.46 -20.43,0 -36.99,16.76 -36.99,37.46 0,20.75 16.56,37.5 36.99,37.5 20.47,0 36.99,-16.75 36.99,-37.5" /><path
         id="path58"
         style="fill:#ed1c24;fill-opacity:1;fill-rule:nonzero;stroke:none"
         d="m 1165.08,3407.54 c -9.46,14.3 -25.43,46.05 -36.45,63.48 45.55,47.96 93.4,90.27 136.06,130.93 11.95,-21.01 34.26,-66.68 47.26,-89.06 23.4,18.13 75.12,62.7 75.12,62.7 13.48,-34.85 51.33,-143.91 65.86,-193.32 -14.57,-7.78 -48.71,-23.72 -70,-38.32 -0.94,33.78 -8.71,108.08 -22.03,156.21 -18.05,-10.36 -49.1,-38.56 -63.32,-48.91 -3.56,6.21 -42.46,74.96 -42.46,74.96 -16.6,-18.28 -67.78,-85.78 -90.04,-118.67" /><path
         id="path60"
         style="fill:#181210;fill-opacity:1;fill-rule:nonzero;stroke:none"
         d="m 1160.94,2424.34 c -19.49,-4.26 -41.68,-4.03 -64.81,5.86 -24.22,10.23 -53.67,29.92 -67.69,66.32 -41.881,-17.61 -85.51,-18.43 -111.991,-11.01 -11.371,3.2 -21.14,7.5 -29.539,12.46 -0.859,-10.24 -1.64,-20.63 -2.07,-31.02 95.32,-13.83 183.87,-43.12 254.65,-86.6 8.95,15.27 15.9,30.24 21.45,43.99 M 1060,2293.71 c 11.48,8.09 21.76,16.64 31.17,25.51 -7.15,16.6 -18.2,31.95 -30.19,42.81 -27.27,24.73 -78.558,42.15 -122.621,35.35 -22.5,-3.47 -36.058,-11.21 -48.828,-21.09 2.93,-14.69 7.11,-28.17 13.047,-39.77 30,-58.36 110.782,-75.39 157.422,-42.81 m -185.551,551.17 c 10.942,14.03 23.992,25.43 36.641,34.53 -2.61,24.93 -0.231,53.68 7.031,83.21 16.801,68.63 70.078,115.47 118.719,104.33 12.38,-2.81 22.89,-9.49 30.82,-18.71 -1.49,15.74 -5.16,29.77 -11.8,40.59 -30.59,49.88 -90.7,38.32 -117.501,15.31 -64.058,-54.92 -98.48,-193.24 -63.91,-259.26 m 143.871,81.88 c 9.41,-3.28 20.55,4.18 24.92,16.72 4.38,12.46 0.28,25.27 -9.1,28.55 -9.41,3.28 -20.62,-4.18 -24.96,-16.72 -4.34,-12.5 -0.31,-25.23 9.14,-28.55 m -95.039,-39.18 c 8.481,5.35 16.52,9.65 23.199,12.97 4.809,2.42 9.809,4.65 14.891,6.68 0.578,13.36 2.07,27.89 5.617,41.6 10.082,38.87 34.772,57.85 52.192,63.79 15.47,5.31 36.25,0.31 46.87,-15.51 0.98,8.09 1.76,16.05 2.11,23.75 -5.23,17.07 -17.61,29.88 -34.14,33.63 -41.911,9.61 -88.399,-32.97 -103.551,-94.92 -6.207,-25.47 -8.59,-50.16 -7.188,-71.99 m 83.599,-2.11 c -75.118,-14.06 -124.771,-73.79 -125.982,-124.92 -2.418,-94.5 65.313,-146.02 125.982,-176.92 48.98,-24.88 109.14,-33.59 152.42,-30.11 151.36,12.26 176.95,168.71 116.25,245.35 -42.46,53.67 -148.13,109.25 -268.67,86.6 m 284.14,105.39 c 12.69,3.91 26.28,2.77 40.74,-3.48 43.12,-18.67 59.37,-88.71 36.25,-156.09 -10.2,-29.57 -20.74,-49.49 -35.78,-66.37 1.21,-3.16 2.38,-6.37 3.36,-9.49 4.57,-14.61 7.61,-28.55 9.1,-41.91 62.89,28.75 104.18,157.3 98.2,224.6 -5.98,66.88 -60.23,104.38 -113.91,81.8 -14.57,-6.17 -27.22,-16.4 -37.96,-29.06 m 13.59,-175.98 c 8.91,-12.11 16.37,-24.49 22.11,-36.72 11.76,14.65 20.55,32.23 29.18,57.31 22.77,66.41 3.32,126.13 -29.22,140.19 -20.23,8.75 -37.81,5.32 -53.83,-10.82 -2.85,-5 -5.55,-10.15 -8.01,-15.39 19.77,6.1 40.39,-2.5 53.36,-24.92 17,-29.45 9.61,-75.82 -13.59,-109.65 m -29.02,92.82 c -9.73,1.87 -19.69,-7.15 -22.15,-20.16 -2.5,-13.05 3.4,-25.08 13.24,-26.95 9.77,-1.88 19.73,7.18 22.15,20.19 2.5,13.01 -3.44,25.08 -13.24,26.92 m 212.3,-339.18 c -27.5,-51.41 -69.18,-43.87 -101.41,-35.98 -9.41,-40.82 -45.97,-74.61 -76.64,-82.77 -28.79,-7.7 -56.99,-5.12 -81.95,11.05 -5.94,-5.78 -16.72,-14.77 -31.01,-22.58 -24.85,-63.36 -74.11,-148.16 -138.4,-182.81 -58.17,-31.33 -133.871,-0.59 -165.511,42.11 -36.989,49.96 -43.668,143.48 -38.047,229.61 -11.762,16.37 -16.992,33.28 -19.41,44.41 -16.84,-2.11 -47.153,3.21 -75.981,27.62 -38.011,32.3 -30.23,78.24 -20.043,116.25 -31.289,11.21 -66.09,34.73 -60.738,92.69 5.23,56.41 71.09,103.4 99.18,103.4 1.64,0 2.148,-0.97 2.379,-2.65 11.992,-68.6 43.32,-108.64 67.461,-126.17 1.921,14.14 5.98,26.83 11.609,38.2 -11.649,12.62 -18.641,27.5 -22.899,45.35 -13.781,58.24 8.598,157.42 43.79,212.3 35.468,55.08 85.75,75.79 119.261,72.47 33.359,-3.32 65.739,-22.9 84.419,-59.61 23.24,-45.75 14.33,-102.93 -2.47,-165.32 25.16,-1.32 51.33,-5.7 77.86,-13.51 21.44,-6.37 40.82,-14.57 58.51,-24.03 18.48,67.23 38.28,110.9 75.59,140.24 34.57,27.19 121.36,47.73 165,-42.89 33.28,-68.99 -8.67,-233.87 -77.5,-284.06 -10.2,-7.5 -23.6,-13.32 -35.55,-15.28 -0.82,-16.25 -4.3,-31.52 -10.35,-46.09 29.92,2.03 76.91,18.67 123.55,68.05 1.18,1.28 2.07,1.75 3.44,0.86 23.44,-15.47 52.54,-90.86 25.86,-140.86 m 518.32,-708.05 c -0.9,215.43 -115.74,435.15 -320.08,407.03 -68.63,-9.38 -107.81,-37.58 -130.39,-71.52 -6.05,-9.07 -9.53,-22.27 -10.47,-35.28 0.78,-0.15 1.49,-0.35 2.23,-0.5 21.84,-5.51 42.85,-19.93 61.37,-39.97 44.02,41.49 89.8,60.79 148.2,53.29 17.03,-2.19 35.08,-9.07 45.35,-18.32 10.04,-9.15 3.17,-9.97 -19.57,-8.64 -49.49,2.82 -109.92,-17.81 -149.1,-59.22 14.92,-23.79 26.6,-51.29 33.44,-79.64 41.09,31.21 85.23,43.51 128.9,40.78 25.59,-1.64 47.86,-11.92 58.56,-19.42 7.77,-5.43 6.4,-11.68 -14.38,-10.51 -57.81,3.29 -126.87,-15.35 -166.4,-59.17 0.47,-14.38 -0.51,-28.64 -3.32,-42.27 -3.79,-18.99 -10.35,-34.65 -19.53,-46.88 8.71,-35.35 27.61,-43.16 43,-47.65 4.61,12.38 11.49,24.72 20.94,36.83 25.59,32.82 78.48,52.58 117.07,52.58 8.32,0 30.74,-2.11 48.13,-14.37 13.36,-9.38 6.13,-14.1 -11.02,-12.85 -18.98,1.36 -38.48,-3.32 -48.16,-6.37 -31.37,-9.92 -61.57,-25.39 -78.79,-61.37 -18.32,-38.32 -3.48,-84.06 36.21,-93.24 34.92,-8.09 90.78,3.75 120.04,26.01 26.44,20 16.21,-8.55 1.72,-23.86 -30.94,-32.78 -73.79,-47.5 -126.06,-37.85 -55.08,10.11 -88.32,51.13 -87.15,99.02 -34.1,3.44 -62.38,35.35 -67.18,58.51 -8.87,-3.78 -18.87,-6.24 -29.97,-7.26 -37.38,-3.56 -74.68,19.49 -92.38,37.03 -17.19,16.91 -36.33,50.74 -36.33,91.02 0.04,10.7 3.17,21.25 11.18,-0.79 14.49,-39.49 39.96,-72.07 87.73,-83.43 28.01,-6.68 61.29,5.43 68.52,36.21 11.09,46.8 -9.61,152.73 -71.96,191.99 -34.49,21.72 -97.07,9.81 -117.54,-39.57 -26.17,-63.36 -18.71,-124.77 1.29,-172.5 2.19,-1.29 4.38,-2.5 6.41,-3.79 91.76,-58.2 120.16,-140.15 126.33,-210.04 82.18,-2.38 164.25,-30.86 227.38,-90.47 80.55,8.13 206.52,62.82 205.78,266.45 m -282.77,-273.36 c -112.35,63.87 -250.9,42.58 -325.24,5.12 -200.31,-100.94 -332.22,-356.84 -314.68,-535.51 6.75,-68.99 30.03,-98.79 50.5,-113.99 -6.01,49.34 9.77,106.96 75.2,171.76 77.42,218.91 220.12,299.14 319.18,328.87 153.32,45.86 300.04,-26.17 332.15,-118.05 21.99,132.7 -61.06,218.64 -137.11,261.8 m -28.28,-264.81 c -97.04,19.61 -183.71,-2.53 -268.56,-82.1 -46.01,-43.21 -83.51,-85.2 -107.26,-128.32 -10.24,-18.52 -13.01,0 -11.61,10.39 1.14,8.43 5.16,19.92 13.17,36.52 32.69,67.77 99.61,147.81 197.81,183.94 139.34,51.33 284.77,-2.34 330.43,-81.48 -1.17,23.91 -5.39,41.56 -15.39,58.91 -39.57,68.55 -167.73,123.39 -301.48,79.96 -157,-51.06 -246.96,-177 -294.18,-306.06 -55.08,-63.44 -93.91,-105.228 -68.36,-173.361 8.16,-21.75 23.9,-38.277 43.9,-49.058 -38.28,76.879 18.67,155.239 51.68,184.099 0,0 10.67,12.42 22.81,16.84 13.44,4.88 29.97,3.16 42.35,1.56 125.86,-16.25 207.3,-62.97 239.41,-88.011 30.2,-23.59 45,-37.731 12.19,-27.848 -39.77,12.028 -149.84,66.879 -284.37,89.839 -37.5,-32.38 -82.82,-101.71 -55.9,-157.96 31.21,-65.121 139.1,-69.18 205.78,-48.129 48.55,15.309 75.78,26.719 177.11,106.489 47.89,27.73 115,60.07 163.01,124.25 29.41,39.42 39.18,60.71 47.34,88.64 25.31,87.22 -58.79,144.53 -139.88,160.89 m -653.17,-169.21 c 44.34,234.64 214.89,438.94 372.39,503 35.11,14.3 72.96,23.44 111.67,27 -11.67,89.21 -42.69,149.92 -115.07,179.1 -91.64,36.87 -265.71,13.2 -405.24,-171.17 -10.51,13.04 -25.619,24.72 -35.861,38.32 19.609,24.18 39.771,45.74 60.161,64.96 -12.89,22.5 -20.51,47.5 -21.49,79.8 -1.36,49.06 14.07,80 33.09,131.41 -67.499,37.93 -160.16,79.96 -266.91,96.44 -2.781,-162.69 -74.73,-259.72 -218.359,-254.06 -70.121,2.77 -135.781,48.28 -159.609,106.06 -22.231,53.86 -22.422,96.48 0.539,148.2 -52.531,-26.99 -114.25,-62.74 -156.52,-128.63 -11.601,-64.03 -19.761,-141.22 -21.832,-237.54 -0.551,-26.37 5,-74.46 6.563,-103.48 12.457,-231.84 94.258,-547.97 276.008,-933.551 -40.93,-72.777 -1.442,-134.808 25.511,-153.25 149.489,-102.148 431.719,19.18 456.02,222.231 8.668,72.5 -25.981,122.621 -71.371,126.129 -33.239,85.589 -76.801,249.461 -89.61,331.171 43.321,13.21 108.711,38.44 153.051,66.1 -14.5,65.97 -14.531,137.46 -14.531,179.14 h 53.08 c -0.39,-67.23 3.36,-122.31 16.25,-187.07 -29.45,-65.55 -25.27,-107.31 12.07,-130.31 M 522.461,485.43 C 516.84,346.91 543.75,188.949 675.199,145.898 770.27,114.77 920.078,124.18 1000.51,204.57 c 46.01,46.02 93.83,123.95 92.15,215.86 -2.31,120.781 -39.89,246.41 -64.57,313.98 C 985.621,554.609 773.629,393.238 522.461,485.43 M 1119.73,321.719 C 1105.62,273.59 1084.41,236.211 1055.86,200.82 948.828,68.1992 778.59,72.7305 670.781,110.82 708.359,73.832 751.84,44.8008 816.988,43.7109 910.66,42.1914 987.699,61.4492 1045.12,118.52 c 51.72,51.359 75.74,120.152 74.61,203.199 M 342.461,2277.97 c -22.891,-61.06 -54.961,-120.86 -80.742,-212.89 56.64,60.82 124.73,89.96 175.191,105.86 11.328,16.76 24.301,34.76 39.07,54.41 70.5,94.03 116.598,172.35 135.11,221.06 -28.86,152.22 -49.641,411.25 -47.891,551.71 -101.91,-48.35 -253.75,-59.92 -373.398,-0.58 4.301,-172.38 65.711,-480.31 152.66,-719.57 M 216.762,3040.2 c 133.789,-60.28 280.66,-33.4 366.25,22.07 72.109,46.75 93.437,126.95 45.109,162.61 -23.711,-12.65 -44.68,-20.74 -59.922,-24.88 -46.719,-12.77 -71.558,-9.53 -26.25,16.6 119.223,68.56 208.992,136.02 249.891,243.95 32.691,86.01 5.582,131.64 -13.559,146.99 -48.203,38.51 -141.562,24.8 -206.133,-70.35 -50.16,-73.95 1.09,-113.87 40.622,-119.22 47.269,-6.37 73.91,11.25 91.8,20.23 16.45,8.25 14.692,-5.35 3.828,-17.93 -33.238,-38.32 -64.136,-44.68 -95.628,-43.2 -29.879,1.45 -52.258,9.84 -68.122,22.77 -27.378,-22.34 -67.886,-27.65 -97.847,-21.4 -18.789,-38.79 -55.711,-67.39 -113.711,-67.39 -68.988,0 -116.25,60.12 -127.07,102.27 -8.29,32.15 -10.239,77.93 5.929,42.11 18.52,-40.9 56.449,-88.36 96.801,-101.41 58.129,-18.71 145.551,30.43 104.18,134.57 -25.309,63.64 -78.789,99.93 -120.231,123.25 -23.32,13.2 -22.929,14.37 -45.398,25.82 -14.492,7.46 -1.211,13.98 30.039,7.81 76.25,-14.88 136.57,-60.51 167.07,-121.56 14.93,-29.85 20.629,-66.49 15.711,-100.9 17.418,-4.38 40.391,-5.82 59.289,11.91 -13.121,34.42 -5.969,78.4 14.418,115.04 0.902,1.6 1.793,3.13 2.774,4.65 -13.942,97.3 -85.43,160.62 -170.122,193.91 -50.269,19.8 -11.832,21.75 7.661,19.14 124.839,-16.84 181.211,-94.81 202.07,-163.48 20.551,19.77 44.769,36.25 70.469,47.66 -17.071,87.57 -98.051,175.89 -174.918,201.75 -29.692,10 -22.071,17.86 7.617,16.61 37.851,-1.53 116.949,-19.77 174.211,-106.25 20.82,-31.37 30,-57.07 38.25,-97.9 21.398,3.99 42.961,4.03 63.711,-0.85 4.219,11.87 6.437,26.87 6.597,43.47 0.743,77.03 -50.628,152.27 -125.238,197.89 -37.609,22.93 -110.23,58.64 -204.57,46.99 C 297.109,3936.95 79.3789,3818.4 58.2813,3544.88 42.9688,3346.21 138.711,3234.45 218.199,3177.38 c 7.071,-5.08 12.153,-8.36 18.871,-12.5 23.008,-14.33 -10.269,-22.54 -67.66,6.96 -10.699,5.5 -22.531,13.43 -34.84,23.86 -34.019,-59.22 15.782,-125.54 82.192,-155.5 m 632.379,522.57 c 4.41,-33.32 -1.68,-75.23 -24.61,-126.95 -39.801,-89.65 -102.191,-150.16 -158.121,-187.93 7.57,-5.39 18.238,-17.42 25.738,-31.29 89.571,116.41 200.704,185.39 353.472,210.7 5.43,0.94 10.83,1.65 16.14,2.39 -8.28,37.93 -6.8,96.21 33.67,143.24 79.22,91.99 198.55,83.09 273.01,59.41 141.76,-45.15 177.38,-153.9 169.72,-233.12 -4.53,-46.21 -22.81,-78.75 -43.39,-98.71 19.64,-16.56 37.73,-34.03 54.1,-51.99 117.97,-129.18 151.4,-347.62 115.66,-525.12 19.3,9.1 50.31,17.11 78.13,10.12 45.19,35.97 84.88,145 73.12,285.19 -15.74,187.89 -170.66,464.81 -310.98,573.83 -194.02,150.74 -485.78,66.8 -655.659,-29.77 m 922.029,-943.98 c -3.94,47.5 -25.58,62.15 -46.01,68.94 -17.5,5.86 -43.48,8.21 -70.67,-8.94 -4.53,-21.09 -9.61,-41.09 -15.82,-59.45 11.84,4.92 25.35,7.65 37.78,7.54 24.06,-0.24 36.83,-14.07 38.16,-16.65 2.89,-5.62 -5.94,-6.75 -13.95,-5.82 -22.22,2.82 -50.19,-4.06 -78.12,-23.51 -9.92,-18.56 -22.19,-34.02 -37.85,-45.16 -1.96,-1.36 -3.87,-2.54 -5.86,-3.75 -1.1,-59.02 -14.03,-113.32 -39.38,-159.84 17.66,-4.57 40.39,-1.49 55.43,2.89 100.47,28.71 185.2,135.16 176.29,243.75 m -1151.99,413.4 c -2.578,-50 -3.36,-116.99 -2.032,-189.26 32.262,-7.54 49.372,37.93 35.043,83.75 34.918,-15.16 48.399,11.84 38.321,40.82 -11.024,31.76 -23.211,66.56 -27.973,105.59 -12.23,-14.5 -26.801,-28.17 -43.359,-40.9 m 1025.55,-242.23 c -39.22,-68.12 -90.75,-71.52 -103.48,-102.23 -9.65,-23.16 6.41,-30.62 19.14,-35.74 -6.25,-16.4 -31.95,-45.27 -30.08,-70.86 1.64,-22.07 25.63,-35.74 49.26,-9.57 30.63,33.79 71.95,153.67 65.16,218.4 m -642.54,590.12 c -130.428,-31.13 -203.21,-92.89 -253.749,-153.2 36.719,-13.17 73.469,-2.5 111.758,13.43 15.27,43.32 43.512,88.75 91.403,105.28 35.16,12.11 79.568,12.34 127.228,-49.85 0.7,-0.82 1.29,-1.79 1.99,-2.65 117.38,-0.2 234.26,-33.75 322.97,-96.41 23.67,7.81 46.56,11.09 66.29,9.3 38.24,-3.48 72.89,-19.65 92.89,-80.12 10.04,-30.35 6.48,-66.37 -1.6,-97.15 24.57,-26.13 48.83,-36.05 71.36,-36.41 -14.8,79.22 -45.74,162.35 -109.25,231.22 -136.68,148.2 -356.57,195.82 -521.29,156.56 m 85.23,52.54 c 153.6,13.86 286.8,-38.75 385.74,-114.73 14.73,13.87 31.92,36.45 36.61,75.43 6.6,54.92 -9.42,171.95 -152.5,216.21 -64.97,20.12 -170.67,30 -241.37,-59.57 -31.72,-40.16 -35.43,-81.21 -28.48,-117.34 m 456.84,-909.69 c -18.4,2.03 -33.17,16.29 -38.79,43.05 -3.32,15.82 7.03,55.58 22.38,75.15 -11.56,12.66 -39.02,50.51 12.11,92.62 43.01,35.47 93.13,54.65 104.73,152.66 -1.1,21.44 -2.89,44.06 -5.9,67.34 -24.34,-0.63 -58.44,4.37 -90.63,37.07 -11.28,-25.47 -23.08,-38.94 -23.98,-26.52 -7.62,97.97 -58.16,163.71 -133.67,152.22 -66.88,-10.19 -110.43,-42.34 -130.86,-56.13 -9.22,-6.21 -6.37,1.88 -6.37,1.88 22.11,50.43 62.15,89.29 105.08,113.86 -28.87,17.74 -60.12,33.09 -107.07,48.09 -46.8,14.96 -97.11,25.23 -147.58,28.32 33.28,-75.04 37.74,-171.72 24.92,-153.48 0,-0.04 -32.5,88.13 -87.46,122.35 -77.971,48.51 -162.459,-14.96 -188.4,-69.96 -7.18,-15.2 -10.54,6.75 -4.879,40.93 -55.391,-19.65 -95.621,-12.15 -122.731,4.14 -45.469,-69.76 -34.57,-134.64 -5.238,-222.65 15.348,-46.14 -8.281,-81.1 -36.442,-77.93 0.782,-23.71 -7.621,-75.35 -44.691,-83.64 -7.848,-1.79 -14.809,-1.56 -20.859,0 2.968,-108.2 10.781,-224.06 25.039,-309.96 30.082,-73.36 97.23,-125.43 133.871,-149.53 24.41,-58.9 55.039,-97.22 106.601,-128.71 43.547,-26.68 110.43,-42.81 167.339,-32.81 64.14,11.25 95.47,23.09 147.81,52.5 218.17,21.48 332.46,121.21 345.67,279.14 m -769.221,-379.3 c 88.871,-7.15 204.41,-52.77 279.141,-101.95 2.77,8.67 5.62,17.93 8.44,27.89 7.18,25.51 14.45,48.91 21.87,84.53 -14.37,-3.67 -29.41,-6.91 -45.23,-9.53 -70.35,-11.48 -193.401,14.49 -256.838,124.65 -4.063,-31.41 -6.762,-66.56 -7.383,-125.59 m -344.918,-164.8 c 32.457,-87.78 146.988,-109.85 222.969,-60.43 49.25,32.03 77.461,94.49 83.859,178.59 4.813,63.05 5.512,145.24 17.231,218.36 -27.461,18.2 -78.981,53.09 -107.418,95 -24.922,-53.87 -57.891,-119.14 -106.84,-179.37 55.508,15.9 124.609,-4.38 153.199,-54.53 48.481,-85.12 -10.23,-170.36 -57.531,-201.41 -50.86,-33.48 -137.27,-27.5 -174.61,21.05 -19.46,25.32 -27.742,55.55 -27.109,85.82 -14.301,-43.47 -11.922,-81.01 -3.75,-103.08 m 60.5,28.12 c 27.539,-25.11 86.219,-36.99 142.469,7.66 53,42.19 64.922,119.88 23.629,162.85 -31.949,33.2 -89.688,44.1 -140.739,12.62 -52.699,-32.58 -90.242,-123.95 -25.359,-183.13 m 607.929,-157.07 c -29.1,48.13 -11.13,115.12 30.08,148.13 55.78,44.65 122.74,28.67 155.59,-3.01 -8.79,52.11 -27.7,152.42 -49.77,197.46 -7.73,5.04 -15.23,9.42 -22.46,12.77 -19.69,-11.09 -45.19,-23.67 -75.86,-35.03 -37.81,-141.22 -85.31,-218.72 -84.14,-297.08 0.28,-17.34 4.77,-35 11.1,-49.8 11.83,9.53 23.67,18.44 35.46,26.56 m 192.11,74.42 c -4.02,17.61 -11.28,31.75 -24.1,46.25 -33.01,37.34 -92.18,35.39 -121.33,7.03 -35.93,-35.12 -32.26,-82.7 -23.47,-112.7 6.79,4.1 13.59,7.93 20.35,11.68 -5.47,32.93 0.98,56.8 19.02,75.16 8.83,8.9 11.72,9.02 11.8,5 0.12,-5.08 -19.96,-33.79 -14.14,-71.56 45.82,22.42 90.59,34.88 131.87,39.14 m -0.07,222.69 c 15.66,-58.55 38.16,-157.58 43,-221.09 22.86,-0.7 44.11,-4.06 63.32,-9.57 -10.07,34.45 -18.82,78.05 -11.29,123.63 -20.42,28.56 -56.71,71.13 -95.03,107.03 m 759.02,-318.83 c -12.85,-173.39 -111.8,-261.99 -210.78,-274.68 65.31,-78.44 87.73,-167.27 57.07,-291.57 7.73,-45.39 2.34,-112.38 -47.15,-186.05 -21.99,-32.77 -97.15,-109.45 -196.84,-148.669 -83.63,-88.75 -159.72,-118.601 -223.08,-131.992 -22.66,-4.808 -44.42,-6.801 -64.88,-6.367 l 0.03,-0.043 c -65.31,0 -171.17,25.473 -207.69,86.602 -87.93,43.91 -125.16,140.269 -122.19,218.239 -44.92,13.95 -83.159,54.3 -65.229,131.99 -24.461,-14.33 -55.98,-29.1 -84.141,-38.71 6.36,-58.36 30.149,-141.75 58.239,-247.379 55.472,-19.41 81.291,-60.511 89.611,-106.25 43.9,-84.222 95.04,-241.011 104.26,-352.34 9.61,-40.511 17.14,-85.511 24.06,-150.711 C 1173.16,213.551 1109.53,67.1094 967.891,22.8516 850.039,-14.0195 693.121,-18.4805 582.809,156.332 518.012,202.5 463.48,285.59 470.512,515.512 424.219,559.691 420.391,634.648 446.172,695.352 402.73,765.59 288.199,1022.11 239.648,1209.92 170.121,1478.83 80,1828.16 274.801,2277.11 c -21.36,60.62 -112.379,356.44 -140.231,754.88 -4.648,3.63 -9.261,7.39 -13.711,11.33 -56.5973,49.38 -62.3785,128.09 -26.0192,194.1 -51.9101,66.21 -97.80855,177.7 -82.5703,340.35 21.711,231.88 205.6995,419.22 431.7105,425.67 162.071,4.53 257.5,-58.95 309.809,-133.64 55.16,-78.82 59.922,-165.42 41.051,-220.82 15.199,-9.49 28.871,-22.57 38.871,-39.8 95.43,56.05 214.489,107.66 354.379,117.7 97.81,7.03 234.18,-4.69 343.75,-91.76 198,-157.35 325.11,-464.5 336.83,-638.64 7.19,-106.05 -12.19,-228.9 -84.65,-286.36 38.05,-37.19 38.13,-101.76 30.59,-147.11 -16.33,-97.54 -89.18,-194.85 -195.63,-231.6 -31.44,-10.9 -73.24,-15.59 -103.98,3.24 -49.38,-63.79 -127.89,-107.54 -237.7,-120.67 48.17,-28.47 98.75,-84.84 125.55,-120.54 2.11,4.22 4.3,8.47 6.84,12.69 23.67,40.2 58.4,54.3 88.79,57.46 7.5,55.63 50.31,136.29 206.29,151.21 217.96,20.82 361.87,-256.4 344.84,-486.64 M 575.551,2026.09 c 50.699,33.68 60.347,69.53 64.019,99.34 2.418,20.04 7.5,28.87 12.621,4.53 9.649,-46.05 -17.543,-92.11 -74.382,-116.01 -24.098,-10.12 -22.887,-1.57 -2.258,12.14" /></g></g></svg>