<?xml version="1.0" encoding="UTF-8" standalone="no"?>
<svg
   xmlns:dc="http://purl.org/dc/elements/1.1/"
   xmlns:cc="http://creativecommons.org/ns#"
   xmlns:rdf="http://www.w3.org/1999/02/22-rdf-syntax-ns#"
   xmlns:svg="http://www.w3.org/2000/svg"
   xmlns="http://www.w3.org/2000/svg"
   xmlns:sodipodi="http://sodipodi.sourceforge.net/DTD/sodipodi-0.dtd"
   xmlns:inkscape="http://www.inkscape.org/namespaces/inkscape"
   version="1.1"
   id="svg2"
   viewBox="0 0 206.1351 299.99999"
   height="84.666664mm"
   width="58.175907mm"
   inkscape:version="0.91 r13725"
   sodipodi:docname="marsupilami_vector.svg"
   inkscape:export-filename="C:\Users\Erik\marsupilami_vector.png"
   inkscape:export-xdpi="90"
   inkscape:export-ydpi="90">
  <sodipodi:namedview
     pagecolor="#ffffff"
     bordercolor="#666666"
     borderopacity="1"
     objecttolerance="10"
     gridtolerance="10"
     guidetolerance="10"
     inkscape:pageopacity="0"
     inkscape:pageshadow="2"
     inkscape:window-width="1920"
     inkscape:window-height="1017"
     id="namedview23"
     showgrid="false"
     fit-margin-top="0"
     fit-margin-left="0"
     fit-margin-right="0"
     fit-margin-bottom="0"
     inkscape:zoom="1"
     inkscape:cx="311.19535"
     inkscape:cy="1.161964"
     inkscape:window-x="-8"
     inkscape:window-y="-8"
     inkscape:window-maximized="1"
     inkscape:current-layer="layer1" />
  <defs
     id="defs4" />
  <metadata
     id="metadata7">
    <rdf:RDF>
      <cc:Work
         rdf:about="">
        <dc:format>image/svg+xml</dc:format>
        <dc:type
           rdf:resource="http://purl.org/dc/dcmitype/StillImage" />
        <dc:title></dc:title>
      </cc:Work>
    </rdf:RDF>
  </metadata>
  <g
     transform="translate(-0.59999961,-733.55726)"
     style="display:inline"
     id="layer3" />
  <g
     transform="translate(-0.59999961,-733.55726)"
     style="display:inline"
     id="layer2" />
  <g
     transform="translate(-0.59999961,-733.55726)"
     style="display:inline"
     id="layer4" />
  <g
     transform="translate(-0.59999961,-733.55726)"
     style="display:inline"
     id="layer1">
    <g
       id="g4170"
       transform="matrix(1.104255,0,0,1.104255,0.33744702,-107.75355)">
      <g
         transform="translate(0.59999963,761.88094)"
         id="layer5">
        <path
           style="fill:#373737;fill-opacity:1;stroke:none;stroke-width:1;stroke-miterlimit:4;stroke-dasharray:none;stroke-opacity:1"
           d="m 139.3094,113.1026 c 0.78419,-0.71523 0.91586,-1.98193 1.08791,-2.33085 0.0994,-0.20148 0.81176,-0.51511 1.00416,-0.59929 4.44589,-0.93701 8.09922,-4.01237 11.17645,-5.78099 6.71271,-6.076097 18.70061,-9.753297 2.17429,10.54915 -6.64684,9.17389 -23.09326,5.25697 -15.44281,-1.83802 z"
           id="path4150"
           inkscape:connector-curvature="0" />
      </g>
      <path
         style="display:inline;fill:#ffff00;fill-opacity:1;fill-rule:evenodd;stroke:none;stroke-width:1px;stroke-linecap:butt;stroke-linejoin:miter;stroke-opacity:1"
         d="m 164.91469,846.20043 c 0,0 -30.87459,-12.32425 -60.50583,7.4299 -29.631236,19.75416 -26.212248,53.56417 -17.474829,61.54181 8.737414,7.97764 19.754159,16.14523 34.949669,14.81562 15.1955,-1.32961 18.23461,-22.98321 18.23461,-22.98321 0,0 -5.83853,-21.01543 -2.88795,-29.30059 l 3.97645,-4.17082 c 1.82096,-1.90997 7.59924,-0.39077 13.54659,-9.18146 2.05332,-3.03498 10.19359,-4.90726 10.18313,-9.19561 z"
         id="path4197"
         inkscape:connector-curvature="0" />
      <path
         style="display:inline;fill:#ffff00;fill-opacity:1;fill-rule:evenodd;stroke:none;stroke-width:1px;stroke-linecap:butt;stroke-linejoin:miter;stroke-opacity:1"
         d="m 87.747131,877.44024 c -10.351939,-1.42458 -25.591317,-3.90659 -36.94408,5.22345 -2.846315,2.28905 -3.294337,0.16027 -5.637471,1.97512 -1.583361,2.76457 -6.892883,7.44491 -4.536394,7.48646 -0.605445,19.93223 -0.557958,27.95735 2.101252,29.95176 5.31843,3.98883 14.055849,7.40782 18.709469,-4.27373 4.653625,-11.68155 0.854747,-18.99439 0.664805,-19.84913 -0.189942,-0.85475 0.379889,-5.03351 0.379889,-5.03351 l 7.312835,-4.0838 9.212277,-3.13407 5.413398,1.32961 z"
         id="path4215"
         inkscape:connector-curvature="0" />
      <path
         style="display:inline;fill:#ffff00;fill-opacity:1;fill-rule:evenodd;stroke:none;stroke-width:1px;stroke-linecap:butt;stroke-linejoin:miter;stroke-opacity:1"
         d="m 135.97692,842.80579 -1.27595,-10.14045 -2.28328,-7.79001 -2.95483,-5.50673 -2.41759,-1.54457 c 0,0 -1.44445,-1.74498 -2.88768,-2.61906 -1.44323,-0.87408 -3.80304,-1.52926 -5.84251,-2.14897 -2.03947,-0.61971 -6.37975,-1.54457 -6.37975,-1.54457 l -10.27476,-0.73871 -8.99881,1.67888 -7.454237,2.82052 -6.84984,5.50674 -4.499404,6.37975 0.13431,6.3126 1.343106,4.4994 2.619056,1.61173 3.021988,0.94017 4.700871,0.13431 7.185615,-2.14897 8.797345,-4.4994 7.31992,-6.04398 6.64838,-2.35043 3.22345,1.3431 2.88768,3.02199 3.89501,5.84251 2.88767,8.2601 z"
         id="path4217"
         inkscape:connector-curvature="0" />
      <path
         style="display:inline;fill:#fcc79b;fill-opacity:1;stroke:none;stroke-width:0.53724229;stroke-linecap:butt;stroke-linejoin:miter;stroke-miterlimit:4;stroke-dasharray:none;stroke-opacity:1"
         d="m 144.84688,932.40216 c -0.76368,-0.4909 -1.39189,-2.0011 -1.78499,-2.79866 -2.89612,-1.65708 0.75546,-2.27314 -6.99026,-1.23652 -2.4813,0.32718 -10.16218,0.58368 -10.26254,0.48332 -0.0433,-0.0432 -0.0417,-1.04413 0.0414,-1.9568 0.73773,-8.08646 4.07463,-17.81739 9.13573,-26.64118 0.67792,-1.18194 1.41985,-2.49193 1.43266,-2.50599 0.0128,-0.0141 0.79359,0.42487 1.78911,0.92137 2.09226,1.04349 4.05739,1.74266 6.46716,2.25624 1.54316,0.32888 1.90362,0.55076 4.52276,0.55412 2.24421,0.003 3.60682,-0.4161 4.65064,-0.60866 2.67432,-0.49332 5.88353,-1.46709 9.14089,-2.90475 0.70178,-0.30973 1.99626,-0.84367 1.99626,-0.84367 l 0.0187,17.93783 -3.49993,3.82756 c -3.75044,4.10151 -4.44365,4.87873 -5.35687,6.31025 -2.48097,3.88902 -6.5668,7.45944 -8.70431,7.73848 -0.49054,0.064 -2.08566,-0.20455 -2.5965,-0.53294 z"
         id="path3382"
         inkscape:connector-curvature="0" />
      <path
         style="display:inline;fill:#fcc79b;fill-opacity:1;fill-rule:evenodd;stroke:none;stroke-width:1px;stroke-linecap:butt;stroke-linejoin:miter;stroke-opacity:1"
         d="m 176.42661,792.53256 c -1.71662,-0.68132 -4.41625,-2.06201 -6.743,-2.18436 -2.32676,-0.12235 -6.74301,1.42458 -6.74301,1.42458 l -5.98323,2.84916 -2.08938,3.51396 -0.37989,3.13407 2.27932,5.50838 -4.74859,4.08379 -2.3743,4.74859 3.32402,4.46369 1.7095,2.37429 -1.23464,4.17877 1.13966,3.98882 4.65363,6.17317 4.36871,2.46927 4.93853,0.47486 7.40782,-4.46368 3.41899,-4.46368 1.61452,-6.36312 4.36871,-10.73182 0.47485,-2.65922 -3.51396,-3.98882 -1.99441,-2.84916 0.75978,-5.60334 -1.0447,-4.36871 c 0,0 -1.8923,-1.02818 -3.60893,-1.70949 z"
         id="path4219"
         inkscape:connector-curvature="0" />
      <path
         style="display:inline;fill:#fcc79b;fill-opacity:1;fill-rule:evenodd;stroke:none;stroke-width:1px;stroke-linecap:butt;stroke-linejoin:miter;stroke-opacity:1"
         d="m 180.72464,943.35074 -3.60893,-6.64802 -6.83798,-4.7486 -6.83798,-1.13967 -4.36871,1.80447 -2.75418,2.65922 -0.56984,2.37429 -0.095,4.55865 1.13966,2.75419 -3.60894,2.84916 -0.18994,3.22904 -0.18994,5.12849 -1.7095,0.85474 -2.75418,3.0391 -0.095,2.75419 0.18995,4.65362 0.56983,4.17877 2.75418,6.36312 3.51397,3.41899 5.79328,2.75418 3.32402,0.37989 3.7039,-2.08938 2.65922,-3.79888 -0.095,-7.50278 1.61453,-2.3743 4.27374,0.28492 3.32401,-1.42458 2.75419,-3.0391 0,-5.98323 -1.32961,-5.12849 -0.28492,-6.45809 z"
         id="path4236"
         inkscape:connector-curvature="0" />
      <path
         style="display:inline;fill:#ffff00;fill-opacity:1;fill-rule:evenodd;stroke:none;stroke-width:1px;stroke-linecap:butt;stroke-linejoin:miter;stroke-opacity:1"
         d="m 164.96142,995.20988 -5.17809,-1.33407 c 0,0 -10.93467,0.20977 -15.33796,1.02095 -4.40329,0.81118 -6.94431,1.86992 -10.96926,3.25279 -4.02495,1.38286 -13.43852,4.93855 -13.43852,4.93855 l -15.00557,8.6899 -11.634061,7.4553 -12.868694,5.3659 -16.33517,3.4665 -7.265353,-5.5084 -5.650827,-3.8463 -4.748599,-4.9386 -4.843567,-7.4078 -3.324015,-9.73461 -0.807261,-13.15361 5.080996,-15.33796 9.354732,3.27653 12.8687,2.23184 12.441317,-1.99441 5.698315,-3.27653 2.611728,-6.88547 0.474863,-8.54747 -1.32961,-7.59776 -4.273736,-11.82399 -5.270938,-7.50279 -2.326813,-1.99441 -4.796085,0.56983 -8.879874,6.12569 c 0,0 -1.263621,2.24855 -2.659215,4.4162 -1.395595,2.16764 -3.242575,4.33573 -5.84077,8.49998 -2.598195,4.16425 -9.402218,16.66757 -9.402218,16.66757 l 4.226248,2.94413 1.472066,-2.75418 3.466475,-6.98044 12.821207,-18.89941 7.17038,-5.27094 1.851955,0.75977 2.564241,4.17877 3.84636,9.06981 2.421786,14.29328 -2.13687,6.36312 -4.463678,2.84916 -9.782108,0.23743 -12.251376,-0.94972 -14.340765,-7.69273 -13.486012,-10.16199 -8.167582,-10.20948 c 0,0 -2.701877,-4.44992 -4.13128,-7.07541 -1.429409,-2.6255 -3.1093118,-6.22293 -3.7988785,-10.25697 -0.6895612,-4.03404 0.3798895,-13.48601 0.3798895,-13.48601 l 5.270943,-16.95249 11.206687,-20.60891 8.120095,-15.71785 2.089384,-3.56145 4.810978,-3.68283 4.123227,-5.41193 3.653146,-9.30693 0.09391,-8.63538 -2.793768,-7.29227 -2.807408,-1.19299 -4.741271,-1.24829 3.829394,6.5051 0.941716,12.68338 -5.0351,8.78837 -8.728645,6.23648 -9.449469,3.0797 -5.12988,-2.17062 0.436337,-2.39488 9.129165,-5.62369 5.934691,-0.6542 -2.084033,7.79979 6.702565,-3.38148 2.47824,-5.29573 -2.926536,-3.8204 -7.114845,-0.27614 -8.182485,1.72818 -8.9352695,7.17886 -3.2093728,5.91025 2.7575574,3.47019 2.9036339,1.84216 4.671316,0.0183 c 3.100705,0.78511 5.726552,0.4543 8.5186,0.28969 l -1.005594,2.97743 -7.407809,12.5363 -9.7821075,21.51114 -5.3184302,17.37986 0.4273762,9.54468 c 0,0 1.262874,6.68202 2.5642415,10.25697 1.3013674,3.57495 2.8237563,7.23236 5.365912,11.01674 2.542155,3.78438 6.167982,7.45013 10.067023,11.25417 3.899042,3.80404 13.391044,11.39664 13.391044,11.39664 l 4.178762,2.56424 -3.371501,5.4134 -2.564242,11.63405 0.759774,11.72903 1.946923,9.30724 3.086591,8.1676 5.935743,6.9804 1.139663,1.4721 c 0,0 -0.279844,2.8261 9.259764,8.0251 9.539607,5.199 30.21173,2.4598 38.273684,-2.3743 8.061957,-4.8341 15.290477,-10.4469 15.290477,-10.4469 l 14.24579,-8.3575 21.60611,-6.3157 13.10612,-1.75692 8.31663,2.49262 z"
         id="path4238"
         inkscape:connector-curvature="0" />
      <ellipse
         style="display:inline;fill:#ffff00;fill-opacity:1;stroke:none;stroke-width:1;stroke-miterlimit:4;stroke-dasharray:none;stroke-opacity:1"
         id="path4250"
         cx="112.32111"
         cy="872.52545"
         rx="17.68852"
         ry="8.333786" />
      <path
         style="display:inline;fill:#ffffff;fill-opacity:1;stroke:none;stroke-width:1;stroke-miterlimit:4;stroke-dasharray:none;stroke-opacity:1"
         d="m 136.55166,869.92037 c 0,8.04828 -9.16993,14.85262 -20.95245,15.37856 -13.54029,0.6044 -20.976097,-7.36839 -21.758311,-15.37856 -1.074485,-11.00311 9.561131,-14.5727 21.355381,-14.5727 11.79425,0 21.35538,6.52442 21.35538,14.5727 z"
         id="path4254"
         inkscape:connector-curvature="0" />
      <path
         style="display:inline;fill:#ffffff;fill-opacity:1;stroke:none;stroke-width:1;stroke-miterlimit:4;stroke-dasharray:none;stroke-opacity:1"
         d="m 152.90005,856.03539 c 2.04879,7.09062 -6.70481,13.3639 -14.97563,13.3639 -8.27081,0 -14.97563,-5.98322 -14.97563,-13.3639 0,-7.38068 4.95878,-13.76683 14.97563,-13.3639 8.26413,0.33243 13.09529,6.85624 14.97563,13.3639 z"
         id="path4272"
         inkscape:connector-curvature="0" />
      <g
         id="g3352"
         transform="matrix(0.53724231,0,0,0.53724231,-96.246068,683.65464)">
        <path
           id="path3350"
           d="m 483.16085,290.6928 c -5.74087,-2.43452 -15.11116,-12.05245 -17.99576,-17.63065 -1.07101,-2.07111 -1.38758,-4.56758 -1.02485,-8.0821 l 0.52485,-5.08532 -3.99705,-0.10481 c -3.94845,-0.10353 -8.77174,-2.73896 -9.60883,-5.25023 -0.30687,-0.92062 0.42205,-0.8347 2.63729,0.31084 5.36954,2.7767 5.49816,1.70789 0.2899,-2.409 -4.6282,-3.65838 -7.12921,-6.68881 -7.12921,-8.63833 0,-0.41904 1.4625,0.62313 3.25,2.31595 3.70206,3.50596 11.14228,8.31448 12.86499,8.31448 0.6351,0 -0.0399,-0.93973 -1.50011,-2.0883 -1.46016,-1.14856 -3.32935,-3.39266 -4.15376,-4.98688 -1.28833,-2.49137 -1.30682,-3.35703 -0.13156,-6.16171 0.75205,-1.79471 2.61872,-4.74719 4.14816,-6.56107 l 2.78079,-3.29797 -1.98687,-2.20204 c -2.53885,-2.8138 -7.27164,-9.93036 -7.27164,-10.93417 0,-1.82049 1.73565,-0.34203 5,4.25912 4.39449,6.19409 6.5102,7.1844 3.52228,1.64868 -4.55275,-8.43486 -6.11564,-22.17566 -2.52228,-22.17566 0.88055,0 1.30127,0.61945 1.01877,1.5 -1.4072,4.38624 -0.35822,10.86818 2.79553,17.27436 1.82106,3.6991 3.77728,6.72564 4.34714,6.72564 0.56986,0 0.0917,-1.60072 -1.06266,-3.55716 -3.99208,-6.76607 -1.84374,-15.73498 4.83839,-20.19939 1.89045,-1.26302 5.80593,-3.07119 8.75,-3.84089 l 6.957,-1.81884 4.60355,-0.56842 c 1.23876,0.008 2.92728,0.45153 3.75228,0.98469 1.13664,0.73455 0.70507,0.97308 -1.78155,0.98469 -4.35474,0.0203 -14.62353,3.53895 -18.99277,6.50792 -1.92602,1.30877 -4.33676,3.64584 -5.35718,5.19349 -2.53397,3.84318 -2.43452,10.0825 0.2055,12.89266 l 2.07399,2.20767 5.92806,-2.55782 c 3.26044,-1.40681 6.26464,-2.19715 6.67601,-1.75632 0.41137,0.44084 0.24949,0.98106 -0.35972,1.2005 -0.60921,0.21944 -4.87212,2.97033 -9.47313,6.1131 -9.18637,6.27482 -16.01692,14.12445 -15.15589,17.41705 0.47409,1.81293 6.75718,7.13723 9.50232,8.05227 0.7875,0.2625 0.61423,1.47818 -0.56483,3.96286 -2.05987,4.34086 -2.18155,9.7277 -0.31768,14.06405 2.0836,4.84755 8.37508,11.59002 12.37384,13.2608 4.68758,1.9586 5.39966,1.09977 0.87024,-1.04958 -3.74849,-1.77877 -6.27575,-4.17813 -5.36264,-5.09124 0.30226,-0.30227 2.05389,0.25805 3.8925,1.24515 4.39201,2.35794 14.93537,2.35297 21.12262,-0.01 2.59998,-0.99294 6.18935,-3.52094 8.27148,-5.82561 3.41077,-3.77532 3.64393,-4.4294 3.20549,-8.99238 -0.70401,-7.32677 -4.94283,-12.66537 -11.84644,-14.92005 -7.24774,-2.36708 -16.30048,-2.35926 -21.53685,0.0186 -2.26965,1.03065 -4.4337,2.37076 -4.80902,2.97803 -0.9433,1.52631 -2.56435,1.38625 -2.56435,-0.22156 0,-4.78041 12.51742,-8.68735 21.43236,-6.68947 5.7943,1.29853 12.62045,3.94428 14.65895,5.68165 1.37285,1.17007 2.217,0.87849 6.14916,-2.12393 5.01171,-3.82673 8.75953,-9.12179 8.75953,-12.3758 0,-2.62791 -5.29253,-8.74997 -9.39844,-10.87152 -1.70586,-0.88142 -3.58347,-2.26034 -4.17248,-3.06425 -0.74845,-1.02153 -3.83493,-1.61926 -10.25,-1.98503 -5.04849,-0.28783 -9.17908,-0.91092 -9.17908,-1.38464 0,-1.82331 11.92094,-1.31812 16.81043,0.7124 l 3.31043,1.37476 1.91761,-4.22423 c 3.44042,-7.57878 1.8468,-13.35631 -4.21476,-15.28017 -2.23133,-0.7082 -2.41455,-2.44405 -0.25797,-2.44405 4.56986,0 10.34414,5.91018 10.3983,10.64301 0.0198,1.72866 0.65143,3.37919 1.40368,3.66786 2.35645,0.90425 2.72675,5.9095 0.65114,8.80128 l -1.8749,2.61215 3.93079,3.72481 c 4.49334,4.25787 5.50267,7.1082 4.37513,12.35518 -0.43681,2.03264 -0.71928,5.94571 -0.62771,8.69571 0.25432,7.63789 -0.43022,9.186 -5.3321,12.05869 -3.58454,2.10068 -4.49007,3.18304 -4.49007,5.36685 0,1.50453 -1.12312,4.94927 -2.49581,7.65498 -1.3727,2.70571 -2.4977,5.63813 -2.5,6.51647 -0.0119,4.54595 -7.11419,7.88722 -16.78694,7.89743 l -5.28275,0.006 m 30.53309,73.81166 c 2.15106,-8.40179 2.04278,-11.96968 -0.1558,-25.26461 -2.19858,-13.29493 -3.64792,-17.24543 -13.29328,-23.53517 -4.29346,-2.75511 -5.84496,-4.22714 -10.72237,-2.891 -8.73209,1.9237 -12.18843,4.1476 -14.27489,4.83959 -6.54481,2.15558 -20.28901,21.01954 -16.89778,23.11543 1.55335,0.96002 5.15771,-0.13597 6.57679,-1.99984 1.0205,-1.34036 1.11478,-1.23725 0.62949,0.68839 -0.47439,1.88235 -0.25488,2.15431 1.29973,1.61027 1.02879,-0.36003 2.47956,-1.37922 3.22395,-2.26487 1.18597,-1.41103 1.26232,-1.30095 0.6171,0.88974 l -0.73633,2.5 2.35601,-2 c 1.73726,-1.47475 1.5752,-1.06629 -0.6171,1.55535 -1.63521,1.95544 -5.18327,5.33044 -7.88457,7.5 -2.7013,2.16956 -8.3263,7.32193 -12.5,11.44971 -6.21628,6.1479 -8.13104,7.48582 -10.58854,7.39872 -3.27977,-0.11626 -9.45159,-2.2108 -9.58124,-3.25161 -0.66422,-5.33207 -0.30501,-6.48386 2.89957,-9.29752 3.87707,-3.40412 3.57846,-4.99988 -0.4426,-2.36518 -4.48149,2.93638 -10.13319,9.67896 -12.99282,15.50064 -2.28994,4.66191 -2.67793,6.65616 -2.52107,12.95794 0.21228,8.52849 1.91086,12.30826 7.10384,15.80781 4.57432,3.08263 10.84254,5.75757 18.40211,7.01191 7.55956,1.25433 18.01051,1.38598 38.87825,-8.89711 20.86774,-10.28308 28.69963,-21.20827 31.22155,-31.05859 z m -34.06166,65.45196 c 0,0 -14.7766,14.51306 -16.29106,17.08893 -4.90649,8.34515 -12.95562,15.6333 -17.27601,15.6433 -0.9136,0.002 -2.84897,-1.40796 -4.3008,-3.13336 -2.2912,-2.72294 -2.57891,-3.81212 -2.17927,-8.25 0.25324,-2.8121 0.96369,-6.41281 1.57878,-8.00159 1.0518,-2.71676 0.75963,-4.64187 -0.51155,-3.37069 -0.31567,0.31567 -1.65499,3.20317 -2.97627,6.41666 l -2.40231,5.84272 -0.0237,-3.75 c -0.0131,-2.0625 -0.47374,-3.75 -1.02374,-3.75 -0.55,0 -1,1.74992 -1,3.88871 0,4.5457 -0.0709,4.5709 -17.21776,6.11688 -13.92316,1.25533 -13.03025,1.32634 -11.81742,-0.93985 2.92541,-5.46619 -0.29092,-7.99978 -11.20159,-8.8238 -7.74383,-0.58484 -9.24746,0.19523 -10.20394,5.29369 -0.59443,3.16858 -2.55929,4.97103 -2.55929,2.34774 0,-0.62408 -0.8817,-0.88606 -1.999,-0.59388 -1.09946,0.28751 -2.25101,0.115 -2.55902,-0.38337 -0.30801,-0.49837 -1.56846,-0.90612 -2.801,-0.90612 -1.23254,0 -2.78098,-0.54 -3.44098,-1.2 -0.93333,-0.93333 -1.2071,-0.87778 -1.2318,0.25 -0.0265,1.20837 -0.23481,1.18971 -1.25,-0.11197 -1.50226,-1.92615 -4.7182,-3.22577 -4.7182,-1.90665 0,1.85085 -2.19048,0.95623 -2.73236,-1.11591 -0.4183,-1.5996 -0.7499,-1.77408 -1.42538,-0.75 -0.69907,1.05983 -1.19658,0.92285 -2.41697,-0.66547 -0.84519,-1.1 -2.13227,-1.88026 -2.86016,-1.73391 -0.7279,0.14635 -1.63312,-0.75365 -2.01159,-2 -0.4188,-1.37914 -0.89093,-1.7744 -1.20625,-1.00986 -0.73869,1.79105 -2.34729,0.50088 -2.34729,-1.88263 0,-1.5533 -0.45318,-1.86454 -2,-1.3736 -1.65968,0.52676 -2,0.1797 -2,-2.0396 0,-1.99565 -0.3903,-2.52461 -1.53785,-2.08425 -0.90712,0.3481 -1.79334,-0.0756 -2.16077,-1.03314 -0.42944,-1.11911 0.97995,-3.12829 4.53786,-6.46906 3.2787,-3.07859 5.16076,-5.67451 5.16076,-7.11821 0,-2.43878 -6.56752,-13.14939 -9.92739,-16.19003 -1.98628,-1.79755 -2.17617,-1.78932 -7.23664,0.31371 -2.85826,1.18784 -5.55188,1.80467 -5.98582,1.37073 -1.04509,-1.04509 -1.25996,-16.42836 -0.31776,-22.75015 0.40986,-2.75 1.24148,-5.31876 1.84805,-5.70836 2.27592,-1.46183 -1.44751,-3.29277 -6.38987,-3.14212 -9.9,0.30175 -26.86907,7.37538 -36.84096,15.3573 -6.35132,5.08387 -14.16108,16.11839 -14.12738,19.96069 l 0.0222,2.53249 1.83468,-2.38603 c 1.10261,-1.43401 2.09376,-1.96682 2.48399,-1.33541 0.35713,0.57784 0.084,1.26166 -0.60691,1.5196 -0.82455,0.30783 -0.5973,0.73967 0.66133,1.2567 1.62261,0.66655 5.19548,0.21667 13.58244,-1.71023 3.7965,-0.87225 0.15799,26.46192 -4.13591,31.07088 -1.0681,1.14647 -2.82447,2.08449 -3.90305,2.08449 -1.07857,0 -1.96104,0.45 -1.96104,1 0,0.55 -0.3375,0.95135 -0.75,0.89185 -1.42898,-0.20606 -5.25,1.34502 -5.25,2.13116 0,0.43436 -0.9,0.5544 -2,0.26674 -1.25214,-0.32744 -2,-0.0307 -2,0.79362 0,1.00925 -0.2746,1.04203 -1.17621,0.14042 -0.7868,-0.7868 -1.57054,-0.84893 -2.36732,-0.18767 -0.81072,0.67285 -1.57619,0.52455 -2.3969,-0.46435 -0.66319,-0.79909 -1.78141,-1.23201 -2.48493,-0.96204 -1.94655,0.74696 -7.08663,-5.74429 -9.72213,-12.27777 -2.09119,-5.18414 -2.34733,-7.3871 -2.30563,-19.83196 0.045,-13.43884 0.16525,-14.2405 3,-20 2.11519,-4.29753 3.89774,-6.47171 6.28224,-7.66245 4.83657,-2.41526 5.03465,-2.96371 0.88444,-2.44896 -2.02878,0.25164 -5.04429,1.42278 -6.70113,2.60256 -1.65684,1.17997 -3.01243,1.70716 -3.01243,1.17197 0,-1.48864 15.11716,-10.16312 17.71144,-10.16312 1.34051,0 1.72146,-1.23377 0.69721,-2.25801 -0.32523,-0.32524 -2.57523,0.006 -5,0.73546 -2.42476,0.72975 -4.40865,1.00303 -4.40865,0.6073 0,-1.07327 10.20197,-4.08475 13.83789,-4.08475 3.8816,0 4.21121,-1.74644 0.41211,-2.18358 -2.49713,-0.28732 -2.24427,-0.55489 2.75,-2.90985 6.45799,-3.04515 15.90323,-5.62221 25,-6.82106 7.51803,-0.99079 22.57562,-0.75053 25.5,0.40688 1.92772,0.76294 1.9354,0.72318 0.21255,-1.10042 -1.56485,-1.65636 -3.24601,-1.88234 -13.5,-1.81444 -17.24926,0.11418 -35.75353,4.65586 -42.11701,10.33717 -1.88921,1.68669 -4.89678,3.1172 -7.39056,3.51523 -5.27891,0.84256 -8.70498,3.03588 -8.70498,5.5728 0,1.26031 -1.35834,2.6496 -3.8169,3.90386 -4.91033,2.50506 -6.55884,4.54858 -5.85147,7.25356 0.3788,1.44852 -0.24739,3.13946 -1.88198,5.08205 -1.34731,1.60119 -2.44088,3.66422 -2.43008,4.58453 0.0128,1.09448 1.25215,0.20318 3.58294,-2.57673 1.95985,-2.3375 3.95074,-4.25 4.42419,-4.25 0.47346,0 -0.062,2.08623 -1.18992,4.63607 -4.92458,11.13284 -5.63076,27.44694 -1.70084,39.29245 2.92855,8.82717 11.2391,17.16647 19.50076,19.5682 5.3104,1.54377 5.68776,1.52462 9.87188,-0.50087 7.2389,-3.5043 13.02209,-10.80718 16.0686,-20.29108 6.402,-19.92964 6.88929,-26.51563 2.59218,-35.03471 l -2.83065,-5.61179 5.15853,-3.42507 c 8.8475,-5.87441 24.68637,-12.78292 26.08966,-11.37964 0.25153,0.25154 -0.15716,3.10988 -0.90819,6.35189 -2.29764,9.9182 -2.07484,18.03736 0.73944,26.94603 2.25185,7.12832 8.64272,19.54415 10.40013,20.20479 0.37495,0.14095 3.83172,3.19104 7.68172,6.77799 12.09118,11.26502 23.81828,16.76229 44,20.62572 13.01164,2.49084 42.39208,1.50482 50.75223,-1.70328 1.36678,-0.52448 1.74777,-0.1435 1.74777,1.74775 0,2.52134 3.19413,6.70242 5.28896,6.92317 0.66607,0.0702 2.33604,0.24609 3.71104,0.39089 1.375,0.14479 3.85,-0.30628 5.5,-1.00238 3.63598,-1.53396 12.62791,-10.48156 15.04619,-14.97203 1.4509,-2.69416 13.17193,-13.32848 14.89681,-16.56092 z m 0.0372,162.54353 c -10.02266,-2.4335 -29.489,-3.26722 -52.52833,2.47941 -18.63107,4.6471 -33.24684,10.6626 -47,19.34409 -13.04253,8.23291 -12.34473,7.76206 -22.89036,15.44552 -5.0103,3.65046 -10.68464,7.32264 -12.60964,8.1604 -1.925,0.83775 -5.21254,3.13851 -7.30565,5.11279 -4.29301,4.04929 -7.31108,4.93943 -3.69435,1.0896 1.29175,-1.375 1.90438,-2.5 1.36141,-2.5 -0.54298,0 -2.28061,1.35 -3.86141,3 -1.5808,1.65 -3.52657,3 -4.32393,3 -0.83234,0 0.62322,-2.23586 3.41776,-5.25 5.65402,-6.09831 6.39341,-6.56698 6.44213,-4.08333 0.029,1.47717 0.51732,1.25053 2.51378,-1.16667 1.76951,-2.14242 2.70235,-2.64718 3.2633,-1.76577 0.56683,0.89063 2.91355,-0.22292 8.42969,-4 26.80284,-18.35278 33.65301,-22.63817 45.75727,-28.62529 7.425,-3.67262 16.70512,-7.68796 20.62249,-8.92297 9.59561,-3.02517 26.35874,-7.15954 29.08808,-7.17414 1.21582,-0.007 2.79082,-0.71908 3.5,-1.58351 3.63164,-4.42658 5.02083,-5.42961 7.53943,-5.44363 1.54934,-0.009 2.24949,-0.33608 1.60363,-0.75 -1.63785,-1.04967 -17.49355,-0.2701 -16.81565,0.82677 0.31198,0.50479 -0.68254,0.67675 -2.23827,0.38701 -1.53984,-0.28678 -4.71869,-0.63317 -7.06412,-0.76976 -6.43503,-0.37475 -4.60138,-2.17271 2.26441,-2.22033 3.3,-0.0229 9.84309,-0.58631 14.5402,-1.25205 8.05899,-1.14223 17.69112,-0.24279 27.23322,1.36982 l 2.74711,0.46426 m -2.93535,-16.47978 -4,-0.56119 c -13.41487,-1.88207 -24.03402,-17.29039 -26.05563,-37.80655 -0.59705,-6.05913 -0.40537,-7.42935 1.51804,-10.85159 1.21076,-2.15425 3.40202,-4.66171 4.86948,-5.57213 2.12531,-1.31856 2.29373,-1.66073 0.82789,-1.68193 -3.13678,-0.0454 -9.50754,5.24572 -11.12985,9.24363 -0.84146,2.07363 -1.55845,5.89863 -1.59332,8.5 -0.056,4.18072 -0.17935,4.43956 -1.06242,2.22976 -2.07668,-5.19674 1.9749,-15.6497 7.41615,-19.13343 l 3.20966,-2.05497 -3.87403,0.55146 c -2.13071,0.3033 -4.71821,1.31543 -5.75,2.24918 -2.84231,2.57226 -2.32432,-0.2548 0.57858,-3.15769 1.85292,-1.85293 3.51964,-2.45455 6.8,-2.45455 2.39,0 4.94005,0.5625 5.66678,1.25 1.09092,1.03203 1.20459,0.16246 0.65185,-4.98667 l -0.66948,-6.23667 4.49889,-3.17111 c 3.73583,-2.63325 4.3335,-3.48015 3.52377,-4.99315 -0.53632,-1.00212 -1.05939,-4.66541 -1.16238,-8.14064 -0.15165,-5.11714 0.23461,-6.91104 2.03136,-9.43435 2.37526,-3.33574 9.43569,-7.28741 15.81,-6.85624 l 8.84216,0.30507 c 4.55874,-0.095 6.87502,0.38829 9.38504,1.9581 4.1445,2.59205 8.36522,8.62681 7.53917,10.77947 -0.34136,0.88958 0.17733,2.47533 1.16758,3.56956 0.98,1.08288 1.51956,2.23114 1.19902,2.55168 -0.32053,0.32054 -2.23303,-1.24382 -4.24999,-3.47635 -7.8473,-8.68603 -21.72397,-12.27163 -28.40182,-7.33877 -4.04179,2.98563 -4.2969,0.45969 -0.33646,-3.33144 l 2.75,-2.63243 -4.12421,2.04811 c -16.06453,7.97778 -11.26289,26.6621 9.1746,35.70052 8.89313,3.93297 16.50529,2.93619 22.81024,-2.98689 2.75191,-2.58523 2.8344,-2.93233 2.17041,-9.13259 -0.58229,-5.43732 -0.44924,-6.44522 0.85082,-6.44522 2.17286,0 3.96283,7.40702 3.24969,13.44748 -0.44461,3.76597 -0.19744,5.37473 1.03502,6.73657 1.50332,1.66116 1.69626,3.29419 1.15974,9.81595 -0.11312,1.375 0.13933,4.80738 0.561,7.62751 0.72489,4.84805 0.59087,5.32775 -2.45876,8.80109 -3.7036,4.21816 -6.95368,6.11029 -12.17958,7.09067 -3.65396,0.68549 -3.67792,0.72222 -3.15504,4.83573 0.44013,3.46247 -0.0182,5.04691 -2.78352,9.62225 -1.82072,3.01249 -4.98753,7.52752 -7.47502,9.5412 l -4.72167,3.82228 m -1.23406,-249.12009 c -0.0119,2.07341 -9.04389,6.02071 -11.34495,5.29039 -3.84039,-1.21889 -5.01974,-4.38588 -4.10039,-11.01102 0.45793,-3.3 0.67788,-6.16966 0.48878,-6.37703 -0.61461,-0.67396 -8.75746,-2.03879 -15.9231,-2.66887 l -7,-0.61551 4.19354,3.6103 c 4.57146,3.93566 9.69619,12.1604 10.78011,17.30111 0.37689,1.7875 0.49294,3.25 0.25788,3.25 -0.23506,0 -2.08338,-3.35069 -4.10738,-7.44598 -5.95631,-12.05178 -13.69517,-17.0775 -25.62415,-16.64069 -7.36273,0.26961 -12.86066,1.78763 -16.53437,4.56527 -4.17818,3.15906 -7.57941,10.09963 -7.23893,14.77183 0.25615,3.51508 0.57331,3.85021 5.05434,5.34067 5.15375,1.71422 10.07356,5.33444 11.90829,8.76267 0.99702,1.86295 0.66755,1.77445 -2.56077,-0.68791 -2.03776,-1.55428 -6.72531,-4.22677 -10.41679,-5.93887 -5.96215,-2.76525 -7.96475,-3.15916 -17.9304,-3.52689 -9.41211,-0.3473 -12.39113,-0.0652 -18.5,1.75173 -13.26175,3.94443 -18.641,7.31081 -21.00671,13.14617 -1.90317,4.69444 -1.25599,14.27626 1.32428,19.60637 2.33349,4.82035 8.20483,11.18057 12.85931,13.93004 4.00086,2.36337 3.88663,3.55608 -0.20401,2.13007 -4.3246,-1.50756 -12.65768,-10.15186 -15.72054,-16.30766 -1.73024,-3.47749 -2.47138,-6.63519 -2.48333,-10.58057 l -0.017,-5.62374 -4.36485,5.87374 c -4.17527,5.61864 -7.41491,8.07124 -5.20366,3.93949 0.56935,-1.06384 1.03518,-2.99866 1.03518,-4.2996 0,-4.95208 16.06364,-21.38805 28.43028,-29.08926 l 4.93027,-3.07028 -2.93027,-0.80431 c -1.61166,-0.44236 -5.6838,-1.25306 -9.04921,-1.80155 -7.46856,-1.2172 -14.15854,-4.07051 -17.24371,-7.35452 -1.91432,-2.03771 -2.11724,-2.8153 -1.18785,-4.55187 0.61647,-1.15189 1.26815,-2.09435 1.44817,-2.09435 0.18002,0 1.99326,1.32393 4.02943,2.94207 4.02076,3.19531 10.54276,6.49838 14.6789,7.43416 l 2.60601,0.5896 -3.32283,-8.73292 c -1.82756,-4.8031 -3.33777,-9.52041 -3.35602,-10.48291 -0.0416,-2.1933 -0.26286,-2.18363 -4.96875,0.21713 -6.20284,3.16446 -19.06884,6.26169 -23.84324,5.73978 -4.67608,-0.51116 -5.92306,0.65718 -7.17053,6.71832 -0.68097,3.30864 -2.50533,4.43824 -3.40048,2.1055 -0.67168,-1.75037 4.75821,-13.79484 7.09227,-15.73194 1.32221,-1.09733 1.42629,-0.8435 0.80816,1.97083 l -0.70955,3.23038 4.111,0 c 4.8322,0 14.55253,-3.08877 21.40265,-6.80099 l 4.85473,-2.63088 -0.67057,-5.92708 c -0.796,-7.03572 -3.28034,-9.82932 -7.92283,-8.90911 -4.21877,0.83622 -2.97625,-1.54448 2.15534,-4.1297 l 4.17291,-2.10224 0.0278,-10.6437 0.0278,-10.64371 -3.85047,0.86515 c -13.06731,2.93603 -26.68631,13.491 -34.09245,26.42226 -2.76347,4.82507 -3.4541,16.08968 -1.15699,18.87125 1.30453,1.57966 1.56021,1.54494 3.74606,-0.50855 1.29028,-1.21216 2.58361,-1.96627 2.87407,-1.67581 0.29046,0.29046 -0.15776,1.09733 -0.99605,1.79305 -0.8383,0.69572 -1.52417,1.73829 -1.52417,2.31682 0,0.57853 1.12323,-0.003 2.49606,-1.29306 3.71604,-3.49104 3.97776,-1.87348 0.41946,2.59255 -4.0845,5.12647 -6.14314,9.13125 -6.84791,13.32162 -0.72383,4.30374 -3.07009,5.38853 -3.06145,1.41546 0.006,-2.86568 1.1393,-5.57821 4.42085,-10.58333 0.99166,-1.5125 1.33897,-2.75 0.77182,-2.75 -0.56716,0 -1.62876,1.35 -2.35912,3 -0.73036,1.65 -1.66808,3 -2.08382,3 -1.21331,0 -0.87262,-2.4581 0.62444,-4.50546 1.22823,-1.6797 1.0594,-2.20866 -1.53215,-4.80021 -8.12335,-8.12334 -7.07192,-18.79439 2.94513,-29.89039 8.62966,-9.55918 19.7918,-15.88099 34.91658,-19.77543 4.74778,-1.2225 4.34049,-0.0839 6.25997,-17.50025 2.85156,-25.87354 12.93165,-55.34402 23.88182,-69.82166 2.87173,-3.79683 4.14762,-4.7324 6.1369,-4.5 3.39514,0.39664 4.26494,4.7934 0.94827,4.7934 -2.50534,0 -4.78911,2.33168 -9.30482,9.5 -7.51472,11.92899 -11.0476,21.14988 -16.6665,43.5 -1.80044,7.16154 -5.43751,31.88833 -4.77963,32.49458 0.17275,0.1592 2.4861,-0.0459 5.14078,-0.45567 6.54756,-1.01077 20.65976,0.3856 24.62617,2.43671 3.90266,2.01814 3.4866,3.05357 -0.56416,1.40398 -2.99946,-1.22146 -20.45781,-1.97997 -26.13869,-1.13564 l -3.25,0.48304 0,10.50313 c 0,10.43353 0.0149,10.49848 2.25,9.80093 1.2375,-0.38621 5.91126,-0.94243 10.38613,-1.23605 6.71331,-0.4405 9.33645,-0.14148 15,1.70992 3.77513,1.23407 8.56613,3.17898 10.64667,4.322 4.02604,2.21186 10.06721,9.51849 13.60735,16.45776 1.18278,2.31842 2.30978,4.21531 2.50445,4.21531 0.19467,0 2.2671,-0.675 4.6054,-1.5 2.3383,-0.825 5.31988,-1.5 6.62573,-1.5 1.85374,0 2.37427,-0.53777 2.37427,-2.45295 0,-1.34912 -0.41045,-3.48662 -0.91211,-4.75 -0.50166,-1.26338 -1.9348,-4.99705 -3.18474,-8.29705 -3.50068,-9.24218 -6.64613,-13.80047 -9.08326,-13.16315 -1.89306,0.49504 -1.9951,0.18648 -1.49051,-4.50719 0.29792,-2.77124 0.13788,-6.10067 -0.35564,-7.39873 -0.5259,-1.38321 -0.52781,-2.58849 -0.005,-2.91184 1.54904,-0.95736 2.46132,1.80007 2.38349,7.20421 -0.0414,2.87282 0.31237,4.98376 0.78609,4.69098 0.47417,-0.29277 0.86176,-1.18076 0.86176,-1.9733 0,-0.79254 0.675,-1.44098 1.5,-1.44098 0.825,0 1.49798,0.7875 1.49552,1.75 -0.002,0.9625 1.57147,4.9 3.49765,8.75 1.92617,3.85 4.54852,11.00707 5.82745,15.90461 l 2.32532,8.9046 5.42703,1.38348 c 6.99812,1.78397 13.37851,4.88681 17.51241,8.51642 2.43719,2.13988 5.88771,3.51612 13.33968,5.32052 5.52866,1.33869 11.54733,3.33908 13.56353,3.90115 l 3.91485,1.09137 m -0.14194,284.42174 c 0.0424,-5.47476 -0.6386,-6.20944 -6.84671,-7.38631 -3.41416,-0.64722 -3.44482,-0.62476 -1.25,0.91585 1.2375,0.86864 2.25,2.45383 2.25,3.52264 0,1.33894 -0.69974,1.95344 -2.25,1.97591 -1.57422,0.0228 -0.82336,0.6618 2.5,2.12749 2.6125,1.15218 4.75,2.4875 4.75,2.96739 0,0.47988 0.1818,0.87251 0.40401,0.87251 m 0,0 c 0.22221,0 0.42142,-2.24797 0.4427,-4.99548 m 2.42899,-30.89033 c 3.5127,-1.59478 4.30194,-2.49646 4.87939,-5.5745 1.24805,-6.65269 -2.96479,-16.92445 -8.47608,-20.6664 -3.80993,-2.5868 -5.88448,-5.35535 -4.81459,-6.42523 0.38967,-0.38968 1.49876,7.5e-4 2.46463,0.8676 2.34495,2.10457 12.86606,4.74497 18.90708,4.74497 10.34857,0 16.34905,-3.67782 16.34905,-10.02068 0,-4.00095 -2.1692,-9.23977 -5.23391,-12.64037 -1.81169,-2.01026 -2.18326,-2.06259 -5.32473,-0.75 -8.42248,3.51914 -20.42772,-0.71147 -30.78895,-10.84993 l -5.9427,-5.81493 -2.35486,2.21227 c -2.9684,2.78867 -3.11178,7.95609 -0.36997,13.33398 1.09168,2.14128 1.78597,4.09215 1.54285,4.33527 -0.74588,0.74587 3.30894,7.93877 6.56732,11.64986 1.69552,1.9311 2.90664,4.03945 2.69138,4.68523 -0.42463,1.27389 -10.1903,-9.32445 -12.10974,-13.14229 -1.72529,-3.43166 -3.13041,-3.45886 -6.84727,-0.13257 -3.30932,2.96157 -3.329,3.03284 -3.25978,11.80686 0.0714,9.05227 1.36791,14.30881 5.47046,22.17973 2.55856,4.9087 6.07436,7.61771 13.22776,10.19231 6.57424,2.36615 8.22797,2.36723 13.42266,0.009 z m -24.7015,-10.30356 c -2.14207,-3.51324 -2.76038,-11.75 -0.88205,-11.75 0.61761,0 0.82724,0.729 0.4742,1.64902 -0.74979,1.95392 2.24687,10.35098 3.69396,10.35098 0.61641,0 0.77503,-1.9285 0.41126,-5 -0.69429,-5.86212 0.75729,-6.66462 2.26101,-1.25 1.40499,5.05915 1.34172,5.67836 -0.77616,7.59501 -2.49805,2.26071 -2.90834,2.13442 -5.18222,-1.59501 z M 294.41602,405.94737 c 1.77591,-1.35976 1.6645,-1.39399 -1.30887,-0.40218 -3.39349,1.13195 -4.17108,1.88844 -1.94113,1.88844 0.71988,0 2.18238,-0.66882 3.25,-1.48626 z m -0.066,-3.50229 c 0.35034,-0.56686 -0.0511,-0.7345 -0.94098,-0.39301 -1.73242,0.66479 -2.04939,1.38156 -0.61096,1.38156 0.51754,0 1.21592,-0.44485 1.55194,-0.98855 z m 189.01056,-67.84135 c -0.30744,-0.30745 -1.55899,0.48276 -2.78121,1.75601 l -2.22222,2.315 2.78121,-1.75601 c 1.52966,-0.96581 2.52966,-2.00756 2.22222,-2.315 z m -86.38532,-16.77034 c 4.18995,0.30898 8.28867,0.81911 9.10826,1.13361 1.22784,0.47117 1.41108,-0.27357 1.04095,-4.23077 -0.39017,-4.17142 -0.0422,-5.36116 2.64801,-9.0526 1.70347,-2.3375 2.93654,-4.25 2.74017,-4.25 -0.19638,0 -1.7742,0.49402 -3.50628,1.09783 -2.51372,0.87628 -3.14922,1.65876 -3.14922,3.87755 0,1.52885 -0.5625,3.21732 -1.25,3.75215 -0.6875,0.53482 -6.28873,1.95832 -12.44718,3.16332 -6.67156,1.30539 -13.03733,3.21938 -15.75,4.73552 -2.50405,1.39954 -4.55282,2.65854 -4.55282,2.79778 0,0.13924 3.9375,-0.61069 8.75,-1.66651 6.37484,-1.39858 10.81791,-1.76717 16.36811,-1.35788 z m -4.61811,-12.75022 c 4.4,-1.93131 11.28625,-4.39128 15.30278,-5.46662 4.01653,-1.07533 7.55807,-2.21044 7.8701,-2.52246 1.05497,-1.05497 -0.70013,-5.66046 -2.15714,-5.66046 -0.79538,0 -3.05192,1.40989 -5.01453,3.13308 -1.96261,1.7232 -3.83884,2.86262 -4.1694,2.53207 -1.1837,-1.18371 1.99067,-6.75728 5.05026,-8.86726 1.71486,-1.18262 3.27904,-2.26955 3.47596,-2.41541 0.78233,-0.5795 -6.92103,-12.07143 -10.0381,-14.97491 -4.9596,-4.61976 -9.20142,-6.04285 -12.18496,-4.08796 -6.88122,4.50875 -8.43419,6.90774 -10.06026,15.54086 -0.86609,4.59826 -1.57471,11.78885 -1.57471,15.97909 l 0,7.61862 4.45453,-7.60968 c 4.93317,-8.42733 10.91297,-15.35744 12.43815,-14.41483 0.54397,0.3362 -1.03925,2.69822 -3.51826,5.24894 -6.75339,6.94872 -13.56067,21.87337 -9.12442,20.00488 0.6875,-0.28956 4.85,-2.10664 9.25,-4.03795 z m -17.23214,-1.39954 c -0.3914,-4.23926 1.617,-19.74391 3.3924,-26.18904 l 0.67187,-2.43904 -3.41606,2.12382 c -1.87884,1.1681 -5.32857,3.13293 -7.66607,4.36629 -2.3375,1.23336 -4.25,2.62968 -4.25,3.10292 0,0.47325 1.5992,5.00598 3.55378,10.07275 5.48922,14.22942 8.52614,17.75776 7.71408,8.9623 z m 55.4503,-9.33608 c 3.41999,-0.63888 10.28249,-0.96729 15.25,-0.72979 4.96751,0.2375 9.03184,0.30238 9.03184,0.14417 0,-1.66366 -18.35242,-7.84656 -20.09459,-6.76984 -0.3559,0.21996 -0.92669,1.79796 -1.26844,3.50667 -0.79572,3.97864 -3.02961,3.37173 -3.45377,-0.93833 -0.24335,-2.4727 -0.70711,-3.10488 -2,-2.7263 -0.92576,0.27107 -3.37567,0.79287 -5.44425,1.15955 -4.52154,0.80148 -4.9136,1.31668 -4.09953,5.38706 0.55187,2.75935 0.95664,3.08866 3.24554,2.64047 1.43827,-0.28163 5.41321,-1.03477 8.8332,-1.67366 z m -58.66867,-21.41392 c 0.0135,-0.8707 -9.00742,-2.64903 -9.87451,-1.9466 -0.17876,0.14482 -0.0145,2.33428 0.36513,4.86549 l 0.69014,4.60218 4.40185,-3.26053 c 2.42101,-1.7933 4.40884,-3.71054 4.41739,-4.26054 z m 5.95051,-3.5 c 0,-0.55 -2.1375,-1.00495 -4.75,-1.01101 -2.6125,-0.006 -6.55,-0.29474 -8.75,-0.64154 -2.2,-0.34679 -3.74578,-0.35012 -3.43508,-0.007 0.63023,0.69516 9.92832,2.36209 14.18508,2.54305 1.5125,0.0643 2.75,-0.3331 2.75,-0.8831 z m -18,-3 c 0,-0.55 -0.45,-1 -1,-1 -0.55,0 -1,0.45 -1,1 0,0.55 0.45,1 1,1 0.55,0 1,-0.45 1,-1 z m -43.58518,384.17992 c 0,-0.80824 2.48577,-2.56052 7.71143,-5.43597 5.08081,-2.79576 3.02313,0.57489 -2.23049,3.65372 -4.62021,2.70762 -5.48094,2.98751 -5.48094,1.78225 z m 11.61807,-3.49055 c 0.87366,-1.96661 7.38319,-7.08208 8.09997,-6.3653 0.84163,0.84164 -5.72524,7.6153 -7.38282,7.6153 -0.69985,0 -1.02256,-0.5625 -0.71715,-1.25 z m -33.86807,-0.41228 c 0.6875,-0.27741 1.8125,-0.27741 2.5,0 0.6875,0.27741 0.125,0.50439 -1.25,0.50439 -1.375,0 -1.9375,-0.22698 -1.25,-0.50439 z m -11.44299,-2.8194 c -20.98083,-8.07634 -37.0454,-28.40903 -43.86426,-55.51832 -4.18782,-16.64927 -1.2007,-43.49272 6.4018,-57.52925 l 2.9289,-5.40764 -5.13673,-3.23909 c -12.01985,-7.57941 -28.79463,-23.21878 -40.03377,-37.32402 -5.59011,-7.01565 -6.40607,-8.5 -4.6725,-8.5 0.51175,0 1.07425,-0.91782 1.25,-2.03961 0.17575,-1.12179 0.76955,-2.08228 1.31955,-2.13442 0.55,-0.0521 1.54191,-0.8685 2.20425,-1.81411 0.99598,-1.42197 0.53202,-3.08125 -2.68268,-9.59424 -3.00239,-6.08286 -3.62859,-8.1862 -2.75173,-9.24276 0.91248,-1.09947 1.36621,-0.70055 2.31271,2.03333 5.20651,15.03865 22.88849,35.8376 44.09013,51.86231 10.22413,7.72764 12.32732,8.86754 12.32732,6.68122 0,-1.32713 14.0877,-25.56999 17.53708,-30.17872 2.94142,-3.93003 2.57026,-0.49902 -0.5536,5.11761 -1.77709,3.19516 -5.45597,9.96425 -8.17529,15.04241 -2.71932,5.07816 -5.36361,9.49221 -5.8762,9.80901 -4.14777,2.56347 4.13582,6.96327 21.57604,11.46004 12.53964,3.23321 21.22512,3.7563 32.36284,1.94907 11.55598,-1.87509 15.28827,-6.76377 15.24653,-19.97041 -0.0298,-9.44104 -5.42143,-27.71609 -12.05226,-40.85169 -2.61566,-5.1816 -3.27389,-5.8311 -5.64557,-5.57075 -4.70948,0.51697 -17.12927,14.29268 -27.89616,30.94171 -3.20115,4.95 -7.38229,11.40733 -9.29142,14.34962 -1.90913,2.94228 -4.16059,7.10478 -5.00325,9.25 -1.81248,4.61411 -3.7422,5.21767 -2.87874,0.90038 0.35968,-1.7984 0.18249,-3 -0.44239,-3 -0.57331,0 -0.81385,-0.7875 -0.53452,-1.75 0.27933,-0.9625 1.01548,-3.71258 1.6359,-6.1113 1.03287,-3.99334 1.35427,-4.3196 3.80952,-3.86712 2.48189,0.45739 3.26616,-0.39744 10.53613,-11.48406 5.73246,-8.74194 7.55618,-12.2767 6.75,-13.08288 -1.82338,-1.82338 -1.29595,-3.53107 2.80517,-9.08256 6.72776,-9.10703 14.9279,-14.82904 18.26483,-12.74509 0.98902,0.61766 2.44667,1.12301 3.23921,1.12301 1.91534,0 4.96839,4.00119 8.09331,10.60672 1.40329,2.9663 3.15865,5.39328 3.90082,5.39328 1.90866,0 3.94582,5.481 3.27808,8.8197 -0.32524,1.62621 0.46428,6.33615 1.8762,11.19265 1.67814,5.7722 2.43774,10.86775 2.43774,16.35296 0,9.31787 0.80073,9.54228 1.79756,0.50379 0.43422,-3.93708 1.17975,-6.41683 1.95244,-6.4941 3.52539,-0.35254 3.45691,0.84892 0.64682,-11.34842 -2.2318,-9.68725 -8.81826,-26.54748 -12.11841,-31.02109 -4.39817,-5.96205 -8.5935,-10.00549 -10.38136,-10.00549 -3.5455,0 -14.54733,5.92667 -18.35,9.88512 -2.17412,2.26318 -4.46459,4.11488 -5.08994,4.11488 -0.62534,0 -1.73104,1.8 -2.45711,4 -1.42084,4.3052 -4.00099,5.43445 -3.99845,1.75 0.002,-3.44738 3.27722,-9.2486 5.2279,-9.26097 0.9512,-0.006 4.3262,-2.56876 7.5,-5.69494 5.58596,-5.50216 10.36879,-8.36252 11.72136,-7.00994 0.36106,0.36105 2.16933,0.52612 4.01839,0.36681 7.56768,-0.65199 13.36988,5.95349 20.07039,22.84904 9.00765,22.71304 11.56165,41.38953 7.36102,53.8283 -2.78018,8.23255 -6.32273,11.62541 -14.69985,14.07869 -14.18461,4.15402 -24.68411,5.03641 -35.7671,3.00591 -7.68969,-1.40881 -21.98074,-5.54047 -25.86299,-7.47719 -2.78829,-1.39098 -3.14615,-1.36918 -4.34073,0.26451 -2.16027,2.95433 -6.22603,17.26967 -7.39504,26.0375 -0.91248,6.84382 -0.80162,10.20055 0.65519,19.83773 3.08709,20.42195 12.71854,36.33473 29.00991,47.92927 9.34455,6.6505 19.36926,10.49579 27.35471,10.49276 8.0582,-0.003 21.99019,-3.57981 33.38697,-8.57141 10.23186,-4.48139 7.54317,-2.88277 27.34185,-16.2566 23.05807,-15.57552 38.43527,-23.07135 56.75396,-27.6655 6.73781,-1.68978 10.24734,-1.43722 5.43789,0.39133 -1.37609,0.52319 -2.72123,1.78963 -2.98919,2.81432 -0.68883,2.63407 -7.87797,4.82455 -9.34872,2.84848 -0.89785,-1.20634 -2.31729,-0.91396 -9.15871,1.88652 -9.40562,3.8501 -13.07448,6.10456 -11.09891,6.82009 2.57788,0.93369 -0.66347,3.9293 -11.17242,10.3254 -9.97923,6.07369 -10.54623,6.28688 -12.79744,4.81183 -2.22899,-1.46049 -2.72456,-1.3205 -9.22157,2.60505 -4.15743,2.51196 -6.6725,4.65271 -6.37551,5.42665 0.69039,1.79912 -11.86798,9.56275 -13.75783,8.50513 -0.86742,-0.48543 -3.20776,-0.004 -5.89667,1.21319 -5.85581,2.6506 -20.29867,6.84804 -23.56323,6.84804 -1.44418,0 -3.35484,0.96356 -4.35165,2.19457 -2.54457,3.14241 -10.60899,3.03889 -18.54353,-0.23803 -5.29895,-2.18843 -6.0049,-2.80686 -6.04197,-5.29295 -0.035,-2.34567 -0.95196,-3.33379 -5.5,-5.92667 -7.39509,-4.216 -16.48045,-13.80241 -22.13046,-23.35095 -4.82252,-8.15008 -9.22581,-17.85154 -10.25796,-22.60067 -0.38598,-1.776 -1.07018,-2.53045 -1.97865,-2.18183 -1.9672,0.75489 -2.48691,-0.48113 -4.13144,-9.82569 -1.80186,-10.23859 -1.81562,-9.77466 0.29048,-9.79309 3.26186,-0.0285 4.43534,-1.70384 5.8198,-8.3085 0.75967,-3.62407 2.91397,-10.44978 4.78734,-15.16824 l 3.40612,-8.57901 -2.83197,-1.46447 c -4.06729,-2.10328 -4.67033,-1.89632 -6.83435,2.34551 -4.93196,9.66745 -7.69205,28.70163 -6.09217,42.01302 1.36964,11.39577 5.40326,25.74361 10.02991,35.677 5.16365,11.08632 5.85752,11.87168 9.32425,10.55363 3.6029,-1.36981 4.51297,-0.78061 9.95692,6.44637 2.48583,3.3 5.49885,7.03893 6.69559,8.30873 1.51027,1.60247 1.994,3.03344 1.5813,4.6778 -0.53105,2.11587 -0.0334,2.57827 4.65633,4.32642 2.88801,1.07654 6.15093,2.18183 7.25093,2.4562 2,0.49885 2,0.49885 0,0.56597 -1.1,0.0369 -4.78684,-1.00564 -8.19299,-2.3168 z M 310.03167,536.0091 c 8.40085,-0.61206 16.2662,-3.20878 20.64041,-6.81438 3.90948,-3.22252 4.42373,-4.89311 2.09989,-6.82172 -0.825,-0.68469 -1.51444,-2.42729 -1.5321,-3.87244 -0.0263,-2.15757 -0.51825,-1.64377 -2.75,2.87244 -4.25698,8.61451 -6.22441,9.27231 -25.7179,8.59867 -17.42384,-0.60212 -28.06182,-2.31416 -34.36721,-5.53092 -4.83913,-2.46874 -5.13279,-2.50123 -5.13279,-0.56775 0,4.16864 -12.12335,-1.04533 -20.75,-8.92409 -4.22519,-3.85889 -4.22519,-6.36147 0,-5.69433 2.16007,0.34106 -0.13399,-1.9458 -6.90325,-6.88158 -4.14868,-3.025 -10.01,-7.85832 -13.02515,-10.74072 -3.01514,-2.8824 -5.31903,-4.9074 -5.11975,-4.5 0.19928,0.4074 1.0067,2.03108 1.79428,3.60819 1.32623,2.65579 1.26883,2.99955 -0.77762,4.65667 l -2.20957,1.7892 9.24553,8.21271 c 12.90916,11.46707 21.03006,16.7687 35.76887,23.35128 6.44801,2.87978 20.82173,6.61935 22.6888,5.90289 0.70832,-0.27181 1.28786,0.0628 1.28786,0.74363 0,0.84458 1.05977,1.06586 3.33582,0.69651 1.8347,-0.29774 3.86837,-0.2122 4.51927,0.19008 1.15241,0.71223 3.99708,0.66606 16.90461,-0.27434 z m 112.2403,47.48994 c 0,-1.89755 7.20078,-2.87391 16,-2.16945 3.53595,0.28309 2.67902,0.50688 -4,1.04462 -4.675,0.3764 -9.2875,1.02825 -10.25,1.44856 -1.06259,0.46402 -1.75,0.33686 -1.75,-0.32373 z m 68.08518,-85.20292 c -2.57638,-1.29096 -7.38933,-7.57335 -8.16275,-10.65492 -1.0176,-4.05445 2.26727,-6.36058 7.95049,-5.58161 4.54106,0.62242 6.1438,2.37127 3.60892,3.93791 -0.73775,0.45595 -0.87705,2.79492 -0.4204,7.05901 0.70092,6.54516 0.46348,6.96318 -2.97626,5.23961 z m -0.086,-8.79906 c -0.64235,-4.84224 -0.85158,-5.15082 -3.29993,-4.86674 -1.989,0.23078 -2.5329,0.78157 -2.27454,2.30331 0.37821,2.22765 5.1074,8.88637 5.81136,8.18242 0.24691,-0.24692 0.14031,-2.77546 -0.23689,-5.61899 z m -212.99918,-13.4693 c 0,-3.91003 2.6212,-7.43356 4.28914,-5.76562 0.69028,0.69028 0.56255,2.21359 -0.39699,4.73471 -1.91529,5.03225 -3.89215,5.55586 -3.89215,1.03091 z m -88.75,-10.6438 c -3.22627,-1.9671 -4.01969,-3.41723 -2.41297,-4.41024 1.1185,-0.69127 4.88958,2.01992 6.19042,4.45056 1.32161,2.46946 0.32137,2.45878 -3.77745,-0.0403 z m -1.29166,-7.29276 c -2.61288,-2.06467 -6.18539,-8.68413 -5.56265,-10.30697 0.3246,-0.8459 1.04336,-1.25791 1.59725,-0.9156 1.5347,0.9485 1.2134,-0.66803 -0.99294,-4.99563 -2.12303,-4.16421 -2.7382,-12.92573 -0.98369,-14.01008 0.55897,-0.34546 0.80923,-0.96318 0.55613,-1.3727 -1.03644,-1.67701 1.78095,-16.28642 5.01996,-26.03064 5.29084,-15.91695 20.02073,-48.17707 27.16483,-59.49406 7.67553,-12.15882 12.06596,-20.67118 10.38673,-20.13821 -0.96189,0.30529 -3.75027,-0.4441 -6.19642,-1.66531 -3.92057,-1.95729 -4.16728,-2.26409 -2.08221,-2.58935 1.30094,-0.20294 2.85344,0.11912 3.45,0.71569 0.59657,0.59656 2.43068,1.08466 4.0758,1.08466 2.74888,0 2.84233,-0.1088 1.15391,-1.34341 -1.64512,-1.20294 -1.28264,-1.40909 3.46659,-1.97156 4.5416,-0.53789 10.97762,-3.18669 20.4787,-8.42819 1.23938,-0.68374 2.81618,-1.92124 3.50399,-2.75 1.02675,-1.23715 0.96019,-1.50684 -0.37187,-1.50684 -2.6356,0 -1.92557,-2.20066 3.74322,-11.60168 5.30878,-8.80398 8.07893,-11.2083 8.87783,-7.70541 0.86806,3.80614 2.85307,-7.01287 2.6556,-14.47392 -0.22499,-8.50052 -1.88837,-16.02747 -4.38339,-19.83536 -1.7768,-2.71173 -5.79361,-4.73033 -6.36942,-3.20088 -0.19454,0.51673 -1.20704,0.16726 -2.25,-0.77661 -2.52124,-2.28168 -2.39384,-1.54827 0.6892,3.96791 1.42203,2.54427 3.27713,4.62595 4.12245,4.62595 1.25279,0 1.30679,0.27732 0.29206,1.5 -0.92769,1.1178 -0.94385,1.5 -0.0634,1.5 0.6498,0 0.95083,0.37318 0.66893,0.82929 -0.28188,0.4561 0.0857,2.8186 0.81692,5.25 3.62012,12.03782 -3.81136,28.42927 -17.41731,38.41696 -5.67418,4.16523 -11.77328,6.71912 -20.16842,8.44517 -3.11483,0.64041 -5.8998,1.78065 -6.18883,2.53386 -0.81238,2.11703 -9.63461,-0.60488 -13.05873,-4.029 -2.23302,-2.23303 -1.03605,-4.02631 6.07396,-9.09991 6.90323,-4.92604 16.10623,-8.34637 22.45739,-8.34637 5.02519,0 5.62146,1.5343 2.94642,7.58167 -1.15014,2.60007 -1.88103,4.93754 -1.6242,5.19436 0.25682,0.25683 2.4933,-0.72056 4.96994,-2.17196 4.35607,-2.55283 6.63756,-6.59477 6.54998,-11.60407 -0.1075,-6.14843 -10.20835,-8.61038 -22.50252,-5.4847 -8.86958,2.25501 -14.33281,5.25546 -13.73457,7.54313 0.54126,2.06977 -9.54114,13.43088 -12.85166,14.4816 -2.65167,0.84161 -2.36397,4.72407 0.61217,8.26102 2.69501,3.20283 11.6455,6.30433 12.32351,4.27031 0.52925,-1.58775 1.95611,-1.3057 4.06545,0.80364 1.03125,1.03125 2.49375,2.09464 3.25,2.3631 0.75625,0.26845 1.12945,0.75775 0.82934,1.08733 -0.30012,0.32957 -1.8606,-0.083 -3.46774,-0.91676 -1.60715,-0.8338 -5.74915,-1.6382 -9.20446,-1.78756 -5.27577,-0.22805 -6.88322,-0.75683 -10.03226,-3.30015 -5.12642,-4.14035 -6.01119,-7.03898 -3.86439,-12.66029 2.51911,-6.59619 8.39871,-12.68948 15.73445,-16.30629 11.09245,-5.46901 15.65162,-6.65787 25.9231,-6.75974 10.73903,-0.1065 14.14692,1.24923 16.35786,6.50749 1.1717,2.78667 1.32798,2.85215 2.80348,1.17453 0.85943,-0.97716 2.57079,-3.78054 3.80303,-6.22972 1.99582,-3.96689 2.18404,-5.49539 1.72399,-14 -0.58694,-10.85021 -2.10898,-15.76373 -7.31056,-23.60024 -4.12396,-6.213 -17.9296,-18.77697 -26.92084,-24.49958 -17.87029,-11.37382 -21.18781,-15.66473 -16.87347,-21.82431 2.03389,-2.90378 4.32586,-2.53971 14.46651,2.29792 8.83593,4.21522 21.81846,13.79593 31.4796,23.23098 15.16804,14.81309 22.66297,37.60896 18.05473,54.91357 -3.33827,12.53571 -11.9666,25.30245 -20.93526,30.97645 -3.27528,2.07209 -4.71851,3.84897 -5.96643,7.34576 -1.63347,4.57709 -13.19767,31.55017 -26.23381,52.70439 -11.34238,18.40568 -8.302,8.61919 -15.01993,31.90812 -4.33538,15.02937 -5.14626,21.09548 -4.74124,35.46893 0.26741,9.48999 0.0513,14.03107 -0.66767,14.03107 -0.58467,0 -1.06303,-1.07686 -1.06303,-2.39301 0,-1.31616 -0.67242,-2.65105 -1.49428,-2.96642 -2.25409,-0.86498 -5.49775,-6.76463 -5.50198,-10.00715 -0.003,-2.51913 0.29928,-2.80865 2.49626,-2.38867 2.29246,0.43823 2.50059,0.17811 2.50707,-3.13342 0.008,-3.96338 2.39956,-20.42755 3.43009,-23.61133 0.35604,-1.1 -0.73047,0.68631 -2.41448,3.96958 -3.81057,7.42937 -4.53399,8.18088 -6.39127,6.63948 -2.30575,-1.9136 -2.92824,0.18575 -3.43523,11.58535 -0.36551,8.21839 -0.10444,11.25729 1.27815,14.87755 0.95562,2.50225 1.49853,4.78852 1.20646,5.08058 -0.29206,0.29207 0.33528,2.55203 1.39409,5.02215 1.05882,2.47012 1.92512,4.67881 1.92512,4.90822 0,0.78165 -1.49657,0.35619 -3.04166,-0.86471 z m 14.16491,-70.25421 c 0.95962,0.34745 2.36305,-1.99492 4.63203,-7.73099 1.83394,-4.63628 2.81635,-8.37579 2.25,-8.56457 -1.32711,-0.44237 -1.27643,-4.09216 0.11213,-8.07539 0.91488,-2.62442 1.57879,-3.1499 3.66295,-2.89922 2.20734,0.2655 3.09011,-0.62385 6.64431,-6.69382 5.9371,-10.13957 6.89145,-12.5 5.05389,-12.5 -0.81321,0 -1.49224,-0.5625 -1.50897,-1.25 -0.0169,-0.69372 -0.48401,-0.47121 -1.04969,0.5 -1.53276,2.63159 -3.20518,2.18867 -1.88797,-0.5 1.00139,-2.04403 0.91161,-2.02114 -0.9808,0.25 -1.99081,2.38924 -3.54128,5.43218 -13.7573,27 -2.47492,5.225 -5.691,11.87377 -7.14684,14.77504 -2.24929,4.48249 -2.42666,5.41293 -1.18053,6.1928 0.90004,0.56327 1.91327,0.54694 2.62325,-0.0423 0.63624,-0.52802 1.77633,-0.73572 2.53354,-0.46155 z m 24.25831,-54.01593 c 0.34149,-0.88992 0.17385,-1.29132 -0.39301,-0.94098 -0.5437,0.33602 -0.98855,1.0344 -0.98855,1.55194 0,1.43843 0.71677,1.12146 1.38156,-0.61096 z m 15.34745,-19.31056 c -1.42159,-0.57004 -3.0251,1.54 -3.32779,4.37901 -0.26831,2.51659 -0.20905,2.49529 1.9776,-0.71109 1.23982,-1.81798 1.8474,-3.46855 1.35019,-3.66792 z m -18.61012,-7.68069 6.61889,-1.60799 2.52858,-5.86027 c 1.39072,-3.22315 2.27472,-6.11414 1.96444,-6.42441 -3.67364,-3.67365 -27.78539,8.96337 -25.98721,13.61995 0.75875,1.96486 7.40819,2.08678 14.8753,0.27272 z m 230.48229,145.63372 c -0.80997,-1.51346 -0.57629,-2.98713 1.00818,-6.35796 2.63379,-5.60314 11.21316,-15.26132 12.72606,-14.3263 1.56269,0.96579 2.59455,8.68459 1.78117,13.32394 -1.26411,7.2102 -12.6939,12.63236 -15.51541,7.36032 z m -73.28388,-14.73718 c -6.60719,-4.53654 -6.07843,-7.37269 4.00471,-21.48011 3.02197,-4.22807 6.13081,-7.93158 6.90854,-8.23002 1.57305,-0.60364 9.35463,2.20787 9.35463,3.37985 0,0.40991 -2.20365,5.19855 -4.89699,10.64142 -2.69335,5.44288 -5.41069,11.80864 -6.03855,14.14614 -1.37517,5.11979 -3.58945,5.48583 -9.33234,1.54272 z m -13.37949,-31.75828 c -2.9071,-2.03621 -6.98011,-12.28361 -5.72698,-14.40863 1.01161,-1.71543 12.49181,-7.72334 15.84434,-8.29178 2.49712,-0.42341 8.53001,8.14856 8.53001,12.12006 0,2.26567 -0.88982,3.20675 -5.25,5.55237 -2.8875,1.55338 -6.32319,3.6499 -7.63486,4.65893 -2.87637,2.21272 -3.10903,2.22762 -5.76251,0.36905 z m 34.87527,-8.79186 c -3.32099,-3.53503 -2.77588,-5.12161 3.16557,-9.21365 5.28691,-3.64123 5.44498,-3.68089 8,-2.00677 1.43359,0.93932 2.60653,2.17907 2.60653,2.75499 0,1.89538 -5.05826,9.72256 -6.29215,9.7365 -0.66432,0.008 -2.1178,0.25818 -3.22995,0.55704 -1.33189,0.3579 -2.78257,-0.2661 -4.25,-1.82811 z m -56.9874,-8.99258 c -1.15947,-1.2375 -3.19689,-4.60352 -4.52761,-7.48004 -1.33071,-2.87652 -2.59799,-5.05152 -2.81618,-4.83333 -0.21819,0.21818 -0.46297,-0.5783 -0.54395,-1.76996 -0.081,-1.19167 -0.6845,-5.54167 -1.34116,-9.66667 -0.65665,-4.125 -0.90119,-9.75 -0.54341,-12.5 0.98075,-7.53837 5.21408,-23.98318 7.13291,-27.70855 2.02186,-3.92542 6.52842,-9.99526 7.04066,-9.48302 0.19958,0.19958 -0.95476,3.02432 -2.5652,6.27722 -5.17217,10.44719 -6.26969,22.50355 -3.59591,39.50148 1.87235,11.90303 3.18957,17.37446 5.04799,20.96825 1.74805,3.38036 1.86969,4.94462 0.3845,4.94462 -0.59778,0 -1.59644,-1.35 -2.21924,-3 -0.62281,-1.65 -1.52219,-3 -1.99863,-3 -0.47644,0 0.29721,2.08168 1.71924,4.62595 1.42202,2.54428 2.58549,4.79428 2.58549,5 0,1.05988 -1.89453,0.11453 -3.7595,-1.87595 z m 46.7595,-6.39857 c 0,-0.5066 2.70346,-0.98699 6.00768,-1.06754 7.76181,-0.1892 16.35789,-2.71757 21.86203,-6.43029 2.40334,-1.62113 4.59643,-2.72079 4.87354,-2.44369 1.36677,1.36678 -1.26049,3.73478 -7.38854,6.65943 -5.68746,2.71437 -8.25613,3.30881 -16.06242,3.71713 -5.34927,0.2798 -9.29229,0.0952 -9.29229,-0.43504 z m -40.39301,-6.93322 c -1.78969,-4.66386 -0.17268,-6.41821 5.91578,-6.41821 3.51261,0 4.73057,1.07751 5.21824,4.61651 0.24069,1.74664 -0.36653,2.22529 -3.47468,2.73899 -5.71465,0.9445 -6.99747,0.78752 -7.65934,-0.93729 z m 31.64301,0.51996 c -1.7875,-0.54745 -3.25,-1.12564 -3.25,-1.28488 0,-0.15924 4.8375,-0.25887 10.75,-0.22141 14.08736,0.0893 22.47686,-2.38953 30.0945,-8.89182 4.91641,-4.19658 7.1555,-4.95207 7.1555,-2.41432 0,2.52265 -5.71087,8.06898 -10.84903,10.53644 -5.07206,2.43572 -6.93152,2.74229 -18.15097,2.99253 -6.875,0.15335 -13.9625,-0.1691 -15.75,-0.71654 z m 45.40499,-26.76691 c -2.03842,-2.25243 -2.13687,-4.17126 -0.21401,-4.17126 0.79254,0 1.74336,-0.48924 2.11292,-1.08721 0.44352,-0.71763 -0.40001,-0.97477 -2.48144,-0.75644 -4.88109,0.51199 -6.24255,-3.68267 -2.24159,-6.90635 4.07618,-3.28429 11.58375,1.11276 12.7791,7.48449 0.5661,3.01758 0.30591,3.91521 -1.57678,5.43972 -2.87923,2.33146 -6.26667,2.33026 -8.3782,-0.003 z m 28.01168,-14.83793 c -1.16025,-1.16024 -0.72435,-3.61211 0.97624,-5.49124 1.56236,-1.72639 1.45393,-1.80379 -2.21143,-1.57874 -3.02035,0.18544 -3.93465,-0.1524 -4.22549,-1.56139 -1.092,-5.29028 5.80618,-6.27423 10.66731,-1.52158 3.32245,3.24832 3.61885,6.31676 0.92386,9.56403 -1.10561,1.33217 -5.01198,1.70744 -6.13049,0.58892 z m 10.49484,-15.44464 c -2.00093,-5.34364 -2.37091,-7.13614 -1.3416,-6.49999 1.30057,0.8038 3.57719,7.54753 2.80773,8.31699 -0.31442,0.31443 -0.97418,-0.50322 -1.46613,-1.817 z m 20.73637,-51.17099 c -4.29839,-2.88716 -5.05746,-6.92275 -1.70826,-9.08195 2.95881,-1.90751 12.66138,-3.68586 13.41926,-2.45957 0.30982,0.50128 0.12134,1.45422 -0.41882,2.11762 -1.62778,1.99916 -3.12368,8.62919 -2.09097,9.26744 1.63869,1.01277 -0.12145,2.43876 -3.01022,2.43876 -1.53621,0 -4.32215,-1.02704 -6.19099,-2.2823 z m 5.66177,-2.9677 c 0.0328,-1.7875 0.41716,-4.03411 0.8541,-4.99247 0.747,-1.63841 0.56429,-1.6478 -3.05965,-0.15724 -5.86369,2.4118 -6.25338,3.22685 -2.8541,5.96938 3.9927,3.2213 4.98844,3.05999 5.05965,-0.81967 z m -82.55965,-18.80902 c 0,-0.58246 -0.44608,-0.78332 -0.99129,-0.44636 -1.02394,0.63282 -12.00871,-9.96286 -12.00871,-11.58334 0,-1.23257 4.67329,-1.1565 7.04861,0.11473 1.05442,0.56431 2.84645,2.92681 3.98231,5.25 l 2.06518,4.22399 -0.62137,-4 c -0.34176,-2.2 -1.50667,-5.51921 -2.58869,-7.37603 -2.33171,-4.00136 -1.6687,-5.35108 1.213,-2.46937 3.16426,3.16425 5.53601,17.3454 2.90096,17.3454 -0.55,0 -1,-0.47656 -1,-1.05902 z m -13.28375,-5.48654 c -2.63106,-2.3872 -7.28341,-5.56334 -10.33856,-7.05808 -4.40027,-2.15285 -5.22225,-2.90384 -3.95473,-3.61318 2.27624,-1.27385 10.23018,3.2807 16.05251,9.19192 5.99088,6.08233 4.60159,7.25059 -1.75922,1.47934 z"
           style="fill:#000000"
           inkscape:connector-curvature="0" />
      </g>
    </g>
  </g>
</svg>
