<?xml version="1.0" encoding="UTF-8" standalone="no"?>
<svg
   xmlns:dc="http://purl.org/dc/elements/1.1/"
   xmlns:cc="http://creativecommons.org/ns#"
   xmlns:rdf="http://www.w3.org/1999/02/22-rdf-syntax-ns#"
   xmlns:svg="http://www.w3.org/2000/svg"
   xmlns="http://www.w3.org/2000/svg"
   xmlns:sodipodi="http://sodipodi.sourceforge.net/DTD/sodipodi-0.dtd"
   xmlns:inkscape="http://www.inkscape.org/namespaces/inkscape"
   viewBox="0 0 529.94586 326.00652"
   height="326.00653"
   width="529.94586"
   xml:space="preserve"
   id="svg2"
   version="1.1"
   sodipodi:docname="megaman_red.svg"
   inkscape:version="0.92.4 (5da689c313, 2019-01-14)"><sodipodi:namedview
     pagecolor="#ffffff"
     bordercolor="#666666"
     borderopacity="1"
     objecttolerance="10"
     gridtolerance="10"
     guidetolerance="10"
     inkscape:pageopacity="0"
     inkscape:pageshadow="2"
     inkscape:window-width="1366"
     inkscape:window-height="715"
     id="namedview63"
     showgrid="false"
     fit-margin-top="0"
     fit-margin-left="0"
     fit-margin-right="0"
     fit-margin-bottom="0"
     inkscape:zoom="0.21021376"
     inkscape:cx="-675.91591"
     inkscape:cy="518.13926"
     inkscape:window-x="-8"
     inkscape:window-y="22"
     inkscape:window-maximized="1"
     inkscape:current-layer="svg2" /><metadata
     id="metadata8"><rdf:RDF><cc:Work
         rdf:about=""><dc:format>image/svg+xml</dc:format><dc:type
           rdf:resource="http://purl.org/dc/dcmitype/StillImage" /><dc:title /></cc:Work></rdf:RDF></metadata><defs
     id="defs6"><clipPath
       id="clipPath14"
       clipPathUnits="userSpaceOnUse"><path
         id="path12"
         d="M 9,-25 H 604 V 817 H 9 Z"
         inkscape:connector-curvature="0" /></clipPath></defs><g
     clip-path="url(#clipPath14)"
     transform="matrix(1.3333333,0,0,-1.3333333,-216.41866,335.86719)"
     id="g10"><path
       id="path16"
       style="fill:#878787;fill-opacity:1;fill-rule:nonzero;stroke:#000000;stroke-width:2;stroke-linecap:butt;stroke-linejoin:miter;stroke-miterlimit:2;stroke-dasharray:none;stroke-opacity:1"
       d="m 437.4805,113.1621 c -30.666,0 -31,-0.334 -84.333,-32 l -23,17.666 c 39,22.334 54,34 65.667,52.334 5.8935,9.2617 16.8535,36.9317 16.8535,36.9317 l 37.1699,11.33 27.125,8.2676 12.1855,-9.1973 -7,-38.332 c 0,0 -14.3339,2.333 -17.6679,0 -3.3321,-2.334 -21,-19.668 -8.666,-22.334 14.666,-8 20.332,-11.334 20,-28.334"
       inkscape:connector-curvature="0" /><path
       id="path18"
       style="fill:#f40b06;fill-opacity:1;fill-rule:nonzero;stroke:#000000;stroke-width:1;stroke-linecap:butt;stroke-linejoin:miter;stroke-miterlimit:4;stroke-dasharray:none;stroke-opacity:1"
       d="m 453.4805,147.8281 c 0,0 -0.166,-6 -1.8321,-7 -15.6679,-6.666 -41.8339,-8 -56.1679,11.666 l 3.667,6.668 c 16.333,-14.668 46.0009,-12 54.333,-11.334 z"
       inkscape:connector-curvature="0" /><path
       id="path20"
       style="fill:#f40b06;fill-opacity:1;fill-rule:nonzero;stroke:#000000;stroke-width:1;stroke-linecap:butt;stroke-linejoin:miter;stroke-miterlimit:4;stroke-dasharray:none;stroke-opacity:1"
       d="m 537.8145,246.4951 c -18.334,0 -74,-53 -74,-114.333 0,-61.334 22.3339,-68.334 26,-68.334 13,0 65.3339,53.666 65.3339,119 0,52.667 -11.3339,63.667 -17.3339,63.667 z"
       inkscape:connector-curvature="0" /><path
       id="path22"
       style="fill:#ffffff;fill-opacity:1;fill-rule:nonzero;stroke:none"
       d="m 539.2734,238.6201 c -11.3339,0 -66.3339,-38.001 -66.3339,-111.001 0,-45.666 13.666,-57.332 22,-57.332 8.3339,0 64.3339,43.3311 64.3339,109.332 0,53.334 -20,59.001 -20,59.001 z"
       inkscape:connector-curvature="0" /><path
       id="path24"
       style="fill:#bfbbbb;fill-opacity:1;fill-rule:nonzero;stroke:none"
       d="m 472.8145,127.4941 c 0,-45.666 13.666,-57.332 22,-57.332 8.3339,0 64.3339,43.3311 64.3339,109.332 0,3.334 -0.0781,6.4805 -0.2246,9.4522 -2.1972,44.5674 -19.7754,49.5488 -19.7754,49.5488 -3.3144,0 -10.3574,-3.2471 -18.6679,-9.666 0,0 18.8613,-26.4053 2,-72.335 -9.666,-26.332 -26.3321,-39 -32.3321,-39 -14.8496,0 -17.3339,11.4747 -17.3339,10 z"
       inkscape:connector-curvature="0" /><path
       id="path26"
       style="fill:#bf0d00;fill-opacity:1;fill-rule:nonzero;stroke:#000000;stroke-width:1;stroke-linecap:butt;stroke-linejoin:miter;stroke-miterlimit:4;stroke-dasharray:none;stroke-opacity:1"
       d="m 558.6348,195.6172 c -0.2285,3.749 -0.7676,7.6103 -1.211,7.6103 -15.7617,0 -33.5351,1.3311 -38.2304,3.9932 0,0 -9.0547,1.002 -9.0547,-10.9805 0,-8.5 20.7187,-7.6855 47.207,-7.6543 0.4707,0 1.7852,-0.081 1.7852,-0.081 0,0 -0.2793,3.5459 -0.4961,7.1123 z"
       inkscape:connector-curvature="0" /><path
       id="path28"
       style="fill:#000000;fill-opacity:1;fill-rule:nonzero;stroke:#000000;stroke-width:1;stroke-linecap:butt;stroke-linejoin:miter;stroke-miterlimit:4;stroke-dasharray:none;stroke-opacity:1"
       d="m 558.4395,196.1621 c -7,0 -29.5,2 -31.834,3.5 -2.3321,1.5 -5.3321,-0.834 -3.3321,-2.834 2,-2 21.3321,-3.834 35.3321,-3.834"
       inkscape:connector-curvature="0" /><path
       id="path30"
       style="fill:none;stroke:#000000;stroke-width:1;stroke-linecap:butt;stroke-linejoin:miter;stroke-miterlimit:4;stroke-dasharray:none;stroke-opacity:1"
       d="m 539.2734,238.6201 c -11.3339,0 -66.3339,-38.001 -66.3339,-111.001 0,-45.666 13.666,-57.332 22,-57.332 8.3339,0 64.3339,43.3311 64.3339,109.332 0,53.334 -20,59.001 -20,59.001 z"
       inkscape:connector-curvature="0" /><path
       id="path32"
       style="fill:#f40b06;fill-opacity:1;fill-rule:nonzero;stroke:#000000;stroke-width:1;stroke-linecap:butt;stroke-linejoin:miter;stroke-miterlimit:4;stroke-dasharray:none;stroke-opacity:1"
       d="m 477.7266,118.418 c -19.9766,0 -55.6348,-0.3741 -73.9307,-18.67 -14.5615,-14.5625 -13.8154,-25.5771 -13.8154,-33.9785 0,-30.2441 17.9228,-57.874 26.6972,-57.874 10.6416,0 42.1934,31.7373 42.1934,49.4736 0,0 28.5625,10.8282 28.5625,50.7803 0,12.5088 -5.2266,10.2686 -9.707,10.2686 z"
       inkscape:connector-curvature="0" /><path
       id="path34"
       style="fill:#c90905;fill-opacity:1;fill-rule:nonzero;stroke:#c90905;stroke-width:1;stroke-linecap:butt;stroke-linejoin:miter;stroke-miterlimit:4;stroke-dasharray:none;stroke-opacity:1"
       d="m 408.4063,13.1113 c 3.0605,-3.3281 5.9785,-5.2158 8.2714,-5.2158 10.6416,0 42.1934,31.7373 42.1934,49.4736 0,0 28.5625,10.8282 28.5625,50.7803 0,12.5088 -5.2266,10.2686 -9.707,10.2686 -2.2578,0 -3.2168,-0.006 -5.8282,-0.041 2.25,-23.5489 -17,-68.5489 -62.7509,-54.5489 22.1611,-8.0234 30.5,-12.75 27.25,-25 -3.7032,-13.959 -8.2862,-20.042 -18.25,-27.75 -4,0 -9.7412,2.0332 -9.7412,2.0332 z"
       inkscape:connector-curvature="0" /><path
       id="path36"
       style="fill:#000000;fill-opacity:1;fill-rule:nonzero;stroke:#000000;stroke-width:1;stroke-linecap:butt;stroke-linejoin:miter;stroke-miterlimit:4;stroke-dasharray:none;stroke-opacity:1"
       d="m 458.8711,57.3691 c -3.4121,0 -12.8887,-0.3291 -22.3906,0.709 -11.6563,1.2735 -23.4297,4.0352 -25.083,5 3.5634,-1.4424 11.2177,-5.1767 24.5,-7.084 6.2822,-0.9013 13.8877,-0.5722 22.7998,-0.9179 z"
       inkscape:connector-curvature="0" /><path
       id="path38"
       style="fill:none;stroke:#000000;stroke-width:1;stroke-linecap:butt;stroke-linejoin:miter;stroke-miterlimit:4;stroke-dasharray:none;stroke-opacity:1"
       d="m 477.7266,118.418 c -19.9766,0 -55.6348,-0.3741 -73.9307,-18.67 -14.5615,-14.5625 -13.8154,-25.5771 -13.8154,-33.9785 0,-30.2441 17.9228,-57.874 26.6972,-57.874 10.6416,0 42.1934,31.7373 42.1934,49.4736 0,0 28.5625,10.8282 28.5625,50.7803 0,12.5088 -5.2266,10.2686 -9.707,10.2686 z"
       inkscape:connector-curvature="0" /><path
       id="path40"
       style="fill:#ffffff;fill-opacity:1;fill-rule:nonzero;stroke:#ffffff;stroke-width:1;stroke-linecap:butt;stroke-linejoin:miter;stroke-miterlimit:4;stroke-dasharray:none;stroke-opacity:1"
       d="m 430.8975,97.3281 c 3.499,2.751 9.0439,6.3301 9.25,9 0.4033,5.2344 -1.5,5 -5,5 -3.5,0 -17.5,-8.5 -18.75,-22 3,-2 11.0009,5.249 14.5,8 z"
       inkscape:connector-curvature="0" /><path
       id="path42"
       style="fill:#f40b06;fill-opacity:1;fill-rule:nonzero;stroke:#000000;stroke-width:1;stroke-linecap:butt;stroke-linejoin:miter;stroke-miterlimit:4;stroke-dasharray:none;stroke-opacity:1"
       d="m 352.1475,108.1621 c -104.6665,0 -189.3335,-75.334 -189.3335,-86.334 0,-6.666 47.0005,-11.666 52.667,-11.666 89.6665,0 153.3335,69.332 153.3335,90.666 0,6.334 -8.334,7.334 -16.667,7.334 z"
       inkscape:connector-curvature="0" /><path
       id="path44"
       style="fill:#c90905;fill-opacity:1;fill-rule:nonzero;stroke:none"
       d="m 240.0645,49.7773 c 0,-1.666 11.75,-2.916 13.1665,-2.916 22.4165,0 38.3335,17.3321 38.3335,22.666 0,1.2852 -1.3711,1.6915 -3.001,1.7989 0,0 1.834,-0.7158 1.834,-1.6328 0,-3.9161 -19.6353,-14.5411 -26.9688,-14.5411 -3.1665,0 -5.2812,5.2911 -5.2812,5.2911 0,0 2.8545,-5.8848 -0.5313,-7.4786 -2.7329,-1.2871 -12.8017,-3.0214 -16.4687,-3.0214 z"
       inkscape:connector-curvature="0" /><path
       id="path46"
       style="fill:#000000;fill-opacity:1;fill-rule:nonzero;stroke:none"
       d="m 278.8975,22.3281 c -7.2681,0 -26.75,-0.706 -26.75,7.8125 2.0776,-1.3457 7.851,-6.3125 22.5,-6.3125 12.75,0 4.25,-1.5 4.25,-1.5 z"
       inkscape:connector-curvature="0" /><path
       id="path48"
       style="fill:#000000;fill-opacity:1;fill-rule:nonzero;stroke:none"
       d="m 279.5225,25.5781 c -4.625,0 -22.9375,0.0625 -28.625,12.625 11.9296,-9.7187 25.2158,-11.1777 28.6875,-10.8125 0.9375,0 0.625,-1.8125 -0.0625,-1.8125 z"
       inkscape:connector-curvature="0" /><path
       id="path50"
       style="fill:#000000;fill-opacity:1;fill-rule:nonzero;stroke:none"
       d="m 242.2725,81.7031 c -0.524,-0.6054 -0.9024,-1.1133 -1.2095,-1.6035 -1.9053,-3.0332 -2.7905,-4.418 -2.7905,-11.5215 0,-8.25 2.5625,-13.5625 7,-18 0,0 -5.25,5.25 -5.25,18 0,6.125 3.25,13.625 4.875,14.5 z"
       inkscape:connector-curvature="0" /><path
       id="path52"
       style="fill:#000000;fill-opacity:1;fill-rule:nonzero;stroke:none"
       d="m 234.3975,78.0781 c -1.6875,-4.1875 -3.5,-10.375 1.1875,-18.25 -2.3125,6.5 0.25,18.5625 2,19.8125 z"
       inkscape:connector-curvature="0" /><path
       id="path54"
       style="fill:#ffffff;fill-opacity:1;fill-rule:nonzero;stroke:#ffffff;stroke-width:1;stroke-linecap:butt;stroke-linejoin:miter;stroke-miterlimit:4;stroke-dasharray:none;stroke-opacity:1"
       d="m 226.9976,71.4434 c -5.9668,-3.0743 -25.503,-12.7657 -35.6001,-24.2403 14.2397,9.4121 30.5195,17.0996 38.9663,20.3711 2.33,0.9033 0.3882,5.8028 -3.3662,3.8692 z"
       inkscape:connector-curvature="0" /><path
       id="path56"
       style="fill:#ffffff;fill-opacity:1;fill-rule:nonzero;stroke:none"
       d="m 244.2725,79.5781 c 19.7309,10.0391 48.75,21.25 67.625,21.375 -22.5,-5.75 -52.9341,-17.2109 -64.75,-26.125 -2.5,-2 -6.625,2.375 -2.875,4.75 z"
       inkscape:connector-curvature="0" /><path
       id="path58"
       style="fill:none;stroke:#000000;stroke-width:1;stroke-linecap:butt;stroke-linejoin:miter;stroke-miterlimit:4;stroke-dasharray:none;stroke-opacity:1"
       d="m 352.1475,108.1621 c -104.6665,0 -189.3335,-75.334 -189.3335,-86.334 0,-6.666 47.0005,-11.666 52.667,-11.666 89.6665,0 153.3335,69.332 153.3335,90.666 0,6.334 -8.334,7.334 -16.667,7.334 z"
       inkscape:connector-curvature="0" /><path
       id="path60"
       style="fill:#ffee00;fill-opacity:1;fill-rule:nonzero;stroke:#000000;stroke-width:1;stroke-linecap:butt;stroke-linejoin:miter;stroke-miterlimit:4;stroke-dasharray:none;stroke-opacity:1"
       d="m 208.0215,199.4346 c 27,0 51.6665,-3.9991 81.6665,3.667 0.3335,7.666 -31.065,40.2461 -34.6665,43 0,0 8.6665,-4.667 14,-6 5.3335,-1.334 98.082,-14.6407 106.666,-24.667 8.0459,-9.3955 8,-8.333 10.334,-8.667 l 11.1875,-0.2617 3.9941,-14.0469 c 0,0 -72.0556,-27.2969 -82.2226,-27.2969 -10.166,0 -45.9165,-6.918 -62.4995,9.666 -16.5835,16.584 -48.4595,24.6065 -48.4595,24.6065 z"
       inkscape:connector-curvature="0" /><path
       id="path62"
       style="fill:#f9cf1c;fill-opacity:1;fill-rule:nonzero;stroke:none"
       d="m 372.4805,201.9941 c -12.8907,-10.8574 -49.6143,-36.832 -53.5,-36.832 -10.166,0 -45.9165,-6.918 -62.4995,9.666 -4.146,4.1465 -9.2476,7.7569 -14.5679,10.8408 0,0 14.4009,-3.5068 30.7339,-3.5068 16.334,0 34.6323,2.2598 35.3335,3.5 2.166,3.832 -41.6665,8.832 -37.3252,13.916 6.1421,0.7246 12.4594,1.8438 19.0327,3.5235 0.3335,7.666 -31.065,40.2461 -34.6665,43 0,0 32.2925,-25.1075 46.9595,-25.1075 3.166,0 0.333,-11.5 6.8335,-13.5 6.5,-2 15.332,-8.666 22.832,-7.332 -8.832,3.832 -21,7.332 -21.332,12.666 -0.334,5.334 8.165,7.166 19,7.166 -15.5,-3.832 -15.5,-14.5 41.832,-14.5 0,0 5.0312,-0.3847 1.334,-3.5 z"
       inkscape:connector-curvature="0" /><path
       id="path64"
       style="fill:none;stroke:#000000;stroke-width:1;stroke-linecap:butt;stroke-linejoin:miter;stroke-miterlimit:4;stroke-dasharray:none;stroke-opacity:1"
       d="m 208.0215,199.4346 c 27,0 51.6665,-3.9991 81.6665,3.667 0.3335,7.666 -31.065,40.2461 -34.6665,43 0,0 8.6665,-4.667 14,-6 5.3335,-1.334 98.082,-14.6407 106.666,-24.667 8.0459,-9.3955 8,-8.333 10.334,-8.667 l 10.7969,-0.2617 4.3847,-14.0469 c 0,0 -72.0556,-27.2969 -82.2226,-27.2969 -10.166,0 -45.9165,-6.918 -62.4995,9.666 -16.5835,16.584 -48.4595,24.6065 -48.4595,24.6065 z"
       inkscape:connector-curvature="0" /><path
       id="path66"
       style="fill:#000000;fill-opacity:1;fill-rule:nonzero;stroke:#000000;stroke-width:1;stroke-linecap:butt;stroke-linejoin:miter;stroke-miterlimit:4;stroke-dasharray:none;stroke-opacity:1"
       d="m 333.4395,188.4844 c -10.334,0 -43.5855,10.3301 -43.7925,14.5761 0.1259,-4.1201 34.1255,-16.6679 42.7925,-15.2734 8.666,1.3945 1,0.6973 1,0.6973 z"
       inkscape:connector-curvature="0" /><path
       id="path68"
       style="fill:#000000;fill-opacity:1;fill-rule:nonzero;stroke:#000000;stroke-width:1;stroke-linecap:round;stroke-linejoin:round;stroke-miterlimit:51;stroke-dasharray:none;stroke-opacity:1"
       d="m 341.1475,199.9941 c -8.167,0 -37.5,8.834 -29.167,16 -9.1665,-8.5 24,-17.666 28.667,-17.832 4.667,-0.168 0.5,1.832 0.5,1.832 z"
       inkscape:connector-curvature="0" /><path
       id="path70"
       style="fill:#878787;fill-opacity:1;fill-rule:nonzero;stroke:#000000;stroke-width:1;stroke-linecap:butt;stroke-linejoin:miter;stroke-miterlimit:2;stroke-dasharray:none;stroke-opacity:1"
       d="m 393.5264,215.3564 c -2.9287,0.1114 -4.545,-2.1171 -4.545,-5.5703 0,-3.4541 3.5,-15.8213 3.5,-15.8213 h 6.1954 v 21.0567 z"
       inkscape:connector-curvature="0" /><path
       id="path72"
       style="fill:#ffffff;fill-opacity:1;fill-rule:nonzero;stroke:none"
       d="m 392.665,203.3428 c 1.2188,1.6142 0.9512,11.5136 0.9512,11.5136 -2.9287,0.1006 -3.6348,-1.9189 -3.6348,-5.0498 0,-3.1308 1.8604,-7.7871 1.8604,-7.7871 0,0 -0.3955,-0.291 0.8232,1.3233 z"
       inkscape:connector-curvature="0" /><path
       id="path74"
       style="fill:#ffffff;fill-opacity:1;fill-rule:nonzero;stroke:#ffffff;stroke-width:1;stroke-linecap:butt;stroke-linejoin:miter;stroke-miterlimit:4;stroke-dasharray:none;stroke-opacity:1"
       d="m 399.5273,227.4736 v -23.9267 l 36.8399,-11.9639 39.9062,12.2451 -0.5976,25.5449 -40.6387,6.4561 z"
       inkscape:connector-curvature="0" /><path
       id="path76"
       style="fill:#e5a14e;fill-opacity:1;fill-rule:nonzero;stroke:#000000;stroke-width:1;stroke-linecap:butt;stroke-linejoin:miter;stroke-miterlimit:4;stroke-dasharray:none;stroke-opacity:1"
       d="m 454.7871,179.1445 c 0,-6.1347 -7.8223,-11.1093 -17.4707,-11.1093 -9.6484,0 -17.4707,4.9746 -17.4707,11.1093 0,6.1348 7.8223,11.1094 17.4707,11.1094 9.6484,0 17.4707,-4.9746 17.4707,-11.1094 z"
       inkscape:connector-curvature="0" /><path
       id="path78"
       style="fill:#000000;fill-opacity:1;fill-rule:nonzero;stroke:#000000;stroke-width:1;stroke-linecap:butt;stroke-linejoin:miter;stroke-miterlimit:4;stroke-dasharray:none;stroke-opacity:1"
       d="m 406.9326,208.2939 v -14.622 c 0,0 5.3174,-11.0137 15.3819,-11.0137 12.1533,5.127 9.875,5.3164 14.0527,5.3164 4.3672,0 6.4551,-3.2285 11.584,-3.2285 5.1269,0 13.8613,2.4687 19.9394,11.7734 2.2774,4.7481 1.709,13.1035 1.709,13.1035 l -32.6631,-15.0019 z"
       inkscape:connector-curvature="0" /><path
       id="path80"
       style="fill:#999999;fill-opacity:1;fill-rule:nonzero;stroke:#999999;stroke-width:1;stroke-linecap:butt;stroke-linejoin:miter;stroke-miterlimit:4;stroke-dasharray:none;stroke-opacity:1"
       d="m 420.4717,202 v -18.1045 h 3.2412 v 16.6084"
       inkscape:connector-curvature="0" /><path
       id="path82"
       style="fill:#ffffff;fill-opacity:1;fill-rule:nonzero;stroke:#ffffff;stroke-width:1;stroke-linecap:butt;stroke-linejoin:miter;stroke-miterlimit:4;stroke-dasharray:none;stroke-opacity:1"
       d="m 416.7715,203.4238 v -17.9013 h 3.6465 v 16.3046"
       inkscape:connector-curvature="0" /><path
       id="path84"
       style="fill:#ffee00;fill-opacity:1;fill-rule:nonzero;stroke:#000000;stroke-width:1;stroke-linecap:butt;stroke-linejoin:miter;stroke-miterlimit:4;stroke-dasharray:none;stroke-opacity:1"
       d="m 420.7949,178.29 c 5.9824,-5.9814 9.6856,-8.3554 15.9512,-8.3554 6.2676,0 11.9648,5.1269 14.8125,7.7861 l 11.0137,0.3789 c 0,0 0,0.7598 0,-2.8476 0,-3.6084 -7.2149,-13.8633 -24.4961,-13.8633 -17.2813,0 -21.6485,9.4961 -21.6485,15.0019 z"
       inkscape:connector-curvature="0" /><path
       id="path86"
       style="fill:#f40b06;fill-opacity:1;fill-rule:nonzero;stroke:#000000;stroke-width:1;stroke-linecap:butt;stroke-linejoin:miter;stroke-miterlimit:4;stroke-dasharray:none;stroke-opacity:1"
       d="m 438.4551,251.4004 c -19.5586,0 -44.4356,-10.8242 -44.4356,-34.1816 0,-23.3575 18.6094,-47.0938 29.0547,-47.0938 v 12.9121 c 0,0 -23.5469,21.458 -23.5469,33.9922 0,8.5449 1.8985,8.7344 1.8985,8.7344 0,0 9.3047,-15.7608 20.5088,-15.7608 5.5068,0 13.4824,21.8379 13.4824,21.8379 0,0 8.9248,-22.0283 13.4834,-22.0283 5.8867,0 24.4961,14.4336 24.4961,19.5605 0,0 1.9004,0.379 1.9004,-11.9648 0,-10.2539 -17.4727,-33.041 -24.877,-33.041 v -14.0527 c 3.418,0 30.3828,18.9892 30.3828,46.7148 0,27.7246 -22.7871,34.3711 -42.3476,34.3711 z"
       inkscape:connector-curvature="0" /><path
       id="path88"
       style="fill:#ffffff;fill-opacity:1;fill-rule:nonzero;stroke:#000000;stroke-width:1;stroke-linecap:butt;stroke-linejoin:miter;stroke-miterlimit:4;stroke-dasharray:none;stroke-opacity:1"
       d="m 431.8086,179.6191 c 1.709,-3.038 0.5703,-2.2793 6.457,-2.2793 5.8867,0 7.9766,0.1895 7.9766,1.709 0.7598,3.0391 -1.9004,4.3682 -1.9004,4.3682 -3.2266,-4.9365 -12.5332,-3.7979 -12.5332,-3.7979 z"
       inkscape:connector-curvature="0" /><path
       id="path90"
       style="fill:none;stroke:#000000;stroke-width:1;stroke-linecap:butt;stroke-linejoin:miter;stroke-miterlimit:4;stroke-dasharray:none;stroke-opacity:1"
       d="m 435.1475,186.9941 c -0.167,-2.332 -1.833,-3.332 -1,-4.666 0.833,-1.334 1,-0.667 2.5,-0.834"
       inkscape:connector-curvature="0" /><path
       id="path92"
       style="fill:#ffffff;fill-opacity:1;fill-rule:nonzero;stroke:#ffffff;stroke-width:1;stroke-linecap:butt;stroke-linejoin:miter;stroke-miterlimit:4;stroke-dasharray:none;stroke-opacity:1"
       d="m 448.9766,199.5283 v -14.3642 l 2.1269,0.2265 1.8242,0.5069 v 15.5244 z"
       inkscape:connector-curvature="0" /><path
       id="path94"
       style="fill:#999999;fill-opacity:1;fill-rule:nonzero;stroke:#999999;stroke-width:1;stroke-linecap:butt;stroke-linejoin:miter;stroke-miterlimit:4;stroke-dasharray:none;stroke-opacity:1"
       d="m 456.4727,203.2217 v -16.1328 l -1.7364,-0.8946 -1.8086,-0.4218 v 15.8759"
       inkscape:connector-curvature="0" /><path
       id="path96"
       style="fill:#878787;fill-opacity:1;fill-rule:nonzero;stroke:#000000;stroke-width:1;stroke-linecap:butt;stroke-linejoin:miter;stroke-miterlimit:2;stroke-dasharray:none;stroke-opacity:1"
       d="m 481.7139,215.1426 c 3.5361,0 4.6611,0.1611 4.6611,-9.8047 0,-9.9658 -4.501,-17.1992 -14.7881,-17.1992 0,0 0,5.7851 0,10.1259 0,4.3409 4.0195,16.878 10.127,16.878 z"
       inkscape:connector-curvature="0" /><path
       id="path98"
       style="fill:#ffffff;fill-opacity:1;fill-rule:nonzero;stroke:none"
       d="m 481.9639,213.6426 c 3.5361,0 0.4824,-5.1446 -1.125,-8.5196 -1.6075,-3.375 -4.1797,-4.3281 -4.1797,-1.9287 -0.4824,5.3047 -0.4815,10.4483 5.3047,10.4483 z"
       inkscape:connector-curvature="0" /><path
       id="path100"
       style="fill:none;stroke:#ffffff;stroke-width:2;stroke-linecap:butt;stroke-linejoin:miter;stroke-miterlimit:2;stroke-dasharray:none;stroke-opacity:1"
       d="m 483.6602,203.998 c -3.2149,0 -3.1084,-8.5908 -3.2686,-10.1982"
       inkscape:connector-curvature="0" /><path
       id="path102"
       style="fill:none;stroke:#000000;stroke-width:1;stroke-linecap:butt;stroke-linejoin:miter;stroke-miterlimit:2;stroke-dasharray:none;stroke-opacity:1"
       d="m 483.3213,206.3018 c -3.2149,0 -4.0195,-11.8946 -4.1797,-13.502"
       inkscape:connector-curvature="0" /><path
       id="path104"
       style="fill:#f40b06;fill-opacity:1;fill-rule:nonzero;stroke:#000000;stroke-width:1;stroke-linecap:butt;stroke-linejoin:miter;stroke-miterlimit:4;stroke-dasharray:none;stroke-opacity:1"
       d="m 408.8975,172.3281 c 0,-17.5351 -17.5166,-31.75 -39.125,-31.75 -21.6084,0 -39.125,14.2149 -39.125,31.75 0,17.5352 17.5166,31.75 39.125,31.75 21.6084,0 39.125,-14.2148 39.125,-31.75 z"
       inkscape:connector-curvature="0" /><path
       id="path106"
       style="fill:#f40b06;fill-opacity:1;fill-rule:nonzero;stroke:#000000;stroke-width:1;stroke-linecap:butt;stroke-linejoin:miter;stroke-miterlimit:4;stroke-dasharray:none;stroke-opacity:1"
       d="m 403.1475,167.4531 c 0,-19.3984 -19.9229,-35.125 -44.5,-35.125 -24.5772,0 -44.5,15.7266 -44.5,35.125 0,19.3985 19.9228,35.125 44.5,35.125 24.5771,0 44.5,-15.7265 44.5,-35.125 z"
       inkscape:connector-curvature="0" /><path
       id="path108"
       style="fill:#545454;fill-opacity:1;fill-rule:nonzero;stroke:#000000;stroke-width:1;stroke-linecap:butt;stroke-linejoin:miter;stroke-miterlimit:4;stroke-dasharray:none;stroke-opacity:1"
       d="m 378.1475,164.2031 c 0,-10.5625 -11.0811,-19.125 -24.75,-19.125 -13.669,0 -24.75,8.5625 -24.75,19.125 0,4.5391 2.0468,8.709 5.4658,11.9893 4.5371,4.3515 11.4902,7.1357 19.2842,7.1357 13.6689,0 24.75,-8.5625 24.75,-19.125 z"
       inkscape:connector-curvature="0" /><path
       id="path110"
       style="fill:#000000;fill-opacity:1;fill-rule:nonzero;stroke:#000000;stroke-width:1;stroke-linecap:butt;stroke-linejoin:miter;stroke-miterlimit:4;stroke-dasharray:none;stroke-opacity:1"
       d="m 361.2725,161.2031 c 0,-5.247 -5.6807,-9.5 -12.6875,-9.5 -7.0069,0 -12.6875,4.253 -12.6875,9.5 0,5.2471 5.6806,9.5 12.6875,9.5 7.0068,0 12.6875,-4.2529 12.6875,-9.5 z"
       inkscape:connector-curvature="0" /><path
       id="path112"
       style="fill:#1e9109;fill-opacity:1;fill-rule:nonzero;stroke:#000000;stroke-width:1;stroke-linecap:butt;stroke-linejoin:miter;stroke-miterlimit:4;stroke-dasharray:none;stroke-opacity:1"
       d="m 356.4805,162.4531 c 0,-3.3359 -3.3575,-6.041 -7.5,-6.041 -4.1426,0 -7.5,2.7051 -7.5,6.041 0,3.336 3.3574,6.041 7.5,6.041 4.1425,0 7.5,-2.705 7.5,-6.041 z"
       inkscape:connector-curvature="0" /><path
       id="path114"
       style="fill:#fff01f;fill-opacity:1;fill-rule:nonzero;stroke:#000000;stroke-width:1;stroke-linecap:butt;stroke-linejoin:miter;stroke-miterlimit:4;stroke-dasharray:none;stroke-opacity:1"
       d="m 358.2725,147.1094 c 0,-0.6563 -0.5323,-1.1875 -1.1875,-1.1875 h -9.4063 c -0.6553,0 -1.1875,0.5312 -1.1875,1.1875 v 0 c 0,0.6562 0.5322,1.1875 1.1875,1.1875 h 9.4063 c 0.6552,0 1.1875,-0.5313 1.1875,-1.1875 z"
       inkscape:connector-curvature="0" /><path
       id="path116"
       style="fill:#fff01f;fill-opacity:1;fill-rule:nonzero;stroke:#000000;stroke-width:1;stroke-linecap:butt;stroke-linejoin:miter;stroke-miterlimit:4;stroke-dasharray:none;stroke-opacity:1"
       d="m 375.7305,156.1621 c -9.25,0 -12.333,0.5 -12.333,-4.5 0,-3.668 2.25,-4.168 3.417,-3.5 2.8173,1.6104 7.666,5.083 8.916,8"
       inkscape:connector-curvature="0" /><path
       id="path118"
       style="fill:#fff01f;fill-opacity:1;fill-rule:nonzero;stroke:#000000;stroke-width:1;stroke-linecap:round;stroke-linejoin:miter;stroke-miterlimit:4;stroke-dasharray:none;stroke-opacity:1"
       d="m 378.0645,164.4121 c 0,-2.5 -0.917,-5 -0.917,-5 0,0 -0.751,-0.875 -4.167,-0.875 -3.416,0 -5.083,0.875 -5.083,0.875 0,0 -1.376,2.25 -1.376,5.416 10e-4,3.166 1.459,4.916 1.459,4.916 0,0 1.834,1.167 4.584,1.167 2.75,0 4.583,-1.333 4.583,-1.333 0,0 0.917,-2.666 0.917,-5.166 z"
       inkscape:connector-curvature="0" /><path
       id="path120"
       style="fill:#fff01f;fill-opacity:1;fill-rule:nonzero;stroke:#000000;stroke-width:1;stroke-linecap:butt;stroke-linejoin:miter;stroke-miterlimit:4;stroke-dasharray:none;stroke-opacity:1"
       d="m 375.1475,173.1621 c -8.333,0 -17.833,2.25 -17.833,6.25 0,4 5.166,2.582 5.166,2.582 0,0 4.75,-1.582 6.667,-2.916 1.0302,-0.7168 3.0615,-2.373 4.374,-3.751 1.1279,-1.1855 1.626,-2.165 1.626,-2.165"
       inkscape:connector-curvature="0" /><path
       id="path122"
       style="fill:#fff01f;fill-opacity:1;fill-rule:nonzero;stroke:#000000;stroke-width:1;stroke-linecap:butt;stroke-linejoin:miter;stroke-miterlimit:4;stroke-dasharray:none;stroke-opacity:1"
       d="m 353.9805,178.5371 c -1.5987,-1.1738 -3.5938,-1.418 -5.666,-1.418 -5,0 -8.5,0.917 -8.584,3 -0.006,0.1622 2.4883,1.0176 3.2929,1.3184 0.5508,0.207 1.9512,0.7363 3.6465,1.1309 0.3281,0.0761 1.3965,0.2627 2.7676,0.4287 0.5352,0.0654 1.6592,0.2383 2.8164,0.2763 0.6211,0.0215 1.7344,0.0674 2.7402,0 1.4395,-0.0957 2.7364,-0.3203 2.7364,-0.3203 0,0 -1.4903,-2.7588 -3.75,-4.416 z"
       inkscape:connector-curvature="0" /><path
       id="path124"
       style="fill:#fff01f;fill-opacity:1;fill-rule:nonzero;stroke:#000000;stroke-width:1;stroke-linecap:butt;stroke-linejoin:miter;stroke-miterlimit:4;stroke-dasharray:none;stroke-opacity:1"
       d="m 338.6895,178.9941 c -3.3047,-0.0293 -9.4161,-7.9238 -8.5,-9.6543 1.9804,-0.4013 9.5546,7.3653 8.5,9.6543 z"
       inkscape:connector-curvature="0" /></g></svg>