<?xml version="1.0" encoding="UTF-8" standalone="no"?>
<!-- Generator: Adobe Illustrator 21.1.0, SVG Export Plug-In . SVG Version: 6.00 Build 0)  -->

<svg
   xmlns:dc="http://purl.org/dc/elements/1.1/"
   xmlns:cc="http://creativecommons.org/ns#"
   xmlns:rdf="http://www.w3.org/1999/02/22-rdf-syntax-ns#"
   xmlns:svg="http://www.w3.org/2000/svg"
   xmlns="http://www.w3.org/2000/svg"
   xmlns:sodipodi="http://sodipodi.sourceforge.net/DTD/sodipodi-0.dtd"
   xmlns:inkscape="http://www.inkscape.org/namespaces/inkscape"
   version="1.0"
   id="Warstwa_1"
   x="0px"
   y="0px"
   viewBox="0 0 792 792"
   enable-background="new 0 0 792 792"
   xml:space="preserve"
   sodipodi:docname="mickey.svg"
   inkscape:version="0.92.4 (5da689c313, 2019-01-14)"><metadata
   id="metadata31"><rdf:RDF><cc:Work
       rdf:about=""><dc:format>image/svg+xml</dc:format><dc:type
         rdf:resource="http://purl.org/dc/dcmitype/StillImage" /></cc:Work></rdf:RDF></metadata><defs
   id="defs29" /><sodipodi:namedview
   pagecolor="#ffffff"
   bordercolor="#666666"
   borderopacity="1"
   objecttolerance="10"
   gridtolerance="10"
   guidetolerance="10"
   inkscape:pageopacity="0"
   inkscape:pageshadow="2"
   inkscape:window-width="1366"
   inkscape:window-height="715"
   id="namedview27"
   showgrid="false"
   inkscape:zoom="0.42140707"
   inkscape:cx="84.795283"
   inkscape:cy="404.44068"
   inkscape:window-x="-8"
   inkscape:window-y="22"
   inkscape:window-maximized="1"
   inkscape:current-layer="Warstwa_1" />
<g
   id="g24"
   transform="matrix(1.0922828,0,0,1.0922828,-88.146983,-34.929985)">
	<path
   d="m 338.1,152.5 c -52.9,-6.5 -84.9,26.7 -95.7,43.5 2.5,-39 -21.9,-66.2 -55.7,-67.2 -68,-1.5 -89.4,123.8 -10.3,135.8 17.6,2.5 29.5,-1.8 43.1,-10.6 -4.3,26.7 3.8,58.9 22.4,84 -0.5,25.4 24.9,35.2 40.3,40.5 -27,10.6 -58.9,30.7 -66.2,66.4 -12.6,3 -20.9,11.3 -21.4,27.7 -20.2,14.8 -29.7,45.3 -26.2,62.1 5.5,25.9 14.9,41.8 38.3,42.3 15.4,9.1 30,11.3 37.8,9.3 14.9,12.6 35.5,12.3 47.9,1.5 7.3,-6.3 11.3,-19.6 10.3,-36.5 17.4,-10.3 21.4,-37 17.4,-49.8 -6,-20.6 -28.5,-31.4 -42.3,-36.5 -3.5,-5.3 -6.3,-10.8 -11.3,-14.8 7.1,-30.2 44.1,-44.3 70.5,-46.5 41.1,47 4.5,157 -26.7,207 -14.6,-0.3 -32.7,11.8 -35.5,21.4 -29.5,-6.5 -106,-22.6 -133.5,37.7 -8.1,-2.3 -89.2,-17.4 -35.8,-71.2 -58.7,48.6 10.3,71.7 33.2,77.7 -6,38 39.5,80 107.8,79.5 43.8,-0.3 98,-24.4 117.6,-50.6 24.9,17.9 74.3,28.2 114.1,26.2 47.4,-2.5 96,-25.7 96,-62.6 0.3,-38.5 -53.7,-68.4 -132.7,-44 1,-5.5 -0.5,-14.8 -12.3,-14.6 10.1,-20.9 19.4,-45.8 23.2,-59.9 34,-13.8 42.8,-20.1 44.8,-26.9 1.8,-5.8 -11.8,-42.8 -11.8,-49.1 -0.3,-19.4 2,-37.2 -2.8,-55.6 -4.5,-17.6 -16.4,-41.5 -48.9,-63.6 35.8,-21.9 82.4,-64.7 99,-91.6 13.9,1.3 21.7,-4.3 29,-11.3 6.6,-0.5 35.3,3.3 60.5,7.5 23.9,4 55.9,20.6 67.3,4.8 24.9,-1.5 26.2,-27.4 8.3,-49.6 9.6,-20.9 -27.5,-41.8 -53.9,-53.3 -25.4,-11.3 -54.7,-26.9 -57.7,-33.2 12.6,-12.3 10.3,-25.9 0,-45.8 -8.6,-16.1 -32.5,-20.9 -41.1,-15.1 -12.3,7.8 2,42 -2,56.9 -19.1,16.6 -30.2,44 -31,67.9 -12.1,5.3 -16.1,16.6 -14.6,33.2 -14.1,19.1 -33.5,46 -54.7,71.2 5.5,-20.1 7.3,-38 -2.5,-49.8 -3.8,-42.3 -47.9,-74.7 -59.4,-81.8 38,-8.8 51.9,-36.7 50.6,-67.9 -0.8,-27.9 -30,-61.1 -66,-61.4 -48.8,-0.1 -101.7,61.1 -27.4,116.7 z m 40.6,415.3 c -4.8,14.1 -11.3,27.9 -18.6,42.5 8.3,-4.8 15.4,-7.5 26.2,-8.1 5,-12.6 15.9,-29.4 19.6,-39.7 -6,3.3 -17.1,4.3 -27.2,5.3 z"
   id="path2"
   inkscape:connector-curvature="0"
   style="clip-rule:evenodd;fill-rule:evenodd" />
	<path
   d="m 355.3,429.7 c 0,8.6 15.1,40.3 -15.9,129.1 26.2,-7.3 67.8,-29.2 93.5,-18.6 1.5,-13.3 3,-26.9 3.8,-40.3 2.8,2 2.8,9.3 2.8,13.6 6.8,-1.8 14.4,-7.8 18.6,-11.6 -3.3,7.3 -10.6,12.3 -19.4,16.9 -0.8,7.3 -1,13.8 -1.8,21.1 13.6,-1.8 41.8,-30.4 57.9,-20.9 -4,-14.8 -9.6,-33.2 -12.1,-43.8 -2,-7 3.5,-42.5 -5.3,-63.9 -2.3,-5.3 -7.1,-21.6 -16.6,-24.7 -43.6,-13.5 -84.4,0.1 -105.5,43.1 z m 53.6,-28.9 c 7.3,-2.5 17.1,8.1 24.9,27.2 7.6,19.4 5,35 -2,37.5 -7.3,2.5 -19.4,-9.6 -25.7,-27.4 -6.2,-18 -4.5,-34.6 2.8,-37.3 z m 43.9,-4.8 c 5.8,-2 16.4,10.6 21.2,24.2 4.5,13.3 3.8,26.9 -2.3,29.2 -6,2 -15.6,-6.5 -20.2,-23.4 -4.8,-16.7 -4.8,-27.7 1.3,-30 z"
   id="path4"
   inkscape:connector-curvature="0"
   style="clip-rule:evenodd;fill:#ec1846;fill-rule:evenodd" />
	<path
   d="m 456.5,533.9 c 20.2,-14.6 34,-16.6 36.8,-12.1 3.5,5.5 -15.9,14.3 -38,24.9 0.5,-4 0.7,-9.1 1.2,-12.8 z m -70.8,12.8 c -2,5.8 -3.8,11.8 -5.8,17.9 25.7,-1.3 54.2,-14.3 53.7,-19.9 -0.5,-5.3 -29.5,-7.6 -47.9,2 z"
   id="path6"
   inkscape:connector-curvature="0"
   style="clip-rule:evenodd;fill:#bf2f38;fill-rule:evenodd" />
	<path
   d="m 390.3,324 c -9.8,0.8 -23.7,7.8 -23.7,26.2 -1.5,-2 -2,-5.8 -1.5,-7.8 -12.8,-0.3 -25.7,10.6 -26.7,19.4 10.1,5.8 24.4,7.5 32.7,1.8 14.9,-10.1 19.2,-23.5 19.2,-39.6 z"
   id="path8"
   inkscape:connector-curvature="0"
   style="clip-rule:evenodd;fill:#f9b392;fill-rule:evenodd" />
	<path
   d="m 382.5,250.8 c -5,-26.4 -10.6,-49.6 -25.2,-69.4 -23.2,-31.2 -71.5,-32.5 -76.6,7.5 -46.1,-31.2 -61,83.3 -15.1,123.3 -18.9,4.8 -27.7,33.5 -8.3,48 21.4,16.4 39,18.9 86.1,19.9 -4.3,-2 -10.8,-5.5 -12.3,-8.1 20.4,7.5 42.3,8.8 53.4,-0.3 9.6,-7.8 15.9,-25.9 18.1,-40.5 0.5,7.8 1.5,13.6 -2.3,22.9 21.9,-20.6 38,-47.3 41.8,-76.7 4.4,-34.4 -26.1,-53 -59.6,-26.6 z m -30.3,28.5 c 6,9.6 1.8,26.7 -15.6,36 -10.8,5.8 -33.8,7 -37.8,-2.8 -4.8,-12.3 2,-22.6 13.6,-29.7 11.6,-7.1 34.1,-13.1 39.8,-3.5 z m -77.8,-55.6 c 6.5,-3.5 24.4,5.8 33.8,52.6 4,-2.5 9.8,-5.8 14.6,-7.5 -11.6,-9.3 -31,-53.8 -15.9,-63.4 10.3,-6.8 33.8,25.2 32,56.9 3,0.3 7.8,2 10.6,3.3 -19.1,0.3 -46.3,15.1 -56.4,29.2 0.3,-4 2.3,-7.3 3,-9.1 -10.8,-8.3 -18.1,-17.4 -22.2,-27.7 -5.8,-14.5 -5.8,-30.8 0.5,-34.3 z m 128,45.5 c -1.8,12.6 -4.8,23.6 -8.3,36.2 1.3,37.5 -6.8,48.8 -17.9,58.1 -13.6,11.8 -39.8,5.8 -58.9,-11.1 -10.8,-1.3 -30.7,-5 -43.3,-10.3 -1.5,2.3 -1.5,5.5 -2,10.3 -2.3,-5 -2.8,-9.3 -0.5,-14.1 2,-4.3 6.5,-8.6 11.1,-9.6 -3.5,2.8 -6.8,7.5 -7.3,11.1 25.9,10.8 60.2,10.6 81.9,-3.8 21.4,-14.3 38,-32.5 42.1,-67.2 -4.8,-0.8 -10.3,0 -15.6,2 3,-3.5 12.6,-7 17.6,-6.3 7.3,1.3 11.8,4.3 15.6,7.3 -6,-1.8 -10.2,-2.3 -14.5,-2.6 z"
   id="path10"
   inkscape:connector-curvature="0"
   style="clip-rule:evenodd;fill:#fcd0af;fill-rule:evenodd" />
	<path
   d="m 364.1,643.8 c -0.5,0.8 -1,1.8 -1.5,2.5 13.1,13.3 21.2,32.5 3.3,55.6 32,21.6 69.8,25.7 104.8,25.7 48.4,-0.3 96,-20.4 99.2,-62.4 1.3,-15.1 -19.9,-44.8 -76.1,-45.8 -13.9,-0.3 -31.7,1.3 -52.9,9.3 0.3,1.5 0,2.8 -1.3,4.5 5.3,-1.8 11.6,-2.5 16.4,-3 -16.6,8.8 -43.3,23.9 -55.9,36.5 1,-5.5 6.5,-11.1 12.6,-15.8 -19.9,2.5 -35,-0.1 -48.6,-7.1 z M 384,606.6 c -8.6,-1 -19.6,5.5 -24.4,8.6 9.3,8.3 9.1,18.4 5.8,26.7 13.6,7 44.1,8.6 53.1,4.8 11.8,-5 17.4,-8.3 19.1,-21.9 0.8,-6.3 -3,-10.8 -10.6,-10.3 2,6.8 -13.3,15.6 -24.2,13.8 -14.5,-2.1 -32.2,-3.6 -18.8,-21.7 z M 273.7,636 c -20.4,-5.3 -44.3,-7.5 -65,-5 -28,3.3 -64.7,20.6 -64.5,54.8 0.5,33 43.1,63.6 101.8,65.7 47.9,1.5 118.6,-35 126.2,-73.2 1,-5 -1.8,-21.9 -12.3,-30.2 -11.1,10.8 -20.4,12.6 -43.8,13.1 5,2.5 7.3,5.3 9.6,8.3 -21.9,-11.3 -47.6,-23.6 -69.3,-29.4 6.3,-1.3 11.6,-0.3 20.7,3.5 -2.2,-3.3 -2.9,-5.6 -3.4,-7.6 z m 35.5,-20.1 c -12.3,-3 -37.3,14.1 -28,29.2 5.8,2.8 20.9,8.3 28.7,12.6 13.1,1 29.7,-0.3 40,-6.5 14.1,-8 18.6,-21.1 7.1,-33.7 -4,5.8 -8.3,11.8 -15.1,14.3 -22.2,8.3 -43.8,4 -43.6,-0.5 0.5,-3.6 7.1,-10.4 10.9,-15.4 z"
   id="path12"
   inkscape:connector-curvature="0"
   style="clip-rule:evenodd;fill:#ffcb4e;fill-rule:evenodd" />
	<g
   id="g22">
		<path
   d="m 409.9,403.8 c 6.6,-2.3 16.1,9.1 21.7,25.2 5.8,16.1 5.8,31.2 -0.8,33.5 -6.5,2.5 -16.1,-8.8 -21.9,-25.2 -5.8,-16.1 -5.5,-31.2 1,-33.5 z m 44.4,-4.5 c 5.3,-1.8 13.3,9.8 17.6,22.1 4,12.3 3.8,23.1 -1.5,24.9 -5.5,2 -12.3,-5.5 -16.4,-20.9 -4.3,-15.1 -5.3,-24.1 0.3,-26.1 z"
   id="path14"
   inkscape:connector-curvature="0"
   style="clip-rule:evenodd;fill:#ffffff;fill-rule:evenodd" />
		<path
   d="m 512.2,196 c -19.4,14.1 -11.1,39 1,51.1 13.9,13.8 25.2,18.9 43.3,4.3 -20.6,-4.8 -43.8,-31 -44.3,-55.4 z m 50.1,52.6 c -25.2,-4 -45.1,-29.7 -45.6,-53.1 -1,-31.2 15.9,-55.3 31,-71.7 -0.5,-11.1 -1.8,-19.9 -3.5,-30.9 -1,-8.8 -3,-19.6 3.5,-22.6 7.3,-3 21.7,-0.3 28,5.5 12.8,12.1 22.7,42 4.8,52.8 4.3,7.5 15.9,14.3 24.4,18.9 26.2,13.8 59.2,25.4 78.1,41.8 6.5,5.5 16.6,14.3 11.3,22.6 -20.7,-18.1 -40.6,-29.7 -68.3,-38.5 30.7,15.3 70.8,35.2 78.6,63.4 3.8,13.8 -2.5,25.2 -15.4,23.1 7.3,-16.6 -33,-43 -58.7,-44 36.5,12.1 46.6,23.4 53.1,34 4.3,7 3.3,14.6 -5.8,17.4 -8.3,2.5 -48.4,-10.8 -65.7,-12.8 -16.5,-2.1 -33.4,-3.2 -49.8,-5.9 z m -27.9,-54.9 c 4,-11.1 16.4,-19.6 31.2,-19.9 16.1,0 32.2,13.6 37.5,24.4 -29.7,-21.3 -43.8,-25.6 -68.7,-4.5 z M 198.3,470.5 c 0,-18.1 17.9,-24.9 38.5,-26.9 22.2,-1.8 25.9,8.1 35.3,20.1 -27.9,-6.3 -48.3,-5.8 -73.8,6.8 z m 31.8,-6.8 c -13.9,2.3 -25.7,6 -34.8,13.3 -16.1,13.1 -27.2,39.5 -23.4,56.6 5.5,25.7 17.1,39.5 32.5,40.8 -5.3,-5.3 -10.6,-10.1 -10.3,-15.8 14.1,18.4 31,26.7 47.1,25.2 -7.1,-5.5 -11.1,-10.3 -13.6,-16.1 17.9,15.3 29.2,27.9 47.6,25.2 21.9,-3.3 25.2,-22.4 24.9,-41 -1.3,0 -3,-0.5 -3.8,-1.5 -1.5,2.3 -3.5,4 -5.8,5.8 7.3,-12.3 8.3,-24.7 9.1,-37.2 2,3.3 2.3,9.3 2,13.1 2,-0.5 4.5,-1.8 7.8,-4.3 -2.5,5.8 -6.5,8.6 -8.3,9.1 -0.3,1.3 -1.3,4 -1,5 0,2 -0.5,5.5 0.5,7.3 5.5,-1 8.1,-6.5 11.3,-11.6 4.8,-7.5 7.1,-15.6 5.8,-29.9 -1.3,-13.8 -12.3,-26.4 -35.5,-37 -7.5,-3.5 -24.4,-11.1 -52.1,-7 z m -21.2,11.8 c -3,-1.5 -17.9,21.6 -17.4,36 6.8,-21.2 19.9,-35 17.4,-36 z m 11.4,-4.8 c -2.8,-0.3 -7.3,14.1 -8.8,24.2 -1.5,9.3 -1,16.6 1.3,25.4 0.3,-8 1.3,-18.4 3,-27.7 2.2,-11.6 5.5,-21.9 4.5,-21.9 z m 12.3,-0.7 c -2.8,0.8 -1.3,11.3 -0.5,17.1 0.8,6.8 3,13.1 6.3,20.6 -2.5,-20.1 -3,-38.7 -5.8,-37.7 z"
   id="path16"
   inkscape:connector-curvature="0"
   style="clip-rule:evenodd;fill:#ffffff;fill-rule:evenodd" />
		<path
   d="m 306.9,208.6 c -7.6,11.6 4.8,47 17.4,59.1 1.8,-0.5 4,-1.5 5.5,-2 -10.1,-13.6 -7.3,-28.2 5.3,-20.6 -4.5,-21.7 -23.2,-44.1 -28.2,-36.5 z"
   id="path18"
   inkscape:connector-curvature="0"
   style="clip-rule:evenodd;fill:#ffffff;fill-rule:evenodd" />
		<path
   d="M 297.8,283.3 C 282.7,275 264.3,240 275.9,227.2 c 4.8,-5.5 19.9,13.8 25.4,31.9 -16.9,-4.3 -8.8,20.6 0.8,21.4 -1.5,0.8 -2.7,1.8 -4.3,2.8 z"
   id="path20"
   inkscape:connector-curvature="0"
   style="clip-rule:evenodd;fill:#ffffff;fill-rule:evenodd" />
	</g>
</g>
</svg>