<?xml version="1.0" encoding="UTF-8" standalone="no"?>
<svg
   xmlns:dc="http://purl.org/dc/elements/1.1/"
   xmlns:cc="http://creativecommons.org/ns#"
   xmlns:rdf="http://www.w3.org/1999/02/22-rdf-syntax-ns#"
   xmlns:svg="http://www.w3.org/2000/svg"
   xmlns="http://www.w3.org/2000/svg"
   xmlns:sodipodi="http://sodipodi.sourceforge.net/DTD/sodipodi-0.dtd"
   xmlns:inkscape="http://www.inkscape.org/namespaces/inkscape"
   viewBox="0 0 132.46001 242.95"
   version="1.1"
   id="svg416"
   sodipodi:docname="minecraft.svg"
   width="132.46001"
   height="242.95"
   inkscape:version="0.92.4 (5da689c313, 2019-01-14)">
  <metadata
     id="metadata420">
    <rdf:RDF>
      <cc:Work
         rdf:about="">
        <dc:format>image/svg+xml</dc:format>
        <dc:type
           rdf:resource="http://purl.org/dc/dcmitype/StillImage" />
        <dc:title>gold digger minecraft</dc:title>
      </cc:Work>
    </rdf:RDF>
  </metadata>
  <sodipodi:namedview
     pagecolor="#ffffff"
     bordercolor="#666666"
     borderopacity="1"
     objecttolerance="10"
     gridtolerance="10"
     guidetolerance="10"
     inkscape:pageopacity="0"
     inkscape:pageshadow="2"
     inkscape:window-width="1366"
     inkscape:window-height="715"
     id="namedview418"
     showgrid="false"
     fit-margin-top="0"
     fit-margin-left="0"
     fit-margin-right="0"
     fit-margin-bottom="0"
     inkscape:zoom="12.992912"
     inkscape:cx="50.120525"
     inkscape:cy="93.948357"
     inkscape:window-x="-8"
     inkscape:window-y="22"
     inkscape:window-maximized="1"
     inkscape:current-layer="svg416" />
  <defs
     id="defs4">
    <style
       id="style2">.cls-1{fill:#fff;}.cls-2,.cls-38{fill:none;}.cls-2{stroke:#fff;stroke-linecap:round;stroke-linejoin:round;stroke-width:10px;}.cls-3,.cls-43{opacity:0.61;}.cls-4,.cls-46{opacity:0.57;}.cls-49,.cls-5{opacity:0.54;}.cls-6{fill:#a0a0a0;}.cls-7{fill:#787574;}.cls-8{fill:#8a9399;}.cls-9{fill:#bfbdb3;}.cls-10{fill:#606568;}.cls-11{fill:#484b4c;}.cls-12{fill:#302e2e;}.cls-13{fill:#3b3b3b;}.cls-14{fill:#2e2c30;}.cls-15{fill:#443f44;}.cls-16{fill:#1c2a3c;}.cls-17{fill:#2e4765;}.cls-18{fill:#4f6e8e;}.cls-19{fill:#2f4a68;}.cls-20,.cls-46{fill:#b78056;}.cls-21{fill:#ffcc94;}.cls-22{fill:#0f2c28;}.cls-23{fill:#245c54;}.cls-24{fill:#173b38;}.cls-25{fill:#e5a26a;}.cls-26{fill:#ffcca6;}.cls-27{fill:#32281d;}.cls-28{fill:#603e22;}.cls-29{fill:#95846f;}.cls-30{fill:#c6c1ab;}.cls-31{fill:#fff7d4;}.cls-32{fill:#382719;}.cls-33{fill:#1c130c;}.cls-34{fill:#3a2a19;}.cls-35{fill:#694e33;}.cls-36{fill:#ae8c67;}.cls-37{fill:#36221f;}.cls-38{stroke:#2a160b;stroke-miterlimit:10;}.cls-39{fill:#b57e75;}.cls-40{fill:#7b6966;}.cls-41{fill:#b27547;}.cls-42{fill:#1b3834;}.cls-43,.cls-44{fill:#0b201f;}.cls-45{fill:#664f38;}.cls-47{fill:#2a635a;}.cls-48{fill:#214f4a;}.cls-49,.cls-50{fill:#308e7c;}.cls-51{fill:#256860;}.cls-52{fill:#25403f;}.cls-53{fill:#784d3b;}.cls-54{fill:#4c2f25;}.cls-55{fill:#396e5f;}.cls-56{fill:#5bc8b4;}.cls-57{fill:#a4e1d1;}.cls-58{fill:#fdc125;}.cls-59{fill:#ffdc1e;}.cls-60{fill:#fdef6f;}</style>
  </defs>
  <title
     id="title6">gold digger minecraft</title>
  <g
     id="Слой_8"
     data-name="Слой 8"
     transform="translate(-44.9,-25.14)">
    <path
       class="cls-1"
       d="m 154.38,233.43 v 0 c 0.63,0.33 0.33,3.8 0.28,4.42 -0.25,3.23 -1.57,5.57 -2.95,8.38 a 1.57,1.57 0 0 0 -0.6,-1.84 4.57,4.57 0 0 0 -2,-0.7 l -8.11,-1.53 5.91,-0.23 a 9,9 0 0 0 3.68,-0.68 6,6 0 0 0 2.84,-3.74 c 0.16,-0.56 0.45,-4.08 0.92,-4.08"
       transform="translate(-38.53,-3.79)"
       id="path44"
       inkscape:connector-curvature="0"
       style="fill:#ffffff" />
    <path
       class="cls-1"
       d="m 140.34,121.35 4.36,0.68 v 2.42 c 0,0 -0.58,0.68 -5.42,2.16 -4.84,1.48 -11,3 -11,3 l 0.81,-3 11.21,-5.26 m 0,-10 a 10,10 0 0 0 -4.25,1 l -11.21,5.26 a 10,10 0 0 0 -5.4,6.43 l -0.81,3 a 10,10 0 0 0 9.65,12.63 10.11,10.11 0 0 0 2.37,-0.29 c 0.26,-0.06 6.45,-1.57 11.52,-3.13 5.62,-1.72 8.26,-3.09 10.09,-5.21 a 10,10 0 0 0 2.4,-6.51 V 122 a 10,10 0 0 0 -8.46,-9.89 l -4.36,-0.67 a 10,10 0 0 0 -1.54,-0.12 z"
       transform="translate(-38.53,-3.79)"
       id="path82"
       inkscape:connector-curvature="0"
       style="fill:#ffffff" />
    <path
       class="cls-1"
       d="m 135.26,115.18 a 11.67,11.67 0 0 1 2.23,2.21 c -0.94,0.45 -1.74,0.86 -2.7,1.27 a 6.49,6.49 0 0 1 -2.92,-2.41 23,23 0 0 1 3.39,-1.07 m 0,-10 a 10,10 0 0 0 -2.36,0.29 31.49,31.49 0 0 0 -5.13,1.66 10,10 0 0 0 -4.24,14.64 16.42,16.42 0 0 0 7.47,6.13 10.18,10.18 0 0 0 3.83,0.76 10,10 0 0 0 3.9,-0.8 c 0.93,-0.39 1.72,-0.77 2.41,-1.11 l 0.69,-0.33 a 10,10 0 0 0 3.52,-15.27 21.3,21.3 0 0 0 -4.19,-4.06 10,10 0 0 0 -5.86,-1.91 z"
       transform="translate(-38.53,-3.79)"
       id="path92"
       inkscape:connector-curvature="0"
       style="fill:#ffffff" />
    <path
       class="cls-1"
       d="m 159,124.85 v 1.76 c 0,0 -0.28,0.47 -3.4,2 a 36.16,36.16 0 0 1 -7.6,2.3 9.32,9.32 0 0 1 -3.95,-3 v -1.58 l 9.2,-0.57 5.75,-0.85 m 0,-10 a 9.06,9.06 0 0 0 -1.46,0.11 l -5.33,0.78 -8.78,0.55 a 10,10 0 0 0 -9.38,10 v 1.58 a 10,10 0 0 0 2,6 19,19 0 0 0 9,6.58 10,10 0 0 0 3,0.47 9.74,9.74 0 0 0 1.78,-0.16 45.45,45.45 0 0 0 10.11,-3.1 c 3.81,-1.81 6.16,-3.28 7.7,-5.86 a 10,10 0 0 0 1.41,-5.13 v -1.76 a 10,10 0 0 0 -10,-10 z"
       transform="translate(-38.53,-3.79)"
       id="path104"
       inkscape:connector-curvature="0"
       style="fill:#ffffff" />
    <path
       class="cls-1"
       d="m 154.79,122 c 1.45,0 3.15,1.89 4.25,2.81 a 26.67,26.67 0 0 1 -10.94,4.51 10.07,10.07 0 0 1 -4,-3.09 26.61,26.61 0 0 1 10.45,-4.21 h 0.25 m 0,-10 a 11.79,11.79 0 0 0 -1.79,0.14 36.14,36.14 0 0 0 -14.44,5.76 10,10 0 0 0 -2.37,14.46 20,20 0 0 0 8,6.17 9.92,9.92 0 0 0 5.76,0.61 36.49,36.49 0 0 0 15,-6.29 10,10 0 0 0 0.48,-15.71 l -0.41,-0.37 c -1.83,-1.66 -5.23,-4.77 -10.26,-4.77 z"
       transform="translate(-38.53,-3.79)"
       id="path106"
       inkscape:connector-curvature="0"
       style="fill:#ffffff" />
    <path
       class="cls-1"
       d="m 158.47,134.93 a 16.71,16.71 0 0 1 1.6,1.66 1.91,1.91 0 0 1 0.35,0.58 0.66,0.66 0 0 1 -0.1,0.64 13.07,13.07 0 0 1 -8.42,4.13 h -0.29 a 4.15,4.15 0 0 1 -2.07,-0.61 11.75,11.75 0 0 1 -1.94,-1.51 30.1,30.1 0 0 1 10.87,-4.9 m 0,-10 a 9.69,9.69 0 0 0 -2.06,0.22 39.67,39.67 0 0 0 -14.48,6.44 10,10 0 0 0 -1,15.69 21,21 0 0 0 3.61,2.72 14.2,14.2 0 0 0 7.07,1.95 c 0.41,0 0.82,0 1.23,0 a 23,23 0 0 0 15,-7.47 10.72,10.72 0 0 0 2.16,-10.26 11.52,11.52 0 0 0 -2.05,-3.82 23.09,23.09 0 0 0 -2.39,-2.54 l -0.18,-0.17 a 10,10 0 0 0 -6.88,-2.75 z"
       transform="translate(-38.53,-3.79)"
       id="path112"
       inkscape:connector-curvature="0"
       style="fill:#ffffff" />
    <path
       class="cls-1"
       d="m 162.07,128.15 0.52,0.87 -1.94,1.84 0.17,-0.89 -6.9,2.5 -9.15,4.31 h -0.68 c 0,0 -0.84,-2.36 -0.44,-2.76 0.4,-0.4 18.42,-5.87 18.42,-5.87 m 0,-10 a 10,10 0 0 0 -2.9,0.43 c -20.42,6.2 -20.5,6.29 -22.59,8.37 -3.23,3.23 -3.87,7.66 -1.92,13.17 a 10,10 0 0 0 9.43,6.66 h 0.68 a 10,10 0 0 0 4.27,-1 l 8.72,-4.11 2.39,-0.86 h 0.5 a 10,10 0 0 0 6.88,-2.75 l 1.94,-1.84 A 10,10 0 0 0 171.21,124 l -0.51,-0.88 a 10,10 0 0 0 -8.63,-4.93 z"
       transform="translate(-38.53,-3.79)"
       id="path114"
       inkscape:connector-curvature="0"
       style="fill:#ffffff" />
    <path
       class="cls-1"
       d="m 162.59,129 a 1.86,1.86 0 0 1 -0.67,1.24 13.22,13.22 0 0 1 -4.58,3 l -0.91,-0.1 3.82,-2.68 -15.48,6.29 A 98.59,98.59 0 0 1 162.59,129 m 0,-10 a 10.16,10.16 0 0 0 -3.08,0.48 109.54,109.54 0 0 0 -19.62,8.55 10,10 0 0 0 8.65,18 l 7.13,-2.89 0.56,0.06 a 10.32,10.32 0 0 0 1.11,0.06 9.89,9.89 0 0 0 3.64,-0.69 23.37,23.37 0 0 0 8,-5.28 11.42,11.42 0 0 0 3.56,-8.63 10,10 0 0 0 -10,-9.65 z"
       transform="translate(-38.53,-3.79)"
       id="path116"
       inkscape:connector-curvature="0"
       style="fill:#ffffff" />
    <path
       class="cls-1"
       d="m 169.07,134.72 c 0.11,0.06 0,0.3 -0.16,0.31 a 9,9 0 0 0 -3.71,1.19 57.82,57.82 0 0 0 -6.59,3.85 15.22,15.22 0 0 1 -3.81,2.13 6.1,6.1 0 0 1 -1.82,0.31 3.32,3.32 0 0 1 -2.22,-0.75 c 4.56,-1.49 8.55,-4.4 13.1,-5.93 a 23.27,23.27 0 0 1 5.21,-1.11 m 0,-10 c -0.32,0 -0.64,0 -1,0 a 33.8,33.8 0 0 0 -7.44,1.59 56.08,56.08 0 0 0 -7.84,3.52 37.37,37.37 0 0 1 -5.17,2.38 10,10 0 0 0 -3.37,17.13 13.22,13.22 0 0 0 8.69,3.13 16.14,16.14 0 0 0 4.84,-0.77 22.39,22.39 0 0 0 6.05,-3.16 l 0.34,-0.23 a 49.56,49.56 0 0 1 5.46,-3.19 l 0.41,-0.2 a 10.28,10.28 0 0 0 8.74,-7.74 A 10.15,10.15 0 0 0 174,126 a 9.92,9.92 0 0 0 -4.92,-1.3 z"
       transform="translate(-38.53,-3.79)"
       id="path118"
       inkscape:connector-curvature="0"
       style="fill:#ffffff" />
    <path
       class="cls-1"
       d="m 135.34,137 1.88,0.38 -0.26,2 -1.62,-1 V 137 m 0,-10 a 10,10 0 0 0 -10,10 v 1.45 a 10,10 0 0 0 4.92,8.62 l 1.62,1 a 10,10 0 0 0 15,-7.3 l 0.27,-2 a 10,10 0 0 0 -8,-11.12 l -1.89,-0.38 a 10.71,10.71 0 0 0 -1.94,-0.19 z"
       transform="translate(-38.53,-3.79)"
       id="path120"
       inkscape:connector-curvature="0"
       style="fill:#ffffff" />
    <path
       class="cls-1"
       d="m 108.42,146.4 a 12.29,12.29 0 0 0 -0.58,1.41 2.35,2.35 0 0 1 0.58,-1.41 m -0.58,1.41 a 10,10 0 0 0 0.8,4.47 8.54,8.54 0 0 0 5.23,4.63 2.73,2.73 0 0 1 1,0.44 0.76,0.76 0 0 1 0.18,1 1,1 0 0 1 -0.75,0.27 h -0.24 a 7.13,7.13 0 0 1 -6.44,-5 9.09,9.09 0 0 1 0.22,-5.83 m 0.58,-11.41 a 10,10 0 0 0 -7.11,3 12.12,12.12 0 0 0 -3.2,6 18.87,18.87 0 0 0 0,11.33 17.07,17.07 0 0 0 16,11.9 h 0.65 a 10.67,10.67 0 0 0 6.75,-18.77 11.41,11.41 0 0 0 -3.15,-2 10,10 0 0 0 -9.89,-11.48 z"
       transform="translate(-38.53,-3.79)"
       id="path130"
       inkscape:connector-curvature="0"
       style="fill:#ffffff" />
    <path
       class="cls-1"
       d="m 112.31,142.14 a 4.42,4.42 0 0 1 3.1,1.43 8.44,8.44 0 0 1 1.88,3.59 1.6,1.6 0 0 0 -1.17,-0.47 1.44,1.44 0 0 0 -1.43,0.89 3,3 0 0 0 0,1.37 2,2 0 0 1 -0.2,1.33 0.9,0.9 0 0 1 -0.72,0.38 0.57,0.57 0 0 1 -0.46,-0.21 1.05,1.05 0 0 1 -0.09,-0.89 16.67,16.67 0 0 0 0.67,-2.94 2.2,2.2 0 0 0 -1.49,-2.34 1.43,1.43 0 0 0 -0.29,0 2.9,2.9 0 0 0 -2.11,1.32 9.24,9.24 0 0 0 -1.76,5.17 6.09,6.09 0 0 0 0.34,2 c 0.21,0.7 0.21,2.06 0.63,2.64 a 10.08,10.08 0 0 1 -0.84,-10.34 5,5 0 0 1 3.34,-2.91 3.92,3.92 0 0 1 0.59,-0.05 m -3.09,13.3 v 0 m 3.09,-23.3 v 0 a 14,14 0 0 0 -2.34,0.2 14.9,14.9 0 0 0 -10.5,8.21 20,20 0 0 0 1.69,20.81 v 0 l 0.06,0.08 a 10,10 0 0 0 17.05,-1.8 10.81,10.81 0 0 0 4.46,-3.76 c 0.15,-0.22 0.28,-0.43 0.41,-0.65 a 10,10 0 0 0 3.74,-10.88 18.14,18.14 0 0 0 -4.28,-7.74 14.4,14.4 0 0 0 -10.31,-4.5 z"
       transform="translate(-38.53,-3.79)"
       id="path132"
       inkscape:connector-curvature="0"
       style="fill:#ffffff" />
    <g
       class="cls-3"
       id="g138"
       style="opacity:0.61000001" />
    <g
       class="cls-3"
       id="g142"
       style="opacity:0.61000001" />
    <g
       class="cls-4"
       id="g150"
       style="opacity:0.56999978">
      <path
         class="cls-2"
         d="m 145.77,168.73 c 4.52,-1.51 9.09,-3 13.06,-5.68 a 12.32,12.32 0 0 1 0.73,3.37 4.15,4.15 0 0 1 -1.16,3.16 5.59,5.59 0 0 1 -2.44,1.13 27.48,27.48 0 0 1 -5.85,0.88 6.33,6.33 0 0 1 -3.5,-0.6 2.1,2.1 0 0 1 -1,-1.29 1.17,1.17 0 0 1 0.74,-1.36"
         transform="translate(-38.53,-3.79)"
         id="path148"
         inkscape:connector-curvature="0"
         style="fill:none;stroke:#ffffff;stroke-width:10px;stroke-linecap:round;stroke-linejoin:round" />
    </g>
    <g
       class="cls-5"
       id="g166"
       style="opacity:0.54000005" />
    <g
       class="cls-5"
       id="g170"
       style="opacity:0.54000005" />
  </g>
  <g
     id="Слой_11"
     data-name="Слой 11"
     transform="translate(-33.46,-25.41)">
    <path
       class="cls-14"
       d="m 126.47,269.66 a 23,23 0 0 1 -5.85,-6.16 c -2.25,-3.7 -3,-4.67 -3,-4.67 l 3.53,-6.27 8.2,4.93 3.22,3.62 z"
       transform="translate(-38.53,-3.79)"
       id="path245"
       inkscape:connector-curvature="0"
       style="fill:#2e2c30" />
    <path
       class="cls-15"
       d="m 128.81,262.21 a 14.61,14.61 0 0 0 -2.34,7.45 239.67,239.67 0 0 0 24.11,-1.06 16.3,16.3 0 0 0 0.09,-3.82 5.05,5.05 0 0 0 -1.68,-3.19 7.1,7.1 0 0 0 -3.78,-1.22 c -5.71,-0.66 -11.61,-0.59 -17.05,1.28 a 11,11 0 0 0 3.16,0.6 14.48,14.48 0 0 1 -2.28,0.06 c 0.07,0 -0.3,-0.11 -0.23,-0.1 z"
       transform="translate(-38.53,-3.79)"
       id="path247"
       inkscape:connector-curvature="0"
       style="fill:#443f44" />
    <path
       class="cls-16"
       d="m 150.31,260.88 a 2.47,2.47 0 0 1 -0.35,1.61 2.41,2.41 0 0 1 -1.37,0.7 59.92,59.92 0 0 1 -11.91,1.81 17.11,17.11 0 0 1 -6.65,-0.67 c -3.26,-1.19 -5.65,-4 -7.87,-6.63 -1.08,-1.28 -2.21,-2.73 -2.15,-4.4 a 7.25,7.25 0 0 1 1.2,-3.17 c 1,-1.79 2,-3.63 2.89,-5.47 a 45.05,45.05 0 0 0 2.53,-5.52 43.78,43.78 0 0 0 1.82,-8.94 63.59,63.59 0 0 1 1.74,-9.62 8.72,8.72 0 0 1 2.56,-4.5 6.78,6.78 0 0 1 5,-1.21 20.08,20.08 0 0 1 5.05,1.5 c 2.51,1 5.19,2.12 6.57,4.44 1.17,2 1.15,4.39 1,6.67 -0.59,7.51 -2.61,15.09 -1.16,22.49 a 10.77,10.77 0 0 0 0.9,1.94 7.93,7.93 0 0 1 0.16,2.53 c -0.01,2.13 0.02,4.28 0.04,6.44 z"
       transform="translate(-38.53,-3.79)"
       id="path249"
       inkscape:connector-curvature="0"
       style="fill:#1c2a3c" />
    <path
       class="cls-17"
       d="m 138.28,218.29 a 12.29,12.29 0 0 1 7.24,-2.93 8.56,8.56 0 0 1 7,3.08 c 2.18,2.81 2,6.72 1.76,10.27 -0.38,5.21 1.31,10.46 -0.93,15.18 a 38.93,38.93 0 0 0 -3.28,10.6 9.37,9.37 0 0 1 -1.19,4 c -1.24,1.79 -3.64,2.33 -5.83,2.44 -2.19,0.11 -4.46,-0.07 -6.45,0.84 a 51.34,51.34 0 0 0 11.22,0.32 41.34,41.34 0 0 1 -10.34,1.66 20.87,20.87 0 0 1 -9.87,-2.38 l -0.15,-3.23 a 6.33,6.33 0 0 0 6.35,0.23 8.7,8.7 0 0 1 -7.69,-6.69 l 2.34,1.37 c 1.62,-4.45 5.19,-8.35 6,-13 a 174.65,174.65 0 0 0 2.11,-20.66 c 0.72,-0.63 1.29,-1.18 2,-1.8 a 0.45,0.45 0 0 1 -0.36,0.37 4.21,4.21 0 0 1 0.76,-1.27 c -0.4,0.67 -0.31,0.89 -0.69,1.6 z"
       transform="translate(-38.53,-3.79)"
       id="path251"
       inkscape:connector-curvature="0"
       style="fill:#2e4765" />
    <path
       class="cls-18"
       d="m 153.46,237.51 a 6,6 0 0 1 -2.84,3.74 9,9 0 0 1 -3.68,0.68 l -5.91,0.23 8.16,1.55 a 4.57,4.57 0 0 1 2,0.7 1.57,1.57 0 0 1 0.6,1.84 c 1.38,-2.81 2.7,-5.15 2.95,-8.38 0.05,-0.62 0.35,-4.09 -0.28,-4.42 -0.63,-0.33 -0.83,3.48 -1,4.06 z"
       transform="translate(-38.53,-3.79)"
       id="path253"
       inkscape:connector-curvature="0"
       style="fill:#4f6e8e" />
    <path
       class="cls-14"
       d="m 182.42,271.88 -15.33,-8.15 c 0,0 -0.74,-4.93 1.61,-8.24 2.35,-3.31 16.15,5.62 16.15,5.62 z"
       transform="translate(-38.53,-3.79)"
       id="path255"
       inkscape:connector-curvature="0"
       style="fill:#2e2c30" />
    <path
       class="cls-15"
       d="m 181.13,265.41 a 15.31,15.31 0 0 0 1.29,6.47 107.17,107.17 0 0 0 18,-7.68 c 0,-2 -0.11,-4.09 -1.62,-5.36 -1.24,-1 -3,-1.09 -4.63,-0.91 a 22.8,22.8 0 0 0 -11,4.32 5.27,5.27 0 0 0 -2.04,3.16 z"
       transform="translate(-38.53,-3.79)"
       id="path257"
       inkscape:connector-curvature="0"
       style="fill:#443f44" />
    <path
       class="cls-16"
       d="m 160.66,233.07 c 2.8,2.7 5.51,5.72 6.63,9.45 a 26.27,26.27 0 0 1 0.7,7.82 15.61,15.61 0 0 1 -0.8,5.82 3.14,3.14 0 0 0 -0.43,2.08 2.59,2.59 0 0 0 1.22,1.25 c 2.25,1.43 4.55,2.8 6.88,4.11 a 15.46,15.46 0 0 0 5.3,2.11 c 2.39,0.32 4.79,-0.45 7.09,-1.22 q 5.69,-1.94 11.32,-4 c 0.88,-0.33 2,-0.94 1.81,-1.88 a 2.29,2.29 0 0 0 -0.79,-1.17 c -2,-2.05 -3.13,-4.77 -4.32,-7.37 A 98.48,98.48 0 0 0 170.45,217 c -2.83,-2.45 -6,-4.83 -9.68,-5.42 -3.68,-0.59 -8,1.21 -9.12,4.8 -0.83,2.78 0.48,6.49 1.8,9 1.6,3.03 4.78,5.35 7.21,7.69 z"
       transform="translate(-38.53,-3.79)"
       id="path259"
       inkscape:connector-curvature="0"
       style="fill:#1c2a3c" />
    <path
       class="cls-19"
       d="M 158.39,215.11 176.73,237 c 2.5,3 2.66,7.34 4.05,11 a 6.86,6.86 0 0 1 0.56,2.06 2.4,2.4 0 0 1 -0.68,2 c -0.31,0.28 -0.74,0.5 -0.8,0.9 -0.08,0.55 0.55,0.89 1.08,1.05 0.53,0.16 1.18,0.42 1.19,1 a 10.85,10.85 0 0 1 -3.58,1 15,15 0 0 0 4.94,1.21 11.93,11.93 0 0 1 -3.74,1.14 c 4.1,1.33 8.56,0.6 12.82,-0.13 l -10.52,3.42 c 2.27,1.45 5.21,1.32 7.8,0.62 2.59,-0.7 5,-1.89 7.67,-2.47 l -3.77,-1.11 a 29.92,29.92 0 0 1 3.94,-2.32 c -0.82,-6 -1.67,-12.15 -4.17,-17.65 -3.28,-7.22 -9.12,-12.89 -14.14,-19 a 50.91,50.91 0 0 0 -6.08,-6.78 12.64,12.64 0 0 0 -8.3,-3.44 7.6,7.6 0 0 0 -6.61,5.61 z"
       transform="translate(-38.53,-3.79)"
       id="path261"
       inkscape:connector-curvature="0"
       style="fill:#2f4a68" />
    <path
       class="cls-18"
       d="m 190.49,237 -10.29,1.76 a 4.1,4.1 0 0 1 -2.43,-0.08 4.15,4.15 0 0 1 -1.29,-1.18 c -2.51,-3.08 -5.48,-6.78 -7.78,-10 1.58,0.27 2.26,2.43 3.19,3.48 a 17.7,17.7 0 0 0 3.8,3 21.7,21.7 0 0 0 9.19,3.17 20.28,20.28 0 0 0 5.61,-0.15 z"
       transform="translate(-38.53,-3.79)"
       id="path263"
       inkscape:connector-curvature="0"
       style="fill:#4f6e8e" />
    <path
       class="cls-20"
       d="m 169.67,188.89 c 0,0 8.87,17.17 9.7,18.66 0.83,1.49 12.11,3.77 12.11,3.77 l -7.82,-20.44 -11.42,-12.19 z"
       transform="translate(-38.53,-3.79)"
       id="path265"
       inkscape:connector-curvature="0"
       style="fill:#b78056" />
    <path
       class="cls-21"
       d="m 172.73,181.67 c 0,0 15.44,22.48 18.75,29.65 0,0 4.73,-3.6 5.64,-8.66 0,0 -8.65,-14.35 -20.41,-23.06 -11.76,-8.71 -3.98,2.07 -3.98,2.07 z"
       transform="translate(-38.53,-3.79)"
       id="path267"
       inkscape:connector-curvature="0"
       style="fill:#ffcc94" />
    <path
       class="cls-22"
       d="m 176.71,178.09 v 1.51 a 8.55,8.55 0 0 0 -3.81,1.66 l -3.23,7.63 -1.08,-0.41 -0.4,-6.22 2.75,-4.49 z"
       transform="translate(-38.53,-3.79)"
       id="path269"
       inkscape:connector-curvature="0"
       style="fill:#0f2c28" />
    <path
       class="cls-22"
       d="m 172.24,180.35 -3.65,8.13 c 0,0 -3.21,-0.5 -4.8,-4.9 -1.59,-4.4 -2.66,-14.68 -2.66,-14.68 l 7.46,4.19 z"
       transform="translate(-38.53,-3.79)"
       id="path271"
       inkscape:connector-curvature="0"
       style="fill:#0f2c28" />
    <path
       class="cls-23"
       d="m 160.49,166.73 a 26.14,26.14 0 0 1 16.22,11.36 16.22,16.22 0 0 0 -4.47,2.26 33.25,33.25 0 0 0 -9.33,-8.67 8.28,8.28 0 0 1 -2.78,-2.32 c -0.65,-1.03 -0.66,-1.97 0.36,-2.63 z"
       transform="translate(-38.53,-3.79)"
       id="path273"
       inkscape:connector-curvature="0"
       style="fill:#245c54" />
    <path
       class="cls-24"
       d="m 166.87,171 a 9.68,9.68 0 0 1 -0.28,-2.06 25,25 0 0 0 -6.1,-2.21 c -1,0.66 -1,1.6 -0.36,2.63 a 8.28,8.28 0 0 0 2.78,2.32 35.09,35.09 0 0 1 5,3.81 c -0.35,-1.49 -0.7,-2.99 -1.04,-4.49 z"
       transform="translate(-38.53,-3.79)"
       id="path275"
       inkscape:connector-curvature="0"
       style="fill:#173b38" />
    <path
       class="cls-20"
       d="m 186,135.45 c 0,0 -9.57,14.89 -16,23.16 -6.43,8.27 -7.4,15.81 -7.4,15.81 l -33.75,7.37 -4.64,-9.54 7.67,-32.57 29.53,-7.21 24.59,2.46"
       transform="translate(-38.53,-3.79)"
       id="path277"
       inkscape:connector-curvature="0"
       style="fill:#b78056" />
    <path
       class="cls-25"
       d="m 140.44,147.21 c 0,0 -7.42,11.7 -9.51,23.14 l -2.09,11.44 -19.31,0.45 -10.8,-23 1.1,-18.79 7.92,-8.75 9.4,-0.65 15.5,6 z"
       transform="translate(-38.53,-3.79)"
       id="path279"
       inkscape:connector-curvature="0"
       style="fill:#e5a26a" />
    <path
       class="cls-26"
       d="m 120.19,141.23 c -3.38,-2.82 -7.08,-5.59 -11.42,-6.3 -0.84,-0.14 -3.4,-0.22 -3,1.27 0.36,1.22 3.1,1.59 4.08,1.89 z"
       transform="translate(-38.53,-3.79)"
       id="path281"
       inkscape:connector-curvature="0"
       style="fill:#ffcca6" />
    <path
       class="cls-27"
       d="m 88.06,112.67 a 200.7,200.7 0 0 0 -3.33,29.84 c -0.83,18.11 -1.3,35.83 -1.3,35.83 0,0 10,0.83 15.35,1.65 5.35,0.82 10.75,2.25 10.75,2.25 l 3,-21.26 c 0,0 -7.92,-2.72 -9,-5.08 -1.08,-2.36 1.75,-20.11 4.24,-20.45 2.49,-0.34 7.45,2.14 7.45,2.14 l 2,-6.57 L 103,117.63 Z"
       transform="translate(-38.53,-3.79)"
       id="path283"
       inkscape:connector-curvature="0"
       style="fill:#32281d" />
    <path
       class="cls-21"
       d="m 110.23,127.14 c 0,0 18.09,9.46 30.21,20.07 L 186,135.45 c 0,0 -2.28,-4.32 -12.09,-11.51 A 255.93,255.93 0 0 1 154,107.37 h -19.31 l -29,7.35 -0.8,5.14 z"
       transform="translate(-38.53,-3.79)"
       id="path285"
       inkscape:connector-curvature="0"
       style="fill:#ffcc94" />
    <path
       class="cls-28"
       d="m 151.59,111.27 a 5.27,5.27 0 0 0 -3.61,-2.38 14.68,14.68 0 0 0 -4.44,0 148.48,148.48 0 0 0 -35.88,8.24 c 2.23,2.47 4.72,4.81 7.17,7.06 a 24.9,24.9 0 0 0 -4.6,3 86.9,86.9 0 0 1 -22.17,-14.47 430.7,430.7 0 0 1 52.18,-10 22.32,22.32 0 0 1 7.69,0 c 5.51,1.27 9.2,6.29 12.4,11 -2.75,0.16 -7.39,-0.04 -8.74,-2.45 z"
       transform="translate(-38.53,-3.79)"
       id="path287"
       inkscape:connector-curvature="0"
       style="fill:#603e22" />
    <path
       class="cls-29"
       d="m 117.15,116.92 v 3.46 c 0,0 5.84,7.66 11.17,9.21 l 0.81,-3 z"
       transform="translate(-38.53,-3.79)"
       id="path289"
       inkscape:connector-curvature="0"
       style="fill:#95846f" />
    <path
       class="cls-30"
       d="m 129.13,126.61 -0.81,3 c 0,0 6.11,-1.49 11,-3 4.89,-1.51 5.42,-2.16 5.42,-2.16 V 122 l -4.36,-0.68 z"
       transform="translate(-38.53,-3.79)"
       id="path291"
       inkscape:connector-curvature="0"
       style="fill:#c6c1ab" />
    <path
       class="cls-29"
       d="m 140.92,111.08 -0.48,3 c 0,0 5.91,6.74 11.05,7.9 l 0.09,-2.59 L 151,114 Z"
       transform="translate(-38.53,-3.79)"
       id="path293"
       inkscape:connector-curvature="0"
       style="fill:#95846f" />
    <path
       class="cls-30"
       d="m 151.58,119.34 -0.09,2.59 c 0,0 5.72,-1.33 8.34,-2.07 2.62,-0.74 4.74,-1.42 4.74,-1.42 v -2.64 h -7.27 z"
       transform="translate(-38.53,-3.79)"
       id="path295"
       inkscape:connector-curvature="0"
       style="fill:#c6c1ab" />
    <path
       class="cls-31"
       d="m 132.59,113.11 c 4,2.71 8.85,5.39 12.11,8.92 -4.94,1.14 -10.64,3.38 -15.57,4.58 a 36.66,36.66 0 0 1 -12,-9.69 c 5.18,-2.04 10.03,-2.68 15.46,-3.81 z"
       transform="translate(-38.53,-3.79)"
       id="path297"
       inkscape:connector-curvature="0"
       style="fill:#fff7d4" />
    <path
       class="cls-31"
       d="m 164.57,115.8 c -4.38,1.26 -8.58,2.4 -13,3.54 a 26.84,26.84 0 0 1 -7.26,-5.2 l -3.4,-3.06 c 5.09,-1.35 15.61,-2.36 15.61,-2.36 0,0 5.74,4.28 8.05,7.08 z"
       transform="translate(-38.53,-3.79)"
       id="path299"
       inkscape:connector-curvature="0"
       style="fill:#fff7d4" />
    <path
       class="cls-32"
       d="m 135.26,115.18 a 11.67,11.67 0 0 1 2.23,2.21 c -0.94,0.45 -1.74,0.86 -2.7,1.27 a 6.49,6.49 0 0 1 -2.92,-2.41 23,23 0 0 1 3.39,-1.07 z"
       transform="translate(-38.53,-3.79)"
       id="path301"
       inkscape:connector-curvature="0"
       style="fill:#382719" />
    <path
       class="cls-32"
       d="m 147.62,112 a 10.26,10.26 0 0 1 1.93,1.91 c -0.82,0.38 -1.51,0.74 -2.34,1.09 a 5.6,5.6 0 0 1 -2.52,-2.07 18.82,18.82 0 0 1 2.93,-0.93 z"
       transform="translate(-38.53,-3.79)"
       id="path303"
       inkscape:connector-curvature="0"
       style="fill:#382719" />
    <path
       class="cls-33"
       d="m 103,106.42 v 1.26 c 0,0 3.94,3 5.47,3.4 l 3.56,-1 -0.24,-0.8 -2.28,-1 3,-0.91 v -1.25 h -4.74 z"
       transform="translate(-38.53,-3.79)"
       id="path305"
       inkscape:connector-curvature="0"
       style="fill:#1c130c" />
    <polygon
       class="cls-33"
       points="103,97.22 100.98,97.22 96.16,97.22 96.16,98.27 98.24,99.84 101.91,98.53 105.19,100.87 108.04,100.66 108.04,99.69 105.25,99.05 "
       id="polygon307"
       style="fill:#1c130c" />
    <path
       class="cls-34"
       d="m 109.69,104.66 c 0.9,0.49 1.91,1 2.8,1.46 l -1.67,0.61 a 3.61,3.61 0 0 0 -1.64,1 15.8,15.8 0 0 1 2.62,1.57 9.85,9.85 0 0 1 -3.31,0.8 q -2.79,-1.76 -5.48,-3.66 c 1.99,-1.28 4.38,-1.57 6.68,-1.78 z"
       transform="translate(-38.53,-3.79)"
       id="path309"
       inkscape:connector-curvature="0"
       style="fill:#3a2a19" />
    <path
       class="cls-34"
       d="m 141.2,100.52 a 4.93,4.93 0 0 1 2.34,1.16 25.64,25.64 0 0 0 3,1.79 18.45,18.45 0 0 1 -2.68,0.15 l -3.18,-2 a 12.3,12.3 0 0 0 -4,0.64 9.36,9.36 0 0 0 -2,-1.3 33.15,33.15 0 0 1 6.52,-0.44 z"
       transform="translate(-38.53,-3.79)"
       id="path311"
       inkscape:connector-curvature="0"
       style="fill:#3a2a19" />
    <path
       class="cls-35"
       d="m 144.09,126.27 v 1.58 a 9.32,9.32 0 0 0 3.95,3 36.16,36.16 0 0 0 7.6,-2.3 c 3.12,-1.48 3.4,-2 3.4,-2 v -1.76 l -5.75,0.85 z"
       transform="translate(-38.53,-3.79)"
       id="path313"
       inkscape:connector-curvature="0"
       style="fill:#694e33" />
    <path
       class="cls-36"
       d="m 159,124.85 a 26.67,26.67 0 0 1 -10.94,4.51 10.07,10.07 0 0 1 -4,-3.09 26.61,26.61 0 0 1 10.45,-4.21 c 1.49,-0.23 3.37,1.81 4.49,2.79 z"
       transform="translate(-38.53,-3.79)"
       id="path315"
       inkscape:connector-curvature="0"
       style="fill:#ae8c67" />
    <path
       class="cls-37"
       d="m 142,135.1 a 26.46,26.46 0 0 0 4.83,6 8.91,8.91 0 0 0 7.14,2.24 c 2.49,-0.47 4.46,-2.3 6.55,-3.73 a 23.61,23.61 0 0 1 9.43,-3.83 3.26,3.26 0 0 0 -1.18,-2 17.39,17.39 0 0 1 -1.75,-1.56 7.3,7.3 0 0 1 -1.29,-2.83 2.68,2.68 0 0 0 -1,-1.72 1.94,1.94 0 0 0 -0.95,-0.23 c -1.75,-0.06 -16.28,4.73 -17.85,5 -1.57,0.27 -3.93,0.46 -3.93,2.66 z"
       transform="translate(-38.53,-3.79)"
       id="path317"
       inkscape:connector-curvature="0"
       style="fill:#36221f" />
    <path
       class="cls-38"
       d="m 142,135.1 a 26.46,26.46 0 0 0 4.83,6 8.91,8.91 0 0 0 7.14,2.24 c 2.49,-0.47 4.46,-2.3 6.55,-3.73 a 23.61,23.61 0 0 1 9.43,-3.83 3.26,3.26 0 0 0 -1.18,-2 17.39,17.39 0 0 1 -1.75,-1.56 7.3,7.3 0 0 1 -1.29,-2.83 2.68,2.68 0 0 0 -1,-1.72 1.94,1.94 0 0 0 -0.95,-0.23 c -1.75,-0.06 -16.28,4.73 -17.85,5 -1.57,0.27 -3.93,0.46 -3.93,2.66 z"
       transform="translate(-38.53,-3.79)"
       id="path319"
       inkscape:connector-curvature="0"
       style="fill:none;stroke:#2a160b;stroke-miterlimit:10" />
    <path
       class="cls-39"
       d="m 151.9,141.94 a 4.05,4.05 0 0 1 -2.36,-0.6 11.75,11.75 0 0 1 -1.94,-1.51 30.1,30.1 0 0 1 10.87,-4.9 16.71,16.71 0 0 1 1.6,1.66 1.91,1.91 0 0 1 0.35,0.58 0.66,0.66 0 0 1 -0.1,0.64 13.07,13.07 0 0 1 -8.42,4.13 z"
       transform="translate(-38.53,-3.79)"
       id="path321"
       inkscape:connector-curvature="0"
       style="fill:#b57e75" />
    <path
       class="cls-1"
       d="m 162.59,129 -0.52,-0.87 c 0,0 -18,5.48 -18.42,5.87 -0.42,0.39 0.44,2.76 0.44,2.76 h 0.68 l 9.15,-4.31 6.9,-2.5 -0.17,0.89 z"
       transform="translate(-38.53,-3.79)"
       id="path323"
       inkscape:connector-curvature="0"
       style="fill:#ffffff" />
    <path
       class="cls-40"
       d="m 144.77,136.78 a 98.59,98.59 0 0 1 17.82,-7.78 1.86,1.86 0 0 1 -0.67,1.24 13.22,13.22 0 0 1 -4.58,3 l -0.91,-0.1 3.82,-2.68 z"
       transform="translate(-38.53,-3.79)"
       id="path325"
       inkscape:connector-curvature="0"
       style="fill:#7b6966" />
    <path
       class="cls-1"
       d="m 169.07,134.72 a 23.27,23.27 0 0 0 -5.21,1.11 c -4.55,1.53 -8.54,4.44 -13.1,5.93 a 4.16,4.16 0 0 0 4,0.44 15.22,15.22 0 0 0 3.81,-2.13 57.82,57.82 0 0 1 6.59,-3.85 9,9 0 0 1 3.71,-1.19 c 0.13,-0.03 0.31,-0.25 0.2,-0.31 z"
       transform="translate(-38.53,-3.79)"
       id="path327"
       inkscape:connector-curvature="0"
       style="fill:#ffffff" />
    <polygon
       class="cls-33"
       points="96.81,134.69 96.81,133.25 98.69,133.62 98.42,135.65 "
       id="polygon329"
       style="fill:#1c130c" />
    <polygon
       class="cls-33"
       points="145.06,136.17 145.07,134.45 143.96,134.45 143.76,135.65 "
       id="polygon331"
       style="fill:#1c130c" />
    <polygon
       class="cls-33"
       points="133.92,128.3 133.54,128.91 132.42,128.3 132.42,126.85 133.35,126.85 "
       id="polygon333"
       style="fill:#1c130c" />
    <path
       class="cls-33"
       d="m 171,132.08 a 17.19,17.19 0 0 1 3.51,-1.48 1.17,1.17 0 0 1 0.66,-0.07 1.26,1.26 0 0 1 0.53,0.39 l 7.43,8 a 1.34,1.34 0 0 1 0.51,1.08 c -0.09,0.47 -0.61,0.68 -1.07,0.82 l -28.46,8.67 c -2.15,0.66 -4.49,1.31 -6.6,0.53 a 9.73,9.73 0 0 1 -3,-2 81.3,81.3 0 0 1 -9.16,-9.49 c 1.28,-0.42 2.41,-1 3.69,-1.45 0.11,0 0.24,-0.07 0.33,0 a 34.43,34.43 0 0 1 7.21,7.4 6.1,6.1 0 0 0 2.5,2.29 5.74,5.74 0 0 0 3.64,-0.32 q 11.89,-3.72 24,-6.6 a 1.39,1.39 0 0 0 0.56,-0.23 c 0.53,-0.43 0.13,-1.3 -0.34,-1.8 -1.72,-1.86 -4,-3.11 -5.69,-5 -0.11,-0.24 -0.46,-0.64 -0.25,-0.74 z"
       transform="translate(-38.53,-3.79)"
       id="path335"
       inkscape:connector-curvature="0"
       style="fill:#1c130c" />
    <path
       class="cls-34"
       d="m 171,130.64 a 16.68,16.68 0 0 1 3.51,-1.49 1.08,1.08 0 0 1 0.66,-0.06 1.19,1.19 0 0 1 0.53,0.39 l 7.43,7.94 a 1.35,1.35 0 0 1 0.51,1.09 c -0.09,0.46 -0.61,0.67 -1.07,0.81 L 154.06,148 c -2.15,0.66 -4.49,1.31 -6.6,0.53 a 9.55,9.55 0 0 1 -3,-2 81.3,81.3 0 0 1 -9.16,-9.49 c 1.28,-0.42 2.41,-1 3.69,-1.45 0.11,0 0.24,-0.07 0.33,0 a 34.66,34.66 0 0 1 7.21,7.4 6.1,6.1 0 0 0 2.5,2.29 5.74,5.74 0 0 0 3.64,-0.32 q 11.89,-3.72 24,-6.6 a 1.39,1.39 0 0 0 0.56,-0.23 c 0.53,-0.43 0.13,-1.3 -0.34,-1.8 -1.72,-1.86 -4,-3.11 -5.69,-5 -0.06,-0.2 -0.41,-0.6 -0.2,-0.69 z"
       transform="translate(-38.53,-3.79)"
       id="path337"
       inkscape:connector-curvature="0"
       style="fill:#3a2a19" />
    <path
       class="cls-26"
       d="m 107.62,153.64 a 7.1,7.1 0 0 0 6.68,5 1,1 0 0 0 0.75,-0.27 0.76,0.76 0 0 0 -0.18,-1 2.73,2.73 0 0 0 -1,-0.44 8.54,8.54 0 0 1 -5.23,-4.63 c -0.59,-1.33 -1.43,-4.66 -0.22,-5.88 a 9.76,9.76 0 0 0 -0.8,7.22 z"
       transform="translate(-38.53,-3.79)"
       id="path339"
       inkscape:connector-curvature="0"
       style="fill:#ffcca6" />
    <path
       class="cls-41"
       d="m 110,145.6 a 2.62,2.62 0 0 1 2.38,-1.32 2.2,2.2 0 0 1 1.49,2.34 16.67,16.67 0 0 1 -0.67,2.94 1.05,1.05 0 0 0 0.09,0.89 0.78,0.78 0 0 0 1.18,-0.17 2,2 0 0 0 0.2,-1.33 3,3 0 0 1 0,-1.37 1.62,1.62 0 0 1 2.6,-0.42 8.44,8.44 0 0 0 -1.88,-3.59 4.25,4.25 0 0 0 -3.69,-1.38 5,5 0 0 0 -3.34,2.91 10.07,10.07 0 0 0 0.85,10.35 c -0.43,-0.57 -0.43,-1.95 -0.64,-2.65 a 6.09,6.09 0 0 1 -0.34,-2 9.24,9.24 0 0 1 1.77,-5.2 z"
       transform="translate(-38.53,-3.79)"
       id="path341"
       inkscape:connector-curvature="0"
       style="fill:#b27547" />
    <path
       class="cls-42"
       d="m 137.62,168.49 a 31.53,31.53 0 0 1 -5.08,9.58 92.28,92.28 0 0 1 -3.45,35.34 4.75,4.75 0 0 0 -0.29,1.74 1.6,1.6 0 0 0 0.95,1.38 c 0.32,0.11 0.75,0.11 0.91,0.42 0.16,0.31 -0.37,0.81 -0.8,1 a 3.22,3.22 0 0 0 -1.52,3.53 c 1.84,2 5.69,0.52 8.54,0.78 3.28,-10.12 4.23,-20.63 5,-31.24 0.48,-6.71 1,-13.5 -0.26,-20.11 a 5.84,5.84 0 0 0 -1,-2.68 c -0.62,-0.71 -2.14,-0.23 -3,0.26 z"
       transform="translate(-38.53,-3.79)"
       id="path343"
       inkscape:connector-curvature="0"
       style="fill:#1b3834" />
    <path
       class="cls-43"
       d="m 136.75,220.8 a 9.37,9.37 0 0 0 -6.32,-6.23 5.69,5.69 0 0 0 -1.61,0 3.88,3.88 0 0 0 0,0.59 1.6,1.6 0 0 0 0.95,1.38 2.88,2.88 0 0 1 0.75,0.25 4.33,4.33 0 0 1 0.79,0.25 18.44,18.44 0 0 1 2.38,1.32 10.12,10.12 0 0 1 3.06,2.44 z"
       transform="translate(-38.53,-3.79)"
       id="path345"
       inkscape:connector-curvature="0"
       style="opacity:0.61000001;fill:#0b201f" />
    <path
       class="cls-43"
       d="m 136.51,222.12 a 8.26,8.26 0 0 1 -3.33,-1.94 c -1.09,-0.83 -3.12,-1.62 -4.49,-1 a 3.17,3.17 0 0 0 -0.35,2.35 c 1.84,2 5.69,0.52 8.54,0.78 L 137,222 a 0.48,0.48 0 0 1 -0.49,0.12 z"
       transform="translate(-38.53,-3.79)"
       id="path347"
       inkscape:connector-curvature="0"
       style="opacity:0.61000001;fill:#0b201f" />
    <path
       class="cls-44"
       d="m 132.92,190.29 a 39.41,39.41 0 0 0 3.85,-10.83 67.9,67.9 0 0 0 0.95,-8.65 c 0.06,-0.82 0.14,-1.65 0.19,-2.47 l -0.29,0.15 a 31.53,31.53 0 0 1 -5.08,9.58 84.47,84.47 0 0 1 0.38,12.22 z"
       transform="translate(-38.53,-3.79)"
       id="path349"
       inkscape:connector-curvature="0"
       style="fill:#0b201f" />
    <path
       class="cls-45"
       d="m 143.38,161.87 a 33.75,33.75 0 0 1 8.44,-2.55 44.74,44.74 0 0 1 7.91,-0.78 c 0.2,2.24 0.81,4.35 0.86,6.6 a 8.24,8.24 0 0 1 -2.12,6.19 7.58,7.58 0 0 1 -3.58,1.78 25.5,25.5 0 0 1 -4,0.44 16.37,16.37 0 0 1 -3,0 5.18,5.18 0 0 1 -2.73,-1.07 7.22,7.22 0 0 1 -2,-4.35 14,14 0 0 1 0.22,-6.26 z"
       transform="translate(-38.53,-3.79)"
       id="path351"
       inkscape:connector-curvature="0"
       style="fill:#664f38" />
    <path
       class="cls-46"
       d="m 145.77,168.73 c 4.52,-1.51 9.09,-3 13.06,-5.68 a 12.32,12.32 0 0 1 0.73,3.37 4.15,4.15 0 0 1 -1.16,3.16 5.59,5.59 0 0 1 -2.44,1.13 27.48,27.48 0 0 1 -5.85,0.88 6.33,6.33 0 0 1 -3.5,-0.6 2.1,2.1 0 0 1 -1,-1.29 1.17,1.17 0 0 1 0.74,-1.36"
       transform="translate(-38.53,-3.79)"
       id="path353"
       inkscape:connector-curvature="0"
       style="opacity:0.56999966;fill:#b78056" />
    <path
       class="cls-47"
       d="m 161.29,158.66 c 1.26,9.78 1.81,20 5.16,29.22 l 6.12,16.91 c 0.62,1.72 1.33,3.55 2.86,4.54 0.66,0.42 1.5,0.72 1.77,1.45 0.4,1.06 -0.68,2.07 -1.66,2.64 a 25.83,25.83 0 0 1 -16.19,3.22 57.49,57.49 0 0 0 -3.61,6.17 11.23,11.23 0 0 1 -5,5 9.32,9.32 0 0 1 -7.8,-0.7 25.81,25.81 0 0 1 -6.24,-5.11 c 2,-18 3.74,-35.79 0.79,-53.65 a 16,16 0 0 1 5.17,-6.31 c 0.76,-0.55 1.4,0 2.32,-0.13 a 14.66,14.66 0 0 1 2.32,8.09 c 3.54,-0.23 7.77,0 11.17,-1 -0.32,-2.78 -0.69,-7.57 -1,-10.36 1.53,-0.2 2.66,-0.75 3.82,0.02 z"
       transform="translate(-38.53,-3.79)"
       id="path355"
       inkscape:connector-curvature="0"
       style="fill:#2a635a" />
    <path
       class="cls-48"
       d="m 147.07,168.29 h 0.13 A 14.2,14.2 0 0 0 145,161.9 c -0.38,-0.85 -1.56,-0.42 -2.32,0.13 a 16,16 0 0 0 -5.17,6.31 c 0.41,2.49 0.72,5 1,7.47 2.64,-2.71 5.13,-5.7 8.56,-7.52 z"
       transform="translate(-38.53,-3.79)"
       id="path357"
       inkscape:connector-curvature="0"
       style="fill:#214f4a" />
    <path
       class="cls-48"
       d="m 159.8,188.86 c 2.09,-0.26 4,-1.3 6.12,-1.52 a 0.49,0.49 0 0 1 0.45,0.3 c -0.21,-0.61 -0.41,-1.23 -0.6,-1.85 -0.47,0.17 -0.94,0.32 -1.39,0.49 a 19.09,19.09 0 0 0 -4.58,2.58 z"
       transform="translate(-38.53,-3.79)"
       id="path359"
       inkscape:connector-curvature="0"
       style="fill:#214f4a" />
    <path
       class="cls-48"
       d="m 177.2,210.78 c -0.27,-0.73 -1.11,-1 -1.77,-1.45 -1.53,-1 -2.24,-2.82 -2.86,-4.54 l -6.12,-16.91 -0.06,-0.2 a 1.1,1.1 0 0 1 0,0.16 c 0,1.3 -0.91,1.95 -2,2.5 A 59,59 0 0 0 158.9,193 c -4.82,3.08 -8.77,7.23 -12.76,11.28 -0.78,0.8 -4.11,4.29 -5.27,2.38 -0.57,-0.95 0.38,-2.55 0.81,-3.35 1,-1.84 2.64,-3.73 2.94,-5.87 -3,1.09 -4.79,4.45 -6.26,7.41 -0.27,3.47 -0.6,7 -1,10.43 1.92,0.35 3.46,1.56 5.07,2.71 1.61,1.15 3.34,2 5.42,1.52 a 19.64,19.64 0 0 0 4.37,-2.13 0.52,0.52 0 0 1 0.76,0.55 c -0.7,3 -4.21,4.16 -6.95,4.3 a 7.35,7.35 0 0 1 -4,-1 c -1.37,-0.73 -3.33,-2.25 -5.06,-2.19 0,0.14 0,0.28 0,0.42 a 26.86,26.86 0 0 1 5.23,4.37 v 0 a 6.71,6.71 0 0 0 10,-0.27 23.39,23.39 0 0 0 2.16,-3 0.5,0.5 0 0 1 0.93,0.25 9.09,9.09 0 0 1 -0.95,3.94 16.71,16.71 0 0 0 1.3,-1.93 57.49,57.49 0 0 1 3.61,-6.17 25.83,25.83 0 0 0 16.19,-3.22 c 1.08,-0.58 2.16,-1.59 1.76,-2.65 z"
       transform="translate(-38.53,-3.79)"
       id="path361"
       inkscape:connector-curvature="0"
       style="fill:#214f4a" />
    <path
       class="cls-48"
       d="m 161.58,161.05 c -0.09,-0.8 -0.19,-1.59 -0.29,-2.39 -1.16,-0.77 -2.28,-0.22 -3.83,0 0.17,1.49 0.36,3.56 0.54,5.58 a 8.11,8.11 0 0 1 3.58,-3.19 z"
       transform="translate(-38.53,-3.79)"
       id="path363"
       inkscape:connector-curvature="0"
       style="fill:#214f4a" />
    <path
       class="cls-48"
       d="m 159.11,171.27 c -1.8,1.27 -5.18,1.34 -7.83,1.4 a 43.58,43.58 0 0 0 7.11,0.2 c 1.52,-0.07 3,-0.59 2.89,-2.18 a 7,7 0 0 0 -0.41,-1.47 c -0.2,-0.71 -0.39,-1.42 -0.61,-2.11 0.12,1.62 0.07,3.29 -1.15,4.16 z"
       transform="translate(-38.53,-3.79)"
       id="path365"
       inkscape:connector-curvature="0"
       style="fill:#214f4a" />
    <path
       class="cls-49"
       d="m 142.26,219.52 a 8.44,8.44 0 0 0 4.16,1.56 5.12,5.12 0 0 0 4.08,-1.49 19.07,19.07 0 0 1 -3.35,0.65 6.34,6.34 0 0 1 -3.33,-0.58 24.53,24.53 0 0 1 -3,-2.33 c -0.28,-0.21 -0.9,-0.69 -1.28,-0.58 -0.56,0.17 0.14,0.63 0.36,0.83 a 18.91,18.91 0 0 0 2.36,1.94 z"
       transform="translate(-38.53,-3.79)"
       id="path367"
       inkscape:connector-curvature="0"
       style="opacity:0.54000005;fill:#308e7c" />
    <path
       class="cls-49"
       d="m 145.86,227.12 a 6.25,6.25 0 0 0 2.88,0.23 3.33,3.33 0 0 0 2.33,-1.57 12.33,12.33 0 0 1 -5.5,0.76 9,9 0 0 1 -2.49,-0.66 c -0.56,-0.25 -1.51,-0.62 -1.78,-1.22 a 14.93,14.93 0 0 0 4.56,2.46 z"
       transform="translate(-38.53,-3.79)"
       id="path369"
       inkscape:connector-curvature="0"
       style="opacity:0.54000005;fill:#308e7c" />
    <path
       class="cls-50"
       d="m 158.25,170.47 a 8.18,8.18 0 0 0 1.19,-1.55 1.37,1.37 0 0 1 -0.4,1.29 3.12,3.12 0 0 1 -2,1.08 c 0.23,-0.35 0.86,-0.49 1.21,-0.82 z"
       transform="translate(-38.53,-3.79)"
       id="path371"
       inkscape:connector-curvature="0"
       style="fill:#308e7c" />
    <polygon
       class="cls-20"
       points="87.87,183.22 89.51,176.45 87.04,175.13 65.53,185.66 60.38,187.38 63.7,193.52 68.71,206.47 "
       id="polygon373"
       style="fill:#b78056" />
    <polygon
       class="cls-21"
       points="84.86,172.18 87.04,175.13 69.64,188.39 62.07,187.49 62.07,188.39 67.94,190.65 60.38,197.2 53.6,190.99 77.1,175.13 "
       id="polygon375"
       style="fill:#ffcc94" />
    <polygon
       class="cls-22"
       points="86.85,172.18 78.5,173.05 77.36,173.93 77.1,175.13 87.04,175.13 87.87,183.22 88.26,183.59 89.61,182.98 90.9,179.79 89.37,172.18 "
       id="polygon377"
       style="fill:#0f2c28" />
    <path
       class="cls-22"
       d="m 127.24,177.93 0.6,8.77 -1,0.68 c 0,0 1.42,0.37 3.38,-1.84 1.96,-2.21 6.24,-8.41 6.74,-10.12 0.5,-1.71 1.65,-5.85 0,-7.16 -1.65,-1.31 -10.12,8.44 -10.12,8.44 z"
       transform="translate(-38.53,-3.79)"
       id="path379"
       inkscape:connector-curvature="0"
       style="fill:#0f2c28" />
    <path
       class="cls-51"
       d="m 127.24,177.93 a 54.3,54.3 0 0 0 9.67,-9.67 46.9,46.9 0 0 0 -21,9.45 c 3.71,-0.6 7.56,-0.04 11.33,0.22 z"
       transform="translate(-38.53,-3.79)"
       id="path381"
       inkscape:connector-curvature="0"
       style="fill:#256860" />
    <path
       class="cls-52"
       d="m 129.16,170.34 a 3.18,3.18 0 0 1 2.09,1.13 3.1,3.1 0 0 1 0.33,2.71 65.62,65.62 0 0 0 5.33,-5.92 46.17,46.17 0 0 0 -7.75,2.08 z"
       transform="translate(-38.53,-3.79)"
       id="path383"
       inkscape:connector-curvature="0"
       style="fill:#25403f" />
    <polygon
       class="cls-25"
       points="67.94,190.65 68.71,206.47 60.92,212.61 60.38,197.2 "
       id="polygon385"
       style="fill:#e5a26a" />
    <polygon
       class="cls-20"
       points="53.6,190.99 53.6,199.28 60.92,212.61 60.38,197.2 "
       id="polygon387"
       style="fill:#b78056" />
    <path
       class="cls-53"
       d="m 110.08,209.39 -4.84,-6 c 0,0 -1.23,-3.8 3,-2.83 l 6.24,5.73 z"
       transform="translate(-38.53,-3.79)"
       id="path389"
       inkscape:connector-curvature="0"
       style="fill:#784d3b" />
    <path
       class="cls-54"
       d="m 106.81,202.55 a 3.15,3.15 0 0 1 -0.67,-2.06 c -1.63,0.57 -0.9,2.85 -0.9,2.85 l 4.84,6 1.8,-1.3 a 50.07,50.07 0 0 1 -5.07,-5.49 z"
       transform="translate(-38.53,-3.79)"
       id="path391"
       inkscape:connector-curvature="0"
       style="fill:#4c2f25" />
    <path
       class="cls-55"
       d="m 108.22,163.08 c 0,0 5.31,25.1 3.37,43.76 0,0 -3.74,1.87 -1.47,7.8 0,0 1.13,12.47 -10.28,34.81 v 2.13 l 8.38,-9.57 6.93,-21.38 v -19.42 l -1.59,-22 -3.56,-14.59 z"
       transform="translate(-38.53,-3.79)"
       id="path393"
       inkscape:connector-curvature="0"
       style="fill:#396e5f" />
    <path
       class="cls-56"
       d="m 121.64,219.42 c -3.72,17 -16.48,31 -18.08,32.16 -1.6,1.16 -3.72,0 -3.72,0 11,-19.27 13.16,-34.15 13.16,-34.15 -1.33,-8 1.46,-10.63 1.46,-10.63 0.27,-27.51 -6.24,-43.72 -6.24,-43.72 0,0 0.66,-2.79 3,-0.8 2.34,1.99 11.3,28.12 11.83,44.56 0,0 1.58,0.09 1.59,6.47 0.06,4.91 -3,6.11 -3,6.11 z"
       transform="translate(-38.53,-3.79)"
       id="path395"
       inkscape:connector-curvature="0"
       style="fill:#5bc8b4" />
    <path
       class="cls-57"
       d="m 117.85,206.27 c -4.83,1.65 -5.43,7 -2.54,10.43 -0.65,-3.23 -0.55,-6.78 3,-8.26 a 5.11,5.11 0 0 1 6.2,1.64 c -0.42,-3.17 -1.41,-3.24 -1.41,-3.24 0,0 0,-0.07 0,-0.11 a 6.86,6.86 0 0 0 -5.25,-0.46 z"
       transform="translate(-38.53,-3.79)"
       id="path397"
       inkscape:connector-curvature="0"
       style="fill:#a4e1d1" />
    <path
       class="cls-57"
       d="m 117.45,179 a 3,3 0 0 1 0.45,0.2 c -2.6,-8.87 -5.43,-15.93 -6.63,-16.93 -2.39,-2 -3,0.8 -3,0.8 0,0 2.93,7.32 4.78,20.44 0.24,-2.88 1.24,-5.68 4.4,-4.51 z"
       transform="translate(-38.53,-3.79)"
       id="path399"
       inkscape:connector-curvature="0"
       style="fill:#a4e1d1" />
    <path
       class="cls-53"
       d="m 122.64,210.39 a 18.34,18.34 0 0 1 -0.55,6.35 9.48,9.48 0 0 1 -6,-0.73 l 0.67,-5.67 a 8.12,8.12 0 0 1 5.88,0.05 z"
       transform="translate(-38.53,-3.79)"
       id="path401"
       inkscape:connector-curvature="0"
       style="fill:#784d3b" />
    <path
       class="cls-54"
       d="m 119.75,215.06 a 5.29,5.29 0 0 1 -2.82,-4.72 c 0,0 0,0 0,-0.05 l -0.18,0.05 q -0.35,2.83 -0.67,5.67 a 9.48,9.48 0 0 0 6,0.73 16.2,16.2 0 0 0 0.39,-1.78 3.28,3.28 0 0 1 -2.72,0.1 z"
       transform="translate(-38.53,-3.79)"
       id="path403"
       inkscape:connector-curvature="0"
       style="fill:#4c2f25" />
    <path
       class="cls-53"
       d="m 95.56,192.46 c 0,0 -2.46,-2.88 -2.11,-3.67 0.58,-1.32 4.37,2.2 4.37,2.2 z"
       transform="translate(-38.53,-3.79)"
       id="path405"
       inkscape:connector-curvature="0"
       style="fill:#784d3b" />
    <path
       class="cls-54"
       d="m 93.74,188.63 a 0.41,0.41 0 0 1 0,-0.08 0.43,0.43 0 0 0 -0.26,0.24 c -0.35,0.79 2.11,3.67 2.11,3.67 l 0.79,-0.51 c -0.96,-1.06 -1.79,-2.2 -2.64,-3.32 z"
       transform="translate(-38.53,-3.79)"
       id="path407"
       inkscape:connector-curvature="0"
       style="fill:#4c2f25" />
    <path
       class="cls-58"
       d="m 139.47663,28.860629 c 0,0 -27.34,15.75 -53.300001,22.87 0,0 -48.83,2.54 -60,-3.56 l 29.29,-24.39 28.06,-8.13 z"
       id="path409"
       inkscape:connector-curvature="0"
       style="fill:#fdc125" />
    <path
       class="cls-59"
       d="m 75.036629,6.0206287 c 1.21,5.8900003 2.55,12.1500003 3.24,18.3300003 -17.42,7.92 -34.69,15.9 -52.11,23.82 a 64.54,64.54 0 0 1 -0.76,-16.77 c 15.43,-10.52 32.33,-18.31 49.63,-25.3800003 z"
       id="path411"
       inkscape:connector-curvature="0"
       style="fill:#ffdc1e" />
    <polygon
       class="cls-60"
       points="116.16,43.47 177.36,47.98 177.36,28.93 112.92,25.14 "
       id="polygon413"
       style="fill:#fdef6f"
       transform="translate(-37.883371,-19.119371)" />
  </g>
</svg>
