<?xml version="1.0" encoding="UTF-8" standalone="no"?>
<!-- Generator: Adobe Illustrator 21.1.0, SVG Export Plug-In . SVG Version: 6.00 Build 0)  -->

<svg
   xmlns:dc="http://purl.org/dc/elements/1.1/"
   xmlns:cc="http://creativecommons.org/ns#"
   xmlns:rdf="http://www.w3.org/1999/02/22-rdf-syntax-ns#"
   xmlns:svg="http://www.w3.org/2000/svg"
   xmlns="http://www.w3.org/2000/svg"
   xmlns:sodipodi="http://sodipodi.sourceforge.net/DTD/sodipodi-0.dtd"
   xmlns:inkscape="http://www.inkscape.org/namespaces/inkscape"
   version="1.0"
   id="Warstwa_1"
   x="0px"
   y="0px"
   viewBox="0 0 792 792"
   enable-background="new 0 0 792 792"
   xml:space="preserve"
   sodipodi:docname="minnie.svg"
   inkscape:version="0.92.4 (5da689c313, 2019-01-14)"><metadata
   id="metadata57"><rdf:RDF><cc:Work
       rdf:about=""><dc:format>image/svg+xml</dc:format><dc:type
         rdf:resource="http://purl.org/dc/dcmitype/StillImage" /></cc:Work></rdf:RDF></metadata><defs
   id="defs55" /><sodipodi:namedview
   pagecolor="#ffffff"
   bordercolor="#666666"
   borderopacity="1"
   objecttolerance="10"
   gridtolerance="10"
   guidetolerance="10"
   inkscape:pageopacity="0"
   inkscape:pageshadow="2"
   inkscape:window-width="1366"
   inkscape:window-height="715"
   id="namedview53"
   showgrid="false"
   inkscape:zoom="0.84281414"
   inkscape:cx="228.96229"
   inkscape:cy="570.79988"
   inkscape:window-x="-8"
   inkscape:window-y="22"
   inkscape:window-maximized="1"
   inkscape:current-layer="Warstwa_1" />
<g
   id="g50"
   transform="matrix(1.0956438,0,0,1.0956438,-222.46751,-35.423066)">
	<path
   d="m 501.6,651.6 c 2.3,-23.6 -3.2,-49.7 -23.3,-75.9 -25.2,-32.8 -59.1,-43.5 -88.3,-39.3 0.4,-0.9 0.8,-1.8 1.2,-2.6 19,0 41.7,-2 41.9,-23.5 6.4,0.1 13.1,-5.3 16.9,-14.2 12.8,-5.4 25.6,-34.3 13.9,-67.3 3.9,-5.9 7.6,-12 11.3,-17.9 32.1,6.1 40,-16.8 36.2,-32 5.2,-18 10.8,-44.3 -4.5,-51.2 18.7,-25.9 21.7,-58.2 9.4,-74.3 -2.7,-23 -22.8,-56.4 -36.8,-64.8 26.1,3.8 49.2,-28.8 36.5,-64.7 C 499.9,78.5 446.8,71.6 423.3,86.6 394,42.1 339.5,26.8 326.9,41.5 312,58.5 341.1,108 362.8,142 c -6,1.4 -12.1,5.6 -15.6,10.4 C 322.8,122.9 278,101 246,102.5 c -34.9,1.6 -54.4,20.1 -18.7,58.1 7.4,7.9 15.9,14.8 24.5,20.7 -8.9,24.1 15.5,75.8 51.6,71.3 6.4,5.9 14.3,8.7 24,7 -4.2,28.5 3.4,56.8 14.8,72.8 -9,-0.4 -19.7,7.9 -21.4,16.7 -6.4,-1.9 -15.7,-0.6 -23.3,9.5 -7.8,10.3 -10.4,26.7 1,41.7 -2.6,3.4 -4.5,7 -4.8,10.8 -9.4,-1.1 -49.1,3.1 -52,31.4 -2.2,20.8 10.8,35.3 21.5,45.5 -3.3,9 3.8,18.1 11.6,16.7 3.2,18.6 16.9,45.7 26.8,63.9 -22.8,15.5 -46.6,52.4 -48.1,77.6 -8.3,24.9 -29.2,40.4 -26.5,52.7 4,18.5 92.2,31.9 140.2,-20 11.7,2.9 26.5,-6.5 30.5,-14.6 13.1,8.3 25.4,14.2 35.8,22 14.6,10.9 17.2,24.1 30.6,23.1 15.2,-1.1 32.8,-24.4 36.9,-54 15.3,8 79.4,-2.1 80.2,27.9 0.4,15.6 -26.4,37.6 -71.8,43.5 -35.8,4.7 -71.2,12.2 -91.2,28.8 22.4,-14.7 57.6,-21.5 91.5,-26.2 47.5,-6.6 74,-28.1 73.8,-46.2 -0.2,-35.1 -67.8,-23.1 -81.9,-31.6 z m -164.5,-97 c -1,-1.8 -3.4,-8.6 -4.6,-12.2 2,-0.2 3.9,-0.5 5.9,-0.9 -0.2,3.3 -0.8,8.2 -1.3,13.1 z"
   id="path2"
   inkscape:connector-curvature="0" />
	<path
   d="m 466.9,361.9 c -7.1,4.5 -15.7,4.2 -24.1,2.1 2.3,-11.6 13.3,-16.5 19.1,-16.8 -0.5,3.5 -0.3,5.7 0.7,9.1 0.3,-14.8 9.3,-22.7 15.9,-22.3 -0.5,11.5 -1.8,21.7 -11.6,27.9 z"
   id="path4"
   inkscape:connector-curvature="0"
   style="fill:#f79c85" />
	<path
   d="m 393.9,223.2 c -5.7,-0.1 -22.3,-7.3 -27.8,-12 3.5,8.4 19.4,13.6 26.7,13.4 -7.4,12.3 -0.8,51 16.9,66.5 -5.1,1.2 -10.3,3.1 -14.8,5.6 -0.4,-12.1 -10.2,-46.4 -21.1,-55.5 -5.4,-8 -13.6,-22.8 -15.7,-31.6 -1.4,9.6 7.4,23.3 12.5,29.9 -0.4,-0.1 -0.7,-0.1 -1.1,-0.1 -4.5,-2.6 -14.7,-8.7 -22.9,-17.9 7.2,-14.3 17.8,-27.2 31.3,-10.4 0.2,-2.4 0.6,-4.7 1.1,-6.8 5.3,7.9 12.1,15 16.8,17.3 -0.7,0.5 -1.4,1 -1.9,1.6 z m -26.2,16.9 c -5.4,-1.8 -15.4,-7.4 -22.3,-15.7 -1.1,2.4 -2.1,5 -2.9,7.6 8,5.8 18,10 22.9,10.3 0.6,-1 1.4,-1.7 2.3,-2.2 z m 136.1,86.6 c -5.6,-1 -12.4,1.4 -14.4,3.9 0.4,-2.4 1,-4.5 1.9,-6.2 -7.9,4.8 -2.4,34 -18,44.2 -21.6,14.1 -45.8,-5.1 -61,0.3 4,-0.2 8.1,0.4 12.3,1.4 -27.8,5.7 -60,-0.8 -71,-17.4 -9.1,-13.7 -0.3,-25.7 5,-28.8 -19.5,-23.6 -24.8,-61.1 -16.9,-89.4 7.5,5.8 17.8,9.2 22.9,9.1 -6.2,13.1 -0.2,51.3 22.4,58.8 -2.1,2.1 -3.6,4.4 -4.5,6.9 9.5,-11.9 36.3,-19.2 48.3,-18 -1.8,-1 -4.4,-1.6 -7.4,-1.8 4.1,-21.1 -7.1,-57.6 -19.8,-66.8 -5.1,-8.1 -9.9,-25.3 -9.1,-34.4 -4.5,5.9 0.3,24.4 6.1,32.8 -0.8,-0.2 -1.6,-0.3 -2.3,-0.3 -4.1,-2.8 -11.7,-10.7 -18.1,-20.1 2.7,-7.9 7.5,-13.3 11.7,-16.3 6.8,0.5 15,0.5 24.1,1.8 9.2,1.3 18.8,3.5 27.5,5.3 17.3,17.3 27,52.8 27.8,73.6 5,-9.5 17.1,-21.9 31.7,-17.2 22.9,7.5 21,49 0.8,78.6 z m -125.1,-1.2 c 1.9,9.2 16.2,14 31.8,10.8 15.6,-3.3 26.7,-13.4 24.8,-22.7 -1.9,-9.2 -16.2,-14.1 -31.8,-10.8 -15.7,3.4 -26.8,13.5 -24.8,22.7 z m 123.8,-43.6 c -5.6,-6.2 -22.1,-2.4 -24.3,5.1 2.3,-1.7 4.8,-2.9 7.5,-3.9 0,17.9 -7.8,44 -35,59.9 -29.4,17.2 -66.8,12.8 -84.3,-1.5 1.9,-1.4 3.9,-2.4 5.6,-2.7 -5.5,-1.8 -16.3,6.5 -13.1,14.5 -0.2,-3.7 2.5,-7.6 5.8,-10.4 10.4,9.6 29.2,15.5 49.3,14.6 13.5,3.2 37,18.5 54.8,7.5 17.5,-10.8 11.2,-34.5 12.9,-50.2 4.8,-10.6 6.4,-21.7 6.1,-32.3 5.2,-1.6 10.6,-1.7 14.7,-0.6 z"
   id="path6"
   inkscape:connector-curvature="0"
   style="fill:#fee4cd" />
	<path
   d="m 353.1,592.9 c 3.3,0.1 6,0 9.4,0 9,37.2 47.2,74 87.8,79.8 -11.3,4.3 -25.2,2.2 -34.3,-1.4 -22,-12.2 -49.8,-29.4 -62.9,-78.4 z m 51.3,-45.6 c -6.2,-1.1 -12.8,-1.3 -19.6,-0.4 -0.5,1 -0.9,1.8 -1.1,2.3 2.1,1.2 3.7,2 5.3,2.3 4,-1.8 9.5,-3.3 15.4,-4.2 z m -145.6,88.5 c -4.3,13.9 -2,25.2 5.3,32.3 1.9,-25.7 20,-62.7 46.6,-82.7 -1.7,-3.2 -4.4,-8 -7.5,-13.8 -11.8,8.1 -36.4,38.5 -44.4,64.2 z"
   id="path8"
   inkscape:connector-curvature="0"
   style="fill:#d90861" />
	<path
   d="m 230.3,697.7 c -1.8,-8 16.6,-25.7 23.9,-43.5 2.9,19.3 21.9,29.5 50.3,22.7 21.9,-5.2 44.6,-22.1 58.4,-50.4 5.6,10.8 11.9,19 18.7,25.5 -43.4,80.6 -148.4,59 -151.3,45.7 z m 165.3,-34.5 c -3.9,-2.6 -7.7,-5.5 -11.5,-8.8 -4.1,8.3 -8.9,15.6 -14.4,22 6.6,0.9 21.2,-5.8 25.9,-13.2 z m 80.6,-84 c -24.5,-33 -58.8,-43.6 -87.1,-41 -1,2.1 -2.2,4.3 -3.1,6.3 62.3,-7.2 107.2,76 80.5,118.4 -8.4,13.4 -25.9,16.6 -40.5,14.1 3.6,2.1 6.8,4.1 9.7,6.3 16.3,12.8 17.9,23.4 27.6,22.7 21.4,-1.8 58.5,-65.3 12.9,-126.8 z"
   id="path10"
   inkscape:connector-curvature="0"
   style="fill:#f16ea0" />
	<path
   d="m 329.2,43.5 c 12.4,-14.8 74,9.6 98.5,56.6 -7.8,-5.1 -15.6,-9 -21.8,-10.1 51.5,25.6 78.1,75 66.7,97.7 -5,10 -29.6,-1.7 -56.6,-5.2 -12.7,-1.7 -34.5,0.9 -39.2,-5.9 -4.7,-6.8 -2.3,-36.9 6.8,-50.1 -5.6,3 -9.8,13.7 -11.5,24.8 C 353.4,118.3 315,60.5 329.2,43.5 Z m 19.6,112.1 c -2.6,8.5 -2.6,34.7 9.1,39.4 4.3,1.7 9.6,0 14.5,-2.8 -1.3,-3.4 -1.9,-6.5 -1.6,-8.9 0.8,2.6 2,5.2 3.3,7.9 3.7,-2.4 6.9,-5.2 9.1,-7.6 -3.3,-0.8 -6,-2.1 -8,-4.4 -3.8,-4.1 -4.8,-13.7 -3.8,-23.7 -2.1,-3.3 -4.4,-6.8 -6.8,-10.5 -5.5,0.4 -14.3,6 -15.8,10.6 z m 8,43 C 344.7,194 342.9,174.4 343.8,165.9 325.5,152.4 242,137.8 234.7,117.5 c 11.8,16.1 86.1,30.1 109.4,46 0.4,-2.9 1.1,-5.9 1.9,-8.5 -24.9,-30.4 -74.9,-51.7 -104.6,-48.6 -27.1,2.9 -42.3,16.5 -13.7,48.2 25.1,27.9 59.8,44.3 77.7,46.9 -3.7,1.3 -11.2,0.1 -20.6,-3.2 5.4,30.1 17.9,62.8 43.2,58.3 1.7,-9.7 4.6,-18.8 8.4,-26.9 -1.9,-2.3 -3.2,-4.9 -3.7,-7.7 1.2,2 2.8,3.9 4.7,5.7 1.4,-2.8 2.9,-5.5 4.6,-8.1 -1.9,-3.2 -3.2,-6.6 -3.7,-10.3 1.4,2.9 3.1,5.7 5,8.2 5.1,-7.5 11,-13.8 17.5,-18.4 -1.1,0.2 -2.3,0.1 -4,-0.5 z"
   id="path12"
   inkscape:connector-curvature="0"
   style="fill:#f16ea0" />
	<path
   d="m 438.4,393.8 c -0.3,0.4 -0.7,0.9 -1,1.3 -12.3,-12.6 -27.9,-15.1 -41.7,-14.5 0.2,-1.6 0.3,-3.5 -0.1,-5.2 10.5,0.5 22,-0.6 34,-3.7 1.3,0.4 2.5,0.8 3.8,1.1 -3.1,8.6 -0.2,16.4 5,21 z m 49.8,-6.3 c -10.9,-10.7 -31.8,-6.7 -42,-0.7 -1.2,1.2 -2.6,3 -4.3,5.3 14.8,-6.9 35.6,-3.1 38.1,6.1 2.8,-4.1 5.5,-7.7 8.2,-10.7 z M 346,445.1 c 5.8,10.4 24.3,16.9 39.3,14.2 -1.2,-2.9 -2.4,-5.4 -3.6,-7.4 -4.4,-1.9 -8,-3.8 -10.6,-5.2 -4.8,1.9 -10.2,1.3 -14.8,-1.6 -3.1,0.4 -6.6,0.4 -10.3,0 z M 507.2,330.9 c -6,-3.9 -14.5,-0.9 -18.2,2.1 -1.4,12.3 0.5,30 -13.8,38.7 -14,8.6 -26.8,5.6 -38.9,1.9 -1.2,5.9 -0.4,14.1 3.8,17.8 1.1,-1.4 2,-2.9 3,-4.1 9.1,-11.8 48,-14.4 49,5.3 -0.5,-1.1 -1.2,-2.1 -1.9,-3 -4.5,4.9 -8.9,11.3 -13.3,18.3 32.9,4 37,-21.7 28.3,-40.7 1.9,1.7 3.5,4.2 4.7,7.1 2.9,-11.4 8.1,-36.4 -2.7,-43.4 z M 423,504.6 c -3.8,2.6 -8,2.3 -10.5,1.5 -1.2,2.4 -3.8,5.5 -7.9,7.8 2.9,-3.2 4.8,-6.4 5.9,-8.6 -12,-6.1 -18.3,-29 -24.7,-44.6 -13.7,4.5 -36.4,-2.9 -42.5,-16 -8.1,-1.8 -16.2,-6.1 -19.6,-14.1 -5.7,0.9 -11.3,0.9 -16.3,-0.9 -4.6,2.2 -16.1,11.3 -22.9,22.4 0.6,-7.6 13.2,-21.1 19,-24.3 -5.4,-3.3 -9.5,-9.2 -9.9,-14.4 -17.7,0.1 -45.4,6.4 -48.2,28.8 -3.4,27.4 22.5,44.1 32.2,55.3 10.2,11.7 24.7,35.7 40.6,40.8 15.9,5.1 36,-6.1 54.9,-7.3 31.2,-2 55.5,2.1 57,-21.2 -2.4,-0.7 -4.9,-2.4 -7.1,-5.2 z"
   id="path14"
   inkscape:connector-curvature="0"
   style="fill:#00bbe5" />
	<g
   id="g48">
		<path
   d="m 461.7,432 c -13.2,19.4 -24.1,27.4 -35.5,29.3 5.3,10.9 6.8,33.2 -1.2,41.6 14.4,15.5 32.5,-13.7 22.5,-51.5 5.2,6.1 8.4,26.4 3.7,41.1 12,-10.1 16.8,-39.7 10.5,-60.5 z"
   id="path16"
   inkscape:connector-curvature="0"
   style="fill:#ffffff" />
		<path
   d="m 422.7,461.7 c -11.7,0.8 -25.3,-3.3 -36.2,-7.7 9.7,20.1 18.9,53.3 32.3,49.4 9.8,-2.7 10.9,-25.4 3.9,-41.7 z"
   id="path18"
   inkscape:connector-curvature="0"
   style="fill:#ffffff" />
		<path
   d="m 327.4,429.9 c 4.9,10.1 17.2,13.1 25.8,12.7 -3.9,-4 -6.5,-10.2 -6.2,-18.7 -6.1,2.2 -12.9,4.6 -19.6,6 z"
   id="path20"
   inkscape:connector-curvature="0"
   style="fill:#ffffff" />
		<path
   d="m 391.3,381.1 c -14.9,-6.4 -42.1,8.2 -38.6,28.6 1.2,7.1 7.5,11.1 14,11.1 -1.6,-3.7 -2.7,-7.2 -2.9,-10.3 -1.4,-15.4 11.9,-26.8 27.5,-29.4 z"
   id="path22"
   inkscape:connector-curvature="0"
   style="fill:#ffffff" />
		<path
   d="m 350,422.9 c 2.4,-0.8 4.6,-1.5 6.7,-2.1 1.8,1 3.9,1.7 5.9,2 -4.5,7.6 -1.2,17.4 5.5,22.2 -7.9,2.2 -19.7,-7.3 -18.1,-22.1 z"
   id="path24"
   inkscape:connector-curvature="0"
   style="fill:#ffffff" />
		<path
   d="m 421.4,275 c -1.4,-5.9 -3.9,-10.4 -7.4,-9.4 -5.8,1.8 -2.9,18 1.3,24.5 -1.1,0.2 -2.3,0.3 -3.4,0.6 -17.5,-16.8 -24.5,-63.5 -14.9,-67.2 8,-3 21.6,25.8 24.4,51.5 z"
   id="path26"
   inkscape:connector-curvature="0"
   style="fill:#ffffff" />
		<path
   d="M 388.1,301.6 C 364.2,290.1 361.4,245 368.9,242 c 5.4,-2.2 14.3,19 20.1,37.7 -1.4,-1.4 -2.8,-1.9 -4.4,-1.2 -5.4,2.4 0.1,17.6 5.4,21.6 -0.7,0.4 -1.3,0.9 -1.9,1.5 z"
   id="path28"
   inkscape:connector-curvature="0"
   style="fill:#ffffff" />
		<path
   d="m 328.4,354.9 c -0.5,-1.7 -2.3,-3.5 -4.9,-4.7 2.8,-9.5 14.2,-15.6 20.5,-15.5 0.8,1 1.6,1.9 2.4,2.8 -1.2,5.1 -0.5,11.2 3.5,17.3 7.3,11.1 22.9,18.8 42.6,20.5 0.3,1.1 0.5,2.4 0.5,4.3 -5.3,-3.1 -12.6,-3.2 -19.8,-1.1 0,-2.1 -0.5,-4.4 -1.9,-5.9 0.7,1.7 0.2,4.4 -0.4,6.7 -2.3,0.9 -4.6,2 -6.8,3.3 -0.9,0 -1.8,0 -2.8,0.1 -0.5,-4.1 -3.6,-11.8 -7.8,-14 3.1,3.6 4.7,10.5 4.4,14.3 -3.6,0.5 -7.8,1.3 -12.1,2.4 -1.6,-3.9 -7,-9.6 -10.2,-10.1 2.7,2.9 5.8,7.4 7.3,10.9 -9.3,2.6 -19.1,6.4 -25.9,10.2 -0.3,-0.4 -7.6,-12 -6.9,-23.5 -1.1,2.8 -1.7,6.6 -1.4,10.4 -1,-1 -1.7,-2.7 -2.7,-6 -0.7,4.5 1.5,8.9 3.6,10.3 0.2,0.6 0.3,1.1 0.6,1.6 -3,2.4 -6.1,5.2 -8.9,8.1 -20.5,-27.7 9.3,-57.1 27.1,-42.4 z"
   id="path30"
   inkscape:connector-curvature="0"
   style="fill:#ffffff" />
		<path
   d="m 264.9,489.7 c 3.5,3.3 6.9,6.1 9.5,8.8 0,1.4 0.1,2.8 0.2,4.3 -7.5,-0.5 -10.4,-5.8 -9.7,-13.1 z"
   id="path32"
   inkscape:connector-curvature="0"
   style="fill:#ffffff" />
		<path
   d="m 395.8,383.5 c -26.4,2.1 -34.6,19.7 -25.9,38.1 13.8,1.4 38,-0.9 45.5,-1.4 3.7,-3.1 12.6,-13.1 20.1,-22.6 -8.6,-8.6 -22.8,-15.5 -39.7,-14.1 z m 10,32.1 c -3.5,-6.1 -13.9,-14.9 -18.2,-17.1 5.1,-1 18.8,10.8 18.2,17.1 z m 11.4,-8 c -3.3,-4.7 -17.1,-13.7 -19.6,-13.9 5.9,-1.8 20.6,9.5 19.6,13.9 z m -9,-18.4 c 5,-2.5 18.3,4.5 18.4,10.6 -2.9,-3.8 -13.9,-11 -18.4,-10.6 z"
   id="path34"
   inkscape:connector-curvature="0"
   style="fill:#ffffff" />
		<path
   d="m 311.6,588.2 c 1.9,3.6 7.7,15.3 10.9,21.4 -2.8,-0.6 -12.2,-18.3 -10.9,-21.4 z"
   id="path36"
   inkscape:connector-curvature="0"
   style="fill:#ffffff" />
		<path
   d="m 334.8,581.2 c 1.6,4.3 6.9,12.4 16.9,11.4 -17,-3.8 -18.5,-14.3 -15.1,-36.7 -1.6,2.8 -5.2,16.3 -1.8,25.3 z"
   id="path38"
   inkscape:connector-curvature="0"
   style="fill:#ffffff" />
		<path
   d="m 364.2,592.9 c 4.3,-0.5 20.3,-4.4 26.4,-9.2 -2,5 -20.5,10.9 -26.4,9.2 z"
   id="path40"
   inkscape:connector-curvature="0"
   style="fill:#ffffff" />
		<path
   d="m 382.8,550.9 c -1.8,3.6 -7.7,16.8 -8.8,20.7 3.6,-3.8 9.5,-18.9 8.8,-20.7 z"
   id="path42"
   inkscape:connector-curvature="0"
   style="fill:#ffffff" />
		<path
   d="m 390.2,552.4 c 2.7,1.1 8.8,2.7 11.8,2.6 -2.1,-1.7 -9.6,-3.5 -11.8,-2.6 z"
   id="path44"
   inkscape:connector-curvature="0"
   style="fill:#ffffff" />
		<path
   d="m 315.8,397.2 c -2.5,1.2 -5.1,3.6 -6.5,5 0.2,-2.5 3.8,-5.9 6.5,-5 z"
   id="path46"
   inkscape:connector-curvature="0"
   style="fill:#ffffff" />
	</g>
</g>
</svg>