<?xml version="1.0" encoding="UTF-8" standalone="no"?>
<!-- Generator: Adobe Illustrator 23.0.3, SVG Export Plug-In . SVG Version: 6.00 Build 0)  -->

<svg
   xmlns:dc="http://purl.org/dc/elements/1.1/"
   xmlns:cc="http://creativecommons.org/ns#"
   xmlns:rdf="http://www.w3.org/1999/02/22-rdf-syntax-ns#"
   xmlns:svg="http://www.w3.org/2000/svg"
   xmlns="http://www.w3.org/2000/svg"
   xmlns:sodipodi="http://sodipodi.sourceforge.net/DTD/sodipodi-0.dtd"
   xmlns:inkscape="http://www.inkscape.org/namespaces/inkscape"
   version="1.1"
   id="Слой_2"
   x="0px"
   y="0px"
   viewBox="0 0 237.78899 279.10001"
   xml:space="preserve"
   sodipodi:docname="mushu.svg"
   width="237.78899"
   height="279.10001"
   inkscape:version="0.92.4 (5da689c313, 2019-01-14)"><metadata
   id="metadata113"><rdf:RDF><cc:Work
       rdf:about=""><dc:format>image/svg+xml</dc:format><dc:type
         rdf:resource="http://purl.org/dc/dcmitype/StillImage" /><dc:title></dc:title></cc:Work></rdf:RDF></metadata><defs
   id="defs111" /><sodipodi:namedview
   pagecolor="#ffffff"
   bordercolor="#666666"
   borderopacity="1"
   objecttolerance="10"
   gridtolerance="10"
   guidetolerance="10"
   inkscape:pageopacity="0"
   inkscape:pageshadow="2"
   inkscape:window-width="1366"
   inkscape:window-height="715"
   id="namedview109"
   showgrid="false"
   fit-margin-top="0"
   fit-margin-left="0"
   fit-margin-right="0"
   fit-margin-bottom="0"
   inkscape:zoom="0.78666667"
   inkscape:cx="-106.68241"
   inkscape:cy="139.60001"
   inkscape:window-x="-8"
   inkscape:window-y="22"
   inkscape:window-maximized="1"
   inkscape:current-layer="Слой_2" />
<style
   type="text/css"
   id="style2">
	.st0{fill:#FFFFFF;}
	.st1{fill:#FFCE00;}
	.st2{fill:#72000B;}
	.st3{fill:#40A1F2;}
	.st4{fill:#B21222;}
	.st5{fill:#D3161F;}
	.st6{fill:#9C0E36;}
	.st7{fill:#4B001D;}
	.st8{fill:#FCADA6;}
	.st9{opacity:0.47;fill:#3F28C6;}
	.st10{fill:#3F28C6;}
	.st11{fill:#7C0026;}
</style>
<path
   class="st0"
   d="m 120.54052,128.8 c -3.2,2.8 -8.7,2.8 -11.5,-0.4 -1.9,-2.1 -2.3,-5.1 -2.3,-7.9 0,-6.1 4.6,-14.7 11.6,-9.9 5.8,3.9 7.8,13.3 2.2,18.2 z"
   id="path4"
   inkscape:connector-curvature="0"
   style="fill:#ffffff" />
<g
   id="g10"
   transform="matrix(-1,0,0,1,261.94052,-10.5)">
	<path
   class="st1"
   d="m 133.9,153.7 c -0.5,0 -0.9,0 -1.4,0 -1.4,-0.1 -5.5,-0.3 -8.6,-3.2 -1.6,-1.5 -3.4,-4.3 -3.4,-9.2 0,-5.7 2.2,-10.9 3.9,-14.2 0.7,-1.3 1.3,-2.6 2,-3.9 1.2,-2.3 2.4,-4.5 3.3,-6.8 0.9,-2.4 1.2,-4.3 0.7,-5.3 -0.6,-1.3 -3,-2.4 -4.7,-3.1 -8.3,-3.4 -17.4,-5.2 -26.4,-5.2 -0.4,0 -1.2,0 -1.2,0 -2.8,0 -5.2,-2.1 -5.5,-4.9 -0.3,-2.8 1.6,-5.4 4.4,-6 4.7,-0.9 9.4,-1.3 14,-1.3 9.6,0 18.7,1.9 27.2,5.6 3.4,1.5 7.7,3.8 9.6,8.4 1.5,3.5 1.4,7.6 -0.4,12.1 -1.7,4.3 -4.2,7.9 -6.7,11.3 -2.5,3.5 -4.8,6.7 -5.8,10.2 -0.5,1.7 -0.3,2.3 -0.3,2.3 0.1,0.1 0.9,0.6 2.1,0.6 0,0 0,0 0,0 0.1,0 0.3,0 0.4,0 2.8,-0.2 4.5,-0.5 7.2,-1.1 0.4,-0.1 0.7,-0.1 1.1,-0.1 2.3,0 4.4,1.4 5.2,3.6 0.9,2.6 -0.1,5.4 -2.5,6.7 -4.2,2.2 -9.2,3.5 -14.2,3.5 z"
   id="path6"
   inkscape:connector-curvature="0"
   style="fill:#ffce00" />
	<path
   class="st0"
   d="m 111.1,95.9 c 8.6,0 17.1,1.6 25,5.1 2.7,1.2 5.6,2.8 6.8,5.5 1.1,2.5 0.5,5.4 -0.4,7.9 -3.1,7.9 -10.3,13.8 -12.7,22 -0.6,2.1 -0.9,4.5 0.1,6.5 1.3,2.4 4.2,3.5 7,3.5 0.3,0 0.6,0 0.9,0 3,-0.2 4.9,-0.6 7.9,-1.2 -3.6,2 -7.6,3 -11.7,3 -0.4,0 -0.7,0 -1.1,0 -1.8,-0.1 -3.7,-0.4 -5,-1.7 -1.4,-1.3 -1.7,-3.3 -1.7,-5.2 0,-4.1 1.5,-8.1 3.3,-11.8 1.8,-3.7 4,-7.3 5.5,-11.1 1.2,-3.1 1.9,-6.7 0.5,-9.7 -1.4,-2.9 -4.6,-4.6 -7.6,-5.8 -9,-3.7 -18.8,-5.6 -28.5,-5.6 -0.4,0 -0.8,0 -1.2,0 4.2,-0.9 8.5,-1.4 12.9,-1.4 m 0,-11 c -5,0 -10.1,0.5 -15.1,1.4 -5.6,1.1 -9.5,6.3 -8.9,11.9 0.6,5.6 5.3,9.9 10.9,9.9 0.1,0 0.1,0 0.2,0 0.3,0 0.7,0 1,0 8.3,0 16.7,1.7 24.3,4.8 0.6,0.2 1,0.4 1.3,0.6 -0.1,0.2 -0.2,0.5 -0.3,0.8 -0.8,1.9 -1.8,4 -3,6.2 -0.7,1.3 -1.4,2.6 -2.1,4 -1.9,3.9 -4.5,9.8 -4.5,16.7 0,6.8 2.8,10.9 5.1,13.1 3,2.9 7.1,4.5 12.2,4.8 0.5,0 1.1,0 1.6,0 5.9,0 11.8,-1.5 17,-4.4 4.8,-2.6 6.9,-8.3 5,-13.4 -1.6,-4.4 -5.8,-7.2 -10.3,-7.2 -0.7,0 -1.5,0.1 -2.2,0.2 -0.2,0 -0.4,0.1 -0.6,0.1 0.7,-1.1 1.6,-2.3 2.5,-3.6 2.5,-3.6 5.4,-7.6 7.4,-12.5 2.9,-7.4 1.8,-12.9 0.3,-16.3 -2.8,-6.4 -8.5,-9.5 -12.5,-11.2 -9.1,-3.8 -19,-5.9 -29.3,-5.9 z"
   id="path8"
   inkscape:connector-curvature="0"
   style="fill:#ffffff" />
</g>
<g
   id="g14"
   transform="matrix(-1,0,0,1,261.94052,-10.5)">
	
</g>
<g
   id="g20"
   transform="matrix(-1,0,0,1,261.94052,-10.5)">
	<path
   class="st1"
   d="m 133.9,148.7 c -0.4,0 -0.8,0 -1.1,0 -1.6,-0.1 -3.8,-0.3 -5.3,-1.8 -1.3,-1.2 -1.9,-3.1 -1.9,-5.6 0,-4.6 1.8,-8.8 3.4,-12 0.6,-1.3 1.3,-2.5 1.9,-3.7 1.3,-2.4 2.6,-4.8 3.5,-7.3 1.5,-3.8 1.6,-6.9 0.5,-9.3 -1.4,-2.8 -4.5,-4.4 -7.3,-5.6 -8.9,-3.7 -18.7,-5.6 -28.3,-5.6 -0.4,0 -0.8,0 -1.2,0 0,0 0,0 0,0 -0.3,0 -0.5,-0.2 -0.5,-0.4 0,-0.3 0.1,-0.5 0.4,-0.5 4.4,-0.8 8.8,-1.3 13.1,-1.3 8.9,0 17.3,1.7 25.2,5.1 2.8,1.2 5.8,2.8 7,5.8 1,2.2 0.8,5 -0.4,8.3 -1.5,3.7 -3.8,7 -6.1,10.3 -2.6,3.6 -5.3,7.4 -6.6,11.7 -0.8,2.5 -0.7,4.6 0.1,6.1 1.3,2.4 4.2,3.2 6.5,3.2 v 0 c 0.3,0 0.6,0 0.8,0 3,-0.2 5,-0.6 7.8,-1.1 0,0 0.1,0 0.1,0 0.2,0 0.4,0.1 0.5,0.3 0.1,0.2 0,0.5 -0.2,0.6 -3.6,1.7 -7.7,2.8 -11.9,2.8 z"
   id="path16"
   inkscape:connector-curvature="0"
   style="fill:#ffce00" />
	<path
   class="st2"
   d="m 111.1,95.9 c 8.6,0 17.1,1.6 25,5.1 2.7,1.2 5.6,2.8 6.8,5.5 1.1,2.5 0.5,5.4 -0.4,7.9 -3.1,7.9 -10.3,13.8 -12.7,22 -0.6,2.1 -0.9,4.5 0.1,6.5 1.3,2.4 4.2,3.5 7,3.5 0.3,0 0.6,0 0.9,0 3,-0.2 4.9,-0.6 7.9,-1.2 -3.6,2 -7.6,3 -11.7,3 -0.4,0 -0.7,0 -1.1,0 -1.8,-0.1 -3.7,-0.4 -5,-1.7 -1.4,-1.3 -1.7,-3.3 -1.7,-5.2 0,-4.1 1.5,-8.1 3.3,-11.8 1.8,-3.7 4,-7.3 5.5,-11.1 1.2,-3.1 1.9,-6.7 0.5,-9.7 -1.4,-2.9 -4.6,-4.6 -7.6,-5.8 -9,-3.7 -18.8,-5.6 -28.5,-5.6 -0.4,0 -0.8,0 -1.2,0 4.2,-0.9 8.5,-1.4 12.9,-1.4 m 0,-1 c -4.4,0 -8.8,0.4 -13.2,1.3 -0.5,0.1 -0.9,0.6 -0.8,1.1 0.1,0.5 0.5,0.9 1,0.9 0,0 0,0 0,0 0.4,0 0.8,0 1.2,0 9.6,0 19.3,1.9 28.1,5.6 2.8,1.1 5.8,2.7 7.1,5.4 1.1,2.2 0.9,5.2 -0.5,8.9 -1,2.5 -2.3,4.9 -3.5,7.3 -0.6,1.2 -1.3,2.5 -1.9,3.8 -1.6,3.2 -3.4,7.6 -3.4,12.3 0,2.6 0.7,4.6 2,5.9 1.7,1.6 4,1.9 5.7,2 0.4,0 0.8,0 1.2,0 4.2,0 8.4,-1.1 12.1,-3.1 0.4,-0.2 0.6,-0.8 0.5,-1.2 -0.1,-0.4 -0.5,-0.7 -0.9,-0.7 -0.1,0 -0.1,0 -0.2,0 -2.9,0.6 -4.8,0.9 -7.8,1.1 -0.3,0 -0.5,0 -0.8,0 -2.2,0 -5,-0.8 -6.1,-2.9 -0.8,-1.4 -0.8,-3.4 -0.1,-5.7 1.3,-4.2 3.8,-7.8 6.5,-11.5 2.3,-3.2 4.7,-6.6 6.2,-10.4 1.3,-3.4 1.5,-6.3 0.4,-8.7 -1.4,-3.1 -4.5,-4.8 -7.3,-6 -8,-3.6 -16.6,-5.4 -25.5,-5.4 z"
   id="path18"
   inkscape:connector-curvature="0"
   style="fill:#72000b" />
</g>
<g
   id="g24"
   transform="matrix(-1,0,0,1,261.94052,-10.5)">
	<path
   class="st2"
   d="m 121.2,11.5 c 1.1,0 2.3,0.6 3.3,1.2 3.5,2 6.7,4.5 9.5,7.4 5.5,-3.8 11.8,-5.9 18.4,-5.9 0.6,0 1.3,0 1.9,0.1 0.9,0.1 1.8,0.2 2.6,0.6 0.8,0.5 1.3,1.4 1.1,2.3 1.4,-0.3 2.7,-0.4 4,-0.4 3.2,0 6.3,0.8 9.2,2.2 1.2,0.6 2.6,1.7 2.4,3 -0.1,1 -1,1.8 -1.9,2.3 -3,1.9 -6.3,3.3 -9.4,5 -3.1,1.7 -6.6,4 -8.7,6.8 1.6,1.2 3.6,1.6 5.7,1.6 1.5,0 3,-0.2 4.4,-0.4 14.8,-2.5 29.1,-8 44.1,-8 0,0 0.1,0 0.1,0 19.5,0 38.8,10.1 49.9,26.2 2.5,3.7 4.7,8.6 2.3,12.4 -1.9,3 -5.8,3.9 -9.4,3.9 -0.4,0 -0.8,0 -1.3,0 C 237.3,71.2 226,65.9 214.9,61 c -10.2,-4.5 -20.8,-9.1 -31.8,-9.1 -1,0 -2,0 -3.1,0.1 -0.6,2.8 -1.6,5.9 -3.7,7.9 6.2,2.5 21.6,9.5 31,26.1 3.3,5.7 5,11.2 6,15.8 -2,-2.4 -5.6,-6.1 -11.3,-8.2 -3,-1.1 -6.4,-1.7 -8.7,-1.7 -1.5,0 -2.6,0.3 -2.8,0.8 -0.6,1.5 5.7,3.6 10.8,10.6 2.2,3.1 3.5,6.1 4.2,8.1 -1.5,-1.3 -4.3,-3.6 -8.6,-4.9 -2.4,-0.7 -4.7,-1 -6.6,-1 -1.8,0 -3.3,0.2 -4.3,0.4 2.1,2.9 4.3,6 6.4,9.4 2,3.2 3.9,6.3 5.5,9.3 4.7,2.2 10.3,5.4 15.8,10.3 0.9,0.8 4.6,4.1 8.7,9.4 4.6,6 7.5,11.7 9.6,16.2 4.3,9.6 7.2,19.5 9.2,29.8 -1.4,-4.9 -4.2,-9.4 -8,-12.9 -1,-0.9 -2.3,-1.8 -3.6,-1.8 -0.2,0 -0.5,0 -0.7,0.1 -1.3,0.3 -2.2,1.6 -2.4,2.9 -0.2,1.3 0.1,2.7 0.5,3.9 2.1,6.9 6.5,12.8 10.3,18.9 10.4,16.8 16.6,37.1 17.7,56.8 0.6,10.6 -1.9,20.6 -6.6,30.1 -0.4,-7.8 -0.8,-15.9 -4.3,-22.9 -1.3,-2.5 -3.1,-4.9 -5.7,-6 -0.9,-0.3 -1.8,-0.5 -2.7,-0.5 -3,0 -6,1.7 -8,4.1 -2.5,3.1 -3.4,7.1 -4.2,11.1 -7.8,2.2 -20.1,5 -35,5 -9.4,0 -19.8,-1.1 -30.8,-4.1 -11.1,-3.1 -20.3,-7.4 -27.4,-11.6 6.5,-13.4 12.9,-26.7 19.4,-40.1 -1.9,-2.4 -3.2,-4.9 -4,-7.8 -0.4,2.9 -0.4,6 0.2,8.9 -3.5,-4.3 -6,-9.4 -6.7,-14.9 -0.7,3.4 -1.1,7 -0.4,10.4 -5.8,-7.3 -8.5,-17.3 -7.8,-26.6 -2.5,4.4 -2.8,9.7 -1.9,14.6 -3.6,-3.4 -5.7,-7.9 -6.4,-12.8 -0.8,4.3 -0.7,8.5 0.2,12.7 -5,-2.7 -9.1,-6.8 -10.8,-12.3 -0.7,4.1 -1.3,7.9 -0.4,11.9 -4.2,-3.2 -7.4,-7.8 -8.8,-12.9 -1.4,-5.1 -1.3,-10.7 0.7,-15.6 11.3,-4.9 21.5,-12.8 28,-23.3 4.7,0.2 9.4,2.3 12.7,5.6 0.7,7.1 2,14.7 3.6,21.7 4.6,-2.5 9.8,-5.6 13.6,-9.2 2.5,-13.7 2.1,-25 1.3,-32.7 0,0 -1.1,-10.6 -8.1,-26.4 -0.9,-2 -2.4,-5.3 -5.5,-6.4 -0.7,-0.3 -1.7,-0.6 -3,-0.6 -2.1,0 -4.8,0.8 -8.2,3.8 -6.3,5.6 -11.2,12.5 -16.6,19 -5.4,6.5 -11.5,12.6 -19.3,15.8 -4.2,1.7 -8.7,2.5 -13.2,2.5 -5.1,0 -10.3,-1 -15.1,-2.6 -8.8,-2.7 -17,-8.1 -24.8,-13.7 -4.3,-3.1 -8.9,-6.4 -14.1,-6.6 -0.1,0 -0.3,0 -0.4,0 -0.8,0 -1.6,0.1 -2.4,0.1 -1,0 -2.1,-0.1 -3,-0.5 -2.1,-1 -3.2,-3.4 -3.5,-5.7 -0.4,-4.1 1.6,-8.3 5,-10.6 1.9,-1.3 4.4,-2 6.8,-2 1.8,0 3.6,0.4 5.2,1.2 -0.7,-1.8 -1.8,-4.8 -2.1,-8.6 -0.1,-0.8 -1,-15.9 10.1,-24.2 1.6,-1.2 5.2,-3.8 10.5,-4.3 0.6,-0.1 1.2,-0.1 1.8,-0.1 6.5,0 11.2,3.4 12.6,4.4 1.1,-1.4 1.6,-3.4 0.6,-4.9 0.5,0.2 1,0.3 1.4,0.3 1.1,0 2.3,-0.5 3,-1.3 1.1,-1.2 1.8,-3.4 1.1,-4.9 0.5,0.1 1,0.2 1.5,0.2 2,0 3.7,-1.1 4.6,-3 C 83.4,56 82,47.9 84.3,41 c 2.3,-7 8.1,-12.7 15.1,-14.8 0.8,-3.2 1.5,-6.5 3,-9.4 0.7,-1.4 1.8,-3 3.3,-3.1 0,0 0.1,0 0.1,0 1.2,0 2.3,0.9 3.1,1.8 1.9,2 3.7,4.1 5.4,6.4 1.1,-2.5 1.9,-5.3 3.4,-7.6 0.6,-1 1.4,-2 2.5,-2.4 0.3,-0.3 0.7,-0.4 1,-0.4 m 0,-1 c -0.5,0 -0.9,0.1 -1.4,0.2 -1.4,0.5 -2.3,1.7 -3,2.8 -1,1.6 -1.7,3.4 -2.4,5.2 -0.1,0.3 -0.3,0.7 -0.4,1 -1.4,-1.8 -2.8,-3.5 -4.4,-5.1 -1,-1 -2.3,-2.1 -3.8,-2.1 -0.1,0 -0.1,0 -0.2,0 -2.5,0.1 -3.8,2.8 -4.2,3.6 -1.4,2.8 -2.1,5.9 -2.9,8.9 v 0.2 c -7.1,2.4 -12.9,8.2 -15.2,15.3 -2.3,7.1 -1.1,15.2 3.2,21.3 -0.8,1.3 -2,2 -3.4,2 -0.4,0 -0.8,-0.1 -1.3,-0.2 -0.1,0 -0.2,0 -0.3,0 -0.3,0 -0.6,0.1 -0.8,0.4 -0.3,0.3 -0.3,0.7 -0.1,1.1 0.5,1 -0.1,2.8 -1,3.8 -0.6,0.6 -1.4,1 -2.3,1 -0.4,0 -0.7,-0.1 -1.1,-0.2 -0.1,0 -0.2,-0.1 -0.4,-0.1 -0.3,0 -0.6,0.1 -0.8,0.4 -0.3,0.3 -0.3,0.8 -0.1,1.2 0.5,0.8 0.4,1.9 -0.1,2.9 -2.5,-1.7 -6.8,-4 -12.3,-4 -0.6,0 -1.2,0 -1.9,0.1 -5.7,0.5 -9.6,3.4 -11,4.5 -11.6,8.7 -10.5,24.4 -10.5,25 0.2,2.3 0.6,4.6 1.4,6.8 -1.1,-0.3 -2.3,-0.5 -3.5,-0.5 -2.7,0 -5.3,0.8 -7.4,2.2 -3.7,2.5 -5.8,7.1 -5.4,11.6 0.2,2.4 1.4,5.3 4.1,6.5 1.2,0.5 2.5,0.6 3.4,0.6 0.4,0 0.8,0 1.2,0 0.4,0 0.8,0 1.1,0 0.1,0 0.3,0 0.4,0 4.9,0.1 9.3,3.3 13.5,6.3 l 0.1,0.1 c 7.6,5.5 16,11.1 25.4,14.3 5.2,1.8 10.4,2.7 15.4,2.7 4.9,0 9.5,-0.9 13.6,-2.6 8.5,-3.5 15,-10.4 19.7,-16.1 1.4,-1.7 2.8,-3.4 4.2,-5.1 3.8,-4.8 7.7,-9.7 12.3,-13.7 2.7,-2.3 5.2,-3.5 7.5,-3.5 1.1,0 2,0.3 2.7,0.5 2.8,1 4.2,4.2 5,5.9 6.8,15.5 8,26 8,26.1 1.1,10.5 0.6,21.3 -1.3,32 -3.4,3.1 -7.9,5.8 -12,8.2 -1.5,-6.9 -2.7,-13.8 -3.3,-20.3 0,-0.2 -0.1,-0.5 -0.3,-0.6 -3.6,-3.5 -8.5,-5.6 -13.4,-5.8 0,0 0,0 -0.1,0 -0.3,0 -0.7,0.2 -0.8,0.5 -6,9.7 -15.6,17.6 -27.6,22.9 -0.2,0.1 -0.4,0.3 -0.5,0.5 -2,4.9 -2.3,10.7 -0.7,16.2 1.5,5.3 4.7,10.1 9.1,13.4 0.2,0.1 0.4,0.2 0.6,0.2 0.2,0 0.4,-0.1 0.5,-0.2 0.4,-0.2 0.5,-0.6 0.4,-1.1 -0.6,-2.7 -0.5,-5.3 -0.1,-8.1 2.1,3.9 5.4,7.1 9.9,9.6 0.1,0.1 0.3,0.1 0.5,0.1 0.2,0 0.4,-0.1 0.6,-0.2 0.3,-0.2 0.5,-0.6 0.4,-1 -0.5,-2.3 -0.7,-4.6 -0.7,-6.8 1.2,3 3,5.6 5.3,7.8 0.2,0.2 0.4,0.3 0.7,0.3 0.2,0 0.3,0 0.5,-0.1 0.4,-0.2 0.6,-0.6 0.5,-1.1 -0.4,-2.4 -0.6,-5.5 -0.1,-8.7 0.5,7.9 3.4,15.6 8,21.4 0.2,0.2 0.5,0.4 0.8,0.4 0.1,0 0.3,0 0.4,-0.1 0.4,-0.2 0.6,-0.6 0.6,-1.1 -0.3,-1.4 -0.4,-2.9 -0.3,-4.6 1.2,3.5 3.1,6.9 5.7,10 0.2,0.2 0.5,0.4 0.8,0.4 0.1,0 0.3,0 0.4,-0.1 0.4,-0.2 0.6,-0.7 0.5,-1.1 -0.3,-1.3 -0.4,-2.6 -0.4,-4.1 0.6,1.1 1.3,2.3 2.1,3.3 l -19.1,39.5 c -0.2,0.5 -0.1,1 0.4,1.3 8.7,5.1 18.1,9 27.7,11.7 10,2.8 20.5,4.2 31.1,4.2 11.7,0 23.6,-1.7 35.2,-5.1 0.4,-0.1 0.6,-0.4 0.7,-0.8 0.8,-4 1.7,-7.8 4,-10.6 1.8,-2.2 4.6,-3.7 7.2,-3.7 0.8,0 1.6,0.1 2.3,0.4 2,0.8 3.7,2.6 5.1,5.5 3.5,6.9 3.9,15.2 4.2,22.4 0,0.5 0.3,0.8 0.8,0.9 0.1,0 0.1,0 0.2,0 0.4,0 0.7,-0.2 0.9,-0.6 5,-10.3 7.3,-20.6 6.7,-30.6 -1.2,-20.2 -7.5,-40.5 -17.9,-57.3 -0.8,-1.3 -1.6,-2.5 -2.4,-3.8 -3,-4.7 -6.2,-9.6 -7.8,-14.9 -0.3,-1.1 -0.6,-2.3 -0.4,-3.5 0.2,-1 0.9,-1.9 1.7,-2.1 0.2,0 0.3,-0.1 0.5,-0.1 0.8,0 1.8,0.5 3,1.6 3.7,3.4 6.3,7.6 7.7,12.4 0.1,0.4 0.5,0.7 1,0.7 0.1,0 0.2,0 0.2,0 0.5,-0.1 0.8,-0.6 0.7,-1.2 -2.3,-11.6 -5.3,-21.1 -9.3,-30 -1.8,-4 -4.8,-10 -9.7,-16.4 -3.7,-4.8 -7.1,-8 -8.8,-9.5 -4.7,-4.2 -10,-7.6 -15.7,-10.3 -1.7,-3.1 -3.5,-6.1 -5.4,-9.1 -1.8,-2.8 -3.6,-5.5 -5.5,-8.1 0.8,-0.1 1.7,-0.2 2.6,-0.2 2.1,0 4.2,0.3 6.3,0.9 3,0.9 5.8,2.5 8.2,4.7 0.2,0.2 0.4,0.3 0.7,0.3 0.2,0 0.4,-0.1 0.5,-0.2 0.4,-0.3 0.5,-0.7 0.4,-1.2 -1,-3 -2.5,-5.9 -4.3,-8.4 -3,-4.1 -6.4,-6.6 -8.6,-8.2 -0.7,-0.5 -1.5,-1.1 -1.9,-1.5 0.3,-0.1 0.8,-0.2 1.7,-0.2 2.4,0 5.6,0.7 8.3,1.7 4.2,1.6 7.8,4.2 10.9,7.9 0.2,0.2 0.5,0.4 0.8,0.4 0.1,0 0.3,0 0.4,-0.1 0.4,-0.2 0.6,-0.7 0.5,-1.1 -1.3,-5.7 -3.3,-11.1 -6.1,-16 -8.5,-15 -22,-22.6 -30.2,-26 1.3,-1.6 2.2,-3.8 2.8,-6.6 0.7,0 1.5,-0.1 2.2,-0.1 10.9,0 21.8,4.8 31.3,9 l 2.3,1 c 10.4,4.6 21.1,9.3 32.6,9.9 0.4,0 0.9,0 1.3,0 5,0 8.5,-1.5 10.3,-4.4 2.1,-3.4 1.3,-8.2 -2.4,-13.5 C 247.1,38.5 227.6,28.3 207.7,28.3 h -0.1 c -9.8,0 -19.5,2.3 -28.8,4.6 -5,1.2 -10.3,2.5 -15.4,3.4 -1.2,0.2 -2.7,0.4 -4.2,0.4 -1.7,0 -3,-0.3 -4.2,-0.8 1.7,-1.9 4.2,-3.8 7.7,-5.7 1.1,-0.6 2.3,-1.2 3.4,-1.8 2,-1 4.1,-2.1 6,-3.3 1,-0.7 2.2,-1.6 2.4,-3.1 0.2,-1.6 -0.9,-3 -3,-4 -3.1,-1.5 -6.4,-2.3 -9.6,-2.3 -1,0 -2.1,0.1 -3.1,0.2 -0.2,-0.8 -0.8,-1.5 -1.5,-2 -1,-0.6 -2.1,-0.7 -3.1,-0.8 -0.7,0 -1.3,-0.1 -2,-0.1 -6.4,0 -12.7,1.9 -18.3,5.6 -2.7,-2.7 -5.8,-5 -9.1,-6.9 -0.8,-0.5 -2.2,-1.2 -3.6,-1.2 z"
   id="path22"
   inkscape:connector-curvature="0"
   style="fill:#72000b" />
</g>
<path
   class="st1"
   d="m 116.34052,134.7 c 3.9,2.1 8.3,3.2 12.8,3 1.8,-0.1 3.7,-0.4 5,-1.7 1.4,-1.3 1.7,-3.3 1.7,-5.2 0,-4.1 -1.5,-8.1 -3.3,-11.8 -1.8,-3.7 -4,-7.3 -5.5,-11.1 -1.2,-3.1 -1.9,-6.7 -0.5,-9.7 1.4,-2.9 4.6,-4.6 7.6,-5.8 9.4,-3.9 19.6,-5.8 29.7,-5.6 -12.8,-2.5 -26,-1.4 -38,3.8 -2.7,1.2 -5.6,2.8 -6.8,5.5 -1.1,2.5 -0.5,5.4 0.4,7.9 3.1,7.9 10.3,13.8 12.7,22 0.6,2.1 0.9,4.5 -0.1,6.5 -1.4,2.7 -4.8,3.7 -7.9,3.4 -3.1,-0.3 -4.8,-0.6 -7.8,-1.2 z"
   id="path26"
   inkscape:connector-curvature="0"
   style="fill:#ffce00" />
<path
   class="st2"
   d="m 108.14052,25.6 c -2.8,2.1 -6.6,1.7 -10.000003,1.2 -14.799998,-2.5 -29.199998,-8 -44.199998,-8 -19.5,0 -38.8,10.1 -49.8999998,26.2 -2.5,3.7 -4.70000026,8.6 -2.3,12.4 2.1,3.4 6.7,4.1 10.6999998,3.9 12.1,-0.6 23.4,-5.9 34.5,-10.8 11.1,-4.9 22.7,-9.9 34.8,-9 0.6,2.8 1.6,5.9 3.7,7.9 -6.2,2.5 -21.6,9.5 -31,26.1 -3.3,5.7 -5,11.2 -6,15.8 2,-2.4 5.6,-6.1 11.3,-8.2 5,-1.9 11,-2.3 11.5,-0.9 0.6,1.5 -5.7,3.6 -10.8,10.6 -2.2,3.1 -3.5,6.1 -4.2,8.1 1.5,-1.3 4.3,-3.6 8.6,-4.9 4.8,-1.5 8.8,-0.9 10.8,-0.6 -2.1,2.9 -4.3,6 -6.4,9.4 -2,3.2 -3.9,6.3 -5.5,9.3 -4.7,2.2 -10.2,5.5 -15.7,10.4 -1,0.9 -4.6,4.2 -8.7,9.4 -4.6,6 -7.5,11.7 -9.6,16.2 -4.3,9.6 -7.2,19.5 -9.2,29.8 1.4,-4.9 4.2,-9.4 8,-12.9 1.2,-1.1 2.8,-2.2 4.4,-1.8 1.3,0.3 2.2,1.6 2.4,2.9 0.2,1.3 -0.1,2.7 -0.5,3.9 -2.1,6.9 -6.5,12.8 -10.3,18.9 -10.4,16.8 -16.5999998,37.1 -17.6999998,56.8 -0.6,10.6 1.9,20.6 6.5999998,30.1 0.4,-7.8 0.8,-15.9 4.3,-22.9 1.3,-2.5 3.1,-4.9 5.7,-6 3.7,-1.5 8.1,0.5 10.7,3.6 2.5,3.1 3.4,7.1 4.2,11.1 12.7,3.7 37.3,8.8 65.800001,0.9 11.1,-3.1 20.3,-7.4 27.4,-11.6 -6.5,-13.4 -12.9,-26.7 -19.4,-40.1 1.9,-2.4 3.2,-4.9 4,-7.8 0.4,2.9 0.4,6 -0.2,8.9 3.5,-4.3 6,-9.4 6.7,-14.9 0.7,3.4 1.1,7 0.4,10.4 5.8,-7.3 8.5,-17.3 7.8,-26.6 2.5,4.4 2.8,9.7 1.9,14.6 3.6,-3.4 5.7,-7.9 6.4,-12.8 0.8,4.3 0.7,8.5 -0.2,12.7 5,-2.7 9.1,-6.8 10.8,-12.3 0.7,4.1 1.3,7.9 0.4,11.9 4.2,-3.2 7.4,-7.8 8.8,-12.9 1.4,-5.1 1.3,-10.7 -0.7,-15.6 -11.3,-4.9 -21.5,-12.8 -28,-23.3 -4.7,0.2 -9.4,2.3 -12.7,5.6 -0.7,7.1 -2,14.7 -3.6,21.7 -4.6,-2.5 -9.8,-5.6 -13.6,-9.2 -2.500003,-13.7 -2.100003,-25 -1.300003,-32.7 0,0 1.100003,-10.6 8.100003,-26.4 0.9,-2 2.4,-5.3 5.5,-6.4 2,-0.7 5.8,-1.6 11.2,3.2 6.3,5.6 11.2,12.5 16.6,19 5.4,6.5 11.5,12.6 19.3,15.8 8.9,3.7 19.2,3 28.4,-0.1 8.8,-2.7 17,-8.1 24.8,-13.7 4.3,-3.1 8.9,-6.4 14.1,-6.6 2,-0.1 4,0.3 5.8,-0.5 2.1,-1 3.2,-3.4 3.5,-5.7 0.4,-4.1 -1.6,-8.3 -5,-10.6 -3.4,-2.3 -8.3,-2.7 -12,-0.8 0.7,-1.8 1.8,-4.8 2.1,-8.6 0.1,-0.8 1,-15.9 -10.1,-24.2 -1.6,-1.2 -5.2,-3.8 -10.5,-4.3 -7.4,-0.7 -12.9,3.2 -14.3,4.3 -1.1,-1.4 -1.6,-3.4 -0.6,-4.9 -1.5,0.6 -3.4,0.2 -4.5,-1 -1.1,-1.2 -1.8,-3.4 -1.1,-4.9 -2.6,0.7 -5,-0.4 -6.2,-2.8 4.4,-5.8 5.8,-13.9 3.5,-20.8 -2.3,-7 -8.1,-12.7 -15.1,-14.8 -0.8,-3.2 -1.5,-6.5 -3,-9.4 -0.7,-1.4 -1.8,-3 -3.3,-3.1 -1.3,-0.1 -2.3,0.9 -3.2,1.8 -1.9,2 -3.7,4.1 -5.4,6.4 -1.1,-2.5 -1.9,-5.3 -3.4,-7.6 -0.6,-1 -1.4,-2 -2.5,-2.4 -1.4,-0.5 -3,0.2 -4.3,1 -3.5,2 -6.7,4.5 -9.5,7.4 -6,-4.2 -13,-6.3 -20.3,-5.9 -0.9,0.1 -1.8,0.2 -2.6,0.6 -0.8,0.5 -1.3,1.4 -1.1,2.3 -4.500003,-0.9 -9.100003,-0.3 -13.200003,1.8 -1.199998,0.6 -2.599998,1.7 -2.399998,3 0.1,1 1,1.8 1.899998,2.3 3,1.9 6.3,3.3 9.4,5 3.000003,1.6 6.400003,3.8 8.500003,6.7 z"
   id="path28"
   inkscape:connector-curvature="0"
   style="fill:#72000b" />
<path
   class="st3"
   d="m 119.74052,14.5 c -1.2,-1 -2.5,-1.8 -3.9,-2.6 -1.5,-0.9 -3.1,-1.8 -4.7,-2.6 -1.7,-0.8 -3.5,-1.6 -5.3,-2.2 -0.7,-0.3 -1.4,-0.5 -2.1,-0.8 0,-0.8 0.5,-1.5 1.2,-2 0.8,-0.5 1.7,-0.6 2.6,-0.6 7.1,-0.4 14,1.6 19.9,5.6 -1.8,2.3 -4,4.5 -6.3,6.6 -0.4,-0.5 -0.9,-1 -1.4,-1.4 z"
   id="path30"
   inkscape:connector-curvature="0"
   style="fill:#40a1f2" />
<path
   class="st3"
   d="m 90.640517,8.4 c 4.2,-2.1 8.7,-2.7 13.200003,-1.8 0,0 0,-0.1 0,-0.1 0.9,0.3 1.7,0.7 2.5,1 3.4,1.3 6.6,2.9 9.7,4.8 1.7,1.1 3.5,2.2 5,3.7 -1.2,1.1 -2.5,2.1 -3.7,3.1 -2.4,1.8 -5.2,4.1 -8.1,5 -0.6,0.2 -1.3,0.3 -2,0.4 -2.1,-2.3 -5.1,-4.2 -7.800003,-5.7 -3.1,-1.7 -6.4,-3.1 -9.4,-5 -0.899998,-0.6 -1.799998,-1.3 -1.899998,-2.3 -0.1,-1.5 1.2,-2.5 2.499998,-3.1 z"
   id="path32"
   inkscape:connector-curvature="0"
   style="fill:#40a1f2" />
<path
   class="st0"
   d="m 139.74052,13.4 c 3,2.3 6.2,4 8.6,7.1 2.5,3.2 4.1,7 4.7,11 0.6,4.2 0.3,8.6 -0.5,12.7 -0.8,4.4 -2.4,8.1 -4.2,12.1 -7.3,-6 -17.1,-7.3 -26.4,-5.9 -2,-3.8 -3.7,-7.2 -4.1,-11.6 -0.2,-2.1 -0.3,-4.2 -0.1,-6.3 0.1,-1.9 0.6,-3.5 1.1,-5.3 3.7,-1.5 7.1,-3.6 10.4,-5.9 3.6,-2.3 7.5,-4.7 10.5,-7.9 z"
   id="path34"
   inkscape:connector-curvature="0"
   style="fill:#ffffff" />
<path
   class="st4"
   d="m 147.34052,175.6 c 2.7,0.3 5.3,-0.4 7.5,-2 1.5,-1.1 2.7,-2.6 3.4,-4.3 1.8,4.8 1.9,10.1 0.5,15 -1.4,5.1 -4.6,9.7 -8.8,12.9 0.7,-3.1 0.5,-6.1 0,-9.2 0.6,-3.1 0.6,-6.3 -0.8,-9.3 -0.4,-1.1 -1.1,-2.2 -1.8,-3.1 z"
   id="path36"
   inkscape:connector-curvature="0"
   style="fill:#b21222" />
<path
   class="st4"
   d="m 138.24052,179.7 c -0.2,-0.6 -0.4,-1.1 -0.7,-1.7 0.7,0.5 1.4,0.9 2.2,1.2 1.1,0.4 2.2,0.4 3.4,0.3 1.5,-0.2 3.4,-0.5 4.5,-1.6 1.7,2.9 1.8,5.9 1.3,8.9 -2,4.7 -5.7,8.2 -10.2,10.7 0.8,-3.6 1,-7.1 0.5,-10.7 0.1,-2.4 -0.2,-4.8 -1,-7.1 z"
   id="path38"
   inkscape:connector-curvature="0"
   style="fill:#b21222" />
<path
   class="st4"
   d="m 127.54052,178.9 c 1.5,0.4 3.1,0.6 4.7,0.4 1.5,-0.2 3,-0.6 4.1,-1.6 0.1,0.3 0.3,0.6 0.4,0.9 1.5,3.4 1.6,6.8 1.2,10.3 -1.1,3.3 -2.9,6.2 -5.4,8.7 0.9,-5 0.5,-10.3 -1.9,-14.6 0,0 0,0 0,0 -0.8,-1.5 -1.9,-2.7 -3.1,-4.1 z"
   id="path40"
   inkscape:connector-curvature="0"
   style="fill:#b21222" />
<path
   class="st5"
   d="m 117.24052,151 c 3.4,-3.3 8.1,-5.3 12.7,-5.6 6.5,10.5 16.7,18.3 28,23.3 0.1,0.1 0.1,0.3 0.1,0.4 -0.7,1.8 -1.9,3.3 -3.5,4.4 -2.2,1.5 -4.8,2.2 -7.4,1.9 -2.9,-3.8 -7,-6.8 -9.3,-11 0,-0.1 -0.1,0 -0.1,0 1.9,5.2 6.8,8.5 9.7,13.1 0,0.1 0.1,0.1 0.1,0.2 -1.1,1.1 -3,1.4 -4.4,1.6 -1.2,0.1 -2.3,0.1 -3.4,-0.3 -0.8,-0.3 -1.6,-0.7 -2.3,-1.3 -1.8,-3.8 -4.6,-7.1 -5.9,-11.1 0,-0.1 -0.2,-0.1 -0.1,0 0.7,4 3.1,7.3 4.9,10.8 -1.2,1.1 -2.9,1.5 -4.5,1.6 -1.5,0.1 -3,0 -4.4,-0.5 -2.9,-3.3 -4.8,-7.8 -5.2,-12.1 0,-0.1 -0.1,-0.1 -0.2,0 -0.1,0.8 -0.1,1.6 0,2.4 -1.5,1.8 -2.2,4.1 -2.7,6.4 -2,-1.1 -3.9,-2.3 -5.5,-3.7 1.6,-6.4 2.8,-13.6 3.4,-20.5 z"
   id="path42"
   inkscape:connector-curvature="0"
   style="fill:#d3161f" />
<path
   class="st4"
   d="m 122.14052,169.3 c 0.3,2.9 1.5,5.9 3,8.2 0.6,0.9 1.3,1.7 2,2.5 -0.3,-0.2 -0.7,-0.5 -1.1,-0.7 -2.1,-1.3 -4.4,-2.4 -6.7,-3.7 0.7,-2.3 1.4,-4.5 2.8,-6.3 z"
   id="path44"
   inkscape:connector-curvature="0"
   style="fill:#b21222" />
<path
   class="st1"
   d="m 96.940517,205.8 c -2,1 -3.9,2.1 -5.9,3.2 1.5,-6.4 4,-12.4 7.9,-17.8 0.6,0.3 1.300003,0.6 2.000003,0.8 2.9,1.2 4.5,2.6 5.5,5.7 0.4,1.3 0.6,2.6 0.8,3.9 -3.6,1.2 -7,2.5 -10.300003,4.2 z"
   id="path46"
   inkscape:connector-curvature="0"
   style="fill:#ffce00" />
<path
   class="st1"
   d="m 96.740517,206.8 c 3.400003,-1.8 6.900003,-3.2 10.500003,-4.6 0.1,0.9 0.2,1.8 0.3,2.7 0.3,3.2 0.4,6.4 0.3,9.6 0,0.2 0.2,0.4 0.5,0.4 0.4,-0.1 0.5,-0.2 0.8,-0.3 1,-0.4 2,-0.9 2.9,-1.5 6.4,13.3 12.9,26.7 19.3,40 -6.3,3.7 -14.1,7.5 -23.4,10.4 -2.5,-3.4 -4.9,-6.9 -7.1,-10.6 -3.100003,-4.9 -5.800003,-10.1 -8.100003,-15.4 -1.1,-2.6 -2.2,-5.2 -3.099998,-7.9 -0.1,-1.1 -0.1,-2.2 -0.2,-3.3 -0.2,-5.3 0.2,-10.7 1.299998,-16 1.9,-1.2 3.9,-2.4 6,-3.5 z"
   id="path48"
   inkscape:connector-curvature="0"
   style="fill:#ffce00" />
<path
   class="st4"
   d="m 82.340519,257.7 c 2.6,-3.7 7.3,-6.2 8.099998,-11 0.5,-3.2 -0.1,-6.7 -0.4,-9.9 -0.1,-1.5 -0.2,-3 -0.299998,-4.4 0.599998,1.7 1.299998,3.3 1.999998,4.9 2.2,5.4 4.9,10.6 7.9,15.5 2.300003,3.7 4.700003,7.4 7.200003,10.9 -1,0.3 -2,0.6 -3,0.9 -9.100003,2.5 -17.700001,3.7 -25.800001,4 0.9,-3.8 1.9,-7.5 4.3,-10.9 z"
   id="path50"
   inkscape:connector-curvature="0"
   style="fill:#b21222" />
<path
   class="st6"
   d="m 221.14052,91.7 c -2.7,2.4 -6.4,3.8 -9.9,4.6 -2.9,0.7 -5.9,1.1 -8.9,1.2 -2.7,0.2 -5.3,0.2 -8,0.1 -2.8,-0.2 -5.7,-0.6 -8.4,-1.3 -2.6,-0.7 -5.2,-1.7 -7.5,-3.2 -2,-1.4 -3.8,-3.2 -4.5,-5.6 -0.9,-2.7 -0.5,-5.7 0.5,-8.3 1.4,-3.8 4,-7.1 6.9,-10 1.6,-1.6 3.3,-3.1 5.2,-4.5 0,0 0,0.1 0.1,0.1 1.5,-1.1 6.9,-5 14.3,-4.3 5.3,0.5 8.9,3.1 10.5,4.3 11.1,8.3 10.1,23.4 10.1,24.2 -0.1,1 -0.2,1.9 -0.4,2.7 z"
   id="path52"
   inkscape:connector-curvature="0"
   style="fill:#9c0e36" />
<path
   class="st4"
   d="m 40.540519,192 c 0.9,-7.7 2.2,-15.4 3.9,-23 -0.1,3.8 0,7.5 0.3,11.3 0.2,3.1 0.6,6.2 1.2,9.2 0.6,3 1.3,6 2,8.9 1.3,5.8 2.7,11.7 4.9,17.2 2,5.1 4.8,10.1 8.6,14 1.7,1.8 3.8,3.4 6.2,4 2.3,0.6 4.5,0.1 6.3,-1.3 1.9,-1.4 3.4,-3.5 4.4,-5.6 1.4,-2.7 2.4,-5.5 3.3,-8.4 1.8,-5.4 3.1,-11 5.9,-15.9 1.5,-2.8 3.199998,-5.5 5.099998,-8 1,-1.3 2.1,-2.6 3.5,-3.6 0.4,-0.3 0.8,-0.5 1.2,-0.6 0.2,0.1 0.4,0.3 0.7,0.4 -4.1,4.4 -6.3,10.7 -7.8,16.3 -1.799998,6.5 -2.299998,13.1 -2.099998,19.9 0.1,3.5 0.5,7 0.7,10.5 0.2,3.1 0.999998,6.9 0.1,10 -0.7,2.6 -2.9,4.3 -4.7,6.1 -1.9,1.9 -3.6,4 -4.8,6.4 -1.4,2.7 -2.3,5.7 -3,8.8 -15.6,0.5 -28.7,-2.2 -37.1,-4.6 -0.4,-3.1 -0.7,-6.2 -1,-9.2 -0.6,-7.4 -0.8,-14.8 -0.3,-22.3 0.9,-13.4 1,-27 2.5,-40.5 z"
   id="path54"
   inkscape:connector-curvature="0"
   style="fill:#b21222" />
<path
   class="st4"
   d="m 116.04052,206.5 c 0,-0.5 0.1,-1 0.1,-1.6 0,-2.6 -1.1,-5.1 -2.3,-7.4 -0.4,-0.8 -0.9,-1.6 -1.5,-2.4 2.9,0.3 5.8,-2.1 6.5,-5 0.1,0.1 0.2,0.2 0.2,0.3 2.7,3.5 3,7.4 2.9,11.5 -1.1,4.5 -3.3,8.6 -6.2,12.2 0.5,-2.5 0.5,-5.1 0.3,-7.6 z"
   id="path56"
   inkscape:connector-curvature="0"
   style="fill:#b21222" />
<path
   class="st4"
   d="m 110.84052,194.7 c 0,0 0,0 0,0 0.4,0.5 0.7,1 1,1.5 1.4,2.4 3,5.3 3.2,8.1 0.1,1.6 -0.2,3.1 -0.6,4.6 -0.3,0.7 -0.7,1.4 -1.1,2.1 -1.3,1.5 -2.9,2.4 -4.8,3.1 0.2,-3.3 0,-6.6 -0.3,-9.9 -0.2,-2.4 -0.4,-4.8 -1.2,-7.1 -0.2,-0.5 -0.4,-1 -0.6,-1.5 1.6,0.4 3.2,0.2 4.4,-0.9 z"
   id="path58"
   inkscape:connector-curvature="0"
   style="fill:#b21222" />
<path
   class="st5"
   d="m 30.140519,23.8 c 7.5,-3.2 15.6,-5 23.8,-5.1 15,0 29.4,5.4 44.199998,8 3.400003,0.6 7.200003,0.9 10.000003,-1.2 0,0 0,0 0,0 0.3,-0.1 0.6,-0.1 1.1,-0.3 0,0 0.8,-0.3 1.7,-0.6 3.2,-1.4 6.6,-4.1 6.6,-4.1 1.2,-0.9 3.8,-3.1 6.9,-6.5 1.8,-2 3.1,-3.7 4.1,-5.1 3.7,-3.6 6.8,-5.6 8.9,-6.8 1.3,-0.7 2.8,-1.5 4.3,-1 1.1,0.4 1.9,1.4 2.5,2.4 1.5,2.3 2.3,5.1 3.4,7.6 1.6,-2.3 3.4,-4.4 5.4,-6.4 0.9,-0.9 2,-1.8 3.2,-1.8 1.6,0.1 2.6,1.6 3.3,3.1 1.3,2.7 2.1,5.7 2.8,8.7 -5,-0.6 -9.7,0.5 -12.6,5.4 -2.5,-3.4 -5.9,-6.1 -9.8,-7.1 0.7,-0.8 1.4,-1.7 2,-2.6 0.1,-0.2 -0.1,-0.3 -0.3,-0.2 -4.2,4 -9.2,7.2 -14,10.5 -4.5,3.1 -9.3,5.3 -14.2,7.7 -0.3,0.1 -0.1,0.5 0.2,0.4 1.5,-0.3 2.9,-0.7 4.3,-1.3 -0.6,1.6 -1.2,3 -1.3,4.9 -0.1,2.2 0,4.4 0.2,6.5 0.5,4.1 1.9,8.2 4.5,11.5 -1.4,0.2 -2.9,0.5 -4.3,0.9 -0.3,0.1 -0.2,0.5 0.1,0.5 1.6,-0.2 3.2,-0.5 4.7,-0.7 0,0 0,0 0,0.1 0.1,0.1 0.3,0 0.3,-0.1 1.5,-0.2 3.1,-0.4 4.6,-0.3 2.9,0.2 5.8,0.5 8.6,1.1 5.9,1.2 11.3,3.5 15.8,7.6 0.1,0.1 0.3,-0.1 0.2,-0.2 -0.8,-0.9 -1.7,-1.8 -2.6,-2.5 1.6,-2.1 2.8,-4.6 3.8,-7.1 1,1.4 2.7,2.5 4.1,3.2 2,1 4.3,1.7 6.5,1.9 3.9,0.5 8.3,-0.3 11.2,-2.9 1.3,2.1 3.5,3 5.9,2.3 -0.7,1.5 0,3.7 1.1,4.9 1.1,1.2 3,1.6 4.5,1 -0.9,1.4 -0.5,3.3 0.5,4.6 -1.3,1 -2.6,2 -3.8,3.2 -1.9,-1.5 -3.7,-3.1 -5.8,-4.2 -1.1,-0.6 -2.3,-1 -3.6,-0.9 -1,-0.6 -1.9,-1.2 -2.7,-2.2 -1,-1.2 -1.8,-2.8 -3.1,-3.7 -1.6,-1.2 -3.3,-0.8 -5.1,-0.5 -2.6,0.5 -4.7,0.5 -7.1,-0.7 -0.2,-0.1 -0.4,0.2 -0.2,0.3 1.6,1 3.2,1.5 5.1,1.5 2.4,0 5.2,-1.3 7.2,0.5 1.3,1.2 2.1,3 3.5,4.1 0.4,0.3 0.8,0.6 1.2,0.7 0,0 -0.1,0 -0.1,0 -1.1,0.3 -1.9,1.1 -2.9,1.6 -1.4,0.8 -3,1.3 -4.6,1.6 -0.2,0 -0.1,0.3 0,0.3 1.3,0 2.6,-0.2 3.9,-0.7 1.2,-0.5 2.2,-1.3 3.4,-1.7 2.1,-0.7 4,0.1 5.7,1.3 1.4,1 2.8,2.2 4.2,3.3 -1,1 -2,1.9 -2.9,3 -2.5,2.9 -4.6,6.2 -5.4,10 -0.6,2.5 -0.4,5.2 0.8,7.5 1.2,2.2 3.2,3.8 5.3,5 4.9,2.7 10.9,3.6 16.4,3.8 5.8,0.1 11.9,-0.3 17.5,-2 2.7,-0.8 5.3,-2 7.4,-3.9 -0.2,1.1 -0.5,2.2 -0.8,3.1 -3,3.2 -6.5,5.8 -11,6.6 -5.4,1 -11.6,0.5 -16.9,-0.5 -4.2,-0.8 -8.2,-1.8 -12.5,-1.4 -4.7,0.5 -9.4,2.1 -13.8,3.7 -0.6,0.2 -0.6,0.9 -0.2,1.2 -0.3,0.1 -0.6,0.2 -0.8,0.3 -0.1,0 0,0.2 0.1,0.1 0.3,-0.1 0.7,-0.2 1,-0.4 0.1,0 0.2,0 0.3,0 3.3,-0.6 6.3,-1.9 9.6,-2.3 3.7,-0.5 7.3,0.1 11,1 5.6,1.3 11,2.3 16.8,2.1 7.7,-0.1 15,-2.4 18.9,-8.9 3,-0.5 6.3,0.2 8.7,1.8 3.4,2.3 5.4,6.6 5,10.6 -0.2,2.3 -1.4,4.7 -3.5,5.7 -1.8,0.8 -3.8,0.4 -5.8,0.5 -5.3,0.1 -9.9,3.5 -14.1,6.6 -7.8,5.7 -16,11 -25.2,14.1 -9.1,3.1 -19.4,3.8 -28.4,0.1 -7.8,-3.2 -13.9,-9.4 -19.3,-15.8 -5.4,-6.5 -10.3,-13.4 -16.6,-19 -2.1,-1.9 -4,-2.9 -5.6,-3.4 -0.7,-0.3 -1.3,-0.7 -2,-0.9 -4.6,-1.9 -9.3,-1.7 -13.8,0 -17.600001,6.6 -25.900001,25.7 -28.500001,43 -1.5,9.9 -1.6,20 -0.8,29.9 0.5,5.5 0.8,10.9 1.5,16.4 0.3,2.5 0.7,4.9 1,7.4 0.3,1.9 0.6,3.7 1.7,5.3 0,0 0,0 0.1,0.1 -0.3,0.3 -0.7,0.6 -1,0.8 -1.5,1 -2.6,0.4 -3.7,-0.8 -3.8,-4.1 -4.5,-6.3 -4.5,-6.3 -1.6,-3.7 -4,-9 -7,-15.6 -0.1,-0.3 -0.3,-0.4 -0.4,-0.4 -0.1,0 -0.1,0.2 0,0.5 0.9,2.3 3.6,8.9 6.8,16.1 0.1,0.2 1.6,2.7 3.9,5.6 0.9,1.1 2.1,2.6 3.7,2.5 1.6,-0.2 3,-1.8 4.1,-2.9 1.7,-1.7 3.2,-3.6 4.5,-5.7 2.9,-4.5 4.4,-9.7 5,-15 0.6,-4.8 0.6,-7.9 0.5,-9 -0.2,-2.2 -0.5,-4.1 -0.8,-5.5 1,0 2.599998,-0.1 4.399998,-0.9 1.7,-0.7 2.9,-1.7 3.6,-2.3 1.2,1 2.5,2.2 3.8,3.2 0,0 0,0.1 0,0.1 3.500003,3.3 8.200003,6.1 12.500003,8.5 2.4,2.7 6.4,4.4 9.2,5.9 2.3,1.2 5.1,2.4 7,4.4 -0.7,4.3 -5,6.8 -9.1,7.2 -1.3,-1.6 -2.9,-3 -4.5,-4.4 -2.3,-2.1 -4.6,-4.2 -6.5,-6.7 -0.1,-0.1 -0.2,0 -0.1,0.1 1.5,2.2 3.3,4.3 5.2,6.2 1.6,1.7 3.5,3.3 5,5.1 -0.6,2.9 -3.5,5.4 -6.5,5 -0.9,-1.4 -1.9,-2.7 -3.1,-3.8 -2,-2 -4.2,-3.9 -5.9,-6.2 -0.1,-0.1 -0.2,0 -0.1,0.1 2.1,3.6 5.3,6.2 7.7,9.5 0,0 0,0 0,0 0,0 0,0 0,0 -1.2,1 -2.8,1.3 -4.3,0.8 -0.7,-1.4 -1.7,-2.7 -3.1,-3.4 -1.3,-0.7 -2.7,-1.1 -4.000003,-1.6 -0.1,-0.1 -0.2,-0.1 -0.3,-0.2 -0.1,0 -0.2,-0.1 -0.3,-0.1 -1.7,-0.8 -2.9,-2 -4.2,-3.4 -0.1,-0.1 -0.2,0 -0.1,0.1 0.9,1.2 1.5,2.4 2.8,3.3 0,0 0.1,0 0.1,0.1 -0.8,0.3 -1.5,0.8 -2,1.3 -1.2,1.1 -2.3,2.4 -3.3,3.8 -1.7,2.4 -3.299998,4.9 -4.699998,7.5 -2.8,5.3 -4.2,11.2 -6.1,16.8 -0.9,2.8 -2,5.6 -3.5,8.1 -1.3,2.1 -3,4.2 -5.2,5.4 -5.2,2.5 -10.2,-2.3 -13.1,-6.1 -3.6,-4.7 -6.1,-10.1 -7.9,-15.7 -1.8,-5.7 -3,-11.5 -4.4,-17.3 -1.5,-6.1 -2.3,-12.4 -2.5,-18.7 -0.1,-2.3 -0.1,-4.6 0,-6.9 1.2,-5.2 2.5,-10.3 4,-15.3 3.7,-12.4 8.1,-25 13.9,-36.6 5.4,-10.7 12.5,-20.4 19.7,-30 0.1,-0.2 -0.1,-0.3 -0.3,-0.2 -2.5,2.8 -4.9,5.8 -7.3,8.8 -1.9,-0.3 -5.6,-0.6 -9.9,0.7 -4.3,1.3 -7.1,3.6 -8.6,4.9 0.7,-2.1 1.9,-5 4.2,-8.1 5.1,-7 11.4,-9.1 10.8,-10.6 -0.5,-1.4 -6.5,-1 -11.5,0.9 -5.7,2.1 -9.3,5.8 -11.3,8.2 1,-4.5 2.8,-10 6,-15.8 9.4,-16.6 24.8,-23.6 31,-26.1 -2,-1.9 -3.1,-4.8 -3.7,-7.6 3.9,-0.1 7.8,0.3 11.699998,1.2 0.2,0.1 0.3,-0.3 0.1,-0.3 -2,-0.7 -3.899998,-1.2 -5.899998,-1.6 -2.9,-5 -6.5,-9 -12.3,-10.4 -6.2,-1.5 -13.3,-0.8 -19.5,0.3 -6.9,1.2 -13.7,3.4 -20,6.5 0,0 -0.1,0 -0.1,0.1 -3.1,-3.4 -5.8,-8.1 -5.2,-13.2 z m 133.800001,81.8 c 0.1,0 0.5,-0.2 0.2,-0.1 0.6,-0.2 0.4,-1.2 -0.3,-1 -0.1,0 -0.5,0.2 -0.2,0.1 -0.6,0.2 -0.3,1.2 0.3,1 z"
   id="path60"
   inkscape:connector-curvature="0"
   style="fill:#d3161f" />
<path
   class="st4"
   d="m 123.04052,203 c 0.3,-4.1 -0.1,-8.4 -2.3,-11.8 -0.3,-0.5 -0.7,-0.9 -1,-1.4 4.1,-0.4 8.4,-3 9.2,-7.2 0.1,0.1 0.2,0.2 0.3,0.3 1.4,1.7 1.4,3.7 1.5,5.8 -0.5,7.6 -3.1,15.1 -7.8,20.9 0.3,-2.2 0.3,-4.4 0.1,-6.6 z"
   id="path62"
   inkscape:connector-curvature="0"
   style="fill:#b21222" />
<path
   class="st6"
   d="m 6.7405192,247.8 c 1.1,-19.7 7.2999998,-40 17.6999998,-56.8 3.8,-6.1 8.2,-12 10.3,-18.9 0.4,-1.3 0.7,-2.6 0.5,-3.9 -0.2,-1.3 -1.1,-2.6 -2.4,-2.9 -1.6,-0.4 -3.1,0.7 -4.4,1.8 -3.8,3.5 -6.6,8 -8,12.9 2.1,-10.3 4.9,-20.2 9.2,-29.8 3.1,-6.9 8.2,-16.4 18.2,-25.6 5.4,-4.9 10.6,-8.2 14.3,-10.2 0,0 0.1,0 0.1,0.1 -1.1,2 -2.1,4.1 -3,6.2 -10.7,23.7 -17.9,49.5 -20.3,75.4 -0.6,6.9 -0.8,13.8 -1.1,20.7 -0.3,6.9 -0.9,13.9 -1.1,20.8 -0.2,6.8 0.2,13.7 0.9,20.5 0.2,2 0.4,3.9 0.6,5.9 0,0 0,0 -0.1,0 -0.8,-3.9 -1.7,-8 -4.2,-11.1 -2.5,-3.1 -6.9,-5 -10.7,-3.6 -2.6,1 -4.4,3.5 -5.7,6 -3.5,7 -3.9,15 -4.3,22.9 -4.5999998,-9.8 -7.0999998,-19.8 -6.4999998,-30.4 z"
   id="path64"
   inkscape:connector-curvature="0"
   style="fill:#9c0e36" />
<path
   class="st0"
   d="m 163.74052,53.9 c -3.7,-0.3 -8.7,-1.9 -10.7,-5.3 1.9,-5.7 2.4,-12.2 1.4,-17.8 -0.6,-3.3 -2,-6.8 -4.1,-9.8 2.2,-2.9 4.4,-5.1 8.3,-5.3 1.8,-0.1 3.5,0.2 5.3,0.4 6.4,2.4 11.6,7.9 13.7,14.3 2.2,6.9 1,14.7 -3.3,20.6 -3,2.2 -6.7,3.2 -10.6,2.9 z"
   id="path66"
   inkscape:connector-curvature="0"
   style="fill:#ffffff" />
<path
   class="st7"
   d="M 4.0405192,45 C 10.440519,35.7 19.540519,28.5 29.940519,24 c -0.5,4.8 2.1,9.8 5.6,13.7 -6.4,3.2 -12.3,7.2 -18,11.6 -4.5,3.5 -10.4999998,9.5 -15.9999998,7.8 -2.00000026,-3.9 0.1,-8.6 2.5,-12.1 z"
   id="path68"
   inkscape:connector-curvature="0"
   style="fill:#4b001d" />
<path
   class="st1"
   d="m 74.340519,149.6 c 3.2,-0.9 6.5,-1.5 9.8,-2.1 4.7,-0.8 9.399998,-1.2 14.099998,-1.6 0.2,4.8 0.6,10.2 1.6,16.1 -1.1,-0.9 -2.2,-1.8 -3.3,-2.6 0,0 -0.1,-0.1 -0.3,-0.1 -0.2,0 -0.3,0.1 -0.4,0.1 -0.6,0.6 -1.6,1.6 -3.2,2.3 -2.2,1 -4.299998,1 -5.199998,0.9 -0.1,0 -0.2,0.1 -0.4,0.3 -0.2,0.2 -0.1,0.5 -0.1,0.5 0.2,0.8 0.6,1.9 0.8,3.2 0.3,2.1 0.3,3.8 0.2,5.3 -0.3,4.7 -0.5,7 -1.1,10 -1.3,6 -4.1,11.5 -8.4,16 -0.2,0.3 -0.5,0.5 -0.8,0.8 -1.2,-2.1 -1.4,-4.6 -1.6,-6.9 -0.3,-2.5 -0.7,-4.9 -1,-7.4 -0.7,-5.5 -1.1,-11.1 -1.4,-16.6 -0.4,-5.8 -0.5,-11.8 -0.1,-17.7 0.2,-0.3 0.5,-0.4 0.8,-0.5 z"
   id="path70"
   inkscape:connector-curvature="0"
   style="fill:#ffce00" />
<path
   class="st1"
   d="m 98.140517,145.3 c -4.7,0.3 -9.299998,0.7 -13.999998,1.4 -3.6,0.5 -7.2,1.3 -10.7,2.2 0.8,-12 3.5,-23.9 9.8,-34.1 4.6,-7.5 11.099998,-14 19.500001,-17 4,-1.4 8,-1.6 12,-0.2 -1,0.1 -1.9,0.3 -2.5,0.5 -3.1,1.1 -4.6,4.4 -5.5,6.4 -7.000003,15.8 -8.100003,26.4 -8.100003,26.4 -0.3,3.9 -0.6,8.8 -0.5,14.4 z"
   id="path72"
   inkscape:connector-curvature="0"
   style="fill:#ffce00" />
<path
   class="st8"
   d="m 11.640519,55.3 c 6.4,-4.7 12.5,-9.7 19.4,-13.7 6.4,-3.7 13.2,-6.6 20.3,-8.4 7,-1.7 14.6,-2.7 21.8,-1.8 6.2,0.8 10.8,4.5 14.1,9.6 -6.4,-1.1 -12.8,-0.3 -19,1.6 -7.3,1.7 -14.5,4.8 -21.4,7.8 -11.1,4.9 -22.4,10.2 -34.5,10.8 -3.5999998,0.2 -7.5999998,-0.3 -9.8999998,-2.9 3,0.5 6.3,-0.9 9.1999998,-3 z"
   id="path74"
   inkscape:connector-curvature="0"
   style="fill:#fcada6" />
<path
   class="st1"
   d="m 116.34052,134.7 c 3.9,2.1 8.3,3.2 12.8,3 1.8,-0.1 3.7,-0.4 5,-1.7 1.4,-1.3 1.7,-3.3 1.7,-5.2 0,-4.1 -1.5,-8.1 -3.3,-11.8 -1.8,-3.7 -4,-7.3 -5.5,-11.1 -1.2,-3.1 -1.9,-6.7 -0.5,-9.7 1.4,-2.9 4.6,-4.6 7.6,-5.8 9.4,-3.9 19.6,-5.8 29.7,-5.6 -12.8,-2.5 -26,-1.4 -38,3.8 -2.7,1.2 -5.6,2.8 -6.8,5.5 -1.1,2.5 -0.5,5.4 0.4,7.9 3.1,7.9 10.3,13.8 12.7,22 0.6,2.1 0.9,4.5 -0.1,6.5 -1.4,2.7 -4.8,3.7 -7.9,3.4 -3.1,-0.3 -4.8,-0.6 -7.8,-1.2 z"
   id="path76"
   inkscape:connector-curvature="0"
   style="fill:#ffce00" />
<ellipse
   cx="-164.44052"
   cy="35.200001"
   rx="7.5999999"
   ry="8.6999998"
   id="ellipse78"
   transform="scale(-1,1)" />
<ellipse
   cx="-140.04053"
   cy="35.5"
   rx="8.3000002"
   ry="9.6000004"
   id="ellipse80"
   transform="scale(-1,1)" />
<circle
   class="st0"
   cx="-162.34053"
   cy="37.599998"
   r="3.4000001"
   id="circle82"
   style="fill:#ffffff"
   transform="scale(-1,1)" />
<circle
   class="st0"
   cx="-137.04053"
   cy="38"
   r="3.4000001"
   id="circle84"
   style="fill:#ffffff"
   transform="scale(-1,1)" />
<path
   class="st9"
   d="m 104.94052,4.3 c 0.8,-0.5 1.7,-0.6 2.6,-0.6 4.2,-0.3 8.4,0.4 12.3,1.7 -0.9,0.5 -1.6,1.2 -2.3,2 -0.9,1.1 -2.1,2.6 -2.5,4 -1.3,-0.8 -2.6,-1.5 -3.9,-2.2 -1.7,-0.8 -3.5,-1.6 -5.3,-2.2 -0.7,-0.3 -1.4,-0.5 -2.1,-0.8 0,-0.7 0.6,-1.5 1.2,-1.9 z"
   id="path86"
   inkscape:connector-curvature="0"
   style="opacity:0.47000002;fill:#3f28c6" />
<path
   class="st9"
   d="m 90.640517,8.4 c 4.2,-2.1 8.7,-2.7 13.200003,-1.8 0,0 0,-0.1 0,-0.1 0.9,0.3 1.7,0.7 2.5,1 2.9,1.1 5.7,2.5 8.3,4 -5.3,-0.1 -10.7,3.6 -13.6,8.2 -0.6,-0.3 -1.100003,-0.6 -1.600003,-0.9 -3.1,-1.7 -6.4,-3.1 -9.4,-5 -0.899998,-0.6 -1.799998,-1.3 -1.899998,-2.3 -0.1,-1.5 1.2,-2.5 2.499998,-3.1 z"
   id="path88"
   inkscape:connector-curvature="0"
   style="opacity:0.47000002;fill:#3f28c6" />
<path
   class="st10"
   d="m 113.14052,6.8 c -0.6,0.6 -1.1,2.2 -1.8,2.6 -0.1,0 -0.1,-0.1 -0.2,-0.1 -1.7,-0.8 -3.5,-1.6 -5.3,-2.2 -0.7,-0.3 -1.4,-0.5 -2.1,-0.8 0,-0.8 0.5,-1.5 1.2,-2 0.8,-0.5 1.7,-0.6 2.6,-0.6 2.9,-0.2 5.8,0.1 8.6,0.7 -1.1,0.6 -2.1,1.5 -3,2.4 z"
   id="path90"
   inkscape:connector-curvature="0"
   style="fill:#3f28c6" />
<path
   class="st10"
   d="m 90.640517,8.4 c 4.2,-2.1 8.7,-2.7 13.200003,-1.8 0,0 0,-0.1 0,-0.1 0.9,0.3 1.7,0.7 2.5,1 1.6,0.6 3.1,1.3 4.6,2 -0.5,0 -1.2,-0.3 -1.5,-0.3 -0.6,0 -1.2,0.1 -1.8,0.2 -4,0.8 -8.200003,4.4 -10.400003,8.2 -2.4,-1.2 -4.8,-2.4 -7.1,-3.8 -0.899998,-0.6 -1.799998,-1.3 -1.899998,-2.3 -0.2,-1.5 1.1,-2.5 2.399998,-3.1 z"
   id="path92"
   inkscape:connector-curvature="0"
   style="fill:#3f28c6" />
<path
   class="st6"
   d="m 213.54052,88.3 c -4.1,0.5 -8.2,-0.1 -12,-1.9 -4.1,-2 -7.7,-5.2 -9.4,-9.6 -0.9,-2.5 -1.2,-5.3 -0.9,-8 0.3,-2.6 1.4,-4.9 3,-6.9 0.3,-0.3 0.6,-0.7 0.9,-1 1.7,-0.4 3.6,-0.5 5.7,-0.3 5.3,0.5 8.9,3.1 10.5,4.3 7.8,5.8 9.6,15 10,20.2 -2.1,1.8 -5,2.8 -7.8,3.2 z"
   id="path94"
   inkscape:connector-curvature="0"
   style="fill:#9c0e36" />
<path
   class="st11"
   d="m 174.44052,79.3 c 1.4,-3.8 4,-7.1 6.9,-10 1.6,-1.6 3.3,-3.1 5.2,-4.5 0,0 0,0.1 0.1,0.1 1.1,-0.8 4.1,-3 8.5,-3.9 -0.7,0.8 -1.4,1.6 -2,2.5 -1.4,2.3 -2,5 -2,7.7 0,2.5 0.5,5 1.7,7.3 2.1,4.2 6.1,7.1 10.4,8.8 3.8,1.5 8.1,1.8 12.1,0.9 2.2,-0.5 4.4,-1.4 6.2,-2.8 0.2,2.1 0.1,3.6 0,3.8 -0.1,0.9 -0.2,1.8 -0.3,2.6 -2.7,2.4 -6.4,3.8 -9.9,4.6 -2.9,0.7 -5.9,1.1 -8.9,1.2 -2.7,0.2 -5.3,0.2 -8,0.1 -2.8,-0.2 -5.7,-0.6 -8.4,-1.3 -2.6,-0.7 -5.2,-1.7 -7.5,-3.2 -2,-1.4 -3.8,-3.2 -4.5,-5.6 -1,-2.7 -0.5,-5.7 0.4,-8.3 z"
   id="path96"
   inkscape:connector-curvature="0"
   style="fill:#7c0026" />
<path
   class="st4"
   d="m 48.340519,91.2 c 1,-4.5 2.8,-10 6,-15.8 7.1,-12.5 17.6,-19.6 25,-23.4 -1.5,1 -3.1,2.1 -4.5,3.3 -2.8,2.2 -5.4,4.9 -7.7,7.6 -2.3,2.6 -4.3,5.5 -6.1,8.5 -2.5,4.4 -4.4,9 -5.9,13.8 -3.1,2 -5.4,4.3 -6.8,6 z"
   id="path98"
   inkscape:connector-curvature="0"
   style="fill:#b21222" />
<path
   class="st4"
   d="m 60.340519,92.8 c 2.8,-3.8 5.9,-6.2 8.1,-7.8 -0.5,0.7 -0.9,1.5 -1.3,2.2 -1.6,2.9 -2.9,6 -3.7,9.2 -3.5,1.3 -6,3.3 -7.3,4.4 0.7,-2 2,-4.9 4.2,-8 z"
   id="path100"
   inkscape:connector-curvature="0"
   style="fill:#b21222" />
<g
   id="g106"
   transform="matrix(-1,0,0,1,261.94052,-10.5)">
	<path
   class="st1"
   d="m 133.9,148.4 c -0.4,0 -0.7,0 -1.1,0 -1.5,-0.1 -3.7,-0.3 -5.2,-1.8 -1.2,-1.2 -1.8,-3 -1.8,-5.4 0,-4.5 1.8,-8.8 3.4,-11.9 0.6,-1.3 1.3,-2.5 1.9,-3.7 1.3,-2.4 2.6,-4.8 3.5,-7.4 1.5,-3.9 1.7,-7 0.5,-9.5 -1.4,-2.9 -4.6,-4.5 -7.5,-5.7 -8.9,-3.7 -18.7,-5.6 -28.4,-5.6 -0.4,0 -0.8,0 -1.2,0 0,0 0,0 0,0 -0.1,0 -0.2,-0.1 -0.2,-0.2 0,-0.1 0.1,-0.2 0.2,-0.3 4.3,-0.8 8.7,-1.3 13.1,-1.3 8.8,0 17.3,1.7 25.1,5.1 2.7,1.2 5.7,2.8 6.9,5.6 1,2.2 0.8,4.9 -0.4,8.1 -1.5,3.7 -3.8,7 -6.1,10.2 -2.6,3.7 -5.3,7.4 -6.6,11.8 -0.8,2.6 -0.7,4.7 0.1,6.3 1.3,2.5 4.4,3.3 6.8,3.3 v 0 c 0.3,0 0.6,0 0.9,0 3.1,-0.2 5,-0.6 7.9,-1.1 0,0 0,0 0,0 0.1,0 0.2,0.1 0.2,0.2 0,0.1 0,0.2 -0.1,0.3 -3.7,2 -7.8,3 -11.9,3 z"
   id="path102"
   inkscape:connector-curvature="0"
   style="fill:#ffce00" />
	<path
   class="st2"
   d="m 111.1,95.9 c 8.6,0 17.1,1.6 25,5.1 2.7,1.2 5.6,2.8 6.8,5.5 1.1,2.5 0.5,5.4 -0.4,7.9 -3.1,7.9 -10.3,13.8 -12.7,22 -0.6,2.1 -0.9,4.5 0.1,6.5 1.3,2.4 4.2,3.5 7,3.5 0.3,0 0.6,0 0.9,0 3,-0.2 4.9,-0.6 7.9,-1.2 -3.6,2 -7.6,3 -11.7,3 -0.4,0 -0.7,0 -1.1,0 -1.8,-0.1 -3.7,-0.4 -5,-1.7 -1.4,-1.3 -1.7,-3.3 -1.7,-5.2 0,-4.1 1.5,-8.1 3.3,-11.8 1.8,-3.7 4,-7.3 5.5,-11.1 1.2,-3.1 1.9,-6.7 0.5,-9.7 -1.4,-2.9 -4.6,-4.6 -7.6,-5.8 -9,-3.7 -18.8,-5.6 -28.5,-5.6 -0.4,0 -0.8,0 -1.2,0 4.2,-0.9 8.5,-1.4 12.9,-1.4 m 0,-0.5 c -4.3,0 -8.7,0.4 -13.1,1.3 -0.3,0 -0.4,0.3 -0.4,0.5 0,0.3 0.2,0.4 0.5,0.4 0,0 0,0 0,0 0.4,0 0.8,0 1.2,0 9.6,0 19.4,1.9 28.3,5.6 2.9,1.2 6,2.8 7.3,5.6 1.1,2.4 1,5.5 -0.5,9.3 -1,2.5 -2.3,5 -3.5,7.3 -0.6,1.2 -1.3,2.5 -1.9,3.7 -1.6,3.2 -3.4,7.5 -3.4,12 0,2.5 0.6,4.4 1.9,5.6 1.5,1.5 3.8,1.8 5.3,1.8 0.4,0 0.8,0 1.1,0 4.2,0 8.3,-1.1 11.9,-3.1 0.2,-0.1 0.3,-0.4 0.2,-0.6 -0.1,-0.2 -0.3,-0.3 -0.5,-0.3 0,0 -0.1,0 -0.1,0 -2.9,0.6 -4.8,0.9 -7.8,1.1 -0.3,0 -0.6,0 -0.8,0 -2.3,0 -5.3,-0.8 -6.5,-3.2 -0.8,-1.5 -0.9,-3.6 -0.1,-6.1 1.3,-4.3 4,-8 6.6,-11.7 2.3,-3.2 4.7,-6.5 6.1,-10.3 1.3,-3.2 1.4,-6 0.4,-8.3 -1.3,-2.9 -4.3,-4.6 -7,-5.8 -7.9,-3 -16.4,-4.8 -25.2,-4.8 z"
   id="path104"
   inkscape:connector-curvature="0"
   style="fill:#72000b" />
</g>
</svg>