<?xml version="1.0" encoding="UTF-8" standalone="no"?>
<!-- Created with sK1/UniConvertor (http://sk1project.org/) -->

<svg
   xmlns:dc="http://purl.org/dc/elements/1.1/"
   xmlns:cc="http://creativecommons.org/ns#"
   xmlns:rdf="http://www.w3.org/1999/02/22-rdf-syntax-ns#"
   xmlns:svg="http://www.w3.org/2000/svg"
   xmlns="http://www.w3.org/2000/svg"
   xmlns:sodipodi="http://sodipodi.sourceforge.net/DTD/sodipodi-0.dtd"
   xmlns:inkscape="http://www.inkscape.org/namespaces/inkscape"
   width="416.871pt"
   height="560.01001pt"
   viewBox="0 0 416.871 560.01"
   version="1.1"
   id="svg88"
   sodipodi:docname="pacmanjr.svg"
   style="fill-rule:evenodd"
   inkscape:version="0.92.4 (5da689c313, 2019-01-14)">
  <metadata
     id="metadata94">
    <rdf:RDF>
      <cc:Work
         rdf:about="">
        <dc:format>image/svg+xml</dc:format>
        <dc:type
           rdf:resource="http://purl.org/dc/dcmitype/StillImage" />
        <dc:title></dc:title>
      </cc:Work>
    </rdf:RDF>
  </metadata>
  <defs
     id="defs92" />
  <sodipodi:namedview
     pagecolor="#ffffff"
     bordercolor="#666666"
     borderopacity="1"
     objecttolerance="10"
     gridtolerance="10"
     guidetolerance="10"
     inkscape:pageopacity="0"
     inkscape:pageshadow="2"
     inkscape:window-width="1366"
     inkscape:window-height="715"
     id="namedview90"
     showgrid="false"
     fit-margin-top="0"
     fit-margin-left="0"
     fit-margin-right="0"
     fit-margin-bottom="0"
     inkscape:zoom="0.21024124"
     inkscape:cx="267.51733"
     inkscape:cy="406.60668"
     inkscape:window-x="-8"
     inkscape:window-y="22"
     inkscape:window-maximized="1"
     inkscape:current-layer="svg88" />
  <g
     id="g86"
     transform="translate(-97,-165.89)">
    <g
       id="g84">
      <path
         style="fill:#c5d2d7;stroke:none"
         d="m 123.771,632.117 c 11.859,16.429 27.616,30.074 46.978,41.147 L 179.82,653.5 c -16.939,-12.102 -32.596,-25.627 -44.711,-43.091 -2.339,3.93 -6.787,9.476 -11.338,21.708 z"
         id="path2"
         inkscape:connector-curvature="0" />
      <path
         style="fill:#2c2c2b;stroke:none"
         d="m 190.072,655.318 0.802,0.452 1.634,0.901 1.649,0.885 1.659,0.87 1.67,0.857 1.443,0.725 -8.835,-3.313 -0.511,2.553 0.025,-0.194 0.256,-2.055 z M 263.75,256.754 c 11.109,-7.542 22.527,-14.894 35.963,-19.995 l 3.631,-1.422 3.707,-1.321 3.783,-1.218 3.86,-1.112 3.937,-1.007 4.016,-0.9 4.093,-0.792 4.176,-0.681 4.255,-0.571 4.336,-0.459 4.418,-0.346 4.502,-0.232 4.585,-0.117 h 4.67 l 4.754,0.116 4.843,0.238 4.929,0.355 5.018,0.478 5.106,0.598 5.198,0.723 5.288,0.847 5.381,0.972 4.136,1.002 0.097,-0.352 0.266,-0.866 0.307,-0.928 0.336,-0.969 0.356,-0.99 0.369,-0.981 0.369,-0.947 0.361,-0.886 0.211,-0.498 -1.492,-0.591 -1.961,-0.772 -1.964,-0.77 -1.968,-0.768 -1.969,-0.764 -1.972,-0.763 -1.975,-0.761 -1.978,-0.761 -1.977,-0.758 -1.979,-0.757 -1.982,-0.755 -1.983,-0.756 -1.984,-0.753 -1.984,-0.754 -1.986,-0.753 -1.987,-0.755 -3.97,-1.506 -1.987,-0.753 -1.985,-0.756 -1.985,-0.755 -1.986,-0.757 -1.982,-0.759 -1.984,-0.76 -1.979,-0.76 -1.981,-0.764 -1.977,-0.765 -1.976,-0.768 -1.973,-0.77 -1.972,-0.773 -1.969,-0.776 -2.782,-1.103 -1.014,-2.03 -0.598,-1.226 -0.573,-1.2 -0.547,-1.177 -0.52,-1.149 -0.496,-1.126 -0.472,-1.103 -0.447,-1.079 -0.423,-1.056 -0.398,-1.033 -0.377,-1.01 -0.355,-0.991 -0.332,-0.969 -0.31,-0.949 -0.289,-0.928 -0.27,-0.911 -0.248,-0.891 -0.227,-0.872 -0.209,-0.853 -0.189,-0.837 -0.171,-0.821 -0.151,-0.801 -0.136,-0.787 -0.117,-0.773 -0.1,-0.755 -0.084,-0.741 -0.066,-0.725 -0.053,-0.714 -0.035,-0.698 -0.022,-0.686 -0.005,-0.671 0.045,-4.525 5.725,3.231 2.333,1.32 2.328,1.322 2.323,1.321 2.321,1.324 2.315,1.324 2.314,1.325 2.309,1.325 2.309,1.328 2.306,1.327 2.304,1.328 2.301,1.327 2.302,1.33 2.299,1.328 2.298,1.328 2.298,1.328 2.299,1.33 2.913,1.684 3.984,2.299 2.299,1.328 2.302,1.327 2.303,1.325 2.304,1.325 2.309,1.324 2.31,1.324 2.313,1.321 2.315,1.321 2.32,1.32 2.322,1.318 2.327,1.317 2.506,1.412 0.48,-0.257 0.535,-0.286 0.452,-0.256 0.337,-0.215 1.198,-0.945 1.999,0.481 0.916,0.27 0.857,0.286 0.802,0.286 0.766,0.272 0.736,0.247 0.724,0.214 1.816,0.434 0.767,1.468 0.252,0.507 0.222,0.464 0.202,0.431 0.193,0.414 0.197,0.413 0.218,0.437 0.538,1.035 -0.036,1.089 2.216,0.842 2.776,1.046 2.758,1.032 2.739,1.017 2.724,1.007 2.707,0.993 2.694,0.984 2.682,0.974 2.672,0.968 2.661,0.958 2.654,0.953 2.647,0.947 2.642,0.944 2.639,0.941 2.636,0.938 2.634,0.938 2.636,0.939 2.636,0.939 2.641,0.942 2.644,0.944 2.651,0.95 2.659,0.954 2.666,0.96 2.676,0.968 2.69,0.978 2.701,0.986 2.716,0.997 2.73,1.008 2.749,1.022 2.767,1.035 2.786,1.05 3.62,1.372 0.783,1.495 0.372,0.763 0.345,0.773 0.323,0.781 0.295,0.791 0.27,0.798 0.245,0.805 0.215,0.81 0.19,0.817 0.161,0.822 0.13,0.824 0.102,0.826 0.072,0.83 0.04,0.832 0.008,0.833 -0.026,0.828 -0.059,0.828 -0.093,0.827 -0.128,0.823 -0.165,0.817 -0.201,0.814 -0.241,0.805 -0.276,0.796 -0.317,0.785 -0.354,0.774 -0.396,0.761 -0.436,0.749 -0.477,0.73 -0.516,0.714 -0.558,0.696 -0.6,0.676 -1.82,1.858 -4.202,-2.297 -2.674,-1.47 -2.665,-1.473 -2.658,-1.48 -2.651,-1.482 -2.646,-1.487 -2.639,-1.49 -2.637,-1.493 -2.628,-1.495 -2.626,-1.497 -2.622,-1.498 -2.62,-1.502 -2.616,-1.501 -2.616,-1.503 -2.613,-1.504 -2.615,-1.504 -2.611,-1.502 -2.612,-1.504 -2.612,-1.501 -2.616,-1.501 -2.616,-1.498 -2.619,-1.498 -2.62,-1.494 -2.626,-1.494 -2.628,-1.488 -2.632,-1.486 -2.638,-1.482 -2.642,-1.478 -2.649,-1.473 -2.655,-1.47 -2.663,-1.463 -1.91,-1.044 -0.825,0.525 -0.957,0.417 -1.006,0.272 -1.043,0.142 -0.173,0.003 0.017,0.224 0.027,0.82 -0.014,0.822 -0.049,0.819 -0.086,0.814 -0.123,0.814 -0.16,0.814 -0.195,0.813 -0.234,0.807 -0.265,0.801 -0.261,0.69 3.785,1.976 4.976,2.742 4.799,2.792 4.62,2.839 4.446,2.888 4.272,2.935 4.1,2.984 3.93,3.029 3.764,3.078 3.594,3.124 3.431,3.171 3.266,3.215 3.105,3.262 2.943,3.305 2.787,3.35 2.626,3.393 2.473,3.437 2.317,3.479 2.165,3.521 2.013,3.562 1.864,3.603 1.715,3.643 1.57,3.68 1.424,3.717 1.282,3.757 1.139,3.792 1.001,3.828 0.862,3.861 0.726,3.896 0.593,3.929 0.461,3.962 0.894,10.805 c -0.06,-0.068 -0.123,-0.134 -0.183,-0.203 l 0.634,3.953 0.563,4.295 0.436,4.28 0.31,4.265 0.187,4.252 0.061,4.236 -0.058,4.221 -0.18,4.208 -0.299,4.192 -0.417,4.179 -0.534,4.162 -0.648,4.149 -0.763,4.133 -0.875,4.12 -0.987,4.103 -1.095,4.091 -1.205,4.075 -1.311,4.062 -1.417,4.047 -1.521,4.033 -1.624,4.02 -1.726,4.006 -1.826,3.991 -1.924,3.979 -2.022,3.965 -2.118,3.952 c -4.221,8.39 -8.933,16.405 -14.757,23.938 l -0.907,1.075 -0.921,1.061 -0.937,1.045 -0.948,1.032 -0.964,1.018 -0.977,1.004 -0.988,0.988 -1,0.977 -1.014,0.964 -1.026,0.95 -1.038,0.936 -1.047,0.925 -1.059,0.913 -1.071,0.902 -1.082,0.887 -1.089,0.879 -1.1,0.866 -1.112,0.857 -1.12,0.843 -1.127,0.835 -1.137,0.823 -1.146,0.814 -1.154,0.805 -1.161,0.794 -1.168,0.786 -1.176,0.776 -1.185,0.769 -1.189,0.758 -1.197,0.753 -1.203,0.743 -3.957,2.407 -0.95,-4.346 -0.23,-1.216 -0.192,-1.206 -0.156,-1.2 -0.116,-1.195 -0.082,-1.19 -0.046,-1.192 -0.011,-1.193 0.023,-1.198 0.054,-1.205 0.087,-1.21 0.116,-1.227 0.146,-1.241 0.174,-1.258 0.2,-1.278 0.027,-0.152 -0.48,0.116 -7.871,1.732 -7.862,1.559 -7.847,1.385 -7.822,1.214 -7.793,1.043 -7.756,0.872 -7.713,0.699 -7.66,0.534 -2.355,0.111 0.04,0.061 0.219,0.311 0.241,0.32 0.266,0.328 0.285,0.331 0.314,0.336 0.341,0.344 0.366,0.346 0.393,0.349 0.422,0.349 0.452,0.353 0.483,0.351 0.511,0.351 0.544,0.346 0.579,0.347 0.614,0.343 0.644,0.339 0.683,0.331 0.718,0.326 0.757,0.319 0.792,0.312 0.832,0.3 0.873,0.291 0.915,0.28 0.953,0.268 0.996,0.252 1.041,0.243 1.085,0.225 1.121,0.209 2.119,0.339 2.005,0.266 1.897,0.201 1.794,0.141 1.695,0.089 1.594,0.045 1.502,0.008 1.409,-0.021 1.324,-0.046 1.241,-0.062 1.161,-0.07 1.088,-0.073 1.022,-0.07 0.959,-0.056 0.909,-0.037 0.864,-0.007 0.838,0.032 0.823,0.093 0.825,0.177 0.818,0.299 0.792,0.45 0.709,0.619 0.573,0.748 0.415,0.829 0.285,0.869 0.179,0.914 0.101,0.963 0.038,1.034 -0.013,1.122 -0.061,1.228 -0.102,1.346 -0.265,2.732 -2.172,1.078 -1.032,0.513 -1.033,0.509 -1.035,0.51 -1.03,0.506 -1.033,0.507 -1.03,0.505 -1.032,0.505 -1.029,0.503 -1.03,0.503 -1.027,0.501 -1.026,0.503 -1.025,0.5 -1.024,0.502 -1.02,0.5 -1.027,0.505 -1.379,0.667 -1.394,0.657 -1.402,0.642 -1.411,0.629 -1.418,0.614 -1.423,0.603 -1.43,0.59 -1.438,0.581 -1.439,0.567 -1.447,0.56 -1.448,0.547 -1.453,0.542 -1.456,0.534 -1.459,0.526 -1.46,0.519 -1.463,0.514 -1.461,0.508 -0.742,0.255 -6.035,4.604 -1.183,0.864 -1.197,0.837 -1.209,0.817 -1.218,0.797 -1.226,0.781 -1.232,0.766 -1.236,0.754 -1.235,0.743 -1.235,0.737 -1.232,0.732 -1.227,0.729 -1.219,0.728 -1.209,0.729 -1.196,0.733 -1.183,0.74 -1.166,0.746 -1.149,0.755 -1.126,0.768 -1.106,0.782 -1.079,0.797 -1.053,0.817 -1.024,0.834 -0.994,0.856 -0.961,0.88 -0.928,0.905 -0.892,0.933 -0.856,0.962 -0.816,0.992 -0.775,1.029 -0.735,1.064 -0.687,1.096 -0.432,0.779 -0.38,0.79 -0.332,0.806 -0.287,0.825 -0.246,0.843 -0.205,0.863 -0.166,0.884 -0.133,0.902 -0.094,0.918 -0.066,0.938 -0.033,0.956 -0.007,0.974 0.021,0.985 0.044,1.003 0.063,1.015 0.082,1.025 0.1,1.036 0.112,1.047 0.124,1.057 0.13,1.063 0.136,1.07 0.138,1.078 0.138,1.083 0.133,1.086 0.128,1.089 0.117,1.093 0.107,1.095 0.089,1.097 0.072,1.098 0.048,1.098 0.025,1.098 -0.005,1.081 0.586,-0.231 1.189,2.3 0.23,0.425 0.235,0.421 0.24,0.421 0.244,0.42 0.247,0.429 0.249,0.44 0.246,0.451 0.243,0.465 0.237,0.487 0.23,0.509 0.214,0.529 0.199,0.554 0.178,0.583 0.155,0.606 0.132,0.642 0.16,1.088 0.092,1.087 0.035,1.065 -0.013,1.044 -0.046,1.023 -0.072,1.003 -0.085,0.981 -0.092,0.961 -0.088,0.939 -0.077,0.917 -0.056,0.899 -0.032,0.878 0.003,0.854 0.04,0.84 0.085,0.818 0.131,0.784 0.14,0.54 0.195,0.545 0.259,0.582 0.318,0.626 0.374,0.672 0.422,0.724 0.458,0.781 0.479,0.841 0.492,0.907 0.488,0.982 0.472,1.061 0.439,1.147 0.397,1.234 0.338,1.331 0.268,1.429 0.391,3.21 -2.228,0.9 -0.588,0.246 -0.586,0.248 -0.587,0.255 -0.586,0.257 -0.589,0.262 -0.592,0.267 -0.118,0.052 0.197,4.165 0.078,1.085 0.09,1.094 0.101,1.105 0.108,1.11 0.115,1.12 0.119,1.125 0.121,1.129 0.124,1.132 0.12,1.136 0.117,1.136 0.11,1.14 0.105,1.138 0.092,1.139 0.082,1.135 0.018,0.301 1.945,-4.403 -1.426,15.086 -0.056,0.964 -0.026,0.994 -0.01,1.021 0.004,1.044 0.006,1.065 v 1.082 l -0.017,1.097 -0.04,1.108 -0.077,1.12 -0.124,1.128 -0.185,1.136 -0.255,1.133 -0.34,1.133 -0.439,1.122 -0.528,1.061 -0.457,0.806 -0.45,0.763 -0.464,0.753 -0.477,0.745 -0.487,0.737 -0.502,0.731 -0.511,0.72 -0.523,0.713 -0.534,0.704 -0.545,0.698 -0.553,0.688 -0.566,0.682 -0.573,0.672 -0.583,0.665 -0.591,0.655 -0.6,0.65 -0.609,0.64 -0.615,0.633 -0.623,0.624 -0.631,0.618 -0.638,0.609 -0.643,0.601 -0.65,0.593 -0.656,0.586 -0.662,0.578 -0.667,0.57 -0.67,0.562 -0.677,0.554 -0.68,0.546 -0.684,0.538 -0.687,0.531 -0.667,0.505 -0.505,0.398 -0.631,0.521 -0.74,0.617 -0.816,0.672 -0.861,0.687 -0.888,0.666 -0.903,0.615 -1.706,0.989 0.008,0.102 -0.641,0.264 -1.567,0.909 -0.024,-0.253 -0.516,0.213 -1.224,0.469 -1.203,0.432 -1.182,0.399 -1.153,0.361 -1.119,0.329 -1.079,0.296 -1.035,0.266 -0.984,0.236 -0.93,0.208 -0.866,0.181 -0.802,0.157 -0.73,0.13 -0.654,0.109 -0.575,0.086 -1.215,0.162 -0.01,0.1 -2.506,0.24 -0.641,0.059 -0.664,0.056 -0.688,0.055 -0.707,0.052 -0.729,0.05 -0.748,0.047 -0.77,0.046 -0.788,0.042 -0.805,0.039 -0.824,0.037 -0.843,0.033 -0.857,0.03 -0.872,0.027 -0.888,0.025 -3.887,0.085 0.694,-2.869 h -2.108 l 0.07,2.862 -3.008,-0.048 -0.622,-0.012 -0.622,-0.013 -0.63,-0.013 -0.631,-0.019 -0.634,-0.018 -0.634,-0.022 -0.64,-0.022 -0.642,-0.027 -0.641,-0.028 -0.643,-0.029 -0.648,-0.033 -0.646,-0.036 -0.647,-0.036 -0.65,-0.039 -3.162,-0.202 0.343,-2.183 -0.062,0.009 -0.831,-0.114 -0.576,-0.173 -0.429,-0.155 -0.272,-0.102 -0.576,0.095 0.05,2.422 -3.178,-0.379 -0.56,-0.067 -0.559,-0.071 -0.561,-0.072 -0.557,-0.076 -0.555,-0.076 -0.553,-0.08 -0.555,-0.082 -0.552,-0.085 -0.548,-0.086 -0.546,-0.09 -0.547,-0.091 -0.544,-0.095 -0.541,-0.096 -0.537,-0.1 -2.351,-0.443 -0.081,-3.081 h -3.906 l 0.342,2.333 -4.192,-1.416 -0.645,-0.226 -0.636,-0.233 -0.629,-0.241 -0.62,-0.248 -0.608,-0.253 -0.597,-0.26 -0.592,-0.269 -0.577,-0.276 -0.569,-0.285 -0.556,-0.292 -0.546,-0.299 -0.533,-0.309 -0.521,-0.316 -0.509,-0.325 -1.5,-1.004 10e-4,-0.332 -2.098,-1.363 -0.737,-0.585 -0.666,-0.643 -0.599,-0.694 -0.528,-0.736 -0.465,-0.77 -0.402,-0.799 -0.346,-0.824 -0.292,-0.844 -0.245,-0.86 -0.2,-0.874 -0.161,-0.883 -0.123,-0.895 -0.092,-0.901 -0.061,-0.909 -0.035,-0.91 -0.01,-0.914 0.013,-0.911 0.032,-0.908 0.047,-0.903 0.064,-0.897 0.076,-0.885 0.012,-0.125 -6.451,-2.539 -1.381,-0.578 -1.368,-0.581 -1.359,-0.581 -1.346,-0.584 -1.336,-0.586 -1.326,-0.588 -1.319,-0.592 -1.308,-0.596 -1.301,-0.598 -1.293,-0.603 -1.286,-0.606 -1.28,-0.613 -1.275,-0.617 -1.269,-0.622 -1.267,-0.629 -1.26,-0.636 -1.257,-0.642 -1.254,-0.648 -1.254,-0.656 -1.249,-0.664 -1.25,-0.67 -1.248,-0.681 -1.25,-0.688 -1.249,-0.699 -1.251,-0.706 -1.251,-0.716 -1.256,-0.726 -1.258,-0.738 -1.26,-0.748 -1.263,-0.758 -3.26,-1.976 1.818,-2.904 0.503,-0.912 0.472,-0.957 0.445,-0.995 0.424,-1.029 0.408,-1.057 0.399,-1.085 0.397,-1.106 0.406,-1.121 0.417,-1.133 0.439,-1.138 0.468,-1.141 0.51,-1.139 0.556,-1.127 0.179,-0.323 -0.536,-0.331 -0.689,-0.396 -0.751,-0.433 -0.83,-0.513 -0.01,-0.008 -0.276,0.4 -0.565,0.906 -0.58,1.008 -0.594,1.088 -0.6,1.146 -0.607,1.187 -0.608,1.205 -0.612,1.209 -0.615,1.192 -0.619,1.162 -0.623,1.114 -0.631,1.054 -0.646,0.983 -1.933,2.578 -2.626,-1.785 -0.752,-0.547 -0.669,-0.514 -0.606,-0.474 -0.562,-0.44 -0.54,-0.403 -0.543,-0.378 -2.554,-1.598 1.795,-2.953 0.58,-1.008 0.566,-1.027 0.552,-1.045 0.544,-1.063 0.536,-1.073 0.533,-1.086 0.533,-1.094 0.538,-1.102 0.543,-1.106 0.554,-1.107 0.567,-1.108 0.584,-1.107 0.605,-1.1 0.266,-0.462 -0.372,-0.302 -0.428,-0.342 -0.421,-0.332 -0.419,-0.327 -0.424,-0.328 -0.424,-0.332 -0.431,-0.335 -0.441,-0.349 -0.027,-0.021 -0.349,0.78 -0.531,1.166 -0.531,1.148 -0.532,1.138 -0.531,1.128 -0.531,1.122 -0.528,1.119 -0.528,1.121 -0.525,1.123 -0.522,1.128 -0.518,1.138 -0.517,1.153 -0.511,1.168 -2.186,5.119 -2.908,-4.386 -0.442,-0.468 -0.504,-0.395 -0.645,-0.422 -0.811,-0.532 -0.93,-0.729 -0.945,-1.003 -1.51,-2.265 0.882,-1.769 0.285,-0.579 0.287,-0.586 0.287,-0.593 0.305,-0.629 0.56,-1.173 0.287,-0.609 0.291,-0.616 0.289,-0.617 0.29,-0.62 0.29,-0.621 0.582,-1.252 0.583,-1.256 0.293,-0.629 0.291,-0.628 0.292,-0.628 0.292,-0.627 0.292,-0.627 0.293,-0.626 0.292,-0.622 0.293,-0.62 0.293,-0.62 0.292,-0.615 0.293,-0.611 0.292,-0.606 0.292,-0.605 0.123,-0.249 -0.143,-0.146 -0.453,-0.476 -0.437,-0.482 -0.427,-0.481 -0.417,-0.478 -0.41,-0.474 -0.403,-0.468 -0.396,-0.454 -0.111,-0.126 -0.16,0.352 -0.298,0.649 -0.857,1.877 -0.01,0.02 -0.286,0.624 -0.281,0.617 -0.282,0.612 -0.279,0.608 -0.278,0.607 -0.278,0.605 -0.278,0.607 -0.277,0.6 -0.277,0.606 -0.278,0.605 -0.279,0.609 -0.28,0.612 -0.282,0.616 -0.285,0.621 -0.287,0.625 -0.288,0.632 -0.293,0.64 -0.295,0.646 -0.3,0.658 -0.303,0.665 -0.309,0.676 -0.313,0.689 -1.957,4.296 -2.835,-3.917 -0.564,-0.686 -0.64,-0.71 -0.69,-0.72 -0.716,-0.718 -0.714,-0.705 -0.691,-0.687 -1.715,-1.75 1.105,-2.494 0.53,-1.141 0.571,-1.182 0.603,-1.216 0.629,-1.244 0.648,-1.264 0.659,-1.273 0.662,-1.28 0.66,-1.276 0.648,-1.262 0.629,-1.24 0.603,-1.21 0.569,-1.172 0.527,-1.121 0.477,-1.06 0.016,-0.04 -0.008,-0.016 -0.486,-0.86 -0.501,-0.799 -0.518,-0.734 -0.251,-0.319 -0.439,0.813 -0.605,1.164 -0.59,1.174 -0.584,1.189 -0.578,1.198 -0.579,1.207 -0.58,1.211 -0.588,1.219 -0.601,1.22 -0.615,1.223 -0.634,1.221 -0.659,1.221 -0.686,1.214 -2.585,4.344 -2.597,-3.956 -0.501,-0.687 -0.48,-0.605 -0.494,-0.591 -0.53,-0.635 -0.575,-0.724 -0.62,-0.854 -1.433,-2.173 1.066,-1.799 0.309,-0.552 0.3,-0.568 0.294,-0.588 0.289,-0.606 0.282,-0.618 0.277,-0.633 0.271,-0.645 0.269,-0.659 0.264,-0.668 0.261,-0.677 0.258,-0.687 0.257,-0.694 0.256,-0.699 0.255,-0.705 0.255,-0.709 0.258,-0.713 0.258,-0.713 0.261,-0.717 0.265,-0.715 0.27,-0.714 0.274,-0.712 0.281,-0.708 0.285,-0.705 0.296,-0.702 0.304,-0.694 0.314,-0.688 0.323,-0.678 0.336,-0.673 0.349,-0.661 0.364,-0.65 0.731,-1.236 c 5.127,-11.234 8.529,-3.62 10.723,-13.941 l 0.531,-1.701 0.715,-1.579 0.885,-1.451 1.04,-1.318 1.172,-1.182 1.29,-1.05 1.39,-0.922 1.477,-0.801 1.552,-0.688 1.617,-0.58 1.672,-0.479 1.719,-0.386 1.757,-0.296 1.788,-0.211 1.808,-0.129 1.824,-0.055 1.829,0.021 1.828,0.088 1.815,0.157 1.799,0.218 1.77,0.28 1.735,0.339 1.691,0.393 1.64,0.445 1.581,0.499 1.514,0.548 1.437,0.595 1.357,0.644 1.268,0.696 1.174,0.747 1.032,0.779 0.78,0.651 0.735,0.64 0.725,0.652 0.71,0.668 0.696,0.681 0.681,0.696 0.665,0.712 0.647,0.728 0.629,0.743 0.613,0.763 0.592,0.781 0.57,0.799 0.549,0.816 0.525,0.837 0.504,0.855 0.477,0.876 0.453,0.895 0.425,0.916 0.399,0.937 0.369,0.958 0.342,0.978 0.31,1.003 0.279,1.022 0.246,1.044 0.215,1.065 0.179,1.089 0.147,1.11 0.11,1.133 0.076,1.153 0.04,1.179 v 0.108 l 1.046,0.039 1.462,0.058 1.341,0.055 1.237,0.051 1.136,0.049 1.979,0.084 0.901,0.034 0.811,0.028 0.748,0.022 0.691,0.016 0.646,0.007 0.606,0.002 0.576,-0.008 0.55,-0.014 0.539,-0.026 0.54,-0.034 0.545,-0.043 0.56,-0.054 0.586,-0.066 0.62,-0.078 0.665,-0.092 0.713,-0.104 0.772,-0.119 0.837,-0.134 0.913,-0.151 0.991,-0.164 1.082,-0.181 1.177,-0.198 1.279,-0.215 4.91,-0.872 0.199,-0.62 0.347,-1.017 0.364,-1.023 0.386,-1.026 0.403,-1.031 0.422,-1.034 0.438,-1.038 0.457,-1.037 0.469,-1.036 0.485,-1.036 0.5,-1.034 0.512,-1.03 0.524,-1.026 0.537,-1.022 0.549,-1.016 0.558,-1.008 0.568,-1 0.576,-0.99 0.584,-0.979 0.592,-0.969 0.597,-0.955 0.606,-0.944 0.608,-0.927 0.615,-0.913 0.618,-0.895 0.62,-0.879 0.623,-0.858 0.625,-0.84 2.289,-2.997 2.907,3.201 1.053,1.119 1.067,1.094 0.565,0.559 0.382,-0.917 0.44,-1.04 0.449,-1.043 0.455,-1.044 0.464,-1.05 0.472,-1.053 0.477,-1.054 0.484,-1.055 0.49,-1.061 0.494,-1.059 0.5,-1.062 0.504,-1.062 0.508,-1.064 0.511,-1.062 0.514,-1.063 0.518,-1.062 0.519,-1.064 0.522,-1.061 0.522,-1.061 0.522,-1.058 0.524,-1.057 0.522,-1.054 0.523,-1.053 0.521,-1.048 0.521,-1.048 0.518,-1.042 0.517,-1.038 0.511,-1.034 0.51,-1.03 0.505,-1.024 0.501,-1.022 0.505,-1.03 0.541,-1.064 0.573,-1.042 0.596,-1.006 0.62,-0.973 0.644,-0.94 0.667,-0.906 0.69,-0.875 0.711,-0.843 0.735,-0.814 0.754,-0.784 0.775,-0.758 0.795,-0.729 0.816,-0.707 0.835,-0.681 0.853,-0.659 0.87,-0.636 0.889,-0.618 0.906,-0.6 0.924,-0.582 0.94,-0.565 0.957,-0.553 0.972,-0.538 0.989,-0.528 1.003,-0.517 1.022,-0.51 1.035,-0.503 1.052,-0.499 1.067,-0.492 1.082,-0.491 1.099,-0.489 1.113,-0.491 1.126,-0.489 0.867,-0.376 0.866,-0.375 0.868,-0.376 0.869,-0.376 0.464,-0.201 -1.313,-0.646 -2.247,-1.157 -2.216,-1.192 -2.186,-1.225 -2.156,-1.259 -2.128,-1.288 -2.098,-1.319 -2.071,-1.346 -2.042,-1.375 -2.015,-1.399 -1.987,-1.424 -1.963,-1.445 -1.934,-1.468 -1.909,-1.488 -1.885,-1.506 -1.859,-1.523 -1.836,-1.541 -1.809,-1.552 -1.787,-1.569 -1.764,-1.577 -1.741,-1.591 -1.718,-1.598 -1.697,-1.607 -1.676,-1.614 -1.654,-1.617 -1.635,-1.622 -1.614,-1.625 -1.594,-1.627 -1.575,-1.624 -1.556,-1.624 -1.537,-1.62 -8.419,-8.956 1.776,0.683 -3.041,-3.725 -4.416,-6.058 -4.05,-6.242 -1.512,-2.63 -0.658,0.414 -1.002,0.62 -1.005,0.612 -1.01,0.605 -1.019,0.598 -1.024,0.584 -1.029,0.577 -1.041,0.567 -1.048,0.556 -1.058,0.541 -1.066,0.532 -1.079,0.518 -1.089,0.505 -1.105,0.491 -1.114,0.476 -1.13,0.461 -1.144,0.445 -1.159,0.429 -1.173,0.412 -1.19,0.395 -1.208,0.376 -1.225,0.357 -1.242,0.339 -1.262,0.319 -1.282,0.298 -1.319,0.28 -0.724,0.128 -0.759,0.094 -0.764,0.062 -0.771,0.03 -0.778,0.006 -0.786,-0.018 -0.791,-0.039 -0.796,-0.055 -0.798,-0.073 -0.804,-0.085 -0.806,-0.094 -0.806,-0.106 -0.805,-0.11 -0.807,-0.115 -0.804,-0.119 -0.799,-0.118 -0.791,-0.115 -0.788,-0.112 -0.78,-0.107 -0.77,-0.099 -0.756,-0.09 -0.744,-0.078 -0.727,-0.065 -0.709,-0.05 -0.69,-0.033 -0.671,-0.015 -0.645,0.004 -0.618,0.024 -0.589,0.045 -0.559,0.068 -0.528,0.091 -0.492,0.109 -0.638,0.188 -0.643,0.23 -0.634,0.272 -0.615,0.306 -0.585,0.342 -0.549,0.37 -0.502,0.395 -0.447,0.409 -0.383,0.418 -0.319,0.422 -0.249,0.417 -0.182,0.405 -0.117,0.396 -0.06,0.394 v 0.405 l 0.082,0.542 0.383,1.91 0.268,1.925 0.125,1.838 -0.029,1.755 -0.196,1.677 -0.377,1.593 -0.573,1.505 -0.775,1.39 -0.973,1.264 -1.16,1.119 -1.33,0.964 -1.483,0.816 -1.629,0.678 -1.773,0.55 -1.92,0.434 -2.088,0.33 -2.209,0.195 -2.068,-0.001 -1.921,-0.193 -1.778,-0.386 -1.632,-0.571 -1.485,-0.748 -1.324,-0.907 -1.164,-1.049 -1.002,-1.159 -0.851,-1.251 -0.71,-1.32 -0.587,-1.371 -0.476,-1.41 -0.382,-1.436 -0.299,-1.451 -0.231,-1.465 -0.134,-1.168 -0.087,-1.175 -0.041,-1.18 0.003,-1.185 0.047,-1.187 0.088,-1.191 0.129,-1.187 0.167,-1.19 0.207,-1.186 0.244,-1.182 0.279,-1.176 0.313,-1.17 0.348,-1.163 0.38,-1.153 0.413,-1.142 0.441,-1.132 0.474,-1.118 0.501,-1.103 0.528,-1.085 0.554,-1.07 0.583,-1.052 0.604,-1.031 0.63,-1.009 0.653,-0.99 0.677,-0.963 0.696,-0.938 0.718,-0.91 0.413,-0.496 -0.222,-0.021 -1.489,-0.171 -1.404,-0.199 -1.331,-0.24 -1.265,-0.288 -1.205,-0.351 -1.149,-0.421 -1.095,-0.503 -1.04,-0.593 -0.982,-0.69 -0.918,-0.783 -0.856,-0.879 -0.796,-0.971 -0.736,-1.05 -0.633,-1.014 -0.579,-1.003 -0.534,-1.005 -0.49,-1.011 -0.445,-1.01 -0.402,-1.013 -0.357,-1.012 -0.315,-1.014 -0.271,-1.013 -0.228,-1.008 -0.185,-1.006 -0.145,-1.005 -0.101,-0.996 -0.061,-0.991 -0.02,-0.984 0.019,-0.98 0.062,-0.969 0.099,-0.958 0.141,-0.948 0.177,-0.937 0.217,-0.923 0.252,-0.909 0.291,-0.897 0.327,-0.882 0.363,-0.864 0.399,-0.848 0.432,-0.828 0.467,-0.812 0.373,-0.587 -0.879,-0.328 -1.034,-0.377 -1.071,-0.397 -1.089,-0.42 -1.093,-0.455 -1.076,-0.495 -1.053,-0.553 -1.01,-0.625 -0.954,-0.722 -0.871,-0.843 -0.754,-0.997 -0.573,-1.165 -0.287,-1.169 -0.156,-1.116 -0.155,-0.987 -0.172,-0.994 -0.185,-1.003 -0.193,-1.005 -0.201,-1.011 -0.203,-1.012 -0.204,-1.017 -0.2,-1.016 -0.193,-1.015 -0.181,-1.013 -0.168,-1.012 -0.149,-1.009 -0.128,-1.004 -0.101,-1.001 -0.073,-0.998 -0.037,-0.993 0.001,-0.985 0.046,-0.981 0.095,-0.975 0.151,-0.966 0.21,-0.954 0.278,-0.942 0.35,-0.927 0.43,-0.902 0.507,-0.874 0.592,-0.84 0.676,-0.799 0.759,-0.753 0.841,-0.703 0.923,-0.651 1.03,-0.616 1.125,-0.529 1.191,-0.405 1.225,-0.277 1.249,-0.162 1.267,-0.06 1.281,0.03 1.295,0.109 1.308,0.18 1.322,0.242 1.331,0.296 1.34,0.342 1.349,0.384 1.356,0.417 1.359,0.444 1.361,0.464 0.493,0.174 -0.013,-0.048 -0.559,-2.179 -0.556,-2.201 -0.554,-2.22 -0.552,-2.239 -0.548,-2.256 -0.546,-2.273 -0.54,-2.283 -0.539,-2.296 -0.535,-2.306 -0.532,-2.314 -0.526,-2.321 -0.522,-2.325 -0.518,-2.328 -0.514,-2.33 -0.507,-2.328 -0.504,-2.326 -0.497,-2.322 -0.493,-2.317 -0.487,-2.308 -0.481,-2.3 -0.474,-2.289 -0.47,-2.277 -0.461,-2.261 -0.456,-2.245 -0.449,-2.226 -0.442,-2.209 -0.435,-2.185 -0.427,-2.165 -0.419,-2.137 -0.079,-0.398 -0.237,-0.024 -1.044,-0.147 -1.045,-0.186 -1.044,-0.226 -1.045,-0.262 -1.044,-0.301 -1.04,-0.336 -1.04,-0.371 -1.037,-0.405 -1.034,-0.441 -1.032,-0.473 -1.037,-0.511 -0.988,-0.53 -0.956,-0.565 -0.914,-0.592 -0.875,-0.62 -0.835,-0.646 -0.796,-0.669 -0.756,-0.691 -0.72,-0.712 -0.681,-0.728 -0.645,-0.745 -0.61,-0.759 -0.576,-0.774 -0.541,-0.782 -0.511,-0.794 -0.476,-0.8 -0.448,-0.806 -0.418,-0.812 -0.388,-0.812 -0.361,-0.813 -0.3373,-0.816 -0.31,-0.813 -0.2862,-0.81 -0.2631,-0.804 -0.2422,-0.801 -0.2193,-0.791 -0.2011,-0.783 -0.1817,-0.774 -0.164,-0.763 -0.146,-0.747 -0.1314,-0.734 -0.1162,-0.718 -0.1035,-0.709 -0.0962,-0.759 -0.0859,-0.797 -0.0743,-0.832 -0.062,-0.865 -0.0498,-0.893 -0.0366,-0.921 -0.0239,-0.949 -0.0093,-0.974 0.0059,-0.996 0.0205,-1.016 0.0376,-1.034 0.0522,-1.052 0.0708,-1.066 0.0879,-1.08 0.1064,-1.09 0.1241,-1.1 0.1465,-1.106 0.165,-1.11 0.1865,-1.113 0.2075,-1.114 0.231,-1.114 0.2534,-1.109 0.2783,-1.104 0.3018,-1.097 0.3291,-1.089 0.355,-1.076 0.3825,-1.064 0.41,-1.049 0.44,-1.031 0.471,-1.011 0.502,-0.991 0.532,-0.961 0.513,-0.858 0.533,-0.845 0.558,-0.837 0.583,-0.833 0.609,-0.823 0.63,-0.813 0.652,-0.804 0.675,-0.793 0.698,-0.778 0.716,-0.765 0.737,-0.75 0.757,-0.734 0.776,-0.716 0.792,-0.698 0.81,-0.678 0.827,-0.657 0.845,-0.636 0.86,-0.613 0.875,-0.586 0.888,-0.561 0.903,-0.535 0.917,-0.506 0.93,-0.475 0.942,-0.447 0.955,-0.411 0.964,-0.379 0.976,-0.343 0.986,-0.306 0.996,-0.266 1.003,-0.228 1.01,-0.185 1.022,-0.143 1.917,-0.174 1.883,-0.077 1.842,0.023 1.802,0.117 1.758,0.209 1.712,0.3 1.664,0.388 1.612,0.472 1.561,0.556 1.505,0.636 1.445,0.713 1.387,0.787 1.324,0.86 1.258,0.928 1.192,0.994 1.121,1.057 1.051,1.119 0.976,1.174 0.899,1.229 0.82,1.279 0.74,1.327 0.657,1.372 0.572,1.414 0.484,1.451 0.395,1.486 0.305,1.517 0.211,1.545 0.116,1.569 0.021,1.591 -0.079,1.608 -0.177,1.622 -0.721,4.205 -6.52,-2.174 -0.824,-0.374 -0.79,-0.561 -0.644,-0.625 -0.535,-0.652 -0.452,-0.653 -0.917,-1.162 c -2.971,-0.753 -5.752,1.763 -5.62,6.66 0.271,10.027 8.025,24.036 0.97,36.93 l -1.23,1.662 -0.82,0.793 -0.841,0.744 -0.861,0.692 -0.88,0.643 -0.901,0.594 -0.918,0.544 -0.934,0.492 -0.948,0.443 -0.963,0.395 -0.737,0.261 0.827,2.047 0.91,2.272 0.91,2.298 0.913,2.325 0.914,2.347 0.915,2.369 0.914,2.387 0.914,2.406 0.912,2.421 0.912,2.433 0.908,2.445 0.907,2.455 0.901,2.461 0.9,2.465 0.893,2.468 0.891,2.471 0.884,2.47 0.878,2.466 0.871,2.46 0.865,2.455 0.857,2.444 0.848,2.434 0.839,2.418 0.831,2.407 0.821,2.388 0.81,2.367 0.799,2.346 0.788,2.325 0.776,2.298 0.763,2.271 0.108,0.323 0.633,-0.169 0.848,-0.276 0.813,-0.312 0.785,-0.346 0.761,-0.38 0.743,-0.411 0.728,-0.437 0.714,-0.462 0.704,-0.486 0.699,-0.508 0.697,-0.523 0.696,-0.538 0.7,-0.548 0.708,-0.559 0.72,-0.56 0.732,-0.559 0.749,-0.554 0.772,-0.548 0.797,-0.531 0.823,-0.515 0.857,-0.489 0.893,-0.463 0.933,-0.427 0.971,-0.385 1.013,-0.34 1.057,-0.288 1.104,-0.232 1.147,-0.17 1.195,-0.106 1.239,-0.035 1.031,0.027 0.996,0.078 0.971,0.128 0.943,0.177 0.913,0.224 0.886,0.267 0.859,0.309 0.831,0.347 0.807,0.385 0.779,0.417 0.755,0.446 0.731,0.474 0.711,0.5 0.69,0.52 0.673,0.54 0.656,0.556 0.646,0.574 0.63,0.586 0.621,0.597 0.614,0.604 0.608,0.615 0.602,0.619 0.292,0.303 0.163,-3.997 0.661,-7.432 1.024,-7.429 1.381,-7.417 1.739,-7.388 2.099,-7.35 2.456,-7.295 2.812,-7.23 3.169,-7.15 3.525,-7.059 3.882,-6.952 4.237,-6.834 4.592,-6.703 4.946,-6.559 5.301,-6.4 5.652,-6.23 6.007,-6.046 z"
         id="path4"
         inkscape:connector-curvature="0" />
      <path
         style="fill:#ececed;stroke:none"
         d="m 170.501,638.472 c 12.888,12.389 32.077,21.147 49.943,28.829 12.883,-13.223 29.291,-20.282 53.191,-18.678 1.816,0.121 2.437,-3.926 3.655,-5.279 -22.129,-2.438 -40.996,-15.793 -51.255,-30.748 -15.439,2.58 -10.691,2.073 -29.649,1.42 0.541,-12.452 -5.067,-20.547 -12.789,-26.906 -9.077,-7.476 -40.139,-10.478 -42.33,6.685 -0.463,3.623 1.713,11.007 3.641,14.108 8.438,13.57 13.481,18.923 25.593,30.569 z m 43.908,42.889 -24.645,-11.295 2.053,-10.269 24.645,9.241 z m -5.135,11.295 c 0.684,-2.737 1.37,-5.476 2.054,-8.214 -8.557,-4.108 -17.114,-8.215 -25.672,-12.323 0.685,-5.476 1.37,-10.953 2.054,-16.429 -21.84,-14.65 -38.837,-29.836 -45.182,-46.209 -4.107,-5.005 -8.214,-3.961 -12.322,-2.054 -3.765,6.161 -5.464,15.163 -9.23,21.324 1.712,2.739 2.713,3.218 4.424,5.956 3.766,-6.161 6.176,-12.904 9.94,-19.065 1.832,1.489 3.44,3.642 4.775,6.423 -2.199,5.401 -7.01,13.641 -9.335,19.066 1.521,1.601 4.009,3.786 5.378,5.839 3.423,-7.529 5.911,-12.883 9.334,-20.414 2.396,2.053 4.323,5.016 6.719,7.07 -3.081,6.161 -6.221,13.409 -9.301,19.57 1.711,3.081 3.892,2.463 5.604,5.543 2.738,-6.503 5.653,-11.949 8.39,-18.453 2.739,2.397 4.509,3.501 7.247,5.898 -3.423,5.476 -5.701,11.716 -9.124,17.192 1.895,1.123 2.969,2.303 5.186,3.749 3.036,-3.734 6.44,-13.258 9.659,-16.247 2.397,2.054 3.824,2.171 6.22,4.225 -3.423,5.133 -4.263,11.881 -7.687,17.016 13.464,8.219 26.015,14.411 40.869,20.537 z"
         id="path6"
         inkscape:connector-curvature="0" />
      <path
         style="fill:#ffffff;stroke:none"
         d="m 207.521,386.162 c -7.362,-6.526 -11.747,-14.557 -21.585,-14.557 -12.114,0 -15.086,11.048 -27.106,12.548 -10.573,1.321 -29.307,-12.147 -38.651,-7.027 -9.611,5.267 -4.422,16.738 -3.012,27.608 0.587,4.527 9.035,5.856 13.051,8.032 -5.878,6.851 -6.942,17.198 -0.502,27.106 3.403,5.237 7.729,5.852 17.569,6.526 -8.117,7.318 -14.102,20.735 -12.549,32.126 0.996,7.311 4.229,14.004 15.561,12.549 10.794,-1.387 13.917,-6.625 11.545,-17.067 -0.943,-4.152 3.407,-7.468 7.53,-8.533 6.497,-1.68 17.017,2.341 23.592,1.004 13.533,-2.751 23.593,-9.035 34.134,-16.064 -7.028,-22.421 -12.549,-41.831 -19.577,-64.251 z"
         id="path8"
         inkscape:connector-curvature="0" />
      <path
         style="fill:#c5d2d7;stroke:none"
         d="m 219.945,437.662 c -6.101,3.191 -11.338,7.972 -17.637,10.754 -4.867,2.149 -10.686,6.167 -15.486,3.871 -4.213,-2.014 -3.496,-8.735 -4.302,-13.335 -0.644,-3.671 -0.543,-7.488 1.578,-10.553 1.468,-2.122 5.127,-2.993 6.165,-0.631 1.5,3.406 -2.915,7.033 -3.011,10.754 -0.055,2.183 0.645,7.032 2.581,6.023 3.95,-2.061 4.191,-7.493 6.682,-11.186 1.38,-2.043 5.416,-3.603 4.933,-6.021 -0.759,-3.798 -5.581,-5.569 -7.313,-9.034 -1.788,-3.577 -2.925,-7.617 -3.011,-11.614 -0.062,-2.856 2.139,-5.438 1.318,-8.174 -0.765,-2.554 -2.68,-4.37 -5.19,-3.47 -4.676,1.678 -5.829,7.378 -10.324,9.492 -3.505,1.649 -10.213,0.655 -13.823,-0.745 -3.8,-1.473 -5.086,-3.978 -7.255,-7.428 -1.297,-2.063 -0.792,-5.007 0,-7.313 0.661,-1.926 2.154,-3.417 3.523,-4.973 -0.178,0.028 -0.36,0.051 -0.543,0.074 -1.862,0.233 -3.978,0.007 -6.251,-0.496 -0.915,4.349 -3.269,10.557 -3.181,14.429 0.047,2.13 3.619,4.228 1.834,5.391 -3.363,2.194 -7.616,1.422 -11.413,0.115 -5.377,-1.85 -11.876,-3.502 -16.405,-6.94 -3.233,-2.454 -4.657,-6.538 -7.14,-9.751 -0.567,-0.733 -1.002,-1.83 -1.376,-3.056 -1.4,5.811 1.308,13.488 2.269,20.889 0.587,4.527 9.035,5.856 13.051,8.032 -0.022,0.026 -0.044,0.053 -0.066,0.079 2.075,-0.054 4.502,-0.862 5.48,0.727 1.022,1.661 -3.442,2.782 -3.442,4.732 0,1.95 1.506,4.959 3.442,4.732 4.274,-0.502 7.305,-4.906 11.184,-6.768 3.313,-1.59 6.764,-2.649 10.324,-3.556 3.222,-0.822 6.607,-1.165 9.894,-0.66 2.601,0.4 5.46,1.028 6.883,3.241 1.481,2.304 1.633,5.545 0.86,8.173 -0.776,2.641 -2.451,3.832 -4.846,5.19 -3.205,1.819 -7.493,2.95 -11.07,3.843 -5.027,1.257 -9.938,3.06 -15.056,3.872 -3.967,0.63 -8.082,1.09 -12.045,0.43 -1.194,-0.199 -2.818,-0.843 -4.541,-1.635 0.653,1.569 1.481,3.142 2.497,4.706 3.403,5.237 7.729,5.852 17.569,6.526 -1.692,1.526 -3.289,3.315 -4.747,5.297 1.922,0.171 4.023,-2.085 5.999,-2.849 2.159,-0.836 4.143,-2.404 6.452,-2.581 1.673,-0.129 3.917,0.254 4.732,1.72 0.978,1.759 0.569,4.276 -0.429,6.023 -0.928,1.623 -3.868,1.353 -4.733,3.012 -1.063,2.037 -0.896,4.631 -0.43,6.881 0.429,2.074 2.093,3.686 3.011,5.593 0.947,1.968 3.045,3.888 2.581,6.023 -0.432,1.991 -2.772,3.312 -4.732,3.871 -3.311,0.946 -7.056,1.519 -10.324,0.43 -2.791,-0.93 -4.985,-3.472 -6.453,-6.022 -1.388,-2.412 -1.526,-5.396 -1.72,-8.173 -0.048,-0.688 0.018,-1.635 0.134,-2.681 -1.791,5.124 -2.576,10.55 -1.89,15.582 0.996,7.311 4.229,14.004 15.561,12.549 10.794,-1.387 13.917,-6.625 11.545,-17.067 -0.943,-4.152 3.407,-7.468 7.53,-8.533 6.497,-1.68 17.017,2.341 23.592,1.004 13.533,-2.751 23.593,-9.035 34.134,-16.064 -1.502,-4.791 -2.935,-9.444 -4.329,-14.019 -0.962,0.377 -1.907,0.788 -2.824,1.268 z"
         id="path10"
         inkscape:connector-curvature="0" />
      <path
         style="fill:#ffec00;stroke:none"
         d="m 264.701,259.004 c 77.47,-4.904 150.724,9.244 231.712,88.35 9.307,45.518 -3.381,88.397 -31.117,129.47 -82.702,28.571 -170.868,27.181 -226.711,-1.111 -52.07,-60.382 -42.763,-156.143 26.116,-216.709 z"
         id="path12"
         inkscape:connector-curvature="0" />
      <path
         style="fill:#ffffff;stroke:none"
         d="m 362.269,263.571 c 20.244,5.266 40.959,13.814 62.063,25.083 1.661,-17.419 0.215,-33.71 -7.558,-48.557 -5.305,-3.966 -11.202,-5.734 -17.364,-6.271 -16.053,7.959 -28.808,17.5 -37.141,29.745 z"
         id="path14"
         inkscape:connector-curvature="0" />
      <path
         style="fill:#ffffff;stroke:none"
         d="m 404.464,232.74 c 3.051,0.749 6.667,1.671 10.182,3.812 1.874,-3.812 1.686,-6.267 0.789,-10.078 2.646,0.533 4.601,0.142 5.862,-1.173 0.098,-2.931 0.195,-5.862 0.293,-8.794 -0.781,-1.465 -1.044,-2.238 -1.825,-3.704 -2.345,-0.488 -4.171,-1.496 -6.516,-1.985 -0.977,0.879 -2.994,1.585 -3.971,2.465 -1.805,2.207 -2.6,5.28 -1.173,10.26 -0.49,0 -4.075,8.611 -3.641,9.197 z m -70.016,-62.935 c 24.922,14.036 49.028,28.345 73.949,42.381 -1.872,0.993 -2.201,2.439 -2.621,4.884 0,2.005 0.544,3.466 0.544,5.472 -20.911,-8.308 -42.366,-16.071 -63.278,-24.378 -6.732,-13.321 -8.737,-21.914 -8.594,-28.359 z m 88.023,49.193 c 30.009,11.432 56.209,20.006 86.219,31.439 3.969,7.303 4.287,16.355 -1.906,22.388 -28.581,-15.561 -55.733,-32.074 -84.313,-47.635 -0.319,-2.54 0.316,-3.652 0,-6.192 z"
         id="path16"
         inkscape:connector-curvature="0" />
      <path
         style="fill:#c5c7c9;stroke:none"
         d="m 342.281,184.895 45.081,22.541 -43.672,-14.088 z"
         id="path18"
         inkscape:connector-curvature="0" />
      <path
         style="fill:#c5c7c9;stroke:none"
         d="m 508.519,260.266 c -24.138,-8.375 -44.266,-17.062 -66.918,-28.881 22.593,13.291 42.078,26.236 66.918,34.516 0,-1.878 0,-3.757 0,-5.635 z"
         id="path20"
         inkscape:connector-curvature="0" />
      <path
         style="fill:#2c2c2b;stroke:none"
         d="m 336.368,294.403 c 3.152,-15.062 20.088,-36.328 23.277,-35.963 2.461,0.281 15.978,34.455 13.024,40.427 -2.995,6.056 -6.757,-19.261 -15.75,-20.259 -9.852,-1.094 -22.582,25.497 -20.551,15.795 z m -76.32,4.135 c 4.081,-9.525 13.053,-19.099 22.883,-22.374 3.969,-1.323 5.642,5.418 9.63,6.686 2.306,0.733 5.996,-3.094 7.213,-1.004 1.945,3.335 1.569,9.581 -2.177,10.514 -11.474,2.859 -12.414,-7.631 -15.023,-7.28 -8.631,1.165 -25.956,21.464 -22.526,13.458 z"
         id="path22"
         inkscape:connector-curvature="0" />
      <path
         style="fill:#008ed1;stroke:none"
         d="m 270.033,255.742 c 30.364,-1.433 64.989,0.858 95.353,8.593 7.016,-11.029 19.334,-21.341 37.812,-30.077 -58.437,-12.318 -100.065,-1.903 -133.165,21.484 z m 148.634,30.078 c 27.786,12.604 54.999,32.942 78.202,59.296 -2.792,-41.966 -26.998,-78.345 -82.499,-106.562 6.017,17.045 7.449,32.513 4.297,47.266 z"
         id="path24"
         inkscape:connector-curvature="0" />
      <path
         style="fill:#ffffff;stroke:none"
         d="m 343.901,315.067 c 12.962,1.413 20.825,12.633 20.846,28.79 0.023,16.156 -15.288,29.76 -28.967,28.843 -13.677,-0.919 -14.121,-10.787 -15.786,-23.176 -1.665,-12.391 10.946,-35.869 23.907,-34.457 z"
         id="path26"
         inkscape:connector-curvature="0" />
      <path
         style="fill:#2c2c2b;stroke:none"
         d="m 344.014,314.011 c 6.76,0.737 12.201,4.018 15.964,9.215 3.756,5.189 5.823,12.282 5.833,20.631 0.011,8.16 -3.738,15.687 -9.223,21.148 -5.795,5.771 -13.551,9.25 -20.878,8.759 -13.746,-0.923 -14.942,-10.104 -16.486,-21.962 -0.082,-0.638 -0.165,-1.273 -0.282,-2.137 -0.213,-1.587 -0.206,-3.334 -0.007,-5.173 0.664,-6.078 3.454,-13.285 7.412,-19.14 4.022,-5.95 9.291,-10.554 14.846,-11.3 h 0.004 c 0.937,-0.125 1.877,-0.143 2.817,-0.041 z m 14.243,10.463 c -3.41,-4.709 -8.341,-7.683 -14.468,-8.351 -0.775,-0.084 -1.548,-0.07 -2.313,0.031 v 10e-4 c -4.891,0.657 -9.653,4.894 -13.367,10.386 -3.777,5.587 -6.436,12.431 -7.061,18.175 -0.183,1.68 -0.192,3.257 -0.003,4.666 0.079,0.58 0.183,1.377 0.282,2.146 1.416,10.878 2.513,19.301 14.524,20.107 6.714,0.451 13.864,-2.78 19.241,-8.135 5.109,-5.086 8.601,-12.08 8.591,-19.643 -0.01,-7.895 -1.932,-14.557 -5.426,-19.383 z"
         id="path28"
         inkscape:connector-curvature="0" />
      <path
         style="fill:#2c2c2b;stroke:none"
         d="m 229.458,395.317 c 5.098,13.296 12.491,23.87 21.446,31.622 9.587,8.3 20.977,13.379 33.268,15.118 12.324,1.743 25.567,0.132 38.825,-4.952 16.144,-6.191 32.305,-17.532 46.862,-34.233 -0.329,-0.991 -0.692,-1.9 -1.282,-2.174 -1.736,-0.808 -3.909,-0.511 -6.079,-0.215 -1.232,0.167 -2.467,0.335 -3.667,0.335 v -2.554 c 1.084,0 2.207,-0.154 3.328,-0.306 2.539,-0.346 5.081,-0.693 7.487,0.426 1.701,0.791 2.255,2.511 2.8,4.209 0.386,1.199 0.768,2.383 1.459,2.575 2.704,0.75 5.697,0.002 8.687,-0.745 1.618,-0.404 3.238,-0.81 4.875,-1.008 l 0.3,2.533 c -1.485,0.181 -3.022,0.565 -4.556,0.949 -3.314,0.828 -6.628,1.656 -9.983,0.725 -1.179,-0.327 -1.872,-1.091 -2.362,-2.038 -14.61,16.466 -30.783,27.7 -46.962,33.905 -13.661,5.239 -27.333,6.895 -40.08,5.092 -12.779,-1.807 -24.62,-7.088 -34.587,-15.716 -8.738,-7.566 -16.029,-17.701 -21.236,-30.316 -0.289,0.389 -0.643,0.739 -1.088,1.031 -1.868,1.227 -3.99,1.192 -6.11,1.156 -0.921,-0.014 -1.843,-0.03 -2.663,0.072 l -0.309,-2.534 c 1.007,-0.125 2.01,-0.108 3.012,-0.093 1.726,0.03 3.455,0.058 4.663,-0.736 0.702,-0.461 1.032,-1.587 1.36,-2.71 0.464,-1.589 0.929,-3.179 2.42,-4.143 1.839,-1.19 3.885,-1.061 5.93,-0.934 0.868,0.054 1.737,0.107 2.535,0.038 l 0.22,2.555 c -0.953,0.083 -1.929,0.022 -2.905,-0.039 -1.639,-0.102 -3.281,-0.205 -4.394,0.515 -0.683,0.442 -1.015,1.532 -1.337,2.638 z"
         id="path30"
         inkscape:connector-curvature="0" />
      <path
         style="fill:#2c2c2b;stroke:none"
         d="m 510.402,447.529 -0.217,1.222 -0.305,1.154 -0.41,1.087 -0.538,1.018 -0.704,0.935 -0.86,0.861 -0.98,0.797 -1.096,0.754 -1.21,0.73 -1.322,0.713 -1.43,0.703 -1.534,0.694 -1.63,0.69 -1.723,0.686 -1.807,0.684 -1.886,0.68 -1.956,0.68 -2.022,0.677 -2.077,0.677 -2.126,0.675 -2.167,0.674 -2.199,0.672 -2.226,0.673 -2.244,0.67 -2.254,0.671 -2.254,0.668 -2.25,0.667 -2.237,0.665 -2.212,0.664 -2.183,0.663 -2.145,0.66 -2.099,0.658 -2.043,0.657 -1.983,0.653 -1.908,0.649 -3.724,1.316 -0.125,0.848 -0.433,2.068 -0.575,1.439 -1.094,1.216 -1.372,0.705 -1.38,0.264 -1.307,0.003 -1.258,-0.146 -1.223,-0.224 -1.195,-0.258 -1.147,-0.249 -1.074,-0.207 -0.964,-0.131 -0.804,-0.034 -0.586,0.06 -0.347,0.113 -0.186,0.126 -0.26,0.333 -0.338,0.625 -0.386,0.775 -0.363,0.792 -0.339,0.803 -0.316,0.818 -0.294,0.831 -0.273,0.846 -0.25,0.853 -0.228,0.866 -0.207,0.876 -0.187,0.887 -0.167,0.895 -0.148,0.902 -0.127,0.909 -0.108,0.918 -0.09,0.922 -0.071,0.927 -0.054,0.932 -0.037,0.935 -0.021,0.937 -0.003,0.938 0.012,0.94 0.029,0.939 0.04,0.939 0.057,0.935 0.07,0.937 0.085,0.931 0.095,0.928 0.11,0.921 0.121,0.918 0.131,0.911 0.142,0.901 0.159,0.917 0.171,0.91 0.186,0.904 0.196,0.9 0.21,0.893 0.222,0.891 0.234,0.888 0.246,0.883 0.259,0.881 0.268,0.88 0.282,0.877 0.291,0.877 0.302,0.875 0.314,0.877 0.323,0.876 0.331,0.875 0.345,0.877 0.353,0.88 0.362,0.883 0.371,0.885 0.381,0.886 0.388,0.891 0.398,0.896 0.404,0.901 0.413,0.901 0.421,0.909 0.428,0.916 0.436,0.922 0.441,0.926 0.449,0.936 0.454,0.942 0.501,1.033 0.382,0.979 0.241,1.101 0.086,1.102 -0.051,1.094 -0.171,1.071 -0.278,1.049 -0.374,1.018 -0.464,0.98 -0.546,0.936 -0.624,0.884 -0.699,0.827 -0.774,0.757 -0.848,0.679 -0.924,0.583 -0.997,0.471 -1.003,0.313 -0.753,0.163 -0.705,0.131 -0.721,0.112 -0.737,0.097 -0.75,0.077 -0.76,0.059 -0.773,0.041 -0.783,0.022 -0.788,10e-4 -0.794,-0.017 -0.795,-0.038 -0.799,-0.058 -0.802,-0.08 -0.799,-0.102 -0.794,-0.123 -0.795,-0.146 -0.788,-0.172 -0.777,-0.196 -0.767,-0.221 -0.759,-0.247 -0.745,-0.275 -0.731,-0.304 -0.712,-0.333 -0.698,-0.364 -0.677,-0.4 -0.652,-0.431 -0.626,-0.469 -0.599,-0.506 -0.565,-0.546 -0.529,-0.583 -0.489,-0.625 -0.443,-0.661 -0.644,-1.139 -0.568,-1.179 -0.499,-1.215 -0.439,-1.249 -0.38,-1.281 -0.328,-1.3 -0.281,-1.323 -0.237,-1.339 -0.199,-1.35 -0.162,-1.359 -0.133,-1.361 -0.106,-1.361 -0.081,-1.359 -0.06,-1.345 -0.044,-1.334 -0.031,-1.316 -0.021,-1.294 -0.014,-1.266 -0.009,-1.234 -0.01,-1.194 -0.013,-1.152 -0.017,-1.105 -0.029,-1.05 -0.041,-0.99 -0.052,-0.924 -0.071,-0.847 -0.088,-0.763 -0.107,-0.67 -0.121,-0.564 -0.13,-0.44 -0.017,-0.043 -0.376,-0.057 -0.521,-0.052 -0.621,-0.041 -0.708,-0.029 -0.784,-0.017 -0.853,-0.006 -0.914,10e-4 -0.97,0.012 -1.018,0.014 -1.064,0.021 -1.1,0.022 -1.137,0.024 -1.163,0.02 -1.186,0.019 -1.203,0.013 -1.219,0.007 -1.226,-0.002 -1.23,-0.012 -1.229,-0.025 -1.227,-0.038 -1.215,-0.056 -1.201,-0.074 -1.182,-0.094 -1.163,-0.116 -1.136,-0.142 -1.106,-0.169 -1.074,-0.2 -1.026,-0.231 -1.065,-0.277 -1.094,-0.307 -1.126,-0.345 -1.15,-0.377 -1.16,-0.418 -1.163,-0.456 -1.156,-0.494 -1.141,-0.535 -1.113,-0.581 -1.075,-0.625 -1.033,-0.677 -0.978,-0.732 -0.913,-0.795 -0.835,-0.865 -0.74,-0.947 -1.003,-1.66 0.46,-2.311 c -8.602,0.483 -24.924,3.486 -33.328,-3.746 l -0.495,-0.168 -0.474,-0.171 -0.583,-0.225 -1.098,-0.609 -0.995,-0.918 -0.77,-1.07 -0.574,-1.176 -0.401,-1.249 -0.251,-1.307 -0.103,-1.35 0.039,-1.38 0.188,-1.391 0.337,-1.387 0.497,-1.361 0.667,-1.316 0.85,-1.242 1.041,-1.133 1.235,-0.988 1.373,-0.772 0.893,-0.375 0.842,-0.299 0.843,-0.246 0.844,-0.199 0.842,-0.155 0.837,-0.115 0.832,-0.079 0.829,-0.05 0.822,-0.02 0.813,0.002 0.806,0.02 0.799,0.036 0.793,0.051 0.782,0.057 0.776,0.063 0.768,0.065 0.759,0.065 0.746,0.061 0.738,0.053 0.729,0.044 0.717,0.034 0.706,0.017 h 0.689 l 0.681,-0.02 0.667,-0.039 0.65,-0.065 0.639,-0.091 0.626,-0.118 0.614,-0.146 0.602,-0.179 0.59,-0.211 0.591,-0.254 0.997,-0.487 0.963,-0.526 0.931,-0.559 0.901,-0.593 0.874,-0.62 0.851,-0.651 0.829,-0.676 0.814,-0.703 0.801,-0.726 0.788,-0.747 0.78,-0.765 0.775,-0.783 0.773,-0.797 0.773,-0.809 0.777,-0.818 0.784,-0.827 0.796,-0.83 0.807,-0.831 0.823,-0.83 0.843,-0.827 0.867,-0.819 0.892,-0.809 0.922,-0.796 0.955,-0.78 0.993,-0.76 1.029,-0.736 1.072,-0.708 1.115,-0.681 1.166,-0.647 1.214,-0.608 1.266,-0.567 1.325,-0.529 0.893,-0.302 0.898,-0.259 0.901,-0.213 0.902,-0.173 0.903,-0.133 0.9,-0.1 0.898,-0.069 0.896,-0.041 0.893,-0.016 0.89,0.004 0.883,0.023 0.88,0.036 0.877,0.05 0.87,0.059 0.864,0.064 0.858,0.068 0.854,0.07 0.847,0.067 0.836,0.064 0.829,0.054 0.824,0.048 0.811,0.035 0.801,0.022 0.791,0.005 0.781,-0.013 0.768,-0.034 0.757,-0.055 0.743,-0.082 0.731,-0.104 0.715,-0.135 0.704,-0.163 0.491,-0.139 0.139,-0.077 0.238,-0.252 0.416,-0.637 0.497,-0.95 0.552,-1.181 0.606,-1.347 0.678,-1.455 0.774,-1.518 0.9,-1.528 1.059,-1.493 1.257,-1.406 1.492,-1.253 1.755,-1.016 2.012,-0.694 2.242,-0.303 2.41,0.122 1.304,0.246 1.261,0.36 1.25,0.476 1.239,0.579 1.228,0.683 1.212,0.775 1.196,0.866 1.178,0.951 0.417,0.371 2.925,-1.285 1.168,-0.512 1.172,-0.506 1.173,-0.506 1.18,-0.497 1.182,-0.491 1.186,-0.483 1.194,-0.477 1.199,-0.464 1.203,-0.453 1.212,-0.443 1.219,-0.429 1.227,-0.413 1.236,-0.4 1.244,-0.382 1.254,-0.365 1.266,-0.345 1.274,-0.326 1.286,-0.303 1.297,-0.283 1.31,-0.258 0.186,-0.033 -0.516,-1.145 -0.467,-1.027 -0.458,-1.002 -0.448,-0.979 -0.438,-0.955 -0.43,-0.934 -0.42,-0.913 -0.413,-0.897 -0.402,-0.878 -0.396,-0.864 -0.386,-0.85 -0.378,-0.839 -0.369,-0.827 -0.361,-0.82 -0.352,-0.81 -0.344,-0.805 -0.337,-0.799 -0.328,-0.797 -0.319,-0.793 -0.312,-0.793 -0.304,-0.795 -0.295,-0.796 -0.288,-0.8 -0.28,-0.806 -0.271,-0.811 -0.262,-0.819 -0.255,-0.826 -0.248,-0.839 -0.238,-0.848 -0.23,-0.861 -0.223,-0.875 -0.217,-0.893 -0.19,-0.844 -0.182,-0.863 -0.169,-0.882 -0.156,-0.899 -0.138,-0.913 -0.12,-0.926 -0.098,-0.936 -0.075,-0.948 -0.049,-0.954 -0.02,-0.962 0.013,-0.964 0.046,-0.97 0.084,-0.969 0.123,-0.968 0.167,-0.966 0.212,-0.964 0.263,-0.955 0.316,-0.944 0.37,-0.932 0.43,-0.916 0.49,-0.897 0.553,-0.874 0.62,-0.844 0.684,-0.817 0.756,-0.779 0.819,-0.741 0.891,-0.699 0.959,-0.657 1.029,-0.607 1.097,-0.56 1.167,-0.508 1.252,-0.465 1.589,-0.466 1.577,-0.324 1.553,-0.178 1.524,-0.039 1.493,0.099 1.453,0.227 1.413,0.349 1.367,0.462 1.324,0.567 1.277,0.662 1.234,0.748 1.189,0.825 1.149,0.898 1.11,0.961 1.075,1.019 1.038,1.07 1.009,1.116 0.978,1.156 0.95,1.19 0.922,1.218 0.898,1.241 0.874,1.26 0.852,1.273 0.83,1.279 0.81,1.28 0.79,1.277 0.774,1.268 0.754,1.251 0.738,1.23 0.723,1.204 0.706,1.172 0.702,1.15 0.834,1.399 0.831,1.487 0.816,1.548 0.799,1.607 0.783,1.656 0.764,1.703 0.743,1.743 0.721,1.777 0.697,1.805 0.672,1.827 0.644,1.845 0.614,1.854 0.584,1.859 0.551,1.858 0.514,1.852 0.478,1.838 0.441,1.82 0.399,1.795 0.356,1.767 0.31,1.731 0.265,1.69 0.215,1.645 0.164,1.594 0.109,1.538 0.054,1.481 -0.006,1.418 -0.07,1.353 z"
         id="path32"
         inkscape:connector-curvature="0" />
      <path
         style="fill:#2c2c2b;stroke:none"
         d="m 313.898,460.139 c 17.856,2.823 27.248,-8.573 39.924,-23.957 2.467,-2.995 5.058,-6.139 7.813,-9.31 l 1.925,1.666 c -2.792,3.215 -5.342,6.31 -7.773,9.259 -13.208,16.029 -22.993,27.904 -42.277,24.855 z"
         id="path34"
         inkscape:connector-curvature="0" />
      <path
         style="fill:#2c2c2b;stroke:none"
         d="m 245.675,355.774 c 2.13,0.297 4.627,0.142 7.123,-0.013 5.401,-0.335 10.805,-0.671 14.214,3.323 3.49,4.09 3.354,9.663 3.218,15.262 -0.118,4.867 -0.237,9.759 2.193,13.177 1.675,2.357 4.193,3.65 7.185,4.358 3.149,0.745 6.85,0.855 10.677,0.855 v 2.555 c -3.98,0 -7.849,-0.12 -11.256,-0.925 -3.563,-0.844 -6.595,-2.429 -8.682,-5.366 -2.929,-4.121 -2.8,-9.431 -2.671,-14.714 0.124,-5.116 0.248,-10.209 -2.6,-13.546 -2.575,-3.017 -7.353,-2.721 -12.129,-2.424 -2.592,0.161 -5.188,0.322 -7.621,-0.018 z"
         id="path36"
         inkscape:connector-curvature="0" />
      <path
         style="fill:#2c2c2b;stroke:none"
         d="m 350.084,340.635 c 6.879,0.759 11.268,6.331 11.28,14.987 0.001,0.464 -0.024,0.922 -0.069,1.376 -3.513,6.437 -9.331,11.534 -15.688,14.044 -6.883,-0.652 -7.129,-5.866 -7.992,-12.384 -0.884,-6.638 5.591,-18.78 12.469,-18.023 z"
         id="path38"
         inkscape:connector-curvature="0" />
      <path
         style="fill:#ffffff;stroke:none"
         d="m 288.025,302.801 c 13.256,2.055 15.408,12.828 11.71,28.556 -3.698,15.728 -15.71,28.555 -29.377,26.912 -13.667,-1.644 -14.175,-15.703 -12.943,-28.145 1.233,-12.44 17.355,-29.377 30.61,-27.323 z"
         id="path40"
         inkscape:connector-curvature="0" />
      <path
         style="fill:#2c2c2b;stroke:none"
         d="m 288.188,301.754 c 7.066,1.095 11.186,4.547 13.052,9.844 1.806,5.126 1.423,11.948 -0.47,20 -1.961,8.341 -6.211,15.896 -11.802,21.017 -5.297,4.852 -11.803,7.542 -18.735,6.709 -7.337,-0.882 -11.143,-5.096 -12.948,-10.758 -1.733,-5.44 -1.554,-12.206 -0.926,-18.545 0.674,-6.794 5.566,-14.834 12.031,-20.605 5.9,-5.266 13.153,-8.691 19.798,-7.662 z m 11.047,10.551 c -1.598,-4.534 -5.184,-7.497 -11.372,-8.456 -5.946,-0.921 -12.579,2.27 -18.052,7.155 -6.106,5.451 -10.719,12.956 -11.34,19.224 -0.604,6.101 -0.786,12.587 0.843,17.697 1.558,4.888 4.841,8.527 11.169,9.288 6.266,0.753 12.188,-1.719 17.047,-6.168 5.284,-4.841 9.306,-12.004 11.17,-19.929 1.803,-7.674 2.194,-14.104 0.535,-18.811 z"
         id="path42"
         inkscape:connector-curvature="0" />
      <path
         style="fill:#ffffff;stroke:none"
         d="m 347.79,347.543 c 2.654,0.292 4.349,2.442 4.353,5.783 0.004,3.34 -3.13,6.152 -5.931,5.962 -2.801,-0.189 -2.893,-2.23 -3.234,-4.791 -0.34,-2.562 2.159,-7.246 4.812,-6.954 z"
         id="path44"
         inkscape:connector-curvature="0" />
      <path
         style="fill:#2c2c2b;stroke:none"
         d="m 289.861,324.69 c 4.668,0.515 8.065,3.486 9.469,8.249 -2.099,7.66 -6.166,14.516 -11.405,19.181 -0.588,0.068 -1.177,0.085 -1.759,0.046 -6.553,-0.445 -6.766,-5.215 -7.561,-11.208 -0.797,-5.992 5.047,-16.951 11.256,-16.268 z"
         id="path46"
         inkscape:connector-curvature="0" />
      <path
         style="fill:#ffffff;stroke:none"
         d="m 288.306,331.183 c 2.569,0.282 4.208,2.363 4.213,5.595 0.004,3.233 -3.03,5.955 -5.742,5.771 -2.71,-0.184 -2.797,-2.157 -3.128,-4.637 -0.33,-2.479 2.088,-7.012 4.657,-6.729 z"
         id="path48"
         inkscape:connector-curvature="0" />
      <path
         style="fill:#2c2c2b;stroke:none"
         d="m 363.919,378.445 c -3.537,-5.145 -8.76,-7.629 -14.554,-9.218 0.961,-0.554 1.899,-1.166 2.808,-1.832 5.422,1.739 10.302,4.457 13.841,9.604 z"
         id="path50"
         inkscape:connector-curvature="0" />
      <path
         style="fill:#ffec00;stroke:none"
         d="m 463.31,376.492 c 15.329,-5.193 24.578,13.422 31.982,25.448 8.686,14.109 16.172,41.692 11.693,48.834 -4.415,7.038 -38.058,14.328 -57.43,21.321 0.801,-12.839 -2.751,-22.813 -12.037,-31.983 12.409,-5.477 24.729,-10.579 39.892,-9.629 -0.115,-1.031 -0.088,-1.64 -0.203,-2.672 -4.241,-0.46 -8.483,-0.39 -12.724,0.282 -5.159,-11.463 -8.625,-17.901 -10.802,-27.185 -2.006,-8.558 -2.697,-20.241 9.629,-24.416 z"
         id="path52"
         inkscape:connector-curvature="0" />
      <path
         style="fill:#ffffff;stroke:none"
         d="m 408.402,450.602 c 3.834,-1.182 4.304,-16.408 15.875,-14.84 11.038,1.496 26.026,22.194 21.397,41.413 -1.316,5.46 -11.741,-2.481 -14.494,2.416 -4.918,8.741 -5.08,20.126 -3.452,30.023 1.675,10.18 5.74,19.128 10.699,29.334 1.82,3.748 -1.463,9.753 -5.523,10.699 -6.494,1.511 -16.875,0.506 -20.36,-5.177 -6.338,-10.333 -2.21,-30.44 -5.177,-34.856 -1.325,-1.972 -20.197,0.711 -30.023,-1.725 -5.248,-1.301 -12.668,-4.032 -14.86,-8.282 0.367,-1.942 0.822,-3.713 1.617,-5.34 3.464,-7.098 -4.5,-0.865 -16.639,-0.255 -8.432,0.424 -16.614,-1.003 -20.849,-2.688 -4.082,-1.624 -4.169,-11.641 2.071,-14.494 7.547,-3.452 16.28,1.416 23.812,-2.071 11.901,-5.509 15.963,-17.81 29.334,-22.776 8.314,-3.089 18.097,1.229 26.572,-1.381 z"
         id="path54"
         inkscape:connector-curvature="0" />
      <path
         style="fill:#c5d2d7;stroke:none"
         d="m 432.156,545.069 c -0.583,-5.684 -7.958,-3.825 -10.778,-8.887 -5.149,-9.243 -4.02,-26.653 -4.621,-27.673 -2.108,-3.57 -8.978,-2.901 -12.828,-1.36 -2.658,1.062 6.916,-0.212 8.588,4.171 3.922,10.293 -1.069,21.428 7.11,31.725 2.39,3.008 12.922,5.847 12.529,2.024 z m 7.231,-66.38 c -3.235,-0.708 -6.769,-1.658 -8.207,0.902 -0.299,0.529 -0.578,1.071 -0.842,1.62 -0.156,-0.341 -0.284,-0.677 -0.375,-0.981 -0.653,-2.179 -0.258,-4.747 -0.326,-7.021 -0.106,-3.506 0.496,-6.933 -1.473,-9.835 -1.841,-2.712 -5.147,-2.317 -7.84,-4.189 -1.43,-0.995 -3.088,-2.373 -2.505,-3.551 0.563,-1.134 7.588,-1.208 10.573,1.03 3.186,2.39 2.727,7.038 5.336,10.048 2.059,2.378 7.878,3.092 9.342,5.875 0.835,1.59 -1.774,3.474 -2.831,4.927 -0.275,0.379 -0.56,0.775 -0.852,1.175 z"
         id="path56"
         inkscape:connector-curvature="0" />
      <path
         style="fill:#c5d2d7;stroke:none"
         d="m 327.331,491.397 c 3.196,2.293 6.142,3.654 10.252,4.593 3.904,0.893 10.768,0.212 14.704,-0.528 3.44,-0.647 5.905,0.557 9.395,0.276 0.514,-0.041 1.147,-0.061 1.832,-0.089 1.148,-3.139 3.195,-5.775 7.617,-8.122 1.366,-0.724 -1.59,-3.063 -3.106,-2.76 -7.393,1.477 -13.173,5.761 -20.706,7.384 -7.467,1.61 -15.34,-0.224 -19.988,-0.754 z"
         id="path58"
         inkscape:connector-curvature="0" />
      <path
         style="fill:#008ed1;stroke:none"
         d="m 324.702,605.84 c 1.296,2.594 2.779,4.328 3.291,7.183 0.916,5.105 -1.034,10.178 0,15.261 0.814,3.998 4.987,6.983 5.687,14.663 -6.485,2.593 -12.537,6.212 -19.452,7.182 -11.162,1.567 -24.339,-1.396 -35.611,-1.496 4.789,-11.97 10.276,-22.743 13.466,-34.713 10.774,-1.098 21.847,-3.791 32.619,-8.08 z m 34.413,-62.843 c -11.869,9.278 -27.598,14.292 -35.311,27.233 -5.618,9.424 -0.699,21.944 -0.898,32.917 -10.074,4.388 -20.148,6.583 -30.224,7.78 1.097,-1.596 1.596,-4.987 2.693,-6.583 -1.596,-0.798 -2.893,-0.4 -4.489,-1.197 1.098,-11.372 3.871,-26.785 11.671,-36.508 6.537,-8.15 16.392,-9.416 27.831,-13.467 z m -113.116,40.1 c 11.29,12.667 25.007,21.045 44.289,23.342 -3.093,11.321 -7.283,22.991 -11.97,33.515 -16.335,-0.923 -32.345,-8.653 -47.88,-26.334 2.489,-9.957 9.081,-22.163 15.561,-30.523 z m 183.734,-93.679 c 11.382,-2.671 22.281,-5.841 33.796,-9.471 -9.211,11.423 -20.957,20.359 -33.743,28.08 -1.466,-6.26 -1.298,-11.773 -0.053,-18.609 z M 379.2,510.55 c 23.816,4.158 28.435,-5.791 26.766,10.346 -5.49,2.734 -11.009,5.4 -16.447,8.076 -14.477,7.12 -30.688,11.67 -45.871,17.13 -12.419,4.465 -26.471,7.726 -37.929,14.274 -5.407,3.088 -8.01,7.799 -10.605,13.459 -3.477,7.587 -5.015,15.94 -6.933,24.063 -0.405,1.719 0,3.535 0,5.302 -15.41,-3.033 -22.738,-5.919 -34.667,-16.721 4.486,-10.877 10.614,-22.614 15.906,-33.445 5.384,-11.017 14.452,-15.572 26.51,-20.8 9.203,-3.989 18.761,-8.075 27.734,-12.561 -0.815,-0.815 -1.332,-1.631 -2.147,-2.447 -7.071,3.398 -13.541,6.199 -20.61,9.597 -24.045,-11.544 -42.959,-29.517 -59.004,-46.658 37.394,14.714 77.994,20.56 117.513,19.175 1.762,3.637 7.008,8.978 19.784,11.21 z"
         id="path60"
         inkscape:connector-curvature="0" />
      <path
         style="fill:#2c2c2b;stroke:none"
         d="m 366.369,505.541 c -3.88,1.724 -7.788,5.313 -9.272,8.243 -1.489,2.937 -1.981,6.45 -1.477,10.537 l -2.534,0.309 c -0.566,-4.593 0.014,-8.592 1.736,-11.993 1.727,-3.407 5.103,-6.547 9.088,-8.672 z"
         id="path62"
         inkscape:connector-curvature="0" />
      <path
         style="fill:#2c2c2b;stroke:none"
         d="m 160.227,442.244 c 1.606,-2.234 3.716,-3.77 6.068,-4.603 2.427,-0.859 5.1,-0.964 7.728,-0.317 l 1.356,0.334 0.232,1.379 c 0.579,3.444 1.314,7.372 2.077,11.457 2.388,12.781 5.056,27.06 3.938,31.683 l -0.701,2.899 -2.508,-1.61 c -4.235,-2.719 -8.269,-13.378 -12.306,-24.048 -2.045,-5.406 -4.093,-10.817 -6.083,-15.029 l -0.532,-1.126 z"
         id="path64"
         inkscape:connector-curvature="0" />
      <path
         style="fill:#ffffff;stroke:none"
         d="m 161.949,443.483 c 2.735,-3.807 7.201,-5.172 11.567,-4.097 2.321,13.792 7.39,36.742 6.048,42.292 -5.566,-3.573 -11.744,-25.769 -17.615,-38.195 z"
         id="path66"
         inkscape:connector-curvature="0" />
      <path
         style="fill:#ffec00;stroke:none"
         d="m 158.075,261.84 c 3.23,-16.033 -9.731,-30.255 -29.177,-27.984 -9.821,1.146 -19.255,9.306 -24.208,17.863 -5.4171,9.359 -6.001,23.664 -4.9742,31.107 0.9702,7.032 4.0202,16.91 13.9712,21.978 10.354,5.273 21.055,5.207 28.731,-3.272 -0.056,-7.035 -0.903,-13.169 -2.385,-18.607 -1.739,-6.382 -6.288,-14.068 -4.51,-20.441 1.328,-4.762 7.324,-7.868 12.242,-8.376 3.021,-0.313 3.562,5.483 6.444,6.443 1.288,0.43 2.577,0.86 3.866,1.289 z"
         id="path68"
         inkscape:connector-curvature="0" />
      <path
         style="fill:#dbd083;stroke:none"
         d="m 142.415,301.278 c 0.972,-1.952 1.795,-7.322 1.795,-7.322 -0.078,-4.157 -0.105,-8.33 -0.47,-12.471 -0.419,-4.739 -2.44,-9.362 -2.589,-14.117 -0.087,-2.783 -0.154,-7.29 1.647,-9.412 1.632,-1.923 4.777,-2.284 7.539,-2.247 -0.681,-0.998 -1.457,-1.717 -2.572,-1.601 -4.918,0.508 -10.914,3.614 -12.242,8.376 -1.778,6.373 2.771,14.059 4.51,20.441 1.464,5.372 2.308,11.424 2.382,18.353 z"
         id="path70"
         inkscape:connector-curvature="0" />
      <path
         style="fill:#ffffff;stroke:none"
         d="m 132.16,309.73 c 2.289,5.571 26.649,71.673 25.889,71.767 -4.491,0.558 -10.145,-1.86 -16.237,-4.078 -5.995,-22.483 -10.981,-44.701 -15.328,-67.048 1.764,0.076 3.993,-0.298 5.676,-0.641 z"
         id="path72"
         inkscape:connector-curvature="0" />
      <path
         style="fill:#ececed;stroke:none"
         d="m 265.432,696.996 0.653,26.561 c -3.257,-0.043 -6.655,-0.166 -10.081,-0.394 l 4.162,-26.521 z m -42.755,1.791 5.522,-0.922 3.084,21.115 c -3.37,-1.109 -6.341,-2.46 -8.706,-4.095 z m 25.416,-2.863 0.544,26.576 c -2.952,-0.34 -5.857,-0.77 -8.643,-1.309 l -0.642,-24.474 z m 29.972,5.545 8.59,1.791 -1.77,19.611 c -3.153,0.318 -7.366,0.571 -12.162,0.665 z m 52.255,-24.891 c -0.64,5.443 0.744,11.539 -1.922,16.328 -4.377,7.871 -11.044,14.528 -18.249,19.931 -1.277,0.958 -4.047,3.529 -5.897,4.474 -0.92,-9.591 -1.555,-14.25 -1.893,-19.455 7.979,-2.138 22.533,-8.994 23.399,-10.953 z m -29.794,23.816 c 0.392,5.359 1.177,12.679 1.569,18.039 -6.323,2.698 -12.481,3.8 -14.64,4.065 0.523,-7.582 1.176,-13.738 1.699,-21.32 -4.314,-0.915 -8.628,-1.83 -12.942,-2.745 -1.83,7.32 -3.491,14.979 -5.321,22.3 -0.785,0 -1.569,0 -2.353,0 -0.131,-8.627 -0.43,-17.594 -0.561,-26.222 -3.138,-0.261 -6.274,-0.522 -9.412,-0.784 -1.83,8.366 -2.865,18.662 -4.695,27.028 -0.654,0.262 -1.934,-0.73 -2.587,-0.468 -0.131,-8.889 -0.431,-18.455 -0.561,-27.344 -4.706,0.392 -9.412,0.784 -14.118,1.175 0.131,9.282 0.092,14.327 0.222,23.609 -0.914,0 -1.829,0 -2.745,0 -1.306,-9.151 -2.444,-14.066 -3.752,-23.216 -3.267,0.654 -6.536,1.307 -9.804,1.961 -0.13,5.49 -0.261,10.98 -0.392,16.471 -6.874,-3.988 -4.284,-16.738 -3.446,-23.53 31.848,-8.268 59.314,-3.759 83.839,10.981 z m -85.538,-13.836 c 27.277,-8.126 53.817,-7.481 85.031,9.313 8.02,-2.469 21.828,-7.636 24.326,-11.303 3.154,-5.518 4.891,-9.561 5.405,-16.52 -0.309,-5.861 -1.305,-12.066 -1.613,-17.929 -2.777,0 -5.897,1.72 -8.673,1.72 0,2.469 0.687,5.28 0.687,7.748 1.542,0.617 3.429,-0.485 4.972,0.132 0,1.85 0,3.702 0,5.553 -2.16,-0.309 -4.319,-0.617 -6.478,-0.926 -3.085,-1.542 -7.89,-3.085 -10.975,-4.627 1.928,2.507 -5.832,-0.01 -3.703,2.513 1.278,1.512 13.778,8.143 15.709,9.518 -4.504,0.784 -8.112,5.774 -9.853,10.238 0.32,-12.021 -24.762,-31.101 -40.838,-30.166 -21.972,1.28 -45.505,7.587 -53.997,34.736 z"
         id="path74"
         inkscape:connector-curvature="0" />
      <path
         style="fill:#2c2c2b;stroke:none"
         d="m 130.206,607.427 c 4.108,-1.907 8.215,-2.951 12.322,2.054 3.307,8.537 9.512,16.749 17.788,24.733 5.114,1.798 9.679,1.662 15.268,1.741 2.463,0.035 6.655,-0.137 8.499,-1.77 2.576,-2.282 2.092,-6.797 3.542,-9.916 0.93,-1.999 2.231,-3.54 3.542,-5.313 0.911,-1.234 2.833,-1.181 4.25,-1.77 -2.598,-0.238 -5.282,-1.413 -7.792,-0.709 -4.473,1.256 -7.821,5.561 -12.395,6.375 -4.455,0.793 -9.557,0.52 -13.458,-1.771 -4.133,-2.428 -6.582,-7.113 -8.854,-11.333 -1.929,-3.584 -1.816,-8.001 -3.542,-11.687 -0.922,-1.971 -2.159,-4.354 -4.249,-4.958 -1.112,-0.322 -2.521,-0.72 -3.711,-0.676 -2.04,12.942 -5.586,2.117 -11.21,15 z"
         id="path76"
         inkscape:connector-curvature="0" />
      <path
         style="fill:#2c2c2b;stroke:none"
         d="m 223.405,658.676 c -6.562,-1.302 -12.753,-3.236 -18.565,-5.801 -5.816,-2.565 -11.255,-5.763 -16.313,-9.589 l -0.7,-0.53 0.388,-0.788 c 1.426,-2.892 2.698,-5.938 3.725,-9.229 1.024,-3.283 1.806,-6.814 2.249,-10.681 l 0.105,-0.909 0.91,-0.036 c 1.958,-0.077 3.794,-0.12 5.582,0.382 1.846,0.519 3.543,1.594 5.08,3.745 l 0.2,0.554 c 0.169,2.754 -0.089,5.616 -0.725,8.485 -0.647,2.914 -1.685,5.825 -3.066,8.628 l -1.904,-0.939 c 1.309,-2.659 2.292,-5.407 2.899,-8.147 0.566,-2.549 0.807,-5.11 0.685,-7.599 -1.161,-1.53 -2.408,-2.307 -3.743,-2.682 -1.215,-0.341 -2.571,-0.372 -4.022,-0.331 -0.473,3.651 -1.24,7.017 -2.221,10.163 -0.968,3.099 -2.146,5.987 -3.463,8.738 4.73,3.498 9.793,6.439 15.191,8.82 5.666,2.5 11.706,4.387 18.115,5.659 z m 14.408,-20.062 c -0.305,1.372 -0.271,2.462 -0.237,3.551 v 0.004 c 0.037,1.2 0.074,2.403 -0.295,4.068 l -0.226,1.019 -1.017,-0.204 c -1.598,-0.319 -3.365,-0.469 -5.129,-0.618 -1.799,-0.153 -3.598,-0.306 -5.375,-0.66 l -1.083,-0.218 0.26,-1.075 c 1.833,-7.567 0.97,-13.989 0.071,-20.674 -0.04,-0.301 -0.089,-0.673 -0.147,-1.112 -1.176,-1.005 -2.86,-1.425 -4.683,-1.461 -2.299,-0.043 -4.789,0.518 -6.844,1.317 0.134,0.609 0.193,0.881 0.199,0.907 1.714,7.686 3.206,14.372 0.132,21.43 l -1.946,-0.849 c 2.799,-6.425 1.378,-12.798 -0.257,-20.124 -0.253,-1.134 -0.391,-1.748 -0.398,-1.779 l -0.185,-0.844 0.796,-0.352 c 2.429,-1.077 5.612,-1.891 8.537,-1.834 2.465,0.047 4.777,0.707 6.397,2.319 l 0.303,0.616 c 0.051,0.385 0.118,0.881 0.199,1.484 0.883,6.563 1.733,12.881 0.142,20.347 1.299,0.198 2.677,0.317 4.056,0.434 1.437,0.121 2.875,0.241 4.302,0.467 0.114,-0.925 0.088,-1.734 0.062,-2.541 0,-0.002 0,-0.003 0,-0.005 -0.038,-1.202 -0.074,-2.407 0.295,-4.07 z"
         id="path78"
         inkscape:connector-curvature="0" />
      <path
         style="fill:#2c2c2b;stroke:none"
         d="m 196.898,612.79 c -0.132,1.851 -0.508,3.213 -0.64,5.063 9.512,1.462 19.026,1.238 28.54,-0.549 -0.397,-2.247 -0.793,-3.275 -1.189,-5.521 -8.985,2.254 -17.726,1.94 -26.711,1.007 z"
         id="path80"
         inkscape:connector-curvature="0" />
      <path
         style="fill:#2c2c2b;stroke:none"
         d="m 203.176,378.856 c -0.877,27.41 5.49,55.841 19.154,78.013 0.54,-0.54 1.153,-0.866 1.694,-1.407 -12.835,-22.286 -19.835,-49.085 -18.566,-76.469 z"
         id="path82"
         inkscape:connector-curvature="0" />
    </g>
  </g>
</svg>
