<?xml version="1.0" encoding="UTF-8" standalone="no"?>
<svg
   xmlns:dc="http://purl.org/dc/elements/1.1/"
   xmlns:cc="http://creativecommons.org/ns#"
   xmlns:rdf="http://www.w3.org/1999/02/22-rdf-syntax-ns#"
   xmlns:svg="http://www.w3.org/2000/svg"
   xmlns="http://www.w3.org/2000/svg"
   xmlns:sodipodi="http://sodipodi.sourceforge.net/DTD/sodipodi-0.dtd"
   xmlns:inkscape="http://www.inkscape.org/namespaces/inkscape"
   version="1.1"
   width="133.90735"
   height="168.48599"
   overflow="visible"
   viewBox="0 0 133.90735 168.48599"
   enable-background="new 0.0 0.0 1003.0 557.0"
   id="svg48073"
   inkscape:version="0.48.1 "
   sodipodi:docname="025_DW.svg"
   style="overflow:visible">
  <metadata
     id="metadata48195">
    <rdf:RDF>
      <cc:Work
         rdf:about="">
        <dc:format>image/svg+xml</dc:format>
        <dc:type
           rdf:resource="http://purl.org/dc/dcmitype/StillImage" />
      </cc:Work>
    </rdf:RDF>
  </metadata>
  <sodipodi:namedview
     pagecolor="#ffffff"
     bordercolor="#666666"
     borderopacity="1"
     objecttolerance="10"
     gridtolerance="10"
     guidetolerance="10"
     inkscape:pageopacity="0"
     inkscape:pageshadow="2"
     inkscape:window-width="1366"
     inkscape:window-height="712"
     id="namedview48193"
     showgrid="false"
     fit-margin-top="0"
     fit-margin-left="0"
     fit-margin-right="0"
     fit-margin-bottom="0"
     inkscape:zoom="2"
     inkscape:cx="232.32236"
     inkscape:cy="119.24783"
     inkscape:window-x="-4"
     inkscape:window-y="-4"
     inkscape:window-maximized="1"
     inkscape:current-layer="svg48073" />
  <defs
     id="defs48075" />
  <g
     id="g48079"
     transform="translate(0.04306931,-0.014)">
    <g
       id="g48081">
      <g
         id="g48083">
        <path
           d="m 90.15,132.35 c -1.66666,1.6 -5.43333,4.31666 -11.3,8.15 -5.4,3.5 -9.33334,5.88333 -11.8,7.15 -1.9,1 -3.483334,0.66667 -4.75,-1 -1.233334,-1.66668 -1.316666,-2.81667 -0.25,-3.45 2.633334,-1.6 5.86667,-3.91666 9.7,-6.95 3.73333,-2.96666 6.299995,-5.2 7.7,-6.7 -2.43333,-2.96666 -4.249995,-4.95 -5.45,-5.95 l 4,-3 5.75,-1.65 -1.1,3.45 c 0.46667,-0.26667 1.96667,-0.85001 4.5,-1.75 l -0.45,4.5 -0.9,0.9 4.35,6.3 z"
           id="path48085"
           inkscape:connector-curvature="0"
           style="fill:#763a00;stroke-linecap:round;stroke-linejoin:round" />
        <path
           d="m 132.75,45 c -0.0667,10 0.0167,17.350002 0.25,22.05 -5.73333,1.266666 -12.7,3.249995 -20.9,5.95 -9.76667,3.23333 -17.25,6.28333 -22.45,9.15 l 4.65,6.75 6.05,8.1 c -5.76667,3.83334 -9.950006,6.85001 -12.55,9.05 l 9.2,10.3 -10.3,8.8 0.45,-4.5 c -2.53333,0.9 -4.03333,1.48334 -4.5,1.75 l 1.1,-3.45 -5.75,1.65 4.95,-4.2 c -3.133334,-1.93333 -7,-4.66667 -11.6,-8.2 L 82.05,96 69.5,81.4 53.75,63.75 C 85.01667,43.583332 111.43333,30.616665 133,24.85 132.86667,30.550001 132.78334,37.266666 132.75,45 z"
           id="path48087"
           inkscape:connector-curvature="0"
           style="fill:#ffe100;stroke-linecap:round;stroke-linejoin:round" />
        <path
           d="m 78,120.45 5.65,-2.2 0.6,0.05 0.1,0.45 -1.05,2.8 3.55,-1.6 c 0.566664,-0.2 0.85,-0.05 0.85,0.45 -0.03334,1.33334 -0.266666,2.91667 -0.7,4.75 l -1,0.75 0.5,-4.45 c -0.833336,0.2 -2.066666,0.65001 -3.7,1.35 -0.633336,0.23333 -0.86667,0.05 -0.7,-0.55 l 0.85,-2.55 c -2.7,0.83333 -4.749995,1.5 -6.15,2 l 1.2,-1.25 z"
           id="path48089"
           inkscape:connector-curvature="0"
           style="fill:#763a00;stroke-linecap:round;stroke-linejoin:round" />
        <path
           d="m 90.25,132.35 c -2.5,2.30001 -6.183334,4.95 -11.05,7.95 l -12.25,6.95 c 2.66666,-1.7 6.43333,-4.51666 11.3,-8.45 l 10.25,-8.8 1.75,2.35 z"
           id="path48091"
           inkscape:connector-curvature="0"
           style="fill:#542400;stroke-linecap:round;stroke-linejoin:round" />
        <path
           d="m 132.9,67.05 c -5.3,1.133334 -12.36667,3.18333 -21.2,6.15 -8.2,2.76667 -15.81667,5.6 -22.85,8.5 3.966666,-2.7 10.7,-6.266666 20.2,-10.7 10.43333,-4.86667 18.31666,-7.9 23.65,-9.1 l 0.2,5.15 z"
           id="path48093"
           inkscape:connector-curvature="0"
           style="fill:#f9be00;stroke-linecap:round;stroke-linejoin:round" />
        <path
           d="m 86.9,105.8 c 5.26667,-6.5 8.83334,-10.58333 10.7,-12.25 l 2.85,3.5 -13.55,8.75 z"
           id="path48095"
           inkscape:connector-curvature="0"
           style="fill:#f9be00;stroke-linecap:round;stroke-linejoin:round" />
        <path
           d="m 94.1,113.25 2.7,3.2 -4.3,3.45 -5.3,4.35 0.3,-2 c 3.1,-4.66666 5.299995,-7.66666 6.6,-9 z"
           id="path48097"
           inkscape:connector-curvature="0"
           style="fill:#f9be00;stroke-linecap:round;stroke-linejoin:round" />
        <path
           d="m 87.5,122.25 -0.3,2 -2,1.5 2.3,-3.5 z"
           id="path48099"
           inkscape:connector-curvature="0"
           style="fill:#542400;stroke-linecap:round;stroke-linejoin:round" />
        <path
           d="m 133.35,23.9 c 0.4,-0.1 0.56667,0.05 0.5,0.45 -0.23333,3.2 -0.31666,10.216666 -0.25,21.05 l 0.2,22.15 -0.35,0.45 c -7.16667,1.53333 -14.91667,3.71667 -23.25,6.55 -7.83334,2.7 -14.300006,5.33333 -19.4,7.9 2.133334,3.233334 5.633334,8.06667 10.5,14.5 0.2,0.233334 0.16667,0.43334 -0.1,0.6 -5.266666,3.46667 -9.35,6.33334 -12.25,8.6 l 8.9,10.15 c 0.2,0.2 0.18334,0.4 -0.05,0.6 l -6.6,5.45 c -2.3,1.9 -3.766666,3.18333 -4.4,3.85 l 4.15,6.15 -0.05,0.55 c -1.3,1.3 -4.2,3.4 -8.7,6.3 -4.766666,3.03334 -9.66667,5.88334 -14.7,8.55 l -0.9,0.1 c -0.1,-0.19999 0.08333,-0.43333 0.55,-0.7 12.033334,-7.46667 19.36667,-12.41666 22,-14.85 l -4.05,-5.95 c -0.13333,-0.2 -0.11666,-0.38333 0.05,-0.55 l 4.2,-4.05 6.25,-5.4 c -3.73333,-4.5 -6.666666,-7.81667 -8.8,-9.95 -0.233334,-0.23333 -0.21667,-0.43333 0.05,-0.6 4.03333,-3.23333 8.1,-6.2 12.2,-8.9 -4.233334,-5.66666 -7.7,-10.53333 -10.4,-14.6 -0.2,-0.26667 -0.15,-0.46667 0.15,-0.6 5.266666,-2.66667 11.8,-5.4 19.6,-8.2 8.63333,-3.13333 16.5,-5.46667 23.6,-7 -0.3,-4.533333 -0.43333,-11.483334 -0.4,-20.85 0.0333,-9.166666 0.18333,-15.683333 0.45,-19.55 -10.96666,3 -24.26667,8.45 -39.9,16.35 -14.6,7.366666 -26.833334,14.6 -36.7,21.7 4.533334,4.86666 13.716664,15.43333 27.55,31.7 0.166664,0.2 0.166664,0.38334 0,0.55 l -5.45,6.05 -5,5.7 c 5.93333,4.46667 9.616664,7.15 11.05,8.05 0.3,0.2 0.31667,0.43334 0.05,0.7 l -8.2,6.8 c 1.56667,1.56667 3.2,3.50001 4.9,5.8 0.16666,0.2 0.16666,0.38333 0,0.55 -1.2,1.43334 -3.766664,3.61667 -7.7,6.55 -3.86667,2.86666 -7.25,5.11666 -10.15,6.75 l -0.8,0.1 c -0.133334,-0.16667 -0.01667,-0.38333 0.35,-0.65 l 9.3,-6.95 c 3.6,-2.83332 5.966666,-4.89999 7.1,-6.2 -1.900005,-2.46667 -3.6,-4.35001 -5.1,-5.65 -0.23333,-0.23333 -0.21666,-0.45 0.05,-0.65 l 8.25,-6.75 c -3.23333,-2.13333 -6.966666,-4.76666 -11.2,-7.9 -0.23333,-0.2 -0.249995,-0.4 -0.05,-0.6 L 80.9,96.05 66.75,79.6 52.95,64.2 C 52.75,63.966663 52.766666,63.749996 53,63.55 63,56.15 75.95,48.5 91.85,40.6 c 16.33333,-8.133333 30.16667,-13.699998 41.5,-16.7 z"
           id="path48101"
           inkscape:connector-curvature="0"
           style="fill:#0d131a;stroke-linecap:round;stroke-linejoin:round" />
        <path
           d="m 6.6,4.2 c 1.766667,2.066667 3.733334,4.85 5.9,8.35 C 10.466666,13.683333 8.683332,16.3 7.15,20.4 5.85,23.866667 5.1,27.233334 4.9,30.5 3.3666666,25.9 2.1833332,19.916666 1.35,12.55 0.4833333,5.0166664 0.59999996,1.0999997 1.7,0.8 2.7666667,0.5 4.3999996,1.6333333 6.6,4.2 z"
           id="path48103"
           inkscape:connector-curvature="0"
           style="fill:#0d131a;stroke-linecap:round;stroke-linejoin:round" />
        <path
           d="m 75.95,19 c 6.366666,-5.666667 11.466664,-9.383333 15.3,-11.15 1.1,1.766667 1.549995,5.033333 1.35,9.8 -0.2,4.2 -0.766664,7.85 -1.7,10.95 -2.466666,2.633334 -5.4,5.233336 -8.8,7.8 -3.83334,2.933332 -7.1,4.883333 -9.8,5.85 3.1,2.5 5.58333,5.383335 7.45,8.65 1.23333,2.133333 2.316666,4.749998 3.25,7.85 1.6,5.033337 1.7,10.4 0.3,16.1 -1.233334,5 -3.18334,8.85 -5.85,11.55 -6.133334,5.73333 -14.066665,9.249994 -23.8,10.55 C 45.316666,98.083336 37.3,97.5 29.6,95.2 26.3,94.1 23.266666,92.11667 20.5,89.25 17.4,86.083336 15.233333,82.38334 14,78.15 12.8,74.083336 12.55,69.9 13.25,65.6 13.783334,62.2 14.866667,58.95 16.5,55.85 14.433332,53.516666 12.116666,49.466667 9.55,43.7 7.4166665,38.8 5.8999996,34.666664 5,31.3 5.1666665,26.4 6.133333,22.133333 7.9,18.5 c 1.333334,-2.733334 2.800001,-4.666667 4.4,-5.8 2.633333,3.766667 5.25,8.983334 7.85,15.65 2.733333,6.966666 4.283332,12.63333 4.65,17 4.766668,-4.366666 10.783336,-7.333334 18.05,-8.9 6.633334,-1.433334 12.45,-1.4 17.45,0.1 C 63.7,31.15 68.916664,25.3 75.95,19 z"
           id="path48105"
           inkscape:connector-curvature="0"
           style="fill:#ffe100;stroke-linecap:round;stroke-linejoin:round" />
        <path
           d="m 33.95,92.7 c 6.43333,-3.1 12.133332,-5.2 17.1,-6.3 4,-0.86667 9.316665,-1.28333 15.95,-1.25 6.53333,0 10.01666,0.416666 10.45,1.25 1.866666,3.56667 3.733334,8.6 5.6,15.1 2,7.06667 3.46667,14.04999 4.4,20.95 2.366666,17.86667 0.43333,29.13333 -5.8,33.8 -4.566664,3.46666 -12.549994,3.08333 -23.95,-1.15 -5,-1.8 -8.683334,-2.98333 -11.05,-3.55 -3.033335,-0.7 -6.150004,-0.98333 -9.35,-0.85 -3.233334,0.13333 -6.100001,-0.23334 -8.6,-1.1 -2.266668,-0.76667 -3.9,-1.78333 -4.9,-3.05 -2.266667,-2.93333 -3.116668,-7.88333 -2.55,-14.85 0.433332,-5.23333 1.5,-10.55 3.2,-15.95 l 2.85,-8.1 2.8,-7.55 c 0.366667,-0.9 1.116667,-2.4 2.25,-4.5 l 1.6,-2.9 z"
           id="path48107"
           inkscape:connector-curvature="0"
           style="fill:#ffe100;stroke-linecap:round;stroke-linejoin:round" />
        <path
           d="m 29.6,95.2 c 1.066668,-1.033336 2.51667,-1.86667 4.35,-2.5 1.066666,-0.366664 1.9,0.633336 2.5,3 0.633336,2.5 0.516667,5.09999 -0.35,7.8 -0.933332,2.86667 -2.716665,5.66667 -5.35,8.4 -2.6,2.73333 -4.7,4.01666 -6.3,3.85 -1.766668,0.0333 -3.500001,-0.23334 -5.2,-0.8 -1.5,-0.53334 -2.283333,-1.03334 -2.35,-1.5 0,-0.7 0.366666,-1.31667 1.1,-1.85 l -1.8,-3.3 c -0.6,-1.2 -0.866667,-1.90001 -0.8,-2.1 0.166667,-0.26667 0.816667,-0.35 1.95,-0.25 -0.03333,-1.96667 0.7,-2.55001 2.2,-1.75 0.06667,-1.56667 0.716666,-1.78334 1.95,-0.65 1,-1.59999 2.333334,-3.21666 4,-4.85 1.433332,-1.43333 2.8,-2.599994 4.1,-3.5 z"
           id="path48109"
           inkscape:connector-curvature="0"
           style="fill:#ffe100;stroke-linecap:round;stroke-linejoin:round" />
        <path
           d="m 92.6,17.9 c 0.16666,-3.966668 -0.283334,-7.316668 -1.35,-10.05 3.46667,-1.8 7.01667,-3.2833334 10.65,-4.45 4.5,-1.4333333 7.11667,-1.5999999 7.85,-0.5 0.93333,1.4 -1.16666,5.433334 -6.3,12.1 -4.73333,6.1 -9.03333,10.800001 -12.9,14.1 1.2,-3.7 1.883334,-7.433334 2.05,-11.2 z"
           id="path48111"
           inkscape:connector-curvature="0"
           style="fill:#0d131a;stroke-linecap:round;stroke-linejoin:round" />
        <path
           d="m 14.1,150.85 c -0.966667,-1.26667 -0.35,-2.80001 1.85,-4.6 1.766667,-1.46666 3.666667,-2.51666 5.7,-3.15 1.866666,4.43334 5.883333,6.95 12.05,7.55 -2.933334,1.46667 -6.416667,2.51667 -10.45,3.15 -4.066668,0.6 -6.45,0.43332 -7.15,-0.5 -1.366666,0.33333 -2.166667,0.15 -2.4,-0.55 -0.2,-0.56667 -0.06667,-1.2 0.4,-1.9 z"
           id="path48113"
           inkscape:connector-curvature="0"
           style="fill:#ffe100;stroke-linecap:round;stroke-linejoin:round" />
        <path
           d="m 78.6,165.6 c -2.86666,-2.13334 -4.8,-4.48335 -5.8,-7.05 2.7,0.1 5.16667,-0.36668 7.4,-1.4 2.099995,-0.96667 3.58333,-2.21667 4.45,-3.75 1.73333,2.86666 2.8,5.58334 3.2,8.15 0.4,2.63333 0,4.3 -1.2,5 -0.03333,0.96666 -0.48333,1.45 -1.35,1.45 -0.76667,-0.0333 -1.4,-0.35 -1.9,-0.95 -0.4,1.1 -2,0.61666 -4.8,-1.45 z"
           id="path48115"
           inkscape:connector-curvature="0"
           style="fill:#ffe100;stroke-linecap:round;stroke-linejoin:round" />
        <path
           d="m 44.25,79.8 -3.3,-1.85 3.4,-2.2 c 0.666666,-0.5 1.666666,-0.95 3,-1.35 l 2.8,-0.5 4.25,-0.45 c -0.1,0.966664 -0.46667,1.93333 -1.1,2.9 l -5.5,0.3 c -1.9,0.7 -3.083333,1.75 -3.55,3.15 z"
           id="path48117"
           inkscape:connector-curvature="0"
           style="fill:#b50005;stroke-linecap:round;stroke-linejoin:round" />
        <path
           d="m 44.2,79.75 c 0.66667,-1.299995 1.883336,-2.316666 3.65,-3.05 1.933333,-0.8 3.783335,-0.9 5.55,-0.3 -2.733332,3.6 -5.799998,4.71667 -9.2,3.35 z"
           id="path48119"
           inkscape:connector-curvature="0"
           style="fill:#e50012;stroke-linecap:round;stroke-linejoin:round" />
        <path
           d="m 17,112.75 c 0.533333,0.4 1.733334,0.61667 3.6,0.65 l 4.6,-0.5 -0.7,2.75 c -1.833334,0.0667 -3.650002,-0.21667 -5.45,-0.85 -1.9,-0.66666 -2.583333,-1.34999 -2.05,-2.05 z"
           id="path48121"
           inkscape:connector-curvature="0"
           style="fill:#f9be00;stroke-linecap:round;stroke-linejoin:round" />
        <path
           d="m 47.25,98.05 c -0.03333,-0.466664 1.11667,-0.88333 3.45,-1.25 l 3.6,0.2 c 0.03333,0.4 -0.41667,0.816666 -1.35,1.25 l -2.2,0.65 -2.15,-0.1 c -0.9,-0.16666 -1.35,-0.41666 -1.35,-0.75 z"
           id="path48123"
           inkscape:connector-curvature="0"
           style="fill:#f9be00;stroke-linecap:round;stroke-linejoin:round" />
        <path
           d="m 21.25,134.6 c 1.199999,8.9 6.099998,12.99999 14.7,12.3 4.333333,-0.36666 8.516667,-0.0667 12.55,0.9 3.466667,0.83333 7.65,2.38333 12.55,4.65 5.53333,2.6 10.999995,2.9 16.4,0.9 6.9,-2.53333 10.66667,-8.63334 11.3,-18.3 -0.06667,7.56667 -1.066666,13.11667 -3,16.65 -3.1,5.76667 -8.85,7.88334 -17.25,6.35 -2.799995,-0.5 -8.06666,-2.03334 -15.8,-4.6 -6.33333,-2.1 -10.483333,-3.03333 -12.45,-2.8 -6.2,0.73333 -11,-0.15 -14.4,-2.65 -3.766666,-2.76666 -5.299999,-7.23332 -4.6,-13.4 z"
           id="path48125"
           inkscape:connector-curvature="0"
           style="fill:#f9be00;stroke-linecap:round;stroke-linejoin:round" />
        <path
           d="m 26.6,153.1 c -3.1,-4.63334 -6.083334,-7.26667 -8.95,-7.9 0.166666,-0.23333 0.866666,-0.58333 2.1,-1.05 l 2.25,-0.8 c 0.666666,1.93334 2.316666,3.65 4.95,5.15 2.4,1.36667 4.633334,2.05 6.7,2.05 -2.099999,1.13333 -4.45,1.98334 -7.05,2.55 z"
           id="path48127"
           inkscape:connector-curvature="0"
           style="fill:#f9be00;stroke-linecap:round;stroke-linejoin:round" />
        <path
           d="m 80.4,159.2 c -1.9,1.23333 -3.16667,2.8 -3.8,4.7 l -2.05,-2.5 c -0.66666,-1 -1.13333,-1.95 -1.4,-2.85 4.86666,0.5 8.666666,-1.2 11.4,-5.1 1.1,1.7 1.766666,2.93333 2,3.7 -2.233334,0.13334 -4.28334,0.81667 -6.15,2.05 z"
           id="path48129"
           inkscape:connector-curvature="0"
           style="fill:#f9be00;stroke-linecap:round;stroke-linejoin:round" />
        <path
           d="m 21.2,66.1 c 0.8,-1.7 2.116666,-2.799997 3.95,-3.3 1.566667,-0.43333 3.066667,-0.166665 4.5,0.8 1.4,0.966666 2.35,2.36667 2.85,4.2 0.533333,1.766666 0.38333,3.366664 -0.45,4.8 -0.766667,1.333334 -1.95,2.25 -3.55,2.75 -1.6,0.466666 -3.183334,0.3 -4.75,-0.5 -1.533333,-0.8 -2.516666,-1.98333 -2.95,-3.55 -0.533334,-1.83333 -0.4,-3.56667 0.4,-5.2 z"
           id="path48131"
           inkscape:connector-curvature="0"
           style="fill:#0d131a;stroke-linecap:round;stroke-linejoin:round" />
        <path
           d="m 23.4,64.9 c 0.3,-0.7 0.783334,-1.16667 1.45,-1.4 l 2.25,0.1 c 0.7,0.33333 1.183333,0.85 1.45,1.55 0.266668,0.76667 0.266668,1.5 0,2.2 -0.3,0.73333 -0.85,1.25 -1.65,1.55 l -2.25,-0.1 c -0.7,-0.33333 -1.166666,-0.883336 -1.4,-1.65 -0.233334,-0.8 -0.183334,-1.55 0.15,-2.25 z"
           id="path48133"
           inkscape:connector-curvature="0"
           style="fill:#ffffff;stroke-linecap:round;stroke-linejoin:round" />
        <path
           d="m 57.2,54.85 c 0.8,-1.700002 2.05,-2.816667 3.75,-3.35 1.866666,-0.600002 3.68333,-0.4 5.45,0.6 1.83334,1 2.950006,2.516665 3.35,4.55 0.36667,1.700002 0.11667,3.333334 -0.75,4.9 -0.833336,1.56667 -2.03333,2.61667 -3.6,3.15 -1.83333,0.633336 -3.58333,0.51667 -5.25,-0.35 -1.6,-0.833334 -2.683333,-2.083334 -3.25,-3.75 -0.666666,-2.066667 -0.566668,-3.983335 0.3,-5.75 z"
           id="path48135"
           inkscape:connector-curvature="0"
           style="fill:#0d131a;stroke-linecap:round;stroke-linejoin:round" />
        <path
           d="m 59.05,53.9 c 0.266666,-0.766665 0.783332,-1.316664 1.55,-1.65 0.733332,-0.333332 1.483332,-0.333332 2.25,0 0.766665,0.3 1.299994,0.833332 1.6,1.6 0.26667,0.7 0.26667,1.433333 0,2.2 -0.266666,0.83333 -0.783332,1.38333 -1.55,1.65 -0.799998,0.3 -1.549998,0.3 -2.25,0 C 59.916668,57.4 59.4,56.883335 59.1,56.15 58.8,55.416668 58.783333,54.666668 59.05,53.9 z"
           id="path48137"
           inkscape:connector-curvature="0"
           style="fill:#ffffff;stroke-linecap:round;stroke-linejoin:round" />
        <path
           d="m 44.4,71 -0.5,-0.35 c -0.03334,-0.13334 0.316663,-0.3 1.05,-0.5 l 1.1,-0.2 -0.3,0.65 L 45.1,71.05 44.4,71 z"
           id="path48139"
           inkscape:connector-curvature="0"
           style="fill:#0d131a;stroke-linecap:round;stroke-linejoin:round" />
        <path
           d="m 73.35,64.4 c 1.66666,-0.933333 3.25,-1.1 4.75,-0.5 1.26667,0.5 2.100005,1.81667 2.5,3.95 0.43333,2.13334 0.26667,4.21667 -0.5,6.25 -0.83334,2.3 -2.13334,4.01667 -3.9,5.15 -1.766666,1.13333 -3.4,1.33333 -4.9,0.6 -1.5,-0.7 -2.483334,-2.05 -2.95,-4.05 -0.5,-2.099995 -0.25,-4.23333 0.75,-6.4 1.066664,-2.3 2.48333,-3.966666 4.25,-5 z"
           id="path48141"
           inkscape:connector-curvature="0"
           style="fill:#e50012;stroke-linecap:round;stroke-linejoin:round" />
        <path
           d="m 20.3,79 c 1.766668,0.76667 3.366668,2.06667 4.8,3.9 1.466666,1.86666 2.45,3.71666 2.95,5.55 0.5,1.93333 0.283332,3.233334 -0.65,3.9 -0.9,0.63334 -2.183333,0.45 -3.85,-0.55 -1.433333,-0.83333 -2.966666,-2.15 -4.6,-3.95 -1.433334,-1.63333 -2.433334,-3.31667 -3,-5.05 -0.566667,-1.76667 -0.483333,-3.01667 0.25,-3.75 0.9,-0.83333 2.266667,-0.85 4.1,-0.05 z"
           id="path48143"
           inkscape:connector-curvature="0"
           style="fill:#e50012;stroke-linecap:round;stroke-linejoin:round" />
        <path
           d="m 1.65,0.05 c 0.7999998,-0.20000002 1.9666666,0.43333335 3.5,1.9 4,3.8 7.883333,9.383334 11.65,16.75 4.466666,8.766667 7.3,17.516667 8.5,26.25 l -1,0.9 C 22.933332,37.083332 19.9,28.166666 15.2,19.1 11.633333,12.166666 8.049999,6.7166657 4.45,2.75 3.4166665,1.6833333 2.6666665,1.1666666 2.2,1.2 1.5999999,1.2666667 1.2833332,2.15 1.25,3.85 1.0833334,9.650001 2.266667,17.45 4.8,27.25 7.866667,39.11667 11.833334,48.466667 16.7,55.3 l -0.5,1.25 C 10.9,49.716667 6.649999,40.4 3.45,28.6 0.6500001,18.233334 -0.4666667,9.933333 0.1,3.7 0.26666668,1.5 0.7833333,0.2833333 1.65,0.05 z"
           id="path48145"
           inkscape:connector-curvature="0"
           style="fill:#0d131a;stroke-linecap:round;stroke-linejoin:round" />
        <path
           d="m 7.6,20.9 c -1.2,3.333334 -1.8666664,7.116666 -2,11.35 L 4.55,29.7 c 0.3,-4.033334 1.0999996,-7.583335 2.4,-10.65 1.266667,-3.033334 2.933334,-5.35 5,-6.95 l 0.75,1.05 c -2.166667,1.699999 -3.866667,4.283332 -5.1,7.75 z"
           id="path48147"
           inkscape:connector-curvature="0"
           style="fill:#0d131a;stroke-linecap:round;stroke-linejoin:round" />
        <path
           d="m 71.8,41.95 c 6.3,-2.666667 13.55,-8.25 21.75,-16.75 6.86666,-7.166667 11.81666,-13.400001 14.85,-18.7 0.96667,-1.666667 1.26667,-2.7500005 0.9,-3.25 l -3.75,-0.1 C 99.71667,4.2833333 93.166664,7.25 85.9,12.05 76.23334,18.416668 67.88334,26.633335 60.85,36.7 L 59.7,36.35 c 7.400006,-10.900001 15.85,-19.466669 25.35,-25.7 7.1,-4.666667 13.83333,-7.5333334 20.2,-8.6 2.86667,-0.5 4.58334,-0.3166668 5.15,0.55 0.5,0.8 0.18334,2.2833337 -0.95,4.45 -3.16667,5.933334 -8.23333,12.466666 -15.2,19.6 -7.86667,8.033334 -15,13.383333 -21.4,16.05 L 71.8,41.95 z"
           id="path48149"
           inkscape:connector-curvature="0"
           style="fill:#0d131a;stroke-linecap:round;stroke-linejoin:round" />
        <path
           d="m 93.35,15 c 0.13334,4.133335 -0.45,8.46667 -1.75,13 l -1.85,1.55 c 1.5,-4.700002 2.26667,-9.233334 2.3,-13.6 0,-3.633333 -0.4,-6.133333 -1.2,-7.5 l 1,-0.7 c 0.86667,1.5 1.36667,3.916667 1.5,7.25 z"
           id="path48151"
           inkscape:connector-curvature="0"
           style="fill:#0d131a;stroke-linecap:round;stroke-linejoin:round" />
        <path
           d="m 87.25,134.65 c -0.06667,-12 -2.63333,-26.08333 -7.7,-42.25 -0.233334,-0.76667 -0.233334,-1.2 0,-1.3 0.266666,-0.1 0.53333,0.233336 0.8,1 5.833334,16.16666 8.716666,30.63333 8.65,43.4 -0.1,12.90001 -3.23333,20.55 -9.4,22.95 -3.36666,1.3 -8.18333,1.25 -14.45,-0.15 -3.799998,-0.83333 -8.78333,-2.38333 -14.95,-4.65 -2.56667,-0.93334 -4.533336,-1.55001 -5.9,-1.85 l -6.2,-0.45 -7.85,-0.5 c -3,-0.66667 -5.466667,-2.08334 -7.4,-4.25 -2.466667,-2.69999 -3.083334,-8.51666 -1.85,-17.45 1.233334,-9.13334 4.050001,-18.60001 8.45,-28.4 0.3,-0.66666 0.583333,-0.95 0.85,-0.85 0.233333,0.1 0.2,0.48333 -0.1,1.15 -4.033334,9.86666 -6.633334,19.15 -7.8,27.85 -1.1,8.53333 -0.516667,14.06667 1.75,16.6 1.833334,2.06667 4.05,3.4 6.65,4 l 7.3,0.55 6.8,0.45 c 1.366666,0.26666 3.283334,0.88333 5.75,1.85 13.36666,5.06667 22.8,6.55001 28.3,4.45 5.633336,-2.13333 8.400006,-9.51666 8.3,-22.15 z"
           id="path48153"
           inkscape:connector-curvature="0"
           style="fill:#0d131a;stroke-linecap:round;stroke-linejoin:round" />
        <path
           d="m 20.5,104.45 c 2.4,-4.1 5.166666,-7.266666 8.3,-9.5 l 1.45,0.45 c -3.466667,2.4 -6.516666,5.53333 -9.15,9.4 -0.366666,0.56667 -0.65,0.8 -0.85,0.7 -0.199999,-0.13333 -0.116665,-0.48333 0.25,-1.05 z"
           id="path48155"
           inkscape:connector-curvature="0"
           style="fill:#0d131a;stroke-linecap:round;stroke-linejoin:round" />
        <path
           d="m 43.65,77 c -2.866667,2.066666 -5.083334,2.566666 -6.65,1.5 -0.3,-0.200005 -0.38333,-0.38334 -0.25,-0.55 l 0.7,-0.05 c 1.233334,0.46667 3.083333,-0.18333 5.55,-1.95 1.433334,-1.033336 2.683334,-1.71667 3.75,-2.05 1.066666,-0.36667 2.583332,-0.583334 4.55,-0.65 l 3.35,-0.5 c 0.9,-0.333336 1.466665,-0.9 1.7,-1.7 0.166666,-0.4 0.35,-0.56666 0.55,-0.5 0.200002,0.03334 0.266668,0.266666 0.2,0.7 -0.4,2.03333 -2.333334,3.11667 -5.8,3.25 l -4.2,0.6 c -1,0.333334 -2.15,0.966666 -3.45,1.9 z"
           id="path48157"
           inkscape:connector-curvature="0"
           style="fill:#0d131a;stroke-linecap:round;stroke-linejoin:round" />
        <path
           d="m 40.4,78.3 1.1,-0.75 c 2.666668,2.06667 5.133335,2.7 7.4,1.9 1.200002,-0.43333 2.25,-1.19999 3.15,-2.3 0.9,-1.1 1.51667,-2.333334 1.85,-3.7 l 1.35,-0.25 c -0.233334,1.56667 -0.933334,3.016675 -2.1,4.35 -1.1,1.266666 -2.4,2.18333 -3.9,2.75 l -4.3,0.25 C 43.38333,80.21667 41.866665,79.46667 40.4,78.3 z"
           id="path48159"
           inkscape:connector-curvature="0"
           style="fill:#0d131a;stroke-linecap:round;stroke-linejoin:round" />
        <path
           d="m 13.6,151.6 c -1.066666,-0.96667 -0.899999,-2.36668 0.5,-4.2 1.533333,-2 4.016667,-3.63334 7.45,-4.9 l 0.45,1.2 c -2.933332,1.16667 -5.116665,2.48333 -6.55,3.95 -1.233333,1.3 -1.6,2.26667 -1.1,2.9 l -0.75,1.05 z"
           id="path48161"
           inkscape:connector-curvature="0"
           style="fill:#0d131a;stroke-linecap:round;stroke-linejoin:round" />
        <path
           d="m 14.4,149.85 c 1.099999,-1.16667 2.316665,-2.03333 3.65,-2.6 0.466666,-0.23334 0.75,-0.23334 0.85,0 0.133333,0.2 -0.03333,0.43333 -0.5,0.7 -1.133334,0.66667 -2.116667,1.46667 -2.95,2.4 -0.9,0.96667 -1.25,1.7 -1.05,2.2 l 1.7,0.15 0.45,1.1 -2.05,0.2 c -0.8,-0.1 -1.283334,-0.38333 -1.45,-0.85 -0.333333,-0.9 0.116667,-1.99999 1.35,-3.3 z"
           id="path48163"
           inkscape:connector-curvature="0"
           style="fill:#0d131a;stroke-linecap:round;stroke-linejoin:round" />
        <path
           d="m 21.7,153.4 c 3.733332,-0.36666 7.483332,-1.33332 11.25,-2.9 l 2.05,0.3 c -3.699999,1.83333 -7.849998,3.06667 -12.45,3.7 -4.533334,0.59999 -6.983333,0.28333 -7.35,-0.95 -0.2,-0.63333 0.216667,-1.43333 1.25,-2.4 1.100001,-1.06667 2.383334,-1.78333 3.85,-2.15 0.466666,-0.1 0.733333,-0.05 0.8,0.15 0.06667,0.23333 -0.116666,0.43333 -0.55,0.6 -1.100001,0.43333 -2.05,0.98334 -2.85,1.65 -0.766668,0.66667 -1.100002,1.2 -1,1.6 0.133334,0.56667 1.8,0.7 5,0.4 z"
           id="path48165"
           inkscape:connector-curvature="0"
           style="fill:#0d131a;stroke-linecap:round;stroke-linejoin:round" />
        <path
           d="m 78,165.95 c -2.9,-2.16667 -4.86667,-4.65001 -5.9,-7.45 l 1.45,-0.1 c 0.900005,2.43333 2.56667,4.6 5,6.5 2.16667,1.69999 3.56667,2.36666 4.2,2 0.299995,-0.2 0.24999,-0.85 -0.15,-1.95 -0.36666,-1.1 -0.95,-2.29999 -1.75,-3.6 -0.23333,-0.33332 -0.249994,-0.56666 -0.05,-0.7 0.16667,-0.1 0.383334,1e-5 0.65,0.3 1.03333,1.23333 1.76667,2.63333 2.2,4.2 0.433336,1.63334 0.33334,2.61668 -0.3,2.95 -0.96667,0.5 -2.75,-0.21667 -5.35,-2.15 z"
           id="path48167"
           inkscape:connector-curvature="0"
           style="fill:#0d131a;stroke-linecap:round;stroke-linejoin:round" />
        <path
           d="m 86,165.25 c -0.166664,-1.33333 -0.649994,-2.98332 -1.45,-4.95 -0.2,-0.46666 -0.18334,-0.75 0.05,-0.85 0.2,-0.1 0.41667,0.0667 0.65,0.5 1.166664,2.2 1.78333,4.14999 1.85,5.85 0.03333,1.46666 -0.31667,2.35 -1.05,2.65 l -1.35,0.05 c -0.6,-0.13333 -1.133334,-0.45 -1.6,-0.95 l 0.5,-1.1 c 0.833334,0.83333 1.5,1.13333 2,0.9 0.4,-0.19999 0.53333,-0.89999 0.4,-2.1 z"
           id="path48169"
           inkscape:connector-curvature="0"
           style="fill:#0d131a;stroke-linecap:round;stroke-linejoin:round" />
        <path
           d="m 87.1,161.25 c -0.5,-2.40001 -1.48333,-4.85 -2.95,-7.35 l 0.9,-1.1 c 1.83334,3.03334 2.95001,6 3.35,8.9 0.4,3.16667 -0.25,5.11667 -1.95,5.85 l 0.15,-1.4 c 0.833334,-0.80001 1,-2.43334 0.5,-4.9 z"
           id="path48171"
           inkscape:connector-curvature="0"
           style="fill:#0d131a;stroke-linecap:round;stroke-linejoin:round" />
        <path
           d="m 47.65,76.2 c 1.933332,-0.766666 3.883333,-0.883334 5.85,-0.35 l -0.45,0.9 c -1.466668,-0.46667 -3.083333,-0.36667 -4.85,0.3 -1.766666,0.66667 -2.933334,1.616664 -3.5,2.85 l -1,-0.3 c 0.7,-1.5 2.016667,-2.63333 3.95,-3.4 z"
           id="path48173"
           inkscape:connector-curvature="0"
           style="fill:#0d131a;stroke-linecap:round;stroke-linejoin:round" />
        <path
           d="m 12.5,65.45 c 0.8,-4.5 2.5,-8.599998 5.1,-12.3 0.366667,-0.533335 0.666666,-0.733336 0.9,-0.6 0.233334,0.166667 0.183334,0.516666 -0.15,1.05 -2.266666,3.866667 -3.699999,7.866667 -4.3,12 -0.6,4.16666 -0.333334,8.299994 0.8,12.4 1.233334,4.46667 3.450001,8.23334 6.65,11.3 3.166666,3 7.083332,5.150005 11.75,6.45 0.899998,0.26667 1.316666,0.51667 1.25,0.75 l -1.45,0.15 C 28.25,95.71667 24.033333,93.6 20.4,90.3 16.766666,87 14.316667,83.049995 13.05,78.45 11.883333,74.25 11.7,69.916664 12.5,65.45 z"
           id="path48175"
           inkscape:connector-curvature="0"
           style="fill:#0d131a;stroke-linecap:round;stroke-linejoin:round" />
        <path
           d="m 37.1,37.4 c 4.433333,-1.5 8.85,-2.299998 13.25,-2.4 4.5,-0.133335 8.53333,0.466663 12.1,1.8 0.6,0.233333 0.866666,0.466666 0.8,0.7 l -1.05,0.1 c -7.733333,-2.133333 -15.933334,-1.7 -24.6,1.3 -5.5,1.866666 -10.133335,4.566667 -13.9,8.1 -0.466666,0.433334 -0.783334,0.56667 -0.95,0.4 -0.199999,-0.2 -0.08333,-0.53333 0.35,-1 3.533333,-4 8.2,-7 14,-9 z"
           id="path48177"
           inkscape:connector-curvature="0"
           style="fill:#0d131a;stroke-linecap:round;stroke-linejoin:round" />
        <path
           d="m 78.2,47.2 c 2.16666,2.733334 3.833325,5.766667 5,9.1 1.633336,4.633334 2.1,9.7 1.4,15.2 -0.8,6.23333 -2.999994,11.23333 -6.6,15 -0.433334,0.46667 -0.73334,0.61667 -0.9,0.45 -0.2,-0.16667 -0.11666,-0.5 0.25,-1 3.13334,-4.1 5.03334,-9.033336 5.7,-14.8 0.6,-5.2 0.116664,-9.983336 -1.45,-14.35 -2.3,-6.566666 -6.1,-11.716668 -11.4,-15.45 -0.56667,-0.4 -0.766666,-0.7 -0.6,-0.9 0.13334,-0.2 0.500006,-0.133334 1.1,0.2 2.8,1.633333 5.3,3.816667 7.5,6.55 z"
           id="path48179"
           inkscape:connector-curvature="0"
           style="fill:#0d131a;stroke-linecap:round;stroke-linejoin:round" />
        <path
           d="m 20.75,102.55 0.9,0.55 -0.6,0.75 c -0.4,-0.3 -0.683333,-0.41667 -0.85,-0.35 l -0.2,0.6 -0.3,0.65 -0.75,-0.2 -0.75,-0.15 c -0.233333,0.1 -0.366666,0.43334 -0.4,1 l -0.2,0.95 -0.9,0 -0.75,0.15 c -0.133333,0.20001 0.25,1.08334 1.15,2.65 l 1.4,2.45 -0.55,0.7 c -0.399999,0.40001 -0.583333,0.73334 -0.55,1 0.06667,0.40001 1.016668,0.81667 2.85,1.25 l 4.3,0.45 -0.25,1.2 c -1.433333,0.13334 -3.116666,-0.13333 -5.05,-0.8 -1.933332,-0.63334 -2.966665,-1.26667 -3.1,-1.9 -0.1,-0.6 0.299999,-1.25 1.2,-1.95 -1.9,-3.16666 -2.733333,-5.03333 -2.5,-5.6 0.1,-0.23333 0.4,-0.38333 0.9,-0.45 l 1.25,0.1 c -0.06667,-0.43334 -0.03334,-0.86667 0.1,-1.3 0.1,-0.43333 0.266667,-0.71666 0.5,-0.85 l 0.75,-0.1 c 0.333334,0.0667 0.616667,0.18333 0.85,0.35 0.06667,-0.76667 0.3,-1.2 0.7,-1.3 l 0.85,0.15 z"
           id="path48181"
           inkscape:connector-curvature="0"
           style="fill:#0d131a;stroke-linecap:round;stroke-linejoin:round" />
        <path
           d="m 94.05,98.6 c -3.5,4.43333 -7.78333,7.53333 -12.85,9.3 -3.5,1.2 -7.41667,-0.25 -11.75,-4.35 -4.366664,-4.133336 -5.499995,-7.66667 -3.4,-10.6 2.133334,-2.96667 5.033336,-5.900005 8.7,-8.8 4.26667,-3.4 8.28334,-5.61667 12.05,-6.65 1.366664,-2.166664 2.249995,-3.299995 2.65,-3.4 l 1.45,0.3 c 0.7,0.33334 1.31667,0.91667 1.85,1.75 1.76667,0.23333 3.25,1.05 4.45,2.45 1.26667,1.43333 1.95,3.2 2.05,5.3 0.200005,5.13333 -1.533325,10.033334 -5.2,14.7 z"
           id="path48183"
           inkscape:connector-curvature="0"
           style="fill:#ffe100;stroke-linecap:round;stroke-linejoin:round" />
        <path
           d="m 93.55,95.85 c 3.7,-5.56667 5.41667,-10.416666 5.15,-14.55 1.86667,5.033336 0.56667,10.55 -3.9,16.55 -4.2,5.7 -8.750005,8.88334 -13.65,9.55 4.533334,-2.1 8.666666,-5.94999 12.4,-11.55 z"
           id="path48185"
           inkscape:connector-curvature="0"
           style="fill:#f9be00;stroke-linecap:round;stroke-linejoin:round" />
        <path
           d="m 91.25,74.1 c 0.73333,0.333334 1.35,0.9 1.85,1.7 4.2,0.5 6.500006,3.41667 6.9,8.75 0.33334,4.46667 -1.149994,8.98333 -4.45,13.55 -3.599995,4.9 -8.25,8.25 -13.95,10.05 l -1.05,-0.1 c -0.09999,-0.26667 0.150005,-0.51667 0.75,-0.75 5.16667,-1.96666 9.45,-5.23333 12.85,-9.8 3.3,-4.433334 4.81666,-8.700005 4.55,-12.8 C 98.36666,80.23333 96.49999,77.6 93.1,76.8 92.666664,76.76667 92.38333,76.600006 92.25,76.3 92.01667,75.86667 91.600006,75.51667 91,75.25 L 89.45,75 c -0.3,0.1 -0.7,0.566666 -1.2,1.4 -0.5,0.9 -0.9,1.4 -1.2,1.5 -3.9,1.533334 -7.33333,3.35 -10.3,5.45 -3.46667,2.466666 -6.8,5.61667 -10,9.45 -0.4,0.46667 -0.71667,0.61667 -0.95,0.45 -0.2,-0.166664 -0.116666,-0.51666 0.25,-1.05 3.5,-4.533336 7.18334,-8.1 11.05,-10.7 2.76667,-1.86667 5.850005,-3.35 9.25,-4.45 l 1.25,-1.6 c 0.6,-0.96667 1.15,-1.5 1.65,-1.6 0.63333,-0.166666 1.299995,-0.08333 2,0.25 z"
           id="path48187"
           inkscape:connector-curvature="0"
           style="fill:#0d131a;stroke-linecap:round;stroke-linejoin:round" />
        <path
           d="M 89.5,77.6 90.1,77.05 91,76.9 c 0.166664,0.1 0.08333,0.33333 -0.25,0.7 -0.36667,0.43333 -0.55,0.716666 -0.55,0.85 0,0.233334 0.09999,0.500005 0.3,0.8 l 0.3,0.6 -0.4,0.55 c -0.26667,0.3 -0.4,0.63333 -0.4,1 0,0.433336 0.13333,0.85 0.4,1.25 l 0.4,0.75 -0.25,0.6 c -0.2,0.333336 -0.28334,0.63334 -0.25,0.9 0.03334,0.26667 0.23333,0.60001 0.6,1 l 0.6,0.75 -0.25,0.75 c -0.13333,0.4 -0.166664,0.76667 -0.1,1.1 l 0.8,0.7 1.35,0.45 c 0.43333,0.03333 0.65,0.166666 0.65,0.4 l -0.55,0.4 -1.85,-0.3 c -0.733334,-0.3 -1.18334,-0.7 -1.35,-1.2 -0.1,-0.266666 -0.116664,-0.616664 -0.05,-1.05 0.06667,-0.466666 0.21667,-0.833334 0.45,-1.1 l -0.85,-0.7 c -0.26667,-0.33334 -0.41667,-0.66667 -0.45,-1 -0.133336,-0.6 0.09999,-1.166666 0.7,-1.7 -0.63333,-0.53333 -1,-1.15 -1.1,-1.85 -0.06666,-0.733334 0.26667,-1.35 1,-1.85 -0.43333,-0.33334 -0.65,-0.783336 -0.65,-1.35 -0.03333,-0.23333 0.05,-0.48333 0.25,-0.75 z"
           id="path48189"
           inkscape:connector-curvature="0"
           style="fill:#0d131a;stroke-linecap:round;stroke-linejoin:round" />
        <path
           d="m 12.5,65.45 c 0.8,-4.5 2.5,-8.599998 5.1,-12.3 0.366667,-0.533335 0.666666,-0.733336 0.9,-0.6 0.233334,0.166667 0.183334,0.516666 -0.15,1.05 -2.266666,3.866667 -3.699999,7.866667 -4.3,12 -0.6,4.16666 -0.333334,8.299994 0.8,12.4 1.233334,4.46667 3.450001,8.23334 6.65,11.3 3.166666,3 7.083332,5.150005 11.75,6.45 0.899998,0.26667 1.316666,0.51667 1.25,0.75 l -1.45,0.15 C 28.25,95.71667 24.033333,93.6 20.4,90.3 16.766666,87 14.316667,83.049995 13.05,78.45 11.883333,74.25 11.7,69.916664 12.5,65.45 z"
           id="path48191"
           inkscape:connector-curvature="0"
           style="fill:#0d131a;stroke-linecap:round;stroke-linejoin:round" />
      </g>
    </g>
  </g>
</svg>
