<?xml version="1.0" encoding="UTF-8" standalone="no"?>
<!-- Generator: Adobe Illustrator 23.0.3, SVG Export Plug-In . SVG Version: 6.00 Build 0)  -->

<svg
   xmlns:dc="http://purl.org/dc/elements/1.1/"
   xmlns:cc="http://creativecommons.org/ns#"
   xmlns:rdf="http://www.w3.org/1999/02/22-rdf-syntax-ns#"
   xmlns:svg="http://www.w3.org/2000/svg"
   xmlns="http://www.w3.org/2000/svg"
   xmlns:sodipodi="http://sodipodi.sourceforge.net/DTD/sodipodi-0.dtd"
   xmlns:inkscape="http://www.inkscape.org/namespaces/inkscape"
   version="1.1"
   id="Слой_2"
   x="0px"
   y="0px"
   viewBox="0 0 183.5491 283.79001"
   xml:space="preserve"
   sodipodi:docname="pinkpanther.svg"
   width="183.5491"
   height="283.79001"
   inkscape:version="0.92.4 (5da689c313, 2019-01-14)"><metadata
   id="metadata63"><rdf:RDF><cc:Work
       rdf:about=""><dc:format>image/svg+xml</dc:format><dc:type
         rdf:resource="http://purl.org/dc/dcmitype/StillImage" /><dc:title></dc:title></cc:Work></rdf:RDF></metadata><defs
   id="defs61" /><sodipodi:namedview
   pagecolor="#ffffff"
   bordercolor="#666666"
   borderopacity="1"
   objecttolerance="10"
   gridtolerance="10"
   guidetolerance="10"
   inkscape:pageopacity="0"
   inkscape:pageshadow="2"
   inkscape:window-width="1366"
   inkscape:window-height="715"
   id="namedview59"
   showgrid="false"
   fit-margin-top="0"
   fit-margin-left="0"
   fit-margin-right="0"
   fit-margin-bottom="0"
   inkscape:zoom="0.78666667"
   inkscape:cx="95.666408"
   inkscape:cy="142.09"
   inkscape:window-x="-8"
   inkscape:window-y="22"
   inkscape:window-maximized="1"
   inkscape:current-layer="Слой_2" />
<style
   type="text/css"
   id="style2">
	.st0{fill:#13020C;}
	.st1{fill:#FFFFFF;}
	.st2{fill:#FFCDFE;}
	.st3{fill:#FE8BD0;}
	.st4{fill:#F4050A;}
	.st5{fill:#FE8BD0;stroke:#000000;stroke-linecap:round;stroke-miterlimit:10;}
	.st6{fill:#FEC51C;stroke:#000000;stroke-linecap:round;stroke-miterlimit:10;}
</style>
<g
   id="g8"
   transform="translate(-54.333592,-8.3)">
	<path
   class="st0"
   d="m 145.23,292.09 c -3.05,0 -6.22,-0.98 -9.42,-2.92 -4.11,-2.49 -6.81,-5.03 -9.6,-8.08 -5.58,-6.1 -8.95,-9.77 -12.98,-15.43 -2.38,-3.34 -4.46,-6.6 -5.79,-8.77 -0.83,-1.16 -1.63,-2.62 -2.58,-4.35 -4.21,-7.66 -5.5,-11.23 -7.3,-16.16 -1.66,-4.56 -3.72,-10.24 -9.15,-22.13 -1.5,-3.28 -3,-6.5 -4.48,-9.63 -4.27,-9.11 -8.31,-17.72 -10.96,-25.53 -0.64,-1.88 -1.11,-3.48 -1.53,-4.89 -0.83,-2.79 -1.49,-5 -3.09,-8.57 l -0.37,-0.82 c -1.18,-2.63 -2.12,-4.71 -2.62,-7.84 -0.66,-4.12 -0.31,-7.93 0.97,-11.24 L 66,145.46 c -2.05,-1.5 -4.37,-3.21 -6.41,-5.54 -2.75,-3.14 -4.33,-6.73 -4.56,-10.39 -0.38,-6.02 3.02,-12.02 8.66,-15.28 1.11,-0.64 2.31,-1.17 3.6,-1.58 -4.42,-2.84 -8.04,-6.89 -10.3,-11.69 -3.57,-7.58 -3.54,-16.61 0.08,-24.16 1.67,-3.49 4.34,-6.37 7.66,-8.33 0.79,-1.4 1.91,-2.89 3.49,-4.24 0.27,-0.23 0.54,-0.45 0.82,-0.65 -0.61,-2.43 -0.86,-5.29 -0.33,-8.46 0.33,-1.95 0.91,-3.69 1.62,-5.23 C 65.88,47.44 62.31,43.33 60.65,38.5 58.35,31.81 59.79,23.98 64.32,18.55 66.34,16.13 69,14.06 72.45,12.23 77.3,9.66 82.36,8.3 87.08,8.3 c 1.27,0 2.53,0.1 3.75,0.29 5.43,0.85 10.24,3.66 13.41,7.63 1.63,-0.21 3.17,-0.31 4.59,-0.39 0.48,-0.03 0.97,-0.04 1.46,-0.04 3.31,0 6.01,0.76 8.25,2.31 2.35,1.63 3.47,4.54 2.82,7.33 l -0.23,0.99 c 1.32,0.96 2.56,2.07 3.66,3.29 0.87,0.96 1.65,1.96 2.36,2.96 0.56,-0.04 1.13,-0.06 1.72,-0.06 0.19,0 0.37,0 0.55,0.01 0.04,-0.05 0.07,-0.11 0.11,-0.16 1.07,-1.56 2.4,-3.5 4.36,-5.18 1.78,-1.53 3.76,-2.55 5.62,-3.31 0.55,-1.75 1.27,-3.62 2.27,-5.58 1.2,-2.33 3.61,-3.8 6.22,-3.8 0.06,0 0.13,0 0.19,0 8.12,0.22 14.52,1.82 19.57,4.88 3.59,2.17 6.14,4.62 7.8,7.48 1.77,3.05 2.38,6.27 2.58,9.2 2.03,0.54 4.05,1.12 6.05,1.75 0.01,-0.09 0.02,-0.18 0.02,-0.27 0.34,-3.7 1.11,-6.64 2.42,-9.25 2.69,-5.33 7.96,-9.38 14.11,-10.84 1.77,-0.42 3.63,-0.63 5.5,-0.63 3.62,0 7.38,0.8 10.87,2.31 8.13,3.52 14.22,10.71 15.87,18.77 1.92,9.35 -2.46,19.32 -10.42,23.7 -3.7,2.04 -7.55,2.69 -11.07,3.13 -0.12,4.43 -0.41,9.7 -0.64,11.41 -0.88,6.47 -4.12,10.93 -5.68,13.07 -2.68,3.68 -5.94,5.95 -11.35,9.7 -3.68,2.56 -9.85,6.52 -18.33,10.9 -0.18,0.09 -0.35,0.18 -0.52,0.27 -0.02,0.69 -0.04,1.42 -0.06,2.19 -0.11,5.04 -0.07,8.52 -0.03,11.88 0.02,1.75 0.04,3.43 0.04,5.23 0,0.54 0,1.09 -0.01,1.63 1.41,-0.4 3,-0.67 4.72,-0.67 0.33,0 0.66,0.01 1,0.03 2.7,0.16 5.02,0.97 7.15,1.77 10.62,4.02 20.88,9.12 30.5,15.16 0.95,0.6 1.9,1.21 2.85,1.82 1.71,1.1 3.32,2.13 4.96,3.11 2.72,1.62 5.26,2.97 7.54,4.03 2.48,1.15 4.06,3.63 4.06,6.35 v 28.05 c 0,2.68 -1.53,5.12 -3.93,6.29 -0.97,0.48 -2.02,0.71 -3.07,0.71 -1.53,0 -3.06,-0.5 -4.31,-1.48 -5.29,-4.13 -10.99,-7.62 -16.88,-10.35 0.83,2.67 1.7,5.33 2.62,7.94 2.01,5.7 3.74,10.62 6.95,17.07 3.17,6.36 6.24,11.33 8.26,14.38 0.39,0.53 1.19,1.63 4.72,7.02 1.45,2.22 2.95,4.51 4.55,6.78 1.51,2.14 1.7,4.93 0.5,7.26 -1.2,2.32 -3.6,3.78 -6.21,3.78 h -68.5 c 0.35,8.56 -0.26,17.14 -1.83,25.58 -0.47,2.52 -1.1,5.45 -2.66,8.32 -2.08,3.83 -5.44,6.6 -9.23,7.6 -1.09,0.29 -2.26,0.44 -3.44,0.44 z M 195.54,43.76 Z"
   id="path4"
   inkscape:connector-curvature="0"
   style="fill:#13020c" />
	
</g>
<g
   id="g14"
   transform="translate(-54.333592,-8.3)">
	<path
   class="st0"
   d="m 145.23,287.09 c -2.12,0 -4.42,-0.74 -6.82,-2.2 -3.66,-2.22 -5.97,-4.39 -8.51,-7.19 -3,-3.3 -7.54,-8.29 -12.73,-15.38 -2.07,-2.83 -3.81,-5.39 -5.46,-8.06 -0.52,-0.7 -1.24,-1.93 -2.46,-4.14 -4.02,-7.33 -5.2,-10.56 -6.98,-15.46 -1.6,-4.4 -3.79,-10.43 -9.3,-22.5 -1.5,-3.3 -3.02,-6.53 -4.5,-9.68 -4.21,-8.98 -8.19,-17.46 -10.75,-25.01 -0.61,-1.79 -1.05,-3.27 -1.48,-4.71 -0.85,-2.85 -1.58,-5.31 -3.31,-9.18 l -0.37,-0.83 c -1.11,-2.47 -1.84,-4.11 -2.24,-6.58 -0.76,-4.79 0.12,-8.84 2.55,-11.87 l -3.91,-2.87 c -1.93,-1.42 -3.93,-2.88 -5.61,-4.8 -2.02,-2.3 -3.17,-4.86 -3.33,-7.41 -0.26,-4.14 2.16,-8.32 6.17,-10.63 2.21,-1.28 4.97,-1.95 8.21,-2.01 -0.36,-1.97 -0.27,-3.92 0.29,-5.79 -5.74,-2.06 -10.57,-6.4 -13.18,-11.94 -2.94,-6.23 -2.91,-13.66 0.07,-19.87 1.44,-3 3.88,-5.4 6.92,-6.84 0.52,-1.25 1.41,-2.77 2.96,-4.08 1.25,-1.06 2.57,-1.7 3.78,-2.06 -1.19,-2.32 -2.31,-5.8 -1.6,-10.01 0.68,-3.99 2.7,-6.82 4.49,-8.63 -0.08,-0.02 -0.17,-0.03 -0.25,-0.05 -0.34,-0.06 -0.68,-0.13 -1.01,-0.2 -5.24,-1.14 -9.75,-5.16 -11.49,-10.23 -1.74,-5.07 -0.65,-11.01 2.78,-15.13 1.59,-1.91 3.76,-3.58 6.63,-5.11 4.13,-2.19 8.38,-3.35 12.29,-3.35 1.01,0 2.01,0.08 2.98,0.23 5.22,0.81 9.66,3.93 11.79,8.16 2.56,-0.55 5.06,-0.75 7.24,-0.87 0.39,-0.02 0.79,-0.03 1.2,-0.03 1.44,0 3.56,0.15 5.39,1.42 0.67,0.47 0.99,1.3 0.81,2.09 l -0.3,1.29 c -0.26,1.07 -0.52,2.16 -0.72,3.24 2.01,0.95 3.99,2.43 5.61,4.23 1.42,1.58 2.6,3.31 3.7,5.04 1.27,-0.33 2.62,-0.49 4.1,-0.49 1.15,0 2.29,0.1 3.34,0.22 0.1,-0.18 0.19,-0.37 0.29,-0.55 0.31,-0.59 0.65,-1.27 1.16,-2 0.95,-1.39 2.03,-2.96 3.49,-4.21 1.95,-1.67 4.29,-2.57 6.48,-3.28 0.55,-2.2 1.29,-4.57 2.6,-7.11 0.34,-0.67 1.03,-1.08 1.78,-1.08 0.02,0 0.04,0 0.06,0 7.23,0.2 12.83,1.56 17.11,4.16 2.89,1.75 4.82,3.57 6.07,5.71 1.85,3.19 2.01,6.9 1.99,10.08 0.22,0.21 0.39,0.41 0.52,0.57 0.03,0.04 0.06,0.07 0.09,0.11 5.18,1.24 10.33,2.8 15.32,4.66 -0.18,-2.25 -0.17,-4.54 0.04,-6.79 0.28,-3.06 0.89,-5.42 1.91,-7.46 2.03,-4.03 6.07,-7.1 10.79,-8.22 1.4,-0.33 2.86,-0.5 4.35,-0.5 2.94,0 6.01,0.66 8.89,1.9 6.66,2.88 11.63,8.7 12.96,15.19 1.49,7.26 -1.85,14.96 -7.94,18.32 -3.39,1.87 -7.15,2.3 -10.78,2.72 l -0.99,0.12 c -0.94,0.11 -1.49,0.26 -1.64,0.45 -0.17,0.23 -0.18,1.04 -0.19,1.35 -0.05,4.72 -0.42,11.9 -0.65,13.6 -0.71,5.23 -3.35,8.85 -4.77,10.8 -2.18,3 -5.02,4.97 -10.16,8.54 -5.03,3.49 -11.34,7.24 -17.77,10.56 -1.19,0.62 -2.25,1.15 -3.12,1.57 -0.05,1.38 -0.11,3.16 -0.16,5.21 -0.11,5.13 -0.07,8.65 -0.03,12.05 0.02,1.73 0.04,3.39 0.04,5.16 -0.01,3.34 -0.09,6.75 -0.26,10.18 0.38,-0.32 0.78,-0.63 1.19,-0.92 l 0.15,-0.11 c 1.33,-0.95 4.46,-3.18 8.63,-3.18 0.23,0 0.46,0.01 0.7,0.02 2.01,0.12 3.83,0.76 5.69,1.46 10.31,3.9 20.27,8.85 29.6,14.72 0.94,0.59 1.87,1.19 2.8,1.79 1.67,1.07 3.39,2.18 5.11,3.2 2.87,1.71 5.56,3.14 8,4.27 0.71,0.33 1.16,1.04 1.16,1.82 v 28.05 c 0,0.76 -0.44,1.46 -1.12,1.8 -0.28,0.14 -0.58,0.2 -0.88,0.2 -0.44,0 -0.87,-0.14 -1.23,-0.42 -8.43,-6.59 -17.88,-11.64 -27.52,-14.74 1.58,6.07 3.41,12.09 5.47,17.92 1.98,5.61 3.85,10.91 7.19,17.63 2.6,5.22 5.56,10.38 8.58,14.91 l 0.12,0.17 c 0.33,0.46 1.11,1.53 4.58,6.82 1.47,2.25 3,4.58 4.65,6.93 0.43,0.61 0.49,1.41 0.14,2.07 -0.34,0.66 -1.03,1.08 -1.78,1.08 h -73.84 c 0.88,9.91 0.41,19.88 -1.41,29.67 -0.4,2.15 -0.93,4.62 -2.14,6.86 -1.42,2.62 -3.65,4.5 -6.11,5.15 -0.71,0.19 -1.45,0.29 -2.2,0.29 z"
   id="path10"
   inkscape:connector-curvature="0"
   style="fill:#13020c" />
	<path
   d="m 87.08,15.3 c 0.89,0 1.79,0.07 2.67,0.2 4.8,0.75 9.38,3.92 10.91,8.54 2.78,-0.79 5.64,-1.07 8.53,-1.22 0.36,-0.02 0.72,-0.03 1.09,-0.03 1.51,0 3.03,0.21 4.25,1.06 -0.47,2.05 -1.03,4.15 -1.31,6.24 2.37,0.77 4.69,2.46 6.35,4.31 1.67,1.85 3,3.97 4.32,6.08 1.63,-0.64 3.28,-0.87 4.97,-0.87 1.44,0 2.9,0.16 4.38,0.37 0.87,-1.26 1.19,-2.31 2.06,-3.57 0.94,-1.37 1.89,-2.75 3.15,-3.83 1.93,-1.66 4.43,-2.47 6.86,-3.24 0.65,-2.8 1.38,-5.2 2.7,-7.76 5.53,0.15 11.4,1 16.13,3.87 2.12,1.28 4.13,2.87 5.38,5.01 1.75,3.01 1.76,6.69 1.71,10.18 0.94,0.21 1.04,1.25 1.97,1.47 5.49,1.3 10.9,2.97 16.17,4.97 0.11,0.2 0.33,0.29 0.58,0.29 0.39,0 0.84,-0.21 1.04,-0.52 0.32,-0.5 0.26,-1.14 0.21,-1.73 -0.21,-2.28 -0.21,-4.58 0,-6.86 0.21,-2.32 0.66,-4.66 1.71,-6.74 1.84,-3.65 5.49,-6.23 9.47,-7.18 1.28,-0.3 2.58,-0.44 3.89,-0.44 2.77,0 5.55,0.63 8.09,1.74 5.76,2.49 10.53,7.61 11.79,13.76 1.26,6.15 -1.45,13.14 -6.94,16.17 -3.33,1.84 -7.26,2.15 -11.04,2.6 -1.1,0.13 -2.31,0.34 -2.98,1.21 -0.55,0.7 -0.6,1.66 -0.61,2.55 -0.05,4.7 -0.42,11.76 -0.63,13.35 -0.64,4.73 -3.06,8.04 -4.4,9.9 -1.94,2.67 -4.55,4.51 -9.68,8.07 -1.91,1.33 -8.1,5.55 -17.54,10.42 -1.73,0.89 -3.17,1.6 -4.16,2.08 -0.06,1.47 -0.15,3.71 -0.21,6.44 -0.18,7.81 0.01,12.05 0,17.25 -0.01,3.79 -0.12,9.27 -0.62,16 0.98,-1.62 2.47,-3.52 4.71,-5.1 1.11,-0.78 3.93,-2.92 7.63,-2.92 0.19,0 0.38,0.01 0.58,0.02 1.76,0.11 3.45,0.71 5.1,1.33 10.2,3.86 20.01,8.74 29.24,14.54 2.66,1.67 5.26,3.42 7.96,5.02 2.63,1.56 5.4,3.08 8.18,4.37 v 28.05 c -9.33,-7.29 -20.12,-12.96 -31.54,-16.07 2.12,8.72 4.43,15.98 6.37,21.5 2.03,5.76 3.89,11.04 7.29,17.86 0.9,1.8 4.11,8.22 8.7,15.13 0.27,0.41 0.45,0.51 4.69,6.98 1.51,2.31 3.02,4.62 4.69,6.98 -25.35,0 -50.7,0 -76.05,0 1.14,10.42 0.75,21 -1.17,31.3 -0.4,2.16 -0.88,4.34 -1.93,6.27 -1.05,1.93 -2.74,3.61 -4.86,4.17 -0.56,0.15 -1.12,0.21 -1.68,0.21 -2.01,0 -4.03,-0.84 -5.79,-1.91 -3.27,-1.98 -5.46,-3.96 -8.07,-6.82 -3.28,-3.6 -7.58,-8.35 -12.6,-15.21 -2.02,-2.76 -3.73,-5.28 -5.41,-7.99 0,0 -1.25,-1.95 -2.37,-3.99 -7.68,-13.99 -4.81,-12.84 -16.21,-37.83 -5.8,-12.71 -11.77,-24.45 -15.17,-34.5 -1.79,-5.3 -2.2,-8.11 -4.86,-14.07 -1.29,-2.9 -2.07,-4.45 -2.46,-6.91 -0.72,-4.52 0.11,-8.87 3.61,-11.81 -1.92,-1.41 -3.84,-2.82 -5.77,-4.23 -1.87,-1.37 -3.76,-2.76 -5.29,-4.5 -1.53,-1.75 -2.69,-3.9 -2.84,-6.22 -0.23,-3.57 2.08,-6.99 5.17,-8.78 2.24,-1.3 4.97,-1.74 7.66,-1.74 0.78,0 1.56,0.04 2.33,0.1 0.15,0.15 0.34,0.25 0.48,0.25 0.1,0 0.18,-0.05 0.21,-0.19 -0.23,-0.02 -0.46,-0.05 -0.69,-0.07 -0.08,-0.08 -0.15,-0.18 -0.19,-0.28 -1.15,-3.01 -1.11,-6.03 0.37,-8.89 C 71.28,108 65.98,103.65 63.31,98 60.64,92.34 60.67,85.49 63.37,79.85 c 1.36,-2.84 3.78,-5.04 6.7,-6.21 0.25,-0.8 0.93,-2.57 2.67,-4.05 2.3,-1.95 4.9,-2.08 5.74,-2.08 0.03,0 0.05,0 0.08,0 -0.53,-0.65 -4,-5.05 -2.96,-11.19 1.02,-6.05 5.63,-9.06 6.35,-9.51 -1.2,-1.17 -3.03,-1.29 -4.67,-1.65 -4.57,-1 -8.5,-4.5 -10.02,-8.92 -1.52,-4.42 -0.57,-9.61 2.43,-13.2 1.63,-1.96 3.78,-3.43 6.03,-4.62 3.51,-1.86 7.43,-3.12 11.36,-3.12 m 0,-4 c -4.23,0 -8.8,1.24 -13.22,3.58 -3.1,1.65 -5.47,3.48 -7.23,5.59 -3.87,4.64 -5.1,11.34 -3.14,17.06 1.75,5.1 5.99,9.25 11.07,11 -1.28,1.85 -2.4,4.21 -2.89,7.11 -0.62,3.65 -0.01,6.82 0.91,9.27 -0.81,0.41 -1.62,0.94 -2.42,1.62 -1.55,1.32 -2.55,2.81 -3.19,4.14 -3.15,1.66 -5.67,4.25 -7.2,7.45 -3.24,6.75 -3.26,14.82 -0.07,21.59 2.58,5.48 7.16,9.87 12.66,12.3 -0.14,0.89 -0.2,1.79 -0.17,2.7 -2.67,0.28 -5.01,1 -7,2.14 -4.66,2.69 -7.48,7.6 -7.17,12.49 0.19,2.99 1.51,5.97 3.82,8.6 1.83,2.08 4.01,3.68 5.93,5.09 l 2.36,1.73 c -1.87,3.23 -2.51,7.25 -1.79,11.71 0.44,2.74 1.26,4.56 2.39,7.08 l 0.37,0.83 c 1.67,3.75 2.39,6.15 3.22,8.94 0.43,1.46 0.88,2.96 1.5,4.78 2.59,7.66 6.6,16.19 10.83,25.22 1.47,3.13 2.99,6.38 4.49,9.66 5.47,12 7.56,17.74 9.24,22.35 1.75,4.81 3.01,8.28 7.11,15.74 1.11,2.02 2.33,3.95 2.49,4.2 1.69,2.73 3.46,5.35 5.57,8.23 5.25,7.17 9.83,12.21 12.86,15.54 2.59,2.84 5.1,5.21 8.95,7.55 2.72,1.65 5.37,2.49 7.86,2.49 0.93,0 1.84,-0.12 2.71,-0.35 2.99,-0.79 5.68,-3.02 7.36,-6.13 1.35,-2.49 1.92,-5.15 2.35,-7.44 1.72,-9.25 2.26,-18.66 1.61,-28.03 h 71.68 c 1.49,0 2.86,-0.83 3.55,-2.16 0.69,-1.33 0.58,-2.93 -0.28,-4.15 -1.63,-2.31 -3.14,-4.62 -4.61,-6.87 -3.49,-5.34 -4.29,-6.43 -4.63,-6.9 l -0.08,-0.11 c -2.97,-4.47 -5.89,-9.56 -8.45,-14.7 -3.29,-6.6 -5.05,-11.61 -7.09,-17.41 -1.63,-4.62 -3.11,-9.35 -4.44,-14.13 8.19,3.06 16.16,7.55 23.38,13.18 0.72,0.56 1.59,0.85 2.46,0.85 0.6,0 1.2,-0.13 1.75,-0.4 1.37,-0.67 2.25,-2.07 2.25,-3.6 V 162.7 c 0,-1.56 -0.91,-2.98 -2.32,-3.63 -2.38,-1.1 -5.01,-2.5 -7.81,-4.17 -1.69,-1.01 -3.4,-2.11 -5.06,-3.17 -0.94,-0.6 -1.87,-1.2 -2.81,-1.79 -9.44,-5.94 -19.52,-10.95 -29.96,-14.9 -1.92,-0.73 -3.99,-1.45 -6.27,-1.59 -0.28,-0.02 -0.55,-0.02 -0.82,-0.02 -3.27,0 -5.98,1.19 -7.82,2.26 0.06,-2.09 0.1,-4.17 0.1,-6.23 0,-1.78 -0.02,-3.43 -0.04,-5.17 -0.04,-3.39 -0.08,-6.9 0.03,-12 0.03,-1.33 0.07,-2.67 0.11,-4 0.7,-0.35 1.39,-0.7 2.09,-1.06 8.33,-4.3 14.38,-8.19 17.99,-10.69 5.15,-3.58 8.26,-5.73 10.64,-9.01 1.52,-2.09 4.35,-5.98 5.13,-11.71 0.26,-1.94 0.62,-9.16 0.67,-13.67 0.02,0 0.04,0 0.06,-0.01 l 0.98,-0.11 c 3.65,-0.42 7.79,-0.9 11.52,-2.96 6.84,-3.77 10.59,-12.38 8.93,-20.47 -1.46,-7.12 -6.87,-13.49 -14.12,-16.62 -3.12,-1.35 -6.47,-2.07 -9.68,-2.07 -1.65,0 -3.27,0.19 -4.81,0.55 -5.29,1.25 -9.83,4.72 -12.12,9.27 -1.14,2.26 -1.81,4.86 -2.12,8.17 -0.12,1.36 -0.18,2.72 -0.17,4.09 -3.88,-1.34 -7.83,-2.51 -11.81,-3.49 -0.04,-3.11 -0.37,-6.79 -2.26,-10.04 -1.42,-2.44 -3.57,-4.48 -6.76,-6.42 -4.59,-2.78 -10.51,-4.24 -18.09,-4.45 -0.04,0 -0.07,0 -0.11,0 -1.49,0 -2.87,0.83 -3.56,2.17 -1.19,2.31 -1.93,4.47 -2.49,6.48 -2.03,0.72 -4.23,1.69 -6.12,3.31 -1.66,1.43 -2.82,3.11 -3.84,4.6 -0.39,0.57 -0.69,1.08 -0.94,1.56 -0.71,-0.06 -1.45,-0.1 -2.2,-0.1 -1.11,0 -2.16,0.08 -3.17,0.25 -0.93,-1.41 -1.95,-2.81 -3.14,-4.14 -1.41,-1.57 -3.08,-2.92 -4.83,-3.95 0.13,-0.56 0.26,-1.13 0.4,-1.71 0.1,-0.44 0.21,-0.87 0.31,-1.31 0.37,-1.59 -0.27,-3.25 -1.61,-4.19 -1.72,-1.2 -3.86,-1.78 -6.54,-1.78 -0.4,0 -0.83,0.01 -1.3,0.04 -1.85,0.1 -3.94,0.25 -6.11,0.63 -2.62,-4.11 -7.21,-7.07 -12.5,-7.9 -1.09,-0.17 -2.2,-0.25 -3.31,-0.25 z"
   id="path12"
   inkscape:connector-curvature="0" />
</g>
<g
   id="g20"
   transform="translate(-54.333592,-8.3)">
	<path
   class="st2"
   d="m 88.83,43.57 c -3.65,0 -7.46,-2 -9.71,-5.1 -1.86,-2.56 -2.39,-5.48 -1.5,-8.24 1.05,-3.23 4.24,-5.4 7.94,-5.4 1.38,0 2.72,0.31 3.9,0.91 2.71,1.37 4.72,3.97 6.14,7.94 0.14,0.4 0.16,0.83 0.04,1.24 -0.51,1.76 -0.9,3.59 -1.14,5.46 -0.08,0.61 -0.43,1.15 -0.96,1.46 -0.86,0.51 -1.73,0.99 -2.57,1.42 -0.18,0.09 -0.37,0.15 -0.57,0.19 -0.51,0.07 -1.04,0.12 -1.57,0.12 z"
   id="path16"
   inkscape:connector-curvature="0"
   style="fill:#ffcdfe" />
	<path
   d="m 85.56,26.83 c 1.04,0 2.07,0.23 2.99,0.69 2.66,1.35 4.18,4.08 5.16,6.83 -0.55,1.89 -0.95,3.81 -1.2,5.76 -0.8,0.48 -1.62,0.93 -2.45,1.35 -0.41,0.07 -0.83,0.1 -1.24,0.1 -5.32,0 -11.06,-5.3 -9.3,-10.72 0.85,-2.58 3.45,-4.01 6.04,-4.01 m 0,-4 c -4.57,0 -8.53,2.73 -9.84,6.78 -1.08,3.33 -0.43,6.98 1.78,10.03 2.61,3.6 7.06,5.92 11.33,5.92 0.64,0 1.28,-0.05 1.9,-0.16 0.4,-0.07 0.78,-0.19 1.14,-0.37 0.89,-0.45 1.79,-0.94 2.7,-1.48 1.05,-0.63 1.76,-1.7 1.92,-2.92 0.23,-1.76 0.59,-3.49 1.07,-5.15 0.24,-0.81 0.21,-1.68 -0.07,-2.47 -1.61,-4.48 -3.93,-7.44 -7.12,-9.05 -1.46,-0.74 -3.12,-1.13 -4.81,-1.13 z"
   id="path18"
   inkscape:connector-curvature="0" />
</g>
<path
   class="st3"
   d="m 35.426408,7.2 c -4.8,-0.75 -9.73,0.64 -14.02,2.91 -2.25,1.19 -4.4,2.66 -6.03,4.62 -2.99,3.59 -3.95,8.78 -2.43,13.2 0.78,2.26 2.19,4.28 4,5.85 3.2,1.41 6.68,2.13 10.21,1.89 2.14,-0.14 4.13,-0.65 6.04,-1.38 -2.4,-0.25 -4.83,-1.41 -6.47,-2.85 -2.72,-2.39 -4.12,-6.51 -2.66,-9.95 1.57,-3.71 6.25,-5.34 9.95,-4.07 2.9,0.99 5.05,3.45 6.17,6.27 1.25,-3.34 3.09,-6.56 5.85,-8.78 -1.78,-4.16 -6.1,-7.01 -10.61,-7.71 z"
   id="path22"
   inkscape:connector-curvature="0"
   style="fill:#fe8bd0" />
<path
   class="st4"
   d="m 51.316408,61.05 c -4.58,-1.35 -8.82,-0.86 -10.36,-0.79 -4.82,0.23 -9.61,-0.1 -14.41,0.17 -0.51,0 -1.2,0.04 -2,0.17 -0.57,0.1 -2.06,0.36 -3.48,1.14 -0.51,0.28 -2.88,1.59 -3.59,3.74 -1.17,3.57 2.85,7.61 3.35,8.11 1.08,1.08 1.36,1.17 8.62,6.01 0.21,0.14 0.43,0.29 0.64,0.44 1.16,0.76 3.21,1.82 5.63,1.54 1.22,-0.14 2.26,-0.59 3.27,-1.04 1.49,-0.65 2.64,-1.4 3.43,-1.97 0.66,-0.48 1.67,-1.19 2.91,-2.03 1.37,-0.93 2.43,-1.61 2.75,-1.82 1.98,-1.27 4.5,-2.8 6.51,-4.49 0.31,-0.26 0.91,-0.77 1.34,-1.65 0.12,-0.23 0.43,-0.92 0.48,-1.87 0,0 0.07,-1.39 -0.64,-2.7 -0.93,-1.73 -2.9,-2.5 -4.45,-2.96 z"
   id="path24"
   inkscape:connector-curvature="0"
   style="fill:#f4050a" />
<path
   class="st2"
   d="m 14.646408,96.94 c 0.63,0.4 1.28,0.76 1.97,1.06 3.48,1.47 7.63,1.51 11.24,0.51 3.47,-0.96 5.82,-2.81 7.47,-5.9 0.16,-3.1 -0.26,-6.09 -2.67,-8.5 -2.68,-2.69 -6.26,-4.29 -9.39,-6.37 -4.07,-2.7 -7.69,-7.47 -7.85,-12.27 -2.79,1.2 -5.08,3.33 -6.3900002,6.07 -2.7,5.64 -2.73,12.49 -0.06,18.15 1.3300002,2.81 3.3000002,5.28 5.6800002,7.25 z"
   id="path26"
   inkscape:connector-curvature="0"
   style="fill:#ffcdfe" />
<path
   class="st2"
   d="m 24.426408,103.46 c -0.91,3.92 0.15,8.16 2.28,11.57 2.73,4.35 8.07,7.76 13.09,4.95 3.82,-2.13 6.68,-5.91 10.22,-8.49 2.32,-1.69 5.06,-3.41 7.91,-4.42 -1.41,-0.12 -2.83,-0.35 -4.26,-0.67 -2.23,-0.49 -4.53,-1.07 -6.77,-1.78 -0.33,0.02 -0.67,0.04 -1.02,0.07 -1.51,0.13 -2.79,0.55 -4.16,1.14 -1.7,0.73 -3.34,1.21 -5.18,0.67 -2.86,-0.86 -4.41,-3.44 -3.42,-5.99 -2.74,0.24 -6.24,1.17 -8.69,2.95 z"
   id="path28"
   inkscape:connector-curvature="0"
   style="fill:#ffcdfe" />
<path
   class="st3"
   d="m 17.766408,143.54 c 0.67,-1.63 1.64,-3.17 2.73,-4.62 3.23,-4.26 7.48,-7.85 11.51,-11.32 1.38,-1.19 2.78,-2.39 4.2,-3.59 -1.47,0.52 -3.05,0.61 -4.59,0.07 -3,-1.06 -5.2,-3.67 -7.35,-5.88 -2.94,-3.02 -6.05,-5.39 -10.48,-4.41 -1.71,0.38 -3.41,1.15 -4.9100002,2.2 -0.84,1.46 -1.3,3.11 -1.2,4.8 0.15,2.32 1.31,4.47 2.8400002,6.22 1.53,1.75 3.42,3.13 5.29,4.5 1.92,1.41 3.84,2.82 5.77,4.23 -2.45,2.05 -3.59,4.79 -3.81,7.8 z"
   id="path30"
   inkscape:connector-curvature="0"
   style="fill:#fe8bd0" />
<path
   class="st3"
   d="m 38.406408,41.93 c -0.55,0.28 -1.11,0.55 -1.66,0.84 -0.53,0.27 -1.02,-0.53 -0.49,-0.8 0.62,-0.32 1.25,-0.63 1.87,-0.94 -0.47,-1.69 -0.63,-3.48 -0.44,-5.28 -4.45,1.29 -8.73,2.89 -12.26,6.04 -1.63,1.45 -3.19,3.31 -3.98,5.4 -0.06,0.27 -0.13,0.54 -0.17,0.83 -0.86,5.11 1.39,9.01 2.48,10.55 0.67,-0.11 1.38,-0.2 2.13,-0.27 0.36,-0.03 0.71,-0.06 1.06,-0.08 4.13,-2.62 9.29,-5.41 15.49,-7.77 0.77,-0.29 1.53,-0.57 2.29,-0.83 -3.01,-1.77 -5.21,-4.53 -6.32,-7.69 z"
   id="path32"
   inkscape:connector-curvature="0"
   style="fill:#fe8bd0" />
<path
   class="st5"
   d="m 98.166408,35.43 c 5.260002,0.6 10.640002,2.14 15.300002,4.81 0.2,-1.57 0.26,-3.18 0.2,-4.77 -0.11,-0.08 -0.2,-0.19 -0.25,-0.33 -2.42,-7.71 -8.94,-13.31 -17.070002,-13.96 -5.27,-0.42 -9.83,1.34 -13.58,4.51 -0.64,0.77 -1.22,1.59 -1.79,2.42 -0.1,0.15 -0.18,0.29 -0.27,0.43 -1.22,3.03 -1.82,6.45 -1.79,9.83 6.33,-2.48 12.33,-3.73 19.25,-2.94 z"
   id="path34"
   inkscape:connector-curvature="0"
   style="fill:#fe8bd0;stroke:#000000;stroke-linecap:round;stroke-miterlimit:10" />
<path
   class="st6"
   d="m 111.58641,40.28 c -0.08,1.59 -0.5,3.12 -1.48,4.39 -1.48,1.91 -4.21,2.53 -6.49,2.02 -4.270002,-0.95 -5.710002,-6.59 -3.53,-10.05 -1.080002,-0.17 -2.160002,-0.32 -3.230002,-0.41 -6.42,-0.55 -12.05,0.8 -17.91,3.13 0.42,8.66 5.15,16.76 14.92,16.95 5.74,0.11 11.900002,-2.41 15.700002,-6.77 2.07,-2.37 3.21,-5.26 3.74,-8.33 -0.56,-0.32 -1.14,-0.63 -1.72,-0.93 z"
   id="path36"
   inkscape:connector-curvature="0"
   style="fill:#fec51c;stroke:#000000;stroke-linecap:round;stroke-miterlimit:10" />
<path
   class="st3"
   d="m 171.89641,227.85 c -0.63,-0.99 -2.13,-3.42 -4.39,-6.56 -0.16,-0.22 -0.23,-0.31 -0.3,-0.42 -4.59,-6.91 -7.8,-13.32 -8.7,-15.13 -3.4,-6.82 -5.25,-12.1 -7.29,-17.86 -1.88,-5.34 -4.1,-12.3 -6.15,-20.63 -1.24,-0.8 -2.48,-1.61 -3.77,-2.26 -2.58,-1.3 -5.3,-2.25 -7.89,-3.52 -0.15,-0.04 -0.3,-0.08 -0.45,-0.11 -0.81,-0.19 -0.68,-1.54 0.17,-1.48 9.77,0.64 19.23,4.81 27.8,9.29 5.01,2.62 10.45,5.4 15.45,8.69 V 154.4 c -2.78,-1.28 -5.55,-2.8 -8.18,-4.37 -2.7,-1.6 -5.3,-3.35 -7.96,-5.02 -9.23,-5.8 -19.05,-10.68 -29.24,-14.54 -1.65,-0.62 -3.34,-1.23 -5.1,-1.33 -3.99,-0.24 -7.05,2.08 -8.21,2.91 -2.23,1.58 -3.73,3.48 -4.71,5.1 0.5,-6.74 0.62,-12.21 0.62,-16 0.01,-5.2 -0.18,-9.44 0,-17.25 0.06,-2.73 0.15,-4.97 0.21,-6.44 0.99,-0.48 2.43,-1.19 4.16,-2.08 9.44,-4.87 15.63,-9.1 17.54,-10.42 5.13,-3.57 7.74,-5.4 9.68,-8.07 1.35,-1.85 3.76,-5.17 4.4,-9.9 0.22,-1.59 0.59,-8.65 0.63,-13.35 0.01,-0.89 0.06,-1.85 0.61,-2.55 0.68,-0.87 1.89,-1.08 2.98,-1.21 3.78,-0.45 7.71,-0.76 11.04,-2.6 5.5,-3.03 8.21,-10.02 6.94,-16.17 -1.26,-6.15 -6.03,-11.26 -11.79,-13.76 -3.75,-1.62 -8.01,-2.23 -11.99,-1.29 -3.98,0.94 -7.63,3.52 -9.47,7.18 -1.05,2.08 -1.49,4.42 -1.71,6.74 -0.21,2.28 -0.21,4.58 0,6.86 0.06,0.59 0.11,1.23 -0.21,1.73 -0.32,0.5 -1.34,0.75 -1.62,0.23 -5.28,-2 -10.68,-3.67 -16.17,-4.97 -0.19,-0.05 -0.34,-0.13 -0.48,-0.23 -0.89,-0.16 -1.79,-0.31 -2.67,-0.5 -0.16,0.28 -0.33,0.56 -0.52,0.8 -0.17,0.49 -0.36,0.96 -0.61,1.38 0.07,1.84 -0.01,3.68 -0.27,5.48 0.91,0.56 1.79,1.15 2.63,1.8 0.47,0.37 -0.18,1.04 -0.65,0.67 -0.69,-0.54 -1.4,-1.04 -2.14,-1.51 -0.42,2.2 -1.15,4.32 -2.31,6.26 -4.88,8.17 -17.740002,12.15 -26.040002,7.05 -5.18,-3.18 -7.62,-9.11 -7.92,-15.29 -0.41,-0.03 -0.54,-0.73 -0.06,-0.93 0.01,-0.01 0.03,-0.01 0.04,-0.02 -0.03,-2.41 0.25,-4.84 0.82,-7.14 -2.89,-0.4 -5.69,-0.59 -8.42,0.29 1.11,4.37 0.6,9.55 -1.5,12.98 1.7,-0.04 2.97,0.13 3.79,0.29 0.31,0.06 0.57,0.12 0.73,0.35 0.12,0.17 0.45,0.79 -1.25,3.33 -0.81,1.22 -1.22,1.82 -2.15,2.74 -0.95,0.94 -2.81,3.52 -6.51,8.69 -1.02,1.42 -2.24,3.16 -3.6,5.16 1.5,-0.48 3.35,-0.34 4.75,-0.12 3.45,0.55 6.37,2.41 8.5,5.17 2.98,3.87 4.59,8.96 4.81,14.14 2.49,1.08 5.88,0.35 8.17,-0.87 3.94,-2.11 6.76,-6.62 7.18,-11.09 -4.28,0.23 -8.64,-3.71 -8.46,-8.07 0.03,-0.7 0.99,-0.86 1.22,-0.19 1.6,4.84 8.02,6.14 12.45,5.83 5.760002,-0.41 10.060002,-3.5 13.570002,-7.91 0.53,-0.67 1.43,0.16 1.12,0.83 -1.8,3.9 -5.28,6.78 -9.1,8.62 -1.66,0.79 -3.36,1.36 -5.160002,1.69 -1.23,0.23 -1.72,0.08 -2.29,0.82 -0.61,0.79 -0.91,1.98 -1.34,2.89 -2.99,6.34 -10.35,12.69 -17.79,13.61 -0.89,4.83 -3.07,9.33 -6.67,12.5 -1.46,1.29 -3.02,2.19 -4.66,2.8 4.48,1.12 7.5,5.22 7.08,10.6 -0.33,4.18 -2.36,8.22 -4.74,11.6 -1.1,1.57 -2.33,3.09 -3.77,4.36 -1.51,1.34 -3.28,2.34 -4.9,3.53 1.1,-0.08 2.15,-0.2 3.21,-0.17 3.34,-1.32 6.02,-4.27 8.17,-7.05 2.91,-3.76 5.38,-7.98 7.5,-12.23 2.41,-4.82 4.57,-9.88 7.63,-14.34 0,0 0.01,0.01 0.01,0.01 0.1,-0.15 0.21,-0.3 0.31,-0.45 0.09,-0.14 0.18,-0.27 0.27,-0.41 0.05,-0.07 0.14,-0.21 0.26,-0.37 2.93,-3.94 7.17,-6.57 11.42,-8.91 0.48,-0.26 0.87,0.23 0.72,0.63 0.03,0.13 0,0.28 -0.13,0.38 -3.93,3.1 -7,7 -9.6,11.23 3.17,4.26 4.93,9.53 6.19,14.64 1.69,6.85 3.27,14.42 2.95,21.49 -0.01,0.33 -0.26,0.64 -0.62,0.64 -6.05,-0.06 -9.22,4.98 -10.8,10.21 -1.41,4.65 -1.88,9.55 -2.11,14.38 -0.42,8.72 -0.22,13.09 -0.21,20.96 0,14.25 0,21.38 -0.6,27.5 -0.55,5.54 -1.32,10.46 0.35,17.08 1,3.95 2.5,7.04 3.65,9.09 0.04,0.1 0.07,0.22 0.1,0.35 0.04,0.18 0.06,0.34 0.07,0.48 -0.14,0.13 -0.32,0.24 -0.53,0.24 -0.19,0 -0.33,-0.11 -0.38,-0.15 -13.21,-9.88 -14.7,-11.54 -14.7,-11.54 -4.76,-5.29 -8.02,-8.91 -12.05,-14.74 -6.33,-9.17 -6.49,-11.96 -5.74,-13.76 1.07,-2.57 3.67,-3.89 5.92,-5.48 2.29,-2.62 4.72,-5.81 3.99,-9.46 -0.59,-2.98 -2.8,-5.04 -4.96,-6.97 -3.28,-2.93 -7.46,-6.22 -7.37,-11.06 0.01,-0.5 0.78,-0.83 1.03,-0.3 2.66,5.69 6.3,12.62 13.79,10.94 7.43,-1.66 8.26,-10.47 6.35,-16.62 -1.93,-6.21 -6.36,-10.29 -13.04,-9.89 -5.38,0.32 -10.73,2.62 -15.16,5.6 -0.37,0.25 -0.83,-0.31 -0.49,-0.62 3.35,-3.03 7.11,-4.49 11.42,-5.59 2.29,-0.58 4.53,-1.02 6.87,-1.27 3.46,-0.36 4.2,-2.78 3.16,-5.74 -1.9,-5.39 -6.88,-5.75 -11.85,-4.94 -5.03,0.82 -10.05,2.05 -14.71,4.15 -0.13,0.05 -0.25,0.11 -0.38,0.17 l 0.05,-0.01 c -0.59,0.12 -1.06,-0.72 -0.45,-1 6.62,-3.06 13.23,-6.41 18.72,-11.28 2.37,-2.1 4.52,-4.47 6.15,-7.18 1.64,-2.72 3.46,-6.44 2.68,-9.7 -1.96,-8.12 -12.88,-2 -16.79,0.41 -7.02,4.32 -13.47,9.69 -19.65,15.13 -4.68,4.12 -11.09,9.39 -12.51,15.9 0.04,0.32 0.08,0.64 0.13,0.97 0.39,2.46 1.17,4.02 2.46,6.91 2.66,5.96 3.06,8.77 4.86,14.07 3.41,10.06 9.37,21.79 15.17,34.5 4.92,10.78 12.04,30.26 16.21,37.83 1.39,2.52 2.89,4.95 2.89,4.95 1.03,1.67 2.69,4.24 5.11,7.56 4.5,6.15 8.33,10.31 12.37,14.69 2.91,3.15 5,4.96 8.07,6.82 2.25,1.36 4.93,2.36 7.47,1.69 2.12,-0.56 3.82,-2.24 4.86,-4.17 1.05,-1.93 1.53,-4.11 1.93,-6.27 1.870002,-10.04 2.280002,-20.35 1.240002,-30.51 -3.970002,-10.08 -5.810002,-21.28 -7.490002,-31.89 -1.45,-9.16 -2.15,-18.38 -1.49,-27.65 0.66,-9.25 3.98,-26.61 16.090002,-27.35 9.02,-0.55 14.35,11.3 17.27,18.03 5.17,11.92 7.97,24.67 12.44,36.84 3,8.17 6.74,16.31 12.44,22.98 2.67,3.12 5.76,5.79 9.04,8.25 h 17.69 c -2.13,-3.06 -3.66,-5.4 -4.68,-7 z m -24.58,-198.72 c 1.47,-2.78 4.35,-4.46 7.46,-3.19 3.28,1.35 4.7,5.36 2.88,8.41 -2.4,4.02 -7.43,5.91 -11.04,8.55 -0.32,0.23 -0.76,-0.07 -0.77,-0.42 -0.02,-0.68 0,-1.25 0.1,-1.85 -0.38,-3.85 -0.48,-8.03 1.37,-11.5 z"
   id="path38"
   inkscape:connector-curvature="0"
   style="fill:#fe8bd0" />
<path
   class="st5"
   d="m 52.196408,36.29 c 3.15,-0.36 6.36,-0.38 9.51,-0.01 2.8,0.33 5.43,1.21 8.14,1.94 0.18,-2.21 -0.02,-4.52 -0.63,-6.59 -1.21,-1.93 -2.45,-3.85 -3.97,-5.53 -1.6,-1.77 -3.8,-3.39 -6.06,-4.2 -1.68,0.25 -3.37,0.48 -4.98,1.02 -2.36,0.79 -4.69,1.84 -6.78,3.19 -4.77,3.05 -8.09,7.3 -8.53,13.05 0.05,0.18 -0.02,0.32 -0.14,0.4 0.06,0.36 0.16,0.7 0.25,1.05 4.19,-2.05 8.46,-3.79 13.19,-4.32 z"
   id="path40"
   inkscape:connector-curvature="0"
   style="fill:#fe8bd0;stroke:#000000;stroke-linecap:round;stroke-miterlimit:10" />
<path
   class="st6"
   d="m 67.286408,38.48 c 0.14,1.79 -0.11,3.54 -1.27,5.08 -0.6,0.79 -1.37,1.38 -2.24,1.77 1.33,-0.14 2.62,-0.26 3.82,-0.34 1.13,-1.55 1.84,-3.61 2.14,-5.84 -0.82,-0.21 -1.63,-0.45 -2.45,-0.67 z"
   id="path42"
   inkscape:connector-curvature="0"
   style="fill:#fec51c;stroke:#000000;stroke-linecap:round;stroke-miterlimit:10" />
<path
   class="st6"
   d="m 54.696408,37.02 c -0.55,0.03 -1.11,0.07 -1.66,0.12 -4.96,0.47 -9.39,2.24 -13.77,4.37 1.09,3.26 3.38,6.09 6.62,7.71 5.17,-1.72 10.01,-2.78 14.35,-3.43 -4.28,-0.63 -5.95,-4.84 -5.54,-8.77 z"
   id="path44"
   inkscape:connector-curvature="0"
   style="fill:#fec51c;stroke:#000000;stroke-linecap:round;stroke-miterlimit:10" />
<g
   id="g48"
   transform="translate(-54.333592,-8.3)">
	<path
   class="st2"
   d="m 201.21,49.83 c 2.52,-1.65 5.12,-3.41 7.28,-5.47 1.24,-1.18 2.62,-2.66 2.7,-4.48 0.09,-1.94 -1.35,-3.83 -3.2,-4.34 -6.23,-1.73 -6.62,7.66 -6.9,12.69 0.03,0.05 0.07,0.09 0.07,0.15 0.04,0.49 0.05,0.97 0.05,1.45 z"
   id="path46"
   inkscape:connector-curvature="0"
   style="fill:#ffcdfe" />
</g>
<path
   class="st2"
   d="m 148.92641,229.49 c -4.78,-5.26 -8.32,-11.49 -11.17,-17.96 -5.15,-11.72 -7.98,-24.25 -12.23,-36.29 -2.59,-7.33 -6.91,-21.66 -15.67,-23.8 -6.74,-1.64 -11.660002,6.81 -13.430002,12.04 -2.17,6.42 -2.53,13.35 -2.56,20.08 -0.08,17.63 4.5,34.36 8.670002,51.28 h 52.09 c -2.02,-1.67 -3.95,-3.42 -5.7,-5.35 z"
   id="path50"
   inkscape:connector-curvature="0"
   style="fill:#ffcdfe" />
<path
   class="st1"
   d="m 70.506408,140.04 c 2.45,3.05 2.55,7.19 1.22,10.72 5.39,2.79 7.78,10.2 8.16,15.85 0.24,3.54 -0.24,7.27 -1.85,10.47 -1.41,2.79 -3.72,3.99 -6.47,5 1.22,3.25 -0.07,7.7 -1.76,10.39 -1.26,2.01 -2.98,3.68 -4.8,5.19 -5.46,4.53 -5.12,5.76 -5.21,6.44 -0.24,1.79 1.52,4.17 5.04,8.85 1.42,1.89 2.91,3.85 5.2,6.24 3.56,3.72 5.96,5.23 6.58,5.61 0.94,0.58 1.76,1 2.33,1.28 0.44,-8.61 1.98,-17.11 2.49,-25.71 0.59,-9.88 0.55,-19.79 1.05,-29.67 0.54,-10.93 1.51,-26.81 13.07,-31.76 -1.16,-10.31 -3.49,-20.33 -8.99,-29.1 -1.74,3.38 -3.3,6.86 -4.84,10.24 -3.06,6.71 -6.99,13.91 -13.38,17.9 0.8,0.58 1.53,1.28 2.16,2.06 z"
   id="path52"
   inkscape:connector-curvature="0"
   style="fill:#ffffff" />
<path
   class="st2"
   d="m 41.716408,84.2 c -1.53,1.53 -2.91,3.14 -3.82,5.12 -0.45,0.99 -0.77,2.02 -1.08,3.06 0.11,0.92 0.24,1.83 0.6,2.71 0.77,1.84 2.15,3.22 3.85,4.23 2.66,1.58 5.75,2.28 8.68,3.19 5.93,1.83 13.46,3.56 19.03,-0.28 4.62,-3.18 5.94,-9.53 5.91,-14.79 -0.03,-5.05 -1.95,-9.88 -5.13,-13.79 -1.61,-1.98 -3.63,-3.8 -6.06,-4.69 -1.99,-0.72 -3.81,-0.52 -5.66,0.07 -1.44,2.75 -4.71,5.12 -6.82,6.84 -3.24,2.63 -6.54,5.38 -9.5,8.33 z"
   id="path54"
   inkscape:connector-curvature="0"
   style="fill:#ffcdfe" />
<path
   class="st3"
   d="m 57.936408,63.64 c 1.35,-3.6 3.65,-7.03 5.86,-9.98 1.14,-1.52 2.43,-2.83 3.68,-4.25 1.86,-2.11 -1.84,-1.34 -2.99,-1.18 -5.65,0.8 -11.27,2.46 -16.71,4.16 -4.72,1.47 -9.09,3.37 -13.34,5.79 1.91,0.08 3.82,0.18 5.74,0.23 5.64,0.15 13.93,-0.44 17.59,4.91 0.05,0.12 0.11,0.22 0.17,0.32 z"
   id="path56"
   inkscape:connector-curvature="0"
   style="fill:#fe8bd0" />
</svg>