<?xml version="1.0" encoding="UTF-8" standalone="no"?>
<svg
   xmlns:dc="http://purl.org/dc/elements/1.1/"
   xmlns:cc="http://creativecommons.org/ns#"
   xmlns:rdf="http://www.w3.org/1999/02/22-rdf-syntax-ns#"
   xmlns:svg="http://www.w3.org/2000/svg"
   xmlns="http://www.w3.org/2000/svg"
   viewBox="0 0 1032 1308"
   height="1308"
   width="1032"
   xml:space="preserve"
   id="svg2"
   version="1.1"><metadata
     id="metadata8"><rdf:RDF><cc:Work
         rdf:about=""><dc:format>image/svg+xml</dc:format><dc:type
           rdf:resource="http://purl.org/dc/dcmitype/StillImage" /></cc:Work></rdf:RDF></metadata><defs
     id="defs6" /><g
     transform="matrix(1.3333333,0,0,-1.3333333,0,1308)"
     id="g10"><g
       transform="scale(0.1)"
       id="g12"><path
         id="path14"
         style="fill:#cccccc;fill-opacity:1;fill-rule:nonzero;stroke:none"
         d="m 1744.8,7598.52 c 322.93,67.22 650.12,112.34 979.18,135 291.76,20.19 804.46,52.96 1391.49,-38.64 411.83,-64.26 1099.88,-227.15 1875,-702.18 22.97,84.21 345.82,1346.25 -470.24,2196.71 -360.82,376.14 -796.13,528.83 -1050,573.4 -165.82,29.26 -973.28,153.13 -1730.85,-371.25 C 1831.48,8763.2 1752.46,7728.05 1744.8,7598.52 Z" /><path
         id="path16"
         style="fill:none;stroke:#000000;stroke-width:25.79999924;stroke-linecap:butt;stroke-linejoin:miter;stroke-miterlimit:10;stroke-dasharray:none;stroke-opacity:1"
         d="m 1744.8,7598.52 c 322.93,67.22 650.12,112.34 979.18,135 291.76,20.19 804.46,52.96 1391.49,-38.64 411.83,-64.26 1099.88,-227.15 1875,-702.18 22.97,84.21 345.82,1346.25 -470.24,2196.71 -360.82,376.14 -796.13,528.83 -1050,573.4 -165.82,29.26 -973.28,153.13 -1730.85,-371.25 C 1831.48,8763.2 1752.46,7728.05 1744.8,7598.52 Z" /><path
         id="path18"
         style="fill:#cccccc;fill-opacity:1;fill-rule:nonzero;stroke:none"
         d="m 1434.53,6893.09 362.93,-22.58 -244.88,-1624.49 -399.38,73.04 z" /><path
         id="path20"
         style="fill:none;stroke:#000000;stroke-width:29.25;stroke-linecap:round;stroke-linejoin:round;stroke-miterlimit:4;stroke-dasharray:none;stroke-opacity:1"
         d="m 1434.53,6893.09 362.93,-22.58 -244.88,-1624.49 -399.38,73.04 z" /><path
         id="path22"
         style="fill:#cccccc;fill-opacity:1;fill-rule:nonzero;stroke:none"
         d="m 1712.62,7437.42 -663.6,-4052.11 592.5,-811.72 h 193.28 l 238.36,-141.75 c 358.21,-177.82 651.96,-214.42 857.86,-213.44 416.17,1.95 690,158.4 1264.84,120 105.86,-7.03 211.25,-19.96 315.7,-38.63 254.92,152.42 486.88,340.35 688.87,558.16 l 750.98,4012.5 c -308.95,180.82 -635.67,329.3 -975,443.16 -363.87,126.1 -741.61,207.89 -1125,243.6 -714.93,66.13 -1435.75,25.66 -2138.79,-120 z" /><path
         id="path24"
         style="fill:none;stroke:#000000;stroke-width:25.79999924;stroke-linecap:butt;stroke-linejoin:miter;stroke-miterlimit:10;stroke-dasharray:none;stroke-opacity:1"
         d="m 1712.62,7437.42 -663.6,-4052.11 592.5,-811.72 h 193.28 l 238.36,-141.75 c 358.21,-177.82 651.96,-214.42 857.86,-213.44 416.17,1.95 690,158.4 1264.84,120 105.86,-7.03 211.25,-19.96 315.7,-38.63 254.92,152.42 486.88,340.35 688.87,558.16 l 750.98,4012.5 c -308.95,180.82 -635.67,329.3 -975,443.16 -363.87,126.1 -741.61,207.89 -1125,243.6 -714.93,66.13 -1435.75,25.66 -2138.79,-120 z" /><path
         id="path26"
         style="fill:#333399;fill-opacity:1;fill-rule:nonzero;stroke:none"
         d="m 5075.39,8532.58 c 3.05,-307.54 -40.39,-613.75 -128.83,-908.32 192.89,-22.11 379.22,-83.52 547.5,-180.39 79.46,278.24 109.92,568.16 90,856.79 -151.29,112.5 -324.8,191.57 -508.94,231.92 z" /><path
         id="path28"
         style="fill:none;stroke:#000000;stroke-width:25.79999924;stroke-linecap:round;stroke-linejoin:round;stroke-miterlimit:4;stroke-dasharray:none;stroke-opacity:1"
         d="m 5075.39,8532.58 c 3.05,-307.54 -40.39,-613.75 -128.83,-908.32 192.89,-22.11 379.22,-83.52 547.5,-180.39 79.46,278.24 109.92,568.16 90,856.79 -151.29,112.5 -324.8,191.57 -508.94,231.92 z" /><path
         id="path30"
         style="fill:#333399;fill-opacity:1;fill-rule:nonzero;stroke:none"
         d="m 5783.98,8204.06 c 14.61,-299.57 -13.59,-599.72 -83.67,-891.36 125.47,-28.64 237.35,-99.42 316.99,-200.55 61.22,311.48 71.22,630.86 29.58,945.55 z" /><path
         id="path32"
         style="fill:none;stroke:#000000;stroke-width:25.79999924;stroke-linecap:round;stroke-linejoin:round;stroke-miterlimit:4;stroke-dasharray:none;stroke-opacity:1"
         d="m 5783.98,8204.06 c 14.61,-299.57 -13.59,-599.72 -83.67,-891.36 125.47,-28.64 237.35,-99.42 316.99,-200.55 61.22,311.48 71.22,630.86 29.58,945.55 z" /><path
         id="path34"
         style="fill:#333399;fill-opacity:1;fill-rule:nonzero;stroke:none"
         d="m 5864.49,8695.04 c -159.26,124.57 -339.26,220.08 -531.68,282.07 1.99,139.88 -16.44,279.34 -54.76,413.91 252.3,-177.35 454.25,-417.15 586.13,-695.9 z" /><path
         id="path36"
         style="fill:none;stroke:#000000;stroke-width:25.79999924;stroke-linecap:round;stroke-linejoin:round;stroke-miterlimit:4;stroke-dasharray:none;stroke-opacity:1"
         d="m 5864.49,8695.04 c -159.26,124.57 -339.26,220.08 -531.68,282.07 1.99,139.88 -16.44,279.34 -54.76,413.91 252.3,-177.35 454.25,-417.15 586.13,-695.9 z" /><path
         id="path38"
         style="fill:#333399;fill-opacity:1;fill-rule:nonzero;stroke:none"
         d="m 5159.18,9086.6 c -420.63,170.24 -862.97,280.82 -1314.22,328.6 31.88,61.17 64.65,122.89 98.24,185.15 35.9,66.56 71.84,131.92 107.85,196.13 355,8.99 705.67,-79.45 1013.91,-255.74 75.7,-138.71 108.48,-296.79 94.14,-454.14 z" /><path
         id="path40"
         style="fill:none;stroke:#000000;stroke-width:25.79999924;stroke-linecap:round;stroke-linejoin:round;stroke-miterlimit:4;stroke-dasharray:none;stroke-opacity:1"
         d="m 5159.18,9086.6 c -420.63,170.24 -862.97,280.82 -1314.22,328.6 31.88,61.17 64.65,122.89 98.24,185.15 35.9,66.56 71.84,131.92 107.85,196.13 355,8.99 705.67,-79.45 1013.91,-255.74 75.7,-138.71 108.48,-296.79 94.14,-454.14 z" /><path
         id="path42"
         style="fill:#333399;fill-opacity:1;fill-rule:nonzero;stroke:none"
         d="m 2613.44,9297.73 c 168.24,21.33 338.83,41.68 511.68,61.06 160,17.89 318.36,34.53 475.11,49.92 49.69,145.7 136.25,276.02 251.25,378.32 -452.14,-36.37 -883.2,-206.72 -1238.04,-489.3 z" /><path
         id="path44"
         style="fill:none;stroke:#000000;stroke-width:25.79999924;stroke-linecap:round;stroke-linejoin:round;stroke-miterlimit:4;stroke-dasharray:none;stroke-opacity:1"
         d="m 2613.44,9297.73 c 168.24,21.33 338.83,41.68 511.68,61.06 160,17.89 318.36,34.53 475.11,49.92 49.69,145.7 136.25,276.02 251.25,378.32 -452.14,-36.37 -883.2,-206.72 -1238.04,-489.3 z" /><path
         id="path46"
         style="fill:#333399;fill-opacity:1;fill-rule:nonzero;stroke:none"
         d="m 1766.02,7787.15 219.53,33.44 c 44.45,217.14 114.96,428.12 210,628.36 l -234.46,-3.52 c -93.55,-209.92 -159.1,-431.25 -195,-658.28 z" /><path
         id="path48"
         style="fill:none;stroke:#000000;stroke-width:25.79999924;stroke-linecap:round;stroke-linejoin:round;stroke-miterlimit:4;stroke-dasharray:none;stroke-opacity:1"
         d="m 1766.02,7787.15 219.53,33.44 c 44.45,217.14 114.96,428.12 210,628.36 l -234.46,-3.52 c -93.55,-209.92 -159.1,-431.25 -195,-658.28 z" /><path
         id="path50"
         style="fill:#333399;fill-opacity:1;fill-rule:nonzero;stroke:none"
         d="m 3253.87,7887.89 c 8.04,65.7 19.22,136.33 34.88,210.98 13.52,64.33 28.71,124.57 45,180.35 l 655.04,-16.33 c -11.76,-50.62 -22.5,-105 -31.56,-162.46 -12.39,-79.02 -20.59,-158.63 -24.53,-238.52 z" /><path
         id="path52"
         style="fill:none;stroke:#000000;stroke-width:32.25;stroke-linecap:round;stroke-linejoin:round;stroke-miterlimit:4;stroke-dasharray:none;stroke-opacity:1"
         d="m 3253.87,7887.89 c 8.04,65.7 19.22,136.33 34.88,210.98 13.52,64.33 28.71,124.57 45,180.35 l 655.04,-16.33 c -11.76,-50.62 -22.5,-105 -31.56,-162.46 -12.39,-79.02 -20.59,-158.63 -24.53,-238.52 z" /><path
         id="path54"
         style="fill:#333333;fill-opacity:1;fill-rule:nonzero;stroke:none"
         d="m 2861.48,8401.64 c 235.2,8.56 425.47,11.68 558.29,12.89 101.32,0.9 168.39,0.74 343.59,2.19 165.35,1.33 300.74,2.97 390.82,4.26 l 211.13,730.66 c -404.96,80.47 -819.29,102.81 -1230.54,66.45 z" /><path
         id="path56"
         style="fill:#333399;fill-opacity:1;fill-rule:nonzero;stroke:none"
         d="m 2865.74,8432.73 c 180,11.22 369.22,18.17 566.92,19.38 242.65,1.48 472.5,-5.86 689.33,-19.38 28.32,117.93 61.25,240.67 98.79,368.29 37.5,126.28 76.8,246.28 116.99,360 -125.15,23.08 -260.78,42.3 -405.82,54.72 -271.29,23.24 -544.22,20.35 -814.96,-8.63 -42.22,-90.82 -83.83,-191.17 -122.38,-300.59 -54.41,-154.57 -97.46,-312.93 -128.87,-473.79 z" /><path
         id="path58"
         style="fill:none;stroke:#000000;stroke-width:25.79999924;stroke-linecap:round;stroke-linejoin:round;stroke-miterlimit:4;stroke-dasharray:none;stroke-opacity:1"
         d="m 2865.74,8432.73 c 180,11.22 369.22,18.17 566.92,19.38 242.65,1.48 472.5,-5.86 689.33,-19.38 28.32,117.93 61.25,240.67 98.79,368.29 37.5,126.28 76.8,246.28 116.99,360 -125.15,23.08 -260.78,42.3 -405.82,54.72 -271.29,23.24 -544.22,20.35 -814.96,-8.63 -42.22,-90.82 -83.83,-191.17 -122.38,-300.59 -54.41,-154.57 -97.46,-312.93 -128.87,-473.79 z" /><path
         id="path60"
         style="fill:#000000;fill-opacity:1;fill-rule:nonzero;stroke:none"
         d="m 3934.26,8833.4 c 0,-154.1 -142.54,-278.99 -318.44,-278.99 -175.86,0 -318.44,124.89 -318.44,278.99 0,154.1 142.58,278.98 318.44,278.98 175.9,0 318.44,-124.88 318.44,-278.98 z" /><path
         id="path62"
         style="fill:#333333;fill-opacity:1;fill-rule:nonzero;stroke:none"
         d="m 3602.66,9020.08 c 45.86,-38.91 35.74,-126.25 -22.66,-195.08 -58.36,-68.83 -142.89,-93.09 -188.75,-54.22 -45.86,38.91 -35.7,126.25 22.66,195.08 58.36,68.87 142.89,93.12 188.75,54.22 z" /><path
         id="path64"
         style="fill:#99cc66;fill-opacity:1;fill-rule:nonzero;stroke:none"
         d="m 2376.13,8481.05 c -46.6,-106.99 -79.06,-219.64 -96.6,-335.03 l 333.91,32.18 c 8.86,50.32 20.43,104.26 35.43,161.02 17.34,65.47 38.12,130 62.22,193.28 z" /><path
         id="path66"
         style="fill:none;stroke:#000000;stroke-width:25.79999924;stroke-linecap:round;stroke-linejoin:round;stroke-miterlimit:4;stroke-dasharray:none;stroke-opacity:1"
         d="m 2376.13,8481.05 c -46.6,-106.99 -79.06,-219.64 -96.6,-335.03 l 333.91,32.18 c 8.86,50.32 20.43,104.26 35.43,161.02 17.34,65.47 38.12,130 62.22,193.28 z" /><path
         id="path68"
         style="fill:#99cc66;fill-opacity:1;fill-rule:nonzero;stroke:none"
         d="m 2195.78,7845.43 c 13.52,103.67 41.72,204.88 83.75,300.59 l 333.91,32.18 c -36.25,-97.58 -58.83,-199.68 -67.03,-303.43 z" /><path
         id="path70"
         style="fill:none;stroke:#000000;stroke-width:25.79999924;stroke-linecap:round;stroke-linejoin:round;stroke-miterlimit:4;stroke-dasharray:none;stroke-opacity:1"
         d="m 2195.78,7845.43 c 13.52,103.67 41.72,204.88 83.75,300.59 l 333.91,32.18 c -36.25,-97.58 -58.83,-199.68 -67.03,-303.43 z" /><path
         id="path72"
         style="fill:#ff0000;fill-opacity:1;fill-rule:nonzero;stroke:none"
         d="m 3851.41,8077.11 c 8.16,-79.06 -69.61,-152.77 -152.7,-152.7 -83.12,0.08 -161.05,72.74 -152.69,152.7 8,77.38 93.75,127.5 167.96,120.51 62.66,-5.47 130.36,-52.74 137.43,-120.51 z" /><path
         id="path74"
         style="fill:none;stroke:#000000;stroke-width:24.375;stroke-linecap:round;stroke-linejoin:round;stroke-miterlimit:4;stroke-dasharray:none;stroke-opacity:1"
         d="m 3851.41,8077.11 c 8.16,-79.06 -69.61,-152.77 -152.7,-152.7 -83.12,0.08 -161.05,72.74 -152.69,152.7 8,77.38 93.75,127.5 167.96,120.51 62.66,-5.47 130.36,-52.74 137.43,-120.51 z" /><path
         id="path76"
         style="fill:#666666;fill-opacity:1;fill-rule:nonzero;stroke:none"
         d="m 4216.41,8219.06 c -2.93,-113.08 56.44,-218.63 154.61,-274.84 146.25,-82.5 292.5,-4.38 300.58,0 l 137.38,274.84 c -78.71,-46.36 -176.68,-45.15 -254.25,3.09 -77.54,48.28 -121.92,135.62 -115.12,226.72 z" /><path
         id="path78"
         style="fill:none;stroke:#000000;stroke-width:25.79999924;stroke-linecap:round;stroke-linejoin:round;stroke-miterlimit:4;stroke-dasharray:none;stroke-opacity:1"
         d="m 4216.41,8219.06 c -2.93,-113.08 56.44,-218.63 154.61,-274.84 146.25,-82.5 292.5,-4.38 300.58,0 l 137.38,274.84 c -78.71,-46.36 -176.68,-45.15 -254.25,3.09 -77.54,48.28 -121.92,135.62 -115.12,226.72 z" /><path
         id="path80"
         style="fill:#333333;fill-opacity:1;fill-rule:nonzero;stroke:none"
         d="m 4804.8,8216.99 c -35.46,-57.3 -169.72,-46.29 -255,8.4 -83.04,53.16 -148.86,166.06 -114.21,221.33 35.97,57.34 175.93,46.01 264.14,-15 75.66,-52.5 139.14,-159.77 105.07,-214.73 z" /><path
         id="path82"
         style="fill:none;stroke:#000000;stroke-width:27.67499924;stroke-linecap:round;stroke-linejoin:round;stroke-miterlimit:4;stroke-dasharray:none;stroke-opacity:1"
         d="m 4804.8,8216.99 c -35.46,-57.3 -169.72,-46.29 -255,8.4 -83.04,53.16 -148.86,166.06 -114.21,221.33 35.97,57.34 175.93,46.01 264.14,-15 75.66,-52.5 139.14,-159.77 105.07,-214.73 z" /><path
         id="path84"
         style="fill:#cccccc;fill-opacity:1;fill-rule:nonzero;stroke:none"
         d="M 2234.41,7572.73 1931.64,6103.95 c 786.17,68.98 1577.85,43 2357.85,-77.35 l 347.81,1436.64 c -791.56,151.45 -1600.82,188.32 -2402.89,109.49 z" /><path
         id="path86"
         style="fill:none;stroke:#000000;stroke-width:27.67499924;stroke-linecap:round;stroke-linejoin:round;stroke-miterlimit:4;stroke-dasharray:none;stroke-opacity:1"
         d="M 2234.41,7572.73 1931.64,6103.95 c 786.17,68.98 1577.85,43 2357.85,-77.35 l 347.81,1436.64 c -791.56,151.45 -1600.82,188.32 -2402.89,109.49 z" /><path
         id="path88"
         style="fill:#333399;fill-opacity:1;fill-rule:nonzero;stroke:none"
         d="m 4287.3,6548.67 -302.42,94.42 -295.47,-143.75 -202.42,89.29 -1223.47,43.67 -84.85,-266.71 1290.47,-53.09 216.37,96.45 243.28,-93.99 347.03,110.94 z" /><path
         id="path90"
         style="fill:none;stroke:#000000;stroke-width:27.67499924;stroke-linecap:round;stroke-linejoin:round;stroke-miterlimit:4;stroke-dasharray:none;stroke-opacity:1"
         d="m 4287.3,6548.67 -302.42,94.42 -295.47,-143.75 -202.42,89.29 -1223.47,43.67 -84.85,-266.71 1290.47,-53.09 216.37,96.45 243.28,-93.99 347.03,110.94 z" /><path
         id="path92"
         style="fill:#333399;fill-opacity:1;fill-rule:nonzero;stroke:none"
         d="m 1744.8,7598.52 -32.18,-161.02 c 371.21,78.55 748.32,125.98 1127.42,141.76 431.37,17.77 1202.77,42.89 2112.97,-257.78 347.73,-114.96 682.42,-266.09 998.55,-450.97 l 38.6,122.38 c -595.9,370.66 -1262.15,613.87 -1956.72,714.22 -763.67,89.77 -1536.92,53.05 -2288.64,-108.59 z" /><path
         id="path94"
         style="fill:none;stroke:#000000;stroke-width:25.79999924;stroke-linecap:butt;stroke-linejoin:miter;stroke-miterlimit:10;stroke-dasharray:none;stroke-opacity:1"
         d="m 1744.8,7598.52 -32.18,-161.02 c 371.21,78.55 748.32,125.98 1127.42,141.76 431.37,17.77 1202.77,42.89 2112.97,-257.78 347.73,-114.96 682.42,-266.09 998.55,-450.97 l 38.6,122.38 c -595.9,370.66 -1262.15,613.87 -1956.72,714.22 -763.67,89.77 -1536.92,53.05 -2288.64,-108.59 z" /><path
         id="path96"
         style="fill:#333399;fill-opacity:1;fill-rule:nonzero;stroke:none"
         d="m 2227.93,7071.29 299.57,-103.13 299.53,135.28 199.73,-95.16 1221.76,-78.75 92.5,264.14 -1288.44,90.16 -219.06,-90.16 -240.47,100.9 -350.04,-100.9 z" /><path
         id="path98"
         style="fill:none;stroke:#000000;stroke-width:27.67499924;stroke-linecap:round;stroke-linejoin:round;stroke-miterlimit:4;stroke-dasharray:none;stroke-opacity:1"
         d="m 2227.93,7071.29 299.57,-103.13 299.53,135.28 199.73,-95.16 1221.76,-78.75 92.5,264.14 -1288.44,90.16 -219.06,-90.16 -240.47,100.9 -350.04,-100.9 z" /><path
         id="path100"
         style="fill:#cccccc;fill-opacity:1;fill-rule:nonzero;stroke:none"
         d="m 1697.03,7288.24 c 95.31,49.03 203.24,68.09 309.61,54.69 L 1515.31,4602.89 c -93.2,7.42 -186.44,-13.48 -267.54,-60 z" /><path
         id="path102"
         style="fill:none;stroke:#000000;stroke-width:27.67499924;stroke-linecap:round;stroke-linejoin:round;stroke-miterlimit:4;stroke-dasharray:none;stroke-opacity:1"
         d="m 1697.03,7288.24 c 95.31,49.03 203.24,68.09 309.61,54.69 L 1515.31,4602.89 c -93.2,7.42 -186.44,-13.48 -267.54,-60 z" /><path
         id="path104"
         style="fill:#cccccc;fill-opacity:1;fill-rule:nonzero;stroke:none"
         d="M 4751.09,7286.99 4094.02,4409.45 c 146.45,-5.82 288.75,-50.27 412.5,-128.86 l 639.96,2860.35 c -110.31,93.79 -250.27,145.51 -395.07,146.05 z" /><path
         id="path106"
         style="fill:none;stroke:#000000;stroke-width:27.67499924;stroke-linecap:round;stroke-linejoin:round;stroke-miterlimit:4;stroke-dasharray:none;stroke-opacity:1"
         d="M 4751.09,7286.99 4094.02,4409.45 c 146.45,-5.82 288.75,-50.27 412.5,-128.86 l 639.96,2860.35 c -110.31,93.79 -250.27,145.51 -395.07,146.05 z" /><path
         id="path108"
         style="fill:#cccccc;fill-opacity:1;fill-rule:nonzero;stroke:none"
         d="m 1205.94,4343.24 c 266.6,87.81 544.92,135.2 825.58,140.47 l -122.46,-483.16 c -264.92,-18.52 -527.11,-65.2 -782.11,-139.18 z" /><path
         id="path110"
         style="fill:none;stroke:#000000;stroke-width:25.79999924;stroke-linecap:round;stroke-linejoin:round;stroke-miterlimit:4;stroke-dasharray:none;stroke-opacity:1"
         d="m 1205.94,4343.24 c 266.6,87.81 544.92,135.2 825.58,140.47 l -122.46,-483.16 c -264.92,-18.52 -527.11,-65.2 -782.11,-139.18 z" /><path
         id="path112"
         style="fill:#cccccc;fill-opacity:1;fill-rule:nonzero;stroke:none"
         d="m 1918.79,5944.77 -74.18,-385.12 c 72.38,6.68 151.29,10.66 235.82,10.19 73.79,-0.43 143.16,-4.25 207.5,-10.19 l 84.92,397.5 c -150.78,24.33 -304.8,20.31 -454.14,-11.84 z" /><path
         id="path114"
         style="fill:none;stroke:#000000;stroke-width:20.39999962;stroke-linecap:round;stroke-linejoin:round;stroke-miterlimit:4;stroke-dasharray:none;stroke-opacity:1"
         d="m 1918.79,5944.77 -74.18,-385.12 c 72.38,6.68 151.29,10.66 235.82,10.19 73.79,-0.43 143.16,-4.25 207.5,-10.19 l 84.92,397.5 c -150.78,24.33 -304.8,20.31 -454.14,-11.84 z" /><path
         id="path116"
         style="fill:none;stroke:#000000;stroke-width:51.52500153;stroke-linecap:round;stroke-linejoin:round;stroke-miterlimit:4;stroke-dasharray:none;stroke-opacity:1"
         d="m 1768.05,5329.92 511.44,36.37" /><path
         id="path118"
         style="fill:none;stroke:#000000;stroke-width:51.52500153;stroke-linecap:round;stroke-linejoin:round;stroke-miterlimit:4;stroke-dasharray:none;stroke-opacity:1"
         d="m 1738.36,5128.87 515.39,31.25" /><path
         id="path120"
         style="fill:none;stroke:#000000;stroke-width:51.52500153;stroke-linecap:round;stroke-linejoin:round;stroke-miterlimit:4;stroke-dasharray:none;stroke-opacity:1"
         d="m 1712.62,4931.37 515.31,17.26" /><path
         id="path122"
         style="fill:#333399;fill-opacity:1;fill-rule:nonzero;stroke:none"
         d="m 2333.16,4857.66 c 246.25,32.26 495.94,27.81 740.86,-13.21 l 218.79,1187.7 c -241.33,38.28 -487.38,36.01 -727.97,-6.76 z" /><path
         id="path124"
         style="fill:none;stroke:#000000;stroke-width:27.375;stroke-linecap:round;stroke-linejoin:round;stroke-miterlimit:4;stroke-dasharray:none;stroke-opacity:1"
         d="m 2333.16,4857.66 c 246.25,32.26 495.94,27.81 740.86,-13.21 l 218.79,1187.7 c -241.33,38.28 -487.38,36.01 -727.97,-6.76 z" /><path
         id="path126"
         style="fill:#cccccc;fill-opacity:1;fill-rule:nonzero;stroke:none"
         d="m 3342.23,4614.65 c 192.69,7.93 385.43,-15.12 570.82,-68.24 l 303.51,1335 c -198.51,58 -404.06,88.55 -610.86,90.74 z" /><path
         id="path128"
         style="fill:none;stroke:#000000;stroke-width:27.75;stroke-linecap:round;stroke-linejoin:round;stroke-miterlimit:4;stroke-dasharray:none;stroke-opacity:1"
         d="m 3342.23,4614.65 c 192.69,7.93 385.43,-15.12 570.82,-68.24 l 303.51,1335 c -198.51,58 -404.06,88.55 -610.86,90.74 z" /><path
         id="path130"
         style="fill:#333399;fill-opacity:1;fill-rule:nonzero;stroke:none"
         d="m 2282.7,4515.94 c 123.75,-5.35 248.32,-10.35 373.67,-15 114.41,-4.1 228.24,-7.78 341.36,-11.02 -72.18,-166.37 -107.34,-346.44 -103.04,-527.77 -105,15 -220.63,26.83 -345.74,32.46 -118.72,5.43 -229.34,4.53 -330.67,0 -1.52,176.05 20.16,351.48 64.42,521.87 z" /><path
         id="path132"
         style="fill:none;stroke:#000000;stroke-width:26.77499962;stroke-linecap:round;stroke-linejoin:round;stroke-miterlimit:4;stroke-dasharray:none;stroke-opacity:1"
         d="m 2282.7,4515.94 c 123.75,-5.35 248.32,-10.35 373.67,-15 114.41,-4.1 228.24,-7.78 341.36,-11.02 -72.18,-166.37 -107.34,-346.44 -103.04,-527.77 -105,15 -220.63,26.83 -345.74,32.46 -118.72,5.43 -229.34,4.53 -330.67,0 -1.52,176.05 20.16,351.48 64.42,521.87 z" /><path
         id="path134"
         style="fill:#cccccc;fill-opacity:1;fill-rule:nonzero;stroke:none"
         d="m 3253.87,4396.02 c 246.79,5.35 492.22,-37.82 722.42,-127.04 l -102.38,-474.6 c -229.53,109.84 -480,169.17 -734.42,173.94 z" /><path
         id="path136"
         style="fill:none;stroke:#000000;stroke-width:26.77499962;stroke-linecap:round;stroke-linejoin:round;stroke-miterlimit:4;stroke-dasharray:none;stroke-opacity:1"
         d="m 3253.87,4396.02 c 246.79,5.35 492.22,-37.82 722.42,-127.04 l -102.38,-474.6 c -229.53,109.84 -480,169.17 -734.42,173.94 z" /><path
         id="path138"
         style="fill:#9999cc;fill-opacity:1;fill-rule:nonzero;stroke:none"
         d="m 3171.76,5748.79 c -8.32,-129.65 -181.64,-218.67 -322.15,-208.56 -117.73,8.56 -262.5,90 -270.59,208.56 -8.9,129.53 150,247.5 296.33,247.5 146.33,0 304.96,-118.56 296.41,-247.5 z" /><path
         id="path140"
         style="fill:none;stroke:#000000;stroke-width:30.89999962;stroke-linecap:round;stroke-linejoin:round;stroke-miterlimit:4;stroke-dasharray:none;stroke-opacity:1"
         d="m 3171.76,5748.79 c -8.32,-129.65 -181.64,-218.67 -322.15,-208.56 -117.73,8.56 -262.5,90 -270.59,208.56 -8.9,129.53 150,247.5 296.33,247.5 146.33,0 304.96,-118.56 296.41,-247.5 z" /><path
         id="path142"
         style="fill:#9999cc;fill-opacity:1;fill-rule:nonzero;stroke:none"
         d="m 3056.41,5171.99 c -8.32,-129.69 -181.64,-218.71 -322.15,-208.59 -117.74,8.55 -262.5,90 -270.59,208.59 -8.9,129.49 150,247.5 296.33,247.5 146.33,0 304.65,-118.59 296.41,-247.5 z" /><path
         id="path144"
         style="fill:none;stroke:#000000;stroke-width:30.89999962;stroke-linecap:round;stroke-linejoin:round;stroke-miterlimit:4;stroke-dasharray:none;stroke-opacity:1"
         d="m 3056.41,5171.99 c -8.32,-129.69 -181.64,-218.71 -322.15,-208.59 -117.74,8.55 -262.5,90 -270.59,208.59 -8.9,129.49 150,247.5 296.33,247.5 146.33,0 304.65,-118.59 296.41,-247.5 z" /><path
         id="path146"
         style="fill:none;stroke:#000000;stroke-width:30.89999962;stroke-linecap:round;stroke-linejoin:round;stroke-miterlimit:4;stroke-dasharray:none;stroke-opacity:1"
         d="m 2635.74,5889.8 501.88,-28.71" /><path
         id="path148"
         style="fill:none;stroke:#000000;stroke-width:30.89999962;stroke-linecap:round;stroke-linejoin:round;stroke-miterlimit:4;stroke-dasharray:none;stroke-opacity:1"
         d="m 2578.95,5769.65 590.62,-25.43" /><path
         id="path150"
         style="fill:none;stroke:#000000;stroke-width:30.89999962;stroke-linecap:round;stroke-linejoin:round;stroke-miterlimit:4;stroke-dasharray:none;stroke-opacity:1"
         d="m 2617.58,5652.81 487.93,-21.01" /><path
         id="path152"
         style="fill:none;stroke:#000000;stroke-width:30.89999962;stroke-linecap:round;stroke-linejoin:round;stroke-miterlimit:4;stroke-dasharray:none;stroke-opacity:1"
         d="m 2521.41,5306.13 501.99,-28.79" /><path
         id="path154"
         style="fill:none;stroke:#000000;stroke-width:30.89999962;stroke-linecap:round;stroke-linejoin:round;stroke-miterlimit:4;stroke-dasharray:none;stroke-opacity:1"
         d="m 2464.65,5185.94 590.7,-25.43" /><path
         id="path156"
         style="fill:none;stroke:#000000;stroke-width:30.89999962;stroke-linecap:round;stroke-linejoin:round;stroke-miterlimit:4;stroke-dasharray:none;stroke-opacity:1"
         d="m 2503.36,5069.14 487.93,-20.98" /><path
         id="path158"
         style="fill:#cccccc;fill-opacity:1;fill-rule:nonzero;stroke:none"
         d="m 1842.15,1410.82 154.96,21.95 94.41,123.25 349.14,176.91 -71.05,180.39 -7.5,433.63 c -158.75,33.56 -311.64,90.47 -453.67,168.91 z" /><path
         id="path160"
         style="fill:none;stroke:#000000;stroke-width:25.79999924;stroke-linecap:round;stroke-linejoin:round;stroke-miterlimit:4;stroke-dasharray:none;stroke-opacity:1"
         d="m 1842.15,1410.82 154.96,21.95 94.41,123.25 349.14,176.91 -71.05,180.39 -7.5,433.63 c -158.75,33.56 -311.64,90.47 -453.67,168.91 z" /><path
         id="path162"
         style="fill:#9999cc;fill-opacity:1;fill-rule:nonzero;stroke:none"
         d="m 2814.88,4238.83 c -6.44,-118.36 -140.62,-199.57 -249.37,-190.28 -91.1,7.5 -203.17,82.5 -209.46,190.28 -6.83,118.2 116.18,225.82 229.5,225.82 113.32,0 235.82,-108.2 229.33,-225.82 z" /><path
         id="path164"
         style="fill:none;stroke:#000000;stroke-width:25.95000076;stroke-linecap:round;stroke-linejoin:round;stroke-miterlimit:4;stroke-dasharray:none;stroke-opacity:1"
         d="m 2814.88,4238.83 c -6.44,-118.36 -140.62,-199.57 -249.37,-190.28 -91.1,7.5 -203.17,82.5 -209.46,190.28 -6.83,118.2 116.18,225.82 229.5,225.82 113.32,0 235.82,-108.2 229.33,-225.82 z" /><path
         id="path166"
         style="fill:none;stroke:#000000;stroke-width:25.95000076;stroke-linecap:round;stroke-linejoin:round;stroke-miterlimit:4;stroke-dasharray:none;stroke-opacity:1"
         d="m 2377.27,4322.15 c 21.25,-3.2 42.65,-5.24 64.14,-6.06 45,-1.75 67.5,-2.65 82.93,6.45 46.28,26.76 31.44,126.52 30,135" /><path
         id="path168"
         style="fill:none;stroke:#000000;stroke-width:25.95000076;stroke-linecap:round;stroke-linejoin:round;stroke-miterlimit:4;stroke-dasharray:none;stroke-opacity:1"
         d="m 2661.52,4440.04 c -2.97,-21.29 -3.71,-42.85 -2.18,-64.34 2.26,-31.21 3.39,-46.87 13.94,-61.13 13.75,-18.44 34.61,-23.83 70.08,-33.01 21.09,-5.43 42.66,-8.79 64.41,-9.96" /><path
         id="path170"
         style="fill:none;stroke:#000000;stroke-width:25.95000076;stroke-linecap:round;stroke-linejoin:round;stroke-miterlimit:4;stroke-dasharray:none;stroke-opacity:1"
         d="m 2807.77,4193.01 c -22.97,2.81 -46.09,4.41 -69.22,4.8 -37.5,0.67 -56.25,0.98 -69.21,-4.8 -49.38,-21.99 -47.93,-121.96 -47.5,-137.7" /><path
         id="path172"
         style="fill:none;stroke:#000000;stroke-width:25.95000076;stroke-linecap:round;stroke-linejoin:round;stroke-miterlimit:4;stroke-dasharray:none;stroke-opacity:1"
         d="m 2500.12,4064.14 c 7.15,24.84 10.15,50.7 8.86,76.52 -1.13,23.01 -1.79,36.22 -10.5,49.93 -18.44,29.33 -57.15,35.03 -82.5,38.63 -20.04,2.93 -40.43,2.66 -60.39,-0.82" /><path
         id="path174"
         style="fill:#cccccc;fill-opacity:1;fill-rule:nonzero;stroke:none"
         d="m 2658.59,1436.6 404.18,-51.52 495,229.06 c -119.06,60 -253.98,81.17 -385.74,60.51 z" /><path
         id="path176"
         style="fill:none;stroke:#000000;stroke-width:29.54999924;stroke-linecap:round;stroke-linejoin:round;stroke-miterlimit:4;stroke-dasharray:none;stroke-opacity:1"
         d="m 2658.59,1436.6 404.18,-51.52 495,229.06 c -119.06,60 -253.98,81.17 -385.74,60.51 z" /><path
         id="path178"
         style="fill:#cccccc;fill-opacity:1;fill-rule:nonzero;stroke:none"
         d="m 2091.6,1556.02 341.02,-72.15 371.91,171.72 -341.17,88.82 z" /><path
         id="path180"
         style="fill:none;stroke:#000000;stroke-width:29.54999924;stroke-linecap:round;stroke-linejoin:round;stroke-miterlimit:4;stroke-dasharray:none;stroke-opacity:1"
         d="m 2091.6,1556.02 341.02,-72.15 371.91,171.72 -341.17,88.82 z" /><path
         id="path182"
         style="fill:#333399;fill-opacity:1;fill-rule:nonzero;stroke:none"
         d="m 4170.31,4064.14 257.7,83.56 240.43,-99.89 107.42,-253.43 -90.24,-249.07 -212.53,-111.68 -302.78,94.49 -103.12,262.58 z" /><path
         id="path184"
         style="fill:none;stroke:#000000;stroke-width:25.95000076;stroke-linecap:round;stroke-linejoin:round;stroke-miterlimit:4;stroke-dasharray:none;stroke-opacity:1"
         d="m 4170.31,4064.14 257.7,83.56 240.43,-99.89 107.42,-253.43 -90.24,-249.07 -212.53,-111.68 -302.78,94.49 -103.12,262.58 z" /><path
         id="path186"
         style="fill:#9999cc;fill-opacity:1;fill-rule:nonzero;stroke:none"
         d="m 4567.5,3810.51 c 0,-103.75 -84.1,-187.89 -187.89,-187.89 -103.75,0 -187.85,84.14 -187.85,187.89 0,103.75 84.1,187.85 187.85,187.85 103.79,0 187.89,-84.1 187.89,-187.85 z" /><path
         id="path188"
         style="fill:none;stroke:#000000;stroke-width:28.42499924;stroke-linecap:round;stroke-linejoin:round;stroke-miterlimit:4;stroke-dasharray:none;stroke-opacity:1"
         d="m 4567.5,3810.51 c 0,-103.75 -84.1,-187.89 -187.89,-187.89 -103.75,0 -187.85,84.14 -187.85,187.89 0,103.75 84.1,187.85 187.85,187.85 103.79,0 187.89,-84.1 187.89,-187.85 z" /><path
         id="path190"
         style="fill:none;stroke:#000000;stroke-width:28.42499924;stroke-linecap:round;stroke-linejoin:round;stroke-miterlimit:4;stroke-dasharray:none;stroke-opacity:1"
         d="m 1247.46,3583.95 c 1293.56,375.85 2688.71,116.13 3760.27,-700.08 l -532.5,-429.46" /><path
         id="path192"
         style="fill:none;stroke:#000000;stroke-width:28.42499924;stroke-linecap:round;stroke-linejoin:round;stroke-miterlimit:4;stroke-dasharray:none;stroke-opacity:1"
         d="M 1308.75,3601.17 1786.64,2892.5" /><path
         id="path194"
         style="fill:none;stroke:#000000;stroke-width:28.42499924;stroke-linecap:round;stroke-linejoin:round;stroke-miterlimit:4;stroke-dasharray:none;stroke-opacity:1"
         d="M 1842.15,3710.9 2091.6,3012.73" /><path
         id="path196"
         style="fill:none;stroke:#000000;stroke-width:28.42499924;stroke-linecap:round;stroke-linejoin:round;stroke-miterlimit:4;stroke-dasharray:none;stroke-opacity:1"
         d="M 2031.45,3733.09 2218.2,3012.73" /><path
         id="path198"
         style="fill:none;stroke:#000000;stroke-width:28.42499924;stroke-linecap:round;stroke-linejoin:round;stroke-miterlimit:4;stroke-dasharray:none;stroke-opacity:1"
         d="m 2911.88,3725.59 -77.27,-687.07" /><path
         id="path200"
         style="fill:none;stroke:#000000;stroke-width:28.42499924;stroke-linecap:round;stroke-linejoin:round;stroke-miterlimit:4;stroke-dasharray:none;stroke-opacity:1"
         d="M 3127.66,3695.59 2997.81,3012.73" /><path
         id="path202"
         style="fill:none;stroke:#000000;stroke-width:28.42499924;stroke-linecap:round;stroke-linejoin:round;stroke-miterlimit:4;stroke-dasharray:none;stroke-opacity:1"
         d="m 4047.97,3433.63 -328.63,-584.1" /><path
         id="path204"
         style="fill:none;stroke:#000000;stroke-width:28.42499924;stroke-linecap:round;stroke-linejoin:round;stroke-miterlimit:4;stroke-dasharray:none;stroke-opacity:1"
         d="M 4255.2,3341.84 3852.46,2793.71" /><path
         id="path206"
         style="fill:none;stroke:#000000;stroke-width:28.42499924;stroke-linecap:round;stroke-linejoin:round;stroke-miterlimit:4;stroke-dasharray:none;stroke-opacity:1"
         d="m 5007.73,2883.87 51.53,-34.34" /><path
         id="path208"
         style="fill:#666666;fill-opacity:1;fill-rule:nonzero;stroke:none"
         d="m 1966.88,2793.71 c -30,30 -65.63,72.23 -55.67,111.68 24.18,96.17 300,97.97 552.15,107.42 294.61,11.88 589.53,-14.14 877.5,-77.5 135,-30 281.05,-63.28 460.35,-145.86 82.5,-37.97 554.18,-242.77 528.24,-360.74 -29.1,-132.54 -669.45,-80.7 -1189.65,-38.63 -0.31,-0.08 -834.92,67.42 -1172.92,403.63 z" /><path
         id="path210"
         style="fill:none;stroke:#000000;stroke-width:28.42499924;stroke-linecap:round;stroke-linejoin:round;stroke-miterlimit:4;stroke-dasharray:none;stroke-opacity:1"
         d="m 1966.88,2793.71 c -30,30 -65.63,72.23 -55.67,111.68 24.18,96.17 300,97.97 552.15,107.42 294.61,11.88 589.53,-14.14 877.5,-77.5 135,-30 281.05,-63.28 460.35,-145.86 82.5,-37.97 554.18,-242.77 528.24,-360.74 -29.1,-132.54 -669.45,-80.7 -1189.65,-38.63 -0.31,-0.08 -834.92,67.42 -1172.92,403.63 z" /><path
         id="path212"
         style="fill:#999999;fill-opacity:1;fill-rule:nonzero;stroke:none"
         d="m 2463.36,3012.73 -30.66,-397.5 800.11,-128.55 107.54,448.63 c -288.01,63.21 -582.89,89.26 -877.5,77.5 z" /><path
         id="path214"
         style="fill:none;stroke:#000000;stroke-width:28.42499924;stroke-linecap:round;stroke-linejoin:round;stroke-miterlimit:4;stroke-dasharray:none;stroke-opacity:1"
         d="m 2463.36,3012.73 -30.66,-397.5 800.11,-128.55 107.54,448.63 c -288.01,63.21 -582.89,89.26 -877.5,77.5 z" /><path
         id="path216"
         style="fill:#999999;fill-opacity:1;fill-rule:nonzero;stroke:none"
         d="m 3232.81,2486.68 378.95,-68.71 107.42,406.72 c -58.79,22.97 -123.83,45.54 -195,65.93 -64.96,18.76 -126.6,33.33 -183.98,45 z" /><path
         id="path218"
         style="fill:none;stroke:#000000;stroke-width:28.42499924;stroke-linecap:round;stroke-linejoin:round;stroke-miterlimit:4;stroke-dasharray:none;stroke-opacity:1"
         d="m 3232.81,2486.68 378.95,-68.71 107.42,406.72 c -58.79,22.97 -123.83,45.54 -195,65.93 -64.96,18.76 -126.6,33.33 -183.98,45 z" /><path
         id="path220"
         style="fill:#999999;fill-opacity:1;fill-rule:nonzero;stroke:none"
         d="m 2403.01,2617.62 829.92,-120.24 -47.46,-320 -823.36,169.57 z" /><path
         id="path222"
         style="fill:none;stroke:#000000;stroke-width:28.42499924;stroke-linecap:round;stroke-linejoin:round;stroke-miterlimit:4;stroke-dasharray:none;stroke-opacity:1"
         d="m 2403.01,2617.62 829.92,-120.24 -47.46,-320 -823.36,169.57 z" /><path
         id="path224"
         style="fill:#999999;fill-opacity:1;fill-rule:nonzero;stroke:none"
         d="m 2364.8,2364.65 c -32.38,-73.4 -50.39,-152.31 -53.08,-232.5 -2.03,-65.08 -7.03,-222.31 90,-335.04 78.08,-90.43 187.5,-108.79 402.62,-141.72 124.64,-19.1 250.82,-26.64 376.87,-22.5 193.4,64.81 330,238.09 347.85,441.29 -54.37,23.16 -132.38,54.77 -227.85,87.38 -505.98,173.09 -924.18,179.03 -923.4,182.23 0.74,3.24 197.54,-7.5 446.33,-57.31 118.56,-23.67 235.78,-53.71 351.13,-90" /><path
         id="path226"
         style="fill:none;stroke:#000000;stroke-width:36.29999924;stroke-linecap:round;stroke-linejoin:round;stroke-miterlimit:4;stroke-dasharray:none;stroke-opacity:1"
         d="m 2364.8,2364.65 c -32.38,-73.4 -50.39,-152.31 -53.08,-232.5 -2.03,-65.08 -7.03,-222.31 90,-335.04 78.08,-90.43 187.5,-108.79 402.62,-141.72 124.64,-19.1 250.82,-26.64 376.87,-22.5 193.4,64.81 330,238.09 347.85,441.29 -54.37,23.16 -132.38,54.77 -227.85,87.38 -505.98,173.09 -924.18,179.03 -923.4,182.23 0.74,3.24 197.54,-7.5 446.33,-57.31 118.56,-23.67 235.78,-53.71 351.13,-90" /><path
         id="path228"
         style="fill:#999999;fill-opacity:1;fill-rule:nonzero;stroke:none"
         d="m 2241.05,2687.42 c 63.79,-13.47 96.1,-116.4 72.11,-229.92 -23.94,-113.52 -95.07,-194.65 -158.86,-181.17 -63.79,13.47 -96.1,116.4 -72.11,229.92 23.94,113.52 95.08,194.65 158.86,181.17 z" /><path
         id="path230"
         style="fill:none;stroke:#000000;stroke-width:36.29999924;stroke-linecap:round;stroke-linejoin:round;stroke-miterlimit:4;stroke-dasharray:none;stroke-opacity:1"
         d="m 2241.05,2687.42 c 63.8,-13.47 96.09,-116.4 72.11,-229.92 -23.94,-113.51 -95.07,-194.65 -158.86,-181.17 -63.79,13.47 -96.1,116.4 -72.11,229.92 23.94,113.51 95.07,194.65 158.86,181.17 z" /><path
         id="path232"
         style="fill:#999999;fill-opacity:1;fill-rule:nonzero;stroke:none"
         d="m 3701.48,2443.79 c 57.9,-17.42 153.91,-51.25 239.61,-109.22 34.5,-23.32 61.29,-46.48 81.02,-82.03 14.53,-26.52 23.36,-55.78 25.86,-85.9 -1.25,-37.03 -14.88,-72.58 -38.71,-100.94 -14.88,-16.6 -33.21,-29.76 -53.67,-38.63 -114.3,-52.5 -280.59,-27.15 -280.28,-22.85 0,0.82 6.06,1.8 44.1,1.09" /><path
         id="path234"
         style="fill:none;stroke:#000000;stroke-width:36.29999924;stroke-linecap:round;stroke-linejoin:round;stroke-miterlimit:4;stroke-dasharray:none;stroke-opacity:1"
         d="m 3701.48,2443.79 c 57.9,-17.42 153.91,-51.25 239.61,-109.22 34.5,-23.32 61.29,-46.48 81.02,-82.03 14.53,-26.52 23.36,-55.78 25.86,-85.9 -1.25,-37.03 -14.88,-72.58 -38.71,-100.94 -14.88,-16.6 -33.21,-29.76 -53.67,-38.63 -114.3,-52.5 -280.59,-27.15 -280.28,-22.85 0,0.82 6.06,1.8 44.1,1.09" /><path
         id="path236"
         style="fill:#999999;fill-opacity:1;fill-rule:nonzero;stroke:none"
         d="m 3345.31,2522.15 c 70.78,-19.06 142.54,-34.45 214.92,-46.06 90.47,-14.53 118.13,-13.12 150,-38.63 69.26,-54.88 66.1,-164.14 64.46,-221.17 -1.76,-58.56 -4.96,-170.47 -70.9,-203.99 -40.35,-20.54 -79.41,0.82 -184.65,34.34 -78.71,25.16 -158.87,45.7 -240,61.52" /><path
         id="path238"
         style="fill:none;stroke:#000000;stroke-width:36.29999924;stroke-linecap:round;stroke-linejoin:round;stroke-miterlimit:4;stroke-dasharray:none;stroke-opacity:1"
         d="m 3345.31,2522.15 c 70.78,-19.06 142.54,-34.45 214.92,-46.06 90.47,-14.53 118.13,-13.12 150,-38.63 69.26,-54.88 66.1,-164.14 64.46,-221.17 -1.76,-58.56 -4.96,-170.47 -70.9,-203.99 -40.35,-20.54 -79.41,0.82 -184.65,34.34 -78.71,25.16 -158.87,45.7 -240,61.52" /><path
         id="path240"
         style="fill:#999999;fill-opacity:1;fill-rule:nonzero;stroke:none"
         d="m 3358.75,2520.66 c 72.73,-15.35 112.3,-119.84 88.32,-233.36 -23.95,-113.51 -102.34,-193.08 -175.12,-177.73 -72.73,15.35 -112.26,119.84 -88.32,233.36 23.95,113.52 102.39,193.09 175.12,177.73 z" /><path
         id="path242"
         style="fill:none;stroke:#000000;stroke-width:38.77500153;stroke-linecap:round;stroke-linejoin:round;stroke-miterlimit:4;stroke-dasharray:none;stroke-opacity:1"
         d="m 3358.75,2520.66 c 72.73,-15.35 112.3,-119.84 88.32,-233.35 -23.94,-113.53 -102.35,-193.09 -175.12,-177.74 -72.73,15.35 -112.26,119.84 -88.32,233.36 23.94,113.51 102.38,193.09 175.12,177.73 z" /><path
         id="path244"
         style="fill:#999999;fill-opacity:1;fill-rule:nonzero;stroke:none"
         d="m 3136.48,2213.36 c -26.01,-75 -45,-140.16 -58.12,-190.55 -28.87,-109.37 -32.46,-151.6 -25.78,-196.52 4.92,-32.38 14.72,-63.87 29.02,-93.36" /><path
         id="path246"
         style="fill:none;stroke:#000000;stroke-width:36.29999924;stroke-linecap:round;stroke-linejoin:round;stroke-miterlimit:4;stroke-dasharray:none;stroke-opacity:1"
         d="m 3136.48,2213.36 c -26.01,-75 -45,-140.16 -58.12,-190.55 -28.87,-109.37 -32.46,-151.6 -25.78,-196.52 4.92,-32.38 14.72,-63.87 29.02,-93.36" /><path
         id="path248"
         style="fill:#cccccc;fill-opacity:1;fill-rule:nonzero;stroke:none"
         d="m 771.762,5161.76 336.868,-368.75 h 170.86 l 47.27,234.45 c -85.59,14.61 -154.14,30.9 -200.63,43.05 -69.76,18.12 -102.77,30 -182.579,51.21 -73.242,19.22 -133.242,32.19 -171.789,40.04 z" /><path
         id="path250"
         style="fill:none;stroke:#000000;stroke-width:29.25;stroke-linecap:round;stroke-linejoin:round;stroke-miterlimit:4;stroke-dasharray:none;stroke-opacity:1"
         d="m 771.762,5161.76 336.868,-368.75 h 170.86 l 47.27,234.45 c -85.59,14.61 -154.14,30.9 -200.63,43.05 -69.76,18.12 -102.77,30 -182.579,51.21 -73.242,19.22 -133.242,32.19 -171.789,40.04 z" /><path
         id="path252"
         style="fill:#cccccc;fill-opacity:1;fill-rule:nonzero;stroke:none"
         d="m 1621.8,7014.22 c -67.5,76.72 -277.5,2.85 -395.63,-63.17 -174.76,-97.5 -271.131,-245.03 -315.658,-328.59 -99.223,-185.9 -65.633,-269.61 -115.981,-708.59 -53.32,-465 -126.051,-677.15 -12.89,-760.2 45,-32.93 61.371,-1.79 219.019,-45 176.84,-48.59 236.33,-109.96 292.5,-80.23 50.98,27.07 55.55,106.95 60.36,215 12.53,280.66 23.12,624.18 24.68,670.27 7.5,225.55 11.84,338.05 41.57,425.43 49.76,146.52 123.75,226.56 187.11,450.9 48.51,172.77 28.43,208.48 14.92,224.18 z" /><path
         id="path254"
         style="fill:none;stroke:#000000;stroke-width:27.67499924;stroke-linecap:round;stroke-linejoin:round;stroke-miterlimit:4;stroke-dasharray:none;stroke-opacity:1"
         d="m 1621.8,7014.22 c -67.5,76.72 -277.5,2.85 -395.63,-63.17 -174.76,-97.5 -271.131,-245.03 -315.658,-328.59 -99.223,-185.9 -65.633,-269.61 -115.981,-708.59 -53.32,-465 -126.051,-677.15 -12.89,-760.2 45,-32.93 61.371,-1.79 219.019,-45 176.84,-48.59 236.33,-109.96 292.5,-80.23 50.98,27.07 55.55,106.95 60.36,215 12.53,280.66 23.12,624.18 24.68,670.27 7.5,225.55 11.84,338.05 41.57,425.43 49.76,146.52 123.75,226.56 187.11,450.9 48.51,172.77 28.43,208.48 14.92,224.18 z" /><path
         id="path256"
         style="fill:#cccccc;fill-opacity:1;fill-rule:nonzero;stroke:none"
         d="m 1108.63,4792.93 -35.9,-1262.85 206.84,1262.85 z" /><path
         id="path258"
         style="fill:none;stroke:#000000;stroke-width:29.25;stroke-linecap:round;stroke-linejoin:round;stroke-miterlimit:4;stroke-dasharray:none;stroke-opacity:1"
         d="m 1108.63,4792.93 -35.9,-1262.85 206.84,1262.85 z" /><path
         id="path260"
         style="fill:none;stroke:#000000;stroke-width:29.25;stroke-linecap:round;stroke-linejoin:round;stroke-miterlimit:4;stroke-dasharray:none;stroke-opacity:1"
         d="M 5211.6,5361.45 4980.9,4076.09" /><path
         id="path262"
         style="fill:#999999;fill-opacity:1;fill-rule:nonzero;stroke:none"
         d="m 5896.8,6663.28 c -20.32,2.7 -511.88,59.42 -788.87,-303.98 -185.9,-243.91 -160.2,-526.29 -151.72,-619.42 11.33,-124.22 23.28,-255 120,-339.29 130.16,-113.05 366.02,-101.33 592.5,30" /><path
         id="path264"
         style="fill:none;stroke:#000000;stroke-width:29.25;stroke-linecap:round;stroke-linejoin:round;stroke-miterlimit:4;stroke-dasharray:none;stroke-opacity:1"
         d="m 5896.8,6663.28 c -20.32,2.7 -511.88,59.42 -788.87,-303.98 -185.9,-243.91 -160.2,-526.29 -151.72,-619.42 11.33,-124.22 23.28,-255 120,-339.29 130.16,-113.05 366.02,-101.33 592.5,30" /><path
         id="path266"
         style="fill:none;stroke:#000000;stroke-width:29.25;stroke-linecap:round;stroke-linejoin:round;stroke-miterlimit:4;stroke-dasharray:none;stroke-opacity:1"
         d="m 5105.39,3998.36 253.95,1293.4" /><path
         id="path268"
         style="fill:none;stroke:#000000;stroke-width:29.25;stroke-linecap:round;stroke-linejoin:round;stroke-miterlimit:4;stroke-dasharray:none;stroke-opacity:1"
         d="m 5080.78,5419.18 -214.76,-1271.48 373.63,-233.01 261.99,1309.88 -412.5,194.61" /><path
         id="path270"
         style="fill:#cccccc;fill-opacity:1;fill-rule:nonzero;stroke:none"
         d="m 6373.52,6882.34 c -142.04,21.57 -285.82,29.34 -429.34,23.17 -233.16,-9.96 -361.8,-9.42 -494.06,-87.58 -128.64,-76.05 -195.39,-183.16 -227.66,-236.17 -112.5,-185.63 -77.15,-301.53 -107.38,-949.14 -4.42,-94.73 -5.78,-222.07 -8.63,-476.68 -3.09,-281.72 -2.7,-396.25 72.96,-442.5 56.96,-34.73 112.5,-5.04 262,-17.19 92.5,-7.54 183.55,-27.73 270.58,-60 l -47.22,1503.16 c 0,26.33 2.14,453.68 335,652.5 147.61,88.48 296.32,93.83 373.75,90.43 z" /><path
         id="path272"
         style="fill:none;stroke:#000000;stroke-width:29.25;stroke-linecap:round;stroke-linejoin:round;stroke-miterlimit:4;stroke-dasharray:none;stroke-opacity:1"
         d="m 6373.52,6882.34 c -142.04,21.57 -285.82,29.34 -429.34,23.17 -233.16,-9.96 -361.8,-9.42 -494.06,-87.58 -128.64,-76.05 -195.39,-183.16 -227.66,-236.17 -112.5,-185.63 -77.15,-301.53 -107.38,-949.14 -4.42,-94.73 -5.78,-222.07 -8.63,-476.68 -3.09,-281.72 -2.7,-396.25 72.96,-442.5 56.96,-34.73 112.5,-5.04 262,-17.19 92.5,-7.54 183.55,-27.73 270.58,-60 l -47.22,1503.16 c 0,26.33 2.14,453.68 335,652.5 147.61,88.48 296.32,93.83 373.75,90.43 z" /><path
         id="path274"
         style="fill:#cccccc;fill-opacity:1;fill-rule:nonzero;stroke:none"
         d="m 6373.52,6882.34 c 76.44,-50.86 143.78,-114.25 199.18,-187.5 161.4,-215.15 113.94,-385.5 183,-976.25 41.02,-350.5 73.95,-429.53 34.34,-609.84 -33.24,-147.11 -96.06,-285.94 -184.65,-408.01 l -184.65,210.47 -708.59,-274.88 c -16.56,322.5 -25.86,659.02 -25.78,1009.26 0,251.05 4.65,494.88 13.94,731.4 11.17,46.8 71.76,278.63 299.53,415.28 112.78,66.68 242.89,98.04 373.68,90.07 z" /><path
         id="path276"
         style="fill:none;stroke:#000000;stroke-width:29.25;stroke-linecap:round;stroke-linejoin:round;stroke-miterlimit:4;stroke-dasharray:none;stroke-opacity:1"
         d="m 6373.52,6882.34 c 76.44,-50.86 143.78,-114.25 199.18,-187.5 161.4,-215.15 113.94,-385.5 183,-976.25 41.02,-350.5 73.95,-429.53 34.34,-609.84 -33.24,-147.11 -96.06,-285.94 -184.65,-408.01 l -184.65,210.47 -708.59,-274.88 c -16.56,322.5 -25.86,659.02 -25.78,1009.26 0,251.05 4.65,494.88 13.94,731.4 11.17,46.8 71.76,278.63 299.53,415.28 112.78,66.68 242.89,98.04 373.68,90.07 z" /><path
         id="path278"
         style="fill:#999999;fill-opacity:1;fill-rule:nonzero;stroke:none"
         d="m 6111.52,4803.63 -39.45,1376.25 c 2.46,69.26 52.5,126.33 116.8,135.47 59.18,7.23 116.33,-24.49 141.44,-78.59 l 72.97,-1328.4" /><path
         id="path280"
         style="fill:none;stroke:#000000;stroke-width:29.54999924;stroke-linecap:round;stroke-linejoin:round;stroke-miterlimit:4;stroke-dasharray:none;stroke-opacity:1"
         d="m 6111.52,4803.63 -39.45,1376.25 c 2.46,69.26 52.5,126.33 116.8,135.47 59.18,7.23 116.33,-24.49 141.44,-78.59 l 72.97,-1328.4" /><path
         id="path282"
         style="fill:#cccccc;fill-opacity:1;fill-rule:nonzero;stroke:none"
         d="m 5618.98,2999.84 -246.21,-165 818.17,-156.75 c 294.68,91.52 568.36,240.39 805.27,438.04 -123.01,72.15 -261.13,114.69 -403.4,124.22" /><path
         id="path284"
         style="fill:none;stroke:#000000;stroke-width:29.54999924;stroke-linecap:round;stroke-linejoin:round;stroke-miterlimit:4;stroke-dasharray:none;stroke-opacity:1"
         d="m 5618.98,2999.84 -246.21,-165 818.17,-156.75 c 294.68,91.52 568.36,240.39 805.27,438.04 -123.01,72.15 -261.13,114.69 -403.4,124.22" /><path
         id="path286"
         style="fill:#333399;fill-opacity:1;fill-rule:nonzero;stroke:none"
         d="m 6072.07,5890.23 451.72,-106.48 47.26,-799.73 -459.53,-180.39 z" /><path
         id="path288"
         style="fill:none;stroke:#000000;stroke-width:29.54999924;stroke-linecap:round;stroke-linejoin:round;stroke-miterlimit:4;stroke-dasharray:none;stroke-opacity:1"
         d="m 6072.07,5890.23 451.72,-106.48 47.26,-799.73 -459.53,-180.39 z" /><path
         id="path290"
         style="fill:#333399;fill-opacity:1;fill-rule:nonzero;stroke:none"
         d="m 6130.78,4811.21 88.13,-1880.08 c 71.13,-31.56 152.26,-31.56 223.36,0 l -109.5,1692.15 238.36,367.5 z" /><path
         id="path292"
         style="fill:none;stroke:#000000;stroke-width:29.54999924;stroke-linecap:round;stroke-linejoin:round;stroke-miterlimit:4;stroke-dasharray:none;stroke-opacity:1"
         d="m 6130.78,4811.21 88.13,-1880.08 c 71.13,-31.56 152.26,-31.56 223.36,0 l -109.5,1692.15 238.36,367.5 z" /><path
         id="path294"
         style="fill:#cccccc;fill-opacity:1;fill-rule:nonzero;stroke:none"
         d="m 5171.25,4719.14 336.6,-322.5 388.95,-39.45 -184.65,279.14 c -174.69,56.37 -357.27,84.33 -540.82,82.93 z" /><path
         id="path296"
         style="fill:none;stroke:#000000;stroke-width:29.54999924;stroke-linecap:round;stroke-linejoin:round;stroke-miterlimit:4;stroke-dasharray:none;stroke-opacity:1"
         d="m 5171.25,4719.14 336.6,-322.5 388.95,-39.45 -184.65,279.14 c -174.69,56.37 -357.27,84.33 -540.82,82.93 z" /><path
         id="path298"
         style="fill:#cccccc;fill-opacity:1;fill-rule:nonzero;stroke:none"
         d="m 5896.8,4357.03 251.4,83.01 -20.39,357.23 -415.43,-161.1 z" /><path
         id="path300"
         style="fill:none;stroke:#000000;stroke-width:29.54999924;stroke-linecap:round;stroke-linejoin:round;stroke-miterlimit:4;stroke-dasharray:none;stroke-opacity:1"
         d="m 5896.8,4357.03 251.4,83.01 -20.39,357.23 -415.43,-161.1 z" /><path
         id="path302"
         style="fill:#cccccc;fill-opacity:1;fill-rule:nonzero;stroke:none"
         d="m 5533.12,4393.95 c 56.65,-5.98 113.64,-11.76 170.94,-17.35 64.3,-6.29 128.21,-12.34 191.68,-18.08 l 129.85,-1474.57 c -136.21,-27.86 -277.78,-9.77 -402.62,51.36 z" /><path
         id="path304"
         style="fill:none;stroke:#000000;stroke-width:29.54999924;stroke-linecap:round;stroke-linejoin:round;stroke-miterlimit:4;stroke-dasharray:none;stroke-opacity:1"
         d="m 5533.12,4393.95 c 56.65,-5.98 113.64,-11.76 170.94,-17.35 64.3,-6.29 128.21,-12.34 191.68,-18.08 l 129.85,-1474.57 c -136.21,-27.86 -277.78,-9.77 -402.62,51.36 z" /><path
         id="path306"
         style="fill:#cccccc;fill-opacity:1;fill-rule:nonzero;stroke:none"
         d="m 6025.66,2883.87 193.25,47.26 -88.13,1526.84 -234.22,-107.93 z" /><path
         id="path308"
         style="fill:none;stroke:#000000;stroke-width:29.54999924;stroke-linecap:round;stroke-linejoin:round;stroke-miterlimit:4;stroke-dasharray:none;stroke-opacity:1"
         d="m 6025.66,2883.87 193.25,47.26 -88.13,1526.84 -234.22,-107.93 z" /><path
         id="path310"
         style="fill:#cccccc;fill-opacity:1;fill-rule:nonzero;stroke:none"
         d="m 6589.14,4719.14 -185.59,189.22 272.74,180.9" /><path
         id="path312"
         style="fill:none;stroke:#000000;stroke-width:29.54999924;stroke-linecap:round;stroke-linejoin:round;stroke-miterlimit:4;stroke-dasharray:none;stroke-opacity:1"
         d="m 6589.14,4719.14 -185.59,189.22 272.74,180.9" /><path
         id="path314"
         style="fill:#cccccc;fill-opacity:1;fill-rule:nonzero;stroke:none"
         d="m 6589.14,4719.14 54.96,-1703.71 -201.83,-84.3 -111.96,1700.78 141.72,206.41 z" /><path
         id="path316"
         style="fill:none;stroke:#000000;stroke-width:29.54999924;stroke-linecap:round;stroke-linejoin:round;stroke-miterlimit:4;stroke-dasharray:none;stroke-opacity:1"
         d="m 6589.14,4719.14 54.96,-1703.71 -201.83,-84.3 -111.96,1700.78 141.72,206.41 z" /><path
         id="path318"
         style="fill:#cccccc;fill-opacity:1;fill-rule:nonzero;stroke:none"
         d="m 6571.05,4739.77 -136.36,-175.51 v -347.93 h -76.88 l -27.3,415.58 141.76,206.41 z" /><path
         id="path320"
         style="fill:none;stroke:#000000;stroke-width:29.54999924;stroke-linecap:round;stroke-linejoin:round;stroke-miterlimit:4;stroke-dasharray:none;stroke-opacity:1"
         d="m 6571.05,4739.77 -136.36,-175.51 v -347.93 h -76.88 l -27.3,415.58 141.76,206.41 z" /><path
         id="path322"
         style="fill:#cccccc;fill-opacity:1;fill-rule:nonzero;stroke:none"
         d="m 6357.81,4216.33 c 51.57,17.3 108.24,-2.85 137.27,-48.79 29.06,-45.98 22.97,-105.82 -14.77,-144.92 -21.48,-23.01 -36.6,-51.14 -43.94,-81.68 -23.87,-103.28 59.22,-186.68 65.97,-193.28 l 8.64,-125.12 28.94,-650.39 -91.8,-38.32 z" /><path
         id="path324"
         style="fill:none;stroke:#000000;stroke-width:29.54999924;stroke-linecap:round;stroke-linejoin:round;stroke-miterlimit:4;stroke-dasharray:none;stroke-opacity:1"
         d="m 6357.81,4216.33 c 51.57,17.3 108.24,-2.85 137.27,-48.79 29.06,-45.98 22.97,-105.82 -14.77,-144.92 -21.48,-23.01 -36.6,-51.14 -43.94,-81.68 -23.87,-103.28 59.22,-186.68 65.97,-193.28 l 8.64,-125.12 28.94,-650.39 -91.8,-38.32 z" /><path
         id="path326"
         style="fill:#cccccc;fill-opacity:1;fill-rule:nonzero;stroke:none"
         d="m 5383.2,2832.5 34.73,-1209.06 788.09,-139.57 -15.08,1193.9 z" /><path
         id="path328"
         style="fill:none;stroke:#000000;stroke-width:29.54999924;stroke-linecap:round;stroke-linejoin:round;stroke-miterlimit:4;stroke-dasharray:none;stroke-opacity:1"
         d="m 5383.2,2832.5 34.73,-1209.06 788.09,-139.57 -15.08,1193.9 z" /><path
         id="path330"
         style="fill:#cccccc;fill-opacity:1;fill-rule:nonzero;stroke:none"
         d="m 6274.73,1483.87 760.19,309.22 -38.63,1322.77 c -233.2,-204.49 -507.89,-356.17 -805.2,-444.61 l 15,-1196.02" /><path
         id="path332"
         style="fill:none;stroke:#000000;stroke-width:29.54999924;stroke-linecap:round;stroke-linejoin:round;stroke-miterlimit:4;stroke-dasharray:none;stroke-opacity:1"
         d="m 6274.73,1483.87 760.19,309.22 -38.63,1322.77 c -233.2,-204.49 -507.89,-356.17 -805.2,-444.61 l 15,-1196.02" /><path
         id="path334"
         style="fill:#333399;fill-opacity:1;fill-rule:nonzero;stroke:none"
         d="M 6191.02,2353.48 H 5974.06 V 2117.3 h 223.95 z" /><path
         id="path336"
         style="fill:none;stroke:#000000;stroke-width:29.54999924;stroke-linecap:round;stroke-linejoin:round;stroke-miterlimit:4;stroke-dasharray:none;stroke-opacity:1"
         d="M 6191.02,2353.48 H 5974.06 V 2117.3 h 223.95 z" /><path
         id="path338"
         style="fill:#999999;fill-opacity:1;fill-rule:nonzero;stroke:none"
         d="m 2566.48,1545.66 -133.78,-61.79 -465.75,-833.21 206.33,-22.5 485.39,808.6 z" /><path
         id="path340"
         style="fill:none;stroke:#000000;stroke-width:29.54999924;stroke-linecap:round;stroke-linejoin:round;stroke-miterlimit:4;stroke-dasharray:none;stroke-opacity:1"
         d="m 2566.48,1545.66 -133.78,-61.79 -465.75,-833.21 206.33,-22.5 485.39,808.6 z" /><path
         id="path342"
         style="fill:#999999;fill-opacity:1;fill-rule:nonzero;stroke:none"
         d="m 5974.06,2117.15 c -8.44,-126.76 -95.04,-234.77 -216.91,-270.59 h -345.67 l 6.45,-223.36 788.09,-139.57 -8.01,633.52 z" /><path
         id="path344"
         style="fill:none;stroke:#000000;stroke-width:29.54999924;stroke-linecap:round;stroke-linejoin:round;stroke-miterlimit:4;stroke-dasharray:none;stroke-opacity:1"
         d="m 5974.06,2117.15 c -8.44,-126.76 -95.04,-234.77 -216.91,-270.59 h -345.67 l 6.45,-223.36 788.09,-139.57 -8.01,633.52 z" /><path
         id="path346"
         style="fill:#999999;fill-opacity:1;fill-rule:nonzero;stroke:none"
         d="m 6539.92,1810.23 c 3.32,-56.25 -23.79,-124.1 -78.36,-152.46 -15.19,-8.75 -32.46,-13.2 -49.96,-12.89 -65.7,2.85 -126.68,85.63 -128.32,165 -1.44,68.99 40.59,154.07 106.41,163.13 73.59,10.35 145.35,-80.86 150.23,-162.78 z" /><path
         id="path348"
         style="fill:none;stroke:#000000;stroke-width:29.54999924;stroke-linecap:round;stroke-linejoin:round;stroke-miterlimit:4;stroke-dasharray:none;stroke-opacity:1"
         d="m 6539.92,1810.23 c 3.32,-56.25 -23.79,-124.1 -78.36,-152.46 -15.19,-8.75 -32.46,-13.2 -49.96,-12.89 -65.7,2.85 -126.68,85.63 -128.32,165 -1.44,68.99 40.59,154.07 106.41,163.13 73.59,10.35 145.35,-80.86 150.23,-162.78 z" /><path
         id="path350"
         style="fill:#cccccc;fill-opacity:1;fill-rule:nonzero;stroke:none"
         d="m 7031.68,1902.42 c 91.84,32.66 167.07,100.2 209.34,188.05 9.76,43.94 6.75,89.76 -8.64,132.07 -22.03,57.23 -64.88,104.02 -120,131.01 l -84.72,19.07" /><path
         id="path352"
         style="fill:none;stroke:#000000;stroke-width:29.54999924;stroke-linecap:round;stroke-linejoin:round;stroke-miterlimit:4;stroke-dasharray:none;stroke-opacity:1"
         d="m 7031.68,1902.42 c 91.84,32.66 167.07,100.2 209.34,188.05 9.76,43.94 6.75,89.76 -8.64,132.07 -22.03,57.23 -64.88,104.02 -120,131.01 l -84.72,19.07" /><path
         id="path354"
         style="fill:#333399;fill-opacity:1;fill-rule:nonzero;stroke:none"
         d="m 6592.81,2071.09 c 5,0 101.6,-1.25 152.46,-84.8 48.28,-79.38 11.57,-161.25 8.64,-167.5 l 280.93,125.86 c 5.67,39.26 5.51,79.14 -0.43,118.36 -5.43,35.47 -9.76,63.75 -27.69,90 -39.69,57.89 -118.05,64.72 -139.34,65.94 z" /><path
         id="path356"
         style="fill:none;stroke:#000000;stroke-width:29.54999924;stroke-linecap:round;stroke-linejoin:round;stroke-miterlimit:4;stroke-dasharray:none;stroke-opacity:1"
         d="m 6592.81,2071.09 c 5,0 101.6,-1.25 152.46,-84.8 48.28,-79.38 11.57,-161.25 8.64,-167.5 l 280.93,125.86 c 5.67,39.26 5.51,79.14 -0.43,118.36 -5.43,35.47 -9.76,63.75 -27.69,90 -39.69,57.89 -118.05,64.72 -139.34,65.94 z" /><path
         id="path358"
         style="fill:#cccccc;fill-opacity:1;fill-rule:nonzero;stroke:none"
         d="M 4758.67,478.871 5974.06,231.879 6268.28,1475.23 5417.93,1623.44 Z" /><path
         id="path360"
         style="fill:none;stroke:#000000;stroke-width:29.54999924;stroke-linecap:round;stroke-linejoin:round;stroke-miterlimit:4;stroke-dasharray:none;stroke-opacity:1"
         d="M 4758.67,478.871 5974.06,231.879 6268.28,1475.23 5417.93,1623.44 Z" /><path
         id="path362"
         style="fill:#cccccc;fill-opacity:1;fill-rule:nonzero;stroke:none"
         d="M 4758.67,478.871 4962.66,231.879 6079.26,17.1523 5960.86,234.57 Z" /><path
         id="path364"
         style="fill:none;stroke:#000000;stroke-width:29.54999924;stroke-linecap:round;stroke-linejoin:round;stroke-miterlimit:4;stroke-dasharray:none;stroke-opacity:1"
         d="M 4758.67,478.871 4962.66,231.879 6079.26,17.1523 5960.86,234.57 Z" /><path
         id="path366"
         style="fill:#cccccc;fill-opacity:1;fill-rule:nonzero;stroke:none"
         d="m 6079.26,17.1523 1475.27,590.5467 161.02,279.141 -1755,-652.5 z" /><path
         id="path368"
         style="fill:none;stroke:#000000;stroke-width:29.54999924;stroke-linecap:round;stroke-linejoin:round;stroke-miterlimit:4;stroke-dasharray:none;stroke-opacity:1"
         d="m 6079.26,17.1523 1475.27,590.5467 161.02,279.141 -1755,-652.5 z" /><path
         id="path370"
         style="fill:#cccccc;fill-opacity:1;fill-rule:nonzero;stroke:none"
         d="m 5974.06,231.879 300.67,1251.991 777.38,316.72 663.51,-913.75 z" /><path
         id="path372"
         style="fill:none;stroke:#000000;stroke-width:29.54999924;stroke-linecap:round;stroke-linejoin:round;stroke-miterlimit:4;stroke-dasharray:none;stroke-opacity:1"
         d="m 5974.06,231.879 300.67,1251.991 777.38,316.72 663.51,-913.75 z" /><path
         id="path374"
         style="fill:#cccccc;fill-opacity:1;fill-rule:nonzero;stroke:none"
         d="m 5399.53,2262.97 c -139.8,-62.31 -264.61,-153.87 -365.98,-268.52 l -61.64,-1145.387 469.65,767.927 z" /><path
         id="path376"
         style="fill:none;stroke:#000000;stroke-width:29.54999924;stroke-linecap:round;stroke-linejoin:round;stroke-miterlimit:4;stroke-dasharray:none;stroke-opacity:1"
         d="m 5399.53,2262.97 c -139.8,-62.31 -264.61,-153.87 -365.98,-268.52 l -61.64,-1145.387 469.65,767.927 z" /><path
         id="path378"
         style="fill:#cccccc;fill-opacity:1;fill-rule:nonzero;stroke:none"
         d="m 6457.27,550.781 c 38.86,395.699 263.32,675.429 505.74,698.989 47.61,4.64 149.61,4.57 278.63,-78.91" /><path
         id="path380"
         style="fill:none;stroke:#000000;stroke-width:29.54999924;stroke-linecap:round;stroke-linejoin:round;stroke-miterlimit:4;stroke-dasharray:none;stroke-opacity:1"
         d="m 6457.27,550.781 c 38.86,395.699 263.32,675.429 505.74,698.989 47.61,4.64 149.61,4.57 278.63,-78.91" /><path
         id="path382"
         style="fill:none;stroke:#000000;stroke-width:29.54999924;stroke-linecap:round;stroke-linejoin:round;stroke-miterlimit:4;stroke-dasharray:none;stroke-opacity:1"
         d="M 5662.81,1580.66 5256.6,697.852 c 100.63,-51.832 213.4,-75.551 326.41,-68.711 l 391.05,895.509 z" /><path
         id="path384"
         style="fill:#cc9933;fill-opacity:1;fill-rule:nonzero;stroke:none"
         d="m 4971.91,1187.15 c 159.07,85.35 333.09,139.3 512.54,158.94 98.01,10.47 196.88,10.47 294.89,0 10.15,-24.45 13.63,-51.13 10.07,-77.34 -8.79,-61.95 -55.07,-96.37 -64.45,-103.05 -268.83,13.95 -537.07,-37.54 -781.64,-150 -21.25,27.15 -29.88,62.15 -23.63,96.06 6.68,31.09 25.47,58.24 52.22,75.39 z" /><path
         id="path386"
         style="fill:none;stroke:#000000;stroke-width:29.54999924;stroke-linecap:round;stroke-linejoin:round;stroke-miterlimit:4;stroke-dasharray:none;stroke-opacity:1"
         d="m 4971.91,1187.15 c 159.07,85.35 333.09,139.3 512.54,158.94 98.01,10.47 196.88,10.47 294.89,0 10.15,-24.45 13.63,-51.13 10.07,-77.34 -8.79,-61.95 -55.07,-96.37 -64.45,-103.05 -268.83,13.95 -537.07,-37.54 -781.64,-150 -21.25,27.15 -29.88,62.15 -23.63,96.06 6.68,31.09 25.47,58.24 52.22,75.39 z" /><path
         id="path388"
         style="fill:#cc9933;fill-opacity:1;fill-rule:nonzero;stroke:none"
         d="m 4943.32,1016.21 c -42.97,-20.23 -68.71,-65.159 -64.41,-112.499 6.13,-54.219 53.55,-81.051 58.2,-83.59 162.03,30.231 329.57,3.75 474.37,-75 46.96,-19.961 100.12,-6.84 128.83,30 35.71,45.82 13.87,103.039 12.93,105.5 -175.7,127.819 -396.56,176.879 -609.84,135.509 z" /><path
         id="path390"
         style="fill:none;stroke:#000000;stroke-width:29.54999924;stroke-linecap:round;stroke-linejoin:round;stroke-miterlimit:4;stroke-dasharray:none;stroke-opacity:1"
         d="m 4943.32,1016.21 c -42.97,-20.23 -68.71,-65.159 -64.41,-112.499 6.13,-54.219 53.55,-81.051 58.2,-83.59 162.03,30.231 329.57,3.75 474.37,-75 46.96,-19.961 100.12,-6.84 128.83,30 35.71,45.82 13.87,103.039 12.93,105.5 -175.7,127.819 -396.56,176.879 -609.84,135.509 z" /><path
         id="path392"
         style="fill:none;stroke:#000000;stroke-width:29.54999924;stroke-linecap:round;stroke-linejoin:round;stroke-miterlimit:4;stroke-dasharray:none;stroke-opacity:1"
         d="m 5418.98,1916.52 c -98.12,73.05 -232.57,73.05 -330.7,0" /><path
         id="path394"
         style="fill:#cccccc;fill-opacity:1;fill-rule:nonzero;stroke:none"
         d="m 2091.6,1556.02 341.02,-72.23 -465.74,-833.2 206.32,-22.5 485.39,808.59 404.18,-51.52 -348,-1137.07 -1359.65,302.769 z" /><path
         id="path396"
         style="fill:none;stroke:#000000;stroke-width:29.54999924;stroke-linecap:round;stroke-linejoin:round;stroke-miterlimit:4;stroke-dasharray:none;stroke-opacity:1"
         d="m 2091.6,1556.02 341.02,-72.23 -465.74,-833.2 206.32,-22.5 485.39,808.59 404.18,-51.52 -348,-1137.07 -1359.65,302.769 z" /><path
         id="path398"
         style="fill:#cccccc;fill-opacity:1;fill-rule:nonzero;stroke:none"
         d="m 2698.36,251.68 1530,631.48 -650.55,720.9 -514.88,-218.98 z" /><path
         id="path400"
         style="fill:none;stroke:#000000;stroke-width:29.54999924;stroke-linecap:round;stroke-linejoin:round;stroke-miterlimit:4;stroke-dasharray:none;stroke-opacity:1"
         d="m 2698.36,251.68 1530,631.48 -650.55,720.9 -514.88,-218.98 z" /><path
         id="path402"
         style="fill:#cccccc;fill-opacity:1;fill-rule:nonzero;stroke:none"
         d="m 6514.8,435.27 924.97,356.492 -201.45,380.388 c -38.48,15 -167.27,60 -314.02,9.69 -226.96,-78.4 -289.96,-314.34 -294.77,-333.399 z" /><path
         id="path404"
         style="fill:none;stroke:#000000;stroke-width:29.54999924;stroke-linecap:round;stroke-linejoin:round;stroke-miterlimit:4;stroke-dasharray:none;stroke-opacity:1"
         d="m 6514.8,435.27 924.97,356.492 -201.45,380.388 c -38.48,15 -167.27,60 -314.02,9.69 -226.96,-78.4 -289.96,-314.34 -294.77,-333.399 z" /><path
         id="path406"
         style="fill:#999999;fill-opacity:1;fill-rule:nonzero;stroke:none"
         d="m 2568.28,1700.08 12.03,-379.42 83.75,130.43 367.5,165.9 -17.69,16.1 c -151.14,-1.49 -301.57,21.13 -445.59,66.99 z" /><path
         id="path408"
         style="fill:none;stroke:#000000;stroke-width:29.54999924;stroke-linecap:round;stroke-linejoin:round;stroke-miterlimit:4;stroke-dasharray:none;stroke-opacity:1"
         d="m 2568.28,1700.08 12.03,-379.42 83.75,130.43 367.5,165.9 -17.69,16.1 c -151.14,-1.49 -301.57,21.13 -445.59,66.99 z" /><path
         id="path410"
         style="fill:#cccccc;fill-opacity:1;fill-rule:nonzero;stroke:none"
         d="m 1355.04,550.781 c -19.02,-69.879 13.12,-143.59 77.3,-177.152 L 2717.54,80.5117 2698.36,251.68 Z" /><path
         id="path412"
         style="fill:none;stroke:#000000;stroke-width:29.54999924;stroke-linecap:round;stroke-linejoin:round;stroke-miterlimit:4;stroke-dasharray:none;stroke-opacity:1"
         d="m 1355.04,550.781 c -19.02,-69.879 13.12,-143.59 77.3,-177.152 L 2717.54,80.5117 2698.36,251.68 Z" /><path
         id="path414"
         style="fill:#cccccc;fill-opacity:1;fill-rule:nonzero;stroke:none"
         d="m 2698.36,251.68 1530,631.48 -67.5,-200.308 L 2717.54,80.5117 Z" /><path
         id="path416"
         style="fill:none;stroke:#000000;stroke-width:29.54999924;stroke-linecap:round;stroke-linejoin:round;stroke-miterlimit:4;stroke-dasharray:none;stroke-opacity:1"
         d="m 2698.36,251.68 1530,631.48 -67.5,-200.308 L 2717.54,80.5117 Z" /><path
         id="path418"
         style="fill:none;stroke:#000000;stroke-width:29.54999924;stroke-linecap:round;stroke-linejoin:round;stroke-miterlimit:4;stroke-dasharray:none;stroke-opacity:1"
         d="m 3882.54,758.012 c -3.48,40.777 -23.05,219.801 -171.84,334.998 -32.42,25.08 -147.81,114.37 -274.88,81.6 -100.7,-25.94 -153.28,-114.3 -201.95,-199.02 -108.75,-189.141 -130.51,-388.051 -125.63,-540" /><path
         id="path420"
         style="fill:none;stroke:#000000;stroke-width:29.54999924;stroke-linecap:round;stroke-linejoin:round;stroke-miterlimit:4;stroke-dasharray:none;stroke-opacity:1"
         d="m 3662.62,1127.15 c -27.66,23.08 -94.65,72.3 -188.09,77.19 -178.36,9.29 -291.25,-151.53 -311.41,-181.88 -48,-74.019 -72.42,-160.897 -70.03,-249.101" /><path
         id="path422"
         style="fill:none;stroke:#000000;stroke-width:25.79999924;stroke-linecap:round;stroke-linejoin:round;stroke-miterlimit:4;stroke-dasharray:none;stroke-opacity:1"
         d="m 1073.55,3558.2 -24.53,-172.5 592.5,-811.72 h 193.28 l 238.36,-141.75 51.53,182.38 -265.2,136.84 h -154.45 z" /><path
         id="path424"
         style="fill:#cccccc;fill-opacity:1;fill-rule:nonzero;stroke:none"
         d="m 1279.57,3294.65 -442.031,165 210.431,111.68 z" /><path
         id="path426"
         style="fill:none;stroke:#000000;stroke-width:25.79999924;stroke-linecap:round;stroke-linejoin:round;stroke-miterlimit:4;stroke-dasharray:none;stroke-opacity:1"
         d="m 1279.57,3294.65 -442.031,165 210.431,111.68 z" /><path
         id="path428"
         style="fill:#cccccc;fill-opacity:1;fill-rule:nonzero;stroke:none"
         d="M 837.539,3459.41 734.488,2397.5 l 695.742,-220.12 83.95,817.66 -234.61,299.92 z" /><path
         id="path430"
         style="fill:none;stroke:#000000;stroke-width:25.79999924;stroke-linecap:round;stroke-linejoin:round;stroke-miterlimit:4;stroke-dasharray:none;stroke-opacity:1"
         d="M 837.539,3459.41 734.488,2397.5 l 695.742,-220.12 83.95,817.66 -234.61,299.92 z" /><path
         id="path432"
         style="fill:#333399;fill-opacity:1;fill-rule:nonzero;stroke:none"
         d="m 802.031,3093.87 247.499,-55.35 -35.66,-205.94 -231.6,57.07 z" /><path
         id="path434"
         style="fill:none;stroke:#000000;stroke-width:25.79999924;stroke-linecap:round;stroke-linejoin:round;stroke-miterlimit:4;stroke-dasharray:none;stroke-opacity:1"
         d="m 802.031,3093.87 247.499,-55.35 -35.66,-205.94 -231.6,57.07 z" /><path
         id="path436"
         style="fill:#cccccc;fill-opacity:1;fill-rule:nonzero;stroke:none"
         d="m 808.051,2584.49 c 0,-92.03 -53.949,-166.6 -120.512,-166.6 -66.559,0 -120.551,74.57 -120.551,166.6 0,91.99 53.992,166.56 120.551,166.56 66.563,0 120.512,-74.57 120.512,-166.56 z" /><path
         id="path438"
         style="fill:none;stroke:#000000;stroke-width:25.79999924;stroke-linecap:round;stroke-linejoin:round;stroke-miterlimit:4;stroke-dasharray:none;stroke-opacity:1"
         d="m 808.051,2584.49 c 0,-92.03 -53.949,-166.6 -120.512,-166.6 -66.559,0 -120.551,74.57 -120.551,166.6 0,91.99 53.992,166.56 120.551,166.56 66.563,0 120.512,-74.57 120.512,-166.56 z" /><path
         id="path440"
         style="fill:#cccccc;fill-opacity:1;fill-rule:nonzero;stroke:none"
         d="m 1013.55,2831.84 c -4.96,-31.1 -6.05,-62.66 -3.16,-93.99 3.32,-35.55 8.56,-86.48 41.99,-137.85 25.08,-37.62 60.16,-67.42 101.33,-86.02 l 302.03,-87.96 -25.51,-248.72 -695.742,220.12 47.782,492.23 z" /><path
         id="path442"
         style="fill:none;stroke:#000000;stroke-width:25.79999924;stroke-linecap:round;stroke-linejoin:round;stroke-miterlimit:4;stroke-dasharray:none;stroke-opacity:1"
         d="m 1013.55,2831.84 c -4.96,-31.1 -6.05,-62.66 -3.16,-93.99 3.32,-35.55 8.56,-86.48 41.99,-137.85 25.08,-37.62 60.16,-67.42 101.33,-86.02 l 302.03,-87.96 -25.51,-248.72 -695.742,220.12 47.782,492.23 z" /><path
         id="path444"
         style="fill:#cccccc;fill-opacity:1;fill-rule:nonzero;stroke:none"
         d="m 1430.16,2177.15 h 198.63 l 48.28,396.29 h -35.39 l -150,205.15 z" /><path
         id="path446"
         style="fill:none;stroke:#000000;stroke-width:25.79999924;stroke-linecap:round;stroke-linejoin:round;stroke-miterlimit:4;stroke-dasharray:none;stroke-opacity:1"
         d="m 1430.16,2177.15 h 198.63 l 48.28,396.29 h -35.39 l -150,205.15 z" /><path
         id="path448"
         style="fill:#cccccc;fill-opacity:1;fill-rule:nonzero;stroke:none"
         d="M 734.488,2417.89 12.8906,1410.82 1095.08,1067.23 l 419.1,1090.93 z" /><path
         id="path450"
         style="fill:none;stroke:#000000;stroke-width:25.79999924;stroke-linecap:round;stroke-linejoin:round;stroke-miterlimit:4;stroke-dasharray:none;stroke-opacity:1"
         d="M 734.488,2417.89 12.8906,1410.82 1095.08,1067.23 l 419.1,1090.93 z" /><path
         id="path452"
         style="fill:#cccccc;fill-opacity:1;fill-rule:nonzero;stroke:none"
         d="m 1514.18,2158.16 114.69,19.22 -26.88,-693.51 240,-73.01 154.96,16.29 -178.28,-220.27 -723.36,-139.73 z" /><path
         id="path454"
         style="fill:none;stroke:#000000;stroke-width:25.79999924;stroke-linecap:round;stroke-linejoin:round;stroke-miterlimit:4;stroke-dasharray:none;stroke-opacity:1"
         d="m 1514.18,2158.16 114.69,19.22 -26.88,-693.51 240,-73.01 154.96,16.29 -178.28,-220.27 -723.36,-139.73 z" /><path
         id="path456"
         style="fill:#cccccc;fill-opacity:1;fill-rule:nonzero;stroke:none"
         d="M 981.051,2335.78 536.91,1533.71 763.551,1462.34 1222.81,2255.16 Z" /><path
         id="path458"
         style="fill:none;stroke:#000000;stroke-width:25.79999924;stroke-linecap:round;stroke-linejoin:round;stroke-miterlimit:4;stroke-dasharray:none;stroke-opacity:1"
         d="M 981.051,2335.78 536.91,1533.71 763.551,1462.34 1222.81,2255.16 Z" /><path
         id="path460"
         style="fill:#cccccc;fill-opacity:1;fill-rule:nonzero;stroke:none"
         d="m 1601.99,1483.87 240,-73.01 67.5,1075.9 c -5.7,10.27 -43.47,76.21 -116.4,86.99 -16.57,2.46 -62.47,9.22 -96.61,-22.5 -19.88,-19.88 -31.13,-46.84 -31.17,-75 -15,-111.37 -28.12,-227.38 -38.32,-347.7 -19.45,-228.43 -26.48,-443.98 -25,-644.68 z" /><path
         id="path462"
         style="fill:none;stroke:#000000;stroke-width:25.79999924;stroke-linecap:round;stroke-linejoin:round;stroke-miterlimit:4;stroke-dasharray:none;stroke-opacity:1"
         d="m 1601.99,1483.87 240,-73.01 67.5,1075.9 c -5.7,10.27 -43.47,76.21 -116.4,86.99 -16.57,2.46 -62.47,9.22 -96.61,-22.5 -19.88,-19.88 -31.13,-46.84 -31.17,-75 -15,-111.37 -28.12,-227.38 -38.32,-347.7 -19.45,-228.43 -26.48,-443.98 -25,-644.68 z" /><path
         id="path464"
         style="fill:#cc9933;fill-opacity:1;fill-rule:nonzero;stroke:none"
         d="m 842.93,1935.86 c -1.801,27.11 6.172,53.94 22.5,75.62 21.289,26.49 50.16,33.44 78.75,40.36 38.121,9.02 77.81,9.02 115.94,0 130.43,-95.67 284.88,-153.09 446.09,-165.9 l 225.47,-9.69 c 35.86,-8.98 61.95,-39.84 64.88,-76.72 2.89,-36.83 -18.01,-71.41 -51.99,-85.94 l -479.53,4.85 c -107.5,24.72 -209.96,67.65 -302.931,126.91 -42.07,26.99 -81.91,57.27 -119.179,90.51 z" /><path
         id="path466"
         style="fill:none;stroke:#000000;stroke-width:25.79999924;stroke-linecap:round;stroke-linejoin:round;stroke-miterlimit:4;stroke-dasharray:none;stroke-opacity:1"
         d="m 842.93,1935.86 c -1.801,27.11 6.172,53.94 22.5,75.62 21.289,26.49 50.16,33.44 78.75,40.36 38.121,9.02 77.81,9.02 115.94,0 130.43,-95.67 284.88,-153.09 446.09,-165.9 l 225.47,-9.69 c 35.86,-8.98 61.95,-39.84 64.88,-76.72 2.89,-36.83 -18.01,-71.41 -51.99,-85.94 l -479.53,4.85 c -107.5,24.72 -209.96,67.65 -302.931,126.91 -42.07,26.99 -81.91,57.27 -119.179,90.51 z" /><path
         id="path468"
         style="fill:#cc9933;fill-opacity:1;fill-rule:nonzero;stroke:none"
         d="m 699.609,1615.31 c -35.699,29.03 -54.769,65.86 -45,91.8 12.379,33.24 67.5,37.5 103.051,40.27 67.5,5.28 117.891,-11.68 150,-20.9 117.89,-34.21 218.47,-31.13 339.8,-27.38 81.17,2.46 81.76,10.67 180.47,17.78 99.77,7.3 199.96,6.21 299.53,-3.25 30.7,-43.9 27.38,-103.08 -8.01,-143.32 -181.83,-63.47 -375.07,-87.61 -566.91,-70.86 -85.94,7.11 -171.091,21.68 -254.489,43.52 -68.012,18.63 -134.379,42.85 -198.442,72.34 z" /><path
         id="path470"
         style="fill:none;stroke:#000000;stroke-width:25.79999924;stroke-linecap:round;stroke-linejoin:round;stroke-miterlimit:4;stroke-dasharray:none;stroke-opacity:1"
         d="m 699.609,1615.31 c -35.699,29.03 -54.769,65.86 -45,91.8 12.379,33.24 67.5,37.5 103.051,40.27 67.5,5.28 117.891,-11.68 150,-20.9 117.89,-34.21 218.47,-31.13 339.8,-27.38 81.17,2.46 81.76,10.67 180.47,17.78 99.77,7.3 199.96,6.21 299.53,-3.25 30.7,-43.9 27.38,-103.08 -8.01,-143.32 -181.83,-63.47 -375.07,-87.61 -566.91,-70.86 -85.94,7.11 -171.091,21.68 -254.489,43.52 -68.012,18.63 -134.379,42.85 -198.442,72.34 z" /><path
         id="path472"
         style="fill:#cccccc;fill-opacity:1;fill-rule:nonzero;stroke:none"
         d="m 1681.41,2546.76 c 9.41,37.89 26.21,73.59 49.45,105 33.05,44.22 77.62,78.47 128.83,99.06" /><path
         id="path474"
         style="fill:none;stroke:#000000;stroke-width:25.79999924;stroke-linecap:round;stroke-linejoin:round;stroke-miterlimit:4;stroke-dasharray:none;stroke-opacity:1"
         d="m 1681.41,2546.76 c 9.41,37.89 26.21,73.59 49.45,105 33.05,44.22 77.62,78.47 128.83,99.06" /><path
         id="path476"
         style="fill:#999999;fill-opacity:1;fill-rule:nonzero;stroke:none"
         d="m 2202.07,2273.01 127.97,-10 45,168.9 23.67,185.79 -154.57,75 c 21.06,-18.09 38.52,-39.93 51.52,-64.42 43.95,-83.4 18.6,-169.41 9.69,-199.73 -18.51,-60.82 -54.41,-114.88 -103.28,-155.54 z" /><path
         id="path478"
         style="fill:none;stroke:#000000;stroke-width:25.79999924;stroke-linecap:round;stroke-linejoin:round;stroke-miterlimit:4;stroke-dasharray:none;stroke-opacity:1"
         d="m 2202.07,2273.01 127.97,-10 45,168.9 23.67,185.79 -154.57,75 c 21.06,-18.09 38.52,-39.93 51.52,-64.42 43.95,-83.4 18.6,-169.41 9.69,-199.73 -18.51,-60.82 -54.41,-114.88 -103.28,-155.54 z" /></g></g></svg>