<?xml version="1.0" encoding="UTF-8" standalone="no"?>
<svg
   xmlns:dc="http://purl.org/dc/elements/1.1/"
   xmlns:cc="http://creativecommons.org/ns#"
   xmlns:rdf="http://www.w3.org/1999/02/22-rdf-syntax-ns#"
   xmlns:svg="http://www.w3.org/2000/svg"
   xmlns="http://www.w3.org/2000/svg"
   xmlns:sodipodi="http://sodipodi.sourceforge.net/DTD/sodipodi-0.dtd"
   xmlns:inkscape="http://www.inkscape.org/namespaces/inkscape"
   viewBox="0 0 742.66669 1016"
   height="1016"
   width="742.66669"
   xml:space="preserve"
   id="svg2"
   version="1.1"
   sodipodi:docname="roadrunner.svg"
   inkscape:version="0.92.4 (5da689c313, 2019-01-14)"><sodipodi:namedview
     pagecolor="#ffffff"
     bordercolor="#666666"
     borderopacity="1"
     objecttolerance="10"
     gridtolerance="10"
     guidetolerance="10"
     inkscape:pageopacity="0"
     inkscape:pageshadow="2"
     inkscape:window-width="1366"
     inkscape:window-height="715"
     id="namedview51"
     showgrid="false"
     inkscape:zoom="3.7165354"
     inkscape:cx="479.7138"
     inkscape:cy="80.231416"
     inkscape:window-x="-8"
     inkscape:window-y="22"
     inkscape:window-maximized="1"
     inkscape:current-layer="svg2" /><metadata
     id="metadata8"><rdf:RDF><cc:Work
         rdf:about=""><dc:format>image/svg+xml</dc:format><dc:type
           rdf:resource="http://purl.org/dc/dcmitype/StillImage" /></cc:Work></rdf:RDF></metadata><defs
     id="defs6"><clipPath
       id="clipPath86"
       clipPathUnits="userSpaceOnUse"><path
         id="path84"
         d="m 4260,8 v 332 h 410 V 8 Z" /></clipPath><clipPath
       id="clipPath96"
       clipPathUnits="userSpaceOnUse"><path
         id="path94"
         d="m 4260,8.28125 h 410 v 331.719 h -410 z" /></clipPath></defs><g
     transform="matrix(1.3333333,0,0,-1.3333333,0,1016)"
     id="g10"><g
       transform="scale(0.1)"
       id="g12"><path
         id="path16"
         style="fill:#000000;fill-opacity:1;fill-rule:nonzero;stroke:none"
         d="m 730.621,7364.92 c 14.5,-6.29 29.609,-12.58 44.109,-18.9 17.61,1.91 27.071,-13.83 44.059,-12.58 34.652,-15.74 69.301,-31.49 103.941,-47.27 19.54,-20.12 46.61,-20.12 66.141,-40.94 27.689,-7.53 47.849,-35.89 75.579,-44.06 11.33,-18.28 30.24,-16.37 40.94,-34.65 16.99,-9.45 32.11,-22.03 50.39,-28.36 3.75,-10.7 16.37,-10.07 25.2,-18.86 22.65,-25.82 51.64,-49.14 85.04,-75.59 17.61,-3.79 27.07,-27.73 44.06,-31.48 25.82,-32.15 59.84,-48.52 85.04,-75.63 9.45,1.29 3.12,-10.04 9.45,-12.58 19.53,-25.19 48.48,-35.27 69.26,-62.97 1.91,0 4.41,0 6.33,0 66.13,-64.88 132.89,-135.43 198.39,-195.27 0,-3.12 0,-6.29 0,-9.41 18.25,-27.74 57.93,-39.07 75.59,-75.63 33.98,-26.44 52.27,-65.47 88.16,-94.45 1.92,-15.12 23.91,-22.7 25.2,-37.77 23.95,-16.41 27.11,-40.32 50.39,-56.72 -0.62,-13.21 19.53,-18.25 18.91,-31.49 19.53,-11.95 18.24,-32.11 37.77,-44.1 10.7,-16.99 20.78,-33.36 31.48,-50.35 16.37,-10.7 18.91,-27.11 28.36,-40.98 30.86,-37.15 52.27,-77.46 78.71,-116.48 16.41,-13.87 18.29,-33.4 34.65,-47.27 8.83,-26.44 31.49,-48.47 47.27,-72.42 10.7,-16.99 16.37,-35.27 31.48,-50.39 10.71,-16.99 20.78,-33.4 31.49,-50.39 10.7,-16.99 20.78,-33.4 31.48,-50.39 6.29,-12.62 12.62,-25.2 18.91,-37.77 24.57,-30.86 39.69,-64.89 59.84,-97.62 22.66,-21.45 24.53,-51.06 47.23,-72.46 11.95,-33.36 38.44,-61.1 50.39,-94.49 18.24,-10.04 14.49,-28.95 28.36,-40.9 5,-11.37 10.7,-23.32 15.74,-34.65 18.24,-10.12 14.45,-28.99 28.32,-40.98 10.08,-13.83 13.87,-30.86 25.2,-44.06 5.04,-11.37 10.7,-23.32 15.74,-34.65 20.16,-10.7 11.37,-33.4 31.48,-44.1 5.71,-23.28 25.2,-42.19 37.82,-62.97 2.53,-22.69 25.82,-37.15 28.36,-59.84 5,-5.04 10.7,-10.71 15.74,-15.75 35.9,-86.28 91.33,-163.75 107.07,-258.24 13.86,-6.91 -1.29,-24.57 12.58,-31.48 56.68,-401.84 71.17,-821.33 85.03,-1240.78 13.25,-146.76 21.41,-295.43 53.56,-434.61 12.58,-5.67 1.87,-20.78 9.41,-28.32 85.67,-4.46 192.11,-22.7 267.7,15.74 71.17,14.45 130.39,57.93 201.56,72.42 132.89,37.77 274.61,52.27 409.42,85 30.19,11.95 66.71,21.45 81.83,56.72 54.84,68.01 71.17,151.13 107.11,226.72 5.66,41.56 25.82,78.08 31.49,119.69 37.14,199.02 64.88,425.78 12.57,626.68 -30.19,154.96 -87.54,298.55 -201.52,418.86 -88.83,-1.29 -178.91,-6.95 -242.5,53.52 3.79,8.2 -6.29,10.7 -9.45,15.74 -26.45,78.13 -6.29,167.58 18.9,239.38 -20.78,81.87 -32.77,167.54 -63,245.62 -6.92,51.64 -13.83,106.45 0,157.46 -12.58,18.91 -25.16,37.78 -37.78,56.68 -19.53,11.95 -18.28,32.11 -37.77,44.1 0.58,13.25 -19.53,18.25 -18.91,31.49 -32.15,24.57 -43.47,57.3 -75.58,81.87 0,1.92 0,4.42 0,6.29 -34.65,34.65 -69.3,69.3 -103.95,103.95 -21.41,8.2 -35.23,36.52 -56.68,44.1 -28.94,36.52 -65.51,52.26 -94.45,88.16 -21.45,8.21 -35.28,36.53 -56.68,44.1 -66.8,47.23 -87.58,113.36 -100.78,182.66 -15.16,133.52 -17.03,284.69 31.48,403.09 14.45,13.24 26.45,30.86 47.23,28.36 21.4,-5.67 47.22,0.62 63.01,-18.91 32.73,-49.77 41.56,-109.57 40.93,-173.2 17,-25.82 11.96,13.86 22.03,18.9 15.12,53.52 37.15,104.53 75.59,148.01 0,1.88 0,4.41 0,6.29 23.28,20.78 43.48,49.14 69.26,63.01 11.37,17.61 29.61,17.61 40.97,34.61 14.5,10.7 32.11,14.49 44.07,31.48 23.94,5.7 42.18,25.24 63.01,37.81 39.64,17 76.21,42.82 119.64,50.39 27.74,23.29 71.18,8.21 107.07,12.58 26.49,-8.79 32.78,-32.11 53.56,-47.22 1.25,-13.87 -2.54,-28.99 3.12,-40.94 106.49,47.85 254.5,34.02 371.64,18.9 57.93,-13.86 117.15,-22.69 173.21,-40.93 71.17,-20.16 134.76,-57.97 204.68,-81.92 23.95,-20.78 53.56,-34.61 75.59,-53.51 34.02,-3.79 37.19,-42.19 66.13,-59.85 7.54,-10.7 6.92,-27.07 22.03,-31.48 5.71,-24.57 1.92,-52.27 3.17,-78.71 -1.88,-6.33 -4.42,-12.62 -6.29,-18.91 -3.16,-7.58 -6.33,-14.49 -9.45,-22.07 -4.42,-7.54 -16.37,-23.28 -28.32,-25.15 -27.11,-25.86 -69.3,-27.74 -107.11,-34.65 -113.36,1.25 -228.64,-2.54 -340.12,3.12 -11.33,-8.83 -4.38,-25.19 -6.29,-37.77 61.09,-25.82 121.56,-59.22 166.91,-116.53 9.46,-18.28 11.96,-42.18 6.29,-63 -30.86,-61.1 -109.61,-41.57 -166.91,-40.94 -53.52,11.99 -111.48,14.49 -166.88,22.03 -5.7,-28.32 1.88,-62.34 -25.19,-81.87 -44.77,-25.82 -103.32,-18.25 -151.17,-37.78 -8.21,-1.87 -20.78,5.04 -25.24,-6.29 -61.05,-4.41 -115.86,-40.31 -151.13,-94.49 -21.44,-59.22 -0.62,-123.44 6.29,-182.66 15.12,-16.36 4.41,-73.67 47.23,-47.22 60.46,10.08 114.02,-16.99 157.46,-56.68 11.99,-0.67 18.9,-14.49 28.36,-22.07 88.79,-11.95 168.79,-44.73 239.33,-100.74 13.24,0.58 18.28,-19.53 31.53,-18.91 17.61,-26.45 49.1,-30.23 59.8,-59.84 17.03,-13.25 22.7,-30.24 37.77,-44.11 11.37,-30.23 27.74,-59.17 34.65,-91.32 58.6,-18.25 129.77,-10.08 179.53,22.07 11.96,19.53 30.86,16.99 37.78,34.65 32.15,36.52 51.01,78.08 69.29,119.64 20.78,8.21 17.62,-12.57 25.2,-22.03 13.2,-65.51 26.44,-130.39 25.19,-201.56 -10.07,-20.16 -5.66,-45.98 -15.74,-66.13 -28.98,-70.55 -63.63,-138.56 -125.97,-195.28 -10.71,0.67 -17.04,-12.57 -25.2,-18.86 -60.47,-38.44 -136.05,-40.32 -214.14,-37.82 -15.12,8.83 -33.4,8.21 -50.39,12.62 -10.7,-8.83 -30.86,-9.45 -34.65,-22.07 16.99,-345.16 71.17,-682.73 50.39,-1036.09 -3.79,-61.72 -16.99,-119.65 -25.19,-179.49 -18.29,-28.99 -14.5,-66.76 -28.32,-97.62 -23.95,-79.38 -41.61,-161.25 -59.89,-242.5 -12.58,-7.58 -1.25,-25.2 -9.41,-34.65 -18.28,-51.02 -23.32,-107.07 -34.65,-160.59 -13.87,-6.95 1.25,-24.57 -12.62,-31.52 1.92,-23.28 -13.83,-39.69 -12.57,-62.97 -8.83,-10.7 -8.21,-25.19 -12.58,-37.77 -21.45,-59.22 -42.23,-119.06 -69.3,-176.37 -29.61,-46.01 -51.64,-95.12 -88.2,-138.59 0,-1.88 0,-4.42 0,-6.29 -37.15,-43.48 -80.63,-74.34 -129.1,-91.33 -1.88,-1.88 -4.42,-4.41 -6.29,-6.29 -37.82,-6.29 -75.59,-12.62 -113.36,-18.91 -25.82,-18.28 -30.9,-44.72 -56.72,-62.96 -14.49,-8.21 -29.57,-17.04 -44.06,-25.2 -19.54,-21.44 -47.89,-20.78 -69.3,-37.81 -16.99,1.91 -27.07,-13.87 -44.1,-12.58 -63.6,-42.23 -170.71,-60.47 -179.49,-154.34 -91.96,-289.1 -56.06,-658.82 -6.29,-944.72 24.57,-154.96 61.09,-287.89 100.74,-428.319 22.69,-23.321 67.42,-8.211 100.78,-12.621 10.08,12.621 28.98,1.871 40.98,9.449 73.04,18.281 132.89,40.941 201.52,63.012 41.56,16.988 87.58,35.898 132.27,50.39 36.52,6.918 50.39,35.239 94.49,37.769 62.97,20.79 147.38,29.61 207.85,56.68 35.23,14.5 65.51,-13.82 100.74,0 18.91,-0.62 28.99,13.25 50.39,12.62 57.35,1.88 137.35,12.58 185.82,-9.45 8.21,-3.17 21.45,-8.2 34.65,-6.29 10.08,-5.08 23.28,-15.12 37.77,-15.74 13.25,0.62 15.12,-13.25 25.24,-12.62 15.12,-0.63 19.49,-11.33 31.48,-12.62 11.96,-0.62 14.46,-10.7 22.03,-15.74 8.83,-1.25 19.54,-5.66 28.32,-12.58 3.79,-10.701 16.41,-10.08 25.2,-18.9 21.44,-16.371 26.48,-42.191 50.43,-56.68 -4.41,-13.871 10.04,-12.621 9.41,-25.199 21.45,-31.48 23.95,-79.371 22.07,-129.101 23.28,-1.289 6.92,-33.399 22.03,-40.942 8.21,-34.019 25.2,-77.5 9.46,-116.558 -4.42,-11.328 9.45,-18.871 0,-28.321 -4.42,-1.25 -8.21,-1.91 -12.62,-3.16 -8.83,-11.961 -20.16,-22.66 -22.03,-37.777 -7.58,-1.293 -14.49,-1.91 -22.03,-3.16 -21.45,-16.992 -59.22,-8.832 -88.2,-15.742 5.03,-13.211 15.11,-29.61 15.78,-47.231 5.04,-11.988 5.04,-38.437 0,-50.387 -5.71,-7.582 -1.92,-18.914 -3.17,-28.363 -15.11,-22.66 -39.06,-21.41 -44.1,-47.23 -7.58,0 -14.49,0 -22.03,0 -13.87,-5.039 -22.7,-15.11 -40.98,-15.739 -16.33,-13.238 -72.42,16.371 -62.97,-25.199 5.04,-15.742 15.12,-26.441 15.79,-47.219 5,-13.871 5,-42.23 0,-56.722 -5.71,-10.7 -1.92,-25.16 -3.17,-37.77 -4.41,-1.25 -8.2,-1.879 -12.62,-3.172 -10.07,-16.988 -29.61,-16.359 -37.77,-31.476 -5.04,-1.25 -10.7,-1.883 -15.74,-3.172 -10.08,-5 -17.03,-5.66 -28.36,-9.41 -37.77,-2.539 -91.33,-10.078 -119.69,6.289 -25.82,-3.789 -35.23,18.242 -56.68,18.91 -15.12,-0.668 -18.87,13.203 -31.48,12.57 -13.83,0.633 -18.91,10.711 -28.32,15.75 -12.62,-5.039 -13.25,10.071 -22.07,9.453 -20.16,11.95 -35.28,20.778 -53.52,34.649 -12.62,-2.539 -12.62,16.359 -28.36,12.578 -3.12,16.402 -22.03,10.07 -28.36,25.191 -13.83,2.539 -19.49,17.032 -34.65,18.91 -6.29,4.411 -5.62,17.61 -18.86,12.61 -9.46,14.461 -30.86,23.91 -40.94,37.781 -3.16,0 -6.33,0 -9.45,0 -5.04,8.828 -13.87,16.988 -22.04,25.188 -20.15,-0.618 -18.28,24.57 -40.93,25.203 -7.58,6.91 -9.46,21.398 -25.24,18.898 -5,8.789 -13.83,17 -22.03,25.199 -18.87,3.75 -25.19,28.942 -47.22,31.481 -3.17,16.371 -22.08,10.082 -28.36,25.199 -18.25,4.41 -25.79,19.531 -47.23,25.191 1.25,2.5 -1.25,4.422 -3.16,6.29 -20.12,3.789 -32.74,17.621 -53.52,25.199 -5.04,5.66 -18.28,5.043 -25.2,12.582 -5.66,1.289 -14.49,6.949 -18.9,9.449 -23.95,-2.5 -28.95,20.16 -50.39,18.91 -16.99,-0.629 -23.28,13.242 -37.78,12.61 -51.01,20.781 -105.82,18.25 -157.46,31.492 -110.86,2.5 -232.42,19.527 -340.11,0 -72.47,-17.032 -158.71,-22.703 -217.31,-59.852 -16.99,-1.91 -28.36,-14.488 -47.23,-15.738 -12.61,-11.371 -32.77,-11.371 -47.26,-22.07 -20.16,-5.661 -47.85,-13.2 -66.13,-22.032 -34.61,-10.082 -66.76,-20.16 -110.2,-15.738 -4.41,13.867 -23.32,-1.25 -25.19,12.617 -6.96,1.871 -16.37,-7.578 -18.91,0 -9.45,17.61 -25.82,27.071 -28.32,40.93 -3.83,3.75 -6.95,8.172 -12.62,6.293 0,8.168 0,16.988 0,25.199 -1.87,20.149 -23.32,39.68 -6.29,59.84 1.25,6.289 -2.54,17.621 3.13,18.871 0.62,14.488 10.7,18.898 15.78,28.359 2.5,14.489 16.99,19.528 18.87,34.649 16.36,21.398 42.18,26.441 56.68,50.39 18.28,5.04 32.14,19.489 47.22,31.481 11.37,0 11.37,8.16 22.07,9.449 5.67,5.672 8.79,10.078 18.91,12.578 14.45,2.543 20.78,15.121 25.16,28.364 14.49,12.578 29.6,25.199 44.1,37.769 14.49,-0.621 17.65,5.668 28.36,12.617 44.72,3.133 87.54,22.664 135.43,6.293 32.11,6.289 48.47,-10.699 75.54,-9.449 40.32,0.617 69.3,-13.242 107.07,-12.582 3.17,-5.699 10.75,-1.91 15.75,-3.16 3.78,1.871 3.16,5.66 3.16,9.449 -12.58,5.043 -1.25,25.191 -9.45,34.652 -40.32,207.179 -79.34,416.329 -116.53,626.679 -64.84,264.57 -92.58,544.22 -110.19,828.28 7.54,50.98 16.36,104.53 66.13,135.39 18.24,17.66 50.39,0.62 62.97,31.48 23.94,12 49.76,21.45 69.3,44.11 27.07,9.45 26.44,33.35 47.22,50.39 3.17,18.9 34.65,37.81 9.46,56.68 -17.04,10.7 -35.28,16.36 -50.39,31.52 -13.25,-0.67 -18.29,19.49 -31.49,18.87 -14.49,17.03 -35.9,30.86 -44.1,50.39 -8.83,19.53 -29.61,12.57 -44.06,18.9 -107.07,44.73 -208.52,102.66 -308.64,163.75 -23.94,20.16 -51.01,33.36 -72.46,59.85 -8.79,-2.54 -12.58,8.16 -18.86,12.57 -1.29,13.25 -17.04,20.79 -25.2,31.53 -13.24,26.44 -17.03,60.47 3.13,85.04 43.47,18.86 84.41,-6.96 125.97,-12.62 30.86,-10.7 59.22,-27.73 88.21,-44.1 43.43,-6.29 42.81,33.4 78.71,44.1 -10.71,52.27 -39.69,96.37 -59.85,144.84 -17.62,22.7 -28.94,47.89 -40.94,72.46 -14.49,18.87 -22.65,40.32 -44.1,56.68 -6.91,20.79 -33.98,33.36 -40.93,53.56 -17.62,8.79 -35.9,30.19 -53.52,47.23 3.13,7.53 -0.63,17.61 9.45,22.03 9.46,1.87 22.66,-5.04 28.32,6.29 -22.03,21.4 -49.1,44.1 -72.42,69.29 -1.87,0 -4.41,0 -6.29,0 -39.06,39.07 -77.5,77.46 -116.52,116.53 -10.7,16.99 -20.78,33.36 -31.49,50.39 -19.53,20.78 -25.19,45.97 -37.81,69.25 -30.86,68.68 -23.32,168.21 3.17,236.22 27.07,8.2 36.52,-11.96 50.39,-28.36 59.8,-69.93 119.02,-139.18 188.94,-204.69 14.49,0.62 21.41,-25.2 34.65,-18.91 -3.79,28.36 -30.86,46.6 -40.94,72.46 -19.53,18.25 -24.57,41.57 -44.1,59.81 -9.45,15.78 -18.9,31.52 -28.36,47.26 -16.99,11.96 -20.78,29.57 -31.48,44.07 -16.37,11.36 -18.91,27.11 -28.32,40.93 -19.53,17.03 -24.57,39.69 -44.1,56.72 -9.46,15.74 -18.91,31.49 -28.36,47.23 -25.82,24.57 -30.86,57.3 -56.68,81.87 -6.29,10.71 -5.67,23.95 -18.91,31.49 -16.99,54.18 -76.17,117.15 -22.03,173.2 10.08,13.87 30.86,-1.25 40.94,12.62 -44.69,73.05 -84.38,156.17 -62.97,248.79 -39.06,47.85 -86.92,68.63 -119.69,119.69 -23.28,16.36 -26.44,40.27 -50.39,56.68 -5.66,11.95 -10.7,24.57 -22.03,34.6 -22.7,42.86 -35.9,92.62 -25.2,144.89 -29.61,21.4 -62.97,33.4 -94.49,50.39 -22.65,3.12 -37.15,26.44 -62.97,22.03 -5.66,1.91 -0.62,8.2 -6.29,9.45 -35.27,11.96 -64.88,37.81 -103.94,40.94 -47.23,32.15 -110.86,49.77 -163.75,81.87 -95.12,35.9 -180.78,92 -267.7,148.01 -16.99,27.11 -49.14,30.28 -59.84,59.85 -33.99,28.98 -42.81,68.04 -37.77,113.39 44.1,97.62 174.45,62.97 267.69,66.14 82.5,-11.33 165.63,-23.32 236.17,-63.01 5.67,3.79 6.96,9.45 6.29,15.74 -18.24,11.37 -16.37,30.24 -34.61,40.98 1.88,10.04 -10.7,14.45 -15.78,22.03 -16.37,28.94 -27.69,71.8 -9.41,103.91 8.16,-3.75 10.7,6.29 15.74,9.45 -5.66,16.37 -19.53,26.44 -31.48,34.65 -66.8,60.47 -130.4,127.85 -195.28,192.11 0,1.87 0,4.37 0,6.29 -46.6,39.68 -71.17,84.37 -119.65,125.97 -3.79,17.62 -27.73,27.07 -31.52,44.06 -21.41,14.54 -22.66,36.57 -44.06,50.4 -8.21,14.49 -17.03,29.6 -25.2,44.1 -27.73,39.68 -55.43,78.08 -63.01,125.97 -1.25,27.07 -1.87,54.18 25.2,69.26 46.6,14.49 85.66,-9.41 122.81,-28.32 4.42,1.25 10.12,-2.54 12.62,3.17 -21.41,33.98 -57.31,45.97 -81.88,78.71 -17.03,3.79 -26.44,27.69 -44.1,31.48 -15.11,22.7 -38.43,24.57 -53.51,47.27 -13.87,0.62 -20.2,21.4 -34.65,22.03 -17.03,26.44 -45.98,23.94 -63.01,50.39 -13.2,-0.63 -18.24,19.53 -31.48,18.9 -17,19.54 -39.691,24.54 -56.68,44.07 -14.5,8.2 -29.609,17.03 -44.101,25.19 -17.617,10.12 -32.109,29.61 -50.399,37.81 -14.449,8.21 -29.601,17 -44.058,25.2 -28.981,30.86 -66.801,39.69 -97.652,66.13 -26.45,8.79 -48.481,31.49 -72.43,47.23 -16.988,10.7 -35.27,16.37 -50.391,31.48 -16.988,10.71 -33.359,20.79 -50.39,31.53 -14.45,8.16 -29.61,16.99 -44.059,25.15 -40.309,32.78 -86.328,52.31 -125.98,88.21 -15.11,1.87 -22.692,23.94 -37.809,25.19 -30.231,30.24 -54.762,54.81 -85.039,85 -6.293,14.49 -19.492,27.11 -18.871,44.1 -1.25,19.53 1.25,36.57 12.578,50.39 90.711,45.36 216.062,33.4 318.09,22.04 62.972,-7.54 123.441,-20.79 182.652,-37.78" /><path
         id="path18"
         style="fill:#5799a8;fill-opacity:1;fill-rule:nonzero;stroke:none"
         d="m 1209.3,7046.84 c 81.87,-57.93 155.58,-136.64 233.04,-204.69 1.92,0 4.42,0 6.29,0 93.25,-93.2 187.07,-187.07 280.32,-280.27 0,-1.92 0,-4.42 0,-6.29 16.99,-18.91 44.68,-39.07 56.67,-63.01 30.24,-22.66 39.69,-52.89 69.26,-75.59 0.67,-13.83 21.45,-20.15 22.07,-34.65 20.78,-13.2 20.78,-33.98 40.94,-47.22 -0.62,-13.24 19.53,-18.28 18.91,-31.49 26.44,-17.03 23.9,-45.97 50.39,-63.01 9.41,-15.74 18.86,-31.48 28.32,-47.22 27.11,-27.7 39.69,-61.1 59.84,-91.33 28.99,-32.73 43.48,-71.17 72.42,-103.91 10.71,-17.03 16.37,-35.27 31.49,-50.39 6.95,-26.44 34.02,-45.35 40.97,-72.46 25.82,-29.57 37.15,-64.84 62.97,-94.45 6.29,-12.62 12.58,-25.2 18.91,-37.77 15.74,-24.57 32.11,-49.14 44.06,-75.63 14.49,-6.91 8.21,-21.41 22.07,-28.32 14.49,-40.31 49.1,-73.09 62.97,-113.4 27.07,-38.4 47.85,-79.33 69.3,-119.65 25.19,-40.31 51.01,-80.62 72.42,-122.81 24.57,-28.36 39.69,-61.09 59.84,-91.33 13.83,-34.02 34.03,-65.5 53.52,-97.61 51.01,-111.49 103.32,-222.97 103.94,-355.86 60.47,-396.84 49.77,-822.62 81.88,-1231.37 11.33,-116.52 27.07,-230.55 47.23,-343.24 -44.69,5 -81.88,-9.49 -125.94,-6.33 -36.56,101.41 -85.7,197.15 -151.17,286.56 -3.79,19.53 -34.03,27.74 -31.53,50.39 8.21,5.04 27.74,5.04 34.65,-9.41 22.7,-7.58 42.23,-22.07 66.13,-25.2 14.5,20.74 -22.65,22.03 -31.48,37.78 -95.12,78.75 -189.57,156.83 -280.27,245.62 -2.54,16.41 -25.82,24.57 -28.36,40.98 -15.12,12.58 -20.78,29.57 -31.49,44.06 -32.73,58.59 -42.18,134.8 -28.36,204.73 14.5,5.66 19.53,-9.46 28.36,-15.78 5.04,-18.25 30.24,-28.99 34.65,-47.23 45.98,-45.98 92.58,-92.58 138.56,-138.56 14.49,-0.62 20.78,-21.4 34.64,-22.07 19.54,-17.61 42.86,-27.69 62.97,-44.06 10.75,-6.33 23.95,-5.66 31.53,-18.9 18.24,-1.92 33.36,-21.41 50.39,-15.75 -17.66,21.41 -39.07,46.6 -63.01,59.85 -10.08,51.64 -45.98,92.57 -69.3,138.55 -16.36,11.33 -18.86,27.07 -28.32,40.94 -19.53,16.99 -24.57,39.69 -44.1,56.68 -9.45,15.74 -18.91,31.48 -28.32,47.26 -17.03,11.96 -20.78,29.57 -31.48,44.07 -16.41,11.33 -18.91,27.11 -28.36,40.93 -30.86,37.19 -52.27,77.5 -78.75,116.53 -22.66,21.4 -24.53,51.01 -47.23,72.46 -18.91,36.52 -40.31,75.55 -31.48,119.65 55.43,19.53 81.87,-29.61 116.52,-59.85 6.91,-16.36 24.57,-33.98 40.94,-40.93 13.86,-10.71 25.82,-33.99 40.93,-31.49 -19.53,33.36 -49.76,61.72 -69.29,94.49 -68.64,91.96 -156.84,180.12 -135.39,305.47 16.99,2.5 22.65,-21.4 37.77,-22.07 30.86,-38.4 69.92,-56.01 100.78,-94.45 1.88,0 4.42,0 6.29,0 40.94,-39.06 79.38,-84.41 122.81,-119.69 11.33,-15.74 20.78,-22.03 25.2,-18.87 -1.25,10.71 -8.79,21.41 -18.87,25.16 -7.58,9.45 -14.49,18.91 -22.07,28.36 -62.97,68.67 -134.14,136.05 -198.4,201.56 -21.4,8.21 -35.27,36.53 -56.68,44.07 -11.33,9.49 -20.15,25.85 -34.65,28.35 -30.23,30.24 -61.09,61.1 -91.32,91.33 -6.92,20.78 -34.03,33.4 -40.94,53.56 -25.82,28.32 -39.69,61.72 -47.23,97.61 1.25,17 -2.54,35.28 3.13,50.39 58.59,-16.36 108.98,-52.26 163.79,-78.74 49.1,-23.29 90.03,-64.22 138.55,-88.17 14.49,-21.41 36.52,-22.69 50.39,-44.1 4.42,1.29 10.08,-2.5 12.62,3.16 -1.92,8.83 -6.95,22.7 -18.91,22.03 -20.15,27.74 -48.51,35.28 -69.29,63.01 -15.75,9.46 -31.49,18.91 -47.23,28.32 -10.7,16.41 -27.07,18.91 -40.94,28.36 -36.52,25.82 -74.96,47.23 -113.4,69.3 -20.15,2.5 -35.9,18.87 -53.51,28.32 -19.53,1.87 -33.4,16.99 -50.39,25.19 -100.16,47.23 -200.32,95.12 -302.35,138.56 -89.41,34.02 -174.45,81.87 -261.36,122.81 -34.03,30.28 -78.75,35.94 -110.24,72.46 -13.87,0.63 -20.15,21.41 -34.65,22.03 -40.31,32.78 -69.26,73.72 -59.84,122.86 19.53,37.14 64.88,39.02 103.94,40.89 217.93,11.37 396.8,-73.67 573.17,-163.75 30.86,-23.28 68.01,-33.36 97.62,-59.8 22.03,-6.95 39.68,-23.32 59.84,-34.69 13.2,-20.12 34.02,-20.12 47.23,-40.94 6.95,5.04 10.7,-9.45 15.74,0 -20.78,31.53 -54.14,47.27 -78.71,75.63 -13.25,-0.66 -18.28,19.49 -31.49,18.87 -32.15,30.86 -69.29,48.51 -103.94,72.42 -25.2,12.62 -50.39,25.19 -75.59,37.81 -6.91,11.95 -18.9,10.7 -28.32,15.74 -33.4,33.36 -67.42,67.39 -100.78,100.78 -10.7,18.87 -27.73,35.28 -31.48,56.68 -7.58,11.96 -10.75,25.2 -9.46,40.94 27.07,1.25 54.14,1.92 69.3,-25.19 13.2,0.62 18.24,-19.53 31.44,-18.91 12,-16.99 29.61,-20.78 44.11,-31.48 23.94,-14.5 44.1,-39.07 72.46,-44.11 3.12,14.5 -18.91,25.24 -28.36,37.82 -20.16,6.91 -32.78,33.98 -53.56,40.93 -28.94,36.53 -65.5,52.27 -94.45,88.17 -1.91,0 -4.41,0 -6.33,0 -96.37,96.37 -193.36,193.36 -289.72,289.72 -10.08,21.41 -33.36,37.82 -50.4,56.72 -6.91,20.78 -33.98,33.36 -40.93,53.52 -24.53,17.66 -28.95,42.81 -53.52,59.84 0.63,13.21 -19.53,18.25 -18.9,31.49 -17.62,19.53 -27.7,42.85 -44.11,62.97 -8.79,32.77 -39.64,63.63 -18.86,100.82 60.47,8.79 101.4,-28.99 148,-53.56 11.33,-16.37 27.07,-18.9 40.94,-28.36 11.96,-19.53 32.11,-18.24 44.1,-37.77 16.37,-2.54 24.53,-25.82 40.94,-28.36 75.59,-69.88 146.76,-131.02 220.43,-204.69 5.66,2.5 1.91,8.21 3.16,12.58 -13.24,20.78 -35.89,38.44 -47.26,59.84 -42.81,42.86 -86.25,86.29 -129.1,129.14 -4.42,18.25 -29.61,28.95 -34.65,47.23 -55.43,55.43 -111.49,111.49 -166.92,166.92 -20.15,6.91 -32.73,34.02 -53.51,40.93 -18.28,25.82 -44.73,30.86 -63.01,56.68 -13.87,0.63 -20.15,21.41 -34.65,22.03 -13.2,20.78 -33.98,20.78 -47.22,40.94 -13.25,-0.62 -18.25,19.53 -31.49,18.91 -10.7,18.28 -29.61,16.36 -40.94,34.65 -15.74,9.45 -31.48,18.9 -47.222,28.36 -11.988,17.61 -29.609,20.78 -44.098,31.48 -42.82,28.32 -83.171,63.59 -129.14,85.04 -26.449,25.82 -58.559,37.77 -88.168,56.68 -10.082,11.33 -22.652,16.37 -34.652,22.03 -10.071,11.33 -22.649,16.37 -34.641,22.03 -10.078,11.37 -22.66,16.41 -34.609,22.07 -10.079,11.33 -22.7,16.37 -34.649,22.03 -32.781,22.03 -64.891,44.1 -97.621,66.14 -13.871,7.57 -27.109,14.49 -40.941,22.07 -18.899,14.45 -40.309,22.65 -56.719,44.06 -13.82,0.62 -20.149,21.4 -34.61,22.07 -10.742,8.16 -18.281,23.9 -31.519,25.15 -15.742,17.66 -38.402,33.4 -47.231,53.56 -15.742,15.12 -22.031,34.02 -18.902,56.68 21.442,11.37 45.352,17.65 72.461,15.74 1.871,1.91 4.371,4.41 6.289,6.33 344.531,16.99 625.434,-120.31 875.472,-330.7" /><path
         id="path20"
         style="fill:#301987;fill-opacity:1;fill-rule:nonzero;stroke:none"
         d="m 3709.8,6785.47 c 5.04,-6.33 17.62,0.62 12.58,-12.62 23.32,-2.5 8.21,-31.48 12.62,-47.23 -2.54,1.26 -4.41,-1.24 -6.29,-3.16 2.5,-11.95 -10.7,-14.45 -15.74,-22.03 -13.24,0.62 -11.99,-15.74 -25.2,-12.58 -6.32,-15.12 -25.19,-8.83 -28.36,-25.19 -15.11,-1.92 -20.15,-16.37 -34.64,-18.91 -11.96,-13.87 -30.24,-22.03 -40.94,-37.77 -22.03,-3.79 -30.24,-24.57 -44.06,-37.82 -3.17,0 -6.33,0 -9.46,0 -19.53,-27.69 -52.93,-44.72 -66.13,-75.58 -9.45,-12.58 -32.77,-20.16 -28.36,-37.78 13.2,-0.66 11.95,15.75 25.2,12.58 14.49,14.5 29.6,28.99 40.93,44.1 22.03,2.5 28.36,27.7 47.27,31.49 11.33,16.37 30.86,20.78 40.94,37.77 15.07,1.92 20.78,16.41 34.61,18.91 6.28,15.12 25.19,8.83 28.35,25.19 15.75,-3.79 15.75,15.12 28.33,12.62 6.32,15.12 25.19,8.83 28.35,25.2 15.75,-3.79 15.75,15.11 28.32,12.57 12.62,17.66 37.19,15.12 53.56,28.36 86.29,46.61 253.2,32.11 352.73,12.58 10.71,-6.91 30.24,0.63 37.78,-6.29 17.61,-3.79 30.86,-4.41 47.22,-9.45 8.21,-3.16 21.45,-8.16 34.65,-6.29 5.04,-13.87 30.24,1.25 34.65,-12.62 8.83,-1.25 20.78,-6.91 28.36,-9.41 18.91,-5.08 37.77,-10.7 56.68,-15.74 0,-15.78 23.95,-7.58 28.36,-18.91 7.54,-5.66 24.53,-3.79 31.44,-12.62 9.5,-0.62 19.57,-5.66 25.24,-12.57 9.41,-0.67 19.49,-5.67 25.19,-12.62 11.96,1.91 16.37,-16.99 28.32,-15.74 12.58,0.62 11.33,-13.83 25.2,-9.46 6.33,-4.37 5.66,-17.61 18.91,-12.57 7.54,-6.96 9.45,-21.41 25.19,-18.91 10.7,-13.87 28.32,-22.66 31.49,-40.94 15.11,-6.29 8.82,-25.19 25.19,-28.36 -5.04,-26.44 14.49,-40.27 3.17,-62.97 0.62,-12.61 -13.87,-10.7 -9.46,-25.19 -27.73,-21.41 -59.84,-38.4 -100.78,-40.94 -119.02,-3.79 -254.45,-7.58 -371.6,3.16 -11.37,15.12 -26.49,29.57 -40.98,44.07 -7.54,5.66 -24.53,3.79 -31.44,12.61 -8.83,1.25 -20.82,6.92 -28.36,9.46 -8.83,6.91 -25.82,-0.67 -31.53,6.29 -33.98,5.04 -73.04,5.04 -107.07,0 5.71,-18.28 38.44,-3.79 50.39,-12.58 8.83,-6.96 25.83,0.62 31.53,-6.33 11.95,-7.54 33.98,3.16 40.94,-9.45 8.79,-1.25 20.78,-6.92 28.32,-9.46 12.61,0.67 11.32,-13.82 25.19,-9.45 6.29,-4.37 5.67,-17.62 18.91,-12.58 5.04,-8.16 15.11,-11.95 15.74,-25.19 -3.13,-16.37 18.28,-22.03 15.74,-37.78 -20.15,1.88 -46.6,-5.04 -59.8,6.29 -8.83,1.25 -20.82,6.92 -28.36,9.46 -6.29,6.91 -21.45,-0.67 -25.2,6.29 -62.34,9.45 -125.35,22.65 -195.27,12.57 -18.91,0.67 -28.95,-13.2 -50.35,-12.57 0,-1.92 0,-4.42 0,-6.29 52.89,-8.21 119.02,4.37 163.75,-12.62 16.36,-6.92 40.94,1.91 53.51,-9.45 8.21,-3.13 21.45,-8.17 34.65,-6.29 5.04,-13.83 30.24,1.29 34.65,-12.58 8.83,-1.25 20.78,-6.95 28.32,-9.45 8.83,-10.08 32.15,-5.67 40.98,-15.75 8.83,-1.25 20.78,-6.95 28.32,-9.45 14.49,-0.62 18.9,-10.7 28.36,-15.74 11.95,1.87 16.36,-16.99 28.32,-15.74 11.99,-0.67 14.49,-10.71 22.07,-15.75 12.58,2.5 12.58,-16.4 28.32,-12.61 14.49,-23.28 48.51,-32.74 44.1,-69.26 -13.87,-10.7 -21.45,-22.7 -44.1,-22.07 -13.87,-4.42 -42.19,-4.42 -56.68,0 -40.31,-0.63 -69.3,13.24 -107.07,12.62 -51.02,-0.67 -90.71,13.2 -138.6,12.57 -18.86,6.29 -37.77,12.58 -56.68,18.91 -43.43,10.08 -83.12,20.16 -135.39,15.74 -20.15,-5.04 -35.27,-15.12 -59.84,-15.74 -20.16,-9.45 -46.6,-18.28 -63.01,-34.65 -18.87,-5.66 -32.11,-16.99 -44.06,-31.48 -1.25,-2.54 1.87,-4.42 3.12,-6.29 23.95,6.29 36.57,20.78 59.85,28.32 52.93,30.86 143.01,33.4 214.18,22.07 -0.67,-5.04 5.04,-7.58 9.41,-6.33 8.83,-1.25 20.78,-6.91 28.36,-9.45 11.95,-0.63 14.49,-10.71 22.03,-15.74 11.33,-2.5 22.7,-11.96 28.36,-22.04 9.46,-25.82 -15.12,-27.07 -22.07,-40.93 -5.04,-1.25 -12.58,2.5 -15.7,-3.17 -54.85,5.67 -87.58,-21.4 -138.59,-25.19 -33.36,-8.79 -69.93,-17.62 -94.5,-40.94 -15.08,-1.88 -20.11,-16.37 -34.61,-18.91 -13.86,-10.7 -17.03,-28.32 -31.48,-37.77 0.59,-13.24 -13.24,-15.12 -12.62,-25.2 -6.91,-4.41 0.63,-16.99 -6.29,-18.9 -2.54,-48.48 -9.45,-108.95 6.29,-151.13 6.95,-37.82 23.28,-71.22 34.65,-107.11 -1.29,-4.42 2.54,-13.21 -3.16,-12.58 -21.41,-62.97 22.69,-90.71 34.64,-135.43 8.21,-7.54 16.37,-16.99 25.2,-22.03 1.25,-4.42 -2.54,-10.08 3.12,-12.58 3.79,0 7.58,-0.67 9.5,3.12 -6.33,23.95 -20.2,36.53 -28.36,59.85 -7.54,30.86 -25.2,71.17 -9.46,107.07 18.91,20.78 58.6,23.94 85.04,12.58 9.46,-0.63 19.54,-5.67 25.2,-12.58 14.45,7.54 8.16,-13.87 22.03,-6.29 2.54,-8.2 10.7,-8.83 9.45,-18.91 -17.03,4.42 -46.6,-10.7 -50.39,12.58 -1.87,0 -4.41,0 -6.29,0 -2.54,-29.57 -9.45,-71.17 6.29,-94.45 5.67,-29.61 25.2,-54.81 37.82,-81.88 16.99,1.25 5,-26.44 22.03,-25.19 5.66,-18.91 16.99,-32.15 31.48,-44.1 -1.87,-21.41 28.99,-18.29 22.03,-44.11 -9.41,1.29 -23.28,-2.5 -28.32,3.17 -42.22,0.62 -103.32,15.12 -132.26,-12.62 -21.45,-13.83 -45.98,-33.36 -56.68,-59.8 -15.12,-4.42 -14.5,-20.79 -22.07,-31.53 -5.04,-6.91 -1.88,-13.83 -12.58,-15.74 -23.95,98.91 -59.22,190.86 -59.85,305.51 8.21,3.12 28.32,-7.58 25.2,9.41 6.91,18.28 -15.12,18.28 -12.62,31.53 -15.11,6.29 -8.83,25.15 -25.15,28.32 3.75,15.74 -15.16,15.74 -12.62,28.36 -15.12,6.28 -8.83,25.19 -25.2,28.32 -1.87,15.11 -16.36,20.82 -18.9,34.64 -21.41,12.62 -21.41,37.82 -44.06,47.23 -2.54,22.07 -27.74,28.36 -31.53,47.27 -57.93,52.26 -105.15,110.19 -163.75,160.58 -20.15,9.46 -27.07,31.53 -50.39,37.81 -5.04,8.83 -13.87,17 -22.03,25.2 -3.16,0 -6.33,0 -9.45,0 -11.33,15.12 -26.45,29.61 -40.94,44.1 -18.28,3.75 -27.07,23.28 -40.94,34.61 -2.54,5.7 -8.2,1.92 -12.62,3.17 -17.61,21.4 -40.31,40.93 -56.68,62.96 4.42,14.54 -10.07,12.62 -9.45,25.24 -42.19,90.04 -37.77,228.59 -28.32,343.24 10.08,18.28 6.92,40.94 12.58,63.01 1.29,8.79 6.91,20.78 9.45,28.32 -0.62,12.62 13.87,11.33 9.46,25.19 5.66,11.33 25.19,4.42 37.81,6.29 -1.29,-2.5 1.87,-4.37 3.12,-6.29 11.33,5.04 10.08,-7.54 15.75,-9.45 11.32,-23.28 22.65,-40.31 22.07,-72.42 6.91,-18.28 -0.67,-47.85 6.28,-69.3 5.04,-76.21 41.57,-126.6 50.4,-201.52 8.16,-17.03 7.53,-42.85 25.15,-50.39 5.04,31.48 5.04,69.26 0,100.78 -4.37,22.66 -4.37,59.18 0,81.87 3.79,23.91 4.45,43.44 9.45,66.14 1.29,8.79 6.96,20.78 9.5,28.32 -4.46,26.44 20.11,23.94 15.74,50.39 15.12,4.41 14.45,20.78 22.03,31.48 0,14.49 11.33,18.28 18.91,25.2 6.91,18.28 23.28,27.11 34.64,40.94 -2.53,11.99 10.71,14.49 15.71,22.07 19.53,5.66 24.57,28.32 44.1,31.48 5.04,20.16 30.23,11.33 34.65,31.48 15.74,-3.78 15.74,15.12 28.36,12.62 6.29,15.12 25.15,8.79 28.32,25.2 11.36,5.66 28.36,3.75 31.48,18.86 14.49,-4.37 12.62,10.08 25.2,9.46 36.52,12.61 66.13,39.68 107.11,47.22 23.28,-1.25 50.97,2.54 69.25,-3.12" /><path
         id="path22"
         style="fill:#4a262e;fill-opacity:1;fill-rule:nonzero;stroke:none"
         d="m 4689.22,6407.58 c 3.16,-10.74 3.16,-14.49 -6.29,-18.91 1.87,6.29 4.41,12.58 6.29,18.91" /><path
         id="path24"
         style="fill:#ffffff;fill-opacity:1;fill-rule:nonzero;stroke:none"
         d="m 4248.32,5333.67 c 14.49,-32.15 -23.28,-10.08 -28.36,-34.65 -5.66,-23.94 4.42,-49.76 18.91,-69.29 1.91,-20.16 20.15,-33.99 25.19,-53.52 -39.68,-10.7 -75.54,6.29 -113.36,9.45 -12.58,6.29 -25.19,12.58 -37.81,18.87 -16.99,-1.87 -27.07,13.87 -44.06,12.62 -10.08,8.16 -23.32,8.83 -34.65,15.74 -15.74,0.63 -27.07,10.7 -40.94,15.74 -32.15,-3.79 -51.01,36.53 -72.46,56.68 -34.61,52.31 -76.17,101.41 -94.45,160.63 -8.21,13.2 -10.08,28.98 -12.62,44.1 0,5.04 0,10.7 0,15.7 178.91,17.66 317.46,-60.43 434.61,-192.07" /><path
         id="path26"
         style="fill:#ffa611;fill-opacity:1;fill-rule:nonzero;stroke:none"
         d="m 4616.8,5349.41 c 30.23,-123.43 22.65,-272.73 -69.3,-362.14 -14.49,-18.29 -32.73,-40.32 -53.52,-50.39 -46.64,-42.23 -110.86,-56.68 -179.53,-53.56 -73.04,15.12 -154.92,24.57 -198.4,97.62 -11.95,37.81 -30.85,76.21 -18.86,119.68 25.15,1.88 54.14,-5.03 75.54,6.29 -24.57,14.5 -56.68,10.71 -85.03,15.75 -59.18,6.29 -113.36,-6.29 -154.3,-37.78 19.53,-4.41 39.69,6.92 59.84,9.46 27.07,1.87 52.89,8.78 81.88,6.28 -6.29,-54.8 6.29,-102.03 37.77,-141.71 8.83,-18.29 28.99,-38.44 47.27,-47.27 8.2,-13.2 27.69,-10.66 28.36,-28.32 -151.22,-57.97 -328.17,-101.41 -500.75,-59.84 -13.86,11.32 -36.56,13.86 -40.93,34.64 -31.53,40.94 -20.16,104.58 -9.46,154.3 31.49,87.58 53.52,200.94 151.17,239.38 168.79,22.03 292.23,-83.17 447.19,-103.95 16.99,5.04 37.15,1.25 50.35,15.74 18.91,4.42 25.82,24.57 28.36,40.94 77.46,-15.12 160,-5.66 217.31,47.27 22.07,8.16 27.07,31.48 47.22,50.39 14.5,13.2 18.29,30.86 25.2,47.22 4.41,0 8.2,0 12.62,0" /><path
         id="path28"
         style="fill:#5799a8;fill-opacity:1;fill-rule:nonzero;stroke:none"
         d="m 4160.16,4845.55 c 14.49,-301.1 47.22,-594.57 56.68,-897.54 1.25,-209.77 -68.68,-390.51 -110.24,-582.62 -26.44,-95.74 -48.48,-193.36 -66.13,-292.89 -13.87,-28.98 -16.37,-61.72 -28.32,-91.33 -27.74,-95.74 -64.88,-188.32 -125.98,-270.82 1.88,-11.95 -17.03,-16.37 -15.74,-28.36 -25.2,-26.44 -49.14,-56.68 -81.88,-69.26 -23.32,-20.82 -54.8,-23.32 -81.91,-34.64 -186.41,-34.03 -357.11,25.19 -516.44,85 -38.44,15.78 -76.84,30.89 -113.4,50.43 -7.54,13.2 -20.78,12.57 -31.49,18.86 0.63,5.04 -5.04,6.96 -3.12,12.62 14.45,2.5 33.36,-1.91 47.22,-9.45 132.89,-34.65 273.36,-78.75 422,-47.23 36.52,10.08 73.04,20.16 100.78,50.35 17.61,8.21 36.52,27.11 44.1,44.1 22.66,15.12 24.57,38.44 47.23,53.56 8.2,14.45 16.99,29.61 25.19,44.06 38.4,58.59 67.38,120.31 72.42,192.11 -3.12,45.98 -20.15,96.99 -69.29,113.4 -49.73,37.15 -117.78,32.11 -179.5,40.94 -8.82,-1.29 -22.65,0.62 -22.03,9.45 22.03,11.95 48.48,14.45 72.42,22.03 102.66,18.24 211.65,22.66 302.35,69.3 5.04,3.12 8.16,13.2 15.7,9.41 16.41,14.49 28.36,30.86 40.98,47.27 -3.79,8.16 6.29,10.7 9.41,15.74 148.05,285.31 206.6,647.46 132.31,985.7 -29.61,127.23 -68.68,250.71 -151.18,355.86 -1.25,19.53 -37.14,25.2 -25.19,50.39 66.13,11.33 129.73,27.07 192.11,47.23 15.74,-3.13 24.57,11.37 40.94,6.33" /><path
         id="path30"
         style="fill:#050c0c;fill-opacity:1;fill-rule:nonzero;stroke:none"
         d="m 2509.96,4505.39 c 10.08,-3.75 17.62,-14.45 18.87,-25.16 -4.42,-3.16 -13.87,3.13 -25.2,18.87 1.92,1.92 4.42,4.42 6.33,6.29" /><path
         id="path32"
         style="fill:#301987;fill-opacity:1;fill-rule:nonzero;stroke:none"
         d="m 3646.84,3182.73 c 28.32,3.17 33.36,-17.03 56.68,-18.86 21.4,-7.58 38.39,-20.2 50.39,-37.82 0,-3.78 -0.63,-7.57 3.12,-9.45 15.16,-18.9 11.37,-67.38 3.17,-91.33 -1.25,-8.82 -6.92,-20.78 -9.46,-28.36 0.63,-15.11 -13.2,-18.86 -12.62,-31.48 -0.58,-13.87 -10.7,-18.91 -15.74,-28.32 -0.58,-9.45 -5.62,-19.53 -12.58,-25.2 2.54,-12.61 -16.36,-12.61 -12.57,-28.36 -16.37,-3.16 -10.08,-22.03 -25.24,-28.35 2.54,-12.58 -16.37,-12.58 -12.58,-28.32 -10.7,-12.58 -30.23,-18.29 -31.48,-37.82 -4.41,-1.25 -10.08,2.54 -12.62,-3.12 5.04,-11.33 -7.54,-10.08 -9.41,-15.74 -13.24,0.62 -11.99,-15.75 -25.24,-12.62 -7.54,-5.04 -10.04,-15.12 -22.03,-15.74 -50.39,-29.61 -121.56,-29.61 -195.23,-28.32 -4.42,1.25 -13.24,-2.54 -12.62,3.12 -30.19,3.79 -56.05,4.41 -85.04,9.45 -9.41,0.63 -18.24,10.08 -31.44,6.29 -8.21,3.17 -21.45,8.21 -34.65,6.29 -1.29,12.62 -21.45,1.92 -25.2,9.45 -10.07,6.96 -28.36,-1.87 -34.65,9.46 -8.2,3.16 -21.4,8.2 -34.64,6.33 0.62,5 -5.04,7.54 -9.46,6.29 -8.82,1.25 -20.78,6.91 -28.36,9.45 -15.07,-0.67 -18.86,13.2 -31.48,12.58 -15.12,-0.63 -18.91,13.24 -31.48,12.57 -13.87,0.67 -18.91,10.75 -28.33,15.79 -12.61,-2.54 -12.61,16.36 -28.35,12.57 -6.29,4.42 -5.67,17.62 -18.91,12.62 -11.33,14.45 -27.74,24.53 -34.65,44.06 -16.37,9.46 -8.83,46.61 -6.29,63.01 -0.62,12.58 13.87,11.33 9.45,25.2 4.42,6.29 17.62,5.66 12.58,18.86 10.08,15.12 29.61,13.87 37.82,31.53 15.74,-3.79 15.74,15.08 28.35,12.58 14.46,1.87 19.5,21.4 34.61,22.07 24.57,7.53 41.61,24.53 69.3,31.48 119.02,46.6 253.83,74.3 390.51,97.62 58.55,-3.17 129.1,8.16 176.37,-9.46" /><path
         id="path34"
         style="fill:#301987;fill-opacity:1;fill-rule:nonzero;stroke:none"
         d="m 2541.45,3141.8 c 8.78,-1.25 20.78,-6.96 28.32,-9.46 15.11,-0.62 19.53,-11.32 31.52,-12.57 13.2,0.58 15.12,-13.25 25.16,-12.62 15.11,-0.63 19.57,-11.33 31.52,-12.58 14.49,-0.62 18.91,-10.7 28.32,-15.74 9.45,-0.67 19.53,-5.71 25.19,-12.62 7.58,-5.66 24.57,-3.79 31.53,-12.62 9.41,-0.62 19.53,-5.66 25.15,-12.57 8.83,-1.25 20.79,-6.96 28.36,-9.46 23.95,2.5 28.99,-20.15 50.39,-18.86 6.29,-10.08 35.9,8.16 25.2,-15.79 -15.12,-4.41 -14.49,-20.78 -22.03,-31.48 -3.79,-20.16 -7.58,-51.02 3.12,-66.13 0.67,-18.28 10.71,-27.07 15.75,-40.94 1.91,-1.25 8.82,-6.29 6.28,-12.58 -17.61,-4.41 -22.65,8.17 -34.61,9.42 -13.86,0.66 -18.9,10.74 -28.35,15.78 -9.46,0.62 -19.54,5.62 -25.2,12.57 -9.41,0.63 -19.53,5.67 -25.19,12.58 -9.46,0.67 -19.54,5.71 -25.2,12.62 -11.95,-1.29 -16.37,17.62 -28.32,15.74 -11.99,0.63 -14.49,10.71 -22.07,15.74 -13.83,-7.53 -7.54,13.87 -22.03,6.29 -3.17,16.37 -22.03,10.08 -28.36,25.24 -13.83,-7.58 -7.54,13.83 -22.03,6.29 -3.17,16.36 -22.03,10.04 -28.32,25.19 -17.03,5 -28.99,15.12 -40.94,28.32 -2.54,5.67 -8.2,1.92 -12.62,3.17 -22.03,33.98 -68.63,50.39 -56.68,107.07 15.12,9.45 51.02,9.45 66.14,0" /><path
         id="path36"
         style="fill:#301987;fill-opacity:1;fill-rule:nonzero;stroke:none"
         d="m 3070.51,3135.51 c 0,-11.37 -6.92,-11.99 -15.74,-15.74 -17.04,0.58 -29.61,-12.62 -44.11,-18.91 -43.43,-4.41 -101.36,-4.41 -144.84,0 -40.94,5.66 -86.29,1.87 -129.14,3.16 0,11.33 6.95,11.96 15.74,15.75 56.1,20.78 132.31,27.07 201.56,18.86 37.15,-5.66 77.47,-1.87 116.53,-3.12" /><path
         id="path38"
         style="fill:#301987;fill-opacity:1;fill-rule:nonzero;stroke:none"
         d="m 2944.53,3072.5 c 0,-7.58 -2.5,-16.37 -12.58,-12.58 -7.57,-8.2 -17.03,-16.4 -22.07,-25.19 -11.95,5.66 -10.08,-8.83 -18.86,-9.46 -12,8.21 -34.03,-3.12 -40.94,9.46 -7.58,5.66 -24.57,3.79 -31.53,12.57 -8.78,1.25 -20.78,6.96 -28.32,9.46 -15.11,-0.63 -18.9,13.24 -31.52,12.62 -8.79,3.74 -15.7,4.41 -15.7,15.74 60.43,-13.87 141.05,1.25 201.52,-12.62" /><path
         id="path40"
         style="fill:#5799a8;fill-opacity:1;fill-rule:nonzero;stroke:none"
         d="m 3212.23,2622.19 c 81.25,-29.61 163.75,-54.81 248.79,-75.59 10.07,-0.62 34.02,3.75 25.19,-15.74 -102.03,-75.59 -231.13,-84.41 -330.66,-166.91 -20.16,-4.46 -28.99,-35.28 -53.56,-28.36 -54.14,8.82 -110.19,51.01 -129.1,103.9 -14.49,14.49 -11.37,35.9 -25.19,50.39 0.62,10.71 -2.54,22.7 9.45,28.36 20.15,11.33 45.35,10.08 59.8,34.65 16.41,6.91 34.03,24.53 40.94,40.94 15.16,21.4 33.4,41.56 40.98,66.13 41.56,-3.16 73.67,-29.61 113.36,-37.77" /><path
         id="path42"
         style="fill:#5799a8;fill-opacity:1;fill-rule:nonzero;stroke:none"
         d="m 3580.66,2518.24 c -11.95,-19.53 -32.11,-18.28 -44.06,-37.77 -7.58,3.75 -10.7,-6.33 -15.74,-9.45 -91.95,-44.11 -189.57,-73.05 -270.82,-141.72 -22.07,-10.08 -41.6,3.79 -59.84,12.58 -6.96,18.28 11.32,8.82 15.74,22.07 9.41,5 21.4,3.75 28.36,15.74 84.37,47.85 185.15,55.43 261.36,122.81 14.5,3.79 26.45,19.53 34.65,31.48 16.99,-5.03 57.31,13.25 50.35,-15.74" /><path
         id="path44"
         style="fill:#a61900;fill-opacity:1;fill-rule:nonzero;stroke:none"
         d="m 2922.5,2471.02 c 8.83,-29.61 22.66,-60.47 44.06,-81.88 8.83,-18.28 28.99,-38.44 47.27,-47.26 27.69,-20.16 56.68,-37.15 91.33,-40.94 1.25,-1.25 1.87,-1.88 3.12,-3.13 -84.37,-282.19 -50.98,-617.26 -40.94,-922.73 17.66,-205.35 34.65,-410.67 94.5,-598.361 3.78,-3.789 6.95,-8.199 12.61,-6.289 5.67,8.789 1.88,20.742 3.13,31.48 54.18,-5.66 103.32,-25.82 157.46,-31.48 168.79,-17.66 340.12,6.91 507.03,3.121 1.88,-11.321 -15.74,-18.899 -9.45,-28.321 55.43,30.2 120.31,46.61 188.94,34.61 8.83,-19.488 -27.69,-23.281 -12.58,-40.93 100.16,99.531 263.91,57.34 374.77,9.449 56.68,-30.859 104.53,-62.339 151.13,-116.519 -0.58,-13.25 19.53,-18.25 18.95,-31.488 41.52,-48.512 81.83,-106.442 69.26,-176.372 1.87,-11.949 -17.04,-16.359 -15.75,-28.32 -41.56,-35.269 -98.86,-51.68 -154.29,-34.64 -31.53,80.621 -95.12,156.21 -154.34,217.3 -15.12,1.879 -22.66,23.91 -37.77,25.2 -17.03,20.109 -41.56,23.902 -59.85,40.929 -37.81,10.711 -71.79,30.242 -113.39,31.492 -45.36,14.489 -78.72,-27.742 -116.53,-3.171 -54.14,24.57 -121.52,6.96 -179.49,3.171 -83.75,36.52 -194.61,7.539 -286.56,25.188 -8.83,1.883 -13.87,-3.789 -22.03,-3.16 -4.46,1.871 -8.21,4.41 -12.62,6.332 -11.33,-1.922 -27.07,5 -37.77,-6.332 23.28,-5.668 37.14,-13.867 50.39,-6.289 4.37,-1.91 8.16,-4.41 12.57,-6.289 79.96,-17.032 171.96,-5.039 251.96,-22.032 0.58,-13.871 -25.24,-21.449 -18.91,-34.648 14.45,1.879 25.2,10.699 37.77,15.738 61.1,20.781 140.47,25.821 204.69,9.461 8.83,-20.199 -40.27,-33.398 -12.58,-44.109 20.79,18.91 45.98,39.687 75.59,44.109 86.91,10.07 154.34,-24.57 220.47,-63.008 8.16,-6.293 14.45,-19.531 25.15,-18.914 20.16,-22.027 46.65,-41.558 59.85,-66.129 14.49,-10.699 24.57,-29.609 37.77,-44.058 9.46,-15.75 18.91,-31.492 28.36,-47.27 -3.79,-7.543 6.33,-10.699 9.45,-15.742 27.74,-70.551 93.83,-168.789 18.91,-239.34 -11.95,-1.25 -20.16,-10.07 -31.48,-12.57 -45.36,-10.75 -100.16,-7.578 -141.72,9.453 -17.03,-1.922 -27.11,13.828 -44.1,12.578 -90.71,38.43 -177,100.149 -255.08,154.289 -10.71,18.281 -29.61,16.41 -40.98,34.653 -13.83,1.878 -23.28,22.07 -34.61,25.199 -65.51,42.808 -120.31,103.937 -192.11,138.551 -4.41,4.418 -8.2,8.199 -12.61,12.617 -248.17,137.301 -619.77,156.211 -891.22,56.683 -69.29,-30.863 -136.68,-66.761 -214.14,-78.711 -43.47,3.118 -103.94,-12.621 -119.68,37.77 -23.32,20.777 -15.12,64.258 -12.58,94.488 12.58,42.821 59.18,82.5 97.62,103.91 10.07,17.661 27.69,14.493 37.77,31.481 28.36,13.871 54.18,34.031 85.04,40.98 79.37,30.2 177.62,13.832 248.79,-22.07 43.43,-21.41 95.11,-23.949 148,-22.031 0,-3.789 -0.62,-7.578 3.17,-9.449 4.41,1.25 10.08,-2.54 12.58,3.16 -83.75,508.28 -215.39,997.03 -251.92,1524.22 -1.29,77.46 -10.08,169.41 72.42,201.56 24.58,10.7 13.87,-17.03 25.2,-25.19" /><path
         id="path46"
         style="fill:#a61900;fill-opacity:1;fill-rule:nonzero;stroke:none"
         d="m 3177.58,2310.39 c 14.49,-24.57 86.91,0.63 50.39,-50.39 -136.06,-450.98 -26.45,-956.72 88.16,-1382.5 1.92,-11.988 8.21,-23.32 12.62,-34.648 112.73,-35.903 217.93,21.41 321.21,47.23 123.48,38.438 231.17,113.978 365.31,125.968 0.63,-6.95 -1.25,-15.11 6.29,-18.898 38.44,35.898 82.54,59.838 138.6,53.548 7.54,-13.24 -13.87,-18.9 -6.29,-28.36 141.72,78.75 348.28,49.14 472.38,-47.219 20.78,-8.832 35.9,-31.492 53.52,-47.23 -0.63,-10.739 6.28,-10.739 12.61,-18.911 10.04,-22.691 25.2,-47.218 18.91,-72.421 -5.7,-0.657 -16.41,1.25 -12.62,9.421 -108.36,129.758 -298.55,160 -462.93,119.68 -35.94,3.172 -69.29,20.789 -107.11,9.461 -33.36,-5.672 -68.63,-25.82 -103.9,-9.461 -74.96,0.629 -130.39,-45.969 -195.28,-69.289 -7.54,4.41 -8.79,-7.539 -15.74,-6.289 -8.16,-5.043 -16.99,-10.703 -25.16,-15.742 13.21,0 20.12,-0.629 25.16,3.16 9.45,3.121 18.91,6.289 28.36,9.449 61.72,22.031 119.02,63.602 188.98,56.68 0.59,-20.82 -37.18,-32.77 -28.35,-50.391 13.2,6.922 30.85,18.242 44.1,31.492 41.56,26.442 95.7,34.02 148,25.192 0.63,-20.781 -35.27,-30.863 -28.35,-50.391 15.11,3.789 23.32,18.91 37.81,31.489 125.31,49.761 297.26,33.39 406.25,-34.649 30.19,-10.082 50.97,-40.941 75.54,-62.969 5.04,-16.371 23.33,-26.453 25.24,-44.101 16.99,-7.539 5.04,-27.071 22.03,-34.649 28.32,-51.64 37.77,-130.351 -3.16,-179.492 -26.45,-30.859 -71.8,-19.539 -110.24,-22.039 -8.83,1.258 -15.12,8.789 -22.03,15.75 -8.16,14.488 -16.99,29.609 -25.19,44.059 -68.01,82.539 -147.39,158.121 -248.79,179.531 -10.71,8.828 -25.2,8.16 -37.82,12.578 -70.5,23.32 -173.2,27.113 -236.17,-15.738 -35.9,8.199 -69.92,27.73 -110.19,15.738 -54.85,-20.777 -115.9,0.621 -176.37,-6.289 -191.48,-20.16 -420.12,-35.898 -592.07,37.809 -10.08,3.75 -5.04,14.461 -6.29,22.031 17.62,5.039 30.2,14.5 37.77,28.359 8.21,54.77 -11.95,97.621 -22.03,144.851 -25.19,86.91 -53.55,171.95 -85.04,255.08 -15.74,332.57 -59.84,711.75 37.82,1020.39 3.75,20.78 36.52,22.65 44.06,3.12" /><path
         id="path50"
         style="fill:#000000;fill-opacity:1;fill-rule:nonzero;stroke:none"
         d="m 3813.71,877.5 c -5.04,-3.789 -11.95,-3.16 -25.16,-3.16 3.75,13.859 11.33,10.07 25.16,15.742 0,-4.422 0,-8.203 0,-12.582" /><path
         id="path52"
         style="fill:#a61900;fill-opacity:1;fill-rule:nonzero;stroke:none"
         d="m 3039.02,852.301 c 11.33,-14.492 3.75,-36.563 9.46,-53.551 -105.82,-22.66 -174.5,63.629 -277.15,59.84 -17.62,0 -35.9,0 -53.56,0 0,4.422 0,8.172 0,12.582 115.9,23.949 216.06,-13.871 321.25,-18.871" /><path
         id="path54"
         style="fill:#a61900;fill-opacity:1;fill-rule:nonzero;stroke:none"
         d="m 2717.77,858.59 c -7.54,-1.289 -14.49,-1.91 -22.03,-3.16 -0.62,9.449 4.42,13.242 22.03,15.742 0,-4.41 0,-8.16 0,-12.582" /><path
         id="path56"
         style="fill:#510a00;fill-opacity:1;fill-rule:nonzero;stroke:none"
         d="m 3388.59,704.301 c -6.29,-8.832 -17.03,-5.082 -25.19,-6.332 -17.03,20.781 23.9,13.871 25.19,6.332" /><path
         id="path58"
         style="fill:#000000;fill-opacity:1;fill-rule:nonzero;stroke:none"
         d="m 3483.09,697.969 c 0,-1.879 0,-4.418 0,-6.289 -13.25,-7.578 -27.11,0.621 -50.39,6.289 18.86,4.41 41.56,11.332 50.39,0" /><path
         id="path60"
         style="fill:#a61900;fill-opacity:1;fill-rule:nonzero;stroke:none"
         d="m 4774.26,584.609 c 6.29,-11.328 6.29,-17.027 6.29,-22.027 1.87,-7.582 4.41,-14.492 6.29,-22.07 0,-1.883 0,-4.422 0,-6.293 -5.04,-1.918 -10.71,-4.418 -15.75,-6.289 -15.11,9.449 -28.32,6.91 -31.48,15.742 1.87,15.117 13.2,25.816 22.03,37.777 4.41,1.25 8.2,1.91 12.62,3.16" /><path
         id="path62"
         style="fill:none;stroke:#000000;stroke-width:30;stroke-linecap:butt;stroke-linejoin:miter;stroke-miterlimit:4;stroke-dasharray:none;stroke-opacity:1"
         d="m 4774.26,584.609 c 6.29,-11.328 6.29,-17.027 6.29,-22.027 1.87,-7.582 4.41,-14.492 6.29,-22.07 0,-1.883 0,-4.422 0,-6.293 -5.04,-1.918 -10.71,-4.418 -15.75,-6.289 -15.11,9.449 -28.32,6.91 -31.48,15.742 1.87,15.117 13.2,25.816 22.03,37.777 4.41,1.25 8.2,1.91 12.62,3.16 z" /><path
         id="path64"
         style="fill:#140000;fill-opacity:1;fill-rule:nonzero;stroke:none"
         d="m 4780.55,562.582 c 18.28,3.75 14.49,-21.453 6.29,-22.07 -1.88,7.578 -4.42,14.488 -6.29,22.07" /><path
         id="path66"
         style="fill:#a61900;fill-opacity:1;fill-rule:nonzero;stroke:none"
         d="m 2465.86,496.449 c -4.41,-10.117 -14.49,-2.539 -18.91,-9.461 -6.91,0.633 -13.86,-13.867 -25.19,-9.449 -5.04,1.871 -10.71,4.41 -15.74,6.293 1.25,11.328 1.87,23.32 3.16,34.648 -0.63,10.071 13.2,15.11 15.74,25.192 5.67,1.879 8.79,-2.543 12.62,-6.293 2.5,-13.859 18.87,-23.32 28.32,-40.93" /><path
         id="path68"
         style="fill:none;stroke:#000000;stroke-width:30;stroke-linecap:butt;stroke-linejoin:miter;stroke-miterlimit:4;stroke-dasharray:none;stroke-opacity:1"
         d="m 2465.86,496.449 c -4.41,-10.117 -14.49,-2.539 -18.91,-9.461 -6.91,0.633 -13.86,-13.867 -25.19,-9.449 -5.04,1.871 -10.71,4.41 -15.74,6.293 1.25,11.328 1.87,23.32 3.16,34.648 -0.63,10.071 13.2,15.11 15.74,25.192 5.67,1.879 8.79,-2.543 12.62,-6.293 2.5,-13.859 18.87,-23.32 28.32,-40.93 z" /><path
         id="path70"
         style="fill:#140000;fill-opacity:1;fill-rule:nonzero;stroke:none"
         d="m 4786.84,534.219 c 4.41,-8.828 1.91,-13.867 0,-18.91 -10.71,-2.5 -15.12,3.171 -15.75,12.621 5.04,1.871 10.71,4.371 15.75,6.289" /><path
         id="path72"
         style="fill:#140000;fill-opacity:1;fill-rule:nonzero;stroke:none"
         d="m 2421.76,477.539 c -1.25,-4.418 -1.88,-8.199 -3.13,-12.617 -16.4,-4.41 -23.94,5.668 -12.61,18.91 5.03,-1.883 10.7,-4.422 15.74,-6.293" /><path
         id="path74"
         style="fill:#a61900;fill-opacity:1;fill-rule:nonzero;stroke:none"
         d="m 4641.99,398.789 c 10.08,-20.777 26.45,-38.398 31.49,-59.809 -3.79,-13.242 10.07,-50.39 -18.91,-31.519 -18.91,14.488 -35.9,32.769 -56.68,44.098 5.04,25.82 28.99,24.57 44.1,47.23" /><path
         id="path76"
         style="fill:none;stroke:#000000;stroke-width:30;stroke-linecap:butt;stroke-linejoin:miter;stroke-miterlimit:4;stroke-dasharray:none;stroke-opacity:1"
         d="m 4641.99,398.789 c 10.08,-20.777 26.45,-38.398 31.49,-59.809 -3.79,-13.242 10.07,-50.39 -18.91,-31.519 -18.91,14.488 -35.9,32.769 -56.68,44.098 5.04,25.82 28.99,24.57 44.1,47.23 z" /><path
         id="path78"
         style="fill:#a61900;fill-opacity:1;fill-rule:nonzero;stroke:none"
         d="m 4484.53,153.16 c 1.88,-7.57 4.42,-14.488 6.29,-22.07 -1.87,-14.449 -4.41,-29.57 -6.29,-44.0587 -4.41,0 -8.2,0 -12.62,0 -3.12,3.1679 -6.29,6.289 -9.45,9.4492 -9.41,10.0785 -18.91,27.6995 -28.32,37.7815 8.16,15.117 27.7,14.488 37.77,31.476 4.42,1.293 8.21,1.922 12.62,3.172 0,-5.039 0,-10.711 0,-15.75" /><g
         id="g80"><g
           clip-path="url(#clipPath86)"
           id="g82"><path
             id="path88"
             style="fill:none;stroke:#000000;stroke-width:30;stroke-linecap:butt;stroke-linejoin:miter;stroke-miterlimit:4;stroke-dasharray:none;stroke-opacity:1"
             d="m 4484.53,153.16 c 1.88,-7.57 4.42,-14.488 6.29,-22.07 -1.87,-14.449 -4.41,-29.57 -6.29,-44.0587 -4.41,0 -8.2,0 -12.62,0 -3.12,3.1679 -6.29,6.289 -9.45,9.4492 -9.41,10.0785 -18.91,27.6995 -28.32,37.7815 8.16,15.117 27.7,14.488 37.77,31.476 4.42,1.293 8.21,1.922 12.62,3.172 0,-5.039 0,-10.711 0,-15.75 z" /></g></g><g
         id="g90"><g
           clip-path="url(#clipPath96)"
           id="g92"><path
             id="path98"
             style="fill:#140000;fill-opacity:1;fill-rule:nonzero;stroke:none"
             d="m 4484.53,153.16 c 18.24,3.789 14.45,-21.398 6.29,-22.07 -1.87,7.582 -4.41,14.5 -6.29,22.07" /><path
             id="path100"
             style="fill:#140000;fill-opacity:1;fill-rule:nonzero;stroke:none"
             d="m 4484.53,87.0313 c 4.42,-8.8321 1.88,-13.8711 0,-18.9102 -17.03,-6.2813 -11.37,9.4609 -12.62,18.9102 4.42,0 8.21,0 12.62,0" /></g></g></g></g></svg>