<?xml version="1.0" encoding="UTF-8" standalone="no"?>
<svg
   xmlns:dc="http://purl.org/dc/elements/1.1/"
   xmlns:cc="http://creativecommons.org/ns#"
   xmlns:rdf="http://www.w3.org/1999/02/22-rdf-syntax-ns#"
   xmlns:svg="http://www.w3.org/2000/svg"
   xmlns="http://www.w3.org/2000/svg"
   xmlns:sodipodi="http://sodipodi.sourceforge.net/DTD/sodipodi-0.dtd"
   xmlns:inkscape="http://www.inkscape.org/namespaces/inkscape"
   viewBox="0 0 764 693.33331"
   height="693.33331"
   width="764"
   xml:space="preserve"
   id="svg2"
   version="1.1"
   sodipodi:docname="roadrunner2.svg"
   inkscape:version="0.92.4 (5da689c313, 2019-01-14)"><sodipodi:namedview
     pagecolor="#ffffff"
     bordercolor="#666666"
     borderopacity="1"
     objecttolerance="10"
     gridtolerance="10"
     guidetolerance="10"
     inkscape:pageopacity="0"
     inkscape:pageshadow="2"
     inkscape:window-width="1366"
     inkscape:window-height="715"
     id="namedview39"
     showgrid="false"
     inkscape:zoom="0.34038463"
     inkscape:cx="382"
     inkscape:cy="346.66666"
     inkscape:window-x="-8"
     inkscape:window-y="22"
     inkscape:window-maximized="1"
     inkscape:current-layer="svg2" /><metadata
     id="metadata8"><rdf:RDF><cc:Work
         rdf:about=""><dc:format>image/svg+xml</dc:format><dc:type
           rdf:resource="http://purl.org/dc/dcmitype/StillImage" /></cc:Work></rdf:RDF></metadata><defs
     id="defs6" /><g
     transform="matrix(-1.3333333,0,0,-1.3333333,763.11465,693.33333)"
     id="g10"><g
       transform="scale(0.1)"
       id="g12"><path
         id="path16"
         style="fill:#000000;fill-opacity:1;fill-rule:nonzero;stroke:none"
         d="m 410.621,5092.54 c -23.781,-29.92 -36.051,-63.71 -30.699,-105.16 8.437,-46.05 34.527,-83.67 70.59,-117.42 40.699,13.05 79.84,29.18 124.328,34.53 26.14,0 49.14,10.74 77.539,6.92 0.781,0.78 1.531,1.52 2.312,2.3 87.5,10.74 158.118,-19.96 244.84,-12.26 42.188,-4.61 82.891,-14.61 115.899,-41.49 9.22,-12.26 13.05,-26.84 15.35,-42.97 22.23,-10.74 48.36,-14.57 67.54,-34.53 213.36,8.44 377.62,-99.76 555.66,-176.52 98.25,-50.67 203.4,-84.42 311.61,-110.55 34.57,-14.57 77.53,-16.87 99.8,-55.23 6.13,-19.96 3.05,-43.01 -15.35,-56.8 -3.87,-5.39 -10,-4.61 -13.83,-10.74 13.83,-6.92 30.7,-4.61 46.06,-6.92 241.75,-19.96 468.2,23.01 691.52,59.1 10,3.83 20.7,3.83 30.7,5.4 5.35,6.13 14.57,0.74 20.71,4.57 32.26,-1.53 79.06,12.26 93.63,-22.23 13.08,-64.49 -32.23,-111.33 -65.98,-160.43 -124.33,-147.34 -291.68,-215.66 -465.9,-254.02 -53.71,-10.79 -108.98,-17.7 -165.78,-23.83 1.53,-0.74 3.09,-2.31 4.61,-3.83 67.54,-9.22 141.21,-3.83 205.7,-20.74 6.92,-6.14 17.66,-7.66 20.71,-17.62 3.86,-15.35 6.17,-36.84 -6.92,-48.36 -65.23,-56.01 -153.47,-53.75 -240.19,-55.27 -42.23,3.08 -83.67,8.44 -124.38,16.13 -14.57,8.44 -32.97,6.13 -48.32,12.27 -52.97,13.04 -102.11,35.31 -151.99,54.49 1.56,-9.96 14.57,-17.66 22.27,-26.88 8.43,-17.61 23.79,-36.05 13.82,-57.54 -18.43,-16.87 -49.88,-8.43 -72.14,-6.91 -85.98,9.96 -155.82,68.32 -214.14,135.08 -53.72,61.4 -99.03,125.86 -143.52,191.13 -1.52,0 -1.52,0 -3.09,0 -4.61,-25.35 -4.61,-54.49 -27.61,-69.1 -10.75,-3.05 -19.96,3.09 -23.01,12.3 -53.75,152.74 -93.67,311.61 -193.44,444.38 -23.79,27.62 -51.41,59.1 -84.41,70.62 -54.5,-83.67 -142.78,-150.43 -194.96,-234.88 -2.308,-72.15 -4.609,-144.3 -56.801,-195.7 -3.05,0.78 -4.609,-3.09 -6.91,-4.61 110.501,-293.2 264.021,-568.71 453.591,-830.43 103.63,-135.86 234.88,-288.59 380.7,-383.79 42.97,-27.62 93.64,-36.05 141.21,-51.41 30.71,-6.91 59.89,-32.22 93.64,-14.57 97.5,-2.3 175,-51.44 254.8,-95.93 49.92,-32.27 99.81,-67.54 147.38,-105.94 140.47,-50.67 281.68,-98.24 422.89,-146.6 19.18,-9.18 40.71,-19.96 53.75,-37.58 3.83,-6.13 -7.69,-10 0,-14.61 48.32,0.78 89.81,19.22 139.65,16.13 5.39,-1.52 11.53,-6.91 12.31,-12.26 1.52,-38.4 -42.23,-49.93 -64.46,-70.63 0.75,-1.52 3.05,-2.3 5.36,-2.3 498.12,-1.57 967.07,67.54 1376.17,281.68 218.71,113.59 445.9,326.17 537.22,556.44 59.11,151.96 102.86,313.91 89.81,490.43 -33.75,257.89 -208.75,458.99 -329.26,680 -2.3,11.53 -6.91,25.35 -0.74,36.88 20.7,29.92 61.37,19.18 93.63,19.92 147.35,-28.36 261.68,-135.82 369.92,-248.67 252.5,-287.03 370.71,-716.1 215.67,-1086.02 -38.36,-108.98 -107.46,-205.7 -168.09,-305.47 0.78,-3.83 1.56,0.78 3.87,0 98.2,72.89 175.74,174.22 254.02,265.55 17.66,13.83 36.06,29.18 59.89,23.05 16.09,-5.39 27.61,-23.05 33,-38.4 6.88,-59.85 -19.22,-112.03 -46.83,-160.39 -105.9,-171.92 -286.29,-321.6 -453.6,-416.02 1.53,-0.74 1.53,-1.52 3.05,-2.3 41.45,7.69 85.2,30.74 129.73,12.3 7.65,-10.74 16.13,-20.7 15.35,-34.53 0.78,-45.31 -46.06,-76.02 -80.59,-94.41 -188.04,-97.46 -407.54,-123.6 -617.11,-169.61 -5.35,-3.09 -3.83,-6.92 1.57,-6.92 59.1,0 118.94,0.74 178.04,-1.52 13.05,-4.61 29.96,-6.17 36.1,-22.27 6.87,-20.74 1.52,-43.75 -16.88,-57.57 -50.66,-34.54 -112.85,-42.23 -174.26,-51.41 -226.4,-23.79 -446.68,14.57 -657.73,52.97 -6.92,-10.78 11.48,-7.7 15.31,-13.83 9.26,-8.44 17.7,-16.88 18.44,-29.18 -22.27,-36.05 -71.37,-20.7 -108.2,-22.27 -137.39,19.22 -264.03,63.72 -393.75,102.07 -1.53,-0.74 -1.53,-3.04 0,-3.82 36.09,-29.93 82.14,-49.1 108.98,-89.81 3.09,-13.79 -3.05,-23.79 -10.74,-33.01 -37.62,-16.83 -72.89,4.61 -106.68,14.61 -112.03,50.67 -219.49,111.29 -332.35,160.39 -3.82,-1.52 0.79,-2.3 0,-3.82 23.79,-20.71 63.72,-43.75 64.5,-79.07 -1.53,-6.13 -6.92,-5.35 -10.75,-9.22 -26.09,-3.04 -44.53,15.4 -66.79,23.05 -75.98,43.01 -151.96,84.45 -238.67,102.07 3.04,-10.7 17.65,-19.96 26.09,-29.92 450.51,-410.63 925.62,-760.63 1409.14,-1089.1 3.09,0.74 4.61,-0.74 6.91,-0.74 1.53,-3.09 3.05,-4.61 4.61,-6.92 68.28,-44.53 128.17,-83.67 193.4,-127.42 38.36,-22.269 71.41,-48.359 110.55,-72.929 41.44,-25.309 81.33,-60.621 126.64,-82.891 11.48,-13.828 28.36,-17.66 41.44,-29.141 100.55,-64.488 204.89,-121.25 309.3,-175.738 9.96,-0.781 12.27,-9.262 22.23,-9.262 60.66,-28.398 121.29,-60.629 185,-85.937 25.31,-10.742 49.14,-20.742 75.19,-30.703 6.18,0.742 7.7,-5.348 13.83,-5.348 12.31,-2.312 23.79,-11.531 35.31,-13.832 13.79,-6.91 28.4,-7.699 42.97,-15.348 2.31,-5.39 11.53,0 13.83,-5.39 17.66,-5.352 35.31,-11.492 51.41,-16.102 -0.75,-3.078 1.52,-3.078 3.83,-3.078 3.86,-0.781 9.21,-3.051 12.26,-3.832 71.41,-24.57 154.3,-41.449 201.88,-92.891 -1.53,-8.437 8.43,-5.347 6.91,-13.789 9.22,-14.609 10.74,-33.789 9.96,-55.269 10,-16.879 19.22,-30.711 19.22,-55.281 -14.57,-1.52 -27.66,21.492 -39.92,5.39 -7.66,-10.738 -20.74,-11.519 -30.71,-22.258 -17.65,-5.39 -33,-13.05 -53.71,-17.66 -40.7,-11.519 -85.19,-18.402 -136.64,-15.351 -3.04,-13.828 5.39,-27.621 -1.48,-39.918 -1.56,-3.832 -3.87,-9.18 -3.09,-15.313 6.14,-13.051 10.74,-29.969 11.49,-46.8396 -16.88,1.5195 -32.23,10.7422 -51.41,10.7422 -10.74,-2.3008 -15.35,-9.961 -29.18,-9.2227 -6.91,0 -13.83,-5.3867 -21.48,-5.3867 -56.02,-10.7422 -132,-10.7422 -188.05,0 -5.35,3.0898 -15.35,-0.7422 -19.18,2.3476 -26.09,1.5196 -43.75,12.2618 -65.23,18.3902 -6.14,2.309 -10.75,6.141 -17.66,6.918 -43.75,19.961 -85.98,39.922 -118.98,71.372 -36.06,26.128 -64.46,59.101 -94.38,91.32 -10.74,3.871 -10.74,19.961 -21.48,23.789 -6.18,10.781 -13.83,19.223 -22.27,27.66 -1.56,6.133 -7.69,8.441 -8.44,14.57 -6.91,5.391 -9.22,13.832 -16.91,18.442 -1.52,8.429 -8.44,13.039 -10.74,20.699 -8.44,2.301 -5.36,12.301 -13.79,16.129 -56.8,78.281 -105.94,165 -171.17,236.41 -3.05,9.961 -15.36,16.871 -19.18,26.09 -3.09,3.832 -8.44,6.141 -8.44,11.492 -8.44,9.219 -19.18,16.129 -25.35,27.649 -42.19,42.972 -82.89,83.679 -132,118.949 -25.35,13.832 -46.05,31.48 -72.14,43.75 -30.71,18.441 -62.93,33.011 -96.72,46.832 -13.79,4.609 -27.62,9.969 -39.92,15.359 -3.83,0.738 -9.18,3.039 -12.27,4.57 -27.62,4.61 -49.88,17.649 -79.06,20.739 -1.53,0 -4.61,-1.52 -3.83,0.781 -9.96,0 -19.18,6.129 -27.62,6.129 -19.96,5.391 -41.44,4.613 -58.36,10.742 -19.18,-1.519 -27.61,8.438 -46.79,8.438 -3.83,3.089 -11.53,-0.739 -13.83,2.312 -14.57,0.777 -26.84,4.609 -39.14,8.43 -41.45,13.051 -82.89,19.969 -102.07,58.319 -16.14,5.4 -42.97,-7.65 -49.89,10.79 -3.82,18.39 5.36,27.61 15.36,34.53 5.35,7.65 16.13,6.87 23.78,12.26 0,3.09 -1.52,6.92 1.53,6.92 10.78,37.61 55.27,50.66 90.58,65.23 23.79,8.44 50.63,9.96 75.2,16.88 0,1.56 -2.31,2.3 -3.05,3.82 -369.18,295.51 -753.71,551.1 -1146.68,789.03 -13.04,4.61 -24.57,12.26 -37.61,19.18 -117.43,79.06 -247.11,128.16 -366.88,201.87 -16.09,-3.83 -33.01,-3.08 -49.88,-3.08 -1.53,-1.53 -3.05,-2.31 -4.61,-3.83 23.05,-66.8 89.8,-139.69 160.43,-155.04 29.18,-20.7 29.18,-59.84 39.14,-91.33 22.26,-87.5 42.97,-176.52 67.54,-263.24 49.88,-188.09 112.07,-371.49 186.48,-548.79 5.39,-10.74 8.48,-21.48 15.35,-31.48 0,-13.79 10,-19.96 12.31,-32.23 16.09,-38.4 39.14,-73.67 55.27,-112.809 16.88,-33.789 35.28,-71.41 62.15,-99.77 3.83,-12.301 16.88,-17.691 22.27,-29.179 16.87,-16.133 35.31,-27.622 55.27,-38.403 49.88,-23 118.16,-19.918 176.52,-13.789 48.32,-1.558 111.29,9.18 150.43,-10 3.83,-0.738 9.18,-3.039 12.27,-3.82 9.22,-3.09 17.65,-6.918 26.87,-10 16.1,-4.57 28.4,-13.789 42.19,-22.231 29.18,-17.66 54.49,-40.66 75.24,-67.539 5.39,-5.39 10.74,-12.3 13.78,-19.218 9.22,-6.133 8.48,-15.313 16.14,-22.262 10,-16.098 14.61,-38.36 18.43,-59.07 14.57,-25.348 29.93,-47.571 26.1,-85.969 -3.87,-2.27 -3.09,-10.75 -11.53,-8.442 -7.65,17.661 -19.96,32.231 -39.92,39.141 -6.87,-2.301 -11.48,-6.91 -20.7,-6.91 -11.52,-3.051 -25.35,-0.75 -36.84,1.558 -3.82,2.301 -10.74,3.051 -16.87,2.301 -3.87,0.75 -9.22,3.051 -12.31,4.61 -12.26,0 -19.18,4.57 -27.61,7.66 -7.7,3.082 -18.44,6.133 -25.35,9.961 -18.4,6.129 -39.15,13.832 -56.02,22.269 -9.96,0.781 -13.83,8.43 -23.79,9.211 -19.18,9.219 -41.44,18.399 -62.19,26.879 -13.79,5.352 -33.75,9.961 -45.27,17.66 -6.91,0 -8.44,6.133 -13.79,5.352 -6.91,0 -8.48,6.129 -13.83,5.39 -14.61,3.829 -26.87,10.739 -41.44,13.789 -10.75,4.61 -25.32,6.129 -39.14,6.911 0,0.781 0,1.558 0,1.558 -23.79,0.75 -53.75,5.352 -74.46,-3.859 -11.48,1.519 -10.74,-8.442 -22.26,-6.918 -29.18,-12.262 -54.49,-34.531 -78.28,-56.793 -26.1,-20.707 -49.11,-46.797 -70.63,-72.149 -19.96,-11.488 -27.62,-36.058 -46.8,-48.32 -4.6,-10.75 -18.43,-16.14 -22.26,-28.441 -19.96,-19.918 -38.4,-37.578 -55.27,-61.367 -19.97,-13.051 -27.62,-35.313 -46.8,-48.36 0,-0.781 0,-2.301 0,-3.832 -9.22,-8.43 -20.74,-15.351 -25.35,-27.648 -26.1,-20.711 -49.1,-46.801 -74.46,-69.063 -9.96,-0.789 -12.26,-12.308 -20.7,-13.828 -5.35,-11.492 -18.44,-10.75 -24.57,-22.269 -33.01,-23.793 -71.37,-46.051 -109.73,-62.153 -23.04,-9.957 -45.31,-18.3982 -71.4,-24.5701 -90.55,-22.2578 -214.14,-36.0469 -309.3,-9.957 -4.61,4.5703 -13.83,3.8281 -16.87,9.957 -6.92,-0.7383 -7.7,8.4414 -15.36,9.2227 -13.04,0 -27.65,1.5194 -39.92,-0.7813 -12.26,-2.2695 -22.26,-9.9609 -36.05,-6.8711 1.52,14.5708 8.44,22.2228 13.79,32.9998 10,15.321 37.61,17.621 30.7,45.281 -1.52,2.301 -4.61,1.52 -6.91,1.52 -5.36,-5.352 -16.88,-0.781 -23.79,-3.828 -12.27,-2.301 -27.62,-2.301 -38.36,0 -19.18,-0.781 -33.01,5.348 -48.36,9.18 -6.13,2.347 -11.53,6.918 -18.44,6.918 -18.4,9.21 -34.53,19.21 -49.1,34.531 -3.83,-5.352 -13.83,-0.75 -19.96,-3.832 -12.27,-0.739 -17.66,-9.18 -29.92,-9.957 -3.83,1.519 -2.31,6.867 -3.09,11.519 3.09,3.828 4.61,10.739 9.96,13.789 11.52,23.051 42.23,29.961 46.84,57.578 10,23.012 26.09,45.274 43,63.711 11.49,5.352 18.4,13.789 27.62,22.231 8.44,1.558 13.05,8.469 20.71,10.781 15.35,13.789 37.61,18.399 55.27,27.609 12.26,3.051 25.31,5.36 36.83,9.969 24.57,2.34 46.84,13.082 75.24,10.742 42.97,6.168 81.33,-5.351 126.6,-1.531 8.48,-5.351 22.27,-0.781 30.7,-3.82 57.58,-3.871 115.9,-10 176.57,-5.391 36.05,3.082 72.14,8.43 105.11,16.133 16.92,3.078 30.75,10 48.36,15.348 15.35,0 21.53,10.742 37.62,12.269 13.83,8.43 30.7,11.52 42.23,20.742 37.61,21.481 76.75,42.219 103.59,75.188 13.05,3.832 19.22,16.141 27.66,24.57 10.74,13.832 23.79,26.883 32.22,41.449 12.27,26.872 26.1,54.493 29.93,85.942 3.82,32.262 -5.36,56.051 -7.66,88.281 -4.61,23.039 -8.48,49.141 -16.92,71.399 -2.26,19.96 -11.52,32.23 -13.78,52.929 -8.44,33.012 -21.49,65.242 -29.18,100.551 -8.44,8.48 -6.14,23.79 -12.27,34.53 -89.8,254.06 -197.27,525 -352.3,764.45 -16.88,21.49 -33.01,43.75 -49.89,66.02 -178.83,78.28 -356.87,192.66 -481.99,366.09 -10,14.57 -27.66,9.22 -39.92,17.66 -87.5,42.23 -177.31,78.28 -250.2,153.52 -70.62,81.32 -121.29,188 -82.89,297.03 8.44,18.4 24.53,39.14 44.5,48.32 -28.4,115.15 -95.16,214.92 -146.61,320.82 -228.71,409.1 -463.551,816.64 -747.54,1203.47 -72.14,65.24 -146.601,142 -193.39,223.36 -6.141,33.75 -46.84,30.67 -65.238,59.85 -44.532,45.27 -67.543,100.54 -72.93,162.69 -33.793,29.96 -73.672,59.1 -84.41,103.64 -16.922,63.71 10.738,123.59 62.148,165.78 56.051,41.44 118.981,65.23 184.211,85.97 2.309,-2.3 0,-5.39 0,-6.91"
         inkscape:connector-curvature="0" /><path
         id="path18"
         style="fill:#ffa611;fill-opacity:1;fill-rule:nonzero;stroke:none"
         d="m 364.57,5038.05 c -17.66,-89.03 41.45,-165.04 115.121,-212.62 6.911,-6.13 26.868,-9.22 19.18,-23.01 -8.441,-10 -2.312,-17.65 0,-27.62 39.918,-43 91.359,-58.35 138.16,-84.45 92.11,-46.05 191.129,-81.37 266.328,-161.95 46.84,-73.67 45.27,-180.35 27.621,-266.29 -7.66,-29.18 -19.179,-64.49 -49.89,-77.54 -83.629,-15.35 -147.34,31.48 -212.57,69.06 -97.5,70.63 -200.321,165.78 -260.981,267.89 -1.519,6.14 2.301,6.14 6.91,5.36 48.36,-24.58 117.43,-35.32 169.61,-12.27 44.531,24.53 46.839,73.67 41.453,117.42 17.648,-2.3 31.476,-20.7 47.578,-31.48 46.051,-41.45 75.23,-90.55 99.019,-141.21 3.09,-2.31 6.911,-9.22 8.442,-1.53 -24.531,75.98 -76.762,159.65 -155.781,193.4 -5.391,6.91 -11.532,10 -19.969,8.44 -9.211,4.61 -18.43,8.47 -28.391,11.52 -6.14,0.78 -7.699,1.53 -8.441,0 0,-5.39 5.351,-3.05 8.441,-6.13 9.211,-4.61 17.649,-10 27.61,-14.57 7.699,-35.31 10.75,-82.89 -13.79,-110.55 -35.308,-29.92 -98.242,-20.7 -138.16,-8.44 -79.84,19.97 -165,85.98 -178.832,172.7 -25.347,127.42 0,258.63 89.032,349.22 6.91,0 3.82,-10.74 2.3,-15.35"
         inkscape:connector-curvature="0" /><path
         id="path20"
         style="fill:#ffa611;fill-opacity:1;fill-rule:nonzero;stroke:none"
         d="m 338.48,5044.96 c -64.5,-76.01 -95.16,-165.78 -93.64,-269.41 -3.078,0 -4.61,0 -6.91,0 -39.918,36.83 -75.231,80.58 -58.321,135.86 13.789,72.14 92.852,114.33 151.95,140.47 5.39,1.52 11.531,-0.79 6.921,-6.92"
         inkscape:connector-curvature="0" /><path
         id="path22"
         style="fill:#ffffff;fill-opacity:1;fill-rule:nonzero;stroke:none"
         d="m 881.09,4861.52 c 3.871,-6.91 10,-13.82 6.14,-22.26 -5.351,-4.61 -14.57,-3.09 -20.71,-1.53 -103.629,30.71 -236.399,33.75 -334.641,-9.21 0,1.52 0,3.82 0,5.39 1.562,1.52 3.859,3.04 5.391,3.82 11.519,6.14 27.609,13.05 30.699,27.62 -30.699,9.96 -62.188,-3.05 -87.5,-17.65 -3.828,-0.79 -6.918,0.78 -9.219,3.82 0.781,10 14.57,10 22.27,15.36 115.109,32.26 277.07,49.88 387.57,-5.36"
         inkscape:connector-curvature="0" /><path
         id="path24"
         style="fill:#301987;fill-opacity:1;fill-rule:nonzero;stroke:none"
         d="m 925.621,4869.96 c 4.609,-3.08 13.051,0 16.879,-3.08 19.18,-7.66 40.699,-10.75 52.191,-29.15 3.079,-5.39 0.778,-10.78 5.389,-14.61 2.3,-8.43 -8.478,-2.26 -10.74,-6.13 -8.442,-1.52 -19.961,-0.78 -22.27,-10.74 6.91,-4.61 19.961,-2.3 26.09,-6.91 3.828,-0.75 9.22,-3.05 12.27,-3.83 12.3,0 19.22,-5.35 27.66,-8.44 6.13,-6.13 15.35,-5.35 22.22,-9.96 4.61,-3.09 11.53,-4.65 13.83,-9.22 8.44,-2.3 10.74,-12.3 19.22,-13.05 0.74,-8.43 10.7,-10.78 13.01,-19.22 6.91,-5.35 3.86,-22.22 2.3,-29.92 -9.22,-17.65 -26.83,-24.57 -42.97,-34.53 -13.04,-3.83 -24.57,-9.96 -36.83,-15.35 -9.22,1.52 -14.57,-2.3 -19.18,-6.91 4.61,-0.75 9.96,-1.53 14.57,-1.53 2.3,0 4.61,-0.78 6.13,1.53 42.23,8.43 90.59,16.13 107.46,57.57 -3.83,9.22 6.92,9.97 1.53,18.4 -1.53,12.31 -7.66,19.18 -11.49,29.96 14.57,0 30.66,1.53 42.97,-0.78 9.22,-3.08 22.26,0 30.7,-3.08 5.35,-3.05 14.57,0 19.18,-3.05 16.14,-0.78 29.92,-3.09 41.45,-7.7 10.74,-2.26 23.01,-3.04 30.7,-8.43 7.66,-3.09 16.09,-5.35 24.57,-8.44 12.27,1.52 14.57,-7.66 24.53,-8.44 9.22,-3.08 17.66,-6.13 26.88,-9.22 13.04,-5.39 26.09,-9.96 39.92,-15.35 19.18,-8.44 38.36,-16.87 57.54,-25.31 17.65,-7.7 33.79,-19.18 52.97,-24.57 17.65,-5.35 29.92,-16.88 46.83,-22.27 33.01,-16.09 66.76,-32.22 99.77,-46.79 9.22,-6.92 24.57,-7.7 34.53,-15.36 9.96,-0.78 13.05,-8.43 23.05,-9.21 6.87,0 8.43,-6.14 13.79,-6.14 6.91,0.75 8.43,-5.39 13.82,-5.39 6.92,0.78 8.44,-5.35 13.79,-5.35 6.96,0 8.48,-6.13 13.83,-5.39 14.57,-8.44 29.92,-10.74 46.84,-15.35 0,-2.31 2.3,-3.09 4.61,-3.09 3.82,-0.74 8.43,-3.04 12.26,-3.83 9.22,-2.26 16.13,-8.43 27.62,-6.91 0,-2.27 2.3,-3.05 3.87,-3.05 3.04,-2.3 12.26,-1.56 15.35,-3.82 9.18,-4.61 26.09,-1.57 33.01,-8.44 10.74,-2.31 23.78,-2.31 30.7,-8.48 12.26,0 19.18,-4.57 27.62,-7.65 8.43,-3.09 17.65,-6.92 26.09,-9.97 10.74,-1.56 17.66,-9.21 26.09,-13.82 4.61,-7.7 16.88,-13.05 9.96,-24.57 -22.22,-37.62 -88.24,-33.75 -132.77,-25.32 -16.09,-0.78 -28.4,4.61 -42.97,6.88 -9.22,4.65 -24.57,2.3 -34.53,6.91 -3.08,3.09 -11.52,2.31 -14.61,4.61 -6.91,6.13 -22.23,1.56 -27.62,7.7 -8.43,3.04 -16.87,6.13 -25.35,8.43 -18.4,8.44 -36.79,11.53 -52.18,22.23 -11.49,1.56 -16.1,13.83 -27.62,10.78 5.39,-6.91 13.04,-13.04 22.26,-17.65 3.83,-3.09 10.75,-4.61 13.83,-9.96 13.79,-6.92 27.62,-13.05 41.45,-19.22 6.13,0.78 7.65,-5.36 13.79,-5.36 13.82,-7.69 29.18,-10.74 46.83,-15.35 6.14,-2.3 10.74,-5.39 19.18,-5.39 6.13,-3.04 10.74,-6.13 19.18,-5.35 5.39,-3.87 10.74,-4.61 18.44,-5.39 6.91,-3.09 14.57,-5.35 24.57,-6.13 7.66,-3.09 14.57,-4.61 24.53,-5.39 3.87,-3.05 12.31,-2.31 18.44,-2.31 2.3,-6.13 13.04,-0.74 16.09,-4.57 29.18,-2.3 52.97,-11.52 80.63,-13.83 18.4,0.79 32.22,-5.39 49.88,-5.39 11.48,-3.04 27.62,0 38.36,-3.04 89.02,-3.09 176.52,-0.78 259.41,8.43 29.93,-2.3 49.89,10.75 80.59,8.44 125.12,16.88 249.45,36.84 373.01,58.32 17.65,3.09 38.4,0.78 52.18,-6.87 1.57,-22.27 -0.74,-40.71 -10.74,-54.53 -5.35,-12.27 -11.48,-23.01 -19.18,-34.54 -6.91,-10.74 -15.35,-21.48 -22.26,-33 -8.44,-8.44 -15.35,-17.62 -25.32,-26.1 0,-1.52 0,-3.04 0,-3.83 -15.35,-13.04 -28.39,-30.7 -45.27,-41.44 -4.61,-11.52 -18.44,-10.74 -23.79,-22.27 -8.44,0 -8.44,-11.48 -17.65,-11.48 -5.4,-5.39 -12.31,-10.78 -19.18,-13.83 -6.92,-5.39 -13.83,-10.74 -20.75,-16.13 -8.43,1.56 -5.39,-8.44 -13.82,-6.92 -8.44,-8.43 -21.49,-12.26 -32.23,-18.39 -5.35,-7.7 -18.44,-6.14 -24.57,-13.83 -17.66,-7.66 -34.53,-16.1 -52.19,-24.57 -13.79,-3.05 -21.48,-9.18 -34.53,-12.27 -34.53,-13.05 -69.84,-24.57 -108.2,-33.01 -91.33,-21.48 -191.14,-33 -298.6,-33.75 -0.74,-2.3 -5.35,-0.78 -7.65,-0.78 v 0.78 c -43.75,0 -80.59,6.14 -118.99,11.49 -15.35,-1.52 -19.92,7.69 -32.97,8.48 -0.78,1.52 -3.08,0.74 -4.61,0.74 -3.82,-7.66 8.44,-6.14 9.97,-12.27 12.26,-6.91 24.57,-13.05 38.39,-16.13 14.57,-8.44 29.93,-10.74 46.8,-15.35 6.13,-3.09 10.74,-6.14 19.96,-5.35 4.61,-3.87 10.74,-4.61 17.66,-6.18 3.83,-0.74 9.22,-3.04 12.26,-3.82 7.7,-1.53 13.83,-2.31 20.75,-3.83 7.65,-3.09 15.35,-5.35 25.31,-6.14 3.83,-3.08 11.52,-2.3 17.65,-2.3 3.09,-5.39 13.05,-0.78 16.92,-4.61 18.4,-3.09 39.88,-3.09 57.54,-6.91 24.57,3.08 40.66,-5.35 65.23,-2.31 11.53,-5.35 30.71,-0.78 42.97,-4.61 17.66,-3.83 40.7,2.31 55.27,-5.35 9.22,0 13.05,-4.61 19.18,-8.44 3.09,-22.26 -18.39,-28.4 -32.22,-36.87 -9.22,-3.05 -19.96,-5.35 -28.4,-9.96 -68.32,-16.88 -163.48,-20.71 -236.41,-6.92 -13.01,2.31 -26.09,4.61 -39.88,5.39 -5.39,3.83 -10.74,4.61 -18.44,6.14 -3.83,3.04 -11.52,2.3 -17.65,2.3 -5.36,3.83 -10.75,4.61 -18.4,5.35 -3.83,0.78 -8.48,3.09 -12.31,4.61 -12.26,0 -19.18,4.61 -27.61,8.48 -8.44,2.26 -16.14,5.35 -24.57,7.66 -14.58,3.08 -23.01,11.52 -36.06,13.82 -29.92,13.05 -62.19,25.32 -88.28,41.45 -21.48,13.79 -42.23,23.01 -60.63,39.14 -19.96,13.05 -39.14,26.09 -58.32,39.88 -2.3,7.7 -11.52,6.17 -13.82,12.31 -10.75,8.43 -22.27,15.35 -33.01,23.79 -9.18,8.43 -16.13,16.87 -27.62,22.26 -5.39,3.83 -8.44,13.05 -16.87,13.79 -5.39,9.22 -14.61,13.05 -20.75,21.48 -2.3,0 -5.39,1.57 -6.91,-0.74 26.09,-36.83 61.41,-65.23 94.41,-95.93 4.61,-6.92 11.53,-13.05 17.66,-19.18 11.52,-2.31 14.57,-16.92 26.09,-19.18 9.22,-8.48 16.14,-16.92 27.62,-22.31 10.74,-11.48 25.35,-19.18 39.14,-27.62 1.56,-8.43 8.44,-13.04 10.74,-20.7 9.22,-7.69 15.36,-19.18 24.57,-26.09 0,-1.57 0,-3.09 0,-3.83 12.31,-12.31 23.79,-23.83 36.1,-34.57 1.52,-6.92 8.44,-11.49 5.35,-20.7 -7.66,3.04 -18.44,-0.79 -24.57,2.3 -10.74,1.52 -19.18,2.31 -29.14,4.57 -3.87,0 -9.22,3.09 -12.31,3.87 -24.53,6.13 -45.27,14.57 -63.71,27.61 -14.57,6.92 -26.83,19.18 -41.4,26.1 -30.71,29.18 -62.19,59.88 -91.33,91.37 0.74,9.18 -10.78,9.18 -10.78,17.61 -9.18,6.18 -9.18,16.92 -19.18,20.75 -3.05,8.43 -7.66,14.57 -13.79,19.96 -2.35,8.43 -8.48,13.04 -13.83,19.18 -3.09,8.43 -7.69,13.82 -13.83,19.18 -1.52,8.43 -9.22,13.04 -11.52,20.74 -13.05,3.04 -6.88,21.48 -19.18,24.53 -16.09,26.87 -33.75,50.66 -48.36,79.06 -8.44,9.22 -10.74,23.05 -19.18,33.01 -9.96,18.44 -19.18,38.36 -27.62,58.32 -2.3,0 -4.61,-0.74 -3.83,-3.05 0,-1.56 -1.56,-4.61 0.75,-5.39 3.82,-46.05 30.7,-80.58 30.7,-127.38 -0.78,-16.91 -3.83,-29.18 -3.83,-46.84 -5.39,-3.82 -10.74,0.78 -8.44,6.92 -3.08,9.96 -5.39,19.96 -10,29.14 -12.26,53.75 -33.75,105.15 -50.62,155.82 -7.7,8.44 -6.91,22.26 -13.09,32.23 -5.35,10 -8.4,21.52 -14.57,31.48 -3.04,18.44 -16.09,28.4 -20.7,46.05 -9.22,16.1 -16.13,33.75 -26.87,48.36 -13.83,23.01 -26.1,48.32 -43.76,69.07 -1.52,7.65 -10.74,7.65 -11.52,16.13 -27.62,29.14 -56.01,58.32 -93.63,72.15 -14.57,4.57 -14.57,23.79 -31.45,26.09 -1.56,0 -3.08,4.57 -6.13,3.05 0,-7.66 6.13,-14.57 6.13,-25.31 9.18,-22.27 -10,-31.49 -15.35,-46.84 -8.44,-8.44 -15.35,-17.66 -25.31,-26.09 0,-1.53 0,-3.05 0,-4.61 -24.57,-19.96 -42.23,-46.8 -66.06,-69.07 -16.87,-19.18 -34.53,-38.36 -51.402,-57.57 -3.089,-7.66 -7.66,-12.27 -14.57,-15.36 -0.777,18.44 -2.308,33.79 -6.918,48.36 -3.82,16.14 -9.961,30.71 -15.351,45.32 -8.438,8.43 -7.649,21.44 -19.18,26.83 0,0.78 0,2.31 0,3.87 -13.828,13.01 -27.649,26.83 -41.438,38.36 -14.613,6.13 -23.793,16.09 -36.101,23.79 -4.61,3.04 -11.481,4.61 -13.789,9.96 -34.531,16.13 -62.961,39.14 -98.242,53.75 1.531,5.35 12.269,1.52 17.66,2.3 v -0.78 c 38.359,-3.05 78.281,-5.39 118.941,-4.61 15.36,3.83 33.789,3.83 49.891,6.92 22.258,3.82 46.051,8.43 65.23,18.43 7.699,0.75 11.52,6.14 19.219,7.66 9.18,7.66 20.7,14.57 22.23,27.62 3.08,10 0,20.74 -3.05,27.65 -26.879,37.58 -70.629,56.8 -114.379,72.11 0.789,10 8.437,18.44 3.828,30.75 0,3.82 -19.918,21.48 1.57,16.09 3.039,-5.35 14.571,-0.78 19.172,-3.83"
         inkscape:connector-curvature="0" /><path
         id="path26"
         style="fill:#ffffff;fill-opacity:1;fill-rule:nonzero;stroke:none"
         d="m 982.422,4766.37 c 6.918,-9.22 20.698,-15.39 19.178,-27.66 -0.74,-15.35 -13.049,-20.7 -23.791,-29.18 -94.411,-36.05 -214.918,-26.09 -314.688,-8.44 -2.301,5.39 -6.91,1.57 -10.742,3.09 -41.438,20.7 -85.93,34.53 -123.551,64.45 0,1.57 0,2.31 0,3.09 32.973,4.61 68.281,7.66 87.5,39.92 3.832,12.27 -30.707,18.4 -4.609,23.79 133.551,19.96 267.07,1.52 370.703,-69.06"
         inkscape:connector-curvature="0" /><path
         id="path28"
         style="fill:#f0f0f0;fill-opacity:1;fill-rule:nonzero;stroke:none"
         d="m 531.879,4828.52 c -3.051,-3.09 -6.918,-5.4 -9.969,-8.44 -3.82,-0.78 -6.91,0.78 -9.211,3.83 0,10 10.742,4.61 19.18,10 0,-1.57 0,-3.87 0,-5.39"
         inkscape:connector-curvature="0" /><path
         id="path30"
         style="fill:#110c00;fill-opacity:1;fill-rule:nonzero;stroke:none"
         d="m 576.41,4665.04 c -3.09,3.08 -8.441,0.74 -8.441,6.13 0.742,1.53 2.301,0.78 8.441,0 0,-2.3 0,-3.83 0,-6.13"
         inkscape:connector-curvature="0" /><path
         id="path32"
         style="fill:#0a0047;fill-opacity:1;fill-rule:nonzero;stroke:none"
         d="m 1004.69,4648.91 c -4.61,-4.61 -8.44,-4.61 -11.53,-4.61 -2.301,9.22 9.22,6.17 11.53,4.61"
         inkscape:connector-curvature="0" /><path
         id="path34"
         style="fill:#5799a8;fill-opacity:1;fill-rule:nonzero;stroke:none"
         d="m 4909.77,4351.88 c 224.88,-180.36 364.57,-426.72 410.62,-700.75 40.66,-273.24 -39.14,-521.87 -184.22,-729.14 -17.62,-31.44 -42.19,-56.01 -53.71,-89.8 -3.08,-13.05 4.61,-24.53 15.35,-29.14 17.66,-2.31 29.18,10.74 42.97,17.65 103.63,72.89 165,164.26 247.19,257.11 11.48,6.14 26.83,35.31 46.8,25.31 25.31,-43.71 -3.83,-88.24 -17.66,-127.38 -75.98,-134.29 -189.57,-243.32 -315.47,-340 -138.91,-101.33 -295.47,-172.69 -454.34,-233.36 11.49,-4.57 25.32,0.78 37.58,1.57 56.8,10.74 108.99,32.96 162.74,49.88 72.15,15.35 140.43,39.92 212.58,53.75 10,-1.56 21.52,2.26 29.18,-3.09 5.35,-10 2.3,-23.79 -2.31,-33.01 -32.23,-41.44 -84.41,-58.32 -128.95,-81.36 -170.39,-67.54 -357.65,-92.85 -538.78,-132.78 -16.88,-5.39 -34.54,-13.04 -48.36,-23.79 -3.83,-13.82 4.61,-28.39 18.43,-34.53 71.37,-13.04 150.43,3.83 221.8,-9.22 1.52,-11.52 -0.74,-21.48 -10.74,-27.61 -46.06,-31.49 -103.63,-36.1 -158.87,-44.53 -287.07,-23.79 -560.31,26.09 -818.16,95.15 -69.85,21.53 -141.25,40.71 -211.1,63.71 -3.82,-6.87 7.7,-4.61 10,-10.74 69.07,-36.83 145.04,-58.32 217.97,-85.98 44.49,-30.7 95.94,-48.32 143.52,-71.32 0,-2.35 0,-3.87 0,-6.18 -66.02,-7.65 -122.78,13.05 -181.92,25.36 -174.21,44.49 -346.13,99.76 -507.3,171.13 0,-1.52 0,-3.09 0,-3.83 91.33,-61.41 183.44,-122.03 273.24,-184.22 10.74,-13.04 27.62,-16.09 32.23,-33.01 -5.39,-4.61 -16.88,-3.04 -23.79,-1.52 -142.77,49.88 -271.68,135.08 -412.93,189.57 -39.92,13.05 -82.89,19.18 -127.38,22.27 -5.39,-4.61 5.35,-9.96 8.43,-11.53 37.58,-20.7 77.5,-42.97 108.99,-70.58 -0.78,-0.78 -1.56,-1.56 -2.31,-2.31 -87.5,46.84 -172.69,82.89 -267.89,96.68 -11.48,5.39 -19.92,17.66 -29.14,26.14 0,1.52 0,3.82 0,5.35 72.89,13.82 144.3,31.44 211.06,59.84 551.09,-6.87 1071.44,59.88 1514.29,314.69 201.1,120.51 372.27,283.2 475.12,493.51 69.06,148.13 111.25,307.78 117.42,482 -6.91,295.5 -197.26,515.78 -333.86,755.23 -1.57,4.61 -3.87,8.44 -3.09,13.83 17.66,12.26 44.53,6.13 66.02,6.13 78.28,-14.57 148.12,-56.8 208.75,-105.15"
         inkscape:connector-curvature="0" /><path
         id="path36"
         style="fill:#5799a8;fill-opacity:1;fill-rule:nonzero;stroke:none"
         d="m 689.219,4219.1 c 54.492,-30.7 110.511,-59.84 179.609,-55.27 127.422,-334.61 308.512,-656.95 536.482,-939.42 95.94,-120.5 207.23,-226.4 335.39,-307.77 51.45,-19.96 106.68,-33.01 158.91,-51.41 3.83,-10.74 -6.91,-18.43 -6.91,-29.18 -8.44,-85.19 26.83,-158.86 59.1,-230.27 35.31,-62.93 76.75,-126.64 130.47,-174.22 49.1,-92.11 135.07,-141.21 217.96,-196.44 0,-2.35 2.31,-3.09 1.53,-5.39 -226.41,-6.92 -446.68,17.65 -630.12,122.77 -60.62,39.14 -100.55,87.5 -118.94,155.08 -29.18,94.37 -37.62,198.01 -56.8,296.99 -42.23,128.95 -115.16,245.63 -178.09,366.09 -33.01,59.14 -66.01,118.99 -100.54,178.09 -167.31,288.59 -340.79,579.45 -533.399,856.52 -7.699,6.92 -13.832,13.83 -13.832,23.79 8.441,1.56 12.262,-8.44 19.18,-9.96"
         inkscape:connector-curvature="0" /><path
         id="path38"
         style="fill:#301987;fill-opacity:1;fill-rule:nonzero;stroke:none"
         d="m 2013.95,2855.23 c 10.74,-1.52 23.78,-2.3 30.7,-7.65 14.57,-3.09 25.31,-10.74 38.4,-13.83 13.04,-9.22 29.92,-10.74 41.4,-19.96 40.71,-19.96 80.63,-40.67 116.68,-67.54 1.53,-3.83 6.14,-3.09 7.7,-6.91 19.96,-13.05 39.14,-26.1 58.32,-39.93 2.3,-7.65 11.48,-6.13 13.83,-12.26 10.74,-8.44 23,-14.57 31.44,-26.1 1.53,0 3.09,0 4.61,0 5.35,-6.91 11.52,-13.78 17.66,-19.96 1.52,0 3.04,0 4.61,0 26.09,-27.61 54.49,-55.23 79.8,-82.89 2.31,-8.43 8.44,-13.04 13.83,-19.18 4.61,-13.82 14.57,-23.79 19.18,-36.83 6.13,-31.49 -11.52,-46.06 -27.62,-62.19 -6.13,-1.52 -10,-8.44 -16.13,-9.96 -15.35,-10.74 -34.53,-17.66 -51.41,-26.09 -11.52,-0.79 -19.96,-9.22 -31.48,-10 -40.67,-13.79 -95.16,-13.01 -144.3,-10.75 -11.52,0 -18.4,4.61 -27.62,8.44 -17.65,5.39 -31.44,15.35 -46.83,23.05 -20.7,9.22 -36.06,29.18 -55.24,41.44 -15.35,13.05 -22.26,29.92 -38.39,41.45 -1.53,6.91 -7.66,9.22 -8.44,15.35 -6.92,5.35 -10.74,12.27 -16.88,17.66 -1.56,8.43 -8.43,13.04 -10.74,20.74 -7.69,3.83 -7.69,12.22 -12.26,18.4 -8.48,8.43 -12.31,20.7 -18.44,31.48 -7.7,5.35 -6.13,19.18 -13.83,25.31 -7.66,17.66 -17.66,33.75 -23.01,53.71 -18.44,44.54 -31.48,95.16 -27.65,151.96 3.86,10.78 6.91,22.3 20.74,23.04 19.18,6.14 52.97,6.14 71.37,0"
         inkscape:connector-curvature="0" /><path
         id="path40"
         style="fill:#301987;fill-opacity:1;fill-rule:nonzero;stroke:none"
         d="m 1481.29,2732.42 c -3.05,-13.79 4.61,-19.96 3.87,-33.01 9.18,-85.15 29.14,-165 53.71,-238.67 8.43,-6.13 7.65,-16.87 11.52,-25.35 -16.91,8.48 -22.27,27.66 -39.18,37.62 -2.26,8.44 -8.44,13.04 -13.79,19.22 -2.3,9.18 -9.22,13 -12.26,22.22 -10.78,16.14 -18.44,34.53 -24.57,55.28 -3.09,5.35 -4.61,9.22 -6.18,16.13 -7.65,36.05 -17.61,91.33 0,124.34 6.18,10.74 10,25.31 23.83,29.14 -2.3,-4.61 5.35,-2.31 3.05,-6.92"
         inkscape:connector-curvature="0" /><path
         id="path42"
         style="fill:#301987;fill-opacity:1;fill-rule:nonzero;stroke:none"
         d="m 2441.45,2641.09 c 3.82,-0.74 8.43,-3.04 12.3,-3.82 8.44,-3.09 17.66,-6.92 26.09,-9.97 3.83,-0.78 9.18,-3.08 12.27,-3.86 8.44,-3.05 16.87,-5.35 25.31,-8.44 7.7,-2.3 16.13,-5.35 24.57,-8.44 8.48,-2.3 16.88,-5.35 24.57,-7.65 8.44,-3.09 16.88,-6.18 25.32,-8.48 8.43,-2.27 16.91,-8.44 26.09,-9.96 3.87,-0.78 9.22,-3.09 12.3,-3.83 8.44,-3.09 16.88,-5.39 25.32,-8.48 8.43,-2.26 16.87,-7.65 26.09,-9.96 3.83,-0.78 8.44,-3.04 12.3,-3.82 8.44,-3.05 16.88,-5.4 24.54,-8.44 9.21,-3.09 17.65,-6.14 26.87,-9.22 3.09,-3.09 11.52,-2.31 14.57,-4.61 23.05,-6.91 44.53,-16.88 63.71,-29.14 1.53,-4.61 -2.3,-5.39 -3.83,-7.7 -36.83,-3.04 -85.19,-6.91 -118.94,2.31 -11.52,3.08 -27.66,1.52 -38.4,5.39 -13.83,3.05 -34.53,0.74 -46.05,6.87 -11.53,5.39 -31.49,1.57 -41.45,8.44 -9.22,6.13 -26.88,1.56 -36.05,8.48 -11.53,0 -19.97,4.61 -29.97,6.87 -15.35,18.44 -25.31,39.92 -44.49,55.28 0,1.52 0,3.08 0,3.82 -16.91,17.66 -34.57,35.32 -52.19,51.45 -6.17,7.66 3.83,4.61 8.44,5.35 -0.78,-2.26 1.53,-3.05 3.83,-2.26 3.83,-0.79 9.22,-3.09 12.27,-4.61 0.78,-1.57 3.08,-1.57 4.61,-1.57"
         inkscape:connector-curvature="0" /><path
         id="path44"
         style="fill:#301987;fill-opacity:1;fill-rule:nonzero;stroke:none"
         d="m 2552.73,2504.49 c 10,-4.61 25.36,-2.3 34.57,-6.91 3.05,-2.31 12.27,-2.31 15.32,-3.83 12.3,0 19.22,-6.13 30.74,-5.39 5.35,-3.05 14.53,0 19.18,-3.05 5.35,-3.86 16.87,2.31 17.66,-5.39 -46.1,-1.52 -100.55,-3.04 -145.86,1.53 -7.66,5.39 -2.31,20.74 -6.14,29.96 13.83,1.52 23.79,-4.61 34.53,-6.92"
         inkscape:connector-curvature="0" /><path
         id="path46"
         style="fill:#301987;fill-opacity:1;fill-rule:nonzero;stroke:none"
         d="m 2975.62,2479.92 c -5.35,-6.13 -10.74,-12.26 -16.09,-18.4 -8.44,-1.56 -13.83,-8.43 -20.74,-10.78 -15.35,-17.65 -41.41,-18.4 -58.32,-33.01 -12.27,-5.35 -23.79,-11.48 -36.06,-16.87 -17.65,-5.35 -36.83,-10.74 -53.75,-17.66 -16.13,-7.65 -34.53,-8.43 -52.18,-13.79 -89.03,-20.74 -187.27,-35.31 -290.12,-30.7 -13.83,3.09 -29.92,0 -41.45,3.09 -8.43,3.04 -20.74,-0.78 -27.61,2.26 -17.66,0.78 -30.71,4.61 -46.06,6.92 -4.61,1.52 -13.83,-3.09 -13.83,4.61 24.57,3.08 47.58,8.43 70.63,16.13 17.66,5.39 31.44,17.66 51.41,20.7 7.69,10.74 24.57,12.31 33,22.27 19.18,11.52 34.53,29.18 43.75,49.88 3.09,0 9.22,0.78 9.96,-1.52 13.83,-3.09 31.49,0.78 44.54,-2.31 80.58,-0.78 170.39,-6.91 245.58,5.35 53.75,4.61 102.89,17.66 158.91,20.75 1.52,-3.09 -3.09,-3.83 -1.57,-6.92"
         inkscape:connector-curvature="0" /><path
         id="path48"
         style="fill:#5799a8;fill-opacity:1;fill-rule:nonzero;stroke:none"
         d="m 2614.14,2324.88 c 43.01,-43.75 85.98,-72.93 129.73,-121.25 5.35,-18.43 25.31,-22.26 27.61,-41.44 0,-10.74 5.4,-21.53 1.53,-32.27 -29.92,-40.66 -84.42,-42.22 -132.78,-35.27 -168.82,62.15 -332.34,155.04 -471.25,270.15 0,1.53 0,3.83 1.53,4.61 137.38,-39.92 288.59,-62.96 443.63,-44.53"
         inkscape:connector-curvature="0" /><path
         id="path50"
         style="fill:#5799a8;fill-opacity:1;fill-rule:nonzero;stroke:none"
         d="m 2015.51,2214.38 c 82.11,-10.75 165,-19.18 253.28,-16.14 14.57,-52.97 46.8,-99.02 93.59,-138.12 19.96,-46.84 -3.83,-92.11 -27.61,-128.99 -9.97,-7.65 -20.71,-22.22 -37.62,-16.09 -162.7,77.54 -335.39,177.26 -444.38,325.43 -0.78,7.65 11.53,3.83 16.14,3.08 47.57,-14.6 97.46,-20 146.6,-29.17"
         inkscape:connector-curvature="0" /><path
         id="path52"
         style="fill:#5799a8;fill-opacity:1;fill-rule:nonzero;stroke:none"
         d="m 2951.09,2203.63 c 0.75,0.75 1.53,1.53 2.31,2.31 3.05,0 4.61,-0.78 6.87,-0.78 0,-2.31 3.09,-3.05 1.57,-6.14 -3.83,-2.3 -11.53,-0.78 -10.75,4.61"
         inkscape:connector-curvature="0" /><path
         id="path54"
         style="fill:#a61900;fill-opacity:1;fill-rule:nonzero;stroke:none"
         d="m 2835.2,2136.05 c 369.18,-326.17 756.75,-620.11 1161.25,-901.01 0,-6.17 6.91,-6.92 11.52,-8.48 216.41,-155.04 439.76,-287.81 657.73,-436.72 106.68,-65.969 217.97,-125.07 326.96,-181.871 0,-1.52 0,-1.52 0,-3.09 -38.36,-5.348 -76.72,-16.867 -100.55,-52.18 8.48,-1.527 13.83,10 22.27,13.821 36.83,20.71 83.67,23.011 129.72,19.179 36.06,-19.918 75.98,-33 112.81,-52.179 1.53,-3.09 -0.78,-3.829 -2.3,-6.141 -51.45,-6.91 -118.95,-17.649 -132.77,-74.449 -3.87,0 -6.92,0 -10.75,0 -100.54,56.8 -197.26,124.34 -283.2,201.84 -4.61,-2.309 1.52,-3.829 0,-6.918 23.79,-27.622 52.97,-59.063 79.81,-79.02 -3.83,-7.703 -17.66,-1.562 -24.58,-5.391 -16.87,-2.312 -33.74,-9.222 -46.01,-20.711 23.75,3.051 48.36,11.489 75.98,8.442 24.53,2.308 37.57,-18.402 55.23,-29.18 27.62,-16.094 53.71,-36.832 80.59,-52.191 0,-1.52 0,-1.52 0,-3.082 -51.41,-11.489 -106.68,-16.879 -141.21,-65.977 9.21,-1.562 17.65,9.18 26.09,13.789 46.05,28.438 103.59,36.879 160.43,29.961 111.25,-66.012 225.62,-125.902 334.61,-198.793 25.31,-19.179 45.27,-50.66 42.22,-86.719 -10.74,0.75 -14.6,12.27 -24.57,16.102 -9.21,4.609 -23.78,4.609 -33,0 -16.88,-10.742 -32.23,-28.402 -29.14,-48.363 3.04,-13.047 19.18,-9.957 23.78,-20.699 -93.63,-20.7114 -201.09,-10.7505 -287.81,18.429 -218.01,81.332 -312.38,312.352 -447.46,478.91 -105.94,145.821 -254.84,277.813 -425.19,333.09 -112.86,41.442 -241.8,46.051 -353.87,87.501 -26.84,10.78 -36.06,38.35 -39.1,64.49 3.04,39.88 46.79,53.71 75.97,66.76 33.01,9.21 66.76,16.13 103.6,14.6 37.62,-26.91 77.54,-53.75 113.59,-81.36 0.78,-2.31 -1.52,-3.09 -1.52,-5.39 -19.18,-15.35 -43.75,-35.32 -43.75,-59.1 13.83,14.6 33.01,38.35 52.19,48.35 3.82,2.31 9.96,0.79 15.35,0.79 27.61,-19.18 52.18,-42.97 78.28,-60.67 3.83,1.56 -0.74,2.35 0,4.61 -107.46,101.33 -229.49,178.87 -340.78,273.24 -337.7,256.33 -694.57,498.87 -1056.88,715.35 -29.88,16.1 -58.32,35.28 -88.24,49.89 0,2.26 -3.09,3.04 -1.52,5.35 49.88,3.09 102.85,3.83 132.77,51.44 8.44,13.79 11.52,32.23 7.66,49.89 13.04,-2.31 23.04,-19.96 33.79,-26.14"
         inkscape:connector-curvature="0" /><path
         id="path56"
         style="fill:#a61900;fill-opacity:1;fill-rule:nonzero;stroke:none"
         d="m 2462.19,2012.5 c 90.54,-368.4 186.48,-736.05 359.96,-1070.66 47.58,-91.328 122.81,-191.879 241.76,-183.442 17.65,-13.828 18.43,-39.918 20.74,-62.187 3.83,-15.313 2.26,-32.969 4.61,-48.359 -70.63,26.878 -155.04,9.257 -207.27,-41.403 C 2755.35,498.98 2667.85,368.48 2548.91,257.191 2430.7,135.199 2276.45,81.4492 2102.97,84.4922 c -38.36,3.8672 -79.02,1.5586 -112.03,17.6988 -3.09,7.649 8.44,9.957 8.44,16.868 -3.83,17.66 -7.66,34.531 -25.36,46.839 -9.18,3.832 -18.4,-1.558 -27.61,-1.558 4.61,72.14 72.93,128.16 136.64,148.902 70.58,25.309 153.47,19.957 231.01,26.879 21.49,-5.391 41.45,-16.922 56.8,-32.269 23.79,-20.704 42.19,-53.711 43.75,-88.243 3.05,-6.91 6.87,2.301 6.87,3.832 -0.74,47.579 -29.92,91.329 -64.45,116.68 0,0.738 0,1.52 0,2.258 29.14,6.172 59.1,11.531 86.72,22.269 20.74,2.301 32.27,-19.179 46.84,-27.617 6.13,-10.742 23,-23.011 30.7,-34.531 2.3,7.66 -6.13,13.832 -6.91,22.23 -13.05,17.649 -23.05,37.61 -44.54,46.829 0,0.781 0,1.531 0,3.089 30.71,13.793 62.93,30.704 87.5,53.711 -3.04,3.832 -5.35,-1.519 -8.43,0 -61.41,-29.179 -123.56,-61.41 -194.96,-63.711 -0.75,3.082 -1.53,5.391 -2.31,8.442 0,3.082 0,6.129 0,9.211 -1.52,8.48 -14.57,11.531 -13.05,20.75 164.26,10.738 317,79.058 414.5,218.711 23,43.008 42.96,91.328 30.7,146.597 -53.01,267.851 -156.6,515.041 -265.59,759.841 -57.58,121.29 -118.94,241.02 -201.09,352.31 -0.74,8.44 10.74,5.39 14.61,10.74 41.44,34.53 69.8,92.11 65.23,155.04 22.27,-9.96 49.89,-12.31 65.24,-33.79"
         inkscape:connector-curvature="0" /><path
         id="path58"
         style="fill:#a61900;fill-opacity:1;fill-rule:nonzero;stroke:none"
         d="m 3742.38,1053.91 c -10.74,1.48 -24.57,-3.09 -33,4.57 -4.61,13.82 12.26,21.52 20.74,28.4 2.3,0 4.61,0 6.91,0 0,-11.49 5.35,-21.49 5.35,-32.97"
         inkscape:connector-curvature="0" /><path
         id="path60"
         style="fill:#a61900;fill-opacity:1;fill-rule:nonzero;stroke:none"
         d="m 3469.14,620.23 c 11.52,-25.308 25.35,-54.449 13.83,-84.41 -13.83,-18.441 -39.14,-9.961 -59.88,-12.269 -113.6,28.398 -216.45,85.16 -326.96,121.25 5.39,37.621 1.57,77.5 -6.87,112.039 148.08,28.43 308.51,-2.27 379.88,-136.61"
         inkscape:connector-curvature="0" /><path
         id="path62"
         style="fill:#a61900;fill-opacity:1;fill-rule:nonzero;stroke:none"
         d="m 3519.8,518.16 c 3.09,-6.91 1.53,-15.351 1.53,-22.262 -11.49,-1.519 -19.18,16.133 -29.14,20.743 -3.83,9.218 13.79,14.57 11.52,26.089 10.74,-1.558 10.74,-16.128 16.09,-24.57"
         inkscape:connector-curvature="0" /><path
         id="path64"
         style="fill:#a61900;fill-opacity:1;fill-rule:nonzero;stroke:none"
         d="m 5223.67,508.199 c 112.85,-52.219 238.71,-72.929 349.22,-131.25 21.52,-12.301 37.62,-34.57 39.92,-60.617 -16.09,3.047 -39.14,19.918 -56.01,5.348 -9.22,-16.879 -19.96,-39.141 -4.61,-56.801 11.52,-6.129 26.09,-3.828 39.14,-6.91 3.08,-13.047 -15.35,-13.828 -22.27,-20.739 -57.54,-23.75 -123.55,-27.582 -191.09,-28.359 -39.14,69.059 -114.38,92.109 -173.48,133.508 -59.1,36.101 -121.25,68.32 -179.61,108.242 3.83,6.141 9.22,12.27 13.83,19.18 49.14,39.929 117.42,44.539 184.96,38.398"
         inkscape:connector-curvature="0" /><path
         id="path66"
         style="fill:#a61900;fill-opacity:1;fill-rule:nonzero;stroke:none"
         d="m 2210.43,360.82 c 0,-2.3 0,-3.828 0,-6.129 -113.59,-6.921 -238.71,-45.281 -277.85,-162.699 -53.71,-13.043 -118.95,-9.222 -160.39,24.567 3.04,11.492 26.87,-0.778 25.35,18.402 -5.39,16.879 -5.39,39.141 -23.83,46.801 -13.05,-4.571 -3.83,10.738 -2.3,15.386 76.75,115.864 224.88,127.383 361.48,112.774 31.49,-5.352 56.84,-25.313 77.54,-49.102"
         inkscape:connector-curvature="0" /><path
         id="path68"
         style="fill:#a61900;fill-opacity:1;fill-rule:nonzero;stroke:none"
         d="m 2322.5,400.742 c 11.48,-6.133 21.48,-19.961 29.14,-27.652 0.78,-3.051 1.56,-5.36 2.31,-8.442 -48.33,-6.128 -95.94,-12.269 -143.52,-9.957 0,2.301 0,3.829 0,6.129 0,2.301 0,5.391 0,7.66 -4.61,16.911 -24.53,25.352 -29.14,39.18 43.75,-10.75 94.37,-2.308 141.21,-6.918"
         inkscape:connector-curvature="0" /><path
         id="path70"
         style="fill:#a61900;fill-opacity:1;fill-rule:nonzero;stroke:none"
         d="m 5633.55,271.801 c 3.83,-6.922 6.14,-19.18 -6.91,-12.27 -20.74,8.438 -45.31,6.129 -67.54,12.27 -6.91,13.039 -4.61,31.48 3.05,42.969 14.61,8.429 33.79,-3.051 48.36,-10.75 10.74,-9.219 18.44,-19.961 23.04,-32.219"
         inkscape:connector-curvature="0" /><path
         id="path72"
         style="fill:#a61900;fill-opacity:1;fill-rule:nonzero;stroke:none"
         d="m 1785.23,252.621 c 2.31,-6.141 0.79,-13.832 0.79,-20.742 -24.57,-3.047 -49.93,-4.609 -74.46,-9.219 2.31,14.57 16.88,20.738 27.62,34.531 11.52,10.778 46.84,27.649 46.05,-4.57"
         inkscape:connector-curvature="0" /><path
         id="path74"
         style="fill:#a61900;fill-opacity:1;fill-rule:nonzero;stroke:none"
         d="m 5358.79,154.379 c 10.74,-16.137 25.31,-30.707 25.31,-50.668 -27.65,3.828 -55.27,13.828 -84.41,17.66 -9.22,1.52 -7.7,14.57 -5.39,20.699 2.3,11.52 14.57,23.828 26.09,26.09 14.57,0.789 29.92,1.57 38.4,-13.781"
         inkscape:connector-curvature="0" /><path
         id="path76"
         style="fill:#a61900;fill-opacity:1;fill-rule:nonzero;stroke:none"
         d="m 1977.11,152.07 c 6.13,-11.519 11.52,-22.269 10.74,-36.09 -26.83,-10.75 -61.4,-2.308 -88.24,-12.269 8.44,26.84 34.53,40.699 58.32,53.711 7.66,1.558 13.05,-2.262 19.18,-5.352"
         inkscape:connector-curvature="0" /></g></g></svg>