<?xml version="1.0" encoding="UTF-8" standalone="no"?>
<!-- Generator: Adobe Illustrator 23.0.3, SVG Export Plug-In . SVG Version: 6.00 Build 0)  -->

<svg
   xmlns:dc="http://purl.org/dc/elements/1.1/"
   xmlns:cc="http://creativecommons.org/ns#"
   xmlns:rdf="http://www.w3.org/1999/02/22-rdf-syntax-ns#"
   xmlns:svg="http://www.w3.org/2000/svg"
   xmlns="http://www.w3.org/2000/svg"
   xmlns:sodipodi="http://sodipodi.sourceforge.net/DTD/sodipodi-0.dtd"
   xmlns:inkscape="http://www.inkscape.org/namespaces/inkscape"
   version="1.1"
   id="Слой_2"
   x="0px"
   y="0px"
   viewBox="0 0 204.8326 296.10001"
   xml:space="preserve"
   sodipodi:docname="sobble.svg"
   width="204.8326"
   height="296.10001"
   inkscape:version="0.92.4 (5da689c313, 2019-01-14)"><metadata
   id="metadata125"><rdf:RDF><cc:Work
       rdf:about=""><dc:format>image/svg+xml</dc:format><dc:type
         rdf:resource="http://purl.org/dc/dcmitype/StillImage" /><dc:title /></cc:Work></rdf:RDF></metadata><defs
   id="defs123" /><sodipodi:namedview
   pagecolor="#ffffff"
   bordercolor="#666666"
   borderopacity="1"
   objecttolerance="10"
   gridtolerance="10"
   guidetolerance="10"
   inkscape:pageopacity="0"
   inkscape:pageshadow="2"
   inkscape:window-width="1366"
   inkscape:window-height="715"
   id="namedview121"
   showgrid="false"
   fit-margin-top="0"
   fit-margin-left="0"
   fit-margin-right="0"
   fit-margin-bottom="0"
   inkscape:zoom="0.78666667"
   inkscape:cx="-120.24829"
   inkscape:cy="148.2"
   inkscape:window-x="-8"
   inkscape:window-y="22"
   inkscape:window-maximized="1"
   inkscape:current-layer="Слой_2" />
<style
   type="text/css"
   id="style2">
	.st0{fill:#FFFFFF;}
	.st1{fill:#992060;}
	.st2{fill:#F47895;}
	.st3{fill:#0044B2;}
	.st4{fill:#5FE1FF;}
	.st5{fill:#389FAF;}
	.st6{fill:#62BFC4;}
	.st7{fill:#B8F8FF;}
	.st8{fill:#135B81;}
	.st9{fill:#BCAC15;}
	.st10{fill:#FFEE1D;}
	.st11{opacity:0.18;fill:#FFFFFF;}
	.st12{fill:#0044B2;stroke:#000000;stroke-width:2;stroke-miterlimit:10;}
	.st13{fill:#FFFFFF;stroke:#000000;stroke-width:2;stroke-miterlimit:10;}
	.st14{fill:url(#SVGID_1_);}
	.st15{fill:url(#SVGID_2_);}
	.st16{fill:#FFFDFF;stroke:#1E0F00;stroke-miterlimit:10;}
	.st17{fill:#FFFFFF;stroke:#1E0F00;stroke-miterlimit:10;}
	.st18{fill:#FFFDFF;}
	.st19{fill:#C13D5F;}
</style>
<g
   id="g8"
   transform="matrix(-1,0,0,1,243.08937,-2.1)">
	<path
   d="m 113.9,292 c -1.1,0 -2.3,-0.2 -3.5,-0.5 -1.6,-0.4 -3,-1.1 -4.4,-2 -1,0.5 -2,0.9 -3,1.3 -1.8,0.6 -3.5,1 -5.1,1 -1.9,0 -3.6,-0.4 -5.2,-1.3 -2.9,-1.6 -4.9,-4.7 -5.2,-8.2 -0.3,-2.6 0.4,-5.2 1.8,-7.6 1.9,-3.2 5,-5.7 8.5,-7 0.2,-0.4 0.4,-0.8 0.6,-1.2 -4,-6.4 -5,-14.8 -2.3,-22.6 1.2,-3.3 3,-6.5 5.5,-9.4 -2.7,-0.5 -5.4,-1.2 -8,-1.9 -8.8,-2.4 -18.8,-5.2 -28.8,-13 -4,-3.1 -11.4,-9 -16.2,-19.5 -5.4,-11.8 -4.2,-22.5 -3.7,-27.1 2.7,-24.3 19.2,-40.1 26.2,-45.7 11.4,-9.2 25.2,-15.6 41,-19.1 -2.3,-15.7 -2,-36.7 9.1,-56.8 12.4,-22.5 39.1,-43 55.9,-43 3.2,0 6,0.7 8.3,2.1 2,1.2 3.9,3 5.6,5.4 4.7,6.7 5.1,16.2 1.3,29 -3.4,11.5 -9.2,22.3 -15.3,31.4 3.6,0.6 6.8,2.1 9.2,4.5 4.8,4.9 5.9,13 2.5,19.9 -3,6 -8.3,9.7 -12,11.9 -5.4,3.3 -11.3,5.8 -17.4,7.4 12,9.1 21.5,21.8 26.9,36 3.3,-1.2 6.8,-1.9 10.4,-1.9 3,0 5.9,0.4 8.8,1.3 8,2.5 15.4,8.1 20.7,15.9 4.3,6.3 7.3,13.8 9.2,22.9 2.1,10.2 2.1,19.6 0.2,28.1 -3,13.1 -11.3,25.2 -22.8,33.2 -9.2,6.4 -18.3,9.9 -28.7,10.9 2.6,0.9 5.1,2.3 7.2,4.1 2.5,2.1 4.1,4.4 4.9,7 1.2,4.2 -0.2,8.7 -3.5,11.2 -1.7,1.3 -3.8,2 -6.1,2 -1,0 -2,-0.1 -3,-0.4 -1.8,-0.5 -3.3,-1.3 -4.4,-1.9 l -0.5,-0.3 c -4.7,-2.5 -9.7,-3.8 -14.5,-3.8 -0.3,0 -0.7,0 -1,0 -0.8,1.1 -1.8,2.2 -2.9,3.3 -2.5,2.2 -5.6,3.4 -8.6,3.4 -0.6,0 -1.1,0 -1.7,-0.1 -4.3,-0.7 -7.8,-4 -8.7,-8 -2.6,-0.1 -5.2,-0.6 -7.7,-1.5 -0.6,0.2 -1.3,0.4 -2,0.5 -0.6,0.1 -1.2,0.1 -1.9,0.1 -0.8,0 -1.5,-0.1 -2,-0.1 h -0.4 c -0.3,0 -0.7,0 -1,0 -0.9,0 -1.8,0.1 -2.6,0.3 0.1,1.5 -0.1,3 -0.7,4.3 -1.1,2.6 -3.5,4.5 -6.4,5.2 -1,0.2 -1.8,0.3 -2.6,0.3 z"
   id="path4"
   inkscape:connector-curvature="0" />
	
</g>
<g
   id="g14"
   transform="matrix(-1,0,0,1,243.08937,-2.1)">
	<path
   d="m 113.9,287 c -0.7,0 -1.3,-0.1 -2.1,-0.3 -2.1,-0.6 -3.9,-1.7 -5.2,-3.3 -1.6,1.1 -3.3,2.1 -5.2,2.7 -1.3,0.5 -2.4,0.7 -3.4,0.7 -1,0 -1.9,-0.2 -2.7,-0.7 -1.5,-0.8 -2.5,-2.5 -2.7,-4.3 -0.1,-1.5 0.2,-3.1 1.1,-4.6 1.6,-2.8 4.9,-5 8.1,-5.4 0.2,-2 1.5,-4 3,-5.4 -4.8,-5.1 -6.4,-13.5 -3.8,-20.9 1.9,-5.5 6.2,-10.5 12.2,-14.4 -6.1,-0.6 -12.1,-1.8 -18,-3.4 -8.7,-2.4 -17.8,-4.9 -27.1,-12.2 -3.7,-2.9 -10.5,-8.2 -14.7,-17.6 -4.8,-10.6 -3.7,-20.3 -3.3,-24.5 2.5,-23.1 19.3,-38.3 24.3,-42.4 11.9,-9.6 26.5,-16 43.6,-19 -3,-15.3 -3.8,-37.3 7.7,-58.3 12.6,-22.8 38,-40.4 51.5,-40.4 2.3,0 4.2,0.5 5.8,1.4 1,0.6 2.5,1.7 4.1,4 3.7,5.3 3.9,13.6 0.6,24.7 -4.7,15.2 -13.7,29.2 -21.5,39.5 1.7,-0.7 3.4,-1.4 5.3,-1.7 0.8,-0.1 1.7,-0.2 2.5,-0.2 3.5,0 6.6,1.2 8.7,3.3 3.4,3.4 4,9.2 1.5,14.1 -2.4,4.8 -6.9,7.9 -10.1,9.9 -8.7,5.3 -18.5,8.3 -28.6,8.9 17.9,9.2 32,26.2 37.8,45.8 3.9,-2.5 8.6,-3.9 13.3,-3.9 2.5,0 4.9,0.4 7.3,1.1 7,2.2 13.4,7.1 18,13.9 3.9,5.7 6.7,12.6 8.4,21.1 1.9,9.5 2,18.2 0.2,26 -2.7,11.9 -10.3,22.9 -20.8,30.3 -10,7 -19.5,10.2 -31.3,10.3 -0.1,3.1 -1.2,5.9 -3,8.3 0.1,0 0.3,0 0.4,0 4.4,0 8.8,1.6 12.1,4.3 1.7,1.4 2.8,2.9 3.3,4.5 0.6,2.2 -0.1,4.6 -1.7,5.8 -0.8,0.6 -1.9,1 -3.1,1 -0.6,0 -1.2,-0.1 -1.8,-0.2 -1.2,-0.3 -2.3,-0.9 -3.3,-1.5 l -0.6,-0.3 c -5.4,-2.8 -11.2,-4.3 -16.8,-4.3 -1.3,0 -2.6,0.1 -3.9,0.2 -1,1.5 -2,3 -3.4,4.3 -1.6,1.4 -3.5,2.2 -5.3,2.2 -0.3,0 -0.6,0 -0.9,-0.1 -2.6,-0.4 -4.7,-2.7 -4.6,-5.1 0,-1.5 0.9,-2.8 1.7,-3.8 -1.8,0.6 -3.8,0.9 -5.8,0.9 -3,0 -6,-0.7 -8.8,-2.1 -0.6,0.6 -1.5,1 -2.4,1.2 -0.3,0.1 -0.7,0.1 -1.1,0.1 -0.5,0 -1,0 -1.5,-0.1 h -0.5 c -0.5,0 -0.9,-0.1 -1.4,-0.1 -3.1,0 -6.3,0.8 -9.1,2.3 0.3,0.4 0.7,0.9 0.9,1.4 0.6,1.3 0.7,2.7 0.2,3.8 -0.5,1.2 -1.6,2 -3,2.3 -0.3,0.1 -0.7,0.2 -1.1,0.2 z"
   id="path10"
   inkscape:connector-curvature="0" />
	<path
   d="m 177.1,14.6 c 2,0 3.7,0.4 5.1,1.2 1.9,1.1 3.3,3.2 3.7,3.7 1.9,2.6 4.8,8.7 0.4,23.6 -5.6,18.8 -18.1,35.4 -24.7,43.4 3.2,-1.7 6.4,-3.5 10,-4.1 0.8,-0.1 1.6,-0.2 2.3,-0.2 2.9,0 5.8,0.9 7.8,2.9 3.2,3.2 3.3,8.6 1.3,12.7 -2,4.1 -5.7,7 -9.6,9.4 -9.4,5.7 -20.4,8.8 -31.4,8.8 -0.7,0 -1.3,0 -2,0 20.8,8.6 36.8,27.3 42.6,49 4.1,-3 9,-4.6 14,-4.6 2.3,0 4.6,0.3 6.9,1 7.1,2.2 13.1,7.3 17.4,13.4 4.2,6.2 6.7,13.3 8.2,20.7 1.7,8.4 2.1,17.1 0.2,25.5 -2.7,11.9 -10.3,22.5 -20.3,29.5 -10,7 -19.6,10.1 -31.7,10.1 0,0 -0.1,0 -0.1,0 0.2,4.5 -1.7,8.5 -5.2,11.3 1.3,-0.3 2.6,-0.4 3.9,-0.4 4.1,0 8.2,1.4 11.3,4 1.3,1.1 2.4,2.3 2.9,3.9 0.5,1.6 0.1,3.5 -1.2,4.5 -0.7,0.5 -1.5,0.7 -2.4,0.7 -0.5,0 -1,-0.1 -1.5,-0.2 -1.3,-0.3 -2.5,-1 -3.6,-1.6 -5.4,-2.8 -11.3,-4.5 -17.4,-4.5 -1.5,0 -3.1,0.1 -4.6,0.3 -1,1.6 -2.1,3.2 -3.5,4.5 -1.2,1.1 -2.8,1.9 -4.5,1.9 -0.2,0 -0.5,0 -0.7,-0.1 -1.9,-0.3 -3.6,-1.9 -3.5,-3.8 0.1,-2.4 3.1,-4.2 3.5,-6.6 -2.7,1.6 -5.7,2.3 -8.8,2.3 -3.2,0 -6.3,-0.8 -9.1,-2.4 -0.4,0.9 -1.3,1.4 -2.3,1.5 -0.3,0 -0.6,0.1 -0.9,0.1 -0.7,0 -1.3,-0.1 -2,-0.1 -0.5,0 -1,-0.1 -1.5,-0.1 -3.9,0 -7.8,1.2 -11,3.3 0.7,0.7 1.3,1.4 1.7,2.2 0.4,0.9 0.6,1.9 0.2,2.8 -0.4,0.8 -1.2,1.4 -2.1,1.6 -0.3,0.1 -0.6,0.1 -1,0.1 -0.6,0 -1.2,-0.1 -1.8,-0.3 -2.2,-0.6 -4.1,-2 -5.3,-3.9 -1.8,1.4 -3.7,2.5 -5.9,3.3 -0.9,0.3 -2,0.6 -3,0.6 -0.7,0 -1.5,-0.1 -2.1,-0.5 -1.2,-0.7 -1.9,-2 -2.1,-3.3 -0.1,-1.4 0.3,-2.7 1,-3.9 1.6,-2.7 4.9,-4.8 8.1,-4.8 0.1,0 0.1,0 0.2,0 -0.3,-2.4 1.6,-5.1 3.6,-6.5 -5.5,-4.9 -7,-13.5 -4.5,-20.5 2.5,-7 8.4,-12.3 15,-15.8 -5.4,-0.4 -13,-1.3 -21.7,-3.7 -8.6,-2.4 -17.5,-4.8 -26.6,-11.9 -4,-3.2 -10.3,-8.2 -14.4,-17.1 -4.6,-10 -3.7,-19.2 -3.2,-23.8 2.5,-22.7 18.9,-37.5 23.9,-41.5 12.7,-10.3 28.1,-16.3 44.3,-18.9 -2.4,-11.4 -5.4,-35.6 7.3,-58.7 12.3,-22.5 37.1,-40 50.4,-40 m 0,-2.5 c -14.1,0 -39.6,17.6 -52.6,41.1 -11.4,20.7 -10.9,42.5 -8.1,57.9 -16.7,3.1 -31.2,9.5 -42.9,19 -6.6,5.4 -22.3,20.3 -24.8,43.2 -0.5,4.3 -1.6,14.3 3.4,25.2 4.4,9.7 11.4,15.1 15.1,18.1 9.5,7.4 18.6,9.9 27.5,12.4 4.9,1.4 9.9,2.4 15,3 -4.8,3.7 -8.3,8.3 -10,13.2 -2.6,7.4 -1.2,15.8 3.3,21.3 -1,1.2 -1.9,2.7 -2.3,4.4 -3.3,0.7 -6.4,2.9 -8.1,5.8 -1,1.8 -1.5,3.6 -1.3,5.4 0.2,2.2 1.5,4.3 3.3,5.3 1,0.5 2.1,0.8 3.3,0.8 1.2,0 2.4,-0.2 3.8,-0.7 1.6,-0.6 3.2,-1.3 4.6,-2.3 1.4,1.4 3.1,2.3 5.1,2.9 0.9,0.2 1.7,0.4 2.4,0.4 0.5,0 1,-0.1 1.5,-0.2 1.7,-0.4 3.2,-1.5 3.8,-3.1 0.7,-1.5 0.6,-3.3 -0.3,-4.9 -0.1,-0.1 -0.1,-0.2 -0.2,-0.4 2.3,-1 4.8,-1.6 7.2,-1.6 0.4,0 0.9,0 1.3,0.1 0.2,0 0.3,0 0.5,0 0.5,0 1.1,0.1 1.7,0.1 0.5,0 0.9,0 1.3,-0.1 0.9,-0.1 1.7,-0.5 2.4,-0.9 2.7,1.2 5.6,1.9 8.6,1.9 1.1,0 2.1,-0.1 3.2,-0.2 -0.2,0.6 -0.4,1.2 -0.4,1.9 -0.1,3.1 2.4,5.9 5.7,6.4 0.4,0.1 0.7,0.1 1.1,0.1 2.1,0 4.3,-0.9 6.1,-2.5 1.4,-1.2 2.4,-2.7 3.3,-4 1,-0.1 2.1,-0.2 3.1,-0.2 5.4,0 11,1.5 16.2,4.2 0.2,0.1 0.4,0.2 0.6,0.3 1,0.6 2.2,1.2 3.6,1.6 0.7,0.2 1.4,0.3 2.1,0.3 1.5,0 2.8,-0.4 3.9,-1.2 2.1,-1.6 2.9,-4.4 2.1,-7.2 -0.5,-1.8 -1.7,-3.5 -3.7,-5.1 -3.1,-2.6 -7,-4.2 -11.1,-4.5 1,-1.8 1.7,-3.8 1.9,-5.9 11.5,-0.4 21.1,-3.7 30.9,-10.5 10.8,-7.5 18.5,-18.8 21.3,-31 1.8,-8 1.8,-16.9 -0.2,-26.5 -1.8,-8.6 -4.6,-15.7 -8.6,-21.6 -4.8,-7.1 -11.5,-12.2 -18.7,-14.4 -2.5,-0.8 -5,-1.2 -7.6,-1.2 -4.4,0 -8.7,1.1 -12.6,3.2 -3.1,-9.9 -8.4,-19.2 -15.3,-27.1 -5.5,-6.4 -12,-11.7 -19.1,-15.9 8.8,-1.1 17.4,-4 25,-8.7 3.3,-2 8,-5.3 10.6,-10.4 2.7,-5.4 2,-11.8 -1.8,-15.6 -2.3,-2.3 -5.7,-3.6 -9.6,-3.6 -0.9,0 -1.8,0.1 -2.7,0.2 -0.5,0.1 -1.1,0.2 -1.6,0.3 7.3,-9.9 15,-22.8 19.1,-36.5 3.5,-11.7 3.2,-20.1 -0.8,-25.8 -1.4,-2 -2.9,-3.5 -4.4,-4.4 -1.4,-1.3 -3.6,-1.8 -6.1,-1.8 z"
   id="path12"
   inkscape:connector-curvature="0" />
</g>
<path
   class="st1"
   d="m 142.18937,212.3 c -2.2,-2.2 -4.9,-3.8 -7.8,-5 -4.9,-2 -10,-2.8 -15.1,-2.9 2.3,-0.8 4.6,-1.5 6.8,-2.2 6.3,-1.8 12.7,-2.7 19.2,-1.8 2.3,0.3 4.7,0.7 6.8,1.7 0.5,0.3 1,0.5 1.3,0.8 0.8,0.9 1.4,1.8 1.8,2.7 0.2,0.8 0.3,1.8 0.2,2.8 -0.2,0.8 -0.7,1.7 -1.6,2.6 -2.2,2.3 -5.2,4.2 -8.1,5.6 -0.8,-1.6 -2.3,-3.2 -3.5,-4.3 z"
   id="path16"
   inkscape:connector-curvature="0"
   style="fill:#992060" />
<path
   class="st2"
   d="m 107.18937,210.7 c 3,-2.5 6.7,-4.3 10.4,-5.8 0.7,0 1.4,0 2,0 3.9,0.1 7.8,0.9 11.5,2 3.3,1 6.5,2.5 9.2,4.7 1.8,1.4 3.8,3.2 4.8,5.4 -5.7,2.8 -12.1,4.5 -18.4,5.2 -5.5,0.6 -12.7,1.4 -18.1,-0.4 -6.3,-2.2 -5.8,-7.5 -1.4,-11.1 z"
   id="path18"
   inkscape:connector-curvature="0"
   style="fill:#f47895" />
<path
   class="st0"
   d="m 127.08937,249.8 c 0.9,-4.4 1.2,-9.6 -0.7,-13.6 2.8,2.6 5.3,5.7 6.6,9.1 -1.3,0.3 -2.5,1.3 -3.6,2.1 -0.7,0.7 -1.6,1.5 -2.3,2.4 z"
   id="path20"
   inkscape:connector-curvature="0"
   style="fill:#ffffff" />
<path
   class="st3"
   d="m 53.789373,223.9 c -0.2,-0.1 -0.3,0.2 -0.1,0.3 2,0.9 3.9,1.2 5.6,1 -1.3,0.4 -2.6,0.7 -4,0.6 -4.5,-0.1 -8.9,-2.3 -12.3,-5.3 -2.4,-2.1 -4.3,-4.7 -5.3,-7.6 -0.1,-0.9 -0.3,-1.8 -0.3,-2.8 -0.5,-7.9 2,-19 11.4,-20.2 3.1,-0.4 6.2,0.2 9,1.5 1.3,5.7 3.7,11.2 7.5,16 1.2,1.6 2.5,3.1 4,4.5 -1.4,7.6 -7.2,14.7 -15.5,12 z"
   id="path22"
   inkscape:connector-curvature="0"
   style="fill:#0044b2" />
<path
   class="st4"
   d="m 84.489373,231.8 c -5.4,1.4 -11.1,1.8 -16.6,1.3 -6.7,-0.6 -13.3,-2.4 -19.5,-5.1 -1.8,-0.8 -3.5,-1.7 -5.3,-2.6 -2.7,-3.3 -4.5,-7.3 -5.3,-11.8 0.3,0.8 0.7,1.6 1.1,2.3 2.4,4 6.4,7.1 10.6,8.8 3.3,1.3 6.9,1.7 10.1,0.5 5.4,-0.8 9.3,-6.3 10.5,-12.2 6,5.7 13.4,10.3 21.4,13.1 -2.6,1.4 -5,3.4 -7,5.7 z"
   id="path24"
   inkscape:connector-curvature="0"
   style="fill:#5fe1ff" />
<path
   class="st5"
   d="m 50.589373,229 c 6.2,2.5 12.9,4 19.6,4.3 4.8,0.2 9.6,-0.2 14.2,-1.4 -0.9,1 -1.7,2.1 -2.5,3.2 -1.5,0.6 -3.1,1.2 -4.8,1.6 -6.6,1.6 -13.6,0.5 -20,-1.7 -5.6,-1.9 -10.4,-5.2 -13.8,-9.4 2.3,1.2 4.8,2.4 7.3,3.4 z"
   id="path26"
   inkscape:connector-curvature="0"
   style="fill:#389faf" />
<path
   class="st4"
   d="m 57.389373,190 c -2.8,-1.2 -5.9,-1.7 -8.9,-1.3 -10.3,1.3 -13.2,13.3 -12.6,22 0.3,4.8 1.8,9.1 4.1,12.9 -3,-1.9 -5.8,-4 -8.5,-6.3 -2.4,-2.1 -4.6,-4.4 -6.5,-6.9 -2.5,-3.1 -4.4,-6.5 -5.9,-10.2 -1.6,-4 -2.7,-8.1 -3.7,-12.2 1.5,-5.4 3.7,-10.6 6.9,-15.3 4.2,-6.2 10.2,-11.2 17.4,-13.4 6.5,-2 13.5,-1.1 19.2,2.4 -2.5,9.3 -3.3,19.1 -1.5,28.3 z"
   id="path28"
   inkscape:connector-curvature="0"
   style="fill:#5fe1ff" />
<path
   class="st5"
   d="m 13.989373,193.4 c 0.4,-1.7 0.8,-3.5 1.3,-5.2 1.2,5.1 2.6,10.1 4.9,14.8 3,6.3 7.8,11.6 13.1,15.9 2.2,1.8 4.4,3.4 6.8,4.8 3.9,6.2 10.2,10.7 17.7,13 6.5,2 13.4,2.8 20,1.2 0.9,-0.2 1.8,-0.5 2.7,-0.8 -1.3,2 -2.3,4.2 -3.3,6.3 -2.2,-1.3 -4.9,-2 -7.4,-1.4 -6.5,1.8 -6.8,10.6 -5.9,16.3 -11.3,-0.3 -20.4,-3.5 -29.9,-10.1 -10,-7 -17.6,-17.6 -20.3,-29.5 -1.8,-8.2 -1.4,-17 0.3,-25.3 z"
   id="path30"
   inkscape:connector-curvature="0"
   style="fill:#389faf" />
<path
   class="st5"
   d="m 70.489373,276.6 c -0.5,-2.7 -1.9,-5.2 -3.8,-7.3 1.5,0 3,0.1 4.5,0.4 -3.6,-2.8 -5.4,-6.7 -5.2,-11.3 -0.1,0 -0.2,0 -0.4,0 0,-0.2 0,-0.4 0,-0.6 0.5,-0.1 1,-0.3 1.5,-0.4 1.8,-0.5 3.5,-1.1 5.2,-1.9 0,0.6 0.1,1.3 0.2,1.8 0.9,5.8 4.9,10.5 10.2,12 -0.1,2.2 0,4.3 0.5,6.5 0,0.2 0.1,0.3 0.1,0.5 -4.2,-0.6 -8.5,-0.2 -12.7,0.8 0,-0.1 0,-0.3 -0.1,-0.5 z"
   id="path32"
   inkscape:connector-curvature="0"
   style="fill:#389faf" />
<path
   class="st4"
   d="m 53.089373,277.2 c 0.5,-1.6 1.6,-2.9 2.9,-3.9 2.9,-2.5 6.7,-3.9 10.6,-4 2,2.2 3.5,5 3.9,7.9 -3,0.8 -5.9,1.9 -8.7,3.4 -1.2,0.6 -2.3,1.3 -3.6,1.6 -1.3,0.3 -2.8,0.3 -3.8,-0.5 -1.3,-1 -1.7,-2.9 -1.3,-4.5 z"
   id="path34"
   inkscape:connector-curvature="0"
   style="fill:#5fe1ff" />
<path
   class="st4"
   d="m 79.489373,250.3 c -0.9,0.9 -1.8,1.8 -2.8,2.5 -0.7,-0.5 -1.5,-0.8 -2.4,-0.7 -1.7,0.3 -2.1,1.8 -2.1,3.3 -0.4,0.2 -0.7,0.3 -1.1,0.5 -1.8,0.7 -3.7,1.3 -5.6,1.8 -0.1,-4.6 -1.2,-10.6 3.3,-13.4 3.9,-2.4 8.9,0.5 12,4.2 -0.3,0.7 -0.8,1.2 -1.3,1.8 z"
   id="path36"
   inkscape:connector-curvature="0"
   style="fill:#5fe1ff" />
<path
   class="st5"
   d="m 83.189373,259.4 c 0.1,2.7 -0.3,5.3 -0.5,8 -3.3,-1 -6.1,-3 -7.6,-6.7 -0.6,-1.4 -1,-3 -1.1,-4.5 0,-0.5 -0.1,-1.1 0,-1.6 0.5,-0.3 0.9,-0.5 1.4,-0.8 0.3,0.1 0.7,0.3 1.2,0.7 1.1,0.7 1.7,2.6 2.1,3.7 0.1,0.3 0.6,0.3 0.6,-0.1 -0.1,-1.6 -1,-4.1 -2.6,-5.3 1.6,-1.2 3,-2.6 4.2,-4.2 1.1,1.3 1.9,2.6 2.5,3.9 -0.2,2.2 -0.3,4.5 -0.2,6.9 z"
   id="path38"
   inkscape:connector-curvature="0"
   style="fill:#389faf" />
<path
   class="st0"
   d="m 123.98937,267.6 c -0.7,-0.7 -1.6,-1.5 -2.6,-1.8 0.9,-1.2 1.6,-2.4 2.1,-3.8 0.5,0.6 1.1,1.1 1.6,1.6 0.6,0.5 1.1,1.1 1.6,1.6 -1,0.5 -1.9,1.5 -2.7,2.4 z"
   id="path40"
   inkscape:connector-curvature="0"
   style="fill:#ffffff" />
<path
   class="st5"
   d="m 120.58937,266.8 c 0.9,0.8 2.1,1.4 3,2.2 0.3,0.3 0.8,0.2 1,-0.1 0.8,-1 1.7,-2.2 2.8,-2.8 0.9,1.2 1.6,2.5 1.7,4.1 0.3,2.5 -0.8,4.4 -2.4,5.9 -3.4,-1.9 -7.4,-2.8 -11.3,-2.5 -0.9,0.1 -1.9,0.2 -2.8,0.1 -0.2,0 -0.5,-0.1 -0.7,-0.2 3.3,-1.7 6.4,-4 8.7,-6.7 z"
   id="path42"
   inkscape:connector-curvature="0"
   style="fill:#389faf" />
<path
   class="st0"
   d="m 131.88937,254.1 c -0.2,1 -0.4,2.1 -0.7,3.2 -0.5,-0.5 -1.1,-0.9 -1.7,-1.3 1,-0.5 1.8,-1.1 2.4,-1.9 z"
   id="path44"
   inkscape:connector-curvature="0"
   style="fill:#ffffff" />
<path
   class="st5"
   d="m 103.88937,234.6 c -2.4,-0.7 -4.699997,-1.8 -6.799997,-3.2 -0.2,-0.1 -0.4,-0.3 -0.6,-0.4 0.1,-0.3 -0.2,-0.6 -0.5,-0.4 0,0 0,0 0,0 -0.8,-0.6 -1.6,-1.2 -2.4,-1.8 -0.6,-0.4 -1.1,-0.9 -1.7,-1.4 0.4,-0.3 0.8,-0.6 1.2,-1 4.9,1.5 9.999997,2.3 14.999997,2.3 -1.5,1.6 -2.9,3.3 -4,5.2 0,0.3 -0.1,0.6 -0.2,0.7 z"
   id="path46"
   inkscape:connector-curvature="0"
   style="fill:#389faf" />
<path
   class="st5"
   d="m 93.389373,267.1 c 0.6,-2.9 2.6,-4 4.6,-5.8 1.8,-1.6 2.899997,-3.9 2.099997,-6.2 0.9,0.1 1.8,0 2.7,0 0.6,0 1.1,0 1.7,0 1.4,1.6 3.2,2.9 5.3,3.5 3.8,1.1 8.1,0.7 11.4,-1.4 1.9,-1.2 3.3,-2.9 4.5,-4.8 0.1,0.1 0.2,0.1 0.4,0.1 0,0 0,0 0,0 0.2,0 0.4,-0.1 0.5,-0.3 0,0 0,0 0,-0.1 1.1,-1.1 1.9,-2.4 3,-3.4 1.1,-1.1 2.3,-2 3.8,-2.4 1.3,3.8 1.1,7.8 -1.4,11.7 -0.2,-0.2 -0.4,-0.4 -0.6,-0.6 0.5,-1.6 0.8,-3.2 1.2,-4.9 0,-0.2 -0.2,-0.3 -0.3,-0.1 -0.6,1.6 -2,2.4 -3.6,3 -1,-0.5 -2.1,-0.7 -3.4,-0.4 -1.6,0.3 -2.9,1.3 -3.2,2.9 -0.2,1.1 0.1,2.1 0.7,3 -2.1,3.7 -4.8,6.4 -8.4,8.8 -1.9,1.3 -3.9,2.3 -5.9,3.4 -4.4,1.9 -9.399997,2 -13.799997,0.2 -1.1,-1.7 -1.8,-3.7 -1.3,-6.2 z"
   id="path48"
   inkscape:connector-curvature="0"
   style="fill:#389faf" />
<path
   class="st4"
   d="m 84.789373,258.8 c -0.3,-5.9 0.7,-11 3.6,-16.2 2.1,-3.7 4.8,-8.6 8,-11.4 0,0 0,0 0,0 0.5,0.4 1.1,0.7 1.7,1.1 1.8,1.1 3.699997,1.9 5.699997,2.5 -1.1,2 -1.8,4.2 -2.2,6.4 -0.6,3.5 -0.4,7.3 0.9,10.7 0.5,1.2 1.1,2.2 1.9,3.2 -0.6,0 -1.3,0 -1.9,0 -0.8,0 -1.7,0 -2.499997,0 -0.1,-0.3 -0.2,-0.6 -0.4,-0.8 -1.8,-2.9 -5.6,-2.9 -8,-1.1 1.3,-6.2 4.5,-12.2 9.299997,-16.3 0.3,-0.2 -0.1,-0.7 -0.4,-0.5 -6.799997,4.3 -10.499997,12.5 -10.899997,20.2 0,1 1.4,1 1.5,0 0.4,-4.3 7.8,-4 7.5,0.5 -0.2,3.3 -4.2,4.4 -5.8,7.1 -1.8,3.1 -1.5,5.9 -0.2,8.5 -0.1,0 -0.1,-0.1 -0.2,-0.1 0.4,2.4 3.4,4.1 3.5,6.6 0.1,1.9 -1.7,3.5 -3.5,3.8 -1.9,0.3 -3.7,-0.5 -5.2,-1.8 -1.7,-2.5 -2.7,-5.4 -3,-8.7 -0.3,-4.7 0.9,-9.2 0.6,-13.7 z"
   id="path50"
   inkscape:connector-curvature="0"
   style="fill:#5fe1ff" />
<path
   class="st4"
   d="m 78.589373,244.3 c 2.9,-7 7.5,-12.2 13.3,-16.7 0.7,0.6 1.4,1.2 2.2,1.8 0.6,0.5 1.2,0.9 1.8,1.4 -3.9,2.9 -7.2,7.9 -9.5,12.1 -1.4,2.6 -2.2,5 -2.7,7.6 -1.1,-2.3 -3.2,-4.5 -4.8,-5.8 -0.1,-0.2 -0.2,-0.2 -0.3,-0.4 0,0 0,0 0,0 z"
   id="path52"
   inkscape:connector-curvature="0"
   style="fill:#5fe1ff" />
<path
   class="st6"
   d="m 77.789373,203 c 6.6,4.8 14,8.6 22,10.8 0.899997,0.3 1.799997,0.5 2.699997,0.7 -0.9,3.1 0,6.2 4.3,8.2 5.3,2.5 12.5,1.8 18.1,1.5 6.8,-0.4 13.7,-1.9 20,-4.6 3,-1.3 7.6,-3.6 10.4,-6.7 3.6,-1.1 7.2,-2.5 10.7,-4.1 5.6,-2.7 10.9,-5.9 15.9,-9.6 0.9,-0.7 1.7,-1.3 2.6,-2 -0.2,2.3 -0.7,4.5 -1.2,6.8 -3.1,3.8 -6.4,6.4 -8.9,8.4 -9.1,7.1 -18,9.6 -26.6,11.9 -8.8,2.4 -16.3,3.3 -21.7,3.7 0,0 0,0 0.1,0 -2.2,0 -4.4,0 -6.6,-0.1 -0.2,0 -0.3,0.3 -0.1,0.4 0.5,0.1 0.9,0.2 1.4,0.3 1.3,0.9 2.4,2 3.2,3.2 -1,0.6 -2,1.2 -3.1,1.6 -4.9,2.2 -10.4,2.9 -15.7,1.6 -0.4,-0.1 -0.8,-0.2 -1.2,-0.3 0.3,-0.5 0.5,-0.9 0.8,-1.4 1,-1.6 2.2,-3 3.5,-4.4 2.1,0 4.3,-0.2 6.4,-0.5 0.4,-0.1 0.3,-0.7 -0.1,-0.7 -10.9,0.1 -22.499997,-2.8 -32.299997,-8.5 -1.5,-2 -2.8,-4.1 -3.7,-6.4 -1.2,-3.2 -1.4,-6.5 -0.9,-9.8 z"
   id="path54"
   inkscape:connector-curvature="0"
   style="fill:#62bfc4" />
<path
   class="st7"
   d="m 125.78937,250.8 c -0.5,0.4 -1,0.7 -1.5,1 -1.9,1.1 -4,1.7 -6.2,2.1 -2.3,0.5 -4.6,0.7 -6.9,0.9 -2,0.1 -4,0.2 -6.1,0.1 -0.2,0 -0.4,0 -0.6,0 -1.1,-1.4 -2,-3 -2.5,-4.7 -1,-3.4 -0.9,-7.2 -0.1,-10.7 0.4,-1.7 1,-3.3 1.9,-4.8 3.3,1 6.8,1.3 10.2,0.8 3.5,-0.5 6.8,-1.8 9.9,-3.7 0.5,0.8 0.9,1.6 1.3,2.5 -0.3,0 -0.6,0.4 -0.3,0.6 0,0 0,0 0.1,0 0,0 0,0 0,0.1 0.7,3 1.4,5.9 1.4,9 0.1,2.4 -0.3,4.6 -0.6,6.8 z"
   id="path56"
   inkscape:connector-curvature="0"
   style="fill:#b8f8ff" />
<path
   class="st6"
   d="m 105.78937,255.1 c 4.5,0 9.1,-0.2 13.6,-1.3 2.2,-0.5 4.6,-1.4 6.5,-2.8 0,0.3 -0.1,0.7 -0.1,1 0,0.1 0,0.2 0.1,0.3 -1.4,2.3 -3.2,4.2 -5.7,5.5 -1.7,0.9 -3.6,1.3 -5.5,1.3 -2,0 -4.2,-0.3 -6.1,-1.1 -1.5,-0.7 -2.8,-1.7 -3.8,-2.9 0.2,0 0.6,0 1,0 z"
   id="path58"
   inkscape:connector-curvature="0"
   style="fill:#62bfc4" />
<path
   class="st7"
   d="m 178.58937,201.5 c -5.1,3.6 -10.5,6.5 -16.2,8.9 -2.3,1 -4.6,1.8 -6.9,2.5 1,-1.1 1.9,-2.4 2.2,-3.7 0.2,-0.9 0.3,-1.6 0.1,-2.4 2.1,-9.5 -18.5,-10 -24.1,-9.2 -8.6,1.2 -18.5,4.6 -25.6,9.7 -2.6,1.8 -4.7,4.4 -5.5,7.1 -2,-0.5 -3.999997,-1.1 -5.899997,-1.7 -6.7,-2.2 -13,-5.6 -18.8,-9.8 0.4,-2.2 1,-4.4 1.9,-6.4 2.4,-5.7 6.1,-10.8 9.4,-16.1 1.6,-2.7 3.2,-5.4 5.3,-7.7 1.1,-1.3 2.4,-2.4 3.6,-3.4 1.4,-1.2 2.899997,-2.4 4.499997,-3.4 0.6,-0.4 2.1,-1.4 3,-1.1 -0.2,0 -0.3,0 -0.5,0.1 -0.9,0.1 -0.9,1.3 0,1.4 14,1 29.2,-6.3 31.7,-20.3 1.8,4.4 4.9,8.4 8.4,11.4 3.5,2.9 8.8,6.5 13.6,5.9 2.8,1.1 5.5,2.3 8.2,3.7 6.7,3.5 13.1,8.6 15.9,15.9 1.8,4.7 2.1,9.6 1.6,14.5 -1.9,1.2 -3.9,2.7 -5.9,4.1 z m -43.5,-13.4 c -1.5,0 -1.5,2.3 0,2.3 1.5,-0.1 1.5,-2.3 0,-2.3 z m 15.1,-0.3 c -1.6,0 -1.6,2.5 0,2.5 1.7,0 1.6,-2.5 0,-2.5 z"
   id="path60"
   inkscape:connector-curvature="0"
   style="fill:#b8f8ff" />
<path
   class="st5"
   d="m 124.08937,231.8 c -0.6,-0.9 -1.2,-1.7 -2,-2.4 -0.2,-0.2 -0.5,-0.4 -0.7,-0.6 -0.1,-0.1 -0.2,-0.1 -0.3,-0.2 2,0.3 4,0.2 6,0 0.3,0.2 0.6,0.3 0.9,0.5 -1.3,1 -2.5,1.9 -3.9,2.7 z"
   id="path62"
   inkscape:connector-curvature="0"
   style="fill:#389faf" />
<path
   class="st4"
   d="m 140.58937,270.9 c 3,0.1 6.2,2.2 7.7,4.8 0.7,1.2 1.1,2.5 1,3.9 -0.1,1.4 -0.9,2.7 -2.1,3.3 -1.5,0.9 -3.4,0.5 -5.1,-0.1 -1.9,-0.7 -3.7,-1.7 -5.3,-2.9 1.9,-2.8 3.1,-5.8 3.8,-9 z"
   id="path64"
   inkscape:connector-curvature="0"
   style="fill:#5fe1ff" />
<path
   class="st4"
   d="m 124.38937,257.3 c 0.7,-0.7 1.6,-0.8 1.8,-0.8 2.4,0.2 3.3,1.1 3.9,1.7 0.5,0.5 0.9,1 1.4,1.5 0.4,0.4 0.9,0.2 1.2,-0.2 6.8,-9 0.8,-19.4 -7.2,-25.2 0,0 0,0 0,0 -0.4,-0.9 -0.8,-1.8 -1.3,-2.6 1.3,-0.8 2.6,-1.7 3.9,-2.7 5.8,3.4 10.8,8.3 13,14.6 2.5,7 1,15.6 -4.5,20.5 1.5,1.1 2.9,3 3.4,4.9 -0.6,4.4 -2.4,8.4 -5,11.9 -1.1,1.1 -2.5,1.8 -4,2.3 -0.9,0.2 -1.8,0.4 -2.7,0.2 -0.9,-0.2 -1.8,-0.8 -2.1,-1.6 -0.4,-0.9 -0.2,-1.9 0.2,-2.8 0.1,-0.3 0.3,-0.5 0.5,-0.7 3.1,-2.4 5,-6.4 3.5,-10.3 -0.9,-2.4 -2.3,-3.9 -4.1,-5.6 -0.4,-0.4 -0.9,-0.8 -1.3,-1.3 -0.3,-0.4 -0.6,-0.8 -0.9,-1.2 -0.5,-0.8 -0.4,-1.9 0.3,-2.6 z"
   id="path66"
   inkscape:connector-curvature="0"
   style="fill:#5fe1ff" />
<path
   class="st4"
   d="m 116.38937,52.2 c 2.6,4.7 4.5,9.5 6,14.2 -2.1,1.7 -4.1,3.6 -5.9,5.7 -0.5,-1.9 -1,-3.7 -1.5,-5.6 -2.2,-8.4 -5.4,-15.8 -10.4,-23 -4.5,-6.4 -8.499997,-12.7 -14.199997,-18.1 -3.7,-3.5 -7.7,-6.6 -11.8,-9.6 12.9,6.2 28.799997,20 37.799997,36.4 z"
   id="path68"
   inkscape:connector-curvature="0"
   style="fill:#5fe1ff" />
<path
   class="st8"
   d="m 117.78937,79 c -0.3,-2.3 -0.8,-4.5 -1.4,-6.7 1.8,-2.1 3.8,-4 5.9,-5.7 5.3,17.6 3.4,34.2 1.5,43.5 -2,0.2 -3.9,0.3 -5.9,0.5 0.1,-1.4 0.2,-2.8 0.3,-4.2 0.3,-4.7 0.5,-9.3 0.4,-14 0,-4.6 -0.2,-9 -0.8,-13.4 z"
   id="path70"
   inkscape:connector-curvature="0"
   style="fill:#135b81" />
<path
   class="st9"
   d="m 103.18937,100.9 c 1.1,-5.2 2.6,-10.2 4.7,-15.1 2,-4.6 4.6,-8.9 7.8,-12.8 0.8,3.4 1.4,6.7 1.6,10.2 0.3,4.2 0.4,8.4 0.3,12.5 -0.1,4.9 -0.4,9.9 -1,14.7 -0.2,0 -0.4,0 -0.6,0.1 -3,0.5 -6,1 -9,1.6 -2,0.4 -3.9,0.9 -5.7,1.4 0.4,-4.1 1,-8.3 1.9,-12.6 z"
   id="path72"
   inkscape:connector-curvature="0"
   style="fill:#bcac15" />
<path
   class="st10"
   d="m 78.789373,81.1 c -6.9,-8.8 -17.1,-23.6 -22,-40.1 -4.4,-14.9 -1.4,-21 0.4,-23.6 0.4,-0.5 1.8,-2.5 3.7,-3.7 3.5,-2.1 9.3,-1.4 15.9,1.5 5.4,3.9 10.6,8 15.2,12.8 5.4,5.6 9.399997,12.3 13.599997,18.8 4.7,7.2 7.2,15.1 9.3,23.4 0.2,1 0.5,2 0.7,2.9 -0.3,0.3 -0.5,0.6 -0.8,0.9 -3.2,4.1 -5.8,8.6 -7.8,13.4 -2,4.9 -3.4,10.1 -4.4,15.3 -0.7,3.7 -1.1,7.4 -1.5,11.1 -0.2,0.1 -0.4,0.1 -0.6,0.2 -10.899997,-0.1 -21.699997,-3.2 -30.999997,-8.8 -3.9,-2.4 -7.6,-5.3 -9.6,-9.4 -2,-4.1 -1.9,-9.5 1.3,-12.7 2.6,-2.6 6.5,-3.3 10.1,-2.7 2.8,0.4 5.3,1.7 7.8,3 3.5,2.6 7.1,5 10.5,7.3 0.2,0.1 0.3,-0.1 0.2,-0.3 -3.6,-3 -7.2,-6.3 -11,-9.3 z"
   id="path74"
   inkscape:connector-curvature="0"
   style="fill:#ffee1d" />
<path
   class="st4"
   d="m 189.58937,193.3 c -0.3,0.6 -0.5,1.3 -0.8,1.9 -1.5,3.4 -3.4,6.2 -5.3,8.6 0.5,-2.2 0.9,-4.4 1.1,-6.7 1.7,-1.2 3.3,-2.5 5,-3.8 z"
   id="path76"
   inkscape:connector-curvature="0"
   style="fill:#5fe1ff" />
<path
   class="st4"
   d="m 184.58937,197 c 0.1,-0.6 0.1,-1.3 0.1,-1.9 0.2,-4.7 -0.4,-9.6 -2.3,-13.8 -1.6,-3.4 -4,-6.4 -6.9,-8.9 -4.8,-4.2 -10.6,-7.1 -16.6,-9.3 0.5,-0.1 1,-0.2 1.6,-0.4 0.4,-0.2 0.4,-0.8 -0.1,-0.8 -5.6,-0.2 -11.4,-3.7 -15.3,-7.5 -4.3,-4.1 -5.9,-8.9 -8.1,-14.3 -0.4,-0.9 -1.7,-0.8 -1.7,0.2 0,6.8 -3.6,13.4 -8.6,17.8 -6.1,5.3 -13.3,5.6 -20.9,6.5 0,0 0,0 0,0 -0.5,-0.2 -1,0 -1.5,0.2 -0.7,0.3 -1.4,0.7 -2.1,1.2 -1.6,1.1 -3.099997,2.3 -4.499997,3.5 -1.5,1.3 -2.9,2.6 -4.1,4.1 -2,2.5 -3.6,5.3 -5.3,8 -1.7,2.7 -3.5,5.4 -5.2,8.2 -1.6,2.7 -3.2,5.6 -4.2,8.6 -0.5,1.5 -0.9,2.9 -1.1,4.4 -2.9,-2.1 -5.7,-4.5 -8.2,-7 -4,-3.9 -7.6,-8.1 -10.6,-12.8 0,-0.6 -0.1,-1.2 -0.1,-1.7 -0.1,-7.2 1.6,-14.1 2.4,-21.2 6.1,-19.8 20.7,-36.7 39.499997,-45.3 2.4,-0.7 4.8,-1.4 7.4,-1.8 2.8,-0.5 5.7,-1.1 8.5,-1.5 2.3,-0.3 4.7,-0.4 7,-0.6 0,0 0,0 0,0 16.2,2.6 31.6,8.6 44.3,18.9 5,4 21.4,18.8 23.9,41.5 0.5,4.3 1.3,12.5 -2.3,21.7 -1.6,1.4 -3.3,2.7 -5,4 z"
   id="path78"
   inkscape:connector-curvature="0"
   style="fill:#5fe1ff" />
<path
   class="st5"
   d="m 72.189373,198.5 c 1.8,1.6 3.6,3.1 5.6,4.5 -0.6,3.8 -0.2,7.6 1.4,11.2 0.8,1.7 1.8,3.3 3,4.8 -6.2,-3.6 -11.7,-8.4 -15.8,-14.1 -4.6,-6.4 -6.9,-13.8 -7.4,-21.6 3.6,5.6 8.2,10.7 13.2,15.2 z"
   id="path80"
   inkscape:connector-curvature="0"
   style="fill:#389faf" />
<path
   class="st11"
   d="m 88.889373,132 c 0,-11.5 15.699997,-20.9 35.099997,-20.9 0.3,0 0.6,0 0.8,0 9.7,1.7 19.2,4.6 27.9,8.9 4,3.4 6.3,7.5 6.3,12 0,7.7 -7,14.4 -17.4,18 -1.9,-3.1 -3.2,-6.4 -4.6,-10 -0.4,-0.9 -1.7,-0.8 -1.7,0.2 0,4.3 -1.4,8.5 -3.7,12.1 -2.5,0.3 -5,0.5 -7.6,0.5 -19.4,0.1 -35.099997,-9.2 -35.099997,-20.8 z"
   id="path82"
   inkscape:connector-curvature="0"
   style="opacity:0.18000004;fill:#ffffff" />
<ellipse
   transform="matrix(-0.95678523,-0.29079551,-0.29079551,0.95678523,0,0)"
   class="st12"
   cx="-228.16508"
   cy="127.99104"
   rx="7.6001172"
   ry="10.800167"
   id="ellipse84"
   style="fill:#0044b2;stroke:#000000;stroke-width:2.00003099;stroke-miterlimit:10" />
<ellipse
   transform="matrix(-0.58287343,-0.81256296,-0.81256296,0.58287343,0,0)"
   class="st12"
   cx="-208.10658"
   cy="46.799992"
   rx="10.800492"
   ry="7.6003466"
   id="ellipse86"
   style="fill:#0044b2;stroke:#000000;stroke-width:2.00009108;stroke-miterlimit:10" />
<ellipse
   transform="matrix(-0.14990016,-0.98870114,-0.98870114,0.14990016,0,0)"
   class="st13"
   cx="-188.88217"
   cy="-141.33667"
   rx="23.899973"
   ry="12.099986"
   id="ellipse88"
   style="fill:#ffffff;stroke:#000000;stroke-width:1.99999774;stroke-miterlimit:10" />
<linearGradient
   id="SVGID_1_"
   gradientUnits="userSpaceOnUse"
   x1="68.485397"
   y1="165.1552"
   x2="82.105301"
   y2="175.0921"
   gradientTransform="matrix(-1,0,0,1,243.08937,-2.1)">
	<stop
   offset="0"
   style="stop-color:#005B8E"
   id="stop90" />
	<stop
   offset="1"
   style="stop-color:#7E5FA8"
   id="stop92" />
</linearGradient>
<path
   class="st14"
   d="m 160.88937,168 c 1,8.7 5.5,15.3 10,14.8 4.5,-0.5 7.5,-8 6.5,-16.6 -1,-8.7 -5.5,-15.3 -10,-14.8 -4.5,0.5 -7.5,7.9 -6.5,16.6 z"
   id="path95"
   inkscape:connector-curvature="0"
   style="fill:url(#SVGID_1_)" />
<ellipse
   transform="matrix(-0.98874556,-0.14960689,-0.14960689,0.98874556,0,0)"
   class="st13"
   cx="-121.88055"
   cy="153.17551"
   rx="15.39929"
   ry="26.298788"
   id="ellipse97"
   style="fill:#ffffff;stroke:#000000;stroke-width:1.99990785;stroke-miterlimit:10" />
<linearGradient
   id="SVGID_2_"
   gradientUnits="userSpaceOnUse"
   x1="136.1041"
   y1="167.7366"
   x2="148.76691"
   y2="180.8335"
   gradientTransform="matrix(-1,0,0,1,243.08937,-2.1)">
	<stop
   offset="0"
   style="stop-color:#005B8E"
   id="stop99" />
	<stop
   offset="1"
   style="stop-color:#6958A4"
   id="stop101" />
</linearGradient>
<path
   class="st15"
   d="m 93.689373,169.7 c -1,9 2.2,16.5 7.199997,16.8 5,0.3 9.7,-6.8 10.7,-15.8 1,-9 -2.2,-16.5 -7.2,-16.8 -4.999997,-0.3 -9.799997,6.8 -10.699997,15.8 z"
   id="path104"
   inkscape:connector-curvature="0"
   style="fill:url(#SVGID_2_)" />
<ellipse
   transform="matrix(-0.11159482,-0.99375379,-0.99375379,0.11159482,0,0)"
   class="st16"
   cx="-184.78387"
   cy="-150.55244"
   rx="7.2003345"
   ry="3.6001673"
   id="ellipse106"
   style="fill:#fffdff;stroke:#1e0f00;stroke-width:1.00004649;stroke-miterlimit:10" />
<ellipse
   transform="matrix(-0.99138267,-0.13099771,-0.13099771,0.99138267,0,0)"
   class="st17"
   cx="-125.80314"
   cy="155.2589"
   rx="3.4000595"
   ry="7.0001225"
   id="ellipse108"
   style="fill:#ffffff;stroke:#1e0f00;stroke-width:1.00001752;stroke-miterlimit:10" />
<circle
   class="st18"
   cx="-168.58937"
   cy="153.79999"
   r="3.5"
   id="circle110"
   style="fill:#fffdff"
   transform="scale(-1,1)" />
<circle
   class="st18"
   cx="-104.58937"
   cy="156.79999"
   r="3.8"
   id="circle112"
   style="fill:#fffdff"
   transform="scale(-1,1)" />
<ellipse
   class="st11"
   cx="-125.38938"
   cy="124.2"
   rx="18.4"
   ry="10"
   id="ellipse114"
   style="opacity:0.18000004;fill:#ffffff"
   transform="scale(-1,1)" />
<path
   class="st19"
   d="m 137.48937,210.6 c -4.9,-1.3 -9.8,-1.9 -14.8,-1.8 -5.8,0.2 -11.3,1.3 -16.7,2.9 0.3,-0.4 0.7,-0.7 1.1,-1.1 3,-2.5 6.7,-4.3 10.4,-5.8 0.7,0 1.4,0 2,0 3.9,0.1 7.8,0.9 11.5,2 3.2,0.9 6.3,2.4 9,4.5 -0.8,-0.2 -1.6,-0.5 -2.5,-0.7 z"
   id="path116"
   inkscape:connector-curvature="0"
   style="fill:#c13d5f" />
<path
   class="st2"
   d="m 120.98937,209.9 c 5.2,-0.3 10.3,0.1 15.3,1.4 1.9,0.5 3.9,1.1 5.8,1.8 1.2,1.1 2.3,2.4 3,3.8 -5.7,2.8 -12.1,4.5 -18.4,5.2 -5.5,0.6 -12.7,1.4 -18.1,-0.4 -5,-1.7 -5.7,-5.4 -3.6,-8.7 5.2,-1.6 10.5,-2.8 16,-3.1 z"
   id="path118"
   inkscape:connector-curvature="0"
   style="fill:#f47895" />
</svg>