<?xml version="1.0" encoding="UTF-8" standalone="no"?>
<!-- Created with Inkscape (http://www.inkscape.org/) -->
<svg
   xmlns:svg="http://www.w3.org/2000/svg"
   xmlns="http://www.w3.org/2000/svg"
   version="1.0"
   width="428.11359"
   height="413.09982">
  <defs />
  <path
     d="M 363.62489,126.80163 C 363.38989,127.05538 361.68614,125.27788 357.71114,121.90413 C 353.70239,118.80288 347.36989,113.10038 336.77364,111.00288 C 325.93489,109.15913 318.71239,115.17038 315.10614,119.02288 C 311.31739,123.07038 309.91364,125.61913 309.62614,125.39038 C 309.57739,125.38288 311.57864,120.98788 316.16864,116.20038 C 320.68989,111.43038 329.16614,107.75288 336.65489,109.30663 C 351.99864,111.70788 364.18114,126.70163 363.62489,126.80163 z M 292.21864,106.53288 C 292.45239,105.49788 298.09239,80.99663 312.07239,70.69538 L 312.49864,70.38038 L 312.96114,70.62913 C 326.91364,78.10663 335.92989,95.81038 336.30489,96.55913 L 337.00114,97.94163 L 335.53614,97.94163 C 316.70614,97.94163 297.16739,103.69038 293.68864,107.41663 L 291.49114,109.77038 L 292.21864,106.53288 z M 365.19739,110.13913 C 357.11614,99.70663 349.55239,91.17913 342.20864,84.05913 C 346.07614,89.90288 349.35489,96.07163 351.10239,101.82038 C 351.25114,102.31413 350.99739,102.84163 350.53864,103.00288 C 350.07989,103.16413 349.58614,102.89288 349.43739,102.40163 C 349.42114,102.34288 349.40114,102.28663 349.38114,102.23038 C 343.17989,82.12038 320.13364,59.87038 316.90114,59.87038 C 313.46864,59.87038 285.83614,75.81788 279.68489,111.73538 C 279.66739,111.83288 279.64489,111.92788 279.63114,112.02538 C 279.54489,112.53413 279.08864,112.87538 278.61489,112.78288 C 278.13864,112.69038 277.82114,112.20413 277.90739,111.69413 C 282.57489,83.82788 300.65614,66.72788 310.75864,60.58038 C 295.56864,52.25038 279.46239,47.00163 259.77989,40.59788 L 254.67989,38.93788 C 209.85489,24.30163 119.08364,32.55288 82.27239,77.86038 C 83.91239,77.78788 86.43739,77.69288 89.60864,77.62663 C 91.25614,75.93913 92.28489,75.02163 92.39864,75.14788 C 92.54864,75.30038 91.97489,76.07413 90.70489,77.60413 C 93.71989,77.54788 97.24739,77.52413 101.09739,77.56538 C 105.69489,72.60913 109.07864,69.33038 109.29864,69.57913 C 109.56239,69.85788 107.34489,72.27288 102.73364,77.58913 C 106.36864,77.64163 110.25614,77.75788 114.25489,77.96788 C 119.69364,73.65913 124.00114,70.90538 124.22739,71.33538 C 124.47489,71.72538 121.67114,73.49038 116.20239,78.07788 C 136.70864,79.29913 159.48364,83.02788 165.53614,93.25163 C 165.68989,93.51288 165.71489,93.84038 165.60239,94.12288 C 165.48989,94.40913 165.25114,94.61413 164.96739,94.67288 C 103.23864,107.65038 61.93739,125.69788 35.88114,178.14163 C 35.78239,178.62038 35.66864,179.17413 35.52864,179.83288 C 37.00864,179.05663 38.84239,178.24413 40.97864,177.42413 C 42.58989,172.13538 44.22989,168.22663 44.64239,168.43413 C 45.02864,168.59538 44.03739,171.13038 42.52114,176.85288 C 49.79114,174.22038 59.95239,171.60163 70.99489,169.98288 C 84.76489,167.96288 110.52364,166.06663 128.36614,176.02788 C 128.67364,176.19788 128.85364,176.54038 128.83739,176.90663 C 128.81989,177.27288 128.60489,177.59413 128.28739,177.73163 C 100.00114,189.78663 74.06364,226.21788 65.32739,254.47413 C 60.86864,268.90288 60.71864,280.79288 64.85364,289.00038 C 91.07614,257.60413 134.97489,252.21163 141.45739,251.57913 C 141.48114,250.51413 141.58864,249.35538 141.77364,248.10788 C 133.20489,238.80038 131.97489,232.06288 143.03864,215.51913 C 143.09239,203.02913 146.34489,194.33788 152.72114,189.69413 C 159.40614,184.82913 169.61114,184.73788 180.71989,189.45038 C 195.28489,195.62663 205.47989,209.38163 207.18614,211.79413 C 209.36739,211.90913 211.48614,212.31663 213.62239,213.11663 C 222.29114,216.36663 228.89864,227.27788 228.27864,233.82788 C 230.38739,233.63038 234.97239,233.40038 239.78989,234.41163 C 240.27239,221.59913 247.38489,199.59913 271.83239,199.59913 C 283.30739,199.59913 294.04489,206.34038 304.42364,213.84913 C 291.82239,188.42038 297.20364,160.35288 306.03239,143.51538 C 313.22489,129.79413 323.28239,121.60163 332.93614,121.60163 C 359.10864,121.60163 370.48739,147.61413 374.94114,163.11913 C 380.53114,182.59038 386.41739,195.32413 390.29739,196.35663 C 390.70989,196.46663 391.34989,196.52038 392.11864,195.69538 C 392.42114,195.37038 392.71614,194.95788 393.00989,194.49413 C 393.05364,194.36663 393.12239,194.25538 393.21489,194.15913 C 398.24864,185.32663 399.74239,154.71913 365.19739,110.13913 L 365.19739,110.13913 z"
     style="fill:#007fff" />
  <path
     d="M 125.86114,176.79413 C 113.47364,170.58038 96.86739,169.42538 81.10489,170.70288 C 78.34864,173.45163 47.01364,205.48538 47.77989,236.88163 C 48.22864,236.68163 48.78114,236.41788 49.32739,236.15663 C 53.97614,233.93038 63.54114,229.36663 73.09239,231.84788 C 85.22364,209.25288 104.80614,186.54538 125.86114,176.79413 L 125.86114,176.79413 z"
     style="fill:#007fff" />
  <path
     d="M 177.61364,313.55663 C 172.25739,307.81913 174.36239,303.92038 175.04614,302.95163 C 170.78239,301.48163 167.61614,299.13038 163.74739,294.98538 C 157.73614,288.54663 148.90364,274.62538 147.80489,263.11663 C 140.79989,266.66163 103.24864,287.63663 98.70239,331.62788 C 122.63614,310.80288 150.08739,312.58038 156.84739,313.40538 C 155.43114,309.05663 155.72239,305.35788 155.99239,305.46538 C 156.28114,305.43663 156.47614,309.36413 158.54614,313.68788 C 158.93739,313.84038 159.19614,314.26163 159.11739,314.71913 C 159.11489,314.73788 159.10364,314.75038 159.09864,314.76788 C 159.39114,315.29788 159.70364,315.82663 160.05489,316.35413 C 163.26364,321.69413 168.62489,326.20788 171.60114,327.90663 C 173.49239,329.12538 172.64364,330.42413 170.99239,329.70413 C 170.12364,329.42038 168.93739,328.75163 167.61114,327.78288 C 165.25114,332.41913 154.52864,350.31663 125.01364,362.31663 C 152.92614,362.92663 173.88864,346.43038 176.33989,344.41538 C 176.63739,335.48038 178.27864,325.71538 182.24739,316.65538 C 180.25114,315.71913 178.65864,314.67538 177.61364,313.55663 L 177.61364,313.55663 z"
     style="fill:#007fff" />
  <path
     d="M 253.14114,263.28288 L 251.93489,264.56038 C 252.02114,265.35288 252.11364,266.99413 251.76739,269.10163 L 265.71489,270.20163 C 260.16739,267.23788 256.21739,264.32538 253.86364,262.54538 C 253.63489,262.80038 253.39489,263.04913 253.14114,263.28288 L 253.14114,263.28288 z"
     style="fill:#007fff" />
  <path
     d="M 180.07739,191.19288 C 175.07989,189.07413 162.50614,184.83788 153.70489,191.24663 C 148.28739,195.19288 145.31864,202.46538 144.85489,212.87038 C 145.59739,211.81288 146.37864,210.72413 147.20864,209.59163 C 157.94864,194.97038 171.49364,195.97413 176.81864,197.08163 C 184.17864,198.61538 190.32614,203.14913 192.08239,208.23913 C 194.85989,208.64413 198.55614,211.46663 199.69364,212.38288 C 201.51739,212.04788 203.25364,211.83288 204.93364,211.77163 C 201.85739,207.73413 192.47489,196.45163 180.07739,191.19288 L 180.07739,191.19288 z"
     style="fill:#ffccb2" />
  <path
     d="M 312.64364,72.57038 C 302.03239,80.73288 296.36864,98.03913 294.56739,104.48663 C 301.23739,100.49788 318.36614,96.33788 334.02489,96.08163 C 331.64489,91.82663 323.66364,78.72038 312.64364,72.57038 L 312.64364,72.57038 z"
     style="fill:#ffccb2" />
  <path
     d="M 296.56864,258.11913 C 285.57114,254.26913 276.45239,242.41913 275.69489,234.94788 C 275.60989,234.60913 275.56614,234.33288 275.54864,234.09913 C 267.43864,236.28163 268.93739,243.84413 267.93114,242.91663 C 267.38489,243.55163 267.74614,233.39288 275.19239,232.47538 C 281.41739,231.53538 287.61864,235.60038 287.27739,236.04163 C 287.05739,236.93788 284.04489,234.11788 276.75989,234.07913 C 276.77864,234.12788 276.79614,234.17163 276.81364,234.22038 C 277.42864,239.60163 284.61614,251.86288 295.85364,256.34413 C 306.41739,261.51538 316.98864,262.33288 316.90614,262.64413 C 316.95489,262.83663 307.14989,262.65288 296.56864,258.11913 z M 364.55739,233.63413 C 358.61989,235.09913 351.88614,236.75913 345.06989,236.75913 C 332.33614,236.75913 320.25989,227.81913 308.58114,219.17413 C 307.89739,218.66913 307.21364,218.16163 306.52739,217.65538 C 306.52239,217.65288 306.51989,217.64788 306.51489,217.64788 C 295.40239,209.45038 283.92239,201.47413 271.83239,201.47413 C 244.74739,201.47413 241.85239,229.22538 241.54489,234.83538 C 244.94364,235.77288 248.31739,237.39163 250.89489,240.15038 C 255.51989,245.10413 257.75114,251.50288 256.71614,256.84788 C 256.41239,258.42038 255.82239,259.84538 254.99739,261.10538 C 261.34489,265.89788 278.87864,278.52788 307.80239,278.52788 C 339.17614,278.52788 367.00114,259.19913 376.13489,244.37163 C 376.13489,244.35788 376.12989,244.34538 376.12989,244.33288 C 376.12989,242.46288 377.03239,240.70038 378.61489,239.15663 C 379.04989,237.80913 379.29614,236.53038 379.29614,235.35788 C 379.29614,233.98913 378.97364,233.04913 378.31239,232.48788 C 376.26864,230.74413 370.84114,232.08163 364.55739,233.63413 L 364.55739,233.63413 z"
     style="fill:#ffccb2" />
  <path
     d="M 146.99864,261.45163 C 147.27739,261.31288 147.50864,261.19788 147.69739,261.10538 C 147.66739,258.73288 148.00489,256.48913 148.82989,254.47913 C 153.32239,243.53663 165.92989,221.68163 181.47614,217.27288 L 186.80614,215.73163 C 190.70489,214.59163 194.14739,213.59288 197.31114,212.87788 C 195.52614,211.60288 193.00989,210.06538 191.44739,210.06538 L 190.79239,210.06538 L 190.60739,209.38663 C 190.60739,209.37913 190.60239,209.36913 190.59739,209.36288 C 190.52364,209.40413 190.45114,209.43038 190.38239,209.41538 C 188.76864,208.80788 184.32739,208.12663 180.38739,208.94663 C 176.33489,209.48913 173.50489,211.82788 173.31739,211.63788 C 173.11739,211.53038 175.62614,208.67163 179.68489,207.73913 C 183.25614,206.65288 187.57989,206.90413 190.00114,207.81913 C 188.00239,203.76163 182.73364,200.22413 176.48364,198.92288 C 171.47364,197.87788 158.72739,196.94038 148.58614,210.74913 C 133.56614,231.20288 134.66489,237.44288 142.24739,245.93913 C 142.55239,242.09163 145.68989,233.07788 146.85239,233.77663 C 146.42739,233.75163 143.97614,243.54663 143.50239,247.10163 C 143.48864,247.15538 143.45864,247.19413 143.42989,247.23538 L 143.63989,247.46038 L 143.56114,247.94163 C 141.99864,257.41913 145.83239,260.69288 146.99864,261.45163 L 146.99864,261.45163 z"
     style="fill:#ffffff" />
  <path
     d="M 220.81989,272.63413 C 221.00739,272.58538 239.71864,267.72913 248.86864,263.84913 C 250.03614,263.35663 251.04614,262.71413 251.90614,261.95538 L 253.09239,260.70538 C 254.03489,259.50163 254.68864,258.08288 255.00114,256.46663 C 255.91989,251.73538 253.86864,245.99038 249.65489,241.47663 C 247.32864,238.98163 244.19864,237.50663 241.02239,236.65288 C 240.90489,236.71538 240.77364,236.75913 240.63364,236.75913 C 240.35364,236.75913 240.11364,236.60788 239.95239,236.38913 C 235.20739,235.31163 230.53864,235.51913 228.45364,235.70038 C 233.97864,240.22663 238.17114,247.15538 237.50614,247.48288 C 236.84739,247.91663 235.13364,243.05413 226.35614,236.12788 C 226.29614,236.07913 226.24239,236.03663 226.17864,235.98788 L 225.95864,236.02288 L 226.00739,235.85413 C 217.55239,229.14038 212.66239,227.14288 212.86364,226.64288 C 213.02864,226.08163 220.75864,229.49913 226.45489,234.12288 C 227.54364,228.48288 221.08614,217.90288 213.04364,214.88413 C 208.76614,213.28288 204.60614,213.32163 199.58239,214.29913 C 199.57739,214.29913 199.57239,214.29913 199.56739,214.30163 C 196.01239,214.99163 192.03239,216.14913 187.26489,217.54038 L 181.92364,219.08413 C 168.09989,223.00538 155.51989,242.85163 150.43114,255.23413 C 149.64739,257.14538 149.36739,259.31538 149.45489,261.63788 C 149.45739,261.67663 149.45989,261.71538 149.45989,261.75788 C 149.95239,272.86288 159.11739,287.37538 164.98239,293.65913 C 171.77614,300.93663 175.70989,302.42413 191.29364,303.60038 C 208.48989,304.89913 219.42614,302.79788 223.21489,297.53663 C 223.14114,297.54788 223.07239,297.55538 222.99989,297.57038 C 211.73489,299.42538 196.10739,297.20413 195.44614,297.10663 C 194.96739,297.03788 194.63489,296.56413 194.69864,296.05163 C 194.76239,295.53913 195.20239,295.18038 195.67989,295.25038 C 195.84114,295.27288 211.72239,297.53163 222.73364,295.71538 C 224.37614,295.44663 225.94114,295.24413 227.45489,295.04788 C 235.88739,293.96413 241.14489,293.26913 241.68114,283.48538 C 230.85614,290.16788 214.16614,290.59788 213.35114,290.61413 C 212.86739,290.62413 212.46739,290.21163 212.45739,289.69413 C 212.44739,289.17663 212.83364,288.74913 213.31739,288.73913 C 213.54114,288.73538 236.04114,288.16413 245.21614,278.33663 C 245.85614,277.64788 246.40364,276.96038 246.89614,276.26913 C 246.90114,276.25663 246.90364,276.24163 246.91364,276.23288 C 246.92114,276.22288 246.92989,276.21788 246.93989,276.20788 C 250.24614,271.54538 250.36364,267.04788 250.23614,265.23663 C 249.99739,265.35788 249.76739,265.48538 249.51364,265.59288 C 240.24614,269.52038 221.41739,274.40663 221.22989,274.45538 C 220.75864,274.57663 220.28739,274.26663 220.17239,273.76413 C 220.05989,273.26163 220.34864,272.75538 220.81989,272.63413 L 220.81989,272.63413 z"
     style="fill:#ffffff" />
  <path
     d="M 239.47739,310.21663 C 235.75864,312.23288 231.51489,314.33788 226.67614,316.54038 C 213.01989,322.76038 194.24489,321.46913 183.87114,317.35538 C 179.84989,326.46913 178.25364,336.05163 177.98489,344.70413 C 178.02364,344.86538 178.00989,345.02913 177.96614,345.18788 C 177.58239,360.16288 181.11989,372.23038 182.75114,373.97663 C 185.69489,377.13288 204.85489,382.11163 242.69739,376.67913 C 236.63239,364.30913 234.07864,330.70038 239.47739,310.21663 L 239.47739,310.21663 z"
     style="fill:#ff173d" />
  <path
     d="M 271.81614,370.32413 C 341.47614,349.46913 372.58489,297.10913 374.86989,292.89788 C 370.21364,289.83163 315.12864,290.45413 270.24864,294.56788 C 261.30114,314.88663 261.94489,345.81788 271.81614,370.32413 L 271.81614,370.32413 z"
     style="fill:#ff173d" />
  <path
     d="M 241.64739,309.01288 C 235.76864,328.73538 238.30739,364.75538 244.56239,376.40288 C 253.59239,375.04038 262.10114,373.13663 270.11364,370.81788 C 260.30739,346.27663 259.58364,315.46038 268.26364,294.75288 C 264.58614,295.10163 260.98614,295.47538 257.49489,295.87163 C 255.52364,299.76288 250.27239,304.11788 241.64739,309.01288 L 241.64739,309.01288 z"
     style="fill:#ffffff" />
  <path
     d="M 247.71864,278.17538 C 247.33114,278.67413 246.91364,279.16913 246.45239,279.66538 C 245.55864,280.61913 244.55739,281.49163 243.47364,282.28663 C 243.28989,294.88913 236.38364,295.78788 227.66489,296.91163 C 226.94989,297.00163 226.22239,297.09663 225.47989,297.19913 C 222.15489,304.14788 210.63614,306.94038 191.16864,305.47038 C 184.86739,304.99413 180.36739,304.47413 176.70614,303.46413 C 176.68614,303.67163 176.61489,303.87413 176.46614,304.03538 L 176.47614,304.02788 C 176.36864,304.14788 173.96114,306.99413 178.85239,312.22788 C 179.86489,313.31788 181.58364,314.36663 183.81489,315.30038 L 183.81739,315.30038 L 183.81989,315.30038 C 193.29989,319.26913 212.08614,321.14663 225.98989,314.81663 C 251.33989,303.27288 256.65989,296.29038 256.65989,292.46288 C 256.65989,287.03038 249.89489,280.22663 247.71864,278.17538 L 247.71864,278.17538 z"
     style="fill:#ffffff" />
  <path
     d="M 389.87489,198.17538 C 385.25614,196.94788 380.28489,185.14163 376.76989,174.85538 C 376.59864,180.64163 374.50864,188.89538 370.72864,197.50163 C 364.33739,212.04288 355.57239,222.02788 351.15364,219.79913 C 346.73989,217.57288 348.33614,203.97663 354.72864,189.43038 C 361.11489,174.90413 369.86489,164.92913 374.28864,167.13038 C 373.90364,165.86163 373.56114,164.69163 373.26864,163.67163 C 368.95739,148.66163 357.98489,123.47663 332.93614,123.47663 C 323.92239,123.47663 314.43739,131.31288 307.55739,144.43538 C 298.56864,161.57663 293.22864,190.64663 307.68989,216.23788 C 308.31739,216.70163 308.94739,217.16788 309.57739,217.63413 C 321.56114,226.50538 332.88239,234.88413 345.06989,234.88413 C 351.69114,234.88413 358.31739,233.24913 364.16614,231.80663 C 371.16864,230.07788 376.69614,228.71288 379.40114,231.01788 C 380.03614,231.55913 380.46614,232.29663 380.73364,233.18538 C 385.06489,226.93288 391.92114,209.95788 392.83864,197.49913 C 391.72489,198.39538 390.63614,198.37788 389.87489,198.17538 L 389.87489,198.17538 z"
     style="fill:#ffffff" />
  <path
     d="M 362.25989,181.36163 C 359.96739,186.57913 359.62114,191.56913 361.48114,192.50913 C 363.34614,193.44913 366.71614,189.98038 369.00864,184.76538 C 371.29864,179.54788 371.64739,174.55788 369.78489,173.62038 C 367.92114,172.67788 364.55239,176.14413 362.25989,181.36163 L 362.25989,181.36163 z"
     style="fill:#ffffff" />
  <path
     d="M 400.34364,236.87163 C 394.78989,236.87163 390.27989,238.70288 390.27989,240.96413 C 390.27989,243.22413 394.78989,245.06038 400.34364,245.06038 C 405.89989,245.06038 410.40739,243.22413 410.40739,240.96413 C 410.40739,238.70288 405.89989,236.87163 400.34364,236.87163 L 400.34364,236.87163 z"
     style="fill:#ffffff" />
  <path
     d="M 294.56739,104.48663 C 296.36864,98.03913 302.03239,80.73288 312.64364,72.57038 C 323.66364,78.72038 331.64489,91.82663 334.02489,96.08163 C 318.36614,96.33788 301.23739,100.49788 294.56739,104.48663 z M 336.30489,96.55913 C 335.92989,95.81038 326.91364,78.10663 312.96114,70.62913 L 312.49864,70.38038 L 312.07239,70.69538 C 298.09239,80.99663 292.45239,105.49788 292.21864,106.53288 L 291.49114,109.77038 L 293.68864,107.41663 C 297.16739,103.69038 316.70614,97.94163 335.53614,97.94163 L 337.00114,97.94163 L 336.30489,96.55913 z"
     style="fill:#000000" />
  <path
     d="M 315.10614,119.02288 C 318.71239,115.17038 325.93489,109.15913 336.77364,111.00288 C 347.36989,113.10038 353.70239,118.80288 357.71114,121.90413 C 361.68614,125.27788 363.38989,127.05538 363.62489,126.80163 C 364.18114,126.70163 351.99864,111.70788 336.65489,109.30663 C 329.16614,107.75288 320.68989,111.43038 316.16864,116.20038 C 311.57864,120.98788 309.57739,125.38288 309.62614,125.39038 C 309.91364,125.61913 311.31739,123.07038 315.10614,119.02288 L 315.10614,119.02288 z"
     style="fill:#000000" />
  <path
     d="M 276.81364,234.22038 C 276.79614,234.17163 276.77864,234.12788 276.75989,234.07913 C 284.04489,234.11788 287.05739,236.93788 287.27739,236.04163 C 287.61864,235.60038 281.41739,231.53538 275.19239,232.47538 C 267.74614,233.39288 267.38489,243.55163 267.93114,242.91663 C 268.93739,243.84413 267.43864,236.28163 275.54864,234.09913 C 275.56614,234.33288 275.60989,234.60913 275.69489,234.94788 C 276.45239,242.41913 285.57114,254.26913 296.56864,258.11913 C 307.14989,262.65288 316.95489,262.83663 316.90614,262.64413 C 316.98864,262.33288 306.41739,261.51538 295.85364,256.34413 C 284.61614,251.86288 277.42864,239.60163 276.81364,234.22038 L 276.81364,234.22038 z"
     style="fill:#000000" />
  <path
     d="M 45.39989,96.23038 C 33.91489,113.18288 27.68489,138.03663 28.39989,138.11913 C 29.33489,138.54663 31.00239,122.60663 46.93489,96.73788 C 63.47614,71.41038 74.21989,63.64663 73.53989,62.96788 C 73.05864,62.25788 55.81739,78.67788 45.39989,96.23038 L 45.39989,96.23038 z"
     style="fill:#000000" />
  <path
     d="M 56.54864,73.17788 C 68.47864,60.40038 74.44989,54.90913 74.19114,54.60913 C 74.09364,54.47663 62.99614,64.07913 48.92489,79.71913 C 34.88239,95.19038 18.61239,118.39788 11.90114,143.53413 C -2.52761,193.37163 13.35614,255.44663 13.45864,257.12163 C 13.67364,256.71288 11.83739,247.36038 9.51364,228.66413 C 7.82614,209.84038 3.49239,180.08038 13.70739,142.84163 C 25.22864,105.95663 45.31114,86.12538 56.54864,73.17788 L 56.54864,73.17788 z"
     style="fill:#000000" />
  <path
     d="M 1.42489,181.63038 C 0.62614,181.52538 -0.72636,200.09413 0.47989,215.72913 C 1.07614,231.44288 5.76864,250.15788 6.62239,249.83163 C 7.08239,249.69413 3.39989,238.69538 1.99864,215.24163 C 0.65614,191.81538 2.11364,181.68663 1.42489,181.63038 L 1.42489,181.63038 z"
     style="fill:#000000" />
  <path
     d="M 14.10114,192.41413 C 13.34114,192.35538 13.45364,227.39413 19.49364,256.23288 C 22.17739,270.66163 26.50989,286.44288 31.10739,298.16163 C 35.57739,309.99163 40.90989,317.17038 41.05614,317.00163 C 41.28614,317.04788 28.84489,298.76913 20.88114,255.20663 C 13.19489,211.80913 15.19739,192.32913 14.10114,192.41413 L 14.10114,192.41413 z"
     style="fill:#000000" />
  <path
     d="M 54.63114,246.84788 C 54.59489,246.36913 51.91364,246.56163 48.77114,247.37788 C 48.83489,245.08788 48.80989,243.97913 48.55114,243.95663 C 48.34614,243.93288 48.06364,245.35288 47.78489,247.64788 C 46.55489,248.00913 45.29489,248.46163 44.11739,249.00038 C 42.19864,249.77288 40.25614,250.89538 38.64239,251.97413 C 38.72739,250.59788 38.70239,249.91913 38.47864,249.88413 C 38.27364,249.84538 37.94614,250.94413 37.59489,252.70163 C 35.85864,253.95163 34.72864,255.01163 34.85489,255.18788 C 35.00114,255.43163 35.78239,255.02163 37.31614,254.19913 C 36.73989,257.55038 36.17114,262.35038 36.01739,266.75038 C 35.36489,274.62163 37.40864,284.24538 38.14614,283.95413 C 38.57614,283.81288 36.91114,278.34913 37.56989,266.63788 C 37.89239,260.52663 38.29989,256.25663 38.52239,253.55163 C 40.06989,252.73163 42.13114,251.67163 44.79614,250.49538 C 45.81239,250.07538 46.73489,249.71913 47.59239,249.40663 C 47.13364,253.96663 46.74489,260.68538 46.84239,266.78663 C 46.64239,277.34538 49.22989,290.08038 49.84989,289.88413 C 50.35114,289.76288 48.46364,282.24788 48.38489,266.51538 C 48.38114,258.38538 48.59989,252.66038 48.72239,249.00538 C 52.77989,247.60413 54.70864,247.38413 54.63114,246.84788 L 54.63114,246.84788 z"
     style="fill:#000000" />
  <path
     d="M 44.83364,242.29663 C 38.17114,244.25538 30.94364,249.13038 31.27614,249.61663 C 31.54989,250.09913 35.72864,247.06288 45.44864,243.83038 C 55.19239,240.72663 59.62489,240.21913 59.51114,239.53288 C 59.42614,238.87913 51.37364,240.05038 44.83364,242.29663 L 44.83364,242.29663 z"
     style="fill:#000000" />
  <path
     d="M 66.60114,298.44913 C 66.92989,299.73288 67.34114,301.21788 67.82114,302.83663 C 66.07614,304.89413 64.74739,306.99913 64.14239,308.24913 C 63.13989,305.50038 62.52614,303.68413 62.11114,302.76788 C 63.33614,301.57913 64.82864,300.13663 66.60114,298.44913 z M 61.54489,303.31788 C 61.94239,305.89538 63.68114,312.01413 65.88989,317.12538 C 68.42489,323.92788 74.05239,330.78288 74.52364,330.22163 C 74.87739,329.85788 71.29114,326.16913 67.23114,316.28663 C 66.05614,313.39538 65.13864,310.97413 64.40614,308.97663 C 65.04489,308.25413 66.21739,306.62038 68.30989,304.44038 C 69.66489,308.83038 71.45739,313.95163 73.45614,318.57163 C 77.76489,329.78163 86.40739,341.49913 86.87864,341.02288 C 87.35489,340.64413 81.67614,334.01538 74.75739,317.62413 C 72.36739,311.77413 70.63614,307.05288 69.35239,303.38038 C 70.27989,302.47288 71.34489,301.49663 72.58989,300.46038 C 79.12739,295.32413 82.57239,294.15288 82.28739,293.50038 C 82.06739,292.85788 75.91489,295.50038 71.54489,299.23538 C 70.57114,299.97288 69.64489,300.84163 68.79114,301.75288 C 68.24364,300.15038 67.78989,298.79038 67.41864,297.67288 C 68.98114,296.19288 70.73614,294.55038 72.70864,292.74163 C 82.91614,283.54163 88.10239,280.80788 87.81864,280.26538 C 87.45239,279.47163 78.24364,285.29038 71.54989,291.62288 C 69.98739,293.01913 68.39989,294.54538 66.87614,296.07663 C 66.31489,294.42538 65.98989,293.63413 65.77614,293.71038 C 65.59739,293.75913 65.75864,294.90663 66.18864,296.77413 C 61.34989,301.71538 57.39864,306.47663 57.62114,306.70663 C 57.80364,306.90663 59.05989,305.71913 61.54489,303.31788 L 61.54489,303.31788 z"
     style="fill:#000000" />
  <path
     d="M 92.52614,370.08538 C 100.57239,374.76288 106.96489,376.29538 106.97864,376.15413 C 107.70489,375.17788 90.37739,372.78038 68.93739,347.54538 C 48.72739,321.55038 45.62239,306.29038 44.64489,306.93038 C 43.79614,307.16288 53.54114,332.30913 68.12614,349.04788 C 75.11864,357.55288 84.43739,365.53913 92.52614,370.08538 L 92.52614,370.08538 z"
     style="fill:#000000" />
  <path
     d="M 113.37614,390.29538 C 61.49989,366.22038 48.69739,340.43663 48.20989,341.73038 C 47.86364,341.91163 54.17989,351.92038 66.43739,362.60913 C 78.50739,373.48288 96.29114,384.65038 113.60739,392.19413 C 148.13614,408.37538 194.14489,413.60788 194.06114,413.06163 C 194.47864,411.46663 165.66114,412.13538 113.37614,390.29538 L 113.37614,390.29538 z"
     style="fill:#000000" />
  <path
     d="M 147.54114,369.88913 C 147.40864,369.36663 141.59864,371.45163 129.22989,371.20788 C 116.90114,370.91038 111.58614,369.88413 111.50989,370.57788 C 111.41739,371.22788 121.11489,372.84663 129.41114,372.86788 C 137.74614,373.31288 147.78239,370.59538 147.54114,369.88913 L 147.54114,369.88913 z"
     style="fill:#000000" />
  <path
     d="M 127.84364,376.95788 C 119.21114,376.77913 115.47489,376.18413 115.41239,376.84788 C 115.33114,377.48288 122.14489,378.60288 127.96989,378.61538 C 133.81489,378.87163 140.88989,377.08663 140.72489,376.50038 C 140.60739,375.99788 136.49114,377.08663 127.84364,376.95788 L 127.84364,376.95788 z"
     style="fill:#000000" />
  <path
     d="M 307.70239,373.30788 C 329.03489,364.26413 352.24989,346.94038 351.27614,345.75163 C 351.22239,345.53413 338.14114,357.54038 306.59364,372.00913 C 274.89239,386.15163 259.46489,385.86413 259.68864,386.94538 C 259.74239,388.07538 286.82739,383.72288 307.70239,373.30788 L 307.70239,373.30788 z"
     style="fill:#000000" />
  <path
     d="M 344.89489,360.20413 C 358.84989,349.51413 366.92989,339.63038 366.87614,339.62163 C 366.61989,339.33038 361.60364,345.15288 349.88489,354.76788 C 338.15364,364.20163 319.31114,377.48913 291.04864,387.50663 C 262.71614,397.23788 241.17864,398.84413 227.39864,399.73288 C 213.53489,400.46538 207.05989,400.05038 207.05239,400.52413 C 206.79864,401.33038 254.60614,403.40538 292.43364,388.73788 C 311.32739,382.12163 331.10489,371.09538 344.89489,360.20413 L 344.89489,360.20413 z"
     style="fill:#000000" />
  <path
     d="M 405.79239,301.49163 C 398.31239,316.13663 385.11864,337.89538 360.26489,359.03038 C 335.22114,379.83163 313.80989,389.11288 300.15989,394.91913 C 286.34989,400.57788 279.70364,402.57038 279.82114,402.96538 C 279.71364,403.76163 329.05739,389.15288 362.02864,359.65538 C 378.69739,345.64663 394.09364,326.07163 403.07239,309.05413 C 412.22864,292.11163 416.02739,278.73038 415.92989,278.72788 C 415.60239,278.57913 413.21489,286.64038 405.79239,301.49163 L 405.79239,301.49163 z"
     style="fill:#000000" />
  <path
     d="M 238.11739,20.06788 C 223.58614,18.33413 213.20489,19.38663 213.22864,19.46913 C 212.83864,21.02538 239.41864,15.23413 286.84239,35.50538 C 333.25864,57.71913 347.84364,77.31663 348.68364,75.84913 C 349.41114,75.21163 318.62489,46.75288 286.68114,33.65413 C 271.04114,26.69163 252.66239,21.57163 238.11739,20.06788 L 238.11739,20.06788 z"
     style="fill:#000000" />
  <path
     d="M 373.70239,89.77288 C 374.21114,89.50038 343.59739,55.32413 310.32614,37.47538 C 278.02364,17.45038 232.61364,10.28788 232.70739,11.11038 C 232.65739,11.42038 239.42739,12.45538 252.76989,15.82163 C 266.02239,19.33288 286.07614,25.34163 310.37239,39.37913 C 334.58239,53.55913 349.82114,67.38663 359.53239,76.37913 C 369.19864,85.50413 373.43239,90.06788 373.70239,89.77288 L 373.70239,89.77288 z"
     style="fill:#000000" />
  <path
     d="M 340.79489,43.24163 C 380.59739,72.27288 399.30114,105.02413 409.56239,125.86413 C 419.64989,147.24538 422.22364,158.19788 422.75364,157.97538 C 422.77239,158.04913 417.99489,138.16163 404.39614,113.19038 C 391.18864,88.07788 367.31114,59.60663 340.38989,40.93413 C 313.85364,21.63038 279.79114,8.45663 252.62864,3.61288 C 225.41239,-1.46962 205.68989,0.28788 205.75114,0.31663 C 205.73364,0.80788 217.66239,-0.38337 241.27114,2.91913 C 264.53739,6.47663 300.74364,14.75038 340.79489,43.24163 L 340.79489,43.24163 z"
     style="fill:#000000" />
  <path
     d="M 406.02739,225.95413 C 395.42364,226.50538 391.13989,228.80038 391.29614,229.21038 C 391.44739,229.73788 399.39114,227.61413 406.22239,227.60413 C 413.19989,226.84538 420.85114,230.64913 420.96864,230.62163 C 421.32489,230.55913 416.88364,225.65163 406.02739,225.95413 L 406.02739,225.95413 z"
     style="fill:#000000" />
  <path
     d="M 413.31239,219.47913 C 403.13614,220.22913 398.95864,222.13038 399.09864,222.59413 C 399.24489,223.13663 406.94489,221.34913 413.54364,221.12538 C 420.20739,220.33413 427.96739,222.72663 428.10239,222.60413 C 428.37614,222.38038 423.63989,218.88413 413.31239,219.47913 L 413.31239,219.47913 z"
     style="fill:#000000" />
  <path
     d="M 400.34364,245.06038 C 394.78989,245.06038 390.27989,243.22413 390.27989,240.96413 C 390.27989,238.70288 394.78989,236.87163 400.34364,236.87163 C 405.89989,236.87163 410.40739,238.70288 410.40739,240.96413 C 410.40739,243.22413 405.89989,245.06038 400.34364,245.06038 z M 369.00864,184.76538 C 366.71614,189.98038 363.34614,193.44913 361.48114,192.50913 C 359.62114,191.56913 359.96739,186.57913 362.25989,181.36163 C 364.55239,176.14413 367.92114,172.67788 369.78489,173.62038 C 371.64739,174.55788 371.29864,179.54788 369.00864,184.76538 z M 379.40114,231.01788 C 376.69614,228.71288 371.16864,230.07788 364.16614,231.80663 C 358.31739,233.24913 351.69114,234.88413 345.06989,234.88413 C 332.88239,234.88413 321.56114,226.50538 309.57739,217.63413 C 308.94739,217.16788 308.31739,216.70163 307.68989,216.23788 C 293.22864,190.64663 298.56864,161.57663 307.55739,144.43538 C 314.43739,131.31288 323.92239,123.47663 332.93614,123.47663 C 357.98489,123.47663 368.95739,148.66163 373.26864,163.67163 C 373.56114,164.69163 373.90364,165.86163 374.28864,167.13038 C 369.86489,164.92913 361.11489,174.90413 354.72864,189.43038 C 348.33614,203.97663 346.73989,217.57288 351.15364,219.79913 C 355.57239,222.02788 364.33739,212.04288 370.72864,197.50163 C 374.50864,188.89538 376.59864,180.64163 376.76989,174.85538 C 380.28489,185.14163 385.25614,196.94788 389.87489,198.17538 C 390.63614,198.37788 391.72489,198.39538 392.83864,197.49913 C 391.92114,209.95788 385.06489,226.93288 380.73364,233.18538 C 380.46614,232.29663 380.03614,231.55913 379.40114,231.01788 z M 378.61489,239.15663 C 377.03239,240.70038 376.12989,242.46288 376.12989,244.33288 C 376.12989,244.34538 376.13489,244.35788 376.13489,244.37163 C 367.00114,259.19913 339.17614,278.52788 307.80239,278.52788 C 278.87864,278.52788 261.34489,265.89788 254.99739,261.10538 C 255.82239,259.84538 256.41239,258.42038 256.71614,256.84788 C 257.75114,251.50288 255.51989,245.10413 250.89489,240.15038 C 248.31739,237.39163 244.94364,235.77288 241.54489,234.83538 C 241.85239,229.22538 244.74739,201.47413 271.83239,201.47413 C 283.92239,201.47413 295.40239,209.45038 306.51489,217.64788 C 306.51989,217.64788 306.52239,217.65288 306.52739,217.65538 C 307.21364,218.16163 307.89739,218.66913 308.58114,219.17413 C 320.25989,227.81913 332.33614,236.75913 345.06989,236.75913 C 351.88614,236.75913 358.61989,235.09913 364.55739,233.63413 C 370.84114,232.08163 376.26864,230.74413 378.31239,232.48788 C 378.97364,233.04913 379.29614,233.98913 379.29614,235.35788 C 379.29614,236.53038 379.04989,237.80913 378.61489,239.15663 z M 251.76739,269.10163 C 252.11364,266.99413 252.02114,265.35288 251.93489,264.56038 L 253.14114,263.28288 C 253.39489,263.04913 253.63489,262.80038 253.86364,262.54538 C 256.21739,264.32538 260.16739,267.23788 265.71489,270.20163 L 251.76739,269.10163 z M 220.17239,273.76413 C 220.28739,274.26663 220.75864,274.57663 221.22989,274.45538 C 221.41739,274.40663 240.24614,269.52038 249.51364,265.59288 C 249.76739,265.48538 249.99739,265.35788 250.23614,265.23663 C 250.36364,267.04788 250.24614,271.54538 246.93989,276.20788 C 246.92989,276.21788 246.92114,276.22288 246.91364,276.23288 C 246.90364,276.24163 246.90114,276.25663 246.89614,276.26913 C 246.40364,276.96038 245.85614,277.64788 245.21614,278.33663 C 236.04114,288.16413 213.54114,288.73538 213.31739,288.73913 C 212.83364,288.74913 212.44739,289.17663 212.45739,289.69413 C 212.46739,290.21163 212.86739,290.62413 213.35114,290.61413 C 214.16614,290.59788 230.85614,290.16788 241.68114,283.48538 C 241.14489,293.26913 235.88739,293.96413 227.45489,295.04788 C 225.94114,295.24413 224.37614,295.44663 222.73364,295.71538 C 211.72239,297.53163 195.84114,295.27288 195.67989,295.25038 C 195.20239,295.18038 194.76239,295.53913 194.69864,296.05163 C 194.63489,296.56413 194.96739,297.03788 195.44614,297.10663 C 196.10739,297.20413 211.73489,299.42538 222.99989,297.57038 C 223.07239,297.55538 223.14114,297.54788 223.21489,297.53663 C 219.42614,302.79788 208.48989,304.89913 191.29364,303.60038 C 175.70989,302.42413 171.77614,300.93663 164.98239,293.65913 C 159.11739,287.37538 149.95239,272.86288 149.45989,261.75788 C 149.45989,261.71538 149.45739,261.67663 149.45489,261.63788 C 149.36739,259.31538 149.64739,257.14538 150.43114,255.23413 C 155.51989,242.85163 168.09989,223.00538 181.92364,219.08413 L 187.26489,217.54038 C 192.03239,216.14913 196.01239,214.99163 199.56739,214.30163 C 199.57239,214.29913 199.57739,214.29913 199.58239,214.29913 C 204.60614,213.32163 208.76614,213.28288 213.04364,214.88413 C 221.08614,217.90288 227.54364,228.48288 226.45489,234.12288 C 220.75864,229.49913 213.02864,226.08163 212.86364,226.64288 C 212.66239,227.14288 217.55239,229.14038 226.00739,235.85413 L 225.95864,236.02288 L 226.17864,235.98788 C 226.24239,236.03663 226.29614,236.07913 226.35614,236.12788 C 235.13364,243.05413 236.84739,247.91663 237.50614,247.48288 C 238.17114,247.15538 233.97864,240.22663 228.45364,235.70038 C 230.53864,235.51913 235.20739,235.31163 239.95239,236.38913 C 240.11364,236.60788 240.35364,236.75913 240.63364,236.75913 C 240.77364,236.75913 240.90489,236.71538 241.02239,236.65288 C 244.19864,237.50663 247.32864,238.98163 249.65489,241.47663 C 253.86864,245.99038 255.91989,251.73538 255.00114,256.46663 C 254.68864,258.08288 254.03489,259.50163 253.09239,260.70538 L 251.90614,261.95538 C 251.04614,262.71413 250.03614,263.35663 248.86864,263.84913 C 239.71864,267.72913 221.00739,272.58538 220.81989,272.63413 C 220.34864,272.75538 220.05989,273.26163 220.17239,273.76413 z M 256.65989,292.46288 C 256.65989,296.29038 251.33989,303.27288 225.98989,314.81663 C 212.08614,321.14663 193.29989,319.26913 183.81989,315.30038 L 183.81739,315.30038 L 183.81489,315.30038 C 181.58364,314.36663 179.86489,313.31788 178.85239,312.22788 C 173.96114,306.99413 176.36864,304.14788 176.47614,304.02788 L 176.46614,304.03538 C 176.61489,303.87413 176.68614,303.67163 176.70614,303.46413 C 180.36739,304.47413 184.86739,304.99413 191.16864,305.47038 C 210.63614,306.94038 222.15489,304.14788 225.47989,297.19913 C 226.22239,297.09663 226.94989,297.00163 227.66489,296.91163 C 236.38364,295.78788 243.28989,294.88913 243.47364,282.28663 C 244.55739,281.49163 245.55864,280.61913 246.45239,279.66538 C 246.91364,279.16913 247.33114,278.67413 247.71864,278.17538 C 249.89489,280.22663 256.65989,287.03038 256.65989,292.46288 z M 268.26364,294.75288 C 259.58364,315.46038 260.30739,346.27663 270.11364,370.81788 C 262.10114,373.13663 253.59239,375.04038 244.56239,376.40288 C 238.30739,364.75538 235.76864,328.73538 241.64739,309.01288 C 250.27239,304.11788 255.52364,299.76288 257.49489,295.87163 C 260.98614,295.47538 264.58614,295.10163 268.26364,294.75288 z M 270.24864,294.56788 C 315.12864,290.45413 370.21364,289.83163 374.86989,292.89788 C 372.58489,297.10913 341.47614,349.46913 271.81614,370.32413 C 261.94489,345.81788 261.30114,314.88663 270.24864,294.56788 z M 182.75114,373.97663 C 181.11989,372.23038 177.58239,360.16288 177.96614,345.18788 C 178.00989,345.02913 178.02364,344.86538 177.98489,344.70413 C 178.25364,336.05163 179.84989,326.46913 183.87114,317.35538 C 194.24489,321.46913 213.01989,322.76038 226.67614,316.54038 C 231.51489,314.33788 235.75864,312.23288 239.47739,310.21663 C 234.07864,330.70038 236.63239,364.30913 242.69739,376.67913 C 204.85489,382.11163 185.69489,377.13288 182.75114,373.97663 z M 125.01364,362.31663 C 154.52864,350.31663 165.25114,332.41913 167.61114,327.78288 C 168.93739,328.75163 170.12364,329.42038 170.99239,329.70413 C 172.64364,330.42413 173.49239,329.12538 171.60114,327.90663 C 168.62489,326.20788 163.26364,321.69413 160.05489,316.35413 C 159.70364,315.82663 159.39114,315.29788 159.09864,314.76788 C 159.10364,314.75038 159.11489,314.73788 159.11739,314.71913 C 159.19614,314.26163 158.93739,313.84038 158.54614,313.68788 C 156.47614,309.36413 156.28114,305.43663 155.99239,305.46538 C 155.72239,305.35788 155.43114,309.05663 156.84739,313.40538 C 150.08739,312.58038 122.63614,310.80288 98.70239,331.62788 C 103.24864,287.63663 140.79989,266.66163 147.80489,263.11663 C 148.90364,274.62538 157.73614,288.54663 163.74739,294.98538 C 167.61614,299.13038 170.78239,301.48163 175.04614,302.95163 C 174.36239,303.92038 172.25739,307.81913 177.61364,313.55663 C 178.65864,314.67538 180.25114,315.71913 182.24739,316.65538 C 178.27864,325.71538 176.63739,335.48038 176.33989,344.41538 C 173.88864,346.43038 152.92614,362.92663 125.01364,362.31663 z M 143.56114,247.94163 L 143.63989,247.46038 L 143.42989,247.23538 C 143.45864,247.19413 143.48864,247.15538 143.50239,247.10163 C 143.97614,243.54663 146.42739,233.75163 146.85239,233.77663 C 145.68989,233.07788 142.55239,242.09163 142.24739,245.93913 C 134.66489,237.44288 133.56614,231.20288 148.58614,210.74913 C 158.72739,196.94038 171.47364,197.87788 176.48364,198.92288 C 182.73364,200.22413 188.00239,203.76163 190.00114,207.81913 C 187.57989,206.90413 183.25614,206.65288 179.68489,207.73913 C 175.62614,208.67163 173.11739,211.53038 173.31739,211.63788 C 173.50489,211.82788 176.33489,209.48913 180.38739,208.94663 C 184.32739,208.12663 188.76864,208.80788 190.38239,209.41538 C 190.45114,209.43038 190.52364,209.40413 190.59739,209.36288 C 190.60239,209.36913 190.60739,209.37913 190.60739,209.38663 L 190.79239,210.06538 L 191.44739,210.06538 C 193.00989,210.06538 195.52614,211.60288 197.31114,212.87788 C 194.14739,213.59288 190.70489,214.59163 186.80614,215.73163 L 181.47614,217.27288 C 165.92989,221.68163 153.32239,243.53663 148.82989,254.47913 C 148.00489,256.48913 147.66739,258.73288 147.69739,261.10538 C 147.50864,261.19788 147.27739,261.31288 146.99864,261.45163 C 145.83239,260.69288 141.99864,257.41913 143.56114,247.94163 z M 204.93364,211.77163 C 203.25364,211.83288 201.51739,212.04788 199.69364,212.38288 C 198.55614,211.46663 194.85989,208.64413 192.08239,208.23913 C 190.32614,203.14913 184.17864,198.61538 176.81864,197.08163 C 171.49364,195.97413 157.94864,194.97038 147.20864,209.59163 C 146.37864,210.72413 145.59739,211.81288 144.85489,212.87038 C 145.31864,202.46538 148.28739,195.19288 153.70489,191.24663 C 162.50614,184.83788 175.07989,189.07413 180.07739,191.19288 C 192.47489,196.45163 201.85739,207.73413 204.93364,211.77163 z M 141.45739,251.57913 C 134.97489,252.21163 91.07614,257.60413 64.85364,289.00038 C 60.71864,280.79288 60.86864,268.90288 65.32739,254.47413 C 74.06364,226.21788 100.00114,189.78663 128.28739,177.73163 C 128.60489,177.59413 128.81989,177.27288 128.83739,176.90663 C 128.85364,176.54038 128.67364,176.19788 128.36614,176.02788 C 110.52364,166.06663 84.76489,167.96288 70.99489,169.98288 C 59.95239,171.60163 49.79114,174.22038 42.52114,176.85288 C 44.03739,171.13038 45.02864,168.59538 44.64239,168.43413 C 44.22989,168.22663 42.58989,172.13538 40.97864,177.42413 C 38.84239,178.24413 37.00864,179.05663 35.52864,179.83288 C 35.66864,179.17413 35.78239,178.62038 35.88114,178.14163 C 61.93739,125.69788 103.23864,107.65038 164.96739,94.67288 C 165.25114,94.61413 165.48989,94.40913 165.60239,94.12288 C 165.71489,93.84038 165.68989,93.51288 165.53614,93.25163 C 159.48364,83.02788 136.70864,79.29913 116.20239,78.07788 C 121.67114,73.49038 124.47489,71.72538 124.22739,71.33538 C 124.00114,70.90538 119.69364,73.65913 114.25489,77.96788 C 110.25614,77.75788 106.36864,77.64163 102.73364,77.58913 C 107.34489,72.27288 109.56239,69.85788 109.29864,69.57913 C 109.07864,69.33038 105.69489,72.60913 101.09739,77.56538 C 97.24739,77.52413 93.71989,77.54788 90.70489,77.60413 C 91.97489,76.07413 92.54864,75.30038 92.39864,75.14788 C 92.28489,75.02163 91.25614,75.93913 89.60864,77.62663 C 86.43739,77.69288 83.91239,77.78788 82.27239,77.86038 C 119.08364,32.55288 209.85489,24.30163 254.67989,38.93788 L 259.77989,40.59788 C 279.46239,47.00163 295.56864,52.25038 310.75864,60.58038 C 300.65614,66.72788 282.57489,83.82788 277.90739,111.69413 C 277.82114,112.20413 278.13864,112.69038 278.61489,112.78288 C 279.08864,112.87538 279.54489,112.53413 279.63114,112.02538 C 279.64489,111.92788 279.66739,111.83288 279.68489,111.73538 C 285.83614,75.81788 313.46864,59.87038 316.90114,59.87038 C 320.13364,59.87038 343.17989,82.12038 349.38114,102.23038 C 349.40114,102.28663 349.42114,102.34288 349.43739,102.40163 C 349.58614,102.89288 350.07989,103.16413 350.53864,103.00288 C 350.99739,102.84163 351.25114,102.31413 351.10239,101.82038 C 349.35489,96.07163 346.07614,89.90288 342.20864,84.05913 C 349.55239,91.17913 357.11614,99.70663 365.19739,110.13913 C 399.74239,154.71913 398.24864,185.32663 393.21489,194.15913 C 393.12239,194.25538 393.05364,194.36663 393.00989,194.49413 C 392.71614,194.95788 392.42114,195.37038 392.11864,195.69538 C 391.34989,196.52038 390.70989,196.46663 390.29739,196.35663 C 386.41739,195.32413 380.53114,182.59038 374.94114,163.11913 C 370.48739,147.61413 359.10864,121.60163 332.93614,121.60163 C 323.28239,121.60163 313.22489,129.79413 306.03239,143.51538 C 297.20364,160.35288 291.82239,188.42038 304.42364,213.84913 C 294.04489,206.34038 283.30739,199.59913 271.83239,199.59913 C 247.38489,199.59913 240.27239,221.59913 239.78989,234.41163 C 234.97239,233.40038 230.38739,233.63038 228.27864,233.82788 C 228.89864,227.27788 222.29114,216.36663 213.62239,213.11663 C 211.48614,212.31663 209.36739,211.90913 207.18614,211.79413 C 205.47989,209.38163 195.28489,195.62663 180.71989,189.45038 C 169.61114,184.73788 159.40614,184.82913 152.72114,189.69413 C 146.34489,194.33788 143.09239,203.02913 143.03864,215.51913 C 131.97489,232.06288 133.20489,238.80038 141.77364,248.10788 C 141.58864,249.35538 141.48114,250.51413 141.45739,251.57913 z M 49.32739,236.15663 C 48.78114,236.41788 48.22864,236.68163 47.77989,236.88163 C 47.01364,205.48538 78.34864,173.45163 81.10489,170.70288 C 96.86739,169.42538 113.47364,170.58038 125.86114,176.79413 C 104.80614,186.54538 85.22364,209.25288 73.09239,231.84788 C 63.54114,229.36663 53.97614,233.93038 49.32739,236.15663 z M 38.12239,189.26413 C 38.10239,189.36413 38.08239,189.46538 38.06364,189.56788 C 37.18864,189.82663 36.31739,190.09663 35.46989,190.38788 C 34.79114,190.57788 34.11364,190.80538 33.43489,191.04413 C 34.00989,187.36788 34.57239,184.43288 35.03614,182.17538 C 36.33489,181.36413 38.13614,180.48788 40.33864,179.59163 C 39.47489,182.65538 38.66614,186.02288 38.12239,189.26413 z M 36.96989,196.65663 C 36.34989,196.86038 35.72864,197.06538 35.12864,197.27288 C 34.24989,197.57038 33.34114,197.90038 32.44364,198.24163 C 32.67239,196.34413 32.90989,194.56788 33.15114,192.93413 C 34.08864,192.59413 35.06489,192.25288 36.11239,191.90913 C 36.67114,191.73288 37.19864,191.56913 37.72864,191.40788 C 37.43364,193.14163 37.18239,194.91413 36.96989,196.65663 z M 104.19114,86.75538 C 101.14489,86.55663 98.01989,86.56163 94.97489,86.70413 C 97.29114,83.92538 99.33239,81.52788 101.09114,79.48663 C 104.51614,79.52538 108.19989,79.62038 112.00614,79.78913 C 109.46239,81.89288 106.76989,84.26163 104.19114,86.75538 z M 92.85364,86.82663 C 88.90364,87.09413 85.15364,87.57288 81.93989,88.11413 C 84.96739,84.39913 87.35239,81.58538 89.07864,79.53788 C 91.98364,79.47913 95.47239,79.44288 99.34739,79.47038 C 97.30614,81.71163 95.09489,84.20663 92.85364,86.82663 z M 397.41364,233.28788 C 390.70489,233.28788 384.72864,234.90413 380.82739,237.42163 C 380.93239,236.85038 380.99739,236.29288 381.01739,235.75913 C 386.23739,229.81163 394.58614,208.45913 394.68864,195.08038 C 399.89489,185.44913 401.41989,153.94663 366.54489,108.94038 C 356.20739,95.60288 346.60364,85.30163 337.20364,77.07913 C 328.88364,66.29538 319.71864,57.99538 316.90114,57.99538 C 316.04114,57.99538 314.50864,58.53038 312.54114,59.57038 C 296.64239,50.63413 280.05239,45.23413 260.28989,38.80288 L 255.18989,37.14288 C 231.38364,29.37163 196.46364,28.24913 164.05489,34.21288 C 126.08614,41.20288 96.09989,56.86038 79.62114,78.30038 C 79.40114,78.58788 79.35739,78.99038 79.51364,79.32038 C 79.66989,79.65288 79.99739,79.85288 80.34364,79.83288 C 80.47989,79.82663 83.27364,79.67538 87.75864,79.56788 C 85.59239,81.88413 82.83864,84.96913 79.84114,88.49163 C 74.93614,89.42913 71.74489,90.44413 71.87614,90.84663 C 71.91614,91.13913 74.21114,90.41413 78.84989,89.66288 C 74.63989,94.66288 70.05489,100.42413 66.02739,106.06913 C 54.48864,120.93163 44.84489,142.35038 45.61989,142.66538 C 46.16864,142.97288 50.90489,129.45788 67.51114,106.72288 C 72.80489,99.58663 77.29114,93.86163 80.93864,89.35038 C 83.77614,88.95413 87.28989,88.59288 91.49864,88.41538 C 89.26989,91.05413 87.03989,93.78413 84.94989,96.47413 C 74.36239,109.43538 63.95489,127.40163 64.46239,127.70663 C 64.95239,128.04663 70.88489,116.95288 86.37864,97.22663 C 89.01989,93.92288 91.41739,90.98788 93.60989,88.34413 C 96.31989,88.27538 99.28614,88.28663 102.51864,88.40788 C 101.82739,89.10538 101.14864,89.81288 100.48739,90.51913 C 90.25114,100.38788 81.29114,115.83163 82.01614,116.21038 C 82.48739,116.55163 87.02864,106.66413 101.79614,91.46913 C 102.81864,90.42913 103.80489,89.44788 104.76239,88.50913 C 105.51739,88.54663 106.28114,88.59288 107.06239,88.64413 C 130.71989,90.55288 140.54364,94.48663 140.71989,93.63288 C 140.95114,92.85538 122.68239,87.71913 106.77364,86.97163 C 106.64739,86.95913 106.51489,86.94788 106.38364,86.93538 C 109.28364,84.14288 111.85739,81.81413 114.07614,79.88913 C 133.89364,80.91288 156.36364,84.13038 163.27864,93.12163 C 126.72489,100.89788 101.56614,110.04538 81.84989,122.72163 C 59.98614,136.77663 44.09614,155.76663 31.84239,182.48288 C 31.65239,182.89288 31.77114,183.39038 32.12114,183.65913 C 32.46739,183.92288 32.94614,183.88413 33.24614,183.55663 C 33.36614,183.42913 33.51239,183.29538 33.66864,183.16163 C 33.05364,185.60788 32.41114,188.52288 31.84739,191.64288 C 25.08489,194.33788 18.92239,198.66913 19.25489,199.12288 C 19.50364,199.54288 23.14114,196.75038 31.51489,193.54163 C 31.22739,195.30038 30.96364,197.10163 30.75364,198.90288 C 27.42864,200.24413 24.64489,201.59663 24.75489,201.92038 C 24.85739,202.23038 26.78364,201.75038 30.57739,200.52413 C 30.50739,201.25413 30.44114,201.97913 30.38739,202.70163 C 28.81489,215.30038 31.97239,230.58288 32.62364,230.33913 C 33.29739,230.23163 30.39489,221.22038 31.95489,202.55538 C 32.04739,201.66663 32.13989,200.82163 32.23864,199.98288 C 33.28739,199.63538 34.43989,199.24538 35.71489,198.81038 C 36.07614,198.68663 36.42239,198.56663 36.76489,198.44913 C 36.00739,205.49038 35.90739,211.56413 36.20239,211.57413 C 36.63239,211.61288 36.91114,207.01413 38.27364,197.93163 C 43.67364,196.05913 46.02739,195.12663 45.87614,194.61163 C 45.74364,194.15913 42.30614,195.00163 38.54364,196.15913 C 38.79614,194.53538 39.08364,192.78038 39.41114,190.90288 C 48.79864,188.11663 53.11614,187.58788 53.01239,186.95538 C 52.94614,186.41288 46.40739,187.28038 39.73364,189.09413 C 40.51739,185.06038 41.28614,181.71038 41.97864,178.94663 C 50.49239,175.72913 63.91614,172.38288 78.31239,170.95413 C 70.97864,178.59038 44.52614,208.29788 46.05364,238.19538 L 46.09989,239.07913 L 46.92739,239.07913 C 47.48739,239.07913 48.24114,238.73288 50.04114,237.86788 C 54.42989,235.76913 63.37864,231.49913 72.19114,233.55163 C 68.57614,240.50038 65.66989,247.40413 63.66614,253.88413 C 58.83489,269.51413 58.93239,282.38413 63.95114,291.10038 C 64.09614,291.35413 64.34739,291.51788 64.62364,291.54288 C 64.90114,291.56413 65.17114,291.44663 65.35739,291.22288 C 90.89489,259.65038 134.70864,254.13288 141.48614,253.45913 C 141.79364,258.48288 143.81739,261.13288 145.23614,262.38413 C 134.70864,268.13913 100.07739,290.25538 96.75989,333.70788 L 96.58364,335.98288 L 98.19989,334.49413 C 123.48114,311.22288 153.46864,314.77288 157.61364,315.39788 C 157.98989,316.25163 158.42989,317.11413 158.96114,317.96038 C 160.84864,321.45663 163.62989,324.51413 166.17864,326.65288 C 164.09864,330.71538 152.62364,350.33663 120.31364,362.14538 L 120.52864,363.96913 C 148.60489,366.37413 170.67114,351.10288 176.29114,346.78413 C 176.17364,361.24663 179.42614,373.06288 181.51239,375.30413 C 184.13989,378.11663 201.29614,384.71663 244.21989,378.35663 C 253.82989,376.93038 262.84864,374.87038 271.30114,372.35288 C 271.41489,372.35038 271.52989,372.32663 271.64239,372.27288 C 271.66239,372.26538 271.67114,372.24788 271.68614,372.23788 C 304.38614,362.43413 328.42989,345.74913 343.90739,332.05788 C 364.66239,313.70288 375.94614,295.53413 376.66614,293.22413 C 376.80864,292.76538 376.71989,292.27538 376.42489,291.88163 C 372.87989,287.15788 311.15864,289.00038 269.70864,292.75288 C 269.68489,292.75038 269.66489,292.76038 269.64239,292.76038 C 265.62239,293.12163 261.79364,293.50538 258.22739,293.90288 C 258.33614,293.41538 258.40989,292.93413 258.40989,292.46288 C 258.40989,286.12288 251.04364,278.78163 248.79114,276.68163 C 250.09989,274.67538 250.88989,272.71413 251.36114,270.94913 L 267.12614,272.19413 C 267.58489,272.23038 269.36989,272.19413 270.11114,272.38913 C 279.12489,276.68663 290.61989,280.40288 307.80239,280.40288 C 338.66364,280.40288 366.17364,261.80913 376.60114,246.63288 C 378.64489,251.62788 387.18489,255.37538 397.41364,255.37538 C 409.17114,255.37538 418.70239,250.43163 418.70239,244.33288 C 418.70239,238.23413 409.17114,233.28788 397.41364,233.28788 L 397.41364,233.28788 z"
     style="fill:#000000" />
</svg>
