<?xml version="1.0" encoding="UTF-8" standalone="no"?>
<!-- Generator: Adobe Illustrator 23.0.3, SVG Export Plug-In . SVG Version: 6.00 Build 0)  -->

<svg
   xmlns:dc="http://purl.org/dc/elements/1.1/"
   xmlns:cc="http://creativecommons.org/ns#"
   xmlns:rdf="http://www.w3.org/1999/02/22-rdf-syntax-ns#"
   xmlns:svg="http://www.w3.org/2000/svg"
   xmlns="http://www.w3.org/2000/svg"
   xmlns:sodipodi="http://sodipodi.sourceforge.net/DTD/sodipodi-0.dtd"
   xmlns:inkscape="http://www.inkscape.org/namespaces/inkscape"
   version="1.1"
   x="0px"
   y="0px"
   viewBox="0 0 165.68214 271.70425"
   xml:space="preserve"
   id="svg559"
   sodipodi:docname="sonic3.svg"
   width="165.68214"
   height="271.70425"
   inkscape:version="0.92.4 (5da689c313, 2019-01-14)"><metadata
   id="metadata565"><rdf:RDF><cc:Work
       rdf:about=""><dc:format>image/svg+xml</dc:format><dc:type
         rdf:resource="http://purl.org/dc/dcmitype/StillImage" /><dc:title></dc:title></cc:Work></rdf:RDF></metadata><defs
   id="defs563" /><sodipodi:namedview
   pagecolor="#ffffff"
   bordercolor="#666666"
   borderopacity="1"
   objecttolerance="10"
   gridtolerance="10"
   guidetolerance="10"
   inkscape:pageopacity="0"
   inkscape:pageshadow="2"
   inkscape:window-width="756"
   inkscape:window-height="480"
   id="namedview561"
   showgrid="false"
   fit-margin-top="0"
   fit-margin-left="0"
   fit-margin-right="0"
   fit-margin-bottom="0"
   inkscape:zoom="0.78666667"
   inkscape:cx="81.506897"
   inkscape:cy="135.30722"
   inkscape:window-x="0"
   inkscape:window-y="0"
   inkscape:window-maximized="0"
   inkscape:current-layer="svg559" />
<style
   type="text/css"
   id="style2">
	.st0{fill:#FFFFFF;}
	.st1{fill:#315BBD;}
	.st2{fill:#CF2623;}
	.st3{fill:#D3ADBE;}
	.st4{fill:#F5BFA7;}
	.st5{fill:#B1B3E8;}
	.st6{fill:#CC9F9D;}
	.st7{fill:#F3C3A8;}
	.st8{fill:#F7F7F8;}
	.st9{fill:#F5C1A5;}
	.st10{fill:#EB9978;}
	.st11{fill:#5C0308;}
	.st12{fill:#17359E;}
	.st13{fill:#F5C1A3;}
	.st14{fill:#E3D0CB;}
	.st15{fill:#FDDA6E;}
	.st16{fill:#E8D3C9;}
	.st17{fill:#FFF4F9;}
	.st18{fill:#FBBEA1;}
	.st19{fill:#EDCAC7;}
	.st20{fill:#A47A8B;}
	.st21{fill:#18349E;}
	.st22{fill:#FBF8F7;}
	.st23{fill:#FBE6C7;}
	.st24{fill:#DEC5D1;}
	.st25{fill:#F1F4F4;}
	.st26{fill:#17349E;}
	.st27{fill:#A5BEFF;}
	.st28{fill:#061F6A;}
	.st29{fill:#FFE2C6;}
	.st30{fill:#270E12;}
	.st31{fill:#E0B6BE;}
	.st32{fill:#FFE1B9;}
	.st33{fill:#E5967D;}
	.st34{fill:#FBFFE3;}
	.st35{fill:#F08B45;}
	.st36{fill:#FFF9FD;}
	.st37{fill:#E65C3E;}
	.st38{fill:#EDB296;}
	.st39{fill:#F3B1A4;}
	.st40{fill:#B01F1D;}
	.st41{fill:#F1D5D1;}
	.st42{fill:#C9AEB9;}
	.st43{fill:#DF5035;}
	.st44{fill:#F1BF8E;}
	.st45{fill:none;stroke:#000000;stroke-miterlimit:10;}
	.st46{fill:#9ED47A;}
	.st47{fill:#194E2E;}
</style>
<g
   id="Слой_8"
   transform="translate(-68.493103,-13.602954)">
	<g
   id="g8">
		<g
   id="g6">
			
		</g>
	</g>
</g>
<g
   id="Слой_7"
   transform="translate(-68.493103,-13.602954)">
	<path
   class="st1"
   d="m 230.2,106.3 c -10.6,-1.6 -29.5,2.2 -29.5,2.2 -0.2,0 -0.4,0 -0.6,0 -17.9,0.4 -32.3,6.5 -32.3,6.5 9.3,0.9 20.7,14.1 20.7,14.1 l -18.6,4.6 c 10.7,13.5 10.7,19.9 10.7,19.9 -6.7,-2.4 -28.9,-1.6 -28.9,-1.6 l -5.7,2.5 -2.1,2.5 c 8.1,9.7 34.1,13.1 34.1,13.1 0,0 -2,1.5 -12.7,1 -10.7,-0.4 -28.3,-6.6 -28.3,-6.6 l -1.4,0.9 c -0.5,3.4 4.9,8 4.9,8 13.6,-0.3 22.4,3.2 22.4,3.2 5.6,9.4 4.2,20.8 4.3,21.1 0.1,0.3 1,-0.3 1,-0.3 l 3.2,5.2 4.9,4.7 -1.6,0.8 c 17.5,1.9 26.1,13.8 26.1,13.8 0,0 -1.6,20.3 -4,28.7 -2.4,8.4 -7.9,27.8 -15.9,32.4 -7.9,4.7 -10.5,-1.2 -10.5,-1.2 -6.8,-3.3 -7.2,-8.4 -8.6,-14.2 -1.4,-5.8 1.6,-20.1 1.6,-20.1 l -0.9,-6.5 c 0,0 -1.4,9.3 -8.7,12.4 -7.3,3.1 -10,-1.4 -10,-1.4 -11,-4.7 -8.6,-22.6 -8.6,-22.6 -3.3,0 -2.6,-4.4 -2.6,-4.4 -3.3,-8.4 -2.6,-11.4 -2.6,-11.4 l -4.7,-7 c 0,0 -4.9,-1.2 -9.6,-3.3 -4.7,-2.1 -4.4,-4.7 -4.4,-4.7 0,0 -3.7,-1.2 -7.7,-1.9 -4,-0.7 -3.5,-4.4 -3.5,-4.4 0.2,-9.8 2.8,-16.3 2.8,-16.3 l -3,-3 c 0,0 -2.6,0.7 -5.8,-4 -3.2,-4.7 -5.6,-11.4 -5.6,-11.4 L 87,156 l -1.2,-4.2 -1.6,-2.7 -0.3,-5.1 -1.1,-4.5 c 0.5,-1.6 4.4,-4.5 4.4,-4.5 l 5.9,-6.3 c 1.9,-2.7 5.2,-1.1 5.2,-1.1 l 4.1,5.1 c 2.1,-2.6 5.8,-3.7 7.7,-0.5 1.9,3.2 -0.8,6.3 -0.8,6.3 2.7,2.1 2.7,5.6 2.7,5.6 4.4,0 7.7,5.1 7.7,5.1 l 2.7,-2.1 c -0.3,-9.6 4,-16.3 4,-16.3 0,0 -8,1 -15.8,-1.8 -7.8,-2.7 -11.4,-8.8 -11.4,-8.8 0,0 -8.9,1.6 -8.9,0 0,-1.6 8.5,-1.9 8.5,-1.9 l 0.3,-3 -2.7,-2.6 C 90.4,109.8 84.3,99.1 83.9,96.4 83.5,93.7 86.4,89.3 86.4,89.3 75.2,82.7 69.2,76.4 69.2,76.4 73.4,72.4 93,67 93,67 l 1.3,-2.2 -8.9,-18.6 c 7.3,-1.7 18.8,1.8 18.8,1.8 0,0 30.5,-36.9 72.7,-33.7 0,0 -5.5,9.6 -7.3,15.8 0,0 8.4,-2.2 10.8,-1.7 l -4.5,12 4.5,-0.1 2.1,-13.4 c 0,0 -0.3,-6.4 3.6,-9.1 3.9,-2.7 9.6,-1.7 10.4,1.9 0.8,3.6 -4.8,19.7 -4.8,19.7 l 20.7,1.5 c 0,0 6.4,-6.7 10,-3.7 3.6,3 0.1,12.9 -5.8,15.4 l -9.1,9.3 c 0,0 5,-0.5 8.7,-2.2 3.7,-1.7 9.9,-1.5 10.7,3.2 0.8,4.7 -7.1,7.5 -10.8,8.1 -3.7,0.6 -5.3,1 -5.3,1 0,0 15.4,5 22.4,11 l -19.8,7.2 c 0,0.1 13.5,9.4 16.8,16.1 z"
   id="path11"
   inkscape:connector-curvature="0"
   style="fill:#315bbd" />
	<g
   id="g17">
		<path
   class="st0"
   d="m 99.5,172.4 c -0.8,0 -2.6,-0.6 -4.9,-3.8 -1.3,-1.9 -2.5,-4.2 -3.4,-6.2 1.1,2.2 2.8,3.9 4.5,5.6 1.4,1.3 2.8,2.7 3.8,4.4 z m -8.7,-10.8 c -1.1,-2.4 -1.7,-4.3 -1.7,-4.3 v -0.1 l -1.6,-1.4 -1.1,-4.1 -1.6,-2.6 -0.3,-5 -1.1,-4.5 c 0.5,-1.3 3.2,-3.4 4.2,-4.2 l 6,-6.4 c 0.7,-1 1.6,-1.4 2.7,-1.4 0.9,0 1.6,0.3 1.9,0.4 l 4.4,5.5 0.4,-0.5 c 1.1,-1.4 2.7,-2.3 4.1,-2.3 1.1,0 2.1,0.6 2.8,1.7 1.7,2.8 -0.7,5.6 -0.8,5.7 l -0.4,0.4 0.4,0.3 c 2.5,1.9 2.5,5.2 2.5,5.2 v 0.5 h 0.5 c 4.1,0 7.2,4.8 7.3,4.9 l 0.3,0.5 h 0.1 c 0.2,0.7 0.4,1.3 0.5,2 0.1,0.8 0.1,1.3 0,1.5 -0.1,0.1 -0.3,0.1 -0.5,0.1 -0.2,0 -0.4,0 -0.6,-0.1 -1.8,-0.3 -3.6,-0.7 -5.4,-1.1 -1.7,-0.4 -3.5,-0.8 -5.3,-1.1 -1.8,-0.3 -3.5,-0.4 -5.2,-0.4 -2.9,0 -5.6,0.4 -7.9,1.3 -4.2,1.6 -6,5.1 -4.7,9.1 0,0.1 0,0.2 0.1,0.4 z"
   id="path13"
   inkscape:connector-curvature="0"
   style="fill:#ffffff" />
		<path
   d="m 96.1,128.1 v 0 c 0.7,0 1.3,0.2 1.6,0.3 l 4,4.9 0.8,1 0.8,-1 c 1,-1.3 2.5,-2.1 3.7,-2.1 1,0 1.8,0.5 2.3,1.5 1.5,2.5 -0.6,5 -0.7,5.1 l -0.7,0.8 0.9,0.6 c 2.3,1.7 2.3,4.8 2.3,4.8 v 1 h 1 c 3.8,0 6.8,4.6 6.8,4.7 l 0.4,0.6 c 0.2,0.6 0.3,1.1 0.4,1.6 0.1,0.6 0.1,0.9 0.1,1 0,0 -0.1,0 -0.1,0 -0.1,0 -0.3,0 -0.6,-0.1 -1.8,-0.3 -3.6,-0.7 -5.4,-1.1 -1.7,-0.4 -3.5,-0.8 -5.3,-1.1 -1.8,-0.3 -3.6,-0.4 -5.3,-0.4 -3,0 -5.7,0.5 -8.1,1.4 -3.1,1.2 -5,3.4 -5.4,6.1 -0.1,-0.3 -0.2,-0.5 -0.2,-0.5 l -0.1,-0.3 -0.2,-0.2 -1.4,-1.2 -1.1,-3.9 v -0.1 L 86.5,151.4 85,148.9 84.7,144 v -0.1 -0.1 l -1,-4.2 c 0.5,-1 2.6,-2.8 3.9,-3.8 l 0.1,-0.1 0.1,-0.1 5.9,-6.3 v -0.1 -0.1 c 0.8,-0.7 1.5,-1 2.4,-1 m -1.7,39.3 c 0.3,0.3 0.6,0.6 0.9,0.9 1.1,1.1 2.1,2.1 3,3.2 -0.8,-0.4 -2,-1.3 -3.3,-3.2 -0.2,-0.3 -0.4,-0.6 -0.6,-0.9 m 1.7,-40.3 c -1,0 -2.2,0.3 -3,1.6 l -5.9,6.3 c 0,0 -3.8,2.9 -4.4,4.5 l 1.1,4.5 0.3,5.1 1.6,2.7 1.2,4.2 1.6,1.4 c 0,0 2.3,6.8 5.6,11.4 2.5,3.6 4.6,4 5.4,4 0.3,0 0.4,0 0.4,0 l 0.4,0.4 c 0,-0.2 -0.1,-0.3 -0.1,-0.5 -2.4,-4.5 -7.6,-7 -9.3,-11.9 -1.3,-3.9 0.7,-7 4.4,-8.4 2.4,-0.9 5.1,-1.3 7.7,-1.3 1.7,0 3.5,0.2 5.1,0.4 3.6,0.6 7.1,1.7 10.7,2.2 0.3,0 0.5,0.1 0.7,0.1 1.1,0 1.2,-0.6 1,-2.2 -0.1,-0.8 -0.4,-1.5 -0.6,-2.3 0,-0.2 -0.1,-0.3 -0.2,-0.5 l -0.2,0.1 c 0,0 -3.3,-5.1 -7.7,-5.1 0,0 0,-3.6 -2.7,-5.6 0,0 2.7,-3.2 0.8,-6.3 -0.8,-1.4 -2,-1.9 -3.2,-1.9 -1.6,0 -3.3,1 -4.5,2.5 l -4.1,-5.1 c 0.1,0.2 -0.9,-0.3 -2.1,-0.3 z"
   id="path15"
   inkscape:connector-curvature="0" />
	</g>
	<g
   id="g23">
		<path
   class="st0"
   d="m 125.8,169.6 c -1.1,0 -1.6,-0.5 -2.3,-1.3 -0.2,-0.2 -0.4,-0.4 -0.6,-0.6 -0.1,-0.1 -0.3,-0.3 -0.4,-0.4 -0.7,-0.7 -1.5,-1.5 -2.4,-2.1 0.3,-0.7 0.6,-1.4 0.9,-2.1 0.9,0.2 1.9,0.4 2.9,0.6 0.3,0 0.5,0.1 0.7,0.1 0.7,0.1 0.9,0.1 1.3,0.8 0.2,0.5 0.4,1 0.6,1.5 0.2,0.5 0.4,1.1 0.6,1.6 0.2,0.5 0.5,1 0.8,1.4 0.1,0.1 0.2,0.3 0.3,0.4 -0.3,0 -0.6,0 -0.9,0 -0.4,0 -0.8,0 -1.3,0 0,0.1 -0.1,0.1 -0.2,0.1 z"
   id="path19"
   inkscape:connector-curvature="0"
   style="fill:#ffffff" />
		<path
   d="m 121.3,163.7 c 0.8,0.2 1.6,0.4 2.5,0.5 0.3,0 0.5,0.1 0.8,0.1 0.7,0 0.7,0 0.9,0.5 0.2,0.5 0.4,1 0.6,1.5 0.2,0.5 0.4,1.1 0.7,1.6 0.2,0.4 0.4,0.7 0.6,1.1 -0.4,0 -0.8,0 -1.2,0 -0.1,0 -0.1,0 -0.2,0 -0.9,0 -1.2,-0.3 -1.9,-1.1 -0.2,-0.2 -0.4,-0.4 -0.6,-0.6 -0.1,-0.1 -0.3,-0.3 -0.4,-0.4 -0.6,-0.6 -1.3,-1.4 -2.1,-1.9 -0.1,-0.4 0.1,-0.8 0.3,-1.3 m -0.7,-1.2 c -0.3,1 -0.7,2 -1.2,2.9 1.2,0.5 2.3,1.8 3.1,2.6 1.2,1.2 1.6,2 3.2,2 0.1,0 0.2,0 0.2,0 0.4,0 0.8,0 1.2,0 0.6,0 1.2,0 1.7,0.1 -0.4,-0.9 -1.1,-1.7 -1.5,-2.6 -0.5,-1 -0.8,-2.1 -1.2,-3.1 -0.6,-1.3 -1.2,-1 -2.4,-1.2 -0.9,-0.1 -2,-0.4 -3.1,-0.7 z"
   id="path21"
   inkscape:connector-curvature="0" />
	</g>
	<g
   id="g27">
		<path
   class="st2"
   d="m 176.7,208.3 c -1,0.6 -2,1.2 -3,1.9 -2.1,1.5 -3.9,3.2 -5.9,5 -0.4,0.4 -1.1,1.2 -1.7,0.8 -0.8,-0.4 -0.4,-2.2 -0.4,-2.8 0,-2.2 0,-4.5 0,-6.7 0,-3.7 -0.3,-7.4 1.4,-10.9 0,0 0,0 0.1,-0.1 0.1,-3.8 -0.1,-11.9 -4.4,-19 0,0 -8.8,-3.6 -22.4,-3.2 0,0 -0.4,-0.3 -0.9,-0.8 -2.4,1.9 -4.8,3.8 -6.9,6 -3.2,3.3 -5.5,6.2 -6.3,10.6 -0.9,4.7 -1,8.6 -1.2,13.4 0,1.2 0.9,3.8 0.8,5 l 4,6 c 0,0 -0.7,3 2.6,11.4 0,0 -0.7,4.4 2.6,4.4 0,0 -2.3,18 8.6,22.6 0,0 2.7,4.4 10,1.4 7.3,-3 8.7,-12.4 8.7,-12.4 l 0.9,6.5 c 0,0 -3,14.2 -1.6,20.1 1.4,5.9 1.9,11 8.6,14.2 0,0 2.6,5.8 10.5,1.2 7.9,-4.6 13.5,-24 15.9,-32.4 2.3,-8.4 4,-28.7 4,-28.7 0,0 -7.9,-10.9 -24,-13.5 z"
   id="path25"
   inkscape:connector-curvature="0"
   style="fill:#cf2623" />
	</g>
	<path
   class="st3"
   d="m 166.8,207.2 c 0,1.7 0,3.5 0,5.2 0,0.2 -0.2,2.2 0,2.2 0.2,0.2 1.2,-1 1.4,-1.1 2.2,-2.1 4.6,-3.8 7.1,-5.4 -0.2,0 -0.4,-0.1 -0.6,-0.1 l 1.6,-0.8 -4.9,-4.7 -3.2,-5.2 c 0,0 -0.4,0.3 -0.7,0.4 -1,3.1 -0.7,6.3 -0.7,9.5 z"
   id="path29"
   inkscape:connector-curvature="0"
   style="fill:#d3adbe" />
	<g
   id="g35">
		<path
   class="st0"
   d="m 124.7,205.7 c -1.6,-0.4 -5.2,-1.5 -8.6,-3 -4.2,-1.9 -4.1,-4.1 -4.1,-4.2 v -0.4 l -0.4,-0.1 c 0,0 -3.8,-1.2 -7.8,-1.9 -3.4,-0.6 -3.1,-3.7 -3.1,-3.9 0.2,-7 1.5,-12.2 2.3,-14.7 0.5,-1.2 1.3,-3 2.3,-4.7 0.1,-0.1 0.3,-0.1 0.4,-0.3 2.7,-3.3 7,-7.7 12.3,-7.7 -0.1,0.1 -0.1,0.3 -0.2,0.4 -0.2,0.3 -0.2,0.7 0,1 0.2,0.3 0.5,0.5 0.8,0.5 1.1,0.1 2,1.3 2.9,2.5 0.6,0.8 1.2,1.6 1.9,2 0.6,0.4 1.2,0.4 1.6,0.4 h 0.2 c 0.5,0 1,0 1.4,0 0.5,0 0.9,0 1.4,0 0.6,0 1.1,0 1.6,0.1 h 0.2 c 0.4,0 0.7,-0.2 0.9,-0.4 0.2,-0.2 0.2,-0.5 0.1,-0.8 -0.3,-0.8 -0.7,-1.5 -1.1,-2.2 -0.1,-0.2 -0.3,-0.4 -0.4,-0.6 0.9,0.1 1.8,0.3 2.7,0.5 1.1,0.2 2.3,0.4 3.4,0.6 0.3,0 0.5,0.1 0.8,0.1 0.6,1.1 1.4,2.1 2.1,2.9 -2.7,2.1 -5.1,4.1 -7.3,6.5 -2.4,2.8 -3.8,5.8 -4.7,10.2 -0.8,4.1 -1.3,8.6 -1.3,13.7 -0.1,1 -0.1,2.2 -0.3,3.5 z"
   id="path31"
   inkscape:connector-curvature="0"
   style="fill:#ffffff" />
		<path
   d="m 117.3,165.4 c -0.1,0.4 -0.1,0.7 0.1,1.1 0.2,0.5 0.7,0.8 1.2,0.8 0.9,0.1 1.7,1.2 2.5,2.3 0.6,0.9 1.2,1.7 2,2.2 0.7,0.4 1.4,0.4 1.9,0.4 h 0.2 c 0.5,0 1,0 1.5,0 0.5,0 0.9,0 1.4,0 0.6,0 1.1,0 1.5,0.1 0.1,0 0.1,0 0.2,0 0.5,0 1,-0.2 1.3,-0.6 0.3,-0.4 0.3,-0.8 0.2,-1.3 -0.2,-0.7 -0.6,-1.3 -0.9,-1.9 0.5,0.1 1,0.2 1.5,0.3 1.1,0.2 2.3,0.4 3.4,0.6 0.2,0 0.3,0 0.5,0.1 0.5,0.9 1.1,1.7 1.7,2.3 -2.6,2 -4.9,4 -6.9,6.3 -2.5,2.8 -3.9,5.9 -4.8,10.4 -0.8,4.2 -1.3,8.7 -1.3,13.8 0,0.9 -0.1,1.9 -0.2,3 -1.8,-0.5 -4.9,-1.5 -8,-2.8 -3.8,-1.7 -3.8,-3.7 -3.8,-3.7 0,0 0,0 0,0 l 0.1,-0.8 -0.8,-0.2 c -0.2,0 -3.8,-1.2 -7.8,-1.9 -2.9,-0.5 -2.7,-3 -2.7,-3.3 v 0 -0.1 c 0.2,-6.8 1.5,-12 2.2,-14.5 v -0.1 c 0.5,-1.1 1.2,-2.7 2.2,-4.4 0.2,-0.1 0.3,-0.2 0.4,-0.3 2.6,-3.4 6.4,-7.4 11.2,-7.8 m 0.8,-1.1 c -5.2,0 -9.5,4 -12.7,7.9 -0.1,0.1 -0.2,0.2 -0.3,0.2 -1,1.6 -1.8,3.4 -2.4,4.9 0,0 0,0 0,0 0,0 0,0.1 0,0.1 0,0 0,0 0,0 -0.8,2.5 -2.1,7.8 -2.3,14.8 0,0 -0.5,3.7 3.5,4.4 4,0.7 7.7,1.9 7.7,1.9 0,0 -0.2,2.6 4.4,4.7 4,1.8 8.2,2.9 9.3,3.2 0.1,-1.4 0.3,-2.8 0.3,-4.2 0.1,-4.6 0.4,-9.1 1.3,-13.6 0.8,-3.9 2,-7 4.6,-9.9 2.3,-2.6 4.9,-4.7 7.6,-6.8 -0.9,-0.9 -1.9,-2.1 -2.6,-3.4 -0.3,0 -0.7,0 -1,-0.1 -2.4,-0.3 -4.7,-0.9 -7,-1.3 0.1,0.1 0.1,0.3 0.2,0.4 0.6,1.1 1.3,2 1.7,3.2 0.1,0.4 -0.2,0.6 -0.5,0.6 0,0 -0.1,0 -0.1,0 -0.6,-0.1 -1.1,-0.1 -1.7,-0.1 -0.9,0 -1.9,0.1 -2.8,0.1 -0.1,0 -0.1,0 -0.2,0 -0.5,0 -1,0 -1.4,-0.3 -1.5,-1 -2.8,-4.4 -4.9,-4.6 -0.4,0 -0.6,-0.4 -0.4,-0.8 0.2,-0.4 0.4,-0.8 0.5,-1.1 -0.3,-0.2 -0.6,-0.2 -0.8,-0.2 z"
   id="path33"
   inkscape:connector-curvature="0" />
	</g>
	<path
   class="st4"
   d="m 100,65.6 c 0,0 -10.6,-14.4 -10.2,-15.4 0.4,-1 22.2,10.3 22.2,10.3 0,0 -9.1,2.3 -13.1,5.8"
   id="path37"
   inkscape:connector-curvature="0"
   style="fill:#f5bfa7" />
	<path
   class="st5"
   d="m 89.5,77.9 c -0.6,2.3 -1.1,4.7 -1.2,6.8 0,0 -1.6,12.5 4.7,20.7 0,0 -3,-9.2 -3.2,-13.2 0,0 -0.7,-7.3 -0.3,-10.7 0.4,-3.4 0.4,-3.4 0.4,-3.4"
   id="path39"
   inkscape:connector-curvature="0"
   style="fill:#b1b3e8" />
	<path
   class="st5"
   d="m 119.1,76.9 c -5.5,-5.2 -9.7,-8.5 -15.3,-6.9 -5.6,1.6 -3.7,18.6 -3.7,18.6 0.3,-4.9 0.1,-9.8 1.9,-14.4 0.3,-0.8 0.7,-1.6 1.4,-2.2 0.4,-0.4 1,-0.6 1.5,-0.8 0.9,-0.3 1.9,-0.6 2.8,-0.7 2.3,-0.2 4.6,0.6 6.5,1.9 2,1.4 3.4,2.8 4.9,4.5 z"
   id="path41"
   inkscape:connector-curvature="0"
   style="fill:#b1b3e8" />
	<path
   class="st6"
   d="m 155.9,176.4 c 2,-0.6 4.2,-0.8 5.9,0.3 1,0.7 1.6,1.7 2.2,2.7 2.3,4.5 2.9,9.6 2.9,14.6 0,5 -0.4,10 0,15 0.2,2 0.5,3.9 0.2,5.9 -0.2,1.4 -0.7,2.8 -1.1,4.1 -1.6,4.8 -2.6,9.9 -3,15 -0.3,3.4 -0.2,6.8 -1.3,10.1 -1.4,4.3 -4.7,7.8 -8.8,9.6 -1.5,0.6 -3.2,1 -4.8,0.6 -1.2,-0.3 -2.3,-1.1 -3.1,-2.1 -2.9,-3.6 -2.3,-8.8 -1.9,-13.5 0.9,-9.1 0.6,-18.2 0.8,-27.3 0.2,-9.2 1.2,-18 3.7,-26.9 1.4,-4.2 4.2,-6.9 8.3,-8.1 z"
   id="path43"
   inkscape:connector-curvature="0"
   style="fill:#cc9f9d" />
	<path
   class="st6"
   d="m 185.5,228.2 c 2.8,-4.6 8.1,-7.6 13.5,-7.8 0.3,0 0.6,0 0.8,0.1 0.3,0.2 0.4,0.5 0.6,0.8 0.9,2.7 0.1,5.6 -0.5,8.4 -1.2,5.9 -1,11.9 -2.5,17.7 -0.8,3 -1.9,6 -2.8,9 -0.7,2.5 -1.1,5 -2,7.5 -1.1,3.2 -2.8,6.2 -4.3,9.2 -1.7,3.4 -3.1,7.1 -6.1,9.4 -1.9,1.5 -4.2,2.3 -6.6,2.3 -1.6,0 -3.3,-0.5 -4.1,-1.8 -1,-1.6 -0.4,-3.7 0.2,-5.5 1,-2.7 1.9,-5.5 2.9,-8.2 0.9,-2.6 1.8,-5.2 2.4,-7.9 0.7,-3.2 0.9,-6.4 1.4,-9.6 0.7,-4.3 2.1,-8.5 3.5,-12.7 1.4,-4.2 2.7,-8.4 4.1,-12.6"
   id="path45"
   inkscape:connector-curvature="0"
   style="fill:#cc9f9d" />
	<path
   class="st7"
   d="m 89.8,76.8 c 0,0 -9.2,-0.1 -16.6,1.3 0,0 12,7.8 15,9.2"
   id="path47"
   inkscape:connector-curvature="0"
   style="fill:#f3c3a8" />
	<path
   class="st8"
   d="m 122.2,98.4 c 0,0 0.1,-2.3 -2.3,-9.7 -2.3,-7.4 -9.2,-12.9 -11.8,-11.9 -2.6,1.1 -3.4,13.8 -3.4,21.2 0,7.4 1.3,12.1 -2.7,12.6 l 2.8,-0.7 12.5,-4 1.2,-1.8 1.4,-3 z"
   id="path49"
   inkscape:connector-curvature="0"
   style="fill:#f7f7f8" />
	<path
   class="st9"
   d="m 141.7,118.1 c 0,0 4.3,-14.2 0.6,-21.7 -3.7,-7.5 -11.4,-6.6 -15.8,-3.4 -4.5,3.2 -9.2,12.9 -9.2,12.9 0,0 -5.1,1.3 -10.9,3.3 -5.8,2.1 -7.3,6.5 -7.3,6.5 -0.4,1.5 -0.2,3.2 0.5,4.6 0.7,1.4 1.7,2.6 2.9,3.7 6.3,6.1 16,8.3 24.3,5.6 0.3,-0.1 0.6,-0.2 0.9,-0.4 0.3,-0.2 0.6,-0.5 0.9,-0.9 3.3,-4 7.6,-7.3 12.4,-9.4 0.2,0 0.4,-0.5 0.7,-0.8 z"
   id="path51"
   inkscape:connector-curvature="0"
   style="fill:#f5c1a5" />
	<path
   class="st10"
   d="m 133.1,122.8 c 1.6,-1.8 3.1,-3.6 4.7,-5.4 2.2,-2.6 4.5,-5.3 5.8,-8.5 0.9,1.4 0.8,3.2 0.4,4.8 -0.4,1.7 -1.3,3.3 -2.7,4.4 -0.5,0.4 -1.1,0.6 -1.6,0.9 -3,1.5 -5.7,3.5 -8,5.8 -0.6,0.6 -1.1,1.1 -1.4,1.9 0.8,-1.5 1.7,-2.7 2.8,-3.9 z"
   id="path53"
   inkscape:connector-curvature="0"
   style="fill:#eb9978" />
	<path
   class="st11"
   d="m 123.4,116 c 0,0 3.3,-3.2 3.8,-10.4 0.5,-7.3 0.2,-8.4 0.2,-8.4 0,0 5.1,0.9 5,8.1 -0.1,7.2 -5.4,9.6 -7.5,9.5"
   id="path55"
   inkscape:connector-curvature="0"
   style="fill:#5c0308" />
	<path
   class="st12"
   d="m 164.1,116.3 c 0,0 0.4,-0.3 16.2,-9.7 15.8,-9.4 33.1,-16.4 33.1,-16.4 0,0 10.1,8.2 13.6,11.6 3.5,3.4 3.1,4.4 3.1,4.4 0,0 -6.5,-0.9 -13.5,-0.1 -7,0.8 -15.9,2.2 -15.9,2.2 l -8.7,0.7 -12.7,2.3 -11.5,3.6 c 0,0 5.2,-0.4 12.5,6.3 7.2,6.7 8.2,7.8 8.2,7.8 l -12.3,3 c 0,0 -15.7,-2.3 -24.2,-1.1 -8.5,1.2 -10.7,1.9 -10.7,1.9 0,0 2.7,-4 1.6,-8.2 -0.4,-1.3 -1,-2.5 -2.2,-3.1 -1.2,-0.7 -2.6,-0.8 -3.9,-0.4 0.6,-0.2 1.2,-0.7 1.8,-1.1 0.7,-0.4 1.3,-0.7 2,-1.1 1.1,-0.7 1.5,-1.7 1.8,-2.9 0.7,-3 1.1,-6.1 1.3,-9.2 2.6,-0.6 5.2,-1.2 7.6,-2.2 2.4,-1 4.7,-2.5 6.4,-4.5 8.4,-3 16.7,-5.8 25.2,-8 3.9,-1 7.8,-1.9 11.7,-2.1 -1.8,1.2 -4,1.8 -5.8,3 -0.9,0.6 -1.7,1.4 -2.6,2.1 -3.8,3.1 -8.6,4.9 -12.5,7.9 -3.3,2.5 -5.9,5.9 -8.5,9.2 -0.8,1 -1.6,2.2 -1.7,3.5 0,0.4 0.5,0.3 0.6,0.6 z"
   id="path57"
   inkscape:connector-curvature="0"
   style="fill:#17359e" />
	<g
   id="g61">
		<path
   d="m 126.3,131 c 0.2,-0.7 0.7,-1.2 1.1,-1.8 0.4,-0.5 0.9,-1 1.3,-1.5 0.9,-1 1.9,-2 2.8,-3 2,-1.9 4.1,-3.7 6.5,-5.1 2.4,-1.4 4.9,-2.6 7.4,-3.6 1.3,-0.5 2.6,-1 3.9,-1.3 0.7,-0.2 1.3,-0.3 2,-0.5 0.7,-0.1 1.4,-0.2 2,-0.1 -1.4,0 -2.7,0.5 -3.9,1 -1.3,0.5 -2.5,1 -3.7,1.6 -2.5,1.1 -4.9,2.4 -7.2,3.8 -2.3,1.4 -4.4,3.1 -6.4,4.9 -1,0.9 -2,1.8 -2.9,2.8 -0.5,0.5 -0.9,1 -1.4,1.5 -0.4,0.5 -0.9,1 -1.5,1.3 z"
   id="path59"
   inkscape:connector-curvature="0" />
	</g>
	<path
   class="st13"
   d="m 136.9,121 c 0,0 6.5,-1.5 6,6.1 -0.5,7.6 -7,11.7 -9.4,14.3 -2.4,2.5 -8.8,9.2 -9.7,12.8 0,0.1 -0.1,0.1 -0.1,0 -0.3,-1.4 -1.4,-9.6 -1.2,-11.9 l 1.8,-6.5 2.3,-5.4 3.9,-4.3 4.6,-3.7 1.7,-1.7"
   id="path63"
   inkscape:connector-curvature="0"
   style="fill:#f5c1a3" />
	<g
   id="g67">
		<path
   d="m 167,133.8 c -0.7,2.4 -1.8,4.6 -3.1,6.7 -1.3,2.1 -2.8,4.1 -4.7,5.7 -1.8,1.7 -3.8,3.2 -5.8,4.5 -2,1.4 -4.2,2.6 -6.5,3.4 4.3,-2.3 8.1,-5.3 11.7,-8.7 1.7,-1.6 3.3,-3.5 4.6,-5.5 1.4,-1.8 2.6,-3.9 3.8,-6.1 z"
   id="path65"
   inkscape:connector-curvature="0" />
	</g>
	<g
   id="g71">
		<path
   d="m 132,155.5 c -2.7,0.3 -5.4,-0.2 -8,-0.8 -2.6,-0.5 -5.2,-1 -7.9,-1.5 -2.6,-0.4 -5.3,-0.9 -7.9,-1.2 -2.6,-0.3 -5.3,-0.6 -7.9,-0.2 -1.3,0.1 -2.6,0.3 -3.9,0.6 -0.6,0.2 -1.2,0.4 -1.7,0.7 -0.5,0.3 -1,0.8 -1.5,1.2 -1,0.9 -1.8,1.9 -2.1,3 -0.4,1.2 -0.2,2.5 0.3,3.6 0.5,1.1 1.4,2.2 2.2,3.3 0.8,1.1 1.6,2.1 2.5,3.1 l 2.5,3.1 1.3,1.5 0.6,0.8 c 0.2,0.3 0.5,0.5 0.5,0.9 -0.4,-0.1 -0.6,-0.4 -0.8,-0.6 l -0.7,-0.7 -1.3,-1.5 -2.6,-3 c -0.9,-1 -1.7,-2 -2.6,-3.1 -0.8,-1.1 -1.7,-2.1 -2.4,-3.3 -0.6,-1.3 -0.8,-2.8 -0.4,-4.2 0.4,-1.4 1.3,-2.6 2.3,-3.5 0.5,-0.5 1,-0.9 1.6,-1.3 0.6,-0.4 1.3,-0.7 2,-0.8 1.4,-0.3 2.7,-0.5 4,-0.6 2.7,-0.3 5.4,0 8.1,0.4 2.7,0.4 5.3,0.8 7.9,1.4 2.6,0.6 5.2,1.2 7.8,1.8 1.3,0.3 2.6,0.7 3.9,0.9 1.5,-0.1 2.8,0 4.2,0 z"
   id="path69"
   inkscape:connector-curvature="0" />
	</g>
	<path
   class="st3"
   d="m 112.8,165.5 -8.3,-4.8 c -5.1,-0.4 -6,-3.6 -6,-3.6"
   id="path73"
   inkscape:connector-curvature="0"
   style="fill:#d3adbe" />
	<g
   id="g77">
		<path
   d="m 104.5,160.6 c 3,-0.1 6,0.1 8.9,0.4 3,0.3 5.9,1 8.8,1.4 2.9,0.5 5.8,1 8.8,1.3 1.5,0.1 3,0.1 4.4,0.1 1.5,0 3,-0.2 4.4,-0.7 -1.3,0.7 -2.8,1 -4.3,1.2 -1.5,0.1 -3,0.2 -4.5,0.2 -3,0 -6,-0.5 -8.9,-1 l -4.4,-0.8 c -1.5,-0.3 -2.9,-0.6 -4.4,-0.8 -1.5,-0.2 -2.9,-0.4 -4.4,-0.6 -1.4,-0.3 -2.9,-0.5 -4.4,-0.7 z"
   id="path75"
   inkscape:connector-curvature="0" />
	</g>
	<g
   id="g81">
		<path
   d="m 102.8,177 c 0,-0.4 0.1,-0.7 0.3,-1 l 0.5,-0.9 c 0.3,-0.6 0.6,-1.2 1,-1.8 0.7,-1.2 1.5,-2.4 2.4,-3.4 0.9,-1.1 1.9,-2.1 3.1,-2.9 1.2,-0.8 2.5,-1.4 3.9,-1.7 v 0 h -0.1 c 1,-0.6 1.9,-1.1 3.1,-1.3 0.3,0 0.6,-0.1 1,0 0.3,0.1 0.6,0.3 0.8,0.4 0.5,0.3 0.9,0.7 1.3,1 1.7,1.4 3.3,2.9 4.9,4.3 l -0.3,-0.1 c 2.2,0 4.3,0.1 6.5,0.5 1.1,0.2 2.2,0.4 3.2,0.8 0.5,0.2 1,0.5 1.5,1 0.4,0.4 0.8,0.9 0.9,1.8 v 0 0.2 l -0.1,0.1 c -2,2.2 -4,4.4 -5.9,6.7 -0.9,1.2 -1.8,2.4 -2.5,3.6 -0.2,0.3 -0.3,0.6 -0.4,1 -0.1,0.3 -0.2,0.7 -0.3,1.1 -0.2,0.7 -0.3,1.5 -0.4,2.2 -0.5,2.9 -0.9,5.9 -1.2,8.9 -0.2,1.5 -0.3,3 -0.3,4.5 0,0.7 0,1.5 0,2.2 0,0.7 0.1,1.5 0,2.2 -0.2,-0.7 -0.3,-1.5 -0.3,-2.2 0,-0.8 -0.1,-1.5 0,-2.3 0,-1.5 0.1,-3 0.3,-4.5 0.3,-3 0.6,-6 1,-9 0.1,-0.7 0.2,-1.5 0.4,-2.2 0.1,-0.4 0.2,-0.7 0.3,-1.1 0.1,-0.4 0.3,-0.8 0.4,-1.1 0.7,-1.4 1.6,-2.6 2.5,-3.8 1.9,-2.4 3.8,-4.6 5.9,-6.9 l -0.1,0.3 v 0 c 0,-0.3 -0.3,-0.7 -0.6,-1 -0.3,-0.3 -0.8,-0.6 -1.2,-0.8 -0.9,-0.4 -1.9,-0.6 -3,-0.8 -2.1,-0.4 -4.2,-0.5 -6.3,-0.6 h -0.2 l -0.1,-0.1 c -1.5,-1.5 -3.1,-3 -4.7,-4.4 -0.4,-0.3 -0.8,-0.7 -1.2,-1 -0.4,-0.3 -0.8,-0.4 -1.3,-0.4 -1,0.1 -2,0.6 -2.9,1.1 h -0.1 -0.1 v 0 c -1.3,0.2 -2.5,0.8 -3.6,1.6 -1.1,0.8 -2.1,1.7 -3,2.7 -0.9,1 -1.7,2.1 -2.4,3.3 -0.4,0.6 -0.7,1.2 -1,1.8 l -0.5,0.9 c -0.6,0.5 -0.8,0.8 -1.1,1.1 z"
   id="path79"
   inkscape:connector-curvature="0" />
	</g>
	<path
   class="st14"
   d="m 143.9,251.9 c 0,0 -1.5,-3.2 -2.3,-7.6 -0.8,-4.4 0.4,-16.1 0.4,-16.1 0,0 0.4,-13.3 0.1,-16.7 -0.3,-3.4 0.1,-18.6 3.6,-28 3.5,-9.4 12.1,-8.5 12.1,-8.5 l 5.1,1.5 0.7,1.4 c 0,0 -9.5,-3.1 -13.6,4.8 -4.1,7.9 -4.1,32.6 -4.1,32.6 0,0 -1.3,1.4 -1.1,4.9 0.1,3.4 1,4.3 1,4.3 0,0 -2.9,11.6 -1.9,18 1,6.4 3.1,10.9 5.6,11.8"
   id="path83"
   inkscape:connector-curvature="0"
   style="fill:#e3d0cb" />
	<path
   class="st15"
   d="m 139.7,210.8 c -2.5,-0.1 -7,0.1 -7.1,0.9 -0.1,0.8 -0.1,5.3 0,6.8 0.1,1.5 0.1,7 0.1,7 0,0.7 0,1.3 0.2,2 0.2,0.7 0.6,1.3 1.2,1.5 0.9,0.4 1.9,0 2.8,-0.2 0.8,-0.1 1.6,0 2.4,-0.1 0.8,-0.1 1.6,-0.4 2.1,-1 0.4,-0.6 0.5,-1.4 0.5,-2.2 0,-4.2 0.2,-8.8 0.2,-13 0,0 0,-1.5 -2.4,-1.7 z m -0.4,8.6 c -0.1,2.3 0.1,4.5 -1.7,6.1 -0.3,0.3 -0.9,0.1 -0.9,-0.4 0.2,-3.8 -0.7,-7.9 0.1,-11.6 0.1,-0.4 0.6,-0.4 0.8,-0.2 0.1,0.1 0.2,0.2 0.3,0.3 0.1,0 0.2,0 0.3,0.1 1.5,1.6 1.2,3.9 1.1,5.7 z"
   id="path85"
   inkscape:connector-curvature="0"
   style="fill:#fdda6e" />
	<path
   class="st16"
   d="m 170.9,282.4 c -0.8,-2.2 2.2,-12.8 5.5,-24.6 3.3,-11.8 4,-21.8 7.9,-30.7 3.9,-8.9 14.5,-7.6 14.5,-7.6 l 2.1,2.4 c 0,0 -12.3,0 -16.1,11.8 -3.8,11.8 -4.6,21.4 -4.6,21.4 0,0 -1.2,0.6 -1.5,2.4 -0.3,1.7 0.5,2.8 0.5,2.8 0,0 -5.5,14.2 -5.9,17.5 -0.3,3.3 -0.4,5.8 4.1,6.8"
   id="path87"
   inkscape:connector-curvature="0"
   style="fill:#e8d3c9" />
	<path
   class="st17"
   d="m 162.8,243 c 0,0 5,8.7 15.2,7.9 l -2.7,10.6 c -9.3,-0.7 -12.9,-8.3 -12.9,-8.3 0.3,-2 0.6,-4 1,-6 0,-0.3 0.1,-0.5 0.1,-0.8 0,-0.4 -0.1,-0.8 -0.2,-1.2 -0.2,-0.6 -0.3,-1.7 -0.5,-2.2 z"
   id="path89"
   inkscape:connector-curvature="0"
   style="fill:#fff4f9" />
	<path
   class="st18"
   d="m 171.5,104.4 c 0,0 -0.8,4.1 -2.5,6.8 -1.7,2.7 -6.4,6.6 -9.2,7.9 -2.8,1.3 -10.2,4.2 -10,0 0.2,-4.2 4.3,-5.2 4.3,-5.2 l 5.1,-5.8 -0.6,-6.9 c 1.2,1.1 3.2,1.8 4.8,2.2 2.9,0.7 5.4,0.9 8.1,1 z"
   id="path91"
   inkscape:connector-curvature="0"
   style="fill:#fbbea1" />
	<path
   class="st19"
   d="m 197.3,218.1 c 0,0 -5.6,0.8 -5.8,0 -0.2,-0.8 4.3,-1.3 4.3,-1.3 l -1.3,-1 c -8.5,0.1 -7.7,7.5 -7.7,7.5 1.4,-1.5 3.4,-2.5 5.3,-3.1 1.9,-0.6 4.1,-0.8 6.2,-0.8 -0.2,-0.4 -0.6,-1 -1,-1.3 z"
   id="path93"
   inkscape:connector-curvature="0"
   style="fill:#edcac7" />
	<path
   class="st20"
   d="m 167,215.8 -21,-0.5 c 0,0 -1.4,0.7 -1.1,4 0.3,3.3 1.5,4.6 1.5,4.6 l 17.9,0.5"
   id="path95"
   inkscape:connector-curvature="0"
   style="fill:#a47a8b" />
	<path
   class="st21"
   d="m 162.6,44.4 c -0.3,1.1 -0.6,2.2 -1.1,3.2 -1.2,2.6 -3.4,4.7 -3.8,7.5 2,-0.7 3.6,-2.4 5.2,-3.8 5.3,-4.6 12.2,-6.8 17.6,-11.1 -1.4,0.1 -2.8,0.1 -4.2,0.2 -0.1,0 -0.2,0 -0.2,-0.1 0,-0.1 0,-0.1 0,-0.2 0.9,-4 3.4,-7.5 4.1,-11.6 -1.1,-0.3 -2.3,-0.1 -3.4,0.1 -1.7,0.3 -3.4,0.7 -5.1,1 -1.4,0.3 -2.2,0.2 -3,1.5 -1.7,2.6 -3.2,5.5 -4.4,8.4 -0.3,0.8 -0.7,1.6 -0.9,2.5 -0.2,0.6 -0.8,1.7 -0.8,2.4 z"
   id="path97"
   inkscape:connector-curvature="0"
   style="fill:#18349e" />
	<path
   class="st22"
   d="m 171,49.7 c 0,0.6 0.3,1.1 0.5,1.6 0.4,1 0.5,2.2 0.4,3.3 1.6,-1.1 3.7,-1.5 5.6,-1.2 0,-1.6 0.2,-3.3 0.5,-4.9 -0.1,0.2 -0.4,0.4 -0.7,0.4 -0.9,0.3 -1.7,0.6 -2.6,0.9 -1,0.3 -2.1,0.5 -3.1,0.2 -0.3,-0.1 -0.7,-0.2 -0.9,-0.5 0.2,0.2 0.3,0.4 0.4,0.6 0,0 6.5,1.3 7.8,-3.9 1.3,-5.2 3,-15.5 3,-15.5 l 6,-10.9 8.4,3.6 -2.7,9.5 -3.3,10.7 -2.1,5.8 v 1.7 l 5.4,3.9 6.5,-3.9 7.4,-4.9 11.9,-4.3 1.5,7.2 -2.6,2.6 -3.1,2.4 -6.3,3.7 -6.7,2.6 -2.2,0.4 1.7,2.1 5.7,0.3 12.9,-1.5 5.4,2.2 -1.3,3.1 -4.1,2.7 -8.7,2 c 0,0 -4.7,-0.1 -7.8,0.7 -3,0.8 -3.6,4.9 -4.3,6.6 -0.6,1.7 -3.3,2.9 -3.3,2.9 l -9.3,7.9 c 0.5,2.4 0.3,5.8 -5.9,10.6 -6.2,4.9 -14.3,4.4 -18.8,2.4 -4.5,-2 -6.2,-3.7 -8.3,-9.3 -2.1,-5.6 0,-8.2 0,-8.2 -2.5,-6.2 1.8,-7.7 1.8,-7.7 0,0 0,-1.1 -1.8,-3.9 -1.8,-2.9 -1.4,-2.4 -7.2,-4.4 -5.8,-2 -8.7,-1.2 -10.2,-3.1 -1.5,-1.9 -3,-10.9 3.2,-12 6.2,-1.1 15.4,8.7 15.4,8.7 0,0 2.2,0.5 3.3,0 1.1,-0.5 3,-4.1 3,-4.1 -0.2,-5 1.7,-7.1 1.7,-7.1 0,0 -4.7,-7.5 -6.9,-14.2 -2.1,-6.7 -1.5,-16.7 4,-17 5.5,-0.3 7.5,6.4 7.8,14.3 0.3,7.9 3,15.2 3,15.2"
   id="path99"
   inkscape:connector-curvature="0"
   style="fill:#fbf8f7" />
	<polyline
   class="st20"
   points="193.7,259.9 179.4,259.9 178.9,259.7 178.5,258 179.1,256 180.1,255 195,253.2 196.1,253.1  "
   id="polyline101"
   style="fill:#a47a8b" />
	<path
   class="st12"
   d="m 97.1,105 c 0.4,1.1 0.7,2.2 1.3,3.2 0.6,1 1.5,1.9 2.6,2.2 0.7,0.2 1.4,0.3 2.1,0.3 -1.1,0.8 -2.1,1.7 -3,2.8 -0.1,0.1 -2.1,-0.6 -2.3,-0.8 -0.5,-0.6 -0.8,-1.6 -1,-2.3 -0.4,-1.8 -0.4,-3.7 0.3,-5.4 z"
   id="path103"
   inkscape:connector-curvature="0"
   style="fill:#17359e" />
	<path
   class="st23"
   d="m 92.2,54.2 c 3.1,3.6 6.2,7.1 10.2,9.6 l -2.3,1.6 -0.7,-0.5 -3,-4.1 -2.8,-4 z"
   id="path105"
   inkscape:connector-curvature="0"
   style="fill:#fbe6c7" />
	<path
   class="st5"
   d="m 90.7,46.6 c -0.9,0.1 -2,0.3 -2.4,1.1 -0.2,0.4 -0.2,1 -0.1,1.4 0.2,1.7 1,3.3 1.8,4.8 2.6,4.7 5.9,9.1 7.3,14.3 -2.4,-2.4 -4.1,-5.3 -5.7,-8.3 -2.2,-4.2 -4.2,-8.6 -6.2,-13 -0.1,-0.1 -0.1,-0.2 -0.1,-0.4 0,-0.3 0.4,-0.4 0.8,-0.4 3.5,-0.1 7,0.1 10.6,0.2 -1.9,-0.2 -4.1,0.1 -6,0.3 z"
   id="path107"
   inkscape:connector-curvature="0"
   style="fill:#b1b3e8" />
	<path
   class="st5"
   d="m 74.9,73.3 c -0.8,0.5 -1.7,0.9 -2.3,1.7 -0.6,0.8 -0.8,1.9 -0.2,2.7 0.5,0.6 1.3,0.8 2,1.1 1.5,0.6 2.8,1.8 4.1,2.8 3,2.2 6.8,3.7 8.8,6.8 0.1,0.1 0.2,0.3 0.2,0.4 0,0.2 -0.1,0.3 -0.1,0.5 -1.4,3 -2.3,6.4 -1.3,9.6 1.8,5.6 7,9.4 10.9,13.8 -2.7,-1.1 -4.9,-3.1 -6.8,-5.4 -1.8,-2.3 -3.3,-4.8 -4.7,-7.4 -0.5,-1 -1.1,-2 -1.3,-3.1 -0.5,-2.6 0.8,-5.2 2.1,-7.6 -1,-1.1 -2.3,-1.8 -3.6,-2.6 -1.4,-0.8 -2.7,-1.7 -4,-2.7 -3.4,-2.4 -6.6,-5.1 -9.6,-7.9 1.8,-1 3.7,-1.9 5.8,-2.7 z"
   id="path109"
   inkscape:connector-curvature="0"
   style="fill:#b1b3e8" />
	<path
   class="st5"
   d="m 98.8,108.1 c 0.5,0.6 1.2,1.2 2,1.3 0.9,0.2 1.9,-0.2 2.6,-0.9 0.7,-0.7 1.1,-1.5 1.4,-2.5 0,0.9 0,1.7 -0.3,2.5 -0.3,0.8 -0.8,1.6 -1.6,1.9 -1.2,0.6 -2.7,0 -3.6,-0.9 -0.7,-0.8 -1.3,-1.9 -1.4,-2.9 0.3,0.2 0.7,1.2 0.9,1.5 z"
   id="path111"
   inkscape:connector-curvature="0"
   style="fill:#b1b3e8" />
	<path
   class="st5"
   d="m 100.9,107.1 c 0.1,0.2 0.2,0.4 0.5,0.4 0.1,0 0.2,-0.1 0.3,-0.2 0.3,-0.2 0.6,-0.4 1,-0.6 0,0 0.1,0 0.1,-0.1 0.1,-0.1 0.1,-0.2 0,-0.3 -0.1,-0.5 -0.4,-1 -0.9,-1.2 -0.4,-0.2 -1.1,-0.2 -1.4,0.3 -0.2,0.4 0.2,1.3 0.4,1.7 z"
   id="path113"
   inkscape:connector-curvature="0"
   style="fill:#b1b3e8" />
	<path
   class="st24"
   d="m 104.9,108.3 c 1.4,-3.1 2.8,-6.1 4.2,-9.2 0.6,-1.3 1.2,-2.6 1.9,-3.7 2.1,-3.3 5.2,-5.7 8.3,-8.1 -0.5,-2 -1.7,-3.8 -3.1,-5.4 -1.4,-1.5 -3.1,-2.8 -4.8,-4 -0.9,-0.6 -1.9,-1.2 -2.9,-1.1 -0.2,0 -0.5,0.1 -0.7,0.3 -0.1,0.1 -0.2,0.3 -0.3,0.5 -0.9,1.9 -1.3,4 -1.6,6.1 -0.4,3.2 -0.6,6.4 -0.7,9.6 -0.1,5.2 -0.1,9.8 -0.3,15 z"
   id="path115"
   inkscape:connector-curvature="0"
   style="fill:#dec5d1" />
	<path
   class="st25"
   d="m 128.1,111.1 c 0.4,-0.5 0.7,-1.2 0.6,-1.8 0,-0.2 -0.1,-0.4 -0.1,-0.7 0,-0.4 0.3,-0.8 0.6,-1.1 0.5,-0.9 0.4,-2 -0.1,-2.8 -0.2,-0.2 -0.4,-0.5 -0.2,-0.8 0.1,-0.2 0.4,-0.3 0.7,-0.4 0.5,-0.2 0.7,-0.9 0.5,-1.4 0.2,0.1 0.4,0.3 0.5,0.5 0.1,0.2 0.2,0.5 0,0.7 -0.2,0.4 -0.7,0.4 -1,0.6 -0.4,0.3 -0.4,0.9 -0.2,1.4 0.2,0.5 0.4,0.9 0.5,1.4 0.1,0.4 -0.1,0.9 -0.3,1.2 -0.3,0.3 -0.7,0.6 -0.8,1 -0.1,0.3 0,0.6 0,0.9 -0.1,0.7 -0.6,1.1 -0.9,1.7 -0.4,0.7 -0.4,1.7 0,2.4 1.2,-1.1 2.4,-2.2 3.2,-3.6 0.3,-0.6 0.6,-1.3 0.8,-1.9 0.5,-1.7 0.8,-3.4 0.6,-5.2 -0.3,-1.7 -1.1,-3.4 -2.6,-4.4 -0.1,0.4 -0.2,0.8 -0.3,1.1 0,0.1 -0.1,0.2 -0.2,0.3 -0.2,0.1 -0.3,0 -0.4,-0.2 -0.1,-0.1 -0.1,-0.3 -0.1,-0.5 -0.1,-0.7 -0.4,-1.3 -0.9,-1.9 -0.1,-0.1 -0.2,-0.2 -0.3,-0.1 0,0 0,0.1 0,0.1 0,0.3 0,0.5 0,0.8 -0.1,1.7 -0.1,3.3 -0.2,5 0,1.1 -0.1,2.2 -0.2,3.3 -0.1,0.7 -0.2,1.3 -0.4,2 -0.1,0.6 -0.3,1.2 -0.4,1.8 -0.1,0.4 -0.2,0.8 -0.3,1.1 -0.2,0.5 -0.4,0.9 -0.6,1.3 -0.2,0.5 0.2,0.3 0.5,0.1 0.7,-0.4 1.4,-1.1 2,-1.9 z"
   id="path117"
   inkscape:connector-curvature="0"
   style="fill:#f1f4f4" />
	<path
   class="st26"
   d="m 111.2,50.4 c 0.3,-1.3 1,-2.6 1.6,-3.8 2.2,-4.1 4.2,-8.4 6.1,-12.6 -1.2,1.6 -3.1,2.9 -4.7,4.2 -3.7,3 -6.9,6.7 -10.1,10.3 1.6,0.7 3.3,1.2 5,1.5 0.7,0.1 1.5,0 2.1,0.4 z"
   id="path119"
   inkscape:connector-curvature="0"
   style="fill:#17349e" />
	<path
   class="st27"
   d="m 119.7,54.9 c 1.3,1.6 2.2,3.4 3.6,4.9 -0.4,-1.2 -0.9,-2.5 -1.3,-3.7 -0.3,-1 -0.7,-1.9 -1.4,-2.7 -1.1,-1.1 -2.7,-1.4 -4.1,-1.7 1.2,0.9 2.2,2 3.2,3.2 z"
   id="path121"
   inkscape:connector-curvature="0"
   style="fill:#a5beff" />
	<path
   class="st27"
   d="m 174.1,16 c -0.1,0.8 -0.5,1.4 -0.9,2.1 -1.1,2.3 -1.6,4.9 -2.1,7.4 2,-3.7 3.8,-7.4 5.5,-11.2 -5.9,-0.5 -11.8,0.3 -17.5,1.4 -0.8,0.2 -1.6,0.3 -2.4,0.5 -0.5,0.1 -1.2,0.4 -1.6,0.1 1.1,-0.3 2.4,-0.3 3.5,-0.4 1.3,-0.1 2.5,-0.2 3.8,-0.2 2.5,-0.1 5,0 7.6,0.1 0.3,0 4.1,0.3 4.1,0.2 z"
   id="path123"
   inkscape:connector-curvature="0"
   style="fill:#a5beff" />
	<path
   class="st28"
   d="m 179.1,28.4 c -2.9,0.5 -5.9,1 -8.8,1.5 -0.2,0 -0.4,0.1 -0.6,0.2 -0.2,0.1 -0.5,-0.3 -0.5,-0.2 -0.3,0.8 -1,2 -1.4,2.8 -0.1,0.2 0.4,0.6 0.3,0.9 -0.1,0.3 0,0.7 0,1 0.1,0.9 0,2.3 0.3,3 0.7,-0.2 1.6,-2 2.2,-2.6 0.8,-0.9 1.7,-1.7 2.7,-2.5 0.9,-0.8 1.9,-1.5 2.9,-2.2 0.5,-0.3 1,-0.7 1.5,-1 0.3,-0.2 0.9,-0.9 1.4,-0.9 z"
   id="path125"
   inkscape:connector-curvature="0"
   style="fill:#061f6a" />
	<path
   class="st27"
   d="m 202.8,41.4 c 2.6,0.3 5.2,0.6 7.8,0.9 0.2,0 0.3,0 0.5,0 0.1,-0.1 0.2,-0.2 0.3,-0.3 0.3,-0.4 0.5,-0.8 0.8,-1.2 -4.8,0 -9.5,-0.3 -14.2,-0.8 -1.2,-0.1 -2.4,-0.3 -3.5,-0.4 -0.7,-0.1 -2.3,-0.6 -2.9,-0.1 -0.4,0.3 -0.5,1 0,1.2 0.3,0.2 1.3,0 1.7,0 0.6,0 1.2,0 1.8,0 2.4,0.1 5.1,0.4 7.7,0.7 z"
   id="path127"
   inkscape:connector-curvature="0"
   style="fill:#a5beff" />
	<path
   class="st27"
   d="m 213.6,74.5 c 1.2,0.5 2.4,1.2 3.6,1.8 3.6,2 7.3,3.9 11.1,5.7 -1.2,0.9 -2.7,1.5 -4.1,2.2 -2.4,1.2 -4.6,2.7 -6.6,4.4 1.7,-0.5 3.4,-1.1 5,-1.6 3.6,-1.1 7.2,-2.3 10.6,-3.9 -3.5,-2.8 -7.5,-4.9 -11.6,-6.9 -2.3,-1.1 -4.6,-2.1 -7.1,-2.9 -1.2,-0.4 -2.4,-0.7 -3.7,-1 -1,-0.2 -2.3,-0.6 -3.4,-0.4 1.8,1.3 4.2,1.8 6.2,2.6 z"
   id="path129"
   inkscape:connector-curvature="0"
   style="fill:#a5beff" />
	<path
   class="st27"
   d="m 227.2,104.6 c 0.6,0 1.2,0.1 1.8,0.4 0.5,0.3 1,0.7 1.1,1.3 -2.6,-0.3 -5.2,-0.4 -7.8,-0.6 -1.3,-0.1 -2.7,-0.1 -4,0 -1.8,0.1 -3.6,0.4 -5.4,0.8 -1.9,0.4 -3.8,0.7 -5.8,1.1 -2.8,0.5 -5.6,1 -8.5,1 -1,0 -2,-0.1 -3,0 1.7,-0.1 3.4,-0.9 5,-1.3 2.1,-0.5 4.2,-1 6.4,-1.4 4.3,-0.8 8.6,-1.3 12.9,-1.4 2.4,-0.1 4.9,-0.1 7.3,0.1 z"
   id="path131"
   inkscape:connector-curvature="0"
   style="fill:#a5beff" />
	<path
   class="st10"
   d="m 159.1,105.5 c 0,0.1 0,0.2 0.1,0.2 0,0 0.1,0.1 0.1,0.1 1.3,0.6 2.7,0.8 4.1,0.8 1.4,0 2.8,-0.3 4.1,-0.6 1.2,-0.3 2.5,-0.8 3.5,-1.5 -1.9,-0.1 -3.9,-0.2 -5.7,-0.6 -1.8,-0.4 -3.7,-1 -5.4,-2 -0.2,-0.1 -0.9,-0.8 -1,-0.8 -0.2,0.1 0,0.8 0,0.9 0.2,1.1 0.1,2.3 0.2,3.5 z"
   id="path133"
   inkscape:connector-curvature="0"
   style="fill:#eb9978" />
	<path
   class="st3"
   d="m 136.7,59.5 c 0.5,-1 1.3,-1.7 2.3,-2.2 1,-0.5 2,-0.8 3.1,-1 1.8,-0.3 3.7,-0.3 5.5,0.2 -0.8,-0.4 -1.5,-0.8 -2.3,-1.2 -1.1,-0.5 -2.2,-1 -3.4,-1.1 -1.3,-0.2 -2.7,0.1 -3.9,0.7 -0.8,0.4 -1.5,1 -1.8,1.9 0,0 0.1,-0.1 0.1,-0.1 0,1 0.1,1.9 0.4,2.8 z"
   id="path135"
   inkscape:connector-curvature="0"
   style="fill:#d3adbe" />
	<path
   class="st3"
   d="m 153.8,85.3 c 0,-1.1 0.1,-2.2 0.5,-3.1 0.5,-0.9 1.4,-1.7 2.5,-1.8 -0.6,-0.8 -1,-1.7 -1.4,-2.6 -0.4,0.4 -0.7,0.8 -1.1,1.1 -0.3,0.3 -0.5,0.6 -0.7,0.9 -0.5,0.8 -0.6,1.7 -0.5,2.7 0.1,1 0.4,1.8 0.7,2.7 0,-0.3 0,-0.6 0,-0.9"
   id="path137"
   inkscape:connector-curvature="0"
   style="fill:#d3adbe" />
	<path
   class="st3"
   d="m 153.5,86.1 c -0.8,2.4 -0.6,5.2 0.3,7.6 0.9,2.4 2.3,4.6 3.9,6.6 -0.6,-1.6 -0.9,-3.3 -0.8,-4.9 0,-0.4 0.1,-0.9 0.4,-1.2 0.3,-0.3 0.7,-0.3 1.1,-0.3 0.4,0.1 0.8,0.2 1.1,0.4 0.7,0.2 1.4,0.3 2.1,0.3 0.1,0 0.2,0 0.3,-0.1 0.2,-0.2 0.1,-0.6 -0.1,-0.8 -1.7,-2 -3.6,-3.9 -5.6,-5.6 -1,-0.8 -1.6,-2 -2.1,-3.1 -0.5,0.4 -0.8,0.6 -0.6,1.1 z"
   id="path139"
   inkscape:connector-curvature="0"
   style="fill:#d3adbe" />
	<path
   class="st3"
   d="m 161.5,86.7 c 0.5,0.9 0.9,1.8 1.5,2.6 2,2.9 5.1,4.9 8.5,5.7 3.4,0.8 7,0.4 10.2,-0.8 -0.5,1.2 -1.5,2.2 -2.6,2.9 -1.1,0.7 -2.4,1.1 -3.7,1.5 0.8,-0.1 1.5,-0.1 2.3,-0.2 0.6,-0.1 1.3,-0.1 1.8,0.3 0.4,0.3 0.5,0.9 0.4,1.4 -0.1,0.5 -0.4,1 -0.7,1.4 1.4,-0.4 2.4,-1.5 3.4,-2.5 1.2,-1.3 2.4,-2.5 3.3,-4.1 0.9,-1.6 1.3,-3.4 0.8,-5 -0.9,0.7 -2,1.1 -3.2,1.4 -2.1,0.6 -4.5,0.8 -6.5,0 -3,-1.1 -4.9,-4.1 -7.3,-6.3 -0.9,-0.7 -1.8,-1.4 -2.9,-1.6 -1.4,-0.3 -2.9,0.1 -4.3,0.1 -1.1,0 -2.3,-0.3 -3.3,-0.7 0.7,0.3 1,0.9 1.2,1.5 0.3,0.8 0.7,1.6 1.1,2.4 z"
   id="path141"
   inkscape:connector-curvature="0"
   style="fill:#d3adbe" />
	<path
   class="st3"
   d="m 173.2,69.6 c 1,1.6 2.2,3.1 3.9,3.8 0.8,0.3 1.6,0.4 2.4,0.5 2.6,0.2 5.3,0 7.9,0.6 -1.3,-1.6 -2.4,-3.2 -3.8,-4.6 -1.4,-1.5 -3,-2.8 -4.8,-3.5 -0.7,-0.3 -1.5,-0.5 -2.2,-0.7 -1.3,-0.3 -2.5,-0.6 -3.8,-0.6 -0.4,0 -0.8,0.1 -1.1,0.1 -0.2,0 -0.8,-0.1 -1,0.1 -0.4,0.3 0.2,0.8 0.4,1 0.7,1.1 1.3,2.2 2.1,3.3 z"
   id="path143"
   inkscape:connector-curvature="0"
   style="fill:#d3adbe" />
	<path
   class="st3"
   d="m 157.8,35.5 c 0.4,-0.9 1,-1.8 1.9,-2.2 0.8,-0.4 1.8,-0.5 2.7,-0.3 0.9,0.2 1.7,0.7 2.5,1.2 1.3,0.9 2.5,1.9 3.5,3.1 -0.4,-2.7 -0.4,-5.3 -0.9,-8 -0.3,-1.6 -1,-3.4 -1.5,-5 -0.4,-1.1 -1.1,-2 -2,-2.7 -1.4,-1.1 -3.3,-1.3 -5,-0.7 -0.6,0.2 -1.1,0.5 -1.6,0.8 -1.1,0.8 -1.2,1.9 -1.6,3.2 -0.3,1.3 -0.8,2.7 -0.8,4 0.1,1.8 0.3,3.6 0.6,5.4 0.3,1.8 0.6,3.7 1.3,5.4 0.1,-0.3 0,-0.5 0,-0.8 0,-0.4 0,-0.8 0.1,-1.2 0.2,-0.7 0.4,-1.5 0.8,-2.2 z"
   id="path145"
   inkscape:connector-curvature="0"
   style="fill:#d3adbe" />
	<path
   class="st3"
   d="m 164.4,56.5 c 0.2,-0.2 0.3,-0.4 0.4,-0.7 0.2,-0.5 0.1,-1 0,-1.5 -0.3,-1 -0.8,-1.8 -1.5,-2.6 0,0 -0.1,-0.1 -0.1,-0.1 -0.1,0 -0.1,0 -0.1,0.1 -0.4,0.4 -0.6,0.9 -0.8,1.5 -0.5,1.3 -0.5,2.7 -0.7,4 0,0.3 -0.4,1.8 -0.3,1.9 0.2,0.2 1.3,-0.9 1.5,-1.1 0.6,-0.4 1.1,-1 1.6,-1.5 z"
   id="path147"
   inkscape:connector-curvature="0"
   style="fill:#d3adbe" />
	<path
   class="st3"
   d="m 187.1,52.1 c -0.4,1.3 -1.2,2.5 -2.1,3.6 0,0.1 -0.1,0.1 -0.1,0.2 0,0 0.1,0 0.2,0 0.7,-0.1 1.4,-0.5 2.1,-0.6 1.3,-0.2 2.7,0.3 3.4,1.3 0.4,-0.4 0.8,-0.7 1.3,-0.9 0.5,-0.2 1.1,-0.4 1.5,-0.7 -0.1,0.1 -1.5,-1.1 -1.6,-1.2 -0.5,-0.4 -1.1,-0.9 -1.6,-1.3 -0.5,-0.5 -1,-0.9 -1.5,-1.4 -0.2,-0.3 -0.5,-0.5 -0.7,-0.8 -0.1,-0.2 -0.3,-0.4 -0.5,-0.2 -0.2,0.2 -0.2,0.6 -0.3,0.8 0.1,0.4 0,0.8 -0.1,1.2 z"
   id="path149"
   inkscape:connector-curvature="0"
   style="fill:#d3adbe" />
	<path
   class="st3"
   d="m 184.3,27.5 c 1,-0.8 2.3,-1.3 3.6,-1.1 1,0.1 1.9,0.6 2.6,1.3 0.7,0.7 1.2,1.5 1.6,2.4 0.3,0.8 0.6,1.6 0.7,2.4 0,0.7 0,1.3 -0.1,2 -0.1,0.9 -0.3,1.8 -0.4,2.7 1.4,-3.6 2.6,-7.3 3.4,-11.1 0.3,-1.5 0.6,-2.9 0.7,-4.4 0,-0.7 0,-1.5 -0.2,-2.2 -0.2,-0.6 -0.7,-1.1 -1.2,-1.5 -1.2,-1 -2.8,-1.4 -4.3,-1.4 -2.8,0 -5.7,1.4 -6.9,4 -0.5,0.9 -0.7,2 -0.9,3 -0.3,1.3 -0.5,2.5 -0.7,3.8 -0.2,1 -0.5,2.4 -0.3,3.4 0.3,-0.4 0.4,-0.9 0.6,-1.2 0.4,-0.9 1.1,-1.5 1.8,-2.1 z"
   id="path151"
   inkscape:connector-curvature="0"
   style="fill:#d3adbe" />
	<path
   class="st3"
   d="m 215,46.1 c 1.2,0 2.5,0 3.6,0.6 0.4,0.2 0.9,0.6 1,1 0.1,0.3 0.1,0.6 0.1,0.9 -0.1,0.8 -0.3,1.5 -0.6,2.2 1.9,-1.8 3.4,-4 4.2,-6.5 0.5,-1.5 0.8,-3.2 0.3,-4.8 -0.5,-1.6 -1.8,-2.9 -3.4,-3.1 -1.2,-0.1 -2.3,0.4 -3.4,0.9 -0.8,0.4 -1.6,0.8 -2.4,1.3 -2.4,1.6 -4.2,4 -6.3,6 -0.6,0.6 -1.3,1.2 -1.9,1.8 -0.6,0.5 -1.2,1.1 -1.8,1.6 3.2,-1.5 7.1,-1.8 10.6,-1.9 z"
   id="path153"
   inkscape:connector-curvature="0"
   style="fill:#d3adbe" />
	<path
   class="st3"
   d="m 197.8,63.8 c 1.3,0.1 2.6,0 3.9,0.4 0.7,0.2 1.3,0.6 2,0.8 2.1,0.7 4.4,0.2 6.6,-0.3 3.6,-0.7 7.4,-1.1 11.1,-1.2 0.9,0 1.9,0 2.6,0.5 1,0.7 1.2,2 1.3,3.1 1.2,-1 1.8,-2.6 1.6,-4.2 -0.2,-1.6 -1.2,-3 -2.7,-3.6 -0.9,-0.4 -1.9,-0.5 -2.9,-0.6 -1.2,-0.1 -2.4,0 -3.6,0.1 -1,0.1 -1.9,0.9 -2.8,1.3 -1.1,0.5 -2.2,0.6 -3.3,0.9 -0.9,0.2 -1.9,0.2 -2.8,0.4 -0.6,0.1 -1.2,0.4 -1.8,0.6 -1.1,0.5 -2.3,0.9 -3.5,0.9 -1.2,0 -2.5,-0.6 -3.1,-1.7 -0.1,-0.2 -0.2,-0.3 -0.3,-0.5 -0.2,-0.1 -0.4,-0.2 -0.6,-0.1 -1,0.1 -1.7,1 -2.7,1.1 -0.7,0.1 -2.8,-0.6 -1.6,0.7 0.6,1 1.6,1.3 2.6,1.4 z"
   id="path155"
   inkscape:connector-curvature="0"
   style="fill:#d3adbe" />
	<path
   class="st29"
   d="m 102.6,117.5 c 0.2,0.9 0.6,1.7 1.1,2.4 1,1.6 2.3,3.1 3.8,4.3 1.5,1.1 3.2,1.9 5,2.5 3.3,1.2 6.8,1.8 10.3,1.9 2.4,0.1 4.9,-0.1 6.7,-1.7 -0.9,1.1 -1.9,2.2 -2.8,3.3 -0.1,0.1 -0.3,0.3 -0.4,0.4 -0.1,0.1 -0.3,0.1 -0.4,0.1 -6.2,0.4 -12.4,-0.8 -18,-3.3 -1.1,-0.5 -2.2,-1.1 -3.2,-1.8 -0.8,-0.6 -1.6,-1.4 -2.3,-2.1 -1.6,-1.6 -3.1,-3.6 -3.2,-5.8 0,-1.6 0.7,-3.1 1.7,-4.3 1.1,-1.3 2.6,-2 3.9,-3 -0.8,0.1 -1.6,2.5 -1.8,3.2 -0.5,1.3 -0.7,2.6 -0.4,3.9 z"
   id="path157"
   inkscape:connector-curvature="0"
   style="fill:#ffe2c6" />
	<path
   class="st30"
   d="m 91.4,119.5 c 2.1,-0.7 4.2,-1.2 6.4,-1.3 0.2,0 0.4,0 0.6,0 0.3,0.1 0.6,0.3 0.9,0.3 0.3,0 0.6,-0.2 0.9,-0.3 0,0 0.1,0 0.1,0 0.1,0 0.1,0.1 0,0.2 -0.1,0.5 -0.4,1 -0.9,1.3 -0.5,0.3 -1,0.5 -1.6,0.6 -2.3,0.5 -4.6,0.5 -6.9,0.3 -0.2,0 -0.8,-0.2 -0.6,-0.5 0.2,-0.4 0.8,-0.5 1.1,-0.6 z"
   id="path159"
   inkscape:connector-curvature="0"
   style="fill:#270e12" />
	<path
   class="st31"
   d="m 90.4,120 c 1,-0.7 2.5,-0.9 3.7,-0.4 0.1,0 0.2,0.1 0.2,0.2 0,0.1 -0.1,0.1 -0.2,0.1 -0.9,0.2 -1.8,0.3 -2.7,0.3 -0.3,0 -0.6,0 -0.8,-0.1 -0.1,0.1 -0.2,0 -0.2,-0.1 0,-0.1 0.1,-0.1 0.2,-0.2"
   id="path161"
   inkscape:connector-curvature="0"
   style="fill:#e0b6be" />
	<path
   class="st32"
   d="m 131.4,136.3 c -4.6,1.2 -7.3,4.7 -8.8,9 0.3,3.3 0.9,8 1.1,8.9 0,0.1 0.1,0.1 0.1,0 1,-3.6 7.4,-10.3 9.7,-12.8 1.5,-1.6 4.6,-3.8 6.8,-7.1 -2.9,1.3 -5.8,1.2 -8.9,2 z"
   id="path163"
   inkscape:connector-curvature="0"
   style="fill:#ffe1b9" />
	<path
   class="st27"
   d="m 165.7,134.1 c -1.1,2.2 -2.5,4.2 -4,6.2 -0.5,0.8 -1.1,1.5 -1.6,2.3 -0.8,1.1 -1.6,2.2 -2.5,3.2 -0.6,0.7 -1.3,1.4 -2.1,2.1 -1.7,1.6 -3.5,3 -5.5,4.3 3.4,-2 6.6,-4.3 9.5,-7.1 0.8,-0.8 1.5,-1.5 2.2,-2.4 0.4,-0.5 0.7,-1 1,-1.5 0.8,-1.4 1.7,-2.7 2.5,-4.1 0.7,-1.1 1.4,-2.2 1.7,-3.5 -0.2,0.2 -0.7,0.3 -1.2,0.5 z"
   id="path165"
   inkscape:connector-curvature="0"
   style="fill:#a5beff" />
	<path
   class="st27"
   d="m 176.1,151.4 c 1.2,0.2 2.3,0.5 3.5,0.9 0.3,0.1 0.5,0.2 0.7,0.3 0.2,0.1 0.3,0.5 0.2,0.7 -2,-0.2 -4,-0.8 -6,-1.1 -2.8,-0.5 -5.6,-0.5 -8.4,-0.6 -4.6,-0.1 -9.1,-0.1 -13.7,0.1 1.4,0 2.9,-0.5 4.3,-0.7 1.6,-0.2 3.1,-0.4 4.7,-0.5 3.2,-0.2 6.3,-0.2 9.5,0.1 1.6,0.2 3.4,0.5 5.2,0.8 z"
   id="path167"
   inkscape:connector-curvature="0"
   style="fill:#a5beff" />
	<path
   class="st28"
   d="m 164.9,137.9 c 1.1,-0.4 2.3,0 3.4,0.4 1,0.4 1.9,0.8 2.9,1.2 0.8,0.4 1.5,0.8 2.2,1.3 0.7,0.5 1.3,1.2 1.9,1.8 0.6,0.7 1.2,1.4 1.8,2.1 -0.4,-2.1 -1.5,-4 -2.8,-5.7 -1.3,-1.7 -2.7,-3.3 -3.9,-5.1 -0.1,-0.2 -0.2,-0.3 -0.4,-0.4 -0.2,-0.1 -0.4,-0.1 -0.6,-0.1 -0.6,0 -1.3,0.1 -1.9,0.3 -0.5,0.2 -0.6,0.4 -0.8,0.8 -0.6,1.1 -1.2,2.3 -1.8,3.4 z"
   id="path169"
   inkscape:connector-curvature="0"
   style="fill:#061f6a" />
	<path
   class="st27"
   d="m 164.9,168.4 c 1,-0.1 2,-0.2 3,-0.2 1,0 2,0.2 2.9,0.4 2.2,0.4 4.5,0.9 6.7,1.3 -1.1,0.4 -2.3,0.7 -3.5,0.8 -7.1,1.1 -14.5,0.5 -21.4,-1.5 -0.7,-0.2 -1.4,-0.4 -2,-0.8 3.4,1.3 7.5,0.8 11,0.4 1.2,-0.2 2.2,-0.3 3.3,-0.4 z"
   id="path171"
   inkscape:connector-curvature="0"
   style="fill:#a5beff" />
	<path
   class="st12"
   d="m 125.7,163.4 c 1,2 2,4.2 3,6.3 0.1,0.3 0.5,0.5 0.7,0.8 1.6,-0.2 3.1,0.5 4.5,1.2 0.5,0.2 1.1,0.5 1.5,0.9 0.5,0.4 0.8,0.9 0.8,1.5 1.5,-0.1 3,-0.4 4.3,-0.9 -1.4,-1 -2.7,-2.2 -3.6,-3.7 -0.3,-0.5 -0.6,-1.1 -0.8,-1.6 -0.2,-0.6 -0.4,-1.2 -0.3,-1.9 0.1,-0.7 0.5,-1.2 1.1,-1.5 0.2,-0.1 0.5,-0.2 0.4,-0.4 -0.1,-0.1 -0.2,-0.1 -0.3,-0.1 -2.9,0 -5.7,-0.1 -8.6,-0.1 -1,-0.2 -1.8,-0.1 -2.7,-0.5 z"
   id="path173"
   inkscape:connector-curvature="0"
   style="fill:#17359e" />
	<path
   class="st28"
   d="m 131.6,168.6 c 2.1,1.2 4.4,2.1 6.8,2.7 -1,-1.6 -1.9,-3.2 -2.7,-4.9 -0.1,-0.2 -0.2,-0.4 -0.2,-0.7 0,-0.3 0.3,-0.6 0.6,-0.8 0.3,-0.2 0.6,-0.3 0.9,-0.5 0.1,-0.1 0.2,-0.2 0.2,-0.3 0,-0.1 -0.1,-0.2 -0.2,-0.3 -0.1,0 -0.3,0 -0.4,0 -1,0.2 -2.1,0.1 -3.2,0 -2.6,-0.1 -5.1,-0.3 -7.7,-0.4 0.1,0 0.5,0.3 0.6,0.4 0.2,0.2 0.4,0.5 0.6,0.8 0.4,0.5 0.9,1 1.4,1.5 1,1 2.1,1.8 3.3,2.5 z"
   id="path175"
   inkscape:connector-curvature="0"
   style="fill:#061f6a" />
	<path
   class="st33"
   d="m 120.4,153.3 c 0,0.1 0,0.3 0.1,0.4 0.1,0.1 0.2,0.1 0.4,0.2 1,0.2 2,0.4 3,0.7 -0.6,-2.8 -0.9,-5.5 -1.1,-8.4 -0.4,0.7 -0.9,1.3 -1.5,1.7 -0.7,0.6 -1.5,1 -1.4,2 0.1,1.1 0.4,2.2 0.5,3.4 z"
   id="path177"
   inkscape:connector-curvature="0"
   style="fill:#e5967d" />
	<path
   class="st3"
   d="m 105.6,150.8 c 1,-0.8 1.2,-2.4 0.8,-3.6 -0.4,-1.2 -1.4,-2.2 -2.4,-3 -0.7,-0.6 -1.5,-1.1 -2.3,-1.1 -1,0 -1.8,0.7 -2.8,0.9 0.8,-0.6 1.3,-1.5 1.4,-2.4 0.1,-0.9 -0.1,-1.9 -0.6,-2.7 -0.6,-0.9 -1.7,-1.5 -2.7,-1.8 -1.1,-0.3 -2.2,-0.2 -3.3,-0.1 0.8,-0.9 0.5,-2.4 -0.2,-3.3 -0.8,-0.9 -1.9,-1.4 -3,-1.9 1.2,-1 2,-2.4 3.1,-3.4 1.1,-1 2.8,-1.7 4.2,-1 0.7,0.3 1.2,0.9 1.6,1.5 1.1,1.3 2.2,2.7 3.3,4 0.8,-1.4 2.1,-2.5 3.7,-2.7 1.6,-0.2 3.3,0.7 3.8,2.2 0.2,0.5 0.2,1.1 0.2,1.7 0,1.5 -0.4,3 -1,4.3 1.1,0.3 1.9,1.3 2.3,2.4 0.4,1.1 0.4,2.3 0.4,3.4 2.4,-0.1 4.8,0.9 6.4,2.6 1.6,1.8 2.3,4.3 1.9,6.7 -5.2,-0.2 -10.2,-2.4 -15.4,-2.3 -0.1,-0.2 0.4,-0.4 0.6,-0.4 z"
   id="path179"
   inkscape:connector-curvature="0"
   style="fill:#d3adbe" />
	<path
   class="st3"
   d="m 90,152.7 c 0.5,-1.2 1.6,-2.1 2.1,-3.4 -0.2,1.5 0.3,3.1 0,4.6 -0.3,1.5 -1.4,2.8 -1.7,4.3 0.1,-1 -0.3,-1.6 -0.5,-2.5 -0.2,-1 -0.2,-2 0.1,-3 z"
   id="path181"
   inkscape:connector-curvature="0"
   style="fill:#d3adbe" />
	<path
   class="st12"
   d="m 101.9,163.5 c -0.5,-1.2 -0.9,-2.4 -1.6,-3.5 -0.7,-1.1 -1.6,-2.1 -1.7,-3.3 3.8,0.7 7.4,2.1 10.6,4.2 -1.4,-0.2 -2.8,-0.3 -4.1,-0.3 2.4,2 5.6,3 7.9,5.2 -0.1,-0.1 -1.2,0.3 -1.4,0.4 -0.5,0.2 -0.9,0.4 -1.3,0.7 -0.8,0.5 -1.6,1.2 -2.2,1.9 -0.2,0.3 -0.5,1 -0.9,1 -0.4,0.1 -0.9,-0.5 -1.2,-0.8 -0.8,-0.7 -1.5,-1.5 -2.1,-2.4 -0.8,-0.9 -1.4,-2 -2,-3.1 z"
   id="path183"
   inkscape:connector-curvature="0"
   style="fill:#17359e" />
	<path
   class="st27"
   d="m 98.1,167.9 c 2.2,1.7 4.5,3.4 6.7,5.1 -0.7,0.9 -1.2,2 -1.7,3.1 -0.6,-1.2 -1.9,-2 -2.8,-2.9 -0.4,-0.4 -0.8,-0.9 -1.1,-1.3 -1,-1.3 -2,-2.6 -3,-4 -0.5,-0.7 -1,-1.3 -1.5,-2 -0.2,-0.3 -1,-1.8 -1.4,-1.8 1.4,1.4 3.2,2.6 4.8,3.8 z"
   id="path185"
   inkscape:connector-curvature="0"
   style="fill:#a5beff" />
	<path
   class="st3"
   d="m 112.7,186.2 c 0,-0.4 0,-0.7 -0.1,-1.1 -0.1,-0.4 -0.3,-0.7 -0.7,-0.8 -0.5,-0.1 -0.9,0.2 -1.3,0.5 -0.7,0.7 -1.4,1.5 -1.8,2.5 0.8,-0.9 1.6,-1.8 2.7,-2.3 0.1,-0.1 0.3,-0.1 0.4,0 0.2,0.1 0.2,0.4 0.1,0.6 -0.5,2 -1.8,3.7 -2.8,5.5 -1,1.8 -1.9,3.8 -1.5,5.9 0,0.1 0,0.1 0.1,0.2 0.1,0.1 0.2,0.1 0.3,0.1 0.9,0.1 1.7,0.3 2.5,0.7 0.7,0.4 1.3,1.2 1.3,2.1 0.1,-2.2 0.1,-4.4 0.3,-6.5 0.1,-2.5 0.3,-5 0.5,-7.4 z"
   id="path187"
   inkscape:connector-curvature="0"
   style="fill:#d3adbe" />
	<path
   class="st3"
   d="m 113.1,165.5 c -3.4,1.6 -6.2,4.3 -8,7.5 1.1,-0.6 2.1,-1.3 3.3,-1.6 1.2,-0.3 2.6,-0.2 3.5,0.6 0.8,0.6 1.2,1.7 1.5,2.7 0.6,2.6 0.2,5.3 -0.3,7.9 1.3,-2.6 3.5,-4.7 6,-6 1.3,-0.7 3,-1.2 4.3,-0.5 1,0.4 1.6,1.3 2.2,2.2 0.6,0.9 1,1.9 1.4,2.9 0.1,0.2 0.1,0.4 0.1,0.6 0,0.3 -0.2,0.5 -0.4,0.7 -1,1.3 -2,2.6 -2.9,3.9 -1,1.5 -2,3.1 -2.4,4.9 -0.4,1.9 0,3.8 0.7,5.6 0.7,1.8 1.7,3.4 2.8,5 0.2,-3.1 0.8,-5.8 1,-9 0.2,-2.5 1,-6.7 1,-7.6 0,-1.4 1.5,-2.4 2.4,-3.6 1.5,-1.9 3,-3.8 4.7,-5.5 0.8,-0.8 1.8,-1.8 1.6,-2.9 -0.2,-1.3 -1.7,-1.8 -2.9,-2.1 -2.3,-0.6 -4.6,-1.1 -6.9,-1 -0.5,0 -1,0.1 -1.4,-0.1 -0.3,-0.1 -0.6,-0.4 -0.9,-0.6 -1.4,-1.3 -2.9,-2.5 -4.4,-3.8 0.3,-1 0.6,-1.9 1.1,-2.9 -3.9,-0.9 -7.8,-1.4 -11.8,-1.7 -1.2,-0.1 -2.4,-0.2 -3.6,-0.2 l 5.9,3.5 z"
   id="path189"
   inkscape:connector-curvature="0"
   style="fill:#d3adbe" />
	<path
   class="st34"
   d="m 137.7,227.9 c -1.3,0 -3,0 -3.6,-1.4 -0.8,-2.1 -0.7,-4.5 -1.4,-6.7 -0.1,0 -0.3,0 -0.4,0 0.1,2.2 0,5.7 0,5.7 0,0.7 0,1.3 0.2,2 0.2,0.7 0.6,1.3 1.2,1.5 0.9,0.4 1.9,0 2.8,-0.2 0.8,-0.1 1.6,0 2.4,-0.1 0.8,-0.1 1.6,-0.4 2.1,-1 0.3,-0.4 0.4,-0.9 0.4,-1.5 -0.6,1.1 -1.9,1.7 -3.7,1.7 z"
   id="path191"
   inkscape:connector-curvature="0"
   style="fill:#fbffe3" />
	<path
   class="st35"
   d="m 132.4,218.8 c 1.3,-0.1 2.7,0 4,0.2 -0.1,-1.8 -0.1,-3.7 0.3,-5.4 0.1,-0.4 0.6,-0.4 0.8,-0.2 0.1,0.1 0.2,0.2 0.3,0.3 0.1,0 0.2,0 0.3,0.1 1.4,1.5 1.1,3.8 1,5.6 0,0 0,0 0,0.1 0.6,0.1 1.2,0.2 1.8,0.3 0.3,0 0.5,0.1 0.8,0.1 0.1,-2.5 0.1,-5 0.1,-7.3 0,0 0,-1.6 -2.5,-1.7 -2.5,-0.1 -7,0.1 -7.1,0.9 -0.1,0.8 -0.1,5.3 0,6.8 0.2,-0.1 0.2,0.1 0.2,0.2 z"
   id="path193"
   inkscape:connector-curvature="0"
   style="fill:#f08b45" />
	<path
   class="st36"
   d="m 132.1,215.4 c 0.1,0.1 0.2,0.2 0.3,0.3 0.1,0.1 0.1,0.3 0.1,0.4 0,1 0,2 0,3 0,0.5 0,1 0,1.4 0.1,1 0.4,1.9 0.1,2.9 -1,-1.6 -1.5,-3.4 -1.9,-5.3 -0.2,-0.9 -0.3,-1.8 -0.4,-2.7 -0.1,-0.8 -0.3,-1.7 -0.3,-2.5 0.3,0.3 0.5,0.8 0.8,1.1 0.4,0.5 0.8,1 1.3,1.4 z"
   id="path195"
   inkscape:connector-curvature="0"
   style="fill:#fff9fd" />
	<path
   class="st37"
   d="m 138,229 c 1.4,-0.1 2.8,-0.7 3.9,-1.6 -0.4,1.6 -0.6,3.3 -0.8,5 -0.1,1.2 -0.3,2.4 -0.1,3.6 0.1,1 0.4,2 0.5,3 0.1,0.8 0.1,1.6 0.2,2.5 0.1,1.6 0.1,3.2 0.2,4.8 -1,-0.6 -1.7,-1.4 -2.4,-2.3 -0.9,-1 -1.7,-2 -2.5,-3.1 -0.8,-1.1 -1.5,-2.2 -1.8,-3.5 -0.2,-0.9 -0.3,-1.8 -0.3,-2.7 0,-0.8 0,-1.5 0,-2.3 0,-0.7 -0.2,-1.7 0.1,-2.4 0.2,-1.1 2.1,-0.9 3,-1 z"
   id="path197"
   inkscape:connector-curvature="0"
   style="fill:#e65c3e" />
	<path
   class="st38"
   d="m 138.6,247.6 c 0.9,1.3 2,2.4 3.2,3.3 0.5,0.4 1.1,0.8 1.8,0.9 -0.9,-1.5 -1.5,-3.2 -1.8,-4.9 -0.1,-0.4 -0.1,-0.7 -0.2,-1 -0.1,-0.4 -0.4,-0.7 -0.6,-1 -2,-2.6 -4.1,-5.1 -5.7,-8 0.2,3.7 1.2,7.7 3.3,10.7 z"
   id="path199"
   inkscape:connector-curvature="0"
   style="fill:#edb296" />
	<path
   class="st39"
   d="m 131.9,215.1 c 0.3,-0.6 0.4,-1.3 0.3,-2 -0.9,-1.1 -1.7,-2.2 -2.5,-3.3 -1.8,-2.5 -3.4,-5 -4.4,-7.9 0.1,0.4 -0.2,1.2 -0.2,1.6 0,0.6 0,1.1 0.1,1.7 0.1,0.8 0.3,1.3 0.7,2 1.1,1.8 2.2,3.6 3.5,5.3 0.8,0.9 1.6,1.8 2.5,2.6 z"
   id="path201"
   inkscape:connector-curvature="0"
   style="fill:#f3b1a4" />
	<path
   class="st40"
   d="m 128,184.1 c 2.5,-1.7 5.4,-2.8 8.4,-3.4 3,-0.6 6,-1 9.1,-1.2 0.7,-2.2 1.9,-4.3 3.4,-5.9 -1.8,-0.2 -3.6,-0.2 -5.4,-0.3 -0.7,0 -1.4,0 -2.1,0 -1,0.1 -1.9,0.4 -2.9,0.6 -0.3,0.1 -2.8,0.4 -2.5,-0.2 -2.4,2.3 -4.5,5.1 -6.4,7.8 -0.5,0.8 -1.1,1.7 -1.6,2.6 z"
   id="path203"
   inkscape:connector-curvature="0"
   style="fill:#b01f1d" />
	<path
   class="st41"
   d="m 148.9,173.5 1.6,0.3 c -0.8,0.6 -1.7,1.3 -1.9,2.4 0,0.2 -0.1,0.4 0.1,0.5 0.1,0.1 0.3,0.1 0.4,0.1 0.6,-0.1 1,-0.5 1.5,-0.8 1,-0.7 2.1,-1.2 3.3,-1.4 l 2.6,0.2 -2.3,0.7 -4.5,2.2 -3.5,4.1 c -0.3,-0.1 -0.6,-0.4 -0.7,-0.7 -0.1,-0.3 -0.1,-0.7 -0.1,-1 0.2,-2.5 1.5,-4.8 3.4,-6.4"
   id="path205"
   inkscape:connector-curvature="0"
   style="fill:#f1d5d1" />
	<path
   class="st42"
   d="m 174.8,250.9 c -4.7,-0.6 -9.2,-3.4 -11.8,-7.4 0.1,1.8 0.2,3.6 0.3,5.5 0,0.3 0,0.7 0,1 -0.1,0.4 -0.2,0.7 -0.4,1.1 -0.2,0.5 -0.8,1.9 -0.1,2.1 0.3,0.1 0.9,-0.1 1.3,-0.1 0.5,-0.1 1,-0.1 1.5,-0.2 2,-0.3 4,-0.6 5.9,-1.1 1.1,-0.3 2.2,-0.6 3.3,-0.9 z"
   id="path207"
   inkscape:connector-curvature="0"
   style="fill:#c9aeb9" />
	<path
   class="st43"
   d="m 162.6,253.2 c 0.5,1.5 1.6,2.7 2.8,3.8 0.6,0.6 1.2,1.1 1.8,1.6 2.3,1.8 5.2,2.8 8.1,2.8 -1,3.1 -1.3,6.4 -2.2,9.5 -0.4,1.2 -0.8,2.4 -1.2,3.7 -0.5,1.8 -0.9,3.7 -1.1,5.6 -2.7,-1.2 -4.9,-3.3 -6.4,-5.8 -1.4,-2.3 -2.3,-5 -2.6,-7.7 -0.3,-2.7 0,-5.6 0.2,-8.3 0.1,-0.9 0.1,-1.8 0.2,-2.6 0,-0.4 0.1,-0.8 0.1,-1.3 0.1,-0.3 0.3,-1 0.3,-1.3 z"
   id="path209"
   inkscape:connector-curvature="0"
   style="fill:#df5035" />
	<path
   class="st44"
   d="m 170.9,279.3 c -0.6,-0.5 -1.2,-1.1 -1.9,-1.6 -1,-0.9 -2,-1.7 -2.9,-2.7 -2.4,-2.6 -3.6,-6 -4.6,-9.4 0.4,3.4 1.3,6.7 2.7,9.9 0.4,1 0.9,2 1.6,2.9 0.4,0.4 0.8,0.8 1.2,1.1 0.8,0.7 1.7,1.3 2.6,1.9 0.5,0.3 1.1,0.7 1.4,1.3 -0.5,-0.9 -0.3,-2.4 -0.1,-3.4 z"
   id="path211"
   inkscape:connector-curvature="0"
   style="fill:#f1bf8e" />
	<path
   class="st40"
   d="m 168.4,212.9 c -0.8,1 -1.4,2.1 -1.4,3.4 2.2,0 4.4,0 6.6,0 2,0 3.9,0 5.9,0.1 3.2,0.1 6.4,0.4 9.5,0.7 0.2,0 0.5,0 0.7,0 0.2,0 0.4,-0.2 0.5,-0.2 1.2,-0.7 2.6,-1.1 4,-1.2 -2,-1.6 -4.3,-2.7 -6.7,-3.7 -1.4,-0.6 -2.7,-1.1 -4.1,-1.7 -1.4,-0.6 -2.9,-1.1 -4.3,-1.6 -1.5,-0.4 -3,-0.5 -4.6,-0.5 0.1,-0.1 0.1,-0.2 0.2,-0.2 -0.5,0.4 -1.1,0.6 -1.6,0.9 -0.6,0.4 -1.2,0.7 -1.7,1.2 -1.1,0.7 -2.1,1.7 -3,2.8 z"
   id="path213"
   inkscape:connector-curvature="0"
   style="fill:#b01f1d" />
</g>
<g
   id="Слой_6"
   transform="translate(-68.493103,-13.602954)">
	<path
   class="st45"
   d="m 230.2,106.3 c -10.6,-1.6 -29.5,2.2 -29.5,2.2 -0.2,0 -0.4,0 -0.6,0 -17.9,0.4 -32.3,6.5 -32.3,6.5 9.3,0.9 20.7,14.1 20.7,14.1 l -18.6,4.6 c 10.7,13.5 10.7,19.9 10.7,19.9 -6.7,-2.4 -28.9,-1.6 -28.9,-1.6 l -5.7,2.5 -2.1,2.5 c 8.1,9.7 34.1,13.1 34.1,13.1 0,0 -2,1.5 -12.7,1 -10.7,-0.4 -28.3,-6.6 -28.3,-6.6 l -1.4,0.9 c -0.5,3.4 4.9,8 4.9,8 13.6,-0.3 22.4,3.2 22.4,3.2 5.6,9.4 4.2,20.8 4.3,21.1 0.1,0.3 1,-0.3 1,-0.3 l 3.2,5.2 4.9,4.7 -1.6,0.8 c 17.5,1.9 26.1,13.8 26.1,13.8 0,0 -1.6,20.3 -4,28.7 -2.4,8.4 -7.9,27.8 -15.9,32.4 -7.9,4.7 -10.5,-1.2 -10.5,-1.2 -6.8,-3.3 -7.2,-8.4 -8.6,-14.2 -1.4,-5.8 1.6,-20.1 1.6,-20.1 l -0.9,-6.5 c 0,0 -1.4,9.3 -8.7,12.4 -7.3,3.1 -10,-1.4 -10,-1.4 -11,-4.7 -8.6,-22.6 -8.6,-22.6 -3.3,0 -2.6,-4.4 -2.6,-4.4 -3.3,-8.4 -2.6,-11.4 -2.6,-11.4 l -4.7,-7 c 0,0 -4.9,-1.2 -9.6,-3.3 -4.7,-2.1 -4.4,-4.7 -4.4,-4.7 0,0 -3.7,-1.2 -7.7,-1.9 -4,-0.7 -3.5,-4.4 -3.5,-4.4 0.2,-9.8 2.8,-16.3 2.8,-16.3 l -3,-3 c 0,0 -2.6,0.7 -5.8,-4 -3.2,-4.7 -5.6,-11.4 -5.6,-11.4 L 87,156 l -1.2,-4.2 -1.6,-2.7 -0.3,-5.1 -1.1,-4.5 c 0.5,-1.6 4.4,-4.5 4.4,-4.5 l 5.9,-6.3 c 1.9,-2.7 5.2,-1.1 5.2,-1.1 l 4.1,5.1 c 2.1,-2.6 5.8,-3.7 7.7,-0.5 1.9,3.2 -0.8,6.3 -0.8,6.3 2.7,2.1 2.7,5.6 2.7,5.6 4.4,0 7.7,5.1 7.7,5.1 l 2.7,-2.1 c -0.3,-9.6 4,-16.3 4,-16.3 0,0 -8,1 -15.8,-1.8 -7.8,-2.7 -11.4,-8.8 -11.4,-8.8 0,0 -8.9,1.6 -8.9,0 0,-1.6 8.5,-1.9 8.5,-1.9 l 0.3,-3 -2.7,-2.6 C 90.4,109.8 84.3,99.1 83.9,96.4 83.5,93.7 86.4,89.3 86.4,89.3 75.2,82.7 69.2,76.4 69.2,76.4 73.4,72.4 93,67 93,67 l 1.3,-2.2 -8.9,-18.6 c 7.3,-1.7 18.8,1.8 18.8,1.8 0,0 30.5,-36.9 72.7,-33.7 0,0 -5.5,9.6 -7.3,15.8 0,0 8.4,-2.2 10.8,-1.7 l -4.5,12 4.5,-0.1 2.1,-13.4 c 0,0 -0.3,-6.4 3.6,-9.1 3.9,-2.7 9.6,-1.7 10.4,1.9 0.8,3.6 -4.8,19.7 -4.8,19.7 l 20.7,1.5 c 0,0 6.4,-6.7 10,-3.7 3.6,3 0.1,12.9 -5.8,15.4 l -9.1,9.3 c 0,0 5,-0.5 8.7,-2.2 3.7,-1.7 9.9,-1.5 10.7,3.2 0.8,4.7 -7.1,7.5 -10.8,8.1 -3.7,0.6 -5.3,1 -5.3,1 0,0 15.4,5 22.4,11 l -19.8,7.2 c 0,0.1 13.5,9.4 16.8,16.1 z"
   id="path216"
   inkscape:connector-curvature="0"
   style="fill:none;stroke:#000000;stroke-miterlimit:10" />
	<g
   id="g220">
		<path
   d="m 98.2,46.6 c 1.8,0.3 3.5,0.7 5.3,1.2 1.7,0.4 3.5,0.9 5.2,1.3 3.5,0.9 6.9,1.9 10.3,3.1 v 0 0 c 0.4,0.2 0.7,0.4 1,0.6 0.3,0.2 0.6,0.5 0.8,0.8 0.5,0.6 0.8,1.3 0.9,2 -0.3,-0.7 -0.7,-1.3 -1.2,-1.7 -0.3,-0.2 -0.5,-0.4 -0.8,-0.6 -0.3,-0.2 -0.6,-0.3 -0.9,-0.5 v 0 C 115.3,52 111.9,51 108.4,50 c -1.7,-0.5 -3.4,-1.1 -5.1,-1.6 -1.7,-0.5 -3.4,-1.1 -5.1,-1.8 z"
   id="path218"
   inkscape:connector-curvature="0" />
	</g>
	<g
   id="g224">
		<path
   d="m 93.5,63.3 c 1,0.8 1.8,1.7 2.5,2.7 0.7,1 1.3,2.1 1.6,3.3 -1,-0.8 -1.8,-1.7 -2.5,-2.7 -0.6,-1 -1.2,-2 -1.6,-3.3 z"
   id="path222"
   inkscape:connector-curvature="0" />
	</g>
	<g
   id="g228">
		<path
   d="m 100,65.6 c -2.2,-2.8 -4.4,-5.7 -6.5,-8.6 -1,-1.5 -2.1,-2.9 -3,-4.5 -0.2,-0.4 -0.5,-0.8 -0.7,-1.2 -0.1,-0.2 -0.2,-0.4 -0.3,-0.7 l -0.1,-0.2 c 0,-0.1 0,-0.3 0,-0.4 0.1,-0.2 0.2,-0.3 0.3,-0.3 0.1,0 0.2,0 0.2,0 0.1,0 0.2,0 0.3,0 1,0.2 1.8,0.6 2.7,0.9 3.3,1.4 6.6,3 9.8,4.6 3.2,1.6 6.4,3.3 9.6,5 l 0.9,0.5 -1,0.2 c -2.3,0.6 -4.6,1.3 -6.8,2.1 -1.1,0.4 -2.2,0.9 -3.3,1.4 -1.1,0.5 -2.1,1.1 -3.1,1.9 1.8,-1.6 4,-2.7 6.2,-3.7 2.2,-1 4.5,-1.7 6.8,-2.4 l -0.1,0.7 -9.6,-4.8 c -3.2,-1.6 -6.4,-3.2 -9.7,-4.6 -0.8,-0.3 -1.7,-0.7 -2.4,-0.9 0,0 -0.1,0 -0.1,0 0,0 0,0 0,0 0,0 0.1,-0.1 0.2,-0.2 0,0 0,-0.1 0,-0.1 v 0.1 c 0.1,0.2 0.1,0.4 0.2,0.6 0.2,0.4 0.4,0.8 0.6,1.2 0.9,1.5 1.9,3.1 2.9,4.6 z"
   id="path226"
   inkscape:connector-curvature="0" />
	</g>
	<g
   id="g232">
		<path
   d="m 93.4,67.2 c -1.1,3.1 -2.2,6.3 -3,9.4 -0.9,3.2 -1.5,6.4 -1.7,9.7 -0.2,3.3 0,6.6 0.6,9.8 0.1,0.8 0.4,1.6 0.6,2.4 0.3,0.8 0.5,1.6 0.8,2.3 0.6,1.6 1.4,3 2.3,4.4 -2.1,-2.6 -3.6,-5.7 -4.3,-9 -0.8,-3.3 -1.1,-6.6 -1,-10 0.2,-3.4 0.8,-6.7 1.7,-9.9 0.9,-3.2 2,-6.4 3.2,-9.5 z"
   id="path230"
   inkscape:connector-curvature="0" />
	</g>
	<g
   id="g236">
		<path
   d="m 100.1,88.7 c -0.5,-3.1 -0.7,-6.3 -0.6,-9.4 0.1,-1.6 0.2,-3.2 0.6,-4.7 0.4,-1.5 1,-3.2 2.4,-4.3 0.2,-0.1 0.4,-0.2 0.6,-0.4 0.2,-0.1 0.4,-0.2 0.6,-0.2 0.4,-0.1 0.8,-0.2 1.2,-0.3 0.8,-0.1 1.6,-0.2 2.5,-0.1 1.6,0.1 3.2,0.7 4.6,1.5 2.8,1.7 5,3.9 7.1,6.2 -1.2,-1 -2.4,-2 -3.6,-3 -1.2,-1 -2.5,-1.9 -3.9,-2.6 -1.4,-0.7 -2.8,-1.2 -4.3,-1.3 -0.7,-0.1 -1.5,0 -2.2,0.1 -0.4,0.1 -0.7,0.2 -1.1,0.3 l -0.5,0.2 c -0.1,0.1 -0.3,0.2 -0.4,0.3 -1.1,0.8 -1.7,2.3 -2.1,3.8 -0.4,1.5 -0.6,3 -0.8,4.6 -0.1,1.5 -0.2,3.1 -0.2,4.7 0.1,1.4 0.1,3 0.1,4.6 z"
   id="path234"
   inkscape:connector-curvature="0" />
	</g>
	<g
   id="g240">
		<path
   d="m 89.8,76.8 c -2.8,0.2 -5.6,0.4 -8.3,0.7 -2.8,0.3 -5.5,0.6 -8.2,1.1 l 0.2,-0.9 c 2.5,1.6 4.9,3.2 7.3,4.8 l 3.7,2.4 c 1.2,0.8 2.4,1.6 3.7,2.4 -1.4,-0.6 -2.6,-1.3 -3.9,-2 L 80.5,83.1 C 78,81.6 75.5,80 73,78.4 l -1.1,-0.7 1.2,-0.2 c 2.8,-0.5 5.6,-0.8 8.4,-0.9 2.7,0 5.5,0 8.3,0.2 z"
   id="path238"
   inkscape:connector-curvature="0" />
	</g>
	<g
   id="g244">
		<path
   d="m 97.6,105.9 c 0.2,1.4 0.7,2.9 1.8,3.9 1.1,0.9 2.8,0.8 3.9,0 1.1,-0.8 1.2,-2.4 1.2,-3.9 0,-1.5 -0.1,-2.9 -0.2,-4.4 -0.2,-3 -0.1,-5.9 0,-8.9 0.1,-3 0.3,-5.9 0.7,-8.9 0.2,-1.5 0.5,-2.9 0.9,-4.4 0.2,-0.7 0.5,-1.5 0.9,-2.2 0.2,-0.3 0.5,-0.7 1,-0.9 0.2,0 0.5,-0.1 0.7,-0.1 0.2,0 0.4,0 0.6,0 1.6,0.3 2.9,1.2 4.1,2.2 1.2,1 2.2,2.1 3.1,3.3 1.8,2.4 3.2,5.1 3.9,8 0.4,1.4 0.8,2.9 1.1,4.3 0.3,1.4 0.6,2.9 0.6,4.4 -0.3,-2.9 -1.3,-5.8 -2.2,-8.6 -0.8,-2.8 -2.2,-5.4 -4.1,-7.7 -0.9,-1.1 -1.9,-2.2 -3.1,-3.1 -1.1,-0.9 -2.4,-1.7 -3.7,-1.9 h -0.5 c -0.2,0 -0.3,0.1 -0.4,0.1 -0.2,0.1 -0.4,0.3 -0.6,0.5 -0.4,0.5 -0.6,1.2 -0.8,1.9 -0.4,1.4 -0.6,2.8 -0.9,4.3 -0.8,5.8 -1.1,11.7 -0.9,17.6 0,1.5 0.1,3 0,4.5 -0.1,0.8 -0.1,1.5 -0.3,2.3 -0.2,0.7 -0.6,1.5 -1.3,2 -0.7,0.5 -1.5,0.6 -2.2,0.6 -0.8,0 -1.6,-0.3 -2.1,-0.8 -0.7,-1.1 -1,-2.6 -1.2,-4.1 z"
   id="path242"
   inkscape:connector-curvature="0" />
	</g>
	<g
   id="g248">
		<path
   d="m 99.1,115.8 c -0.2,-0.6 0.2,-0.9 0.4,-1.3 0.2,-0.4 0.5,-0.8 0.8,-1.1 0.6,-0.7 1.2,-1.4 1.9,-2 1.4,-1.2 3.1,-2 4.8,-2.6 3.4,-1.2 6.8,-2.3 10.3,-3.1 v 0 l -0.3,0.2 c 1,-2.2 2.2,-4.2 3.5,-6.3 1.3,-2 2.7,-4 4.4,-5.7 1.7,-1.8 4,-2.9 6.4,-3.4 1.2,-0.2 2.4,-0.3 3.7,-0.1 1.2,0.2 2.4,0.6 3.5,1.2 1.1,0.6 2,1.5 2.8,2.4 0.3,0.5 0.7,1 1,1.5 l 0.4,0.8 c 0.1,0.3 0.2,0.6 0.3,0.8 0.9,2.3 1.1,4.7 1.1,7.1 0,2.4 -0.3,4.8 -0.7,7.1 -0.4,2.3 -1,4.6 -1.7,6.9 1.2,-4.6 1.9,-9.3 1.9,-14 -0.1,-2.3 -0.3,-4.7 -1.2,-6.8 -0.1,-0.3 -0.2,-0.5 -0.3,-0.8 l -0.4,-0.7 c -0.3,-0.5 -0.7,-0.9 -1,-1.4 -0.8,-0.8 -1.6,-1.7 -2.6,-2.2 -1,-0.5 -2.1,-0.9 -3.2,-1 -1.1,-0.1 -2.3,0 -3.4,0.2 -1.1,0.2 -2.2,0.7 -3.2,1.2 -1,0.5 -1.9,1.2 -2.7,2 -1.6,1.6 -3,3.5 -4.3,5.5 -1.3,2 -2.5,4 -3.6,6.1 l -0.1,0.2 h -0.2 v 0 c -1.7,0.4 -3.4,0.9 -5.1,1.5 -1.7,0.5 -3.4,1 -5.1,1.6 -1.7,0.6 -3.3,1.3 -4.6,2.4 -0.7,0.5 -1.3,1.2 -1.9,1.8 -0.3,0.3 -0.5,0.7 -0.8,1.1 -0.2,0.2 -0.3,0.6 -0.8,0.9 z"
   id="path246"
   inkscape:connector-curvature="0" />
	</g>
	<g
   id="g260">
		<path
   class="st46"
   d="m 114.3,98.6 c 0.8,1.6 2,3 3.6,4 0.2,0.1 0.3,0.2 0.5,0.3 0.1,0 0.1,0.1 0.2,0 0.1,0 0.1,-0.1 0.1,-0.1 0.5,-0.6 1,-1.3 1.4,-2 0,0 0,-0.1 0,-0.1 0,0 0,-0.1 0,-0.1 -0.2,-0.3 -0.3,-0.6 -0.5,-0.9 -0.6,-1.3 -1.3,-2.6 -2,-3.7 -0.1,-0.1 -0.2,-0.2 -0.3,-0.2 -0.1,0 -0.1,0 -0.2,0.1 -0.6,0.5 -1.2,1 -1.7,1.6 -0.3,0.3 -0.6,0.8 -0.4,1.2"
   id="path250"
   inkscape:connector-curvature="0"
   style="fill:#9ed47a" />
		<path
   class="st47"
   d="m 116.4,98.6 c 0.3,-0.2 0.6,-0.6 0.9,-0.9 0.2,-0.2 0.3,-0.5 0.4,-0.7 0.2,-0.7 -0.2,-1.4 -0.6,-2 -0.8,-1.2 -1.8,-2.3 -3.1,-2.8 -0.1,0 -0.2,-0.1 -0.4,-0.1 -0.2,0 -0.5,0.2 -0.6,0.3 -0.4,0.4 -0.5,1.1 -0.5,1.7 0,0.6 0.2,1.2 0.4,1.7 0.1,0.4 0.2,0.7 0.4,1.1 0.2,0.7 0.5,1.5 1.1,2.1 0.4,0.4 1.5,-0.1 2,-0.4 z"
   id="path252"
   inkscape:connector-curvature="0"
   style="fill:#194e2e" />
		<path
   class="st45"
   d="m 118.1,96.5 c 1,1.6 1.7,3.2 2,4.4 -0.3,0.4 -0.7,1.2 -1.2,2 -1.2,-0.3 -2.9,-1.9 -4.3,-4.2 -1.9,-2.9 -2.6,-5.8 -1.6,-6.4 0.9,-0.5 3.2,1.4 5.1,4.2 z"
   id="path254"
   inkscape:connector-curvature="0"
   style="fill:none;stroke:#000000;stroke-miterlimit:10" />
		<ellipse
   transform="matrix(0.8462,-0.5329,0.5329,0.8462,-34.2717,77.0084)"
   cx="116.3"
   cy="97.900002"
   rx="0.69999999"
   ry="3.5"
   id="ellipse256" />
		
			<ellipse
   transform="matrix(0.8462,-0.5329,0.5329,0.8462,-33.7771,76.4531)"
   class="st0"
   cx="115.5"
   cy="96.699997"
   rx="0.69999999"
   ry="2.2"
   id="ellipse258"
   style="fill:#ffffff" />
	</g>
	<g
   id="g264">
		<path
   d="m 123.4,116 c 1,-1.3 1.7,-2.8 2.3,-4.3 0.5,-1.5 0.9,-3.1 1,-4.7 0.1,-1.6 0.2,-3.3 0.2,-4.9 l 0.1,-2.4 v -1.2 c 0,-0.4 0,-0.9 -0.1,-1.1 l -0.1,-0.7 0.7,0.2 c 2.2,0.5 3.8,2.1 4.6,4.1 0.8,2 0.9,4.1 0.6,6.1 -0.3,2 -1.1,4 -2.5,5.5 -0.7,0.7 -1.5,1.4 -2.4,1.8 -0.9,0.5 -1.9,0.8 -2.9,0.7 2,-0.1 3.7,-1.4 4.9,-2.8 1.2,-1.5 1.9,-3.4 2.1,-5.3 0.2,-1.9 0,-3.9 -0.7,-5.6 -0.4,-0.8 -0.9,-1.6 -1.6,-2.2 -0.7,-0.6 -1.5,-1.1 -2.3,-1.3 l 0.6,-0.6 c 0.1,0.5 0.1,0.9 0.1,1.3 v 1.2 c 0,0.8 -0.1,1.7 -0.1,2.5 -0.1,1.6 -0.2,3.3 -0.4,4.9 -0.3,1.6 -0.7,3.3 -1.3,4.8 -0.8,1.4 -1.6,2.9 -2.8,4 z"
   id="path262"
   inkscape:connector-curvature="0" />
	</g>
	<g
   id="g268">
		<path
   d="m 97.7,118.2 c 0.5,0.1 0.9,0.2 1.3,0 0.4,-0.1 0.8,-0.4 1.2,-0.6 v 0 l 1,-0.1 -0.4,0.8 c -0.5,1 -1.3,1.6 -2.2,1.7 0.8,-0.4 1.2,-1.3 1.3,-2 l 0.6,0.6 v 0 c -0.5,0 -0.9,0.1 -1.5,0.1 -0.4,0 -0.9,-0.2 -1.3,-0.5 z"
   id="path266"
   inkscape:connector-curvature="0" />
	</g>
	<g
   id="g272">
		<path
   d="m 96.6,112.4 c 0.8,0 1.4,0.1 2,0.3 0.6,0.2 1.2,0.4 1.8,0.9 -0.7,0.3 -1.4,0.3 -2.1,0.1 -0.7,-0.3 -1.3,-0.6 -1.7,-1.3 z"
   id="path270"
   inkscape:connector-curvature="0" />
	</g>
	<g
   id="g276">
		<path
   d="m 171.1,50.1 c -0.3,-0.3 -0.5,-0.6 -0.6,-0.9 l -0.3,-1 c -0.2,-0.7 -0.4,-1.4 -0.6,-2.1 -0.4,-1.4 -0.7,-2.8 -1,-4.2 -0.3,-1.4 -0.5,-2.8 -0.7,-4.3 -0.2,-1.4 -0.2,-2.9 -0.3,-4.3 -0.2,-2.8 -0.7,-5.7 -1.8,-8.2 -0.6,-1.3 -1.4,-2.4 -2.5,-3.2 -1.1,-0.7 -2.5,-1 -3.8,-0.7 -1.3,0.3 -2.2,1.3 -2.8,2.6 -0.6,1.2 -0.9,2.6 -1.1,4 -0.3,2.8 -0.1,5.7 0.6,8.4 0.7,2.7 1.8,5.4 3,8 1.2,2.6 2.6,5.1 4.1,7.6 l 0.1,0.2 -0.2,0.2 c -0.3,0.4 -0.6,1 -0.9,1.5 -0.2,0.6 -0.4,1.1 -0.5,1.7 -0.1,0.6 -0.2,1.2 -0.3,1.8 -0.1,0.6 -0.1,1.2 -0.1,1.8 v 0.1 0.1 c -0.7,1.2 -1.4,2.4 -2.4,3.5 -0.2,0.3 -0.5,0.5 -0.9,0.7 -0.4,0.1 -0.7,0.2 -1.1,0.2 -0.7,0 -1.4,-0.1 -2.1,-0.2 h -0.1 v 0 c -1.6,-1.7 -3.4,-3.2 -5.3,-4.7 -1.9,-1.4 -3.9,-2.7 -6.1,-3.5 -1.1,-0.4 -2.2,-0.6 -3.4,-0.5 -1.1,0.1 -2.3,0.5 -3.1,1.3 -0.8,0.8 -1.3,1.9 -1.6,3 -0.2,1.1 -0.3,2.3 -0.1,3.4 0.1,1.1 0.4,2.3 0.9,3.3 0.4,1.1 1.5,1.6 2.6,1.8 1.1,0.2 2.3,0.4 3.5,0.6 1.2,0.2 2.3,0.5 3.5,0.8 l 3.4,1.1 c 0.6,0.2 1.1,0.4 1.7,0.6 0.6,0.2 1.1,0.5 1.7,0.9 0.5,0.4 0.8,1 1.2,1.5 0.3,0.5 0.6,1 0.9,1.5 0.3,0.5 0.6,1 0.8,1.6 0.2,0.6 0.5,1.1 0.6,1.8 v 0.3 l -0.3,0.1 c -0.6,0.2 -1.1,0.7 -1.5,1.2 -0.4,0.5 -0.6,1.2 -0.7,1.8 -0.1,0.7 0,1.4 0.1,2.1 0.1,0.3 0.2,0.7 0.3,1 l 0.4,1 0.1,0.2 -0.1,0.2 c -0.5,0.8 -0.8,1.9 -0.8,3 0,1.1 0.1,2.2 0.4,3.2 0.3,1.1 0.7,2.1 1.1,3.1 0.4,1 0.9,2 1.5,2.9 1.1,1.9 2.9,3.1 4.9,4.1 2,1 4.1,1.6 6.3,1.8 4.4,0.4 8.9,-0.7 12.5,-3.2 1.8,-1.3 3.5,-2.8 4.8,-4.5 0.6,-0.9 1.2,-1.8 1.5,-2.9 0.3,-1 0.3,-2.1 0.1,-3.2 v -0.2 l 0.2,-0.2 c 3.1,-2.6 6.2,-5.2 9.3,-7.8 v 0 0 h 0.1 c 1.4,-0.8 3,-1.7 3.3,-3.3 0.5,-1.6 0.9,-3.4 2.1,-4.9 0.6,-0.7 1.4,-1.3 2.4,-1.5 0.9,-0.2 1.7,-0.3 2.6,-0.4 0.9,-0.1 1.7,-0.1 2.6,-0.2 0.9,0 1.7,-0.1 2.6,0.3 V 72 c -0.9,0.4 -1.7,0.3 -2.6,0.4 -0.8,0 -1.7,0.1 -2.5,0.2 -0.8,0.1 -1.7,0.2 -2.5,0.4 -0.8,0.2 -1.4,0.6 -1.9,1.2 -1,1.2 -1.5,2.9 -2,4.5 -0.1,0.2 -0.1,0.4 -0.2,0.6 -0.1,0.2 -0.2,0.4 -0.3,0.6 -0.3,0.4 -0.6,0.7 -0.9,1 -0.7,0.6 -1.5,1 -2.3,1.4 h 0.1 v 0 c -3,2.7 -6.1,5.4 -9.2,8 l 0.1,-0.4 c 0.2,1.1 0.2,2.4 -0.1,3.5 -0.3,1.2 -0.9,2.2 -1.6,3.2 -1.4,1.9 -3.1,3.4 -5,4.8 -3.8,2.8 -8.6,3.9 -13.2,3.4 -2.3,-0.2 -4.6,-0.9 -6.6,-1.9 -1,-0.5 -2,-1.1 -3,-1.8 -0.9,-0.7 -1.7,-1.6 -2.3,-2.6 -0.6,-1 -1.1,-2 -1.6,-3.1 -0.4,-1.1 -0.9,-2.1 -1.1,-3.3 -0.3,-1.1 -0.5,-2.3 -0.4,-3.5 0.1,-1.2 0.3,-2.4 1,-3.5 l -0.1,0.5 -0.4,-1.1 c -0.1,-0.4 -0.2,-0.7 -0.3,-1.1 -0.1,-0.8 -0.2,-1.6 -0.1,-2.4 0.1,-0.8 0.4,-1.6 0.9,-2.2 0.5,-0.7 1.1,-1.2 1.9,-1.5 l -0.3,0.4 c 0,-0.4 -0.3,-1 -0.5,-1.5 -0.2,-0.5 -0.5,-1 -0.8,-1.5 -0.3,-0.5 -0.6,-1 -0.9,-1.5 -0.3,-0.5 -0.6,-1 -1,-1.3 -0.8,-0.7 -2,-1 -3.1,-1.4 l -3.3,-1.1 c -1.1,-0.4 -2.2,-0.6 -3.4,-0.9 -1.1,-0.2 -2.3,-0.4 -3.5,-0.7 -0.6,-0.1 -1.2,-0.3 -1.7,-0.7 -0.5,-0.3 -1,-0.9 -1.2,-1.4 -0.5,-1.1 -0.7,-2.3 -0.9,-3.5 -0.1,-1.2 -0.1,-2.4 0.2,-3.6 0.3,-1.2 0.8,-2.3 1.7,-3.1 0.9,-0.9 2.1,-1.3 3.3,-1.3 1.2,-0.1 2.4,0.2 3.5,0.6 2.2,0.8 4.3,2.1 6.2,3.5 1.9,1.4 3.7,3 5.3,4.7 l -0.1,-0.1 c 0.7,0.1 1.4,0.2 2.1,0.2 0.3,0 0.7,0 1,-0.2 0.3,-0.1 0.5,-0.3 0.7,-0.6 0.9,-1 1.6,-2.3 2.3,-3.5 v 0.1 c 0,-0.6 0,-1.2 0,-1.9 0,-0.6 0.1,-1.2 0.2,-1.9 0.1,-0.6 0.3,-1.2 0.5,-1.8 0.2,-0.6 0.5,-1.2 0.9,-1.7 V 52 c -1.5,-2.4 -2.9,-5 -4.2,-7.5 -1.3,-2.6 -2.4,-5.3 -3.2,-8.1 -0.7,-2.8 -1,-5.8 -0.6,-8.7 0.2,-1.5 0.5,-2.9 1.2,-4.3 0.1,-0.3 0.4,-0.7 0.6,-1 0.2,-0.3 0.5,-0.6 0.7,-0.9 0.3,-0.3 0.6,-0.5 0.9,-0.7 0.4,-0.1 0.7,-0.4 1.1,-0.4 1.5,-0.3 3.2,-0.1 4.5,0.8 1.3,0.9 2.2,2.2 2.8,3.5 0.6,1.4 1,2.8 1.3,4.2 0.3,1.4 0.4,2.9 0.5,4.3 0.1,1.5 0.1,2.9 0.3,4.3 0.1,1.4 0.3,2.8 0.6,4.2 0.3,1.4 0.6,2.8 0.9,4.2 0.2,0.7 0.4,1.4 0.6,2.1 l 0.3,1 c 0,0.4 0.1,0.7 0,1.1 z"
   id="path274"
   inkscape:connector-curvature="0" />
	</g>
	<g
   id="g280">
		<path
   d="m 171,49.8 c 1.1,0.4 2.4,0.2 3.4,-0.3 1.1,-0.5 2.2,-0.9 3.4,-1.3 l -0.3,0.3 1,-4.5 c 0.2,-0.8 0.4,-1.5 0.6,-2.2 0.1,-0.4 0.2,-0.7 0.4,-1.1 0.1,-0.4 0.3,-0.7 1,-0.9 0.5,0.5 0.4,0.9 0.3,1.3 -0.1,0.4 -0.2,0.8 -0.3,1.1 -0.2,0.8 -0.4,1.5 -0.7,2.2 l -1.5,4.4 -0.1,0.3 H 178 c -1.1,0.2 -2.3,0.5 -3.4,0.9 -1.2,0.4 -2.5,0.4 -3.6,-0.2 z"
   id="path278"
   inkscape:connector-curvature="0" />
	</g>
	<g
   id="g284">
		<path
   d="m 191.9,38.8 c 0.3,0.6 0.1,1.1 -0.1,1.6 l -0.5,1.4 c -0.3,1 -0.7,1.9 -1,2.9 -0.7,1.9 -1.4,3.8 -2.2,5.7 L 188,49.9 c 1,0.7 2,1.5 2.9,2.2 1,0.7 1.9,1.6 2.8,2.4 l -0.5,-0.1 5.3,-2.9 c 1.8,-1 3.5,-2 5.2,-3.2 1.6,-1.2 3.2,-2.5 4.6,-3.9 l 2.2,-2.1 1.1,-1.1 c 0.4,-0.3 0.6,-0.8 1.4,-0.8 0,0.7 -0.4,1 -0.7,1.4 -0.3,0.4 -0.7,0.7 -1.1,1.1 -0.7,0.7 -1.5,1.4 -2.2,2.1 -1.5,1.3 -3.1,2.6 -4.8,3.8 -1.7,1.2 -3.4,2.3 -5.1,3.4 -1.7,1.1 -3.5,2.1 -5.3,3 l -0.3,0.2 -0.3,-0.2 c -0.9,-0.8 -1.8,-1.6 -2.8,-2.4 -1,-0.8 -1.9,-1.5 -2.9,-2.3 l -0.2,-0.2 0.1,-0.3 c 0.6,-1.9 1.3,-3.8 1.9,-5.7 0.4,-0.9 0.7,-1.9 1.1,-2.8 l 0.6,-1.4 c 0.1,-0.6 0.3,-1 0.9,-1.3 z"
   id="path282"
   inkscape:connector-curvature="0" />
	</g>
	<g
   id="g288">
		<path
   d="m 216.6,52.6 c -1.2,1 -2.4,2 -3.7,2.9 -1.3,0.9 -2.6,1.8 -4,2.5 -1.4,0.8 -2.8,1.5 -4.2,2.1 -1.5,0.6 -3,1.1 -4.5,1.4 l 0.3,-0.6 c 0.3,0.7 0.8,1.3 1.4,1.7 0.6,0.4 1.5,0.2 2.3,0.1 1.7,-0.3 3.4,-0.7 5,-1.1 -0.8,0.4 -1.6,0.7 -2.4,0.9 -0.8,0.3 -1.6,0.5 -2.5,0.7 -0.4,0.1 -0.9,0.2 -1.3,0.2 -0.5,0.1 -1,0 -1.4,-0.2 -0.9,-0.4 -1.5,-1.2 -2,-2.1 l -0.2,-0.5 0.6,-0.1 c 1.5,-0.4 2.9,-0.9 4.4,-1.4 1.4,-0.6 2.8,-1.2 4.2,-1.9 1.4,-0.7 2.7,-1.4 4.1,-2.2 1.3,-0.7 2.6,-1.5 3.9,-2.4 z"
   id="path286"
   inkscape:connector-curvature="0" />
	</g>
	<g
   id="g292">
		<path
   d="m 178.2,47.8 c 0.1,0.6 0,1.2 0,1.8 -0.1,0.6 -0.2,1.2 -0.3,1.7 -0.1,0.5 -0.1,1.1 -0.1,1.6 0,0.5 0.1,1.1 0.5,1.6 -0.6,-0.2 -1.1,-0.8 -1.2,-1.4 -0.2,-0.6 -0.2,-1.3 -0.1,-1.9 0.1,-0.6 0.3,-1.2 0.5,-1.8 0.1,-0.6 0.4,-1.1 0.7,-1.6 z"
   id="path290"
   inkscape:connector-curvature="0" />
	</g>
	<g
   id="g296">
		<path
   d="m 184.6,55.9 c 0.8,-1 1.4,-2 1.8,-3.1 0.2,-0.5 0.4,-1.1 0.6,-1.7 0.2,-0.6 0.6,-1.2 1,-1.6 l -0.3,1.9 c -0.1,0.6 -0.2,1.2 -0.4,1.9 -0.2,0.6 -0.6,1.2 -1.1,1.7 -0.4,0.4 -1,0.8 -1.6,0.9 z"
   id="path294"
   inkscape:connector-curvature="0" />
	</g>
	<g
   id="g300">
		<path
   d="m 194.2,55 c -1,0.5 -1.9,1 -2.6,1.7 -0.4,0.3 -0.7,0.7 -1,1.1 -0.2,0.2 -0.3,0.4 -0.4,0.6 -0.1,0.2 -0.3,0.4 -0.2,0.7 -0.3,-0.1 -0.3,-0.6 -0.3,-0.8 0,-0.3 0.1,-0.6 0.2,-0.9 0.2,-0.6 0.6,-1.1 1,-1.5 0.9,-0.8 2.1,-1.2 3.3,-0.9 z"
   id="path298"
   inkscape:connector-curvature="0" />
	</g>
	<g
   id="g304">
		<path
   d="m 194.3,61.9 c 0.7,-0.2 1.3,-0.3 2,-0.4 0.6,-0.1 1.2,-0.4 1.8,-0.6 1.3,-0.4 2.7,-0.5 4.1,-0.2 -1.3,0.5 -2.6,0.7 -3.8,1.2 l -1,0.3 c -0.3,0.1 -0.7,0.1 -1.1,0.1 -0.7,-0.1 -1.4,-0.2 -2,-0.4 z"
   id="path302"
   inkscape:connector-curvature="0" />
	</g>
	<g
   id="g308">
		<path
   d="m 170.4,49.2 c 0.9,0.8 1.6,1.8 1.8,3 0.1,0.6 0.1,1.2 -0.1,1.8 -0.2,0.6 -0.4,1.1 -0.8,1.6 0,-1.2 0.1,-2.2 -0.1,-3.2 -0.2,-1.1 -0.6,-2.1 -0.8,-3.2 z"
   id="path306"
   inkscape:connector-curvature="0" />
	</g>
	<g
   id="g312">
		<path
   d="m 162.6,50.9 c 0.8,0.5 1.2,1.2 1.6,1.9 0.4,0.7 0.6,1.5 0.6,2.4 -0.7,-0.6 -1.1,-1.3 -1.5,-2 -0.4,-0.7 -0.7,-1.5 -0.7,-2.3 z"
   id="path310"
   inkscape:connector-curvature="0" />
	</g>
	<g
   id="g316">
		<path
   d="m 136.1,56.2 c 0.1,1.1 0.4,2.2 0.7,3.2 0.3,1.1 0.7,2.1 1.4,2.9 0.6,0.8 1.5,1.3 2.6,1.3 1,0.1 2.3,0.1 3.4,0.3 2.3,0.5 4.4,1.4 6.2,2.9 1.8,1.4 3.2,3.2 4.5,5 -0.8,-0.8 -1.6,-1.6 -2.4,-2.3 -0.8,-0.8 -1.6,-1.5 -2.6,-2.1 -1.8,-1.2 -3.8,-2.1 -5.9,-2.5 -1.1,-0.2 -2.1,-0.3 -3.3,-0.4 -0.6,-0.1 -1.2,-0.2 -1.8,-0.5 -0.6,-0.3 -1,-0.8 -1.3,-1.3 -0.7,-1 -1,-2.1 -1.2,-3.2 -0.2,-1 -0.4,-2.1 -0.3,-3.3 z"
   id="path314"
   inkscape:connector-curvature="0" />
	</g>
	<g
   id="g320">
		<path
   d="m 163.8,64.3 c 1.5,0.6 3.1,1.4 4.4,2.5 1.3,1.1 2.3,2.7 2.8,4.4 0.4,1.7 0.5,3.4 0.6,5 0,1.7 -0.2,3.4 -0.5,5 0,-1.7 -0.1,-3.3 -0.3,-5 -0.2,-1.6 -0.4,-3.3 -0.7,-4.8 -0.4,-1.5 -1.2,-2.9 -2.3,-4.1 -1.3,-1 -2.6,-2 -4,-3 z"
   id="path318"
   inkscape:connector-curvature="0" />
	</g>
	<g
   id="g324">
		<path
   d="m 176.2,83.7 c 2.4,-1.3 4.6,-2.9 7,-4.2 1.2,-0.6 2.5,-1.2 3.9,-1.5 1.4,-0.3 2.8,-0.3 4.1,-0.1 -1.4,0.2 -2.7,0.4 -3.9,0.9 -1.3,0.4 -2.4,1 -3.6,1.6 -1.2,0.6 -2.4,1.3 -3.6,1.9 -1.3,0.6 -2.6,1.1 -3.9,1.4 z"
   id="path322"
   inkscape:connector-curvature="0" />
	</g>
	<g
   id="g328">
		<path
   d="m 164.5,62.1 c 1.1,1 2.1,2 3.4,2.6 1.3,0.6 2.7,0.6 4.1,0.5 1.4,-0.1 2.9,-0.2 4.4,0 1.5,0.2 2.9,0.8 4.2,1.6 2.5,1.6 4.4,4 6.1,6.2 0.9,1.1 1.8,2.1 3.2,2.5 1.3,0.4 2.8,0.4 4.2,0.3 -1.4,0.4 -2.9,0.5 -4.3,0.2 -0.7,-0.2 -1.4,-0.5 -2,-1 -0.6,-0.4 -1.1,-1 -1.6,-1.5 -1.9,-2.2 -3.7,-4.4 -6.1,-5.9 -1.2,-0.8 -2.4,-1.3 -3.8,-1.5 -1.4,-0.3 -2.8,-0.2 -4.2,-0.2 -1.4,0 -3,-0.1 -4.3,-0.8 -1.4,-0.8 -2.4,-1.9 -3.3,-3 z"
   id="path326"
   inkscape:connector-curvature="0" />
	</g>
	<g
   id="g332">
		<path
   d="m 155.1,76 c 0.8,2.2 1.9,4.1 3.5,5.6 0.8,0.7 1.7,1.3 2.7,1.8 1,0.4 2.1,0.7 3.3,0.8 -1.1,0.4 -2.4,0.3 -3.5,0 -1.2,-0.3 -2.2,-1 -3.1,-1.8 -1.8,-1.7 -2.8,-4.1 -2.9,-6.4 z"
   id="path330"
   inkscape:connector-curvature="0" />
	</g>
	<g
   id="g336">
		<path
   d="m 171,86.9 c 1.1,1.2 2.3,2.2 3.7,3 1.4,0.7 2.8,1.2 4.4,1.4 1.5,0.1 3.1,-0.1 4.6,-0.5 1.5,-0.4 3,-1 4.5,-1.7 -1.2,1 -2.7,1.9 -4.2,2.4 -1.5,0.6 -3.2,0.9 -4.9,0.8 -1.7,-0.2 -3.3,-0.8 -4.7,-1.7 -1.5,-1 -2.7,-2.3 -3.4,-3.7 z"
   id="path334"
   inkscape:connector-curvature="0" />
	</g>
	<g
   id="g340">
		<path
   d="m 153.4,84.2 c 0.9,1.1 1.8,2.2 2.7,3.2 0.9,1 1.9,2 2.9,3 0.9,1 2.1,1.8 3,3 0.1,0.2 0.2,0.3 0.3,0.5 0,0.1 0.1,0.2 0.1,0.4 0,0.2 -0.1,0.4 -0.3,0.5 -0.3,0.2 -0.5,0.1 -0.7,0.1 -0.2,0 -0.4,0 -0.6,-0.1 -0.7,-0.2 -1.4,-0.4 -2,-0.7 0.7,0.1 1.4,0.2 2.1,0.3 0.3,0 0.7,0 0.8,-0.1 0,0 0,0 0,0 0,0 0,0 0,-0.1 -0.1,-0.1 -0.1,-0.2 -0.3,-0.3 -0.4,-0.5 -1,-0.9 -1.5,-1.3 -0.5,-0.5 -1.1,-0.9 -1.6,-1.4 -2,-2.1 -3.8,-4.4 -4.9,-7 z"
   id="path338"
   inkscape:connector-curvature="0" />
	</g>
	<g
   id="g344">
		<path
   d="m 186.8,89.8 c -0.7,1.4 -1.5,2.7 -2.5,4 -1,1.2 -2.1,2.3 -3.4,3.2 -0.7,0.4 -1.4,0.8 -2.2,1.1 -0.8,0.3 -1.5,0.4 -2.3,0.6 -1.5,0.3 -3,0.6 -4.5,1 1.4,-0.7 2.8,-1.3 4.3,-1.7 1.5,-0.5 2.9,-0.8 4.1,-1.7 1.2,-0.8 2.3,-1.9 3.4,-2.9 1.1,-1.3 2.1,-2.5 3.1,-3.6 z"
   id="path342"
   inkscape:connector-curvature="0" />
	</g>
	<g
   id="g348">
		<path
   d="m 160.7,47.8 c -0.3,1.4 -0.7,2.8 -1.3,4.1 -0.3,0.6 -0.5,1.3 -0.8,1.9 -0.3,0.6 -0.6,1.3 -0.9,1.9 -0.1,-0.7 0,-1.5 0.2,-2.2 0.2,-0.7 0.4,-1.4 0.7,-2 0.5,-1.4 1.2,-2.6 2.1,-3.7 z"
   id="path346"
   inkscape:connector-curvature="0" />
	</g>
	<g
   id="g352">
		<path
   d="m 177.3,40.4 c -1.4,0.4 -2.8,0.6 -4.2,0.8 -0.7,0.1 -1.4,0.2 -2.1,0.3 -0.7,0.1 -1.4,0.2 -2.1,0.4 0.5,-0.6 1.2,-0.9 1.9,-1.2 0.7,-0.3 1.4,-0.4 2.1,-0.5 1.5,-0.2 2.9,-0.2 4.4,0.2 z"
   id="path350"
   inkscape:connector-curvature="0" />
	</g>
	<g
   id="g356">
		<path
   d="m 158.8,101.2 c 0.3,2.3 0.5,4.6 0.8,6.9 v 0.1 l -0.1,0.1 -5,5.9 -0.1,0.1 h -0.1 c -1.4,0.4 -2.7,1.4 -3.4,2.7 -0.6,1.2 -1,3.2 0.2,3.6 0.6,0.2 1.4,0.2 2.1,0.1 0.8,-0.1 1.5,-0.3 2.3,-0.5 1.5,-0.4 3,-1 4.4,-1.7 1.4,-0.7 2.7,-1.6 3.9,-2.6 1.3,-1 2.5,-2 3.6,-3.1 2.3,-2.2 3.3,-5.3 4.1,-8.4 -0.2,1.6 -0.6,3.1 -1.2,4.7 -0.3,0.8 -0.6,1.5 -1,2.2 -0.4,0.7 -0.9,1.3 -1.5,1.9 -2.2,2.4 -4.6,4.5 -7.5,6.1 -1.5,0.7 -3,1.3 -4.5,1.8 -0.8,0.2 -1.6,0.4 -2.4,0.5 -0.8,0.1 -1.7,0.1 -2.6,-0.2 -0.4,-0.2 -0.9,-0.6 -1.1,-1 -0.2,-0.5 -0.2,-1 -0.2,-1.4 0.1,-0.9 0.3,-1.7 0.7,-2.5 0.8,-1.6 2.3,-2.6 4,-3.1 l -0.2,0.1 5.3,-5.7 -0.1,0.2 c -0.2,-2.2 -0.3,-4.5 -0.4,-6.8 z"
   id="path354"
   inkscape:connector-curvature="0" />
	</g>
	<g
   id="g360">
		<path
   d="m 213.4,90.3 c -4.2,2 -8.4,4 -12.6,6 -4.2,2.1 -8.3,4.1 -12.4,6.4 -4.1,2.1 -8.1,4.5 -12.2,6.8 l -6.1,3.4 -6.1,3.4 c 3.9,-2.6 7.8,-5.1 11.8,-7.5 4,-2.4 8,-4.8 12.1,-7 4.1,-2.2 8.3,-4.3 12.5,-6.2 2.1,-1 4.3,-1.9 6.4,-2.8 2.3,-0.9 4.4,-1.7 6.6,-2.5 z"
   id="path358"
   inkscape:connector-curvature="0" />
	</g>
	<g
   id="g364">
		<path
   d="m 159.2,106.5 c 0.5,0.6 0.7,1.3 0.8,2 0.1,0.7 0,1.4 -0.3,2.1 -0.4,-0.7 -0.6,-1.3 -0.7,-2 -0.1,-0.7 -0.1,-1.3 0.2,-2.1 z"
   id="path362"
   inkscape:connector-curvature="0" />
	</g>
	<g
   id="g368">
		<path
   d="m 126.3,131 c 0.2,-0.7 0.7,-1.2 1.1,-1.8 0.4,-0.5 0.9,-1 1.3,-1.5 0.9,-1 1.9,-2 2.8,-3 2,-1.9 4.1,-3.7 6.5,-5.1 2.4,-1.4 4.9,-2.6 7.4,-3.6 1.3,-0.5 2.6,-1 3.9,-1.3 0.7,-0.2 1.3,-0.3 2,-0.5 0.7,-0.1 1.4,-0.2 2,-0.1 -1.4,0 -2.7,0.5 -3.9,1 -1.3,0.5 -2.5,1 -3.7,1.6 -2.5,1.1 -4.9,2.4 -7.2,3.8 -2.3,1.4 -4.4,3.1 -6.4,4.9 -1,0.9 -2,1.8 -2.9,2.8 -0.5,0.5 -0.9,1 -1.4,1.5 -0.4,0.5 -0.9,1 -1.5,1.3 z"
   id="path366"
   inkscape:connector-curvature="0" />
	</g>
	<g
   id="g372">
		<path
   d="m 136.9,121 c 1.1,-0.3 2.4,-0.3 3.5,0.2 1.1,0.4 2,1.4 2.4,2.6 0.4,1.2 0.5,2.4 0.4,3.6 -0.1,1.2 -0.3,2.4 -0.7,3.5 -0.8,2.3 -2.2,4.3 -3.8,6.1 -1.6,1.8 -3.5,3.3 -5.1,4.9 -3.2,3.4 -6.5,6.8 -8.9,10.7 -0.3,0.5 -0.5,1 -0.7,1.5 v 0.1 0 c 0,0 0,0.1 -0.1,0.1 -0.1,0.1 -0.2,0.2 -0.3,0.2 -0.1,0 -0.2,-0.1 -0.3,-0.1 0,0 -0.1,-0.1 -0.1,-0.1 v 0 -0.1 l -0.1,-0.4 -0.1,-0.9 c -0.2,-1.2 -0.3,-2.3 -0.4,-3.5 -0.2,-2.3 -0.5,-4.7 -0.3,-7 0,2.3 0.4,4.7 0.7,7 l 0.5,3.5 0.1,0.9 0.1,0.4 v 0.1 c 0,0 0,0 0,0 0,0 0,-0.1 0,-0.1 0,-0.1 -0.1,-0.1 -0.2,-0.1 -0.2,0 -0.3,0.3 -0.2,0.2 v -0.1 c 0.2,-0.6 0.4,-1.2 0.7,-1.7 1.1,-2.1 2.6,-4 4.1,-5.8 1.5,-1.8 3.1,-3.5 4.7,-5.3 0.8,-0.9 1.7,-1.6 2.6,-2.4 0.9,-0.8 1.7,-1.6 2.5,-2.4 1.6,-1.7 2.9,-3.6 3.7,-5.7 0.4,-1.1 0.7,-2.2 0.8,-3.3 0.1,-1.1 0.1,-2.3 -0.2,-3.4 -0.3,-1.1 -1,-2 -2.1,-2.5 -0.9,-0.7 -2.1,-0.8 -3.2,-0.7 z"
   id="path370"
   inkscape:connector-curvature="0" />
	</g>
	<g
   id="g376">
		<path
   d="m 159.2,136.4 c 1,-0.7 2,-1.3 3.1,-1.8 1.1,-0.5 2.3,-0.9 3.5,-1.1 2.3,-0.4 4.7,-0.6 7.1,-0.6 -2.3,0.8 -4.6,1.2 -6.9,1.6 -1.1,0.1 -2.2,0.5 -3.3,0.8 -1.3,0.4 -2.4,0.8 -3.5,1.1 z"
   id="path374"
   inkscape:connector-curvature="0" />
	</g>
	<g
   id="g380">
		<path
   d="m 167,133.8 c -0.7,2.4 -1.8,4.6 -3.1,6.7 -1.3,2.1 -2.8,4.1 -4.7,5.7 -1.8,1.7 -3.8,3.2 -5.8,4.5 -2,1.4 -4.2,2.6 -6.5,3.4 4.3,-2.3 8.1,-5.3 11.7,-8.7 1.7,-1.6 3.3,-3.5 4.6,-5.5 1.4,-1.8 2.6,-3.9 3.8,-6.1 z"
   id="path378"
   inkscape:connector-curvature="0" />
	</g>
	<g
   id="g384">
		<path
   d="m 132,155.5 c -2.7,0.3 -5.4,-0.2 -8,-0.8 -2.6,-0.5 -5.2,-1 -7.9,-1.5 -2.6,-0.4 -5.3,-0.9 -7.9,-1.2 -2.6,-0.3 -5.3,-0.6 -7.9,-0.2 -1.3,0.1 -2.6,0.3 -3.9,0.6 -0.6,0.2 -1.2,0.4 -1.7,0.7 -0.5,0.3 -1,0.8 -1.5,1.2 -1,0.9 -1.8,1.9 -2.1,3 -0.4,1.2 -0.2,2.5 0.3,3.6 0.5,1.1 1.4,2.2 2.2,3.3 0.8,1.1 1.6,2.1 2.5,3.1 l 2.5,3.1 1.3,1.5 0.6,0.8 c 0.2,0.3 0.5,0.5 0.5,0.9 -0.4,-0.1 -0.6,-0.4 -0.8,-0.6 l -0.7,-0.7 -1.3,-1.5 -2.6,-3 c -0.9,-1 -1.7,-2 -2.6,-3.1 -0.8,-1.1 -1.7,-2.1 -2.4,-3.3 -0.6,-1.3 -0.8,-2.8 -0.4,-4.2 0.4,-1.4 1.3,-2.6 2.3,-3.5 0.5,-0.5 1,-0.9 1.6,-1.3 0.6,-0.4 1.3,-0.7 2,-0.8 1.4,-0.3 2.7,-0.5 4,-0.6 2.7,-0.3 5.4,0 8.1,0.4 2.7,0.4 5.3,0.8 7.9,1.4 2.6,0.6 5.2,1.2 7.8,1.8 1.3,0.3 2.6,0.7 3.9,0.9 1.5,-0.1 2.8,0 4.2,0 z"
   id="path382"
   inkscape:connector-curvature="0" />
	</g>
	<g
   id="g388">
		<path
   d="m 98.5,157.1 c 0.6,1.1 1.6,1.8 2.6,2.3 0.5,0.2 1.1,0.4 1.7,0.5 0.6,0.1 1.2,0.2 1.7,0.2 h 0.1 l 0.1,0.1 c 1.4,0.8 2.8,1.6 4.1,2.5 0.7,0.4 1.3,0.9 2,1.3 0.6,0.5 1.3,0.9 1.9,1.4 -0.8,-0.3 -1.5,-0.6 -2.2,-1 -0.7,-0.3 -1.4,-0.7 -2.1,-1.1 -1.4,-0.8 -2.8,-1.5 -4.2,-2.4 l 0.2,0.1 -1,-0.1 c -0.3,-0.1 -0.6,-0.1 -0.9,-0.2 -0.6,-0.2 -1.2,-0.4 -1.8,-0.8 -0.5,-0.3 -1.1,-0.8 -1.5,-1.3 -0.2,-0.3 -0.6,-0.9 -0.7,-1.5 z"
   id="path386"
   inkscape:connector-curvature="0" />
	</g>
	<g
   id="g392">
		<path
   d="m 104.5,160.6 c 3,-0.1 6,0.1 8.9,0.4 3,0.3 5.9,1 8.8,1.4 2.9,0.5 5.8,1 8.8,1.3 1.5,0.1 3,0.1 4.4,0.1 1.5,0 3,-0.2 4.4,-0.7 -1.3,0.7 -2.8,1 -4.3,1.2 -1.5,0.1 -3,0.2 -4.5,0.2 -3,0 -6,-0.5 -8.9,-1 l -4.4,-0.8 c -1.5,-0.3 -2.9,-0.6 -4.4,-0.8 -1.5,-0.2 -2.9,-0.4 -4.4,-0.6 -1.4,-0.3 -2.9,-0.5 -4.4,-0.7 z"
   id="path390"
   inkscape:connector-curvature="0" />
	</g>
	<g
   id="g396">
		<path
   d="m 84.1,148.2 c 0.3,-1.3 0.6,-2.7 0.9,-4 v 0 c 0.2,-1.2 1,-2.3 1.9,-3 0.5,-0.4 1,-0.6 1.5,-0.9 0.5,-0.3 1,-0.6 1.4,-1 1.9,-1.4 3.7,-2.8 5.4,-4.3 0.4,-0.4 0.8,-0.8 1.2,-1.2 0.4,-0.4 0.8,-1 1.6,-1.2 0.3,-0.1 0.7,-0.1 1,-0.2 h 0.9 c 0.6,0 1.2,0 1.8,0.1 0.6,0.1 1.3,0.5 1.7,0.9 0.5,0.5 0.8,1 1.1,1.5 0.6,1.1 0.9,2.3 1,3.6 v 0.2 l -0.2,0.1 -4.4,3.7 c -1.5,1.2 -3,2.4 -4.5,3.6 -0.8,0.6 -1.7,1 -2.4,1.5 -0.8,0.5 -1.5,1.1 -1.8,1.9 -0.3,1.8 -0.4,3.8 -0.6,5.7 0,-1.9 0,-3.8 0.2,-5.8 0.3,-1 1.1,-1.7 1.9,-2.3 0.8,-0.6 1.6,-1.1 2.4,-1.6 1.5,-1.2 2.9,-2.5 4.4,-3.7 l 4.3,-3.8 -0.2,0.4 c -0.1,-1 -0.4,-2.2 -0.9,-3.1 -0.5,-1 -1.2,-1.8 -2.2,-2 -0.5,-0.1 -1,-0.1 -1.6,-0.1 H 99 c -0.3,0 -0.5,0 -0.7,0.1 -0.4,0.1 -0.8,0.5 -1.2,0.9 -0.4,0.4 -0.8,0.9 -1.2,1.3 -1.8,1.5 -3.7,2.9 -5.6,4.2 -0.5,0.3 -1,0.6 -1.5,0.9 -0.5,0.3 -1,0.6 -1.5,0.9 -0.9,0.6 -1.7,1.5 -1.9,2.6 v 0 c -0.5,1.5 -0.9,2.8 -1.3,4.1 z"
   id="path394"
   inkscape:connector-curvature="0" />
	</g>
	<g
   id="g400">
		<path
   d="m 105,138.6 c 0.4,-0.4 0.9,-0.6 1.4,-0.7 0.5,-0.1 1,-0.1 1.6,0 1,0.2 2,0.8 2.5,1.7 -0.5,-0.1 -1,-0.2 -1.4,-0.4 -0.4,-0.1 -0.9,-0.2 -1.3,-0.3 -0.9,-0.2 -1.7,-0.3 -2.8,-0.3 z"
   id="path398"
   inkscape:connector-curvature="0" />
	</g>
	<g
   id="g404">
		<path
   d="m 111.9,143 c -0.5,1.6 -1.4,3.1 -2.4,4.5 -0.5,0.7 -1.1,1.3 -1.7,1.9 -0.6,0.6 -1.3,1.1 -2.2,1.4 0.6,-0.6 1.1,-1.3 1.6,-1.9 l 1.5,-2 c 1,-1.4 2,-2.7 3.2,-3.9 z"
   id="path402"
   inkscape:connector-curvature="0" />
	</g>
	<g
   id="g408">
		<path
   d="m 111.2,146.5 c 0.2,-0.4 0.5,-0.7 1,-0.9 0.5,-0.1 1,-0.1 1.4,0 0.9,0.3 1.6,0.9 2.2,1.5 0.6,0.6 1.1,1.3 1.5,2.1 0.2,0.4 0.4,0.8 0.5,1.2 0.1,0.4 0.1,0.9 -0.1,1.3 -0.1,-0.8 -0.6,-1.5 -1.1,-2.1 -0.5,-0.6 -1,-1.2 -1.6,-1.8 -0.6,-0.6 -1.1,-1.1 -1.8,-1.5 -0.5,-0.2 -1.3,-0.3 -2,0.2 z"
   id="path406"
   inkscape:connector-curvature="0" />
	</g>
	<g
   id="g412">
		<path
   d="m 119.7,149.2 c 0.6,0.6 0.8,1.3 1,2 0.1,0.7 0.1,1.5 -0.3,2.2 -0.4,-0.7 -0.6,-1.3 -0.7,-2 -0.1,-0.8 -0.2,-1.5 0,-2.2 z"
   id="path410"
   inkscape:connector-curvature="0" />
	</g>
	<g
   id="g416">
		<path
   d="m 111.9,161.2 c 0.6,0.5 0.8,1.2 0.8,1.9 0,0.7 -0.2,1.5 -0.8,1.9 -0.1,-0.4 -0.1,-0.7 -0.1,-1 0,-0.3 0,-0.6 -0.1,-0.9 0.1,-0.6 0.1,-1.1 0.2,-1.9 z"
   id="path414"
   inkscape:connector-curvature="0" />
	</g>
	<g
   id="g420">
		<path
   d="m 120.4,162.7 c 0.2,0.5 0.1,1 0,1.4 -0.2,0.4 -0.4,0.7 -0.9,1 -0.2,-0.5 -0.1,-1 0,-1.4 0.2,-0.4 0.4,-0.8 0.9,-1 z"
   id="path418"
   inkscape:connector-curvature="0" />
	</g>
	<g
   id="g424">
		<path
   d="m 102.8,177 c 0,-0.4 0.1,-0.7 0.3,-1 l 0.5,-0.9 c 0.3,-0.6 0.6,-1.2 1,-1.8 0.7,-1.2 1.5,-2.4 2.4,-3.4 0.9,-1.1 1.9,-2.1 3.1,-2.9 1.2,-0.8 2.5,-1.4 3.9,-1.7 v 0 h -0.1 c 1,-0.6 1.9,-1.1 3.1,-1.3 0.3,0 0.6,-0.1 1,0 0.3,0.1 0.6,0.3 0.8,0.4 0.5,0.3 0.9,0.7 1.3,1 1.7,1.4 3.3,2.9 4.9,4.3 l -0.3,-0.1 c 2.2,0 4.3,0.1 6.5,0.5 1.1,0.2 2.2,0.4 3.2,0.8 0.5,0.2 1,0.5 1.5,1 0.4,0.4 0.8,0.9 0.9,1.8 v 0 0.2 l -0.1,0.1 c -2,2.2 -4,4.4 -5.9,6.7 -0.9,1.2 -1.8,2.4 -2.5,3.6 -0.2,0.3 -0.3,0.6 -0.4,1 -0.1,0.3 -0.2,0.7 -0.3,1.1 -0.2,0.7 -0.3,1.5 -0.4,2.2 -0.5,2.9 -0.9,5.9 -1.2,8.9 -0.2,1.5 -0.3,3 -0.3,4.5 0,0.7 0,1.5 0,2.2 0,0.7 0.1,1.5 0,2.2 -0.2,-0.7 -0.3,-1.5 -0.3,-2.2 0,-0.8 -0.1,-1.5 0,-2.3 0,-1.5 0.1,-3 0.3,-4.5 0.3,-3 0.6,-6 1,-9 0.1,-0.7 0.2,-1.5 0.4,-2.2 0.1,-0.4 0.2,-0.7 0.3,-1.1 0.1,-0.4 0.3,-0.8 0.4,-1.1 0.7,-1.4 1.6,-2.6 2.5,-3.8 1.9,-2.4 3.8,-4.6 5.9,-6.9 l -0.1,0.3 v 0 c 0,-0.3 -0.3,-0.7 -0.6,-1 -0.3,-0.3 -0.8,-0.6 -1.2,-0.8 -0.9,-0.4 -1.9,-0.6 -3,-0.8 -2.1,-0.4 -4.2,-0.5 -6.3,-0.6 h -0.2 l -0.1,-0.1 c -1.5,-1.5 -3.1,-3 -4.7,-4.4 -0.4,-0.3 -0.8,-0.7 -1.2,-1 -0.4,-0.3 -0.8,-0.4 -1.3,-0.4 -1,0.1 -2,0.6 -2.9,1.1 h -0.1 -0.1 v 0 c -1.3,0.2 -2.5,0.8 -3.6,1.6 -1.1,0.8 -2.1,1.7 -3,2.7 -0.9,1 -1.7,2.1 -2.4,3.3 -0.4,0.6 -0.7,1.2 -1,1.8 l -0.5,0.9 c -0.6,0.5 -0.8,0.8 -1.1,1.1 z"
   id="path422"
   inkscape:connector-curvature="0" />
	</g>
	<g
   id="g428">
		<path
   d="m 125.8,163.6 c 0.7,1.1 1.3,2.2 1.8,3.3 0.5,1.1 1,2.2 1.5,3.4 -1.1,-0.8 -1.8,-1.9 -2.4,-3 -0.5,-1.2 -0.9,-2.4 -0.9,-3.7 z"
   id="path426"
   inkscape:connector-curvature="0" />
	</g>
	<g
   id="g432">
		<path
   d="m 157.8,175 c -2.5,-0.1 -5.1,0.7 -7.1,2.1 -2.1,1.4 -3.5,3.6 -4.5,5.9 -0.9,2.3 -1.5,4.8 -2,7.3 -0.5,2.5 -0.8,5 -1.1,7.5 -0.5,5 -0.8,10.1 -0.4,15.2 0.1,5.1 0,10.2 -0.1,15.3 v 0 0 c -0.4,4 -0.7,8 -0.7,12 0,1 0,2 0.1,3 0.1,1 0.3,1.9 0.5,2.9 0.5,1.9 1.1,3.8 1.8,5.6 l -0.7,0.3 c -0.8,-1.9 -1.5,-3.8 -2,-5.8 -0.2,-1 -0.5,-2 -0.6,-3 -0.1,-1 -0.2,-2 -0.2,-3.1 0,-4.1 0.3,-8.1 0.7,-12.1 v 0 c 0.1,-5.1 0.3,-10.2 0.2,-15.2 0,-1.2 -0.2,-2.5 -0.1,-3.8 0,-1.3 0,-2.6 0.1,-3.8 0.1,-2.5 0.3,-5.1 0.6,-7.6 0.6,-5.1 1.5,-10.1 3.4,-14.9 1,-2.4 2.6,-4.6 4.8,-5.9 2.1,-1.4 4.7,-2 7.3,-1.9 z"
   id="path430"
   inkscape:connector-curvature="0" />
	</g>
	<g
   id="g436">
		<path
   d="m 130.1,213.4 c 0.6,0 1,0.3 1.3,0.6 0.3,0.3 0.5,0.7 0.6,1.3 -0.6,0 -1,-0.3 -1.3,-0.6 -0.3,-0.3 -0.6,-0.7 -0.6,-1.3 z"
   id="path434"
   inkscape:connector-curvature="0" />
	</g>
	<g
   id="g440">
		<path
   d="m 142.1,212.5 c -0.1,-0.5 -0.4,-0.9 -0.9,-1.1 -0.4,-0.2 -0.9,-0.3 -1.4,-0.3 -1,0 -2,0 -3,0.1 -1,0.1 -2,0.2 -3,0.4 -0.2,0.1 -0.5,0.1 -0.7,0.2 -0.1,0 -0.2,0.1 -0.2,0.1 0,0 -0.1,0 0,0 0,0 0,-0.1 0,0 0,0.4 -0.1,1 -0.1,1.5 0,2 0,4 0,6.1 0,2 -0.1,4.1 -0.4,6.1 -0.2,-2 -0.3,-4.1 -0.4,-6.1 -0.2,-2 -0.3,-4.1 -0.2,-6.1 0,-0.5 0,-1 0.1,-1.6 0,0 0.1,-0.3 0.2,-0.4 0.1,-0.1 0.2,-0.2 0.3,-0.2 0.2,-0.1 0.3,-0.2 0.5,-0.2 0.3,-0.1 0.5,-0.2 0.8,-0.2 1.1,-0.2 2.1,-0.2 3.1,-0.2 1,0 2,0 3.1,0.2 0.5,0.1 1.1,0.3 1.5,0.6 0.5,0.1 0.8,0.6 0.7,1.1 z"
   id="path438"
   inkscape:connector-curvature="0" />
	</g>
	<g
   id="g444">
		<path
   d="m 133.6,228.9 c 1.5,-0.2 3.1,-0.3 4.6,-0.3 0.4,0 0.7,0 1.1,-0.1 0.3,0 0.6,-0.1 1,-0.2 0.6,-0.2 1.2,-0.7 1.8,-1.2 -0.2,0.8 -0.7,1.5 -1.4,1.9 -0.4,0.2 -0.8,0.4 -1.2,0.4 -0.4,0.1 -0.8,0.1 -1.2,0.1 -0.8,0 -1.6,0 -2.3,-0.2 -0.9,0 -1.7,-0.1 -2.4,-0.4 z"
   id="path442"
   inkscape:connector-curvature="0" />
	</g>
	<g
   id="g448">
		<path
   d="m 135.1,214.1 c 0,1.3 0.2,2.7 0.3,4 0.1,1.3 0.2,2.6 0.1,4 l -0.1,2 c 0,0.6 0.2,1.2 0.8,1.5 0.6,0.2 1.3,0.2 1.8,-0.1 0.5,-0.3 0.8,-0.9 0.9,-1.5 v 0.1 c -0.1,-1.6 -0.2,-3.2 -0.2,-4.8 0,-0.8 0,-1.6 0,-2.4 0,-0.8 0,-1.6 0.1,-2.4 v 0.2 c -0.1,-0.2 -0.3,-0.6 -0.6,-0.8 -0.3,-0.2 -0.6,-0.4 -1,-0.4 -0.4,-0.1 -0.8,-0.1 -1.2,0 -0.5,0 -0.8,0.2 -0.9,0.6 z m -0.1,0 c 0.1,-0.5 0.5,-0.7 0.9,-0.9 0.4,-0.1 0.8,-0.2 1.3,-0.2 0.4,0 0.9,0.1 1.3,0.3 0.4,0.2 0.8,0.5 1.1,1 v 0 0.1 c 0.1,0.8 0.1,1.6 0.1,2.4 0,0.8 0,1.6 0,2.4 0,1.6 -0.1,3.2 -0.2,4.8 v 0.1 0 c -0.2,0.7 -0.7,1.3 -1.4,1.7 -0.3,0.2 -0.7,0.2 -1,0.2 -0.3,0 -0.7,0 -1,-0.2 -0.7,-0.3 -1.1,-1 -1.2,-1.7 l -0.1,-2 c -0.1,-1.3 -0.1,-2.7 0.1,-4 0,-1.4 0.1,-2.7 0.1,-4 z"
   id="path446"
   inkscape:connector-curvature="0" />
	</g>
	<g
   id="g452">
		<path
   d="m 136.9,213.1 c 0.4,2.1 0.5,4.2 0.5,6.3 0,2.1 -0.1,4.2 -0.5,6.3 -0.4,-2.1 -0.5,-4.2 -0.5,-6.3 0,-2 0.1,-4.1 0.5,-6.3 z"
   id="path450"
   inkscape:connector-curvature="0" />
	</g>
	<g
   id="g456">
		<path
   d="m 163.7,177.9 c -2,-0.5 -4,-0.6 -6,-0.3 -2,0.3 -3.9,1.2 -5.3,2.5 -1.4,1.4 -2.3,3.2 -2.9,5.1 -0.6,1.9 -1,3.9 -1.3,5.9 -1.2,8 -1.5,16.1 -1.7,24.2 v 0.2 l -0.1,0.2 c -0.4,0.5 -0.7,1.3 -0.8,2 -0.2,0.7 -0.2,1.5 -0.2,2.3 0,0.8 0.1,1.6 0.2,2.3 0.1,0.4 0.1,0.8 0.3,1.1 0.1,0.3 0.3,0.7 0.4,0.9 l 0.2,0.2 -0.1,0.2 c -0.6,2.5 -1.1,5.1 -1.6,7.7 -0.4,2.6 -0.7,5.2 -0.7,7.8 0,1.3 0.2,2.6 0.4,3.9 0.2,1.3 0.5,2.6 0.9,3.8 0.4,1.3 0.8,2.5 1.5,3.6 0.6,1.1 1.4,2.3 2.7,2.8 -0.6,-0.2 -1.2,-0.6 -1.6,-1.1 -0.5,-0.5 -0.9,-1 -1.2,-1.6 -0.7,-1.1 -1.2,-2.4 -1.6,-3.6 -0.4,-1.3 -0.8,-2.5 -1.1,-3.8 -0.3,-1.3 -0.5,-2.6 -0.5,-4 -0.1,-2.7 0.2,-5.3 0.5,-8 0.4,-2.6 0.9,-5.2 1.5,-7.8 l 0.1,0.4 c -0.4,-0.5 -0.5,-0.8 -0.6,-1.2 -0.1,-0.4 -0.2,-0.8 -0.3,-1.2 -0.1,-0.8 -0.2,-1.6 -0.2,-2.5 0,-0.8 0,-1.7 0.2,-2.5 0.2,-0.8 0.4,-1.6 1,-2.4 l -0.1,0.3 c 0,-4.1 0.2,-8.1 0.5,-12.2 0.3,-4.1 0.7,-8.1 1.4,-12.2 0.4,-2 0.8,-4 1.5,-6 0.7,-1.9 1.6,-3.9 3.2,-5.3 1.5,-1.4 3.6,-2.2 5.6,-2.5 1.7,0 3.8,0.2 5.8,0.8 z"
   id="path454"
   inkscape:connector-curvature="0" />
	</g>
	<g
   id="g460">
		<path
   d="m 174.7,208.1 c -0.3,0.5 -0.6,0.6 -1,0.8 -0.3,0.2 -0.7,0.5 -1,0.7 -0.6,0.5 -1.3,1.1 -1.9,1.6 -1.2,1.1 -2.4,2.3 -3.6,3.4 v 0 l 0.1,-0.3 0.1,1.4 v 0 0.1 c -0.7,2.9 -1.5,5.7 -2.3,8.5 v -0.1 l -1.5,9.3 c -0.5,3.1 -1,6.2 -1.6,9.3 0.3,-3.1 0.6,-6.2 1,-9.4 l 1.1,-9.3 v 0 0 c 0.8,-2.8 1.5,-5.7 2.4,-8.5 v 0.1 l 0.1,-1.4 v -0.2 l 0.1,-0.1 v 0 c 1.1,-1.3 2.3,-2.5 3.5,-3.6 0.6,-0.6 1.3,-1.1 2,-1.6 0.4,-0.2 0.7,-0.5 1.1,-0.7 0.4,-0.1 0.9,-0.4 1.4,0 z"
   id="path458"
   inkscape:connector-curvature="0" />
	</g>
	<g
   id="g464">
		<path
   d="m 166.9,193.1 c 0.4,4 0.5,8 0.5,12 0,4 -0.1,8 -0.5,12 -0.4,-4 -0.5,-8 -0.5,-12 0,-4 0.1,-8 0.5,-12 z"
   id="path462"
   inkscape:connector-curvature="0" />
	</g>
	<g
   id="g468">
		<path
   d="m 198.7,219.5 c -3.1,-0.1 -6.3,0.4 -8.9,2 -1.3,0.8 -2.5,1.7 -3.5,2.9 -0.9,1.2 -1.6,2.5 -2.2,4 -2.3,5.7 -3.4,11.9 -4.6,17.9 -0.6,3 -1.3,6.1 -2.1,9.1 -0.8,3 -1.6,6 -2.5,9 -0.9,3 -1.7,6 -2.5,9 -0.4,1.5 -0.8,3 -1.1,4.5 -0.2,0.8 -0.3,1.5 -0.4,2.3 -0.1,0.8 -0.2,1.5 0,2.3 -0.2,-0.7 -0.2,-1.6 -0.1,-2.3 0.1,-0.8 0.2,-1.5 0.3,-2.3 0.3,-1.5 0.6,-3.1 0.9,-4.6 0.7,-3 1.5,-6 2.2,-9.1 0.8,-3 1.6,-6 2.4,-9 0.7,-3 1.4,-6 2,-9.1 1.3,-6.1 2.4,-12.2 4.9,-18 0.6,-1.4 1.4,-2.9 2.4,-4.1 1,-1.2 2.3,-2.2 3.7,-2.9 2.8,-1.5 6,-2 9.1,-1.6 z"
   id="path466"
   inkscape:connector-curvature="0" />
	</g>
	<g
   id="g472">
		<path
   d="m 162.8,243 c 1,1.2 2,2.2 3.1,3.2 1.1,0.9 2.3,1.8 3.6,2.5 1.3,0.7 2.6,1.2 4.1,1.6 1.4,0.4 2.9,0.6 4.4,0.7 -1.5,0.2 -3,0.4 -4.6,0.1 -0.8,-0.1 -1.5,-0.3 -2.2,-0.5 -0.7,-0.3 -1.4,-0.6 -2.1,-0.9 -2.7,-1.7 -5,-4 -6.3,-6.7 z"
   id="path470"
   inkscape:connector-curvature="0" />
	</g>
	<g
   id="g476">
		<path
   d="m 162.4,253.2 c 0.8,1.1 1.7,2.1 2.6,3 0.9,0.9 1.9,1.7 3,2.4 1.1,0.7 2.2,1.3 3.4,1.8 1.2,0.5 2.5,0.8 3.8,1.2 -1.3,0 -2.7,0 -4,-0.4 -1.3,-0.3 -2.6,-0.9 -3.7,-1.7 -1.2,-0.7 -2.2,-1.7 -3.1,-2.7 -0.8,-1.1 -1.5,-2.3 -2,-3.6 z"
   id="path474"
   inkscape:connector-curvature="0" />
	</g>
	<g
   id="g480">
		<path
   d="m 186.8,223.3 c -0.3,-1 -0.2,-2.1 0.1,-3.1 0.3,-1 0.9,-2 1.7,-2.8 0.8,-0.7 1.8,-1.3 2.9,-1.5 0.5,-0.1 1.1,-0.1 1.6,-0.2 0.5,0 1,0.1 1.6,0.1 -0.5,0.1 -1,0.2 -1.5,0.4 -0.5,0.2 -1,0.3 -1.4,0.5 -0.9,0.3 -1.7,0.8 -2.4,1.5 -1.6,1.2 -2.3,3.1 -2.6,5.1 z"
   id="path478"
   inkscape:connector-curvature="0" />
	</g>
	<g
   id="g484">
		<path
   d="m 195.8,216.8 c -0.9,0.3 -1.7,0.5 -2.5,0.8 -0.4,0.1 -0.8,0.3 -1.1,0.4 -0.1,0 -0.1,0.1 -0.2,0.1 0,0 0,0 0,-0.1 0,-0.2 -0.1,-0.2 -0.1,-0.2 0,0 0.1,0 0.2,0.1 0.7,0.1 1.7,0.1 2.5,0.1 0.9,0 1.8,0 2.7,0.1 -0.8,0.3 -1.7,0.5 -2.6,0.7 -0.9,0.1 -1.8,0.2 -2.8,0.1 -0.1,0 -0.3,-0.1 -0.4,-0.1 -0.1,-0.1 -0.4,-0.2 -0.5,-0.6 0,-0.4 0.2,-0.6 0.3,-0.7 0.1,-0.1 0.3,-0.2 0.4,-0.2 0.5,-0.2 0.9,-0.3 1.4,-0.4 0.9,-0.2 1.8,-0.2 2.7,-0.1 z"
   id="path482"
   inkscape:connector-curvature="0" />
	</g>
	<g
   id="g488">
		<path
   d="m 200.8,221.8 c -3.6,0.3 -7.1,1.5 -9.9,3.6 -1.4,1.1 -2.7,2.3 -3.6,3.8 -0.5,0.7 -0.9,1.5 -1.3,2.3 -0.3,0.8 -0.6,1.6 -0.9,2.5 -1.1,3.4 -2,6.9 -2.7,10.4 -0.7,3.5 -1.3,7.1 -1.7,10.6 v 0.2 l -0.2,0.1 c -0.3,0.2 -0.6,0.5 -0.8,0.9 -0.2,0.4 -0.4,0.8 -0.5,1.2 -0.1,0.4 -0.1,0.9 0,1.3 0.1,0.4 0.2,0.9 0.5,1.1 l 0.2,0.2 -0.1,0.2 -2.5,6.4 c -0.8,2.1 -1.6,4.3 -2.3,6.5 -0.4,1.1 -0.7,2.2 -1,3.3 -0.3,1.1 -0.4,2.2 -0.4,3.4 0,1.1 0.3,2.3 1.1,3.1 0.8,0.8 1.9,1.2 3,1.5 -1.1,-0.2 -2.3,-0.6 -3.2,-1.4 -0.9,-0.8 -1.3,-2 -1.3,-3.2 0,-1.2 0,-2.3 0.3,-3.5 0.3,-1.1 0.6,-2.2 0.9,-3.3 1.4,-4.4 2.9,-8.7 4.6,-13 l 0.1,0.4 c -0.4,-0.5 -0.5,-1 -0.6,-1.5 -0.1,-0.5 -0.1,-1.1 0,-1.6 0.1,-0.5 0.3,-1.1 0.6,-1.5 0.3,-0.5 0.6,-0.9 1.2,-1.2 l -0.2,0.4 c 0.3,-3.6 1,-7.2 1.7,-10.7 0.8,-3.5 1.7,-7 2.8,-10.5 1.1,-3.5 3.3,-6.7 6.3,-8.8 2.7,-2.1 6.3,-3.1 9.9,-3.2 z"
   id="path486"
   inkscape:connector-curvature="0" />
	</g>
	<g
   id="g492">
		<path
   d="m 149,185.4 c 2.9,-0.4 5.7,-0.5 8.6,-0.5 2.9,0 5.7,0.1 8.6,0.5 -2.9,0.4 -5.7,0.5 -8.6,0.5 -2.8,-0.1 -5.7,-0.2 -8.6,-0.5 z"
   id="path490"
   inkscape:connector-curvature="0" />
	</g>
	<g
   id="g496">
		<path
   d="m 147.6,194.9 c 3.1,-0.5 6.2,-0.8 9.3,-0.9 3.1,-0.1 6.2,-0.2 9.3,0.1 -3.1,0.5 -6.2,0.8 -9.3,0.9 -3,0.1 -6.1,0.1 -9.3,-0.1 z"
   id="path494"
   inkscape:connector-curvature="0" />
	</g>
	<g
   id="g500">
		<path
   d="m 146.3,205 c 3.3,-0.4 6.7,-0.5 10,-0.5 3.3,0 6.7,0.1 10,0.5 -3.3,0.4 -6.7,0.5 -10,0.5 -3.3,0 -6.6,-0.1 -10,-0.5 z"
   id="path498"
   inkscape:connector-curvature="0" />
	</g>
	<g
   id="g504">
		<path
   d="m 146,215.4 c 3.5,-0.3 7,-0.3 10.5,-0.3 3.5,0.1 7,0.3 10.5,0.7 -3.5,0.3 -7,0.3 -10.5,0.3 -3.5,-0.1 -7,-0.3 -10.5,-0.7 z"
   id="path502"
   inkscape:connector-curvature="0" />
	</g>
	<g
   id="g508">
		<path
   d="m 146.3,224 c 3,-0.3 6,-0.3 9,-0.2 3,0.1 6,0.3 8.9,0.8 -3,0.3 -6,0.3 -9,0.2 -2.9,-0.1 -5.9,-0.3 -8.9,-0.8 z"
   id="path506"
   inkscape:connector-curvature="0" />
	</g>
	<g
   id="g512">
		<path
   d="m 144.7,232.1 c 3.2,-0.4 6.3,-0.5 9.5,-0.5 3.2,0 6.3,0.1 9.5,0.5 -3.2,0.4 -6.3,0.5 -9.5,0.5 -3.2,-0.1 -6.3,-0.1 -9.5,-0.5 z"
   id="path510"
   inkscape:connector-curvature="0" />
	</g>
	<g
   id="g516">
		<path
   d="m 144.1,243.5 c 2.8,-0.3 5.6,-0.4 8.4,-0.3 2.8,0.1 5.6,0.2 8.4,0.7 -2.8,0.3 -5.6,0.4 -8.4,0.3 -2.8,-0.1 -5.6,-0.2 -8.4,-0.7 z"
   id="path514"
   inkscape:connector-curvature="0" />
	</g>
	<g
   id="g520">
		<path
   d="m 185.6,231.4 c 2.4,-0.8 4.8,-1.3 7.2,-1.7 2.4,-0.4 4.9,-0.7 7.3,-0.7 -2.4,0.8 -4.8,1.3 -7.2,1.7 -2.4,0.3 -4.8,0.6 -7.3,0.7 z"
   id="path518"
   inkscape:connector-curvature="0" />
	</g>
	<g
   id="g524">
		<path
   d="m 183.4,239.8 c 2.3,-0.7 4.6,-1.1 6.9,-1.4 2.3,-0.3 4.7,-0.5 7,-0.4 -2.3,0.7 -4.6,1.1 -6.9,1.4 -2.3,0.3 -4.7,0.5 -7,0.4 z"
   id="path522"
   inkscape:connector-curvature="0" />
	</g>
	<g
   id="g528">
		<path
   d="m 181.5,247.9 c 2.5,-0.7 5.1,-1 7.7,-1.3 2.6,-0.3 5.2,-0.4 7.8,-0.3 -2.5,0.7 -5.1,1 -7.7,1.3 -2.6,0.2 -5.2,0.4 -7.8,0.3 z"
   id="path526"
   inkscape:connector-curvature="0" />
	</g>
	<g
   id="g532">
		<path
   d="m 180.1,255 c 2.4,-0.7 4.9,-1.1 7.4,-1.4 2.5,-0.3 5,-0.5 7.5,-0.4 -2.4,0.7 -4.9,1.1 -7.4,1.4 -2.5,0.3 -4.9,0.5 -7.5,0.4 z"
   id="path530"
   inkscape:connector-curvature="0" />
	</g>
	<g
   id="g536">
		<path
   d="m 179.4,259.9 c 2.4,-0.4 4.8,-0.5 7.2,-0.5 2.4,0 4.8,0.1 7.2,0.5 -2.4,0.4 -4.8,0.5 -7.2,0.5 -2.5,0 -4.9,-0.1 -7.2,-0.5 z"
   id="path534"
   inkscape:connector-curvature="0" />
	</g>
	<g
   id="g540">
		<path
   d="m 177,267.4 c 2.2,-0.3 4.4,-0.4 6.6,-0.3 2.2,0.1 4.4,0.2 6.5,0.7 -2.2,0.3 -4.4,0.4 -6.6,0.3 -2.1,-0.1 -4.3,-0.2 -6.5,-0.7 z"
   id="path538"
   inkscape:connector-curvature="0" />
	</g>
	<g
   id="g544">
		<path
   d="m 174.5,274.6 c 2.3,-0.5 4.6,-0.6 6.8,-0.7 2.3,0 4.6,0 6.9,0.3 -2.3,0.5 -4.6,0.6 -6.8,0.7 -2.4,0 -4.6,0 -6.9,-0.3 z"
   id="path542"
   inkscape:connector-curvature="0" />
	</g>
	<g
   id="g548">
		<path
   d="m 135.9,174.2 c 1,-0.6 2,-0.8 3.1,-1 0.5,-0.1 1,-0.1 1.6,-0.1 0.5,0 1.1,0.1 1.6,0.4 -0.6,0.1 -1,0.3 -1.5,0.4 -0.5,0.2 -1,0.3 -1.5,0.4 -1.1,0.1 -2.2,0.2 -3.3,-0.1 z"
   id="path546"
   inkscape:connector-curvature="0" />
	</g>
	<g
   id="g552">
		<path
   d="m 149,173.6 c -1,1.3 -1.8,2.6 -2.3,4 -0.3,0.7 -0.5,1.4 -0.7,2.2 -0.1,0.4 -0.2,0.7 -0.1,1.1 0,0.3 0.1,0.7 0.5,0.9 -0.4,0 -0.8,-0.4 -1,-0.8 -0.2,-0.4 -0.2,-0.9 -0.1,-1.3 0,-0.8 0.2,-1.7 0.5,-2.4 0.6,-1.7 1.7,-3 3.2,-3.7 z"
   id="path550"
   inkscape:connector-curvature="0" />
	</g>
	<g
   id="g556">
		<path
   d="m 150.6,173.8 c -0.5,0.6 -1,1.2 -1.3,1.9 -0.1,0.2 -0.1,0.3 -0.2,0.5 -0.1,0.2 0,0.3 0,0.2 0,-0.1 -0.1,-0.1 -0.1,-0.1 0,0 0,0 0.1,0 0.1,0 0.3,-0.1 0.4,-0.2 0.3,-0.1 0.6,-0.4 0.9,-0.6 0.4,-0.2 0.7,-0.4 1.1,-0.6 0.8,-0.3 1.6,-0.4 2.4,-0.4 -0.7,0.3 -1.4,0.7 -2.1,1.1 -0.7,0.4 -1.1,0.9 -1.9,1.3 -0.2,0.1 -0.4,0.2 -0.7,0.2 -0.1,0 -0.3,0.1 -0.5,0 -0.2,0 -0.5,-0.2 -0.6,-0.4 -0.2,-0.5 0,-0.7 0,-0.9 0.1,-0.2 0.2,-0.4 0.3,-0.6 0.8,-0.6 1.5,-1.1 2.2,-1.4 z"
   id="path554"
   inkscape:connector-curvature="0" />
	</g>
</g>
</svg>