<?xml version="1.0" encoding="UTF-8"?>
<svg width="247px" height="304px" viewBox="0 0 247 304" version="1.1" xmlns="http://www.w3.org/2000/svg" xmlns:xlink="http://www.w3.org/1999/xlink">
    <!-- Generator: Sketch 49.1 (51147) - http://www.bohemiancoding.com/sketch -->
    <title>Page 1</title>
    <desc>Created with Sketch.</desc>
    <defs>
        <rect id="path-1" x="0" y="0" width="279" height="305"></rect>
        <polygon id="path-3" points="0.000192510196 345.954291 250.892538 345.954291 250.892538 0.493151189 0.000192510196 0.493151189"></polygon>
    </defs>
    <g id="Symbols" stroke="none" stroke-width="1" fill="none" fill-rule="evenodd">
        <g id="newsletter-desktop-hd" transform="translate(-76.000000, 104.000000)">
            <g id="Page-1" transform="translate(56.000000, -105.000000)">
                <mask id="mask-2" fill="white">
                    <use xlink:href="#path-1"></use>
                </mask>
                <g id="Mask"></g>
                <g mask="url(#mask-2)">
                    <g transform="translate(16.000000, 1.000000)">
                        <path d="M73.2534926,254.466845 C73.9320952,254.473498 74.5591374,254.476824 75.1146601,254.480151 C74.2830392,255.148774 73.4065108,256.009502 72.5091919,256.922621 L72.4867381,256.945075 L71.9154145,256.451924 C72.3570052,255.811576 72.8052489,255.145448 73.2534926,254.466845" id="Fill-1" fill="#FEFEFE"></path>
                        <path d="M141.894649,36.5054128 C143.626084,35.1373964 145.207827,34.5644096 146.347979,34.8895734 C150.633322,36.1137193 168.912349,49.0703728 177.221905,64.8603587 C177.384902,65.1655636 177.267644,65.5422878 176.962439,65.7011274 C176.657234,65.8624619 176.28051,65.7452033 176.117512,65.4416617 C167.947669,49.9119732 149.701075,37.1457609 146.007015,36.0879391 C145.448165,35.9290995 144.278906,36.211019 142.668057,37.4850622 C137.726565,41.3895223 129.650695,54.347839 130.722654,78.1513238 C130.739287,78.4956148 130.473168,78.7866822 130.128877,78.802483 C129.783754,78.8191154 129.491855,78.5521651 129.478549,78.207874 C128.452329,55.4780118 135.52776,41.5375508 141.894649,36.5054128 M141.117915,72.6335192 C141.117915,66.0878311 143.934615,52.9149562 147.562977,45.7405628 C147.706016,45.4569801 148.041159,45.3264156 148.336385,45.4386844 C157.312069,48.8042542 164.273568,59.4498332 166.700237,64.6083776 C166.790884,64.8013136 166.77841,65.0275145 166.661151,65.2079762 C166.548051,65.3876064 166.349293,65.4965487 166.134735,65.4965487 C156.954472,65.4965487 146.432805,68.8263587 142.184053,73.0759415 C142.005255,73.2539084 141.739136,73.3063005 141.504619,73.2106641 C141.270934,73.1141961 141.117915,72.8871636 141.117915,72.6335192 M186.152682,98.6432942 C186.207569,98.9942382 174.603962,85.5610659 160.713398,84.7768474 C154.151078,83.9285941 146.806202,86.638015 143.22358,90.9541274 C139.458,95.0839568 138.392694,99.1023489 138.065035,98.9468358 C138.058382,98.9759425 138.191441,96.5916854 140.84847,92.5308806 C143.203621,88.5565644 149.931434,82.8117273 160.479713,83.652496 C170.884122,84.6828743 177.34249,89.8023325 181.074804,93.0331796 C184.866164,96.4195399 186.181788,98.6366412 186.152682,98.6432942 M48.1002871,81.3672018 C50.7639688,79.3097717 54.3532446,78.4839722 58.4922217,78.9521747 C61.5617344,75.1142443 65.596759,73.3162799 70.1873063,73.7545441 C76.4984773,74.3591325 82.7298126,79.1667329 85.848391,83.97267 C100.163913,95.1430019 106.356162,103.241326 108.681374,113.831187 C111.1779,125.199444 108.881795,139.830982 104.044256,161.162058 C104.192285,161.18867 104.33865,161.21445 104.485015,161.24023 C104.809347,158.867616 105.696687,156.632219 107.138717,154.603896 C110.988291,149.190044 115.47738,146.410767 120.482075,146.34091 C126.389078,146.260243 132.805033,150.103163 139.195208,157.501263 C136.901597,151.095287 135.436281,142.40568 135.020471,130.038646 C134.406735,111.746313 141.36158,103.015957 147.306838,98.9144026 C155.070851,93.5562692 164.569625,93.6776858 170.536504,96.175875 C184.239122,101.912396 193.094221,120.310345 193.094221,143.045197 C193.094221,156.485854 195.980777,159.21856 197.461894,159.567009 C200.116428,160.194051 204.119851,154.946523 208.548232,146.093919 C220.067013,123.050536 223.068333,123.76074 224.056299,123.992762 C225.625567,124.362833 225.804366,126.817778 225.804366,128.631544 C225.804366,136.829662 224.874613,144.276827 223.052532,150.968881 C232.518873,136.506162 239.047928,117.98347 234.32848,110.98538 C232.48644,108.253505 228.993632,107.493404 223.942366,108.725034 C223.608055,108.805701 223.270417,108.601123 223.188918,108.266811 C223.107419,107.9325 223.311998,107.59403 223.647141,107.513363 C224.485415,107.308784 225.284603,107.162419 226.048031,107.060129 C224.949459,99.9214955 222.701588,92.760408 219.385084,85.681651 C219.359304,85.6409015 219.339345,85.6001521 219.326039,85.5527497 C208.752811,63.0898378 187.422567,41.4676946 158.05637,24.0360891 C120.889569,1.97401851 97.0553141,2.04054818 82.8138063,2.08212923 L82.5152544,2.08212923 C96.1654797,16.2072101 106.771973,36.5769322 108.473469,52.1224215 C108.496754,52.3228421 108.420245,52.5207679 108.26889,52.6554905 C108.12003,52.7885498 107.913788,52.8434368 107.716694,52.7985293 C67.8546097,43.829498 33.5593958,61.488136 22.0522575,72.1761277 C33.4279997,74.4855389 43.4348939,81.8528684 45.8557423,83.7389846 C46.4694785,82.847487 47.2162741,82.0516258 48.1002871,81.3672018" id="Fill-3" fill="#007DC4"></path>
                        <path d="M88.1657857,109.072485 C87.0954896,110.340707 85.7000298,111.279607 83.9960386,111.882532 C83.8696322,117.697226 80.9265259,121.407087 75.8428274,122.170515 C75.8586282,133.475569 75.7746344,135.047332 72.5354711,138.288159 L72.4839106,138.338056 C67.8185174,143.003449 62.5368931,148.276758 53.0347928,145.475027 C51.8780081,146.807283 50.5124866,147.960742 49.0621398,148.603585 C45.6832641,150.10466 38.4556469,152.904728 33.6056339,151.900961 C29.2196653,158.840006 28.268291,168.310505 28.0695336,171.486465 C55.9354865,156.104805 77.9052472,158.187184 86.234762,158.983045 C87.2676352,159.080345 88.112562,159.159349 88.7454255,159.187624 C92.7546698,148.032261 99.8459012,127.754849 88.1657857,109.072485" id="Fill-5" fill="#007DC4"></path>
                        <path d="M77.5935557,262.977986 L71.1875799,257.47515 C67.8802236,262.123911 64.7225591,265.69406 61.7312188,268.168963 L66.5937061,272.187356 C69.5343176,270.358621 74.3161377,267.032138 77.5935557,262.977986" id="Fill-7" fill="#007DC4"></path>
                        <path d="M77.0184898,238.149528 C77.2779555,238.084662 77.5382529,238.019795 77.7952237,237.948276 L86.1663196,228.22247 C82.1296318,226.89354 78.4156129,224.593276 74.9718708,221.293404 L71.3177286,224.925093 C74.4263275,226.900193 76.3415504,231.350196 77.0184898,238.149528" id="Fill-9" fill="#007DC4"></path>
                        <path d="M115.482619,230.957338 C117.306364,230.551507 119.34633,230.031744 121.479438,229.488696 C129.959476,227.328976 135.784148,226.000046 138.051979,227.348104 C138.149278,226.432489 138.207492,225.486936 138.207492,224.544709 C138.207492,224.200418 138.486916,223.920994 138.831207,223.920994 C139.175498,223.920994 139.454923,224.200418 139.454923,224.544709 C139.454923,224.963015 139.44328,225.379657 139.423322,225.792141 C139.423322,225.804615 139.423322,225.816258 139.42249,225.827901 C139.409184,226.061586 139.390057,226.28945 139.374256,226.516483 C139.370929,226.565548 139.36594,226.612119 139.362613,226.661185 C139.352634,226.794244 139.343486,226.927303 139.331843,227.056205 C139.309389,227.295711 139.281946,227.526902 139.255334,227.758924 C139.245355,227.842918 139.23787,227.927743 139.227891,228.010905 C139.227059,228.015895 139.227059,228.020053 139.226227,228.025043 C139.21708,228.088246 139.210427,228.152281 139.201279,228.215484 C139.153045,228.585555 139.100653,228.949805 139.045766,229.307402 L139.045766,229.310729 L139.044934,229.310729 C139.043271,229.314055 139.042439,229.317382 139.042439,229.319877 C138.974246,229.745667 138.900232,230.150666 138.823723,230.545686 C138.81707,230.584772 138.809585,230.621363 138.802101,230.659618 C138.730581,231.023868 138.657399,231.37398 138.583384,231.704965 C138.577563,231.731577 138.572573,231.757357 138.566752,231.783138 C138.491074,232.120776 138.414565,232.446771 138.340551,232.74366 C138.33473,232.760292 138.331403,232.77942 138.328077,232.796052 C138.246578,233.111236 138.171732,233.40064 138.100213,233.660106 C139.587982,232.915805 141.099038,232.295416 142.602608,231.847173 C148.794857,229.999311 153.329686,229.70658 156.389219,230.957338 C157.530203,226.623762 158.501536,220.562077 157.312319,219.372859 C152.472285,214.536152 137.038233,214.227621 123.514414,218.671803 C121.130157,223.014527 118.326763,227.175958 115.482619,230.957338" id="Fill-11" fill="#007DC4"></path>
                        <path d="M136.658099,195.269076 C136.056837,195.064497 135.459733,194.856592 134.871777,194.635381 C127.021276,191.692275 120.074747,187.462651 114.795617,182.619291 C114.594365,188.87308 113.14984,197.305716 111.690345,204.433538 C112.739019,202.532453 113.756091,200.577312 114.778985,198.488281 C117.535808,192.86486 121.971674,191.620755 124.928086,192.845733 C128.631294,194.379242 131.015551,199.88873 127.987619,208.737176 C127.026266,211.55055 125.780498,214.350617 124.355931,217.092472 C126.272817,216.507842 128.212157,216.013859 130.141518,215.611355 C132.899172,212.678228 137.35666,202.071735 136.658099,195.269076" id="Fill-13" fill="#007DC4"></path>
                        <path d="M137.94445,195.68813 C138.223875,199.950187 136.800971,205.25177 135.007997,209.539607 C138.415148,208.974937 148.505204,207.918778 156.98441,213.239489 C157.094184,210.604914 157.162377,203.653395 155.093304,199.092786 C149.207092,198.53061 143.343333,197.406259 137.94445,195.68813" id="Fill-15" fill="#007DC4"></path>
                        <path d="M235.36443,110.2874 C236.819766,112.447951 237.317076,115.517464 237.076737,119.136678 C243.842805,111.073282 249.645024,93.8154854 249.645024,90.2378523 C249.645024,88.3093235 242.082263,86.066442 220.89589,85.998249 C224.062702,92.932304 226.223253,99.9428682 227.288559,106.9368 C230.991767,106.708936 233.704515,107.826634 235.36443,110.2874" id="Fill-17" fill="#007DC4"></path>
                        <path d="M148.424204,46.8340611 C145.007074,53.9161446 142.74257,65.1737966 142.41408,71.2171856 C147.199226,67.3908979 156.626481,64.4868778 165.141447,64.2723196 C162.834531,59.8023573 156.51338,50.1771771 148.424204,46.8340611" id="Fill-19" fill="#FCD1AF"></path>
                        <path d="M89.7981744,159.950802 C89.4863165,160.823172 89.2035654,161.610717 88.9532476,162.333396 C93.4107355,160.860595 98.1368371,160.383245 102.808883,160.980349 C112.790829,116.972634 110.700965,105.51872 87.3423979,86.7457099 C90.0385128,92.6236064 92.1075856,100.919025 89.6908953,106.590679 C89.4796636,107.087989 89.2268508,107.542054 88.9549108,107.979486 C101.460826,127.481828 93.8847594,148.584208 89.7981744,159.950802" id="Fill-21" fill="#FCD1AF"></path>
                        <path d="M69.7613501,203.932903 C71.3073333,207.717609 71.7297968,213.015866 71.8437288,215.955646 C78.3045915,224.210315 85.7891795,228.264467 94.7066504,228.34846 C94.8397097,228.196274 94.9760955,228.046582 95.10666,227.891069 C101.713888,219.847632 106.035822,213.987199 109.679153,207.922188 C112.189816,196.402575 113.532052,187.264725 113.571139,181.456685 C109.461268,177.408354 106.516499,172.986626 105.163451,168.564066 C104.523935,166.478361 104.266964,164.441721 104.370917,162.487412 C98.9495802,161.467845 93.3876996,161.984282 88.2457877,163.902831 C88.227492,163.911979 88.2083647,163.916968 88.1900691,163.923621 C85.2669216,165.021361 82.4760019,166.561523 79.9320736,168.539949 C73.8188284,173.290999 66.383306,182.641744 65.4360898,200.248822 C67.2157586,200.587292 68.776711,201.528687 69.7613501,203.932903" id="Fill-23" fill="#FCD1AF"></path>
                        <path d="M124.450154,193.998858 C122.016831,192.988439 118.300317,194.135244 115.900259,199.037649 C110.832362,209.370539 106.014782,216.575702 96.0694275,228.683271 C95.8631855,228.933589 95.6453009,229.177254 95.4282478,229.420919 C91.0031931,234.387359 84.7676996,237.340444 78.4157792,239.068553 C78.3409334,239.107639 78.2594345,239.127598 78.1762724,239.133419 C77.6581726,239.273131 77.1384095,239.403696 76.6186465,239.526776 C76.5862133,239.536755 76.5571065,239.552556 76.5213468,239.555882 C76.5146939,239.555882 76.512199,239.552556 76.5055461,239.552556 C74.1795024,240.098931 71.8634382,240.488129 69.6380207,240.767554 C69.4725282,240.962985 69.1997565,241.046979 68.9427857,240.953005 C68.8903935,240.933878 68.8504757,240.898119 68.8063998,240.864854 C65.4632839,241.245736 62.354685,241.372142 59.7725021,241.382122 C58.7654092,242.834132 57.7159036,244.63376 56.6472708,246.852524 C55.534562,249.165262 54.801904,251.22186 54.45096,252.946642 C57.7350309,253.004855 71.1698664,253.235214 76.0439965,253.235214 C76.5471271,253.235214 77.0901755,253.219414 77.6523513,253.19696 L77.6581726,253.19696 L77.6648256,253.19696 C78.8673494,253.144568 80.1954479,253.040615 81.599224,252.875123 C81.6150248,252.871796 81.6250043,252.865143 81.6408051,252.861817 C81.6574375,252.861817 81.6740699,252.86847 81.6898707,252.865143 C88.4210102,252.065955 96.798759,249.896257 100.968506,245.724846 C105.619762,241.072759 121.234276,224.625793 126.806967,208.334339 C129.572938,200.249321 127.616134,195.30783 124.450154,193.998858" id="Fill-25" fill="#FCD1AF"></path>
                        <path d="M139.526526,184.419001 C139.608025,184.364114 138.366415,179.468362 133.965477,175.499867 C129.88804,171.414946 124.57814,167.405701 121.887015,165.320828 C121.317355,164.865931 121.380558,164.530788 121.633371,164.407708 C116.845729,166.309625 117.886918,170.217412 117.28732,169.864804 C116.837413,170.222401 116.864856,164.339515 121.399685,163.301652 C125.271712,162.013471 129.478882,164.25469 129.238544,164.529125 C129.097168,165.245982 126.863434,163.264229 121.812169,164.331199 C121.768093,164.347831 121.733997,164.366959 121.692416,164.383591 C121.857908,164.329536 122.075793,164.352821 122.260413,164.475901 C124.46504,165.936227 129.898019,169.973747 134.124316,174.404623 C138.80551,178.597655 140.039636,184.438129 139.526526,184.419001 M187.903576,183.821066 C187.585065,181.934118 188.760977,179.974819 190.918202,178.30243 C187.227468,177.09658 181.925885,177.593889 176.390617,178.111989 C168.925987,178.812213 161.210209,179.536555 155.840433,176.382217 C149.768769,172.814564 144.610224,169.100545 140.932797,161.640074 C133.899779,152.362511 126.837654,147.502518 120.499871,147.588175 C115.91265,147.65221 111.761199,150.255184 108.155291,155.326408 C105.530695,159.017141 104.90698,163.468808 106.355663,168.199068 C107.667961,172.488568 110.549527,176.781395 114.579562,180.715794 C114.616985,180.7449 114.647755,180.774007 114.676862,180.813093 C119.930211,185.910098 127.113752,190.395861 135.310208,193.469532 C156.77268,201.51879 189.248307,198.939934 195.875494,188.785011 C191.519464,188.242794 188.34184,186.433187 187.903576,183.821066" id="Fill-27" fill="#FCD1AF"></path>
                        <path d="M104.445763,272.957437 C104.198771,274.032722 103.782961,275.062269 103.185025,276.021128 C100.394937,280.484437 92.6924646,292.793258 78.8185332,299.383854 C88.7131586,301.443779 101.051086,310.990786 105.37801,320.126142 C116.30634,308.561622 122.971781,296.538047 123.893217,294.833224 C123.167212,292.149583 122.630817,289.134958 122.315632,286.464623 C120.844495,282.862041 116.209872,274.614025 104.445763,272.957437" id="Fill-31" fill="#DA4057"></path>
                        <path d="M141.897976,271.411121 C141.881343,271.037723 141.839762,270.559541 141.78737,269.984891 C141.410646,265.908285 140.585678,256.929274 147.209538,248.307861 C146.60495,248.671279 146.007015,249.028876 145.393278,249.402274 C138.165661,253.794064 123.238898,267.470901 123.238898,281.719062 C123.238898,284.918307 123.98902,290.531748 125.219819,294.936844 C126.223585,288.985765 132.107303,280.776835 141.897976,271.411121" id="Fill-33" fill="#DA4057"></path>
                        <path d="M163.114122,255.399175 C140.423346,272.207065 126.32155,288.023663 126.311571,296.678341 C126.309907,297.665475 126.492032,298.536182 126.853788,299.306263 C127.025933,299.628101 127.203068,299.92 127.38353,300.173644 C127.391846,300.183623 127.400162,300.192771 127.405984,300.202751 C127.479166,300.303377 127.552349,300.39735 127.627195,300.485502 C127.90662,300.809834 128.23012,301.109217 128.601855,301.385316 C137.243227,307.813745 169.058548,299.030165 192.493625,279.986878 C214.505798,262.104534 231.359427,234.218623 231.683759,227.919926 C231.716192,227.29621 231.57648,227.107432 231.534067,227.065851 C227.522328,223.053281 191.82417,234.134629 163.114122,255.399175" id="Fill-35" fill="#92473E"></path>
                        <path d="M156.542238,258.839341 C158.413385,257.370699 160.356051,255.889582 162.370237,254.398486 C187.208258,235.998874 218.046424,224.485914 228.942321,225.087176 C222.412434,221.208496 205.656936,217.612567 166.937499,237.317824 C158.188847,242.083844 155.983388,254.766062 156.542238,258.839341" id="Fill-37" fill="#DA4057"></path>
                        <path d="M88.5410131,106.103349 C90.8021903,100.801766 88.729791,92.2610197 85.6727526,86.1494377 C83.1812164,81.1630389 76.6613086,75.6286018 70.0698815,74.9957383 C66.0415099,74.6106978 62.6077472,76.049402 59.8434394,79.2702697 C62.5628397,79.409982 69.3047902,82.6358395 69.0095648,83.1073685 C68.8939695,83.2271219 61.8542987,80.4727935 59.2771055,80.1900424 C59.214734,80.17341 59.1698264,80.1409768 59.1324035,80.1018906 C59.129077,80.1052171 59.122424,80.1085436 59.1157711,80.11187 C59.0700319,80.1443033 59.0201347,80.1675886 58.9660793,80.1867159 C58.946952,80.1933689 58.929488,80.2000219 58.9078659,80.2058432 C58.8446627,80.2224756 58.7814595,80.2258021 58.7132666,80.2191491 C58.7032871,80.2191491 58.6933077,80.2224756 58.6841598,80.2224756 C54.7306341,79.7077023 51.3359576,80.4445184 48.8635487,82.3530883 C47.0281614,83.7726652 45.84227,85.7477648 45.3873734,88.0937674 C45.5337387,88.0937674 45.680104,88.0904409 45.8297957,88.0904409 C53.1422382,88.0904409 60.6817132,91.3287726 66.5163654,96.9779733 C72.4383378,102.715326 75.8363407,110.261454 75.8363407,117.681175 L75.8396672,120.902043 C81.8489598,119.89994 82.772059,114.601683 82.7620795,111.444019 C82.7620795,111.437366 82.765406,111.432376 82.765406,111.425723 C82.7687325,111.364183 82.7812068,111.307633 82.8011657,111.248588 C82.806987,111.229461 82.8103135,111.20867 82.820293,111.188711 C82.8427467,111.138814 82.8760116,111.096401 82.910108,111.053989 C82.9225823,111.038188 82.9308985,111.018229 82.9442045,111.002428 C82.9442045,110.999102 82.9375515,110.995775 82.9375515,110.990785 C83.0930646,109.127955 80.8535096,102.257103 80.9715997,102.120717 C81.3682829,101.851272 84.1442334,107.863891 83.8631456,110.605745 C86.0528034,109.754997 87.6278933,108.247268 88.5410131,106.103349" id="Fill-39" fill="#FEFEFE"></path>
                        <path d="M48.5550174,147.463432 C52.0079073,145.929923 55.2537237,140.733956 55.2537237,138.471116 C55.2537237,137.922246 55.3510233,137.409136 55.4449965,136.91349 C55.7959405,135.083092 56.1826442,133.005703 51.1604856,127.942795 C50.7546546,128.022631 50.3513185,128.121594 49.9454875,128.264632 C44.5299723,129.304159 39.6832857,133.975373 39.3972081,133.634408 C39.296582,133.759152 41.1910144,129.67922 49.5704265,127.225106 C50.0702306,127.122817 50.5467494,127.051298 51.0107939,126.991421 C51.0240998,126.974788 51.0307528,126.955661 51.0432271,126.940692 C51.2744177,126.710333 51.637836,126.705343 51.8848274,126.913248 C59.0766849,126.369368 61.636414,130.850973 61.3378621,130.51583 C61.2937862,130.626436 57.2679095,127.655886 52.7297542,127.773976 C57.4849625,132.81443 57.0400453,135.21033 56.6716373,137.148007 C56.5851487,137.607061 56.501155,138.039504 56.501155,138.471116 C56.501155,139.910651 55.4774297,142.270791 53.8956867,144.406394 C62.3582609,146.667571 67.0619087,141.99802 71.6033904,137.456538 L71.6516244,137.405809 C74.6180161,134.441912 74.6146896,133.189491 74.5922359,121.215814 L74.5889094,117.681425 C74.5889094,103.111427 60.6118571,89.3381217 45.8297957,89.3381217 C29.6472848,89.3381217 16.5151593,95.3324451 16.5151593,99.246053 C16.5151593,103.900635 11.8464396,111.654668 9.95616531,113.549101 C9.47881492,114.026451 9.37818879,114.838945 9.37818879,115.436049 C9.37818879,117.167483 10.2131362,119.496853 11.2942433,120.967159 C11.6651462,120.379203 12.1017472,119.825344 12.6065411,119.318055 C16.2906216,115.638132 16.1708682,111.734504 16.1675418,111.68128 C16.1509093,111.338652 16.417028,111.044259 16.7604874,111.028458 C17.1031153,111.011825 17.3950142,111.274618 17.4149731,111.61974 C17.4182996,111.697081 17.6045827,116.086376 13.4905541,120.200405 C11.6859368,122.005022 10.8526526,124.484915 11.2035967,127.004727 C11.5445612,129.450524 12.9500005,131.602759 15.199535,133.165374 C15.2070196,132.4244 15.3325944,131.695069 15.5795858,130.989854 C17.2345114,126.229656 19.7376902,120.997929 19.7634705,120.945537 C19.9131622,120.633679 20.28656,120.503946 20.5950914,120.653638 C20.9069492,120.800835 21.0366821,121.173401 20.8869903,121.485259 C20.8645365,121.536819 18.3896328,126.707006 16.757161,131.399843 C16.2157758,132.950816 16.3879213,134.662292 17.2519754,136.350482 C18.5027332,138.794616 21.0924007,140.950177 24.1810407,142.184303 C23.6812365,140.852878 23.5190704,139.484861 23.8808255,138.104371 C24.8862552,134.278915 24.8995611,128.549047 24.8995611,128.492497 C24.8995611,128.148205 25.1789857,127.868781 25.5232768,127.868781 C25.8675678,127.868781 26.1469925,128.148205 26.1469925,128.492497 C26.1469925,128.732835 26.1336865,134.440249 25.0875074,138.421218 C24.1702296,141.904878 27.3910973,145.485006 31.3704033,149.464312 C34.9921123,153.086853 45.4397655,148.848913 48.5550174,147.463432" id="Fill-41" fill="#FEFEFE"></path>
                        <path d="M57.1018348,219.879815 C60.0707213,220.041981 62.3285721,221.663642 63.686609,224.547703 C65.4671093,223.862448 67.1594578,223.651216 68.6954616,223.91484 C69.3815488,222.400458 70.638128,219.324293 70.638128,217.89141 C70.638128,217.020703 70.5815778,209.234236 68.6048149,204.407509 C67.7507403,202.31515 66.4675492,201.594135 64.794328,201.389556 C64.7776956,201.389556 64.7668845,201.395378 64.7519153,201.395378 C64.7294616,201.395378 64.7095027,201.382903 64.6870489,201.379577 C63.7223687,201.275624 62.6337769,201.333838 61.4221053,201.398704 C60.8083691,201.434464 60.174674,201.463571 59.5351575,201.47355 C58.7617501,204.547221 56.6893508,207.642514 52.8979912,210.23135 C57.5825116,215.614432 60.6137698,217.690157 60.2985855,218.044428 C60.1588732,218.216573 55.0161296,214.665552 51.7836192,210.638012 C51.6738452,210.588947 51.5732191,210.520754 51.5050262,210.413475 C51.4717613,210.365241 51.459287,210.309522 51.4426546,210.257962 C48.0221979,206.415041 47.0932773,200.37581 47.8467259,200.427371 C48.3922692,200.330071 47.7818594,203.7156 52.1054564,209.263343 C59.525178,204.267796 59.6341204,197.763689 57.4070396,193.65465 C54.9512631,189.119822 49.2596498,181.923806 44.4420699,181.923806 C39.5404964,181.923806 33.0305681,186.257383 31.3024598,190.675784 C29.518633,195.22974 31.1103554,203.549276 31.1269878,203.634101 C31.1918543,203.971739 30.9706431,204.300229 30.633005,204.365096 C30.2953669,204.433289 29.9668767,204.212078 29.9020103,203.87444 C29.8304909,203.516843 28.2254625,195.11664 30.1390222,190.220888 C30.336948,189.714431 30.6005718,189.213795 30.8991237,188.719812 C24.4474088,187.686939 18.879707,192.400566 16.5619795,201.006179 C16.4696696,201.347144 16.420604,201.707236 16.4039716,202.081465 C16.4039716,202.087286 16.4089613,202.093939 16.4089613,202.100592 C16.4089613,202.107245 16.4039716,202.113898 16.4039716,202.123046 C16.2226782,207.214229 22.5995472,214.701312 22.6710666,214.782811 C22.8947726,215.043108 22.8656659,215.435633 22.6028737,215.660171 C22.3425764,215.887203 21.9492197,215.85477 21.7255137,215.595304 C21.4394361,215.263488 15.4850305,208.272882 15.1731727,202.746762 C13.1573236,202.857367 11.6288044,203.507695 10.631691,204.696081 C9.04329506,206.596335 8.66324431,209.94943 9.50484466,214.663057 C10.5002949,220.237412 16.5669693,226.96772 16.6285092,227.035913 C16.8605314,227.289557 16.8430674,227.686241 16.5860965,227.9166 C16.3332838,228.146959 15.9366006,228.131158 15.7062416,227.874187 C15.5207902,227.669608 12.3498197,224.148525 10.1684781,219.990421 C8.08776266,220.912688 6.79209731,222.147645 6.23158483,223.761822 C4.96003648,227.435923 7.8865104,232.458081 9.637904,235.456075 C12.4803842,240.329373 23.5866812,250.016093 30.2072151,251.803246 C30.1714554,247.193572 31.2567207,242.330253 33.497939,238.178801 C38.4585576,228.988559 49.1265904,219.441551 57.1018348,219.879815" id="Fill-43" fill="#FEFEFE"></path>
                        <path d="M71.759153,254.453872 C69.8455933,254.434744 67.6659149,254.404806 65.496216,254.372373 C63.1826467,258.533804 58.2062273,260.99956 55.1691478,259.456903 C54.1845087,258.956267 52.5445523,257.51091 53.0834426,253.564037 C53.0834426,253.557384 53.0817794,253.554058 53.0817794,253.547405 C53.0834426,253.534931 53.0900956,253.524951 53.0900956,253.511645 C53.3462348,251.689564 54.0664185,249.341066 55.5234183,246.313135 C61.5169101,233.852127 66.4026828,234.781048 67.7582249,235.362351 C69.306703,236.025153 70.1674306,237.730807 69.9952851,239.468063 C71.8855593,239.218577 73.8348787,238.883434 75.7941775,238.438517 C75.1721251,231.983475 73.3766556,227.659878 70.5849043,225.93177 C68.7636545,224.804924 66.5482165,224.745879 64.0051198,225.756298 C63.9435798,225.779583 63.8812083,225.785405 63.8180051,225.788731 C63.7614549,225.847776 63.6899355,225.89601 63.6100999,225.928443 C63.4396176,225.996636 63.2574926,225.980836 63.1036427,225.90599 C60.4382978,227.160074 55.0128031,232.701996 54.8963762,232.692016 C54.4522906,232.464984 59.2199732,226.422426 62.572237,225.100149 C61.409631,222.608613 59.5542848,221.263882 57.0336418,221.12417 C50.351568,220.756593 39.868155,229.004609 34.5956786,238.770333 C30.2787345,246.768031 30.4749971,257.939195 35.0331112,263.669894 C36.6398027,265.690733 39.4556711,267.824672 43.8674199,266.911553 C41.9056262,264.485715 39.8556807,256.435624 40.4236778,256.367431 C40.576696,256.374084 43.1888172,264.459103 44.9942662,266.762693 C45.1081983,266.805105 45.2121509,266.873298 45.2853335,266.973924 C45.2869968,266.977251 45.2903232,266.977251 45.2903232,266.980577 C47.3011826,269.783971 49.7112199,271.176936 52.453074,271.122049 C57.8394825,271.011444 64.5049239,265.245816 71.759153,254.453872" id="Fill-45" fill="#FEFEFE"></path>
                        <path d="M59.0379314,298.92929 C62.302875,301.414173 66.7728373,302.119387 71.3043395,300.86863 C89.2914678,295.898863 98.9524077,280.439031 102.128368,275.357827 C103.91469,272.499546 103.903047,268.847899 102.096766,265.586282 C100.4776,262.666461 97.8255614,260.801135 95.0637484,260.560797 C94.9631223,263.27687 94.5215316,265.788365 94.2196532,267.470735 C94.059982,268.357242 93.9235961,269.123997 93.9235961,269.452487 C93.9235961,269.796778 93.6441715,270.076203 93.2998805,270.076203 C92.9555894,270.076203 92.6761648,269.796778 92.6761648,269.452487 C92.6761648,269.013391 92.8092241,268.273249 92.9913491,267.25285 C93.6117383,263.783328 94.8691491,256.685443 92.2021409,251.923582 C88.8723308,252.995541 85.3836812,253.648364 82.3782033,254.028414 C82.8755126,263.169591 70.9841655,271.112402 65.7541017,274.149482 C60.9381851,276.946223 57.6707466,278.408212 56.2603176,277.070134 C55.3247441,276.1803 55.5359758,274.354061 56.9430783,271.267916 C55.4012532,271.963151 53.9118202,272.339875 52.4789374,272.369813 C51.3845243,272.392267 50.3449982,272.206816 49.3545377,271.843397 C47.0343154,277.1192 46.4388749,281.062746 47.6197765,283.54763 C48.3599191,285.110245 49.779496,286.120665 52.0864123,286.727748 C56.0914985,287.783906 60.9190578,290.450915 61.7248985,291.256755 C61.9685634,291.499589 61.9685634,291.896272 61.7248985,292.139937 C61.4812335,292.383602 61.0845504,292.383602 60.8408855,292.139937 C60.3469026,291.642627 57.3231291,289.895392 54.1064195,288.690373 C54.3193144,293.026445 56.0382748,296.645659 59.0379314,298.92929" id="Fill-47" fill="#FEFEFE"></path>
                        <path d="M76.735905,300.31319 C75.1150759,300.985971 73.4160744,301.577254 71.6355741,302.070405 C66.7273476,303.428442 61.8607022,302.64256 58.2814058,299.919833 C58.2098864,299.864946 58.1475149,299.80008 58.0776587,299.744361 C57.4946925,300.73898 56.2780311,302.72988 54.6912984,304.851345 C72.2950495,305.689619 89.8696938,323.997753 94.2490094,330.261521 C97.9488907,327.415715 101.359368,324.287157 104.44884,321.100386 C100.214226,311.553378 86.692902,301.381823 76.735905,300.31319" id="Fill-49" fill="#FEFEFE"></path>
                        <path d="M143.028398,269.868048 C143.04503,270.023561 143.057505,270.1666 143.067484,270.306312 C146.705826,266.899161 150.850624,263.34814 155.447824,259.699819 C154.713503,256.597874 155.850329,246.689942 161.49953,240.166708 C158.049135,242.018728 154.437405,244.045388 150.659351,246.260826 C141.683667,255.282249 142.590134,265.131967 143.028398,269.868048" id="Fill-51" fill="#FEFEFE"></path>
                        <path d="M142.960205,233.042877 C134.60491,235.534413 125.619246,243.567871 122.931448,250.951833 C121.695659,254.346509 121.773,257.393568 123.141016,260.03147 C124.849997,256.991064 127.348186,253.872486 130.745358,251.088219 C131.012308,250.870334 131.404833,250.90942 131.622718,251.176371 C131.840602,251.442489 131.801516,251.835846 131.535397,252.052899 C124.057462,258.186103 121.10604,265.914356 121.52684,270.49825 C121.638277,271.713249 122.036624,273.269211 123.219188,274.272978 C126.990589,262.419053 138.584216,252.079511 144.746527,248.337217 C145.721187,247.744271 146.685867,247.166295 147.647221,246.597466 C147.687138,246.572517 147.727888,246.5484 147.767806,246.524283 C148.453061,246.118452 149.131664,245.718443 149.809435,245.32176 C149.860164,245.291821 149.910061,245.261883 149.959958,245.232776 C149.984907,245.217807 150.010687,245.201174 150.035636,245.185374 C150.038962,245.185374 150.038962,245.185374 150.042289,245.182879 C153.420333,243.204453 156.724363,241.333306 159.943567,239.588565 C159.882027,236.362708 159.01132,234.153923 157.276559,232.860752 C154.641984,230.895632 149.957463,230.953845 142.960205,233.042877" id="Fill-53" fill="#FEFEFE"></path>
                        <path d="M203.116251,177.265814 C199.624275,178.133195 197.032112,179.789784 197.324011,180.969022 C197.616742,182.151587 200.682928,182.405231 204.175736,181.541177 C207.667712,180.673797 210.259874,179.013881 209.967144,177.834643 C209.675245,176.655405 206.6049,176.40176 203.116251,177.265814" id="Fill-55" fill="#FEFEFE"></path>
                        <path d="M223.747601,125.386559 C222.425324,125.074701 218.302979,129.90226 210.95145,144.239404 C212.277054,151.389681 207.526004,165.014958 203.575805,169.861644 C202.594492,171.064168 201.368683,172.27584 200.44392,172.329063 C198.870494,172.422205 198.701674,170.556879 198.778184,168.312334 C198.862177,165.834104 199.490883,162.713863 199.783613,160.590734 C199.523316,160.594061 197.880865,161.177027 196.755682,160.821093 C194.275788,160.040201 192.662444,156.533256 192.084467,149.851182 C191.749324,151.916928 191.252846,154.135693 190.586718,156.419324 C187.802451,165.93473 183.170323,172.954442 180.240522,172.095378 C177.306564,171.23964 177.183484,162.828626 179.966919,153.314052 C182.747859,143.797814 187.380819,136.77727 190.313946,137.636335 C190.895249,137.805985 191.360125,138.283336 191.720217,138.994371 C190.564264,114.694409 179.545287,101.487438 170.029881,97.5048052 C164.377354,95.1380121 155.369236,95.0290698 147.991927,100.117758 C142.30364,104.04384 135.647347,112.444043 136.245282,130.173369 C137.310589,161.844819 145.289159,168.929397 156.451175,175.485065 C161.470007,178.435655 168.983702,177.730441 176.251237,177.048512 C182.328722,176.47802 188.130941,175.940793 192.12688,177.613182 C194.390552,176.196932 197.398525,175.065928 200.78738,174.496267 C203.623207,174.019749 206.332628,174.003948 208.664493,174.358218 C219.19614,163.813265 224.533483,148.488156 224.533483,128.808679 C224.533483,125.662657 223.825773,125.404023 223.747601,125.386559" id="Fill-57" fill="#FEFEFE"></path>
                        <path d="M202.957079,161.26967 C203.836102,161.576538 205.140083,159.216398 206.053203,156.782243 C206.750101,154.925234 206.845738,152.656572 206.827442,151.595424 C205.736356,153.333512 204.501399,155.485746 203.267273,156.856258 C202.856452,158.323237 202.078055,160.964465 202.957079,161.26967" id="Fill-59" fill="#FEFEFE"></path>
                        <path d="M184.888867,146.862503 C183.342884,150.949088 183.026036,153.878057 183.93583,154.224011 C184.851444,154.568302 186.647745,152.196519 188.19456,148.113261 C189.737217,144.026676 189.967576,141.460294 189.055288,141.114339 C188.142168,140.771712 186.431524,142.775918 184.888867,146.862503" id="Fill-61" fill="#FEFEFE"></path>
                        <path d="M130.128544,78.8027324 C130.472835,78.7861 130.738954,78.4958643 130.723153,78.1515733 C129.651194,54.3480885 137.727064,41.3897718 142.667724,37.4844801 C144.279405,36.2112685 145.448664,35.9285174 146.007514,36.0881886 C149.700742,37.1451787 167.948168,49.9122227 176.118011,65.4419112 C176.280177,65.7454528 176.656902,65.8618797 176.962106,65.7013769 C177.268143,65.5425373 177.38457,65.1658131 177.222404,64.8597766 C168.912848,49.0706223 150.632989,36.1139688 146.348478,34.8889913 C145.208326,34.5646591 143.625751,35.1376459 141.894317,36.5056623 C135.527427,41.5369687 128.451997,55.4782613 129.479048,78.2081235 C129.491523,78.5524146 129.784253,78.8193649 130.128544,78.8027324" id="Fill-63" fill="#231F20"></path>
                        <path d="M148.424204,46.8340611 C156.51338,50.1771771 162.834531,59.8023573 165.141447,64.2723196 C156.626481,64.4868778 147.199226,67.3908979 142.41408,71.2171856 C142.74257,65.1737966 145.007074,53.9161446 148.424204,46.8340611 M142.183721,73.0758583 C146.432472,68.8262756 156.954971,65.4964655 166.135234,65.4964655 C166.349792,65.4964655 166.547718,65.3883548 166.66165,65.2078931 C166.778077,65.0274313 166.791383,64.8012305 166.700736,64.6082944 C164.274066,59.44975 157.312568,48.804171 148.336052,45.4386012 C148.040827,45.327164 147.706515,45.4568969 147.563476,45.7413112 C143.935114,52.9148731 141.118414,66.087748 141.118414,72.633436 C141.118414,72.8870804 141.270601,73.1149445 141.505118,73.2105809 C141.738804,73.3062173 142.004922,73.2546568 142.183721,73.0758583" id="Fill-65" fill="#231F20"></path>
                        <path d="M140.848637,92.5309638 C138.191608,96.5917686 138.058548,98.9760257 138.06437,98.946919 C138.39286,99.1024321 139.458166,95.0840399 143.223746,90.9542106 C146.806369,86.6380982 154.151244,83.9286773 160.713565,84.7769306 C174.604129,85.5611491 186.207735,98.9943214 186.152848,98.6433773 C186.181955,98.6367244 184.86633,96.4196231 181.074971,93.0332628 C177.342656,89.8024156 170.884288,84.6821258 160.479879,83.6525792 C149.9316,82.8109788 143.203787,88.5566476 140.848637,92.5309638" id="Fill-67" fill="#231F20"></path>
                        <g id="Group-71" stroke-width="1" fill="none" transform="translate(0.000000, 0.338470)">
                            <mask id="mask-4" fill="white">
                                <use xlink:href="#path-3"></use>
                            </mask>
                            <g id="Clip-70"></g>
                            <path d="M188.194228,147.774708 C186.648244,151.857967 184.851112,154.229749 183.935497,153.885458 C183.025704,153.539504 183.342551,150.610535 184.888535,146.52395 C186.432023,142.437365 188.142667,140.433159 189.054955,140.775787 C189.968075,141.121741 189.736884,143.688123 188.194228,147.774708 Z M208.664576,174.019832 C206.332711,173.665561 203.62329,173.681362 200.787463,174.157881 C197.398608,174.727541 194.390635,175.858546 192.126963,177.274796 C188.131024,175.601575 182.328806,176.139633 176.25132,176.709294 C168.983785,177.392054 161.47009,178.096437 156.451258,175.146678 C145.289243,168.591011 137.310672,161.506432 136.245365,129.834982 C135.64743,112.105656 142.303724,103.705454 147.992011,99.7793715 C155.369319,94.6906832 164.377437,94.7996256 170.029964,97.1664186 C179.54537,101.149051 190.564347,114.355191 191.7203,138.655985 C191.360208,137.944949 190.895332,137.466767 190.314029,137.297948 C187.380071,136.438884 182.747942,143.459427 179.967002,152.975665 C177.183567,162.49024 177.306647,170.901253 180.240605,171.756991 C183.170406,172.616056 187.802534,165.596344 190.586801,156.080937 C191.252929,153.797306 191.749407,151.578542 192.08455,149.512796 C192.662527,156.19487 194.27504,159.701815 196.755765,160.482707 C197.880948,160.838641 199.523399,160.255674 199.783696,160.252348 C199.490966,162.375476 198.86226,165.495718 198.778267,167.973948 C198.701758,170.218493 198.870577,172.082987 200.444003,171.990677 C201.368766,171.937453 202.594575,170.725781 203.575888,169.523258 C207.526087,164.676571 212.277137,151.050463 210.951533,143.901018 C218.303062,129.563874 222.425407,124.736314 223.747684,125.048172 C223.825856,125.065636 224.533566,125.32427 224.533566,128.470292 C224.533566,148.149769 219.196223,163.474879 208.664576,174.019832 Z M204.175486,181.202541 C200.68351,182.066595 197.616492,181.812951 197.324593,180.630386 C197.031863,179.451148 199.624025,177.794559 203.116001,176.927178 C206.605483,176.063124 209.674995,176.316769 209.967726,177.496007 C210.259625,178.675245 207.667462,180.335161 204.175486,181.202541 Z M135.309792,193.131311 C127.114168,190.057641 119.929795,185.571878 114.677278,180.474873 C114.647339,180.435787 114.616569,180.40668 114.579146,180.377573 C110.549943,176.443175 107.668377,172.150348 106.356079,167.860016 C104.907395,163.130588 105.531111,158.67809 108.155707,154.988188 C111.761615,149.916963 115.913066,147.313158 120.500287,147.249955 C126.83807,147.164298 133.900195,152.023459 140.933212,161.301853 C144.61064,168.761493 149.769184,172.476343 155.840849,176.043997 C161.210625,179.198335 168.925572,178.473993 176.391032,177.773768 C181.926301,177.255669 187.227884,176.758359 190.917786,177.963378 C188.761393,179.636599 187.585481,181.595066 187.90316,183.482846 C188.342256,186.094967 191.519048,187.903742 195.875078,188.446791 C189.248723,198.601714 156.773096,201.18057 135.309792,193.131311 Z M156.984327,212.901435 C148.505121,207.580724 138.415896,208.636051 135.007914,209.201554 C136.800888,204.913716 138.223792,199.612133 137.944367,195.350076 C143.34325,197.068205 149.207009,198.192556 155.093221,198.7539 C157.163126,203.315341 157.094933,210.26686 156.984327,212.901435 Z M130.141268,215.273218 C128.211908,215.675722 126.272568,216.169705 124.355682,216.754334 C125.780248,214.01248 127.026016,211.212413 127.988202,208.399039 C131.015302,199.549761 128.631045,194.040273 124.927837,192.507596 C121.971424,191.282618 117.535559,192.526723 114.779567,198.150143 C113.755842,200.238344 112.739601,202.194316 111.690095,204.09457 C113.150422,196.967579 114.594116,188.534111 114.795368,182.281154 C120.074497,187.124514 127.021027,191.354138 134.871528,194.297244 C135.459484,194.518455 136.057419,194.72636 136.657849,194.930939 C137.356411,201.732766 132.899755,212.339259 130.141268,215.273218 Z M157.311986,219.034639 C158.501204,220.223857 157.529871,226.285542 156.389718,230.619118 C153.329353,229.36836 148.794525,229.660259 142.603107,231.508952 C141.098705,231.957196 139.588481,232.577585 138.100712,233.321886 C138.172231,233.061589 138.246245,232.773016 138.327744,232.457832 C138.331071,232.441199 138.334397,232.422072 138.34105,232.40544 C138.415064,232.108551 138.490742,231.782556 138.566419,231.444918 C138.572241,231.419137 138.578062,231.392525 138.583883,231.366745 C138.657898,231.03576 138.730249,230.685648 138.801768,230.320566 C138.809253,230.282312 138.816737,230.24572 138.824222,230.207466 C138.900731,229.812446 138.973914,229.407446 139.042106,228.981656 C139.042106,228.979162 139.042938,228.975835 139.044601,228.972509 C139.044601,228.970845 139.044601,228.969182 139.045433,228.96835 C139.101152,228.611585 139.152712,228.247335 139.201778,227.877264 C139.210926,227.814061 139.216747,227.750026 139.225895,227.685991 C139.226726,227.681001 139.226726,227.677675 139.227558,227.672685 C139.238369,227.589523 139.245854,227.504698 139.255001,227.420704 C139.281613,227.188682 139.309888,226.95666 139.331511,226.717153 C139.343985,226.589083 139.353133,226.456024 139.362281,226.322964 C139.365607,226.273899 139.370597,226.226496 139.373923,226.178262 C139.389724,225.950398 139.409683,225.723366 139.422989,225.48968 C139.422989,225.478038 139.422989,225.465563 139.422989,225.453921 C139.443779,225.041437 139.455422,224.624795 139.455422,224.206489 C139.455422,223.862198 139.175997,223.582774 138.831706,223.582774 C138.487415,223.582774 138.207991,223.862198 138.207991,224.206489 C138.207991,225.148716 138.148946,226.093437 138.051646,227.009883 C135.784647,225.661826 129.959975,226.989924 121.479105,229.150475 C119.346829,229.692692 117.306863,230.212455 115.482287,230.619118 C118.32643,226.837738 121.129824,222.676307 123.514913,218.332751 C137.0379,213.8894 152.471952,214.197932 157.311986,219.034639 Z M159.943234,239.250511 C158.410557,240.082132 156.853763,240.946186 155.281999,241.832694 C155.089895,241.939973 154.898622,242.050579 154.706518,242.161184 C153.167187,243.03106 151.614551,243.925052 150.041956,244.843993 C150.03863,244.84732 150.03863,244.84732 150.035303,244.84732 C150.010354,244.863121 149.985406,244.878921 149.959626,244.894722 C149.958794,244.895554 149.957962,244.895554 149.957131,244.896385 C149.908897,244.924661 149.858999,244.954599 149.809934,244.982874 C149.131331,245.380389 148.452729,245.779567 147.768305,246.185398 C147.728387,246.210346 147.686806,246.234463 147.646888,246.25858 C146.686366,246.828241 145.721686,247.405386 144.747026,247.998331 C138.584715,251.740625 126.990257,262.081 123.218856,273.934924 C122.036291,272.931157 121.638776,271.375195 121.526507,270.160196 C121.105707,265.576302 124.05713,257.848049 131.535065,251.714845 C131.801183,251.49696 131.84027,251.104435 131.623217,250.837485 C131.405332,250.571366 131.011975,250.53228 130.745856,250.750165 C127.347854,253.5336 124.849664,256.652178 123.140683,259.693416 C121.773499,257.055514 121.695326,254.008456 122.931115,250.613779 C125.619745,243.229817 134.605409,235.196359 142.959873,232.704823 C149.957131,230.615791 154.641651,230.556746 157.276226,232.522698 C159.010987,233.815037 159.881694,236.024654 159.943234,239.250511 Z M161.499197,239.828488 C155.849996,246.351722 154.713171,256.259653 155.447492,259.361599 C150.851123,263.00992 146.705493,266.56011 143.067152,269.968092 C143.058004,269.82838 143.044698,269.685341 143.028065,269.529828 C142.589801,264.792915 141.683334,254.944029 150.659019,245.922606 C154.437072,243.707168 158.049634,241.679676 161.499197,239.828488 Z M166.937166,236.979355 C205.656603,217.274098 222.412932,220.870026 228.941988,224.748706 C218.046923,224.147444 187.207925,235.660404 162.369904,254.060016 C160.355718,255.551112 158.413052,257.032229 156.541905,258.500872 C155.983887,254.427592 158.189346,241.745374 166.937166,236.979355 Z M231.683842,227.581207 C231.358678,233.880735 214.505881,261.765815 192.493708,279.648991 C169.058631,298.691446 137.242479,307.475858 128.601938,301.046596 C128.230203,300.770498 127.906703,300.471946 127.627278,300.146783 C127.552432,300.059462 127.47925,299.964658 127.406067,299.864032 C127.399414,299.854884 127.391929,299.844904 127.383613,299.834925 C127.203151,299.58128 127.026016,299.289381 126.853871,298.967544 C126.492116,298.197463 126.309991,297.327588 126.311654,296.339622 C126.321633,287.685775 140.423429,271.868346 163.114205,255.060456 C191.824253,233.79591 227.522411,222.715393 231.53415,226.727132 C231.576563,226.769545 231.716275,226.957491 231.683842,227.581207 Z M125.219736,294.598208 C123.988937,290.193112 123.238815,284.579671 123.238815,281.380426 C123.238815,267.132265 138.165578,253.456259 145.393195,249.063638 C146.006931,248.69024 146.604867,248.332643 147.209455,247.969225 C140.585595,256.590638 141.410563,265.569649 141.787287,269.646255 C141.839679,270.221736 141.882092,270.699087 141.897893,271.072485 C132.10722,280.438199 126.223502,288.647129 125.219736,294.598208 Z M105.378093,319.787173 C101.051169,310.652649 88.7132418,301.105641 78.8186164,299.045717 C92.6925477,292.454289 100.39502,280.145469 103.185109,275.682159 C103.783044,274.724132 104.198854,273.694585 104.445846,272.619299 C116.209955,274.275888 120.844578,282.523904 122.315716,286.126486 C122.6309,288.796821 123.167295,291.811446 123.8933,294.494255 C122.971864,296.19991 116.306423,308.222653 105.378093,319.787173 Z M94.2485104,329.922969 C89.8700264,323.660032 72.2953821,305.351066 54.6916311,304.512792 C56.2783638,302.391327 57.4950251,300.400427 58.0779914,299.40664 C58.1478475,299.461527 58.2093875,299.526393 58.2809069,299.58128 C61.8610348,302.304007 66.7268486,303.089889 71.6359068,301.731852 C73.4155755,301.238701 75.1145769,300.647418 76.7362377,299.974637 C86.692403,301.04327 100.214559,311.214825 104.449172,320.761833 C101.359701,323.948604 97.9483918,327.077162 94.2485104,329.922969 Z M75.0272568,340.24671 C44.5658151,349.699745 8.62399181,341.526575 3.2775011,339.629648 C2.01343734,339.181404 1.33150821,338.605922 1.25333585,337.920667 C0.904055071,334.831195 11.1063802,328.337899 15.4624104,325.566938 L15.9755205,325.241775 C27.3487678,317.997525 48.5226673,304.512792 68.8907262,315.402036 C69.1926046,315.564202 69.5709921,315.451102 69.7339898,315.145065 C69.8961559,314.843187 69.7805605,314.466463 69.4786822,314.304297 C62.7217624,310.691736 55.9099557,309.66801 49.3867214,310.178625 C50.9460106,308.976102 52.4404333,307.365252 53.7494046,305.72779 C71.2267493,305.939022 88.9793605,324.51078 93.2530602,330.673091 C87.7610358,334.759676 81.6544436,338.190112 75.0272568,340.24671 Z M54.1070016,288.351903 C57.3228796,289.556922 60.3474848,291.304158 60.840636,291.801467 C61.0843009,292.045132 61.4809841,292.045132 61.724649,291.801467 C61.9683139,291.557802 61.9683139,291.161119 61.724649,290.918286 C60.9188083,290.112445 56.0912491,287.445437 52.0861628,286.389278 C49.7800781,285.782195 48.3605012,284.771776 47.619527,283.20916 C46.4386254,280.724277 47.0348975,276.78073 49.3542882,271.504927 C50.3447487,271.868346 51.3842748,272.053797 52.4795195,272.031344 C53.9115707,272.001405 55.4010037,271.624681 56.9428288,270.929446 C55.5357263,274.015591 55.3253262,275.84183 56.2608997,276.731665 C57.6704971,278.069743 60.9387672,276.607753 65.7546838,273.811012 C70.9847476,270.773933 82.8752631,262.831122 82.3787854,253.689945 C85.3834317,253.309894 88.8720814,252.657072 92.2018914,251.585112 C94.8688996,256.346973 93.6123204,263.444858 92.9910996,266.91438 C92.8098063,267.934779 92.6767469,268.674922 92.6767469,269.114017 C92.6767469,269.458308 92.9561716,269.737733 93.3004626,269.737733 C93.6447537,269.737733 93.9241783,269.458308 93.9241783,269.114017 C93.9241783,268.785527 94.0605641,268.018773 94.2194037,267.132265 C94.5212821,265.449896 94.9637044,262.938401 95.0643305,260.222327 C97.8253119,260.462665 100.477351,262.327991 102.097348,265.247812 C103.903629,268.509429 103.91444,272.161076 102.128118,275.019357 C98.9521582,280.100561 89.2912183,295.560393 71.30409,300.53016 C66.7725878,301.780918 62.3026255,301.075703 59.0376819,298.59082 C56.0380253,296.307189 54.3198966,292.687975 54.1070016,288.351903 Z M45.2901569,266.641609 C45.2901569,266.638282 45.2868304,266.638282 45.2851672,266.634956 C45.2119846,266.534329 45.1080319,266.466136 44.9949315,266.423724 C43.1886509,264.120966 40.5765297,256.035116 40.4243431,256.028463 C39.8555144,256.096656 41.9054599,264.146746 43.8672536,266.573416 C39.4555047,267.486535 36.6396364,265.351765 35.0329448,263.331757 C30.4756624,257.601058 30.2785682,246.429063 34.5963439,238.431365 C39.8688203,228.666472 50.3514017,220.418456 57.0334755,220.785201 C59.5541184,220.924913 61.4094647,222.270476 62.5720707,224.762012 C59.2198068,226.084289 54.4529559,232.126015 54.8962098,232.353879 C55.0134684,232.363027 60.4381315,226.821105 63.1034764,225.567021 C63.2581579,225.641867 63.4394513,225.658499 63.6099335,225.590306 C63.6897691,225.557873 63.7612885,225.508808 63.8178388,225.450594 C63.8818736,225.447268 63.9434135,225.440615 64.0049535,225.418161 C66.5488818,224.407742 68.7643198,224.465955 70.584738,225.593633 C73.3773209,227.321741 75.1719588,231.645338 75.7940112,238.10038 C73.8347124,238.545297 71.8862246,238.879608 69.9951187,239.129926 C70.1672643,237.391839 69.3065366,235.686184 67.7588902,235.024214 C66.4025165,234.442079 61.5167438,233.513159 55.523252,245.974998 C54.0662522,249.002098 53.3469001,251.350595 53.0899293,253.173508 C53.0899293,253.185982 53.0832763,253.195962 53.081613,253.209268 C53.081613,253.215921 53.0832763,253.218416 53.0832763,253.225069 C52.544386,257.171941 54.1843423,258.61813 55.1689815,259.117934 C58.206061,260.661423 63.183312,258.195667 65.4960497,254.034236 C67.6657486,254.066669 69.845427,254.095776 71.7589867,254.115735 C64.5055892,264.906847 57.8393162,270.673307 52.4529077,270.783912 C49.7118852,270.838799 47.3010162,269.445003 45.2901569,266.641609 Z M30.2070488,251.464527 C23.5865149,249.678206 12.4802179,239.990654 9.63773767,235.118187 C7.8871757,232.119362 4.95987016,227.097203 6.2314185,223.423102 C6.79193098,221.808926 8.08842795,220.574801 10.1691434,219.651702 C12.350485,223.809806 15.5206239,227.331721 15.7060753,227.536299 C15.9364343,227.792439 16.3331175,227.809071 16.5859302,227.57788 C16.8429011,227.347521 16.8611967,226.95167 16.6283429,226.698025 C16.5668029,226.629833 10.5001285,219.898693 9.50467833,214.324338 C8.66307799,209.610711 9.04312874,206.258447 10.6315246,204.358193 C11.6294697,203.168976 13.1571573,202.51948 15.1730063,202.408874 C15.4848642,207.934163 21.4392697,214.9256 21.7253473,215.256585 C21.949885,215.516883 22.34241,215.549316 22.6027074,215.321452 C22.8654996,215.097746 22.8946063,214.704389 22.6709003,214.444092 C22.5993809,214.363424 16.2225119,206.87551 16.4046369,201.785158 C16.4046369,201.775179 16.4096266,201.768526 16.4096266,201.761873 C16.4096266,201.756052 16.4046369,201.749399 16.4046369,201.742746 C16.4204377,201.369348 16.4695033,201.008425 16.5618132,200.66746 C18.8795406,192.061847 24.4480741,187.34822 30.8989574,188.381925 C30.6004055,188.875076 30.3376133,189.375711 30.1388559,189.882169 C28.2261278,194.777921 29.8303245,203.178955 29.9018439,203.53572 C29.9667104,203.87419 30.2952006,204.09457 30.6328387,204.026377 C30.9704768,203.96151 31.1916879,203.63302 31.1268215,203.295382 C31.1101891,203.211388 29.5184667,194.891853 31.3022935,190.337065 C33.0304017,185.919495 39.5403301,181.585919 44.4427352,181.585919 C49.2603151,181.585919 54.9510968,188.781103 57.4068733,193.315931 C59.6339541,197.425802 59.5250117,203.929077 52.1052901,208.925455 C47.7816931,203.376881 48.3929345,199.992184 47.8465595,200.089483 C47.093111,200.037091 48.0220315,206.076322 51.4433199,209.919242 C51.4591207,209.971634 51.4724266,210.026521 51.5048598,210.075587 C51.5730528,210.182035 51.6736789,210.251059 51.7842845,210.299293 C55.0159632,214.327665 60.1587068,217.877854 60.2984191,217.705709 C60.6136035,217.35227 57.5823453,215.275713 52.8986565,209.893462 C56.6891845,207.304626 58.7615837,204.208502 59.5349912,201.135663 C60.1753393,201.125683 60.8082028,201.096576 61.4227706,201.060817 C62.6344422,200.99595 63.7222024,200.936905 64.6868826,201.040858 C64.710168,201.044184 64.7292953,201.05749 64.751749,201.05749 C64.7667182,201.05749 64.7783609,201.050837 64.7941617,201.050837 C66.4673829,201.255416 67.750574,201.976431 68.6046486,204.068789 C70.5814115,208.896349 70.6387933,216.682815 70.6387933,217.553522 C70.6387933,218.985573 69.3813825,222.062571 68.6961269,223.576121 C67.1592915,223.313328 65.466943,223.523729 63.6864427,224.209816 C62.3284057,221.324923 60.0713866,219.704094 57.1016684,219.541096 C49.1264241,219.102832 38.4583913,228.650671 33.4977727,237.840082 C31.2565544,241.991534 30.1712891,246.854853 30.2070488,251.464527 Z M87.4757899,228.276442 C89.4342571,228.812837 91.4675702,229.131348 93.5807188,229.225321 C89.8725213,232.945162 85.0358142,235.390959 79.9845489,236.979355 L87.4757899,228.276442 Z M70.141484,223.991931 C70.0666381,223.962824 69.9884658,223.937044 69.9127883,223.907106 C70.5182083,222.552395 71.8404855,219.395562 71.8828982,217.640842 C72.6039135,218.50157 73.3415612,219.307411 74.0883568,220.074165 L70.141484,223.991931 Z M74.9723698,220.954852 C78.4152803,224.254723 82.1301308,226.554987 86.165987,227.883917 L77.7948911,237.609723 C77.5379202,237.681243 77.2784545,237.746109 77.0181572,237.810975 C76.3412178,231.011643 74.4259948,226.56164 71.317396,224.58654 L74.9723698,220.954852 Z M71.9153314,256.113288 C72.3569221,255.47294 72.8051657,254.807643 73.2534094,254.128209 C73.9328437,254.134862 74.5590542,254.138188 75.1145769,254.141515 C74.2829561,254.81097 73.4064276,255.671697 72.5099403,256.583985 L72.4866549,256.607271 L71.9153314,256.113288 Z M61.7313019,267.830826 C64.7226423,265.355091 67.8803068,261.784942 71.1876631,257.136182 L77.5936388,262.639849 C74.3153893,266.694001 69.5335691,270.020484 66.5937893,271.849219 L61.7313019,267.830826 Z M100.968007,245.387042 C96.7990917,249.557621 88.4205112,251.728151 81.6902033,252.526507 C81.6735709,252.529834 81.6577701,252.524012 81.6411377,252.524012 C81.6253369,252.526507 81.6153575,252.53316 81.598725,252.536487 C80.1957806,252.701979 78.8668504,252.805932 77.6651582,252.858324 L77.6585053,252.858324 L77.6518523,252.858324 C77.0896766,252.880778 76.5474597,252.89741 76.0443291,252.89741 C71.1693674,252.89741 57.7353636,252.666219 54.4512927,252.608006 C54.8022367,250.883224 55.5340631,248.826626 56.6467718,246.513888 C57.7162363,244.295124 58.7649102,242.495496 59.7720031,241.043486 C62.3550176,241.033506 65.4636165,240.9071 68.8059009,240.527049 C68.8499768,240.559482 68.8907262,240.595242 68.9431183,240.614369 C69.1992575,240.709174 69.4720292,240.624349 69.6375218,240.42975 C71.8629393,240.150325 74.1790034,239.760295 76.5050471,239.214752 C76.5117,239.214752 76.5150265,239.218078 76.5216795,239.218078 C76.5574392,239.214752 76.5865459,239.198119 76.6189791,239.18814 C77.1387422,239.06506 77.6585053,238.935327 78.1766051,238.795615 C78.2597672,238.788962 78.3404344,238.769003 78.4152803,238.730748 C84.7680323,237.001808 91.0035257,234.049554 95.4277488,229.082283 C95.6456335,228.838618 95.8635182,228.594953 96.0697602,228.344635 C106.015114,216.237898 110.832694,209.032734 115.89976,198.699013 C118.30065,193.796608 122.017164,192.649803 124.450486,193.660222 C127.615635,194.970025 129.573271,199.910685 126.8073,207.996535 C121.233777,224.287156 105.620094,240.734954 100.968007,245.387042 Z M122.453765,260.995734 C120.730646,264.494363 120.057865,267.80172 120.285729,270.273297 C120.491971,272.524495 121.378479,274.214348 122.845458,275.211462 C122.303241,277.238122 121.991383,279.301373 121.991383,281.380426 C121.991383,281.799562 122.003858,282.263607 122.027975,282.754263 C119.561387,278.524639 114.45773,272.781466 104.647098,271.390995 C104.877457,269.165578 104.395117,266.823733 103.188435,264.644055 C101.349721,261.326719 98.2868615,259.19278 95.0834578,258.949115 C95.0643305,256.282107 94.6485201,253.514473 93.4044152,251.175123 C96.6685272,250.009191 99.6981221,248.420795 101.850357,246.270223 C104.706975,243.411942 109.493785,238.366498 114.32467,232.135994 C116.507675,231.700225 119.070731,231.050729 121.785973,230.358821 C128.075522,228.757119 135.901074,226.762892 137.564316,228.175816 C137.690723,228.283095 137.82794,228.458567 137.801328,228.835291 C137.382191,231.398347 136.768455,233.46742 136.553897,234.143527 C129.90093,237.902454 123.958167,244.145432 121.75853,250.187989 C120.304856,254.183928 120.555174,257.909589 122.453765,260.995734 Z M79.9321568,168.201812 C82.4760851,166.223386 85.2661732,164.683224 88.1901522,163.585484 C88.2084479,163.578831 88.2275752,163.573842 88.2450392,163.563862 C93.3877828,161.646144 98.9496633,161.129708 104.371,162.149275 C104.267047,164.103584 104.524018,166.140224 105.163535,168.225929 C106.516582,172.648489 109.461351,177.070217 113.571222,181.117716 C113.532136,186.926588 112.1899,196.064438 109.679236,207.583219 C106.035905,213.64823 101.713971,219.508663 95.1059116,227.5521 C94.9761787,227.708445 94.8397929,227.857305 94.7067335,228.010323 C85.7892627,227.925498 78.3046747,223.871346 71.843812,215.617509 C71.7298799,212.676897 71.3074165,207.378641 69.7614333,203.594765 C68.7767941,201.190549 67.2158417,200.248323 65.436173,199.910685 C66.3825576,182.303607 73.8189116,172.95203 79.9321568,168.201812 Z M86.2341799,158.643993 C77.9054967,157.848132 55.9357359,155.765753 28.0697831,171.147413 C28.2677089,167.972285 29.2199148,158.500954 33.6050518,151.562741 C38.4550648,152.566508 45.6835136,149.76644 49.0615577,148.265364 C50.5119045,147.62169 51.8782576,146.469063 53.0350423,145.136807 C62.536311,147.938537 67.8187669,142.664398 72.4833284,137.999836 L72.5357206,137.949939 C75.7740523,134.709112 75.8588776,133.136517 75.8422452,121.832294 C80.9267754,121.068866 83.8698817,117.359006 83.9962881,111.544312 C85.7002793,110.941387 87.0957391,110.002487 88.1660352,108.734265 C99.8461506,127.416629 92.7540877,147.693209 88.745675,158.848572 C88.1119799,158.821128 87.2678847,158.742124 86.2341799,158.643993 Z M31.3704864,149.126092 C27.3911805,145.146786 24.1703128,141.566658 25.0875906,138.082998 C26.1337697,134.102029 26.1470756,128.393783 26.1470756,128.153445 C26.1470756,127.809154 25.867651,127.529729 25.5233599,127.529729 C25.1790689,127.529729 24.8996443,127.809154 24.8996443,128.153445 C24.8996443,128.210827 24.8863383,133.940694 23.8809087,137.766151 C23.518322,139.146641 23.6813197,140.514658 24.1811238,141.846083 C21.0916522,140.611957 18.5028164,138.456396 17.2520586,136.01143 C16.3880045,134.324072 16.2158589,132.612596 16.7572441,131.060791 C18.3888843,126.368786 20.8646197,121.198599 20.8870735,121.146207 C21.0367652,120.834349 20.9070324,120.462615 20.5951745,120.314586 C20.2866432,120.165726 19.9124138,120.295459 19.7635536,120.607317 C19.7377734,120.659709 17.2345945,125.891436 15.5796689,130.651634 C15.3326775,131.356848 15.2071028,132.08618 15.1996182,132.826322 C12.9492521,131.264538 11.5446444,129.112304 11.2036798,126.665675 C10.8527358,124.146695 11.6860199,121.66597 13.4906373,119.862184 C17.6046658,115.747324 17.4175511,111.358861 17.4150563,111.280688 C17.3950974,110.936397 17.1031984,110.673605 16.759739,110.689406 C16.4171112,110.706038 16.1509925,110.999601 16.1676249,111.342228 C16.1701198,111.396284 16.2907048,115.299081 12.6066243,118.979835 C12.1018304,119.486292 11.6652294,120.040151 11.2943265,120.628107 C10.2123877,119.158633 9.37827196,116.829263 9.37827196,115.097828 C9.37827196,114.499893 9.47889808,113.688231 9.95624848,113.210049 C11.8465228,111.316448 16.5152424,103.562415 16.5152424,98.9070012 C16.5152424,94.9942249 29.6473679,88.9990699 45.8298789,88.9990699 C60.6119402,88.9990699 74.5889925,102.773207 74.5889925,117.342373 L74.5914874,120.876762 C74.6147728,132.851271 74.6180993,134.103692 71.6517076,137.067589 L71.6034735,137.118318 C67.0619919,141.6598 62.3583441,146.329351 53.8957699,144.068174 C55.4775128,141.932571 56.5012382,139.572431 56.5012382,138.132895 C56.5012382,137.701284 56.5852319,137.268841 56.6717204,136.808955 C57.0401285,134.871278 57.4850457,132.47621 52.7290058,127.435756 C57.267161,127.316834 61.2938694,130.288216 61.3379453,130.17761 C61.6364972,130.511922 59.0767681,126.031148 51.8849106,126.575028 C51.6379192,126.367123 51.2736692,126.372113 51.0433102,126.602472 C51.0300043,126.617441 51.024183,126.636568 51.010877,126.653201 C50.5460009,126.713077 50.0703138,126.784597 49.5705096,126.886886 C41.1902659,129.340999 39.2966651,133.420931 39.3972913,133.296188 C39.6833689,133.637153 44.5300554,128.965938 49.9455707,127.926412 C50.3514017,127.783373 50.7539062,127.68441 51.1605688,127.604575 C56.1827274,132.667483 55.7960236,134.744872 55.4450796,136.575269 C55.3511065,137.070916 55.2538068,137.584026 55.2538068,138.132895 C55.2538068,140.395736 52.0079905,145.591703 48.5551005,147.125212 C45.4398487,148.510692 34.9921954,152.747801 31.3704864,149.126092 Z M89.6912279,106.251877 C92.1079182,100.580222 90.0388455,92.284804 87.3427305,86.4069075 C110.700467,105.179918 112.791161,116.634664 102.808384,160.642378 C98.1371697,160.044443 93.4102366,160.521793 88.9535802,161.995425 C89.2038981,161.271915 89.4866492,160.48437 89.798507,159.612 C93.8850921,148.245405 101.460327,127.143025 88.9552434,107.640684 C89.2263519,107.204083 89.4799962,106.749186 89.6912279,106.251877 Z M80.9716829,101.781915 C80.8535927,101.9183 83.0931478,108.789152 82.9376347,110.651983 C82.9376347,110.656973 82.943456,110.660299 82.943456,110.663626 C82.9309817,110.680258 82.9226655,110.699385 82.9093596,110.715186 C82.8752631,110.757599 82.8428299,110.800012 82.8203761,110.85074 C82.8103967,110.869868 82.8070702,110.890658 82.8012488,110.910617 C82.7812899,110.968831 82.7688156,111.026212 82.7654891,111.087752 C82.7654891,111.094405 82.7621627,111.098563 82.7621627,111.105216 C82.7713105,114.262881 81.8490429,119.561138 75.8389187,120.563241 L75.8364239,117.342373 C75.8364239,109.922651 72.4384209,102.376524 66.5164485,96.6400026 C60.6817964,90.9908019 53.1423214,87.7516385 45.8298789,87.7516385 C45.6801871,87.7516385 45.5338218,87.754965 45.3874566,87.754965 C45.8423532,85.4097941 47.0282446,83.4346945 48.8636319,82.0151176 C51.3360408,80.1065477 54.7307173,79.3688999 58.684243,79.8836733 C58.6933908,79.8836733 58.7033703,79.8803468 58.7133497,79.8803468 C58.7815426,79.8869998 58.8447458,79.8836733 58.907949,79.8678725 C58.9295712,79.8612195 58.9470352,79.8545665 58.9661625,79.8479136 C59.0202178,79.8287863 59.0701151,79.8063325 59.1158542,79.7730677 C59.1225072,79.7705728 59.1291602,79.7672463 59.1324867,79.7639199 C59.1699096,79.803006 59.2148171,79.8354393 59.2763571,79.8512401 C61.8543818,80.1339912 68.8940527,82.8891512 69.009648,82.7685661 C69.3048734,82.2978687 62.5629228,79.0720113 59.8435225,78.932299 C62.6078304,75.7114313 66.041593,74.2718955 70.0699646,74.656936 C76.6613918,75.2906311 83.1812996,80.8242365 85.6728358,85.8106354 C88.7290426,91.9230489 90.8022734,100.462964 88.5410962,105.764547 C87.6279765,107.908466 86.0528865,109.416194 83.8632287,110.266943 C84.1443166,107.52592 81.3683661,101.512469 80.9716829,101.781915 Z M206.053286,156.443524 C205.140167,158.87851 203.836185,161.237819 202.957162,160.93095 C202.078138,160.625746 202.856536,157.984518 203.267356,156.51837 C204.501482,155.147027 205.736439,152.994792 206.827525,151.257536 C206.845821,152.317853 206.749353,154.586515 206.053286,156.443524 Z M22.0521743,71.8369095 C33.5601442,61.1497495 67.8545266,43.4911114 107.717442,52.4601428 C107.913705,52.5050503 108.119947,52.4501633 108.269639,52.317104 C108.420162,52.1823814 108.496671,51.983624 108.474217,51.784035 C106.771889,36.2385456 96.1653966,15.8688235 82.5151713,1.74374269 L82.8137232,1.74374269 C97.0552309,1.70216164 120.889486,1.63563197 158.056287,23.6977026 C187.422483,41.1293081 208.752728,62.7514513 219.326787,85.2143632 C219.339262,85.2617656 219.359221,85.302515 219.385001,85.3432644 C222.701505,92.4211898 224.949376,99.583109 226.047947,106.721743 C225.284519,106.824032 224.485332,106.970397 223.647058,107.174976 C223.312746,107.255643 223.107336,107.594113 223.188835,107.928425 C223.270334,108.262736 223.607972,108.467315 223.942283,108.386648 C228.99438,107.155017 232.486356,107.915119 234.328397,110.646993 C239.047845,117.645083 232.51879,136.167775 223.052449,150.630494 C224.87453,143.938441 225.804282,136.491276 225.804282,128.293157 C225.804282,126.479392 225.625484,124.024447 224.056215,123.654376 C223.069081,123.422353 220.06693,122.712149 208.548149,145.755532 C204.119768,154.608137 200.116345,159.855665 197.462643,159.228623 C195.980694,158.880173 193.09497,156.147467 193.09497,142.70681 C193.09497,119.971958 184.239039,101.574009 170.537253,95.8374885 C164.569541,93.3392993 155.070768,93.2178826 147.306755,98.5760161 C141.362329,102.67757 134.406652,111.407926 135.021219,129.70026 C135.43703,142.067294 136.901514,150.756901 139.195125,157.162876 C132.80495,149.764777 126.389826,145.921857 120.481991,146.002524 C115.478129,146.07238 110.988207,148.851657 107.138634,154.265509 C105.696604,156.293832 104.809264,158.529229 104.484932,160.901844 C104.338567,160.876064 104.192201,160.850283 104.044173,160.823671 C108.881712,139.492596 111.178649,124.861058 108.682123,113.4928 C106.356079,102.90294 100.16383,94.8046153 85.8483078,83.6342835 C82.7297295,78.8283464 76.4983941,74.0199144 70.1872232,73.4161576 C65.5966758,72.9778934 61.5624829,74.7758578 58.4921386,78.6137882 C54.353993,78.1455856 50.7638856,78.9713852 48.1002039,81.0288152 C47.2170225,81.7124076 46.4693953,82.5091004 45.8556591,83.400598 C43.4356423,81.5144818 33.4279165,74.1471524 22.0521743,71.8369095 Z M249.64519,89.8988837 C249.64519,93.4773484 243.842971,110.735145 237.076072,118.79771 C237.31641,115.179327 236.819933,112.108983 235.364596,109.949263 C233.704681,107.488497 230.991934,106.370799 227.288726,106.597831 C226.223419,99.6038995 224.062868,92.594167 220.895224,85.660112 C242.08243,85.7283049 249.64519,87.9711864 249.64519,89.8988837 Z M236.868167,120.885078 C244.440907,113.145182 250.892622,93.9064647 250.892622,89.8988837 C250.892622,86.2805012 240.607134,84.4351344 220.327227,84.4093542 C209.596823,61.8158778 188.150152,40.1089093 158.692477,22.6257433 C121.231282,0.38653739 97.1791424,0.454730303 82.8103967,0.496311348 L81.0340545,0.499637832 C80.7820733,0.499637832 80.5542092,0.652656076 80.4585728,0.884678304 C80.3612732,1.11670053 80.4144969,1.38697732 80.5916321,1.56411257 C94.3100504,15.2808676 105.115301,35.4925817 107.12616,51.0663461 C66.0806792,42.2062572 30.9513495,61.133117 20.2991175,71.785349 C20.1352882,71.9508416 20.0754115,72.1945065 20.1469309,72.4157177 C20.2184503,72.6377604 20.4063966,72.8024214 20.6375872,72.8415076 C32.461573,74.8423874 43.0647394,82.7910199 45.2119846,84.4808736 C44.688895,85.4879665 44.3221502,86.5890325 44.1208979,87.7732607 C27.9916107,88.1641225 15.2678111,94.0245549 15.2678111,98.9070012 C15.2678111,103.081738 10.9209287,110.479837 9.07223547,112.328531 C8.4485198,112.95391 8.13084062,113.886157 8.13084062,115.097828 C8.13084062,117.282496 9.24438099,120.181527 10.6639579,121.825641 C9.98202872,123.374951 9.72505787,125.096406 9.96872279,126.83782 C10.4011657,129.943924 12.3180518,132.610933 15.360121,134.395591 C15.511476,135.123259 15.7709417,135.855917 16.141013,136.580259 C17.6894911,139.601538 21.0467447,142.20368 24.9337407,143.426994 C26.2892828,145.806261 28.5246797,148.044153 30.4864734,150.008442 C31.0162159,150.535689 31.6499111,150.922393 32.3576204,151.203481 C27.03691,159.882277 26.7799391,171.706262 26.7707913,172.218541 C26.7674648,172.442247 26.8838917,172.650152 27.0759961,172.765747 C27.267269,172.878848 27.5059441,172.882174 27.7013751,172.7724 C55.692071,156.982415 77.7948911,159.092237 86.117753,159.885603 C86.9751541,159.96627 87.6994959,160.034463 88.3074108,160.073549 C87.982247,160.980016 87.6961694,161.795005 87.4525045,162.532652 C84.5227041,163.666152 81.725963,165.227104 79.1654023,167.217173 C72.8575578,172.118746 65.1858551,181.738105 64.1962263,199.76432 C63.2673057,199.716086 62.305952,199.76432 61.3529144,199.816712 C60.8373095,199.845818 60.3100618,199.868272 59.7786561,199.881578 C60.1395796,197.308543 59.6372805,194.81368 58.5054445,192.721322 C55.8093296,187.744903 49.8382916,180.338487 44.4427352,180.338487 C40.0018797,180.338487 34.5472782,183.437107 31.656564,187.25092 C24.2917294,185.734044 17.9215134,190.814416 15.3584578,200.342296 C15.2869384,200.609246 15.2411992,200.882018 15.208766,201.161443 C12.7854227,201.272048 10.9209287,202.071236 9.67682386,203.559006 C7.81232982,205.783592 7.35410671,209.377026 8.27637427,214.545549 C8.51255461,215.861174 9.00404255,217.215884 9.61861039,218.534003 C7.2584703,219.596815 5.71664517,221.097059 5.05384332,223.013945 C3.59185379,227.230263 6.58069928,232.357206 8.55912538,235.748556 C11.3076324,240.45553 22.882132,251.042064 30.2511247,252.761024 C30.4897999,257.142835 31.7538637,261.213619 34.0566219,264.10766 C36.6978499,267.42749 40.4077107,268.691554 44.5367084,267.701094 C45.6510804,269.168904 46.8752263,270.273297 48.2108095,270.994312 C45.6959879,276.695905 45.1296541,280.876463 46.4918491,283.745555 C47.3916629,285.639156 49.1172763,286.899062 51.767652,287.597623 C52.1219225,287.689102 52.4795195,287.799707 52.8396114,287.912808 C52.9402375,292.253037 54.4313338,295.972877 57.1183009,298.571693 C55.9939494,300.497727 51.0890494,308.541164 46.4627424,310.506284 C33.8720021,312.370778 22.6060339,319.537687 15.3044024,324.188943 L14.7929556,324.514106 C5.66009495,330.325473 -0.348365991,334.854481 0.015883959,338.060379 C0.152269785,339.258745 1.10697057,340.181844 2.86169065,340.80556 C8.26722644,342.721614 44.6148808,350.989589 75.3973281,341.435928 C82.3105925,339.291178 88.6608496,335.686101 94.3474733,331.404085 C94.3815698,331.390779 94.4206559,331.384958 94.4530892,331.361673 C94.5196188,331.320092 94.5736742,331.264373 94.6177501,331.202833 C98.5696126,328.201513 102.197975,324.87503 105.464581,321.489501 C105.615105,321.421308 105.72571,321.301555 105.783924,321.158516 C115.747574,310.746622 122.296588,299.860705 124.388115,296.170803 C124.786461,297.408255 125.228052,298.52928 125.712055,299.454874 C125.909149,299.877337 126.151983,300.270694 126.43806,300.644092 C126.451366,300.663219 126.467167,300.683178 126.480473,300.702305 C126.551992,300.796279 126.623512,300.88443 126.695031,300.971751 C126.803973,301.102315 126.913747,301.222068 127.026016,301.332674 C127.035996,301.342653 127.049302,301.342653 127.058449,301.351801 C127.305441,301.595466 127.565738,301.829983 127.857637,302.047036 C132.373339,305.405953 142.654668,305.025902 155.365993,301.024143 C168.642821,296.846079 182.461865,289.40723 193.279589,280.616998 C214.366169,263.483944 232.551223,234.968495 232.927947,227.646073 C232.97036,226.834411 232.798214,226.226496 232.414837,225.843951 C229.793568,223.22185 223.292787,219.083705 209.184339,220.80516 C197.577406,222.224737 183.264379,227.266023 166.488922,235.810096 C166.476448,235.816749 166.463142,235.816749 166.450668,235.823402 C166.411582,235.842529 166.372495,235.868309 166.333409,235.891594 C164.637734,236.755649 162.912953,237.658789 161.164885,238.594362 C160.99274,235.296985 159.96652,232.970942 158.020527,231.522258 C157.864182,231.405 157.69869,231.294394 157.529871,231.190442 C158.235085,228.575825 160.271725,220.23051 158.192672,218.151458 C154.053695,214.01248 143.330775,212.882308 132.012415,214.908968 C132.77917,213.797922 133.61079,212.303499 134.403325,210.582044 C136.362624,210.201993 148.155008,208.262654 157.188906,214.532243 C157.371031,214.65865 157.608043,214.678609 157.809295,214.583804 C158.010547,214.486504 158.146933,214.291905 158.166892,214.070694 C158.199325,213.678169 158.89456,204.871304 156.50365,198.877812 C174.607206,200.339801 192.555248,196.584201 197.168249,188.765302 C197.204008,188.70293 197.220641,188.638064 197.233115,188.573197 C199.091788,188.687129 201.115121,188.58983 203.210806,188.235559 C211.000599,186.926588 216.779533,182.670352 216.116731,178.733459 C215.749986,176.538811 213.449723,174.908003 210.139871,174.120458 C215.317543,168.754008 219.228656,162.235764 221.844104,154.606474 C229.292932,144.228677 235.516783,130.882824 236.868167,120.885078 Z" id="Fill-69" fill="#231F20" mask="url(#mask-4)"></path>
                        </g>
                        <path d="M134.124233,174.405039 C129.897936,169.974162 124.464957,165.935811 122.26033,164.476317 C122.07571,164.352405 121.857825,164.329951 121.692332,164.383175 C121.734745,164.367374 121.768842,164.347415 121.812086,164.331615 C126.864183,163.264645 129.097085,165.245566 129.23846,164.52954 C129.478799,164.255106 125.271629,162.013887 121.399602,163.301236 C116.864773,164.339099 116.83733,170.222817 117.287237,169.86522 C117.886835,170.217827 116.845646,166.310041 121.633287,164.408124 C121.380475,164.531204 121.317271,164.865515 121.886932,165.320412 C124.578057,167.406117 129.887956,171.41453 133.965394,175.499452 C138.367163,179.467946 139.607941,184.363699 139.526443,184.419417 C140.039553,184.438545 138.805427,178.598071 134.124233,174.405039" id="Fill-72" fill="#231F20"></path>
                    </g>
                </g>
            </g>
        </g>
    </g>
</svg>