<?xml version="1.0" encoding="UTF-8" standalone="no"?>
<!-- Created with Inkscape (http://www.inkscape.org/) -->
<svg
   xmlns:svg="http://www.w3.org/2000/svg"
   xmlns="http://www.w3.org/2000/svg"
   version="1.0"
   width="320.73734"
   height="527.49304">
  <defs />
  <path
     d="M 246.4991,77.281632 C 246.2541,77.170382 246.0641,76.959132 245.98535,76.700382 C 245.90785,76.442882 245.9466,76.162882 246.08785,75.932882 C 246.2691,75.637882 264.74035,46.644134 311.20035,36.720385 C 305.1116,31.181635 276.82035,7.8416372 227.62161,2.7753876 C 221.01536,2.0953877 185.86411,-0.78461208 142.27161,9.2816371 C 112.98786,16.042887 87.167866,26.937886 65.001618,41.780385 C 64.947868,41.822885 64.896618,41.857885 64.835368,41.889135 C 50.612869,51.434134 37.88537,62.591633 26.760371,75.375382 C 26.556621,75.606632 26.254121,75.725382 25.946621,75.691632 C 21.681622,75.217882 15.664122,75.759132 11.220373,81.029131 C 5.0453731,88.354131 0.55662343,106.54163 11.845373,151.24038 C 10.019123,127.86913 13.646622,104.66663 18.617872,97.23913 C 19.765372,95.52413 21.005372,94.65538 22.301622,94.65538 C 30.270371,94.65538 31.664121,107.18413 33.139121,120.44913 C 33.740371,125.85913 34.350371,131.33163 35.370371,136.11913 C 35.380371,136.15538 35.390371,136.18663 35.395371,136.22413 C 37.20162,144.63663 40.29537,150.90538 46.88412,150.90538 C 58.735369,150.90538 65.844118,135.56288 74.079118,117.79913 C 84.537867,95.23288 96.394116,69.655382 121.88411,69.655382 C 138.53161,69.655382 155.32286,85.791631 155.32286,121.84288 C 155.32286,153.27413 143.87286,173.60662 135.91911,183.93787 C 148.86786,175.89662 159.16036,173.50912 166.53286,176.87037 C 173.49536,180.04162 177.63661,185.36287 179.26661,198.40912 C 180.33411,206.93787 174.82911,224.45787 167.01661,233.30662 C 161.57661,239.46912 155.80661,244.38412 148.29661,247.88912 C 152.04661,248.24537 155.46036,250.34287 157.12911,252.01162 C 159.09786,253.97787 160.37036,259.88412 161.98161,267.36287 C 163.44661,274.15287 165.10661,281.78412 167.55786,287.59786 L 168.27536,287.31661 C 166.17661,282.33912 165.47286,276.65037 166.65036,271.92662 C 167.52411,268.41787 169.42786,265.94412 172.04036,264.83662 C 171.51286,260.92537 171.51786,255.64037 175.47286,251.33412 C 172.39661,242.40412 174.29661,233.04287 182.74911,212.90037 C 182.66036,211.63037 182.61161,210.30662 182.61161,208.92787 C 182.61161,195.70162 192.65036,187.14412 201.95286,186.80162 C 208.96911,186.54287 214.00286,190.87287 215.14161,197.95412 C 220.26786,194.40787 225.61536,192.32162 230.87786,191.79912 C 241.83035,157.87538 269.5891,150.90538 276.4691,150.90538 C 280.58035,150.90538 285.3166,154.54788 287.24035,159.19788 C 288.2566,161.64662 289.23785,166.23537 285.5616,170.96912 C 291.08785,171.17787 307.0116,172.02662 318.5841,175.11412 C 313.07035,147.59288 296.43535,99.79163 246.4991,77.281632 M 160.32661,81.386631 C 160.46786,81.770381 151.76786,62.756633 136.04036,58.806633 C 120.82911,53.695384 103.51287,63.929133 103.49787,62.991633 C 103.37787,62.779133 105.52412,61.334133 110.61036,59.144133 C 115.57536,57.120383 124.36661,54.051634 136.15286,57.106633 C 147.84786,60.674133 153.72661,68.521632 156.77786,73.335382 C 159.83536,78.414132 160.46786,81.349131 160.32661,81.386631 M 185.57536,74.002882 C 185.43911,75.437882 185.33661,76.340382 185.31661,76.534132 C 185.25786,77.049132 184.78911,77.417882 184.27661,77.359132 C 183.76411,77.300382 183.39286,76.835382 183.45161,76.321632 C 183.45661,76.270382 183.56411,75.330382 183.71036,73.754132 C 178.42786,68.650382 157.82286,51.277884 150.63036,47.681634 L 149.46911,47.099134 L 150.39161,46.179134 C 160.25286,36.317885 182.79286,30.749135 183.74411,30.516635 L 184.66286,30.292885 L 184.87786,31.211635 C 187.90911,43.996634 186.41536,64.952883 185.65911,73.139132 C 185.78036,73.420382 185.74161,73.739132 185.57536,74.002882 M 196.04411,83.117881 C 195.80036,83.574131 195.23411,83.747881 194.77536,83.505381 C 194.32036,83.261631 194.14536,82.694131 194.38911,82.236631 C 208.05161,56.575383 195.37536,20.827886 193.30536,18.755386 C 192.91911,18.370386 190.31661,17.597886 185.08786,17.801636 C 178.61786,18.055386 156.13786,20.490386 138.43286,41.201635 C 138.09661,41.595385 137.50036,41.641635 137.11036,41.305385 C 136.71411,40.969135 136.67036,40.376635 137.00786,39.982885 C 155.20536,18.694136 178.35411,16.189137 185.01411,15.927887 C 188.78911,15.780387 193.30036,16.097887 194.62786,17.429136 C 197.81661,20.612886 209.91661,57.055383 196.04411,83.117881 z"
     style="fill:#007fff;stroke-width:1;stroke-linejoin:miter;marker-start:none;marker-end:none;stroke-miterlimit:79.84031677" />
  <path
     d="M 143.27661,292.11411 C 142.84286,290.66411 142.40786,289.19911 141.97286,287.73161 C 143.35036,299.21661 142.11036,310.39786 137.94036,319.12036 C 131.82036,331.91411 121.06161,341.76286 109.15911,345.46161 C 97.455366,349.09911 84.967867,347.17286 72.042868,339.73911 C 71.261618,339.28911 70.510368,338.80411 69.772868,338.29786 C 76.814117,347.50536 84.780367,355.68536 100.44912,359.68536 C 100.95162,359.81411 101.25412,360.32161 101.12787,360.82536 C 100.99787,361.32786 100.48787,361.63036 99.985365,361.50161 C 99.074116,361.26911 98.210366,361.01036 97.347866,360.75161 C 93.812866,392.64661 96.171616,402.51161 98.797866,405.13661 C 104.17662,410.51536 112.84411,423.32035 114.48161,425.7666 C 117.17786,425.68785 121.83286,425.26785 129.86786,424.04285 C 131.33286,423.81785 132.71411,423.5516 134.03286,423.2616 C 133.32411,422.1991 132.50661,420.9516 131.61036,419.56035 C 131.60536,419.55535 131.60411,419.54535 131.59911,419.54035 C 125.22161,409.62911 115.11411,392.76411 115.11411,388.09286 C 115.11411,383.07161 118.72286,361.95786 118.87661,361.05911 C 118.92786,360.76661 119.11536,360.51286 119.38161,360.38036 C 123.95911,358.09036 130.24911,355.77661 130.31161,355.75161 C 130.55661,355.66411 130.82911,355.67911 131.06161,355.79786 C 131.29286,355.91786 131.46661,356.12786 131.53786,356.37911 C 133.77411,364.31161 134.85536,379.84411 133.64161,386.59161 C 132.89536,390.73286 130.88286,393.67661 128.66911,395.74161 C 128.59786,395.83536 128.51286,395.90786 128.41286,395.96661 C 126.00536,398.13036 123.41536,399.28661 121.97161,399.80411 C 124.56536,404.58786 127.82661,410.06286 130.91286,414.98285 C 140.53286,412.0316 144.64911,409.74786 150.73286,402.09161 C 156.55411,394.77536 155.14786,365.07786 151.56286,346.08911 C 150.65036,346.66536 149.71786,347.21161 148.75536,347.68536 C 148.29161,347.91286 147.73036,347.72161 147.50036,347.25536 C 147.27161,346.79161 147.46661,346.23036 147.93036,346.00036 C 159.50286,340.30536 167.48536,326.18911 169.59911,314.98536 C 167.26536,316.17661 164.94036,317.06536 162.84661,317.35286 C 154.38536,318.53036 147.19286,305.08786 143.27661,292.11411 z"
     style="fill:#007fff;stroke-width:1;stroke-linejoin:miter;marker-start:none;marker-end:none;stroke-miterlimit:79.84031677" />
  <path
     d="M 25.659121,73.797882 C 36.532871,61.365383 48.89412,50.445384 62.677868,41.062885 C 49.09912,32.921635 17.562872,30.704135 13.571622,30.697885 C 11.579123,31.377885 8.2078728,48.367884 12.385372,77.349132 C 15.951622,74.549132 20.462872,73.324132 25.659121,73.797882 z"
     style="fill:#007fff;stroke-width:1;stroke-linejoin:miter;marker-start:none;marker-end:none;stroke-miterlimit:79.84031677" />
  <path
     d="M 139.76661,251.15287 C 136.44661,252.15662 133.02161,252.90037 129.51661,253.38037 C 132.53911,257.92662 135.06536,262.88537 137.06161,268.04912 C 136.11411,262.59037 135.92411,258.07037 137.06661,255.42787 C 137.85661,253.60162 138.79036,252.21537 139.76661,251.15287 z"
     style="fill:#007fff;stroke-width:1;stroke-linejoin:miter;marker-start:none;marker-end:none;stroke-miterlimit:79.84031677" />
  <path
     d="M 153.25286,344.95786 C 153.99036,348.73536 154.70786,353.40786 155.28911,358.48161 C 170.67286,370.30786 182.58786,370.28786 191.36661,370.11911 C 176.26411,361.17411 167.79786,351.33036 162.02161,336.16161 C 159.49786,339.52661 156.56286,342.56786 153.25286,344.95786 z"
     style="fill:#007fff;stroke-width:1;stroke-linejoin:miter;marker-start:none;marker-end:none;stroke-miterlimit:79.84031677" />
  <path
     d="M 220.84411,286.60161 C 220.74161,293.22036 219.32036,297.46536 216.46911,299.52161 C 213.30036,301.80661 209.07161,300.78661 206.17161,299.81661 C 205.47786,299.58536 204.75036,299.39911 204.01286,299.24536 C 201.56661,303.61036 198.46661,306.12786 194.77536,306.68911 C 191.41036,307.20161 187.91411,306.06411 184.57911,304.16036 C 183.15411,305.50786 180.30286,307.97786 176.90911,310.42911 C 201.74786,311.17661 218.61786,321.38161 226.32786,330.83036 C 228.47661,316.92911 226.62036,293.49411 222.70411,286.17661 C 222.07911,286.33286 221.45911,286.46911 220.84411,286.60161 z"
     style="fill:#007fff;stroke-width:1;stroke-linejoin:miter;marker-start:none;marker-end:none;stroke-miterlimit:79.84031677" />
  <path
     d="M 253.2616,203.58037 C 253.4466,203.96037 253.6416,204.33162 253.80785,204.72412 C 256.1566,210.26662 256.21535,216.30162 254.04285,221.41162 C 255.4391,222.88037 256.5866,224.55287 257.4216,226.38037 C 259.8191,231.62912 259.5741,237.88162 256.75285,244.48537 C 257.1916,245.19037 257.5391,245.87912 257.76785,246.53037 C 259.2866,250.83037 259.42285,258.34287 254.54035,266.04537 C 257.86035,268.16412 271.19035,276.87537 280.9516,286.27411 C 282.86535,277.94162 290.3366,236.73787 265.07285,188.51162 C 260.5216,192.67912 256.2641,197.51162 253.2616,203.58037 z"
     style="fill:#007fff;stroke-width:1;stroke-linejoin:miter;marker-start:none;marker-end:none;stroke-miterlimit:79.84031677" />
  <path
     d="M 97.472866,406.46411 C 96.786616,405.78161 96.207866,404.79036 95.707866,403.55661 C 94.274116,408.90911 94.327866,414.1066 94.970366,418.43785 L 106.62786,417.80285 C 103.59287,413.63035 100.08787,409.07911 97.472866,406.46411 z"
     style="fill:#007fff;stroke-width:1;stroke-linejoin:miter;marker-start:none;marker-end:none;stroke-miterlimit:79.84031677" />
  <path
     d="M 152.63286,46.636634 C 160.39036,51.094134 177.55786,65.477883 183.92036,71.376632 C 184.65286,62.627883 185.74161,44.255384 183.25661,32.580385 C 179.04286,33.701635 161.41036,38.736635 152.63286,46.636634 z"
     style="fill:#ffccb2;stroke-width:1;stroke-linejoin:miter;marker-start:none;marker-end:none;stroke-miterlimit:79.84031677" />
  <path
     d="M 79.447867,246.42787 C 81.227867,246.97287 83.061617,247.48037 84.939117,247.95912 C 85.087867,247.96162 85.231617,247.99287 85.360367,248.06162 C 95.541616,250.61912 107.12161,252.15537 120.21911,252.15537 C 138.39911,252.15537 154.34161,244.83162 165.61036,232.06412 C 173.06411,223.62287 178.40536,206.63537 177.40661,198.64037 C 175.85911,186.28412 172.08411,181.46037 165.75661,178.57662 C 158.39911,175.22162 147.59786,178.26412 133.65661,187.62162 C 132.84661,188.16412 132.01661,188.75537 131.13536,189.37912 C 122.06286,195.81537 108.34911,205.54162 73.671618,193.98287 C 55.262869,187.84662 46.25912,188.80412 42.11412,190.34537 C 45.36537,193.69912 46.86037,197.28787 45.82287,200.33412 C 44.15787,205.22162 36.476621,207.22787 27.257871,205.76162 C 32.631621,218.45787 48.96662,236.94162 79.001617,246.28287 C 79.164117,246.29412 79.315367,246.34037 79.447867,246.42787 M 134.13536,222.14037 C 144.62036,219.51537 151.47536,209.00912 154.09286,203.57912 C 154.07786,203.57412 154.06786,203.56537 154.05411,203.55912 C 149.42911,200.75537 143.26286,202.99912 143.08661,202.57412 C 142.62286,202.60912 146.42661,198.61787 154.67411,202.02412 C 162.46536,206.24287 162.11911,212.21412 161.58161,211.84287 C 161.69911,211.70287 159.45411,206.68662 155.32286,204.21537 C 153.42411,208.70662 146.83161,220.06787 135.73286,223.02787 C 125.03411,226.17037 115.24911,226.62537 115.23411,226.53162 C 115.14661,226.15787 124.16911,225.13162 134.13536,222.14037 z"
     style="fill:#ffccb2;stroke-width:1;stroke-linejoin:miter;marker-start:none;marker-end:none;stroke-miterlimit:79.84031677" />
  <path
     d="M 173.30536,295.00536 C 171.62536,293.32786 170.19911,291.26911 169.06661,289.01786 L 161.81161,291.88161 C 161.32786,292.07286 160.78536,291.83536 160.59536,291.35536 C 160.40536,290.87411 160.63911,290.32661 161.12286,290.13911 L 165.81536,288.28661 C 163.30536,282.31662 161.63036,274.61412 160.15161,267.75912 C 158.72661,261.15287 157.37911,254.91287 155.80661,253.33787 C 153.97036,251.50412 149.74161,249.06287 145.60161,249.85162 C 142.65661,250.41162 140.36161,252.53912 138.78536,256.17287 C 136.20161,262.14287 141.97286,281.28912 145.07411,291.57161 C 148.87286,304.16536 155.76286,316.44536 162.58786,315.49786 C 169.15911,314.58536 178.97411,306.81661 182.92911,303.13911 C 179.34036,300.79536 176.00036,297.70536 173.30536,295.00536 z"
     style="fill:#ffccb2;stroke-width:1;stroke-linejoin:miter;marker-start:none;marker-end:none;stroke-miterlimit:79.84031677" />
  <path
     d="M 72.977868,338.11286 C 85.431617,345.27786 97.419116,347.14786 108.60286,343.67161 C 120.01661,340.12161 130.35161,330.64411 136.24536,318.31536 C 144.60036,300.84661 140.80161,273.14662 127.43661,253.64537 C 125.05786,253.89662 122.65036,254.03037 120.21911,254.03037 C 106.69161,254.03037 95.014116,252.37037 85.014117,249.84537 C 69.770368,254.85037 57.550369,273.29537 55.262869,294.80661 C 53.182869,314.34786 59.804119,330.53661 72.977868,338.11286 z"
     style="fill:#ffccb2;stroke-width:1;stroke-linejoin:miter;marker-start:none;marker-end:none;stroke-miterlimit:79.84031677" />
  <path
     d="M 38.28037,306.03786 C 40.52662,304.69661 42.30912,303.43786 43.73537,302.27536 C 42.68287,300.07536 39.14287,292.42911 37.025371,285.01412 C 36.087871,281.74287 36.891621,278.36912 39.28162,275.52287 C 43.64412,270.32412 52.177869,267.67037 61.647869,268.51537 C 66.786618,259.46662 73.859118,252.48037 81.884117,249.02912 C 80.869117,248.74537 79.882867,248.44662 78.905367,248.14662 L 74.222868,248.70162 C 55.214119,250.93287 31.552871,253.70912 20.672872,264.58912 C 14.056622,271.20537 16.417872,285.89286 19.599122,292.25536 C 22.614122,298.28786 28.070371,308.04161 29.542871,310.66411 C 31.630371,309.75786 34.445371,308.32536 38.28037,306.03786 z"
     style="fill:#ffccb2;stroke-width:1;stroke-linejoin:miter;marker-start:none;marker-end:none;stroke-miterlimit:79.84031677" />
  <path
     d="M 70.624118,444.13035 C 66.904118,442.4366 63.061618,439.3066 60.626619,434.33785 C 55.370369,423.61035 62.081619,400.18536 66.664118,390.60536 C 68.812868,386.10786 71.835368,383.10286 75.101617,381.37161 C 73.544118,380.16786 71.507868,379.09161 70.680368,378.67411 C 68.310368,379.67286 65.677868,380.03411 62.797868,380.07286 C 61.322869,382.35786 59.037869,384.14036 56.046619,385.32161 C 44.40912,406.28411 38.50787,430.4641 38.56912,456.2641 C 46.27912,446.93535 58.690369,445.0116 70.624118,444.13035 z"
     style="fill:#ff173d;stroke-width:1;stroke-linejoin:miter;marker-start:none;marker-end:none;stroke-miterlimit:79.84031677" />
  <path
     d="M 84.247867,458.32535 C 69.076618,464.9466 53.471619,472.59535 39.91162,480.90785 C 39.84037,480.9666 39.76537,481.01285 39.68162,481.0491 C 20.775372,492.67035 5.907873,505.58035 1.9478733,518.7791 C 1.8066233,519.25285 1.8653733,519.6391 2.1353733,520.0216 C 5.0091231,524.0716 28.092871,525.1391 35.677871,525.48785 C 50.052869,526.1516 79.837867,524.1891 107.24036,521.5866 C 107.81411,503.61285 94.066616,465.7616 84.247867,458.32535 z"
     style="fill:#ff173d;stroke-width:1;stroke-linejoin:miter;marker-start:none;marker-end:none;stroke-miterlimit:79.84031677" />
  <path
     d="M 168.04661,454.2766 C 157.74036,461.5091 142.75911,462.29535 131.81536,462.8691 C 129.86036,462.9716 128.01411,463.0691 126.33036,463.19285 C 122.28036,463.4941 118.48786,463.1491 115.10411,462.38035 C 127.97036,480.0066 131.66911,503.43285 130.85911,519.1116 C 145.29911,517.4441 157.01286,515.7591 162.28411,514.47285 C 177.15786,510.8466 184.69661,506.94785 184.69661,502.88285 C 184.69661,499.7416 181.63536,468.2666 170.74161,452.08035 C 169.95536,452.8316 169.06161,453.5641 168.04661,454.2766 z"
     style="fill:#ff173d;stroke-width:1;stroke-linejoin:miter;marker-start:none;marker-end:none;stroke-miterlimit:79.84031677" />
  <path
     d="M 116.98911,388.09286 C 116.98911,389.73161 118.64661,393.51036 121.08411,398.14161 C 122.24536,397.76786 124.69161,396.79411 126.99411,394.78036 C 126.85786,390.99161 124.78411,384.36036 121.46661,381.46036 C 120.32161,380.45911 119.09661,379.98536 117.82161,379.97536 C 117.33786,383.52536 116.98911,386.60161 116.98911,388.09286 z"
     style="fill:#ffffff;stroke-width:1;stroke-linejoin:miter;marker-start:none;marker-end:none;stroke-miterlimit:79.84031677" />
  <path
     d="M 172.51911,266.67412 C 170.09661,267.82912 168.97411,270.35162 168.47161,272.38037 C 167.44536,276.48912 168.03161,282.33162 170.38036,287.44661 C 170.39036,287.46036 170.40036,287.47036 170.40536,287.48286 C 170.40911,287.49036 170.40536,287.49536 170.40911,287.50036 C 171.45911,289.78036 172.86036,291.91161 174.62786,293.68161 C 182.90911,301.96036 189.40911,305.61036 194.49161,304.83661 C 197.47036,304.38411 200.03911,302.31911 202.14786,298.73286 C 199.49661,298.64536 194.54036,298.85036 194.41411,298.61286 C 194.17911,297.98286 200.49786,296.56786 203.17286,297.35286 C 203.39786,297.25536 203.65661,297.25036 203.89661,297.35286 C 203.97411,297.34911 204.04786,297.33411 204.12536,297.34911 C 205.02911,297.52411 205.91786,297.75411 206.76161,298.03661 C 210.81036,299.38661 213.46661,299.37536 215.37036,298.00036 C 217.62661,296.37661 218.82286,292.65161 218.96411,286.97036 C 211.98661,288.21286 205.74161,287.81786 200.68286,285.71536 C 195.64911,283.62287 192.04036,279.99037 190.22911,275.22162 L 186.01036,269.13037 C 181.56661,262.76662 178.24161,257.99412 176.24411,253.31287 C 173.91036,256.28662 173.19286,260.15537 174.00786,265.35662 C 174.01786,265.40537 174.00286,265.44912 174.00286,265.49787 C 174.00286,265.51787 174.00286,265.53412 174.00286,265.55162 C 173.99411,265.72037 173.94911,265.87912 173.85661,266.01537 C 174.50661,267.86162 175.84411,274.14287 175.31661,274.31662 C 174.91661,274.44287 172.85536,269.27287 172.51911,266.67412 z"
     style="fill:#ffffff;stroke-width:1;stroke-linejoin:miter;marker-start:none;marker-end:none;stroke-miterlimit:79.84031677" />
  <path
     d="M 24.542872,331.48911 C 26.617871,331.93161 33.612871,333.49161 33.566621,334.02786 C 33.534121,334.46786 27.184121,334.05786 24.501622,332.98536 C 24.530372,341.31536 24.965371,347.46536 28.686621,350.60286 C 31.381621,352.88036 35.785371,353.46161 42.14287,352.37786 C 57.870369,349.69661 64.514118,338.53536 65.785368,336.10536 C 65.321618,335.47411 64.855368,334.83411 64.389118,334.19661 L 62.375368,331.45036 C 62.342868,331.41161 62.335368,331.36161 62.314118,331.31786 C 55.101619,322.29536 51.825369,309.37036 53.397869,294.60911 C 53.666619,292.08911 54.071619,289.61411 54.596619,287.19286 C 54.357869,287.17786 54.122869,287.16286 53.842869,287.13911 C 50.577869,286.89411 44.63037,286.45036 40.28537,289.05286 C 41.01037,291.11786 41.78162,293.10536 42.51162,294.88286 C 45.31162,293.19786 47.75537,292.67786 49.25787,293.48161 C 50.082869,293.92286 50.551619,294.71661 50.572869,295.71286 C 50.646619,298.86161 46.30287,303.43786 39.24037,307.64911 C 26.310371,315.35661 23.402872,314.43286 22.342872,313.07161 C 20.961622,311.29411 22.907872,308.04161 24.786621,305.97161 C 23.897872,304.36286 22.924122,302.58286 21.947872,300.77411 C 12.552872,309.38036 9.7966227,317.12411 10.409123,321.57661 C 10.697873,323.68661 11.709123,325.21411 13.334122,325.99786 C 14.532872,326.57661 15.619122,327.14786 16.666622,327.70036 C 18.947872,328.89661 21.100372,330.02911 24.002872,331.01536 C 24.250372,331.09911 24.437872,331.27411 24.542872,331.48911 z"
     style="fill:#ffffff;stroke-width:1;stroke-linejoin:miter;marker-start:none;marker-end:none;stroke-miterlimit:79.84031677" />
  <path
     d="M 55.141619,383.67161 C 57.547869,382.76411 59.939119,381.25661 61.407869,378.78411 C 61.410369,378.77911 61.410369,378.77661 61.412869,378.77411 C 62.177868,377.48536 62.697868,375.94286 62.824118,374.06911 C 62.860368,373.55411 63.307868,373.16411 63.822868,373.19786 C 64.340368,373.23286 64.730368,373.68161 64.694118,374.19661 L 64.696618,374.19661 C 64.599118,375.62786 64.281618,376.95286 63.781618,378.17411 C 70.339118,377.88536 75.139117,375.52286 78.505367,366.31036 C 78.681617,365.82536 79.220367,365.57661 79.706617,365.75161 C 80.192867,365.93036 80.444117,366.46911 80.265367,366.95536 C 79.694117,368.51786 79.076617,369.88286 78.417867,371.10786 C 80.206617,370.99536 81.764117,370.05411 82.836617,369.17036 C 86.459117,366.18161 88.744116,360.95661 88.966616,357.50536 C 78.861617,352.58536 72.757868,345.45911 67.022868,337.77286 C 64.911618,341.50411 57.875369,351.59661 42.45787,354.22411 C 37.49662,355.07036 33.592871,354.92661 30.612871,353.81286 C 31.132871,366.63036 38.32662,373.84286 41.47412,376.98286 L 41.71287,377.22161 C 42.07912,377.58786 42.07912,378.17911 41.71287,378.54536 C 41.34662,378.91161 40.75412,378.91161 40.38787,378.54536 L 40.15037,378.31036 C 36.766621,374.93411 28.912871,367.07536 28.705371,352.92036 C 28.271621,352.65161 27.857871,352.35786 27.475371,352.03661 C 25.477871,350.35161 24.311622,347.96911 23.620372,345.20536 C 21.781622,344.93911 20.297872,345.42036 19.217872,346.65536 C 15.949122,350.38536 16.442872,359.98536 20.472872,371.10536 C 24.017872,380.87911 39.24787,386.41161 50.497869,384.82911 C 51.840369,384.63911 53.471619,384.29661 55.104119,383.68661 C 55.116619,383.68161 55.126619,383.67661 55.141619,383.67161 z"
     style="fill:#ffffff;stroke-width:1;stroke-linejoin:miter;marker-start:none;marker-end:none;stroke-miterlimit:79.84031677" />
  <path
     d="M 96.049116,428.9116 C 93.610366,423.94035 90.470366,412.2066 94.745366,400.34161 C 93.681616,395.49286 93.412866,388.24161 93.942866,378.47161 C 91.776616,379.05286 89.726616,380.10036 87.839116,381.65536 C 87.760366,381.71911 87.670366,381.75786 87.580366,381.79411 C 87.401616,382.08911 87.084117,382.26036 86.745367,382.24536 C 82.124117,384.90161 75.917867,403.66161 75.946617,403.74036 C 75.116617,403.76411 79.074117,386.35286 85.104117,381.77661 C 79.511617,380.38036 72.334118,383.09536 68.356618,391.41161 C 63.627868,401.29911 57.562869,423.82285 62.309118,433.51285 C 65.456618,439.9366 71.345368,443.00785 75.431617,443.6866 C 77.939117,444.1066 80.087867,443.7641 81.454117,442.7591 C 80.187867,441.3816 78.759117,437.49035 79.289117,437.3041 C 79.675367,437.15535 82.011617,440.7716 82.865367,442.1416 C 82.909117,442.15285 82.951617,442.16785 82.992867,442.18785 C 83.041617,442.2116 83.082867,442.24535 83.124117,442.27535 C 83.167867,442.3066 83.217867,442.3241 83.254117,442.36285 C 83.269117,442.37785 83.272867,442.39785 83.287867,442.4116 C 83.297867,442.4241 83.312867,442.4291 83.322867,442.4416 C 85.185367,444.76535 88.989116,448.1541 100.31162,451.0641 C 100.33912,450.7666 100.37787,450.4691 100.45912,450.16535 C 101.22787,447.28035 104.33537,444.9316 106.04411,443.82785 C 105.59037,443.43535 105.11912,443.0266 104.61412,442.59785 C 102.84162,441.0891 100.63412,439.2091 98.305366,436.88035 C 96.195366,434.77035 95.287866,432.6141 95.605366,430.4716 C 95.682866,429.9416 95.834116,429.4216 96.049116,428.9116 z"
     style="fill:#ffffff;stroke-width:1;stroke-linejoin:miter;marker-start:none;marker-end:none;stroke-miterlimit:79.84031677" />
  <path
     d="M 82.475367,444.33285 C 80.885367,445.4541 78.630367,445.91535 76.059117,445.6541 C 62.265368,446.4966 46.66412,447.47535 38.60037,459.37035 C 38.73287,465.70785 39.22287,472.1416 40.07537,478.64285 C 41.41412,477.8316 42.78037,477.0316 44.15662,476.23285 C 50.496619,472.5491 57.174119,469.02035 63.979118,465.6691 C 64.020368,465.6491 64.061618,465.6291 64.104118,465.60785 C 64.112868,465.60285 64.121618,465.5991 64.131618,465.5941 C 66.644118,464.35785 69.169118,463.1416 71.704118,461.95535 C 71.705368,461.9541 71.706618,461.9541 71.709118,461.95285 C 71.711618,461.9516 71.715368,461.9491 71.719118,461.94785 C 74.017868,460.87285 76.319117,459.81535 78.617867,458.78285 C 78.631617,458.7766 78.645367,458.77035 78.659117,458.7641 C 80.400367,457.98285 82.135367,457.2141 83.866617,456.46035 C 83.886617,456.44785 83.907867,456.44535 83.927867,456.43285 C 84.599117,456.14035 85.264117,455.8591 85.934117,455.57035 C 87.162866,455.0391 88.394116,454.5041 89.614116,453.9866 C 91.537866,453.1741 93.459116,452.36785 95.354116,451.5916 C 89.330366,449.6391 85.147867,447.28035 82.475367,444.33285 z"
     style="fill:#ffffff;stroke-width:1;stroke-linejoin:miter;marker-start:none;marker-end:none;stroke-miterlimit:79.84031677" />
  <path
     d="M 101.08787,454.2141 C 100.85412,453.83785 100.68787,453.4516 100.55412,453.0641 C 99.747865,452.8641 98.966616,452.6566 98.212866,452.4466 C 94.271616,454.04785 90.244116,455.73035 86.176617,457.48535 C 96.410366,466.63035 109.58911,503.0416 109.12036,521.4066 C 116.01036,520.7391 122.72411,520.0391 128.97161,519.3266 C 129.86286,503.40285 126.00786,479.1066 112.17911,461.5866 C 106.85036,459.86785 102.87537,457.07035 101.08787,454.2141 z"
     style="fill:#ffffff;stroke-width:1;stroke-linejoin:miter;marker-start:none;marker-end:none;stroke-miterlimit:79.84031677" />
  <path
     d="M 131.94786,416.62535 C 132.20161,417.0216 132.45036,417.4116 132.69786,417.79785 C 134.92911,417.04035 142.06161,414.74535 148.44786,414.03785 C 151.36286,413.71035 152.11536,414.69285 152.23161,415.5741 C 152.58411,418.2416 145.76286,422.37285 135.79661,424.77535 C 135.77286,424.78285 135.75286,424.79035 135.72786,424.79535 C 133.95411,425.2191 132.09911,425.59535 130.15036,425.89285 C 110.19036,428.94535 109.58411,427.3041 109.18411,426.21535 C 108.80786,425.19535 109.62786,424.3091 110.69786,423.54535 C 110.14161,422.7416 109.51161,421.83785 108.82786,420.8741 C 103.13912,423.9641 97.967866,427.28535 97.457866,430.7441 C 97.230366,432.29035 97.941616,433.8641 99.630366,435.5566 C 101.90912,437.8316 103.99162,439.6041 105.82912,441.1716 C 106.55286,441.7866 107.23286,442.36785 107.84661,442.91035 C 107.91911,442.97785 107.97036,443.0616 108.01911,443.1416 C 108.19286,443.22535 108.34911,443.3441 108.44661,443.53035 C 108.46161,443.5591 108.46161,443.5891 108.47411,443.61785 C 109.90161,444.64285 111.85036,448.2741 110.74161,448.50785 C 110.69286,448.20785 108.93786,446.2791 107.66286,445.0291 C 106.47661,445.7366 102.96787,448.02285 102.27037,450.6516 C 102.03037,451.55535 102.16537,452.39785 102.68037,453.22285 C 105.57037,457.8466 115.15536,462.14285 126.19036,461.32285 C 127.89536,461.1966 129.75286,461.0991 131.71786,460.99535 C 142.43286,460.4341 157.10536,459.66535 166.97161,452.7391 C 170.67286,450.1441 172.59661,447.4316 172.85536,444.44285 C 173.28536,439.4916 169.01286,434.3016 164.16411,429.3941 C 162.67036,431.72785 158.35536,437.67535 158.23786,437.70035 C 157.38411,437.4216 161.26411,430.07285 163.30036,428.21785 C 163.31036,428.21035 163.32036,428.21285 163.32911,428.20285 C 163.32411,428.1491 163.33411,428.09535 163.33911,428.0416 C 163.34911,427.98285 163.35411,427.9241 163.37411,427.8666 C 163.39286,427.80785 163.42286,427.7541 163.45661,427.70035 C 163.47661,427.66285 163.48036,427.6241 163.50536,427.59285 C 165.42411,425.0241 167.80661,421.83035 170.05786,418.41035 C 171.42036,416.34285 171.69411,414.6116 170.89286,413.12035 C 168.92536,409.47036 160.65911,407.27536 148.76036,407.22911 C 144.06786,412.0991 139.66911,414.2241 131.94786,416.62535 z"
     style="fill:#ffffff;stroke-width:1;stroke-linejoin:miter;marker-start:none;marker-end:none;stroke-miterlimit:79.84031677" />
  <path
     d="M 256.00035,247.15537 C 254.7991,243.75787 250.1466,239.17287 243.5741,236.98162 C 238.37785,235.24912 230.27286,234.46162 221.15161,240.54037 C 211.21036,247.16787 209.10536,254.28787 210.45411,258.74037 C 211.73286,262.96662 216.00536,265.49037 221.88411,265.49037 C 235.7516,265.49037 242.69035,254.78537 242.75785,254.67662 L 242.75785,254.67787 C 243.0316,254.24037 243.61285,254.10787 244.05285,254.38412 C 244.4866,254.66037 244.6191,255.23912 244.34535,255.67662 C 244.04285,256.15412 236.8116,267.36537 221.88411,267.36537 C 215.23911,267.36537 210.17036,264.26787 208.66161,259.28412 C 207.76286,256.31537 208.14911,252.35537 210.75161,248.14537 C 209.58411,247.13662 208.63661,245.09787 208.20786,244.06412 C 206.96786,241.07037 206.14661,237.30162 206.38161,233.60537 C 203.10036,234.39662 196.37661,235.26912 190.80536,231.17037 C 186.80161,228.22412 184.25786,223.38162 183.19286,216.73787 C 171.56661,245.15787 174.62411,249.55412 187.54286,268.05662 L 189.29661,270.58037 C 188.87661,260.07787 198.63286,249.23162 199.10536,248.71162 C 199.45786,248.32787 200.04786,248.30162 200.43411,248.65037 C 200.81536,248.99787 200.84411,249.59162 200.49286,249.97412 C 200.37036,250.11162 188.01161,263.85537 191.92786,274.43287 C 193.53411,278.77412 196.81161,282.07537 201.40036,283.98412 C 209.56536,287.37786 221.14161,286.02036 233.9941,280.15662 C 256.92285,269.69662 258.41285,253.99537 256.00035,247.15537 z"
     style="fill:#ffffff;stroke-width:1;stroke-linejoin:miter;marker-start:none;marker-end:none;stroke-miterlimit:79.84031677" />
  <path
     d="M 241.1616,194.81412 C 231.08785,191.32662 219.59411,195.04037 209.62786,205.00537 C 202.02536,212.61287 207.02536,222.35787 209.09161,225.64287 C 209.48161,225.10662 209.90161,224.58537 210.39036,224.09662 C 218.83786,215.64662 235.4491,213.01787 245.07285,215.94537 C 247.9091,216.80787 250.4591,218.21287 252.58285,220.02787 C 254.2816,215.52537 254.13035,210.29412 252.0841,205.45412 C 249.9216,200.34662 245.9416,196.46787 241.1616,194.81412 z"
     style="fill:#ffffff;stroke-width:1;stroke-linejoin:miter;marker-start:none;marker-end:none;stroke-miterlimit:79.84031677" />
  <path
     d="M 211.71286,225.42287 C 210.97161,226.16287 210.38536,226.96412 209.91161,227.79787 C 209.91161,227.80037 209.90661,227.80287 209.90661,227.80537 C 209.06661,229.28412 208.60286,230.86537 208.38286,232.41787 C 208.37786,232.43287 208.37786,232.44662 208.37411,232.46162 C 208.01161,235.08912 208.33911,237.61912 208.71036,239.36162 C 209.52161,243.15287 211.01536,245.75162 211.81161,246.58787 C 213.69036,244.05662 216.37661,241.47037 220.11161,238.98037 C 229.86286,232.48037 238.5741,233.33912 244.1641,235.20287 C 249.0766,236.84037 253.0266,239.77162 255.4541,242.68912 C 257.65035,236.98162 257.76285,231.63787 255.71785,227.15912 C 253.69035,222.72037 249.6141,219.28787 244.52535,217.74037 C 235.4291,214.97287 219.46786,217.67037 211.71286,225.42287 z"
     style="fill:#ffffff;stroke-width:1;stroke-linejoin:miter;marker-start:none;marker-end:none;stroke-miterlimit:79.84031677" />
  <path
     d="M 202.02161,188.67537 C 193.58786,188.98662 184.48661,196.81662 184.48661,208.92787 C 184.48661,219.05787 186.98661,226.03287 191.91411,229.66037 C 197.28411,233.61287 203.97911,232.34162 206.61536,231.60912 C 206.87411,230.14787 207.31911,228.72287 208.00286,227.38912 C 206.28911,224.81787 199.15536,212.82787 208.30536,203.67912 C 209.96536,202.01787 211.67411,200.54287 213.40786,199.21662 C 212.60161,191.18662 207.04036,188.49037 202.02161,188.67537 z"
     style="fill:#ffffff;stroke-width:1;stroke-linejoin:miter;marker-start:none;marker-end:none;stroke-miterlimit:79.84031677" />
  <path
     d="M 285.50785,159.91538 C 283.8766,155.98038 279.8241,152.78038 276.4691,152.78038 C 269.9216,152.78038 243.6516,159.44038 232.90035,191.67787 C 235.91785,191.60912 238.8966,192.04662 241.7716,193.04162 C 246.01535,194.51037 249.66285,197.56662 252.16785,201.60537 C 257.45035,191.68787 265.8341,185.11787 273.28035,179.29412 C 276.8066,176.53412 280.1416,173.92787 282.89035,171.17912 C 287.37285,166.69787 286.4541,162.19787 285.50785,159.91538 z"
     style="fill:#ffffff;stroke-width:1;stroke-linejoin:miter;marker-start:none;marker-end:none;stroke-miterlimit:79.84031677" />
  <path
     d="M 18.786622,184.32787 C 14.225372,183.05537 10.111623,183.52412 9.5941227,185.37537 C 9.0816227,187.22287 12.362872,189.75287 16.917872,191.02412 C 21.481622,192.29662 25.595371,191.82537 26.110371,189.98037 C 26.625371,188.12912 23.346622,185.59787 18.786622,184.32787 z"
     style="fill:#ffffff;stroke-width:1;stroke-linejoin:miter;marker-start:none;marker-end:none;stroke-miterlimit:79.84031677" />
  <path
     d="M 34.279121,162.55287 C 35.546621,162.59662 36.704121,158.75163 36.865371,153.96413 C 37.025371,149.17663 36.135371,145.26038 34.872871,145.21663 C 33.607871,145.17288 32.450371,149.02038 32.286621,153.80788 C 32.126621,158.59538 33.016621,162.51162 34.279121,162.55287 z"
     style="fill:#ffffff;stroke-width:1;stroke-linejoin:miter;marker-start:none;marker-end:none;stroke-miterlimit:79.84031677" />
  <path
     d="M 27.465371,181.63787 C 32.780371,183.44912 37.33412,186.05287 40.61537,188.92287 C 44.93662,186.99162 54.440369,185.59662 74.264118,192.20287 C 108.04161,203.46287 120.76161,194.43912 130.05036,187.84912 C 130.14661,187.78287 130.23411,187.72037 130.32661,187.65412 C 137.33036,180.15787 153.44786,158.86788 153.44786,121.84288 C 153.44786,87.086631 137.59411,71.530382 121.88411,71.530382 C 97.592866,71.530382 86.605367,97.33913 75.995367,119.21413 C 67.547868,136.63288 62.362868,145.96538 56.059119,150.28663 C 52.667869,152.60788 48.54912,154.16913 44.05037,152.78038 C 44.03287,152.77538 44.07162,155.83413 44.02037,157.38413 C 43.62037,169.16412 43.77162,178.69912 37.93412,178.25037 C 34.565371,177.99162 30.024121,167.76287 30.424121,155.98163 C 30.721621,147.23913 31.459121,139.92788 33.474121,136.07538 C 32.447871,131.21288 31.847871,125.81663 31.274121,120.65788 C 29.894121,108.25038 28.592871,96.53038 22.301622,96.53038 C 21.686622,96.53038 20.931622,97.15288 20.175372,98.28288 C 13.422872,108.37413 9.2791227,151.12663 19.360372,179.69412 C 21.965372,180.06037 24.696621,180.69412 27.465371,181.63787 M 109.01536,151.51913 C 109.66786,134.77913 114.57911,121.33413 119.98536,121.49538 C 125.39536,121.65788 129.25286,135.36163 128.60286,152.10538 C 127.95411,168.84662 123.03911,182.28912 117.62911,182.12787 C 112.22661,181.96537 108.36661,168.26412 109.01536,151.51913 z"
     style="fill:#ffffff;stroke-width:1;stroke-linejoin:miter;marker-start:none;marker-end:none;stroke-miterlimit:79.84031677" />
  <path
     d="M 120.19036,142.34788 C 120.46036,135.34538 118.86661,129.61538 116.62036,129.54788 C 114.37411,129.48038 112.33786,135.10288 112.06786,142.10663 C 111.79661,149.10538 113.39286,154.83663 115.63411,154.90413 C 117.88036,154.97163 119.92161,149.35038 120.19036,142.34788 z"
     style="fill:#ffffff;stroke-width:1;stroke-linejoin:miter;marker-start:none;marker-end:none;stroke-miterlimit:79.84031677" />
  <path
     d="M 90.062866,361.41161 C 90.407866,360.36911 90.654116,359.34036 90.775366,358.35161 C 91.596616,358.71036 92.426616,359.06786 93.300366,359.39911 C 92.299116,360.16286 91.107866,360.94661 90.062866,361.41161 z"
     style="fill:#ffffff;stroke:none;stroke-width:1;stroke-linejoin:miter;marker-start:none;marker-end:none;stroke-miterlimit:79.84031677" />
  <path
     d="M 136.15286,57.106633 C 124.36661,54.051634 115.57536,57.120383 110.61036,59.144133 C 105.52412,61.334133 103.37787,62.779133 103.49787,62.991633 C 103.51287,63.929133 120.82911,53.695384 136.04036,58.806633 C 151.76786,62.756633 160.46786,81.770381 160.32661,81.386631 C 160.46786,81.349131 159.83536,78.414132 156.77786,73.335382 C 153.72661,68.521632 147.84786,60.674133 136.15286,57.106633 z"
     style="fill:#000000;stroke:none;stroke-width:1;stroke-linejoin:miter;marker-start:none;marker-end:none;stroke-miterlimit:79.84031677" />
  <path
     d="M 185.01411,15.927887 C 178.35411,16.189137 155.20536,18.694136 137.00786,39.982885 C 136.67036,40.376635 136.71411,40.969135 137.11036,41.305385 C 137.50036,41.641635 138.09661,41.595385 138.43286,41.201635 C 156.13786,20.490386 178.61786,18.055386 185.08786,17.801636 C 190.31661,17.597886 192.91911,18.370386 193.30536,18.755386 C 195.37536,20.827886 208.05161,56.575383 194.38911,82.236631 C 194.14536,82.694131 194.32036,83.261631 194.77536,83.505381 C 195.23411,83.747881 195.80036,83.574131 196.04411,83.117881 C 209.91661,57.055383 197.81661,20.612886 194.62786,17.429136 C 193.30036,16.097887 188.78911,15.780387 185.01411,15.927887 z"
     style="fill:#000000;stroke:none;stroke-width:1;stroke-linejoin:miter;marker-start:none;marker-end:none;stroke-miterlimit:79.84031677" />
  <path
     d="M 184.87786,31.211635 L 184.66286,30.292885 L 183.74411,30.516635 C 182.79286,30.749135 160.25286,36.317885 150.39161,46.179134 L 149.46911,47.099134 L 150.63036,47.681634 C 157.82286,51.277884 178.42786,68.650382 183.71036,73.754132 C 183.56411,75.330382 183.45661,76.270382 183.45161,76.321632 C 183.39286,76.835382 183.76411,77.300382 184.27661,77.359132 C 184.78911,77.417882 185.25786,77.049132 185.31661,76.534132 C 185.33661,76.340382 185.43911,75.437882 185.57536,74.002882 C 185.74161,73.739132 185.78036,73.420382 185.65911,73.139132 C 186.41536,64.952883 187.90911,43.996634 184.87786,31.211635 M 183.92036,71.376632 C 177.55786,65.477883 160.39036,51.094134 152.63286,46.636634 C 161.41036,38.736635 179.04286,33.701635 183.25661,32.580385 C 185.74161,44.255384 184.65286,62.627883 183.92036,71.376632 z"
     style="fill:#000000;stroke:none;stroke-width:1;stroke-linejoin:miter;marker-start:none;marker-end:none;stroke-miterlimit:79.84031677" />
  <path
     d="M 248.27535,76.051632 C 251.75785,71.136632 270.9766,46.646634 313.32035,38.179135 C 313.6566,38.111635 313.92535,37.865385 314.02785,37.537885 C 314.13035,37.210385 314.04785,36.852885 313.80785,36.606635 C 313.51535,36.307885 284.1691,6.7128873 227.81161,0.91038778 C 221.15661,0.22538784 185.73161,-2.6771119 141.84661,7.4541373 C 112.53161,14.224137 86.650367,25.115386 64.394118,39.935385 C 49.61162,30.367885 13.894122,28.822886 13.551622,28.822886 C 13.144122,28.822886 12.529122,28.970386 11.922873,29.675385 C 8.8466228,33.254135 6.7328729,52.310384 10.707873,78.855382 C 10.400373,79.172882 10.077873,79.475381 9.7866227,79.821631 C -0.44212649,91.95788 0.82662341,120.52913 13.556622,164.74537 C 14.471622,169.85287 15.705372,174.81287 17.294122,179.46037 C 9.3503727,178.78287 3.0103732,180.84537 1.5128734,185.23162 C -0.58337648,191.38162 7.6366229,199.75287 19.870372,203.92537 C 21.620372,204.52162 23.354122,204.98537 25.052871,205.34912 C 28.331621,213.98287 36.507871,225.42787 51.207869,235.22787 C 57.021619,239.10287 64.806618,243.30662 74.681617,246.75912 L 74.005368,246.84037 C 54.706619,249.10412 30.687871,251.92162 19.347872,263.26162 C 12.334122,270.27787 14.052872,285.35662 17.921622,293.09536 C 18.802872,294.85786 19.891622,296.94036 21.032872,299.06786 C 12.329122,306.92911 7.6653729,315.39786 8.5491228,321.83036 C 8.9253728,324.55286 10.334123,326.63036 12.519122,327.68786 C 13.690372,328.25161 14.760372,328.81286 15.795372,329.36036 C 17.934122,330.48286 19.975372,331.55036 22.621622,332.51411 C 22.624122,336.22036 22.655372,339.95536 23.215372,343.28161 C 21.032872,343.13411 19.179122,343.85286 17.806622,345.42036 C 14.037872,349.72161 14.384122,359.80911 18.710372,371.74536 C 22.665372,382.65161 38.77412,388.37161 50.756619,386.68411 C 51.712869,386.55286 52.621619,386.36661 53.487869,386.14786 C 41.93287,407.70036 36.249121,432.49285 36.720371,458.8916 C 36.679121,459.05535 36.679121,459.2191 36.725371,459.37785 C 36.865371,466.0691 37.38662,472.8591 38.32037,479.7266 C 19.237872,491.53285 4.2178731,504.69285 0.15287346,518.2366 C -0.15462652,519.26285 0.0041234723,520.2541 0.60787342,521.10535 C 3.0216232,524.5141 13.159122,526.32785 35.590371,527.36285 C 62.924118,528.62285 145.80161,520.4241 162.72911,516.2941 C 178.99411,512.3291 186.57161,508.0666 186.57161,502.88285 C 186.57161,499.65785 183.39286,467.1391 172.05036,450.6691 C 173.63661,448.7591 174.54036,446.73285 174.72661,444.6041 C 175.21911,438.9041 170.65911,433.29535 165.48786,428.0666 C 167.33411,425.59535 169.52161,422.6341 171.62536,419.44035 C 173.37786,416.7816 173.68661,414.35535 172.54286,412.2316 C 170.31161,408.09536 162.30411,405.63036 150.44036,405.37536 C 151.01661,404.71161 151.59786,404.01786 152.20286,403.25911 C 157.37911,396.74786 157.24661,377.37036 155.56661,361.03786 C 171.05411,372.39286 183.03661,372.16036 191.86911,371.98536 C 192.90036,371.96536 193.86661,371.94536 194.79911,371.94536 L 198.42786,371.94536 L 195.25286,370.18786 C 178.29036,360.78661 169.31161,350.70286 163.33411,334.34036 C 167.81661,327.77786 170.74661,320.25411 171.69411,313.83786 C 172.56786,313.33036 173.44161,312.79286 174.29161,312.23411 C 201.41536,312.31411 219.15911,323.79411 226.11786,333.63286 C 226.33286,333.94036 226.71286,334.08661 227.07911,334.00911 C 227.44536,333.93286 227.72911,333.64286 227.80286,333.27661 C 230.57536,319.40911 228.75411,294.25536 224.54536,285.67162 C 227.84661,284.72912 231.2641,283.46412 234.77535,281.86537 C 243.9491,277.67537 249.84285,272.64162 253.49035,267.60037 C 256.8016,269.71162 271.0541,279.00412 280.80535,288.75536 C 281.0391,288.98911 281.3816,289.08161 281.6991,289.00161 C 282.0216,288.91786 282.27535,288.67161 282.36785,288.35411 C 282.4991,287.89536 295.3516,241.89537 266.51785,187.21912 C 269.15035,184.90787 271.85035,182.79162 274.43285,180.77037 C 277.88535,178.07037 281.1466,175.50912 283.91035,172.79037 C 286.85035,172.86787 306.64535,173.53537 319.53535,177.32662 C 319.84785,177.41912 320.19035,177.34162 320.4291,177.12162 C 320.67285,176.90287 320.78035,176.57287 320.7216,176.25162 C 315.47785,148.82163 299.0816,99.51038 248.27535,76.051632 M 13.571622,30.697885 C 17.562872,30.704135 49.09912,32.921635 62.677868,41.062885 C 48.89412,50.445384 36.532871,61.365383 25.659121,73.797882 C 20.462872,73.324132 15.951622,74.549132 12.385372,77.349132 C 8.2078728,48.367884 11.579123,31.377885 13.571622,30.697885 M 20.175372,98.28288 C 20.931622,97.15288 21.686622,96.53038 22.301622,96.53038 C 28.592871,96.53038 29.894121,108.25038 31.274121,120.65788 C 31.847871,125.81663 32.447871,131.21288 33.474121,136.07538 C 31.459121,139.92788 30.721621,147.23913 30.424121,155.98163 C 30.024121,167.76287 34.565371,177.99162 37.93412,178.25037 C 43.77162,178.69912 43.62037,169.16412 44.02037,157.38413 C 44.07162,155.83413 44.03287,152.77538 44.05037,152.78038 C 48.54912,154.16913 52.667869,152.60788 56.059119,150.28663 C 62.362868,145.96538 67.547868,136.63288 75.995367,119.21413 C 86.605367,97.33913 97.592866,71.530382 121.88411,71.530382 C 137.59411,71.530382 153.44786,87.086631 153.44786,121.84288 C 153.44786,158.86788 137.33036,180.15787 130.32661,187.65412 C 130.23411,187.72037 130.14661,187.78287 130.05036,187.84912 C 120.76161,194.43912 108.04161,203.46287 74.264118,192.20287 C 54.440369,185.59662 44.93662,186.99162 40.61537,188.92287 C 37.33412,186.05287 32.780371,183.44912 27.465371,181.63787 C 24.696621,180.69412 21.965372,180.06037 19.360372,179.69412 C 9.2791227,151.12663 13.422872,108.37413 20.175372,98.28288 M 34.872871,145.21663 C 36.135371,145.26038 37.025371,149.17663 36.865371,153.96413 C 36.704121,158.75163 35.546621,162.59662 34.279121,162.55287 C 33.016621,162.51162 32.126621,158.59538 32.286621,153.80788 C 32.450371,149.02038 33.607871,145.17288 34.872871,145.21663 M 26.110371,189.98037 C 25.595371,191.82537 21.481622,192.29662 16.917872,191.02412 C 12.362872,189.75287 9.0816227,187.22287 9.5941227,185.37537 C 10.111623,183.52412 14.225372,183.05537 18.786622,184.32787 C 23.346622,185.59787 26.625371,188.12912 26.110371,189.98037 M 27.257871,205.76162 C 36.476621,207.22787 44.15787,205.22162 45.82287,200.33412 C 46.86037,197.28787 45.36537,193.69912 42.11412,190.34537 C 46.25912,188.80412 55.262869,187.84662 73.671618,193.98287 C 108.34911,205.54162 122.06286,195.81537 131.13536,189.37912 C 132.01661,188.75537 132.84661,188.16412 133.65661,187.62162 C 147.59786,178.26412 158.39911,175.22162 165.75661,178.57662 C 172.08411,181.46037 175.85911,186.28412 177.40661,198.64037 C 178.40536,206.63537 173.06411,223.62287 165.61036,232.06412 C 154.34161,244.83162 138.39911,252.15537 120.21911,252.15537 C 107.12161,252.15537 95.541616,250.61912 85.360367,248.06162 C 85.231617,247.99287 85.087867,247.96162 84.939117,247.95912 C 83.061617,247.48037 81.227867,246.97287 79.447867,246.42787 C 79.315367,246.34037 79.164117,246.29412 79.001617,246.28287 C 48.96662,236.94162 32.631621,218.45787 27.257871,205.76162 M 55.262869,294.80661 C 57.550369,273.29537 69.770368,254.85037 85.014117,249.84537 C 95.014116,252.37037 106.69161,254.03037 120.21911,254.03037 C 122.65036,254.03037 125.05786,253.89662 127.43661,253.64537 C 140.80161,273.14662 144.60036,300.84661 136.24536,318.31536 C 130.35161,330.64411 120.01661,340.12161 108.60286,343.67161 C 97.419116,347.14786 85.431617,345.27786 72.977868,338.11286 C 59.804119,330.53661 53.182869,314.34786 55.262869,294.80661 M 53.984119,285.27037 C 50.590369,285.01412 44.47662,284.55537 39.67287,287.23661 C 39.37412,286.32786 39.08662,285.41287 38.82787,284.50162 C 38.05912,281.80662 38.71037,279.11912 40.71787,276.72787 C 44.50912,272.21162 52.235369,269.76037 60.664119,270.31787 C 58.256619,274.90912 56.340369,279.97537 55.024119,285.34412 C 54.714119,285.32662 54.365369,285.29787 53.984119,285.27037 M 137.06161,268.04912 C 135.06536,262.88537 132.53911,257.92662 129.51661,253.38037 C 133.02161,252.90037 136.44661,252.15662 139.76661,251.15287 C 138.79036,252.21537 137.85661,253.60162 137.06661,255.42787 C 135.92411,258.07037 136.11411,262.59037 137.06161,268.04912 M 19.599122,292.25536 C 16.417872,285.89286 14.056622,271.20537 20.672872,264.58912 C 31.552871,253.70912 55.214119,250.93287 74.222868,248.70162 L 78.905367,248.14662 C 79.882867,248.44662 80.869117,248.74537 81.884117,249.02912 C 73.859118,252.48037 66.786618,259.46662 61.647869,268.51537 C 52.177869,267.67037 43.64412,270.32412 39.28162,275.52287 C 36.891621,278.36912 36.087871,281.74287 37.025371,285.01412 C 39.14287,292.42911 42.68287,300.07536 43.73537,302.27536 C 42.30912,303.43786 40.52662,304.69661 38.28037,306.03786 C 34.445371,308.32536 31.630371,309.75786 29.542871,310.66411 C 28.070371,308.04161 22.614122,298.28786 19.599122,292.25536 M 16.666622,327.70036 C 15.619122,327.14786 14.532872,326.57661 13.334122,325.99786 C 11.709123,325.21411 10.697873,323.68661 10.409123,321.57661 C 9.7966227,317.12411 12.552872,309.38036 21.947872,300.77411 C 22.924122,302.58286 23.897872,304.36286 24.786621,305.97161 C 22.907872,308.04161 20.961622,311.29411 22.342872,313.07161 C 23.402872,314.43286 26.310371,315.35661 39.24037,307.64911 C 46.30287,303.43786 50.646619,298.86161 50.572869,295.71286 C 50.551619,294.71661 50.082869,293.92286 49.25787,293.48161 C 47.75537,292.67786 45.31162,293.19786 42.51162,294.88286 C 41.78162,293.10536 41.01037,291.11786 40.28537,289.05286 C 44.63037,286.45036 50.577869,286.89411 53.842869,287.13911 C 54.122869,287.16286 54.357869,287.17786 54.596619,287.19286 C 54.071619,289.61411 53.666619,292.08911 53.397869,294.60911 C 51.825369,309.37036 55.101619,322.29536 62.314118,331.31786 C 62.335368,331.36161 62.342868,331.41161 62.375368,331.45036 L 64.389118,334.19661 C 64.855368,334.83411 65.321618,335.47411 65.785368,336.10536 C 64.514118,338.53536 57.870369,349.69661 42.14287,352.37786 C 35.785371,353.46161 31.381621,352.88036 28.686621,350.60286 C 24.965371,347.46536 24.530372,341.31536 24.501622,332.98536 C 27.184121,334.05786 33.534121,334.46786 33.566621,334.02786 C 33.612871,333.49161 26.617871,331.93161 24.542872,331.48911 C 24.437872,331.27411 24.250372,331.09911 24.002872,331.01536 C 21.100372,330.02911 18.947872,328.89661 16.666622,327.70036 M 50.497869,384.82911 C 39.24787,386.41161 24.017872,380.87911 20.472872,371.10536 C 16.442872,359.98536 15.949122,350.38536 19.217872,346.65536 C 20.297872,345.42036 21.781622,344.93911 23.620372,345.20536 C 24.311622,347.96911 25.477871,350.35161 27.475371,352.03661 C 27.857871,352.35786 28.271621,352.65161 28.705371,352.92036 C 28.912871,367.07536 36.766621,374.93411 40.15037,378.31036 L 40.38787,378.54536 C 40.75412,378.91161 41.34662,378.91161 41.71287,378.54536 C 42.07912,378.17911 42.07912,377.58786 41.71287,377.22161 L 41.47412,376.98286 C 38.32662,373.84286 31.132871,366.63036 30.612871,353.81286 C 33.592871,354.92661 37.49662,355.07036 42.45787,354.22411 C 57.875369,351.59661 64.911618,341.50411 67.022868,337.77286 C 72.757868,345.45911 78.861617,352.58536 88.966616,357.50536 C 88.744116,360.95661 86.459117,366.18161 82.836617,369.17036 C 81.764117,370.05411 80.206617,370.99536 78.417867,371.10786 C 79.076617,369.88286 79.694117,368.51786 80.265367,366.95536 C 80.444117,366.46911 80.192867,365.93036 79.706617,365.75161 C 79.220367,365.57661 78.681617,365.82536 78.505367,366.31036 C 75.139117,375.52286 70.339118,377.88536 63.781618,378.17411 C 64.281618,376.95286 64.599118,375.62786 64.696618,374.19661 L 64.694118,374.19661 C 64.730368,373.68161 64.340368,373.23286 63.822868,373.19786 C 63.307868,373.16411 62.860368,373.55411 62.824118,374.06911 C 62.697868,375.94286 62.177868,377.48536 61.412869,378.77411 C 61.410369,378.77661 61.410369,378.77911 61.407869,378.78411 C 59.939119,381.25661 57.547869,382.76411 55.141619,383.67161 C 55.126619,383.67661 55.116619,383.68161 55.104119,383.68661 C 53.471619,384.29661 51.840369,384.63911 50.497869,384.82911 M 95.390366,360.12161 C 95.436616,360.13911 95.480366,360.15661 95.526616,360.17036 C 94.852866,366.20161 94.365366,371.63036 94.061616,376.48911 C 91.407866,377.09161 88.915366,378.33536 86.645367,380.21036 C 86.625367,380.22661 86.615367,380.25161 86.596617,380.26786 C 83.669117,379.27661 80.285367,379.30161 77.016617,380.51786 C 75.734117,379.38036 73.979118,378.32036 72.711618,377.62411 C 74.404118,376.55286 75.936617,375.03161 77.314117,372.95911 C 79.555367,373.19286 81.865367,372.40036 84.030367,370.61536 C 86.117867,368.89661 87.936616,366.33786 89.184116,363.64286 C 91.486616,363.26161 94.317866,361.03036 95.390366,360.12161 M 90.062866,361.41161 C 90.407866,360.36911 90.654116,359.34036 90.775366,358.35161 C 91.596616,358.71036 92.426616,359.06786 93.300366,359.39911 C 92.299116,360.16286 91.107866,360.94661 90.062866,361.41161 M 98.305366,436.88035 C 100.63412,439.2091 102.84162,441.0891 104.61412,442.59785 C 105.11912,443.0266 105.59037,443.43535 106.04411,443.82785 C 104.33537,444.9316 101.22787,447.28035 100.45912,450.16535 C 100.37787,450.4691 100.33912,450.7666 100.31162,451.0641 C 88.989116,448.1541 85.185367,444.76535 83.322867,442.4416 C 83.312867,442.4291 83.297867,442.4241 83.287867,442.4116 C 83.272867,442.39785 83.269117,442.37785 83.254117,442.36285 C 83.217867,442.3241 83.167867,442.3066 83.124117,442.27535 C 83.082867,442.24535 83.041617,442.2116 82.992867,442.18785 C 82.951617,442.16785 82.909117,442.15285 82.865367,442.1416 C 82.011617,440.7716 79.675367,437.15535 79.289117,437.3041 C 78.759117,437.49035 80.187867,441.3816 81.454117,442.7591 C 80.087867,443.7641 77.939117,444.1066 75.431617,443.6866 C 71.345368,443.00785 65.456618,439.9366 62.309118,433.51285 C 57.562869,423.82285 63.627868,401.29911 68.356618,391.41161 C 72.334118,383.09536 79.511617,380.38036 85.104117,381.77661 C 79.074117,386.35286 75.116617,403.76411 75.946617,403.74036 C 75.917867,403.66161 82.124117,384.90161 86.745367,382.24536 C 87.084117,382.26036 87.401616,382.08911 87.580366,381.79411 C 87.670366,381.75786 87.760366,381.71911 87.839116,381.65536 C 89.726616,380.10036 91.776616,379.05286 93.942866,378.47161 C 93.412866,388.24161 93.681616,395.49286 94.745366,400.34161 C 90.470366,412.2066 93.610366,423.94035 96.049116,428.9116 C 95.834116,429.4216 95.682866,429.9416 95.605366,430.4716 C 95.287866,432.6141 96.195366,434.77035 98.305366,436.88035 M 89.614116,453.9866 C 88.394116,454.5041 87.162866,455.0391 85.934117,455.57035 C 85.289117,455.8491 84.650367,456.1191 84.002867,456.4016 C 83.969117,456.41535 83.937867,456.43035 83.902867,456.44535 C 83.891617,456.44785 83.879117,456.45285 83.866617,456.46035 C 82.135367,457.2141 80.400367,457.98285 78.659117,458.7641 C 78.645367,458.77035 78.631617,458.7766 78.617867,458.78285 C 78.311617,458.92035 78.005367,459.0591 77.699117,459.1991 C 76.064117,459.9366 74.427868,460.68285 72.792868,461.44285 C 72.435368,461.61035 72.076618,461.77785 71.719118,461.94785 C 71.715368,461.9491 71.711618,461.9516 71.709118,461.95285 C 71.706618,461.9541 71.705368,461.9541 71.704118,461.95535 C 69.170368,463.1416 66.645368,464.35785 64.131618,465.5941 C 64.121618,465.5991 64.112868,465.60285 64.104118,465.60785 C 64.061618,465.6291 64.020368,465.6491 63.979118,465.6691 C 63.021618,466.1416 62.062869,466.60785 61.110369,467.08785 C 60.146619,467.57285 59.194119,468.0666 58.236619,468.5591 C 57.035369,469.1766 55.834119,469.7991 54.642869,470.4291 C 53.784119,470.8841 52.931619,471.34035 52.079119,471.8016 C 50.731619,472.5291 49.39912,473.2641 48.07537,474.0066 C 47.38037,474.3941 46.68162,474.78035 45.99537,475.17035 C 45.37912,475.5241 44.76912,475.8791 44.15662,476.23285 C 42.78037,477.0316 41.41412,477.8316 40.07537,478.64285 C 39.22287,472.1416 38.73287,465.70785 38.60037,459.37035 C 46.66412,447.47535 62.265368,446.4966 76.059117,445.6541 C 78.630367,445.91535 80.885367,445.4541 82.475367,444.33285 C 85.147867,447.28035 89.330366,449.6391 95.354116,451.5916 C 93.459116,452.36785 91.537866,453.1741 89.614116,453.9866 M 94.970366,418.43785 C 94.327866,414.1066 94.274116,408.90911 95.707866,403.55661 C 96.207866,404.79036 96.786616,405.78161 97.472866,406.46411 C 100.08787,409.07911 103.59287,413.63035 106.62786,417.80285 L 94.970366,418.43785 M 56.046619,385.32161 C 59.037869,384.14036 61.322869,382.35786 62.797868,380.07286 C 65.677868,380.03411 68.310368,379.67286 70.680368,378.67411 C 71.507868,379.09161 73.544118,380.16786 75.101617,381.37161 C 71.835368,383.10286 68.812868,386.10786 66.664118,390.60536 C 62.081619,400.18536 55.370369,423.61035 60.626619,434.33785 C 63.061618,439.3066 66.904118,442.4366 70.624118,444.13035 C 58.690369,445.0116 46.27912,446.93535 38.56912,456.2641 C 38.50787,430.4641 44.40912,406.28411 56.046619,385.32161 M 107.24036,521.5866 C 79.837867,524.1891 50.052869,526.1516 35.677871,525.48785 C 28.092871,525.1391 5.0091231,524.0716 2.1353733,520.0216 C 1.8653733,519.6391 1.8066233,519.25285 1.9478733,518.7791 C 5.907873,505.58035 20.775372,492.67035 39.68162,481.0491 C 39.76537,481.01285 39.84037,480.9666 39.91162,480.90785 C 53.471619,472.59535 69.076618,464.9466 84.247867,458.32535 C 94.066616,465.7616 107.81411,503.61285 107.24036,521.5866 M 128.97161,519.3266 C 122.72411,520.0391 116.01036,520.7391 109.12036,521.4066 C 109.58911,503.0416 96.410366,466.63035 86.176617,457.48535 C 90.244116,455.73035 94.271616,454.04785 98.212866,452.4466 C 98.966616,452.6566 99.747865,452.8641 100.55412,453.0641 C 100.68787,453.4516 100.85412,453.83785 101.08787,454.2141 C 102.87537,457.07035 106.85036,459.86785 112.17911,461.5866 C 126.00786,479.1066 129.86286,503.40285 128.97161,519.3266 M 184.69661,502.88285 C 184.69661,506.94785 177.15786,510.8466 162.28411,514.47285 C 157.01286,515.7591 145.29911,517.4441 130.85911,519.1116 C 131.66911,503.43285 127.97036,480.0066 115.10411,462.38035 C 118.48786,463.1491 122.28036,463.4941 126.33036,463.19285 C 128.01411,463.0691 129.86036,462.9716 131.81536,462.8691 C 142.75911,462.29535 157.74036,461.5091 168.04661,454.2766 C 169.06161,453.5641 169.95536,452.8316 170.74161,452.08035 C 181.63536,468.2666 184.69661,499.7416 184.69661,502.88285 M 170.89286,413.12035 C 171.69411,414.6116 171.42036,416.34285 170.05786,418.41035 C 167.80661,421.83035 165.42411,425.0241 163.50536,427.59285 C 163.48036,427.6241 163.47661,427.66285 163.45661,427.70035 C 163.42286,427.7541 163.39286,427.80785 163.37411,427.8666 C 163.35411,427.9241 163.34911,427.98285 163.33911,428.0416 C 163.33411,428.09535 163.32411,428.1491 163.32911,428.20285 C 163.32036,428.21285 163.31036,428.21035 163.30036,428.21785 C 161.26411,430.07285 157.38411,437.4216 158.23786,437.70035 C 158.35536,437.67535 162.67036,431.72785 164.16411,429.3941 C 169.01286,434.3016 173.28536,439.4916 172.85536,444.44285 C 172.59661,447.4316 170.67286,450.1441 166.97161,452.7391 C 157.10536,459.66535 142.43286,460.4341 131.71786,460.99535 C 129.75286,461.0991 127.89536,461.1966 126.19036,461.32285 C 115.15536,462.14285 105.57037,457.8466 102.68037,453.22285 C 102.16537,452.39785 102.03037,451.55535 102.27037,450.6516 C 102.96787,448.02285 106.47661,445.7366 107.66286,445.0291 C 108.93786,446.2791 110.69286,448.20785 110.74161,448.50785 C 111.85036,448.2741 109.90161,444.64285 108.47411,443.61785 C 108.46161,443.5891 108.46161,443.5591 108.44661,443.53035 C 108.34911,443.3441 108.19286,443.22535 108.01911,443.1416 C 107.97036,443.0616 107.91911,442.97785 107.84661,442.91035 C 107.23286,442.36785 106.55286,441.7866 105.82912,441.1716 C 103.99162,439.6041 101.90912,437.8316 99.630366,435.5566 C 97.941616,433.8641 97.230366,432.29035 97.457866,430.7441 C 97.967866,427.28535 103.13912,423.9641 108.82786,420.8741 C 109.51161,421.83785 110.14161,422.7416 110.69786,423.54535 C 109.62786,424.3091 108.80786,425.19535 109.18411,426.21535 C 109.58411,427.3041 110.19036,428.94535 130.15036,425.89285 C 132.09911,425.59535 133.95411,425.2191 135.72786,424.79535 C 135.75286,424.79035 135.77286,424.78285 135.79661,424.77535 C 145.76286,422.37285 152.58411,418.2416 152.23161,415.5741 C 152.11536,414.69285 151.36286,413.71035 148.44786,414.03785 C 142.06161,414.74535 134.92911,417.04035 132.69786,417.79785 C 132.45036,417.4116 132.20161,417.0216 131.94786,416.62535 C 139.66911,414.2241 144.06786,412.0991 148.76036,407.22911 C 160.65911,407.27536 168.92536,409.47036 170.89286,413.12035 M 191.36661,370.11911 C 182.58786,370.28786 170.67286,370.30786 155.28911,358.48161 C 154.70786,353.40786 153.99036,348.73536 153.25286,344.95786 C 156.56286,342.56786 159.49786,339.52661 162.02161,336.16161 C 167.79786,351.33036 176.26411,361.17411 191.36661,370.11911 M 147.93036,346.00036 C 147.46661,346.23036 147.27161,346.79161 147.50036,347.25536 C 147.73036,347.72161 148.29161,347.91286 148.75536,347.68536 C 149.71786,347.21161 150.65036,346.66536 151.56286,346.08911 C 155.14786,365.07786 156.55411,394.77536 150.73286,402.09161 C 144.64911,409.74786 140.53286,412.0316 130.91286,414.98285 C 127.82661,410.06286 124.56536,404.58786 121.97161,399.80411 C 123.41536,399.28661 126.00536,398.13036 128.41286,395.96661 C 128.51286,395.90786 128.59786,395.83536 128.66911,395.74161 C 130.88286,393.67661 132.89536,390.73286 133.64161,386.59161 C 134.85536,379.84411 133.77411,364.31161 131.53786,356.37911 C 131.46661,356.12786 131.29286,355.91786 131.06161,355.79786 C 130.82911,355.67911 130.55661,355.66411 130.31161,355.75161 C 130.24911,355.77661 123.95911,358.09036 119.38161,360.38036 C 119.11536,360.51286 118.92786,360.76661 118.87661,361.05911 C 118.72286,361.95786 115.11411,383.07161 115.11411,388.09286 C 115.11411,392.76411 125.22161,409.62911 131.59911,419.54035 C 131.60411,419.54535 131.60536,419.55535 131.61036,419.56035 C 132.50661,420.9516 133.32411,422.1991 134.03286,423.2616 C 132.71411,423.5516 131.33286,423.81785 129.86786,424.04285 C 121.83286,425.26785 117.17786,425.68785 114.48161,425.7666 C 112.84411,423.32035 104.17662,410.51536 98.797866,405.13661 C 96.171616,402.51161 93.812866,392.64661 97.347866,360.75161 C 98.210366,361.01036 99.074116,361.26911 99.985365,361.50161 C 100.48787,361.63036 100.99787,361.32786 101.12787,360.82536 C 101.25412,360.32161 100.95162,359.81411 100.44912,359.68536 C 84.780367,355.68536 76.814117,347.50536 69.772868,338.29786 C 70.510368,338.80411 71.261618,339.28911 72.042868,339.73911 C 84.967867,347.17286 97.455366,349.09911 109.15911,345.46161 C 121.06161,341.76286 131.82036,331.91411 137.94036,319.12036 C 142.11036,310.39786 143.35036,299.21661 141.97286,287.73161 C 142.40786,289.19911 142.84286,290.66411 143.27661,292.11411 C 147.19286,305.08786 154.38536,318.53036 162.84661,317.35286 C 164.94036,317.06536 167.26536,316.17661 169.59911,314.98536 C 167.48536,326.18911 159.50286,340.30536 147.93036,346.00036 M 121.46661,381.46036 C 124.78411,384.36036 126.85786,390.99161 126.99411,394.78036 C 124.69161,396.79411 122.24536,397.76786 121.08411,398.14161 C 118.64661,393.51036 116.98911,389.73161 116.98911,388.09286 C 116.98911,386.60161 117.33786,383.52536 117.82161,379.97536 C 119.09661,379.98536 120.32161,380.45911 121.46661,381.46036 M 118.08536,378.08536 C 119.04036,371.39161 120.31661,363.77661 120.64411,361.85036 C 124.00536,360.20536 128.14411,358.57911 129.99036,357.87786 C 131.99161,365.84411 132.92411,379.98036 131.79661,386.25911 C 131.28411,389.10661 130.11161,391.29911 128.71536,393.00286 C 128.14911,388.80786 126.09536,383.01536 122.70161,380.04911 C 121.27161,378.79911 119.72411,378.14911 118.08536,378.08536 M 162.58786,315.49786 C 155.76286,316.44536 148.87286,304.16536 145.07411,291.57161 C 141.97286,281.28912 136.20161,262.14287 138.78536,256.17287 C 140.36161,252.53912 142.65661,250.41162 145.60161,249.85162 C 149.74161,249.06287 153.97036,251.50412 155.80661,253.33787 C 157.37911,254.91287 158.72661,261.15287 160.15161,267.75912 C 161.63036,274.61412 163.30536,282.31662 165.81536,288.28661 L 161.12286,290.13911 C 160.63911,290.32661 160.40536,290.87411 160.59536,291.35536 C 160.78536,291.83536 161.32786,292.07286 161.81161,291.88161 L 169.06661,289.01786 C 170.19911,291.26911 171.62536,293.32786 173.30536,295.00536 C 176.00036,297.70536 179.34036,300.79536 182.92911,303.13911 C 178.97411,306.81661 169.15911,314.58536 162.58786,315.49786 M 173.85661,266.01537 C 173.94911,265.87912 173.99411,265.72037 174.00286,265.55162 C 174.00286,265.53412 174.00286,265.51787 174.00286,265.49787 C 174.00286,265.44912 174.01786,265.40537 174.00786,265.35662 C 173.19286,260.15537 173.91036,256.28662 176.24411,253.31287 C 178.24161,257.99412 181.56661,262.76662 186.01036,269.13037 L 190.22911,275.22162 C 192.04036,279.99037 195.64911,283.62287 200.68286,285.71536 C 205.74161,287.81786 211.98661,288.21286 218.96411,286.97036 C 218.82286,292.65161 217.62661,296.37661 215.37036,298.00036 C 213.46661,299.37536 210.81036,299.38661 206.76161,298.03661 C 205.91786,297.75411 205.02911,297.52411 204.12536,297.34911 C 204.04786,297.33411 203.97411,297.34911 203.89661,297.35286 C 203.65661,297.25036 203.39786,297.25536 203.17286,297.35286 C 200.49786,296.56786 194.17911,297.98286 194.41411,298.61286 C 194.54036,298.85036 199.49661,298.64536 202.14786,298.73286 C 200.03911,302.31911 197.47036,304.38411 194.49161,304.83661 C 189.40911,305.61036 182.90911,301.96036 174.62786,293.68161 C 172.86036,291.91161 171.45911,289.78036 170.40911,287.50036 C 170.40536,287.49536 170.40911,287.49036 170.40536,287.48286 C 170.40036,287.47036 170.39036,287.46036 170.38036,287.44661 C 168.03161,282.33162 167.44536,276.48912 168.47161,272.38037 C 168.97411,270.35162 170.09661,267.82912 172.51911,266.67412 C 172.85536,269.27287 174.91661,274.44287 175.31661,274.31662 C 175.84411,274.14287 174.50661,267.86162 173.85661,266.01537 M 226.32786,330.83036 C 218.61786,321.38161 201.74786,311.17661 176.90911,310.42911 C 180.30286,307.97786 183.15411,305.50786 184.57911,304.16036 C 187.91411,306.06411 191.41036,307.20161 194.77536,306.68911 C 198.46661,306.12786 201.56661,303.61036 204.01286,299.24536 C 204.75036,299.39911 205.47786,299.58536 206.17161,299.81661 C 209.07161,300.78661 213.30036,301.80661 216.46911,299.52161 C 219.32036,297.46536 220.74161,293.22036 220.84411,286.60161 C 221.45911,286.46911 222.07911,286.33286 222.70411,286.17661 C 226.62036,293.49411 228.47661,316.92911 226.32786,330.83036 M 233.9941,280.15662 C 221.14161,286.02036 209.56536,287.37786 201.40036,283.98412 C 196.81161,282.07537 193.53411,278.77412 191.92786,274.43287 C 188.01161,263.85537 200.37036,250.11162 200.49286,249.97412 C 200.84411,249.59162 200.81536,248.99787 200.43411,248.65037 C 200.04786,248.30162 199.45786,248.32787 199.10536,248.71162 C 198.63286,249.23162 188.87661,260.07787 189.29661,270.58037 L 187.54286,268.05662 C 174.62411,249.55412 171.56661,245.15787 183.19286,216.73787 C 184.25786,223.38162 186.80161,228.22412 190.80536,231.17037 C 196.37661,235.26912 203.10036,234.39662 206.38161,233.60537 C 206.14661,237.30162 206.96786,241.07037 208.20786,244.06412 C 208.63661,245.09787 209.58411,247.13662 210.75161,248.14537 C 208.14911,252.35537 207.76286,256.31537 208.66161,259.28412 C 210.17036,264.26787 215.23911,267.36537 221.88411,267.36537 C 236.8116,267.36537 244.04285,256.15412 244.34535,255.67662 C 244.6191,255.23912 244.4866,254.66037 244.05285,254.38412 C 243.61285,254.10787 243.0316,254.24037 242.75785,254.67787 L 242.75785,254.67662 C 242.69035,254.78537 235.7516,265.49037 221.88411,265.49037 C 216.00536,265.49037 211.73286,262.96662 210.45411,258.74037 C 209.10536,254.28787 211.21036,247.16787 221.15161,240.54037 C 230.27286,234.46162 238.37785,235.24912 243.5741,236.98162 C 250.1466,239.17287 254.7991,243.75787 256.00035,247.15537 C 258.41285,253.99537 256.92285,269.69662 233.9941,280.15662 M 252.58285,220.02787 C 250.4591,218.21287 247.9091,216.80787 245.07285,215.94537 C 235.4491,213.01787 218.83786,215.64662 210.39036,224.09662 C 209.90161,224.58537 209.48161,225.10662 209.09161,225.64287 C 207.02536,222.35787 202.02536,212.61287 209.62786,205.00537 C 219.59411,195.04037 231.08785,191.32662 241.1616,194.81412 C 245.9416,196.46787 249.9216,200.34662 252.0841,205.45412 C 254.13035,210.29412 254.2816,215.52537 252.58285,220.02787 M 255.71785,227.15912 C 257.76285,231.63787 257.65035,236.98162 255.4541,242.68912 C 253.0266,239.77162 249.0766,236.84037 244.1641,235.20287 C 238.5741,233.33912 229.86286,232.48037 220.11161,238.98037 C 216.37661,241.47037 213.69036,244.05662 211.81161,246.58787 C 211.01536,245.75162 209.52161,243.15287 208.71036,239.36162 C 208.33911,237.61912 208.01161,235.08912 208.37411,232.46162 C 208.37786,232.44662 208.37786,232.43287 208.38286,232.41787 C 208.60286,230.86537 209.06661,229.28412 209.90661,227.80537 C 209.90661,227.80287 209.91161,227.80037 209.91161,227.79787 C 210.38536,226.96412 210.97161,226.16287 211.71286,225.42287 C 219.46786,217.67037 235.4291,214.97287 244.52535,217.74037 C 249.6141,219.28787 253.69035,222.72037 255.71785,227.15912 M 208.30536,203.67912 C 199.15536,212.82787 206.28911,224.81787 208.00286,227.38912 C 207.31911,228.72287 206.87411,230.14787 206.61536,231.60912 C 203.97911,232.34162 197.28411,233.61287 191.91411,229.66037 C 186.98661,226.03287 184.48661,219.05787 184.48661,208.92787 C 184.48661,196.81662 193.58786,188.98662 202.02161,188.67537 C 207.04036,188.49037 212.60161,191.18662 213.40786,199.21662 C 211.67411,200.54287 209.96536,202.01787 208.30536,203.67912 M 280.9516,286.27411 C 271.19035,276.87537 257.86035,268.16412 254.54035,266.04537 C 259.42285,258.34287 259.2866,250.83037 257.76785,246.53037 C 257.5391,245.87912 257.1916,245.19037 256.75285,244.48537 C 259.5741,237.88162 259.8191,231.62912 257.4216,226.38037 C 256.5866,224.55287 255.4391,222.88037 254.04285,221.41162 C 256.21535,216.30162 256.1566,210.26662 253.80785,204.72412 C 253.6416,204.33162 253.4466,203.96037 253.2616,203.58037 C 256.2641,197.51162 260.5216,192.67912 265.07285,188.51162 C 290.3366,236.73787 282.86535,277.94162 280.9516,286.27411 M 282.89035,171.17912 C 280.1416,173.92787 276.8066,176.53412 273.28035,179.29412 C 265.8341,185.11787 257.45035,191.68787 252.16785,201.60537 C 249.66285,197.56662 246.01535,194.51037 241.7716,193.04162 C 238.8966,192.04662 235.91785,191.60912 232.90035,191.67787 C 243.6516,159.44038 269.9216,152.78038 276.4691,152.78038 C 279.8241,152.78038 283.8766,155.98038 285.50785,159.91538 C 286.4541,162.19787 287.37285,166.69787 282.89035,171.17912 M 285.5616,170.96912 C 289.23785,166.23537 288.2566,161.64662 287.24035,159.19788 C 285.3166,154.54788 280.58035,150.90538 276.4691,150.90538 C 269.5891,150.90538 241.83035,157.87538 230.87786,191.79912 C 225.61536,192.32162 220.26786,194.40787 215.14161,197.95412 C 214.00286,190.87287 208.96911,186.54287 201.95286,186.80162 C 192.65036,187.14412 182.61161,195.70162 182.61161,208.92787 C 182.61161,210.30662 182.66036,211.63037 182.74911,212.90037 C 174.29661,233.04287 172.39661,242.40412 175.47286,251.33412 C 171.51786,255.64037 171.51286,260.92537 172.04036,264.83662 C 169.42786,265.94412 167.52411,268.41787 166.65036,271.92662 C 165.47286,276.65037 166.17661,282.33912 168.27536,287.31661 L 167.55786,287.59786 C 165.10661,281.78412 163.44661,274.15287 161.98161,267.36287 C 160.37036,259.88412 159.09786,253.97787 157.12911,252.01162 C 155.46036,250.34287 152.04661,248.24537 148.29661,247.88912 C 155.80661,244.38412 161.57661,239.46912 167.01661,233.30662 C 174.82911,224.45787 180.33411,206.93787 179.26661,198.40912 C 177.63661,185.36287 173.49536,180.04162 166.53286,176.87037 C 159.16036,173.50912 148.86786,175.89662 135.91911,183.93787 C 143.87286,173.60662 155.32286,153.27413 155.32286,121.84288 C 155.32286,85.791631 138.53161,69.655382 121.88411,69.655382 C 96.394116,69.655382 84.537867,95.23288 74.079118,117.79913 C 65.844118,135.56288 58.735369,150.90538 46.88412,150.90538 C 40.29537,150.90538 37.20162,144.63663 35.395371,136.22413 C 35.390371,136.18663 35.380371,136.15538 35.370371,136.11913 C 34.350371,131.33163 33.740371,125.85913 33.139121,120.44913 C 31.664121,107.18413 30.270371,94.65538 22.301622,94.65538 C 21.005372,94.65538 19.765372,95.52413 18.617872,97.23913 C 13.646622,104.66663 10.019123,127.86913 11.845373,151.24038 C 0.55662343,106.54163 5.0453731,88.354131 11.220373,81.029131 C 15.664122,75.759132 21.681622,75.217882 25.946621,75.691632 C 26.254121,75.725382 26.556621,75.606632 26.760371,75.375382 C 37.88537,62.591633 50.612869,51.434134 64.835368,41.889135 C 64.896618,41.857885 64.947868,41.822885 65.001618,41.780385 C 87.167866,26.937886 112.98786,16.042887 142.27161,9.2816371 C 185.86411,-0.78461208 221.01536,2.0953877 227.62161,2.7753876 C 276.82035,7.8416372 305.1116,31.181635 311.20035,36.720385 C 264.74035,46.644134 246.2691,75.637882 246.08785,75.932882 C 245.9466,76.162882 245.90785,76.442882 245.98535,76.700382 C 246.0641,76.959132 246.2541,77.170382 246.4991,77.281632 C 296.43535,99.79163 313.07035,147.59288 318.5841,175.11412 C 307.0116,172.02662 291.08785,171.17787 285.5616,170.96912 z"
     style="fill:#000000;stroke:none;stroke-width:1;stroke-linejoin:miter;marker-start:none;marker-end:none;stroke-miterlimit:79.84031677" />
  <path
     d="M 135.73286,223.02787 C 146.83161,220.06787 153.42411,208.70662 155.32286,204.21537 C 159.45411,206.68662 161.69911,211.70287 161.58161,211.84287 C 162.11911,212.21412 162.46536,206.24287 154.67411,202.02412 C 146.42661,198.61787 142.62286,202.60912 143.08661,202.57412 C 143.26286,202.99912 149.42911,200.75537 154.05411,203.55912 C 154.06786,203.56537 154.07786,203.57412 154.09286,203.57912 C 151.47536,209.00912 144.62036,219.51537 134.13536,222.14037 C 124.16911,225.13162 115.14661,226.15787 115.23411,226.53162 C 115.24911,226.62537 125.03411,226.17037 135.73286,223.02787 z"
     style="fill:#000000;stroke:none;stroke-width:1;stroke-linejoin:miter;marker-start:none;marker-end:none;stroke-miterlimit:79.84031677" />
  <path
     d="M 117.62911,182.12787 C 123.03911,182.28912 127.95411,168.84662 128.60286,152.10538 C 129.25286,135.36163 125.39536,121.65788 119.98536,121.49538 C 114.57911,121.33413 109.66786,134.77913 109.01536,151.51913 C 108.36661,168.26412 112.22661,181.96537 117.62911,182.12787 M 112.06786,142.10663 C 112.33786,135.10288 114.37411,129.48038 116.62036,129.54788 C 118.86661,129.61538 120.46036,135.34538 120.19036,142.34788 C 119.92161,149.35038 117.88036,154.97163 115.63411,154.90413 C 113.39286,154.83663 111.79661,149.10538 112.06786,142.10663 z"
     style="fill:#000000;stroke:none;stroke-width:1;stroke-linejoin:miter;marker-start:none;marker-end:none;stroke-miterlimit:79.84031677" />
</svg>
