<?xml version="1.0" encoding="UTF-8" standalone="no"?>
<svg
   xmlns:dc="http://purl.org/dc/elements/1.1/"
   xmlns:cc="http://creativecommons.org/ns#"
   xmlns:rdf="http://www.w3.org/1999/02/22-rdf-syntax-ns#"
   xmlns:svg="http://www.w3.org/2000/svg"
   xmlns="http://www.w3.org/2000/svg"
   xmlns:sodipodi="http://sodipodi.sourceforge.net/DTD/sodipodi-0.dtd"
   xmlns:inkscape="http://www.inkscape.org/namespaces/inkscape"
   viewBox="0 0 793.7005 1096.0625"
   height="1096.0625"
   width="793.7005"
   xml:space="preserve"
   id="svg2"
   version="1.1"
   sodipodi:docname="spaceace.svg"
   inkscape:version="0.92.4 (5da689c313, 2019-01-14)"><sodipodi:namedview
     pagecolor="#ffffff"
     bordercolor="#666666"
     borderopacity="1"
     objecttolerance="10"
     gridtolerance="10"
     guidetolerance="10"
     inkscape:pageopacity="0"
     inkscape:pageshadow="2"
     inkscape:window-width="1366"
     inkscape:window-height="715"
     id="namedview106"
     showgrid="false"
     inkscape:zoom="0.86126475"
     inkscape:cx="390.9013"
     inkscape:cy="899.6328"
     inkscape:window-x="-8"
     inkscape:window-y="22"
     inkscape:window-maximized="1"
     inkscape:current-layer="svg2" /><metadata
     id="metadata8"><rdf:RDF><cc:Work
         rdf:about=""><dc:format>image/svg+xml</dc:format><dc:type
           rdf:resource="http://purl.org/dc/dcmitype/StillImage" /></cc:Work></rdf:RDF></metadata><defs
     id="defs6"><clipPath
       id="clipPath14"
       clipPathUnits="userSpaceOnUse"><path
         id="path12"
         d="M -1,9.95313 H 594.27539 V 832 H -1 Z" /></clipPath></defs><g
     clip-path="url(#clipPath14)"
     transform="matrix(3.2064659,0,0,-3.2064659,-579.81625,1922.311)"
     id="g10"><path
       id="path16"
       style="fill:#000000;fill-opacity:1;fill-rule:nonzero;stroke:none"
       d="m 423.6074,423.9453 c -0.4297,-3.5513 -0.7529,-6.7793 -2.4746,-7.8555 -3.5508,3.7666 -5.165,5.0577 -5.165,5.0577 3.7666,5.8105 7.8545,7.8549 9.3613,12.6972 0,6.2398 -2.4746,5.7022 -4.3037,15.9243 -0.5381,12.2652 4.0879,18.8291 3.2275,25.5005 -0.8603,5.2725 -3.7656,7.5323 -6.1328,8.7159 2.1514,1.5063 1.291,5.5952 -1.6142,4.0888 -0.8614,2.4751 -2.7989,3.0137 -3.7666,1.5069 -1.0752,4.3032 -7.7481,8.7148 -12.6973,8.4995 -4.9492,-0.2154 -6.8857,-3.5503 -7.7471,-5.0572 -0.8613,-1.5068 -3.0127,-5.7036 -3.0127,-8.7163 0,-1.8291 -1.3994,-3.1206 -1.3994,-3.1206 -0.7529,-0.9682 -1.5068,-5.0566 -1.7217,-6.8862 -0.2148,-1.8296 -1.0752,-3.4439 -1.5058,-4.0894 -0.4307,-0.6455 -3.5518,-3.0127 -3.5518,-3.0127 -1.0752,3.0127 -1.8291,4.1963 -1.8291,4.1963 3.6592,7.1021 6.4561,14.5269 6.7793,16.5713 1.1836,0 3.7666,3.6587 3.7666,3.6587 0,0 1.0762,0.5376 3.0127,4.1963 4.0889,3.0132 4.4121,4.0879 4.5195,7.4233 0.1075,3.3355 -2.2597,6.7788 -2.2597,6.7788 0.5381,3.9815 -0.4297,6.1338 -2.3672,8.501 -1.9375,2.3672 -3.2285,4.3042 -7.8555,2.69 -4.6269,-1.6143 -4.7344,-4.627 -5.918,-6.0259 -1.1835,-1.3989 -2.3671,-2.0444 -2.7978,-2.0444 -0.4307,0 -0.9678,-1.1836 0.4307,-2.0445 -0.3233,-1.0762 0.4296,-1.5068 2.1513,-2.1523 -3.5508,-4.3037 -9.2539,-11.0835 -9.792,-13.02 0.4307,-2.69 2.045,-4.9497 2.045,-4.9497 -0.6455,-1.2911 -0.8614,-1.7217 -0.8614,-1.7217 -2.4746,2.2597 -3.5508,1.937 -3.5508,1.937 -3.1201,2.9053 -4.8417,2.7978 -4.8417,2.7978 -3.1211,3.6582 -3.1221,5.0577 -12.2676,4.0889 -6.2383,0.8608 -7.4219,-0.5381 -7.4219,-0.5381 -3.4434,0.8609 -4.5195,0.2153 -4.5195,0.2153 -1.1836,5.7027 -2.4746,6.0264 -4.3037,8.6084 -1.8291,2.5821 -4.627,4.1968 -6.2413,5.4878 -1.6142,1.2911 -7.3164,4.8423 -8.8232,12.482 -1.0762,7.208 1.29,6.3467 1.0752,11.0815 2.583,0.5381 3.4434,3.6587 3.4434,3.6587 -0.9678,1.1836 -2.7969,3.228 -2.7969,3.228 1.6133,5.3804 -0.2158,4.7349 -1.3994,3.9815 -1.7217,1.5063 -17.001,17.5395 -17.001,17.5395 l -4.8428,0.3228 -7.6396,8.2856 c -3.0132,1.0757 -5.7032,-2.5825 -4.1968,-4.8423 1.5063,-2.2597 5.0576,-6.0258 5.0576,-6.0258 -1.7217,-6.0259 -1.2534,-4.9287 -0.6807,-5.6387 4.3003,-5.3306 8.5777,-9.8955 9.6763,-10.5552 -4.1582,-2.4092 -3.5127,-7.2514 0,-8.7959 -1.0376,-1.8989 -2.1142,-2.6523 -2.3291,-4.1587 -0.2148,-1.5063 0.9683,-3.0132 0.8609,-4.3042 -0.1075,-1.291 -1.7217,-1.937 -1.8291,-3.1206 -0.1075,-1.1836 1.291,-3.3359 1.1835,-4.0888 -0.1074,-0.753 -0.645,-1.2911 -0.4301,-2.1519 0.2148,-0.8608 4.0879,-5.3804 12.374,-7.1021 0.5381,-6.456 -1.8291,-10.0078 9.1465,-26.4711 5.0576,-1.6143 7.8564,-2.2598 8.1787,-2.2598 2.6894,-3.7661 7.208,-8.7163 10.2217,-10.5454 0.3232,-3.8736 -0.5362,-11.2984 8.5019,-23.3501 0.9678,-1.2915 0.5381,-2.4751 0.2149,-3.6587 -0.3233,-1.1836 -2.2598,-8.6084 -4.5196,-13.5581 -0.5381,-0.7534 -1.6142,-0.1074 -2.7978,-0.6455 -1.5059,-0.2154 -9.6836,-1.3994 -15.1719,-8.7163 -5.5957,1.1836 -6.3486,0.6455 -6.3486,0.6455 -4.0889,-4.4116 -16.4629,-16.7876 -20.3374,-23.0279 l 2.0444,-2.2597 c -2.9053,-2.9053 -12.6977,-13.3418 -18.293,-17.6465 -5.5952,-4.3047 -7.7475,-5.4873 -10.4375,-6.3486 -2.6899,-0.8614 -12.2671,-4.1973 -18.4004,-8.1787 -6.1333,-3.9815 -18.831,-16.6788 -23.0273,-22.0586 -4.1963,-5.3799 -6.9936,-12.5899 -12.4814,-18.0772 -7.1021,-2.1514 -27.439,-6.456 -34.003,-20.9824 2.5825,-4.1973 11.9444,-10.3311 23.5655,-10.4385 11.6211,-0.1074 16.7866,6.2412 27.8696,7.3174 1.5063,0.2148 1.9365,2.2598 1.9365,2.2598 1.5068,3.9814 3.6587,9.038 3.874,10.0068 3.4434,1.9375 17.2168,12.9131 23.5655,21.0908 6.3486,8.1778 13.666,17.2168 17.5395,21.7363 10.5449,11.5137 14.6328,11.6211 27.9766,17.4317 14.5273,8.8223 17.2168,14.8476 22.5976,20.2285 5.3809,5.3809 8.8243,4.3047 8.8243,4.3047 -0.5381,-2.2598 -1.0752,-3.2295 -2.9053,-10.0078 -1.8301,-6.7783 -2.9063,-16.1406 -3.5518,-27.7617 -0.6455,-11.6211 -5.165,-17.9688 -7.5322,-22.1661 -2.3672,-4.1972 -4.5195,-5.5966 -6.8867,-23.0283 -2.3672,-17.4316 -4.4112,-33.5693 -4.4112,-37.4433 0.1075,-1.7217 1.8291,-2.6905 1.8291,-2.6905 10.1143,-5.917 14.2032,-4.4111 22.8116,-7.9619 8.6084,-3.5508 6.9941,-5.3799 16.1406,-8.3926 5.8105,-1.6142 15.8184,-1.5068 16.0332,1.9366 0,3.4433 -5.5947,8.2861 -15.6025,16.5713 2.4746,7.1015 3.1201,9.4687 3.1201,9.4687 3.2285,-2.4746 4.1972,-3.3359 5.5957,-3.5508 1.3984,-0.2148 1.291,1.0762 1.291,1.0762 -2.4746,3.2285 -3.3369,6.6709 -3.2285,8.7158 0.1084,2.0449 -2.0449,4.3047 -6.3487,4.3047 -1.0761,7.0996 -1.0752,11.3008 4.1973,24.749 5.2725,13.4483 3.4434,19.7969 3.4434,19.7969 8.6084,-4.3047 24.8554,-10.1152 34.4326,-11.8369 9.5771,-1.7217 11.1914,-3.9805 12.2676,-4.8418 1.0761,-0.8613 2.3681,-0.8613 2.2597,0.6455 -0.1084,1.5068 -3.9814,10.6523 -14.7422,15.0645 5.5957,3.874 5.918,4.0878 5.7032,4.7343 -0.2149,0.6465 -1.5059,1.8311 -4.7344,0.6465 -3.2285,-1.1846 -3.4443,-0.3223 -6.0264,-1.7217 -2.582,-1.3994 -3.4433,-2.4746 -3.9814,-3.3359 -0.5381,-0.8613 -1.3985,-0.5381 -4.7344,2.4746 -3.2266,3.6572 -8.7158,12.0508 -14.956,16.2471 -6.2403,4.1963 -10.0069,5.2724 -12.2667,5.3799 4.3047,1.7216 12.0518,6.8877 15.3877,11.9443 3.336,5.0566 5.917,10.0078 6.1329,10.8682 5.8115,1.0752 9.039,2.6894 11.1914,4.4111 0,4.7344 0.1074,12.9092 -4.627,19.3662 2.1524,-0.6455 6.1338,-0.7529 6.1338,-0.7529 2.0439,-4.1963 8.2842,-12.3741 17.7539,-12.3741 9.4697,0 12.4815,4.5196 13.7734,6.3487 1.9375,-0.1084 5.7032,2.6904 6.1338,6.3486 0.4307,3.6582 -0.3232,7.9619 -4.4121,12.2666 m -80.792,-134.1435 c -2.9502,19.2627 1.293,36.3759 2.9502,42.3447 1.042,-13.0156 0.1739,-31.7578 -0.1728,-34.708 -0.3467,-2.9502 -0.5205,-4.6856 1.2148,-13.1895 -3.2969,2.7764 -3.9922,5.5528 -3.9922,5.5528 z"
       inkscape:connector-curvature="0" /><path
       id="path18"
       style="fill:#ffcb05;fill-opacity:1;fill-rule:nonzero;stroke:none"
       d="m 387.0166,491.377 c -0.3389,-1.0142 -0.5742,-1.9776 -0.5742,-2.3599 0,-0.3823 1.7851,1.5308 2.2959,2.041 0.5107,0.5103 -0.9561,-0.064 -1.7217,0.3189 z"
       inkscape:connector-curvature="0" /><path
       id="path20"
       style="fill:#ffcb05;fill-opacity:1;fill-rule:nonzero;stroke:none"
       d="m 393.1387,502.5376 c -0.7891,-1.0522 -3.125,-3.9541 -3.5713,-5.2295 -0.3184,-0.5102 0.0644,-0.3823 0.5742,-0.1274 0.5098,0.2548 2.4229,0.4463 2.7422,-0.1914 0.3193,-0.6377 0.1279,-0.1914 2.2959,1.7856 0.5742,0.4463 -1.2119,2.7422 -1.4033,3.3799 -0.1914,0.6377 -0.4463,0.6382 -0.6377,0.3828 z"
       inkscape:connector-curvature="0" /><path
       id="path22"
       style="fill:#ffcb05;fill-opacity:1;fill-rule:nonzero;stroke:none"
       d="m 388.0371,520.6494 c -9.375,0 -5.7402,-8.1631 -11.2881,-8.1631 -0.6377,0 -0.001,-0.5737 0.7012,-0.6377 0.7021,-0.0639 4.8467,-0.1914 5.4209,-0.1914 0.5742,0 0.4473,-0.7651 -0.127,-0.7651 -0.5742,0 -4.2734,-5e-4 -5.3574,-0.2554 -0.7012,-0.1274 0.0645,-0.5097 0.3828,-0.5097 1.084,-0.128 1.9131,-0.8291 3.0606,-0.8931 3.9541,0 4.6553,1.4028 8.3545,1.4028 2.7422,0.064 3.1894,-1.5303 3.1894,-1.5303 0.3819,-0.6376 -0.3828,-0.5102 -0.8291,-0.1914 -0.4463,0.3189 -0.957,0.7652 -2.041,0.7652 -1.084,0 -1.8486,-0.3194 -0.8926,-0.5103 0.9561,-0.1909 5.4834,-1.7221 6.4405,-6.0586 0.8291,-1.6582 1.5312,-2.9966 1.5947,-0.1909 -0.5098,4.4639 -3.8262,7.7808 -4.4004,10.9692 -0.0635,0.3824 0.4453,0.6382 0.5098,0 0.6386,-1.7221 1.0214,-2.2963 1.3398,-2.8701 0.3184,-0.5737 0.5098,-0.2549 0.5098,-0.2549 -0.6377,4.273 -3.8907,8.482 -4.9746,9.4385 -0.5098,0.3189 -1.5938,0.4463 -1.5938,0.4463 z"
       inkscape:connector-curvature="0" /><path
       id="path24"
       style="fill:#fdaf17;fill-opacity:1;fill-rule:nonzero;stroke:none"
       d="m 399.3135,497.0654 c -3.8653,0 -7.7295,-5.0532 -9.1172,-11.396 0.0996,-2.2793 0.793,-0.3965 0.793,-0.3965 0.5947,1.3873 1.288,1.7837 1.288,1.7837 -0.0986,1.4864 0.5938,3.4678 0.4952,0.8916 0.4511,-0.0835 0.8144,0.3702 0.8144,0.3702 0.0459,1.8159 0.4551,2.769 0.9082,2.9052 0.4531,0.1363 0.5449,-0.1821 0.2725,-0.5449 -0.2725,-0.3628 -0.499,-0.9985 -0.4541,-1.77 1.0888,-0.0454 1.498,1.9062 2.2695,2.0879 0.3174,0 0.4541,-0.1358 0.5899,-0.5445 0.7714,-0.0908 1.9062,1.2251 4.7207,1.2706 2.8144,0.0454 2.6318,-0.4991 2.7685,-0.7261 0.1367,-0.2271 -0.0459,-0.4995 -0.3633,-0.4087 -0.3174,0.0908 -0.6347,0.3633 -2.2236,0.3179 -1.5889,-0.0454 -4.8115,-1.271 -6.4004,-2.1787 0,0 -0.3164,-0.7256 0.3184,-0.4991 0.6347,0.2266 2.2226,0.7261 3.5849,0.7715 1.3623,0.0454 2.7246,-0.1367 3.042,-0.4995 0.3174,-0.3628 0.8613,-0.4985 -0.2275,-0.3628 -1.0889,0.1357 -5.9463,-0.3174 -6.9903,-1.1348 -0.1357,-0.7719 -0.0449,-1.4072 -0.0449,-1.4072 2.1328,0.4536 6.4903,0.8623 8.0791,-0.2724 1.5889,-1.1348 0.2266,-0.9527 -0.0908,-0.7261 -0.6807,0.4082 -1.9062,0.8623 -3.7217,0.8169 1.044,-0.8169 2.8145,-2.1787 4.2666,-3.3589 1.4522,-1.1802 3.4043,-2.2695 4.9024,-2.3604 1.498,-0.0908 3.0449,0.6348 4.0429,0.5445 0.9981,-0.0904 0.5,0.999 0.545,2.1338 0.1357,1.7246 -1.4082,3.2685 -1.6348,5.81 -0.2266,2.5415 -3.3584,8.5332 -12.4326,8.8828 z"
       inkscape:connector-curvature="0" /><path
       id="path26"
       style="fill:#fdaf17;fill-opacity:1;fill-rule:nonzero;stroke:none"
       d="m 412.8359,479.105 c -1.498,0 -4.9482,-1.4072 -5.2656,-1.6343 -0.3174,-0.227 0.1826,-0.1362 1.1807,0.1816 0.998,0.3179 0.499,-4e-4 -0.0459,-0.3178 -0.5449,-0.3174 -1.3613,-0.8169 -1.8155,-0.8623 -0.4541,-0.0454 -0.1816,-0.3633 0.1817,-0.3633 0.3633,0 1.6328,0.3633 2.042,0.5903 0.4092,0.2271 0.4551,-0.3179 0.1367,-0.5449 -0.3184,-0.2271 -1.5439,-0.6807 -2.7236,-0.6353 -0.2266,-0.5449 0.999,-0.999 2.6328,-0.4995 0.6806,0.1363 -0.0908,-0.6352 -0.0908,-0.6352 -0.5899,-0.3633 -2.8145,-0.3633 -2.8145,-0.3633 -0.8164,-1.3164 -2.9043,-3.4956 -3.9941,-3.7676 -1.0899,-0.272 -0.8623,-0.6806 -0.1817,-0.5444 0.6807,0.1362 3.1319,1.4975 3.6768,1.9062 0.5449,0.4087 1.499,0.3638 0.7265,-0.499 -0.7724,-0.8628 -2.996,-2.6328 -5.7197,-1.9521 -0.7265,0.2724 -0.999,0.2275 -0.3633,-0.3174 0.6358,-0.5449 2.9063,-0.9077 3.8135,-0.9531 0.9072,-0.0455 2.1319,0.7714 2.541,0.7714 0.4092,0 0.2735,-0.3632 0.5,-0.3632 0.2266,0 6.3994,2.8593 6.6719,7.7163 0.0459,2.9052 -0.3174,3.0869 -1.0889,3.0869 z"
       inkscape:connector-curvature="0" /><path
       id="path28"
       style="fill:#fdaf17;fill-opacity:1;fill-rule:nonzero;stroke:none"
       d="m 416.9678,483.2813 c 0,-2.7691 -1.0899,-5.9913 -1.9522,-6.8086 -0.4541,-1.4073 -0.5449,-2.2696 0.1817,-1.2256 0.7265,1.0439 1.3164,2.4052 1.498,2.9956 0.1817,0.5903 0.5908,0.5898 0.5449,0 -0.0459,-0.5899 -0.6357,-3.5406 -2.3154,-4.7661 -1.3613,-0.7715 -1.8154,-2.5874 -4.5391,-4.4483 -2.7236,-1.8608 -5.3105,-2.6777 -6.2636,-3.8125 -0.1817,-1.1347 -1.9063,-2.9053 -4.4483,-1.498 -1.3164,-0.6807 -1.3164,-1.4527 -1.3164,-1.4527 2.4512,-0.499 9.3047,-3.7212 7.9434,-10.3032 0.5898,-0.0903 4.7197,4.086 7.2168,6.9453 2.497,2.8594 6.4912,9.169 6.9453,9.9405 0.4541,0.7714 1.3613,0.8627 0.499,-0.7261 -0.8623,-1.5889 -3.9023,-7.0357 -6.9443,-10.44 -3.042,-3.4043 -7.9434,-7.4892 -8.3067,-7.7617 -0.0459,-0.772 -0.5,-1.7705 -0.5,-1.7705 0.6817,0 5.9004,3.586 7.8526,5.9009 1.9521,2.3149 5.8554,9.1235 6.2187,10.0767 0.3633,0.9531 1.2725,1.8608 0.5908,-0.0909 -0.6816,-1.9516 -3.7685,-9.123 -7.2177,-11.9375 -3.2227,-3.2231 -7.7158,-5.3105 -8.2608,-5.6738 -2.1338,-3.5859 -6.622,-7.8071 -14.9746,-7.8979 -2.6787,-1.543 -10.3945,-6.5367 -10.3945,-13.4356 0,-5.9009 2.8584,-12.4819 9.8037,-12.4819 6.9453,0 9.2148,4.7207 9.2148,7.7617 0,3.041 -2.4062,6.4907 -5.9013,6.7178 -0.499,0 -0.0459,-0.3174 0.2724,-0.5899 0.3184,-0.2724 0.9991,-1.0898 0.9991,-3.0415 0,-1.9516 -1.045,-4.9018 -5.3565,-4.9018 -2.3144,-0.0459 -2.8594,1.2705 -2.8594,1.2705 -0.3173,0.8628 0.2735,0.499 0.7266,0.2724 0.4531,-0.2265 0.0908,-0.3173 1.044,-0.3173 0.9531,0 4.8564,0.499 4.8564,4.0395 0,2.9048 -1.2266,2.814 -2.043,2.8594 -0.8164,0.0454 -1.4072,0.6357 -0.2265,0.8174 1.1806,0.1816 3.9043,2.0878 8.4882,-2.4966 0.8174,-0.0454 1.5879,0.2265 2.1329,0.4536 0.5449,0.227 1.3613,1.3618 3.5859,1.3618 2.2246,0 4.7715,-0.3179 6.3594,-2.1333 1.7715,3.2676 8.6709,6.2632 9.7148,9.1231 1.044,2.3603 0.7256,2.2241 0.7256,3.268 0,1.044 -1.0889,8.125 -1.0889,12.3008 0,1.2256 0.545,0.9985 0.545,-0.1362 0,-1.1348 1.6796,-8.9873 1.7246,-12.21 0.0449,-3.2226 -0.8174,-5.1284 -6.8994,-9.3496 -3.087,-2.1333 -3.7676,-3.813 -3.7676,-3.813 0.3174,-0.2724 0.5898,-0.9531 0.5898,-0.9531 1.1348,0 2.8135,-0.9077 3.041,-1.1348 0.2276,-0.227 0.4551,-0.0449 0.7725,0.3179 2.4531,3.5854 6.0391,6.7627 7.3555,8.9414 1.3164,2.1787 1.5888,2.4512 1.5888,3.813 0.0908,2.4057 -3.7666,10.4399 -3.8125,12.4824 0,1.0425 -0.4092,3.7666 -0.4092,6.3535 0,7.8975 3.2686,15.3413 3.2686,19.8804 0,4.5391 -2.9053,9.123 -6.5029,9.7144 z"
       inkscape:connector-curvature="0" /><path
       id="path30"
       style="fill:#fdaf17;fill-opacity:1;fill-rule:nonzero;stroke:none"
       d="m 406.3125,479.5 c 0.5625,-0.625 0.4375,-1 0.5,-1.25 0.0625,-0.25 0.3125,0.4375 0.8125,0.5625 0.5,0.125 0.4375,0.4375 0.0625,0.4375 -0.375,0 -1.375,0.25 -1.375,0.25 z"
       inkscape:connector-curvature="0" /><path
       id="path32"
       style="fill:#fdaf17;fill-opacity:1;fill-rule:nonzero;stroke:none"
       d="m 399.5625,421.125 c 0.1436,-1.8701 -0.4375,-3.375 -0.875,-3.9375 0.9375,-0.4375 4.5,0.625 4.8125,3.3125 -0.0625,1.75 0.8125,0.9375 0.8125,0.9375 0.1875,1.1875 -2.375,2.875 -3.875,2.875 -1.5,0 -1.75,-0.625 -1.75,-0.625 0,0 0.9375,-0.875 0.875,-2.5625 z"
       inkscape:connector-curvature="0" /><path
       id="path34"
       style="fill:#fdaf17;fill-opacity:1;fill-rule:nonzero;stroke:none"
       d="m 397.8125,415.8125 c -0.7187,-2.0117 -4,-3.875 -5.875,-4.3125 -0.1875,-2.125 5.875,-11.375 16.5625,-11.375 4.25,0 7.0625,0.8125 9.3125,2.5625 2.25,1.75 6.75,6.6875 6.8125,10.8125 -0.0625,2.8125 0.875,0.75 0.875,0.75 0.375,-0.6875 -0.875,-6.0625 -2.625,-7.8125 -0.875,-0.9375 0.4375,-0.1875 0.4375,-0.1875 2.3125,1.875 4,4.0625 4,7.4375 0,3.375 -1.9375,6.9375 -3.125,8.25 -0.125,-1.9375 -0.75,-5.8125 -2.75,-6.75 0.5,-0.625 0.625,-2.875 0.375,-4.1875 -0.25,-1.3125 -1.375,-1.375 -1.4375,0.125 -0.0625,1.5 0.375,2.4375 -0.125,3.375 -0.5,0.9375 -3.625,5.6875 -7.5625,6.8125 1.5625,-6.125 -0.5,-10.125 -5.3125,-11.8125 -1.5,-0.375 -3,-0.125 -3.4375,0.0625 -0.4375,0.1875 -0.5625,0.8125 0.1875,0.75 2.4375,0 7.4375,0.9375 7.4375,6.4375 0,5.5 -3.0625,9 -7.125,9 -4.0625,0 -2.5,-0.5 -2.125,-0.5625 2.1875,-0.8125 3.875,-2 3.875,-4.6875 0,-2.6875 -1.1875,-7.75 -6.875,-8.1875 -2.4375,-0.3125 -1.8125,0.75 -0.375,0.9375 2.625,0.375 5.5,2.6875 5.75,6.0625 0.1875,0.875 -0.3125,0.1875 -0.3125,0.1875 -0.5,-1.3125 -2.375,-4 -6.5625,-3.6875 z"
       inkscape:connector-curvature="0" /><path
       id="path36"
       style="fill:#fdaf17;fill-opacity:1;fill-rule:nonzero;stroke:none"
       d="m 393.3311,484.8813 c 0,0.3755 -0.1407,0.7979 -0.5635,0.4693 -0.4229,-0.3286 -0.6572,-0.7979 -0.6572,-0.7979 0.1406,-0.0468 1.2207,0.3286 1.2207,0.3286 z"
       inkscape:connector-curvature="0" /><path
       id="path38"
       style="fill:#fdaf17;fill-opacity:1;fill-rule:nonzero;stroke:none"
       d="m 394.7861,488.1675 c -0.2812,0 -0.3291,-0.376 -0.5166,-0.4229 -0.1875,-0.0468 0.1885,-0.2812 0.4229,-0.1875 0.2344,0.0938 0.2812,0.6104 0.0937,0.6104 z"
       inkscape:connector-curvature="0" /><path
       id="path40"
       style="fill:#fdaf17;fill-opacity:1;fill-rule:nonzero;stroke:none"
       d="m 394.7393,486.7119 -0.3291,0.0474 -0.0469,-0.7515 0.4228,-0.0469 z"
       inkscape:connector-curvature="0" /><path
       id="path42"
       style="fill:#fdaf17;fill-opacity:1;fill-rule:nonzero;stroke:none"
       d="m 393.6592,486.2896 -0.0938,-0.4224 0.4229,-0.5635 h 0.2344 l 0.0468,0.3755 -0.375,0.1411 z"
       inkscape:connector-curvature="0" /><path
       id="path44"
       style="fill:#f55038;fill-opacity:1;fill-rule:nonzero;stroke:none"
       d="m 389.5537,474.2612 c 0,-0.3979 0.1992,-1.1948 1.3545,-1.1948 1.1553,0 1.2744,0.478 0.3584,0.6773 -0.916,0.1992 -0.9551,0.4375 -1.0352,0.8759 -0.08,0.4385 -0.6777,0.3184 -0.6777,-0.3584 z"
       inkscape:connector-curvature="0" /><path
       id="path46"
       style="fill:#f55038;fill-opacity:1;fill-rule:nonzero;stroke:none"
       d="m 387.125,471.1943 c 0,-0.6767 0.7959,-2.0708 2.4688,-2.0708 1.2353,-0.04 0.1992,0.4375 -0.1192,0.5972 -0.4385,0.478 -0.8769,0.7964 -0.9961,1.4736 0,1.1153 -1.3535,0.3589 -1.3535,0 z"
       inkscape:connector-curvature="0" /><path
       id="path48"
       style="fill:#f55038;fill-opacity:1;fill-rule:nonzero;stroke:none"
       d="m 391.625,470.5972 c 0,0.6372 -0.4775,0.518 -1.0752,0.5576 -0.5977,0.0395 -1.3935,-0.0801 -0.5176,-0.6773 0.876,-0.5971 1.5928,-0.5576 1.5928,0.1197 z"
       inkscape:connector-curvature="0" /><path
       id="path50"
       style="fill:#f55038;fill-opacity:1;fill-rule:nonzero;stroke:none"
       d="m 413.5283,488.3594 c 0,-1.2198 0.4971,-3.1114 0.8457,-3.6094 0.1992,-0.2739 1.8916,-0.1992 2.5391,-0.2241 0.6474,-0.0249 1.4697,0.5727 1.5439,1.5185 0.0743,0.9458 -0.3232,1.2945 -0.8965,1.2945 -0.7968,0.0249 -1.3437,-0.8213 -1.9912,-0.8462 -0.0752,0.622 0.1739,1.6177 0.0245,1.9912 -0.1241,0.5976 -2.0655,1.8423 -2.0655,-0.1245 z"
       inkscape:connector-curvature="0" /><path
       id="path52"
       style="fill:#a6cbde;fill-opacity:1;fill-rule:nonzero;stroke:none"
       d="m 400.4316,345.377 c -2.9228,-0.752 -8.4336,-1.8379 -9.0185,-2.0879 -0.585,-0.25 -1.168,-0.418 -1.336,-0.835 -0.1679,-0.417 -1.0019,-2.0869 -1.4199,-2.6719 -0.4179,-0.5849 -1.0859,-0.5849 -2.0879,-0.084 -7.3486,4.2588 -10.9394,13.6123 -15.8662,17.3702 -3.5078,-6.0967 -8.4355,-8.8526 -15.1992,-9.0196 0.418,-0.6679 5.9287,-4.0908 8.4346,-5.3437 3.0898,-1.5039 12.6933,-6.5137 29.8965,-10.6895 6.2627,-1.5029 6.1796,-1.5039 7.5156,-1.7539 1.3359,-0.25 4.1748,-0.5849 7.2646,-3.0898 1.9209,-1.6699 1.7539,-0.668 1.7539,-0.668 -1.4199,3.0899 -3.8418,9.6875 -15.5322,13.9463 -0.9189,-0.167 -1.5859,0.583 -0.334,1.2519 1.252,0.669 6.0957,3.4239 6.0957,3.4239 z"
       inkscape:connector-curvature="0" /><path
       id="path54"
       style="fill:#a6cbde;fill-opacity:1;fill-rule:nonzero;stroke:none"
       d="m 346.0703,335.2764 c 0,-1.002 1.502,-4.0918 1.252,-15.6993 0.084,-11.7744 -0.417,-14.5312 -0.918,-23.6328 0.167,-5.9257 1.5859,-11.5205 1.6699,-12.1054 0,-1.169 5.3447,-5.0938 5.3447,-5.0938 2.4219,3.8408 3.5909,12.1924 5.0108,14.3633 1.0849,1.6699 1.6689,1.002 0.584,-1.4199 -0.501,-1.252 -0.835,-3.5069 -0.835,-3.5069 1.169,-0.9189 4.4258,-3.5908 4.4258,-3.5908 0.585,-0.501 1.1699,-0.501 0.418,0.501 -0.752,1.002 -2.5049,4.5918 -2.4219,6.7637 0.083,2.1718 -0.417,4.2588 -7.0147,4.2588 -1.5869,11.9394 4.1748,23.2119 4.1748,23.9638 0,0.752 -2.9228,8.6846 -5.5947,11.4405 -2.6719,2.7558 -5.3447,3.7578 -6.0957,3.7578 z"
       inkscape:connector-curvature="0" /><path
       id="path56"
       style="fill:#a6cbde;fill-opacity:1;fill-rule:nonzero;stroke:none"
       d="m 356.5996,433.958 c -0.6357,-1.6592 -1.3164,-7.0244 -1.2246,-9.2705 2.915,-2.0947 3.1377,-2.9644 3.1377,-2.9644 2.1855,1.7911 4.4629,4.1592 4.4629,4.1592 -0.9717,3.0362 -2.8233,6.1323 -6.376,8.0757 z"
       inkscape:connector-curvature="0" /><path
       id="path58"
       style="fill:#a6cbde;fill-opacity:1;fill-rule:nonzero;stroke:none"
       d="m 366.4375,422.4375 c -1.25,-3.25 -3.5625,-8.625 -5.125,-21.625 0,-0.3125 0.1875,0 0.5,0.1875 1,0.9375 9.25,6.6875 11.6875,6.8125 1.75,0.1875 0.4375,-0.5 0.0625,-0.6875 -3.1875,-1.625 -8.3125,-4.5 -10.875,-6.875 -2.5625,-2.375 -1.3125,-1.4375 -2.0625,-2.125 -0.75,-0.6875 -1.1875,-1.125 -1.3125,-1.375 -0.125,-0.25 -0.125,-0.25 -0.125,-0.25 6.4375,0 12.375,-6.875 18.5625,-6.875 4.625,0 9.9375,3.5625 9.9375,3.5625 0.0625,7.8125 -0.5,11.375 -2.1875,14.125 -1.6875,2.75 -5.5,7.5625 -6.625,11.8125 -2.375,-0.5 -2.9375,-0.375 -3.8125,-0.375 -0.875,0 -5.875,0.3125 -8.0625,3.75 -0.375,0.625 -0.5625,-0.0625 -0.5625,-0.0625 z"
       inkscape:connector-curvature="0" /><path
       id="path60"
       style="fill:#a6cbde;fill-opacity:1;fill-rule:nonzero;stroke:none"
       d="m 374.2461,456.2754 c -0.5498,0 -3.6543,-1.3218 -4.8984,-3.0327 0.8554,-1.711 1.0888,-2.7993 1.0888,-2.7993 2.2549,0.7773 4.4326,1.3994 5.21,1.3217 0.2334,1.0889 -0.8555,3.0328 -1.4004,4.5103 z"
       inkscape:connector-curvature="0" /><path
       id="path62"
       style="fill:#a6cbde;fill-opacity:1;fill-rule:nonzero;stroke:none"
       d="m 380.623,440.5674 c -2.707,-0.9004 -8.3984,-2.4883 -8.7871,-2.4883 -0.3886,0 0.9336,-1.0884 1.4776,-1.3218 0.5439,-0.2334 1.789,-0.9331 2.9551,-1.3999 1.166,-0.4668 1.7099,-1.5556 0.0771,-1.0888 -1.6328,0.4668 -4.8213,2.1777 -5.21,2.7998 -0.0771,-1.5552 -0.8554,-3.0332 -0.8554,-3.8106 0,-0.7773 2.334,-3.9663 8.3213,-4.1992 1.788,4.977 3.9648,5.6768 8.3974,9.5649 -2.6435,0 -4.8984,1.0884 -6.376,1.9439 z"
       inkscape:connector-curvature="0" /><path
       id="path64"
       style="fill:#a6cbde;fill-opacity:1;fill-rule:nonzero;stroke:none"
       d="m 414.875,483.625 c 0.25,-3.0625 -0.5,-3.5 -0.5625,-4.25 0,-0.6875 0.25,-0.75 0.375,-1.125 0.125,-0.375 0.375,-0.6875 0.5625,0.25 0.1875,0.9375 0.875,2.375 0.8125,5 -0.875,0 -1.1875,0.125 -1.1875,0.125 z"
       inkscape:connector-curvature="0" /><path
       id="path66"
       style="fill:#a6cbde;fill-opacity:1;fill-rule:nonzero;stroke:none"
       d="m 403.3125,466.75 c -2,-0.3125 -3.375,0.5 -3.75,0.5625 -0.375,0.0625 -0.3125,-0.625 -0.125,-1.125 0.1875,-0.5 1.0625,-1.8125 2.375,-1.8125 1.3125,0 2.0625,1.625 1.5,2.375 z"
       inkscape:connector-curvature="0" /><path
       id="path68"
       style="fill:#a6cbde;fill-opacity:1;fill-rule:nonzero;stroke:none"
       d="m 400.8594,477.5469 c -1.4688,0.0156 -1.2188,-0.5781 -0.6563,-0.5156 0.5625,0.0625 0.75,0.25 1.0157,0.25 0.2656,0 -0.0625,0.3125 -0.3282,0.3125"
       inkscape:connector-curvature="0" /><path
       id="path70"
       style="fill:#a6cbde;fill-opacity:1;fill-rule:nonzero;stroke:none"
       d="m 394.375,484.25 c 0.3125,0 0.4063,0.2188 0.0625,0.5313 -0.3125,-0.1563 -0.4687,-0.5313 -0.0625,-0.5313 z"
       inkscape:connector-curvature="0" /><path
       id="path72"
       style="fill:#a6cbde;fill-opacity:1;fill-rule:nonzero;stroke:none"
       d="m 385.9063,503.7188 c -0.3438,0 -0.6563,-0.2188 -0.375,-0.25 0.5,-0.0625 0.375,0.25 0.375,0.25 z"
       inkscape:connector-curvature="0" /><path
       id="path74"
       style="fill:#a6cbde;fill-opacity:1;fill-rule:nonzero;stroke:none"
       d="m 311.5146,551.3462 c -0.3554,0 -3.5156,-6.1934 -3.5156,-6.3545 0,-0.1611 2.7403,-3.3867 3.0635,-3.3867 0.3232,0 3.4844,6.1933 3.4844,6.4189 0,0.2256 -2.8389,3.3223 -3.0323,3.3223 z"
       inkscape:connector-curvature="0" /><path
       id="path76"
       style="fill:#a6cbde;fill-opacity:1;fill-rule:nonzero;stroke:none"
       d="m 319.5,545.5625 c -0.3125,0.2813 -3.7187,-6.4687 -3.7187,-6.8125 0,-0.3437 0.4375,-0.375 0.5625,-0.3437 0.125,0.0312 3.3125,6.4687 3.4062,6.7812 0.0938,0.3125 0.125,0.4063 -0.25,0.375 z"
       inkscape:connector-curvature="0" /><path
       id="path78"
       style="fill:#a6cbde;fill-opacity:1;fill-rule:nonzero;stroke:none"
       d="m 298.375,547.3125 c 0.6279,-0.6279 1.375,-1.3437 1.5313,-1.6875 1,-0.0312 8.2187,-2.9062 8.4687,-3.0312 0.25,-0.125 -1.5312,2.2812 -1.8437,2.5 -0.3125,0.2187 -7.8125,2.3125 -8.1563,2.2187 z"
       inkscape:connector-curvature="0" /><path
       id="path80"
       style="fill:#a6cbde;fill-opacity:1;fill-rule:nonzero;stroke:none"
       d="m 293.25,565.6875 c -0.2812,-0.5937 -2.1875,-2.5625 -2.9062,-2.75 -0.3438,-0.0937 -0.0938,-0.8125 0.7187,-0.875 0.8125,-0.0625 2.9688,1.0313 2.9688,2.5625 0.125,0.875 -0.7813,1.0625 -0.7813,1.0625 z"
       inkscape:connector-curvature="0" /><path
       id="path82"
       style="fill:#414143;fill-opacity:1;fill-rule:nonzero;stroke:none"
       d="m 297.5,554.9063 c -0.5894,0.1176 -6.125,0.875 -6.125,0.875 0.4063,-0.9063 5.4688,-6.5313 5.4688,-6.5313 0.9687,-0.3125 7.875,-2.5625 7.875,-2.5625 -0.4063,0.5938 -6.8438,7.5 -7.2188,8.2188 z"
       inkscape:connector-curvature="0" /><path
       id="path84"
       style="fill:#414143;fill-opacity:1;fill-rule:nonzero;stroke:none"
       d="m 295.0386,563.4395 c -0.7969,-1.1153 -1.792,-2.0708 -2.9473,-2.1905 0.1191,-0.518 0.9951,-1.394 1.792,-1.394 0.7969,0 1.8726,0.9165 2.3901,2.4297 -0.518,0.6372 -1.2348,1.1548 -1.2348,1.1548 z"
       inkscape:connector-curvature="0" /><path
       id="path86"
       style="fill:#414143;fill-opacity:1;fill-rule:nonzero;stroke:none"
       d="m 297.9063,562.9063 c -0.5313,-1.3438 -1.5625,-4.25 -3.9375,-4.1875 -2.375,0.0625 -2.875,1.125 -2.875,1.125 l -0.2188,0.0312 -0.25,-2.1562 6.625,-1.2813 2.7188,5.9688 z"
       inkscape:connector-curvature="0" /><path
       id="path88"
       style="fill:#414143;fill-opacity:1;fill-rule:nonzero;stroke:none"
       d="m 301.1875,562.375 c 0,0 -2.625,-6.6562 -2.8125,-6.9062 0.875,-0.7188 5.9688,-6.6563 8.875,-9.5313 0.5625,0.9375 3.2813,5.8438 3.4375,6.2188 -0.6875,1.2187 -9.5,10.2187 -9.5,10.2187 z"
       inkscape:connector-curvature="0" /><path
       id="path90"
       style="fill:#414143;fill-opacity:1;fill-rule:nonzero;stroke:none"
       d="m 315.375,546.9688 c -0.5937,-1.3125 -3.1875,-5.9375 -3.3125,-6.2813 0.5313,-0.4375 2.7188,-1.3125 2.7188,-1.3125 0.5,0.9063 3.0312,5.5313 3.0312,5.5313 -0.7187,0.6875 -2.4375,2.0625 -2.4375,2.0625 z"
       inkscape:connector-curvature="0" /><path
       id="path92"
       style="fill:#414143;fill-opacity:1;fill-rule:nonzero;stroke:none"
       d="m 319.0625,541.0625 c -0.1562,-0.5937 -1.4687,-2.9062 -1.4687,-2.9062 0.3125,-0.3438 1.875,-1.375 1.875,-1.375 0.5,0.5312 1.2812,1.5312 1.4375,2.5 -0.6875,0.8125 -1.8438,1.7812 -1.8438,1.7812 z"
       inkscape:connector-curvature="0" /><path
       id="path94"
       style="fill:#414143;fill-opacity:1;fill-rule:nonzero;stroke:none"
       d="m 289.6616,569.3345 c -0.3984,-0.6773 -1.1157,-1.9522 -2.9077,-2.1909 0.3189,-0.7168 1.832,-2.3497 1.832,-2.3497 0,0 1.1949,-0.2392 1.9517,0.0396 0.6377,0.478 1.4741,1.5532 1.4741,1.5532 -0.7568,1.1953 -2.3501,2.9478 -2.3501,2.9478 z"
       inkscape:connector-curvature="0" /><path
       id="path96"
       style="fill:#414143;fill-opacity:1;fill-rule:nonzero;stroke:none"
       d="m 287.3516,571.3657 c -0.6773,0 -0.7569,-0.3589 -0.7569,-0.7969 0.0796,-1.1547 -0.7568,-0.7959 -0.7568,-1.2343 0,-0.5977 0.6777,-0.6778 1.1553,-0.7173 0.4775,-0.0396 1.5537,5e-4 1.6728,0.9961 0.1192,0.9956 -0.876,1.7524 -1.3144,1.7524 z"
       inkscape:connector-curvature="0" /><path
       id="path98"
       style="fill:#ffffff;fill-opacity:1;fill-rule:nonzero;stroke:none"
       d="m 333.1982,504.1328 c 0.2842,-6.5268 -1.7021,-19.0137 -15.75,-15.75 l 1.5616,-2.4121 c 0,0 6.2441,-0.9936 8.0879,-1.8447 1.1347,-2.27 5.3916,-9.9326 14.0468,-11.919 5.1084,-0.7094 8.2305,1.1353 9.791,1.1353 0.9932,9.5068 -1.4189,25.3989 -13.4804,23.2705 0.4258,-5.25 -0.71,-7.5205 -0.9932,-4.3989 -0.2832,3.1215 -0.1416,9.5068 -3.2637,11.9189 z"
       inkscape:connector-curvature="0" /><path
       id="path100"
       style="fill:#ffffff;fill-opacity:1;fill-rule:nonzero;stroke:none"
       d="m 350.5088,497.4639 c 3.1943,-4.6856 7.5205,-12.4868 2.6963,-25.9663 0.9931,-0.1416 6.2441,4.2568 7.9463,9.9326 0.7763,7.4638 1.1103,17.7153 -10.6426,16.0337 z"
       inkscape:connector-curvature="0" /><path
       id="path102"
       style="fill:#ffffff;fill-opacity:1;fill-rule:nonzero;stroke:none"
       d="m 367.9453,484.5483 c -0.2236,-2.9077 -1.6709,-6.5737 -2.3398,-7.354 1.2256,0.4453 2.3398,3.1202 2.5625,4.4571 0.6689,0.8911 -0.1114,4.3457 -0.2227,2.8969 z"
       inkscape:connector-curvature="0" /><path
       id="path104"
       style="fill:#ffffff;fill-opacity:1;fill-rule:nonzero;stroke:none"
       d="m 379.0879,466.2744 c -4.5811,0 -9.1377,0.334 -7.4658,-7.8003 0.4453,-0.1113 0.8916,-0.1113 0.8916,-0.1113 0.8916,5.0142 6.6855,7.2427 6.5742,7.9116 z"
       inkscape:connector-curvature="0" /><path
       id="path106"
       style="fill:#ffffff;fill-opacity:1;fill-rule:nonzero;stroke:none"
       d="m 385.2168,466.6084 c -2.7861,-0.6685 -7.8008,-0.6685 -11.3662,-8.1343 0.1113,-0.8911 4.9023,-0.1113 5.6826,0 0.7803,0.1113 2.3408,3.1197 7.2432,4.4571 0.334,1.1142 1.3369,1.6713 1.3369,1.6713 -2.0059,0.5572 -2.8965,2.0059 -2.8965,2.0059 z"
       inkscape:connector-curvature="0" /><path
       id="path108"
       style="fill:#ffffff;fill-opacity:1;fill-rule:nonzero;stroke:none"
       d="m 372.8477,457.3599 c -1.8946,0 -4.2344,-0.6685 -4.2344,-0.6685 0.2236,-0.8916 0.2236,-1.7827 0.2236,-1.7827 l 0.334,-0.1118 c 1.2256,1.7832 4.457,2.3403 3.6768,2.563 z"
       inkscape:connector-curvature="0" /><path
       id="path110"
       style="fill:#ffffff;fill-opacity:1;fill-rule:nonzero;stroke:none"
       d="m 377.752,452.5684 c 6.999,3.5014 9.3593,4.123 12.4794,4.123 3.1202,0 5.6836,-0.2231 7.2432,-3.0088 0.8916,-1.5596 -0.7803,-1.5596 -0.7803,-1.5596 -0.4453,1.5596 -1.8945,2.3399 -1.8945,2.3399 0.7803,-3.6773 3.2315,-7.2432 -12.2568,-13.4829 2.6748,-1.1143 9.0254,-2.0059 13.0371,2.3398 1.6719,1.5601 2.0058,-0.1113 1.1142,-0.8911 -1.3369,-1.0029 -3.2304,-2.0054 -3.788,-2.2285 -0.7803,-0.2231 -0.5586,-0.335 0.7792,-0.1118 1.3379,0.2231 5.4053,1.9507 8.0235,4.5688 2.6181,2.6182 5.5146,9.6387 0.7793,14.3741 -1.5596,1.5595 -7.2422,3.2314 -10.585,3.2314 -2.3408,-0.2227 -10.0293,0 -14.1513,-9.6943 z"
       inkscape:connector-curvature="0" /><path
       id="path112"
       style="fill:#ffffff;fill-opacity:1;fill-rule:nonzero;stroke:none"
       d="m 351.7891,466.4971 c -0.335,-8.5801 -1.2256,-7.5777 5.5713,-12.2574 1.4482,7.689 3.6767,12.0347 4.791,17.606 -3.5655,-3.0088 -6.6856,-4.6802 -10.3623,-5.3486 z"
       inkscape:connector-curvature="0" /><path
       id="path114"
       style="fill:#ffffff;fill-opacity:1;fill-rule:nonzero;stroke:none"
       d="m 337.75,471.6665 c 0.084,-15.4165 8.667,-21.1665 8.667,-23.083 0,-1.3335 -0.499,-5.833 -2.833,-11 6.416,0.4165 16.666,0 21.083,-12.0835 1.417,1.25 2.999,3.9995 3.583,4.4165 0.334,1.167 1.583,6.917 1.75,7.3335 0.167,0.4165 -3.25,-1.4995 -11.5,-1.6665 -2.5,3.9165 -2,10.1665 -2,10.1665 -2,0 -6.666,-2 -10.333,-4.5 -0.917,-0.5835 -0.583,0.4165 0.25,0.9165 2.25,1.417 5.249,3.75 10.083,4.5 0.084,2.667 0.5,5.167 0.5,5.167 -4.75,1.833 -5.749,2.167 -6.416,2.5 -0.667,0.333 -0.166,0.9165 0.5,0.6665 0.666,-0.25 5.833,-2.3335 5.833,-2.3335 L 357.084,453 c -7.75,4.917 -6.834,4.5005 -6.584,13.917 -4.416,1.1665 -6.583,3.6665 -6.583,3.6665 -1.833,-0.1665 -4.333,0.25 -6.167,1.083 z"
       inkscape:connector-curvature="0" /><path
       id="path116"
       style="fill:#ffffff;fill-opacity:1;fill-rule:nonzero;stroke:none"
       d="m 372.75,429.25 c 0,-1.5854 -0.166,-5.3335 -4.916,-5.8335 0,0 -0.334,-0.333 -0.167,-0.583 1.583,-1.25 6,-4.3335 10.75,-2.25 -0.833,2.9165 -0.501,6.583 -0.167,7.1665 0,0.6665 -1.583,-0.4165 -5.5,1.5 z"
       inkscape:connector-curvature="0" /><path
       id="path118"
       style="fill:#ffffff;fill-opacity:1;fill-rule:nonzero;stroke:none"
       d="m 342.5,428.6665 c -1.75,-1.083 -5.749,-4.333 -5.916,-4.583 -0.167,-0.25 6.999,3.083 10.416,3.1665 1.917,0.0835 -4.5,1.4165 -4.5,1.4165 z"
       inkscape:connector-curvature="0" /><path
       id="path120"
       style="fill:#ffffff;fill-opacity:1;fill-rule:nonzero;stroke:none"
       d="m 338.75,430.1665 c -2.25,0 -12,-2.4165 -15.25,-8.4165 1.167,-0.5 1.5,-0.8335 1.5,-0.8335 3.584,3.667 10.417,7.5 14.25,8.667 1.0127,0.3374 0.7793,0.583 -0.5,0.583 z"
       inkscape:connector-curvature="0" /><path
       id="path122"
       style="fill:#ffffff;fill-opacity:1;fill-rule:nonzero;stroke:none"
       d="m 360,416.125 c -1.5,-2.125 -8,-11 -12.25,-13.5 -1.875,-1 -2.125,-0.875 -0.5,0.5 1.625,1.375 7.5,6.375 12.125,14.125 -2.25,2.5 -1.125,2.5 -2.875,4.25 -1.75,1.75 -2,3 -4.125,2.625 -2.125,-0.375 -7,-1.625 -7.875,-1.75 -0.875,-0.125 -0.5,-1.25 -0.625,-2 -0.25,-1.625 -0.75,-6.375 -1,-7.125 -0.25,-0.75 -1.25,-4.875 -2.125,-6.5 -0.875,-1.625 -1,-1.25 -0.5,0.375 0.5,1.625 1.625,5.5 2.125,8.375 0.5,2.875 0.75,6.875 0.75,6.875 -6.75,-2.375 -13.5,-5.375 -13.875,-5.625 1.5,-3.5 2.5,-3.875 0.625,-5 -6,-3.375 -20.125,-12 -24.875,-16.375 -2,-1.75 -3.625,-1.75 -4.875,-0.375 -1.25,1.375 -1.375,1.375 -1.375,1.375 -5.875,-4.5 -20.25,-22.25 -28.375,-23.375 4,-1.75 9.25,-4.375 10.875,-12.125 0.125,-1 1.875,1.75 3.625,3.25 10.375,8.5 20.375,8.875 27.25,14.375 10.25,7.125 19.25,19.75 22,21 2.75,1.25 7.375,1 7.75,-1.5 0.375,-2.5 -1.25,0.25 -1.625,0.5 -0.375,0.25 -0.375,-0.5 -0.375,-1.25 -0.625,-3.5 -2.625,-7.75 -3.75,-13.125 -2.875,-10.375 -1.875,-27 -3.5,-32.125 -1.625,-5.125 -2.5,-7.375 -3.375,-8.375 3.75,-3.375 6.5,-7.125 15.5,-6.625 1.125,5.5 4,13.25 4,13.25 -4.5,2.625 -8.375,4 -9.375,4.375 -1,0.375 -1.25,0.75 -1,-1 0.25,-1.75 0.75,-4.5 1.125,-5.375 0.375,-0.875 -0.125,-1.5 -0.5,-0.5 -0.375,1 -1.875,5.625 -1.625,7.625 -1.5,0.75 -2.25,2.875 -2.125,4 -0.125,2 11.125,27.125 24.75,40.125 0,4.125 1.375,8 1.5,11.25 0.125,2.75 -1.5,5.375 -1.5,5.375 m -78.6011,-44.3125 c 0,-0.7832 -0.0561,-1.0635 -0.3916,-0.7275 0,0 -0.3354,0.5039 -0.3354,2.2382 0,4.9795 7.4389,11.6934 8.9516,13.2041 0.3921,0.3916 1.063,0.0557 0.2798,-0.7275 -10.3506,-10.2383 -8.2803,-13.0361 -8.5044,-13.9873 m 18.7427,2.9092 c -1.3428,-0.6719 -9.1191,-3.916 -10.9658,-4.6992 -1.8467,-0.7832 -2.6856,-1.6231 -4.1958,-2.0704 0,0 -1.231,-0.6152 -0.2241,0.504 1.5664,1.9023 14.7705,6.8808 16.8964,7.497 0,0 1.4551,0.335 -1.5107,-1.2314 z"
       inkscape:connector-curvature="0" /><path
       id="path124"
       style="fill:#ffffff;fill-opacity:1;fill-rule:nonzero;stroke:none"
       d="m 351.5576,350.2344 1.9014,-1.4004 c 4.0019,-0.1006 12.6055,0.9004 16.1074,8.9043 0,0 -0.2998,1.2012 -0.7002,0.4004 -2.7012,-3.8018 -7.6035,-8.0039 -17.3086,-7.9043 z"
       inkscape:connector-curvature="0" /><path
       id="path126"
       style="fill:#ffffff;fill-opacity:1;fill-rule:nonzero;stroke:none"
       d="m 346.8555,339.4297 -0.7002,-2.7022 c 4.2021,-1.8007 8.7041,-4.4023 12.206,-14.5068 l 1,2.6016 c -1.6006,3.5019 -3.2011,12.206 -12.5058,14.6074 z"
       inkscape:connector-curvature="0" /><path
       id="path128"
       style="fill:#ffffff;fill-opacity:1;fill-rule:nonzero;stroke:none"
       d="m 377.2217,499.9116 c -0.7403,0 -1.1104,-0.3706 -1.5547,-0.4443 -0.4443,-0.0737 0.1484,-0.2959 0.3701,-0.2959 0.4443,-0.0742 0.5186,-1.2583 2.665,-1.4805 1.4795,-0.2221 3.8477,0.3696 4.3663,0.666 0.5185,0.2964 0.2968,0.4439 -0.1475,0.3702 -0.4443,-0.0738 -1.0371,-0.4444 -1.999,-0.3702 -1.3321,0.0743 -2.8858,1.5547 -3.7002,1.5547 z"
       inkscape:connector-curvature="0" /><path
       id="path130"
       style="fill:#ffffff;fill-opacity:1;fill-rule:nonzero;stroke:none"
       d="m 387.1396,503.6123 c -0.9619,0 -0.8144,-1.1103 -1.7021,-1.0361 -0.5186,0.0737 0.2959,-1.2583 1.2578,-1.2583 0.9619,0 1.332,0.666 1.332,1.1841 0,0.518 -0.4433,1.1103 -0.8877,1.1103 z"
       inkscape:connector-curvature="0" /><path
       id="path132"
       style="fill:#ffffff;fill-opacity:1;fill-rule:nonzero;stroke:none"
       d="m 392.543,483.1841 c 0,-0.5923 0.666,-1.0362 1.2578,-1.0362 0.5918,0 1.6211,0.6749 1.6211,1.4146 0,0.7397 -0.2149,-0.3042 -1.3252,-0.2305 -1.1104,0.0738 -0.8428,0.5088 -1.1104,0.5181 -0.3925,0.009 -0.4433,-0.2959 -0.4433,-0.666 z"
       inkscape:connector-curvature="0" /><path
       id="path134"
       style="fill:#ffffff;fill-opacity:1;fill-rule:nonzero;stroke:none"
       d="m 401.0625,475.1875 c 1.4375,0 2.125,0.875 2.125,1.3125 0,0.4375 -0.6875,1.125 -1,1.125 -0.3125,0 -0.375,-0.3125 -0.3125,-0.5 0.0625,-0.1875 0,-0.9375 -1.1875,-0.875 -1.1875,0.0625 -1.3125,0.75 -1.625,0.75 -0.3125,0 -0.6875,-0.375 0.25,-1.125 0.9375,-0.75 1.1875,-0.6875 1.75,-0.6875 z"
       inkscape:connector-curvature="0" /><path
       id="path136"
       style="fill:#ffffff;fill-opacity:1;fill-rule:nonzero;stroke:none"
       d="m 389.375,472.9375 c -0.3799,0 -0.625,-0.75 -0.4375,-1.0625 0.1875,-0.3125 0.5,0.125 1.1875,0.0625 0.6875,-0.0625 -0.125,0.6875 -0.75,1 z"
       inkscape:connector-curvature="0" /><path
       id="path138"
       style="fill:#ffffff;fill-opacity:1;fill-rule:nonzero;stroke:none"
       d="m 391.8125,471.8438 c 0.0986,0.0986 0,0.3437 0,0.3437 -0.375,0 -0.625,-0.1875 -0.4375,-0.3125 0.085,-0.0562 0.3564,-0.1118 0.4375,-0.0312 z"
       inkscape:connector-curvature="0" /><path
       id="path140"
       style="fill:#eecec1;fill-opacity:1;fill-rule:nonzero;stroke:none"
       d="m 366.7832,490.0259 c 0,0 -0.2334,-0.1553 -0.0781,-0.3887 2.2549,-2.2554 2.7998,-4.9766 2.7998,-6.1431 0,-1.1665 -1.0108,-5.9873 -4.1992,-8.7871 -1.4776,-1.3999 -2.1778,-2.4106 -2.4883,-5.1323 -0.0781,-1.7109 -1.9444,-6.7671 -2.5664,-9.0996 -0.6221,-2.3325 -2.4883,-9.7983 -2.4883,-12.4419 0,-2.6436 -0.0772,-8.7871 1.3223,-11.2759 2.9541,-0.0781 5.2871,0.5445 6.1425,0.6997 0.8555,0.1553 3.1104,1.0889 4.4327,1.3999 1.3222,0.3111 9.5654,2.6436 10.7314,2.877 1.166,0.2334 8.3203,3.1108 9.9531,4.1992 1.711,1.4775 3.4209,3.3442 3.6543,4.1992 0.2334,0.855 -0.9336,5.1319 -1.6328,5.3653 -0.6992,0.2334 -4.666,-0.1558 -5.0547,-0.3111 -1.7099,-0.5444 -4.2754,-1.3999 -5.4424,-2.0996 -1.167,-0.6997 -3.2666,-1.7104 -4.2773,-2.0215 -1.0107,-0.311 -4.1992,-0.9331 -5.0547,-1.2441 -0.8555,-0.311 -3.6543,-1.1665 -4.2764,-1.4775 -0.622,-0.3111 -0.8554,0.311 -0.2334,0.6997 0.6221,0.3886 1.0108,0.4668 1.1661,0.7778 0.3115,0.3887 -2.4883,6.2207 -2.4883,13.7637 0,3.3437 0.7002,5.4438 2.7217,8.3984 2.0214,2.9546 3.8105,5.4429 3.8105,5.9873 0,0.5444 -0.8564,2.334 -1.167,2.5674 -0.3105,0.2334 -0.3105,-0.311 -0.3105,-0.9331 0,-0.6221 -0.3125,-0.7002 -0.545,0.0776 -0.2324,0.7778 0.3106,3.5777 0.2334,4.666 -0.0771,1.0884 -0.9326,4.2007 -4.665,5.6773 z"
       inkscape:connector-curvature="0" /><path
       id="path142"
       style="fill:#eecec1;fill-opacity:1;fill-rule:nonzero;stroke:none"
       d="m 378.4473,457.2871 c -1.0889,-0.2329 -2.4112,-0.7773 -2.7998,-0.6997 -0.0772,-0.5444 0.5459,-1.1665 0.7783,-3.0327 1.0107,2.0996 2.0215,3.3437 2.0215,3.3437 z"
       inkscape:connector-curvature="0" /><path
       id="path144"
       style="fill:#eecec1;fill-opacity:1;fill-rule:nonzero;stroke:none"
       d="m 371.0625,430.3125 c -0.3125,0.0625 -1.375,-0.3125 -1.5,-0.5625 -0.125,-0.25 -1.625,-4.6875 -2.125,-5.0625 0,-0.625 0.5625,-0.625 0.8125,-0.625 0.25,0 3.0625,1.5 3.1875,4.5625 0.125,1.5625 -0.0625,1.625 -0.375,1.6875 z"
       inkscape:connector-curvature="0" /><path
       id="path146"
       style="fill:#eecec1;fill-opacity:1;fill-rule:nonzero;stroke:none"
       d="m 357.625,395.25 c -2.375,-2.5 -5.958,-7.25 -8.25,-10.375 -1.3135,-1.791 -6.75,-12.375 -12.25,-23 -0.9941,-2.0605 -1.2812,-3.5127 0.375,-5.5 1.2314,-0.8799 4.6953,-0.6777 12.125,-5 2.875,-0.375 12.3125,-0.9375 18.3125,7.9375 -1.8125,1.5 -4.1875,2.1875 -5.375,2.875 -1.1875,0.6875 -4.625,2.25 -7.3125,2.1875 -2.25,-0.125 -2.4375,0.5625 -0.6875,1.4375 1.75,0.875 5.6875,2.875 7.25,4 1.5625,1.125 7.4375,6.25 8.6875,7.9375 1.25,1.6875 5.1875,9.25 5.8125,9.9375 0.625,0.6875 -0.4375,0.5 -1.375,0.75 -2.6875,0.4375 -6.875,3.4375 -10.25,4.8125 -3.75,1.4375 -7.0625,2 -7.0625,2 z"
       inkscape:connector-curvature="0" /><path
       id="path148"
       style="fill:#eecec1;fill-opacity:1;fill-rule:nonzero;stroke:none"
       d="m 349.75,349.625 c -0.75,-3.125 -2.5,-8.875 -2.5,-8.875 4.5,-0.875 9.375,-4.5 12.625,-13.625 0.5,-0.25 2.5,10.875 1.75,15.5 -7,4.125 -11.875,7 -11.875,7 z"
       inkscape:connector-curvature="0" /><path
       id="path150"
       style="fill:#eecec1;fill-opacity:1;fill-rule:nonzero;stroke:none"
       d="m 303.625,543.375 c -2.25,-1.75 -4.375,-4 -3.875,-5.5 1.875,-0.75 5.25,-1.75 6.375,-1.75 -0.75,1.125 0.5,5.25 1.25,5.375 0.75,0.125 0,0.625 0,0.625 z"
       inkscape:connector-curvature="0" /><path
       id="path152"
       style="fill:#eecec1;fill-opacity:1;fill-rule:nonzero;stroke:none"
       d="m 404.1055,475.2842 c -0.3057,0.2031 -0.7559,0.1264 -0.252,-0.3775 0.5039,-0.5039 0.6914,-0.5039 1.0069,-0.5039 0.3154,0 0.3789,0.441 0.0634,0.441 -0.3154,0 -0.6289,0.3144 -0.8183,0.4404 z"
       inkscape:connector-curvature="0" /><path
       id="path154"
       style="fill:#eecec1;fill-opacity:1;fill-rule:nonzero;stroke:none"
       d="m 300.1191,544.5371 c -1.1347,0 -2.9267,-1.1948 -3.0463,-3.8833 0,-2.2104 1.7329,-2.4492 1.7329,-2.4492 0.0595,0.7168 -0.418,1.1948 -0.2393,2.27 0.1787,1.0752 0.3574,2.27 1.5527,3.7041 0.5381,0.4185 0,0.3584 0,0.3584 z"
       inkscape:connector-curvature="0" /><path
       id="path156"
       style="fill:#eecec1;fill-opacity:1;fill-rule:nonzero;stroke:none"
       d="m 309.25,535.125 c -1.625,-0.375 -6.375,-0.375 -9.625,1.125 -0.75,-1.75 -2.125,-3.625 -2.125,-3.625 0,0 -0.75,-0.375 0.125,-0.375 3.75,0 8.875,-1.5 9.875,-2 1.125,1.375 1.75,4.875 1.75,4.875 z"
       inkscape:connector-curvature="0" /><path
       id="path158"
       style="fill:#eecec1;fill-opacity:1;fill-rule:nonzero;stroke:none"
       d="m 297.875,531.375 c 0.625,-1.75 0.875,-4.25 -0.125,-5.375 2,-0.375 7.875,-0.5 8.625,-0.25 0,1.125 0.5,3.125 1,3.25 0.5,0.125 0.375,0.5 0,0.625 -7,2.25 -9.5,1.75 -9.5,1.75 z"
       inkscape:connector-curvature="0" /><path
       id="path160"
       style="fill:#eecec1;fill-opacity:1;fill-rule:nonzero;stroke:none"
       d="m 304.875,524.375 c -3.25,0 -7.125,0.25 -7.5,0.375 -0.375,0.125 -1.125,-0.125 -0.75,-0.625 0.375,-0.5 1.25,-3.125 0.75,-4.125 -0.5,-1 0.125,-1.875 1.75,-1.375 1.625,0.5 6,1 8.5,1.125 2.5,0.125 1.875,0.75 2,1.5 0.125,0.75 0.375,0.25 -0.75,0.625 -1.125,0.375 -1.875,1.375 -2,2.25 -0.125,0.875 -2,0.25 -2,0.25 z"
       inkscape:connector-curvature="0" /><path
       id="path162"
       style="fill:#eecec1;fill-opacity:1;fill-rule:nonzero;stroke:none"
       d="m 299.5,517 c 2.5,-1.25 5.375,-3.125 7.5,-3.5 2.125,-0.375 6.875,-1.125 11,6.25 -2.25,6.25 -1,13.125 -0.25,14.125 0.75,1 0.375,1.75 -0.125,2.5 -0.5,0.75 -4,2.125 -4.875,2.25 -0.875,0.125 -1.5,0 -1.625,-1.375 -0.5,-4 -3.375,-11.25 -3.75,-11.75 C 307,525 308,525.375 308,525.375 c 0.875,2.375 1.25,3 2.375,2.75 1.125,-0.25 2.125,-1.125 2.625,-1.5 1.125,2.625 2.25,4 2.5,5 0.25,1 1,0.625 0.75,-0.375 -0.25,-1 -3.25,-8.375 -4.625,-8.625 -0.5,-0.125 0.125,-0.375 0.875,-1.125 0.75,-0.75 2.25,-2.625 1.375,-5.75 -0.1709,-0.686 -0.6514,-0.686 -0.6514,-0.686 0,1.8491 0.7754,4.8813 -2.2197,6.3979 -0.5918,0.2593 -0.5537,-1.9233 -0.9609,-2.3301 -0.4073,-0.4067 -0.6289,5e-4 -1.2207,-0.4433 -0.5918,-0.4439 -1.0733,-3.7354 -1.7754,-3.8096 -0.7022,-0.0742 -5.7334,1.5537 -6.9903,2.2192 C 299.0957,517.5049 299.5,517 299.5,517 Z"
       inkscape:connector-curvature="0" /><path
       id="path164"
       style="fill:#eecec1;fill-opacity:1;fill-rule:nonzero;stroke:none"
       d="m 371.7715,489.9946 c 0,0 -0.3858,-1.2343 -1.0029,-1.5429 0.54,-0.1548 0.6943,-0.8492 0.6943,-0.8492 0.54,-0.0771 -0.0781,0.8487 0.6172,1.9292 0.1543,0.0772 -0.3086,0.4629 -0.3086,0.4629 z"
       inkscape:connector-curvature="0" /><path
       id="path166"
       style="fill:#eecec1;fill-opacity:1;fill-rule:nonzero;stroke:none"
       d="m 372.4658,489.146 c -0.6172,-3.4727 0.0772,-3.0869 0,-4.939 -0.0771,-1.852 -0.2314,-1.3891 -0.3086,-1.9292 1.3897,-1.312 1.544,-2.6235 2.0069,-2.7007 0.4629,-0.0771 1.3115,1.4664 8.1025,5.7105 1.4668,1.0029 0.6943,-0.3091 0.0772,-0.6948 -3.4727,-2.315 -6.6368,-5.0933 -7.8711,-5.9419 0.2314,-2.315 -3.626,-6.4824 -5.3243,-9.106 -1.081,-1.7749 -1.1582,-2.855 -1.2353,-3.8584 -0.1543,-3.0097 0.0771,-6.4829 0.54,-7.9487 1.1582,0.4634 2.0069,0.3862 2.0069,0.3862 -0.8487,3.0864 -1.6993,10.1094 9.3369,9.2603 -0.4629,1.2348 -1.0801,3.0869 -1.0801,3.0869 -1.9287,-2.4697 -3.9365,-4.0899 -2.4697,-1.6978 1.4668,2.3921 7.4082,10.9585 9.1064,21.4532 -4.167,-1.8521 -10.418,-1.9292 -11.498,-1.8521 -1.3897,1.0801 -1.3897,0.7715 -1.3897,0.7715 z"
       inkscape:connector-curvature="0" /><path
       id="path168"
       style="fill:#eecec1;fill-opacity:1;fill-rule:nonzero;stroke:none"
       d="m 391.6816,496.1685 c -3.0097,0.3086 -2.9316,-0.8487 -4.3212,-3.627 2.083,-0.1543 4.4755,1.0801 4.3212,3.627 z"
       inkscape:connector-curvature="0" /><path
       id="path170"
       style="fill:#eecec1;fill-opacity:1;fill-rule:nonzero;stroke:none"
       d="m 392.7617,504.3477 c -1.3115,0.8491 -1.1572,2.0839 -4.5527,3.8588 -0.6172,0.3858 -4.4766,0.0772 -5.2481,0 0.3086,-1.7749 -0.4629,-1.9292 -1.2343,-0.1543 -1.543,0.0772 -1.7754,0.3086 -2.084,0.3858 -1.2344,-0.5405 -8.874,-10.418 -9.877,-12.5786 0,-0.6948 2.3916,-4.939 4.4756,-6.6367 2.7783,-0.0772 10.3399,0.8491 12.2695,2.9326 0.4629,2.9321 4.9395,10.2636 6.251,11.1123 0.8487,0.4629 0,1.0801 0,1.0801 m -7.5625,-8.2569 c 0,-0.54 -0.9258,-2.0063 -0.8486,-0.3857 0,0 0.1543,1.3887 0.1543,1.6977 0,0.3091 0,0.6944 -0.5401,0.2315 -0.54,-0.4629 -2.4697,-0.9263 -4.2451,-1.0034 -1.7754,-0.0772 -3.9355,1.6977 -3.9355,1.6977 0,0 -0.6172,0.2315 -0.6172,-0.2314 0,-0.4629 1.5439,-1.6206 1.5439,-3.3184 0,-0.8491 -0.541,-1.2349 -0.541,0 0,1.2349 -1.8515,1.8521 -1.8515,4.0127 0,0.8486 0.9257,1.5435 1.5429,2.084 0.6172,0.5405 0.2315,0.54 0.2315,0.54 0,0 0,1.7749 0,2.2378 0,0.4629 0.6181,1.0034 0.6181,0 0,0 0.3086,-0.54 0,-2.3921 -0.2314,-0.3857 0.0772,-0.5405 0.0772,-0.5405 2.9316,0.1548 1.3887,-1.852 6.9453,-1.1572 0,0 -1.0811,0.9258 -1.2354,1.9292 -0.9257,-0.0772 -1.2343,0.4629 -1.3115,0.7715 -0.0771,0.3086 -0.1543,0.4633 -0.3857,0.5405 -0.2315,0.0771 -0.1543,-0.4634 -1.0811,-0.4634 -0.6181,0 -1.3115,0.5405 -1.3115,2.5469 0,2.0063 1.5439,2.7007 2.1611,2.6235 0.6172,-0.0771 1.543,-0.6172 2.1602,-1.2344 0.6172,-0.6171 0.4629,-1.0805 -0.1543,-1.0805 -0.8486,0 -1.6201,1.312 -2.4688,1.3891 -0.3085,0 -0.9267,-0.1543 -0.9267,-1.9292 0,-1.7749 0.6172,-1.4663 1.0039,-1.0034 0.3867,0.4629 0.6172,0.8491 1.0029,-0.2314 0.3858,-1.0806 0.8487,-0.6172 1.2344,0.1543 0.2314,0.2314 1.0029,1.0034 0.54,-0.4629 0,-1.6978 3.0098,-2.5469 2.2383,-7.0225 m 1.5918,4.3511 c -1.5527,0 -2.167,1.9141 -2.167,2.8169 0,0.9028 0.6865,1.3364 2.3477,1.3364 1.2646,0 1.9863,-1.0473 1.9863,-2.0586 0,-1.0112 -0.6142,-2.0947 -2.167,-2.0947 m 4.6231,2.853 c -0.1075,-1.0473 -0.542,-2.0947 -0.9034,-0.1084 -0.5058,3.106 -1.8779,2.7085 -4.4423,2.5283 -1.4454,-0.144 -0.8663,0.3248 -0.0362,0.7583 0.8301,0.4336 1.0479,0.4332 2.3116,0.4332 2.9248,0 3.1777,-2.564 3.0703,-3.6114 z"
       inkscape:connector-curvature="0" /><path
       id="path172"
       style="fill:#eecec1;fill-opacity:1;fill-rule:nonzero;stroke:none"
       d="m 400.9141,478.3032 c 3.1777,0.1084 2.456,-0.9751 3.9365,-0.9751 0.6142,0.0362 1.1914,0.0362 1.1914,0.0362 -0.6494,1.4082 -1.5889,3.1777 -3.6113,3.2138 -1.1914,0 -0.0352,0.6504 0.831,0.6143 -1.1924,0.8305 -1.5527,1.2637 -2.2031,1.8418 -0.6504,0.5781 -2.0225,2.0224 -3.792,2.0224 -1.7695,0 -1.373,-0.2529 -1.373,-0.9028 0,-0.6499 -0.1807,-2.853 -2.1309,-2.853 -1.9502,0 -1.6611,1.0112 -1.6611,2.0586 -0.6133,-0.1807 -3.6846,-2.6729 -4.0811,-3.648 -0.3965,-0.9751 -0.7939,-5.5971 -1.2998,-7.0058 -0.5059,-1.4087 -1.4082,-3.2139 -1.4082,-3.792 0,-0.5782 0.9033,-3.2505 4.4063,-3.2505 1.914,0 1.9863,-1.1558 1.372,-1.1919 -2.6728,0 -2.8896,-1.1919 -2.8896,-1.1919 0.9394,0.2168 1.8066,0.4697 3.2871,0.4697 4.2969,-0.1445 4.8388,-1.0473 5.4531,-1.0473 0.4336,0 0.4688,0.3969 1.0107,0.7944 0.542,0.3975 1.084,0.6138 1.084,0.7583 0,0.1445 -0.6142,0.6138 -0.6142,1.6973 0,1.0835 0.3974,1.0835 0.3974,1.3364 0,0.2529 -0.3261,0.3608 -0.9755,0.5776 -0.6495,0.2168 -0.3975,0.6143 -0.0362,0.5781 1.2285,-0.1806 1.7344,-0.3613 2.4922,-0.4697 0.7949,-0.2886 0.1445,0.1446 0.0361,0.2168 -1.3359,0.6499 -2.2754,1.3721 -2.3476,1.9141 -0.0723,0.542 0.289,0.5058 0.5058,0.5058 3.3584,0 5.6338,1.4082 6.3204,2.9253 0.0361,0.4693 -0.543,0.253 -1.2286,0.7222 -0.6855,0.4692 -0.3964,0.4331 -0.6855,0.4692 -0.2891,0.0362 -0.5049,-0.5415 -1.5889,-0.5415 -1.084,0 -3.2871,1.1919 -3.2871,2.3116 0,1.1196 2.2041,1.8056 2.8897,1.8056 m -9.0196,-9.5024 c -0.4404,-0.252 -1.5742,-0.7554 -2.581,-0.7554 -1.0069,0 -2.5811,1.1963 -2.7071,2.6441 -0.1259,1.4477 0.9444,1.8881 1.3223,1.9511 0.3779,0.063 0.5029,-0.063 0.8809,1.4478 0.3779,1.5107 0.7558,2.2031 1.7002,2.2031 0.5673,0 -0.252,-1.1963 1.0068,-1.4477 0.9443,-0.3145 1.2588,-1.2593 1.2588,-2.5181 0,-1.2588 -0.4404,-2.9585 -0.8809,-3.5249 m 2.7061,7.6162 c -1.0703,-1.1333 -1.5108,-0.5034 -2.0137,0.6924 0,0 0.1885,1.0073 0.7549,0.126 0.5664,-0.8814 0.6924,-0.3775 1.1328,0.1259 0.4404,0.5034 1.1963,0.189 0.126,-0.9443 m -0.126,3.7768 c -2.5176,-0.8183 -2.2656,-0.5664 -2.3291,-2.3291 -0.0635,-1.7626 -0.6924,-1.5107 -0.7549,0.5669 -0.0625,2.0777 1.0069,1.9512 3.5879,2.5176 0.6924,0.126 0.6924,-0.5034 -0.5039,-0.7554 z"
       inkscape:connector-curvature="0" /><path
       id="path174"
       style="fill:#eecec1;fill-opacity:1;fill-rule:nonzero;stroke:none"
       d="m 308.3643,540.833 c -1.4336,0 -1.8516,-1.1948 -2.0313,-3.4053 0.1787,-0.7168 3.3467,-0.2983 3.9434,0.1197 0.1787,2.748 -1.2549,3.2856 -1.9121,3.2856 z"
       inkscape:connector-curvature="0" /><path
       id="path176"
       style="fill:#eecec1;fill-opacity:1;fill-rule:nonzero;stroke:none"
       d="m 308.5439,524.8218 c 0,-1.1353 0.1797,-1.5532 1.0752,-1.5532 0.8955,0 2.211,2.3891 2.3301,2.9868 0,0.478 -1.5537,1.0757 -1.9717,1.0757 -0.4179,0 -1.4336,-1.1353 -1.4336,-2.5093 z"
       inkscape:connector-curvature="0" /><path
       id="path178"
       style="fill:#f68a1e;fill-opacity:1;fill-rule:nonzero;stroke:none"
       d="m 268.1665,372.167 c -6.5,-2 -16.1665,-6.999 -19.6665,-9.833 -3.5,-2.834 -15.167,-13.333 -20.3335,-20 C 223,335.667 224,335 221,331 c -3,-4 -4.8335,-6.333 -4.8335,-6.333 -12.833,-3 -23.9995,-7.334 -32.333,-17.167 1.6665,-3.166 6.666,-6.167 10.333,-7.5 3.667,-1.333 8.167,-2.333 11.167,-2.333 9.6665,0 17.333,8 28.5,8 2.333,5.333 2.833,6.667 2.833,6.667 C 235.5,311.834 235,312.5 236,313 c 9.1665,6.334 18.9995,15.501 26.6665,24.834 7.667,9.333 13.167,17.5 17.3335,21.333 -0.6665,5.333 -0.8335,8.5 -11.8335,13 m -53.998,-48.2158 c 2.1499,0.8633 10.436,2.8789 19.1933,-0.5996 0.7793,-0.42 0.3594,-1.3194 -0.8403,-0.7198 -1.1997,0.5996 -9.417,3.0596 -17.6343,0.7803 -1.9189,-0.6006 -1.3193,0.3594 -0.7187,0.5391 m 18.893,-12.8955 c -0.7197,1.2597 -4.7387,9.8964 -13.6758,10.1367 -1.6792,0 -0.7797,0.7197 -0.2998,0.7197 1.4995,0 9.897,0.4805 15.1748,-10.916 0.3003,-1.1397 -0.4794,-1.2002 -1.1992,0.0596 z"
       inkscape:connector-curvature="0" /><path
       id="path180"
       style="fill:#f68a1e;fill-opacity:1;fill-rule:nonzero;stroke:none"
       d="m 183.1665,306 -1,-1.166 c 5.5,-6.334 15.5005,-8.667 20.167,-9.167 4.6665,-0.5 7,0 9.5,0.5 2.5,0.5 14,6.5 21.1665,6.5 l 0.5,2 c -2.3335,0 -11.0005,-2.833 -13.3335,-4 -2.333,-1.167 -9.166,-4.167 -13.333,-4.167 -4.167,0 -17.0005,1.666 -23.667,9.5 z"
       inkscape:connector-curvature="0" /><path
       id="path182"
       style="fill:#f68a1e;fill-opacity:1;fill-rule:nonzero;stroke:none"
       d="m 367.833,263.833 c -2.833,3.834 -25,21.167 -26.166,24.334 -2.167,1.166 -9.834,2.167 -16.667,-2 -1,-0.834 -1.5,-10e-4 0.5,1.166 2,1.167 9.667,4.334 16.167,2.167 -2.167,10.333 -0.834,25.333 0.666,32 1.5,6.667 2.5,10.999 2.167,14.333 -3.167,-0.833 -11.499,1.001 -15.333,6.334 C 328.5,343.5 328.667,342 328,341 c -0.667,-1 -2.834,-5.5 -3.667,-6.5 -0.833,-1 -3.833,-9.332 -3.833,-11.666 0,-2.5 -5,-39.167 -5.5,-41.834 2.833,-3.333 6,-4.333 11,-5.5 5,-1.167 9.667,-2.501 13.667,-4.667 4,-2.166 9.499,-6.334 12.166,-7.5 2.667,-1.166 12.334,-2.667 16.667,-1 0.667,0.334 0.499,0.166 -0.667,1.5 m -46.7803,22.2959 c -0.7236,-0.7617 -1.1435,-0.0381 -0.7236,0.5332 7.6211,8.6504 16.5762,9.832 17.5674,9.832 1.0293,0 1.1435,-0.9902 0.0762,-1.1435 -8.8028,-1.6377 -13.4903,-5.6777 -16.92,-9.2217 z"
       inkscape:connector-curvature="0" /><path
       id="path184"
       style="fill:#f68a1e;fill-opacity:1;fill-rule:nonzero;stroke:none"
       d="m 314.8301,279.0527 -0.0606,-1.8906 c 3.7188,-3.4746 9.6924,-4.6328 17.9834,-6.9492 10.7901,-2.9873 14.9971,-7.5586 18.045,-8.7783 3.0478,-1.2198 7.0107,-2.2549 10.6679,-2.1944 3.6572,0.0606 7.6807,-0.0615 7.6201,1.8282 -1.4023,-0.3047 -3.1084,-0.8536 -6.9492,-0.7315 -3.8408,0.1221 -8.8388,0.4268 -14.082,3.5967 -5.2432,3.1699 -7.0723,5.1221 -12.1318,7.0723 -5.0596,1.9502 -13.4112,3.1709 -15.9717,4.4502 -2.5606,1.2793 -4.5713,3.1699 -4.7549,3.5966 -0.1836,0.4268 -0.3662,0 -0.3662,0 z"
       inkscape:connector-curvature="0" /><path
       id="path186"
       style="fill:#f68a1e;fill-opacity:1;fill-rule:nonzero;stroke:none"
       d="m 309.833,511.9165 c 0,-1.6665 0.5,-2.667 0.5,-3.5 0,-0.833 -0.416,-2.1665 -0.333,-3.1665 0,-2.0835 1.5,-8.8335 6.5,-15.3335 5.167,-1.4165 8.75,-1.25 11,1 2.25,2.25 4.583,5.333 4.583,11.5 0,2.8335 -0.833,4.417 -0.833,4.417 -4.375,4.375 -6.709,5.292 -10.167,8.75 -1.667,1.6665 -2.416,3.25 -2.416,3.25 -2.5,-4.167 -4.167,-6 -8.834,-6.917 z"
       inkscape:connector-curvature="0" /><path
       id="path188"
       style="fill:#f68a1e;fill-opacity:1;fill-rule:nonzero;stroke:none"
       d="m 343.167,497.4165 c 5.166,-1.833 9,-8.333 9.25,-19.333 0,-6.417 -0.917,-7.333 -1.167,-8 -0.25,-0.667 -1.083,-0.2505 -0.5,1.833 -2,-0.5 -5.167,-1.083 -5.167,-1.083 1.917,-1.5835 4.75,-2.75 5.667,-2.5835 0,1.4165 2.917,7.9165 2.917,12.6665 0,6.5835 -1.709,12.7085 -3.584,14.5835 -1.875,1.875 -2.834,2.0835 -3.5,2.0835 -0.666,0 -1.583,0.25 -3.916,-0.167 z"
       inkscape:connector-curvature="0" /><path
       id="path190"
       style="fill:#f68a1e;fill-opacity:1;fill-rule:nonzero;stroke:none"
       d="m 362.25,492.8335 c 0,-1.75 0.416,-1.3335 0.583,-5.5835 0.167,-4.25 -0.166,-7.4165 -2.833,-11.5 -2.667,-4.0835 -6.084,-5.6665 -7.417,-5.9165 -0.166,-1.0835 -0.166,-1.417 -0.166,-1.417 4.416,0.917 6.333,2.833 9.833,5.25 1.75,2.3335 4.583,8 4.583,11.8335 0,2.8335 -2.5,5.75 -4.583,7.3335 z"
       inkscape:connector-curvature="0" /><path
       id="path192"
       style="fill:#f68a1e;fill-opacity:1;fill-rule:nonzero;stroke:none"
       d="m 343.084,436.3335 c -0.6231,-2.7412 -1.668,-4.667 -2.084,-6.167 2.334,0 10.833,-2.4995 13,-4.333 0.25,-0.417 0.583,-0.75 0.5,0 -0.333,3.6665 0.668,7.583 1.084,8.1665 0.416,0.5835 0.416,0.5 -0.167,0.75 -3.833,1.75 -6.667,2.25 -12.333,1.5835 z"
       inkscape:connector-curvature="0" /><path
       id="path194"
       style="fill:#f68a1e;fill-opacity:1;fill-rule:nonzero;stroke:none"
       d="m 340.8125,428.8125 c -1.6875,0 -9.6875,-3.3125 -15,-8.4375 0.8125,-0.5625 1.1875,-1.1875 1.1875,-1.1875 1.9375,1.625 6,3.3125 7.4375,4 1.625,2.3125 5.4375,5 6.1875,5.3125 0.75,0.3125 0.1875,0.3125 0.1875,0.3125 z"
       inkscape:connector-curvature="0" /><path
       id="path196"
       style="fill:#f68a1e;fill-opacity:1;fill-rule:nonzero;stroke:none"
       d="m 327.75,418.917 0.917,-1.334 c 2.916,2.084 8.999,4.084 9.916,4.5005 0.917,0.4165 3.001,1.2495 4.584,1.583 1.583,0.3335 6.833,1.5835 8.083,1.5835 1.25,0 -0.833,1 -1.583,1 -0.75,0 -2.751,-5e-4 -5.834,-0.8335 -3.083,-0.833 -6.5,-2.5835 -8.25,-3.25 -1.75,-0.6665 -4.25,-1.4165 -5.333,-2.083 -1.083,-0.6665 -2.5,-1.1665 -2.5,-1.1665 z"
       inkscape:connector-curvature="0" /><path
       id="path198"
       style="fill:#f68a1e;fill-opacity:1;fill-rule:nonzero;stroke:none"
       d="m 363.167,424.75 c 0,0 -3.5,-3.3335 -3.917,-3.5835 0.083,-0.583 0.583,-1 0.583,-1 1,1.25 3.75,3.917 3.75,3.917 0.167,0.583 -0.416,0.6665 -0.416,0.6665 z"
       inkscape:connector-curvature="0" /><path
       id="path200"
       style="fill:#f68a1e;fill-opacity:1;fill-rule:nonzero;stroke:none"
       d="m 316.584,421.5 c -0.834,-0.75 -7.25,-7.166 -9.75,-9.833 -2.5,-2.667 -8.168,-9.584 -8.334,-9.917 1.917,0.25 4.834,-0.917 5.834,-4.917 2.5,1.834 2.916,2.584 4.416,3.584 1.5,1 4.75,3.5 7.417,5 2.667,1.5 7,4.666 12.833,7.5 0.584,0.5 -1.084,3.833 -2.5,5.25 -1.416,1.417 -5.833,3.9165 -9.916,3.333 z"
       inkscape:connector-curvature="0" /><path
       id="path202"
       style="fill:#f68a1e;fill-opacity:1;fill-rule:nonzero;stroke:none"
       d="m 298.334,400.417 -1.3335,-0.5 L 298,399 c 0.5,0.25 0.334,1.417 0.334,1.417 z"
       inkscape:connector-curvature="0" /><path
       id="path204"
       style="fill:#f68a1e;fill-opacity:1;fill-rule:nonzero;stroke:none"
       d="m 299.417,400.333 -0.25,-1.083 1.417,0.333 c -0.084,0.75 -1.167,0.75 -1.167,0.75 z"
       inkscape:connector-curvature="0" /><path
       id="path206"
       style="fill:#f68a1e;fill-opacity:1;fill-rule:nonzero;stroke:none"
       d="m 300.417,398.167 -1,-0.584 c 0.167,-0.416 0.667,-0.583 0.667,-0.583 z"
       inkscape:connector-curvature="0" /><path
       id="path208"
       style="fill:#f68a1e;fill-opacity:1;fill-rule:nonzero;stroke:none"
       d="m 301.417,397.25 0.833,0.167 c 0.167,0.416 -0.333,1.333 -0.833,-0.167 z"
       inkscape:connector-curvature="0" /><path
       id="path210"
       style="fill:#f68a1e;fill-opacity:1;fill-rule:nonzero;stroke:none"
       d="m 302.834,396.167 c -1,0 -2.084,-0.584 -1.334,-0.667 0.75,-0.083 2.168,0.667 1.334,0.667 z"
       inkscape:connector-curvature="0" /></g></svg>