<?xml version="1.0" encoding="UTF-8" standalone="no"?>
<svg
   xmlns:dc="http://purl.org/dc/elements/1.1/"
   xmlns:cc="http://creativecommons.org/ns#"
   xmlns:rdf="http://www.w3.org/1999/02/22-rdf-syntax-ns#"
   xmlns:svg="http://www.w3.org/2000/svg"
   xmlns="http://www.w3.org/2000/svg"
   version="1.1"
   id="svg5072"
   viewBox="0 0 102.24306 140.53253"
   height="39.661404mm"
   width="28.855265mm">
  <defs
     id="defs5074">
    <clipPath
       id="clipPath4586"
       clipPathUnits="userSpaceOnUse">
      <path
         style="clip-rule:evenodd"
         id="path4588"
         d="m 207.28,126.38 9.94,15.19 17.41,-2.79 0,29.95 -23.68,18.1 40.08,17.41 26.08,-20.89 33.92,18.11 16.22,-16.32 0,-63.77 -30.64,-2.23 -9.58,12.68 -42.65,-27.16 -37.1,21.72" />
    </clipPath>
  </defs>
  <metadata
     id="metadata5077">
    <rdf:RDF>
      <cc:Work
         rdf:about="">
        <dc:format>image/svg+xml</dc:format>
        <dc:type
           rdf:resource="http://purl.org/dc/dcmitype/StillImage" />
        <dc:title></dc:title>
      </cc:Work>
    </rdf:RDF>
  </metadata>
  <g
     transform="translate(-317.66815,-462.09594)"
     id="layer1">
    <g
       transform="matrix(0,1.25,1.25,0,176.10877,195.50099)"
       id="g4582">
      <g
         clip-path="url(#clipPath4586)"
         id="g4584">
        <path
           id="path4590"
           style="fill:#000000;fill-opacity:1;fill-rule:nonzero;stroke:none"
           d="m 259.193,185.296 c 0.334,1.512 0.426,2.847 0.284,3.094 -0.198,0.343 -6.275,5.985 -16.043,6.601 -13.12,0.827 -23.188,-8.652 -23.142,-11.085 0.032,-1.719 6.238,-5.724 18.584,-5.904 1.367,-0.02 2.826,0.006 4.335,0.051 3.689,-1.128 6.106,-3.372 10.18,-3.574 -0.967,-0.347 -1.91,-0.719 -2.807,-1.111 -6.313,-2.746 -10.015,-8.219 -8.994,-9.861 0.024,-0.037 0.05,-0.073 0.078,-0.107 -1.35,-2.595 -2.132,-6.491 -1.983,-9.895 -0.054,0.063 -0.118,0.104 -0.196,0.096 -0.428,-0.043 -0.622,-1.146 -0.373,-2.491 -0.249,0.598 -0.399,1.719 -0.822,1.694 -0.675,-0.04 -0.913,-3.685 1.644,-6.477 -1.022,0.797 -2.516,1.246 -2.691,0.722 -0.169,-0.506 2.511,-1.013 5.372,-4.909 0.937,-3.102 5.096,-6.629 9.829,-8.593 -4.3,-0.246 -7.114,-2.12 -16.313,-1.707 -0.793,0.22 -1.62,0.435 -2.49,0.641 -8.324,1.977 -18.956,2.788 -20.254,-0.229 -0.47,-1.091 0.538,-3.81 2.333,-6.253 1.94,-2.638 4.548,-4.822 5.539,-4.608 0.539,0.117 1.293,1.214 2.79,2.109 0.93,0.557 2.558,1.196 2.756,0.997 0.2,-0.2 -0.174,-5.182 0.798,-6.627 0.971,-1.444 8.861,-5.176 15.537,-4.553 10.409,0.971 21.517,10.259 25.257,18.833 0.804,0.128 1.708,0.389 2.684,0.867 4.311,2.109 7.843,5.567 10.318,9.594 1.747,-1.078 3.743,-3.817 6.431,-4.433 1.211,-0.278 2.929,-0.249 4.285,0.149 1.277,0.376 2.473,1.479 3.096,1.465 0.63,-0.014 1.498,-0.317 2.486,-0.736 0.134,-1.315 1.654,-2.951 3.221,-3.91 -0.64,-0.271 -1.375,-0.839 -1.722,-1.305 -0.104,0.008 -0.205,0.01 -0.298,0.006 -0.695,-0.032 -1.028,-0.814 -1.146,-1.675 -0.525,-0.343 -0.939,-0.835 -0.897,-1.364 0.08,-0.988 1.157,-1.572 2.13,-1.64 0.593,-0.812 1.86,-0.914 2.587,-0.519 0.805,-0.471 2.152,-0.815 3.291,-0.642 0.353,-0.175 0.773,-0.282 1.243,-0.288 0.529,-0.008 0.976,0.113 1.335,0.322 1.125,-0.205 2.059,0.295 2.558,1.037 0.884,-0.016 1.815,0.242 2.647,0.644 0.551,-0.748 1.417,-1.131 1.863,-0.708 0.378,0.359 0.02,1.173 -0.195,1.816 0.289,0.264 0.526,0.537 0.693,0.802 0.047,-0.175 0.114,-0.366 0.207,-0.575 0.548,-1.221 1.974,-1.819 2.628,-1.358 0.896,0.629 -0.699,2.501 -0.946,3.351 -0.172,0.59 -0.187,0.894 -0.229,1.113 1.73,0.835 -0.165,3.597 -0.497,5.563 -0.196,1.155 0.015,2.472 -0.028,3.29 0.224,-0.083 0.46,-0.14 0.703,-0.169 0.08,-0.197 0.151,-0.404 0.172,-0.614 0.052,-0.518 -0.163,-0.766 -0.1,-1.461 0.091,-1.004 1.382,-2.671 2.308,-2.192 0.908,0.469 -0.611,3.696 -0.548,4.55 0.027,0.354 0.393,0.656 0.637,1.07 0.109,-0.487 0.253,-1.124 0.493,-1.618 0.798,-1.645 3.075,-2.352 3.537,-1.694 0.602,0.857 -1.696,2.129 -1.827,5.364 -0.033,0.814 0.781,0.847 0.813,1.645 0.024,0.552 -0.192,1.001 -0.511,1.307 0.322,0.062 0.619,0.235 0.839,0.515 0.763,-0.747 1.759,-1.589 2.32,-1.071 0.644,0.594 0.067,2.262 -1.31,3.633 0.273,1.483 -0.264,2.681 -1.105,2.956 0.014,0.412 -0.009,0.884 -0.14,1.304 0.768,0.397 1.261,1.324 0.933,2.305 0.044,0.065 0.085,0.13 0.121,0.194 0.249,0.448 0.282,1.046 0.249,1.379 3.261,2.821 2.339,9.578 -1.744,11.958 0.421,0.806 -0.121,2.039 -1.787,2.193 -0.371,0.538 -1.085,0.936 -1.771,0.973 -1.493,2.652 -2.691,6.626 -6.077,8.174 -0.468,4.456 -5.598,6.502 -8.467,5.482 -1.756,-0.625 -1.419,-2.632 -2.033,-4.207 -2.819,0.023 -6.575,-0.401 -9.068,-1.31 -4.98,-1.817 -7.535,-4.561 -8.735,-7.042 -0.999,-2.064 -0.733,-4.223 -1.812,-6.199 -0.504,-0.926 -1.603,-0.962 -2.304,-1.675 -0.674,0.576 -1.411,1.108 -2.22,1.588 -1.608,0.955 -4.184,1.806 -4.8,2.154 -1.044,0.59 -2.704,3.283 -4.367,3.825 -0.104,0.034 -0.212,0.064 -0.32,0.095 -0.595,5.367 -4.386,8.718 -5.073,8.76 -0.25,0.016 -0.819,-0.611 -2.131,-1.453 -1.171,-0.751 -2.539,-1.264 -2.615,-1.137 -0.074,0.124 0.492,1.356 0.787,2.698" />
        <path
           id="path4592"
           style="fill:#5372a6;fill-opacity:1;fill-rule:nonzero;stroke:none"
           d="m 244.312,178.088 c 7.635,0.265 16.284,0.873 20.907,-1.267 -3.12,0.056 -6.946,-0.723 -10.548,-1.902 -4.348,0.219 -7.475,2.343 -10.359,3.169" />
        <path
           id="path4594"
           style="fill:#9d74a0;fill-opacity:1;fill-rule:nonzero;stroke:none"
           d="m 228.031,118.302 c -0.987,1.945 -0.605,6.146 -0.956,6.51 -0.224,0.232 -1.71,-0.083 -3.188,-0.896 -1.303,-0.718 -2.437,-1.94 -2.632,-1.952 -0.624,-0.039 -3.184,1.95 -5.082,4.409 -1.683,2.18 -2.786,4.793 -2.442,5.73 0.642,1.75 8.49,2.277 19.788,-0.25 7.919,-1.77 12.688,-4.984 19.39,-5.217 3.599,-0.126 6.489,0.641 8.653,1.679 -1.974,-2.363 -2.764,-7.422 -8.831,-11.082 -3.066,-1.678 -6.348,-2.87 -9.629,-3.216 -6.152,-0.647 -14.461,3.081 -15.071,4.285" />
        <path
           id="path4596"
           style="fill:#5372a6;fill-opacity:1;fill-rule:nonzero;stroke:none"
           d="m 310.271,129.617 c 0.082,0.234 0.126,0.479 0.123,0.726 -0.507,-1.231 -1.594,-1.679 -2.282,-1.675 0.233,0.355 0.356,0.784 0.356,1.243 0,1.039 -1.189,1.861 -2.492,1.793 -1.251,-0.065 -2.242,-0.797 -2.307,-1.854 -0.028,-0.454 0.14,-0.906 0.459,-1.276 -0.992,-0.059 -1.888,0.239 -2.552,0.556 -0.695,-0.385 -1.483,-0.281 -1.94,0.075 0.312,0.064 0.578,0.197 0.744,0.407 0.376,0.474 0.003,2.805 -1.03,3.022 -0.314,0.066 -0.784,-0.041 -1.232,-0.259 0.174,0.568 0.39,0.985 0.966,1.04 0.698,0.067 1.529,-0.282 1.795,-0.681 -0.025,0.572 -0.655,0.911 -1.279,1.046 0.372,0.394 1.164,0.861 1.847,1.073 0.677,-0.345 1.335,-0.542 1.864,-0.508 -2.087,0.75 -4.151,2.559 -4.552,4.244 1.529,-0.692 3.229,-1.502 4.752,-1.906 1.572,-0.417 3.073,-0.613 4.534,-0.232 1.444,0.375 2.08,1.736 2.714,1.863 0.582,0.116 0.847,-0.398 0.831,-0.681 -0.041,-0.702 -1.17,-1.54 -1.17,-2.395 0,-0.722 0.835,-1.489 1.767,-1.949 0.116,-0.76 -0.124,-1.523 -0.023,-2.369 0.029,-0.248 0.101,-0.485 0.201,-0.705 -0.783,-0.362 -1.558,-0.576 -2.094,-0.598" />
        <path
           id="path4598"
           style="fill:#0d2953;fill-opacity:1;fill-rule:nonzero;stroke:none"
           d="m 314.114,129.412 c -0.413,-0.325 -1.368,0.471 -1.594,1.562 -0.128,0.618 0.053,1.522 -0.035,2.179 0.534,-0.221 1.074,-0.334 1.488,-0.273 0.007,0.001 0.013,0.003 0.019,0.004 -0.032,-0.434 -0.189,-0.964 -0.177,-1.496 0.017,-0.714 0.532,-1.793 0.299,-1.976" />
        <path
           id="path4600"
           style="fill:#5372a6;fill-opacity:1;fill-rule:nonzero;stroke:none"
           d="m 314.91,132.266 c -0.183,-0.313 -0.433,-0.608 -0.728,-0.878 0,0.002 -0.001,0.004 -0.001,0.006 -0.03,0.563 0.138,1.155 0.151,1.653 0.218,0.187 0.343,0.489 0.41,0.736 0.014,-0.002 0.027,-0.002 0.04,-0.003 0.049,-0.168 0.097,-0.356 0.125,-0.569 0.035,-0.263 -0.017,-0.559 0.003,-0.945" />
        <path
           id="path4602"
           style="fill:#5372a6;fill-opacity:1;fill-rule:nonzero;stroke:none"
           d="m 315.709,139.659 c 0.177,-1.673 1.522,-4.38 0.666,-5.043 -0.481,0.273 -1.594,0.36 -1.754,0.003 -0.045,-0.101 -0.02,-0.238 0.03,-0.411 -0.751,0.164 -1.841,0.813 -1.911,1.694 -0.097,1.219 1.235,2.919 -0.025,3.587 0.822,-1.083 -0.564,-2.383 -0.551,-3.603 0.01,-1.02 1.035,-1.783 2.103,-2.029 -0.103,-0.286 -0.206,-0.527 -0.419,-0.558 -0.825,-0.124 -2.809,1.057 -2.827,2.005 -0.016,0.831 0.91,1.64 0.897,2.391 -0.013,0.686 -0.772,1.184 -1.295,1.134 -0.862,-0.082 -1.654,-1.318 -2.928,-1.62 -1.01,-0.239 -2.524,-0.263 -3.96,0.076 -3.239,0.763 -6.715,2.877 -8.603,2.856 -0.936,-0.011 -1.486,-0.713 -3.089,-1.196 -1.046,-0.315 -2.508,-0.481 -4.118,-0.166 -2.318,0.454 -4.404,2.988 -6.368,4.089 0.218,0.364 0.429,0.732 0.63,1.104 0.825,0.097 1.867,-0.123 2.496,-0.414 0.138,-0.205 0.285,-0.405 0.452,-0.593 1.098,-1.25 2.616,-2.025 3.155,-1.379 0.415,0.498 -1.478,1.611 -2.01,2.74 2.484,-2.196 5.578,-2.275 5.83,-1.361 0.132,0.481 -0.632,0.714 -1.03,0.963 1.172,-0.618 2.824,-0.72 2.974,-0.121 0.115,0.466 -0.981,0.718 -1.562,0.918 5.737,-0.992 7.103,2.588 12.187,4.042 0.101,-0.059 0.201,-0.117 0.301,-0.173 2.45,-1.382 5.353,-2.194 6.772,-1.768 1.026,0.308 1.361,1.266 2.163,1.867 0.332,0.249 1.046,0.449 1.262,0.3 0.216,-0.15 0.354,-1.099 0.15,-1.612 -0.3,-0.747 -1.263,-0.88 -1.296,-1.66 -0.038,-0.898 0.664,-1.95 1.682,-2.505 0.054,-0.91 -0.141,-2.267 -0.004,-3.557" />
        <path
           id="path4604"
           style="fill:#6ac6e0;fill-opacity:1;fill-rule:nonzero;stroke:none"
           d="m 297.332,153.053 c 1.593,-0.359 4.179,-2.35 6.696,-3.896 -4.031,-1.182 -7.081,-5.822 -14.011,-3.452 1.088,-1.047 3.305,-1.42 3.28,-1.769 -0.025,-0.349 -2.84,0.149 -4.957,1.843 0.822,-1.47 3.22,-2.309 3.089,-2.666 -0.175,-0.473 -3.065,-0.348 -5.63,2.044 0,-1.562 2.042,-2.94 1.943,-3.189 -0.146,-0.364 -1.545,0.446 -2.358,1.328 -0.932,1.009 -1.21,2.149 -2.125,2.89 1.22,2.831 1.947,5.811 2.098,8.72 1.253,-0.866 3.022,-1.998 5.06,-2.463 4.259,-0.971 6.072,0.8 6.915,0.61" />
        <path
           id="path4606"
           style="fill:#5372a6;fill-opacity:1;fill-rule:nonzero;stroke:none"
           d="m 284.45,143.928 c -0.582,0.257 -1.258,0.505 -2.014,0.513 0.251,0.487 0.486,0.979 0.707,1.478 0.503,-0.46 0.849,-1.229 1.307,-1.991" />
        <path
           id="path4608"
           style="fill:#0d2953;fill-opacity:1;fill-rule:nonzero;stroke:none"
           d="m 318.748,139.061 c -0.32,-0.175 -1.268,0.803 -1.462,1.777 -0.083,0.416 0.106,0.964 0.066,1.379 -0.066,0.697 -0.633,1.353 -0.514,1.561 0.114,0.199 0.902,-0.291 1.565,-0.326 -0.026,-0.084 -0.045,-0.169 -0.054,-0.255 -0.133,-1.261 0.891,-3.865 0.399,-4.136" />
        <path
           id="path4610"
           style="fill:#0d2953;fill-opacity:1;fill-rule:nonzero;stroke:none"
           d="m 322.667,141.303 c -0.133,-0.232 -1.674,0.133 -2.375,1.462 -0.315,0.598 -0.494,1.441 -0.581,1.743 -0.166,0.582 -0.479,1.218 -0.399,1.379 0.11,0.218 1.134,-0.074 1.782,0.173 0.096,-2.999 1.791,-4.376 1.573,-4.757" />
        <path
           id="path4612"
           style="fill:#0d2953;fill-opacity:1;fill-rule:nonzero;stroke:none"
           d="m 320.857,156.928 c 0.722,0.291 1.554,0.849 2.128,1.457 0.075,-0.83 -0.861,-2.159 -2.128,-1.457" />
        <path
           id="path4614"
           style="fill:#5372a6;fill-opacity:1;fill-rule:nonzero;stroke:none"
           d="m 320.724,171.678 c 0.375,0.013 0.677,0.119 0.903,0.285 3.606,-2.249 4.689,-8.328 1.571,-11.428 0.018,-0.217 0.15,-0.698 -0.116,-1.263 -0.448,-0.951 -2.313,-2.175 -3.139,-2.175 -0.44,0 -1.016,0.388 -1.227,0.772 0.917,0.266 1.726,0.704 1.958,1.321 -1.312,-1.129 -3.72,-1.163 -4.699,-0.997 -0.224,-0.958 -1.536,-1.453 -2.522,-0.974 0.23,0.258 0.37,0.6 0.362,1.023 -0.029,1.681 -3.207,2.701 -4.059,1.623 -0.418,0.597 -0.463,1.709 1.237,1.882 -0.588,0.211 -1.038,0.211 -1.356,0.073 -0.286,0.355 -0.654,1.087 -0.843,1.752 0.679,-0.091 1.081,0.419 1.617,0.766 -0.582,0.066 -0.83,-0.249 -1.428,-0.15 -0.558,0.093 -1.071,0.82 -1.112,1.698 0.34,-0.296 0.698,-0.498 0.945,-0.486 1.051,0.05 2.107,3.471 1.362,4.252 -0.18,0.19 -0.768,0.248 -1.328,0.209 0.695,1.006 2.247,1.207 2.723,0.173 0.072,0.413 -0.082,0.779 -0.37,1.012 0.731,0.479 1.962,1.104 2.987,1.405 0.28,-0.484 0.905,-0.747 1.601,-0.441 -0.533,0.045 -1.087,0.382 -1.112,1.03 -0.029,0.745 0.673,1.411 1.599,1.506 -0.256,-0.299 -0.412,-0.622 -0.403,-0.908 0.021,-0.691 1.608,-1.345 2.471,-1.41 0.864,-0.065 2.069,0.533 2.112,1.526 0.004,0.087 -0.005,0.174 -0.021,0.259 1.415,-0.314 1.412,-1.86 0.287,-2.335" />
        <path
           id="path4616"
           style="fill:#f2f3b7;fill-opacity:1;fill-rule:nonzero;stroke:none"
           d="m 265.87,173.312 c 0.867,-0.361 2.361,-1.841 2.231,-2.228 -0.068,-0.202 -0.278,-0.276 -0.481,-0.349 -0.741,0.762 -1.782,1.451 -2.586,1.578 0.282,0.417 0.564,0.751 0.836,0.999" />
        <path
           id="path4618"
           style="fill:#f2f3b7;fill-opacity:1;fill-rule:nonzero;stroke:none"
           d="m 268.079,169.134 c -0.057,-0.363 -0.768,-0.543 -1.165,-0.685 -0.933,0.722 -2.08,1.283 -3.116,1.464 0.342,0.849 0.71,1.573 1.08,2.16 1.407,-0.207 3.293,-2.36 3.201,-2.939" />
        <path
           id="path4620"
           style="fill:#f2f3b7;fill-opacity:1;fill-rule:nonzero;stroke:none"
           d="m 268.211,165.435 c -0.214,-0.984 -2.603,-0.841 -4.858,-2.101 -0.336,0.22 -0.692,0.397 -1.045,0.508 0.274,2.257 0.776,4.207 1.371,5.771 2.206,-0.396 4.857,-2.684 4.532,-4.178" />
        <path
           id="path4622"
           style="fill:#f2f3b7;fill-opacity:1;fill-rule:nonzero;stroke:none"
           d="m 264.488,160.99 c -0.079,-0.935 -1.636,-1.416 -2.397,-1.695 -0.005,0.259 -0.007,0.519 -0.007,0.783 0,1.215 0.069,2.368 0.189,3.454 0.96,-0.43 2.299,-1.564 2.215,-2.542" />
        <path
           id="path4624"
           style="fill:#782741;fill-opacity:1;fill-rule:nonzero;stroke:none"
           d="m 262.098,158.951 c 1.134,0.355 2.923,0.71 3.026,1.951 0.056,0.671 -0.627,1.594 -1.516,2.254 2.327,1.116 4.814,0.719 5.136,2.142 0.207,0.913 -0.47,1.99 -1.498,2.881 0.491,0.109 1.167,0.225 1.294,0.803 0.086,0.394 -0.215,0.961 -0.7,1.516 0.294,0.072 0.683,0.19 0.7,0.542 0.025,0.561 -1.24,1.947 -2.492,2.425 0.303,0.237 0.589,0.364 0.844,0.364 1.203,0 2.97,-2.125 4.309,-2.89 0.403,-0.23 0.846,-0.434 1.316,-0.633 -0.278,-0.171 -0.476,-0.518 -0.503,-0.856 -1.209,-0.376 -1.774,-1.611 -1.411,-2.273 0.153,-0.278 0.749,-0.159 1.33,-0.007 -0.021,-0.143 -0.02,-0.277 0.004,-0.395 -1.567,-0.614 -3.325,-2.659 -3.293,-5.194 0.003,-0.283 0.029,-0.564 0.072,-0.845 -3.416,-2.182 -3.502,-8.451 -0.139,-10.803 -0.143,-0.328 -0.269,-0.665 -0.373,-1.011 -0.576,0.08 -1.259,0.165 -2.029,0.442 -0.996,0.358 -2.173,1.005 -3.119,1.218 -0.052,0.256 -0.104,0.515 -0.153,0.777 1.442,0.57 2.714,2.079 2.593,3.15 -0.105,0.921 -2.189,1.842 -3.31,2.457 -0.043,0.643 -0.072,1.305 -0.088,1.985" />
        <path
           id="path4626"
           style="fill:#782741;fill-opacity:1;fill-rule:nonzero;stroke:none"
           d="m 265.554,135.194 c 0.307,0.538 0.488,1.109 0.567,1.722 1.399,0.218 2.703,1.192 2.615,2.025 -0.075,0.711 -0.769,1.051 -1.325,1.108 0.945,0.805 1.664,1.867 1.523,2.528 -0.106,0.493 -0.73,0.775 -1.238,0.883 0.276,0.216 0.541,0.457 0.787,0.713 0.684,-1.203 1.871,-1.882 3.183,-2.071 0.016,-0.257 0.058,-0.528 0.124,-0.799 -0.69,0.202 -1.208,0.631 -1.598,0.428 -0.722,-0.375 -0.472,-2.319 0.645,-3.234 -0.189,-0.458 -0.128,-1.091 0.17,-1.503 -1.835,-1.011 -3.534,-1.603 -4.763,-1.802 -0.259,-0.042 -0.487,-0.036 -0.69,0.002" />
        <path
           id="path4628"
           style="fill:#782741;fill-opacity:1;fill-rule:nonzero;stroke:none"
           d="m 270.497,153.278 c -0.577,-0.919 -1.214,-1.873 -1.715,-2.901 -3.319,2.621 -2.965,8.041 0.028,9.852 0.51,-2.325 1.999,-4.601 1.687,-6.951" />
        <path
           id="path4630"
           style="fill:#df4d72;fill-opacity:1;fill-rule:nonzero;stroke:none"
           d="m 271.998,157.379 c 0.089,-1.131 -0.383,-2.216 -1.034,-3.334 -0.206,2.635 -1.903,4.533 -1.839,7.519 0.048,2.285 1.582,4.141 2.959,4.91 0.384,-0.43 1.202,-0.132 1.761,-0.037 -0.163,-0.43 -0.152,-0.842 0.113,-1.136 0.493,-0.55 1.403,-0.12 2.186,-0.058 -0.748,-0.599 -1.203,-1.351 -0.94,-1.869 0.437,-0.864 1.763,-0.723 2.865,-1.099 0.492,-0.168 1.236,-0.553 1.98,-0.67 0.114,-0.259 0.218,-0.575 0.31,-0.94 -0.801,-0.397 -1.629,-1.319 -1.601,-1.844 0.021,-0.398 0.992,-1.275 2.031,-1.588 0.022,-0.641 0.018,-1.302 -0.017,-1.959 -1.032,-0.246 -1.899,-0.909 -1.926,-1.423 -0.032,-0.58 0.685,-1.459 1.388,-2.035 -0.145,-0.493 -0.32,-0.941 -0.527,-1.333 -0.658,-0.01 -1.45,-0.228 -1.972,-0.375 -0.279,-0.078 -2.148,-0.186 -2.474,-0.963 -0.234,-0.559 0.159,-1.782 0.815,-2.809 -0.87,0.084 -2.106,0.23 -2.421,-0.17 -0.304,-0.386 -0.203,-1.572 0.229,-2.704 -0.67,0.094 -1.481,0.323 -1.861,0.025 -0.24,-0.187 -0.356,-0.595 -0.365,-1.088 -1.261,0.289 -2.264,1.05 -2.813,2.177 1.011,1.212 1.569,2.656 1.02,3.599 -0.242,0.415 -0.634,0.569 -1.149,0.667 1.04,3.5 4.071,6.261 3.282,8.537" />
        <path
           id="path4632"
           style="fill:#f2f3b7;fill-opacity:1;fill-rule:nonzero;stroke:none"
           d="m 276.074,141.108 c -0.015,-0.151 -0.054,-0.298 -0.117,-0.437 -0.39,-0.382 -0.789,-0.744 -1.191,-1.085 -0.531,-0.214 -1.119,-0.239 -1.56,0.04 -1.121,0.71 -1.425,3.099 -0.921,3.525 0.288,0.245 1.17,0.053 1.711,0.035 0.443,-1.013 1.153,-1.92 2.078,-2.078" />
        <path
           id="path4634"
           style="fill:#f2f3b7;fill-opacity:1;fill-rule:nonzero;stroke:none"
           d="m 271.313,138.567 c -1.269,0.839 -1.288,2.538 -0.947,2.803 0.209,0.162 0.538,-0.194 1.507,-0.364 0.218,-0.696 0.594,-1.341 1.097,-1.649 0.019,-0.011 0.039,-0.022 0.059,-0.032 -0.227,-0.7 -1.222,-1.085 -1.716,-0.758" />
        <path
           id="path4636"
           style="fill:#f2f3b7;fill-opacity:1;fill-rule:nonzero;stroke:none"
           d="m 269.349,147.875 c 0.86,-1.785 -2.291,-5.092 -4.161,-5.212 -0.625,2.125 -1.434,4.623 -2.069,7.62 0.847,-0.243 2.016,-0.915 2.902,-1.269 1.719,-0.688 3.008,-0.474 3.328,-1.139" />
        <path
           id="path4638"
           style="fill:#f2f3b7;fill-opacity:1;fill-rule:nonzero;stroke:none"
           d="m 265.27,142.385 c 0.67,0.049 1.387,0.353 2.057,0.808 0.485,-0.141 0.979,-0.396 1.058,-0.813 0.142,-0.737 -1.228,-2.362 -2.385,-2.928 -0.16,0.892 -0.42,1.865 -0.73,2.933" />
        <path
           id="path4640"
           style="fill:#f2f3b7;fill-opacity:1;fill-rule:nonzero;stroke:none"
           d="m 266.046,139.174 c 0.357,0.153 0.721,0.373 1.066,0.634 0.576,-0.057 1.059,-0.284 1.143,-0.932 0.082,-0.633 -1.075,-1.437 -2.102,-1.649 0.046,0.606 0.003,1.252 -0.107,1.947" />
        <path
           id="path4642"
           style="fill:#bb506f;fill-opacity:1;fill-rule:nonzero;stroke:none"
           d="m 271.091,138.316 c 0.699,-0.421 1.852,0.094 2.125,0.919 0.32,-0.125 0.675,-0.141 1.026,-0.077 -1.023,-0.817 -2.061,-1.505 -3.064,-2.069 -0.223,0.346 -0.204,0.871 -0.087,1.227" />
        <path
           id="path4644"
           style="fill:#bb506f;fill-opacity:1;fill-rule:nonzero;stroke:none"
           d="m 276.303,141.085 c 0.023,-0.001 0.046,-0.001 0.069,-0.001 -0.026,-0.026 -0.052,-0.052 -0.077,-0.078 0.004,0.026 0.005,0.053 0.008,0.079" />
        <path
           id="path4646"
           style="fill:#f2f3b7;fill-opacity:1;fill-rule:nonzero;stroke:none"
           d="m 276.611,141.335 c -2.221,-0.092 -2.959,4.059 -2.645,4.469 0.297,0.389 1.768,0.148 2.421,0.087 0.411,-0.536 0.887,-0.969 1.367,-1.143 0.38,-0.139 0.701,-0.16 0.982,-0.109 0.058,-0.161 0.089,-0.343 0.084,-0.546 -0.679,-1.008 -1.424,-1.927 -2.209,-2.758" />
        <path
           id="path4648"
           style="fill:#bb506f;fill-opacity:1;fill-rule:nonzero;stroke:none"
           d="m 278.993,144.71 c 0.115,0.043 0.224,0.097 0.326,0.161 -0.091,-0.15 -0.184,-0.298 -0.279,-0.444 -0.008,0.098 -0.024,0.193 -0.047,0.283" />
        <path
           id="path4650"
           style="fill:#f2f3b7;fill-opacity:1;fill-rule:nonzero;stroke:none"
           d="m 279.681,145.489 c -0.513,-0.461 -1.105,-0.688 -1.728,-0.467 -1.185,0.42 -2.496,3.202 -2.21,3.882 0.263,0.627 1.773,0.709 2.211,0.832 0.695,0.196 1.897,0.605 2.43,0.219 0.476,-0.344 0.675,-0.878 0.679,-1.472 -0.39,-1.066 -0.858,-2.062 -1.382,-2.994" />
        <path
           id="path4652"
           style="fill:#bb506f;fill-opacity:1;fill-rule:nonzero;stroke:none"
           d="m 280.581,150.283 c -0.114,0.083 -0.256,0.136 -0.418,0.167 0.153,0.346 0.287,0.719 0.404,1.114 0.279,-0.191 0.536,-0.317 0.715,-0.329 0.236,-0.018 0.441,0.058 0.609,0.172 -0.162,-0.788 -0.365,-1.547 -0.604,-2.274 -0.09,0.461 -0.311,0.865 -0.706,1.15" />
        <path
           id="path4654"
           style="fill:#f2f3b7;fill-opacity:1;fill-rule:nonzero;stroke:none"
           d="m 281.991,151.924 c -0.184,-0.222 -0.38,-0.346 -0.626,-0.308 -0.497,0.079 -2.043,1.659 -2.043,2.176 0,0.611 1.575,1.232 2.375,1.162 0.286,-0.024 0.478,-0.161 0.605,-0.408 -0.053,-0.908 -0.159,-1.782 -0.311,-2.622" />
        <path
           id="path4656"
           style="fill:#bb506f;fill-opacity:1;fill-rule:nonzero;stroke:none"
           d="m 281.68,155.37 c -0.173,0.007 -0.347,-0.002 -0.52,-0.024 0.031,0.603 0.035,1.208 0.016,1.8 0.399,-0.06 0.791,-0.017 1.129,0.186 0.025,-0.45 0.039,-0.915 0.039,-1.398 0,-0.314 -0.008,-0.623 -0.02,-0.93 -0.17,0.201 -0.395,0.356 -0.644,0.366" />
        <path
           id="path4658"
           style="fill:#f2f3b7;fill-opacity:1;fill-rule:nonzero;stroke:none"
           d="m 282.282,157.681 c -1.059,-0.687 -3.093,0.81 -3.093,1.193 0,0.398 0.997,1.428 1.694,1.611 0.428,0.111 0.792,-0.02 1.048,-0.219 0.166,-0.794 0.285,-1.654 0.351,-2.585" />
        <path
           id="path4660"
           style="fill:#bb506f;fill-opacity:1;fill-rule:nonzero;stroke:none"
           d="m 280.75,160.817 c -0.018,-0.005 -0.036,-0.012 -0.055,-0.018 -0.072,0.276 -0.151,0.534 -0.236,0.772 0.369,0 0.725,0.093 1.039,0.336 0.138,-0.423 0.26,-0.869 0.368,-1.338 -0.3,0.201 -0.739,0.345 -1.116,0.248" />
        <path
           id="path4662"
           style="fill:#f2f3b7;fill-opacity:1;fill-rule:nonzero;stroke:none"
           d="m 281.409,162.177 c -1.002,-0.742 -2.584,0.272 -3.233,0.483 -1.176,0.383 -2.194,0.256 -2.507,0.897 -0.363,0.741 2.003,2.936 3.857,2.127 0.748,-0.958 1.397,-2.109 1.883,-3.507" />
        <path
           id="path4664"
           style="fill:#f2f3b7;fill-opacity:1;fill-rule:nonzero;stroke:none"
           d="m 276.5,165.5 c -0.922,0.033 -1.749,-0.303 -2.16,0.05 -0.706,0.604 0.692,2.451 2.42,2.689 0.85,-0.574 1.674,-1.268 2.417,-2.129 -0.852,0.24 -1.873,-0.083 -2.677,-0.61" />
        <path
           id="path4666"
           style="fill:#f2f3b7;fill-opacity:1;fill-rule:nonzero;stroke:none"
           d="m 276.401,168.473 c -1.041,-0.169 -2.03,-0.986 -2.451,-1.801 -0.547,-0.071 -1.276,-0.231 -1.52,0.057 -0.456,0.536 0.725,2.449 2.392,2.597 0.486,-0.226 0.976,-0.479 1.461,-0.778 0.039,-0.025 0.079,-0.05 0.118,-0.075" />
        <path
           id="path4668"
           style="fill:#f2f3b7;fill-opacity:1;fill-rule:nonzero;stroke:none"
           d="m 270.902,167.41 c -0.306,0.499 0.423,1.759 1.544,1.877 0.276,0.029 0.589,-0.006 0.808,-0.214 -0.641,-0.413 -1.093,-1.067 -1.262,-1.638 -0.371,-0.072 -0.974,-0.214 -1.09,-0.025" />
        <path
           id="path4670"
           style="fill:#bb506f;fill-opacity:1;fill-rule:nonzero;stroke:none"
           d="m 274.482,169.481 c -0.384,-0.021 -0.739,-0.133 -1.054,-0.304 -0.21,0.26 -0.609,0.428 -1.072,0.356 -0.053,-0.009 -0.102,-0.022 -0.153,-0.033 0.057,0.239 0.237,0.537 0.566,0.699 0.547,-0.228 1.124,-0.456 1.713,-0.718" />
        <path
           id="path4672"
           style="fill:#f2f3b7;fill-opacity:1;fill-rule:nonzero;stroke:none"
           d="m 262.826,151.776 c -0.268,1.483 -0.483,3.081 -0.612,4.805 0.986,-0.525 2.546,-1.291 2.669,-2.116 0.125,-0.835 -1.003,-2.185 -2.057,-2.689" />
        <path
           id="path4674"
           style="fill:#5372a6;fill-opacity:1;fill-rule:nonzero;stroke:none"
           d="m 267.764,176.544 c -0.47,0.104 -0.97,0.179 -1.497,0.224 -0.365,0.323 -0.796,0.605 -1.288,0.849 0.215,1.921 -0.095,4.762 -1.148,6.435 1.748,-1.525 3.487,-4.88 3.933,-7.508" />
        <path
           id="path4676"
           style="fill:#9d74a0;fill-opacity:1;fill-rule:nonzero;stroke:none"
           d="m 263.08,184.59 c 0.005,-0.003 0.01,-0.005 0.015,-0.008 1.49,-1.502 1.729,-5.408 1.609,-6.834 -5.884,2.655 -19.247,0.55 -25.837,0.805 -14.584,0.565 -18.278,4.679 -18.302,5.348 -0.069,1.949 10.22,11.183 22.819,10.33 7.252,-0.492 12.968,-3.912 15.611,-6.103 -0.1,-3.388 -1.196,-5.481 -0.847,-5.83 0.348,-0.348 3.039,0.648 4.932,2.292" />
        <path
           id="path4678"
           style="fill:#000000;fill-opacity:1;fill-rule:nonzero;stroke:none"
           d="m 252.418,151.982 c 0.049,-0.842 0.963,-1.233 2.287,-1.146 2.127,1.218 3.786,3.59 4.502,5.886 -1.527,-1.735 -6.901,-2.816 -6.789,-4.74" />
        <path
           id="path4680"
           style="fill:#0d2953;fill-opacity:1;fill-rule:nonzero;stroke:none"
           d="m 252.415,164.725 c 0.155,0.587 0.972,0.688 2.156,0.38 -0.793,0.295 -1.608,0.451 -2.386,0.429 -4.168,-0.123 -7.174,-3.213 -7.24,-7.839 -0.066,-4.684 3.554,-8.005 7.274,-7.673 0.693,0.062 1.362,0.259 1.995,0.559 -1.126,-0.028 -2.247,0.329 -2.31,1.351 -0.157,2.573 5.951,3.153 7.46,5.353 0.135,0.551 0.215,1.092 0.228,1.605 0.018,0.659 -0.119,1.311 -0.373,1.935 -2.144,2.429 -7.15,2.59 -6.804,3.9" />
        <path
           id="path4682"
           style="fill:#000000;fill-opacity:1;fill-rule:nonzero;stroke:none"
           d="m 252.941,164.686 c -0.231,-0.692 3.686,-1.214 5.987,-3.249 -0.569,1.041 -1.456,1.975 -2.489,2.688 -1.241,0.648 -3.311,1.124 -3.498,0.561" />
        <path
           id="path4684"
           style="fill:#6ac6e0;fill-opacity:1;fill-rule:nonzero;stroke:none"
           d="m 261.585,172.185 c -0.087,2.418 -2.252,2.95 -4.377,2.912 -2.185,-0.549 -4.386,-1.288 -6.418,-2.156 -3.305,-1.415 -5.728,-3.456 -7.188,-5.278 -1.32,-2.569 0.907,-3.455 4.092,-3.044 1.245,0.944 2.789,1.495 4.525,1.545 0.622,0.019 1.262,-0.076 1.896,-0.26 3.536,0.791 7.573,3.425 7.47,6.281" />
        <path
           id="path4686"
           style="fill:#5372a6;fill-opacity:1;fill-rule:nonzero;stroke:none"
           d="m 268.627,135.366 c -0.866,-0.331 -1.637,-0.546 -2.259,-0.647 -1.22,-0.199 -1.783,0.514 -1.918,1.146 0.191,-0.221 0.461,-0.466 0.838,-0.601 1.812,4.148 -3.13,10.753 -3.593,22.966 -0.5,0.106 -1.225,0.202 -1.734,0.216 -0.345,-3.78 -3.576,-8.749 -7.742,-9.122 -3.981,-0.355 -7.811,3.327 -7.739,8.338 0.039,2.781 1.069,5.08 2.755,6.583 -2.326,-0.412 -5.068,-0.349 -4.744,1.751 -0.511,-0.98 -0.647,-1.774 -0.386,-2.182 0.398,-0.622 1.246,-0.772 2.142,-0.722 -0.668,-0.31 -1.506,-0.345 -2.099,-0.063 -2.159,-4.278 -2.507,-10.356 -1.587,-13.837 -0.465,1.06 -0.737,2.353 -0.843,3.751 -0.046,0.09 -0.096,0.144 -0.154,0.135 -0.149,-0.025 -0.523,-2.641 1.121,-5.481 -1.37,1.096 -2.018,4.535 -2.292,4.509 -0.404,-0.036 -0.149,-4.06 2.99,-6.825 -0.872,0.199 -2.068,1.32 -3.338,1.494 1.581,-0.91 3.46,-2.535 4.399,-3.788 -0.013,0.12 -0.022,0.24 -0.023,0.359 -0.029,2.292 1.793,3.587 3.786,4.119 -1.031,-0.434 -3.445,-1.86 -3.388,-4.152 0.031,-1.206 0.89,-2.661 2.318,-4.113 -0.995,1.348 -1.57,2.694 -1.454,3.847 0.164,1.641 2.372,3.38 4.155,4.029 2.058,1.021 5.49,2.121 6.747,1.942 1.57,-0.225 5.605,-4.21 6.651,-7.972 1.104,-3.968 0.276,-8.304 -4.289,-8.208 1.629,-0.379 3.295,-0.584 4.937,-0.553 -2.453,-0.565 -5.291,-0.201 -8.027,0.729 -3.844,-0.099 -8.042,-2.138 -16.45,-1.537 6.324,-1.868 10.403,-3.926 15.543,-4.074 5.905,-0.169 10.053,1.763 12.555,3.787 -0.687,-0.8 -1.807,-1.749 -3.347,-2.573 -1.89,-2.335 -2.437,-5.813 -5.649,-9.006 5.288,3.77 9.514,8.693 11.298,12.465 -0.765,-0.069 -1.42,-0.025 -1.937,0.044 1.594,0.398 3.222,0.465 5.048,1.362 0.492,0.24 0.972,0.504 1.444,0.783 -1.622,-0.384 -3.622,0.407 -3.735,1.101" />
        <path
           id="path4688"
           style="fill:#6ac6e0;fill-opacity:1;fill-rule:nonzero;stroke:none"
           d="m 261.236,141.046 c -1.046,3.762 -5.081,7.747 -6.651,7.972 -1.257,0.179 -4.689,-0.921 -6.747,-1.942 0.021,0.007 0.043,0.016 0.063,0.023 -1.727,-1.096 -3.222,-2.491 -3.322,-4.251 -0.113,-2.011 1.128,-3.974 3.133,-5.821 2.527,-1.806 5.798,-3.388 9.235,-4.189 4.565,-0.096 5.393,4.24 4.289,8.208" />
        <path
           id="path4690"
           style="fill:#5372a6;fill-opacity:1;fill-rule:nonzero;stroke:none"
           d="m 257.208,175.097 c 2.125,0.038 4.29,-0.494 4.377,-2.912 0.103,-2.856 -3.934,-5.49 -7.47,-6.281 3.058,-0.89 5.956,-3.92 5.876,-6.98 -10e-4,-0.055 -0.006,-0.111 -0.008,-0.166 0.519,-0.008 1.224,-0.083 1.701,-0.187 -0.015,0.486 -0.023,0.979 -0.023,1.482 0,8.547 3.314,14.2 5.231,14.2 1.163,0 2.512,-1.524 3.748,-2.524 0.113,0.399 0.863,0.651 1.991,0.555 -1.477,0.95 -2.755,2.967 -4.303,3.413 -2.78,0.8 -6.922,0.453 -11.12,-0.6" />
        <path
           id="path4692"
           style="fill:#6ac6e0;fill-opacity:1;fill-rule:nonzero;stroke:none"
           d="m 270.64,171.729 c 0.257,-0.207 0.508,-0.393 0.753,-0.536 1.53,-0.901 3.319,-1.262 5.198,-2.392 2.873,-1.726 6.211,-5.307 6.211,-12.92 0,-12.016 -8.869,-18.479 -14.175,-20.515 0.113,-0.694 2.113,-1.485 3.735,-1.101 12.534,7.428 17.806,27.856 4.967,35.719 -2.279,1.396 -3.587,1.628 -4.584,2.226 -0.038,0.023 -0.075,0.049 -0.114,0.074 -1.128,0.096 -1.878,-0.156 -1.991,-0.555" />
        <path
           id="path4694"
           style="fill:#0d2953;fill-opacity:1;fill-rule:nonzero;stroke:none"
           d="m 308.779,165.882 c -0.395,-0.019 -1.185,0.884 -1.295,1.445 -0.113,0.569 0.161,1.498 0.598,1.806 0.336,0.236 1.544,0.448 1.793,0.187 0.567,-0.596 -0.392,-3.404 -1.096,-3.438" />
        <path
           id="path4696"
           style="fill:#0d2953;fill-opacity:1;fill-rule:nonzero;stroke:none"
           d="m 316.323,173.688 c -0.016,0.53 1.196,1.311 1.926,1.328 0.731,0.017 1.744,-0.531 1.711,-1.296 -0.033,-0.763 -0.997,-1.178 -1.661,-1.129 -0.664,0.05 -1.959,0.565 -1.976,1.097" />
        <path
           id="path4698"
           style="fill:#0d2953;fill-opacity:1;fill-rule:nonzero;stroke:none"
           d="m 310.095,159.622 c -0.366,-0.482 0.183,-1.745 0.963,-2.143 1.04,-0.531 2.345,-0.287 2.326,0.831 -0.021,1.184 -2.667,2.127 -3.289,1.312" />
        <path
           id="path4700"
           style="fill:#0d2953;fill-opacity:1;fill-rule:nonzero;stroke:none"
           d="m 307.887,129.994 c 0,-0.931 -0.648,-1.744 -1.811,-1.727 -1.162,0.016 -2.043,0.83 -1.993,1.644 0.05,0.814 0.93,1.345 1.893,1.395 1.002,0.052 1.911,-0.513 1.911,-1.312" />
        <path
           id="path4702"
           style="fill:#0d2953;fill-opacity:1;fill-rule:nonzero;stroke:none"
           d="m 300.031,129.878 c -0.396,-0.502 -2.597,-0.169 -2.69,0.98 -0.05,0.614 1.245,1.544 1.876,1.411 0.795,-0.167 1.104,-2.026 0.814,-2.391" />
        <path
           id="path4704"
           style="fill:#0d2953;fill-opacity:1;fill-rule:nonzero;stroke:none"
           d="m 324.461,149.204 c -0.383,-0.353 -1.757,1.047 -2.18,1.458 -0.424,0.41 -1.595,1.768 -1.395,2.142 0.199,0.373 1.37,0.124 2.13,-0.611 1.151,-1.113 1.837,-2.627 1.445,-2.989" />
        <path
           id="path4706"
           style="fill:#0d2953;fill-opacity:1;fill-rule:nonzero;stroke:none"
           d="m 316.314,134.295 c 0.134,-0.214 0.088,-0.722 0.287,-1.407 0.199,-0.685 1.208,-2.317 0.747,-2.641 -0.461,-0.324 -1.444,0.299 -1.83,1.121 -0.387,0.822 -0.275,1.47 -0.325,1.843 -0.072,0.545 -0.383,1.095 -0.298,1.283 0.112,0.25 1.295,0 1.419,-0.199" />
        <path
           id="path4708"
           style="fill:#000000;fill-opacity:1;fill-rule:nonzero;stroke:none"
           d="m 304.2,131.272 c 0.614,1.977 3.404,1.844 4.65,0.581 -0.788,2.621 -4.817,1.562 -4.65,-0.581" />
        <path
           id="path4710"
           style="fill:#1b4a7d;fill-opacity:1;fill-rule:nonzero;stroke:none"
           d="m 290.116,176.677 c 0.715,1.644 -0.099,1.976 0.649,3.703 0.743,1.719 3.375,2.453 5.081,2.209 1.091,-0.156 2.258,-0.98 3.305,-0.631 1.072,0.357 1.272,1.479 1.239,2.596 -2.363,-0.201 -5.022,-0.695 -7.168,-1.484 -3.749,-1.378 -7.091,-3.949 -8.569,-6.725 -0.554,-1.042 -0.844,-2.756 -1.295,-4.266 1.541,1.087 5.974,2.792 6.758,4.598" />
        <path
           id="path4712"
           style="fill:#5372a6;fill-opacity:1;fill-rule:nonzero;stroke:none"
           d="m 304.008,188.751 c -1.521,-0.556 -1.193,-2.424 -1.876,-3.763 1.769,-0.035 3.121,-0.253 3.471,-0.647 -1.017,0.332 -2.983,0.403 -5.213,0.213 0.033,-1.117 -0.167,-2.239 -1.239,-2.596 -1.047,-0.349 -2.214,0.475 -3.305,0.631 -1.706,0.244 -4.338,-0.49 -5.081,-2.209 -0.748,-1.727 0.066,-2.059 -0.649,-3.703 -0.784,-1.806 -5.217,-3.511 -6.758,-4.598 -0.203,-0.681 -0.439,-1.32 -0.748,-1.838 -0.194,-0.324 -0.465,-0.585 -0.76,-0.82 -0.023,-0.713 0.34,-1.536 -0.415,-2.132 2.851,-3.231 4.072,-7.457 3.942,-11.883 0.959,-0.679 3.185,-2.153 5.13,-2.453 3.886,-0.597 5.306,0.847 6.452,0.673 1.709,-0.26 6.267,-3.588 8.469,-4.509 2.09,-0.873 4.563,-1.828 6.029,-1.52 0.852,0.18 1.559,1.083 2.258,1.495 0.565,0.332 1.346,0.481 1.694,0.216 0.323,-0.245 0.482,-1.444 0.3,-2.076 -0.23,-0.793 -1.047,-0.951 -1.047,-1.544 0,-1.006 1.038,-2.115 1.981,-2.346 -0.084,0.224 -0.125,0.424 -0.038,0.585 0.217,0.401 1.044,-0.19 1.935,-0.139 0.167,0.334 0.401,0.662 0.554,1.019 -1.434,0.061 -2.87,1.396 -2.97,2.242 -0.1,0.848 0.88,1.179 0.947,2.691 0.497,-1.162 -0.632,-2.192 -0.549,-2.624 0.121,-0.628 1.236,-1.629 2.463,-1.692 -0.051,0.23 -0.069,0.446 -0.005,0.612 0.185,0.479 1.318,0.069 2.117,0.409 0.054,0.761 0.459,0.838 0.541,1.435 0.069,0.515 -0.169,1.04 -0.569,1.378 -0.1,0.033 -0.199,0.077 -0.295,0.133 -0.515,0.299 -2.342,1.993 -2.442,3.521 -0.099,1.528 1.014,1.793 1.611,2.092 -0.394,-0.569 -1.316,-0.614 -1.245,-2.025 0.056,-1.133 1.566,-2.668 2.291,-3.057 0.435,-0.232 0.995,-0.185 1.284,0.186 -0.113,0.115 -0.215,0.219 -0.304,0.304 -0.605,0.588 -1.671,1.999 -1.382,2.541 0.279,0.524 1.511,0.438 2.438,-0.139 0.102,0.869 -0.073,1.829 -0.956,2.108 0.089,0.537 -0.063,1.086 -0.215,1.434 -0.466,-0.067 -0.974,0.049 -1.442,0.424 -0.17,-0.043 -0.33,-0.069 -0.469,-0.065 -0.69,0.015 -1.311,0.545 -1.571,1.063 -0.69,-0.164 -1.407,-0.236 -1.966,-0.216 -0.546,-1.09 -2.266,-1.573 -3.386,-0.677 -0.6,-0.313 -1.444,-0.304 -2.194,0.079 -0.992,0.507 -1.474,1.668 -1.273,2.469 -0.246,0.335 -0.404,0.695 -0.468,1.034 -2.015,0.482 -5.165,2.747 -6.273,6.402 -0.029,0.097 -0.053,0.193 -0.078,0.289 -2.979,1.151 -6.193,-1.88 -8.815,0.194 2.822,-1.257 6.095,1.005 8.638,0.689 -0.561,4.059 2.306,7.533 3.345,8.902 -0.196,-0.766 -3.776,-5.182 -2.391,-9.715 0.974,-3.192 3.117,-5.617 5.541,-6.398 0.003,0.258 0.069,0.49 0.196,0.673 -0.47,0.598 -0.752,1.589 -0.817,2.189 -0.591,0.342 -1.013,1.373 -0.925,2.561 -0.284,0.324 -0.513,0.69 -0.583,1.008 -0.161,0.734 0.201,1.875 0.864,2.341 0.118,0.083 0.323,0.149 0.565,0.195 0.778,1.316 1.748,1.651 2.423,1.465 0.972,0.832 2.29,1.363 3.267,1.624 -0.007,0.051 -0.011,0.102 -0.011,0.154 0,1.055 1.073,1.973 2.616,1.86 0.365,0.294 0.822,0.523 1.293,0.609 -1.479,2.413 -3.399,7.618 -8.559,8.857 0.822,-0.019 1.554,-0.147 2.213,-0.358 -0.596,3.819 -5.445,5.524 -7.586,4.743" />
        <path
           id="path4714"
           style="fill:#1b4a7d;fill-opacity:1;fill-rule:nonzero;stroke:none"
           d="m 281.85,169.421 c -0.48,-0.384 -1.021,-0.702 -1.383,-1.133 0.342,-0.321 0.663,-0.655 0.968,-0.999 0.755,0.596 0.392,1.419 0.415,2.132" />
        <path
           id="path4716"
           style="fill:#1b4a7d;fill-opacity:1;fill-rule:nonzero;stroke:none"
           d="m 323.813,165.185 c 0,-3.538 -3.065,-5.157 -5.132,-5.232 -3.71,-0.134 -6.135,2.32 -6.178,4.833 -0.049,2.94 2.406,5.064 5.256,5.281 2.712,0.207 6.054,-1.705 6.054,-4.882" />
        <path
           id="path4718"
           style="fill:#000000;fill-opacity:1;fill-rule:nonzero;stroke:none"
           d="m 321.189,165.683 c -1.428,-1.479 -4.019,-1.926 -6.494,-1.412 1.512,-0.996 4.883,-1.029 6.494,1.412" />
        <path
           id="path4720"
           style="fill:#000000;fill-opacity:1;fill-rule:nonzero;stroke:none"
           d="m 245.443,151.135 c -1.644,2.267 -2.616,5.206 -1.171,8.968 -1.52,-2.616 -1.71,-6.264 1.171,-8.968" />
        <path
           id="path4722"
           style="fill:#000000;fill-opacity:1;fill-rule:nonzero;stroke:none"
           d="m 243.973,150.861 c -1.221,1.594 -1.719,3.288 -1.544,5.68 -0.673,-2.093 -0.175,-4.31 1.544,-5.68" />
        <path
           id="path4724"
           style="fill:#000000;fill-opacity:1;fill-rule:nonzero;stroke:none"
           d="m 252.966,146.95 c 0.374,0.075 1.022,0.224 1.445,0.249 -2.366,0.449 -6.626,-1.27 -6.826,-4.608 -0.16,-2.68 1.682,-4.988 3.962,-5.93 2.291,-0.946 5.495,-0.064 6.252,2.442 1.064,3.526 -1.221,6.75 -4.833,7.847" />
        <path
           id="path4726"
           style="fill:#000000;fill-opacity:1;fill-rule:nonzero;stroke:none"
           d="m 254.112,167.028 c 0.498,0.05 1.296,0.175 1.644,0.224 -1.444,-0.897 -8.22,-1.245 -8.793,1.146 -0.442,1.841 2.424,3.639 4.658,4.384 2.999,1 6.022,0.84 6.701,-0.921 0.798,-2.067 -2.078,-3.853 -4.21,-4.833" />
        <path
           id="path4728"
           style="fill:#a8e3fa;fill-opacity:1;fill-rule:nonzero;stroke:none"
           d="m 251.471,170.881 c 0.146,-0.656 -0.348,-1.213 -1.328,-1.445 -0.826,-0.196 -1.561,0.1 -1.677,0.648 -0.139,0.654 0.502,1.226 1.295,1.428 0.913,0.232 1.578,-0.033 1.71,-0.631" />
        <path
           id="path4730"
           style="fill:#a8e3fa;fill-opacity:1;fill-rule:nonzero;stroke:none"
           d="m 250.441,145.555 c -0.707,0.149 -1.245,-0.465 -1.444,-1.163 -0.182,-0.635 -0.052,-1.384 0.648,-1.577 0.78,-0.216 1.328,0.282 1.528,1.113 0.199,0.83 -0.1,1.494 -0.732,1.627" />
        <path
           id="path4732"
           style="fill:#000000;fill-opacity:1;fill-rule:nonzero;stroke:none"
           d="m 258.845,147.149 c 1.395,-1.046 2.915,-2.715 2.915,-4.434 0.797,1.221 -1.171,3.712 -2.915,4.434" />
        <path
           id="path4734"
           style="fill:#000000;fill-opacity:1;fill-rule:nonzero;stroke:none"
           d="m 258.746,166.729 c 1.096,0.573 2.167,1.346 2.915,2.541 0.049,-0.921 -1.471,-2.366 -2.915,-2.541" />
      </g>
    </g>
  </g>
</svg>
