<?xml version="1.0" encoding="UTF-8" standalone="no"?>
<!-- Generator: Adobe Illustrator 15.0.0, SVG Export Plug-In . SVG Version: 6.00 Build 0)  -->

<svg
   xmlns:dc="http://purl.org/dc/elements/1.1/"
   xmlns:cc="http://creativecommons.org/ns#"
   xmlns:rdf="http://www.w3.org/1999/02/22-rdf-syntax-ns#"
   xmlns:svg="http://www.w3.org/2000/svg"
   xmlns="http://www.w3.org/2000/svg"
   xmlns:sodipodi="http://sodipodi.sourceforge.net/DTD/sodipodi-0.dtd"
   xmlns:inkscape="http://www.inkscape.org/namespaces/inkscape"
   version="1.1"
   id="ƒŒƒCƒ_x201E__x7C__1"
   x="0px"
   y="0px"
   width="197px"
   height="228px"
   viewBox="0 0 197 228"
   enable-background="new 0 0 197 228"
   xml:space="preserve"
   sodipodi:docname="tails.svg"
   inkscape:version="0.92.4 (5da689c313, 2019-01-14)"><metadata
   id="metadata131"><rdf:RDF><cc:Work
       rdf:about=""><dc:format>image/svg+xml</dc:format><dc:type
         rdf:resource="http://purl.org/dc/dcmitype/StillImage" /></cc:Work></rdf:RDF></metadata><defs
   id="defs129" /><sodipodi:namedview
   pagecolor="#ffffff"
   bordercolor="#666666"
   borderopacity="1"
   objecttolerance="10"
   gridtolerance="10"
   guidetolerance="10"
   inkscape:pageopacity="0"
   inkscape:pageshadow="2"
   inkscape:window-width="1366"
   inkscape:window-height="715"
   id="namedview127"
   showgrid="false"
   inkscape:zoom="2.0701754"
   inkscape:cx="97.330357"
   inkscape:cy="146.2388"
   inkscape:window-x="-8"
   inkscape:window-y="22"
   inkscape:window-maximized="1"
   inkscape:current-layer="ƒŒƒCƒ_x201E__x7C__1" />
<g
   id="g124"
   transform="matrix(1.0608074,0,0,1.0608074,-6.1750356,-6.7017072)">
	<path
   d="m 177.904,101.367 c -9.89,-11.661 -26.766,-19.728 -25.019,-41.786 -6.995,5.05 -9.316,25.249 -9.316,37.555 -0.141,-0.066 -0.532,0.521 -0.532,0.529 -1.356,-2.868 -2.537,-6.149 -3.194,-9.786 -0.932,0.876 -0.89,0.297 -1.331,1.851 -0.441,1.504 -0.615,2.694 -0.798,4.761 -0.424,4.645 -0.366,9.728 0.532,14.017 0.083,0.413 0.225,0.934 0.266,1.058 0.208,0.71 0.366,1.099 0.532,1.587 0.724,2.165 0.533,2.107 -1.863,2.38 0,0 -1.098,0.323 -1.597,0 -1.106,-0.719 -0.59,-3.661 -1.331,-4.76 -0.815,-1.198 -2.138,-1.637 -2.928,-3.174 -3.053,-5.909 -7.162,-0.256 -11.179,-1.322 -0.873,-0.24 -3.585,-3.711 -4.258,-4.496 -0.283,-0.331 -0.283,-0.727 -0.533,-1.058 -2.212,-2.852 -6.313,-6.157 -9.315,-8.199 1.771,-1.363 6.679,-5.884 8.517,-6.611 4.5,-1.802 13.25,3.165 16.769,4.231 -0.449,-4.521 -4.084,-7.396 -7.453,-9.785 0.2,-0.099 0.757,-0.694 1.064,-0.793 3.876,-1.314 7.794,-0.794 12.51,-0.794 -2.812,-3.843 -8.708,-5.43 -14.106,-6.611 3.46,-2.802 6.928,-5.587 11.445,-7.405 -0.765,-0.339 0.158,-0.769 -2.129,-1.058 -4.683,-0.604 -8.8,0.479 -13.042,1.058 1.389,-2.669 3.002,-4.893 4.791,-7.141 0.732,-0.934 1.539,-1.587 2.396,-2.38 0.308,-0.289 0.749,-0.834 1.064,-1.058 -2.786,-0.099 -5.148,1.752 -7.719,2.116 -1.015,0.141 -0.848,-0.496 -1.331,-0.529 1.089,-8.009 7.561,-38.679 1.597,-45.753 -0.549,-0.645 -1.355,-1.157 -2.662,-1.058 -7.369,0.537 -22.1,12.224 -26.616,16.662 -1.206,1.173 -4.122,6.231 -5.323,6.347 -6.408,0.617 -11.7,2.035 -11.7,2.035 0,0 -9.134,-8.474 -12.569,-10.962 -3.618,-2.62 -8.053,-3.61 -13.526,-4.296 -2.745,-0.347 -5.573,-0.971 -8.493,-0.239 -2.919,0.731 -0.823,1.297 -0.823,1.297 3.136,1.355 6.646,2.843 9.582,4.231 1.563,0.735 2.994,1.091 4.525,1.851 1.106,0.545 2.295,1.306 3.194,2.116 0.549,0.488 0.391,0.587 0.798,1.322 -3.976,-0.537 -17.375,-3.124 -21.027,-0.529 -1.214,0.852 -0.657,2.859 -0.266,3.967 0.848,2.455 3.46,6.083 3.46,6.083 0,0 -4.681,3.546 -7.475,7.539 -1.373,1.942 -3.247,5.168 -4.158,8.789 -0.163,0.648 7.724,-6.046 12.432,-9.187 0.258,-0.182 0.79,-0.099 1.064,-0.264 1.697,-1.05 1.702,-0.798 3.041,0.945 0.998,1.306 1.717,1.649 2.282,3.55 -3.402,2.637 -5.872,7.033 -6.92,11.901 -1.056,4.834 -1.882,9.308 -1.221,15.639 0.208,1.986 0.68,1.791 1.221,0.493 1.381,-3.339 2.521,-6.827 3.993,-10.05 1.123,-2.496 5.905,-11.132 8.251,-11.636 1.705,-0.372 3.136,1.396 3.993,2.116 2.071,1.727 2.57,4.173 3.992,6.611 1.813,3.116 4.442,6.174 6.388,9.256 -0.05,0.008 0,0.967 0,1.058 -2.387,-0.355 -6.405,-1.182 -4.791,1.322 0.932,1.446 2.179,2.364 3.194,3.703 -0.083,0.058 0,0.934 0,1.058 -1.381,0.224 -2.662,0.62 -3.727,1.058 1.115,2.083 4.966,3.256 4.525,6.347 -0.108,0.719 -1.347,2.033 -1.597,2.909 -0.258,0.868 0.113,2.349 -0.533,2.909 -0.812,0.706 -10.771,3.843 -12.775,8.199 -1.472,3.182 -0.424,7.025 0.266,10.05 0,0.008 0.324,1.363 0.532,1.322 0.216,-0.05 -1.065,2.116 -1.065,2.116 -1.988,3.496 -4.034,7.215 0,10.05 -0.906,1.802 -0.74,2.636 -1.064,4.76 -0.2,1.24 -1.913,2.033 -2.129,3.438 -0.416,2.662 1.206,4.157 2.129,5.554 3.402,5.149 7.003,9.141 15.97,7.934 l 0.266,0.793 c -0.316,0.207 -0.773,0.611 -1.064,0.793 -5.057,3.049 -13.042,1.834 -16.236,-2.116 -3.843,-4.76 -4.633,-12.711 -3.993,-21.157 1.705,-22.752 -4.666,-39.621 -18.099,-47.34 -2.038,-1.174 -4.258,-1.793 -6.654,-1.852 4.466,7.488 8.708,14.935 4.258,26.183 -0.823,-2.405 -1.639,-4.868 -2.928,-6.876 -0.74,-1.149 -1.289,-1.207 -2.662,-1.852 0.583,7.372 0.2,14.125 -1.597,20.364 -3.626,12.545 -13,26.628 -8.784,43.901 1.073,4.405 3.585,8.199 5.589,11.637 5.099,8.752 13.466,13.513 24.221,16.662 -0.308,2.281 -2.404,8.463 -1.065,11.372 1.339,2.901 6.771,2.86 10.913,3.174 14.282,1.058 25.494,-1.207 36.997,-4.231 3.743,-0.992 6.546,-2.876 10.647,-3.703 5.639,8.19 29.843,34.042 45.514,27.769 2.079,-0.834 5.132,-2.893 5.589,-5.29 0.507,-2.744 -0.981,-4.38 -1.331,-6.083 -0.565,-2.719 -0.833,-4.97 -1.366,-7.515 -1.064,-5.066 -2.776,-9.444 -4.224,-14.171 22.283,2.463 33.47,-2.735 42.32,-16.132 13.834,-20.95 12.262,-51.058 -3.192,-69.29 z m -93.956,44.167 c 0.208,-1.529 0.607,-2.612 0.799,-3.703 0.416,-2.488 0.161,-4.851 1.117,-6.354 2.275,0 4.023,5.131 5.271,7.941 0.666,1.504 1.098,2.281 1.597,4.231 -2.346,-2.214 -4.309,-2.471 -8.784,-2.115 z M 102.58,134.69 c -1.181,-0.992 -3.94,-5.164 -3.94,-5.164 0,0 1.825,-4.134 1.925,-7.175 0.142,-4.479 -1.793,-7.843 -2.243,-11.728 -0.458,-3.95 0.416,-6.785 2.928,-7.934 -0.957,-1.446 -0.807,-1.727 -0.532,-3.173 2.079,1.347 11.179,11.083 10.913,13.752 -0.333,3.165 -5.057,6.347 -2.928,11.636 0.69,1.728 1.963,1.116 3.46,2.116 0.458,0.306 0.274,1.008 0.532,1.586 1.015,2.314 3.069,2.835 6.122,3.174 0.666,4.934 1.896,7.604 3.726,11.107 -9.999,1.101 -14.765,-3.849 -19.963,-8.197 z"
   id="path2"
   inkscape:connector-curvature="0" />
	<path
   d="m 95.394,189.964 c 2.404,9.38 29.719,33.1 43.384,28.827 3.111,-0.984 4.608,-1.852 5.589,-5.025 0,0 -0.465,-1.38 -0.532,-1.587 -1.464,2.05 -3.385,3.769 -5.855,4.76 -12.052,4.818 -33.262,-16.248 -38.594,-22.48 -1.131,-1.322 -1.93,-3.372 -3.46,-4.231 z"
   id="path4"
   inkscape:connector-curvature="0"
   style="fill:#bfbfbf" />
	<path
   d="m 92.998,187.849 c -10.497,4.042 -20.104,6.843 -33.803,8.463 -3.086,0.355 -7.354,0.461 -11.355,0.114 -4.101,-0.364 -8.274,-1.437 -11.002,-1.437 1.913,4.678 11.329,4.05 17.301,4.496 13.383,0.991 29.003,-5.224 39.126,-8.463 0.265,-1.397 0.074,-2.049 -0.267,-3.173 z"
   id="path6"
   inkscape:connector-curvature="0"
   style="fill:#bfbfbf" />
	<path
   d="m 95.127,169.336 c -0.632,5.604 -1.498,15.207 1.064,19.57 0.749,1.281 2.263,2.24 3.46,3.174 0.782,-9.893 3.809,-15.901 7.452,-22.48 -4.557,0.67 -7.692,0.983 -11.976,-0.264 z"
   id="path8"
   inkscape:connector-curvature="0"
   style="fill:#da2032" />
	<path
   d="m 116.42,167.22 c -10.214,0.008 -13.009,10.223 -14.639,19.042 -0.366,1.926 -1.198,6.422 -0.266,8.728 2.154,5.364 24.886,22.918 34.069,21.422 1.534,-0.252 5.183,-1.32 6.473,-4.204 1.157,-2.588 0.805,-7.246 0.189,-10.301 -2.362,-11.718 -8.396,-25.66 -17.955,-33.075 -1.731,-1.343 -5.06,-1.62 -7.871,-1.612 z"
   id="path10"
   inkscape:connector-curvature="0"
   style="fill:#ffffff" />
	<path
   d="m 65.051,165.897 c -1.647,0.058 -3.701,1.579 -5.057,2.116 -8.342,3.281 -14.24,6.934 -18.897,13.752 -1.206,1.752 -5.415,8.1 -3.194,11.637 0.499,0.802 2.637,0.769 3.726,1.058 11.304,3.009 26.883,0.331 36.73,-2.645 -0.374,-0.19 0.316,-1.033 0.266,-1.058 0,0 -0.915,-9.917 -1.064,-10.579 -1.073,-4.66 -7.154,-14.495 -12.51,-14.281 z"
   id="path12"
   inkscape:connector-curvature="0"
   style="fill:#ffffff" />
	<path
   d="m 89.804,163.782 c -0.824,0.116 -2.537,1.273 -3.46,1.587 -3.976,1.314 -9.307,1.29 -12.776,-0.265 -0.906,-0.413 -2.662,-0.529 -2.662,-0.529 -1.339,0.273 -1.93,0.769 -2.662,1.058 5.814,3.95 9.89,9.215 10.913,17.984 0.183,1.579 -0.025,7.405 1.863,7.405 0.815,-0.008 12.643,-4.554 12.776,-4.76 0,-0.091 0,-0.173 0,-0.265 0,-2.876 -0.615,-7.835 -0.532,-11.372 0.033,-1.785 0.874,-4.711 0.532,-6.612 -0.257,-1.388 -1.829,-4.545 -3.992,-4.231 z"
   id="path14"
   inkscape:connector-curvature="0"
   style="fill:#da2032" />
	<path
   d="m 115.888,161.137 c -1.223,1.992 -2.454,3.604 -3.727,5.554 3.261,-0.487 6.837,-0.487 10.114,0 -0.424,-0.735 -0.341,-1.017 -0.798,-1.587 -1.43,-1.785 -3.36,-2.925 -5.589,-3.967 z"
   id="path16"
   inkscape:connector-curvature="0"
   style="fill:#da2032" />
	<path
   d="m 89.005,159.815 c -0.458,0.042 -1.613,1.132 -2.129,1.322 -2.295,0.827 -4.491,0.975 -7.186,1.322 -1.655,0.207 -3.993,-0.091 -5.323,-0.264 -2.953,-0.389 -0.233,1.983 0.798,2.38 3.21,1.215 13.791,-0.207 14.905,-2.116 0.616,-1.065 0.665,-2.818 -1.065,-2.644 z"
   id="path18"
   inkscape:connector-curvature="0"
   style="fill:#404040" />
	<path
   d="m 114.025,159.021 c -2.346,2.207 -4.292,4.661 -7.453,6.083 -3.177,1.422 -7.752,2.364 -11.711,1.323 0.432,1.165 -0.092,1.157 1.597,1.851 8.534,3.513 16.552,-2.124 18.365,-8.992 z"
   id="path20"
   inkscape:connector-curvature="0"
   style="fill:#404040" />
	<path
   d="m 145.964,152.674 c 0.399,1.363 0.732,2.967 1.065,4.231 2.803,-1.455 5.24,-3.025 7.719,-4.76 -0.009,-0.017 0.729,-1.707 0.539,-1.269 -2.314,-0.474 -7.526,1.335 -9.323,1.798 z"
   id="path22"
   inkscape:connector-curvature="0"
   style="fill:#faa61a" />
	<path
   d="M 105.242,149.5"
   id="path24"
   inkscape:connector-curvature="0"
   style="fill:#ffffff" />
	<path
   d="m 128.664,148.972 c -5.339,-0.099 -4.466,2.223 0.533,1.851 2.403,-0.182 0.906,-1.826 -0.533,-1.851 z"
   id="path26"
   inkscape:connector-curvature="0"
   style="fill:#ffffff" />
	<path
   d="m 86.61,146.327 c -2.678,0.272 -2.42,1.306 -1.597,3.173 0.491,-0.396 0.416,-0.521 0.798,-1.058 l 1.064,1.322 c -2.079,1.612 -5.614,3.033 -8.783,3.438 -1.489,0.182 -2.853,-0.116 -3.992,-0.265 -0.108,-0.545 -1.414,-1.769 0.266,-1.851 0,0 1.198,0.727 1.331,0.793 0.724,-0.521 0.266,-1.322 0.266,-1.322 -1.497,-4.091 -7.411,0.182 -8.251,2.38 -1.955,5.1 6.288,5.025 10.646,5.025 0,0.033 -0.042,0.777 0,0.793 -1.805,0.198 -4.45,0.265 -6.654,0.265 2.087,1.661 3.976,2.942 8.517,2.38 2.396,-0.306 5.548,-1.281 7.719,-2.116 0.133,-1.132 -0.349,-3.736 0.266,-5.554 0.699,-2.107 4.991,-4.289 2.396,-6.347 -0.948,-0.75 -2.038,-1.262 -3.992,-1.056 z"
   id="path28"
   inkscape:connector-curvature="0"
   style="fill:#ffffff" />
	<path
   d="m 107.104,144.74 c -4.625,0.099 -3.318,1.802 -2.129,4.496 0.308,-0.24 0.973,-1 1.331,-1.058 2.029,-0.355 2.87,1.306 2.129,2.909 -0.707,1.496 -11.129,6.835 -14.106,5.29 -0.932,-0.488 -0.524,-1.182 -0.799,-2.38 1.106,0.545 0.549,-0.331 1.331,1.322 0.291,-0.148 0.99,0 1.331,0 -0.823,-2.678 -1.148,-4.397 -3.194,-5.818 -7.328,6.926 -4.184,10.314 5.589,10.314 -0.64,0.314 -1.489,1.182 -2.662,1.322 -1.588,0.173 -2.845,-0.074 -4.259,-0.265 0.666,6.827 11.254,4.926 15.97,2.38 1.78,-0.967 3.859,-2.636 5.057,-4.231 0.574,-0.785 1.688,-2.405 1.597,-3.703 -0.274,-3.802 -4.184,1.19 -5.057,1.852 -0.025,-0.017 -1.064,-0.793 -1.064,-0.793 4.259,-3 9.782,-11.885 -1.065,-11.637 z"
   id="path30"
   inkscape:connector-curvature="0"
   style="fill:#ffffff" />
	<path
   d="m 72.237,142.096 c -1.713,2.396 -4.333,4.025 -6.654,5.818 -1.555,1.19 -3.635,3.396 -5.323,4.231 -7.211,3.537 -15.471,-2.108 -19.43,-4.761 1.114,3.231 3.377,7.083 6.122,9.521 0.258,0.231 1.622,1.537 1.863,1.587 0.624,0.107 -2.304,0.173 -4.525,-1.058 -2.87,-1.595 -5.714,-4.388 -7.719,-6.876 -1.472,-1.818 -2.794,-3.471 -4.524,-5.025 0.033,0.272 -0.241,1.207 0.266,1.058 0.433,2.107 0.923,3.628 1.597,5.29 0.574,1.413 0.74,2.256 1.331,3.703 2.612,6.421 -3.028,0.396 -4.259,-1.058 -2.52,-2.967 -4.034,-5.926 -1.863,0.529 0.632,1.884 1.089,2.852 1.863,4.496 1.531,3.265 4.134,7.083 6.654,9.521 1.705,1.653 3.427,2.413 4.791,4.496 -1.339,-0.149 -1.963,0.008 -3.194,-0.265 -6.388,-1.446 -11.22,-5.802 -15.97,-8.992 0.399,1.521 0.466,2.405 1.065,3.702 2.986,6.496 8.633,9.249 12.509,14.546 -1.181,0 -2.354,0.066 -3.992,0 1.505,0.678 3.002,1.397 5.057,1.851 8.451,-12.066 17.026,-17.339 33.537,-21.422 -0.599,-5.289 -7.952,-6.727 -3.727,-11.637 1.622,-1.9 3.452,-3.074 6.122,-3.967 0,-0.05 0.724,0 0.798,0 -0.208,-1.504 -0.474,-2.215 -0.798,-3.173 -0.607,-1.744 -0.324,-1.165 -1.597,-2.115 z"
   id="path32"
   inkscape:connector-curvature="0"
   style="fill:#faa61a" />
	<path
   d="m 79.69,136.013 c 0.648,1.612 2.495,8.81 3.46,5.818 1.306,-4.075 0.923,-5.231 -3.46,-5.818 z"
   id="path34"
   inkscape:connector-curvature="0"
   style="fill:#faa61a" />
	<path
   d="m 71.705,133.632 c 1.098,5.347 3.194,9.273 4.791,14.017 1.688,5.033 1.838,4.694 6.92,2.645 -0.391,-2.81 -4.267,-14.215 -5.855,-15.339 -1.373,-0.967 -3.977,-1.05 -5.856,-1.323 z"
   id="path36"
   inkscape:connector-curvature="0"
   style="fill:#faa61a" />
	<path
   d="m 158.208,132.045 c -4.367,0.62 -22.566,17.29 -6.122,15.075 4.167,-0.57 7.586,-4.157 7.985,-8.463 0.108,-1.207 0,-3.702 0,-3.702 -0.191,-1.637 0.275,-3.224 -1.863,-2.91 z"
   id="path38"
   inkscape:connector-curvature="0"
   style="fill:#ffffff" />
	<path
   d="m 97.064,130.751 c -0.815,3.587 3.354,9.716 4.983,13.195 4.992,-1.646 9.449,-0.81 11.978,2.645 1.971,2.694 -0.216,9.521 2.129,12.959 1.114,1.637 5.498,4.157 7.187,5.818 4.625,4.529 9.199,10.984 12.509,16.662 0.69,1.19 1.156,2.165 1.863,3.173 2.462,-1.264 6.305,-1.066 9.316,-1.851 6.229,-1.645 13.35,-4.314 18.365,-7.405 -6.538,0.248 -14.832,3.409 -21.826,2.116 -6.993,-1.293 0,-1.322 0,-1.322 1.863,-0.215 2.795,-0.306 4.259,-0.793 7.136,-2.405 14.123,-6.71 19.164,-11.372 0.707,-0.661 0.757,-1.256 1.331,-2.116 -6.555,3.215 -13.849,4.628 -21.826,6.612 0,0 -2.767,0.203 -0.532,-1.058 2.235,-1.26 3.46,-1.661 5.057,-2.645 4.7,-2.925 11.678,-7.322 14.106,-12.43 -5.814,1.694 -11.428,3.876 -17.833,5.29 -0.258,2.24 -0.466,4.868 -1.331,6.612 -1.58,3.141 -11.969,10.331 -14.905,3.967 -1.38,-2.983 1.006,-6.38 1.331,-8.728 0.366,-2.71 -0.133,-5.603 -0.532,-7.669 -3.335,-0.876 -7.827,-1.413 -10.646,-2.116 -6.338,-1.587 4.076,-1.934 6.122,-2.38 -0.682,-1.042 -0.715,-1.355 -1.597,-2.116 -0.316,-0.272 -1.015,-1.182 -1.331,-1.322 -1.664,-0.76 -3.785,0.05 -5.589,0 -2.67,-0.091 -5.525,-0.948 -7.719,-1.851 -8.433,-3.475 -9.076,-8.751 -14.033,-11.875 z"
   id="path40"
   inkscape:connector-curvature="0"
   style="fill:#faa61a" />
	<path
   d="m 165.395,128.872 c -1.306,0.049 -3.352,1.57 -4.525,2.116 0.773,5.678 0.141,9.612 -2.129,13.224 l 0.266,1.322 c 10.704,-1.191 10.638,-16.852 6.388,-16.662 z"
   id="path42"
   inkscape:connector-curvature="0"
   style="fill:#ffffff" />
	<path
   d="m 168.588,127.55 c -0.674,1.777 -0.258,2.744 0.266,5.289 0.408,2.017 -0.724,7.248 1.597,5.29 3.41,-2.91 1.705,-9.166 -1.863,-10.579 z"
   id="path44"
   inkscape:connector-curvature="0"
   style="fill:#ffffff" />
	<path
   d="m 51.477,125.698 c -1.697,0.331 -1.505,1.852 -1.597,3.174 1.356,0 2.396,0.116 3.46,0.265 0.441,-1.679 1.214,-4.05 -1.863,-3.439 z"
   id="path46"
   inkscape:connector-curvature="0"
   style="fill:#ffffff" />
	<path
   d="m 59.728,119.087 c -3.568,3.363 -5.814,8.256 -3.726,14.281 0.499,1.455 0.674,2.744 1.863,3.438 1.173,0.678 3.186,1.099 4.259,1.587 1.239,0.562 -2.188,0.173 -2.662,0 -1.248,-0.463 -1.755,-0.818 -2.662,-1.323 -1.064,0.951 -0.94,0.422 -0.798,2.38 -0.191,0 -0.915,-0.116 -1.065,0 -0.391,-3.488 0.807,-10.934 -4.524,-8.992 -1.007,0.363 -1.772,0.686 -2.129,1.586 -1.331,3.298 1.672,6.157 2.928,7.934 0.848,1.199 1.88,3.017 3.194,3.703 3.968,2.058 12.51,2.339 15.704,-0.529 0.507,-0.463 2.038,-2.198 2.129,-2.909 0.15,-1.272 -1.556,-6.678 -2.396,-7.405 -0.607,-0.529 -1.705,-0.372 -2.396,-0.793 -1.622,-0.992 -3.785,-3.43 -4.791,-5.024 -1.323,-2.1 -1.797,-5.852 -2.928,-7.934 z"
   id="path48"
   inkscape:connector-curvature="0"
   style="fill:#ffffff" />
	<path
   d="m 59.728,115.12 c -1.198,0.802 -2.32,1.769 -3.194,2.909 -0.666,0.851 -1.589,2.066 -1.863,3.174 -0.274,1.066 0.025,1.289 0,2.116 1.496,-1.836 7.402,-6.233 5.057,-8.199 z"
   id="path50"
   inkscape:connector-curvature="0"
   style="fill:#404040" />
	<path
   d="m 131.592,113.004 c -4.333,0.504 -16.461,10.967 -13.308,16.926 0.149,0.29 0.964,0.364 1.064,0.529 2.113,-8.438 7.627,-13.05 14.905,-16.397 -0.782,-0.372 -0.79,-1.281 -2.661,-1.058 z"
   id="path52"
   inkscape:connector-curvature="0"
   style="fill:#404040" />
	<path
   d="m 61.325,107.715 c -5.448,-0.199 -18.199,13.231 -9.316,16.661 0,0 0.99,-0.38 1.065,-0.529 0.915,-1.951 0.482,-4 1.597,-5.554 0.108,-0.166 0.657,-0.405 0.799,-0.529 1.198,-1.14 2.462,-3.256 3.992,-3.967 0.532,-0.256 1.148,0.099 1.597,-0.265 1.28,-1.065 2.553,-5.743 0.266,-5.817 z"
   id="path54"
   inkscape:connector-curvature="0"
   style="fill:#ffffff" />
	<path
   d="m 173.113,106.128 c -0.832,0.074 -2.471,1.115 -3.194,1.587 -7.686,4.901 -13.117,13.372 -21.825,17.19 -1.09,0.471 -1.813,0.339 -3.194,0.529 0,-0.042 0.033,-0.793 0,-0.793 3.876,-1.306 7.777,-3.207 9.848,-6.347 -12.61,-5.818 -23.988,-4.355 -30.875,5.554 -1.905,2.728 -4.275,6.29 -3.46,11.637 1.447,9.579 11.761,9.86 13.042,19.835 0.558,4.422 -3.693,13.769 1.331,14.546 4,0.612 7.153,-2 8.783,-3.967 5.49,-6.653 -2.229,-17.1 1.597,-24.331 0.848,-1.62 2.121,-2.801 3.46,-3.967 1.131,-1 2.221,-1.976 3.46,-2.909 5.515,-4.199 12.568,-5.595 18.898,-9.256 2.894,-1.686 8.758,-12.248 5.855,-17.19 -0.632,-1.085 -1.929,-2.3 -3.726,-2.118 z"
   id="path56"
   inkscape:connector-curvature="0"
   style="fill:#ffffff" />
	<path
   d="m 96.458,105.334 c -2.986,2.231 -6.072,5.19 -6.654,9.785 -0.308,2.413 0.647,5.012 0.798,6.876 0.512,6.306 -2.289,10.156 -7.539,11.381 2.046,0.273 2.304,0.822 4.375,0.525 4.051,5.694 6.582,15.393 10.616,21.153 1.514,-0.446 2.77,-1.017 3.992,-1.586 3.261,-1.529 1.988,-2.529 0.799,-5.29 -1.181,-2.728 -3.16,-6.648 -4.557,-9.202 -1.272,-2.323 -3.675,-7.7 -3.675,-7.7 0,0 4.854,-4.346 4.375,-11.725 -0.184,-2.834 -1.841,-6.357 -1.999,-9.457 -0.123,-2.322 0.999,-3.76 -0.531,-4.76 z"
   id="path58"
   inkscape:connector-curvature="0"
   style="fill:#faa61a" />
	<path
   d="m 124.938,104.276 c -6.113,0.818 -22.075,17.496 -13.042,21.422 1.173,-2.289 2.262,-5.116 3.46,-7.405 0.183,-0.008 0.915,-0.355 1.331,-0.529 -0.89,2.157 -2.055,3.951 -2.662,6.083 -0.907,3.132 -0.25,5.273 2.396,6.347 1.905,-9.942 6.995,-17.108 17.034,-18.777 -0.607,-3.802 -3.792,-3.074 -7.453,-2.116 1.531,-1.182 1.647,-1.586 4.259,-2.116 0,0 0.466,-0.752 0.532,-0.793 -1.015,-1.719 -2.736,-2.537 -5.855,-2.116 z"
   id="path60"
   inkscape:connector-curvature="0"
   style="fill:#ffffff" />
	<path
   d="m 66.648,100.045 c -3.46,0.289 -11.611,5.669 -2.662,6.876 1.223,-2.636 2.47,-4.562 3.992,-6.876 -0.482,0 -0.864,-0.042 -1.33,0 z"
   id="path62"
   inkscape:connector-curvature="0"
   style="fill:#ffffff" />
	<path
   d="m 98.321,97.929 c -0.532,0.496 -0.915,1 -1.331,1.587 -1.131,1.554 -0.549,1.488 1.863,1.587 0.424,-1.141 0.441,-1.81 0.799,-3.174 -0.316,0 -1.073,0.149 -1.331,0 z"
   id="path64"
   inkscape:connector-curvature="0"
   style="fill:#faa61a" />
	<path
   d="m 65.051,93.169 c -1.796,0.008 -12.58,5.922 -13.574,7.934 -0.821,1.663 -0.89,4.595 -0.532,6.612 0.274,1.586 0.715,2.578 1.064,3.967 2.396,-1.562 4.45,-3.008 6.92,-4.496 -0.083,-2.165 -0.308,-4.479 1.597,-5.818 2.088,-1.479 5.065,-2.141 7.719,-2.909 -0.366,-1.926 -1.173,-5.307 -3.194,-5.29 z"
   id="path66"
   inkscape:connector-curvature="0"
   style="fill:#faa61a" />
	<path
   d="m 87.675,92.64 c -3.776,-0.174 -7.852,-0.67 -8.517,2.909 0.274,0.108 0.981,0.711 1.331,0.793 2.969,0.629 10.022,-3.578 7.186,-3.702 z"
   id="path68"
   inkscape:connector-curvature="0"
   style="fill:#faa61a" />
	<path
   d="m 69.842,91.582 c -2.146,0.066 -0.973,0.992 0.799,1.322 0,0 0.656,-1.372 -0.799,-1.322 z"
   id="path70"
   inkscape:connector-curvature="0"
   style="fill:#faa61a" />
	<path
   d="m 99.386,88.938 c -0.632,0.099 -0.957,0.719 -1.331,1.058 -4.691,4.198 3.418,2.008 5.855,2.645 -1.165,1.76 -2.038,2.512 -3.726,3.702 4.741,4.521 7.935,10.653 12.776,15.075 1.646,-2.331 3.776,-4.174 6.122,-5.818 -1.739,-3.662 -14.672,-17.489 -19.696,-16.662 z"
   id="path72"
   inkscape:connector-curvature="0"
   style="fill:#faa61a" />
	<path
   d="m 96.554,90.191 c 3.639,-3.386 0.237,-2.251 -2.692,-0.173 -2.637,2.116 -9.689,10.349 -14.971,7.117 -1.314,-0.802 -1.015,-3.405 -0.798,-4.496 -1.93,-0.513 -3.577,-0.802 -5.589,-1.323 1.664,6.323 -5.764,-0.231 -3.46,4.496 0.782,1.611 0.357,0.852 1.597,1.322 0.299,-0.297 0.507,-0.719 0.798,-1.058 0.083,0.008 0.931,-0.199 1.331,-0.265 0,0.033 -0.008,0.785 0,0.793 -3.81,3.595 -6.396,7.909 -8.783,12.959 -3.452,7.273 -1.719,17.416 4.553,21.01 2.229,1.273 4.098,1.775 7.158,2.263 3.094,0.488 6.447,-0.233 8.942,-1.737 1.206,-0.736 3.026,-2.145 3.675,-3.5 2.113,-4.455 -0.481,-8.176 0.425,-13.804 0.74,-4.662 4.575,-7.174 7.719,-9.521 1.364,-1.024 1.639,-2.372 -1.064,-2.116 -0.142,0.008 -0.832,0.24 -0.532,0.265 -1.946,0.256 -3.618,0.421 -5.057,0.529 0.042,-0.033 0,-0.744 0,-0.793 5.464,-1.604 8.384,-4.595 11.445,-8.463 -2.237,0.124 -4.716,0.653 -6.92,1.322 -4.645,1.399 1.815,-2.268 2.223,-4.827 z"
   id="path74"
   inkscape:connector-curvature="0"
   style="fill:#ffffff" />
	<path
   d="m 65.583,87.879 c -0.416,1.058 -0.465,1.628 -0.798,2.909 2.878,-0.85 3.735,-1.537 0.798,-2.909 z"
   id="path76"
   inkscape:connector-curvature="0"
   style="fill:#ffffff" />
	<path
   d="m 64.252,80.739 c -1.539,-0.025 -3.727,0 -0.798,1.852 0.358,-0.257 2.911,-1.827 0.798,-1.852 z"
   id="path78"
   inkscape:connector-curvature="0"
   style="fill:#ffffff" />
	<path
   d="m 22.199,77.301 c 2.063,4.355 3.793,8.099 4.259,14.281 0.732,9.728 -4.508,17.744 -6.122,26.711 -0.291,-0.653 -1.006,0.008 -1.064,-1.587 -0.391,-9.256 6.446,-10.042 0.532,-20.1 -0.865,4.595 -0.898,10.769 -2.129,15.604 -0.957,3.711 -2.978,7.587 -4.259,11.108 -5.955,16.306 -8.459,28.736 0,44.166 3.086,5.645 7.918,11.042 14.639,12.959 1.68,0.479 3.942,0.43 5.323,0.529 -3.685,-3.298 -7.461,-7.381 -9.848,-11.901 -1.006,-1.893 -1.505,-3.909 -2.129,-6.083 -0.125,-0.43 -0.35,-1.033 -0.533,-1.851 4.949,2.322 7.744,6.124 13.575,8.728 0.715,0.314 1.904,1.488 2.662,1.587 1.289,0.157 0.59,-0.595 1.064,-0.793 -2.787,-2.637 -5.207,-5.562 -7.187,-8.992 -2.237,-3.859 -3.893,-8.496 -5.323,-13.223 -2.562,-8.405 6.354,5.339 7.187,6.347 -0.35,0.066 0.765,0.512 0.798,0.529 0.117,-0.083 0.583,-0.925 0,-0.793 -0.199,-0.471 -0.399,-0.744 -0.532,-1.058 -0.624,-1.471 -1.173,-3.017 -1.597,-4.496 -0.558,-1.934 -1.131,-4.421 -1.331,-6.347 -0.591,-5.637 3.36,2.611 3.992,3.438 1.098,1.43 2.263,2.835 3.46,4.231 0.782,0.909 1.788,1.785 2.662,2.645 0.724,0.711 1.796,1.926 2.662,2.38 0.391,0.198 0.973,0.372 1.331,0.529 -2.212,-4 -4.816,-6.545 -6.122,-11.636 0.308,0 1.064,0.148 1.331,0 3.102,3.893 11.045,9.198 18.099,7.14 C 36.182,147.213 44.291,126.477 42.162,105.865 40.813,92.854 32.679,81.491 22.199,77.301 Z"
   id="path80"
   inkscape:connector-curvature="0"
   style="fill:#ffffff" />
	<path
   d="m 151.021,64.077 c -4.159,9.438 -7.12,20.348 -6.122,33.588 0.108,1.43 -0.191,2.545 0.266,3.702 1.431,3.637 6.122,5.752 8.251,8.992 -2.529,-1.19 -4.109,-2.612 -5.855,-4.496 -3.502,-3.777 -6.28,-8.19 -8.251,-13.488 -1.223,4.107 -0.957,19.538 1.863,21.157 2.096,1.199 5.98,0.628 8.251,1.323 1.913,0.578 7.453,2.645 7.453,2.645 0,0 10.555,-9.563 13.841,-11.372 3.651,-2.025 7.851,-0.969 8.383,3.106 0.898,6.992 -4.299,14.572 -8.117,17.258 3.551,8.662 3.526,9.414 -3.46,14.811 -1.447,1.116 -2.137,3.148 -3.726,4.231 -2.254,1.512 -4.067,0.595 -6.654,0.793 -1.48,0.107 -3.402,1.851 -5.057,2.116 -2.778,0.438 -5.722,-0.347 -7.186,-0.265 0.881,4.538 3.817,2.868 7.453,2.116 2.154,-0.455 3.402,-0.744 5.589,-1.058 -1.339,2.801 -2.995,3.818 -5.323,5.554 -0.566,0.413 -1.406,1.24 0.266,1.058 1.123,-0.132 2.911,-0.925 4.258,-1.322 1.764,-0.537 3.61,-1.148 5.323,-1.851 2.021,-0.843 3.643,-1.835 5.856,-2.645 -1.713,5.793 -7.37,9.174 -11.445,12.695 -1.397,1.198 -3.186,2.231 -4.791,3.173 l 0.267,0.793 c 3.751,-0.992 7.161,-1.868 10.646,-3.173 1.788,-0.678 13.35,-8.38 9.049,-3.174 -5.107,6.166 -10.696,10.05 -18.099,14.017 -6.171,3.29 -1.306,2.455 3.46,1.587 3.194,-0.595 7.203,-1.826 10.38,-2.116 2.612,-0.248 2.72,1.479 1.863,1.058 -4.45,2.983 -9.141,4.958 -14.905,6.876 -2.762,0.909 -5.848,2.455 -8.784,3.174 -1.272,0.306 -3.335,0.421 -1.064,1.058 4.325,1.199 10.123,0.248 14.373,-0.529 11.445,-2.107 19.58,-11.141 23.955,-20.364 2.129,-4.512 4.558,-9.595 5.589,-15.075 3.643,-19.422 -3.269,-37.166 -11.179,-47.34 -10.73,-13.802 -22.599,-17.133 -26.617,-38.613 z"
   id="path82"
   inkscape:connector-curvature="0"
   style="fill:#ffffff" />
	<path
   d="m 68.819,61.48 c 0,0 -1.095,-7.251 -2.438,-6.13 -0.733,0.612 -1.531,5.982 -0.398,11.233 0.431,1.993 0.945,5.859 3.213,8.788 0.567,0.945 1.323,0.756 2.268,0.473 -1.468,-1.533 -1.9,-2.573 -2.421,-4.361 C 65.606,59.685 68.819,61.48 68.819,61.48 Z"
   id="path84"
   inkscape:connector-curvature="0"
   style="fill:#ffffff" />
	<path
   d="m 55.203,51.647 c -4.717,2.367 0.518,3.191 1.142,3.596 0,-0.239 -0.228,-2.926 -0.078,-3.066 z"
   id="path86"
   inkscape:connector-curvature="0"
   style="fill:#faa61a" />
	<path
   d="m 76.762,50.325 c -6.696,1.124 0.89,23.637 2.928,24.86 2.745,1.645 8.596,2.927 12.244,1.322 0,0 1.313,-0.569 0,-1.058 -1.216,-0.452 -1.616,-1.542 -2.23,-2.488 -2.174,-3.344 -6.19,-13.797 -2.646,-15.829 0.495,-0.284 1.704,0.222 1.795,0.189 -2.054,-2.511 -7.1,-7.839 -12.091,-6.996 z"
   id="path88"
   inkscape:connector-curvature="0"
   style="fill:#ffffff" />
	<path
   d="m 47.218,40.275 c -1.58,0.226 -4.103,0.037 -0.89,3.628 0.608,0.68 2.835,2.551 2.835,2.551 l 2.362,-0.945 c 0,0 0.625,-4.612 0.189,-4.725 -1.589,-0.411 -2.275,-0.831 -4.496,-0.509 z"
   id="path90"
   inkscape:connector-curvature="0"
   style="fill:#ffffff" />
	<path
   d="m 71.182,31.807 c 0,0 0.963,2.276 1.04,2.268 2.834,-0.283 -0.184,-2.169 -1.04,-2.268 z"
   id="path92"
   inkscape:connector-curvature="0"
   style="fill:#faa61a" />
	<path
   d="m 39.052,30.484 c 0,0 1.743,3.576 2.187,4.032 1.331,1.369 2.465,-0.129 5.447,-1.382 3.659,-1.545 -4.964,-2.361 -7.634,-2.65 z"
   id="path94"
   inkscape:connector-curvature="0"
   style="fill:#ffffff" />
	<path
   d="m 45.887,27.052 c -12.46,0.058 -9.881,1.521 -6.388,8.992 0.357,-0.19 0.532,-1.058 0.532,-1.058 -0.948,-1.876 -1.764,-2.562 -2.129,-5.29 6.587,-0.521 10.073,1.95 14.905,3.174 3.452,0.868 6.354,1.272 9.582,2.116 -0.449,-0.934 -0.657,-1.405 -1.064,-2.116 -0.591,-1.033 -0.79,-2.124 -1.597,-2.909 -1.606,-1.562 -10.63,-2.926 -13.841,-2.909 z"
   id="path96"
   inkscape:connector-curvature="0"
   style="fill:#faa61a" />
	<path
   d="m 119.88,9.597 c -0.524,-0.934 -0.599,-1.413 -2.129,-1.322 -7.677,0.438 -22.216,12.612 -26.882,17.19 -1.314,1.281 -2.761,4.678 -4.259,5.554 -2.479,1.438 -8.284,1.414 -11.179,2.38 -1.256,0.413 -1.821,1.248 -2.662,1.851 0.05,0.025 -0.1,0.595 0.266,0.265 0.225,0.769 0.275,1.289 0.532,2.38 -2.778,-2.43 -3.826,-6.356 -5.855,-9.521 -4.167,-6.496 -14.007,-12.066 -25.019,-10.579 8.292,3.876 15.163,6.851 19.696,14.545 2.271,3.852 2.229,2.513 5.589,4.761 0.366,0.24 0.225,1.074 0.533,1.322 -5.465,-1.389 -10.073,-3.951 -16.236,-4.496 -10.064,-0.893 -19.479,9.529 -22.624,15.868 4.45,-2.893 8.5,-6.273 13.042,-8.992 5.307,-3.19 12.41,-0.488 18.631,0.793 1.189,0.239 1.597,0.438 3.194,0.264 l 0.266,1.058 c -14.29,3.124 -21.542,4.744 -24.487,19.57 -0.69,3.447 -1.152,5.227 -1.597,10.843 4.625,-9.777 8.809,-20.612 19.43,-24.331 0.915,-0.322 1.431,-0.347 2.395,-0.529 6.837,-1.339 -2.836,2.339 -2.928,2.645 -0.965,3.058 0.456,7.25 2.507,11.173 1.375,2.631 3.22,3.827 6.352,10.529 1.035,2.214 2.363,4.441 2.363,4.441 l 0.945,-0.567 c 0,0 -1.795,-0.284 -3.875,-7.56 -1.249,-4.37 -1.614,-9.334 -1.105,-12.198 0.241,-1.38 0.74,-2.033 1.065,-2.909 0,0 0.696,-1.517 1.597,-0.529 0.901,0.988 3.111,11.114 4.775,16.486 0.848,2.76 1.323,5.481 4.807,4.671 l 0.532,-1.058 c -1.697,-3.364 -10.547,-25.959 1.064,-24.596 4.542,0.529 8.809,4.24 10.913,7.405 3.294,4.967 7.112,13.623 5.975,18.611 2.354,-1.223 8.292,-4.02 9.197,-6.445 1.343,-3.597 2.845,-5.992 6.122,-8.728 1.497,-1.256 6.466,-4.886 6.466,-4.886 0,0 -0.037,-1.543 0.188,-2.783 0.524,-3.008 2.229,-6.694 2.662,-10.05 1.056,-8.335 3.027,-26.592 -0.267,-32.526 z m -2.395,34.381 c -2.728,-1.455 -3.394,-3.926 -5.323,-6.083 -3.901,-4.355 -11.686,-5.852 -18.631,-6.347 2.055,-5.033 17.4,-20.653 23.156,-20.893 6.903,-0.298 1.996,28.81 0.798,33.323 z"
   id="path98"
   inkscape:connector-curvature="0"
   style="fill:#faa61a" />
	<path
   d="m 108.169,25.729 c -3.885,0.455 -8.209,2.942 -10.913,4.76 11.054,1.967 12.326,4.322 18.897,10.314 -0.714,-4.776 -2.461,-15.727 -7.984,-15.074 z"
   id="path100"
   inkscape:connector-curvature="0"
   style="fill:#f2f2f2" />
	<path
   d="m 116.154,11.977 c -3.593,0.504 -11.354,7.604 -13.841,10.05 -1.971,1.926 -4.325,4.256 -5.057,6.612 11.827,-5.463 17.3,-6.579 19.43,8.992 l 0.798,0.265 c 0.558,-3.34 4.118,-26.696 -1.33,-25.919 z"
   id="path102"
   inkscape:connector-curvature="0"
   style="fill:#ffffff" />
	<path
   d="m 125.736,81.003 c -1.314,-1.058 -2.778,-1.793 -4.524,-2.38 0.324,-0.265 0.1,-1.074 0.532,-1.322 2.928,-1.728 7.577,-1.852 11.977,-1.852 -1.064,-0.719 -1.688,-1.281 -3.194,-1.851 -1.297,-0.496 -2.861,-1.231 -4.259,-1.587 -2.77,-0.711 -5.14,-0.413 -7.452,0.529 2.553,-3.901 8.126,-6.95 11.977,-9.521 -1.081,-0.124 -2.803,-0.422 -4.258,-0.265 -2.554,0.256 -5.956,0.967 -8.251,1.852 -1.356,0.512 -5.39,1.702 -2.129,-0.265 1.771,-1.075 2.087,-2.025 3.194,-3.703 0.532,-0.818 6.868,-6.956 4.281,-6.625 -4.101,0.513 -12.935,6.29 -14.931,9.355 -0.981,1.496 -2.268,3.969 -3.497,6.237 -1.756,3.243 -10.357,6.614 -13.136,7.749 -6.735,2.752 -12.285,-3.436 -18.498,-0.849 -1.904,0.785 -3.357,1.286 -4.938,2.36 -0.732,0.488 -1.782,1.673 -2.248,2.4 -0.267,0.405 -0.366,0.926 -0.532,1.323 2.402,-1.596 6.276,-0.709 6.75,0.199 0.474,0.908 -1.564,3.808 -3.591,3.733 -2.552,-0.095 -3.497,-1.985 -2.893,-1.023 0.462,0.735 0.791,1.256 1.597,1.852 1.456,1.074 2.853,1.686 4.791,2.38 3.909,1.389 9.507,2.587 15.438,1.852 4.417,-0.562 6.042,-2.765 9.228,-4.682 0.033,0.083 2.649,-1.349 2.741,-1.134 0.823,1.884 -0.624,1.609 1.605,2.113 0.458,0.099 1.564,1 1.863,1.058 4.816,0.859 10.888,-7.083 13.84,-8.992 -0.482,1.008 -0.291,1.455 -0.798,2.38 4.924,0.876 8.833,2.471 13.042,3.703 -0.932,-2.272 -2.005,-3.644 -3.727,-5.024 z m -25.07,1.645 c 0,0 -0.633,-0.995 -1.812,-1.909 -0.729,1.943 -0.593,2.951 -1.685,3.988 -1.745,1.142 -5.069,2.717 -8.505,3.119 l 2.835,-1.134 c 1.997,-0.529 4.542,-2.34 4.959,-2.799 0.806,-0.887 1.697,-3.533 0.617,-3.155 -0.806,0.282 -4.725,1.701 -0.883,-0.813 0.521,-0.341 2.288,-0.777 2.962,-0.794 1.59,-0.041 1.512,3.497 1.512,3.497 z"
   id="path104"
   inkscape:connector-curvature="0"
   style="fill:#ffffff" />
	<path
   d="m 90.962,73.531 c -0.575,-0.626 -1.56,-2.594 -1.049,-3.035 0.51,-0.442 1.62,2.251 2.681,1.424 0.62,-0.484 0.653,-2.908 -0.406,-4.864 -0.183,-0.338 -0.525,-1.092 -0.525,-1.487 0,-0.478 -0.309,-0.998 -0.731,-2.201 -0.364,-1.036 -1.483,-3.167 -2.46,-2.652 -0.601,0.317 -0.121,2.456 0.196,3.274 0.155,0.401 0.534,1.217 0.432,1.264 -0.275,0.124 0.198,2.038 0.033,2.446 -0.179,0.443 -1.186,-0.573 -1.639,-1.731 -1.515,-3.876 -0.925,-7.166 -0.144,-7.584 1.813,-0.973 3.854,3.515 5.075,6.018 1.038,2.127 3.102,8.891 1.601,10.529 -0.67,0.728 -1.899,-0.131 -3.064,-1.401 z"
   id="path106"
   inkscape:connector-curvature="0"
   style="fill:#00aeef" />
	<path
   d="m 90.813,66.374 c -0.427,0.234 -1.091,-0.62 -1.572,-1.827 -0.665,-1.668 -0.655,-2.686 -0.228,-2.92 0.427,-0.234 1.193,0.945 1.684,2.147 0.562,1.373 0.384,2.453 0.116,2.6 z"
   id="path108"
   inkscape:connector-curvature="0"
   style="fill:#ffffff" />
	<path
   d="m 70.852,74.11 c -0.303,-0.511 -0.868,-1.827 -0.649,-2.092 0.219,-0.265 0.866,1.802 1.325,1.318 0.268,-0.284 -0.016,-2.401 -0.605,-3.929 -0.102,-0.264 -0.276,-0.502 -0.295,-0.788 -0.022,-0.345 -0.029,-0.731 -0.284,-1.646 -0.22,-0.788 -0.845,-2.449 -1.279,-2.182 -0.267,0.165 0.06,1.763 0.247,2.389 0.092,0.306 0.308,0.938 0.262,0.96 -0.123,0.06 0.189,1.495 0.131,1.772 -0.063,0.301 -0.583,-0.542 -0.85,-1.428 -0.894,-2.965 -0.773,-5.28 -0.426,-5.5 0.804,-0.509 1.974,2.955 2.665,4.896 0.587,1.649 1.73,6.221 1.104,7.244 -0.281,0.457 -0.826,-0.136 -1.346,-1.014 z"
   id="path110"
   inkscape:connector-curvature="0"
   style="fill:#00aeef" />
	<path
   d="m 70.43,69.134 c -0.189,0.124 -0.541,-0.565 -0.823,-1.49 -0.391,-1.277 -0.434,-2.012 -0.245,-2.136 0.189,-0.124 0.604,0.812 0.891,1.733 0.328,1.054 0.295,1.816 0.177,1.893 z"
   id="path112"
   inkscape:connector-curvature="0"
   style="fill:#ffffff" />
	<path
   d="m 67.874,76.978 c 0,0 -0.378,-0.851 -1.134,-1.417 -0.756,-0.567 -1.701,-1.134 -1.701,-1.134 l -3.024,-0.189 2.74,3.875 c 0,0 1.04,1.701 2.457,0.567 1.418,-1.135 0.662,-1.702 0.662,-1.702 z"
   id="path114"
   inkscape:connector-curvature="0"
   style="fill:#ffffff" />
	<path
   d="m 52.754,45.226 c 0.189,-0.283 2.273,-1.011 4.063,-1.323 4.347,-0.756 4.005,-1.099 0.378,-2.173 -5.102,-1.513 -4.441,3.496 -4.441,3.496 z"
   id="path116"
   inkscape:connector-curvature="0"
   style="fill:#f2f2f2" />
	<path
   d="m 43.966,42.013 -1.04,0.567 c 0,0 2.173,2.552 2.74,3.497 0.567,0.945 1.417,1.701 1.795,1.323 0.378,-0.378 0,-1.229 -1.229,-2.552 -1.227,-1.323 -2.266,-2.835 -2.266,-2.835 z"
   id="path118"
   inkscape:connector-curvature="0"
   style="fill:#faa61a" />
	<path
   d="m 68.772,82.412 c -2.27,0 -2.646,0.898 -2.552,1.465 0.095,0.567 1.086,1.981 2.693,1.89 1.654,-0.094 2.788,-1.37 2.788,-2.221 0,-0.851 -1.417,-1.134 -2.929,-1.134 z m -0.08,1.904 c -0.954,0 -1.728,-0.325 -1.728,-0.727 0,-0.402 0.773,-0.728 1.728,-0.728 0.955,0 1.727,0.326 1.727,0.728 0,0.402 -0.773,0.727 -1.727,0.727 z"
   id="path120"
   inkscape:connector-curvature="0"
   style="fill:#1a1a1a" />
	<ellipse
   cx="68.677002"
   cy="83.593002"
   rx="1.27"
   ry="0.53500003"
   id="ellipse122"
   style="fill:#ffffff" />
</g>
</svg>