<?xml version="1.0" encoding="UTF-8" standalone="no"?>
<svg
   xmlns:dc="http://purl.org/dc/elements/1.1/"
   xmlns:cc="http://creativecommons.org/ns#"
   xmlns:rdf="http://www.w3.org/1999/02/22-rdf-syntax-ns#"
   xmlns:svg="http://www.w3.org/2000/svg"
   xmlns="http://www.w3.org/2000/svg"
   viewBox="0 0 758.66669 944"
   height="944"
   width="758.66669"
   xml:space="preserve"
   id="svg2"
   version="1.1"><metadata
     id="metadata8"><rdf:RDF><cc:Work
         rdf:about=""><dc:format>image/svg+xml</dc:format><dc:type
           rdf:resource="http://purl.org/dc/dcmitype/StillImage" /></cc:Work></rdf:RDF></metadata><defs
     id="defs6"><clipPath
       id="clipPath20"
       clipPathUnits="userSpaceOnUse"><path
         id="path18"
         d="M 0,3 V 6661 H 4860 V 3 Z" /></clipPath><clipPath
       id="clipPath30"
       clipPathUnits="userSpaceOnUse"><path
         id="path28"
         d="M 0,3.55859 H 4860 V 6660.0386 H 0 Z" /></clipPath><clipPath
       id="clipPath52"
       clipPathUnits="userSpaceOnUse"><path
         id="path50"
         d="m 5240,5240 v 391 h 443 v -391 z" /></clipPath></defs><g
     transform="matrix(1.3333333,0,0,-1.3333333,0,944)"
     id="g10"><g
       transform="scale(0.1)"
       id="g12"><g
         id="g14"><g
           clip-path="url(#clipPath20)"
           id="g16"><path
             id="path22"
             style="fill:#000000;fill-opacity:1;fill-rule:nonzero;stroke:none"
             d="m 4162.27,5820 c 0,0 172.5,75 210,292.5 112.5,-75 37.5,-367.5 37.5,-367.5 0,0 60,15 60,37.5 15,-135 -97.5,-262.5 -180,-330 105,22.5 277.5,7.5 120,-315 60,15 142.5,60 142.5,60 l -67.5,-90 c 0,0 180,37.5 210,-75 -45,0 -82.5,0 -82.5,0 0,0 82.5,-45 82.5,-97.5 90,-60 165,-165 157.5,-210 -45,7.5 -60,7.5 -60,7.5 0,0 120,-157.5 22.5,-405 75,-157.5 30,-285 -15,-390 -15,45 -15,60 -15,60 0,0 -37.5,-300 -187.5,-375 15,67.5 7.5,90 7.5,90 0,0 -97.5,-255 -622.5,-255 -195,-202.5 -390,-562.5 -435,-840 -30,-172.5 135,-322.5 135,-322.5 0,0 112.5,-15 232.5,105 150,157.5 247.5,420 487.5,622.5 127.5,112.5 247.5,142.5 247.5,142.5 0,0 -112.5,-157.5 -172.5,-307.5 -60,-142.5 -90,-270 -90,-270 l 37.5,22.5 c 0,0 67.5,-60 -112.5,-277.5 30,15 37.5,15 37.5,15 0,0 -15,-82.5 -82.5,-120 37.5,-7.5 37.5,-7.5 37.5,-7.5 0,0 -135,-217.5 -517.5,-165 -7.5,-120 -135,-255 -307.5,-420 -127.5,-120 -217.5,-300 -217.5,-300 0,0 112.5,-15 210,30 90,30 172.5,127.5 202.5,127.5 82.5,-7.5 37.5,-165 52.5,-397.5 22.5,-337.461 67.5,-599.961 45,-652.461 -82.5,-210 -487.5,-337.5 -547.5,-247.5 -195,-104.9999 -307.5,7.5 -270,60 -60,7.5 -45,135 -45,135 0,0 -247.5,-67.5 -510,-165 -337.5,-134.9999 -667.5,-307.4999 -825,-172.4999 -217.5,-7.5 -240,15 -195,187.4999 -30,52.5 15,150 112.5,240 82.5,82.5 195,165 337.5,180 187.5,15 262.5,-30 435,-45 315,-22.5 652.5,-22.5 675,45 -7.5,90 -22.5,262.5 -22.5,262.5 l -22.5,30 c 0,0 -7.5,-22.5 0,-52.5 -105,-7.5 -127.5,97.5 -142.5,142.461 -30,-67.461 -30,-74.961 -52.5,-59.961 -30,7.5 -37.5,97.461 82.5,359.961 15,37.5 37.5,82.5 60,127.5 -22.5,150 -45,210 -45,210 0,0 -217.5,157.5 -472.5,427.5 -277.5,292.5 -615,697.5 -855,1042.5 -255,352.5 -247.5,750 -247.5,772.5 -52.5,-135 -52.5,-120 -60,-120 -7.5,0 -82.5,195 37.5,787.5 -322.5,135 -810,165 -990,487.5 -7.5,-75 -15,-60 -37.5,-75 -22.5,-7.5 -67.5,120 -52.5,202.5 C 44.7695,5145 29.7695,5077.5 7.26953,5077.5 -0.230469,5070 -37.7305,5220 149.77,5407.5 c -82.5005,0 -135.0005,-7.5 -135.0005,15 0,22.5 112.5005,142.5 375.0005,157.5 127.5,0 502.5,-15 817.5,60 330,67.5 585,217.5 585,217.5 l -37.5,15 c 0,0 22.5,52.5 157.5,75 -45,15 -37.5,37.5 -37.5,37.5 0,0 82.5,52.5 262.5,-30 15,67.5 30,97.5 30,97.5 0,0 135,-187.5 187.5,-217.5 0,195 22.5,397.5 232.5,435 105,15 142.5,-180 142.5,-180 0,0 15,247.5 292.5,457.5 22.5,-15 7.5,-52.5 7.5,-52.5 0,0 165,135 270,157.5 15,-37.5 -135,-127.5 -150,-472.5 157.5,225 337.5,277.5 405,277.5 -150,-127.5 -142.5,-180 -142.5,-180 0,0 412.5,292.5 810,45 -150,-7.5 -240,-22.5 -240,-22.5 0,0 240,-165 247.5,-382.5 -67.5,22.5 -90,52.5 -90,52.5 0,0 22.5,-97.5 22.5,-150" /></g></g><g
         id="g24"><g
           clip-path="url(#clipPath30)"
           id="g26"><path
             id="path32"
             style="fill:#ffffff;fill-opacity:1;fill-rule:nonzero;stroke:none"
             d="m 1297.27,4845 c 0,0 37.5,67.5 75,120 7.5,142.5 -30,210 -30,210 0,0 -247.5,37.5 -390,22.5 52.5,-45 97.5,-142.5 165,-217.5 90,-90 180,-135 180,-135" /><path
             id="path34"
             style="fill:#ffffff;fill-opacity:1;fill-rule:nonzero;stroke:none"
             d="m 3119.77,982.539 c 37.5,0 240,112.461 307.5,172.461 45,-314.961 -45,-419.961 -45,-419.961 0,0 -195,0 -247.5,-37.5 -22.5,127.5 -15,232.5 -15,285" /></g></g><path
         id="path36"
         style="fill:#000000;fill-opacity:1;fill-rule:nonzero;stroke:none"
         d="m 1694.77,6270 c 0,0 75,22.5 112.5,277.5 22.5,210 -52.5,225 -127.5,232.5 -90,0 -142.5,-187.5 -142.5,-187.5 0,0 -217.5,45 -270,-82.5 -15,-52.5 30,-120 120,-165 127.5,-60 307.5,-75 307.5,-75" /><path
         id="path38"
         style="fill:#000000;fill-opacity:1;fill-rule:nonzero;stroke:none"
         d="m 2332.27,6427.5 c 0,0 52.5,97.5 142.5,187.5 82.5,82.5 240,292.5 127.5,382.5 -135,105 -270,-82.5 -270,-82.5 0,0 -75,142.5 -180,135 -90,-7.5 -165,-90 -135,-187.5 22.5,-75 45,-150 105,-225 90,-105 210,-210 210,-210" /><path
         id="path40"
         style="fill:#000000;fill-opacity:1;fill-rule:nonzero;stroke:none"
         d="m 4154.77,6727.5 c 0,0 52.5,97.5 112.5,195 45,75 90,157.5 127.5,157.5 90,0 112.5,-97.5 52.5,-157.5 142.5,-7.5 202.5,-22.5 180,-97.5 -7.5,-22.5 -7.5,-67.5 -67.5,-82.5 -135,-30 -405,-15 -405,-15" /><path
         id="path42"
         style="fill:#000000;fill-opacity:1;fill-rule:nonzero;stroke:none"
         d="m 4417.27,6555 c 0,0 135,30 172.5,-30 52.5,-82.5 -90,-105 -180,-157.5 -67.5,-30 -112.5,-67.5 -112.5,-67.5 0,0 -15,60 -30,135 -15,82.5 -30,187.5 30,202.5 105,22.5 120,-82.5 120,-82.5" /><path
         id="path44"
         style="fill:#000000;fill-opacity:1;fill-rule:nonzero;stroke:none"
         d="m 4754.77,6142.5 c 0,0 112.5,7.5 232.5,82.5 90,52.5 187.5,105 195,217.5 7.5,157.5 -270,45 -270,45 0,0 -45,172.5 -157.5,150 -180,-22.5 -82.5,-187.5 -45,-322.5 30,-90 45,-172.5 45,-172.5" /><g
         id="g46"><g
           clip-path="url(#clipPath52)"
           id="g48"><path
             id="path54"
             style="fill:#000000;fill-opacity:1;fill-rule:nonzero;stroke:none"
             d="m 5242.27,5332.5 c 0,0 60,75 120,157.5 60,75 97.5,165 180,127.5 120,-60 15,-165 15,-165 0,0 157.5,-15 120,-127.5 -37.5,-120 -217.5,-82.5 -330,-37.5 -112.5,45 -105,45 -105,45" /></g></g><path
         id="path56"
         style="fill:#733026;fill-opacity:1;fill-rule:nonzero;stroke:none"
         d="m 2407.27,6052.5 c 0,0 37.5,180 187.5,180 52.5,0 75,-105 112.5,-195 37.5,-90 82.5,-157.5 82.5,-157.5 l -30,142.5 c 0,0 30,270 210,450 0,-90 7.5,-82.5 7.5,-82.5 0,0 157.5,150 232.5,195 -105,-232.5 -97.5,-457.5 -75,-487.5 105,150 232.5,270 307.5,307.5 -105,-127.5 -97.5,-202.5 -97.5,-202.5 0,0 472.5,300 765,142.5 -112.5,-7.5 -172.5,-30 -172.5,-30 l -127.5,15 c 0,0 345,-120 375,-345 -90,105 -150,135 -150,135 0,0 165,-262.5 52.5,-615 -67.5,375 -330,487.5 -330,487.5 V 5910 c 0,0 -127.5,232.5 -225,270 7.5,-30 15,-30 15,-30 0,0 -300,82.5 -465,-285 240,367.5 510,225 510,225 0,0 135,-180 172.5,-285 30,67.5 30,127.5 30,127.5 0,0 67.5,-22.5 105,-90 -120,-30 -187.5,-142.5 -187.5,-142.5 0,0 -15,352.5 -232.5,352.5 -142.5,-7.5 -255,-60 -322.5,-187.5 -127.5,-240 -112.5,-622.5 -112.5,-622.5 0,0 -255,285 -337.5,285 75,277.5 -30,570 -187.5,562.5 -75,-7.5 -112.5,-37.5 -112.5,-37.5" /><path
         id="path58"
         style="fill:#733026;fill-opacity:1;fill-rule:nonzero;stroke:none"
         d="m 4027.27,5580 c 0,0 37.5,-60 37.5,-142.5 97.5,75 90,292.5 90,345 127.5,52.5 187.5,142.5 225,232.5 45,-210 -37.5,-330 -37.5,-330 0,0 67.5,-22.5 90,22.5 -82.5,-270 -315,-300 -345,-322.5 75,-7.5 360,142.5 352.5,-22.5 -75,45 -270,97.5 -405,-232.5 -52.5,67.5 -97.5,67.5 -97.5,67.5 0,0 105,240 90,382.5" /><path
         id="path60"
         style="fill:#733026;fill-opacity:1;fill-rule:nonzero;stroke:none"
         d="m 2047.27,5422.5 c 0,0 0,112.5 52.5,105 105,0 180,-127.5 180,-127.5 0,0 -187.5,37.5 -232.5,22.5" /><path
         id="path62"
         style="fill:#733026;fill-opacity:1;fill-rule:nonzero;stroke:none"
         d="m 2009.77,5452.5 c 0,0 -232.5,-30 -247.5,-157.5 -15,-127.5 90,-127.5 120,-105 0,90 0,217.5 127.5,225 7.5,22.5 0,37.5 0,37.5" /><path
         id="path64"
         style="fill:#733026;fill-opacity:1;fill-rule:nonzero;stroke:none"
         d="m 1867.27,5137.5 -45,-180 c 0,0 -165,-82.5 -150,22.5 15,97.5 90,172.5 90,172.5 0,0 67.5,-37.5 105,-15" /><path
         id="path66"
         style="fill:#733026;fill-opacity:1;fill-rule:nonzero;stroke:none"
         d="m 2384.77,5647.5 c 0,0 -37.5,120 -37.5,157.5 -67.5,30 -142.5,127.5 -142.5,150 -15,-45 -15,-45 -15,-45 0,0 -150,60 -217.5,52.5 52.5,-67.5 45,-67.5 45,-67.5 0,0 -150,37.5 -210,0 67.5,-37.5 127.5,-15 127.5,-15 0,0 -352.5,-210 -802.5,-300 -435,-97.5 -735,60 -1050.0005,-135 105.0005,-7.5 150.0005,0 150.0005,0 0,0 -150.0005,-127.5 -180.0005,-247.5 67.5005,45 105.0005,75 105.0005,75 0,0 -7.5,-165 15,-195 15,67.5 15,127.5 15,127.5 0,0 75,-225 277.5,-330 202.5,-105 502.5,-165 735,-247.5 255,-82.5 427.5,-172.5 427.5,-172.5 l 7.5,45 c 0,0 22.5,-90 97.5,-112.5 97.5,-22.5 187.5,90 277.5,217.5 -15,15 -22.5,37.5 -22.5,37.5 0,0 255,-75 292.5,-165 37.5,-90 52.5,-202.5 97.5,-202.5 52.5,0 105,0 105,255 7.5,90 -97.5,202.5 -195,262.5 -135,90 -232.5,90 -232.5,90 0,0 240,-7.5 360,-150 30,67.5 -7.5,187.5 -67.5,270 -120,150 -210,165 -210,165 0,0 255,-22.5 330,-397.5 37.5,-52.5 105,-52.5 120,0 -52.5,-7.5 -52.5,0 -52.5,0 l 52.5,30 c 0,0 45,150 -60,420 -15,52.5 -412.5,247.5 -592.5,127.5 -22.5,-37.5 -15,-232.5 -82.5,-405 -82.5,-210 -210,-322.5 -210,-322.5 0,0 -262.5,97.5 -472.5,262.5 -127.5,97.5 -202.5,247.5 -292.5,322.5 -60,52.5 -127.5,97.5 -127.5,97.5 0,0 90,-22.5 165,-67.5 150,22.5 540,-37.5 540,-37.5 l -60,-15 c 0,0 15,-135 0,-165 67.5,105 157.5,172.5 157.5,172.5 l -67.5,7.5 c 0,0 52.5,187.5 420,315 -60,45 -45,37.5 -45,37.5 0,0 112.5,120 525,97.5" /><path
         id="path68"
         style="fill:#733026;fill-opacity:1;fill-rule:nonzero;stroke:none"
         d="m 1769.77,4350 c 0,0 82.5,-37.5 277.5,240 90,-22.5 150,-82.5 150,-82.5 0,0 -97.5,-135 -97.5,-210 22.5,15 22.5,15 22.5,15 0,0 120,-195 315,-330 240,-172.5 532.5,-232.5 652.5,-390 0,22.5 -7.5,30 -7.5,30 0,0 232.5,-37.5 495,105 517.5,37.5 1012.5,277.5 1057.5,442.5 0,-52.5 7.5,-45 7.5,-45 0,0 37.5,-37.5 157.5,157.5 30,-172.5 0,-247.5 0,-247.5 l -45,22.5 c 0,0 -22.5,-247.5 -112.5,-360 0,120 -15,120 -15,120 0,0 -75,-195 -277.5,-270 -210,-75 -472.5,-52.5 -720,-112.5 -315,-67.5 -592.5,-202.5 -592.5,-202.5 l 22.5,37.5 c 0,0 -135,-30 -187.5,-7.5 60,15 82.5,45 82.5,45 0,0 -120,37.5 -232.5,150 -172.5,172.5 -315,412.5 -547.5,600 -82.5,67.5 -165,135 -165,135 0,0 -217.5,-45 -240,157.5" /><path
         id="path70"
         style="fill:#733026;fill-opacity:1;fill-rule:nonzero;stroke:none"
         d="m 3847.27,3435 67.5,7.5 c 0,0 -397.5,-532.5 -412.5,-840 -7.5,-300 292.5,-382.5 255,-547.5 -37.5,-165 -217.5,-277.5 -360,-457.5 -135,-165 -210,-307.5 -210,-307.5 0,0 135,-7.5 255,30 97.5,37.5 202.5,112.5 240,112.5 30,0 7.5,-120 15,-270 15,-277.461 60,-652.461 15,-734.961 -45,-82.5 -345,-300 -450,-202.5 -90,75 97.5,292.5 97.5,292.5 0,0 -172.5,-105 -165,-270 -22.5,-45 -202.5,-112.5 -202.5,7.5 -7.5,127.5 142.5,307.5 255,345 -105,-7.5 -247.5,-127.5 -292.5,-307.5 -15,82.5 -15,480 562.5,412.5 -75,37.5 -97.5,30 -97.5,30 0,0 67.5,105 52.5,434.961 60,37.5 97.5,105 97.5,105 0,0 -60,-30 -142.5,-82.5 -142.5,-90 -330,-239.961 -472.5,-157.5 7.5,-67.461 45,-104.961 45,-104.961 0,0 -90,37.5 -135,97.461 -15,-44.961 0,-82.461 0,-82.461 0,0 -90,7.5 -52.5,209.961 -60,-75 -97.5,-105 -97.5,-105 0,0 7.5,82.5 60,195 112.5,240 330,577.5 322.5,870 105,240 202.5,600 202.5,600 0,0 442.5,517.5 547.5,720" /><path
         id="path72"
         style="fill:#733026;fill-opacity:1;fill-rule:nonzero;stroke:none"
         d="m 3712.27,2250 c 0,0 82.5,-97.5 75,-157.5 180,-15 352.5,-7.5 450,105 -45,-7.5 -67.5,-7.5 -67.5,-7.5 0,0 105,52.5 127.5,120 -45,-7.5 -52.5,0 -52.5,0 0,0 165,142.5 150,240 -37.5,-22.5 -67.5,-22.5 -67.5,-22.5 0,0 52.5,337.5 247.5,570 -45,0 -187.5,-105 -300,-255 -172.5,-232.5 -307.5,-555 -562.5,-592.5" /><path
         id="path74"
         style="fill:#733026;fill-opacity:1;fill-rule:nonzero;stroke:none"
         d="m 2842.27,1642.5 60,-37.5 -37.5,-82.5 -22.5,120" /><path
         id="path76"
         style="fill:#733026;fill-opacity:1;fill-rule:nonzero;stroke:none"
         d="m 2962.27,915.039 c 0,0 37.5,-255 15,-277.5 -7.5,-15 -112.5,-82.5 -405,-75 -112.5,0 -247.5,15 -390,30 -142.5,22.5 -292.5,45 -442.5,7.5 -195,-52.5 -322.5,-285 -322.5,-285 -22.5,-120 97.5,180 345,202.5 -165,-67.5 -337.5,-187.5 -375,-390 -15,-59.9999 150,-59.9999 187.5,-15 37.5,142.5 225,307.5 397.5,337.5 -187.5,-82.5 -382.5,-247.5 -345,-359.9999 45,-157.5 450,52.4999 817.5,194.9999 217.5,82.5 405,127.5 472.5,135 22.5,142.5 150,270 180,270 -22.5,195 -15,292.5 -15,292.5 l -60,-15 15,-67.5 c 0,0 -52.5,7.5 -75,15" /><path
         id="path78"
         style="fill:#ffffff;fill-opacity:1;fill-rule:nonzero;stroke:none"
         d="m 2902.27,4537.5 142.5,-7.5 c 0,0 0,-52.5 22.5,-105 15,-52.5 45,-105 45,-120 -7.5,-30 -180,52.5 -210,232.5" /><path
         id="path80"
         style="fill:#ffffff;fill-opacity:1;fill-rule:nonzero;stroke:none"
         d="m 3907.27,4500 c 0,0 82.5,-22.5 165,-7.5 7.5,-60 -210,-202.5 -270,-127.5 60,60 105,135 105,135" /><path
         id="path82"
         style="fill:#ffffff;fill-opacity:1;fill-rule:nonzero;stroke:none"
         d="m 3112.27,5197.5 c 0,0 -15,172.5 30,345 45,202.5 157.5,397.5 315,405 240,0 202.5,-390 202.5,-390 0,0 135,240 270,157.5 82.5,-37.5 60,-202.5 30,-322.5 -30,-105 -67.5,-180 -67.5,-180 0,0 -255,90 -487.5,-52.5 -112.5,-15 -142.5,-30 -142.5,-30 0,0 -90,22.5 -150,67.5" /><path
         id="path84"
         style="fill:#000000;fill-opacity:1;fill-rule:nonzero;stroke:none"
         d="m 3577.27,5497.5 c 60,-7.5 82.5,-150 -7.5,-150 -82.5,0 -52.5,150 7.5,150" /><path
         id="path86"
         style="fill:#000000;fill-opacity:1;fill-rule:nonzero;stroke:none"
         d="m 3757.27,5460 c 67.5,-22.5 30,-150 -37.5,-135 -60,7.5 -22.5,150 37.5,135" /><path
         id="path88"
         style="fill:#ffffff;fill-opacity:1;fill-rule:nonzero;stroke:none"
         d="m 3734.77,5190 c 187.5,15 315,-165 0,-187.5 -270,-22.5 -195,172.5 0,187.5" /><path
         id="path90"
         style="fill:#e6c782;fill-opacity:1;fill-rule:nonzero;stroke:none"
         d="m 2242.27,4477.5 c 0,0 22.5,-22.5 37.5,-75 22.5,-75 52.5,-180 112.5,-180 97.5,15 195,187.5 67.5,465 7.5,30 0,37.5 0,37.5 0,0 97.5,-67.5 135,-15 37.5,52.5 22.5,75 22.5,75 h 60 c 0,0 15,-82.5 37.5,-82.5 -82.5,-60 -157.5,-157.5 -157.5,-157.5 0,0 142.5,112.5 165,120 22.5,-45 120,-120 165,-120 0,-142.5 165,-285 232.5,-270 37.5,7.5 -7.5,97.5 -30,165 -22.5,52.5 -15,90 -15,90 15,-15 172.5,37.5 322.5,75 112.5,37.5 240,60 240,60 0,0 202.5,-135 240,-150 -15,-75 -105,-135 -97.5,-165 7.5,-30 157.5,-75 337.5,157.5 45,7.5 75,45 75,45 l 157.5,-127.5 -127.5,135 c 0,0 52.5,60 60,97.5 67.5,0 217.5,-67.5 217.5,-67.5 0,0 -135,97.5 -210,97.5 -7.5,97.5 -30,150 -60,165 52.5,7.5 60,45 60,45 0,0 30,22.5 172.5,-90 -52.5,90 -165,127.5 -255,127.5 52.5,-22.5 60,-30 60,-30 0,0 -7.5,-30 -52.5,-30 -30,15 -52.5,0 -52.5,0 0,0 120,-37.5 90,-180 -52.5,30 -67.5,7.5 -67.5,7.5 l 60,-37.5 c 0,0 22.5,-52.5 -52.5,-82.5 -45,37.5 -60,37.5 -60,37.5 l 30,-60 c 0,0 -60,-75 -187.5,-45 -187.5,30 -292.5,150 -292.5,150 l 45,15 c 0,0 -60,7.5 -112.5,0 -150,-30 -757.5,-270 -855,0 82.5,45 97.5,52.5 97.5,52.5 l -15,30 -105,-52.5 c 0,0 -30,30 -22.5,82.5 37.5,-7.5 112.5,-22.5 112.5,15 -15,22.5 -120,-7.5 -120,-7.5 0,0 -22.5,150 142.5,240 -52.5,0 -60,0 -60,0 0,0 -82.5,52.5 -75,165 82.5,0 135,-67.5 135,-67.5 0,0 -45,120 -300,105 -90,105 -210,127.5 -210,127.5 0,0 -75,172.5 -232.5,195 -67.5,15 -97.5,-82.5 -97.5,-82.5 0,0 -240,7.5 -277.5,-195 -30,-45 7.5,-90 7.5,-90 0,0 -157.5,-172.5 -97.5,-270 60,-90 150,-22.5 150,-22.5 0,0 -37.5,-157.5 -165,-247.5 -165,75 -292.5,157.5 -292.5,157.5 0,0 90,247.5 367.5,465 -97.5,-22.5 -135,-22.5 -135,-22.5 0,0 127.5,142.5 427.5,270 -52.5,22.5 -52.5,30 -52.5,30 0,0 225,90 555,30 240,-37.5 375,-232.5 525,-360 97.5,-82.5 217.5,-120 217.5,-120 l -142.5,-97.5 c 0,0 232.5,120 277.5,120 -97.5,-202.5 -22.5,-352.5 285,-367.5 307.5,-22.5 472.5,127.5 420,285 150,7.5 375,82.5 375,82.5 l -52.5,-52.5 c 0,0 172.5,45 210,-22.5 -82.5,15 -187.5,-15 -187.5,-15 0,0 202.5,0 232.5,-75 -30,-7.5 -37.5,-7.5 -37.5,-7.5 0,0 172.5,-127.5 187.5,-195 -60,30 -60,30 -60,30 0,0 165,-352.5 -22.5,-540 -15,67.5 -30,45 -30,45 0,0 0,-165 -532.5,-412.5 -247.5,-112.5 -750,-135 -750,-135 l 82.5,-15 c 0,0 -165,-90 -397.5,-75 -127.5,112.5 -412.5,180 -712.5,427.5 -165,135 -225,240 -225,240 0,0 -7.5,75 82.5,150" /><path
         id="path92"
         style="fill:#e6c782;fill-opacity:1;fill-rule:nonzero;stroke:none"
         d="m 1229.77,4575 c 0,0 -112.5,-405 -75,-720 60,127.5 82.5,187.5 105,292.5 0,-105 -45,-570 187.5,-922.5 247.5,-382.5 615,-810 922.5,-1117.5 300,-300 562.5,-480 562.5,-480 0,0 105,217.5 135,457.5 -52.5,-37.5 -52.5,-30 -52.5,-30 0,0 120,90 225,622.5 -120,-127.5 -210,-165 -210,-165 0,0 450,390 795,922.5 -412.5,-52.5 -855,-292.5 -855,-292.5 v 75 c 0,0 -210,7.5 -217.5,60 52.5,15 112.5,22.5 112.5,22.5 0,0 -90,60 -187.5,165 -135,142.5 -307.5,352.5 -450,487.5 -105,105 -202.5,187.5 -202.5,187.5 0,0 -292.5,-22.5 -300,217.5 -82.5,22.5 -105,67.5 -105,67.5 0,0 -322.5,157.5 -390,150" /><path
         id="path94"
         style="fill:#e6c782;fill-opacity:1;fill-rule:nonzero;stroke:none"
         d="m 2572.27,5212.5 c 0,0 67.5,22.5 112.5,0 0,-90 67.5,-195 97.5,-195 -112.5,-67.5 -105,-202.5 -105,-202.5 l -45,-7.5 c 0,0 22.5,232.5 -60,405" /><path
         id="path96"
         style="fill:#ffbdbd;fill-opacity:1;fill-rule:nonzero;stroke:none"
         d="m 2414.77,5640 c 0,0 195,-37.5 262.5,-97.5 60,150 37.5,487.5 -157.5,517.5 -45,7.5 -135,-45 -142.5,-135 -15,-120 37.5,-285 37.5,-285" /><path
         id="path98"
         style="fill:#ffbdbd;fill-opacity:1;fill-rule:nonzero;stroke:none"
         d="m 4042.27,5107.5 c 0,0 112.5,322.5 345,255 45,-15 52.5,-97.5 30,-150 -15,-60 -60,-90 -60,-90 l -285,-45 -30,30" /><path
         id="path100"
         style="fill:#ff0000;fill-opacity:1;fill-rule:nonzero;stroke:none"
         d="m 5279.77,5332.5 c 0,0 45,52.5 82.5,120 37.5,60 112.5,172.5 172.5,142.5 60,-30 45,-105 0,-157.5 60,-30 157.5,-37.5 105,-135 -52.5,-97.5 -360,30 -360,30" /><path
         id="path102"
         style="fill:#ff0000;fill-opacity:1;fill-rule:nonzero;stroke:none"
         d="m 4762.27,6157.5 c 0,0 300,90 390,232.5 60,52.5 -37.5,195 -255,60 -37.5,135 -82.5,180 -135,165 -150,-37.5 -45,-195 -15,-322.5 22.5,-90 15,-135 15,-135" /><path
         id="path104"
         style="fill:#ff0000;fill-opacity:1;fill-rule:nonzero;stroke:none"
         d="m 4312.27,6322.5 c 0,0 15,22.5 67.5,52.5 75,45 210,75 202.5,127.5 -7.5,60 -172.5,30 -172.5,30 0,0 -45,82.5 -75,90 -90,7.5 -30,-180 -22.5,-300" /><path
         id="path106"
         style="fill:#ff0000;fill-opacity:1;fill-rule:nonzero;stroke:none"
         d="m 4192.27,6765 c 0,0 127.5,165 157.5,270 22.5,45 165,7.5 60,-127.5 75,-7.5 202.5,15 202.5,-82.5 -7.5,-127.5 -420,-60 -420,-60" /><path
         id="path108"
         style="fill:#ff0000;fill-opacity:1;fill-rule:nonzero;stroke:none"
         d="m 2324.77,6457.5 c 0,0 277.5,307.5 285,435 15,150 -135,165 -277.5,-7.5 -90,82.5 -112.5,172.5 -195,135 -307.5,-120 187.5,-562.5 187.5,-562.5" /><path
         id="path110"
         style="fill:#ff0000;fill-opacity:1;fill-rule:nonzero;stroke:none"
         d="m 1687.27,6292.5 c 0,0 210,360 30,450 -105,52.5 -150,-180 -150,-180 0,0 -262.5,45 -262.5,-67.5 7.5,-127.5 142.5,-150 382.5,-202.5" /><path
         id="path112"
         style="fill:#000000;fill-opacity:1;fill-rule:nonzero;stroke:none"
         d="m 3382.27,3907.5 c 0,0 292.5,15 435,97.5 172.5,97.5 240,217.5 240,217.5 0,0 -37.5,-157.5 -247.5,-255 -157.5,-75 -427.5,-60 -427.5,-60" /></g></g></svg>