<?xml version="1.0" encoding="UTF-8" standalone="no"?>
<svg
   xmlns:dc="http://purl.org/dc/elements/1.1/"
   xmlns:cc="http://creativecommons.org/ns#"
   xmlns:rdf="http://www.w3.org/1999/02/22-rdf-syntax-ns#"
   xmlns:svg="http://www.w3.org/2000/svg"
   xmlns="http://www.w3.org/2000/svg"
   viewBox="0 0 89.333336 164"
   height="164"
   width="89.333336"
   xml:space="preserve"
   id="svg2"
   version="1.1"><metadata
     id="metadata8"><rdf:RDF><cc:Work
         rdf:about=""><dc:format>image/svg+xml</dc:format><dc:type
           rdf:resource="http://purl.org/dc/dcmitype/StillImage" /></cc:Work></rdf:RDF></metadata><defs
     id="defs6" /><g
     transform="matrix(1.3333333,0,0,-1.3333333,0,164)"
     id="g10"><g
       transform="scale(0.1)"
       id="g12"><path
         id="path14"
         style="fill:#292536;fill-opacity:1;fill-rule:nonzero;stroke:none"
         d="m 126.449,127.5 c 1.52,15.512 -1.328,31.051 -0.828,46.641 0.32,15.859 1.57,31.679 3.758,47.379 0.66,4.96 -0.359,9.96 -2.859,14.261 -12.54,24.731 -20.149,51.598 -22.5,79.219 -1.95,28.441 -1.559,57.031 1.21,85.43 2.348,19.41 5.711,38.75 10.122,57.808 4.179,21.293 8.91,42.543 13.359,63.75 0.508,2.461 3.277,5.313 0.738,7.5 -2.539,2.192 -4.961,-0.968 -7.109,-2.187 C 105.738,518.629 89.8398,508.949 74.1016,498.91 58.7109,488.789 41.9883,480.98 24.3789,475.621 13.1602,471.449 1.05078,479.219 0.230469,491.172 -1.37109,523.441 5.35156,555.59 19.7305,584.531 c 14.0195,29.528 34.5312,55.469 60,75.899 21.7185,18.871 46.5975,33.711 73.5075,43.871 6.293,1.988 11.563,6.359 14.614,12.219 23.277,44.808 38.519,93.359 45,143.402 2.027,13.437 4.648,26.879 6.918,40.308 0.191,2.469 0.191,5 0,7.5 -4.61,-1.359 -4.461,-5.781 -6.61,-8.351 -2.18,-2.539 -3.98,-4.77 -7.5,-3.68 -3.32,1.063 -5.621,4.071 -5.781,7.5 -0.859,10.352 3.75,20.352 12.152,26.41 7.27,6.641 10.59,16.602 8.707,26.25 -2.258,29.102 -7.5,57.771 -11.25,86.641 -5.429,31.21 -8.039,62.81 -7.886,94.49 0.82,20.55 15,31.56 34.726,26.33 24.371,-7.03 46.293,-20.78 63.281,-39.61 23.871,-24.8 40.59,-54.69 58.832,-83.48 16.868,-26.48 27.219,-55.851 41.09,-83.628 l 5,-10.043 c 1.289,0 2.11,0 2.348,0.472 3.351,4.918 7.5,11.328 13.941,7.5 6.45,-3.832 4.34,-10.269 2.461,-16.293 -1.871,-6.008 -3.941,-12.457 -5.39,-18.75 -0.821,-3.437 -1.051,-8.078 2.187,-9.957 3.203,-1.871 6.051,1.489 8.402,3.438 9.879,8.242 17.11,19.179 26.168,28.051 13.711,13.359 17.262,26.402 6.09,42.652 -2.066,4.726 -2.968,9.879 -2.648,15 -0.512,4.528 -1.41,6.248 -6.61,5.038 -8.359,-1.87 -16.558,-4.37 -24.57,-7.499 -3.43,-1.949 -7.648,-1.949 -11.129,0 -3.441,2.769 -0.902,6.989 0,10.819 6.168,27.27 24.449,45.74 45.391,61.95 8.168,6.37 9.769,16.1 14.418,24.14 9.531,15.75 19.64,31.33 38.39,39.38 11.571,3.44 18.911,14.8 17.309,26.76 -0.59,11.25 6.012,16.95 17.262,18.01 12.898,1.28 12.898,1.28 12.07,13.94 -0.82,12.7 4.969,16.52 17.699,13.44 5.86,-1.45 8.789,-1.8 9.141,5.7 0.391,7.5 15.469,16.06 25.738,13.79 3.52,-0.78 6.961,-1.84 10.352,-3.09 4.769,-2.34 10.551,-0.78 13.48,3.68 5.27,7.15 12.848,5.11 19.809,4.65 4.14,0 3.98,-3.76 4.211,-6.8 0.859,-8.71 -1.25,-17.42 -6.012,-24.77 -2.809,-4.26 -2.809,-9.76 0,-14.02 2.262,-4.88 4.223,-9.88 5.859,-15 4.063,-11.09 1.133,-18.36 -9.878,-20.94 -6.18,-1.4 -7.5,-3.94 -6.411,-9.3 0.231,-2.5 0.231,-5 0,-7.5 0,-11.91 -2.308,-15.5 -13.949,-18.04 -5.23,-1.13 -6.211,-3.09 -5.23,-7.89 3.441,-16.45 -6.91,-27.74 -23.789,-23.48 -8.321,2.11 -14.262,2.62 -17.11,-8.32 -3.711,-11.48 -9.922,-22.03 -18.203,-30.82 -2.848,-3.09 -3.598,-7.58 -1.879,-11.41 10.942,-37.031 12.391,-76.25 4.141,-113.981 -5.11,-28.05 -13.039,-55.507 -23.711,-81.91 -15,-36.758 -31.719,-73.437 -58.199,-103.437 -12.461,-14.184 -12.461,-25.711 -7.5,-41.992 10.781,-39.071 18.398,-78.911 22.808,-119.18 3.442,-27.07 7.5,-54.07 10.942,-81.141 0.429,-3.59 0,-5.859 5.621,-5.621 14.179,0.742 25.789,-7.5 38.25,-12.777 14.019,-5.821 27.219,-13.391 39.371,-22.5 12.539,-9.449 19.848,-24.25 19.726,-39.961 0.274,-11.789 -1.207,-23.59 -4.339,-34.961 -4.68,-14.609 -13.438,-27.609 -25.188,-37.5 -5.633,-5.391 -10.75,-11.481 -16.961,-16.559 -8.32,-5.941 -17.34,-10.742 -26.871,-14.41 -26.019,-12.308 -54.141,-13.64 -82.5,-12.89 -9.879,0 -19.488,4.14 -29.527,3.511 -2.231,0.309 -4.461,-0.551 -5.942,-2.23 C 407.461,274.262 392.191,253.48 376.801,232.77 342.461,185.27 314.449,133.48 293.48,78.75 286.41,58.5508 276.988,39.2188 265.43,21.2109 256.328,7.89063 240.82,0.46875 224.77,1.71875 187.27,2.23047 161.84,21.8008 146.09,54.2188 c -9.84,21.0507 -16.051,43.6328 -18.43,66.7612 -1.211,2.071 0.07,4.411 -1.211,6.52 z" /><path
         id="path16"
         style="fill:#936ba4;fill-opacity:1;fill-rule:nonzero;stroke:none"
         d="m 434.34,447.301 c -2.352,15.75 -1.61,31.801 -9.219,45.82 -6.531,11.84 -9.031,25.117 -15,36.957 -17.66,33.473 -47.109,41.563 -79.461,35.043 -25.269,-4.812 -47.961,-18.48 -64.019,-38.562 -15.313,-17.18 -24.02,-39.258 -24.532,-62.258 0.231,-24.531 15.86,-46.25 39.063,-54.301 29.918,-13.121 61.949,-20.738 94.566,-22.5 1.641,0 3.832,1.129 4.731,-1.02 0.902,-2.179 -0.899,-3.32 -1.949,-4.718 C 354.219,348.52 330.23,315 306.09,281.602 291.68,259.801 271.91,242.109 248.629,230.23 c -26.91,-12.531 -58.707,-8.242 -81.289,11.02 -23.629,20.512 -32.852,48.16 -39.18,77.031 -7.73,39.571 -8.629,80.16 -2.609,120 5.66,39.219 15.039,77.77 27.969,115.199 1.71,5.348 7.5,12.219 1.21,16.442 -6.289,4.18 -10.671,-3.32 -15,-6.371 -29.421,-18.903 -58.6402,-38.121 -89.9995,-54.102 -7.6602,-3.551 -16.2891,-4.488 -24.5313,-2.609 -5.9804,0.969 -8.5586,5.621 -8.789,11.832 0.3906,20.898 5.5,41.406 15,60 20.1093,47.027 58.1211,73.828 103.1208,93.316 8.707,4.063 17.739,7.391 27.028,9.813 11.921,2.808 21.293,12.027 24.222,23.937 13.598,41.172 25,83.012 34.098,125.391 6.25,28.051 11.141,56.25 15,84.769 1.961,13.793 15,18.282 25.98,23.711 8.52,3.942 18.672,1.602 24.61,-5.699 9.761,-10.941 18.121,-23.051 24.883,-36.101 1.949,-3.278 0.668,-4.719 -2.383,-6.008 -41.059,-17.153 -48.481,-68.09 -31.207,-100.039 7.027,-11.762 18.277,-20.434 31.476,-24.141 16.293,-6.101 33.442,-9.5 50.782,-10.121 10.75,0.23 20.75,5.391 27.23,13.949 13.871,17.18 21.371,37.93 12.461,58.629 -6.289,16.172 -15.082,31.211 -26.09,44.57 -3.641,4.102 -4.73,6.293 0.82,9.454 5.899,3.519 11.637,7.347 17.149,11.449 5.859,4.219 9.18,4.219 12.219,-3.75 11.882,-30.43 21.019,-61.723 30.632,-92.891 12.731,-41.14 25.618,-82.5 34.649,-124.461 11.91,-52.148 20.43,-105.039 25.5,-158.32 0,-2.379 0.941,-4.719 1.101,-7.5 1.52,-6.949 1.868,-14.059 1.129,-21.129 -2.031,-7.5 -11.761,-6.449 -17.851,-9.609 C 465,470.512 452.852,461.719 441.762,451.719 439.73,450 438.281,447.891 434.34,447.301 Z" /><path
         id="path18"
         style="fill:#65db32;fill-opacity:1;fill-rule:nonzero;stroke:none"
         d="m 140.309,170.16 c -0.469,9.879 0.121,19.801 1.8,29.57 0.621,2.149 -0.66,5.391 2.5,6.051 3.121,0.699 4.102,-2.031 5.86,-3.59 9.922,-8.671 21.722,-14.89 34.492,-18.211 23.988,-7.5 45,0.43 65.078,11.758 33.981,19.063 55.43,50.121 75,82.5 32.5,54.532 71.84,104.692 117.07,149.262 13.282,12.621 28.481,23.051 45,30.898 25.27,12.461 49.45,7.5 73.2,-4.218 26.062,-12.5 30.472,-24.571 24.222,-54.219 -10.781,-51.602 -62.972,-93.012 -115.859,-93.199 -8.402,-0.59 -16.793,-0.043 -25.043,1.558 -1.867,0.508 -4.719,-0.59 -5.348,2.192 -0.582,2.769 1.84,3.59 3.239,5 10.589,9.758 21.761,18.867 33.441,27.218 1.68,1.29 3.559,2.348 5.039,3.68 8.359,7.61 19.301,11.789 30.59,11.711 18.082,0.508 31.211,8.91 35.43,22.5 1.011,3.52 1.992,6.879 -0.981,10.117 -3.008,3.242 -6.328,2.383 -9.918,1.41 -12.82,-4.136 -24.922,-10.308 -35.859,-18.199 C 453.48,344.219 412.66,307.461 378.281,265.039 338.281,215.352 304.488,160.941 277.73,103.051 270.23,86.9102 266.41,68.6289 254.34,54.8789 242.27,41.1719 226.211,28.0508 204.301,34.7305 c -10.391,3.4687 -19.692,9.6093 -27,17.7695 -15.422,16.5195 -25.821,37.1094 -30,59.301 -4.961,19.058 -7.301,38.711 -6.992,58.359 z" /><path
         id="path20"
         style="fill:#936ba4;fill-opacity:1;fill-rule:nonzero;stroke:none"
         d="m 220.121,1107.73 c -1.293,12.82 11.359,22.5 23.399,17.93 17.5,-5.78 32.769,-16.75 43.859,-31.4 25.859,-29.96 48.711,-62.38 68.281,-96.76 11.289,-21.09 21.531,-42.699 30.668,-64.801 1.641,-3.64 0.942,-7.859 -1.797,-10.75 -10.582,-12.648 -23.672,-22.969 -38.402,-30.347 -6.168,-3.403 -10.27,0 -14.649,3.128 -12.652,9.719 -22.89,22.18 -30,36.442 -5.308,9.027 -10.109,18.316 -15.5,27.308 -4.531,9.918 -16.679,13.711 -26.019,8.122 -6.211,-2.973 -12.191,-6.442 -17.77,-10.43 -3.91,-2.774 -5.781,-3.012 -6.41,2.187 -4.261,37.5 -9.961,75.001 -12.73,113.091 -0.75,12.07 -1.879,23.98 -2.93,36.28 z M 488.238,976.41 c 6.211,-12.5 17.703,-21.57 31.293,-24.648 7.11,-1.371 14.489,-0.391 20.981,2.769 2.648,1.02 4.328,3.59 4.136,6.449 0,3.668 -4.058,3.282 -6.449,3.282 -14.918,-1.371 -28.668,8.078 -32.687,22.5 -5,15.268 -1.211,32.028 9.879,43.668 10.98,11.76 26.488,8.32 34.379,-7.5 7.421,-15.51 10.851,-32.578 9.96,-49.731 -1.839,-71.437 -28.679,-139.961 -75.75,-193.668 -4.531,-5.23 -9.332,-10.269 -14.41,-15 -3.519,-3.511 -6.449,-3.832 -8.09,2.028 -10,35.39 -20,70.781 -30,106.14 -0.781,3.242 0.122,6.641 2.391,9.063 10.43,14.566 20.617,29.328 31.52,43.668 7.539,11.48 14.179,23.55 19.839,36.05 1.329,2.782 1.329,6.02 0,8.79 0.122,1.878 0.668,3.71 1.68,5.32 z" /><path
         id="path22"
         style="fill:#65db32;fill-opacity:1;fill-rule:nonzero;stroke:none"
         d="m 262.73,467.148 c -0.82,22.5 9.219,39.614 21.219,55.661 14.531,20.82 38.242,33.281 63.59,33.441 30,0.551 55.121,-14.141 64.731,-51.871 7.421,-35.789 -9.219,-72.188 -41.098,-90 -13.793,-7 -28.121,-4.649 -42.383,-3.399 -16.559,1.129 -32.461,6.829 -45.98,16.52 -13.789,10.121 -22.11,23.238 -20.079,39.648 z m 68.911,408.551 c 5.468,-1.558 11.129,-2.219 16.8,-1.949 11.481,2.148 18.239,-4.57 23.2,-13.199 13.75,-22.539 10.66,-51.531 -7.5,-70.672 -12.77,-15 -32.93,-18.199 -53.36,-11.25 -39.492,13.519 -39.57,64.492 -17.89,86.172 1.558,0.75 2.461,0 3.281,-1.25 1.328,-3.512 1.129,-7.422 -0.582,-10.742 6.832,6.332 15.699,10 25.031,10.429 7.5,0 11.758,1.723 9.457,10.203 -0.039,1.008 0.621,1.911 1.563,2.258 z" /><path
         id="path24"
         style="fill:#e9415a;fill-opacity:1;fill-rule:nonzero;stroke:none"
         d="m 475.738,1046.02 c 1.102,34.14 16.25,55.74 45,68.47 12.742,5.63 23.481,7.5 32.461,-5.39 1.332,-1.95 3.68,-3.24 4.891,-5.27 3.199,-5.63 12.301,-7.5 10.859,-16.1 -2.109,-13.67 -7.578,-26.56 -15.98,-37.5 -1.641,-2.11 -3.52,-0.93 -5.547,0 -15.152,7.35 -33.442,2.47 -42.891,-11.48 -2.031,-2.27 -3.711,-4.77 -5.043,-7.5 -3.59,-9.37 -11.008,-4.45 -16.789,-4.49 -5.789,-0.08 -5.469,5.82 -5.98,10.12 -0.547,4.25 -0.86,7.77 -0.981,9.14 z" /><path
         id="path26"
         style="fill:#e8415a;fill-opacity:1;fill-rule:nonzero;stroke:none"
         d="m 588.828,1188.44 c 7.5,-1.06 11.332,-3.67 8.32,-12.39 -2.418,-8.2 0.352,-17.07 6.993,-22.5 5.468,-5.15 13.949,-5.46 19.769,-0.66 1.129,1.02 2.649,1.45 4.141,1.13 3.828,-1.36 8.711,-15.39 7.5,-21.17 -1.211,-5.74 -6.371,-7.5 -12.582,-6.13 -20.59,4.14 -32.809,18.16 -42.848,34.96 -1.641,2.15 -2.543,4.77 -2.621,7.5 0.078,1.33 1.211,2.34 2.539,2.3 1.133,-0.74 2.07,-1.71 2.691,-2.93 1.68,3.68 -1.64,8.56 1.961,10.83 2.969,2.03 4.528,5.5 4.137,9.06 z m -19.418,-57.23 c 1.961,-2.23 3.871,-4.49 5.899,-6.68 5.632,-7.93 16.293,-10.43 24.851,-5.86 3.981,1.6 8.16,3.63 11.828,0 3.172,-3.79 3.793,-9.06 1.602,-13.47 -2.809,-9.15 -12.61,-14.07 -21.602,-10.9 -18.828,6.72 -33.867,21.17 -41.25,39.68 -0.777,1.45 0,2.35 1.102,3.01 3.75,0.74 5.351,-2.03 6.988,-4.49 1.094,-2.34 4.223,-2.85 6.012,-0.98 0.711,0.36 1.488,0.55 2.308,0.59 0.821,-0.16 1.563,-0.47 2.262,-0.9 z m 29.379,72.62 c 0.621,4.26 1.52,8.75 7.5,9.06 6.012,0.31 13.672,-6.29 13.199,-10.94 -0.816,-6.4 1.602,-12.77 6.532,-16.95 1.789,-1.72 3.902,-3.52 6.25,-3.16 12.73,1.87 14.449,-9.14 19.25,-16.33 1.64,-2.42 0.902,-5.71 -1.641,-7.15 -2.539,-2.62 -6.399,-3.4 -9.758,-2.03 -13.32,5.74 -24.5,15.51 -31.961,27.93 -4.531,5.74 -7.73,12.42 -9.371,19.57 z" /><path
         id="path28"
         style="fill:#abeb8f;fill-opacity:1;fill-rule:nonzero;stroke:none"
         d="m 331.641,875.699 c 0.269,-1.75 0.699,-3.469 1.371,-5.109 3.59,-6.68 -0.633,-9.61 -5.864,-9.301 -13.046,0.902 -25.668,-4.73 -33.75,-15 0,6.992 3.082,11.481 2.032,16.371 6.129,12.219 20.039,18.43 33.199,14.84 1.601,0 2.582,0 3.012,-1.801 z" /><path
         id="path30"
         style="fill:#e8415a;fill-opacity:1;fill-rule:nonzero;stroke:none"
         d="m 466.879,1043.16 c 1.211,-3.32 2.18,-6.75 2.922,-10.19 1.328,-8.4 -1.281,-11.8 -9.84,-11.99 -6.25,-0.75 -12.301,-2.58 -17.93,-5.43 -1.801,-0.67 -3.871,-2.54 -5.621,0 -1.719,2.57 0,3.47 0.699,5.04 1.25,3.59 3.161,6.91 5.621,9.84 l 1.961,1.33 c 2.379,1.21 5,2.19 7.5,3.59 4.649,3.01 9.571,5.63 14.688,7.81 z" /><path
         id="path32"
         style="fill:#e44059;fill-opacity:1;fill-rule:nonzero;stroke:none"
         d="m 644.691,1206.52 c -0.511,-5.54 -4.73,-8.71 -8.011,-12.38 -2.11,-2.34 -4.571,-5.78 -7.969,-2.11 -2.93,2.38 -3.242,6.76 -0.66,9.53 3.277,4.53 7.648,8.21 12.687,10.67 4.492,0.07 5.313,-1.96 3.953,-5.71 z" /><path
         id="path34"
         style="fill:#f27074;fill-opacity:1;fill-rule:nonzero;stroke:none"
         d="m 588.828,1188.44 c 2.461,-3.91 6.832,-8.32 -2.027,-9.81 -3.602,-0.62 -1.961,-2.77 -1.879,-4.65 v -13.08 c -2.813,2.58 -4.692,6.01 -5.313,9.76 -4.14,2.62 -5.699,7.89 -3.589,12.31 1.64,5.47 6.281,6.21 11.25,6.01 0.539,0.08 1.128,-0.11 1.558,-0.54 z" /><path
         id="path36"
         style="fill:#9b6baa;fill-opacity:1;fill-rule:nonzero;stroke:none"
         d="m 478.871,987.148 c -4.383,9.223 -0.391,20.192 8.859,24.532 1.719,-9.18 -2.261,-17.7 -1.441,-26.41 -3.277,-2.77 -5.551,-0.891 -7.418,1.878 z" /><path
         id="path38"
         style="fill:#ee6e74;fill-opacity:1;fill-rule:nonzero;stroke:none"
         d="m 466.879,1043.16 c -3.168,-5.86 -9.539,-6.68 -15,-9.37 -1.957,-0.98 -3.09,0 -4.219,1.64 -1.101,1.68 1.52,3.83 2.18,5.78 3.172,4.57 8.172,7.5 10.82,12.7 5.981,0.66 3.52,-4.96 5.391,-7.5 z" /><path
         id="path40"
         style="fill:#67dc38;fill-opacity:1;fill-rule:nonzero;stroke:none"
         d="m 328.629,877.5 c -12.77,0.309 -25,-5.199 -33.199,-15 l -2.192,1.949 c 5.391,8.36 13.953,14.18 23.711,16.102 2.781,1.328 5.981,1.328 8.789,0 z" /><path
         id="path42"
         style="fill:#e63f62;fill-opacity:1;fill-rule:nonzero;stroke:none"
         d="m 543.828,1161.05 c 10.121,8.64 16.211,8.4 25.512,-0.89 l -0.82,-1.06 c -1.45,-0.78 -3.129,-1.09 -4.731,-0.9 -3.238,1.29 -6.91,0.86 -9.769,-1.09 -0.93,-0.63 -1.989,-1.13 -3.079,-1.45 -0.711,-0.11 -1.453,-0.11 -2.152,0 -1.519,0.39 -3.008,0 -4.527,0 -1.801,1.25 -1.992,3.87 -0.434,5.39 z" /><path
         id="path44"
         style="fill:#d94362;fill-opacity:1;fill-rule:nonzero;stroke:none"
         d="m 587.34,1188.98 c -11.481,-5.11 -11.871,-6.01 -7.5,-18.32 l -2.11,-1.79 c -0.742,-0.98 -1.519,-1.06 -2.339,0 -1.993,2.97 -2.93,6.48 -2.692,10.04 -0.078,10.66 3.821,13.59 14.641,10.07 z" /><path
         id="path46"
         style="fill:#e44161;fill-opacity:1;fill-rule:nonzero;stroke:none"
         d="m 543.828,1161.05 c 0,-1.79 0,-3.75 1.793,-4.8 1.098,0.59 2.43,0.59 3.52,0 2.89,-6.17 4.097,-13.01 3.519,-19.77 l -2,-2.34 c -3.98,8.56 -11.398,16.21 -6.832,26.91 z" /><path
         id="path48"
         style="fill:#d33d5e;fill-opacity:1;fill-rule:nonzero;stroke:none"
         d="m 613.359,1166.17 c -0.937,-2.3 -3.16,-3.75 -5.629,-3.67 -4.718,0 -4.14,4.73 -4.492,8.01 0,1.79 0.512,3.98 2.852,3.16 3.25,-1.56 5.82,-4.22 7.269,-7.5 z" /><path
         id="path50"
         style="fill:#c93f5f;fill-opacity:1;fill-rule:nonzero;stroke:none"
         d="m 586.641,1140.66 c 0,-3.59 -2.231,-4.41 -4.493,-4.57 -2.847,-0.54 -5.507,1.61 -5.546,4.5 0,2.18 0.668,4.96 3.238,4.33 2.461,-1.05 4.769,-2.5 6.801,-4.26 z" /><path
         id="path52"
         style="fill:#de4463;fill-opacity:1;fill-rule:nonzero;stroke:none"
         d="m 644.691,1206.52 c 0.079,2.54 -1.531,4.89 -3.953,5.71 2.422,2.77 5.434,5 8.832,6.44 1.45,-5.7 -2.23,-8.71 -4.879,-12.15 z" /><path
         id="path54"
         style="fill:#936ea6;fill-opacity:1;fill-rule:nonzero;stroke:none"
         d="m 478.871,987.148 c 2.258,-1.41 4.879,-2.07 7.5,-1.878 1.559,-2.692 2.301,-5.782 2.027,-8.86 -1.097,-0.281 -2.269,0.149 -2.847,1.129 -0.903,1.133 -0.512,2.93 -2.031,3.672 1.011,-1.09 0.66,-2.852 -0.668,-3.512 -2.422,2.531 -3.832,5.891 -3.981,9.449 z" /><path
         id="path56"
         style="fill:#9b6baa;fill-opacity:1;fill-rule:nonzero;stroke:none"
         d="m 482.34,977.461 c 1.18,0.551 -1.871,6.988 2.969,2.269 0.98,-1.101 1.839,-2.269 2.582,-3.558 0,-2.223 0,-4.41 -2.27,-5.621 -2.383,1.437 -3.711,4.179 -3.281,6.91 z" /><path
         id="path58"
         style="fill:#d53d5c;fill-opacity:1;fill-rule:nonzero;stroke:none"
         d="m 569.41,1131.21 h -2.18 c -2.968,5.55 -3.64,12.07 -1.8,18.09 0.39,1.52 1.371,2.81 2.691,3.67 0.859,0.51 2,0.51 2.859,0 -2.539,-6.95 -3.089,-14.49 -1.57,-21.76 z" /><path
         id="path60"
         style="fill:#cf4865;fill-opacity:1;fill-rule:nonzero;stroke:none"
         d="m 460.859,1053.83 c -1.019,-6.45 -6.211,-9.3 -10.781,-12.7 2.383,5.16 6.094,9.53 10.781,12.7 z m 5.43,-7.31 c -2.418,2.03 -1.801,6.25 -5.43,7.5 1.871,3.01 3.832,5.63 5.192,0 0.32,-2.46 0.398,-5 0.238,-7.5 z" /><path
         id="path62"
         style="fill:#d14560;fill-opacity:1;fill-rule:nonzero;stroke:none"
         d="m 450.23,1041.21 -1.64,-5.55 c 0,-2.61 -1.75,-3.98 -3.551,-5.31 h -2.309 c 1.879,4.03 2.93,8.63 7.5,10.86 z" /><path
         id="path64"
         style="fill:#eb3a59;fill-opacity:1;fill-rule:nonzero;stroke:none"
         d="m 570.98,1152.58 h -1.878 c -1.954,1.91 -1.954,5.04 0,6.91 l 0.589,0.59 c 1.868,-2.07 4.368,-4.18 1.289,-7.5 z" /><path
         id="path66"
         style="fill:#e1395e;fill-opacity:1;fill-rule:nonzero;stroke:none"
         d="m 575.699,1168.71 h 2.313 l 1.758,-7.5 c -2.54,1.64 -4.071,4.49 -4.071,7.5 z" /><path
         id="path68"
         style="fill:#67cd37;fill-opacity:1;fill-rule:nonzero;stroke:none"
         d="m 325.738,880.859 h -8.789 c 2.391,2.5 6.371,2.5 8.789,0 z" /><path
         id="path70"
         style="fill:#292536;fill-opacity:1;fill-rule:nonzero;stroke:none"
         d="m 423.359,641.84 c -0.898,-19.57 -7.5,-40.789 -28.238,-52.5 -26.062,-14.18 -53.562,-16.488 -79.891,0.66 -3.98,2.621 -8.39,4.449 -13.039,5.43 -45,8.91 -51.839,39.058 -43.832,75 5.551,28.98 24.301,53.711 50.7,66.871 41.961,21.019 86.961,4.379 99.531,-45.582 1.41,-9.418 5.082,-18.36 10.75,-26.02 5,-5.699 3.59,-13.199 4.019,-23.859 z" /><path
         id="path72"
         style="fill:#bf9ec9;fill-opacity:1;fill-rule:nonzero;stroke:none"
         d="m 27.0703,543.012 c 0.1602,6.289 1.7188,12.5 4.5703,18.117 5.7383,13.601 12.8086,26.601 21.0899,38.871 8.9492,12.34 19.5703,23.441 31.4883,33.012 5.7031,3.789 11.832,6.867 18.3202,9.136 2.07,1.051 5.082,2.301 6.441,0 1.329,-2.347 -1.519,-4.488 -3.511,-5.347 C 94.7305,631.48 85.3516,623.789 78.0898,614.301 67.1914,600.98 58.4805,586.02 52.1914,570 c -4.4922,-10.352 -9.6523,-20.469 -15,-30.551 -1.25,-2.379 -3.0508,-5.777 -6.7226,-4.84 -3.7071,0.903 -3.0899,5.391 -3.3985,8.403 z" /><path
         id="path74"
         style="fill:#aeec92;fill-opacity:1;fill-rule:nonzero;stroke:none"
         d="m 402.23,351.289 c 2.071,6.051 5.661,11.481 10.5,15.66 18.911,21.449 36.141,44.34 57.739,63.481 11.41,11.05 25.859,18.48 41.48,21.289 17.461,2.301 35.039,-3.199 48.09,-15 3.75,-3.239 6.68,-8.168 2.93,-12.617 -3.481,-3.981 -9.258,-5.082 -13.989,-2.622 -7.609,4.11 -15.929,6.801 -24.492,7.969 -22.5,2.231 -38.867,-8.469 -54.609,-22.5 C 448.711,388.48 427.34,370.43 405.98,352.27 c -0.32,-0.469 -1.371,-0.391 -3.75,-0.981 z" /><path
         id="path76"
         style="fill:#c09fc9;fill-opacity:1;fill-rule:nonzero;stroke:none"
         d="m 245.16,1106.68 c 12.031,-1.56 19.961,-9.73 27.93,-17.62 21.519,-19.88 36.949,-45.47 44.449,-73.79 0.621,-2.54 2.691,-6.29 0,-7.5 -4.18,-1.44 -3.828,3.44 -4.879,5.9 -10.32,25.82 -28.789,45.55 -48.519,64.38 l -22.032,20.7 c -2.109,1.41 -2.769,4.14 -1.597,6.37 0.898,1.68 2.929,2.38 4.648,1.56 z" /><path
         id="path78"
         style="fill:#bc97c5;fill-opacity:1;fill-rule:nonzero;stroke:none"
         d="m 517.27,980.781 c -6.372,11.84 -8.911,23.989 -1.571,36.059 3.789,7.81 12.742,11.64 21.02,9.02 -6.328,-6.76 -15,-9.53 -17.848,-19.22 -2.851,-9.691 0.43,-17.378 -1.601,-25.859 z" /><path
         id="path80"
         style="fill:#292536;fill-opacity:1;fill-rule:nonzero;stroke:none"
         d="m 333.75,448.711 c -10.59,1.641 -24.141,3.59 -33.441,15.551 -3.86,4.328 -5.43,10.187 -4.289,15.898 5.539,25.27 44.019,41.988 66.171,28.629 21.829,-11.68 20.899,-43.32 -1.601,-53.711 -8.051,-4.879 -17.43,-7.109 -26.84,-6.367 z" /><path
         id="path82"
         style="fill:#aeec92;fill-opacity:1;fill-rule:nonzero;stroke:none"
         d="m 280.352,481.328 c 2.617,36.602 23.91,51.602 50.628,62.652 2.032,0.551 4.141,0.711 6.211,0.508 6.399,0 12.93,-1.437 13.829,-8.707 0.89,-7.261 -4.461,-10.859 -10.59,-12.66 -6.168,-1.793 -11.801,-2.031 -17.418,-3.82 -14.032,-4.571 -22.934,-15.473 -31.723,-26.41 -2.969,-4.411 -6.68,-8.321 -10.937,-11.563 z" /><path
         id="path84"
         style="fill:#292536;fill-opacity:1;fill-rule:nonzero;stroke:none"
         d="m 302.109,825 c -1.058,21.129 11.25,30.898 30.43,31.25 14.41,0 26.051,-11.641 26.09,-26.02 C 359.77,811.949 338.551,798.91 322.34,799.648 309.77,800 301.949,809.531 302.109,825 Z" /><path
         id="path86"
         style="fill:#f27275;fill-opacity:1;fill-rule:nonzero;stroke:none"
         d="m 493.441,1073.91 c -4.89,1.71 -5.351,4.49 -2.66,8.32 4.688,5.47 10.239,10.07 16.449,13.67 7.5,5.23 15.969,9.06 23.981,13.55 4.57,2.74 10.469,1.57 13.668,-2.69 1.961,-2.23 4.73,-5.55 3.133,-8.75 -1.563,-3.24 -4.922,-3.01 -7.782,-3.01 -13.859,-1.13 -24.839,-9.38 -36.601,-15.55 -3.668,-1.79 -6.988,-3.75 -10.188,-5.54 z" /><path
         id="path88"
         style="fill:#f07174;fill-opacity:1;fill-rule:nonzero;stroke:none"
         d="m 568.711,1159.57 v -6.91 l -1.871,-1.96 c -6.61,-5.97 -2.07,-13.04 -1.879,-19.65 -1.641,-4.41 -3.871,-6.05 -7.5,-1.4 -1.723,2.38 -2.152,5.62 -5.391,6.83 -3.359,6.02 -4.609,12.97 -3.519,19.77 1.219,0.63 2.308,1.29 3.437,1.95 3.672,0.35 7.352,0.94 10.981,1.72 z" /><path
         id="path90"
         style="fill:#eb3a59;fill-opacity:1;fill-rule:nonzero;stroke:none"
         d="m 565.352,1131.05 c -6.442,10.08 -5.864,15.98 1.878,19.65 v -19.65 z" /><path
         id="path92"
         style="fill:#f17074;fill-opacity:1;fill-rule:nonzero;stroke:none"
         d="m 608.398,1194.14 c -3.168,2.85 -6.367,5.55 -4.058,9.61 1.129,2.03 5.781,5.9 5.5,-1.6 -0.27,-2.7 -0.781,-5.39 -1.442,-8.01 z" /><path
         id="path94"
         style="fill:#ef7182;fill-opacity:1;fill-rule:nonzero;stroke:none"
         d="m 444.879,1030.35 c 1.211,1.72 2.351,3.52 3.562,5.31 l 3.668,-1.87 c -1.8,-2.15 -4.41,-3.4 -7.23,-3.44 z" /><path
         id="path96"
         style="fill:#e37678;fill-opacity:1;fill-rule:nonzero;stroke:none"
         d="m 563.629,1159.92 c -2.93,-5.15 -7.07,-2.69 -10.969,-1.72 2.649,3.4 7.418,4.14 10.969,1.72 z" /><path
         id="path98"
         style="fill:#f83054;fill-opacity:1;fill-rule:nonzero;stroke:none"
         d="m 549.141,1156.33 c -1.172,0 -2.301,-2.03 -3.52,0 0,1.37 0,3.08 2.188,2.69 0.589,-0.11 0.902,-1.79 1.332,-2.69 z" /><path
         id="path100"
         style="fill:#65db32;fill-opacity:1;fill-rule:nonzero;stroke:none"
         d="m 325.781,603.672 c -6.562,-0.121 -13.121,0.277 -19.652,1.207 -26.289,5.32 -37.5,17.07 -39.289,43.48 -3.442,43.59 26.949,82.661 70.07,90 17.66,3.09 35.59,-3.98 46.328,-18.359 23.051,-26.09 20.551,-55.121 9.692,-84.219 -5.782,-15.551 -20.2,-24.179 -36.168,-28.59 -10,-3.05 -20.512,-4.222 -30.981,-3.519 z" /><path
         id="path102"
         style="fill:#79954b;fill-opacity:1;fill-rule:nonzero;stroke:none"
         d="m 343.949,456.129 c -11.57,0.043 -19.258,11.961 -14.539,22.5 3.559,7.66 9.34,14.07 16.641,18.32 5.238,3.75 12.308,3.75 17.539,0 5.98,-3.937 8.32,-11.558 5.629,-18.16 -5.391,-15.738 -12.891,-22.66 -25.27,-22.66 z m -21.758,363.832 c 0,10.82 9.84,22.969 18.547,21.918 5.903,-0.75 8.012,-5.938 8.242,-11.258 0.508,-10 -8.039,-23.199 -15,-23.391 -6.871,0 -12.3,5.86 -11.789,12.731 z" /><path
         id="path104"
         style="fill:#292536;fill-opacity:1;fill-rule:nonzero;stroke:none"
         d="m 336.84,635.621 c -8.602,-0.269 -17,2.188 -24.11,7.039 -11.679,6.68 -15,25.969 -5.39,38.199 10.859,16.129 30.82,23.551 49.57,18.442 20.199,-4.692 28.602,-28.832 15.629,-45 -11.641,-15.321 -17.93,-18.75 -35.699,-18.68 z" /><path
         id="path106"
         style="fill:#aeec92;fill-opacity:1;fill-rule:nonzero;stroke:none"
         d="m 332.621,707.699 c -11.492,-3.211 -21.883,-9.539 -30,-18.32 -3.09,-3.25 -5.98,-6.68 -8.711,-10.277 -1.101,-1.332 -1.801,-3.364 -4.031,-2.543 -2.258,0.82 -1.949,2.929 -1.641,4.57 1.172,8.641 4.102,16.922 8.602,24.383 8.199,13.199 22.07,21.867 37.5,23.398 2.031,0.43 4.101,0.621 6.172,0.621 6.758,0 13.359,-6.48 12.886,-11.562 -0.668,-6.449 -8.168,-10.508 -20.777,-10.27 z" /><path
         id="path108"
         style="fill:#79954b;fill-opacity:1;fill-rule:nonzero;stroke:none"
         d="m 370.781,672.73 c 0,-11.992 -16.64,-29.019 -26.601,-28.781 -8.789,0.66 -15.27,8.473 -14.258,17.223 1.289,8.668 5.508,16.598 11.918,22.5 5.621,5.277 11.711,9.609 19.879,6.25 8.16,-3.402 8.32,-11.481 9.062,-17.192 z" /></g></g></svg>