<svg xmlns="http://www.w3.org/2000/svg" width="226.87" height="388.29" viewBox="0 0 226.87 388.29">
  <title>trunks</title>
  <g id="Layer_2" data-name="Layer 2">
    <g id="TRUNKS_L" data-name="TRUNKS L">
      <g>
        <path d="M206,224s-5.52,2.38-11.39,11.35A130.8,130.8,0,0,0,185.69,251l-3.45,9.93-1.9,8.37-.14,5.1L175,279.78l-1.28,2.08a19.69,19.69,0,0,0-1.34,7,101.23,101.23,0,0,0,.47,11.64l.69,9s.77,5.7,3.1,8.2a25.26,25.26,0,0,0,6.13,4.4s5.35,2.85,8.89,3.11,4-.05,4-.05l5.39,1.77h5.14s5.65-2.59,7.46-4.84,5.78-9.23,5.78-9.23l4.92-21s2.24-13.54,2.24-20.71-3.53-20-5.35-25.45-6.73-16-9.23-18.29S208.64,223.08,206,224Z" fill="#d79f28"/>
        <path d="M92.36,204.66l1.47-20,.82-2.78,6.39-7.33-.67-1.35-10.5,2.27L83,175.12l-7.06-1.93-5.46-2.27s1.43,1.18-1.93,2.69-9.91,3.78-14.36,3.61-7.14-3.44-9.66-6.38S40,162.35,40,162.35l.51-1.68a14.93,14.93,0,0,0,2.43-1c1.51-.76,6.89-1,6.89-1l-.58-1-12.1-15.18-1.53-8.21,19.25-19.4L105,90.31l9.61,13.59s1.11,1,1.76,1.48,2.31,5.91,2.59,8.13-.56,8.88-.56,8.88l1-.63,6.5-5.92-1.28-10.18.46-5.27L127,94.75l2.68-4.9,1-2.13a21.72,21.72,0,0,1-2.13-3.14,17.62,17.62,0,0,1-1.29-4.16V72.84l.83-6.38.46-1.76L127,63l-1.11-5.46.09-6.56c-2.49-2.77-3.33-7.3-3.33-7.3l1-3.79L121.22,38l-.65-1.39-2.4.37-3-2-3.89-6.66L109.48,23l.92-3.69,4-2.22-.74-1.57.92-5.18L118,1.85,121.22,1,134.81.46l3.69.92,13.68,23L159.86,61l3.33,11.14,1.1,6.53-.24,3.77-3.62,8.42-2.49,3-.32,1.85,1.61,6.58,1.36,9.4-.08,13.16-1,5.53,2.62,10.12-.46,20.67-38.13,13.59.6,10.41L119,199l-4.4,16.72L113.44,224,97.17,232l2.91,21.36s-2.71,4.72-4.21,5.72A23.47,23.47,0,0,1,90.45,262c-1.7.5-12.23.5-12.23.5L55,261.05l-3.69-.66a5.08,5.08,0,0,1-4,2c-2.57,0-16.1-3.36-16.1-3.36l-1.38-2.31-.2-3.23-2.31-3.3,1.71-4.95-2.24-1.78-.13-2.25L28,239l.27-3.9,1.58-1.84,6.86-3.9,3.17.27,4.42,3,.86-1.58s5.28-.2,6.79.59,1.46,3,1.46,3l-.07,2.18,1.32.2L57,239.74l1.19.26,16.63-2.64,1.58-1.52,3.63-1.12L78.4,232l-1.12-8.38-.4-3.83-3.95-3.69-.6-4.1.46-6.26Z" fill="#f1bea6"/>
        <path d="M125.92,115.84l.31,2.74-3.43,4.26s.82,11,2,15.92,2.48,6.37,2.48,6.37L132.6,150l12.93,8.85,6.87,3.25,1.28-.7s5.92-6.63,6.17-7.45a14.34,14.34,0,0,0,.26-2.87l-2.23-6.69-2.1-4.45,2.42-6.24,1.34-3.31.76.63s5.79,11,6.3,12.1a10.14,10.14,0,0,1,.39,3.5l-1.72,7.71,3.56,7.32,4.52,7.58.64,3.12-.32,4.84-1.46.76L154,184.29l-8.47,3.76-3.06,2.1-3,3.44-5.54,8.15-5.61,9.16-4.45,9-2,5-2,3.12-2.23,2-2.42-.76-4.14,4.14v3.18l-2.55.64-10.38,10.5-.57,3.57-5.35.44-1.08-1.65-.45-5.54-2.1-.51s-5.35-7-5.67-9.23-.51-17.13-.51-17.13l-2.73-1.21-3.57-3.69L73,204.54l-2.8-8.09.38-.83s6.5-6.49,9.49-8.4,5.09-1.15,5.09-1.15l2.87.19,6.3-7.26,1.85-1.84,2.55-.07-4.08,4.78-1.27,8.34-1,14.45,4,4.91,13.88,13,3.12,1.14L115.79,210l4.78-15,3.31-8.72.38-4.39-.26-5.23L120.5,158l-1.08-8.85-.64-9.11V124.37l.64-2.61Z" fill="#527a71"/>
        <path d="M169.93,199l-7.44-.38s-8.33,1.68-11.44,4-7.8,8.28-7.8,8.28L134.4,223.4l-24.3,24.35s-8.63,8.08-9.66,11a30.31,30.31,0,0,1-2.85,5.7l.55,5L94.9,271.9l-1.51,2.62L93,277.76l1.58,2.93-.71.4A62.08,62.08,0,0,0,72.49,285c-10.45,4.11-13.22,5.38-13.22,5.38l-3.57,2.54-1.82,2.92-1,2.22-3,9.27L36.38,318l-3.64,11.56L29.81,340l-.06,2.38,8,8.16.76,1,.74,3.1,1.9,1.58,8.69,3.62,3.13-.33L58.3,362l3.59,3.59,1.8.49s25.57-7.94,31.12-10.93,7.5-13.86,7.5-13.86L103,336l9.89-11,9.18-4.67,13-3.43,12.75-5.1,4.54-.42,4.51,3.74.69,1.25,2.75,8.31a15.5,15.5,0,0,0,4.06,2.46c2,.73,14.23,3.58,14.23,3.58a13.85,13.85,0,0,0,4.76-.73c1.66-.79,2.64-1.22,2.64-1.22l5.33,2.81s5,2.13,6.75,2.17,6-4.23,6-4.23l2.07-2.55s-7.57-.63-9.05-1.21l-1.48-.57-2.44.1-8.24-2s-6.22-3.59-7.12-4.55-3.45-5-3.94-7.32-1.55-15.43-1.55-15.43v-7l1.34-7,3-3.88,3.48-3.62L181,267l2.23-8.82s5.07-13.86,8.38-18l-.61-1.83-2.49-1.21-1.42-2.46-6.23-1.94-3.84-2.44-.66-1.66L169.12,223l-.31-1.77-1.47-2.64s5.06-2.36,5.71-3.6a33.3,33.3,0,0,0,1.51-5.13l-.57-6-2-2.26Z" fill="#527a71"/>
        <path d="M7.13,123.38l-.46,10.86.42,9,1.44,2.65s.44-8.57,1.1-10.67,3-7.3,3-7.3L14,126.73l-.11,12.16.39,8,1.16,2.44,6.08,7s4.25,4,6.36,4.64a18.37,18.37,0,0,1,4.31,2.1l3.87,1.16L33.57,161l-4.26-5-1.38-2.87-.72-5.26,5.2,7.86,3.48,3.92,6.14.06,8.35-.78-1.16-1.27,2.37-.66-1.77-2.38,4.15-.44s-6.86-3.93-8.24-5.64l-5.86-7.3s5-10.58,11-16.17,7.55-6,7.55-6l9.95,8.85,6.84,8.65s-1.16-5.68-3-8.39-12.4-12.92-12.4-12.92l10.08,3.87,16.47,12,.9-.84-1.16-4.39-3.42-5.69L92,127l.51-3.17,1.29-1.61.59-1.49v-1l3,.52.32-1.74,2.65-1.94v-1.42l1.35-.39.39-2.71,2.2-2.26v1.35l3.48-2.19s.78-7.88-.19-11.3h.71l6,11s.71-8.34-.33-10-4.26-6.33-4.26-6.33,3.81,1.48,4.91,2.52S117,96.93,117,96.93a15.76,15.76,0,0,0-3-6.84c-2.46-3-8.78-9-9.75-9.37A59.13,59.13,0,0,1,99,77.17l3.35-.45a64.88,64.88,0,0,1,11.82,3.87l-3.55-3.87-4.84-3.56,4.45.84,9.37,3.94-.91-2-7.62-6.26L99.28,64.51s11.5,1.29,13.24,2,1.68.07,1.68.07l-2.77-2.78-4.78-1.55s-2.07-2.45-3.56-2.78-4.77-2.64-4.77-2.64l9.17,1.61L97.41,53.73,83.07,49.85,72.68,49,64,49.14,52.78,51.66s-10.72,3.55-12.91,5a39.94,39.94,0,0,0-4.78,4.06L30.76,69l-2,4.13.71-4.52L31.66,61l1.43-5.49-3,3.68L28.31,63l-1.94,5.55-1.55,7.75L24,84.34l-.58-.58-1-4.85-.06-8.85,1.49-8.33,1-7.55L20,63.41l-1.42,8.2.26,12.28-4.32-2.14-2.85-.19-1.61-4-.32,4.19L7.25,82,2.47,85.31l7.3-.65,1.74,5.62L7.25,92.67l-5.81,7.56,1.29.06L7,97.45h3.17l1,.77-.65,1-2.78,4L6.22,108l-.52,5.23v4.33l.65,4.71Z" fill="#dfd3e8"/>
        <path d="M57.29,239.67s3.2.71,3.38,3.55a56.86,56.86,0,0,1-.54,8.09l-1.78,5.33,21.07.72s-.71-14.49-2-16.27-3.2-4.18-3.2-4.18l-2.31-.8-2.14,1.33-1.86,1-3.62.05s-2.32-2.71-3.89-2.58S57.37,237.19,57.29,239.67Z" fill="#ed6326"/>
        <path d="M108.53,237.27l-10.38,10.5-.73,8.3s.42,3.37,2.11,3.7l5.47-7,8.25-8.08a2.89,2.89,0,0,0,1.76.92c.93,0,6.74-2.44,6.74-2.44l.92-.67,1.77-.17,1.94-3.37a25.47,25.47,0,0,0,3.19-3.19c1.18-1.52,16-12.38,16-12.38l5.38-1,12.8-.17,5.37.8-.11-1.24s-5.33-8.21-7.17-8.41-12.2-.3-12.2-.3l-3.29,1.14-10.75,8.17,9.06-12.9,3.94-5.37,8.26-4.29,5.63-1.26,19.12.37s14-.55,16.78-1,3-.69,3-.69l.12-10.11,3.21-11.53,2.54-7.58-15.07,3.71-17.52,5.32-17.15,6-13.07,5.58-4,3.82-7.53,10.7-4.5,8.12-3.54,6.78-2.49,5.83-2.42,3.83-2.29,2.31-2.42-.76-4.36,4.52.22,2.8Z" fill="#ed6326"/>
        <path d="M117.75,244.24s1.68,3.43,1.75,5.41.15,4.81-.61,6.34S114,267.66,114,267.66l-7,16.79v9.08l1.07,12.74,1.53,8.16,6.26-4.73,5.18-2.13,4.2.15,7.25,3,2.36,5.5,2.29,6.63,1.84,9.16a24,24,0,0,0,3.73-5.57c1.45-3.13.77-10.45.77-10.45l-5.73-14-12.43-23.19a142.11,142.11,0,0,1,1.6-20.15s1.14-5.64.53-6.56l-3.58-5.34-3-3.59Z" fill="#ed6326"/>
        <path d="M123.29,40.13l-.85,4.45,2.16,4.73,1.49,2.06-.35,1,.29,6.79.91,3.76,5,4.17,10.9,5.25s12.72-6.51,17.22-11.81l1-1.54s-.29-5.93-.4-7a52.05,52.05,0,0,0-1.94-5.82l-2.74-18-1.54-2.85-2.22-1.2.5,8.35.27,6.18-.6,4.89s-1,2.69-1.91,3.21-6.83,4.13-6.83,4.13l-4.47,1.31-4.6-.65-3.58-2-2.88-3.44-1.77-4.93Z" fill="#ed6326"/>
        <path d="M204,231.23l-6.34,8.21L191,250l-4,8.21-3.46,10.52-.15,6.34.64,4.06,3.3,8.19,2.71,6.3,1.59,4.53.17,5.89-.23,6.06s-.12,6.36,1.65,8.66,6.47,4.47,8.24,4.47a61.86,61.86,0,0,0,6.18-.7l4.06-2.95,3.48-5.24,2.24-6.18,1.47-6.24,2.24-13.54s1.94-15.19,1.94-18a49.57,49.57,0,0,0-1.24-8.07l-4.3-14.9s-4.24-10.48-5.83-12.77a21,21,0,0,0-3.76-4S207.35,229.52,204,231.23Z" fill="#d2cfe2"/>
        <path d="M5,331.52,24.39,339l5.21,2.91L33,346.35l5.16,4.27,1.46,4.58,10.19,4.62,2.34-.68L58.3,362l3.59,3.59s-2.07,3.65-3.6,4.61S56,371.61,56,371.61L51.74,371l-.38,1L44,386.12a4.36,4.36,0,0,1-3.18,1.65,59.59,59.59,0,0,1-9.74-.82l-5.28-1.4L22,381l-4.32-9.16-5.92-9.93L4.15,350.87a55.47,55.47,0,0,1-.64-6.17C3.51,342.6,5,331.52,5,331.52Z" fill="#d79f28"/>
        <path d="M128.18,64.94s-.55,1.63,2.17,3.67,9.67,5.58,12.53,5.85,6-2.45,6.53-1.63,2.86,10.89.41,15.52-6.54,6.39-6.54,9.39,2.59,13.74.41,20.55-4.49,15.52-6.8,16.2-7.62-6.54-7.62-6.54-.14,2.59,2.45,7.35,3.81,8.58,3.4,10.89-6.94-1.77-9.8-5.31l2.13,4.83,17,12.61s6.49,3.74,7.74,3.74,5.37-5,5.37-5l3-4.87s-3.25-11.11-4.62-12.11l2.87-7.24.87-3.74,1-8.37-.37-11.61-1.5-7.86-1.25-5.5.83-2,4.2-7.17,1.73-6.41-.42-3.58-1.51-6.83L159.75,61s-11.24,8.14-13.1,9.31a29.61,29.61,0,0,1-3.45,1.86l-5.79-1.93-8.55-5.38Z" fill="#c8824c"/>
        <path d="M46,130.83s1.72,11.82,5.91,15.88,3.32,7.38,3.32,7.38l-2.71.62-2.71-.37,1.6,2.52-2.1.84,6.48,4.38s-12.79-2-13.71-.68-1.35,2-.84,4a6.51,6.51,0,0,1-.93-4.63l4.63-1.6,4.62-.25.33-1.69,1.63.13-1.69-2.39,3.85-.93-5.11-2.93-8.42-9S39,140,46,130.83Z" fill="#c8824c"/>
        <path d="M49.23,127.38s7.84-7.75,8.92-8.29l1.44.45,5,4.69S50.4,126.21,49.23,127.38Z" fill="#c8824c"/>
        <polygon points="60.13 116.03 66.26 121.25 69.41 124.41 77.61 124.59 70.22 119.18 60.04 115.13 60.13 116.03" fill="#c8824c"/>
        <path d="M79.11,130.84l7.15,5.5v-5S81.2,129.68,79.11,130.84Z" fill="#c8824c"/>
        <path d="M95.36,130.66s7.47-1.7,9-.1,9.26,10.77,9.45,15.59.28,16-1.33,18.33-3.68,5.76-8.69,7.27-1.51,2.46.1,2.55,5.95-.19,5.95-.19l5.86-10.86,2.17-5.95,1.6-7.18-1.51-10.21L114.35,131a15.07,15.07,0,0,0,4.16-7.74c.85-4.73.52-12.71-.6-14.57s-3.12-4.68-3.12-4.68l-.75,4.24-6-11v3s.3,7.74-.44,8.4-3.13,2.31-3.13,2.31l-.3-1.26-2.3,2.82.15,2.23,2.3,7.14.08,1.12-3.27,2.3Z" fill="#c8824c"/>
        <path d="M87.08,155.65s-3.31,1-3.64,3.21,2,4.86,11.16,4.53l-5.75-.89-2.21-1.32-1.28-2.91.39-1.29,1.91-1.35Z" fill="#c8824c"/>
        <path d="M68.21,169.77a13.15,13.15,0,0,1-8.74,6.69s4.82-.44,7.76-2,3.66-3.39,3.66-3.39Z" fill="#c8824c"/>
        <path d="M54.65,168.34S52.42,166,50.54,166s-5-.35-5.35,1.61l-1-2.1s-.4-1.85.17-2,2.31-.29,2.31-.29l7.73,1.38.8,1.15Z" fill="#c8824c"/>
        <path d="M120.48,13.16s.15-3,.9-3.62,9.5-4.52,16-4.22c0,0,2-.71.62-4.09l1.13.79,7.09,11.26,5.85,11.14.68,5.74-.12,13.61-2.13,2.82-4.28,3.26-5.4,2.37L136.75,52s-1.13-2.14.11-3.6-3.6-3.49-3.6-3.49l-1.8.11s1.35-2.47,9.9-6.07,5.18-7.66,3.6-7.77-4.84.45-5.63,1-11.47,6.19-11.47,6.19l-1.81-.45s-1.57-3.15,3.27-5.29,6.13-3.33,6.13-3.33-.43-3,.85-3.12,6.52,1.56,7.22-1.55-1-5.53-3.54-5.39a20.08,20.08,0,0,0-7.93,2.69L123,28.31s2.06-6.52,5.68-8.84,6.71-3.53,7.48-4.13a6.36,6.36,0,0,1,3.7-.95c1.55,0,4,.43,3.79-1.29s-7.92-5.25-13-4A52,52,0,0,0,120.48,13.16Z" fill="#c8824c"/>
        <path d="M88.56,185.5s-.13,14.26-.81,14.53-.53-2.15-1.88-2.42-1.35-3.77-1.35-3.77V186l2.7.27Z" fill="#405041"/>
        <path d="M82.55,218S81,206.4,80.2,206.4s-1.42,8-2.34,8,2.09,2,2.09,2Z" fill="#405041"/>
        <path d="M111.27,236.63s-2.23-3.08-5.1-3.08H97.25s-6.79,7.54-5.73,7.54,10.09-1.48,10.62.43,1,.85,1,.85l5.21-4.78Z" fill="#405041"/>
        <path d="M101.45,244.6l-3.34,3.18L97.63,251l-1.43.32s-3.26.95-3.74.55S95,248.57,95,248.57s3.42-2.22,3.19-2.46-2.07-1.67-2.07-1.67Z" fill="#405041"/>
        <path d="M120.5,226.9s-1.21-5.41.3-7.22,7.59-8.79,7.59-8.79L124,219.68l-2,4.89Z" fill="#405041"/>
        <path d="M137.19,196.73s-2.2-25.5-3-26.59S143,184,143,184l-.14-20.7-1.1-6.72,9.46,5.07,2.06.28,6.86-8.5-.08-2.63-3-8.66-1.07-2,3.62-9.8,3.79,6,3.17,6.26.7,2.55-1.93,9.44,3.63,7,3.56,6.26,1.24,3.1-.16,6.65-20.8,7-9.59,4.79-4.25,5Z" fill="#405041"/>
        <path d="M161.93,198.52l.25,8.18s3.59-3.45,3.59-4.52-.27-3.72-.27-3.72l4.26.13,1.6,2.79,2.79,2.26.31,3.14v4.54l-1.25,3.52-2.74,2.2-3.29,1.64-5-5.17-1.65-.62-4.15.23h-6.26l-2.9.78-12.14,8.77,6-8.45s4.23-1,4.94-1.8.78-6.27.78-6.27l4.46-3.76A39.33,39.33,0,0,1,161.93,198.52Z" fill="#405041"/>
        <path d="M30.05,343.08s6.87.5,7.67,2.93a14.77,14.77,0,0,1,.81,4.24l-.81.3-5.15-4.95Z" fill="#405041"/>
        <path d="M39.44,354.9s6.57,1.82,10.1.81,7-7.58,7-7.58,17.08-1.52,18.19-2,7.78-5.05,7.67-6.06-7.57,3.43-14,3.33-14.75-1.21-15.66-2.32A17.8,17.8,0,0,1,51,338.33l.4-7.17s1.31-10.41,1.92-11,1.52,13,3,14.34,4.55,1.72,5.25,2.32,4.35-.1,5.86-2,6.77-9.59,6.77-9.59-6.87-8.08-7.07-10.1,9.09,7.37,12.63,7.37,3.74-5.35,3.74-5.35-21.22-14.85-21.22-16.27,6.16-.6,9.4.91S83.08,308.53,85.4,307s1.72-4.85-.5-5.35-16.77-3.84-16.16-4.24,25.86-.31,25.86-.31l12-8,1.26,17.81,1.73,7.56,8.23-5.77,5.78-1.35,9.1,3.64L135,316.8l-14.48,3.88-5,3-2.77,1-10,11.47.4,1-1,4.91s-2.06,8.7-6.17,12.18S63.72,366,63.72,366l-2.53-1.11-3.4-3.4-5.46-2.21-2.85.79L44.1,357.7Z" fill="#405041"/>
        <path d="M109.53,278.25s-5.58-3.69-6.3-9.27c0,0,5,5.23,7.73,4.87Z" fill="#405041"/>
        <path d="M102.85,255.79s4.8,6,5.86,6-2.65-3.92-.47-7.09a21.07,21.07,0,0,1,4.69-4.91s2.18,7.75,3.06,8.08-2.08-6.55-1.53-9.17-.87-3.49-.87-3.49l-1.75.76Z" fill="#405041"/>
        <polygon points="118.39 246.7 118.29 256.81 119.89 252.11 118.39 246.7" fill="#405041"/>
        <path d="M121.19,243.4l5,6.5,1.4,3-.4,5.1-1.8,13.21-.3,7.5,4.1,6.91,7,13.81s4.6,2.8,5.7,3.4-3.9-.2-3.4,1.3a17.65,17.65,0,0,0,1.4,3l2.8,6.31,6.4-2.2,3.81.4,4.3,3.6,2.6,8.1,1.5,2.61,11.21,3.6s7.9,2.4,13.31-1l9.1,4.4,3.71.6a26.24,26.24,0,0,0,4.5-2.9c.9-1,3.1-4,3.1-4s-2.9,1.1-10.61-1.6l-5.6-.31-5.3-1.7-6.81-4.1-3.4-4.9-1.3-6.51-1-12.51.5-9.5,1.6-4.4s-4.1,3.3-4.9,6.2-4,13-4.11,15.61.5,20-3.3,18.61-7.2-16.81-7.2-16.81l-2.4-8.5s-1.91-18.12-1.2-22.62.7-5.8-2.11-.6-1,15.61-1,16.41,3.61,11.61,2.2,12a2.94,2.94,0,0,1-2.6-.8l-5.2-25.12.9-3.1,9.75-20.14s-6.25,5.53-7,7.83-.68,6.57-1.6,9.09c-.57,1.57-2,4.59-3,4.52s-2.91-3.76-3.85-14.86.47,14.7.63,17.67,2.5,7.35.31,7S131,274.5,131,268.4s4.75,6.72,4.75,6.72-2.32-12.89-1.4-18.8c0,0,.92-1.71-1.7-4.07s-4.73-5.38-3.81-6.56,3.81-1.05,3.94-2.5-1.31-5.91.39-5.91,9.85-.52,8.8.79-4.07,7.21-5,8.87,4.83-7.48,9.44-9.22,13.08-3,14.29-3.4,8.46-2,9.37-1.36,3.17,4.76,2.57,5.67-10.26,8.51-13.73,14.18,11.84-8.89,14.41-9.87,11.86-.15,11.86,1.28-2.57,10.88-4.38,11.94S167.54,258,165.2,261.9s-5.82,8.69-3.55,8.24,4.38-6.27,10.2-8.09,7.71-1.43,7.41.53-.23,3-3.33,5.07S160.06,279.74,159,282.46s.53,25.39,1.74,29l1.36-21.08,1.74-6.27,17-17.53,4.23-13.6,6.8-13.45-3.17-2.42-2.19-3.1-6.35-1.51-1.06-1.44L177,229.86l-1.66-2.49-7-4.68s-14.73-1.44-21.53.45l-2.5,1-14.88,11.49a5.74,5.74,0,0,1-3,3.62l-.61.46s-.26,1.87-1.47,2.36S121.19,243.4,121.19,243.4Z" fill="#405041"/>
        <path d="M123.88,184.06s-10.29,19.65-13.59,19.38-4.09-5.67-4.35-4.09,1.45,5.81-.66,8.58-3,3.69-4.09,3.16-6.59-5-6.72-7.25.66-15.7-.4-15-1.71,15.83-1.71,15.83l4.74,5.67,7.13,6.86s7.12,7,8.83,6.46l.79-4.75s-4.35-3-3-5.27,4.62-2.64,4.62-2.64l5.27-16.49S124.14,187.62,123.88,184.06Z" fill="#c8824c"/>
        <path d="M90.81,247s-4.79,5.05-7.71,4.34-4-8.06-5-8.5.53,3.63.53,3.63l.62,7.27L79,259.45l-.88,2.83,5,.45,7.89-1.07s6.11-2.65,6.38-3.81a67.34,67.34,0,0,0,.17-6.89s-4,1.15-5.17.87-1.21-1.69-1.21-1.69Z" fill="#c8824c"/>
        <path d="M60.68,243s-2.54,3.71-5.09,1.85l1.27-4.17s-3.13-2.31-3.47-1.27-.35-5.91-.35-5.91l-.7-1.39s-.46,5.33-2.43,7.07-4.75,4.75-2.08,6.37l1.27.23s2.16,3.46,5,4.75l.58,1.73L53.64,256s-2.45-4-5.4-4.32-3.53-.08-3.53-.08l-.65.08s.57,4.68-2.45,5.4-5.62.14-6,1.37a2,2,0,0,0,.65,2l5,.93,5.76.87,3.1-.65,2.09-1.44,3,.72L58,257.47s2.6-7.64,2.6-8.21S60.68,243,60.68,243Z" fill="#c8824c"/>
        <path d="M41.92,231.12s1.24,2.73.91,3.73a2.61,2.61,0,0,1-1.49,1.4s1.49,1.74,1.16,2.9a20.81,20.81,0,0,0-.5,3s1.66,3.07.91,3.48-7.28,3.81-7.7,4.55c0,0,2.9-.91,3.89-.58s4.39,2.07,4.39,2.07,1.82.17,2.4-1.24.5-5.46.5-5.46l-2.07-2.24-.83-4.06.75-6.29Z" fill="#c8824c"/>
        <path d="M74.76,237.6s2.44,5.64.56,7.74S73.88,243,72.44,243s-10.73-1.11-11.5,1.22a11.77,11.77,0,0,0-.31,5l-1.79,6.26-2.11,4.09-1.51,1.32S53.75,264.7,58,264.7s5.09-.33,5.09-.33l5.2.55,1.66-.33,2.54,2.55s2.88-.41,5.7-4.86,0-19.4,0-19.4S76.53,239,74.76,237.6Z" fill="#a04f26"/>
        <path d="M99.66,259.59s-1-2,1.41-5,8.31-8.57,10.77-8.53c0,0,.75-4-1-3.89s-4.94,2.86-4.94,2.86,3-3.69,1.38-3.6-8.73,7.72-8.73,6.42,9.8-10.21,9.8-10.21l2.63-.65,1.57,5.6.69,2-.27.74-5.5,4.9-5.27,6.15Z" fill="#a04f26"/>
        <path d="M119.74,237.57s2.87,1.86,1,2.7-4.47-.59-5.22,1,.75,4.05.75,4.05l2.36-.76s4.73,4.3,4.73,6.91-6.5,18.29-6.58,28.41,4.47,27.73,4.47,27.73a21,21,0,0,1,5.48.85c1.94.76,8.17,3.88,8.17,3.88l7.09,4.72,1.85,2.61s0-4.55-3.79-12-14.42-28.41-14.42-28.41l-.42-2.78.84-10.62,1.54-13a25,25,0,0,0-3.81-6.23,14.43,14.43,0,0,1-2.6-3.28l1.27-.92s2.29.24,2.9-1.12a12.88,12.88,0,0,1,1.86-2.79s1.68-.93,1.93-1.93a4.23,4.23,0,0,1,.75-1.6L142,225.82s-10,6.46-10.48,6,5.28-6.55,5.28-6.55a3.17,3.17,0,0,1,.34-3.27c1.17-1.93-2.05.63-2.05.63l11.75-16.52a32.89,32.89,0,0,0-5.68,4.82c-2.93,3.1-11.82,17.36-13.08,17.2s-1-3-1-3l4.19-4.2,11.08-15.85s12.58-13.59,12.07-13.59S139.88,202.42,138,204.43s-7.72,10.15-10.15,17.11-2.85,8.05-2.85,8.05-6.46,6.38-6.46.09l-1.09.16-2.43-.25a9.15,9.15,0,0,0,.92,3.19C116.73,234.12,116.12,237.33,119.74,237.57Z" fill="#a04f26"/>
        <path d="M169.34,222.58s-1.6-4.35-3.3-4.78-2.55-2-5.31-2-11.27-.63-13.6,1.07-9.67,7.43-8,7.43,6.8-1.8,8.28-1.8,11.48-.43,11.48-.43Z" fill="#a04f26"/>
        <path d="M178.21,198.6s16.36-2.14,18.65-4.28,4.59-9.18,4.59-9.18l-.46,7.8.31,4-1.51,1.26-10.12.5Z" fill="#a04f26"/>
        <path d="M144,51s.06,5.68-4.95,6.21,1.58.44,1.67,1.41-.88,7,1.32,7.11,6.06-3,6.15-1.4-2.55,7.38-8.08,6.85l3.11,1a30.78,30.78,0,0,0,7.52-4A119.4,119.4,0,0,0,161,59.53s-.09-7-.18-7.47S159,46.79,159,46.79l-2.29-14.15s-.87-6.77-2.28-7.21a12,12,0,0,1-2.36-1l.69,10.5-.13,8.85A40.87,40.87,0,0,1,148.87,48,33.1,33.1,0,0,1,144,51Z" fill="#a04f26"/>
        <path d="M173.23,307.54a8.4,8.4,0,0,0,3.64-.65,8.46,8.46,0,0,1,4.08-.38l-.64-2.8s1.66,3.69,3.18,3.31.74-12.86.92-12.58,1.21,6,1.21,6l.28,3.84-.21,6s.48,5.75,1,7.12S191,321.5,191,321.5l3.35,2.74.55,1.1s-4-.41-6.3-1-9.46-4.59-9.46-4.59l-3.76-4-1-3.22Z" fill="#9a702c"/>
        <path d="M37.72,350.55s-1.54,5,1.1,7.14,6.36,2.25,6.36,4.5-1.45,4.63-3.25,4.63L43.66,368s-.51,2.09-1.23,2.09S37.18,368,37.18,368l4.39,3.68s3.24,2.16,5.69,1.65a33.06,33.06,0,0,0,4.39-1.22v-.72l4.61.43,4.39-3.89.94-2.37-3.17-3.75-6.09-2.49-2.85.79-9.28-4.42-1.37-1.44-.5-3.24Z" fill="#9a702c"/>
        <path d="M29.84,347.73s-2.72,1.09-2.72,5.44-1.73-1.54-1.73-1.54-2.72,2.09-3,3.63-.81,1.09-1-.27a8.59,8.59,0,0,1,.37-3.09l2.36-2.51,3.35-2.57,2.15-.89Z" fill="#9a702c"/>
        <path d="M51.13,372.42l.55,1.65-7.15,11.71-3.77-.47-7.86-.08-4.63-1.73-4.95-5s3.85-6.05,7.86-7.7,10.39.88,10.39.88,2.49,1.79,4.3,1.79A26.13,26.13,0,0,0,51.13,372.42Z" fill="#523a29"/>
        <path d="M24.16,339.14s-7.59,2.14-10.87,4.94c-2,1.7-4.44,3.3-6.34,7.91l-1.23-3-.58-9.89-.08-8.23,2.55-6.18,1.9-1,2.05.57,3.87,4Z" fill="#523a29"/>
        <path d="M95,190.21a11.46,11.46,0,0,1,5.75-2.45c3.09-.22,2.23.21,2,1.91s-.21,3.09-1.06,3.62-5.43,2.67-6.5,2.56S95,190.21,95,190.21Z" fill="#f9e7e3"/>
        <path d="M119.39,151.77s1.6,8.63,1,11.18-7.24,13.1-8.95,21.29-2.34,19.7-3.19,18-3.09-7.78-2.55-12.14,1.38-9,2.13-10.86,2.23-6.17,4-9.79a83.83,83.83,0,0,1,4.79-8l1.6-5.64S118.75,151.56,119.39,151.77Z" fill="#f9e7e3"/>
        <path d="M100.87,174.13a9,9,0,0,1-1.71,2.45c-1,.85-4,4.68-4,4.68l-.94,2.39v1.41s5.66-5.94,7.08-6.32,3.21-.76,3.21-.76,2.64-3.11,1.32-3.58S100.76,172.17,100.87,174.13Z" fill="#f9e7e3"/>
        <path d="M126.5,123s-.6,8.74,1.5,13,2.26,4.67,1.36,4.67-3.46-6.17-3.61-7.68S125,123.65,126.5,123Z" fill="#f9e7e3"/>
        <path d="M132.79,92.26a.85.85,0,0,0-1.16.2c-.89,1.2-2.83,3.94-3.17,5.44-.46,2,1.65,22,1.2,24.84s.15,7.68,3.46,9.34,1.66-14.46,1.66-15.06-2.71-16.71-1.81-19.27C133.77,95.5,134.22,93.36,132.79,92.26Z" fill="#f9e7e3"/>
        <path d="M132.35,71.32a1.65,1.65,0,0,0-1.79,1.51c-.27,3-.72,11.06,1.82,14.08,3.15,3.75,1.09-5,3.87-3.4s2.79,9.7,3.88,9.94,3,1,3.51-6.79c.37-5.93-.12-8.36-2.06-10.54C140.29,74.67,135.34,71.58,132.35,71.32Z" fill="#f9e7e3"/>
        <path d="M49.72,127.4S58,140.08,60,141.14l-4.28.39-2.91,1.27-1.88,3.39s-5.65-10.38-4.8-15.77C46.11,130.42,48.26,127.83,49.72,127.4Z" fill="#f9e7e3"/>
        <path d="M55.35,159s16.77,11.31,23.93,13.76a36.94,36.94,0,0,0,13,2.07A72.9,72.9,0,0,0,101,173c2.24-.84-12.29-1.91-15.19-3.44s-8.57-5.35-8.57-9.94,4.44-10.4,4.44-10.4S72.32,161,70.79,161.1s-9.79-2.45-11.16-2.45S55.66,158,55.35,159Z" fill="#f9e7e3"/>
        <path d="M60.76,173.41s1.81,2.8-3.24,3.16-6.13-.09-7.57-.72-5.41-5-5.41-5l-3.52-5s1.08-5.23,2.44-2.16,2.34,5.68,3.06,6.4,6.67,0,7.66.45S60.85,171.79,60.76,173.41Z" fill="#f9e7e3"/>
        <path d="M73,206.24a12.11,12.11,0,0,0-.75,6.52c.63,3.51,1.38,4.26,2.88,5.64s2.26,2.13,2.26,2.13a64.11,64.11,0,0,0,.61,9.05A13.85,13.85,0,0,0,80.49,235c.74.89,1.72-15.25-.08-18l-3.67-3.34-3.1-6.85Z" fill="#f9e7e3"/>
        <path d="M85.7,240.07l.7,1.49s-4.92,2.27-6.17,1.88-2.74-5.24-3.68-5.95.16-1.87.16-1.87l2.81-1,1,.37,3.72,4.32Z" fill="#f9e7e3"/>
        <path d="M48,237.55s2.08-.33,2.85.44-1.53,1.64-2.19,1A2.19,2.19,0,0,1,48,237.55Z" fill="#f9e7e3"/>
        <path d="M37.9,234.64s1.9,1.27,1.9,2.64-.53,3.5-1.33,3.85,1.59,1.06,1.32,2.55-6.24,4.48-6.5,5.71-1,1.76.62,1.85l3.33-1.67h1.94s2.28.44,1.58,1.14a14,14,0,0,1-6.33,4,4.07,4.07,0,0,0-3.07,4.13l-1.06-1.14s.88-4.57-.09-5.62-3.07-1.76-2.19-3.6,1.23-2.38,1.14-3.26-1.85-2.9-1.41-5.36.62-4.56.62-4.56l2-1.76s5.62-4,6.5-3.78S39.16,229.11,37.9,234.64Z" fill="#f9e7e3"/>
        <path d="M45.07,230.94s4.78-.09,5.31.26-3.54,8.5-5.13,7.88S45.07,230.94,45.07,230.94Z" fill="#f9e7e3"/>
        <path d="M117.92,2s3.18,1.21,2.42,3.48-3.18,13.64-4.54,12.88-2.14-3.09-2.14-3.09l1.88-6.42Z" fill="#f9e7e3"/>
        <path d="M122.09,12.25l-1.67,1.11S118,21.78,118,22.56a20.33,20.33,0,0,0,.34,2.55l1.55,1.33s4.54-7.87,4.32-10.53A4.58,4.58,0,0,0,122.09,12.25Z" fill="#f9e7e3"/>
        <path d="M133,21.34l-10.75,8.2a4.17,4.17,0,0,0-.45,3,15.86,15.86,0,0,0,2.66,4.54c.34.22,1.33-1.11,1.22-3.1s1.89-4.55,2.77-5.1,6.21-5.32,6.1-6.32S133,21.34,133,21.34Z" fill="#f9e7e3"/>
        <path d="M139.27,32.2s2.44.45,1.66,1.56-8.65,4.76-8.87,6.54-.55,5.54-2.44,4.54a4.83,4.83,0,0,1-2.21-3.32l.33-3.11Z" fill="#f9e7e3"/>
        <path d="M116,19s-3.77,1.78-3.77,3.88,4,11,3,11-2.44-2.11-2.44-2.11L109.56,24V20.45l2.11-2.32,2.88-.78Z" fill="#f9e7e3"/>
        <path d="M89.77,145.17s-.74,3.19-.17,3.36,5-1.07,4.18-1.56S90,146.07,89.77,145.17Z" fill="#f9e7e3"/>
        <path d="M96.32,134.36s-2.54,1.72-2,3.2a9,9,0,0,0,1.93,2.82.27.27,0,0,0,.46-.14C96.9,138.84,97.45,135,96.32,134.36Z" fill="#f9e7e3"/>
        <path d="M40,77.18s-3-3.47-4.76-2.45-6.93,18.5-6.93,22.74S26.2,82.83,31,73.84s10.78-12.46,9.5-12.21-6.81,2.83-7.84,4.24-4.23,8.61-4.23,8.61-.77-7.84,1.67-14.64c0,0-3.13,7.18-4,10.23A36.74,36.74,0,0,0,25,76.81l-.73,5.3L24,85.3l-.07,3.77s-1.88-1.6-3.12-8.34-.5-17.7-.5-17.7-1.17,7.76-1.46,10.88-.36,7.69-.36,7.69l.94,5.29,2,7.4L24.61,102l3.84,6,5.15,6.89s-3.48-9.37-3-17.62S40,77.18,40,77.18Z" fill="#f2eff2"/>
        <path d="M33.21,107.6S26,93.14,42.06,78c0,0,2.71.9,2.53,3.07a9.7,9.7,0,0,1-.72,3.25s4.51-4.16,6.14-3.61-1.81,5.6-1.81,5.6l-.33,2.8s5.93-2.8,6.66-1,1.62,4.52,0,4.7,5,3.61.9,4.7S50,97.12,47.3,99.83s6.68-2.17,16.62,2.71c0,0,4.16,4.33,3.79,6.14a20.62,20.62,0,0,0-18.79-3.25s-3.61,1.08-3.43,2,10.48,0,17.71,4.33,16.39,9.3,24.18,18.38l-1.07,1.05-10.68-8-3-2.36-12.77-5.93,2.09,2.62,7.58,7.2,2.84,3.32,2.28,5.41,1,3.22L70,130l-7.86-8.06L57,117.37l-4.17-1.8s-8.58-2.12-11.45-2.06c0,0-.33,2,1.25,5.79s6.69,8,6.69,8,.09,1.59-1.71.73-9.1-5.21-9.1-5.21-13.08-9.39-18.06-15.5S10.9,89.44,10.9,89.44L9.62,83.89V76.78l1.7,4.41a40.59,40.59,0,0,0,2.93,8.69c2.06,4.26,7.46,16.06,16.14,24.88,0,0,7.11,6,9.25,6C39.64,120.74,34.46,113.66,33.21,107.6Z" fill="#f2eff2"/>
        <path d="M51.17,104.88S67.54,110.57,74.34,117s13,13.18,13,13.18-2.77-8.46-4.44-9.71,5.13,3.33,5.13,3.33l3.54,3.16s.56,0,.79-1.36a3.06,3.06,0,0,0-.12-1.92S71.06,101.28,61.47,99.14a39.55,39.55,0,0,1,5.87,2c2.37,1.13,5.73.57,4.66-.5S57.79,90.28,48.11,94.1a20.07,20.07,0,0,0-12.3,13.14c-.24,1.07,1.08-10.87,15.53-14.81s35.71,8.95,35.71,8.95l2-.59a90.78,90.78,0,0,0-17.56-9.08s.72-5-2-5S54.8,83.47,47.87,89.08s.84-4.3,2.51-5.13,18.4-6,18.4-6-.84-5.74-3.35-5.74-11.23,1.44-10.63.24,6-3.58,7.53-3.82,13.73-1.55,19.58-1.19,3.82-1.56.36-1.56S62.56,64,55,66.51,35.93,82.63,33.18,88.72s-2.5,13.5-2.5,13.5-1.08-5.61,1.79-14.57S51.94,65.08,51.94,65.08l12.89-3.59,5-1.31a31.08,31.08,0,0,0-19.71,2.15A39.15,39.15,0,0,0,34.38,76.9c-.84,1.31-3.94,9-3.94,9S29.12,79.53,43,64.36c0,0,8.12-7,26-11.23,0,0-.47-1.67-8.71,1s-22.82,7.64-23.89,8.72-6.09,7.28-6.09,7.28,3.58-9,5.85-10.63A71.59,71.59,0,0,1,55.76,51a78.67,78.67,0,0,1,9.79-1.91L76.42,49,88.6,51l6.57,2.15,9,3.47,2.39,1.67L96.12,56.6l9.08,4.06,1.43,1.43,5.26,1.79,2.51,2.87-4.3-.6L99.83,64.48l6.8,3.1L114,71.65l4.66,4.18L119.77,78s-8.84-4.42-11.58-4.54l-2.75-.12,5.49,3.82,3.35,3.22-9.08-3-4.3-.48-2.63.36,4.9,2.51,6.57,5.13,3.94,4.78,2.63,4.54,1.19,3.22L111.77,93l-2.27-.59,4.3,6.45.72,2.86-.36,6.57S109,99,108,97.68s-.12,1.67-.12,1.67l.36,3.35s.12,4.77-.6,5.85a19.79,19.79,0,0,1-3.46,3l-.12-2-1.32,2.26-.84.67-.22,2.75-1.21-.06-.11,1.64-2.59,1.64-.53,2-2.8-.37v2.43l-1.32.11-.22,1.29-.49,2.93-2.89-1.46L82,119.55l-11.63-8.87-7.39-4-6.08-1.48Z" fill="#bbaed4"/>
        <path d="M58.26,119l-9,8.39s-4.76-4.08-6.69-8-1.25-5.79-1.25-5.79,7.15.69,10.32,1.71A25.12,25.12,0,0,1,58.26,119Z" fill="#bbaed4"/>
        <path d="M39.88,140.74s7.15-11.69,8.17-12-5.33-3.06-7.26-4.08-14.4-11.12-14.4-11.12L23,110.45s7.6,10.32,15.66,15c0,0,2.61.9,1.59,1.36s-2.5,1-2.5,1l-1.25,2,.23,4.31A49.15,49.15,0,0,0,39.88,140.74Z" fill="#bbaed4"/>
        <path d="M27.79,107.25s-6.43-11.17-7.67-16.58a39.84,39.84,0,0,1-1.24-7.45l-7.56-2,.9,4,4.85,3.72-1.58,1H14.25l2.48,5.19,3.84,5.64S25.64,106.13,27.79,107.25Z" fill="#bbaed4"/>
        <path d="M101.63,115.19a7.15,7.15,0,0,1,2,3.93c.59,2.75.88,3.93.88,3.93l-5.2,3.43-4.23,4.42-2.94,3.93s-.32,1.51-3.53,1.39h-.58l.65-6.23.75-4.69s2.62,2.16,2.89,1.46a5.93,5.93,0,0,0-.18-2.42l.89-1.8,1.32-.11V120l2.8.37.53-2,2.59-1.64.11-1.64Z" fill="#fff"/>
        <path d="M80.16,143.39l-22.6,2.41-1.84,1.14s3.23,6.14,6.4,8.16a19.27,19.27,0,0,0,5.31,2.54l.95-.13,7.28-7.72,3.8-3.11a2.6,2.6,0,0,0,.94-2.05C80.35,143.33,80.16,143.39,80.16,143.39Z" fill="#fff"/>
        <path d="M102.56,138.6S94.47,150.14,93,151.21s-7.5,6.3-7.5,6.3-.23,3.45,2.5,4.4,8.33,1.19,8.33,1.19l3.81-2.37,5.71-5.12,2.5-3.69.71-4.28-1.55-5.47-2-3.57S104.46,137.53,102.56,138.6Z" fill="#fff"/>
        <polygon points="82.59 141.45 55.85 141.45 52.79 142.86 51.15 145.29 50.68 147.88 53.89 151.17 55.73 146.94 56.95 146 59.69 145.45 82.75 143.17 83.03 142.09 82.59 141.45" fill="#bbaed4"/>
        <polygon points="86.35 136.52 87.99 137.08 89.47 125.3 86.91 123.5 86.73 127.58 87.38 130.13 86.31 131.18 86.35 136.52" fill="#bbaed4"/>
        <ellipse cx="91.77" cy="131.79" rx="2.45" ry="2.47" fill="#2884a4"/>
        <ellipse cx="75.7" cy="146.44" rx="2.45" ry="2.47" fill="#2884a4"/>
        <path d="M15.91,100.87a9.61,9.61,0,0,0-6.53,5.4c-2,4.59-1.53,12.34-1.53,12.34l-.91,6.52-.31,10.4s.31,5.6.61,6.93A9.18,9.18,0,0,0,8.36,145s-.81-10.09.82-17.74a17.73,17.73,0,0,1,7.75-11.11L15,123l-1,5.5.2,16.72.51,3.26s1.94-11.52,2.86-10.09,4,9,4,9,4.39,9.07,5.1,10.4a31.57,31.57,0,0,0,3,3.87s-8.46-20.28-9.28-24.87.71-11.21,2.85-10.09,1.23,9.68,1.53,12.64A23.82,23.82,0,0,0,26.1,145l3.77,6.72,3.57,5s-5-9.17-5-17.33S30.69,137,30.69,137s5.09,7.45,6.11,8.67,7.14,7.13,8.87,7.85a21.65,21.65,0,0,0,7.14,1l1-.21A20.25,20.25,0,0,1,41,146.74c-5.6-6.93-10.09-18.35-8.87-20.79s2.25-3.06,1.74-3.47-3.47,2.24-3.57,3-2.65-2.65-2.45-4.18-1.63-.31-1.83-1-1.94-4.69-2.55-4.49S20.7,122.17,20,126.46s-1.22-7.65-1.12-10.2-.2-8.76,2.76-7.85Z" fill="#f2eff2"/>
        <path d="M80.53,149.05s-9.21,8.13-9.7,9.41-1.57,4.7-1.57,4.7S80.63,149.93,80.53,149.05Z" fill="#a8827b"/>
        <path d="M94.37,136.51s7.07-6.75,11.47-9.64c0,0-4.29.64-5.68,2.46S94.37,136.51,94.37,136.51Z" fill="#a8827b"/>
        <path d="M89.74,145.45c.29.67,4,1.67,4,1.67A.16.16,0,0,0,94,147c0-.82,0-3.52-.93-3.52C91.57,143.46,89.46,144.81,89.74,145.45Z" fill="#a8827b"/>
        <path d="M83,142.09a1.78,1.78,0,0,0,1.65.06A3.13,3.13,0,0,0,86,140.48s2.85-1.09,2-3.4l-1.64-.56s1.69.77.76,1.86-2.34.17-2.34.17.69,1.67.16,2.26C82.93,143.05,81,139,81,139A6.41,6.41,0,0,0,83,142.09Z" fill="#a8827b"/>
        <path d="M49.32,157.88s20,14.72,32.2,17,25.26-3.46,28.92-7.12,8.45-21,7.64-27.44c-.07-.49-12.54-29.72-12.54-29.72" fill="none" stroke="#000" stroke-linecap="round" stroke-miterlimit="10"/>
        <path d="M71,171.24s-1.8,3.66-10.68,5.22S49,176.1,45.4,171.9s-6.12-8.77-5-10.93,10-2.21,10.45-2" fill="none" stroke="#000" stroke-linecap="round" stroke-miterlimit="10"/>
        <path d="M114.33,131.06s3.36-1.51,4.29-9.51.11-14.15-3.83-17.62" fill="none" stroke="#000" stroke-linecap="round" stroke-miterlimit="10"/>
        <path d="M47.55,128.27a72.39,72.39,0,0,1-11.5-6.6,88.8,88.8,0,0,1-10.3-8.37c-.81-.75-1.61-1.52-2.38-2.32s-1.56-1.57-2.29-2.41a46.21,46.21,0,0,1-4.06-5.3,48.22,48.22,0,0,1-3.28-5.82c-1-2-1.77-4.07-2.52-6.17-1.48-4.15-2.62-8.64-2-13.18a14,14,0,0,1,.33-1.69l.05-.21A.7.7,0,0,1,9.63,76a.63.63,0,0,1,.36-.32.67.67,0,0,1,.82.3.8.8,0,0,1,.08.31v.11l.07.8c.12,1.08.29,2.15.51,3.22a44.43,44.43,0,0,0,1.78,6.28,48.34,48.34,0,0,0,2.63,6,48.4,48.4,0,0,0,3.5,5.52,50.35,50.35,0,0,0,4.17,5,31.11,31.11,0,0,0,4.85,4.33h0a.25.25,0,0,1,.06.35.25.25,0,0,1-.32.07,20.89,20.89,0,0,1-5.22-4.17,50.69,50.69,0,0,1-4.27-5.11,49.19,49.19,0,0,1-3.6-5.62A50.31,50.31,0,0,1,12.34,87a46.64,46.64,0,0,1-1.86-6.41c-.23-1.09-.41-2.19-.54-3.31l-.08-.84v-.1c0-.08,0,0,0,.11a.37.37,0,0,0,.46.18.39.39,0,0,0,.21-.19c0-.12,0,0,0,0l-.05.19a13.81,13.81,0,0,0-.29,1.56c-.52,4.28.52,8.61,2,12.7C13,93,13.77,95,14.68,97a47.51,47.51,0,0,0,3.2,5.7,45.38,45.38,0,0,0,4,5.19c.71.82,1.48,1.6,2.24,2.39s1.53,1.57,2.33,2.32A91.19,91.19,0,0,0,47.67,128h0a.16.16,0,0,1,.07.21A.16.16,0,0,1,47.55,128.27Z"/>
        <path d="M33.66,115.45A55.16,55.16,0,0,1,26,105.19a68.44,68.44,0,0,1-5.41-11.57,45.55,45.55,0,0,1-2.44-12.55,59.38,59.38,0,0,1,0-6.4c.11-2.12.25-4.24.49-6.35.12-1.06.27-2.12.48-3.18A14.23,14.23,0,0,1,20.09,62c.86-2,1.8-3.86,2.77-5.75l1.49-2.81.38-.7.19-.35,0,0a.6.6,0,0,1,.24-.24.57.57,0,0,1,.7.13.54.54,0,0,1,.14.38.52.52,0,0,1,0,.18v0l0,.09c-.16.48-.28,1-.41,1.5-.5,2-.92,4.11-1.3,6.18s-.7,4.15-.94,6.23S23,71,22.92,73.1a42,42,0,0,0,1.25,12.43v0a.29.29,0,0,1-.19.36.31.31,0,0,1-.36-.18,25.89,25.89,0,0,1-1.38-6.27,56.87,56.87,0,0,1-.34-6.39A70.13,70.13,0,0,1,23.22,60.4c.39-2.09.83-4.17,1.35-6.24.13-.52.26-1,.43-1.55l0-.1v0a.51.51,0,0,0,0,.13.44.44,0,0,0,.11.29.42.42,0,0,0,.52.09.37.37,0,0,0,.17-.16l0,0-.19.35-.37.69-1.48,2.8c-1,1.87-1.89,3.77-2.74,5.69a22.5,22.5,0,0,0-1.31,6c-.24,2.09-.39,4.19-.49,6.29a57.42,57.42,0,0,0,0,6.29,44.34,44.34,0,0,0,2.39,12.28,66.66,66.66,0,0,0,5.32,11.39,54,54,0,0,0,7.48,10l0,0a.5.5,0,0,1-.72.69Z"/>
        <path d="M23.53,90a90.26,90.26,0,0,1,1.15-14.78A52.51,52.51,0,0,1,28.84,61,23.51,23.51,0,0,1,33,54.77l.08-.09,0,0,0,0,.11-.09a.5.5,0,0,1,.53.07.44.44,0,0,1,.14.26.4.4,0,0,1,0,.25l-.15.43-.29.87-.56,1.75c-.39,1.16-.76,2.33-1.12,3.5-.72,2.35-1.4,4.71-2,7.09a41.5,41.5,0,0,0-1.3,7.18v0a.3.3,0,0,1-.32.28.31.31,0,0,1-.29-.32,42.84,42.84,0,0,1,1.24-7.33c.57-2.4,1.22-4.78,1.92-7.14q.53-1.77,1.08-3.54c.19-.59.4-1.17.61-1.75l.33-.87.17-.44s0,.26.07.3a.28.28,0,0,0,.32,0,.15.15,0,0,0,.06,0l0,0,0,0-.08.09a22.89,22.89,0,0,0-4,6,51.48,51.48,0,0,0-4,14,89.56,89.56,0,0,0-1,14.62v0a.5.5,0,0,1-1,0Z"/>
        <path d="M27.8,75.72a57.29,57.29,0,0,1,5.28-12.85,21.09,21.09,0,0,1,2-2.88,13.3,13.3,0,0,1,2.67-2.36A37.25,37.25,0,0,1,44,54.37,93.66,93.66,0,0,1,57.1,50a67.25,67.25,0,0,1,6.8-1.43,47.92,47.92,0,0,1,7-.21A86.38,86.38,0,0,1,98,53.62l3.22,1.28,3.16,1.43c1,.51,2.06,1.05,3.09,1.58l.39.19.1,0a1.43,1.43,0,0,1,.16.1.7.7,0,0,1,.24.72.69.69,0,0,1-.56.5,1.17,1.17,0,0,1-.4,0l-.42-.11-1.67-.41-6.7-1.64A53.39,53.39,0,0,1,92,55.34a.28.28,0,0,1-.14-.35.27.27,0,0,1,.27-.16,55,55,0,0,1,6.75,1.4l6.68,1.69,1.67.43.42.1s.24,0,0,0a.31.31,0,0,0-.26.23.32.32,0,0,0,.12.33c.08.05,0,0,0,0l-.1-.05-.38-.19c-1-.52-2-1.06-3-1.56l-3.12-1.41-3.18-1.26a85.15,85.15,0,0,0-26.79-5.19,48,48,0,0,0-6.8.2A67.42,67.42,0,0,0,57.35,51a93.83,93.83,0,0,0-13,4.31,36.09,36.09,0,0,0-6,3.16,14.48,14.48,0,0,0-4.41,4.94A56.57,56.57,0,0,0,28.76,76v0a.49.49,0,0,1-.62.34.5.5,0,0,1-.33-.62Z"/>
        <path d="M69.71,52.69c2.86,0,5.71.14,8.57.3s5.71.32,8.58.62a38.92,38.92,0,0,1,8.38,2.23c2.7,1,5.36,2,8,3.17h0a25.31,25.31,0,0,1,2.28,1.4,12.24,12.24,0,0,1,1.07.83,4.45,4.45,0,0,1,1,1.11.52.52,0,0,1-.19.69.51.51,0,0,1-.68-.19h0v0A3.6,3.6,0,0,0,106,62c-.31-.26-.64-.52-1-.76a25.26,25.26,0,0,0-2.18-1.32l0,0c-2.62-1.1-5.27-2.17-7.94-3.13a37.69,37.69,0,0,0-8.15-2.19c-2.81-.3-5.67-.47-8.52-.64s-5.7-.27-8.54-.52a.39.39,0,0,1-.36-.42A.4.4,0,0,1,69.71,52.69Z"/>
        <path d="M51.7,64.88a62.78,62.78,0,0,1,10.69-3.51,71.82,71.82,0,0,1,11.12-1.82,42.73,42.73,0,0,1,11.29.5,80.18,80.18,0,0,1,10.91,2.83c3.56,1.18,7.07,2.52,10.52,4A34.34,34.34,0,0,1,116,72.62a29.53,29.53,0,0,1,4,4.1c.15.2.29.39.43.61a4.07,4.07,0,0,1,.21.37l.06.17a.46.46,0,0,1,0,.09,1.48,1.48,0,0,1,0,.21.51.51,0,0,1-.06.21.69.69,0,0,1-.2.22.6.6,0,0,1-.33.11,1.34,1.34,0,0,1-.55-.09l-.37-.13-.66-.3L116,77a52.71,52.71,0,0,0-5.1-2.17,18.32,18.32,0,0,0-5.31-1.16h0a.5.5,0,0,1,0-1,19.56,19.56,0,0,1,5.61,1.19,54.75,54.75,0,0,1,5.22,2.2l2.52,1.21.62.27c.09,0,.2.08.29.1s.21,0,.13,0,0,0-.17.06a.36.36,0,0,0-.13.17.26.26,0,0,0,0,.12.24.24,0,0,0,0,.12s0,0,0,0h0l-.14-.24c-.11-.18-.25-.36-.38-.54a29.61,29.61,0,0,0-3.82-3.94,33.41,33.41,0,0,0-9.46-5.6c-3.43-1.46-6.9-2.81-10.43-4A77.82,77.82,0,0,0,84.63,61a42.16,42.16,0,0,0-11-.51c-7.4.56-14.63,2.54-21.7,4.83h0a.25.25,0,0,1-.31-.16A.24.24,0,0,1,51.7,64.88Z"/>
        <path d="M41.88,87.32a65.18,65.18,0,0,1,6.9-10.14c2.66-3.1,5.65-6.11,9.56-7.8l1.51-.52,1.51-.34c1-.21,2-.42,3-.57,2-.34,4.07-.55,6.11-.72a86.78,86.78,0,0,1,12.28,0A75.75,75.75,0,0,1,94.93,69a50,50,0,0,1,5.92,1.74,34.49,34.49,0,0,1,5.58,2.68,39,39,0,0,1,5,3.58c.8.65,1.56,1.35,2.32,2l1.1,1.07.54.55,0,0a.31.31,0,0,1,.08.11.62.62,0,0,1,.09.3.66.66,0,0,1-.22.52.67.67,0,0,1-.6.14l-.13-.06,0,0,0,0-.32-.19a31,31,0,0,0-11.23-4H103a7.33,7.33,0,0,0-1.1-.14,11.22,11.22,0,0,0-1.16,0,15,15,0,0,0-2.31.33.5.5,0,1,1-.23-1,14.69,14.69,0,0,1,2.48-.37,10.76,10.76,0,0,1,1.27,0,7.92,7.92,0,0,1,1.31.16h-.08a31.8,31.8,0,0,1,11.66,4.06l.34.19,0,0h0l-.09,0a.48.48,0,0,0-.42.1.44.44,0,0,0-.15.35.51.51,0,0,0,.06.21l.06.07s0,0,0,0l-.54-.54-1.08-1c-.74-.68-1.48-1.37-2.26-2a37.18,37.18,0,0,0-4.9-3.48,33.66,33.66,0,0,0-5.41-2.61A47.57,47.57,0,0,0,94.68,70a75.45,75.45,0,0,0-12-1.79,86.15,86.15,0,0,0-12.13,0c-2,.16-4,.37-6,.7-1,.14-2,.35-3,.55l-1.47.33-1.38.47a20.28,20.28,0,0,0-5,3.15,47.69,47.69,0,0,0-4.26,4.27,72.55,72.55,0,0,0-7.13,9.82h0a.26.26,0,0,1-.35.09A.25.25,0,0,1,41.88,87.32Z"/>
        <path d="M98,64.12s13.16,1.51,16.55,3.13a.06.06,0,0,0,.08-.08c-.45-.67-2.12-3-4.15-3.58-2.38-.73-10.42-2.9-15-3.82" fill="none" stroke="#000" stroke-linecap="round" stroke-miterlimit="10"/>
        <path d="M86.47,72.8q5.09,1.32,10,3.14a40.27,40.27,0,0,1,4.89,2,44.72,44.72,0,0,1,4.33,3.07c1.37,1.09,2.76,2.12,4.09,3.32a27.86,27.86,0,0,1,3.6,3.92,29,29,0,0,1,2.79,4.52,21.46,21.46,0,0,1,2,5h0l.43,1.93-1.3-1.52a22.48,22.48,0,0,0-3.56-3.33,9.59,9.59,0,0,0-4.26-2h0a.49.49,0,0,1-.43-.56.52.52,0,0,1,.57-.43h0a10.79,10.79,0,0,1,4.74,2.17,20.51,20.51,0,0,1,2,1.64,22.3,22.3,0,0,1,1.77,1.86l-.88.42h0a20.73,20.73,0,0,0-1.93-4.69A30.87,30.87,0,0,0,112.53,89a26.87,26.87,0,0,0-3.46-3.77c-1.26-1.14-2.67-2.2-4-3.27a43,43,0,0,0-4.18-3,41,41,0,0,0-4.74-2l-9.84-3.48a.34.34,0,0,1-.2-.43A.33.33,0,0,1,86.47,72.8Z"/>
        <path d="M75.84,73.46A109.67,109.67,0,0,1,90,76.93a72.69,72.69,0,0,1,6.92,2.41c.56.26,1.14.47,1.69.78l.83.45c.27.17.53.38.8.57a29.48,29.48,0,0,1,2.63,2.61,128.55,128.55,0,0,1,9.21,11.35,30.08,30.08,0,0,1,2,3.11c.15.27.28.59.42.88a7.17,7.17,0,0,1,.27,1,13.66,13.66,0,0,1,.25,1.88,38.41,38.41,0,0,1-.41,7.36h0l-.25,1.67-.68-1.55c-1-2.33-2.11-4.64-3.27-6.91-.58-1.13-1.18-2.25-1.82-3.35a16.81,16.81,0,0,0-2.15-3l0,0a.48.48,0,0,1,.7-.67h0a17.46,17.46,0,0,1,2.3,3.22c.66,1.12,1.27,2.25,1.86,3.4q1.74,3.43,3.29,7l-.92.12h0A37.25,37.25,0,0,0,114,102a7.41,7.41,0,0,0-.84-3.27c-.57-1-1.27-2-2-3a129.39,129.39,0,0,0-9.1-11.26,28.53,28.53,0,0,0-2.52-2.52c-.23-.16-.44-.33-.68-.48L98.14,81c-.51-.29-1.08-.5-1.61-.75-2.21-.93-4.51-1.68-6.82-2.39-4.62-1.43-9.33-2.54-14-4a.25.25,0,0,1-.17-.31A.24.24,0,0,1,75.84,73.46Z"/>
        <path d="M61.58,80.17a33.46,33.46,0,0,1,7.75-2.58,24.55,24.55,0,0,1,4.1-.49,26.91,26.91,0,0,1,4.12.28c5.47.85,10.5,3.24,15.17,6,2.35,1.37,4.62,2.86,6.85,4.4l1.66,1.17a15.69,15.69,0,0,1,1.64,1.24,9.87,9.87,0,0,1,1.55,1.41l.71.77c.23.26.42.56.63.84a15.9,15.9,0,0,1,2.85,7.77,22.49,22.49,0,0,1-.67,8.24h0l0,.16-.14.1-3.2,2.31h0l-.94.68.15-1.15A25.4,25.4,0,0,0,104,107a10.53,10.53,0,0,0-.86-4.08,20.93,20.93,0,0,0-2.36-3.56c-.88-1.13-1.84-2.23-2.81-3.29h0a.29.29,0,0,1,0-.42.29.29,0,0,1,.4,0,40,40,0,0,1,3,3.23,21.69,21.69,0,0,1,2.51,3.68,11.36,11.36,0,0,1,1,4.4,25.47,25.47,0,0,1-.13,4.45L104,111h0l3.2-2.31-.18.25h0c1.3-5,1-10.82-2.11-15.07-1.48-2.16-3.69-3.64-5.91-5.19s-4.46-3-6.77-4.37c-4.61-2.71-9.53-5.05-14.79-5.87s-10.59.47-15.61,2.26h0a.27.27,0,0,1-.34-.16A.28.28,0,0,1,61.58,80.17Z"/>
        <path d="M89.23,101a83.07,83.07,0,0,1,7.18,7A24.17,24.17,0,0,1,98,110c.5.74.9,1.43,1.33,2.18a14.26,14.26,0,0,1,1.1,2.33,4.78,4.78,0,0,1,.24,2.75h0l0,.24-.26.1c-.39.15-.79.32-1.17.5a5.49,5.49,0,0,0-1,.6v0a.5.5,0,1,1-.64-.78h0a6.05,6.05,0,0,1,1.24-.74c.41-.2.82-.37,1.26-.54l-.31.34h0a3.91,3.91,0,0,0-.26-2.15,17.12,17.12,0,0,0-1-2.18c-.39-.7-.82-1.46-1.25-2.1a22.18,22.18,0,0,0-1.52-1.9c-2.18-2.48-4.5-4.87-6.77-7.3a.22.22,0,0,1,0-.32A.22.22,0,0,1,89.23,101Z"/>
        <path d="M67.65,94.67a85.9,85.9,0,0,1,9.64,4,87.23,87.23,0,0,1,9.28,4.85,23.89,23.89,0,0,1,4,3.51c1.23,1.25,2.41,2.52,3.58,3.81.58.65,1.16,1.3,1.71,2l.84,1c.13.18.27.35.4.56a2.92,2.92,0,0,1,.35.68,10.54,10.54,0,0,1,.28,5.46h0l-.11.41-.44-.05-2.59-.33a.5.5,0,0,1-.44-.56.51.51,0,0,1,.56-.43l2.6.33-.54.35h0a9.46,9.46,0,0,0-.3-4.8,9,9,0,0,0-1.43-2l-1.7-1.94c-1.15-1.29-2.33-2.56-3.53-3.79A24.91,24.91,0,0,0,86,104.34a85.13,85.13,0,0,0-9.09-4.9c-3.12-1.49-6.28-2.92-9.34-4.56a.12.12,0,0,1,0-.16A.11.11,0,0,1,67.65,94.67Z"/>
        <path d="M74.66,100.88c2.37,1,4.64,2.17,6.9,3.39l1.68,1a8.61,8.61,0,0,1,1.68,1.16c.91.95,1.75,1.89,2.61,2.85,1.72,1.9,3.38,3.85,5,5.85.4.5.8,1,1.19,1.53.19.27.39.53.57.83,0,.08.09.14.14.23l.14.33a3.45,3.45,0,0,1,.11.54,34.43,34.43,0,0,1,.15,3.91h0V123l-.47,0-1,0a.5.5,0,0,1-.05-1l1,0-.48.5h0a35.31,35.31,0,0,0-.22-3.75,2.42,2.42,0,0,0-.09-.4l-.06-.11-.11-.17c-.15-.24-.34-.49-.53-.74-.38-.5-.77-1-1.17-1.49-1.6-2-3.3-3.89-5-5.82-.83-.95-1.69-1.93-2.53-2.84a9.49,9.49,0,0,0-1.46-1l-1.64-1c-2.2-1.3-4.43-2.55-6.57-4a.18.18,0,0,1,0-.25A.18.18,0,0,1,74.66,100.88Z"/>
        <path d="M53.86,98.05a38.13,38.13,0,0,1,4.78,0c.8.06,1.6.15,2.4.29A14.14,14.14,0,0,1,63.4,99,53.51,53.51,0,0,1,72,103.19l4.15,2.31a39.21,39.21,0,0,1,4,2.6,40,40,0,0,1,3.7,3.06c1.18,1.1,2.23,2.28,3.34,3.42L90.54,118l1.64,1.74a5.22,5.22,0,0,1,1.14,2.35,4.89,4.89,0,0,1,.08,1.32l-.05.61a1,1,0,0,1-.11.36.71.71,0,0,1-.37.31.74.74,0,0,1-.49,0,.57.57,0,0,1-.22-.11.36.36,0,0,1-.09-.08l0,0-1.65-1.7q-1.67-1.68-3.37-3.33a92.48,92.48,0,0,0-14.55-12,.2.2,0,0,1-.06-.29.21.21,0,0,1,.23-.1h0a13.48,13.48,0,0,1,4.24,2.28c1.28.94,2.55,1.92,3.76,3,2.44,2,4.78,4.18,7.07,6.38q1.73,1.65,3.4,3.34l1.67,1.69,0,0,0,0-.09,0a.37.37,0,0,0-.21,0,.28.28,0,0,0-.14.12s0,.17,0,.07l.06-.57a4.18,4.18,0,0,0-1-2.91l-1.63-1.7-3.27-3.43c-1.09-1.13-2.15-2.32-3.29-3.38a38,38,0,0,0-3.59-3,38.86,38.86,0,0,0-3.94-2.54l-4.14-2.32a52.65,52.65,0,0,0-8.43-4.14,14.92,14.92,0,0,0-2.21-.63c-.76-.15-1.53-.25-2.31-.33-1.55-.18-3.13-.29-4.7-.37h0a.28.28,0,0,1-.27-.3A.29.29,0,0,1,53.86,98.05Z"/>
        <path d="M100.09,114.55l1.78-.14-.46.54a15.1,15.1,0,0,1-.15-2.23,21,21,0,0,1,.07-2.24.24.24,0,0,1,.48,0c.18.73.31,1.47.42,2.21a14.88,14.88,0,0,1,.18,2.22v.5l-.46,0-1.78.13a.5.5,0,1,1-.08-1Z"/>
        <path d="M104.37,109s-.94,2.61-2.4,3.34" fill="none" stroke="#000" stroke-linecap="round" stroke-miterlimit="10"/>
        <path d="M51.2,104.86a33.69,33.69,0,0,1,6.43.19,27.35,27.35,0,0,1,6.29,1.51,26.68,26.68,0,0,1,5.69,3.08c1.79,1.18,3.53,2.42,5.25,3.67,3.45,2.5,6.85,5.07,10.21,7.67,1.69,1.3,3.36,2.61,5,4l1.25,1,.62.5.15.13.08.06s.07,0,0,0a.29.29,0,0,0-.41.13s0,.11,0,.07v-.29l0-.39c0-.25,0-.51,0-.76a6.18,6.18,0,0,0-.15-1.46h0a.5.5,0,0,1,1-.26,6.84,6.84,0,0,1,.21,1.71c0,.28,0,.55,0,.82l0,.42v.3a.9.9,0,0,1-.06.26.77.77,0,0,1-1.08.36l-.14-.1-.08-.06-.16-.13-.63-.49-1.25-1-5-3.92c-3.35-2.6-6.73-5.18-10.16-7.68-1.72-1.25-3.44-2.49-5.2-3.66a29.06,29.06,0,0,0-5.47-3,36,36,0,0,0-12.33-2.21h0a.21.21,0,0,1-.2-.22A.19.19,0,0,1,51.2,104.86Z"/>
        <path d="M71.1,115.81A38.17,38.17,0,0,1,75.83,119c1.51,1.17,3,2.38,4.41,3.64s2.8,2.59,4.13,4A51.76,51.76,0,0,1,88.12,131l-.88.37h0a19.67,19.67,0,0,0-1.13-3.9,23.59,23.59,0,0,0-1.83-3.66,22.42,22.42,0,0,0-2.44-3.29,23.32,23.32,0,0,0-3-2.81l0,0a.49.49,0,0,1-.06-.7.5.5,0,0,1,.7-.07,24.62,24.62,0,0,1,3.1,2.94,22,22,0,0,1,2.55,3.43A24.66,24.66,0,0,1,87,127.06a21.19,21.19,0,0,1,1.19,4.14h0v1.46l-.89-1.09a72,72,0,0,0-7.84-8.08c-2.79-2.54-5.81-4.79-8.73-7.18h0a.3.3,0,0,1,0-.42A.3.3,0,0,1,71.1,115.81Z"/>
        <path d="M50.33,111.49a87.48,87.48,0,0,1,10.14,3.28A99.57,99.57,0,0,1,70.28,119a57.14,57.14,0,0,1,8.93,5.92c1.41,1.08,2.78,2.22,4.14,3.35.68.56,1.36,1.13,2.05,1.67.17.14.34.26.51.38a1.59,1.59,0,0,0,.25.17l.16.1s.05,0,.09,0l.11,0s.09-.13.1-.19v-.05a.5.5,0,0,1,.55-.44.51.51,0,0,1,.45.54,1.3,1.3,0,0,1-.5,1,1.22,1.22,0,0,1-.5.22,1,1,0,0,1-.56,0,1.41,1.41,0,0,1-.43-.21,2.23,2.23,0,0,1-.3-.2l-.56-.41c-.71-.54-1.4-1.11-2.09-1.66l-4.13-3.32a56.76,56.76,0,0,0-8.74-5.86,98.53,98.53,0,0,0-9.69-4.23c-3.3-1.26-6.62-2.46-9.91-3.79a.19.19,0,0,1-.11-.26A.2.2,0,0,1,50.33,111.49Z"/>
        <path d="M47.92,126.49a26.4,26.4,0,0,1-4.85-5.63,18.55,18.55,0,0,1-1.67-3.37,11.76,11.76,0,0,1-.65-3.77h0l0-.53.53,0a45.25,45.25,0,0,1,11.2,1.69,14.88,14.88,0,0,1,5.16,2.57c1.48,1.17,2.89,2.42,4.27,3.68,2.77,2.55,5.43,5.2,8,8a54.37,54.37,0,0,1,3.61,4.37,45.46,45.46,0,0,1,3,4.81l-.95.3a31.41,31.41,0,0,0-2.19-7.17,23,23,0,0,0-4-6.27,69.4,69.4,0,0,0-5.38-5.33c-1.89-1.69-3.83-3.34-5.82-4.91h0a.5.5,0,0,1-.09-.7.51.51,0,0,1,.71-.09h0c2,1.59,4,3.25,5.86,4.95a69.92,69.92,0,0,1,5.47,5.42,23.68,23.68,0,0,1,4.2,6.53,31.86,31.86,0,0,1,2.27,7.42l.55,3.07-1.49-2.78a45.12,45.12,0,0,0-3-4.67,52.84,52.84,0,0,0-3.54-4.28c-2.5-2.75-5.14-5.39-7.88-7.91-1.38-1.26-2.77-2.49-4.22-3.64a13.84,13.84,0,0,0-4.83-2.39,44.27,44.27,0,0,0-10.93-1.65l.51-.5h0a13.14,13.14,0,0,0,.64,3.43,21.87,21.87,0,0,0,1.46,3.25,27,27,0,0,0,2,3,34.67,34.67,0,0,0,2.36,2.76h0a.23.23,0,0,1,0,.32A.23.23,0,0,1,47.92,126.49Z"/>
        <path d="M41.52,127.07a4.35,4.35,0,0,0-3.88,1.64A6.24,6.24,0,0,0,37,133a24.56,24.56,0,0,0,3.69,8.53,35.69,35.69,0,0,0,6.1,7.15,26.37,26.37,0,0,0,7.85,5h0l1.11.49-1.07.43a8.86,8.86,0,0,1-2.89.56,14.94,14.94,0,0,1-2.84-.12,9.65,9.65,0,0,1-5.27-2.18q-2.18-1.71-4.25-3.56a20.32,20.32,0,0,1-3.77-4.13.28.28,0,0,1,.09-.38.3.3,0,0,1,.36,0h0a76.48,76.48,0,0,0,8.17,7.25A8.59,8.59,0,0,0,49.1,154a15.86,15.86,0,0,0,2.66.13,8.36,8.36,0,0,0,2.52-.45l0,.92h0a26.57,26.57,0,0,1-8.23-5.15,37.07,37.07,0,0,1-6.23-7.4,33.12,33.12,0,0,1-2.3-4.27,18.3,18.3,0,0,1-1.48-4.67c-.08-.41-.08-.84-.12-1.26s0-.84.06-1.26a5.49,5.49,0,0,1,.92-2.42,3.82,3.82,0,0,1,2.15-1.45,5,5,0,0,1,2.51,0,.18.18,0,0,1,.14.22.19.19,0,0,1-.19.15Z"/>
        <path d="M30.57,139.93c1.44,2.25,2.88,4.51,4.41,6.69a44.84,44.84,0,0,0,5,6.17,14.19,14.19,0,0,0,6.69,3.76,13.08,13.08,0,0,0,3.84.32l.47-.05.24,0c.17,0-.1,0-.15.14a.33.33,0,0,0,0,.38l-.16-.17-.35-.38c-.23-.26-.46-.53-.67-.82a2.75,2.75,0,0,1-.55-1.14.51.51,0,0,1,.41-.59.5.5,0,0,1,.58.41.43.43,0,0,0,0,0v0a2.16,2.16,0,0,0,.37.64,8.14,8.14,0,0,0,.61.73l.33.36.19.19a.71.71,0,0,1,.08.85.81.81,0,0,1-.58.35l-.26,0-.53,0a13,13,0,0,1-4.17-.32,15.23,15.23,0,0,1-7.17-4.06,44.25,44.25,0,0,1-5.13-6.33,55.54,55.54,0,0,1-4.13-7,.32.32,0,0,1,.15-.42.3.3,0,0,1,.39.11Z"/>
        <path d="M24.6,135.6s.1,6.09,1.13,9,7.32,12.58,9.28,14.23,7.68.8,7.68.8" fill="none" stroke="#000" stroke-linecap="round" stroke-miterlimit="10"/>
        <path d="M34.38,152.68a32,32,0,0,0,4.49,3.9,11.84,11.84,0,0,0,5.27,2.23h0a.5.5,0,1,1-.11,1,12,12,0,0,1-5.7-2.52,21.16,21.16,0,0,1-2.32-2A22,22,0,0,1,34,153a.23.23,0,0,1,.35-.3Z"/>
        <path d="M19.73,142.76c1,2.06,1.94,4.18,2.88,6.28s1.93,4.17,3,6.2c.54,1,1.1,2,1.69,3a11.26,11.26,0,0,0,7.86,5.52H35l1.36-.1h0l-.31.86q-1.8-1.8-3.49-3.67a47,47,0,0,1-3.24-3.91A11.85,11.85,0,0,1,28,154.7a12.32,12.32,0,0,1-.68-2.51c-.3-1.67-.5-3.34-.66-5a.37.37,0,0,1,.74-.08h0c.18,1.65.4,3.31.72,4.94a11.41,11.41,0,0,0,.65,2.33,12,12,0,0,0,1.29,2,71,71,0,0,0,6.72,7.38l.78.77-1.09.09h0l-1.36.11H35a11.94,11.94,0,0,1-8.6-6c-.6-1-1.16-2-1.7-3.05-1.08-2.06-2.06-4.16-3-6.28a48.5,48.5,0,0,1-2.46-6.5.26.26,0,0,1,.19-.32A.25.25,0,0,1,19.73,142.76Z"/>
        <path d="M17,117c-.41,2.09-1,4.14-1.52,6.19-.28,1-.54,2-.76,3.07a9,9,0,0,0-.21,1.46l0,1.61c-.08,4.25-.14,8.51,0,12.73,0,1.06.11,2.11.22,3.16a12.75,12.75,0,0,0,.56,3,14.08,14.08,0,0,0,1.64,2.55c.64.83,1.32,1.64,2,2.42a49.4,49.4,0,0,0,4.47,4.45,22.47,22.47,0,0,0,2.49,1.87,6.25,6.25,0,0,0,2.67,1.13h0a.52.52,0,0,1,.47.53.5.5,0,0,1-.54.47h0a7.22,7.22,0,0,1-3.19-1.24,23.1,23.1,0,0,1-2.63-1.93,43.84,43.84,0,0,1-4.63-4.51Q17,152.69,16,151.4a13.9,13.9,0,0,1-1.79-2.81,13.27,13.27,0,0,1-.64-3.29c-.11-1.07-.18-2.14-.22-3.21-.18-4.29-.11-8.55,0-12.81l0-1.59a10.61,10.61,0,0,1,.23-1.69c.23-1.07.5-2.1.78-3.13a49.89,49.89,0,0,1,2.1-6.06.26.26,0,0,1,.35-.14A.28.28,0,0,1,17,117Z"/>
        <path d="M15.9,106.38a19.1,19.1,0,0,0-4.4,2.83,3,3,0,0,0-.66.89,10.92,10.92,0,0,0-.48,1.19c-.28.84-.53,1.72-.79,2.59a58.69,58.69,0,0,0-2,10.79,89.51,89.51,0,0,0-.38,11c.06,1.84.13,3.67.36,5.48A23.27,23.27,0,0,0,8,143.81,6,6,0,0,0,9,146.13l-.88.33h0c0-1.81.12-3.59.3-5.38a51,51,0,0,1,.8-5.34,30.1,30.1,0,0,1,1.55-5.2A12.36,12.36,0,0,1,13.8,126a.5.5,0,0,1,.66.75h0a11.42,11.42,0,0,0-2.81,4.22,28.47,28.47,0,0,0-1.49,5,55.36,55.36,0,0,0-1.08,10.51h0v1.46l-.87-1.13A6.88,6.88,0,0,1,7.06,144a26.37,26.37,0,0,1-.45-2.78c-.2-1.86-.31-3.71-.36-5.56a87.91,87.91,0,0,1,.34-11.12c.38-3.69.87-7.36,1.61-11a27.5,27.5,0,0,1,.72-2.73,11.8,11.8,0,0,1,.53-1.38,4.13,4.13,0,0,1,1-1.32,11.31,11.31,0,0,1,5.23-2.46.39.39,0,0,1,.26.72Z"/>
        <path d="M14.25,98.17a7.67,7.67,0,0,0-3.15,1.29,3.18,3.18,0,0,0-.56.54c-.17.22-.34.46-.5.71a15.55,15.55,0,0,0-.88,1.55A25.35,25.35,0,0,0,6.68,109a44.81,44.81,0,0,0-.54,7.26,33.87,33.87,0,0,0,.17,3.64,6.34,6.34,0,0,0,1,3.27l0,0a.28.28,0,0,1,0,.39.29.29,0,0,1-.35,0,3.84,3.84,0,0,1-1-1.72A15.3,15.3,0,0,1,5.46,120a29.44,29.44,0,0,1-.38-3.74,40.31,40.31,0,0,1,.32-7.51A25.33,25.33,0,0,1,8,101.66c.3-.56.63-1.1,1-1.64.18-.26.38-.53.6-.79a4.45,4.45,0,0,1,.78-.72,8.34,8.34,0,0,1,3.73-1.29.47.47,0,0,1,.53.42.47.47,0,0,1-.38.52Z"/>
        <path d="M11.39,90.67s-3.32,1-4.83,2.72-5.59,7.1-5.44,7.85,6.35-6.95,10.43-2.87" fill="none" stroke="#000" stroke-linecap="round" stroke-miterlimit="10"/>
        <path d="M14.26,89.94a25.3,25.3,0,0,1,3-.5.08.08,0,0,0,.05-.14,47.46,47.46,0,0,0-5-4" fill="none" stroke="#000" stroke-linecap="round" stroke-miterlimit="10"/>
        <path d="M9.91,85a20.45,20.45,0,0,0-8.12.94s4-4.16,7.65-4.22" fill="none" stroke="#000" stroke-linecap="round" stroke-miterlimit="10"/>
        <path d="M11.29,81.38a17.79,17.79,0,0,1,7.29,2.32" fill="none" stroke="#000" stroke-linecap="round" stroke-miterlimit="10"/>
        <path d="M63.73,170.16,60,169.93l.5-.28h0a4,4,0,0,1-3.18,2.09,4.6,4.6,0,0,1-1-.05,3.4,3.4,0,0,1-1-.29,1.83,1.83,0,0,1-.83-.82,2.46,2.46,0,0,1-.22-1.06c0-1.29.45-2.41.35-3.37a1,1,0,0,0-.64-.9,14.31,14.31,0,0,0-1.59-.35,48.26,48.26,0,0,0-6.72-1,5.07,5.07,0,0,0-.79,0,1.2,1.2,0,0,0-.47.14,2,2,0,0,0,0,1.28,15.81,15.81,0,0,0,1.25,3.14h0a.18.18,0,0,1-.08.24.17.17,0,0,1-.22-.07,16.94,16.94,0,0,1-1.61-3.11,7.88,7.88,0,0,1-.27-.9,1.46,1.46,0,0,1,.2-1.16,1.69,1.69,0,0,1,1.08-.5,7.55,7.55,0,0,1,.94,0,49.71,49.71,0,0,1,6.89,1l.84.17a4.83,4.83,0,0,1,.93.23,2,2,0,0,1,.9.68,2.1,2.1,0,0,1,.38,1,32.85,32.85,0,0,1-.33,3.47c0,.51.15.81.49,1a2.52,2.52,0,0,0,.67.21,3.72,3.72,0,0,0,.74,0,3,3,0,0,0,2.36-1.52h0l.23-.32.27,0,3.7.6a.32.32,0,0,1-.07.63Z"/>
        <path d="M49.6,168.13c-.3-.67-.58-1.35-.83-2a9.07,9.07,0,0,1-.34-1.08,4.56,4.56,0,0,1-.12-.58,1.6,1.6,0,0,1,.08-.8.5.5,0,0,1,.68-.21.5.5,0,0,1,.2.68.94.94,0,0,0,0,.27,2.8,2.8,0,0,0,0,.49,9.78,9.78,0,0,0,.17,1c.14.7.33,1.4.53,2.09a.21.21,0,0,1-.13.25A.21.21,0,0,1,49.6,168.13Z"/>
        <path d="M108.07,108.13a37.22,37.22,0,0,0,1.42,3.75,2,2,0,0,0,.21.35s0,0,0,0a.56.56,0,0,0,.2,0c.3,0,.65,0,1,.06a6.9,6.9,0,0,1,2.11.37,2.42,2.42,0,0,1,1,.67,2,2,0,0,1,.49,1.15,3.57,3.57,0,0,1-.58,2.19c-.69,1.2-1.65,2.26-1.55,3.39.05.58.29.81.85.74a1.82,1.82,0,0,0,.38-.11.6.6,0,0,0,.21-.12,6,6,0,0,0,.41-.84,12.71,12.71,0,0,0,.86-3.82,22.94,22.94,0,0,0-.85-7.92.16.16,0,0,1,.31-.09,21.15,21.15,0,0,1,1.29,8.06,14,14,0,0,1-.83,4.08,8,8,0,0,1-.47,1,1.21,1.21,0,0,1-.6.45,2.36,2.36,0,0,1-.59.17,1.6,1.6,0,0,1-1.3-.32,1.72,1.72,0,0,1-.53-1.2,3.74,3.74,0,0,1,.58-2.17c.35-.62.75-1.17,1.07-1.73.68-1.07.75-2.41-.45-2.79a6.53,6.53,0,0,0-1.86-.35c-.34,0-.67,0-1-.09a1.32,1.32,0,0,1-.3-.06.73.73,0,0,1-.4-.25,2.63,2.63,0,0,1-.3-.52,35.62,35.62,0,0,1-1.38-3.86.33.33,0,0,1,.63-.21Z"/>
        <path d="M85.62,157.24s7.76-4.34,16.94-18.73c0,0,2.3-2.56,4.59,3.18s2.29,8.12.62,11.21-7.5,7.94-9.44,9.44-8.3.8-10.24-.26S84.92,158.31,85.62,157.24Z" fill="none" stroke="#000" stroke-linecap="round" stroke-miterlimit="10"/>
        <path d="M56.23,146.5a25.36,25.36,0,0,0,2,3.67,21.94,21.94,0,0,0,2.61,3.29A15.4,15.4,0,0,0,64.12,156,10.47,10.47,0,0,0,68,157.27h0l-.42.17c2.22-2.37,4.5-4.64,6.87-6.83q1.78-1.65,3.66-3.19l.94-.75a5.61,5.61,0,0,0,.87-.75,1.74,1.74,0,0,0,.34-1,7.24,7.24,0,0,0-.19-1.15h0a.18.18,0,0,1,.16-.22.18.18,0,0,1,.21.15,8.5,8.5,0,0,1,.24,1.22,2.21,2.21,0,0,1-.39,1.27,5.57,5.57,0,0,1-.92.86l-.92.78q-1.82,1.59-3.52,3.28c-2.28,2.25-4.49,4.59-6.6,7l-.18.2-.24,0h0a11.58,11.58,0,0,1-4.26-1.37,16.84,16.84,0,0,1-3.47-2.74,23.62,23.62,0,0,1-2.73-3.43,27,27,0,0,1-2.12-3.84.5.5,0,1,1,.91-.4h0Z"/>
        <path d="M102.38,114.72a67.29,67.29,0,0,1,2.4,7.23l.09.5a1.35,1.35,0,0,1-.06.69,2.21,2.21,0,0,1-.84.8c-.55.35-1.08.66-1.59,1a27,27,0,0,0-2.95,2.28,47.29,47.29,0,0,0-5.14,5.44c-.39.48-.78,1-1.16,1.47a11.26,11.26,0,0,1-1.24,1.49,3.29,3.29,0,0,1-1.81.93c-.72.06-1.29,0-1.94,0a.29.29,0,1,1,0-.57h0c.61,0,1.3,0,1.84,0a2.78,2.78,0,0,0,1.48-.78,11.22,11.22,0,0,0,1.15-1.43c.38-.51.77-1,1.16-1.5a46.17,46.17,0,0,1,5.16-5.58,29.84,29.84,0,0,1,3-2.38l1.58-1a1.74,1.74,0,0,0,.53-.45.94.94,0,0,0,0-.25,3.43,3.43,0,0,0-.08-.42,67.32,67.32,0,0,0-2.5-7h0a.5.5,0,0,1,.29-.65.5.5,0,0,1,.64.29Z"/>
        <path d="M51.25,147.69a.3.3,0,0,0,0-.1s0,0,0,0l.05.06.1.13.19.25.39.49.79,1c.27.32.54.64.82.94a6.47,6.47,0,0,0,.84.78h0l-.77.43a9.25,9.25,0,0,1,1-4.2,4.45,4.45,0,0,1,1.54-1.66,4.63,4.63,0,0,1,2.17-.57c2.72-.2,5.45-.47,8.17-.73l16.35-1.61h0l-.23.22a4,4,0,0,0,0-1.09.7.7,0,0,0-.13-.37s0,0-.14,0l-.25,0-2.33,0H75.13l-9.36.09c-3.11.06-6.28.05-9.32.23a6,6,0,0,0-3.81,1.91,5.23,5.23,0,0,0-1,1.85A9.84,9.84,0,0,0,51.25,147.69Zm-1,.31a7.52,7.52,0,0,1,.37-2.61,6.07,6.07,0,0,1,1.27-2.18,6.87,6.87,0,0,1,4.41-2.15c3.2-.16,6.27-.1,9.41-.12l9.37,0,4.69,0,2.35.06.33,0a.68.68,0,0,1,.19,0,.5.5,0,0,1,.21.13,1.07,1.07,0,0,1,.3.7,4.66,4.66,0,0,1,0,1.24l0,.2-.2,0h0L66.6,145.27c-2.73.3-5.44.6-8.18.85a3.17,3.17,0,0,0-3,1.81,8.31,8.31,0,0,0-.83,3.73v1l-.75-.53h0a6.5,6.5,0,0,1-1-1c-.3-.32-.58-.65-.85-1l-.82-1-.39-.5-.2-.26-.1-.12,0-.07,0-.05A.51.51,0,0,1,50.3,148Z"/>
        <path d="M89.69,125.45c-.21.88-.33,1.9-.47,2.86l-.38,2.94-.69,5.88h0l-.05.38-.34-.14-1.56-.61h0l-.15-.06v-.16l.11-5.15a.31.31,0,0,1,.3-.29.29.29,0,0,1,.29.31h0l-.26,5.15-.14-.22h0l1.6.48-.38.24h0l.66-5.89.37-2.94c.14-1,.24-1.94.48-3a.32.32,0,0,1,.62.15h0Z"/>
        <path d="M86.47,127.28l.12-4a.29.29,0,0,1,.3-.29.31.31,0,0,1,.29.3h0l-.24,4a.23.23,0,0,1-.46,0Z"/>
        <path d="M100.52,172.94l2.94,4.35a.28.28,0,0,1-.08.39.27.27,0,0,1-.37-.05l-3.3-4.09a.52.52,0,0,1,.08-.71.49.49,0,0,1,.7.08Z"/>
        <path d="M125.65,116s-6.49,5.44-6.62,6.88a148.13,148.13,0,0,0,1.83,36.73c3.4,18,4.5,23.37,2.11,29.26s-8.65,21.89-9.57,34.59c0,0-1.38.73-4.53-2.07s-15.78-14.79-16.33-16.23,1.09-21.48,2-23.23,6.4-7.22,6.4-7.22" fill="none" stroke="#000" stroke-linecap="round" stroke-miterlimit="10"/>
        <path d="M104.67,192.7a57.19,57.19,0,0,1,1.9-11.92,46.36,46.36,0,0,1,4.79-11.07l3-5.2a30.63,30.63,0,0,0,2.5-5.32A45.19,45.19,0,0,0,119,147.55h0a.19.19,0,0,1,.21-.18.19.19,0,0,1,.19.19,40.36,40.36,0,0,1-.34,6,37,37,0,0,1-1.24,5.93,29.06,29.06,0,0,1-2.55,5.51l-3,5.2a45.4,45.4,0,0,0-4.66,10.85,61.76,61.76,0,0,0-1.92,11.68v0a.5.5,0,0,1-.53.47A.51.51,0,0,1,104.67,192.7Z"/>
        <path d="M93.62,188.82s3.86-3.09,12-2.21" fill="none" stroke="#000" stroke-linecap="round" stroke-miterlimit="10"/>
        <path d="M104.13,216.73l5.68-7.43a3.47,3.47,0,0,1,2.58-1.37c1.61-.09,3.93-.35,4.33-1.08" fill="none" stroke="#000" stroke-linecap="round" stroke-miterlimit="10"/>
        <path d="M98.55,177a9.17,9.17,0,0,0-3.09.62c-.82.51-6.47,8-7.28,8.51s-5-.8-7.1.27-10.58,8.84-10.85,9.78S75.31,212,77,213.88A27.08,27.08,0,0,0,82.29,218" fill="none" stroke="#000" stroke-linecap="round" stroke-miterlimit="10"/>
        <path d="M81.17,208.53c.47,2.06.87,4.12,1.2,6.2a43.94,43.94,0,0,1,.64,6.32c0,4.18,0,8.39.34,12.52A6.85,6.85,0,0,0,83.6,235a14.78,14.78,0,0,0,.61,1.37c.47.91,1,1.81,1.54,2.7s1.11,1.75,1.7,2.6c.3.42.61.84.92,1.25.16.2.32.4.48.58s.34.38.44.38a5.2,5.2,0,0,0,1.35.22c.5,0,1,0,1.53,0,1,0,2.08,0,3.12-.09,2.08-.11,4.17-.28,6.24-.48h0a.49.49,0,0,1,.54.44.5.5,0,0,1-.44.55c-2.1.22-4.19.4-6.3.51-1,.07-2.11.1-3.17.11-.53,0-1.07,0-1.61-.06a5.35,5.35,0,0,1-1.73-.33,2.23,2.23,0,0,1-.75-.62c-.18-.21-.35-.42-.51-.64-.33-.42-.64-.85-.95-1.29-.6-.87-1.18-1.76-1.73-2.66s-1.08-1.82-1.56-2.78a12.11,12.11,0,0,1-.66-1.5,7.26,7.26,0,0,1-.29-1.65c-.35-4.23-.35-8.42-.3-12.63a81.79,81.79,0,0,0-1.48-12.39h0a.28.28,0,0,1,.24-.32A.29.29,0,0,1,81.17,208.53Z"/>
        <path d="M126.11,119s-3.2,2.42-3.34,4.47,1.46,17.41,4.24,21.35c2.53,3.6,17.77,14.33,24.36,16.8a2.43,2.43,0,0,0,2.72-.73c2-2.41,5.55-6,6.17-8.37.05-.16-1.64-8.16-4.22-12.25" fill="none" stroke="#000" stroke-linecap="round" stroke-miterlimit="10"/>
        <path d="M139.94,132.72q-.41,3-.56,5.93a47.08,47.08,0,0,0,0,5.94,21,21,0,0,0,1.13,5.75,27.61,27.61,0,0,1,1.72,5.82h0a.5.5,0,0,1-1,.13h0a26.45,26.45,0,0,0-1.55-5.67,22.28,22.28,0,0,1-1-6,48.28,48.28,0,0,1,.13-6q.22-3,.7-6a.23.23,0,0,1,.26-.19A.23.23,0,0,1,139.94,132.72Z"/>
        <path d="M142.6,143.54a9.38,9.38,0,0,0-.86,2,16.42,16.42,0,0,0-.47,2.19,21,21,0,0,0-.19,2.23c0,.75,0,1.5,0,2.25h0a.34.34,0,0,1-.68,0h0q0-1.16,0-2.31a22.32,22.32,0,0,1,.27-2.29,16,16,0,0,1,.56-2.24,9.39,9.39,0,0,1,1-2.12.2.2,0,0,1,.35.21Z"/>
        <path d="M127.67,126.31c-.85-3.22-1.54-6.47-2.12-9.74a98.7,98.7,0,0,1-1.31-9.89,26.42,26.42,0,0,1,1.55-9.94,35.46,35.46,0,0,1,4.62-8.94.5.5,0,1,1,.81.58h0l0,0a34.76,34.76,0,0,0-4.46,8.65,25.46,25.46,0,0,0-1.5,9.57c.21,3.26.61,6.56,1.08,9.82s1.09,6.52,1.85,9.73h0a.26.26,0,0,1-.19.31A.26.26,0,0,1,127.67,126.31Z"/>
        <path d="M138.8,96.77a51.74,51.74,0,0,1-6.5-6.32,27.56,27.56,0,0,1-4.91-7.72,13.2,13.2,0,0,1-.72-4.59c0-1.52,0-3,.12-4.55a73.87,73.87,0,0,1,1.1-9,.5.5,0,1,1,1,.17h0c-.51,2.93-.84,5.92-1.06,8.9-.1,1.49-.16,3-.15,4.47a11.76,11.76,0,0,0,.63,4.28,28.18,28.18,0,0,0,4.65,7.5,74.36,74.36,0,0,0,6.11,6.57h0a.19.19,0,0,1,0,.27A.2.2,0,0,1,138.8,96.77Z"/>
        <path d="M160.27,60.68q1.46,4.86,2.74,9.74c.42,1.64.81,3.28,1.14,5a17.1,17.1,0,0,1,.43,5.12,25.63,25.63,0,0,1-1.18,5,29.57,29.57,0,0,1-2.13,4.65,19,19,0,0,1-1.37,2.18c-.51.72-1.08,1.31-1.47,2a7.85,7.85,0,0,0-.87,2.25A11.88,11.88,0,0,0,157.2,99a.21.21,0,0,1-.2.19.2.2,0,0,1-.19-.19,13,13,0,0,1,.17-2.57,7.78,7.78,0,0,1,.79-2.49,22.67,22.67,0,0,1,1.41-2.14,23.75,23.75,0,0,0,1.25-2.13,42,42,0,0,0,2-4.56,23.44,23.44,0,0,0,1.44-4.73,8.61,8.61,0,0,0,0-2.43c-.11-.82-.26-1.64-.42-2.46-.34-1.64-.74-3.26-1.17-4.89-.86-3.24-1.85-6.46-2.93-9.63a.5.5,0,0,1,.31-.64.49.49,0,0,1,.63.31Z"/>
        <path d="M157.82,95.55a63.17,63.17,0,0,1,2.74,12.18,48.37,48.37,0,0,1,.38,6.26c0,2.07,0,4.14,0,6.22a40.72,40.72,0,0,1-1.64,12.43c-.67,2-1.56,3.88-2.39,5.79-.44.94-.87,1.88-1.28,2.8a14.78,14.78,0,0,0-.89,2.9.23.23,0,0,1-.27.17.22.22,0,0,1-.18-.23,10.23,10.23,0,0,1,.57-3.13c.34-1,.77-1.95,1.16-2.91.81-1.9,1.7-3.79,2.32-5.71a42.06,42.06,0,0,0,1.57-12.12c0-2.07,0-4.14,0-6.21a48.31,48.31,0,0,0-.42-6.13c-.51-4.08-1.36-8.13-2.18-12.17h0a.24.24,0,0,1,.19-.29A.25.25,0,0,1,157.82,95.55Z"/>
        <path d="M161.75,142.46a31.11,31.11,0,0,1-.16,6.25,16.19,16.19,0,0,1-1.84,6.06.51.51,0,0,1-.69.17.49.49,0,0,1-.19-.65v0a20.55,20.55,0,0,0,1.78-5.71c.2-1,.32-2,.44-3s.21-2,.25-3.06a.21.21,0,0,1,.21-.19A.19.19,0,0,1,161.75,142.46Z"/>
        <path d="M160.08,129.9c1.84,3.07,3.63,6.17,5.27,9.37.4.81.8,1.61,1.16,2.45a12.25,12.25,0,0,1,.92,2.64,2.43,2.43,0,0,1,.06.75c0,.25,0,.5-.06.72-.06.46-.13.91-.22,1.35-.15.89-.34,1.77-.53,2.64-.74,3.51-1.64,7-2.45,10.44a92.77,92.77,0,0,0-2,10.48h0a.2.2,0,0,1-.22.18.2.2,0,0,1-.18-.21,94.25,94.25,0,0,1,1.75-10.61l2.22-10.48c.18-.88.35-1.75.5-2.62a8.42,8.42,0,0,0,.2-2.49,12.56,12.56,0,0,0-.85-2.4c-.35-.81-.75-1.6-1.15-2.39-1.61-3.17-3.4-6.26-5.23-9.31h0a.5.5,0,0,1,.86-.51Z"/>
        <path d="M165.7,153.93a44.65,44.65,0,0,0,2.57,5.7c1,1.86,2,3.68,3.08,5.49l1.62,2.71c.27.46.54.89.81,1.4a5.76,5.76,0,0,1,.43,1.69,32.7,32.7,0,0,1-.16,6.42.49.49,0,0,1-.54.45.5.5,0,0,1-.45-.55h0a32.13,32.13,0,0,0,.15-6.19,4.37,4.37,0,0,0-.33-1.37c-.21-.43-.49-.89-.75-1.34l-1.58-2.74c-1.05-1.84-2.07-3.69-3-5.58a46.08,46.08,0,0,1-2.53-5.85.37.37,0,0,1,.71-.24Z"/>
        <path d="M125.82,51.21s-.34,10.07,1.57,12.33,13.08,8.64,15.63,8.74,17.77-11.7,18-12.76.32-7.56-.75-8.52-3.58-19.57-4.2-22.68-4-4-4-4" fill="none" stroke="#000" stroke-linecap="round" stroke-miterlimit="10"/>
        <path d="M123.88,40a14.69,14.69,0,0,0-.67,3.47,6.18,6.18,0,0,0,.52,3.32,37.15,37.15,0,0,0,4.2,5.88c.78.93,1.59,1.84,2.45,2.69a10.5,10.5,0,0,0,1.33,1.13,3.57,3.57,0,0,0,1.59.46,21.61,21.61,0,0,0,3.6,0c1.21-.08,2.43-.2,3.63-.37h0a.26.26,0,0,1,.3.23.26.26,0,0,1-.22.29,30.93,30.93,0,0,1-7.4.59,4.29,4.29,0,0,1-1.92-.54,9.62,9.62,0,0,1-1.5-1.2c-.91-.86-1.76-1.77-2.57-2.69a36.31,36.31,0,0,1-4.39-6,7.24,7.24,0,0,1-.66-3.84,16.46,16.46,0,0,1,.75-3.73.51.51,0,0,1,.63-.32.49.49,0,0,1,.32.63Z"/>
        <path d="M160.76,51.05a14,14,0,0,1-.72,2.69,14.78,14.78,0,0,1-1.19,2.47,11.35,11.35,0,0,1-1.66,2.17,10.77,10.77,0,0,1-2.12,1.7.13.13,0,0,1-.19,0,.13.13,0,0,1,0-.18h0a10.52,10.52,0,0,0,1.93-1.78,11,11,0,0,0,1.45-2.17,15.28,15.28,0,0,0,1-2.42,13.45,13.45,0,0,0,.49-2.53v0a.5.5,0,1,1,1,.09Z"/>
        <path d="M72.75,204.46s-1,7.64-.11,10.7,4.47,4.12,4.47,5.3.7,10.82,1.53,12.11,5,6.9,6.7,7.18" fill="none" stroke="#000" stroke-linecap="round" stroke-miterlimit="10"/>
        <path d="M118,20.43s-4-2.51-4.28-4.77,3.18-12.76,4.51-13.88C119.8.48,136.5,0,138.16,1.19s13.1,21.25,13.78,22.91,1.46,17.17.55,19.79c-.76,2.17-6.83,7.51-12.43,8.17s-8.9-2.1-11.41-5.42a10.07,10.07,0,0,1-2-5s-4.22-2-6.2-4.56" fill="none" stroke="#000" stroke-linecap="round" stroke-miterlimit="10"/>
        <path d="M122.4,28.87s-4-3.72-4.25-4.55C117.44,22,120,13,120.76,12.85s8.88-4.72,13.41-4.72" fill="none" stroke="#000" stroke-linecap="round" stroke-miterlimit="10"/>
        <path d="M135.48,20.33c-3.91,1-13.24,8.28-13.71,9.48a7.13,7.13,0,0,0,1.44,6.06c1.59,1.7,3,2.45,4.57,2.34S140,31.83,140,31.83" fill="none" stroke="#000" stroke-linecap="round" stroke-miterlimit="10"/>
        <path d="M127.78,38.21s-.89,4.9.94,6.14,8.72.59,13.84-2.12" fill="none" stroke="#000" stroke-linecap="round" stroke-miterlimit="10"/>
        <path d="M114.31,17.13s-3.29,1.35-3.87,2.27-1.94,3.7.73,9.13,4.22,7.94,7.38,8.66a1.58,1.58,0,0,0,.75,0,4.83,4.83,0,0,0,3-2.8" fill="none" stroke="#000" stroke-linecap="round" stroke-miterlimit="10"/>
        <path d="M66.48,242.42a34,34,0,0,0-2.1-3,10.68,10.68,0,0,0-2.56-2.47,3.86,3.86,0,0,0-.73-.37,2.55,2.55,0,0,0-.75-.12,2.71,2.71,0,0,0-1.48.41,2.85,2.85,0,0,0-.9,2.82h0l-.36-.38a5.22,5.22,0,0,1,1.27.58,4.82,4.82,0,0,1,1.06.89,6.57,6.57,0,0,1,.8,1.1,7,7,0,0,1,.55,1.27v.13l0,2.45-.16,2.45a32.17,32.17,0,0,1-.89,4.84,20,20,0,0,1-1.8,4.62A13.8,13.8,0,0,1,57,259.7a8.44,8.44,0,0,1-1.86,1.81l.21-.26a2.37,2.37,0,0,0,.14,2.06,2.61,2.61,0,0,0,1.94.9,23.37,23.37,0,0,0,5.2-.18,8.49,8.49,0,0,1,2.79.12c.49.11.85.23,1.26.3a5.61,5.61,0,0,0,1.22.08,3.8,3.8,0,0,0,2.2-.78,5.4,5.4,0,0,0,1.47-2,.27.27,0,0,1,.51.19,5.34,5.34,0,0,1-1.46,2.39A4.38,4.38,0,0,1,68,265.47a8.12,8.12,0,0,1-2.75-.34,7.94,7.94,0,0,0-2.49-.1,23.55,23.55,0,0,1-5.39.2,3.62,3.62,0,0,1-2.69-1.32,2.72,2.72,0,0,1-.49-1.53,4,4,0,0,1,.23-1.51l.05-.14.17-.12a7.76,7.76,0,0,0,1.58-1.56,13.37,13.37,0,0,0,1.28-1.95,19.27,19.27,0,0,0,1.69-4.39A32,32,0,0,0,60,248l.17-2.39,0-2.39v.13a4.76,4.76,0,0,0-.44-1,5.36,5.36,0,0,0-.65-.93,4,4,0,0,0-1.84-1.18l-.3-.11-.05-.27h0a4.8,4.8,0,0,1,.05-2.1,3.06,3.06,0,0,1,1.25-1.8,3.66,3.66,0,0,1,2.07-.57,3.51,3.51,0,0,1,1.08.21,5.77,5.77,0,0,1,.92.49A10.46,10.46,0,0,1,65,238.91a18.21,18.21,0,0,1,1.79,3.34.19.19,0,0,1-.1.25.2.2,0,0,1-.23-.08Z"/>
        <path d="M90.85,244.68s.12,6.34.92,6.92,5.3-.23,5.3-.23" fill="none" stroke="#000" stroke-linecap="round" stroke-miterlimit="10"/>
        <path d="M70.15,264.3a15,15,0,0,0,2.07,2.07,2.91,2.91,0,0,0,.54.34h0s.06,0,.09,0a.59.59,0,0,0,.25-.08,5.25,5.25,0,0,0,1.16-.76,19.54,19.54,0,0,0,3.88-4.44,6.62,6.62,0,0,0,.59-2.75c.08-1,.09-2,.09-3q0-3-.27-6.06a42.29,42.29,0,0,0-.86-6,11.35,11.35,0,0,0-1-2.76,12.2,12.2,0,0,0-1.57-2.49,4.79,4.79,0,0,0-2.26-1.62,3.14,3.14,0,0,0-.68-.13h-.39l-.13.07c-.38.23-.81.56-1.25.83a8.13,8.13,0,0,1-2.92,1.16,8.38,8.38,0,0,1-3.12-.07.2.2,0,0,1-.16-.23.2.2,0,0,1,.22-.16,8.58,8.58,0,0,0,3-.08A7.48,7.48,0,0,0,70,237c.42-.27.78-.58,1.25-.9l.22-.11a.8.8,0,0,1,.31-.07h.42a3.7,3.7,0,0,1,.82.14,5.53,5.53,0,0,1,2.66,1.84,13.46,13.46,0,0,1,1.68,2.65,12.82,12.82,0,0,1,1.1,2.92,45.21,45.21,0,0,1,.91,6.09c.18,2,.29,4.07.31,6.12,0,1,0,2.05-.07,3.08,0,.52-.08,1-.16,1.56a4.41,4.41,0,0,1-.18.81,3.29,3.29,0,0,1-.35.78,20.22,20.22,0,0,1-4.07,4.72,6.1,6.1,0,0,1-1.39.92,1.73,1.73,0,0,1-.47.15,2.19,2.19,0,0,1-.28,0,2.33,2.33,0,0,1-.36-.08,3.56,3.56,0,0,1-.75-.46,15.25,15.25,0,0,1-2.25-2.22.49.49,0,0,1,.05-.7.51.51,0,0,1,.71,0h0Z"/>
        <path d="M74.6,237.1A9,9,0,0,1,77.05,235a5.74,5.74,0,0,1,3.2-.77.49.49,0,0,1,.46.54.5.5,0,0,1-.53.46h0a4.78,4.78,0,0,0-2.73.48A8.41,8.41,0,0,0,75,237.47h0a.28.28,0,0,1-.4,0A.28.28,0,0,1,74.6,237.1Z"/>
        <path d="M78.16,262.51s8.72.51,13-.78a13,13,0,0,0,6.38-4.25" fill="none" stroke="#000" stroke-linecap="round" stroke-miterlimit="10"/>
        <path d="M44,233.1A20.47,20.47,0,0,0,39.28,230a4.83,4.83,0,0,0-1.22-.36,3.23,3.23,0,0,0-1.22.26,15.86,15.86,0,0,0-2.51,1.25,48.1,48.1,0,0,0-4.7,3.23,3.48,3.48,0,0,0-1.1,2.2c0,.39,0,.92,0,1.41a8.35,8.35,0,0,1-.12,1.55,1.84,1.84,0,0,1-.17.5l-.11.16-.05.06-.1.13a3.67,3.67,0,0,0-.34.53,3,3,0,0,0-.33,1.19,2.53,2.53,0,0,0,.95,2.13,2.43,2.43,0,0,0,.25.2l.31.23a2,2,0,0,1,.6.77,2.39,2.39,0,0,1-.09,1.8,9.26,9.26,0,0,1-.71,1.37,8.11,8.11,0,0,0-.66,1.17c0,.1,0,.08,0,.13s0,.2.05.3a5.89,5.89,0,0,0,.21.59A6.31,6.31,0,0,0,28.9,252c.28.38.59.73.9,1.17a2.49,2.49,0,0,1,.41.8,5.89,5.89,0,0,1,.1.81,10.84,10.84,0,0,0,.42,2.74,2.17,2.17,0,0,0,1.67,1.63A44.08,44.08,0,0,0,38,260.36c.94.16,1.92.33,2.83.42.62.1,1,.22,1.49.33l1.41.3a22.82,22.82,0,0,0,2.82.41,6.16,6.16,0,0,0,2.64-.25,6.74,6.74,0,0,0,2.06-1.7,11.62,11.62,0,0,0,1.54-2.33,11.93,11.93,0,0,0,1-2.61,22.45,22.45,0,0,0,.44-2.82c.24-1.94.53-3.87,1-5.78.22-1,.45-1.89.71-2.84a10.63,10.63,0,0,0,.61-2.73,3.57,3.57,0,0,0-1.12-2.31,13.85,13.85,0,0,0-2.17-1.77h0a.5.5,0,0,1-.13-.7.51.51,0,0,1,.7-.12l0,0a14.53,14.53,0,0,1,2.22,2,4.45,4.45,0,0,1,1.21,2.87,10.79,10.79,0,0,1-.72,2.91c-.26.92-.51,1.86-.73,2.8a36.57,36.57,0,0,0-.91,5.7,23.28,23.28,0,0,1-.27,2.94,11.21,11.21,0,0,1-1,2.86A12.57,12.57,0,0,1,52,260.49a7.66,7.66,0,0,1-2.41,2,7.06,7.06,0,0,1-3.09.33,26,26,0,0,1-2.94-.41l-1.43-.31c-.45-.1-1-.24-1.35-.3-1-.1-2-.27-2.93-.43a43.94,43.94,0,0,1-5.75-1.28,3.57,3.57,0,0,1-1.46-.81,3.83,3.83,0,0,1-.83-1.44,11.43,11.43,0,0,1-.48-3,6,6,0,0,0-.07-.63,1.73,1.73,0,0,0-.27-.48c-.25-.36-.58-.73-.88-1.14a7.54,7.54,0,0,1-.82-1.32,5.13,5.13,0,0,1-.27-.78c0-.13,0-.27-.08-.41a1.23,1.23,0,0,1,.07-.59c.88-1.92,2.6-3.49.59-4.42a3.61,3.61,0,0,1-1.32-3,4.33,4.33,0,0,1,.44-1.59,4.58,4.58,0,0,1,.44-.7c.23-.3.17-.18.24-.42a9.4,9.4,0,0,0,.1-1.35c0-.48,0-.91,0-1.5a4.44,4.44,0,0,1,1.44-2.88,47.1,47.1,0,0,1,4.89-3.35,16.79,16.79,0,0,1,2.69-1.32,4.29,4.29,0,0,1,1.62-.32,5.72,5.72,0,0,1,1.56.45,21.27,21.27,0,0,1,5,3.28.5.5,0,0,1,.07.7.52.52,0,0,1-.71.07Z"/>
        <path d="M51.47,260.05c.61,0,1.2,0,1.81.09a7.9,7.9,0,0,1,.92.14,2.61,2.61,0,0,1,1,.4.5.5,0,0,1,.12.69.5.5,0,0,1-.7.13l-.06-.06a2.14,2.14,0,0,0-.61-.26q-.39-.1-.81-.18a16.31,16.31,0,0,0-1.71-.22h0a.37.37,0,0,1-.33-.4A.38.38,0,0,1,51.47,260.05Z"/>
        <path d="M55.48,247.27a13.94,13.94,0,0,0,2.19.79.17.17,0,0,1,.13.2.17.17,0,0,1-.18.13,12.94,12.94,0,0,1-2.4-.4.39.39,0,0,1-.29-.47.4.4,0,0,1,.47-.28l.07,0Z"/>
        <path d="M54.78,250.37h1.29a.18.18,0,0,1,.17.18.16.16,0,0,1-.14.17l-1.27.22a.29.29,0,0,1-.34-.23.3.3,0,0,1,.24-.35Z"/>
        <path d="M51.71,231.76a9.36,9.36,0,0,0-3.46-.76c-1.3,0-3,0-3.35.29-.65.54-1.14,5.36-1.14,6.66s-.7,5.74,3.39,7.22,6-2.81,6.08-3.77c.22-2.34.18-8.4-.43-9A3.68,3.68,0,0,0,51.71,231.76Z" fill="none" stroke="#000" stroke-linecap="round" stroke-miterlimit="10"/>
        <path d="M30.75,237.94s5.83-4,7.31-3.47,5.7,3.48,5.7,3.48" fill="none" stroke="#000" stroke-linecap="round" stroke-miterlimit="10"/>
        <path d="M32.73,243.89s5.58-3.1,6.33-2.85,7.06,2.36,7.56,5.33-.87,4.59-1.37,4.84c-2,1-5-1.86-7.06-1.62a12.73,12.73,0,0,0-4.34,1.62" fill="none" stroke="#000" stroke-linecap="round" stroke-miterlimit="10"/>
        <path d="M38.46,258.51s3.58.13,4.6-.64a7,7,0,0,0,2.43-4.47A2.05,2.05,0,0,0,44,251.48" fill="none" stroke="#000" stroke-linecap="round" stroke-miterlimit="10"/>
        <path d="M49,245.23a17.4,17.4,0,0,0,1.78,2.43,9.14,9.14,0,0,0,2.28,1.93h0a.25.25,0,0,1-.23.45,9.63,9.63,0,0,1-2.59-1.87,17.89,17.89,0,0,1-2.09-2.41.5.5,0,1,1,.82-.58l0,0Z"/>
        <path d="M111,237s-1.4.11-2.27.26-10.59,10.44-10.59,10.44a48.38,48.38,0,0,0-.66,9.09c.29,3.33,2.69,2.81,2.69,2.81S103,253.64,113,245" fill="none" stroke="#000" stroke-linecap="round" stroke-miterlimit="10"/>
        <path d="M100.16,259.58s-2.52,4.28-2.52,5.83.86,5,.86,5.86" fill="none" stroke="#000" stroke-linecap="round" stroke-miterlimit="10"/>
        <path d="M107.11,284.7s-8.27-.18-12-3.62a5.73,5.73,0,0,1-1.93-3.95,7.29,7.29,0,0,1,2.74-6l2.29-1.89" fill="none" stroke="#000" stroke-linecap="round" stroke-miterlimit="10"/>
        <path d="M46.87,320.65a145.4,145.4,0,0,1,3.81-17.37c.4-1.43.86-2.85,1.35-4.25a25.93,25.93,0,0,1,1.75-4.18A13.74,13.74,0,0,1,60.65,289a136.46,136.46,0,0,1,16.76-6,74.12,74.12,0,0,1,8.72-1.93,39,39,0,0,1,9-.47.5.5,0,0,1-.07,1h0c-5.82-.37-11.66.93-17.32,2.45A134.43,134.43,0,0,0,61.06,290a12.66,12.66,0,0,0-6.38,5.42,24.23,24.23,0,0,0-1.68,4c-.49,1.38-.93,2.78-1.36,4.19-1.69,5.65-3,11.41-4.27,17.18a.25.25,0,0,1-.3.2A.25.25,0,0,1,46.87,320.65Z"/>
        <path d="M38.27,351s-8.14-6.51-8.51-9,6.52-23.7,6.52-23.7,11.93-9.94,13.56-11" fill="none" stroke="#000" stroke-linecap="round" stroke-miterlimit="10"/>
        <path d="M38,340.61c.18,3,.39,6.06.75,9.05a23.63,23.63,0,0,0,.83,4.37,2.6,2.6,0,0,0,.41.82,5.32,5.32,0,0,0,.81.55c.64.37,1.31.71,2,1,1.36.65,2.74,1.25,4.14,1.81.7.27,1.41.54,2.11.77a7.34,7.34,0,0,0,1,.26c.13,0,.23,0,.37-.06l.52-.16c2.84-1,5.68-2.11,8.51-3.2s5.67-2.19,8.53-3.23c1.44-.53,2.87-1,4.33-1.51s2.94-.84,4.41-1.26L94.27,345h0l-.24.15,18.43-20.59a.49.49,0,0,1,.7,0,.48.48,0,0,1,0,.7L94.78,345.85l-.09.1-.14,0h0L77,350.94c-1.45.41-2.94.8-4.36,1.24s-2.86,1-4.29,1.48c-2.85,1-5.68,2.13-8.52,3.22s-5.65,2.2-8.57,3.2l-.57.17a2.09,2.09,0,0,1-.75.09A7,7,0,0,1,48.7,360c-.74-.24-1.45-.51-2.17-.79-1.42-.58-2.82-1.19-4.21-1.85-.69-.34-1.37-.69-2-1.09a5,5,0,0,1-1.05-.74,3.44,3.44,0,0,1-.61-1.21,24.68,24.68,0,0,1-.8-4.59,87.22,87.22,0,0,1-.3-9.14.23.23,0,0,1,.25-.24A.24.24,0,0,1,38,340.61Z"/>
        <path d="M52.41,359.3s5.11,1.7,6.68,3.27,2.62,3.4,4.06,3.54,30-9.17,33.39-12.05,6.68-14.42,6.55-18.09" fill="none" stroke="#000" stroke-linecap="round" stroke-miterlimit="10"/>
        <path d="M53,322.79c-.6,3-1.15,6.09-1.45,9.15a31.75,31.75,0,0,0-.19,4.56,10.23,10.23,0,0,0,.3,2.18l.15.5a2.15,2.15,0,0,0,.21.4,2.73,2.73,0,0,0,.69.66,11.8,11.8,0,0,0,4.13,1.52c1.49.31,3,.51,4.55.68,3.06.3,6.16.45,9.25.47h0a.31.31,0,0,1,.31.31.32.32,0,0,1-.29.31,73.09,73.09,0,0,1-9.36-.09,35.5,35.5,0,0,1-4.68-.62A13,13,0,0,1,52,341.16a4,4,0,0,1-1-.94,2.93,2.93,0,0,1-.33-.63l-.18-.62a11.22,11.22,0,0,1-.31-2.42,32.31,32.31,0,0,1,.28-4.73,64.48,64.48,0,0,1,2-9.15.25.25,0,0,1,.31-.17.24.24,0,0,1,.18.28Z"/>
        <path d="M81.36,323.7c1.41,1,2.85,2,4.28,3s2.9,1.94,4.38,2.82a21.36,21.36,0,0,0,2.27,1.18c.18.07.38.16.56.21a2.63,2.63,0,0,0,.53.1,10.37,10.37,0,0,0,1.25.05,42.13,42.13,0,0,0,5.11-.52h0l-.13.05c5.7-2.82,11.41-5.64,17.13-8.41,1.44-.69,2.87-1.38,4.33-2a30.59,30.59,0,0,1,4.61-1.5c3.08-.82,6.17-1.56,9.27-2.28a.5.5,0,1,1,.23,1h0c-3.09.72-6.18,1.47-9.25,2.28a28.93,28.93,0,0,0-4.45,1.44c-1.44.65-2.87,1.35-4.3,2q-8.58,4.15-17.12,8.4l-.06,0-.07,0h0a27.58,27.58,0,0,1-5.29.61,12.57,12.57,0,0,1-1.37-.07,4.35,4.35,0,0,1-.74-.17,6.54,6.54,0,0,1-.66-.28,21.85,21.85,0,0,1-2.32-1.33A100.18,100.18,0,0,1,81.12,324a.19.19,0,0,1,0-.27A.19.19,0,0,1,81.36,323.7Z"/>
        <path d="M65,302.3c4,3.23,8,6.44,12.13,9.55,2,1.55,4.13,3.07,6.25,4.51,1.06.72,2.13,1.42,3.22,2.06s2.18,1.44,3.26,2.11a18.4,18.4,0,0,0,6.89,2.86c2.45.51,4.93-.09,7.5-.46l7.64-1.17,3.83-.55c1.3-.18,2.49-.38,3.9-.5a.48.48,0,0,1,.54.45.49.49,0,0,1-.44.54h-.1c-1.15.12-2.5.34-3.75.53l-3.82.59L104.46,324c-1.29.18-2.52.42-3.85.56a13.42,13.42,0,0,1-4-.12,19.58,19.58,0,0,1-7.28-3c-1.11-.7-2.14-1.47-3.23-2.1s-2.2-1.38-3.26-2.14c-2.12-1.49-4.17-3.05-6.2-4.64q-6.09-4.79-11.91-9.88a.24.24,0,0,1,.31-.37Z"/>
        <path d="M75.52,298.72q7.88,2.2,15.86,4c2.66.58,5.33,1.12,8,1.56,1.34.2,2.69.4,4,.53a20.62,20.62,0,0,0,4,.07h0a.5.5,0,1,1,.11,1h0a43.22,43.22,0,0,1-8.25-.79c-2.7-.48-5.38-1.05-8-1.67q-8-1.87-15.84-4.2a.24.24,0,0,1-.16-.31A.24.24,0,0,1,75.52,298.72Z"/>
        <path d="M116.15,242.1c1.94,0,3.88.05,5.81,0,.48,0,1,0,1.43-.09a2,2,0,0,0,1.12-.36,3.14,3.14,0,0,0,1-2.2h0l.38.51c-1.23-.31-2.45-.64-3.66-1a19.41,19.41,0,0,1-3.6-1.43,2.39,2.39,0,0,1-.86-.75,3.53,3.53,0,0,1-.44-1,11.18,11.18,0,0,1-.29-2,28.79,28.79,0,0,1,0-3.83l.39.52-2.42-.53.47-.14-4.17,4.3.14-.38a51.43,51.43,0,0,0,.55,5.14,13.33,13.33,0,0,0,.62,2.47c.28.85.45,1.73.73,2.47a1.63,1.63,0,0,0,1.55,1.16,7.43,7.43,0,0,0,2.39-.38,21.49,21.49,0,0,0,2.4-.86c.39-.16.77-.35,1.15-.54.18-.1.37-.19.53-.3a2,2,0,0,0,.38-.27l.12-.1a.49.49,0,0,1,.69.06.48.48,0,0,1,0,.64,2.67,2.67,0,0,1-.65.52c-.2.13-.4.23-.6.34-.41.21-.81.4-1.22.57a22.2,22.2,0,0,1-2.52.9,8.14,8.14,0,0,1-2.75.41,2.9,2.9,0,0,1-1.48-.51,2.79,2.79,0,0,1-.9-1.27c-.35-.9-.5-1.73-.77-2.54A15.22,15.22,0,0,1,111,239a51.64,51.64,0,0,1-.56-5.25v-.22l.15-.16,4.17-4.3.2-.2.27.06,2.42.54.42.09,0,.43a26.74,26.74,0,0,0,0,3.69,9.21,9.21,0,0,0,.26,1.77,2.45,2.45,0,0,0,.3.71,1.39,1.39,0,0,0,.54.45,18.85,18.85,0,0,0,3.39,1.34c1.19.37,2.4.71,3.6,1l.4.1,0,.4h0a4.74,4.74,0,0,1-.37,1.59,3.12,3.12,0,0,1-1,1.35,2.8,2.8,0,0,1-1.62.48c-.5,0-1,0-1.49,0-2-.05-3.9-.18-5.84-.36a.22.22,0,0,1-.2-.24A.23.23,0,0,1,116.15,242.1Z"/>
        <path d="M117.88,244.92s2,4.39,1.71,8S107.08,282.75,107,285.9c-.1,2.48.2,24.41,2.93,28.76,0,0,6.57-6.88,12.34-7.08s19.74,7.95,21.66,12" fill="none" stroke="#000" stroke-linecap="round" stroke-miterlimit="10"/>
        <path d="M121.57,243.5a50.24,50.24,0,0,1,4,4.61,19.83,19.83,0,0,1,1.7,2.58l.36.71.3.75a5.9,5.9,0,0,1,.2.83,6,6,0,0,1,0,.84,58.22,58.22,0,0,1-.81,6.06c-.32,2-.62,4-.87,6a120,120,0,0,0-.88,12c-.09,4,0,8,.34,12a.19.19,0,0,1-.17.2.2.2,0,0,1-.21-.16,95.64,95.64,0,0,1-.84-12.08,99.9,99.9,0,0,1,.72-12.11c.24-2,.54-4,.85-6a59.43,59.43,0,0,0,.79-5.9,4.9,4.9,0,0,0-.78-2.59,24.15,24.15,0,0,0-1.61-2.46,47.84,47.84,0,0,0-3.85-4.56h0a.5.5,0,0,1,0-.71A.51.51,0,0,1,121.57,243.5Z"/>
        <path d="M132,310.72s4.72,5.85,6.92,21.75c0,0,7.1-7.67,4.33-17.11s-17.46-34.71-18-36.91" fill="none" stroke="#000" stroke-linecap="round" stroke-miterlimit="10"/>
        <path d="M112,241.64c-1.1.52-2.19,1.09-3.25,1.7a17,17,0,0,0-3,2.11h0a.21.21,0,0,1-.3,0,.22.22,0,0,1,0-.29,16.71,16.71,0,0,1,2.9-2.42c1-.71,2.08-1.37,3.18-2a.49.49,0,0,1,.68.19.5.5,0,0,1-.19.68l0,0Z"/>
        <path d="M125.59,234.13c4.79-3.59,17.56-23.88,22.15-28.87,3.62-3.94,10.55-5.91,13.3-6.56a8.21,8.21,0,0,1,2.21-.21c5.6.21,32,1.09,38.16-1.05l-.17-6.88a23.28,23.28,0,0,1,1.17-7.86l4.86-14.8c-3.09.38-58.13,15.48-64.81,22.31s-17.16,25.45-19.19,31.55-5.75,8.21-5.75,8.21" fill="none" stroke="#000" stroke-linecap="round" stroke-miterlimit="10"/>
        <path d="M117.66,235a16.83,16.83,0,0,1,5.06-1.19c2.13,0,6.66,1,6.69,1.78.05,2.05-3.44,3.85-3.44,3.85" fill="none" stroke="#000" stroke-linecap="round" stroke-miterlimit="10"/>
        <path d="M121.38,233.29a18.74,18.74,0,0,0,4.58-7.1c.51-1.33.75-2.75,1.25-4.19a30.91,30.91,0,0,1,1.76-4.09,68,68,0,0,1,4.56-7.56,82.53,82.53,0,0,1,5.33-7,.2.2,0,0,1,.28,0,.19.19,0,0,1,0,.27,84.69,84.69,0,0,0-5.13,7.1,67.13,67.13,0,0,0-4.33,7.59,30,30,0,0,0-1.62,4c-.43,1.34-.68,2.83-1.2,4.24a18.82,18.82,0,0,1-4.86,7.54.5.5,0,0,1-.7,0,.51.51,0,0,1,0-.7Z"/>
        <path d="M154,192.27q-3.7,3.79-7.2,7.76c-1.16,1.32-2.29,2.67-3.36,4.06s-2.06,2.83-3.05,4.29c-2,2.93-3.86,5.91-5.9,8.82-1,1.46-2,2.9-3.2,4.28a22.82,22.82,0,0,1-1.83,2,8.13,8.13,0,0,1-2.27,1.68.49.49,0,1,1-.45-.88l.06,0a13.33,13.33,0,0,0,3.66-3.44c1.1-1.35,2.15-2.76,3.16-4.2,2-2.87,4-5.84,5.95-8.76,1-1.46,2-2.94,3.13-4.32s2.3-2.72,3.5-4q3.65-3.88,7.59-7.44a.15.15,0,0,1,.21.22Z"/>
        <path d="M129.41,235.6s13.66-11.32,17.12-12.54,18.73-1.12,21.68-.31-2.14-5.29-3.56-6.82-2.55-2.85-3.56-2.85-10.59-.71-13.44.61S134,224.12,134,224.12" fill="none" stroke="#000" stroke-linecap="round" stroke-miterlimit="10"/>
        <path d="M166.28,218.43a2,2,0,0,0-.47-.3,5.13,5.13,0,0,0-.69-.25,9.55,9.55,0,0,0-1.51-.27,22,22,0,0,0-3.15-.08.18.18,0,0,1-.18-.16.18.18,0,0,1,.16-.18,22.78,22.78,0,0,1,3.21-.16,10.13,10.13,0,0,1,1.63.17,6.28,6.28,0,0,1,.82.23,2,2,0,0,1,.85.55.41.41,0,1,1-.6.55l-.06-.07Z"/>
        <path d="M126.2,233.44a52.36,52.36,0,0,1,6.17-5.47c1.09-.84,2.22-1.61,3.38-2.34a38.39,38.39,0,0,1,3.61-2,.17.17,0,0,1,.23.08.17.17,0,0,1-.08.23h0a33.13,33.13,0,0,0-3.48,2.1c-1.12.76-2.21,1.57-3.26,2.43a52.55,52.55,0,0,0-5.85,5.6l0,0a.48.48,0,0,1-.72-.64Z"/>
        <path d="M170.18,199.27a9,9,0,0,0,3.15,3.79c2.2,1.42.94,9.58.16,11.31s-5.39,4.19-6.48,4.25" fill="none" stroke="#000" stroke-linecap="round" stroke-miterlimit="10"/>
        <path d="M157.64,212.66a18.22,18.22,0,0,0,1-3.36,8.67,8.67,0,0,0,0-3.44h0a.23.23,0,0,1,.18-.28.23.23,0,0,1,.28.16,9.34,9.34,0,0,1,.24,3.68,19.43,19.43,0,0,1-.75,3.59.5.5,0,0,1-.62.34.5.5,0,0,1-.34-.63l0,0Z"/>
        <path d="M152.3,207.51a35.74,35.74,0,0,0,2-3.52,16.14,16.14,0,0,0,.77-1.83,4.58,4.58,0,0,0,.33-1.77v0a.51.51,0,0,1,.45-.55.5.5,0,0,1,.55.45v.05a5.13,5.13,0,0,1-.56,2.15,16.85,16.85,0,0,1-1,1.83,39.22,39.22,0,0,1-2.3,3.37.14.14,0,0,1-.18,0A.12.12,0,0,1,152.3,207.51Z"/>
        <path d="M167.71,202.84l1.86-4.26a.5.5,0,1,1,.92.4.25.25,0,0,1,0,.07l-2.56,3.89a.1.1,0,0,1-.14,0A.11.11,0,0,1,167.71,202.84Z"/>
        <path d="M134.07,253.42a73.92,73.92,0,0,1,2.72-6.88,50.75,50.75,0,0,1,3.48-6.55,18.42,18.42,0,0,1,2.34-3l.33-.34.39-.3a7.81,7.81,0,0,1,.79-.57c.54-.33,1.08-.63,1.63-.92a60.22,60.22,0,0,1,6.8-3,68.55,68.55,0,0,1,7.08-2.25,46,46,0,0,1,7.37-1.08,28.51,28.51,0,0,1,7.48.41,13.68,13.68,0,0,1,6.76,3.37.5.5,0,0,1-.69.72h0a12.58,12.58,0,0,0-6.27-3.05,28.91,28.91,0,0,0-7.2-.4,46.76,46.76,0,0,0-7.2,1,68.62,68.62,0,0,0-7,2.19,58.67,58.67,0,0,0-6.7,2.91c-.54.28-1.07.58-1.58.89a6.39,6.39,0,0,0-.71.5l-.34.26-.31.31a17,17,0,0,0-2.27,2.77,50.25,50.25,0,0,0-3.56,6.38c-1.05,2.21-2.05,4.45-2.94,6.73a.23.23,0,0,1-.29.13A.22.22,0,0,1,134.07,253.42Z"/>
        <path d="M159,234.5c2.47-1,5-1.9,7.52-2.7a29.21,29.21,0,0,1,3.92-1,9,9,0,0,1,2.09.07c.67.08,1.33.18,2,.28,2.64.42,5.25.93,7.86,1.49,1.31.29,2.58.53,3.93,1A3.64,3.64,0,0,1,188.1,235,7.35,7.35,0,0,1,189,237a.5.5,0,0,1-1,.31v0c-.37-1.12-1.06-2.36-2.06-2.68-1.2-.36-2.53-.66-3.81-.95-2.58-.58-5.18-1.11-7.78-1.56a19.25,19.25,0,0,0-3.84-.39,26.67,26.67,0,0,0-3.82.83c-2.54.71-5.07,1.54-7.59,2.36a.19.19,0,0,1-.24-.12A.2.2,0,0,1,159,234.5Z"/>
        <path d="M168.21,222.75s8,4.39,9.2,7.52" fill="none" stroke="#000" stroke-linecap="round" stroke-miterlimit="10"/>
        <path d="M162.94,248.17l14.15-12.08.12-.1h.17a59.22,59.22,0,0,1,7.65.27,24,24,0,0,1,3.81.69,8.7,8.7,0,0,1,1.87.75,2.72,2.72,0,0,1,1.43,1.76.51.51,0,0,1-.39.59.5.5,0,0,1-.59-.39h0v0a1.73,1.73,0,0,0-.94-1.06,7.23,7.23,0,0,0-1.64-.67,23,23,0,0,0-3.65-.67,58.8,58.8,0,0,0-7.51-.3h0l.28-.1-14.53,11.63a.18.18,0,0,1-.25,0A.17.17,0,0,1,162.94,248.17Z"/>
        <polyline points="142.79 313.29 149.16 311.31 152.85 311.53" fill="none" stroke="#000" stroke-linecap="round" stroke-miterlimit="10"/>
        <path d="M140,307.09s7.71,3.8,9.13,4.22" fill="none" stroke="#000" stroke-linecap="round" stroke-miterlimit="10"/>
        <path d="M152.33,253.94c-2.42,5.11-4.85,10.23-7.16,15.38-.57,1.29-1.14,2.59-1.64,3.89a16.47,16.47,0,0,0-.66,1.94,6.35,6.35,0,0,0,.17,1.9c.51,2.77,1.1,5.54,1.68,8.31q1.77,8.29,3.63,16.58l.93,4.15a3.87,3.87,0,0,0,.66,1.73,2.35,2.35,0,0,0,.3.33l.39.37.77.73,6.14,5.86a.5.5,0,0,1,0,.71.49.49,0,0,1-.7,0l-6.21-5.8-.77-.72-.39-.36a4.58,4.58,0,0,1-.42-.46,3.66,3.66,0,0,1-.59-1.08,10.74,10.74,0,0,1-.27-1.09l-.92-4.15q-1.83-8.3-3.6-16.61c-.58-2.77-1.16-5.54-1.66-8.34l-.17-1.07-.06-.59a2.32,2.32,0,0,1,.08-.65,17.35,17.35,0,0,1,.73-2.07c.54-1.33,1.13-2.62,1.72-3.91,2.4-5.14,5-10.18,7.65-15.18a.21.21,0,0,1,.27-.08A.19.19,0,0,1,152.33,253.94Z"/>
        <path d="M151,276.31A197.52,197.52,0,0,0,153,296.66a44.17,44.17,0,0,0,1.14,4.93c.52,1.64,1,3.3,1.42,5l2.52,9.95c.43,1.65.88,3.29,1.41,4.9a21.62,21.62,0,0,0,.9,2.33,3,3,0,0,0,.27.54,3,3,0,0,0,.31.47,2.48,2.48,0,0,0,.85.67,30.78,30.78,0,0,0,4.65,1.89c1.61.54,3.24,1,4.89,1.43s3.3.8,5,1.06a14.65,14.65,0,0,0,4.92.2,12.9,12.9,0,0,0,4.52-1.9,21.73,21.73,0,0,0,3.85-3.17v0a.5.5,0,0,1,.71,0,.49.49,0,0,1,0,.7,23.11,23.11,0,0,1-4,3.36,13.83,13.83,0,0,1-4.88,2.06,15.47,15.47,0,0,1-5.27-.18c-1.71-.28-3.39-.66-5.06-1.09s-3.32-.92-4.95-1.47a31.31,31.31,0,0,1-4.83-2,3.51,3.51,0,0,1-1.52-1.52,4.28,4.28,0,0,1-.31-.6,22.93,22.93,0,0,1-.93-2.46c-.54-1.64-1-3.3-1.41-5l-2.48-10c-.43-1.65-.89-3.29-1.4-4.91a37.36,37.36,0,0,1-1.12-5.07,163.51,163.51,0,0,1-1.62-20.48.21.21,0,0,1,.2-.21A.22.22,0,0,1,151,276.31Z"/>
        <path d="M172.31,320.72A6.77,6.77,0,0,1,170,318a15,15,0,0,1-1.22-3.35,57,57,0,0,1-1-7,29.27,29.27,0,0,1-.21-3.54,13.2,13.2,0,0,1,2.13-6.84l1.9-2.93a.5.5,0,0,1,.84.55l-1.88,2.94a13.68,13.68,0,0,0-1.43,3,12.39,12.39,0,0,0-.6,3.3,28.53,28.53,0,0,0,.16,3.42,59.82,59.82,0,0,0,.89,6.86,16.42,16.42,0,0,0,1,3.26,7.39,7.39,0,0,0,1.92,2.74h0a.14.14,0,0,1,0,.18A.12.12,0,0,1,172.31,320.72Z"/>
        <path d="M160.53,312.38c-.15-4.45,0-8.9.23-13.34.13-2.23.33-4.45.57-6.67a38.8,38.8,0,0,1,1.22-6.65,3.61,3.61,0,0,1,.32-.84,3.83,3.83,0,0,1,.44-.8,16.4,16.4,0,0,1,1-1.37c.71-.88,1.46-1.7,2.21-2.53,1.51-1.64,3.05-3.25,4.6-4.84,3.11-3.18,6.31-6.27,9.52-9.35a.51.51,0,0,1,.71,0,.5.5,0,0,1,0,.71c-3.17,3.1-6.28,6.27-9.39,9.43-1.55,1.58-3.08,3.19-4.57,4.82-.75.81-1.48,1.64-2.18,2.48-.35.42-.68.84-1,1.27a3.23,3.23,0,0,0-.35.66,2.93,2.93,0,0,0-.28.7,37.48,37.48,0,0,0-1.22,6.43c-.26,2.19-.48,4.4-.64,6.61-.37,4.41-.6,8.84-1,13.27a.12.12,0,0,1-.14.12A.13.13,0,0,1,160.53,312.38Z"/>
        <path d="M169.18,262.9a65.77,65.77,0,0,1,6.49-2.85,32.88,32.88,0,0,1,3.4-1.1,15.68,15.68,0,0,1,3.58-.61.5.5,0,0,1,0,1h0a15.23,15.23,0,0,0-3.39.4,33,33,0,0,0-3.38.9,64.59,64.59,0,0,0-6.59,2.49.13.13,0,1,1-.11-.23Z"/>
        <path d="M186,328.7s8.62,5.07,12.08,5,8.49-7.3,8.49-7.3" fill="none" stroke="#000" stroke-linecap="round" stroke-miterlimit="10"/>
        <path d="M134.36,231.89l1.89,2.61a.07.07,0,0,1,0,.11.09.09,0,0,1-.1,0l-2.49-2a.5.5,0,1,1,.63-.78A.28.28,0,0,1,134.36,231.89Z"/>
        <path d="M131.4,271.84c1,2.47,2.15,4.9,3.27,7.32s2.31,4.81,3.56,7.15a72.11,72.11,0,0,0,4.11,6.82,30.84,30.84,0,0,0,5.1,6h0a.5.5,0,0,1-.64.77,29.1,29.1,0,0,1-5.34-6.14,62.56,62.56,0,0,1-4.09-7c-1.24-2.38-2.37-4.82-3.4-7.3s-2-5-2.78-7.54a.13.13,0,0,1,.07-.14A.11.11,0,0,1,131.4,271.84Z"/>
        <path d="M134.07,262.24c.2,1.63.4,3.27.63,4.89s.47,3.25.76,4.86a49.27,49.27,0,0,0,2.48,9.49.1.1,0,0,1-.06.14.1.1,0,0,1-.13,0,25,25,0,0,1-1.87-4.62,47.08,47.08,0,0,1-1.15-4.83c-.31-1.63-.52-3.27-.7-4.92a48.25,48.25,0,0,1-.24-4.95.13.13,0,0,1,.14-.14A.14.14,0,0,1,134.07,262.24Z"/>
        <path d="M113.5,245c0,1.22,0,2.45.12,3.68a15,15,0,0,0,.59,3.61.09.09,0,0,1,0,.12.08.08,0,0,1-.11,0,9.64,9.64,0,0,1-.62-1.78c-.16-.61-.29-1.22-.4-1.84-.22-1.23-.4-2.46-.53-3.71a.5.5,0,0,1,.45-.55.5.5,0,0,1,.55.45V245Z"/>
        <path d="M180.2,274.36s-6,5.89-6.71,8-2,7.86-.82,18.17.5,15.37,7.7,20.13c8.33,5.52,15.47,4.46,15.47,4.46" fill="none" stroke="#000" stroke-linecap="round" stroke-miterlimit="10"/>
        <path d="M195.36,233.93s-9,14.3-11.27,21.61-5,14.72-2.91,23.4,6.88,13.75,7.21,22.43-3,21.44,11.06,25S220,312.73,221.2,306.12c.68-3.67,7.6-28.06,4.27-44.17-5.29-25.59-15.14-39.41-18.95-38.25C201.42,225.25,195.36,233.93,195.36,233.93Z" fill="none" stroke="#000" stroke-linecap="round" stroke-miterlimit="10"/>
        <path d="M209.11,231.58a3.73,3.73,0,0,0-5.62.1c-4.54,5.37-13.89,17.83-18.07,31.13-4.66,14.84-.81,16.48,5.6,33.5,3.66,9.72-5.6,23.31,9.9,26.6,12,2.56,17.09-13.89,17.9-21.63s5.6-28,3.74-36.07C220.91,258.16,216.37,239.72,209.11,231.58Z" fill="none" stroke="#000" stroke-linecap="round" stroke-miterlimit="10"/>
        <path d="M182.84,284.46A9,9,0,0,0,180.1,290a44.75,44.75,0,0,0,1.07,16.86c1.49,5.52,6.73,14.95,11.83,18.17" fill="none" stroke="#000" stroke-linecap="round" stroke-miterlimit="10"/>
        <path d="M184.52,294.44a37.44,37.44,0,0,1,1.5,6.63,16.32,16.32,0,0,1,.06,3.42c-.05,1.13-.11,2.25-.12,3.38a33.76,33.76,0,0,0,.45,6.67,14.39,14.39,0,0,0,2.44,6h0a.41.41,0,0,1-.08.56.4.4,0,0,1-.56-.08h0a14.58,14.58,0,0,1-2.57-6.4,33.9,33.9,0,0,1-.37-6.82c0-2.27.39-4.53.21-6.73a48.92,48.92,0,0,0-1.15-6.63.09.09,0,0,1,.07-.11A.1.1,0,0,1,184.52,294.44Z"/>
        <path d="M29.76,341.91a13.16,13.16,0,0,1-6.57-4.05c-2.53-3.12-10.41-13.69-13.54-14.14S4.44,333.25,4,337.86s-.74,10.87.3,13.25,8.63,12.35,11.76,18S22,383.55,26.32,385.64s14.44,3,17,1.19,8.18-12.65,8.18-12.65v-3" fill="none" stroke="#000" stroke-linecap="round" stroke-miterlimit="10"/>
        <path d="M41.71,366.63q2.72,1.28,5.49,2.39a38.55,38.55,0,0,0,5.63,1.84,15.72,15.72,0,0,0,2.86.39,2.91,2.91,0,0,0,1.07-.5,9.45,9.45,0,0,0,1.17-.82,10.48,10.48,0,0,0,3.34-4.55.5.5,0,0,1,.94.33,11,11,0,0,1-3.6,5.07,10.5,10.5,0,0,1-1.28.9c-.23.14-.46.27-.7.39a1.88,1.88,0,0,1-1,.26,16.35,16.35,0,0,1-3.08-.48,31.77,31.77,0,0,1-5.72-2.08,40.55,40.55,0,0,1-5.28-2.93.12.12,0,0,1,.12-.21Z"/>
        <path d="M89.62,162.22a28.3,28.3,0,0,0,5.34-4,48.7,48.7,0,0,0,4.57-4.94c1.44-1.74,3-3.43,4.3-5.22a13.91,13.91,0,0,0,3-5.79h0a.5.5,0,0,1,.58-.41.51.51,0,0,1,.41.58v0a10.57,10.57,0,0,1-1.4,3.24,25.7,25.7,0,0,1-2,2.79c-1.44,1.76-2.92,3.46-4.39,5.17a63.93,63.93,0,0,1-4.57,5c-.81.8-1.65,1.57-2.53,2.3a26.55,26.55,0,0,1-2.76,2.08.5.5,0,0,1-.54-.84l0,0Z"/>
        <circle cx="75.76" cy="146.4" r="1.04" fill="#1c5a64"/>
        <circle cx="91.81" cy="131.75" r="1.04" fill="#1c5a64"/>
        <path d="M5.63,331c-.11,3.16-.16,6.32-.12,9.48,0,1.58.07,3.16.19,4.73a25,25,0,0,0,.65,4.61,8.78,8.78,0,0,0,.93,2.06c.38.67.81,1.33,1.25,2,.89,1.29,1.84,2.55,2.79,3.82a91.85,91.85,0,0,1,5.46,7.83c1.64,2.77,2.87,5.69,4.39,8.44a30.3,30.3,0,0,0,5.43,7.57A12.7,12.7,0,0,0,30.41,384a12,12,0,0,0,4.5.63c1.59,0,3.18,0,4.77.08.8,0,1.59.07,2.39.13.4,0,.8.06,1.21.11l.6.08a3.56,3.56,0,0,1,.7.15.51.51,0,0,1,.32.63.5.5,0,0,1-.6.32l-.11,0-.46-.09-.57-.07c-.38,0-.77-.08-1.16-.11-.78-.06-1.57-.1-2.36-.13-1.57-.06-3.15-.09-4.73-.1H33.72l-1.24-.11a5.06,5.06,0,0,1-1.22-.23,7.8,7.8,0,0,1-1.19-.36,13.61,13.61,0,0,1-4.13-2.66C21.22,377.61,19.09,371.35,16,366a92.85,92.85,0,0,0-5.39-7.77c-.95-1.27-1.9-2.54-2.8-3.86-.45-.66-.89-1.33-1.29-2a9.24,9.24,0,0,1-1-2.26,26.39,26.39,0,0,1-.61-4.79c-.1-1.6-.13-3.19-.13-4.77,0-3.18.11-6.35.31-9.52a.27.27,0,0,1,.29-.25A.27.27,0,0,1,5.63,331Z"/>
        <path d="M30.52,343.09c-.17,1.87-.27,3.77-.27,5.64a25.13,25.13,0,0,0,.52,5.53l.77,2.75a10.92,10.92,0,0,1,.3,1.47,3,3,0,0,1-.2,1.69,2.84,2.84,0,0,1-1.25,1.19A9.35,9.35,0,0,1,29,362a8.35,8.35,0,0,1-3,.52,6.16,6.16,0,0,1-3-.8,4.13,4.13,0,0,1-1.22-1.07,6.13,6.13,0,0,1-.72-1.39,11.85,11.85,0,0,1-.42-5.9,4.85,4.85,0,0,1,.48-1.5,6.43,6.43,0,0,1,.93-1.22,20,20,0,0,1,2.14-2,15.25,15.25,0,0,1,5.07-2.84.25.25,0,0,1,.31.17.25.25,0,0,1-.16.31h0A10.83,10.83,0,0,0,27,347.59a21.47,21.47,0,0,0-2.21,1.72,18.26,18.26,0,0,0-2,1.94,5.52,5.52,0,0,0-.77,1.05,4.4,4.4,0,0,0-.38,1.21,11.16,11.16,0,0,0,.39,5.36,3.38,3.38,0,0,0,1.51,1.92,5.05,5.05,0,0,0,2.48.66,7.55,7.55,0,0,0,2.6-.47c.82-.31,1.78-.72,2-1.27a4.12,4.12,0,0,0-.18-2.43l-.77-2.74a22.55,22.55,0,0,1-.53-5.81c0-1.92.13-3.83.32-5.75a.5.5,0,0,1,1,.1Z"/>
        <path d="M51.72,372.55a11.84,11.84,0,0,1-5.22,1.35,6.54,6.54,0,0,1-2.73-.53A15.33,15.33,0,0,1,41.48,372a48.18,48.18,0,0,1-4-3.32c-1.3-1.15-2.53-2.38-3.73-3.63a0,0,0,0,1,0-.08.06.06,0,0,1,.08,0c1.3,1.14,2.64,2.23,4,3.32a46.52,46.52,0,0,0,4.16,3,13.5,13.5,0,0,0,2.21,1.18,6.13,6.13,0,0,0,2.35.36,13,13,0,0,0,4.77-1.19h0a.49.49,0,0,1,.66.25A.5.5,0,0,1,51.72,372.55Z"/>
        <path d="M24.25,339.79a13.51,13.51,0,0,0-2.56.33A18.85,18.85,0,0,0,16.75,342a23.07,23.07,0,0,0-2.27,1.4h0a.16.16,0,0,1-.22,0,.16.16,0,0,1,0-.22,22.68,22.68,0,0,1,2.21-1.57,19.25,19.25,0,0,1,5-2.21,14.29,14.29,0,0,1,2.74-.53.49.49,0,0,1,.54.45.5.5,0,0,1-.46.54h-.06Z"/>
        <path d="M46.79,373.53s-4.68,10-6.4,11.45" fill="none" stroke="#000" stroke-linecap="round" stroke-miterlimit="10"/>
        <path d="M191.06,250l.72.2a1.58,1.58,0,0,0,1.38-.26l3.94-3a1.58,1.58,0,0,1,1.9,0l4.77,3.51a1.59,1.59,0,0,0,1.94,0l3.45-2.76a1.58,1.58,0,0,1,2,0l2.21,1.67a1.58,1.58,0,0,0,2.2-.28l1.59-2" fill="none" stroke="#000" stroke-linecap="round" stroke-miterlimit="10"/>
        <path d="M215,241.3l-1.09,1.19a1.57,1.57,0,0,1-1.92.33l-2.59-1.38a1.58,1.58,0,0,0-1.67.1L204.2,244a1.59,1.59,0,0,1-1.87,0l-3.24-2.41a1.61,1.61,0,0,0-1.57-.19l-1.84.78" fill="none" stroke="#000" stroke-linecap="round" stroke-miterlimit="10"/>
        <path d="M200.05,236.35l2.87,1.82a1.61,1.61,0,0,0,1.76,0l2.39-1.67a1.59,1.59,0,0,1,1.58-.14l2,.92a1.6,1.6,0,0,0,2-.54h0" fill="none" stroke="#000" stroke-linecap="round" stroke-miterlimit="10"/>
        <path d="M188.68,254.43l1.9,2a1.58,1.58,0,0,0,2,.25l5.3-3.33a1.58,1.58,0,0,1,1.71,0l4.74,3.08a1.58,1.58,0,0,0,1.83-.07l3.46-2.64a1.58,1.58,0,0,1,1.89,0l2.71,2a1.61,1.61,0,0,0,2.06-.17l2.77-2.78" fill="none" stroke="#000" stroke-linecap="round" stroke-miterlimit="10"/>
        <path d="M186.46,259.88l3.41,2.8a1.59,1.59,0,0,0,1.87.11l4.77-3.05a1.6,1.6,0,0,1,1.72,0l4.65,3a1.57,1.57,0,0,0,1.74,0l5.15-3.38a1.6,1.6,0,0,1,1.78,0l2.89,2a1.58,1.58,0,0,0,1.92-.08l4-3.3" fill="none" stroke="#000" stroke-linecap="round" stroke-miterlimit="10"/>
        <path d="M184.63,266.27l3.85,3.69a1.59,1.59,0,0,0,2.07.12l4.25-3.26a1.57,1.57,0,0,1,1.76-.12l5.26,3a1.59,1.59,0,0,0,1.63,0l5.89-3.65a1.58,1.58,0,0,1,1.8.08l3.8,2.85a1.59,1.59,0,0,0,2-.09l5.25-4.76" fill="none" stroke="#000" stroke-linecap="round" stroke-miterlimit="10"/>
        <path d="M183.58,273.12l5.55,3.83a1.59,1.59,0,0,0,1.87-.05l4.46-3.44a1.59,1.59,0,0,1,1.86-.06l4.49,3a1.57,1.57,0,0,0,1.67.06l5.72-3.24a1.59,1.59,0,0,1,1.68.07l4,2.73a1.6,1.6,0,0,0,1.81,0l6.17-4.31" fill="none" stroke="#000" stroke-linecap="round" stroke-miterlimit="10"/>
        <path d="M184.32,279.25l5.12,4a1.59,1.59,0,0,0,2.05-.07l3.41-3.07a1.58,1.58,0,0,1,1.78-.24l5.5,2.78a1.62,1.62,0,0,0,1.5,0l5.81-3.27a1.59,1.59,0,0,1,1.51,0l3.55,1.84a1.59,1.59,0,0,0,1.47,0l6.26-3.27" fill="none" stroke="#000" stroke-linecap="round" stroke-miterlimit="10"/>
        <path d="M187.3,286.88l3.37,2.4a1.59,1.59,0,0,0,1.92-.1l3.29-2.77a1.58,1.58,0,0,1,1.68-.24l3.69,1.66a1.6,1.6,0,0,0,1.46-.08l5.66-3.35a1.61,1.61,0,0,1,1.69,0l3.19,2.12a1.59,1.59,0,0,0,1.63.07l6.86-3.67" fill="none" stroke="#000" stroke-linecap="round" stroke-miterlimit="10"/>
        <path d="M189.53,292.3l1.72,1.25a1.59,1.59,0,0,0,1.93,0l2.22-1.77a1.61,1.61,0,0,1,1.77-.15l4.12,2.29a1.58,1.58,0,0,0,1.64-.05l4.4-2.86a1.62,1.62,0,0,1,1.72,0l3.56,2.25a1.59,1.59,0,0,0,1.76,0l3.92-2.72a1.59,1.59,0,0,1,1.75-.05l.42.27" fill="none" stroke="#000" stroke-linecap="round" stroke-miterlimit="10"/>
        <path d="M192.12,300.52l3.29-2.58a1.6,1.6,0,0,1,1.72-.16l4.73,2.47a1.59,1.59,0,0,0,1.7-.14l3.95-3a1.59,1.59,0,0,1,1.84-.06l3.06,2a1.59,1.59,0,0,0,1.74,0l5.25-3.38" fill="none" stroke="#000" stroke-linecap="round" stroke-miterlimit="10"/>
        <path d="M218.82,301.28l-4.11,3.4a1.58,1.58,0,0,1-1.83.15L210,303.07a1.58,1.58,0,0,0-1.71.05l-3.89,2.64a1.56,1.56,0,0,1-1.6.11l-4.69-2.31a1.61,1.61,0,0,0-1.64.13L191.93,307" fill="none" stroke="#000" stroke-linecap="round" stroke-miterlimit="10"/>
        <path d="M191.55,312.23l5.39-2.92a1.59,1.59,0,0,1,1.54,0l4.62,2.6a1.61,1.61,0,0,0,1.76-.13l3.33-2.6a1.6,1.6,0,0,1,1.72-.15l3.05,1.6a1.57,1.57,0,0,0,1.62-.09l2.57-1.71" fill="none" stroke="#000" stroke-linecap="round" stroke-miterlimit="10"/>
        <path d="M213.23,316.61l-3.06-1.81a1.6,1.6,0,0,0-1.71,0L205,317.22a1.58,1.58,0,0,1-1.73,0l-4.45-2.76a1.59,1.59,0,0,0-1.76.05l-4.28,3" fill="none" stroke="#000" stroke-linecap="round" stroke-miterlimit="10"/>
        <path d="M195.07,320.22l1.76-1.06a1.58,1.58,0,0,1,1.91.2l4,3.75" fill="none" stroke="#000" stroke-linecap="round" stroke-miterlimit="10"/>
        <path d="M205.29,322.8l2.61-2.54a1.59,1.59,0,0,1,2.13-.08l.22.19" fill="none" stroke="#000" stroke-linecap="round" stroke-miterlimit="10"/>
      </g>
    </g>
  </g>
</svg>
