<?xml version="1.0" encoding="UTF-8" standalone="no"?>
<svg
   xmlns:dc="http://purl.org/dc/elements/1.1/"
   xmlns:cc="http://creativecommons.org/ns#"
   xmlns:rdf="http://www.w3.org/1999/02/22-rdf-syntax-ns#"
   xmlns:svg="http://www.w3.org/2000/svg"
   xmlns="http://www.w3.org/2000/svg"
   viewBox="0 0 453.33334 621.33331"
   height="621.33331"
   width="453.33334"
   xml:space="preserve"
   id="svg2"
   version="1.1"><metadata
     id="metadata8"><rdf:RDF><cc:Work
         rdf:about=""><dc:format>image/svg+xml</dc:format><dc:type
           rdf:resource="http://purl.org/dc/dcmitype/StillImage" /></cc:Work></rdf:RDF></metadata><defs
     id="defs6" /><g
     transform="matrix(1.3333333,0,0,-1.3333333,0,621.33333)"
     id="g10"><g
       transform="scale(0.1)"
       id="g12"><path
         id="path14"
         style="fill:#000000;fill-opacity:1;fill-rule:nonzero;stroke:none"
         d="m 1447.5,3069.73 c 0,0 -7.5,127.5 -52.5,262.5 135,270 75,405 105,457.5 7.5,7.5 52.5,22.5 60,0 7.5,-22.5 -7.5,-142.5 15,-247.5 30,-97.5 75,-150 97.5,-180 0,-37.5 0,-52.5 0,-52.5 0,0 15,7.5 22.5,7.5 7.5,30 -7.5,105 -15,172.5 -22.5,82.5 -45,172.5 -52.5,255 0,75 7.5,135 45,157.5 15,0 15,-22.5 15,-22.5 0,0 60,180 120,180 15,0 0,-30 0,-30 0,0 37.5,30 90,75 112.5,90 300,225 352.5,367.5 60,187.5 60,195 97.5,187.5 60,-30 165,-307.5 -90,-667.5 30,15 52.5,-7.5 7.5,-90 -52.5,-82.5 -225,-240 -247.5,-270 60,37.5 82.5,37.5 90,22.5 15,-22.5 -37.5,-45 -97.5,-112.5 -52.5,-60 -97.5,-120 -105,-150 0,-60 15,-90 15,-90 0,0 15,67.5 105,90 52.5,60 112.5,172.5 195,247.5 105,112.5 225,165 277.5,135 15,-7.5 -7.5,-30 -7.5,-30 0,0 45,0 90,-7.5 60,-7.5 112.5,-37.5 67.5,-60 90,-45 247.5,-172.5 322.5,-210 270,-112.5 390,-90 420,-120 45,-37.5 -105,-105 -247.5,-105 -180,0 -375,75 -375,75 0,0 -225,30 -322.5,22.5 52.5,-22.5 82.5,-67.5 75,-82.5 -7.5,-15 -82.5,15 -187.5,22.5 -67.5,0 -150,-15 -225,-52.5 15,-30 7.5,-37.5 22.5,-60 15,-15 240,-172.5 412.5,-247.5 225,-97.5 420,-142.5 412.5,-202.5 0,-90 -127.5,-217.5 -187.5,-352.5 -90,-202.5 -105,-435 -157.5,-502.5 15,7.5 45,30 52.5,15 7.5,-15 -30,-90 -105,-127.5 15,-7.5 45,-7.5 -37.5,-52.5 30,-7.5 67.5,-67.5 52.5,-75 -15,-7.5 -75,22.5 -75,22.5 0,0 45,-127.5 -67.5,-202.5 -7.5,0 -15,7.5 -15,7.5 0,0 15,22.5 7.5,82.5 -15,-90 -307.5,-240 -390,-300 30,-15 67.5,-45 75,-75 15,-67.5 -15,-142.5 -75,-232.5 90,-30 277.5,-105 262.5,-172.5 0,-15 -15,-7.5 -15,-7.5 0,0 22.5,-37.5 30,-90 0,-67.5 -15,-127.5 -60,-172.5 0,-60 -30,-142.5 -52.5,-157.5 75,-7.5 232.5,-112.5 172.5,-202.5 -30,-22.4995 -52.5,-15 -52.5,-15 0,0 -22.5,-149.9995 -217.5,-67.4995 -120,60 -52.5,142.4995 -52.5,142.4995 0,0 -127.5,45 -247.5,82.5 -82.5,30 -165,45 -202.5,45 -180,-22.5 -375,-127.5 -375,-127.5 0,0 60,-67.5 -52.5,-142.4995 -120,-67.5 -240,-37.50003 -195,89.9995 -15,7.5 -22.5,15 -22.5,15 0,0 -292.5,-194.9995 -375,-74.9995 -82.5,-30 -217.5,-37.5 -217.5,67.4995 -67.5,22.5 -60,180 120,307.5 -15,-7.5 -75,37.5 120,67.5 172.5,30 367.5,-75 525,30 -165,67.5 -382.5,30 -487.5,232.5 -15,-37.5 -22.5,-90 -45,-97.5 -7.5,0 -45,37.5 0,187.5 -30,-30 -45,-22.5 -52.5,-15 -15,15 30,75 105,127.5 75,52.5 187.5,75 210,97.5 -37.5,0 -52.5,22.5 -75,30 -15,0 -67.5,0 -97.5,30 -37.5,45 -45,127.5 -30,217.5 -165,7.5 -345,22.5 -345,22.5 0,0 -45,-187.5 -45,-337.5 -112.5,-7.5 -187.5,30 -187.5,30 0,0 37.5,67.5 15,187.5 -15,97.5 -112.5,120 -90,270 30,157.5 150,120 187.5,240 30,105 37.5,150 37.5,150 0,0 165,7.5 202.5,7.5 7.5,-45 7.5,-60 7.5,-60 0,0 -82.5,-262.5 -82.5,-285 105,-7.5 405,-45 405,-45 0,0 -82.5,112.5 30,202.5 -127.5,195 -345,187.5 -367.5,420 0,-22.5 -15,-60 -22.5,-52.5 -22.5,0 -45,90 -7.5,210 -37.5,-22.5 -90,-67.5 -97.5,-60 -7.5,7.5 -7.5,67.5 105,150 -60,30 -30,52.5 -30,52.5 0,0 180,0 375,37.5 187.5,37.5 375,105 420,150 -60,-7.5 -45,15 -22.5,45 -120,-7.5 -187.5,22.5 -210,67.5 0,-45 -15,-60 -22.5,-52.5 -7.5,0 -75,97.5 -7.5,217.5 -37.5,-30 -52.5,-37.5 -67.5,-30 -15,7.5 7.5,75 97.5,142.5 90,75 225,90 225,90 0,0 -45,15 -30,30 15,15 112.5,37.5 210,0 105,-45 112.5,-82.5 112.5,-82.5" /><path
         id="path16"
         style="fill:#ffffff;fill-opacity:1;fill-rule:nonzero;stroke:none"
         d="m 735,2229.73 c 0,0 255,150 472.5,127.5 -7.5,-75 -202.5,-285 -150,-352.5 15,-7.5 22.5,7.5 22.5,7.5 0,0 0,-210 52.5,-195 30,-97.5 97.5,-270 97.5,-270 0,0 -37.5,-60 -52.5,-67.5 -75,7.5 -112.5,15 -112.5,15 0,0 -22.5,30 -45,82.5 -22.5,52.5 -45,127.5 -60,157.5 -45,82.5 -142.5,127.5 -202.5,255 -37.5,97.5 -22.5,240 -22.5,240" /><path
         id="path18"
         style="fill:#ffffff;fill-opacity:1;fill-rule:nonzero;stroke:none"
         d="m 1635,1607.23 c 0,0 30,112.5 172.5,262.5 52.5,-22.5 97.5,-37.5 97.5,-37.5 0,0 37.5,-195 127.5,-232.5 -120,-45 -277.5,-75 -352.5,-45 -37.5,15 -45,52.5 -45,52.5" /><path
         id="path20"
         style="fill:#ffffff;fill-opacity:1;fill-rule:nonzero;stroke:none"
         d="m 2100,1854.73 c 0,0 90,97.5 -15,225 -52.5,67.5 -120,82.5 -120,82.5 v 15 c 0,0 82.5,-22.5 157.5,-135 75,-120 187.5,-300 210,-315 -37.5,-7.5 -60,-15 -60,-15 0,0 -15,22.5 -45,45 -45,37.5 -127.5,82.5 -127.5,97.5" /><path
         id="path22"
         style="fill:#ffffff;fill-opacity:1;fill-rule:nonzero;stroke:none"
         d="m 2190,2312.23 c 0,0 105,-60 255,0 -15,-30 -7.5,-22.5 -7.5,-22.5 0,0 7.5,-15 22.5,-7.5 30,0 82.5,30 120,97.5 7.5,-37.5 7.5,-52.5 7.5,-52.5 0,0 -15,-22.5 -37.5,-37.5 -15,-22.5 -75,-82.5 -135,-150 -30,-30 -45,-60 -45,-60 0,0 -90,52.5 -180,232.5" /><path
         id="path24"
         style="fill:#ffffff;fill-opacity:1;fill-rule:nonzero;stroke:none"
         d="m 2595,2544.73 c 0,0 52.5,15 30,67.5 52.5,-22.5 105,-7.5 105,-7.5 0,0 -15,-105 -90,-210 15,120 -45,150 -45,150" /><path
         id="path26"
         style="fill:#ffffff;fill-opacity:1;fill-rule:nonzero;stroke:none"
         d="m 2167.5,2859.73 c 0,0 60,37.5 105,7.5 -22.5,-7.5 -37.5,-22.5 -37.5,-22.5 0,0 45,0 75,-15 30,30 37.5,45 37.5,45 0,0 -60,60 -240,105 15,-52.5 45,-105 60,-120" /><path
         id="path28"
         style="fill:#ffffff;fill-opacity:1;fill-rule:nonzero;stroke:none"
         d="m 937.5,864.73 c 0,0 142.5,127.5 187.5,157.5 7.5,-90 15,-180 262.5,-232.5 0,-30 60,-52.5 112.5,-67.5 0,-60 7.5,-195 22.5,-210 -45,-105 -285,-127.5 -285,-127.5 0,0 150,180 120,202.5 -45,37.5 -165,37.5 -247.5,82.5 -112.5,52.5 -120,157.5 -172.5,195" /><path
         id="path30"
         style="fill:#ffffff;fill-opacity:1;fill-rule:nonzero;stroke:none"
         d="m 1642.5,714.73 v -52.5 c 0,0 30,0 45,-30 7.5,-15 -7.5,-45 -7.5,-45 0,0 90,-37.5 30,-112.5 22.5,-22.5 90,-45 90,-45 0,0 22.5,112.5 15,157.5 0,45 -67.5,172.5 -67.5,172.5 0,0 0,-30 -105,-45" /><path
         id="path32"
         style="fill:#ffffff;fill-opacity:1;fill-rule:nonzero;stroke:none"
         d="m 1837.5,1322.23 97.5,15 c 0,0 -22.5,-45 -30,-45 -45,22.5 -67.5,30 -67.5,30" /><path
         id="path34"
         style="fill:#7d6300;fill-opacity:1;fill-rule:nonzero;stroke:none"
         d="m 1717.5,3324.73 h 15 c 7.5,0 15,0 15,0 0,0 -37.5,150 30,345 67.5,187.5 337.5,457.5 435,690 -120,-157.5 -255,-225 -367.5,-322.5 -60,-60 -97.5,-127.5 -97.5,-127.5 0,0 30,82.5 37.5,112.5 7.5,30 -82.5,-97.5 -90,-255 -15,52.5 -22.5,75 -30,97.5 -15,-30 -15,-127.5 -7.5,-195 15,-67.5 75,-277.5 60,-345" /><path
         id="path36"
         style="fill:#7d6300;fill-opacity:1;fill-rule:nonzero;stroke:none"
         d="m 2062.5,3392.23 c 0,0 15,-22.5 15,-30 52.5,60 202.5,172.5 255,165 -22.5,22.5 -37.5,30 -37.5,30 0,0 60,-7.5 82.5,-15 15,-7.5 315,-180 472.5,-232.5 165,-60 442.5,-60 532.5,22.5 -90,15 -255,37.5 -397.5,105 -187.5,90 -307.5,225 -465,255 37.5,7.5 97.5,-7.5 112.5,7.5 -105,30 -195,15 -247.5,-7.5 15,22.5 75,30 90,67.5 -75,0 -187.5,-75 -247.5,-142.5 -37.5,-45 -135,-180 -165,-225" /><path
         id="path38"
         style="fill:#7d6300;fill-opacity:1;fill-rule:nonzero;stroke:none"
         d="m 1905,3182.23 c 0,0 0,75 7.5,90 -30,30 -37.5,135 -37.5,135 0,0 -22.5,-135 30,-225" /><path
         id="path40"
         style="fill:#7d6300;fill-opacity:1;fill-rule:nonzero;stroke:none"
         d="m 1492.5,2994.73 c 0,0 60,7.5 75,30 15,-37.5 22.5,-52.5 22.5,-52.5 0,0 -15,-15 -45,-37.5 7.5,-7.5 15,-7.5 15,-7.5 0,0 -30,-52.5 -22.5,-67.5 -15,82.5 -45,135 -45,135" /><path
         id="path42"
         style="fill:#7d6300;fill-opacity:1;fill-rule:nonzero;stroke:none"
         d="m 1590,2942.23 c 0,0 75,45 90,45 -22.5,0 -37.5,0 -37.5,0 0,0 37.5,52.5 97.5,67.5 7.5,-37.5 -7.5,-150 -7.5,-217.5 -37.5,67.5 -112.5,105 -142.5,105" /><path
         id="path44"
         style="fill:#7d6300;fill-opacity:1;fill-rule:nonzero;stroke:none"
         d="m 1852.5,3212.23 c 0,0 15,0 30,-30 15,-30 0,-165 37.5,-180 -7.5,37.5 -15,127.5 -7.5,142.5 30,-45 90,-60 112.5,-52.5 -30,-22.5 -60,-15 -97.5,15 22.5,-52.5 105,-105 150,-112.5 15,-75 67.5,-142.5 67.5,-142.5 0,0 -255,-180 -285,-172.5 15,30 37.5,82.5 30,120 -22.5,-75 -60,-150 -90,-150 -7.5,15 -15,75 0,172.5 15,97.5 67.5,345 52.5,390" /><path
         id="path46"
         style="fill:#000000;fill-opacity:1;fill-rule:nonzero;stroke:none"
         d="m 1920,2837.23 c 0,0 0,-60 -15,-105 52.5,52.5 15,105 15,105" /><path
         id="path48"
         style="fill:#7d6300;fill-opacity:1;fill-rule:nonzero;stroke:none"
         d="m 1972.5,3114.73 c 37.5,-22.5 97.5,0 112.5,22.5 0,-45 -45,-82.5 -82.5,-82.5 45,-52.5 150,-52.5 262.5,-105 90,-37.5 105,-60 105,-60 0,0 22.5,7.5 22.5,37.5 7.5,-22.5 0,-45 -45,-90 -30,-30 -112.5,-90 -82.5,-127.5 52.5,60 142.5,52.5 195,105 -37.5,-67.5 -172.5,-67.5 -187.5,-135 -15,-67.5 90,-112.5 165,-127.5 75,-15 187.5,-22.5 165,67.5 -67.5,7.5 -180,30 -210,22.5 67.5,22.5 97.5,15 135,7.5 45,-7.5 172.5,-52.5 300,0 -52.5,-45 -75,-37.5 -75,-37.5 0,0 -15,-105 -75,-217.5 -67.5,-105 -277.5,-262.5 -315,-367.5 -30,-112.5 7.5,-180 7.5,-180 0,0 -82.5,67.5 -15,217.5 -97.5,52.5 -202.5,240 -202.5,262.5 -112.5,52.5 -165,82.5 -187.5,82.5 30,-67.5 45,-195 30,-210 -22.5,7.5 -22.5,0 -22.5,0 h -7.5 c 0,0 120,-52.5 165,-127.5 45,-67.5 210,-337.5 247.5,-352.5 60,-22.5 105,-15 150,7.5 -52.5,0 -90,7.5 -97.5,22.5 90,-7.5 180,37.5 195,97.5 -75,-67.5 -105,-60 -105,-60 0,0 67.5,45 82.5,120 22.5,67.5 97.5,382.5 157.5,495 67.5,120 172.5,262.5 172.5,307.5 0,45 -135,90 -240,127.5 -105,30 -180,67.5 -255,112.5 -142.5,75 -277.5,172.5 -277.5,172.5 l 7.5,-30 c 0,0 -52.5,45 -60,82.5 -15,45 -37.5,180 -60,187.5 -22.5,15 -97.5,-15 -112.5,-105 -15,-97.5 15,-120 37.5,-142.5" /><path
         id="path50"
         style="fill:#7d6300;fill-opacity:1;fill-rule:nonzero;stroke:none"
         d="m 1672.5,1532.23 c 0,0 97.5,-52.5 390,52.5 112.5,-45 277.5,-37.5 232.5,112.5 45,7.5 52.5,15 52.5,15 0,0 52.5,-37.5 97.5,-22.5 67.5,-60 45,-157.5 7.5,-202.5 15,90 -15,142.5 -15,142.5 0,0 7.5,-45 -45,-120 -60,-90 -330,-225 -412.5,-285 -82.5,-67.5 -142.5,-187.5 -142.5,-187.5 l -15,22.5 c 0,0 -30,-52.5 105,-105 135,-60 300,-112.5 337.5,-180 -45,22.5 -60,22.5 -60,22.5 0,0 135,-105 45,-285 -7.5,82.5 -37.5,135 -90,180 90,-142.5 90,-262.5 30,-337.5 7.5,60 -7.5,75 -7.5,75 0,0 -37.5,-180 -150,-165 -22.5,0 -30,30 -30,30 0,0 45,45 52.5,75 45,-22.5 90,172.5 -15,285 37.5,-75 60,-180 30,-247.5 0,60 -15,82.5 -15,82.5 0,0 0,-52.5 -22.5,-105 -30,-67.5 -90,-142.5 -165,-112.5 -75,22.5 0,330 -37.5,397.5 -7.5,-15 -7.5,-22.5 -7.5,-22.5 0,0 -30,82.5 -75,180 -45,97.5 -112.5,195 -90,232.5 22.5,52.5 127.5,75 232.5,180 112.5,105 112.5,217.5 202.5,315 -82.5,-67.5 -105,-165 -142.5,-202.5 -90,7.5 -292.5,-60 -292.5,-60 0,0 37.5,30 45,97.5 15,67.5 -30,142.5 -30,142.5" /><path
         id="path52"
         style="fill:#7d6300;fill-opacity:1;fill-rule:nonzero;stroke:none"
         d="m 2475,1682.23 15,7.5 c 0,0 52.5,-30 52.5,-37.5 -45,22.5 -67.5,30 -67.5,30" /><path
         id="path54"
         style="fill:#7d6300;fill-opacity:1;fill-rule:nonzero;stroke:none"
         d="m 825,1097.23 c 0,0 82.5,-22.5 105,15 30,30 45,142.5 165,187.5 -60,-45 -90,-97.5 -90,-97.5 0,0 45,-82.5 142.5,-37.5 90,52.5 127.5,120 90,157.5 -37.5,45 -135,30 -165,112.5 67.5,-60 165,-82.5 165,-82.5 0,0 30,15 52.5,52.5 22.5,45 22.5,120 -30,135 -37.5,-52.5 -82.5,-97.5 -82.5,-97.5 h 30 c 0,0 -45,-37.5 -112.5,0 -90,52.5 -112.5,195 -165,285 -45,90 -112.5,120 -172.5,225 -127.5,217.5 30,315 -127.5,420 90,-15 97.5,-120 97.5,-120 0,0 97.5,52.5 217.5,90 127.5,37.5 285,60 382.5,7.5 -75,7.5 -90,7.5 -90,7.5 0,0 -37.5,-75 -60,-112.5 -22.5,-45 -112.5,-172.5 -105,-210 30,37.5 45,75 60,82.5 -30,-82.5 -30,-232.5 -15,-270 7.5,52.5 15,90 15,90 0,0 15,-120 112.5,-375 90,30 112.5,-157.5 15,-232.5 30,-22.5 30,-97.5 -90,-172.5 -90,-60 -142.5,-7.5 -142.5,-7.5 0,0 -52.5,-37.5 -112.5,-67.5 -127.5,-60 -307.5,-142.5 -330,-195 30,22.5 82.5,37.5 82.5,37.5 0,0 -82.5,-90 -67.5,-195 30,90 67.5,112.5 67.5,112.5 0,0 -15,-30 -7.5,-52.5 0,-22.5 37.5,-97.5 150,-135 112.5,-37.5 375,-90 397.5,-142.5 -52.5,15 -52.5,15 -52.5,15 0,0 -67.5,-52.5 -150,-52.5 -165,-7.5 -420,52.5 -487.5,-7.5 52.5,0 97.5,-7.5 97.5,-7.5 0,0 -150,7.5 -247.5,-165 -37.5,-75 -7.5,-127.5 -7.5,-127.5 0,0 22.5,82.5 157.5,165 -7.5,7.5 22.5,120 217.5,75 -135,7.5 -180,-45 -180,-45 0,0 22.5,-7.5 15,-22.5 -37.5,-30 -240,-135 -172.5,-247.4995 60,-52.5 172.5,0 172.5,0 0,0 -7.5,149.9995 270,239.9995 -225,-112.5 -262.5,-225 -232.5,-262.4995 45,-52.5 255,15 427.5,157.4995 172.5,150 315,307.5 292.5,360 -7.5,15 -127.5,15 -225,60 -112.5,52.5 -180,202.5 -180,202.5 l -30,-30 c 0,0 -7.5,30 60,90 60,60 307.5,240 427.5,277.5 30,75 -37.5,277.5 -82.5,457.5 -30,127.5 -37.5,225 -22.5,292.5 -22.5,-22.5 -45,-22.5 -15,157.5 -22.5,-15 -37.5,22.5 37.5,112.5 67.5,97.5 142.5,120 187.5,187.5 -7.5,45 7.5,105 30,135 -15,22.5 -30,45 -30,45 0,0 0,-60 -22.5,-82.5 22.5,127.5 -45,202.5 -97.5,225 -52.5,22.5 -90,15 -90,15 l 15,-22.5 c 0,0 -112.5,-15 -135,-52.5 75,15 127.5,22.5 150,-7.5 -90,0 -202.5,-75 -345,-127.5 -195,-60 -427.5,-97.5 -562.5,-90 22.5,-22.5 82.5,-15 82.5,-15 0,0 -120,-37.5 -150,-112.5 60,30 105,60 105,60 0,0 -60,-157.5 -45,-217.5 15,67.5 37.5,112.5 60,142.5 -22.5,-195 30,-232.5 45,-270 37.5,-67.5 337.5,-217.5 330,-330 -15,15 -22.5,22.5 -22.5,22.5 0,0 -52.5,-30 -45,-75 0,-45 105,-232.5 52.5,-382.5 -7.5,52.5 -15,82.5 -15,82.5 l -120,7.5 c 0,0 -15,-180 37.5,-210 52.5,-30 172.5,0 187.5,45 30,60 15,127.5 52.5,165 -37.5,-105 0,-142.5 -45,-195 -45,-52.5 -82.5,-45 -82.5,-45 v -7.5" /><path
         id="path56"
         style="fill:#e3d4ae;fill-opacity:1;fill-rule:nonzero;stroke:none"
         d="m 1597.5,2987.23 c 0,0 45,67.5 142.5,82.5 -7.5,45 -45,67.5 -45,67.5 0,0 45,-7.5 60,-67.5 0,-7.5 7.5,-37.5 7.5,-82.5 -7.5,-135 -30,-367.5 30,-337.5 -37.5,30 -15,135 15,285 30,195 82.5,390 -97.5,375 30,-15 30,-22.5 30,-22.5 0,0 -142.5,-22.5 -172.5,-127.5 30,37.5 52.5,37.5 52.5,37.5 0,0 -90,-105 -22.5,-210" /><path
         id="path58"
         style="fill:#e3d4ae;fill-opacity:1;fill-rule:nonzero;stroke:none"
         d="m 1830,2649.73 15,15 c 0,0 45,0 97.5,37.5 82.5,45 225,165 292.5,165 -37.5,-22.5 -37.5,-37.5 -37.5,-37.5 0,0 60,7.5 97.5,-7.5 -45,-37.5 -82.5,-97.5 -37.5,-127.5 -7.5,-52.5 15,-82.5 15,-82.5 0,0 -22.5,-15 -82.5,-15 30,30 37.5,82.5 37.5,82.5 h 15 c 0,0 7.5,22.5 -60,30 0,0 0,0 -7.5,0 -45,7.5 -90,-7.5 -150,-22.5 -82.5,-22.5 -165,-52.5 -195,-37.5" /><path
         id="path60"
         style="fill:#e3d4ae;fill-opacity:1;fill-rule:nonzero;stroke:none"
         d="m 1275,3114.73 c 0,0 -22.5,7.5 -45,15 -30,7.5 -67.5,15 -82.5,15 97.5,22.5 172.5,-7.5 202.5,-22.5 105,-37.5 142.5,-180 187.5,-300 37.5,-97.5 82.5,-172.5 127.5,-187.5 -7.5,-7.5 -22.5,-15 -22.5,-15 0,0 75,22.5 142.5,-15 67.5,-37.5 82.5,-97.5 82.5,-127.5 7.5,-37.5 -45,-157.5 15,-262.5 -37.5,22.5 -127.5,15 -127.5,15 0,0 150,-7.5 172.5,-60 -90,15 -127.5,0 -127.5,0 0,0 112.5,0 202.5,-45 112.5,-60 142.5,-195 75,-255 -37.5,30 -97.5,112.5 -135,97.5 -37.5,-15 -45,-105 -37.5,-120 -97.5,30 -232.5,82.5 -277.5,202.5 -52.5,112.5 22.5,202.5 -45,292.5 7.5,-37.5 7.5,-60 7.5,-60 0,0 -7.5,22.5 -30,37.5 -22.5,30 -60,82.5 -60,105 -7.5,45 60,180 60,225 7.5,-15 22.5,-22.5 22.5,-22.5 0,0 -7.5,37.5 -60,90 22.5,7.5 22.5,15 22.5,15 0,0 -75,7.5 -150,45 -67.5,30 -127.5,82.5 -165,172.5 7.5,-97.5 120,-187.5 262.5,-225 30,-22.5 45,-52.5 45,-52.5 0,0 0,-90 -22.5,-105 -7.5,30 -30,37.5 -30,37.5 0,0 -15,75 -105,127.5 -90,52.5 -172.5,22.5 -172.5,15 0,-7.5 30,-22.5 30,-22.5 0,0 -52.5,-22.5 -67.5,-22.5 -15,0 -112.5,-15 -180,22.5 -67.5,30 -60,90 -60,97.5 -30,-37.5 -7.5,-82.5 -22.5,-105 -30,60 -22.5,217.5 60,262.5 -37.5,7.5 -97.5,-67.5 -120,-75 7.5,90 232.5,232.5 427.5,210" /><path
         id="path62"
         style="fill:#e3d4ae;fill-opacity:1;fill-rule:nonzero;stroke:none"
         d="m 1867.5,2552.23 c 0,0 15,-37.5 15,-45 30,15 0,7.5 0,7.5 0,0 97.5,30 142.5,0 -22.5,0 -37.5,0 -37.5,0 0,0 22.5,-30 90,-37.5 67.5,-7.5 150,-15 180,-15 -135,-30 -247.5,15 -292.5,45 -52.5,0 -82.5,-15 -82.5,-15 0,0 7.5,-52.5 -7.5,-82.5 30,0 112.5,30 187.5,7.5 -30,0 -52.5,-7.5 -52.5,-7.5 0,0 105,-52.5 195,-82.5 97.5,-37.5 247.5,-22.5 300,45 0,-37.5 -45,-82.5 -45,-82.5 0,0 82.5,30 135,150 15,-45 7.5,-90 7.5,-90 0,0 75,90 -22.5,187.5 -52.5,-37.5 -195,-7.5 -277.5,45 -142.5,0 -300,-60 -435,-30" /><path
         id="path64"
         style="fill:#e3d4ae;fill-opacity:1;fill-rule:nonzero;stroke:none"
         d="m 1875,2387.23 67.5,15 c 0,0 52.5,-90 45,-172.5 -22.5,37.5 -37.5,67.5 -37.5,67.5 0,0 15,-97.5 0,-127.5 -15,37.5 -45,37.5 -45,37.5 0,0 -45,97.5 -30,180" /><path
         id="path66"
         style="fill:#e3d4ae;fill-opacity:1;fill-rule:nonzero;stroke:none"
         d="m 1492.5,2379.73 c 0,0 30,-37.5 52.5,-60 22.5,-30 52.5,-82.5 52.5,-82.5 0,0 -15,-150 15,-202.5 0,-52.5 -7.5,-90 -45,-135 0,30 22.5,60 22.5,60 0,0 -52.5,-67.5 -135,-127.5 45,0 90,52.5 90,52.5 v -15 c 0,0 60,0 90,135 45,-90 150,-127.5 150,-127.5 0,0 -225,-247.5 -172.5,-382.5 0,37.5 15,82.5 15,82.5 0,0 67.5,-105 60,-172.5 -7.5,-60 -45,-105 -60,-120 -22.5,-7.5 -210,-67.5 -225,-90 7.5,45 7.5,67.5 0,127.5 -15,105 -67.5,217.5 -97.5,397.5 -22.5,120 -15,240 0,345 -22.5,-37.5 -37.5,-105 -45,-112.5 -7.5,37.5 0,150 60,217.5 -37.5,-15 -52.5,-37.5 -52.5,-37.5 0,0 7.5,22.5 45,67.5 37.5,45 157.5,135 180,180" /><path
         id="path68"
         style="fill:#000000;fill-opacity:1;fill-rule:nonzero;stroke:none"
         d="m 1687.5,2297.23 c 0,0 52.5,22.5 90,0 30,-15 75,-52.5 75,-52.5 0,0 -60,37.5 -90,45 -22.5,7.5 -75,7.5 -75,7.5" /><path
         id="path70"
         style="fill:#000000;fill-opacity:1;fill-rule:nonzero;stroke:none"
         d="m 1665,2379.73 c 0,0 37.5,15 90,0 52.5,-22.5 67.5,-60 67.5,-60 0,0 -52.5,52.5 -90,52.5 -30,7.5 -67.5,7.5 -67.5,7.5" /><path
         id="path72"
         style="fill:#000000;fill-opacity:1;fill-rule:nonzero;stroke:none"
         d="m 1642.5,2469.73 c 0,0 52.5,22.5 112.5,-7.5 60,-30 60,-67.5 60,-67.5 0,0 -37.5,37.5 -75,52.5 -37.5,15 -97.5,22.5 -97.5,22.5" /><path
         id="path74"
         style="fill:#000000;fill-opacity:1;fill-rule:nonzero;stroke:none"
         d="m 1725,2507.23 c 0,0 52.5,-7.5 67.5,-30 22.5,-30 37.5,-60 37.5,-60 0,0 -22.5,30 -52.5,52.5 -22.5,22.5 -52.5,37.5 -52.5,37.5" /><path
         id="path76"
         style="fill:#000000;fill-opacity:1;fill-rule:nonzero;stroke:none"
         d="m 1665,2567.23 c 0,0 45,15 97.5,-15 52.5,-30 75,-82.5 75,-82.5 0,0 -52.5,60 -82.5,75 -30,15 -90,22.5 -90,22.5" /><path
         id="path78"
         style="fill:#e3d4ae;fill-opacity:1;fill-rule:nonzero;stroke:none"
         d="m 1770,3317.23 c 0,0 37.5,0 67.5,-60 7.5,22.5 7.5,37.5 7.5,37.5 0,0 -22.5,112.5 67.5,240 -15,-90 -15,-120 -15,-120 0,0 30,52.5 75,112.5 45,45 97.5,90 120,127.5 -7.5,0 -90,-22.5 -112.5,-90 -22.5,22.5 37.5,82.5 75,127.5 30,37.5 247.5,225 217.5,292.5 -52.5,-30 -82.5,-82.5 -97.5,-75 30,37.5 172.5,210 217.5,405 30,127.5 7.5,300 -60,337.5 -15,0 -22.5,-90 -82.5,-270 -30,-67.5 -90,-172.5 -150,-262.5 -112.5,-157.5 -240,-315 -277.5,-405 -52.5,-135 -60,-240 -52.5,-397.5" /><path
         id="path80"
         style="fill:#e3d4ae;fill-opacity:1;fill-rule:nonzero;stroke:none"
         d="m 2085,3339.73 c 0,0 15,-90 22.5,-97.5 30,22.5 112.5,45 195,52.5 82.5,0 180,-22.5 202.5,-30 7.5,7.5 -52.5,67.5 -135,67.5 90,30 285,15 352.5,0 -285,142.5 -352.5,187.5 -352.5,187.5 0,0 -127.5,-15 -285,-180" /><path
         id="path82"
         style="fill:#ffffa8;fill-opacity:1;fill-rule:nonzero;stroke:none"
         d="m 1605,2919.73 c 0,0 60,-15 127.5,-112.5 -37.5,-15 -67.5,-97.5 -37.5,-112.5 30,-15 37.5,22.5 37.5,22.5 0,0 22.5,-127.5 82.5,-75 22.5,-15 52.5,-7.5 52.5,-7.5 0,0 0,-45 60,-15 45,15 22.5,30 22.5,30 0,0 97.5,45 240,45 0,-15 -30,-67.5 -82.5,-97.5 -67.5,-37.5 -187.5,-52.5 -255,-22.5 -52.5,45 -75,60 -165,60 -67.5,52.5 -97.5,90 -112.5,135 0,60 7.5,112.5 30,150" /><path
         id="path84"
         style="fill:#ff1e1e;fill-opacity:1;fill-rule:nonzero;stroke:none"
         d="m 1552.5,2837.23 7.5,-37.5 c 0,0 7.5,60 30,127.5 -15,0 -15,0 -15,0 0,0 -30,-75 -22.5,-90" /><path
         id="path86"
         style="fill:#ff1e1e;fill-opacity:1;fill-rule:nonzero;stroke:none"
         d="m 2205,2687.23 h 7.5 c 0,0 7.5,-52.5 -52.5,-97.5 -37.5,-7.5 -52.5,-7.5 -52.5,-7.5 0,0 97.5,52.5 97.5,105" /><path
         id="path88"
         style="fill:#ff1e1e;fill-opacity:1;fill-rule:nonzero;stroke:none"
         d="m 1192.5,1067.23 c 0,0 277.5,172.5 600,247.5 75,-15 105,-30 105,-30 0,0 -37.5,-45 -82.5,-82.5 -60,-45 -142.5,-90 -157.5,-105 -7.5,52.5 -52.5,60 -52.5,60 0,0 45,-30 45,-75 -15,-15 -15,-15 -15,-15 0,0 -75,105 -180,60 90,15 142.5,-30 172.5,-75 -7.5,-15 15,-37.5 15,-60 -15,0 -157.5,0 -270,15 -97.5,22.5 -180,60 -180,60" /><path
         id="path90"
         style="fill:#ff1e1e;fill-opacity:1;fill-rule:nonzero;stroke:none"
         d="m 1860,1029.73 c 0,0 45,120 157.5,195 52.5,-37.5 90,-75 67.5,-112.5 -30,-37.5 -165,-90 -217.5,-97.5 -7.5,7.5 -7.5,15 -7.5,15" /><path
         id="path92"
         style="fill:#1eb8ff;fill-opacity:1;fill-rule:nonzero;stroke:none"
         d="m 1462.5,3032.23 22.5,-15 c 0,0 7.5,82.5 -15,262.5 -22.5,-7.5 -30,0 -45,7.5 22.5,-90 37.5,-255 37.5,-255" /><path
         id="path94"
         style="fill:#1eb8ff;fill-opacity:1;fill-rule:nonzero;stroke:none"
         d="m 1485,3294.73 c 0,0 30,22.5 30,37.5 15,-67.5 45,-60 52.5,-52.5 0,-52.5 0,-82.5 0,-82.5 0,0 -30,-60 -22.5,-67.5 7.5,0 15,7.5 15,7.5 0,0 -7.5,-82.5 0,-90 -37.5,-22.5 -60,-22.5 -60,-22.5 0,0 -7.5,232.5 -15,270" /><path
         id="path96"
         style="fill:#1eb8ff;fill-opacity:1;fill-rule:nonzero;stroke:none"
         d="m 1575,3212.23 c 0,0 52.5,52.5 75,52.5 7.5,22.5 7.5,45 7.5,45 0,0 -30,-30 -67.5,15 -7.5,-22.5 -15,-30 -15,-30 v -82.5" /><path
         id="path98"
         style="fill:#1eb8ff;fill-opacity:1;fill-rule:nonzero;stroke:none"
         d="m 1492.5,3594.73 c 0,0 15,-15 30,30 15,-7.5 22.5,-15 22.5,-15 0,0 7.5,112.5 0,172.5 -7.5,15 -37.5,0 -37.5,-7.5 0,-7.5 -7.5,-165 -15,-180" /><path
         id="path100"
         style="fill:#deae00;fill-opacity:1;fill-rule:nonzero;stroke:none"
         d="m 1410,3332.23 c 0,0 90,210 82.5,240 7.5,7.5 30,15 30,30 15,0 22.5,-7.5 22.5,-7.5 0,0 15,-52.5 37.5,-105 22.5,-60 60,-120 75,-135 7.5,-7.5 -15,-45 -22.5,-45 -15,7.5 -30,15 -60,52.5 0,-45 -22.5,-75 -22.5,-75 0,0 -22.5,7.5 -22.5,82.5 -15,-7.5 -15,-7.5 -15,-7.5 0,0 -52.5,-90 -75,-75 -22.5,7.5 -30,45 -30,45" /><path
         id="path102"
         style="fill:#deae00;fill-opacity:1;fill-rule:nonzero;stroke:none"
         d="m 97.5,1074.73 c 0,0 127.5,-30 150,-22.5 7.5,15 15,172.5 45,337.5 37.5,195 105,412.5 135,465 -105,7.5 -180,7.5 -180,7.5 0,0 -7.5,-90 -37.5,-142.5 -7.5,-22.5 -37.5,-52.5 -60,-82.5 -60,-52.5 -120,-82.5 -135,-150 -15,-75 82.5,-165 90,-232.5 15,-67.5 7.5,-165 -7.5,-180" /><path
         id="path104"
         style="fill:#deae00;fill-opacity:1;fill-rule:nonzero;stroke:none"
         d="m 337.5,1532.23 37.5,-7.5 -15,-82.5 30,-7.5 15,90 h 15 v -30 h 15 l 7.5,22.5 H 480 l -7.5,-52.5 h 7.5 l 15,45 h 37.5 l -7.5,-30 h 7.5 l 7.5,30 h 30 l -15,-82.5 22.5,-7.5 15,82.5 h 30 v -30 h 7.5 l 7.5,30 37.5,-7.5 -7.5,-60 h 7.5 l 15,52.5 h 30 l -7.5,-22.5 15,-7.5 7.5,30 h 15 l -15,-90 h 30 l 15,60 c 0,0 22.5,-75 15,-112.5 -90,15 -487.5,45 -487.5,45 l 30,142.5" /><path
         id="path106"
         style="fill:#bd570a;fill-opacity:1;fill-rule:nonzero;stroke:none"
         d="m 22.5,1539.73 c 0,0 15,45 37.5,75 22.5,30 82.5,45 135,135 45,90 37.5,142.5 37.5,142.5 l 15,-22.5 c 0,0 -7.5,-82.5 -60,-172.5 -52.5,-90 -120,-82.5 -165,-157.5" /><path
         id="path108"
         style="fill:#bd570a;fill-opacity:1;fill-rule:nonzero;stroke:none"
         d="m 247.5,1899.73 c 0,0 157.5,7.5 165,15 7.5,-22.5 15,-45 15,-45 0,0 -157.5,0 -165,7.5 -15,15 -15,22.5 -15,22.5" /><path
         id="path110"
         style="fill:#bd570a;fill-opacity:1;fill-rule:nonzero;stroke:none"
         d="m 345,1562.23 v -15 c 0,0 382.5,-45 420,-52.5 0,22.5 0,22.5 0,22.5 0,0 -412.5,52.5 -420,45" /><path
         id="path112"
         style="fill:#8a1e1e;fill-opacity:1;fill-rule:nonzero;stroke:none"
         d="m 1140,1029.73 37.5,22.5 c 0,0 142.5,-97.5 472.5,-75 52.5,-90 82.5,-187.5 82.5,-187.5 0,0 -262.5,-15 -367.5,22.5 -105,37.5 -225,60 -225,217.5" /><path
         id="path114"
         style="fill:#8a1e1e;fill-opacity:1;fill-rule:nonzero;stroke:none"
         d="m 1897.5,1007.23 c 0,0 157.5,30 187.5,90 0,-60 -52.5,-135 -75,-165 -67.5,37.5 -112.5,75 -112.5,75" /><path
         id="path116"
         style="fill:#9e9cbd;fill-opacity:1;fill-rule:nonzero;stroke:none"
         d="m 1395,789.73 c 0,0 165,-37.5 345,-7.5 15,-30 -67.5,-60 -172.5,-52.5 -142.5,7.5 -172.5,60 -172.5,60" /><path
         id="path118"
         style="fill:#9e9cbd;fill-opacity:1;fill-rule:nonzero;stroke:none"
         d="m 1507.5,722.23 c 0,0 30,-7.5 60,-7.5 30,-7.5 60,0 67.5,0 0,-30 -7.5,-75 -7.5,-120 7.5,-67.5 15,-127.5 15,-135 0,-15 -52.5,-30 -90,-7.5 -22.5,45 -30,240 -45,270" /><path
         id="path120"
         style="fill:#9e9cbd;fill-opacity:1;fill-rule:nonzero;stroke:none"
         d="m 1642.5,647.23 c 0,0 30,0 30,-30 -7.5,-30 -30,-90 0,-135 30,-45 105,-67.5 135,-75 0,-30 0,-60 0,-60 0,0 -135,45 -225,37.5 -37.5,0 -112.5,-7.5 -180,-30 -112.5,-22.5 -240,-67.5 -285,-82.5 75,60 82.5,82.5 82.5,82.5 0,0 277.5,30 322.5,127.5 15,-37.5 30,-67.5 90,-52.5 52.5,15 45,7.5 30,142.5 0,15 0,45 0,75" /><path
         id="path122"
         style="fill:#9e9cbd;fill-opacity:1;fill-rule:nonzero;stroke:none"
         d="m 1117.5,137.23 c 37.5,15 60,30 82.5,37.5 30,-15 37.5,-74.9995 -30,-119.9995 -67.5,-37.5 -135,-22.5 -52.5,82.4995" /><path
         id="path124"
         style="fill:#9e9cbd;fill-opacity:1;fill-rule:nonzero;stroke:none"
         d="m 2077.5,174.73 c 22.5,-7.5 75,-30 97.5,-30 22.5,-37.5 0,-119.9995 -82.5,-82.4995 -82.5,30 -37.5,104.9995 -15,112.4995" /><path
         id="path126"
         style="fill:#9e9cbd;fill-opacity:1;fill-rule:nonzero;stroke:none"
         d="m 975,152.23 c 0,0 60,45 105,82.5 172.5,60 330,135 502.5,142.5 112.5,0 225,-45 225,-45 0,0 7.5,-45 22.5,-52.5 -97.5,30 -225,45 -285,37.5 -22.5,0 -120,-22.5 -217.5,-67.5 -142.5,-67.5 -292.5,-135 -330,-120 -22.5,7.5 -22.5,22.5 -22.5,22.5" /><path
         id="path128"
         style="fill:#9e9cbd;fill-opacity:1;fill-rule:nonzero;stroke:none"
         d="m 2092.5,249.73 c 0,0 52.5,30 67.5,67.5 7.5,-22.5 22.5,-15 30,-7.5 82.5,-22.5 135,-67.5 142.5,-82.5 -7.5,-15 -60,-45 -240,22.5" /><path
         id="path130"
         style="fill:#9e9cbd;fill-opacity:1;fill-rule:nonzero;stroke:none"
         d="m 1927.5,249.73 c 0,0 37.5,15 52.5,30 22.5,-37.5 67.5,-52.5 97.5,-37.5 127.5,-45 225,-60 262.5,-30 22.5,-22.5 30,-75 7.5,-82.5 -22.5,-7.5 -127.5,7.5 -240,52.5 -112.5,45 -180,67.5 -180,67.5" /><path
         id="path132"
         style="fill:#ffffff;fill-opacity:1;fill-rule:nonzero;stroke:none"
         d="m 2115,122.23 c 15,-22.4995 7.5,-29.9995 -15,-15 -22.5,22.5 0,30 15,15" /><path
         id="path134"
         style="fill:#ffffff;fill-opacity:1;fill-rule:nonzero;stroke:none"
         d="m 1155,114.73 c -7.5,-14.9995 -7.5,-37.4995 15,-14.9995 22.5,22.4995 0,22.4995 -15,14.9995" /><path
         id="path136"
         style="fill:#ffffff;fill-opacity:1;fill-rule:nonzero;stroke:none"
         d="m 2115,1757.23 c -37.5,-30 45,-165 105,-127.5 52.5,45 -60,165 -105,127.5" /></g></g></svg>