<?xml version="1.0" encoding="UTF-8" standalone="no"?>
<svg
   xmlns:dc="http://purl.org/dc/elements/1.1/"
   xmlns:cc="http://creativecommons.org/ns#"
   xmlns:rdf="http://www.w3.org/1999/02/22-rdf-syntax-ns#"
   xmlns:svg="http://www.w3.org/2000/svg"
   xmlns="http://www.w3.org/2000/svg"
   viewBox="0 0 865.33331 760"
   height="760"
   width="865.33331"
   xml:space="preserve"
   id="svg2"
   version="1.1"><metadata
     id="metadata8"><rdf:RDF><cc:Work
         rdf:about=""><dc:format>image/svg+xml</dc:format><dc:type
           rdf:resource="http://purl.org/dc/dcmitype/StillImage" /></cc:Work></rdf:RDF></metadata><defs
     id="defs6" /><g
     transform="matrix(1.3333333,0,0,-1.3333333,0,760)"
     id="g10"><g
       transform="scale(0.1)"
       id="g12"><path
         id="path14"
         style="fill:#000000;fill-opacity:1;fill-rule:nonzero;stroke:none"
         d="m 4016.99,4200 c 0,0 82.5,97.5 157.5,210 60,97.5 112.5,210 150,210 157.5,547.5 390,660 390,660 l -7.5,-60 c 0,0 97.5,75 150,75 -7.5,-37.5 -7.5,-37.5 -7.5,-37.5 0,0 52.5,22.5 165,37.5 150,30 352.5,45 592.5,150 202.5,82.5 397.5,255 420,255 67.5,-7.5 22.5,-120 -37.5,-270 -67.5,-187.5 -315,-352.5 -315,-352.5 0,0 135,-15 -105,-127.5 -217.5,-90 -600,-135 -600,-135 0,0 165,-30 112.5,-52.5 -52.5,-22.5 -277.5,-15 -367.5,-52.5 30,-7.5 45,-22.5 45,-22.5 l -75,-45 45,-22.5 c 0,0 97.5,90 255,97.5 157.5,0 382.5,-127.5 727.5,-112.5 420,22.5 652.5,165 727.5,150 157.5,-15 -165,-225 -165,-225 0,0 45,-7.5 15,-37.5 -112.5,-90 -330,-180 -330,-180 0,0 30,-30 -90,-75 -105,-45 -292.5,-60 -292.5,-60 0,0 75,-37.5 30,-52.5 -15,0 -97.5,0 -195,30 -135,52.5 -322.5,142.5 -465,202.5 -112.5,45 -202.5,60 -202.5,60 l 75,-135 c 0,0 7.5,60 67.5,82.5 30,7.5 37.5,-30 37.5,-30 0,0 180,-30 127.5,-165 -15,7.5 -22.5,37.5 -22.5,37.5 0,0 22.5,-45 0,-97.5 -30,-75 -120,-165 -120,-165 l 45,-75 c 0,0 187.5,-75 367.5,-142.5 172.5,-67.5 330,-112.5 307.5,-225 -7.5,0 -37.5,7.5 -37.5,7.5 0,0 0,-172.5 -37.5,-202.5 -45,-37.5 -22.5,45 -22.5,45 l -37.5,-67.5 c 0,0 52.5,-82.5 75,-150 30,-90 30,-180 30,-180 0,0 150,-165 120,-240 -30,-75 -90,-150 -150,-135 -75,15 -127.5,247.5 -127.5,247.5 0,0 -180,-30 -307.5,67.5 -97.5,75 -165,270 -165,270 0,0 -142.5,-7.5 -240,67.5 -82.5,60 -112.5,180 -112.5,180 0,0 -120,15 -202.5,37.5 -150,-75 -255,-180 -255,-180 0,0 180,-52.5 187.5,-172.5 -37.5,-7.5 -67.5,7.5 -67.5,7.5 0,0 82.5,-180 7.5,-217.5 -22.5,-22.5 -30,52.5 -30,52.5 0,0 -187.5,-652.5 -67.5,-652.5 52.5,-7.5 195,67.5 337.5,165 202.5,135 397.5,292.5 465,292.5 45,0 240,-360 495,-555 240,-172.5 547.5,-150 555,-232.5 15,-142.5 -202.5,-150 -300,-135 -232.5,30 -300,307.5 -405,292.5 22.5,-67.5 0,-112.5 -67.5,-127.5 7.5,-67.5 -82.5,-82.5 -180,-52.5 -15,-60 -112.5,-240 -285,-225 -97.5,15 -37.5,120 15,225 37.5,75 45,150 45,150 0,0 -67.5,82.5 -7.5,240 -52.5,45 -60,75 -60,75 0,0 -397.5,-412.5 -570,-480 52.5,-22.5 37.5,-30 37.5,-30 0,0 15,-60 -232.5,-37.5 30,-60 22.5,-82.5 22.5,-82.5 0,0 -120,37.5 -142.5,157.5 -15,75 -7.5,225 -7.5,345 0,75 -7.5,150 -7.5,150 0,0 -75,-180 -157.5,-187.5 0,15 0,45 0,45 0,0 -90,-105 -202.5,-75 -157.5,-75 -232.5,-52.5 -232.5,-22.5 0,30 30,30 30,30 0,0 -420,97.5 -810,135 -277.5,30 -562.5,-7.5 -562.5,-7.5 0,0 -127.5,-225 -165,-510 -22.5,-195 30,-502.5 30,-502.5 l -52.5,15 c 0,0 22.5,-90 -37.5,-135 -22.5,22.5 -37.5,22.5 -37.5,22.5 l -15,-112.5 c 0,0 75,-487.5 120,-502.5 37.5,0 112.5,-15 195,0 270,52.5 570,172.5 742.5,67.5 -45,-15 -52.5,-15 -52.5,-15 0,0 150,-37.5 150,-97.5 217.5,-150 345,-457.5 127.5,-502.5 -37.5,-37.5 -112.5,-82.5 -262.5,-45 -180,45 -412.5,135 -585,210 -135,60 -255,105 -255,105 0,0 30,-75 -30,-97.5 -82.5,-30 -270,-7.5 -547.5,-67.5 -157.5,-37.5 -330.002,-90 -480.002,-120 -255,-45 -450,-30 -442.5,75 -180,-30 -292.4997,82.5 -269.9997,172.5 -82.5,120 -37.5,262.5 367.4997,502.5 -37.5,30 -37.5,37.5 67.5,37.5 150,-7.5 285,-97.5 465,-187.5 142.502,-67.5 330.002,-142.5 420.002,-135 52.5,247.5 75,502.5 75,502.5 l -45,135 c 0,0 -90,-112.5 -52.5,97.5 -52.5,-15 -60,-22.5 -60,-22.5 0,0 127.5,600 112.5,750 -22.5,270 -157.5,525 -172.5,712.5 0,67.5 112.5,150 112.5,150 0,0 -15,120 -165,127.5 -142.5,15 -232.502,-135 -292.502,-112.5 -82.5,30 97.502,157.5 97.502,157.5 0,0 -82.502,-37.5 -180.002,-112.5 -127.5,-97.5 -277.5,-240 -337.5,-232.5 -97.5,7.5 90,247.5 165,292.5 -90,82.5 -382.5,-360 -614.9997,-382.5 -112.5,-7.5 -52.50002,270 127.4997,480 187.5,217.5 435,322.5 510,367.5 -232.5,-45 -345,-60 -345,0 0,52.5 270,120 360,97.5 -210,67.5 -217.5,82.5 -202.5,135 15,45 300,112.5 652.502,-187.5 -142.5,187.5 -157.5,247.5 -127.5,270 22.5,15 277.5,-45 405,-420 0,127.5 7.5,157.5 30,150 60,-7.5 112.5,-225 105,-532.5 22.5,15 105,60 210,45 135,-30 322.5,-127.5 480,-150 187.5,-30 307.5,-15 307.5,-15 0,0 -150,165 -157.5,225 -30,-45 -97.5,-45 -82.5,120 -37.5,-45 -37.5,-30 -37.5,-30 0,0 -82.5,120 60,217.5 75,52.5 375,37.5 607.5,75 232.5,45 367.5,112.5 367.5,112.5 0,0 -120,45 -82.5,270 -60,-37.5 -67.5,-37.5 -67.5,-37.5 0,0 -60,90 120,292.5 -37.5,-37.5 -157.5,-22.5 15,90 67.5,45 217.5,30 352.5,30 187.5,0 352.5,15 352.5,15" /><path
         id="path16"
         style="fill:#ffffff;fill-opacity:1;fill-rule:nonzero;stroke:none"
         d="m 2734.49,3112.5 c 0,0 82.5,-195 120,-195 112.5,97.5 187.5,180 187.5,217.5 -165,15 -307.5,-22.5 -307.5,-22.5" /><path
         id="path18"
         style="fill:#ffffff;fill-opacity:1;fill-rule:nonzero;stroke:none"
         d="m 3784.49,3555 h 97.5 c 0,0 -7.5,-45 -15,-75 -15,-30 -22.5,-75 -22.5,-75 0,0 -45,127.5 -60,150" /><path
         id="path20"
         style="fill:#e3d4ae;fill-opacity:1;fill-rule:nonzero;stroke:none"
         d="m 4489.49,4305 -67.5,-112.5 c 0,0 -82.5,127.5 -60,180 -15,-97.5 -22.5,-90 -22.5,-90 0,0 -52.5,105 75,225 -52.5,-7.5 -75,-22.5 -75,-22.5 0,0 60,90 210,75 0,15 0,30 0,30 0,0 60,-15 75,-60 15,-45 22.5,-502.5 105,-577.5 52.5,30 82.5,352.5 172.5,405 -7.5,-22.5 -15,-37.5 -15,-37.5 0,0 150,-30 142.5,-105 -15,22.5 -30,22.5 -30,22.5 0,0 30,-45 -7.5,-127.5 -30,-82.5 -112.5,-165 -112.5,-165 l -15,105 45,105 c 0,0 -22.5,-37.5 -60,-97.5 -52.5,-90 -120,-247.5 -142.5,-240 -37.5,15 -75,442.5 -255,555 22.5,-52.5 37.5,-67.5 37.5,-67.5" /><path
         id="path22"
         style="fill:#e3d4ae;fill-opacity:1;fill-rule:nonzero;stroke:none"
         d="m 4676.99,4470 c 0,0 127.5,52.5 322.5,67.5 255,22.5 622.5,0 772.5,-7.5 277.5,-7.5 577.5,210 667.5,210 52.5,-15 -210,-210 -247.5,-232.5 45,22.5 60,0 60,0 0,0 -67.5,-67.5 -180,-120 -90,-37.5 -225,-67.5 -247.5,-90 52.5,7.5 97.5,0 97.5,0 0,0 -75,-67.5 -195,-90 -127.5,-15 -307.5,15 -307.5,15 l 127.5,-52.5 c 0,0 -52.5,-22.5 -172.5,22.5 -120,45 -292.5,135 -420,187.5 -142.5,60 -247.5,82.5 -277.5,90" /><path
         id="path24"
         style="fill:#e3d4ae;fill-opacity:1;fill-rule:nonzero;stroke:none"
         d="m 4429.49,4582.5 c 0,0 45,210 240,375 172.5,157.5 562.5,225 907.5,405 240,135 412.5,315 442.5,315 45,0 -30,-225 -157.5,-390 -142.5,-172.5 -345,-277.5 -345,-277.5 l 150,37.5 c 0,0 -75,-67.5 -225,-112.5 -150,-45 -367.5,-60 -465,-90 -45,-15 -97.5,-45 -97.5,-45 l 150,-15 c 0,0 -180,-7.5 -345,-67.5 -97.5,-30 -172.5,-75 -255,-135" /><path
         id="path26"
         style="fill:#e3d4ae;fill-opacity:1;fill-rule:nonzero;stroke:none"
         d="m 4016.99,3532.5 c 0,0 -15,-75 -75,-180 -127.5,-240 -435,-667.5 -607.5,-742.5 -157.5,-67.5 -615,-30 -990,-22.5 -255,7.5 -487.5,-22.5 -547.5,-45 -37.5,-105 -45,-217.5 -45,-217.5 0,0 345,82.5 712.5,52.5 450,-30 922.5,-202.5 1020,-112.5 -22.5,-45 -142.5,-67.5 -142.5,-67.5 0,0 90,-60 300,112.5 -15,-37.5 -45,-82.5 -45,-82.5 0,0 150,30 210,195 -37.5,-97.5 -37.5,-150 -37.5,-150 0,0 285,442.5 285,907.5 -37.5,-30 -45,-22.5 -45,-22.5 0,0 90,165 367.5,315 -90,30 -97.5,45 -97.5,45 0,0 232.5,-75 307.5,-67.5 -52.5,67.5 -37.5,90 -67.5,97.5 -37.5,7.5 -75,0 -135,45 -45,45 -60,120 -97.5,255 -322.5,-22.5 -615,-105 -652.5,-15 52.5,-60 630,52.5 682.5,37.5 45,-7.5 82.5,-97.5 82.5,-97.5 l -75,52.5 c 0,0 15,-135 90,-210 30,-37.5 75,-30 127.5,-45 52.5,-37.5 142.5,-270 210,-322.5 37.5,-30 225,-67.5 225,-67.5 v 45 c 0,0 120,-465 465,-360 -60,157.5 -30,217.5 0,225 22.5,7.5 135,-112.5 135,-112.5 0,0 -15,232.5 -150,315 -127.5,82.5 -367.5,22.5 -367.5,22.5 l 45,37.5 c 0,0 -37.5,52.5 -262.5,45 97.5,30 217.5,7.5 217.5,7.5 0,0 -52.5,97.5 -217.5,135 52.5,0 90,0 90,0 0,0 15,45 -210,75 97.5,7.5 142.5,0 142.5,0 0,0 -37.5,22.5 -22.5,52.5 22.5,-22.5 45,-45 45,-45 0,0 37.5,22.5 30,52.5 -37.5,15 -45,22.5 -45,22.5 0,0 30,30 67.5,0 52.5,-37.5 112.5,-105 180,-157.5 52.5,-52.5 112.5,-82.5 112.5,-82.5 0,0 -52.5,15 -127.5,67.5 -67.5,45 -157.5,135 -157.5,135 l -30,-60 c 0,0 37.5,-15 60,-75 75,-37.5 112.5,-105 120,-127.5 30,-22.5 45,-37.5 45,-37.5 0,0 285,15 337.5,-67.5 45,90 45,142.5 45,142.5 l 30,-82.5 c 0,0 52.5,82.5 -22.5,232.5 37.5,-37.5 67.5,-45 67.5,-45 0,0 0,37.5 -67.5,67.5 -165,90 -495,195 -577.5,232.5 -15,7.5 -120,-67.5 -120,-67.5 l 30,-37.5 c 0,0 -150,67.5 -300,30 -7.5,22.5 -7.5,22.5 -7.5,22.5 0,0 -60,7.5 -142.5,82.5 -90,90 -202.5,240 -285,277.5 -45,22.5 -210,15 -330,15 -255,0 -495,7.5 -540,-82.5 -7.5,-15 135,37.5 135,37.5 0,0 -240,-172.5 -195,-300 67.5,112.5 82.5,142.5 82.5,142.5 0,0 -82.5,-352.5 45,-367.5 -30,82.5 -30,127.5 -30,127.5 0,0 120,-232.5 180,-195 -52.5,60 -52.5,75 -52.5,75 0,0 52.5,-45 135,-45 105,-7.5 255,22.5 367.5,15 135,-15 202.5,-45 202.5,-45 l -112.5,7.5" /><path
         id="path28"
         style="fill:#000000;fill-opacity:1;fill-rule:nonzero;stroke:none"
         d="m 2704.49,2512.5 c 0,0 172.5,15 510,-157.5 -277.5,225 -510,157.5 -510,157.5" /><path
         id="path30"
         style="fill:#000000;fill-opacity:1;fill-rule:nonzero;stroke:none"
         d="m 3124.49,2452.5 c 0,0 75,0 135,-45 67.5,-37.5 97.5,-82.5 97.5,-82.5 0,0 -195,112.5 -232.5,127.5" /><path
         id="path32"
         style="fill:#000000;fill-opacity:1;fill-rule:nonzero;stroke:none"
         d="m 3506.99,2407.5 c 0,0 135,60 142.5,120 0,-30 0,-75 0,-75 0,0 127.5,157.5 202.5,405 -90,-360 -165,-442.5 -225,-450 -22.5,-7.5 -15,37.5 -15,37.5 l -105,-37.5" /><path
         id="path34"
         style="fill:#7d6300;fill-opacity:1;fill-rule:nonzero;stroke:none"
         d="m 4054.49,4207.5 c 0,0 45,30 105,120 60,105 150,255 180,255 52.5,120 217.5,577.5 337.5,637.5 -7.5,-52.5 15,-52.5 15,-52.5 0,0 52.5,75 90,90 -15,-37.5 -7.5,-45 -7.5,-45 0,0 547.5,105 735,172.5 -285,-187.5 -682.5,-240 -877.5,-412.5 -195,-165 -240,-397.5 -240,-397.5 0,0 -82.5,-67.5 -82.5,-105 15,-22.5 30,-7.5 30,-7.5 0,0 -82.5,-157.5 0,-202.5 7.5,0 15,0 15,0 0,0 15,-75 52.5,-75 -52.5,-52.5 -105,-135 -105,-135 0,0 -75,127.5 -247.5,157.5" /><path
         id="path36"
         style="fill:#7d6300;fill-opacity:1;fill-rule:nonzero;stroke:none"
         d="m 4489.49,4582.5 c 0,0 142.5,97.5 187.5,97.5 -30,-37.5 -60,-60 -60,-60 0,0 90,0 127.5,-15 -60,-15 -105,-22.5 -105,-22.5 0,0 45,-37.5 67.5,-67.5 -37.5,-30 -60,-22.5 -60,-22.5 0,0 0,112.5 -105,112.5 -30,-37.5 -7.5,-22.5 -7.5,-22.5 h -45" /><path
         id="path38"
         style="fill:#7d6300;fill-opacity:1;fill-rule:nonzero;stroke:none"
         d="m 4721.99,4567.5 22.5,-37.5 c 0,0 180,37.5 352.5,37.5 225,0 480,-30 690,-7.5 150,15 247.5,52.5 247.5,52.5 0,0 -285,-37.5 -517.5,-15 -292.5,22.5 -457.5,105 -547.5,105 -90,-7.5 -195,-82.5 -195,-82.5 l 90,-60 c 0,0 -97.5,30 -142.5,7.5" /><path
         id="path40"
         style="fill:#7d6300;fill-opacity:1;fill-rule:nonzero;stroke:none"
         d="m 4376.99,3990 105,112.5 h -7.5 c 0,0 22.5,112.5 52.5,135 75,-112.5 120,-352.5 120,-352.5 0,0 -210,105 -270,105" /><path
         id="path42"
         style="fill:#7d6300;fill-opacity:1;fill-rule:nonzero;stroke:none"
         d="m 4766.99,3855 75,150 c 0,0 15,-60 0,-82.5 0,-52.5 -30,-30 -30,-30 0,0 37.5,0 37.5,-52.5 -52.5,15 -82.5,15 -82.5,15" /><path
         id="path44"
         style="fill:#d10002;fill-opacity:1;fill-rule:nonzero;stroke:none"
         d="m 4894.49,3930 22.5,-60 -37.5,-30 -15,37.5 c 0,0 0,37.5 30,52.5" /><path
         id="path46"
         style="fill:#7d6300;fill-opacity:1;fill-rule:nonzero;stroke:none"
         d="m 4654.49,4425 c 0,0 15,-105 22.5,-202.5 15,-112.5 37.5,-225 52.5,-232.5 37.5,90 45,270 75,285 -90,97.5 -97.5,150 -150,150" /><path
         id="path48"
         style="fill:#7d6300;fill-opacity:1;fill-rule:nonzero;stroke:none"
         d="m 3919.49,3540 h 75 c 0,0 -67.5,-150 -180,-330 -150,-232.5 -367.5,-540 -480,-562.5 -345,-75 -1425,15 -1537.5,-82.5 0,52.5 -22.5,52.5 -22.5,52.5 0,0 -172.5,-435 -150,-1237.5 7.5,-480 240,-1057.5 217.5,-1087.5 -22.5,-30 -270,-30 -570,-97.5 -397.502,-82.5 -870.002,-210 -862.502,-52.5 7.5,270 285,337.5 367.5,360 -37.5,15 -60,15 -60,15 0,0 60,30 75,45 -120,-15 -127.5,-52.5 -127.5,-52.5 0,0 -285,-97.5 -300,-345 -172.5,7.5 -397.4997,75 -97.5,367.5 45,45 112.5,82.5 180,120 -165,-37.5 -255,-82.5 -367.4997,-300 0,75 209.9997,450 539.9997,412.5 -97.5,22.5 -120,45 -120,45 0,0 52.5,15 135,-15 135,-60 337.5,-157.5 525.002,-232.5 202.5,-75 375,-127.5 427.5,-105 135,45 -75,577.5 -135,735 -22.5,-15 -22.5,-15 -22.5,-15 0,0 -15,90 7.5,165 -37.5,-45 -67.5,-67.5 -67.5,-67.5 0,0 120,337.5 120,637.5 -7.5,300 -180,667.5 -172.5,780 7.5,120 300,255 420,270 90,15 360,-255 982.5,-157.5 165,22.5 360,315 360,315 0,0 262.5,30 315,15 -307.5,52.5 -570,22.5 -802.5,-15 30,-22.5 52.5,-22.5 52.5,-22.5 l -82.5,-45 c 0,0 112.5,45 142.5,45 37.5,-82.5 127.5,-187.5 127.5,-187.5 0,0 -105,-97.5 -210,-82.5 -165,195 -210,255 -210,307.5 -22.5,-67.5 -15,-75 -15,-75 0,0 -90,-30 -15,217.5 -45,-45 -82.5,-82.5 -82.5,-82.5 0,0 0,90 90,135 82.5,52.5 600,-15 990,210 97.5,-75 127.5,-75 157.5,-52.5 30,22.5 -22.5,52.5 -22.5,52.5 0,0 225,-30 247.5,7.5 37.5,-82.5 67.5,-127.5 75,-217.5 52.5,97.5 82.5,210 82.5,210" /><path
         id="path50"
         style="fill:#7d6300;fill-opacity:1;fill-rule:nonzero;stroke:none"
         d="m 1759.49,2295 150,30 c 0,0 -210,-420 -127.5,-922.5 -45,60 -60,75 -60,75 0,0 45,-172.5 15,-210 -22.5,60 -22.5,75 -22.5,75 l -45,-112.5 c 0,0 -52.5,705 90,1065" /><path
         id="path52"
         style="fill:#7d6300;fill-opacity:1;fill-rule:nonzero;stroke:none"
         d="m 4076.99,3202.5 52.5,45 c 0,0 127.5,0 172.5,-120 -52.5,7.5 -75,52.5 -75,52.5 0,0 90,-172.5 52.5,-232.5 -45,75 -52.5,112.5 -52.5,112.5 v -97.5 c 0,0 -142.5,-480 -105,-652.5 -45,-15 -52.5,-22.5 -52.5,-22.5 0,0 60,-15 82.5,-15 -52.5,-45 -52.5,-67.5 -52.5,-67.5 0,0 217.5,75 435,202.5 202.5,127.5 375,315 442.5,315 75,0 187.5,-315 427.5,-495 247.5,-187.5 607.5,-247.5 607.5,-285 0,-82.5 -150,-82.5 -255,-75 -195,0 -225,165 -367.5,277.5 -75,52.5 -225,105 -345,105 -7.5,30 -7.5,22.5 -7.5,22.5 0,0 -30,-15 -22.5,-75 7.5,-67.5 52.5,-135 37.5,-232.5 -7.5,-90 -135,-232.5 -232.5,-217.5 -90,22.5 97.5,195 112.5,427.5 7.5,225 -150,172.5 -75,382.5 -75,-97.5 -67.5,-97.5 -67.5,-97.5 0,0 -510,-577.5 -697.5,-540 90,-30 97.5,-30 97.5,-30 0,0 -120,-30 -157.5,30 -37.5,-30 -37.5,-82.5 -37.5,-82.5 0,0 -37.5,22.5 -52.5,120 -22.5,150 30,412.5 -15,502.5 135,322.5 165,652.5 150,742.5" /><path
         id="path54"
         style="fill:#7d6300;fill-opacity:1;fill-rule:nonzero;stroke:none"
         d="m 4886.99,2250 c 0,0 -30,-22.5 -37.5,-60 0,-22.5 30,-52.5 30,-52.5 l 7.5,112.5" /><path
         id="path56"
         style="fill:#7d6300;fill-opacity:1;fill-rule:nonzero;stroke:none"
         d="m 5066.99,2197.5 c 0,0 -15,-82.5 30,-142.5 90,-30 225,-37.5 217.5,15 -15,90 -112.5,127.5 -112.5,127.5 l 7.5,-37.5 c 0,0 -75,45 -142.5,37.5" /><path
         id="path58"
         style="fill:#7d6300;fill-opacity:1;fill-rule:nonzero;stroke:none"
         d="m 5096.99,2010 135,-22.5 c 0,0 7.5,-67.5 -127.5,-15 -7.5,7.5 -7.5,37.5 -7.5,37.5" /><path
         id="path60"
         style="fill:#7d6300;fill-opacity:1;fill-rule:nonzero;stroke:none"
         d="m 1519.49,885 -75,-390 c 0,0 120,-45 135,15 22.5,60 -60,375 -60,375" /><path
         id="path62"
         style="fill:#7d6300;fill-opacity:1;fill-rule:nonzero;stroke:none"
         d="m 2449.49,705 c 135,15 240,-15 240,-15 0,0 -15,-7.5 -67.5,-7.5 120,-30 135,-90 135,-90 0,0 -97.5,37.5 -172.5,22.5 60,-7.5 172.5,-30 262.5,-82.5 67.5,-45 112.5,-105 135,-157.5 75,-120 90,-225 -7.5,-270 -90,360 -337.5,390 -337.5,390 0,0 97.5,-45 165,-120 90,-97.5 157.5,-232.5 112.5,-300 -90,-127.5 -510,75 -787.5,202.5 -127.5,52.5 -255,90 -255,90 l -52.5,225 c 0,0 97.5,-15 225,7.5 187.5,37.5 337.5,97.5 405,105" /><path
         id="path64"
         style="fill:#7d6300;fill-opacity:1;fill-rule:nonzero;stroke:none"
         d="m 1549.49,2947.5 c 0,0 -7.5,405 -82.5,480 22.5,-112.5 -15,-210 -15,-210 0,0 -52.5,90 -90,180 -60,142.5 -120,307.5 -322.5,322.5 -37.5,-15 180,-202.5 180,-300 -127.5,75 -270.002,172.5 -390.002,217.5 -150,60 -262.5,45 -285,7.5 -15,-30 82.5,-67.5 202.5,-127.5 75,0 187.5,-15 202.5,-90 -82.5,75 -547.5,75 -540,7.5 7.5,-30 352.5,52.5 360,-22.5 0,-30 -217.5,-52.5 -412.5,-225 -225,-195 -412.4997,-540 -269.9997,-570 104.9997,-22.5 404.9997,382.5 592.4997,375 97.5,0 -232.5,-285 -157.5,-292.5 82.5,-7.5 157.5,240 600.002,382.5 -30,-67.5 -180.002,-165 -165.002,-172.5 37.5,-22.5 105.002,90 270.002,82.5 165,-7.5 195,-120 195,-120 l 127.5,75" /><path
         id="path66"
         style="fill:#d10002;fill-opacity:1;fill-rule:nonzero;stroke:none"
         d="m 4324.49,4027.5 22.5,-22.5 90,97.5 52.5,135 c 0,0 -52.5,-67.5 -90,-127.5 -45,-52.5 -75,-82.5 -75,-82.5" /><path
         id="path68"
         style="fill:#ffffa8;fill-opacity:1;fill-rule:nonzero;stroke:none"
         d="m 4399.49,3952.5 c 0,0 22.5,-97.5 112.5,-127.5 82.5,-30 150,-37.5 150,7.5 -75,45 -120,60 -120,60 0,0 -30,-22.5 -75,0 -45,22.5 -67.5,60 -67.5,60" /><path
         id="path70"
         style="fill:#ffffa8;fill-opacity:1;fill-rule:nonzero;stroke:none"
         d="m 4804.49,3817.5 -15,-45 52.5,30 -37.5,15" /><path
         id="path72"
         style="fill:#ffffff;fill-opacity:1;fill-rule:nonzero;stroke:none"
         d="m 5629.49,2775 c -22.5,-30 -45,15 -67.5,60 -22.5,37.5 -45,75 -37.5,105 7.5,30 150,-120 105,-165" /></g></g></svg>