<?xml version="1.0" encoding="UTF-8" standalone="no"?>
<svg
   xmlns:dc="http://purl.org/dc/elements/1.1/"
   xmlns:cc="http://creativecommons.org/ns#"
   xmlns:rdf="http://www.w3.org/1999/02/22-rdf-syntax-ns#"
   xmlns:svg="http://www.w3.org/2000/svg"
   xmlns="http://www.w3.org/2000/svg"
   xmlns:sodipodi="http://sodipodi.sourceforge.net/DTD/sodipodi-0.dtd"
   xmlns:inkscape="http://www.inkscape.org/namespaces/inkscape"
   viewBox="0 0 360.97219 809.12085"
   height="809.12085"
   width="360.9722"
   xml:space="preserve"
   id="svg2"
   version="1.1"
   sodipodi:docname="will2.svg"
   inkscape:version="0.92.4 (5da689c313, 2019-01-14)"><sodipodi:namedview
     pagecolor="#ffffff"
     bordercolor="#666666"
     borderopacity="1"
     objecttolerance="10"
     gridtolerance="10"
     guidetolerance="10"
     inkscape:pageopacity="0"
     inkscape:pageshadow="2"
     inkscape:window-width="1366"
     inkscape:window-height="715"
     id="namedview29"
     showgrid="false"
     fit-margin-top="0"
     fit-margin-left="0"
     fit-margin-right="0"
     fit-margin-bottom="0"
     inkscape:zoom="0.29159803"
     inkscape:cx="180.66667"
     inkscape:cy="404.33334"
     inkscape:window-x="-8"
     inkscape:window-y="22"
     inkscape:window-maximized="1"
     inkscape:current-layer="svg2" /><metadata
     id="metadata8"><rdf:RDF><cc:Work
         rdf:about=""><dc:format>image/svg+xml</dc:format><dc:type
           rdf:resource="http://purl.org/dc/dcmitype/StillImage" /><dc:title></dc:title></cc:Work></rdf:RDF></metadata><defs
     id="defs6" /><g
     transform="matrix(-1.3333333,0,0,-1.3333333,360.97221,809.45416)"
     id="g10"><g
       transform="scale(0.1)"
       id="g12"><path
         id="path14"
         style="fill:#000000;fill-opacity:1;fill-rule:nonzero;stroke:none"
         d="m 1477.5,5650 c 0,0 -60,397.5 45,420 82.5,15 60,-157.5 225,-420 112.5,-180 262.5,-375 322.5,-495 22.5,-60 30,-105 30,-105 l 22.5,52.5 c 0,0 30,-37.5 7.5,-112.5 37.5,0 52.5,0 52.5,0 0,0 -105,-165 -150,-277.5 -15,-37.5 -7.5,-105 -7.5,-105 0,0 30,0 52.5,-112.5 150,-30 292.5,-97.5 292.5,-157.5 0,-7.5 -22.5,-15 -22.5,-15 0,0 112.5,-142.5 30,-210 0,-15 -30,30 -30,30 0,0 -90,-180 -172.5,-120 -15,7.5 7.5,22.5 7.5,22.5 0,0 -90,-37.5 -187.5,-60 -112.5,-15 -217.5,-7.5 -247.5,-7.5 -30,-7.5 -90,-52.5 -150,-105 -52.5,-45 -105,-105 -105,-105 0,0 30,15 67.5,-7.5 -30,-15 -37.5,-37.5 -37.5,-37.5 0,0 45,-7.5 67.5,-45 22.5,-37.5 22.5,-82.5 37.5,-127.5 15,-45 45,-82.5 37.5,-97.5 -7.5,-7.5 -45,0 -45,0 0,0 52.5,-60 45,-90 -15,-30 -52.5,7.5 -52.5,7.5 0,0 37.5,-127.5 112.5,-217.5 82.5,-97.5 217.5,-165 217.5,-165 L 1890,2950 c 0,0 67.5,-112.5 15,-180 -15,-15 -37.5,37.5 -37.5,37.5 0,0 -22.5,-30 -60,-82.5 -52.5,-67.5 -120,-157.5 -120,-157.5 0,0 67.5,-45 127.5,-105 60,-60 105,-135 105,-135 0,0 7.5,30 15,67.5 15,60 37.5,150 60,187.5 22.5,37.5 142.5,120 240,105 67.5,-15 15,-97.5 15,-97.5 0,0 97.5,0 82.5,-82.5 60,-7.5 157.5,-22.5 157.5,-97.5 0,-52.5 -105,-75 -202.5,-97.5 -82.5,-30 -157.5,-45 -112.5,-37.5 -60,-7.5 -105,-15 -105,-15 h 112.5 c 0,0 112.5,37.5 195,37.5 82.5,0 180,-22.5 165,-75 -7.5,-30 -120,-22.5 -120,-22.5 0,0 90,-22.5 165,-75 75,-52.5 142.5,-127.5 112.5,-195 -7.5,-22.5 -112.5,75 -112.5,75 0,0 37.5,-67.5 60,-150 30,-90 37.5,-202.5 0,-202.5 -22.5,0 -22.5,67.5 -52.5,127.5 -22.5,52.5 -52.5,75 -52.5,75 0,0 67.5,-195 -45,-412.5 -112.5,-202.5 -232.5,-270 -300,-262.5 -90,15 22.5,360 45,577.5 7.5,90 -22.5,172.5 -22.5,172.5 0,0 -15,-165 -82.5,-172.5 -52.5,0 15,150 -30,262.5 -30,67.5 -127.5,90 -127.5,90 0,0 7.5,-67.5 -15,-165 -30,-135 -90,-300 -97.5,-480 -7.5,-112.5 22.5,-225 22.5,-225 0,0 -22.5,0 -45,0 0,-90 7.5,-142.5 -52.5,-120 -7.5,-67.5 -7.5,-600 -7.5,-600 0,0 60,-7.5 142.5,7.5 82.5,7.5 187.5,37.5 262.5,45 67.5,7.5 105,0 105,0 l -30,-30 c 0,0 300,-37.5 300,-270 0,-45 -37.5,-82.5 -37.5,-82.5 0,0 0,-127.5 -60,-142.5 -52.5,-22.5 -202.5,15 -202.5,15 0,0 -15,-60 -90,-60 -37.5,0 -195,30 -337.5,112.5 C 1680,205 1530,355 1530,355 v 22.5 c 0,0 -52.5,-15 -135,-22.5 -112.5,-7.5 -262.5,-7.5 -367.5,0 -67.5,7.5 -120,67.5 -120,67.5 0,0 -135,-37.5 -187.5,97.5 -15,37.5 75,112.5 75,112.5 0,0 -15,105 210,157.5 127.5,37.5 255,-15 255,-15 0,0 -22.5,30 0,52.5 15,15 142.5,-105 225,-172.5 37.5,-22.5 67.5,-30 67.5,-30 0,0 30,187.5 52.5,382.5 30,210 45,427.5 45,427.5 0,0 -52.5,157.5 -90,307.5 -37.5,150 -60,285 -60,285 0,0 -15,37.5 -22.5,90 -15,60 -30,127.5 -60,202.5 -30,67.5 -67.5,135 -120,202.5 C 1200,2665 1095,2785 1005,2875 c -45,45 -90,67.5 -120,97.5 -52.5,52.5 -52.5,97.5 -52.5,97.5 L 720,3062.5 c 0,0 -75,-15 -157.5,-30 C 480,3010 390,2980 300,2965 c -82.5,-7.5 -172.5,7.5 -172.5,7.5 0,0 -7.5,-37.5 -30,-45 -22.5,-7.5 -90,60 -52.5,165 -30,7.5 -45,7.5 -45,7.5 0,0 52.5,105 247.5,105 120,0 217.5,-22.5 217.5,-22.5 0,0 165,97.5 277.5,210 -60,202.5 -75,270 -67.5,330 15,67.5 300,157.5 405,105 37.5,-22.5 60,-97.5 60,-97.5 0,0 270,120 195,247.5 -127.5,30 -307.5,7.5 -307.5,7.5 0,0 -157.5,-75 -225,-75 -52.5,0 -127.5,30 -217.5,90 -97.5,60 -195,157.5 -195,157.5 0,0 -67.5,-15 -142.5,-22.5 -97.5,-15 -210,-22.5 -225,37.5 -30,105 22.5,195 165,210 135,15 187.5,0 187.5,0 0,0 60,60 142.5,60 75,-7.5 150,-60 262.5,-187.5 15,15 7.5,30 22.5,37.5 45,7.5 75,-52.5 75,-52.5 0,0 0,45 37.5,45 52.5,7.5 105,-67.5 105,-67.5 0,0 45,15 82.5,-7.5 52.5,45 67.5,45 135,15 0,60 30,157.5 82.5,217.5 60,67.5 135,105 135,105 0,0 45,202.5 255,172.5 -15,37.5 -52.5,90 -97.5,120 -60,45 -142.5,52.5 -135,97.5 15,52.5 112.5,-7.5 112.5,-7.5 0,0 -15,60 -60,105 -67.5,67.5 -172.5,142.5 -172.5,202.5 0,30 67.5,0 67.5,0 0,0 -82.5,105 -150,300 -37.5,112.5 -90,360 -15,382.5 67.5,15 90,-112.5 127.5,-172.5 45,-60 90,-97.5 90,-97.5"
         inkscape:connector-curvature="0" /><path
         id="path16"
         style="fill:#ffffff;fill-opacity:1;fill-rule:nonzero;stroke:none"
         d="m 1477.5,3055 c 0,0 7.5,-142.5 37.5,-240 30,-90 82.5,-135 82.5,-135 0,0 60,135 52.5,217.5 0,37.5 -172.5,157.5 -172.5,157.5"
         inkscape:connector-curvature="0" /><path
         id="path18"
         style="fill:#7d6300;fill-opacity:1;fill-rule:nonzero;stroke:none"
         d="m 742.5,3355 c 0,0 -67.5,-60 -120,-97.5 -60,-45 -105,-75 -105,-75 0,0 202.5,0 255,60 0,67.5 -30,112.5 -30,112.5"
         inkscape:connector-curvature="0" /><path
         id="path20"
         style="fill:#7d6300;fill-opacity:1;fill-rule:nonzero;stroke:none"
         d="m 45,3130 c 0,0 97.5,52.5 180,52.5 45,7.5 195,-30 337.5,-22.5 112.5,0 217.5,45 217.5,45 v -37.5 c 0,0 45,30 22.5,105 C 780,3347.5 675,3670 705,3730 c 37.5,60 247.5,90 322.5,90 75,7.5 127.5,-210 105,-247.5 -30,-37.5 -82.5,-22.5 -82.5,-22.5 0,0 -82.5,112.5 -180,150 112.5,-112.5 187.5,-195 180,-255 -150,75 -180,75 -180,75 0,0 255,-105 255,-202.5 0,-67.5 -172.5,-135 -172.5,-135 0,0 -7.5,22.5 22.5,75 -7.5,-7.5 -30,-7.5 -30,-7.5 l 15,75 c 0,0 -22.5,-7.5 -30,-45 -7.5,-15 -15,-97.5 -7.5,-150 0,-60 -262.5,-30 -262.5,-30 l 7.5,-15 c 0,0 -270,-82.5 -435,-105 -60,0 -150,45 -150,45 0,0 15,-52.5 7.5,-60 -15,0 -67.5,90 22.5,165 -30,0 -67.5,0 -67.5,0"
         inkscape:connector-curvature="0" /><path
         id="path22"
         style="fill:#7d6300;fill-opacity:1;fill-rule:nonzero;stroke:none"
         d="m 1680,3962.5 c 0,0 -112.5,-15 -142.5,-37.5 -30,-15 -360,-375 -352.5,-660 7.5,-150 112.5,-315 202.5,-457.5 C 1470,2680 1545,2575 1545,2575 l 37.5,75 c 0,0 -150,172.5 -127.5,427.5 -97.5,90 -120,202.5 -120,202.5 0,0 67.5,-105 142.5,-187.5 90,-90 195,-157.5 202.5,-187.5 7.5,-22.5 -22.5,-142.5 -67.5,-255 -45,-120 -105,-240 -105,-270 7.5,-22.5 67.5,-60 127.5,-112.5 97.5,-75 217.5,-165 232.5,-165 7.5,0 75,90 165,157.5 135,112.5 300,225 270,277.5 -15,37.5 -120,45 -187.5,-22.5 -52.5,-45 -82.5,-127.5 -120,-187.5 -30,-60 -67.5,-90 -67.5,-90 v -30 c 0,0 -52.5,22.5 -97.5,67.5 -45,45 -90,112.5 -135,150 -30,22.5 -52.5,22.5 -52.5,22.5 l -30,-37.5 c 0,0 -15,52.5 22.5,120 45,82.5 142.5,187.5 195,262.5 37.5,52.5 37.5,97.5 37.5,97.5 0,0 15,-82.5 30,-75 15,0 -15,135 -97.5,202.5 67.5,-30 90,-30 90,-30 0,0 -150,75 -247.5,240 -60,105 -75,210 -75,210 L 1635,3385 c 0,0 -90,135 -75,165 45,-52.5 60,-60 60,-60 0,0 0,30 -30,90 -22.5,37.5 -22.5,97.5 -45,105 -37.5,22.5 -105,15 -105,15 l 52.5,45 c 0,0 -30,0 -60,-37.5 -45,-52.5 -97.5,-142.5 -97.5,-142.5 0,0 37.5,105 135,217.5 75,90 210,180 210,180"
         inkscape:connector-curvature="0" /><path
         id="path24"
         style="fill:#7d6300;fill-opacity:1;fill-rule:nonzero;stroke:none"
         d="m 1935,2305 c 0,0 22.5,37.5 37.5,97.5 15,52.5 22.5,120 52.5,165 52.5,75 165,97.5 210,97.5 22.5,-7.5 15,-15 -7.5,-67.5 -52.5,-15 -127.5,-45 -165,-97.5 C 1995,2417.5 1935,2305 1935,2305"
         inkscape:connector-curvature="0" /><path
         id="path26"
         style="fill:#7d6300;fill-opacity:1;fill-rule:nonzero;stroke:none"
         d="m 1650,2477.5 37.5,60 c 0,0 75,-60 135,-112.5 52.5,-60 82.5,-120 82.5,-120 0,0 -7.5,-22.5 -22.5,-30 -45,30 -97.5,120 -150,165 -45,37.5 -82.5,37.5 -82.5,37.5"
         inkscape:connector-curvature="0" /><path
         id="path28"
         style="fill:#7d6300;fill-opacity:1;fill-rule:nonzero;stroke:none"
         d="m 2130,2297.5 c 0,0 202.5,135 202.5,187.5 90,-15 142.5,-30 135,-75 0,-30 -82.5,-45 -165,-60 -45,-15 -75,-30 -112.5,-45 -30,-7.5 -60,-7.5 -60,-7.5"
         inkscape:connector-curvature="0" /><path
         id="path30"
         style="fill:#7d6300;fill-opacity:1;fill-rule:nonzero;stroke:none"
         d="m 1545,1990 c 0,0 22.5,-15 52.5,-22.5 45,-7.5 97.5,-15 97.5,-15 0,0 0,-60 0,-150 -7.5,-127.5 -30,-307.5 -30,-307.5 0,0 -52.5,127.5 -82.5,247.5 -30,120 -37.5,247.5 -37.5,247.5"
         inkscape:connector-curvature="0" /><path
         id="path32"
         style="fill:#7d6300;fill-opacity:1;fill-rule:nonzero;stroke:none"
         d="m 1710,2170 c 0,0 105,-90 157.5,-90 37.5,-7.5 75,60 75,60 0,0 7.5,-67.5 -7.5,-165 -22.5,-135 -75,-315 -90,-465 -15,-120 7.5,-225 7.5,-225 l -37.5,45 c 0,0 30,-157.5 0,-172.5 -22.5,52.5 -7.5,67.5 -7.5,67.5 0,0 -75,-82.5 -90,-217.5 C 1680,775 1680,430 1680,430 c 0,0 30,7.5 30,52.5 45,0 105,-7.5 195,7.5 135,30 307.5,75 337.5,67.5 -60,-37.5 -105,-45 -105,-45 0,0 202.5,15 307.5,-60 135,-105 75,-225 75,-225 0,0 -30,105 -105,135 -112.5,45 -270,22.5 -270,22.5 0,0 172.5,0 277.5,-60 52.5,-30 67.5,-97.5 75,-127.5 0,-30 7.5,-105 -37.5,-120 -60,-30 -187.5,7.5 -187.5,7.5 0,0 15,52.5 0,105 0,22.5 -37.5,82.5 -90,105 -67.5,37.5 -157.5,37.5 -157.5,37.5 0,0 240,-37.5 232.5,-217.5 C 2250,2.5 2100,25 1965,85 c -195,82.5 -375,247.5 -405,277.5 -15,45 60,427.5 97.5,832.5 22.5,217.5 52.5,442.5 60,622.5 7.5,210 -7.5,352.5 -7.5,352.5"
         inkscape:connector-curvature="0" /><path
         id="path34"
         style="fill:#7d6300;fill-opacity:1;fill-rule:nonzero;stroke:none"
         d="m 1987.5,2132.5 v 45 l 67.5,60 c 0,0 52.5,-7.5 127.5,7.5 120,15 277.5,52.5 337.5,-7.5 22.5,-22.5 -150,-22.5 -105,-15 37.5,7.5 -150,-15 -150,-15 0,0 367.5,-30 420,-247.5 7.5,-7.5 -52.5,52.5 -120,90 -60,37.5 -142.5,67.5 -142.5,67.5 0,0 142.5,-90 202.5,-225 37.5,-97.5 22.5,-210 22.5,-210 0,0 -52.5,217.5 -172.5,300 52.5,-112.5 90,-277.5 22.5,-472.5 -52.5,-172.5 -247.5,-322.5 -285,-307.5 -37.5,7.5 -37.5,90 -15,187.5 22.5,127.5 60,270 67.5,382.5 7.5,180 -67.5,307.5 -67.5,307.5 0,0 7.5,-97.5 -7.5,-180 -7.5,-60 -37.5,-120 -45,-112.5 -22.5,0 22.5,150 -15,247.5 -37.5,75 -142.5,97.5 -142.5,97.5"
         inkscape:connector-curvature="0" /><path
         id="path36"
         style="fill:#7d6300;fill-opacity:1;fill-rule:nonzero;stroke:none"
         d="m 1762.5,1075 c 0,0 7.5,-532.5 -15,-555 -15,-7.5 -37.5,-7.5 -37.5,-7.5 0,0 22.5,495 52.5,562.5"
         inkscape:connector-curvature="0" /><path
         id="path38"
         style="fill:#7d6300;fill-opacity:1;fill-rule:nonzero;stroke:none"
         d="m 1290,782.5 c 0,0 105,-97.5 180,-142.5 45,-30 75,-30 75,-30 l -22.5,-210 c 0,0 -600,-90 -585,52.5 7.5,142.5 270,225 270,225 0,0 -150,-22.5 -232.5,-90 C 907.5,535 900,445 900,445 c 0,0 -157.5,-7.5 -150,82.5 7.5,45 97.5,127.5 187.5,172.5 90,37.5 187.5,30 187.5,30 0,0 -105,37.5 -277.5,-45 45,30 112.5,97.5 247.5,90 127.5,0 255,-75 255,-75 l -60,82.5"
         inkscape:connector-curvature="0" /><path
         id="path40"
         style="fill:#7d6300;fill-opacity:1;fill-rule:nonzero;stroke:none"
         d="m 1725,4442.5 c 0,0 45,15 45,82.5 0,15 -30,15 -30,15 0,0 37.5,82.5 37.5,120 37.5,15 67.5,30 67.5,30 l 22.5,-37.5 -7.5,-60 c 0,0 52.5,15 105,345 15,75 -112.5,345 -195,510 -97.5,202.5 -135,375 -135,375 0,0 52.5,-120 142.5,-262.5 82.5,-135 202.5,-285 262.5,-405 52.5,-112.5 15,-210 15,-210 0,0 30,15 60,82.5 -7.5,-75 -37.5,-120 -37.5,-120 l 67.5,52.5 c 0,0 -97.5,-127.5 -135,-240 -30,-75 -7.5,-157.5 -7.5,-157.5 l 15,7.5 22.5,-75 c 0,0 -82.5,0 -157.5,-15 -82.5,-15 -157.5,-37.5 -157.5,-37.5"
         inkscape:connector-curvature="0" /><path
         id="path42"
         style="fill:#7d6300;fill-opacity:1;fill-rule:nonzero;stroke:none"
         d="m 1365,5747.5 c 0,0 30,-45 60,-82.5 30,-37.5 67.5,-60 67.5,-60 0,0 7.5,-82.5 30,-120 C 1410,5612.5 1365,5747.5 1365,5747.5"
         inkscape:connector-curvature="0" /><path
         id="path44"
         style="fill:#e3d4ae;fill-opacity:1;fill-rule:nonzero;stroke:none"
         d="m 1477.5,4562.5 c 0,0 67.5,15 105,7.5 -7.5,30 0,30 0,30 0,0 60,7.5 30,-210 75,30 90,37.5 90,37.5 0,0 45,75 52.5,97.5 -15,0 -45,-30 -45,-30 0,0 90,187.5 15,232.5 l 7.5,-60 c 0,0 -15,67.5 -157.5,15 -60,-22.5 -97.5,-120 -97.5,-120"
         inkscape:connector-curvature="0" /><path
         id="path46"
         style="fill:#e3d4ae;fill-opacity:1;fill-rule:nonzero;stroke:none"
         d="m 405,4382.5 c 0,0 127.5,-60 120,-135 -7.5,-82.5 -112.5,-90 -112.5,-90 0,0 67.5,-60 157.5,-120 67.5,-45 150,-105 232.5,-105 75,-7.5 270,105 427.5,157.5 127.5,45 232.5,-15 367.5,45 60,30 82.5,75 82.5,75 0,0 -120,0 -225,-22.5 105,67.5 300,30 442.5,22.5 75,0 127.5,22.5 127.5,22.5 0,0 -30,-22.5 -90,-30 -90,-7.5 -225,0 -225,0 0,0 -60,-75 -157.5,-105 -97.5,-22.5 -240,0 -330,-30 -75,-22.5 -135,-60 -135,-60 0,0 285,7.5 315,-45 -30,0 -37.5,7.5 -37.5,7.5 0,0 22.5,-30 0,-75 -30,-67.5 -217.5,-187.5 -217.5,-187.5 0,0 30,-82.5 7.5,-135 -22.5,-52.5 -90,-60 -90,-60 0,0 22.5,-67.5 15,-90 30,-15 97.5,-90 60,-142.5 -37.5,-75 -187.5,-127.5 -187.5,-127.5 0,0 0,-82.5 -97.5,-90 22.5,-82.5 187.5,-180 315,-330 97.5,-120 180,-247.5 255,-382.5 52.5,-97.5 60,-262.5 112.5,-322.5 45,-60 157.5,-52.5 157.5,-52.5 0,0 0,195 -15,225 -142.5,105 -195,150 -202.5,180 0,30 60,157.5 60,157.5 0,0 -75,105 -157.5,232.5 -112.5,172.5 -247.5,382.5 -210,585 22.5,127.5 90,247.5 150,337.5 97.5,165 202.5,262.5 262.5,277.5 22.5,0 75,22.5 150,22.5 82.5,7.5 195,0 315,22.5 105,22.5 225,105 225,105 0,0 -52.5,-75 -75,-90 67.5,-7.5 165,97.5 135,217.5 30,-67.5 30,-120 45,-120 15,7.5 30,75 -7.5,135 -37.5,52.5 -120,105 -120,105 0,0 60,0 97.5,-15 -37.5,30 -97.5,75 -172.5,97.5 -97.5,30 -202.5,37.5 -330,7.5 -172.5,-37.5 -292.5,-135 -397.5,-210 C 1357.5,4195 1305,4165 1305,4165 l 7.5,-22.5 c 0,0 -67.5,75 -135,82.5 -37.5,7.5 -60,-45 -60,-45 l 37.5,-52.5 c 0,0 -22.5,22.5 -45,45 -22.5,22.5 -60,45 -82.5,22.5 15,-30 7.5,-60 7.5,-60 0,0 -67.5,150 -112.5,127.5 -30,-7.5 -22.5,-60 -22.5,-60 l 30,-67.5 c 0,0 -15,30 -37.5,52.5 -22.5,37.5 -60,90 -82.5,82.5 -37.5,-7.5 15,-112.5 15,-112.5 0,0 0,-7.5 -22.5,22.5 -45,67.5 -112.5,187.5 -232.5,232.5 -75,30 -165,-30 -165,-30"
         inkscape:connector-curvature="0" /><path
         id="path48"
         style="fill:#e3d4ae;fill-opacity:1;fill-rule:nonzero;stroke:none"
         d="m 1875,4690 c 0,0 -15,22.5 -37.5,45 -22.5,30 -52.5,45 -37.5,75 7.5,15 45,-22.5 45,-22.5 0,0 -15,52.5 -67.5,112.5 -60,60 -135,97.5 -105,135 22.5,22.5 75,-37.5 75,-37.5 0,0 -37.5,67.5 -82.5,142.5 -52.5,90 -120,165 -90,187.5 22.5,15 75,-52.5 75,-52.5 0,0 -82.5,120 -127.5,277.5 -52.5,225 -45,502.5 7.5,510 45,0 37.5,-165 120,-390 105,-292.5 277.5,-517.5 277.5,-720 0,-75 -52.5,-262.5 -52.5,-262.5"
         inkscape:connector-curvature="0" /><path
         id="path50"
         style="fill:#e3d4ae;fill-opacity:1;fill-rule:nonzero;stroke:none"
         d="m 1515,5125 c 0,0 -90,120 -165,292.5 -90,187.5 -150,427.5 -67.5,487.5 22.5,22.5 30,-150 90,-262.5 75,-127.5 180,-232.5 180,-232.5 l 45,-60 c 0,0 -52.5,7.5 -45,-37.5 7.5,-37.5 135,-255 135,-255 0,0 -60,0 -37.5,-45 22.5,-45 157.5,-180 157.5,-180 0,0 -45,-15 -37.5,-45 15,-22.5 67.5,-75 67.5,-75 l -60,-22.5 c 0,0 -7.5,45 -52.5,45 -22.5,37.5 -60,82.5 -97.5,112.5 -67.5,45 -135,67.5 -120,90 7.5,15 60,-15 97.5,-30 7.5,-22.5 22.5,-30 22.5,-30 0,0 0,67.5 -67.5,150 -60,82.5 -202.5,157.5 -172.5,202.5 7.5,15 127.5,-105 127.5,-105"
         inkscape:connector-curvature="0" /><path
         id="path52"
         style="fill:#ffffa8;fill-opacity:1;fill-rule:nonzero;stroke:none"
         d="m 1267.5,4277.5 c 0,0 22.5,247.5 315,285 7.5,-7.5 15,-45 -7.5,-97.5 -22.5,-75 -90,-165 -90,-165 l -187.5,-112.5 c 0,0 15,37.5 7.5,60 0,22.5 -7.5,52.5 -37.5,30"
         inkscape:connector-curvature="0" /><path
         id="path54"
         style="fill:#d10002;fill-opacity:1;fill-rule:nonzero;stroke:none"
         d="m 1597.5,4495 v -112.5 l -67.5,-45 c 0,0 67.5,112.5 67.5,157.5"
         inkscape:connector-curvature="0" /><path
         id="path56"
         style="fill:#ffffff;fill-opacity:1;fill-rule:nonzero;stroke:none"
         d="m 435,4247.5 c -7.5,-15 -142.5,-37.5 -150,7.5 -15,45 30,45 75,45 22.5,0 75,-22.5 75,-52.5"
         inkscape:connector-curvature="0" /></g></g></svg>