<?xml version="1.0" encoding="UTF-8" standalone="no"?>
<!-- Generator: Adobe Illustrator 23.0.3, SVG Export Plug-In . SVG Version: 6.00 Build 0)  -->

<svg
   xmlns:dc="http://purl.org/dc/elements/1.1/"
   xmlns:cc="http://creativecommons.org/ns#"
   xmlns:rdf="http://www.w3.org/1999/02/22-rdf-syntax-ns#"
   xmlns:svg="http://www.w3.org/2000/svg"
   xmlns="http://www.w3.org/2000/svg"
   xmlns:sodipodi="http://sodipodi.sourceforge.net/DTD/sodipodi-0.dtd"
   xmlns:inkscape="http://www.inkscape.org/namespaces/inkscape"
   version="1.1"
   x="0px"
   y="0px"
   viewBox="0 0 288.56647 245.7"
   xml:space="preserve"
   id="svg234"
   sodipodi:docname="yodababy.svg"
   inkscape:version="0.92.4 (5da689c313, 2019-01-14)"
   width="288.56647"
   height="245.7"><metadata
   id="metadata240"><rdf:RDF><cc:Work
       rdf:about=""><dc:format>image/svg+xml</dc:format><dc:type
         rdf:resource="http://purl.org/dc/dcmitype/StillImage" /><dc:title /></cc:Work></rdf:RDF></metadata><defs
   id="defs238" /><sodipodi:namedview
   pagecolor="#ffffff"
   bordercolor="#666666"
   borderopacity="1"
   objecttolerance="10"
   gridtolerance="10"
   guidetolerance="10"
   inkscape:pageopacity="0"
   inkscape:pageshadow="2"
   inkscape:window-width="1366"
   inkscape:window-height="715"
   id="namedview236"
   showgrid="false"
   inkscape:zoom="0.78666667"
   inkscape:cx="-87.373644"
   inkscape:cy="113.1"
   inkscape:window-x="-8"
   inkscape:window-y="22"
   inkscape:window-maximized="1"
   inkscape:current-layer="svg234"
   fit-margin-top="0"
   fit-margin-left="0"
   fit-margin-right="0"
   fit-margin-bottom="0" />
<style
   type="text/css"
   id="style2">
	.st0{fill:#99A82C;}
	.st1{fill:#FFFFFF;}
	.st2{fill:#694A37;}
	.st3{fill:#F29648;}
	.st4{fill:#6B6D12;}
	.st5{fill:#BBBF2E;}
	.st6{fill:#1B0F00;}
	.st7{fill:#818918;}
	.st8{fill:#49240C;}
	.st9{fill:#110B08;}
	.st10{fill:#261912;}
	.st11{fill:#4C362A;}
	.st12{opacity:0.63;fill:#54392A;}
	.st13{fill:#89653E;}
	.st14{fill:#4F3425;}
	.st15{opacity:0.63;fill:#4F3425;}
	.st16{fill:#382721;}
	.st17{opacity:0.51;fill:#858C25;}
	.st18{opacity:0.88;fill:#BBBF2E;}
	.st19{fill:#3F2A1E;}
	.st20{fill:#9B664E;}
	.st21{opacity:0.63;fill:#261912;}
	.st22{fill:#54392A;}
	.st23{opacity:0.53;fill:#54392A;}
	.st24{opacity:0.64;fill:#89653E;}
	.st25{fill:#858C25;}
	.st26{fill:#393A0A;}
	.st27{opacity:0.61;fill:#89653E;}
	.st28{fill:#563829;}
	.st29{opacity:0.4;fill:#BBBF2E;}
	.st30{fill:url(#SVGID_1_);}
	.st31{fill:url(#SVGID_2_);}
	.st32{fill:#683C1E;}
	.st33{opacity:0.72;fill:#FFFFFF;}
	.st34{fill:#73751C;}
	.st35{opacity:0.39;fill:#110B08;}
</style>
<g
   id="Слой_1"
   transform="matrix(-1,0,0,1,293.9486,-17.4)">
</g>
<g
   id="Слой_2"
   transform="matrix(-1,0,0,1,293.9486,-17.4)">
	<g
   id="g9">
		<path
   class="st0"
   d="m 128.5,263.1 c -3.4,0 -6.8,0 -10.2,0 L 96,262.9 c -3.8,0 -6.8,-0.4 -9,-0.8 -0.5,-0.1 -0.9,-0.1 -1.3,-0.2 -5.3,-0.7 -9.1,-1.4 -12.1,-2 l -0.3,-0.1 c -6.9,-1.4 -30,-6.2 -35.8,-11 -0.1,-0.1 -2.8,-2.3 -4.2,-5.1 -0.3,-0.5 -1.1,-2 -1.5,-3.9 -2.4,-9.8 -2.2,-20.1 0.6,-29.8 1.2,-4.2 2.9,-8.2 4.5,-12 1.1,-2.6 2.1,-5 3,-7.5 2.5,-7 3.1,-12.6 1.9,-17.3 -1.1,-4.4 -3.6,-8.2 -6.8,-10.4 -1.5,0.3 -3.1,0.5 -4.6,0.5 -0.6,0 -1.5,0.1 -2.7,0.1 -4.5,0 -8.2,-0.8 -11.2,-2.3 C 8.4,157 6.3,147.4 5.8,143.4 c -1.2,-9.2 0.2,-19 4,-28.5 2.8,-6.8 6.6,-13.2 11.6,-19.4 -0.9,-0.2 -1.9,-0.5 -3,-1 -5.7,-2.6 -8.7,-9.5 -6.6,-15.4 1.7,-4.9 6.6,-8.3 11.9,-8.3 1,0 2,0.1 2.9,0.4 0.6,0.2 1.2,0.4 1.8,0.6 -0.7,-1.1 -1.4,-2.3 -1.9,-3.6 -1.6,-4 -1.6,-8.2 -0.1,-12.1 -1.5,-9.8 -1,-20 1.4,-29.6 0.6,-2.4 1.4,-4.9 3.3,-7 1.2,-1.3 2.9,-2.1 4.7,-2.1 2,0 3.9,1 5,2.7 9.3,14.5 23.1,25.9 39,32.4 1,-1.4 2.3,-2.7 4.1,-3.9 3,-2.1 6.8,-3.1 11.1,-3.1 1.2,0 2.5,0.1 3.8,0.2 7.4,-4.5 15.7,-5.1 23,-5.1 h 0.1 c 5.6,0 10.3,0.3 14.6,1 11.6,1.8 23.4,6.5 35.2,14.1 2.7,1.7 5.8,3.9 8.6,6.7 2.3,2.4 4.3,5.2 6.4,8.8 1.7,2.9 3.2,6 4.4,9.2 1.5,3.7 2.7,4.9 4.1,5.9 1.1,0.8 3,1.8 6.2,1.8 0.4,0 0.8,0 1.3,0 0.1,0 0.2,0 0.4,0 0.1,0 0.3,0 0.4,0 12.1,0.9 24.4,1.4 36.5,1.4 3.6,0 7.2,0 10.7,-0.1 12.6,-0.3 25.3,-1.1 37.8,-2.3 0.2,0 0.3,0 0.5,0 1.8,0 3.5,1 4.3,2.5 1,1.7 0.8,3.9 -0.3,5.4 -7.7,10.4 -17.1,19.9 -27.9,28.2 -11.5,8.8 -23.7,14.7 -36.2,17.3 -7.1,1.5 -14.4,2.3 -21.8,2.3 h -1 c -3.5,0 -7,-0.2 -10.4,-0.5 0,0.3 0,0.5 0,0.8 0.1,4.4 -2.2,7.8 -4.1,10.5 -1.1,1.7 -2.2,3.2 -2.4,4.5 -0.1,0.9 0.2,2 0.7,3 0.5,0 1,-0.1 1.6,-0.1 0.7,0 1.4,-0.1 2.2,-0.2 0.9,-0.1 1.5,-0.1 2.2,-0.1 2.5,0 4.6,0.7 6.2,1.9 3.3,2.6 3.6,6.3 3.7,8.9 0,0.5 0.1,1.2 0.2,1.7 0.2,0 0.3,0 0.6,0 0.3,0 0.7,0 1,0 h 0.4 c 0.1,0 0.3,0 0.4,0 5.9,0 8.3,2.9 9.2,4.7 0.8,1.6 1,3.1 1,4.5 0,0.6 0,1.2 0,1.8 1.3,0.4 2.5,1.1 3.5,2 3.1,2.9 3.1,7 2.5,9.6 2,0.1 3.8,0.3 5.5,0.7 7.3,1.4 9.5,5.4 10.2,7.7 0.8,2.9 0.2,6.1 -1.7,8.7 -1.4,1.9 -3.4,3.3 -5.9,4.2 -1.9,0.7 -3.8,1.1 -5.9,1.1 0,0 0,0 0,0 -0.2,0 -0.4,0 -0.6,0 -2.6,-0.1 -4.9,-0.8 -6.9,-1.4 -0.7,-0.2 -1.3,-0.4 -2,-0.6 -1.1,-0.3 -2,-0.4 -2.7,-0.4 -0.1,0 -0.2,0 -0.3,0 0.1,0.3 0.3,0.6 0.4,1 1.4,3.8 0.1,8.2 -3.3,11.2 -2.1,1.9 -4.6,2.9 -7.2,2.9 -0.9,0 -1.7,-0.1 -2.5,-0.4 -0.2,0 -0.3,-0.1 -0.5,-0.2 0.2,3.1 0.2,6.3 -0.1,9.5 l -0.1,1 c -0.4,4.8 -1.1,12.8 -8.2,15 -21.3,6.8 -44.4,7.3 -64.3,7.3 z"
   id="path5"
   inkscape:connector-curvature="0"
   style="fill:#99a82c" />
		
	</g>
	<path
   class="st0"
   d="m 20.5,90 c 1.5,0.7 3.3,0.8 4.8,1.4 1.3,0.5 2.6,1.5 3,2.9 1,1.5 1.8,3.1 3.6,3.3 0.1,0 0.2,0.1 0.2,0.2 0,0.5 0,1 0,1.6 0,3.3 0,6.5 0.3,9.8 0.3,2.5 0.9,6.7 3.7,7.7 1.8,0.6 3.9,-0.4 5.3,-1.3 2.6,-1.5 4.7,-3.7 6.5,-6 2,-2.4 4,-4.8 5.8,-7.4 0.9,-1.2 1.7,-2.5 2.4,-3.9 0.8,-1.5 1.5,-3.2 1.7,-4.9 0.2,-1.7 -0.5,-2.9 -1.7,-3.9 -0.8,-0.7 -1.7,-1.4 -2.1,-2.4 -0.6,-1.4 -0.3,-3 0.7,-4.2 2.4,-3.1 7.1,-3.9 8.6,-7.8 0.9,-2.3 0.2,-4.9 -2,-6.1 -2.4,-1.4 -5.7,-0.7 -8,0.6 -1.1,0.7 -2.1,1.5 -3.1,2.4 -0.8,0.7 -1.5,1.5 -2.5,1.9 -1.5,0.7 -2.9,-0.1 -3.1,-1.7 -0.2,-2 0.4,-4 0.7,-6 0.3,-2.8 -0.4,-6 -2.4,-8.1 -1.8,-1.9 -4.6,-2.6 -7.1,-2.5 -1.3,0.1 -2.6,0.3 -3.8,0.9 -0.2,0.1 -0.4,0.3 -0.6,0.4 -1.5,3 -1.6,6.4 -0.4,9.5 1.4,3.4 4.3,6.2 4.5,9.9 0,0.4 0,0.8 -0.2,1.2 -0.3,0.6 -0.9,1 -1.6,1.2 -2.9,0.8 -5.7,-1.8 -8.6,-2.5 -3.6,-0.9 -7.6,1.3 -8.8,4.7 -1,3.4 0.9,7.6 4.2,9.1 z"
   id="path11"
   inkscape:connector-curvature="0"
   style="fill:#99a82c" />
	<path
   class="st2"
   d="m 193,212.6 c 1,-1.8 3,-2.9 4.6,-4 2.6,-1.7 5,-3.9 7.1,-6.1 1.2,-1.2 2.3,-2.5 3.2,-3.9 0.9,-1.3 1.7,-2.7 2.5,-4.1 1.3,-2.1 2.4,-4.3 3.3,-6.6 0.2,-1.7 0.2,-3.5 0.1,-5.3 0,-0.8 -0.1,-1.6 -0.5,-2.3 -0.9,-1.7 -3.2,-2 -5.1,-2 -1.9,0 -4.1,0.2 -5.5,-1.1 -2.9,-2.5 -0.6,-8.2 -3.6,-10.6 -1.3,-1 -3.1,-1 -4.8,-0.8 -2.5,0.3 -4.4,0.2 -6.9,0.8 -1.8,-2.7 -3.5,-5.9 -3.1,-9.1 0.7,-5.2 6.6,-8.9 6.5,-14.2 0,-0.7 -0.1,-1.4 -0.5,-2 -0.3,-0.5 -0.6,-0.9 -1,-1.3 -0.7,-0.7 -1.3,-1.4 -2.2,-2.1 -0.9,-0.7 -1.7,-1.2 -2.5,-1.6 -2.1,-0.8 -3.9,-1.4 -5.2,-1.7 -1.7,-0.5 -3.1,-0.8 -4.3,-1 -1.5,-0.3 -3.1,-0.8 -4.6,-0.9 -2.1,1.7 -4.5,2.9 -7.1,3.8 -10.2,3.5 -21.1,4.4 -31.9,3.3 -0.1,0.1 -0.3,0.2 -0.3,0 -0.1,-0.4 -0.1,-0.8 -0.1,-1.1 0,0 0,0 0,0 -0.2,-1.5 -0.2,-3 -0.3,-4.5 -0.2,-2.1 -0.8,-4.1 -2.1,-5.8 -2.8,-3.5 -7.4,-3.9 -11.6,-4.1 -9.1,-0.5 -18.1,0.2 -27.2,-0.3 -3.6,-0.2 -7.4,-0.4 -10.7,-2.1 -2.7,-1.3 -4.9,-3.7 -6.6,-6 -0.8,-1.1 -1.6,-2.4 -2.1,-3.7 -0.6,-1.6 -0.5,-3.4 -0.4,-5 0.1,-4.2 -1.1,-8.3 -3,-12 -1.4,-2.9 -3,-5.8 -5.6,-7.8 -2.2,-1.7 -4.8,-2.5 -7.5,-2.7 -0.1,0.4 -0.1,0.9 0,1.4 0.3,1.4 1.3,2.2 2.3,3.1 0.9,0.8 1.6,1.7 1.8,3 0.2,1.7 -0.4,3.3 -1,4.8 -1.3,3.2 -3.4,5.9 -5.5,8.6 -2.1,2.6 -4.1,5.3 -6.5,7.6 -1.9,1.8 -4.4,3.7 -7.1,4.2 -3.2,0.6 -4.7,-2.4 -5.4,-5.1 -0.9,-3.7 -0.9,-7.6 -0.9,-11.3 0,-0.7 0,-1.4 0,-2.2 0,-0.2 0,-0.8 0,-0.8 0,0 -0.5,-0.1 -0.6,-0.1 -0.2,-0.1 -0.3,-0.1 -0.5,-0.2 -1,-0.6 -1.6,-1.5 -2.2,-2.5 0,0 0,0 0,0 -5.9,6.5 -10.7,13.6 -14,21.8 -3.3,8.2 -4.8,17.2 -3.7,25.9 0.5,3.9 2.4,11 8,14 3.9,2 9.3,1.7 11.3,1.6 2.4,-0.1 4.4,-0.5 5.8,-0.8 5.4,2.9 9.2,8.5 10.7,14.5 1.7,6.7 0.3,13.8 -2.1,20.2 -2.3,6.5 -5.5,12.6 -7.4,19.3 -2.6,8.8 -2.7,18.3 -0.5,27.3 0.4,1.5 1.1,2.7 1.1,2.7 0.8,1.6 2.6,3.3 3,3.6 5.3,4.4 33.5,9.9 33.5,9.9 3,0.6 6.8,1.3 12.1,2 2.1,0.3 5.4,0.9 9.7,0.9 7.5,0 14.9,0.1 22.4,0.1 24.7,0.1 49.8,0.2 73.4,-6.9 4.2,-1.3 4.4,-7.3 4.7,-11.6 0.8,-8.9 -0.7,-18 -4.4,-26.1 0.5,-0.3 0.8,-0.7 1,-1 z"
   id="path13"
   inkscape:connector-curvature="0"
   style="fill:#694a37" />
	<path
   class="st0"
   d="m 235.9,205.7 c -0.8,-2.6 -3.7,-3.7 -6.3,-4.2 -2.6,-0.5 -5.2,-0.7 -7.8,-0.7 -1.3,0 -3,-0.2 -3.4,-1.5 -0.4,-1.3 0.8,-2.4 1.5,-3.6 0.1,-0.2 1.2,-3.9 -0.8,-5.8 -1.3,-1.2 -3.4,-1.4 -5.3,-0.6 0,0 0,-0.1 0,-0.1 -0.7,1.7 -1.5,3.4 -2.5,5 -1.7,2.7 -3.2,5.3 -5.3,7.7 -2.1,2.3 -4.5,4.5 -7,6.3 -1.8,1.3 -4.2,2.4 -5.4,4.3 1.3,1.3 2.9,2.4 4,3.9 1.2,1.5 1.6,3.5 2.3,5.3 0.7,1.8 1.9,3.6 3.7,4.2 1.7,0.5 3.6,-0.3 4.9,-1.5 1.6,-1.4 2.6,-3.7 1.9,-5.7 -0.4,-1.2 -1.5,-2.2 -1.6,-3.5 -0.1,-1.4 1,-2.6 2.2,-3.3 2.4,-1.3 5.3,-1 7.9,-0.4 2.6,0.7 5.2,1.7 7.9,1.8 1.5,0.1 3.1,-0.2 4.5,-0.7 1.4,-0.5 2.8,-1.4 3.7,-2.6 0.9,-1.2 1.3,-2.8 0.9,-4.3 z"
   id="path15"
   inkscape:connector-curvature="0"
   style="fill:#99a82c" />
	<path
   class="st0"
   d="m 251,94.5 c -17.2,0.4 -33.2,-0.2 -47.8,-1.3 -6.2,0.5 -9.6,-1.8 -10.9,-2.8 -2.2,-1.7 -3.9,-3.6 -5.7,-8.1 -1.2,-2.9 -2.5,-5.8 -4.1,-8.6 -1.6,-2.8 -3.4,-5.5 -5.7,-7.8 -2.3,-2.3 -5,-4.2 -7.7,-6 -10.1,-6.5 -21.4,-11.6 -33.3,-13.4 -4.6,-0.7 -9.3,-0.9 -14,-0.9 -7.8,0 -15.5,0.8 -21.9,5.3 -4.5,-0.8 -9.5,-0.8 -13.3,1.8 -2.4,1.6 -3.5,3.4 -4.9,5.9 C 63.3,52 47.1,39.2 36.5,22.8 c -0.4,-0.6 -1.3,-0.5 -1.8,0 -1.2,1.3 -1.8,3.1 -2.2,4.9 -2.4,9.4 -2.7,19.2 -1.1,28.7 0.1,-0.1 0.2,-0.2 0.3,-0.2 4.5,-2.5 11.1,-0.6 13.1,4.2 1,2.5 0.9,5.1 0.5,7.7 -0.3,1.7 -1.2,7.1 2.3,5.4 1.2,-0.6 2,-1.6 3,-2.4 1.1,-1 2.3,-1.9 3.6,-2.4 2.3,-1 5.2,-1.3 7.4,0.1 1.8,1.1 2.7,3.2 2.3,5.3 -0.4,2.2 -1.9,3.7 -3.7,4.9 -1.8,1.2 -3.9,2.3 -5.2,4 -0.3,0.4 -0.6,0.9 -0.7,1.3 2.8,0.2 5.4,1 7.6,2.8 2.9,2.3 4.8,5.7 6.2,9.1 0.8,1.8 1.4,3.7 1.9,5.6 0.5,1.9 0.6,3.7 0.6,5.7 0,1.9 0,3.7 0.8,5.5 0.7,1.5 1.7,2.8 2.8,4.1 2.4,2.8 5,4.8 8.6,5.7 4.2,1 8.7,1 13,1.1 4.6,0.1 9.3,-0.1 13.9,-0.1 4.1,0 8.3,0 12.4,0.6 3.3,0.6 6.5,2.2 8.2,5.3 0.7,1.4 1.1,3 1.2,4.5 0.2,1.4 0.1,2.9 0.3,4.3 0,0 0,0 0,0.1 0,0.3 0,0.7 0.1,1 6.7,0.7 13.6,0.6 20.3,-0.5 3.3,-0.5 6.5,-1.4 9.7,-2.3 3.1,-0.9 6.1,-2.1 8.6,-4.2 0,-0.1 0,-0.2 0.2,-0.2 1.4,0 2.9,0.5 4.3,0.8 1.6,0.3 3.1,0.6 4.6,1.1 2.2,0.6 4.3,1.2 6.5,1.8 5.6,1.1 12.9,2 21.3,2 3.8,0 11.6,-0.3 20.8,-2.2 12.5,-2.6 24.1,-8.6 34.2,-16.4 10.1,-7.8 19.3,-17 26.9,-27.2 -11.9,1 -24.7,1.9 -38.3,2.2 z"
   id="path17"
   inkscape:connector-curvature="0"
   style="fill:#99a82c" />
	<path
   class="st3"
   d="m 67.9,85.5 c 1.5,-2.3 3.3,-4.5 5.5,-6.2 -0.1,-1 0.1,-2.1 0.1,-3.1 C 69.7,72.8 65.7,69.6 62.2,65.8 56.3,59.4 51.5,52 47.2,44.4 c -4,-7 -7.6,-14.3 -10.7,-21.7 -0.4,-0.5 -1.2,-0.4 -1.7,0.1 -1.2,1.3 -1.8,3.1 -2.2,4.9 -2.4,9.4 -2.7,19.2 -1.1,28.7 0.1,-0.1 0.2,-0.2 0.3,-0.2 4.5,-2.5 11.1,-0.6 13.1,4.2 1,2.5 0.9,5.1 0.5,7.7 -0.3,1.7 -1.2,7.1 2.3,5.4 1.2,-0.6 2,-1.6 3,-2.4 1.1,-1 2.3,-1.9 3.6,-2.4 2.3,-1 5.2,-1.3 7.4,0.1 1.8,1.1 2.7,3.2 2.3,5.3 -0.4,2.2 -1.9,3.7 -3.7,4.9 -1.8,1.2 -3.9,2.3 -5.2,4 -0.3,0.4 -0.6,0.9 -0.7,1.3 2.8,0.2 5.4,1 7.6,2.8 1.3,1 2.4,2.3 3.3,3.6 0.6,-1.8 1.5,-3.5 2.6,-5.2 z"
   id="path19"
   inkscape:connector-curvature="0"
   style="fill:#f29648" />
	<path
   class="st0"
   d="m 251,94.5 c -17.2,0.4 -33.2,-0.2 -47.8,-1.3 -6.2,0.5 -9.6,-1.8 -10.9,-2.8 -2.2,-1.7 -3.9,-3.6 -5.7,-8.1 -1.2,-2.9 -2.5,-5.8 -4.1,-8.6 -1.6,-2.8 -3.4,-5.5 -5.7,-7.8 -2.3,-2.3 -5,-4.2 -7.7,-6 -10.1,-6.5 -21.4,-11.6 -33.3,-13.4 -4.6,-0.7 -9.3,-0.9 -14,-0.9 -7.8,0 -15.5,0.8 -21.9,5.3 -4.5,-0.8 -9.5,-0.8 -13.3,1.8 -2.4,1.6 -3.5,3.4 -4.9,5.9 C 63.7,52.2 47.9,39.8 37.3,24 c 1.4,3.4 3,6.7 4.6,10 4.1,8 8.4,15.8 13.5,22.9 2.6,3.6 5.3,7 8.4,10.1 3.1,3.2 6.5,5.9 9.8,8.8 0.1,0 0.2,0 0.2,0.1 0,0 0,0.1 0,0.1 0,0 0,0 0,0 0,1.1 -0.2,2.2 -0.1,3.3 0,0.1 -0.1,0.2 -0.2,0.2 -2.3,1.7 -4,4 -5.6,6.3 -1,1.6 -2,3.3 -2.6,5.1 1.1,1.6 1.9,3.4 2.7,5.1 0.8,1.8 1.4,3.7 1.9,5.6 0.5,1.9 0.6,3.7 0.6,5.7 0,1.9 0,3.7 0.8,5.5 0.7,1.5 1.7,2.8 2.8,4.1 2.4,2.8 5,4.8 8.6,5.7 4.2,1 8.7,1 13,1.1 4.6,0.1 9.3,-0.1 13.9,-0.1 4.1,0 8.3,0 12.4,0.6 3.3,0.6 6.5,2.2 8.2,5.3 0.7,1.4 1.1,3 1.2,4.5 0.2,1.4 0.1,2.9 0.3,4.3 0,0 0,0 0,0.1 0,0.3 0,0.7 0.1,1 6.7,0.7 13.6,0.6 20.3,-0.5 3.3,-0.5 6.5,-1.4 9.7,-2.3 3.1,-0.9 6,-2.1 8.6,-4.1 0,0 0.1,-0.1 0.1,-0.1 0,-0.1 0,-0.2 0.1,-0.2 0,0 0,0 0,0 1.9,-2.1 3.7,-4.4 5.2,-6.9 2.9,-4.9 4.5,-10.5 5.4,-16.1 0,-0.1 0.1,-0.1 0.2,-0.1 4.1,1.1 8.4,1.2 12.6,1.2 4.1,0 8.2,-0.1 12.3,-0.3 15,-0.8 29.7,-3.6 44.3,-7.1 7,-1.7 14,-3.4 20.9,-5.2 5.2,-1.4 10.4,-3.1 15.2,-5.4 -11.2,1.1 -23.1,1.9 -35.7,2.2 z"
   id="path21"
   inkscape:connector-curvature="0"
   style="fill:#99a82c" />
	<path
   class="st3"
   d="m 269.3,98.7 c -14.5,3.8 -29,7.4 -43.8,9.7 -7.4,1.1 -14.9,1.9 -22.4,2.1 -7.2,0.2 -14.7,0.8 -21.7,-0.9 -0.9,5.6 -2.6,11.1 -5.5,16 -1.4,2.4 -3.1,4.7 -5,6.7 1.3,0.1 2.6,0.5 3.9,0.7 1.6,0.3 3.1,0.6 4.6,1.1 2.2,0.6 4.3,1.2 6.5,1.8 5.6,1.1 12.9,2 21.3,2 3.8,0 11.6,-0.3 20.8,-2.2 12.5,-2.6 24.1,-8.6 34.2,-16.4 10.1,-7.8 19.3,-17 26.9,-27.2 -0.6,0.1 -1.1,0.1 -1.7,0.2 -5.6,2.9 -11.9,4.8 -18.1,6.4 z"
   id="path23"
   inkscape:connector-curvature="0"
   style="fill:#f29648" />
	<path
   class="st4"
   d="m 145.4,60.7 c -2,0.4 -7.8,1.5 -13,4.6 -3.2,1.9 -5.4,4.1 -5.6,4.3 -0.8,0.8 -1.6,1.7 -2.4,2.7 0.3,-0.3 0.6,-0.6 0.9,-0.8 1.6,-1.5 3.3,-2.9 5.1,-4.1 7.5,-5.3 17.3,-6.6 26,-4 4.3,1.3 8.6,3.6 11.8,6.8 2.2,2.2 3.6,5.1 5,7.8 -0.5,-1.3 -1.1,-2.5 -1.8,-3.8 -1.4,-2.7 -3.1,-5.3 -5.2,-7.5 -1.9,-2 -4.2,-3.7 -6.9,-4.8 -0.9,-0.4 -2.6,-1.1 -5,-1.5 -1.3,-0.2 -2.6,-0.2 -5.1,-0.7 -0.7,-0.1 -1.3,-0.2 -1.7,-0.3 -0.2,-0.1 -0.5,-0.2 -0.9,-0.5 -0.2,-0.2 -0.4,-0.3 -0.6,-0.5 0,0 -0.2,-0.2 -1.1,-0.9 -0.9,-0.7 -1.9,-1.2 -2.3,-1.3 -3.2,-1.2 -6.6,-1.9 -10.1,-1.7 -0.9,0.1 -1.8,0.2 -2.7,0.4 -0.4,0.1 -0.8,0.3 -1.3,0.3 -0.6,0 -1.1,-0.4 -1.5,-0.7 -0.6,-0.5 -1.3,-1 -2,-1.4 -2.7,-1.7 -6.2,-2.1 -9.4,-2.1 -1.6,0 -3.2,0.3 -4.8,0.6 -1.3,0.3 -2.6,1.2 -3.9,1.1 -1.5,-0.1 -2.8,-1.1 -4.2,-1.5 -0.7,-0.2 -1.5,-0.4 -2.2,-0.6 1.1,0.6 2.1,1.4 3,2.2 1.9,1.6 3.5,3.4 4.8,5.5 1.4,2.2 2.5,4.6 3,7.2 0.5,2.2 0.5,4.5 0.7,6.7 0.1,-2.6 0.4,-5.2 -0.2,-7.8 -0.7,-3.2 -2.1,-6.1 -3.4,-9.1 0,-0.1 0,-0.2 0.1,-0.2 2.2,-1.5 5.4,-1.4 7.9,-1.2 3.3,0.3 6.4,1.2 9.1,3.1 0.1,0.1 0.1,0.2 0,0.3 -3.5,2.3 -6.2,5.5 -8,9.3 -0.7,1.5 -1.3,3 -1.7,4.6 0.8,-1.7 1.7,-3.3 2.7,-4.9 2.4,-3.7 5.6,-6.9 9.8,-8.6 0,-0.1 0,-0.2 0.1,-0.2 3.7,-1.4 8.2,-0.3 8.2,-0.3 2.6,0.7 5.5,1.6 8.8,3.5 z"
   id="path25"
   inkscape:connector-curvature="0"
   style="fill:#6b6d12" />
	<path
   class="st0"
   d="m 251,94.5 c -17.2,0.4 -33.2,-0.2 -47.8,-1.3 -6.2,0.5 -9.6,-1.8 -10.9,-2.8 -2.2,-1.7 -3.9,-3.6 -5.7,-8.1 -1.2,-2.9 -2.5,-5.8 -4.1,-8.6 -1.6,-2.8 -3.4,-5.5 -5.7,-7.8 -2.3,-2.3 -5,-4.2 -7.7,-6 -10.1,-6.5 -21.4,-11.6 -33.3,-13.4 -4.6,-0.7 -9.3,-0.9 -14,-0.9 -7.5,0 -14.8,0.8 -21,4.8 1.1,0.4 2.3,0.6 3.3,1 1,0.4 2,1.1 3.1,1.2 0.8,0.1 1.5,-0.4 2.3,-0.6 3,-1.2 6.8,-1.3 10,-0.9 1.5,0.2 3,0.6 4.4,1.1 1.5,0.6 2.6,1.7 4,2.5 0.8,0.5 1.3,0.2 2.1,0 0.7,-0.2 1.3,-0.3 2,-0.4 1.7,-0.2 3.4,-0.1 5.1,0.1 1.7,0.2 3.3,0.6 4.8,1.2 1.3,0.4 2.5,0.9 3.5,1.9 0.5,0.5 1,1.1 1.6,1.6 0.6,0.5 1.3,0.4 2.1,0.3 1.6,-0.2 3.1,0.2 4.7,0.5 3,0.6 6,1.5 8.6,3.1 2.2,1.4 4.1,3.3 5.8,5.4 1.6,2.1 3,4.4 4.1,6.8 0.6,1.2 1.1,2.4 1.6,3.5 0.2,0.5 0.5,1.1 0.7,1.6 0.2,0.3 0.3,0.5 0.5,0.8 0.1,0.1 0,0.2 -0.1,0.2 0.2,0.6 0.4,1.2 0.5,1.8 0,0.2 -0.3,0.3 -0.3,0.1 -0.2,-0.9 -0.5,-1.8 -0.8,-2.6 -2.4,-3.8 -3.9,-8.1 -7.3,-11.2 -6.7,-6.1 -16.5,-8.4 -25.3,-6.7 -4.4,0.8 -8.4,2.6 -12,5.3 -1.5,1.1 -3.1,2.4 -4.5,3.7 -0.8,0.8 -1.8,1.7 -2.4,2.7 -0.3,0.6 -0.5,1.1 -0.7,1.7 -0.1,0.2 -0.4,0.1 -0.3,-0.1 0.1,-0.6 0.4,-1.2 0.7,-1.8 0.9,-1.7 2.2,-3.3 3.5,-4.7 1.7,-1.7 3.5,-3.2 5.6,-4.4 4.1,-2.4 8.6,-3.9 13.3,-4.8 -2.3,-1.5 -5.1,-2.1 -7.7,-2.6 -2.6,-0.5 -5.5,-0.7 -8,0.2 0,0.1 0,0.1 -0.1,0.2 -4.3,1.6 -7.5,5 -10,8.8 -1.1,1.7 -2.1,3.5 -2.9,5.4 -0.2,0.4 -0.3,0.7 -0.5,1.1 -0.4,1.7 -0.8,3.5 -1.1,5.2 0,0.2 -0.3,0.1 -0.3,0 -0.1,-1.8 0.5,-3.6 1.2,-5.3 0.6,-2.4 1.4,-4.7 2.4,-6.9 1.8,-3.7 4.4,-6.8 7.8,-9.1 -2.6,-1.8 -5.5,-2.7 -8.6,-2.9 -1.3,-0.1 -2.5,-0.2 -3.8,-0.1 -0.7,0.1 -1.4,0.2 -2.1,0.3 -0.4,0.1 -1.4,0.3 -1.7,0.7 -0.3,0.4 0.7,1.9 0.9,2.4 0.3,0.7 0.6,1.4 0.9,2.2 0.6,1.5 1.1,3.1 1.4,4.7 0.6,3.2 0.1,6.5 0.1,9.8 0,0.2 -0.3,0.2 -0.3,0 0,0 0,0 0,0 v 0 0 c -0.5,-2.7 -0.4,-5.5 -0.9,-8.2 -0.5,-2.5 -1.4,-4.9 -2.7,-7 -1.3,-2.1 -2.9,-4 -4.7,-5.6 -1.1,-1 -2.4,-2 -3.8,-2.7 -0.1,0.1 -0.2,0.1 -0.3,0.2 -4.5,-0.8 -9.5,-0.8 -13.3,1.8 -2.4,1.6 -3.5,3.4 -4.9,5.9 C 64,52.4 48.2,40 37.6,24.2 c 1.4,3.4 3,6.7 4.6,10 3.8,7.8 8.1,15.6 13.2,22.7 2.6,3.6 5.3,7 8.4,10.1 3.1,3.2 6.5,5.9 9.8,8.8 0.1,0 0.2,0 0.2,0.1 0,0 0,0.1 0,0.1 0,0 0,0 0,0 0,1.1 -0.2,2.2 -0.1,3.3 0,0.1 -0.1,0.2 -0.2,0.2 -2.3,1.7 -4,4 -5.6,6.3 -1,1.6 -2,3.3 -2.6,5.1 1.1,1.6 1.9,3.4 2.7,5.1 0.8,1.8 1.4,3.7 1.9,5.6 0.5,1.9 0.6,3.7 0.6,5.7 0,1.9 0,3.7 0.8,5.5 0.7,1.5 1.7,2.8 2.8,4.1 2.4,2.8 5,4.8 8.6,5.7 4.2,1 8.7,1 13,1.1 4.6,0.1 9.3,-0.1 13.9,-0.1 4.1,0 8.3,0 12.4,0.6 3.3,0.6 6.5,2.2 8.2,5.3 0.7,1.4 1.1,3 1.2,4.5 0.2,1.4 0.1,2.9 0.3,4.3 0,0 0,0 0,0.1 0,0.3 0,0.7 0.1,1 6.7,0.7 13.6,0.6 20.3,-0.5 3.3,-0.5 6.5,-1.4 9.7,-2.3 3.1,-0.9 6,-2.1 8.6,-4.1 0,0 0.1,-0.1 0.1,-0.1 0,-0.1 0,-0.2 0.1,-0.2 0,0 0,0 0,0 1.9,-2.1 3.7,-4.4 5.2,-6.9 2.9,-4.9 4.5,-10.5 5.4,-16.1 0,-0.1 0.1,-0.1 0.2,-0.1 4.1,1.1 8.4,1.2 12.6,1.2 4.1,0 8.2,-0.1 12.3,-0.3 15,-0.8 29.7,-3.6 44.3,-7.1 7,-1.7 14,-3.4 20.9,-5.2 5.2,-1.4 10.4,-3.1 15.2,-5.4 -11.2,1.1 -23.1,1.9 -35.7,2.2 z m -144.7,-22 c -0.5,3.9 -2.3,7.6 -4.7,10.7 0,0 0,0.1 -0.1,0.1 0,0 0,0 0,0 0,0 0,0 0,0 0,0 -0.1,0.1 -0.1,0.1 -1.4,0.9 -2.8,1.8 -4.5,2.4 -1.6,0.6 -3.2,1.1 -4.9,1.4 -3.1,0.5 -6.4,0.5 -9.3,-0.9 -6.2,-3 -6.4,-10.9 -4.9,-16.7 0.9,-3.5 2.5,-6.9 4.5,-9.9 1.9,-2.7 4.3,-5.1 7.5,-6.2 6.5,-2.2 14.4,1.4 16.3,8.2 1,3.6 0.7,7.3 0.2,10.8 z"
   id="path27"
   inkscape:connector-curvature="0"
   style="fill:#99a82c" />
	<path
   class="st4"
   d="m 105.1,60 c -3,-6.4 -11.8,-8.6 -17.7,-4.9 -2.8,1.7 -4.8,4.6 -6.3,7.4 -0.3,0.6 -0.7,1.2 -1,1.9 1.4,2.8 3.6,5.1 6.4,6.8 -0.3,-0.5 -0.5,-1 -0.7,-1.6 -0.1,-0.2 0.3,-0.3 0.3,-0.1 1.3,3.8 4.7,5.8 8,7.8 2.7,1.7 5.3,3.6 7.8,5.7 0.8,-1.3 1.8,-3.1 2.6,-5.3 1.2,-3.1 1.6,-5.6 1.7,-6.3 0.4,-3.7 0.5,-7.8 -1.1,-11.4 z"
   id="path29"
   inkscape:connector-curvature="0"
   style="fill:#6b6d12" />
	<path
   class="st5"
   d="m 102.8,88 c 0.5,-0.7 1.3,-1.3 2.1,-1.8 1.6,-0.9 3.4,-1.5 5.3,-1.3 1.9,0.2 3.6,1.2 4.5,2.9 0.6,1.2 0.6,2.6 0.3,3.9 -0.1,0.6 -0.4,1.2 -0.8,1.7 -0.3,0.3 -0.8,0.6 -1.2,0.8 -2.9,1.2 -6.3,0.3 -8.9,-1.3 -0.7,-0.4 -1.8,-1.1 -2.1,-2 -0.2,-1 0.3,-2.1 0.8,-2.9 z"
   id="path31"
   inkscape:connector-curvature="0"
   style="fill:#bbbf2e" />
	<path
   class="st6"
   d="m 101.8,83.1 c 0.5,-3.7 0.7,-7.4 0.7,-11.2 0,-4.9 -0.6,-8 -3,-9.7 -3.5,-2.6 -9.1,-0.2 -9.5,0 -1.9,0.8 -3.3,2.1 -4.1,2.8 -1.5,1.3 -2.5,2.6 -3.2,3.6 -0.6,1.8 -1.3,4.9 -0.5,8.5 0.3,1.5 0.7,3.4 2.3,5.2 2.5,2.8 6.1,3.1 7.8,3.3 4.6,0.3 8.1,-1.6 9.5,-2.5 z"
   id="path33"
   inkscape:connector-curvature="0"
   style="fill:#1b0f00" />
	<path
   class="st4"
   d="m 177.2,87.6 c -0.3,-2.7 -1.3,-7.8 -5.1,-12.5 -0.3,-0.4 -1.7,-2.1 -4.1,-3.9 -5.1,-3.8 -11.4,-6.1 -17.8,-6.2 -2.5,0 -10.5,0 -17.9,5.9 -8.1,6.5 -9.7,15.5 -10,17.6 0.8,0.2 1.5,0.4 2.3,0.5 0.9,0.2 1.9,0.4 2.8,0.7 0.5,1.1 3.9,8.1 12.1,10.5 6.9,2 13.4,-1.5 17.2,-3.2 2.2,-1 3.6,-4.1 5.2,-5.9 1.2,-1.4 2.2,-2.2 3.6,-3.5 0.9,0.4 2.2,1 3.9,1.2 1.4,0.2 2.5,0.1 3.1,0 1.2,0 2.8,-0.3 4.7,-1.2 z"
   id="path35"
   inkscape:connector-curvature="0"
   style="fill:#6b6d12" />
	<path
   class="st6"
   d="m 166.1,87.8 c -1,-2.7 -3.1,-7.2 -7,-10.8 -2.1,-1.9 -3.7,-2.6 -4.4,-2.9 -2.3,-1 -4.3,-1 -5.8,-1.1 -1.5,0 -3.9,0.1 -6.7,1 -2.5,0.8 -4.7,2.3 -6.7,3.9 -3.9,3.1 -7.4,6.7 -9.6,11.2 2.2,5.1 7.1,9.7 12.4,11.4 5.3,1.7 11.1,1.3 16.2,-0.8 5.5,-2.1 9.9,-6.2 11.6,-11.9 z"
   id="path37"
   inkscape:connector-curvature="0"
   style="fill:#1b0f00" />
	<path
   class="st7"
   d="m 89.4,87.4 c -0.9,-0.2 -6.1,-1.8 -8.8,-7.1 -2.4,-4.7 -1.3,-9.2 -1,-10.3 -1.2,2.1 -1.3,4.3 -1.3,6.7 0,1.4 0,2.9 0.3,4.2 0.2,0.7 1,3.3 3.6,5.1 3.1,2.2 6.5,1.6 7.2,1.4 z"
   id="path39"
   inkscape:connector-curvature="0"
   style="fill:#818918" />
	<path
   class="st7"
   d="m 169.6,91.1 c -1.9,2.3 -5.9,6.8 -12.6,9.6 -9,3.8 -17.2,2.2 -20,1.5 0.2,0.5 0.7,0.9 1.1,1.2 6.7,3.3 16,3.2 22.5,-0.2 0.8,-0.4 1.5,-0.8 2.5,-1.6 4.3,-3.3 5.9,-8 6.5,-10.5 z"
   id="path41"
   inkscape:connector-curvature="0"
   style="fill:#818918" />
	<path
   class="st7"
   d="m 102.1,91.3 c -0.1,-0.4 -0.2,-0.8 -0.2,-1.2 0.1,-1.1 1,-2 2.1,-2.3 1.1,-0.3 2.2,-0.2 3.3,0 2.4,0.5 4.7,1.5 6.4,3.2 0.4,0.4 0.8,0.9 0.8,1.5 0,0.9 -0.8,1.5 -1.6,1.9 -2.8,1.4 -7.1,1.8 -9.4,-0.7 -0.7,-0.6 -1.2,-1.4 -1.4,-2.4 z"
   id="path43"
   inkscape:connector-curvature="0"
   style="fill:#818918" />
	<path
   class="st8"
   d="m 163.7,87.8 c -1.4,2 -4.3,5.9 -8.2,8.4 -1.5,1 -2.6,1.5 -3,1.7 -2.6,1.1 -4.9,1.2 -6,1.3 -1,0 -4.2,0 -7.7,-1.7 -0.2,-0.1 -3.6,-1.8 -5.9,-4.8 0,0 -1,-1.3 -1.5,-3.3 -0.3,-1 -0.2,-1.4 0,-1.8 0.3,-0.5 1,-0.6 1.9,-0.8 0.6,-0.1 1.6,-0.2 2.7,-0.1 0.4,0.9 1.5,3 3.8,4.3 3.6,2 7.3,0.5 8.2,0.2 0.9,-0.3 1.8,-0.8 2.6,-1.4 1.4,-1.2 2.4,-2.8 2.8,-4.6 0.1,-0.6 0.5,-3 -0.8,-5.3 -1.8,-3.1 -5.3,-3.5 -5.7,-3.6 0.5,0 6,-0.3 9.1,1.7 1.3,0.8 2.5,2 2.5,2 0.1,0.1 1,0.9 1.8,2 1.7,1.9 2.9,4.4 3.4,5.8 z"
   id="path45"
   inkscape:connector-curvature="0"
   style="fill:#49240c" />
	<path
   class="st8"
   d="m 102.5,74.4 c -0.1,0.3 -0.3,0.6 -0.6,1.1 -1.1,1.7 -2.7,2.5 -3.5,2.8 -0.1,0.1 -2.6,1.1 -5.3,0.7 -3.7,-0.6 -6.8,-3.9 -8.1,-8.4 -1.5,3 -2,6.7 -0.1,9.6 1.4,2.1 3.9,3.4 6.4,3.8 2.5,0.4 5.1,-0.1 7.5,-1 0.9,-0.3 1.8,-0.7 2.6,-1.3 0.2,-0.1 0.3,-0.2 0.4,-0.3 0.4,-2.3 0.6,-4.6 0.7,-7 z"
   id="path47"
   inkscape:connector-curvature="0"
   style="fill:#49240c" />
	<path
   class="st1"
   d="m 143.5,76.1 c -0.5,0.3 -0.9,0.9 -0.9,1.4 0,0.5 0.4,1 0.9,1.2 0.5,0.2 1,0.3 1.6,0.3 2.4,0.3 4.8,0.6 7,1.6 2,0.8 3.8,2.1 5.3,3.7 0.6,0.7 1.4,1.5 2.3,1.4 0.8,-0.1 1.4,-0.9 1.5,-1.7 0.1,-0.8 -0.3,-1.6 -0.7,-2.3 -1.6,-2.9 -4.4,-5.1 -7.6,-6.1 -2.7,-0.9 -6.9,-1.3 -9.4,0.5 z"
   id="path49"
   inkscape:connector-curvature="0"
   style="fill:#ffffff" />
	<path
   class="st1"
   d="m 99.9,62.5 c -0.1,-0.1 -0.3,-0.1 -0.4,-0.1 -1.4,-0.3 -3,-0.6 -4.5,-0.2 -0.5,0.1 -1,0.3 -1.3,0.7 -0.3,0.4 -0.5,0.9 -0.3,1.4 0.2,0.6 0.9,0.8 1.5,0.9 2,0.5 4.1,1.3 5.5,2.8 1.2,1.4 1.6,3.3 2,5.1 0,-0.4 0,-0.9 0,-1.3 0.2,-4.5 -0.4,-7.5 -2.5,-9.3 z"
   id="path51"
   inkscape:connector-curvature="0"
   style="fill:#ffffff" />
	<path
   class="st9"
   d="m 30.6,97.6 c 0,0 0,0 0,0 -4.3,7.5 -9,14.9 -11.4,23.3 -1.1,3.9 -1.6,8.1 -0.8,12.1 0.8,3.6 2.6,7.5 6.4,8.7 3.2,1 6.7,0 9.6,-1.3 3.2,-1.5 6.2,-3.5 8.9,-5.8 3.6,-3.2 6.6,-6.9 9.1,-11 2.5,-4.1 4.6,-8.4 5.9,-13 1.3,-4.4 2.2,-9.4 1.3,-14 -0.3,-1.6 -0.8,-3.3 -1.6,-4.8 0,0.1 0.1,0.3 0.1,0.4 0.2,1.7 -0.4,3.3 -1,4.8 -1.3,3.2 -3.4,5.9 -5.5,8.6 -2.1,2.6 -4.1,5.3 -6.5,7.6 -1.9,1.8 -4.4,3.7 -7.1,4.2 -3.2,0.6 -4.7,-2.4 -5.4,-5.1 -0.9,-3.7 -0.9,-7.6 -0.9,-11.3 0,-0.7 0,-1.4 0,-2.2 0,-0.2 0,-0.8 0,-0.8 0,0 -0.5,-0.1 -0.6,-0.1 -0.1,-0.1 -0.3,-0.2 -0.5,-0.3 z"
   id="path53"
   inkscape:connector-curvature="0"
   style="fill:#110b08" />
	<path
   class="st2"
   d="m 33.8,158 c 0.8,-0.1 1.5,-0.3 2.1,-0.4 0.1,0.1 0.2,0.1 0.3,0.2 1.4,-0.1 2.7,-0.2 4.1,-0.4 3.1,-0.4 6.5,-0.7 9.5,-2 4,-1.8 7,-5.3 9.3,-8.9 2.5,-3.8 4.4,-8 6,-12.3 1.8,-5 3,-10.2 3.7,-15.5 0.4,-3.2 0.7,-6.4 0.7,-9.7 0,-2.9 -0.2,-5.9 -0.2,-8.8 -0.5,-1.7 -1.2,-3.4 -1.9,-5 -1.4,-2.9 -3,-5.8 -5.6,-7.8 -2.2,-1.7 -4.8,-2.5 -7.5,-2.7 -0.1,0.4 -0.1,0.9 0,1.4 0.1,0.5 0.3,0.9 0.5,1.2 0.6,0.3 1.1,0.7 1.5,1.1 2.6,2.5 3.9,6.5 4.2,10 0.2,2.4 -0.1,4.9 -0.5,7.2 -0.4,2.6 -1.1,5.2 -2,7.7 -3.3,8.9 -8.9,17.5 -16.6,23.3 -2.8,2.1 -5.8,3.9 -9.2,5 -3,1 -6.5,1.3 -9.3,-0.5 -3.1,-2.1 -4.5,-6.1 -4.9,-9.6 -0.5,-4.2 0.3,-8.4 1.6,-12.3 2.5,-7.8 6.9,-14.7 10.9,-21.8 -0.8,-0.6 -1.4,-1.4 -1.9,-2.3 0,0 0,0 0,0 -5.9,6.5 -10.7,13.6 -14,21.8 -3.3,8.2 -4.8,17.2 -3.7,25.9 0.5,3.9 2.4,11 8,14 3.9,2 9.3,1.7 11.3,1.6 0.1,0 0.3,0 0.4,0 1,-0.2 2.1,-0.3 3.2,-0.4 z"
   id="path55"
   inkscape:connector-curvature="0"
   style="fill:#694a37" />
	<path
   class="st10"
   d="m 131.6,141.2 c 0,0 0,0 0,0 0,0.2 0,0.3 0,0.4 0,0 0,0 0,0 0,0.3 0.1,0.6 0.2,0.8 0.1,0.1 0.6,0.2 0.8,0.2 1.1,0.2 2.3,0.2 3.4,0.2 2.4,0 4.8,0.1 7.2,0.1 4.4,0 8.9,0.2 13.3,0.1 4.3,0 8.7,0 13,-0.4 2.2,-0.2 4.4,-0.6 6.5,-1.3 0.8,-0.3 1.9,-0.6 2.2,-1.4 0.5,-1 -0.4,-1.9 -1.2,-2.4 -1.4,-0.9 -3.2,-1.3 -4.7,-1.8 -1.4,-0.5 -2.9,-0.9 -4.3,-1.1 -1.4,0.8 -2.9,1.5 -4.5,2.1 -10.2,3.5 -21.1,4.4 -31.9,3.3 0,0.1 -0.1,0.1 -0.1,0.1 0.1,0.3 0.1,0.7 0.1,1.1 z"
   id="path57"
   inkscape:connector-curvature="0"
   style="fill:#261912" />
	<path
   class="st2"
   d="m 214,182.7 c 0,-0.8 -0.1,-1.6 -0.5,-2.3 -0.9,-1.7 -3.2,-2 -5.1,-2 -1.9,0 -4.1,0.2 -5.5,-1.1 -2.9,-2.5 -0.6,-8.2 -3.6,-10.6 -1.3,-1 -3.1,-1 -4.8,-0.8 -2.5,0.3 -4.4,0.2 -6.9,0.8 -1.8,-2.7 -3.5,-5.9 -3.1,-9.1 0.7,-5.2 6.6,-8.9 6.5,-14.2 0,-0.7 -0.1,-1.4 -0.5,-2 -0.3,-0.5 -0.6,-0.9 -1,-1.3 -0.7,-0.7 -1.3,-1.4 -2.2,-2.1 -0.9,-0.7 -1.7,-1.2 -2.5,-1.6 -0.6,-0.3 -1.5,-0.7 -2.6,-1 -0.7,-0.2 -1.3,-0.3 -2.5,-0.7 -1.4,-0.4 -2.9,-0.7 -4.3,-1 -1.5,-0.3 -3.1,-0.8 -4.6,-0.9 -0.7,0.6 -1.4,1 -2.1,1.5 1.6,0.3 3.2,0.7 4.7,1.3 1.6,0.5 3.5,1 4.8,2.1 0.9,0.8 1,2.1 0.1,3 -1.3,1.1 -3.4,1.4 -5,1.8 -4.5,0.9 -9.2,0.9 -13.8,0.9 -4.9,0.1 -9.8,-0.1 -14.7,-0.1 -2.4,0 -4.7,0 -7.1,-0.1 -2,-0.1 -4.1,0.2 -6,-0.5 -0.1,0 -0.1,-0.1 -0.1,-0.1 0,-0.3 -0.1,-0.6 -0.1,-0.9 0,0 0,0 0,0 0,-2.8 -0.5,-5.5 -0.5,-8.3 0,-0.1 0,-0.1 0.1,-0.1 -0.3,-1.7 -0.9,-3.3 -2,-4.7 -2.8,-3.5 -7.4,-3.9 -11.6,-4.1 -9.1,-0.5 -18.1,0.2 -27.2,-0.3 -3.6,-0.2 -7.4,-0.4 -10.7,-2.1 -2.7,-1.3 -4.9,-3.7 -6.6,-6 -0.8,-1.1 -1.6,-2.4 -2.1,-3.7 -0.6,-1.6 -0.5,-3.4 -0.4,-5 0,-2 -0.2,-3.9 -0.7,-5.8 0,3 0.2,6.1 0.2,9.1 -0.1,3.6 -0.5,7.2 -1.1,10.7 -0.8,5.1 -2.2,10 -4.1,14.8 -1.7,4.3 -3.8,8.5 -6.5,12.3 -2.4,3.3 -5.5,6.4 -9.4,7.7 -3.8,1.3 -7.9,1.6 -11.9,2 5,3 8.5,8.3 9.9,14 1.7,6.7 0.3,13.8 -2.1,20.2 -2.3,6.5 -5.5,12.6 -7.4,19.3 -2.6,8.8 -2.7,18.3 -0.5,27.3 0.4,1.5 1.1,2.7 1.1,2.7 0.8,1.6 2.6,3.3 3,3.6 5.3,4.4 33.5,9.9 33.5,9.9 3,0.6 6.8,1.3 12.1,2 2.1,0.3 5.4,0.9 9.7,0.9 7.5,0 14.9,0.1 22.4,0.1 24.7,0.1 49.8,0.2 73.4,-6.9 4.2,-1.3 4.4,-7.3 4.7,-11.6 0.8,-8.9 -0.7,-18 -4.4,-26.1 0.3,-0.2 0.5,-0.6 0.8,-0.9 1,-1.8 3,-2.9 4.6,-4 2.6,-1.7 5,-3.9 7.1,-6.1 1.2,-1.2 2.3,-2.5 3.2,-3.9 0.9,-1.3 1.7,-2.7 2.5,-4.1 1.3,-2.1 2.4,-4.3 3.3,-6.6 0.1,-1.8 0.1,-3.6 0.1,-5.3 z"
   id="path59"
   inkscape:connector-curvature="0"
   style="fill:#694a37" />
	<path
   class="st2"
   d="m 65.6,133.2 c 1,3.5 2.3,7 4.1,10.2 4.5,8 12.4,13.2 19.5,18.5 2.3,1.7 4.4,3.5 6.6,5.3 1.1,0.9 2.2,1.8 3.4,2.5 0.5,0.3 1.3,0.8 2,0.9 0,0 0,0 0,0 3.6,-1.7 6,-5.5 7.8,-8.9 4.1,-7.6 6.9,-16 9,-24.4 0.8,-3 1.1,-6.4 3.2,-8.9 1.1,-1.3 2.6,-2.2 4.3,-2.2 0.5,0 1,0.1 1.5,0.3 -2.8,-2 -6.4,-2.3 -9.8,-2.5 -9.1,-0.5 -18.1,0.2 -27.2,-0.3 -3.6,-0.2 -7.4,-0.4 -10.7,-2.1 -2.7,-1.3 -4.9,-3.7 -6.6,-6 -0.8,-1.1 -1.6,-2.4 -2.1,-3.7 -0.6,-1.6 -0.5,-3.4 -0.4,-5 0,-2 -0.2,-3.9 -0.7,-5.8 0,3 0.2,6.1 0.2,9.1 -0.1,3.6 -0.5,7.2 -1.1,10.7 -0.6,4.5 -1.6,8.5 -3,12.3 z"
   id="path61"
   inkscape:connector-curvature="0"
   style="fill:#694a37" />
	<path
   class="st11"
   d="m 68.1,145.9 c 1.1,2 2.5,3.9 4,5.7 1.6,1.8 3.5,3.4 5.5,4.9 3.4,2.6 6.7,5.3 9.8,8.2 1.7,1.5 3.3,3.1 4.9,4.6 1.5,1.5 3,3 4.7,4.4 1.8,1.5 3.8,2.6 6.2,2 2.1,-0.5 3.7,-1.9 5.3,-3.3 2.7,-2.5 4.7,-5.8 6.2,-9.1 1.5,-3.4 2.6,-6.9 3.5,-10.5 0.9,-3.4 1.3,-7 2.5,-10.4 0.5,-1.5 1.2,-3 2.2,-4.2 0.7,-0.9 1.8,-2 2.9,-1.1 1.1,0.9 1.5,2.5 2.6,3.5 0.6,0.6 1.4,0.9 2.3,1 0.2,0 0.4,0.1 0.6,0.1 0,0 0,-0.1 0,-0.1 0,0 0,0 0,0 0,-2.8 -0.5,-5.5 -0.5,-8.3 0,-0.1 0,-0.1 0.1,-0.1 -0.3,-1.7 -0.9,-3.3 -2,-4.7 -0.3,-0.3 -0.6,-0.6 -0.8,-0.9 -1.5,-0.7 -3,-1.1 -4.6,-0.2 -1.8,1 -2.9,2.8 -3.6,4.8 -0.5,1.5 -0.8,3.1 -1.2,4.6 -0.5,2 -1,3.9 -1.6,5.9 -1.2,4.1 -2.6,8.1 -4.3,12.1 -1.4,3.3 -2.9,6.7 -4.8,9.8 -1.5,2.4 -3.4,4.9 -5.9,6.3 0.1,0.1 0.1,0.2 0,0.3 -0.8,0.5 -1.9,-0.1 -2.6,-0.5 -1.4,-0.8 -2.7,-1.8 -3.9,-2.8 -1,-0.8 -2,-1.7 -3,-2.6 -1.5,-1.3 -3.1,-2.4 -4.6,-3.5 -3.7,-2.7 -7.5,-5.5 -10.9,-8.5 -3.4,-3.1 -6.3,-6.5 -8.4,-10.6 -1.4,-2.8 -2.5,-5.7 -3.3,-8.6 -0.3,0.8 -0.6,1.6 -0.9,2.4 -0.1,0.2 -0.1,0.3 -0.2,0.5 1,2.8 2.2,6 3.8,8.9 z"
   id="path63"
   inkscape:connector-curvature="0"
   style="fill:#4c362a" />
	<path
   class="st2"
   d="m 214,182.7 c 0,-0.8 -0.1,-1.6 -0.5,-2.3 -0.9,-1.7 -3.2,-2 -5.1,-2 -1.9,0 -4.1,0.2 -5.5,-1.1 -2.9,-2.5 -0.6,-8.2 -3.6,-10.6 -1.3,-1 -3.1,-1 -4.8,-0.8 -2.5,0.3 -4.4,0.2 -6.9,0.8 -1.8,-2.7 -3.5,-5.9 -3.1,-9.1 0.7,-5.2 6.6,-8.9 6.5,-14.2 0,-0.7 -0.1,-1.4 -0.5,-2 -0.3,-0.5 -0.6,-0.9 -1,-1.3 -0.7,-0.7 -1.3,-1.4 -2.2,-2.1 -0.9,-0.7 -1.7,-1.2 -2.5,-1.6 -0.6,-0.3 -1.5,-0.7 -2.6,-1 -0.7,-0.2 -1.3,-0.4 -2.5,-0.7 -1.4,-0.4 -2.9,-0.7 -4.3,-1 -1.5,-0.3 -3.1,-0.8 -4.6,-0.9 -0.7,0.6 -1.4,1 -2.1,1.5 1.6,0.3 3.2,0.7 4.7,1.3 1.6,0.5 3.5,1 4.8,2.1 0.9,0.8 1,2.1 0.1,3 -1.3,1.1 -3.4,1.4 -5,1.8 -4.5,0.9 -9.2,0.9 -13.8,0.9 -4.9,0.1 -9.8,-0.1 -14.7,-0.1 -2.4,0 -4.7,0 -7.1,-0.1 -2,-0.1 -4.1,0.2 -6,-0.5 -0.1,0 -0.1,-0.1 -0.1,-0.1 0,-0.1 0,-0.3 0,-0.4 -0.4,-0.1 -0.7,-0.1 -1,-0.2 -0.6,-0.2 -1.3,-0.4 -1.8,-0.8 -0.5,-0.4 -0.9,-0.9 -1.2,-1.5 -0.5,-0.8 -1,-2 -1.9,-2.4 -1.1,-0.5 -2.2,1.2 -2.8,2 -0.6,0.9 -1.1,1.9 -1.5,3 -0.7,2 -1.1,4 -1.5,6 -1.4,7 -3.3,14.4 -7.4,20.4 -1,1.4 -2.1,2.8 -3.3,3.9 -1.3,1.3 -2.8,2.5 -4.5,3.2 -1.7,0.7 -3.5,0.7 -5.1,-0.1 -1.8,-0.9 -3.4,-2.4 -4.9,-3.9 -3.2,-3.1 -6.4,-6.2 -9.8,-9.2 -1.8,-1.6 -3.6,-3.1 -5.5,-4.5 -1.7,-1.3 -3.4,-2.5 -4.9,-3.9 -5,-4.5 -8.1,-10.6 -10,-17 -1.6,4 -3.6,7.8 -6.1,11.3 -2.4,3.3 -5.5,6.4 -9.4,7.7 -3.8,1.3 -7.9,1.6 -11.9,2 5,3 8.5,8.3 9.9,14 1.7,6.7 0.3,13.8 -2.1,20.2 -2.3,6.5 -5.5,12.6 -7.4,19.3 -2.6,8.8 -2.7,18.3 -0.5,27.3 0.4,1.5 1.1,2.7 1.1,2.7 0.8,1.6 2.6,3.3 3,3.6 5.3,4.4 33.5,9.9 33.5,9.9 3,0.6 6.8,1.3 12.1,2 2.1,0.3 5.4,0.9 9.7,0.9 7.5,0 14.9,0.1 22.4,0.1 24.7,0.1 49.8,0.2 73.4,-6.9 4.2,-1.3 4.4,-7.3 4.7,-11.6 0.8,-8.9 -0.7,-18 -4.4,-26.1 0.3,-0.2 0.5,-0.6 0.8,-0.9 1,-1.8 3,-2.9 4.6,-4 2.6,-1.7 5,-3.9 7.1,-6.1 1.2,-1.2 2.3,-2.5 3.2,-3.9 0.9,-1.3 1.7,-2.7 2.5,-4.1 1.3,-2.1 2.4,-4.3 3.3,-6.6 0,-1.8 0,-3.6 0,-5.3 z"
   id="path65"
   inkscape:connector-curvature="0"
   style="fill:#694a37" />
	<path
   class="st12"
   d="m 79.9,154.9 c 0.3,-0.2 0.5,-0.6 0.6,-1 0.4,-1.8 -1,-4.1 -1.8,-5.6 -0.9,-1.7 -1.9,-3.4 -2.4,-5.3 -0.3,-0.9 -0.5,-1.9 -0.4,-2.8 0.1,-0.9 0.5,-1.8 0.7,-2.7 0.3,-1.4 -0.1,-2.4 -0.7,-3.6 -0.5,-0.9 -1.1,-1.7 -1.5,-2.6 -0.9,-1.8 -1.1,-3.9 -1.3,-5.8 -0.2,-3.2 0.1,-6.4 -0.1,-9.6 0,0 0,0 -0.1,-0.1 -0.8,-1.1 -1.6,-2.4 -2.1,-3.7 -0.6,-1.6 -0.5,-3.4 -0.4,-5 0,-2 -0.2,-3.9 -0.7,-5.8 0,3 0.2,6.1 0.2,9.1 -0.1,3.6 -0.5,7.2 -1.1,10.7 -0.6,4.1 -1.7,8.1 -3,11.9 1,3.5 2.3,7 4.1,10.2 2.4,4.8 6,8.5 10,11.7 z"
   id="path67"
   inkscape:connector-curvature="0"
   style="opacity:0.62999998;fill:#54392a" />
	<path
   class="st13"
   d="m 117.3,124.3 c -9.1,-0.5 -18.1,0.2 -27.2,-0.3 -2.9,-0.2 -6,-0.4 -8.9,-1.3 2.1,1.3 4.3,2.3 6.6,3.1 2.4,0.8 4.8,1.4 7.2,1.7 2,0.3 4,0.4 6,0.4 3.8,0.2 8.1,0.3 11.5,2.2 3.7,2 4.7,6 4.8,10 0.2,-0.9 0.5,-1.7 0.7,-2.6 0.8,-3 1.1,-6.4 3.2,-8.9 1.1,-1.3 2.6,-2.2 4.3,-2.2 0.5,0 1,0.1 1.5,0.3 -2.6,-1.9 -6.3,-2.2 -9.7,-2.4 z"
   id="path69"
   inkscape:connector-curvature="0"
   style="fill:#89653e" />
	<path
   class="st2"
   d="m 117.1,138.4 c -0.2,-2.2 -0.8,-4.6 -2.4,-6.3 -1.3,-1.5 -3.2,-2.3 -5.1,-2.8 -3.9,-1.1 -8,-0.9 -12,-1.2 -4.4,-0.3 -9,-1.5 -13.1,-3.3 -1.7,-0.8 -3.4,-1.7 -4.9,-2.8 -0.1,0 -0.2,-0.1 -0.2,-0.1 -2.5,-1.2 -4.5,-3.3 -6.2,-5.5 0.2,3.8 -0.3,7.7 0.4,11.5 0.2,1.3 0.6,2.7 1.3,3.9 0.5,0.9 1.2,1.8 1.6,2.7 0.4,0.8 0.6,1.6 0.5,2.6 -0.2,1.2 -0.8,2.3 -0.8,3.5 -0.1,4.4 3.8,7.7 4.6,11.9 0.2,0.9 0.1,2 -0.6,2.7 2.9,2.4 6.1,4.6 9.1,6.8 2.3,1.7 4.4,3.5 6.6,5.3 1.1,0.9 2.2,1.8 3.4,2.5 0.5,0.3 1.3,0.8 2,0.9 0,0 0,0 0,0 3.6,-1.7 6,-5.5 7.8,-8.9 3.5,-6.4 6,-13.5 8,-20.6 0.1,-0.8 0.1,-1.8 0,-2.8 z"
   id="path71"
   inkscape:connector-curvature="0"
   style="fill:#694a37" />
	<path
   class="st11"
   d="m 75.2,154.5 c 0.8,0.4 1.6,0.7 2.4,0.9 0.7,0.2 1.5,0.1 2,-0.3 -0.8,-0.7 -1.7,-1.4 -2.5,-2.1 -3.4,-3.1 -6.3,-6.5 -8.4,-10.6 -1.4,-2.8 -2.5,-5.7 -3.3,-8.6 -0.3,0.8 -0.6,1.6 -0.9,2.4 -0.1,0.2 -0.1,0.3 -0.2,0.5 0.9,3.2 2.1,6.3 3.8,9.2 1.1,2 2.5,3.9 4,5.7 1,1 2,2 3.1,2.9 z"
   id="path73"
   inkscape:connector-curvature="0"
   style="fill:#4c362a" />
	<path
   class="st12"
   d="m 131.3,141.6 c 0,0 0,0 0,0 0,-2.8 -0.5,-5.6 -0.5,-8.3 0,-0.1 0,-0.1 0.1,-0.1 -0.3,-1.7 -0.9,-3.3 -2,-4.7 -0.3,-0.3 -0.6,-0.6 -0.8,-0.9 -1.5,-0.7 -3,-1.1 -4.6,-0.2 -1.8,1 -2.9,2.8 -3.6,4.8 -0.5,1.5 -0.8,3.1 -1.2,4.6 -0.5,2 -1,3.9 -1.6,5.9 -1.2,4.1 -2.6,8.1 -4.3,12.1 -1.4,3.3 -2.9,6.7 -4.8,9.8 -1.5,2.4 -3.4,4.9 -5.9,6.3 0.1,0.1 0.1,0.2 0,0.3 -0.8,0.5 -1.9,-0.1 -2.6,-0.5 -1.4,-0.8 -2.7,-1.8 -3.9,-2.8 -1,-0.8 -2,-1.7 -3,-2.6 -1.5,-1.3 -3.1,-2.4 -4.6,-3.5 -2.8,-2 -5.5,-4 -8.2,-6.2 -0.1,0.1 -0.2,0.1 -0.3,0.2 -0.9,0.5 -2,0.2 -2.9,-0.1 -0.2,-0.1 -0.4,-0.2 -0.6,-0.3 0.5,0.4 1,0.8 1.5,1.2 3.4,2.6 6.7,5.3 9.8,8.2 1.7,1.5 3.3,3.1 4.9,4.6 1.5,1.5 3,3 4.7,4.4 1.8,1.5 3.8,2.6 6.2,2 2.1,-0.5 3.7,-1.9 5.3,-3.3 2.7,-2.5 4.7,-5.8 6.2,-9.1 1.5,-3.4 2.6,-6.9 3.5,-10.5 0.9,-3.4 1.3,-7 2.5,-10.4 0.5,-1.5 1.2,-3 2.2,-4.2 0.7,-0.9 1.8,-2 2.9,-1.1 1.1,0.9 1.5,2.5 2.6,3.5 0.6,0.6 1.4,0.9 2.3,1 0.3,-0.1 0.5,-0.1 0.7,-0.1 0,0 0,0 0,0 z"
   id="path75"
   inkscape:connector-curvature="0"
   style="opacity:0.62999998;fill:#54392a" />
	<path
   class="st2"
   d="m 115.9,171.4 c 2.8,1 5.7,1.9 8.5,2.6 6,1.3 12.3,1.1 18.4,1.2 6.4,0.1 12.8,0.2 19.2,-0.1 3.2,-0.1 6.3,-0.3 9.4,-0.7 3.1,-0.4 6.3,-0.8 9.4,-1.6 2,-0.5 3.9,-1.5 5.1,-3.2 0.7,-1 1.2,-2.1 1.4,-3.3 -1.7,-2.6 -3.2,-5.6 -2.8,-8.7 0.7,-5.2 6.6,-8.9 6.5,-14.2 0,-0.7 -0.1,-1.4 -0.5,-2 -0.3,-0.5 -0.6,-0.9 -1,-1.3 -0.7,-0.7 -1.3,-1.4 -2.2,-2.1 -0.9,-0.7 -1.7,-1.2 -2.4,-1.6 -0.6,-0.3 -1.6,-0.7 -2.7,-1.1 -0.7,-0.2 -1.3,-0.3 -2.5,-0.7 -1.4,-0.4 -2.9,-0.7 -4.3,-1 -1.5,-0.3 -3.1,-0.8 -4.6,-0.9 -0.7,0.6 -1.4,1 -2.1,1.5 1.6,0.3 3.2,0.7 4.7,1.3 1.6,0.5 3.5,1 4.8,2.1 0.9,0.8 1,2.1 0.1,3 -1.3,1.1 -3.4,1.4 -5,1.8 -4.5,0.9 -9.2,0.9 -13.8,0.9 -4.9,0.1 -9.8,-0.1 -14.7,-0.1 -2.4,0 -4.7,0 -7.1,-0.1 -2,-0.1 -4.1,0.2 -6,-0.5 -0.1,0 -0.1,-0.1 -0.1,-0.1 0,-0.1 0,-0.3 0,-0.4 -0.4,-0.1 -0.7,-0.1 -1,-0.2 -0.6,-0.2 -1.3,-0.4 -1.8,-0.8 -0.5,-0.4 -0.9,-0.9 -1.2,-1.5 -0.5,-0.8 -1,-2 -1.9,-2.4 -1.1,-0.5 -2.2,1.2 -2.8,2 -0.6,0.9 -1.1,1.9 -1.5,3 -0.7,2 -1.1,4 -1.5,6 -1.4,7 -3.3,14.4 -7.4,20.4 -0.2,0.3 -0.4,0.5 -0.6,0.8 1.1,0.8 2.5,1.4 4,2 z"
   id="path77"
   inkscape:connector-curvature="0"
   style="fill:#694a37" />
	<path
   class="st13"
   d="m 37.1,211.5 c -0.9,3.1 -1.5,6.2 -1.8,9.4 0.6,-1.6 1.3,-3.2 2.1,-4.7 2.5,-4.9 5.8,-9.4 8.3,-14.3 2.7,-5.3 4.6,-11 4.7,-17 0.1,-5.5 -1.2,-11.1 -4.1,-15.9 -0.7,-1.2 -1.6,-2.5 -2.6,-3.7 1.3,2.1 2.3,4.4 2.9,6.8 1.7,6.7 0.3,13.8 -2.1,20.2 -2.3,6.4 -5.5,12.6 -7.4,19.2 z"
   id="path79"
   inkscape:connector-curvature="0"
   style="fill:#89653e" />
	<path
   class="st14"
   d="m 184.2,185.4 c -2.4,2.2 -3.5,3.3 -4,3.7 -1.6,1.3 -3.1,2.4 -4.3,3.2 1.9,-0.7 3.7,-2 5.4,-3.1 2.4,-1.6 4.8,-3.4 6.9,-5.4 2,-1.8 4,-3.8 5.5,-6.2 1,-1.6 2,-3.8 0.9,-5.6 -1.6,-2.7 -5.2,-2.3 -8,-2.9 -0.2,0.3 -0.3,0.5 -0.5,0.8 -0.8,1 -1.7,1.7 -2.8,2.3 1.3,1.5 2.8,2.9 3.9,4.6 0.8,1.4 1.1,2.8 0.4,4.3 -0.7,1.6 -1.9,2.8 -3.4,4.3 z"
   id="path81"
   inkscape:connector-curvature="0"
   style="fill:#4f3425" />
	<path
   class="st2"
   d="m 92.1,169.5 c -2.5,-2.4 -4.9,-4.7 -7.5,-7 -1.4,-1.2 -2.8,-2.4 -4.3,-3.6 1.5,2.5 2.9,4.9 4.3,7.4 1.7,2.8 3.5,5.7 5.5,8.3 2.1,2.6 4.5,4.8 7.1,6.9 5.6,4.5 11.7,9 18.7,11.1 3.5,1 7.1,1.4 10.7,0.8 2.7,-0.5 5.4,-1.3 8,-2 2.8,-0.8 5.7,-1.7 8.3,-3 2.4,-1.1 4.8,-2.6 6.3,-4.8 -2.7,-0.9 -5.5,-0.9 -8.3,-0.9 -2.9,0 -5.7,-0.2 -8.5,-0.3 -2.8,-0.1 -5.7,-0.3 -8.5,-0.6 -2.4,-0.3 -4.8,-0.8 -7.1,-1.2 -4.6,-0.8 -9.3,-1.7 -13.7,-3.4 -0.8,-0.3 -1.6,-0.7 -2.4,-1.1 -0.5,-0.1 -0.9,-0.3 -1.4,-0.5 -1.6,-0.8 -3,-2 -4.3,-3.3 -1,-0.9 -2,-1.8 -2.9,-2.8 z"
   id="path83"
   inkscape:connector-curvature="0"
   style="fill:#694a37" />
	<path
   class="st15"
   d="m 161,175.4 c -6.7,0.2 -13.5,0.1 -20.2,0 -6.3,0 -12.6,0 -18.8,-1.7 -3.6,-1 -7.4,-2.1 -10.7,-4.1 -0.8,1 -1.6,2 -2.5,2.9 -1.3,1.3 -2.8,2.5 -4.5,3.2 -0.9,0.3 -1.8,0.5 -2.7,0.5 1.3,0.6 2.6,1.1 4,1.6 4.4,1.4 9,2.1 13.6,2.9 2.6,0.4 5.2,0.9 7.9,1.1 2.8,0.2 5.6,0.3 8.5,0.5 4.6,0.3 9.5,-0.5 13.9,1.1 0.1,0 0.2,0.2 0.1,0.3 -1.6,2.5 -4.3,4.1 -7,5.3 -3,1.4 -6.3,2.4 -9.5,3.2 -2.8,0.7 -5.6,1.6 -8.5,1.8 -3.5,0.3 -7,-0.3 -10.4,-1.5 -6.8,-2.4 -12.7,-6.9 -18.2,-11.4 -5.3,-4.3 -9.1,-9.8 -12.5,-15.7 -1.4,-2.3 -2.7,-4.7 -4.1,-7 -0.1,-0.1 -0.3,-0.2 -0.4,-0.3 -1.7,-1.3 -3.4,-2.5 -4.9,-3.9 -5,-4.5 -8.1,-10.6 -10,-17 -1.6,4 -3.6,7.8 -6.1,11.3 -2.4,3.3 -5.5,6.4 -9.4,7.7 -3.8,1.3 -7.9,1.6 -11.9,2 2.3,1.4 4.2,3.2 5.8,5.3 1.7,1.7 3.2,3.8 4.3,5.7 2.8,4.7 4.1,10.2 4,15.6 -0.1,5.9 -1.9,11.5 -4.5,16.8 -2.5,5.1 -5.9,9.7 -8.5,14.7 -1,1.9 -1.9,4 -2.6,6 -0.4,5.5 0,11.1 1.4,16.5 0.4,1.5 1.1,2.7 1.1,2.7 0.5,0.9 1.3,1.9 1.9,2.6 -1.4,-4.4 -1.6,-9.2 -1.1,-13.8 0.6,-5.6 2.5,-10.8 5.4,-15.6 3.1,-5.1 6.6,-10.1 9.1,-15.5 2.6,-5.5 4.3,-11.6 3.1,-17.7 -0.6,-2.9 -1.6,-5.7 -2.7,-8.5 -1.1,-2.8 -2.4,-5.7 -4.1,-8.2 -0.1,-0.1 0,-0.2 0.1,-0.3 3.7,-1.2 7.1,-3.2 9.8,-6 2.7,-2.9 4.3,-6.6 4.8,-10.4 0,-0.2 0.3,-0.2 0.3,0 1.4,5.2 4.4,9.9 7.4,14.3 3,4.3 6,8.5 9.6,12.4 6.2,6.7 13.3,12.6 20.8,17.8 7.3,5.1 16,10 25.2,9.4 4.4,-0.3 8.5,-2 12.3,-3.9 4.1,-2.1 8.1,-4.2 12,-6.6 3.8,-2.3 7.1,-5.1 10.5,-8 2.9,-2.4 6.2,-5 7.7,-8.5 -2.9,0.1 -5.8,0.3 -8.8,0.4 z"
   id="path85"
   inkscape:connector-curvature="0"
   style="opacity:0.62999998;fill:#4f3425" />
	<path
   class="st15"
   d="m 192.6,216.1 c -0.2,7.1 2.3,14.6 -0.2,21.5 -2,5.8 -7.2,9.3 -12.8,11.4 -3,1.1 -6.1,1.9 -9.2,2.6 -3.9,0.9 -7.9,1.7 -11.8,2.3 -4.7,0.8 -9.5,1.3 -14.3,0.9 -4.6,-0.4 -9.1,-1.5 -13.6,-2.6 -9.2,-2.2 -18.5,-4.3 -27.9,-2.3 -4.6,1 -9.2,2.1 -13.8,2.8 -4.6,0.7 -9.2,0.8 -13.8,0.2 -4.8,-0.7 -9.5,-1.8 -14.1,-3 -4,-1 -8,-1.9 -11.5,-4 -5.9,-3.3 -8.9,-9 -10.7,-15.2 0,0.2 -0.1,0.4 -0.1,0.6 -0.4,4.4 0,9.1 1.4,13.3 0.3,0.2 0.5,0.4 0.6,0.5 5.3,4.4 33.5,9.9 33.5,9.9 3,0.6 6.8,1.3 12.1,2 2.1,0.3 5.4,0.9 9.7,0.9 7.5,0 14.9,0.1 22.4,0.1 24.7,0.1 49.8,0.2 73.4,-6.9 4.2,-1.3 4.4,-7.3 4.7,-11.6 0.8,-8.5 -0.6,-17.1 -3.9,-25 -0.1,0.6 -0.1,1 -0.1,1.6 z"
   id="path87"
   inkscape:connector-curvature="0"
   style="opacity:0.62999998;fill:#4f3425" />
	<path
   class="st15"
   d="m 214,182.7 c 0,-0.8 -0.1,-1.6 -0.5,-2.3 -0.7,-1.3 -2.3,-1.8 -3.9,-2 0.3,0.6 0.6,1.2 0.8,1.8 2.2,6.9 -2.4,13.3 -6.9,18.1 -2.4,2.5 -5,4.9 -7.3,7.5 -1.8,2 -2.8,4.3 -3.3,6.8 0,0 0,-0.1 0.1,-0.1 1,-1.8 3,-2.9 4.6,-4 2.6,-1.7 5,-3.9 7.1,-6.1 1.2,-1.2 2.3,-2.5 3.2,-3.9 0.9,-1.3 1.7,-2.7 2.5,-4.1 1.3,-2.1 2.4,-4.3 3.3,-6.6 0.3,-1.6 0.3,-3.4 0.3,-5.1 z"
   id="path89"
   inkscape:connector-curvature="0"
   style="opacity:0.62999998;fill:#4f3425" />
	<path
   class="st15"
   d="m 144.6,225 c -10.9,-0.8 -30.1,-7.4 -45.2,-19.8 -2.6,-2.1 -4.2,-3.7 -7.2,-6.6 -5.4,-5.3 -12.6,-12.5 -19.1,-23.1 -1.3,-2.2 -3.1,-5.3 -4.9,-9.1 0.2,1.8 0.7,4.7 1.7,8.1 1.4,5 2.7,6.8 5.9,15.2 2.5,6.7 2.7,8.1 2.5,9.7 -0.4,2.5 -2,4.8 -1.5,7.3 0.5,2.6 3,4.1 5.3,5.4 7.6,4.3 15.2,8.5 23.4,11.6 6.5,2.5 13.4,4.2 20.3,5.1 8,1 13.6,-0.3 18.2,-1.1 1.5,-0.3 5.8,-1 5.7,-1.7 -0.1,-0.6 -3.9,-0.9 -5.1,-1 z"
   id="path91"
   inkscape:connector-curvature="0"
   style="opacity:0.62999998;fill:#4f3425" />
	<path
   class="st16"
   d="m 117.5,165 c 1.6,-3.1 2.7,-6.3 3.4,-9.8 0.7,-3.3 1.1,-6.9 2.4,-10.1 0.8,-1.9 2.1,-3.3 4.2,-3.6 0.5,-0.1 1,-0.1 1.5,-0.1 -0.2,-0.1 -0.4,-0.2 -0.6,-0.4 -0.5,-0.4 -0.9,-0.9 -1.2,-1.5 -0.5,-0.8 -1,-2 -1.9,-2.4 -1.1,-0.5 -2.2,1.2 -2.8,2 -0.6,0.9 -1.1,1.9 -1.5,3 -0.7,2 -1.1,4 -1.5,6 -1.4,7 -3.3,14.4 -7.4,20.4 -0.2,0.3 -0.4,0.5 -0.6,0.8 0.8,0.5 1.6,0.9 2.5,1.2 1.4,-1.7 2.5,-3.6 3.5,-5.5 z"
   id="path93"
   inkscape:connector-curvature="0"
   style="fill:#382721" />
	<path
   class="st2"
   d="m 184.5,157.6 c 0.7,-5.2 6.6,-8.9 6.5,-14.2 0,-0.7 -0.1,-1.4 -0.5,-2 -0.3,-0.5 -0.6,-0.9 -1,-1.3 -0.7,-0.7 -1.3,-1.4 -2.2,-2.1 -0.9,-0.7 -1.7,-1.2 -2.4,-1.6 -0.6,-0.3 -1.6,-0.7 -2.7,-1.1 -0.7,-0.2 -1.3,-0.3 -2.5,-0.7 -1.4,-0.4 -2.9,-0.7 -4.3,-1 -1.5,-0.3 -3.1,-0.8 -4.6,-0.9 -0.7,0.6 -1.4,1 -2.1,1.5 1.6,0.3 3.2,0.7 4.7,1.3 1.6,0.5 3.5,1 4.8,2.1 0.9,0.8 1,2.1 0.1,3 -1.3,1.1 -3.4,1.4 -5,1.8 -4.5,0.9 -9.2,0.9 -13.8,0.9 -4.9,0.1 -9.8,-0.1 -14.7,-0.1 -2.4,0 -4.7,0 -7.1,-0.1 -2,-0.1 -4.1,0.2 -6,-0.5 -0.1,0 -0.1,-0.1 -0.1,-0.1 0,-0.1 0,-0.3 0,-0.4 -0.4,-0.1 -0.7,-0.1 -1,-0.2 0,0 -0.1,0 -0.1,0 -1.2,-0.1 -2.5,-0.1 -3.6,0.3 -2.7,1 -3.4,4.3 -4,6.8 -0.8,3.2 -1.3,6.5 -2.2,9.7 -1.2,4.3 -3.4,8.5 -6.1,12.2 0.5,0.2 1,0.4 1.5,0.6 2.8,1 5.7,1.9 8.5,2.6 6,1.3 12.3,1.1 18.4,1.2 6.4,0.1 12.8,0.2 19.2,-0.1 3.2,-0.1 6.3,-0.3 9.4,-0.7 3.1,-0.4 6.3,-0.8 9.4,-1.6 2,-0.5 3.9,-1.5 5.1,-3.2 0.7,-1 1.2,-2.1 1.4,-3.3 -1.8,-2.8 -3.4,-5.7 -3,-8.8 z"
   id="path95"
   inkscape:connector-curvature="0"
   style="fill:#694a37" />
	<path
   class="st2"
   d="m 180.3,172.9 c 2.1,-1.7 4.5,-4.2 3.6,-7.1 -0.3,-1 -1,-1.7 -1.5,-2.5 -0.5,-0.9 -1,-1.8 -1.2,-2.8 -0.4,-1.8 0.1,-3.6 0.9,-5.3 1.8,-3.6 4.8,-6.5 6.1,-10.5 0.6,-1.9 0.8,-3.8 0.4,-5.6 -0.3,-0.3 -0.7,-0.7 -1.2,-1.1 -0.9,-0.7 -1.7,-1.2 -2.4,-1.6 -0.6,-0.3 -1.6,-0.7 -2.7,-1.1 -0.7,-0.2 -1.3,-0.3 -2.5,-0.7 -1.4,-0.4 -2.9,-0.7 -4.3,-1 -1.5,-0.3 -3.1,-0.8 -4.6,-0.9 -0.7,0.6 -1.4,1 -2.1,1.5 1.6,0.3 3.2,0.7 4.7,1.3 1.6,0.5 3.5,1 4.8,2.1 0.9,0.8 1,2.1 0.1,3 -1.3,1.1 -3.4,1.4 -5,1.8 -4.5,0.9 -9.2,0.9 -13.8,0.9 -4.9,0.1 -9.8,-0.1 -14.7,-0.1 -2.4,0 -4.7,0 -7.1,-0.1 -2,-0.1 -4.1,0.2 -6,-0.5 -0.1,0 -0.1,-0.1 -0.1,-0.1 0,-0.1 0,-0.3 0,-0.4 -0.4,-0.1 -0.7,-0.1 -1,-0.2 0,0 -0.1,0 -0.1,0 -1.2,-0.1 -2.5,-0.1 -3.6,0.3 -2.7,1 -3.4,4.3 -4,6.8 -0.8,3.2 -1.3,6.5 -2.2,9.7 -1.2,4.3 -3.4,8.5 -6.1,12.2 0.5,0.2 1,0.4 1.5,0.6 2.8,1 5.7,1.9 8.5,2.6 6,1.3 12.3,1.1 18.4,1.2 6.4,0.1 12.8,0.2 19.2,-0.1 3.2,-0.1 6.3,-0.3 9.4,-0.7 2.7,-0.5 5.7,-0.9 8.6,-1.6 z"
   id="path97"
   inkscape:connector-curvature="0"
   style="fill:#694a37" />
	<path
   class="st13"
   d="m 184.5,157.6 c 0.7,-5.2 6.6,-8.9 6.5,-14.2 0,-0.7 -0.1,-1.4 -0.5,-2 -0.3,-0.5 -0.6,-0.9 -1,-1.3 -0.2,-0.2 -0.4,-0.4 -0.5,-0.6 0.3,1.7 0.1,3.5 -0.5,5.3 -1.3,4.1 -4.6,7.1 -6.3,11 -1.1,2.4 -1,4.9 0.4,7.2 0.9,1.4 1.9,2.5 1.8,4.3 -0.1,2.2 -1.6,4 -3.3,5.4 1.9,-0.5 3.6,-1.5 4.8,-3.1 0.7,-1 1.2,-2.1 1.4,-3.3 -1.6,-2.7 -3.2,-5.6 -2.8,-8.7 z"
   id="path99"
   inkscape:connector-curvature="0"
   style="fill:#89653e" />
	<path
   class="st12"
   d="m 184.5,143.2 c -1.1,0.9 -2.3,1.4 -3.6,1.9 -1.7,0.7 -3.4,1.2 -5.1,1.7 -3.3,0.9 -6.8,1.5 -10.2,1.8 -1.9,0.2 -3.8,0.2 -5.7,0.2 -1.9,0 -3.8,0 -5.7,-0.1 -3.6,-0.2 -7.2,-0.7 -10.8,-0.3 -1.2,0.3 -2.5,0.7 -3,1.7 -0.9,1.7 1.7,2.8 1.8,4.4 0.2,1.5 -1.2,2.6 -2.3,3.2 -1.3,0.7 -2.8,1.3 -4.2,1.7 -1.4,0.4 -3.2,0.7 -4.4,1.8 -1.8,1.6 0.2,2.9 1.7,3.5 3.8,1.5 8.4,1.3 12.4,1.2 8.5,-0.3 17.2,-0.7 25.3,-3.4 4,-1.3 7.7,-3.4 10.8,-6.1 0.2,-0.5 0.4,-1 0.6,-1.4 1.8,-3.6 4.8,-6.5 6.1,-10.5 0.6,-1.9 0.8,-3.8 0.4,-5.6 -0.3,-0.3 -0.7,-0.6 -1.1,-1 -0.7,2.1 -1.3,4 -3,5.3 z"
   id="path101"
   inkscape:connector-curvature="0"
   style="opacity:0.62999998;fill:#54392a" />
	<path
   class="st2"
   d="m 182.4,163.2 c -0.5,-0.9 -1,-1.8 -1.2,-2.8 -0.2,-1.1 -0.1,-2.2 0.1,-3.2 -0.5,0.4 -1,0.9 -1.5,1.3 -3.4,2.5 -7.3,4.1 -11.4,5.3 -4.5,1.2 -9.1,1.8 -13.7,2.1 -4.6,0.3 -9.3,0.7 -13.9,0.5 -2.2,-0.1 -4.4,-0.3 -6.6,-0.8 -1.3,-0.3 -3,-0.8 -3.7,-2 -0.7,-1.1 0.1,-2.2 1.1,-2.8 1.3,-0.8 2.8,-1.1 4.2,-1.5 1.5,-0.4 3.2,-1.1 4.5,-2 0.9,-0.6 1.9,-1.7 1.5,-2.9 -0.3,-0.8 -1,-1.4 -1.4,-2.1 -1.3,-2.2 0.6,-3.2 2.4,-3.8 0,-0.1 0,-0.2 0.1,-0.2 0.2,0 0.4,0 0.6,-0.1 0.4,-0.1 0.7,-0.2 1,-0.3 0.1,0 0.2,0.1 0.2,0.2 3.2,-0.2 6.4,0.3 9.6,0.4 7.2,0.3 14.3,-0.1 21.2,-1.9 1.6,-0.4 3.3,-1 4.8,-1.6 1.5,-0.6 3,-1.2 4.2,-2.3 1.4,-1.3 2,-3.1 2.6,-4.8 -0.8,-0.6 -1.6,-1.1 -2.3,-1.5 -0.6,-0.3 -1.6,-0.7 -2.7,-1.1 -0.7,-0.2 -1.3,-0.3 -2.5,-0.7 -1.4,-0.4 -2.9,-0.7 -4.3,-1 -1.5,-0.3 -3.1,-0.8 -4.6,-0.9 -0.7,0.6 -1.4,1 -2.1,1.5 1.6,0.3 3.2,0.7 4.7,1.3 1.6,0.5 3.5,1 4.8,2.1 0.9,0.8 1,2.1 0.1,3 -1.3,1.1 -3.4,1.4 -5,1.8 -4.5,0.9 -9.2,0.9 -13.8,0.9 -4.9,0.1 -9.8,-0.1 -14.7,-0.1 -2.4,0 -4.7,0 -7.1,-0.1 -2,-0.1 -4.1,0.2 -6,-0.5 -0.1,0 -0.1,-0.1 -0.1,-0.1 0,-0.1 0,-0.3 0,-0.4 -0.4,-0.1 -0.7,-0.1 -1,-0.2 0,0 -0.1,0 -0.1,0 -1.2,-0.1 -2.5,-0.1 -3.6,0.3 -2.7,1 -3.4,4.3 -4,6.8 -0.8,3.2 -1.3,6.5 -2.2,9.7 -1.2,4.3 -3.4,8.5 -6.1,12.2 0.5,0.2 1,0.4 1.5,0.6 2.8,1 5.7,1.9 8.5,2.6 6,1.3 12.3,1.1 18.4,1.2 6.4,0.1 12.8,0.2 19.2,-0.1 3.2,-0.1 6.3,-0.3 9.4,-0.7 2.9,-0.3 5.9,-0.7 8.8,-1.5 2.1,-1.7 4.5,-4.2 3.6,-7.1 -0.4,-1.1 -1,-1.8 -1.5,-2.7 z"
   id="path103"
   inkscape:connector-curvature="0"
   style="fill:#694a37" />
	<path
   class="st0"
   d="M 41.2,96.4 C 42.3,95.7 42.9,94.3 42,93.2 41.3,92.4 40.3,92 39.8,91 c -0.5,-1 -0.9,-4.2 -2.6,-3.3 -1.2,0.7 -2.1,2 -3,2.9 -1.7,1.6 -4,2 -6.2,2.7 0.2,0.3 0.4,0.6 0.5,1 0.4,0.6 0.8,1.3 1.3,1.9 1.6,0.8 3.4,1.3 5.3,1.3 1.8,0 4.4,0 6.1,-1.1 z"
   id="path105"
   inkscape:connector-curvature="0"
   style="fill:#99a82c" />
	<path
   class="st0"
   d="m 55.2,95.1 c -0.5,-0.8 -1.3,-1.5 -2.2,-1.7 -1.2,-0.3 -2.1,0.5 -2.9,1.2 -2.7,2.5 -5.5,4.7 -9.1,5.8 -1.5,0.5 -3,0.9 -4.2,2 -1.1,0.9 -1.6,2.3 -1.7,3.7 -0.1,2.4 0.6,4.9 1.7,7 0.6,1.3 1.6,2.7 2.9,3.3 0.6,-0.3 1.2,-0.6 1.7,-0.9 2.6,-1.5 4.7,-3.7 6.5,-6 2,-2.4 4,-4.8 5.8,-7.4 0.9,-1.2 1.7,-2.5 2.4,-3.9 0,0 0,-0.1 0,-0.1 -0.1,-1 -0.3,-2 -0.9,-3 z"
   id="path107"
   inkscape:connector-curvature="0"
   style="fill:#99a82c" />
	<path
   class="st0"
   d="m 47.7,73.9 c -0.9,1 -1.9,2 -2.7,3.2 -1.6,2.3 -2.5,5.3 -2.7,8.1 -0.1,2.1 0,5.2 1.7,6.7 1.3,1.1 3,0.7 4.3,-0.1 1.7,-1.1 2.8,-2.6 3.5,-4.5 0.5,-1.2 0.9,-2.4 1.5,-3.5 0.5,-1 1.2,-1.8 2,-2.6 1.6,-1.7 3.7,-3 5.1,-4.9 1.3,-1.8 1.6,-4.4 0.2,-6.3 -1,-1.4 -2.6,-1.7 -4.3,-1.6 -1.1,0.2 -2.1,0.6 -3,1.2 -1.1,0.7 -2.1,1.5 -3.1,2.4 -0.8,0.7 -1.5,1.5 -2.5,1.9 0.1,0 0,0 0,0 z"
   id="path109"
   inkscape:connector-curvature="0"
   style="fill:#99a82c" />
	<path
   class="st17"
   d="m 105.5,119.2 c -2.1,0.4 -4.4,0.4 -6.4,-0.4 -2.4,-0.9 -4.2,-2.8 -5.5,-4.9 0.1,3.7 2.3,6.4 5.7,7.9 5.5,2.5 13.4,2.8 18.3,-1.3 1.1,-0.9 2,-2.2 2.1,-3.6 0.1,-1.9 -1.2,-3.4 -2.5,-4.6 -1.5,-1.4 -3,-2.8 -4.7,-4.1 -1.2,-0.9 -2.4,-1.7 -3.8,-2.2 2,1.6 4.1,3.1 4.5,5.8 0.6,4.4 -3.9,6.7 -7.7,7.4 z"
   id="path111"
   inkscape:connector-curvature="0"
   style="opacity:0.51000001;fill:#858c25" />
	<path
   class="st7"
   d="m 61.4,68.9 c -0.9,-0.5 -1.8,-0.7 -2.8,-0.7 1.2,0.3 2.2,0.9 2.8,2.3 0.9,2.1 0.6,4.3 -0.8,6.1 -1.7,2.1 -4.1,3.6 -5.8,5.6 -1.9,2.2 -2.2,5.2 -3.8,7.5 -1,1.3 -2.3,2.5 -3.9,3 -4.7,1.4 -5.4,-5 -5,-8.1 0.3,-2.6 1.1,-5.3 2.5,-7.5 0.8,-1.1 1.7,-2.1 2.6,-3 -1.2,0.2 -2.1,-0.6 -2.3,-1.9 -0.2,-2 0.4,-4 0.7,-6 0.3,-2.8 -0.4,-6 -2.4,-8.1 -0.5,-0.5 -1.1,-1 -1.8,-1.3 0.4,0.6 0.8,1.2 1.1,1.8 1.7,3.6 -1.5,7.8 -5,8.7 -1.8,0.5 -3.8,0.2 -5.3,-1 -0.5,-0.4 -0.9,-0.9 -1.3,-1.4 0.1,0.5 0.3,1 0.5,1.4 1.4,3.4 4.3,6.2 4.5,9.9 0,0.4 0,0.8 -0.2,1.2 -0.3,0.6 -0.9,1 -1.6,1.2 -2.2,0.6 -4.2,-0.6 -6.3,-1.6 1,1 1.9,2.2 2.3,3.6 1.4,3.9 -1.2,7.4 -4.8,8.8 -1.6,0.6 -3.3,0.8 -4.9,0.6 0,0 0.1,0 0.1,0.1 1.5,0.7 3.3,0.8 4.8,1.4 0.9,0.3 1.7,0.9 2.3,1.6 1.5,-0.5 3,-0.8 4.4,-1.4 1.7,-0.8 2.8,-2.4 4.2,-3.6 0.8,-0.7 1.6,-1.2 2.4,-0.3 1.1,1.2 0.9,3.1 2.3,4.2 0.8,0.6 1.7,1.2 1.8,2.3 0.1,1 -0.5,1.9 -1.3,2.4 -1.9,1.2 -4.8,1.3 -7,1.2 -1.5,-0.1 -2.9,-0.4 -4.2,-1 0.5,0.4 1,0.7 1.7,0.7 0.1,0 0.2,0.1 0.2,0.2 0,0.5 0,1 0,1.6 0,3.3 0,6.5 0.3,9.8 0.3,2.5 0.9,6.7 3.7,7.7 1,0.4 2.1,0.2 3.2,-0.2 -1.4,-0.8 -2.4,-2.5 -3.1,-4 -1,-2.1 -1.8,-4.9 -1.4,-7.3 0.3,-1.5 1,-2.8 2.3,-3.6 1.4,-1 3.2,-1.4 4.8,-2 2.4,-0.8 4.4,-2.3 6.3,-3.9 1.1,-1 2.4,-2.7 4.1,-2.8 2.5,-0.1 3.6,2.4 4.1,4.6 0.7,-1.4 1.3,-2.8 1.4,-4.3 0.2,-1.7 -0.5,-2.9 -1.7,-3.9 -0.8,-0.7 -1.7,-1.4 -2.1,-2.4 -0.6,-1.4 -0.3,-3 0.7,-4.2 2.4,-3.1 7.1,-3.9 8.6,-7.8 0.9,-2.4 0.3,-4.9 -1.9,-6.2 z"
   id="path113"
   inkscape:connector-curvature="0"
   style="fill:#818918" />
	<path
   class="st18"
   d="m 48.8,76.4 c -3,2.9 -5.9,6.6 -5.6,10.8 0,0.8 0.3,1.8 1,2.1 0.8,0.4 1.8,-0.1 2.4,-0.8 0.5,-0.7 0.7,-1.6 1,-2.5 0.7,-2.3 2.1,-4.4 3.9,-6 1.9,-1.6 4.2,-2.7 6,-4.4 0.6,-0.6 1.2,-1.3 1.5,-2.1 0.8,-2.6 -1.9,-3.4 -3.7,-2.4 -2.4,1.2 -4.6,3.4 -6.5,5.3 z"
   id="path115"
   inkscape:connector-curvature="0"
   style="opacity:0.87999998;fill:#bbbf2e" />
	<path
   class="st5"
   d="m 53.7,99.3 c -1.5,-1.8 -3.4,-0.8 -5,0.3 -1.9,1.3 -3.5,2.9 -5,4.7 -1.5,1.7 -2.8,3.5 -2.3,5.9 0.3,1.5 1,2.9 1.9,4.2 1.8,-1.4 3.3,-3.1 4.8,-4.8 2,-2.4 4,-4.8 5.8,-7.4 0.3,-0.4 0.6,-0.9 0.9,-1.3 -0.4,-0.6 -0.7,-1.1 -1.1,-1.6 z"
   id="path117"
   inkscape:connector-curvature="0"
   style="fill:#bbbf2e" />
	<path
   class="st5"
   d="m 34.8,61.1 c 1.2,-0.3 2.2,-1.2 2.5,-2.4 0.3,-1 0,-2.1 -0.4,-3.1 -0.3,0 -0.6,0 -1,0 -1.3,0.1 -2.6,0.3 -3.8,0.9 -0.2,0.1 -0.4,0.3 -0.6,0.4 -0.5,1 -0.8,2 -1,3.1 1.3,0.8 2.7,1.5 4.3,1.1 z"
   id="path119"
   inkscape:connector-curvature="0"
   style="fill:#bbbf2e" />
	<path
   class="st5"
   d="m 17.3,85.2 c 1.5,1 3.9,0.5 5.1,-0.8 1.4,-1.4 1,-3.8 -0.3,-5.1 -1,-1 -2.3,-1.4 -3.6,-1.3 -0.8,0.8 -1.5,1.7 -1.8,2.8 -0.4,1.2 -0.5,2.4 -0.2,3.6 0.1,0.3 0.4,0.6 0.8,0.8 z"
   id="path121"
   inkscape:connector-curvature="0"
   style="fill:#bbbf2e" />
	<path
   class="st5"
   d="m 63,51.2 c 3,2.1 6.1,4.2 9.3,6 2.9,1.7 6.1,2.7 9.3,3.7 0.2,-0.2 0.3,-0.5 0.5,-0.7 C 82,59.7 81.8,59.2 81.7,58.7 68.3,53.9 56.2,45.8 46.5,35.5 c 0.1,0.2 0.3,0.4 0.4,0.6 4.5,5.8 10,10.8 16.1,15.1 z"
   id="path123"
   inkscape:connector-curvature="0"
   style="fill:#bbbf2e" />
	<path
   class="st5"
   d="m 107,48.1 c 1.9,0.2 3.5,0.1 5.4,-0.4 1.6,-0.4 3.2,-0.6 4.9,-0.7 3.3,-0.1 6.3,0.9 9.3,2 1.3,0.5 2.6,0.8 4,1 1.5,0.1 3,-0.1 4.6,-0.2 2.6,-0.1 5.1,0.3 7.4,1.4 1.4,0.7 2.6,1.5 3.9,2.4 1.3,0.9 2.8,1.5 4.3,1.9 2.9,0.8 6,1 8.9,2.1 5.4,2 10.3,5.1 14.4,9.1 4.4,4.3 7.3,10 9.8,15.6 1.1,2.4 2.1,4.9 3.8,7 0.8,1 1.8,1.9 2.9,2.6 1.3,0.8 2.9,1.2 4.4,1.5 3.5,0.8 7,1 10.5,1.3 3.6,0.2 7.2,0.6 10.8,0.9 7.3,0.4 14.6,0.3 21.9,-0.1 4.2,-0.2 8.5,-0.6 12.7,-1.1 -17.1,0.4 -33.1,-0.2 -47.6,-1.3 -6.2,0.5 -9.6,-1.8 -10.9,-2.8 -2.2,-1.7 -3.9,-3.6 -5.7,-8.1 -1.2,-2.9 -2.5,-5.8 -4.1,-8.6 -1.6,-2.8 -3.4,-5.5 -5.7,-7.8 -2.3,-2.3 -5,-4.2 -7.7,-6 -10.1,-6.5 -21.4,-11.6 -33.3,-13.4 -4.6,-0.7 -9.3,-0.9 -14,-0.9 -5.5,0 -10.9,0.4 -15.8,2.2 0.3,0.3 0.6,0.3 0.9,0.4 z"
   id="path125"
   inkscape:connector-curvature="0"
   style="fill:#bbbf2e" />
	<path
   class="st19"
   d="m 59.8,96.5 c -0.3,-1.6 -0.8,-3.3 -1.6,-4.8 0,0.1 0.1,0.3 0.1,0.4 0.2,1.7 -0.4,3.3 -1,4.8 -1.3,3.2 -3.4,5.9 -5.5,8.6 -2.1,2.6 -4.1,5.3 -6.5,7.6 -1.9,1.8 -4.4,3.7 -7.1,4.2 -3.2,0.6 -4.7,-2.4 -5.4,-5.1 -0.9,-3.7 -0.9,-7.6 -0.9,-11.3 0,-0.1 0,-0.2 0,-0.3 -0.7,1 -1.4,2.1 -2.1,3.2 -2.1,3.5 -4,7.7 -3.9,11.9 0,2 0.7,4 1.9,5.7 1.3,1.8 3.2,2.6 5.2,3.3 0.1,0 0.1,0.1 0.1,0.2 -0.2,3 0.6,5.7 2.1,8.3 1,1.8 2.2,3.5 3.3,5.2 1.8,-1.1 3.5,-2.3 5,-3.7 3.6,-3.2 6.6,-6.9 9.1,-11 2.5,-4.1 4.6,-8.4 5.9,-13 1.2,-4.6 2.2,-9.6 1.3,-14.2 z"
   id="path127"
   inkscape:connector-curvature="0"
   style="fill:#3f2a1e" />
	<path
   class="st19"
   d="m 51.7,105.5 c -2.1,2.6 -4.1,5.3 -6.5,7.6 -1.9,1.8 -4.4,3.7 -7.1,4.2 -3.2,0.6 -4.7,-2.4 -5.4,-5.1 -0.9,-3.7 -0.9,-7.6 -0.9,-11.3 0,-0.1 0,-0.2 0,-0.3 -0.2,0.3 -0.4,0.6 -0.7,1 -1.7,3.4 -2.7,7.2 -2.8,11 0,2.3 0.3,4.6 1.3,6.6 0.8,1.7 2.1,2.9 3.7,3.9 5.6,0.9 11,-2.5 14.7,-6.6 2.1,-2.4 4.2,-5.1 5.4,-8.1 1,-2.4 1.5,-5 1.8,-7.6 -1.1,1.6 -2.3,3.2 -3.5,4.7 z"
   id="path129"
   inkscape:connector-curvature="0"
   style="fill:#3f2a1e" />
	<path
   class="st20"
   d="m 29.4,119.6 c -1,-2 -1.4,-4.3 -1.4,-6.5 0,-3.3 0.7,-6.7 2,-9.8 -0.1,0.1 -0.2,0.3 -0.3,0.4 -2.1,3.5 -4,7.7 -3.9,11.9 0,1.2 0.3,2.3 0.7,3.4 1.4,1.7 3.1,3.1 5.3,3.7 0.2,0.1 0.4,0.1 0.6,0.2 -1.2,-0.8 -2.3,-1.9 -3,-3.3 z"
   id="path131"
   inkscape:connector-curvature="0"
   style="fill:#9b664e" />
	<path
   class="st21"
   d="m 33,124.8 c 0,0.6 0,1.2 0,1.8 2.7,0.1 5.4,-0.5 7.8,-1.3 5.9,-2.1 10.8,-6.6 14.4,-11.6 2.1,-2.9 3.7,-6.3 4.6,-9.8 0.3,-2.5 0.4,-5 -0.1,-7.4 -0.3,-1.6 -0.8,-3.3 -1.6,-4.8 0,0.1 0.1,0.3 0.1,0.4 0.2,1.7 -0.4,3.3 -1,4.8 -0.5,1.1 -1,2.1 -1.6,3.1 -0.3,3.4 -1,6.9 -2.6,10 -1.5,2.9 -3.7,5.7 -6,8 -2.3,2.3 -5.1,4.2 -8.2,5 -2.7,0.7 -5.6,0.7 -8.2,-0.4 -1.3,-0.6 -2.5,-1.4 -3.5,-2.5 0.2,0.4 0.4,0.8 0.7,1.1 1.3,1.8 3.2,2.6 5.2,3.3 -0.1,0.2 0,0.3 0,0.3 z"
   id="path133"
   inkscape:connector-curvature="0"
   style="opacity:0.62999998;fill:#261912" />
	<path
   class="st19"
   d="m 59.3,106.6 c -2.4,6.2 -6.5,11.7 -11.9,15.6 -3.4,2.5 -7.7,4.4 -12.1,4.8 0.1,3.8 1.7,7.6 3.7,10.9 1.6,-1 3.1,-2.1 4.4,-3.3 3.6,-3.2 6.6,-6.9 9.1,-11 2.5,-4.1 4.6,-8.4 5.9,-13 0.4,-1.5 0.8,-3 1.1,-4.6 -0.1,0.1 -0.1,0.3 -0.2,0.6 z"
   id="path135"
   inkscape:connector-curvature="0"
   style="fill:#3f2a1e" />
	<path
   class="st20"
   d="m 34.9,127 c -0.6,0 -1.3,0 -1.9,0 0.2,2.1 0.9,4.2 2,6.1 1,1.8 2.2,3.5 3.3,5.2 0.1,-0.1 0.2,-0.1 0.3,-0.2 -2,-3.4 -3.6,-7.2 -3.7,-11.1 z"
   id="path137"
   inkscape:connector-curvature="0"
   style="fill:#9b664e" />
	<path
   class="st2"
   d="m 15.3,153.9 c 3.2,1.4 6.7,1.9 10.3,2.2 3.9,0.2 7.7,0 11.3,-1.6 3.3,-1.5 6.3,-3.7 9,-6.2 5.4,-5 10.1,-11.4 12.8,-18.3 1.4,-3.5 2.3,-7.2 3.5,-10.8 1.1,-3.7 2.2,-7.3 2.8,-11 1,-6.3 0.7,-12.7 -1.2,-18.8 -0.6,-0.7 -1.3,-1.4 -2.1,-2 -2.2,-1.7 -4.8,-2.5 -7.5,-2.7 -0.1,0.4 -0.1,0.9 0,1.4 0.1,0.5 0.3,0.9 0.5,1.2 0.6,0.3 1.1,0.7 1.5,1.1 2.6,2.5 3.9,6.5 4.2,10 0.2,2.4 -0.1,4.9 -0.5,7.2 -0.4,2.6 -1.1,5.2 -2,7.7 -3.3,8.9 -8.9,17.5 -16.6,23.3 -2.8,2.1 -5.8,3.9 -9.2,5 -3,1 -6.5,1.3 -9.3,-0.5 -3.1,-2.1 -4.5,-6.1 -4.9,-9.6 -0.5,-4.2 0.3,-8.4 1.6,-12.3 2.5,-7.8 6.9,-14.7 10.9,-21.8 -0.8,-0.6 -1.4,-1.4 -1.9,-2.3 0,0 0,0 0,0 -5.9,6.5 -10.7,13.6 -14,21.8 -3.3,8.2 -4.8,17.2 -3.7,25.9 0.3,2.9 1.5,7.7 4.5,11.1 z"
   id="path139"
   inkscape:connector-curvature="0"
   style="fill:#694a37" />
	<path
   class="st22"
   d="m 69.2,100.2 c -0.5,-1.7 -1.2,-3.4 -1.9,-5 -0.8,-1.8 -1.8,-3.5 -3,-5.1 1.9,6.7 1.9,13.8 0.5,20.7 -0.8,4 -2.1,7.8 -3.3,11.6 -1.1,3.7 -2.2,7.5 -4,11 -3.3,6.7 -8.3,13 -14.3,17.6 -2.7,2.1 -5.8,4 -9.2,4.9 -3.9,1 -8.1,0.7 -12,0.2 -2.2,-0.3 -4.2,-0.8 -6.2,-1.6 0.9,0.9 1.8,1.6 3,2.2 3.9,2 9.3,1.7 11.3,1.6 0.1,0 0.3,0 0.4,0 1.1,-0.2 2.2,-0.3 3.3,-0.4 0.8,-0.1 1.5,-0.3 2.1,-0.4 0.1,0.1 0.2,0.1 0.3,0.2 1.4,-0.1 2.7,-0.2 4.1,-0.4 3.1,-0.4 6.5,-0.7 9.5,-2 4,-1.8 7,-5.3 9.3,-8.9 2.5,-3.8 4.4,-8 6,-12.3 1.8,-5 3,-10.2 3.7,-15.5 0.4,-3.2 0.7,-6.4 0.7,-9.7 -0.1,-2.9 -0.3,-5.8 -0.3,-8.7 z"
   id="path141"
   inkscape:connector-curvature="0"
   style="fill:#54392a" />
	<path
   class="st23"
   d="m 63.7,89.4 c -0.6,-0.7 -1.3,-1.4 -2.1,-2 -2.2,-1.7 -4.8,-2.5 -7.5,-2.7 -0.1,0.4 -0.1,0.9 0,1.4 0.1,0.5 0.3,0.9 0.5,1.2 0.6,0.3 1.1,0.7 1.5,1.1 2.6,2.5 3.9,6.5 4.2,10 0.1,0.8 0.1,1.7 0,2.5 0.2,-0.1 0.5,-0.1 0.7,0 1.8,0.3 1.9,3.1 1.8,4.4 -0.1,2.7 -0.6,5.5 -1.1,8.2 -1.6,8.2 -1.5,6.7 -2.3,8.8 -0.6,1.9 -2.4,6.7 -5.8,12.3 -2.3,3.8 -4.3,7 -8.1,10.4 -2.2,2 -5.9,5 -11.3,6.6 -3.8,1.1 -7.9,0.9 -11.6,-0.6 -5.8,-2.4 -9.3,-7.8 -11.1,-13.6 -0.5,-1.4 -0.8,-2.9 -1.1,-4.4 -0.3,3.3 -0.2,6.5 0.2,9.8 0.4,2.9 1.5,7.7 4.5,11.1 3.2,1.4 6.7,1.9 10.3,2.2 3.9,0.2 7.7,0 11.3,-1.6 3.3,-1.5 6.3,-3.7 9,-6.2 5.4,-5 10.1,-11.4 12.8,-18.3 1.4,-3.5 2.3,-7.2 3.5,-10.8 1.1,-3.7 2.2,-7.3 2.8,-11 1.1,-6.3 0.8,-12.8 -1.1,-18.8 z"
   id="path143"
   inkscape:connector-curvature="0"
   style="opacity:0.52999998;fill:#54392a" />
	<path
   class="st24"
   d="m 41.3,136.7 c -0.4,0.3 -0.8,0.6 -1.2,0.9 -0.9,0.8 -2.1,1.7 -3.5,2.6 -0.5,0.3 -1.7,1 -3.4,1.8 -2.1,0.9 -3.4,1.5 -5.2,1.7 -1.2,0.1 -2.7,0.3 -4.4,-0.1 -0.6,-0.1 -1.6,-0.4 -2.9,-0.2 -1,0.2 -1.3,0.6 -1.4,0.8 -0.1,0.3 -0.2,0.6 0,1 0.6,1.9 2.7,3.1 4.5,3.6 3.9,1.2 8.1,0.3 11.8,-1.1 7,-2.6 12.8,-8 17,-14.1 4.1,-6 6.5,-12.6 7.9,-19.7 0.7,-3.5 1.2,-7.1 1.1,-10.6 -0.1,-2.2 -0.4,-4.4 -1.2,-6.4 0.1,0.5 0.2,1 0.2,1.5 0.2,2.4 -0.1,4.9 -0.5,7.2 -0.4,2.6 -1.1,5.2 -2,7.7 -3.5,9 -9.2,17.6 -16.8,23.4 z"
   id="path145"
   inkscape:connector-curvature="0"
   style="opacity:0.63999999;fill:#89653e" />
	<path
   class="st10"
   d="m 28.8,136.2 c -2.2,-2.6 -3.9,-5.5 -4.6,-8.8 -0.7,-3.4 -0.6,-6.9 -0.6,-10.4 0.1,-3.2 0.5,-6.4 1.2,-9.4 -2.3,4.3 -4.4,8.6 -5.7,13.3 -1.1,3.9 -1.6,8.1 -0.8,12.1 0.8,3.6 2.6,7.5 6.4,8.7 2.9,0.9 6.1,0.1 8.9,-1 -1.7,-1.3 -3.3,-2.8 -4.8,-4.5 z"
   id="path147"
   inkscape:connector-curvature="0"
   style="fill:#261912" />
	<path
   class="st17"
   d="m 262.9,99.3 c -17.3,4.1 -35.2,6.2 -52.9,6.3 -4.5,0 -9,-0.1 -13.5,-0.4 -3.2,-0.2 -6.9,-0.1 -9.9,-1.4 -2.3,-1 -3.2,-3.1 -3.5,-5.5 -0.5,-3.8 -1.3,-7.2 -3.4,-10.3 -0.2,6.5 -1,12.8 -3.6,18.8 -2.3,5.4 -6,10 -10.7,13.7 -8.8,6.9 -20.2,11 -31.3,11.3 -1,0 -2.1,0 -3.1,0 0.2,0.8 0.4,1.7 0.5,2.6 0.2,1.4 0.1,2.9 0.3,4.3 0,0 0,0 0,0.1 0,0.3 0,0.7 0.1,1 6.7,0.7 13.6,0.6 20.3,-0.5 3.3,-0.5 6.5,-1.4 9.7,-2.3 3.1,-0.9 6,-2.1 8.6,-4.1 0,0 0.1,-0.1 0.1,-0.1 0,-0.1 0,-0.2 0.1,-0.2 0,0 0,0 0,0 1.9,-2.1 3.7,-4.4 5.2,-6.9 2.9,-4.9 4.5,-10.5 5.4,-16.1 0,-0.1 0.1,-0.1 0.2,-0.1 4.1,1.1 8.4,1.2 12.6,1.2 4.1,0 8.2,-0.1 12.3,-0.3 15,-0.8 29.7,-3.6 44.3,-7.1 7,-1.7 14,-3.4 20.9,-5.2 5.2,-1.4 10.4,-3.1 15.2,-5.4 -0.9,0.1 -1.7,0.2 -2.6,0.2 -7,2.5 -14.1,4.7 -21.3,6.4 z"
   id="path149"
   inkscape:connector-curvature="0"
   style="opacity:0.51000001;fill:#858c25" />
	<path
   class="st25"
   d="m 84.4,119.4 c -4,-2.4 -6.9,-5.8 -8.8,-10.1 -1.6,-3.8 -2.6,-7.8 -4.2,-11.6 -1.3,-3 -3.1,-5.5 -5.6,-7.3 -0.1,0.2 -0.2,0.5 -0.3,0.7 1.1,1.6 1.9,3.4 2.7,5.1 0.8,1.8 1.4,3.7 1.9,5.6 0.5,1.9 0.6,3.7 0.6,5.7 0,1.9 0,3.7 0.8,5.5 0.7,1.5 1.7,2.8 2.8,4.1 2.4,2.8 5,4.8 8.6,5.7 4.2,1 8.7,1 13,1.1 0.6,0 1.2,0 1.8,0 -4.7,-1 -9.3,-2.1 -13.3,-4.5 z"
   id="path151"
   inkscape:connector-curvature="0"
   style="fill:#858c25" />
	<path
   class="st5"
   d="m 100.7,103.8 c 1.3,0.2 5.6,0.9 9.7,3.5 1.2,0.8 2.5,1.8 2.7,2 1.1,0.9 2,1.7 2.6,2.3 -0.3,-0.7 -0.7,-1.7 -1.5,-2.7 -0.7,-0.9 -1.3,-1.5 -1.6,-1.7 -1.1,-1 -2.4,-1.6 -3.7,-2.2 -1.7,-0.8 -2.7,-1.3 -4.2,-1.7 -0.4,-0.1 -2.2,-0.6 -4.6,-0.6 -1.5,0 -2.6,0 -4,0.4 -1.4,0.4 -2.4,1.1 -3,1.7 0.3,-0.2 0.8,-0.4 1.4,-0.6 0.7,-0.2 1.3,-0.3 2.1,-0.4 2.1,-0.2 4,0 4.1,0 z"
   id="path153"
   inkscape:connector-curvature="0"
   style="fill:#bbbf2e" />
	<path
   class="st4"
   d="m 116.3,110.6 c -1.4,-2.5 -3.7,-4.4 -6.2,-5.8 -2.5,-1.4 -5.3,-2 -8.2,-2.4 -3,-0.3 -6.2,-0.2 -8.8,1.4 -0.1,0.1 -0.3,0 -0.5,0 -0.4,0 -0.7,0.6 -0.4,0.9 0.3,0.3 0.8,0.3 1.1,0 0.2,-0.2 0.3,-0.4 0.4,-0.5 0.3,-0.4 0.8,-0.5 1.3,-0.6 3.6,-0.8 7.3,-0.6 10.8,0.5 3.5,1.1 6.6,3.2 9.1,5.9 0.2,0.2 0.3,0.4 0.4,0.7 0,0.3 -0.1,0.5 -0.1,0.8 0,0.6 0.9,0.8 1.3,0.4 0.4,-0.5 0.1,-0.9 -0.2,-1.3 z"
   id="path155"
   inkscape:connector-curvature="0"
   style="fill:#6b6d12" />
	<path
   class="st5"
   d="m 125.7,57.5 c -0.6,-0.4 -4.6,-2.7 -8.4,-3.1 -2,-0.2 -3.9,0 -3.9,0 -0.6,0.1 -1.1,0.2 -2.2,0.5 -1.3,0.3 -1.5,0.5 -1.7,0.7 -0.2,0.3 0.4,1.4 0.7,2.1 3.9,-2.5 10.4,-2.3 13.4,1.3 0.1,0.1 0,0.2 0,0.2 0.7,-0.7 1.4,-1.2 2.1,-1.7 z"
   id="path157"
   inkscape:connector-curvature="0"
   style="fill:#bbbf2e" />
	<path
   class="st5"
   d="m 137.3,57.9 c -2.6,-0.5 -5.5,-0.7 -8,0.2 0,0.1 0,0.1 -0.1,0.2 -0.6,0.2 -1.1,0.4 -1.6,0.7 3.8,-0.3 7.4,0.8 10.1,3.5 2.4,-0.9 4.9,-1.5 7.3,-2 -2.2,-1.5 -5,-2.2 -7.7,-2.6 z"
   id="path159"
   inkscape:connector-curvature="0"
   style="fill:#bbbf2e" />
	<path
   class="st5"
   d="m 129.8,68.1 c 2.9,-1.4 5.7,-2.8 8.9,-3.6 3.4,-0.8 6.7,-0.7 10.1,-0.3 3.2,0.5 6.5,1.1 9.5,2.2 3,1.1 5.7,2.6 8.2,4.6 2,1.6 3.8,3.4 5.5,5.3 -1.4,-2.5 -2.8,-5 -4.9,-6.9 -6.7,-6.1 -16.5,-8.4 -25.3,-6.7 -4.4,0.9 -8.3,2.7 -12,5.4 0.1,0 0.1,0 0,0 z"
   id="path161"
   inkscape:connector-curvature="0"
   style="fill:#bbbf2e" />
	<path
   class="st26"
   d="m 105,91.2 c -0.2,-0.4 -0.4,-0.8 -0.8,-1 -0.4,-0.2 -0.9,-0.1 -1.1,0.3 -0.1,0.2 0,0.5 0.3,0.9 0.3,0.5 1,1.3 2.2,2.1 0.1,0 0.3,0.2 0.5,0.3 0,0 0,0 0,0 0.1,-0.1 -0.1,-0.5 -0.3,-0.8 -0.3,-0.9 -0.6,-1.3 -0.8,-1.8 z"
   id="path163"
   inkscape:connector-curvature="0"
   style="fill:#393a0a" />
	<path
   class="st26"
   d="m 110.7,92.4 c 0.5,-0.1 1,-0.2 1.5,0 0.1,0.1 0.3,0.1 0.3,0.3 0.1,0.2 0,0.4 -0.1,0.5 -0.1,0.1 -0.3,0.2 -0.5,0.3 -0.6,0.2 -1.2,0.3 -1.8,0.4 -0.4,0.1 -1.6,0.3 -1.9,0 -0.9,-0.5 2.1,-1.4 2.5,-1.5 z"
   id="path165"
   inkscape:connector-curvature="0"
   style="fill:#393a0a" />
	<path
   class="st5"
   d="m 229.6,201.5 c -2.6,-0.5 -5.2,-0.7 -7.8,-0.7 -1,0 -2.2,-0.1 -2.9,-0.7 -0.8,-0.1 -1.6,-0.3 -2.4,-0.5 -1.4,-0.3 -2.7,-0.2 -3.8,0.7 0.2,0 0.3,-0.1 0.5,-0.1 1.2,-0.1 2.4,0.3 3.4,0.7 1.1,0.4 2.3,0.9 3.4,1.1 1.4,0.2 2.8,0.2 4.2,0.3 2.7,0.2 5.5,0.5 7.9,1.7 1.5,0.7 2.6,2.1 2.1,3.8 0.8,-0.8 1.2,-1.8 1.3,-3.2 -1.4,-1.8 -3.7,-2.7 -5.9,-3.1 z"
   id="path167"
   inkscape:connector-curvature="0"
   style="fill:#bbbf2e" />
	<path
   class="st7"
   d="m 235.9,205.7 c -0.1,-0.2 -0.2,-0.4 -0.3,-0.6 -0.1,0.9 -0.4,1.8 -1,2.6 -1,1.2 -2.5,1.8 -4,2.2 -4.1,1 -8.3,0.3 -12.4,-0.2 -2.4,-0.3 -4.8,-0.5 -7.2,-0.1 -1.7,0.3 -3.6,0.9 -4.1,2.7 -0.9,3.2 2.7,6.4 0.1,9.3 -1.3,1.4 -3.1,2.4 -5,2.2 -0.6,0 -1.1,-0.2 -1.5,-0.5 0.7,1.2 1.7,2.2 2.9,2.6 1.7,0.5 3.6,-0.3 4.9,-1.5 1.6,-1.4 2.6,-3.7 1.9,-5.7 -0.4,-1.2 -1.5,-2.2 -1.6,-3.5 -0.1,-1.4 1,-2.6 2.2,-3.3 2.4,-1.3 5.3,-1 7.9,-0.4 2.6,0.7 5.2,1.7 7.9,1.8 1.5,0.1 3.1,-0.2 4.5,-0.7 1.4,-0.5 2.8,-1.4 3.7,-2.6 1.1,-1.2 1.5,-2.8 1.1,-4.3 z"
   id="path169"
   inkscape:connector-curvature="0"
   style="fill:#818918" />
	<path
   class="st7"
   d="m 198.4,213.2 c 1.4,-2.4 3.7,-4.1 5.9,-5.6 1.3,-0.8 2.7,-1.6 3.9,-2.7 1.1,-0.9 1.8,-2 2.6,-3.1 0.6,-0.8 1.2,-1.6 2.1,-2.2 1,-0.6 2.2,-0.7 3.4,-0.4 0.8,0.2 1.5,0.4 2.3,0.6 -0.1,-0.1 -0.2,-0.3 -0.2,-0.4 -0.4,-1.3 0.8,-2.4 1.5,-3.6 0.1,-0.2 1.2,-3.9 -0.8,-5.8 -1.3,-1.2 -3.4,-1.4 -5.3,-0.6 0,0 0,-0.1 0,-0.1 -0.7,1.7 -1.5,3.4 -2.5,5 -1.7,2.7 -3.2,5.3 -5.3,7.7 -2.1,2.3 -4.5,4.5 -7,6.3 -1.8,1.3 -4.2,2.4 -5.4,4.3 1.3,1.3 2.9,2.4 4,3.9 0,0 0,0 0,0 -0.1,-1.2 0.2,-2.3 0.8,-3.3 z"
   id="path171"
   inkscape:connector-curvature="0"
   style="fill:#818918" />
	<path
   class="st27"
   d="m 151.4,223.4 c -0.3,0.9 -25,-0.8 -47.3,-16.5 0,0 -19.7,-13.9 -31.8,-37 -1,-2 -5.6,-11 -5.3,-11.2 0.2,-0.1 1.9,2.6 3.4,4.9 2.1,3.3 2.9,4.7 4.5,7.3 0.3,0.5 2.3,3.5 4.1,6.1 0,0 3.5,4.8 8.6,9.8 15.6,15.3 41.5,27.4 41.5,27.4 14.5,6.9 22.4,8.7 22.3,9.2 z"
   id="path173"
   inkscape:connector-curvature="0"
   style="opacity:0.61000001;fill:#89653e" />
	<path
   class="st27"
   d="m 112.8,188.4 c 1.8,0.6 4.3,1.5 7.6,1.9 6.6,0.8 11.5,-0.9 18.1,-3.2 1.4,-0.5 5.4,-1.9 5.3,-2.5 -0.1,-0.3 -0.8,-0.3 -4.9,-0.5 -2.1,-0.1 -3.2,-0.1 -3.4,-0.1 0,0 -3.9,-0.1 -9.4,-0.4 -2.3,-0.1 -7.8,-0.5 -14.3,-1.9 -3,-0.6 -5.1,-1 -7.8,-2 -4.2,-1.5 -7.5,-3.4 -9.7,-4.8 1.9,2.5 4.8,5.7 9,8.7 1.8,1.2 5.1,3.2 9.5,4.8 z"
   id="path175"
   inkscape:connector-curvature="0"
   style="opacity:0.61000001;fill:#89653e" />
	<path
   class="st15"
   d="m 87.5,133.4 c 4,1.3 8.3,1.8 12.4,2.9 2.3,0.6 4.8,1.6 5.6,3.8 0.6,1.7 0.1,3.5 -0.4,5.2 -1,3.3 -2,6.6 -2.9,9.8 -0.5,1.8 -1.3,3.8 -3.1,4.2 -1.2,0.3 -2.4,-0.4 -3.2,-1.3 -0.8,-0.9 -1.2,-2.1 -1.6,-3.3 -1.1,-3.2 -2.2,-6.5 -4,-9.4 -2.2,-3.4 -5.5,-6 -8.4,-8.9 -2.9,-2.8 -5.7,-6.1 -6.6,-10.1 -0.3,-1.5 0.6,-2.4 1.8,-1.4 0.9,0.7 1.3,2.5 2.1,3.4 2.1,2.6 5.2,4.1 8.3,5.1 z"
   id="path177"
   inkscape:connector-curvature="0"
   style="opacity:0.62999998;fill:#4f3425" />
	<path
   class="st27"
   d="m 94.9,240.2 c -1.5,-2.2 -3,-4.4 -4.9,-6.2 -1.9,-1.8 -4.3,-3.2 -7,-3.5 -1.3,-0.1 -2.6,0 -3.7,-0.4 -1,-0.4 -1.7,-1.1 -2.6,-1.6 -1.6,-1 -3.5,-1.3 -5.4,-0.9 -2.5,0.5 -4.9,2.4 -7.3,1.6 -0.9,-0.3 -1.7,-0.9 -2.5,-1.3 -2.9,-1.2 -6.1,0.2 -8.7,1.9 -1.6,1.1 -3.2,2.2 -4.7,3.5 0.4,-0.5 4.5,-6.3 9,-7.7 0.9,-0.3 2.5,-0.8 4.4,-0.3 1.1,0.3 1.2,0.7 2.1,1 2.1,0.8 4.3,-0.5 6.5,-1 2.4,-0.6 4.9,-0.4 7.1,0.6 1.1,0.5 2.2,1.2 3.3,1.7 1.9,0.8 4.1,0.8 6.1,1.5 4.6,1.8 6.5,6.5 8.3,11.1 z"
   id="path179"
   inkscape:connector-curvature="0"
   style="opacity:0.61000001;fill:#89653e" />
	<path
   class="st13"
   d="m 176.9,230.5 c -3.2,-1.3 -6.5,2.3 -9.9,1.8 -1.1,-0.2 -2.1,-0.8 -3.1,-1 -1.9,-0.4 -3.8,0.4 -5.5,1.4 -1.4,0.8 -2.9,1.7 -4.6,1.8 -1,0 -1.9,-0.3 -2.8,-0.4 -3.5,-0.5 -7.2,1.6 -8.6,4.9 1.7,-4.1 5.5,-6.9 9.9,-7 1.1,0 2.2,0.1 3.3,-0.1 2.7,-0.4 4.9,-2.7 7.6,-2.9 1.7,-0.1 3.4,0.5 5.1,0.7 3,0.4 5.8,-0.7 8.6,0.8 z"
   id="path181"
   inkscape:connector-curvature="0"
   style="fill:#89653e" />
	<path
   class="st15"
   d="m 193,210.8 c 0,-0.1 0.1,-0.2 0.1,-0.4 -2.3,2.1 -4.8,4 -7.8,5.1 -2.1,0.8 -4.3,1.3 -6.4,0.5 -2,-0.7 -3.5,-2.2 -4.9,-3.8 -1.5,-1.7 -2.8,-3.5 -4.2,-5.3 -0.8,-1 -1.5,-2 -2.2,-3 0.7,1.3 1.5,2.6 2.3,3.8 1.9,3 3.9,6.2 6.6,8.5 1.4,1.2 2.9,2 4.8,2.4 1.5,0.3 3,0.5 4.4,1 1.8,0.7 3.3,1.8 4.5,3.3 1.9,2.4 2.7,5.5 3,8.5 0.2,-5.9 -1.5,-11.9 -0.8,-17.8 -0.1,-0.1 -0.1,-0.3 -0.2,-0.4 0.1,-0.1 0.2,-0.1 0.2,-0.2 0.2,-0.6 0.3,-1.4 0.6,-2.2 z"
   id="path183"
   inkscape:connector-curvature="0"
   style="opacity:0.62999998;fill:#4f3425" />
	<path
   class="st15"
   d="m 165.6,181 c -0.1,0.1 -0.2,0.2 -0.4,0.3 0.1,1.2 0.2,2.5 0.3,3.7 0.1,1.6 0.2,3.4 -0.4,4.9 -0.6,1.4 -1.9,2.5 -2.4,4 -0.6,1.8 0.7,3.6 1.7,5 0.3,0.4 0.5,0.7 0.7,1.1 -0.9,-1.7 -1.8,-3.8 -1.5,-5.8 0.3,-1.7 1.9,-1.8 3.3,-1.7 0.2,0 1.2,0 2.4,0 -1,-3.9 -2.3,-7.7 -3.7,-11.5 z"
   id="path185"
   inkscape:connector-curvature="0"
   style="opacity:0.62999998;fill:#4f3425" />
	<path
   class="st2"
   d="m 210.3,180.8 c -0.2,-0.9 -0.6,-1.7 -1,-2.5 -0.3,0 -0.6,0 -0.8,0 -1.9,0 -4.1,0.2 -5.5,-1.1 -2.9,-2.5 -0.6,-8.2 -3.6,-10.6 -1.3,-1 -3.1,-1 -4.8,-0.8 -2.5,0.3 -4.4,0.2 -6.9,0.8 0,0 0,0 0,0 -0.2,0.7 -0.5,1.5 -0.8,2.1 3,0.7 7.1,0.3 8.4,3.6 0.8,1.9 -0.2,4 -1.2,5.6 -1.6,2.4 -3.7,4.5 -5.8,6.4 -2.3,2 -4.7,3.9 -7.3,5.6 -1.7,1.1 -3.4,2.3 -5.3,2.9 -0.2,0.1 -0.3,-0.1 -0.2,-0.3 0.1,-0.3 0.3,-0.5 0.5,-0.8 -2.5,1 -5.3,1.3 -8,1.1 -0.8,-0.1 -1.7,-0.2 -2.5,0 -1.2,0.3 -1.3,1.5 -1.1,2.5 0.3,2.4 1.5,4.7 2.8,6.7 1.2,2 2.7,3.8 4.1,5.6 1.3,1.7 2.6,3.5 4.1,5 1.5,1.6 3.3,3 5.5,3.3 2.3,0.3 4.8,-0.8 6.8,-1.8 2.2,-1.2 4.2,-2.7 6,-4.5 1.1,-2.7 3.1,-4.7 5.1,-6.8 2.4,-2.4 4.9,-4.8 7.1,-7.4 2.2,-2.6 4.1,-5.7 4.8,-9.1 0,-1.7 0,-3.6 -0.4,-5.5 z"
   id="path187"
   inkscape:connector-curvature="0"
   style="fill:#694a37" />
	<path
   class="st13"
   d="m 174,194.3 c 1.5,-0.1 5.5,-0.3 10,-2.4 3,-1.4 5.7,-3.3 8.1,-5.5 2.7,-2.5 5.2,-5.4 6.9,-8.6 1,-1.8 1.6,-3.8 1.6,-5.9 0,-1.3 -0.2,-2.5 -0.3,-3.8 -0.3,-0.6 -0.6,-1.1 -1.1,-1.5 -1.3,-1 -3.1,-1 -4.8,-0.8 -2.5,0.3 -4.4,0.2 -6.9,0.8 0,0 0,0 0,0 -0.2,0.7 -0.5,1.5 -0.8,2.1 3,0.7 7.1,0.3 8.4,3.6 0.8,1.9 -0.2,4 -1.2,5.6 -1.6,2.4 -3.7,4.5 -5.8,6.4 -2.3,2 -4.7,3.9 -7.3,5.6 -1.7,1.1 -3.4,2.3 -5.3,2.9 0,0 -0.2,-0.2 -0.2,-0.3 0,0 0.2,0.1 0.4,0.2 -5.3,0.4 -7.2,0.3 -7.9,0.2 0,0 -1.6,-0.4 -2.5,0 0,0 -0.1,0 -0.2,0.1 -0.2,0 -0.3,0 -0.4,0 2,0.7 5.3,1.5 9.3,1.3 z"
   id="path189"
   inkscape:connector-curvature="0"
   style="fill:#89653e" />
	<path
   class="st2"
   d="m 210.3,180.8 c -0.2,-0.9 -0.6,-1.7 -1,-2.5 -0.3,0 -0.6,0 -0.8,0 -1.9,0 -4.1,0.2 -5.5,-1.1 -1.9,-1.7 -1.5,-4.8 -2,-7.4 0.1,1.2 0.2,2.3 0,3.5 -0.3,2.1 -1.2,4 -2.3,5.8 -3.7,5.9 -9.4,11.1 -15.9,13.7 -3.2,1.3 -6.7,1.7 -10.1,1.9 -2.8,0.1 -5.7,-0.1 -8.2,-1.3 -0.4,0.5 -0.4,1.3 -0.4,2 0.3,2.4 1.5,4.7 2.8,6.7 1.2,2 2.7,3.8 4.1,5.6 1.3,1.7 2.6,3.5 4.1,5 1.5,1.6 3.3,3 5.5,3.3 2.3,0.3 4.8,-0.8 6.8,-1.8 2.2,-1.2 4.2,-2.7 6,-4.5 1.1,-2.7 3.1,-4.7 5.1,-6.8 2.4,-2.4 4.9,-4.8 7.1,-7.4 2.2,-2.6 4.1,-5.7 4.8,-9.1 0.3,-1.8 0.3,-3.7 -0.1,-5.6 z"
   id="path191"
   inkscape:connector-curvature="0"
   style="fill:#694a37" />
	<path
   class="st28"
   d="m 91.2,244.2 c -0.7,-2 -2.1,-3.4 -3.3,-4.3 0.9,2.5 1.1,5.3 -0.4,7.4 -2.1,3 -6.2,2.7 -9.3,1.8 -2.4,-0.7 -4.6,-1.3 -7.1,-0.9 -1.9,0.3 -3.7,0.3 -5.5,-0.2 -1,-0.3 -2,-0.7 -3,-1 -1.3,-0.5 -2.7,-0.7 -4.1,-0.8 -2.3,-0.1 -4.6,0 -6.8,-1 -1.4,-0.6 -2.3,-1.6 -2.8,-2.8 -0.1,0.3 -0.1,0.7 -0.1,1 0,0.7 0,3.7 2.1,5.3 2.2,1.6 5.4,0.7 8.1,1.2 2.6,0.5 4.9,2.5 7.5,2.5 1.1,0 2.3,-0.4 3.4,-0.5 3,-0.3 5.8,1.2 8.6,2.1 2.5,0.7 5.2,1 7.6,0.2 2.5,-0.8 4.6,-2.7 5.3,-5.3 0.5,-2.2 0,-4.1 -0.2,-4.7 z"
   id="path193"
   inkscape:connector-curvature="0"
   style="fill:#563829" />
	<path
   class="st28"
   d="m 185.8,250.2 c 0.8,-4 -0.5,-8.3 -3.3,-11.2 0.3,1.8 0.4,3.6 -0.1,5.4 -0.5,1.7 -1.7,3.4 -3.4,3.9 -1.5,0.4 -3.1,0.1 -4.5,0.8 -1,0.5 -1.6,1.5 -2.4,2.2 -1.6,1.4 -4,1.4 -6.1,1.1 -2.1,-0.3 -4.3,-0.8 -6.3,-0.3 -2.3,0.5 -4.1,2.2 -6.3,2.8 -2.3,0.6 -4.9,0 -6.8,-1.4 -1.9,-1.5 -3.1,-3.7 -3.5,-6.1 -0.4,2.1 -1.2,4.2 -0.8,6.3 0.2,0.7 0.4,1.4 0.9,1.9 0.6,0.5 1.3,0.6 2,0.7 7.6,0.8 15.3,-0.7 22.8,-2.2 4.8,-1 9.6,-1.9 14.4,-2.9 1.2,-0.1 2.6,-0.1 3.4,-1 z"
   id="path195"
   inkscape:connector-curvature="0"
   style="fill:#563829" />
	<path
   class="st29"
   d="m 73.6,93 c 1.4,3.2 3.6,6 4.8,9.3 0.6,1.8 1,3.8 2.3,5.3 1.3,1.4 4,1.8 4.9,0.1 0.3,-0.5 0.3,-1 0.4,-1.6 0.3,-2.2 0.8,-4.5 2.6,-5.9 0.9,-0.7 2,-1 2.6,-1.9 1.1,-1.6 0,-4 -1.7,-5 -1.7,-1 -3.8,-1.3 -5.6,-2 -2.1,-0.9 -3.9,-2.5 -5,-4.5 -0.5,-1 -0.9,-2.1 -1.7,-3 -2.1,-2.5 -3.7,-0.2 -4.3,1.9 -0.8,2.3 -0.3,5 0.7,7.3 z"
   id="path197"
   inkscape:connector-curvature="0"
   style="opacity:0.4;fill:#bbbf2e" />
	<path
   class="st29"
   d="m 167,101.5 c 1.1,-1.1 2.7,-2.3 3.9,-1.4 1,0.7 0.8,2.1 0.5,3.2 -1.8,6.7 -6.8,12.1 -12.7,15.7 -5,3.1 -11,5 -16.8,4.2 -5.8,-0.8 -11.4,-4.6 -13.2,-10.2 -0.2,-0.7 -0.4,-1.5 -0.2,-2.3 0.7,-2.6 4.4,-0.8 6,-0.4 2.7,0.7 5.5,0.9 8.3,0.9 5.7,-0.1 11.3,-1.5 16.3,-4.1 3,-1.5 5.6,-3.4 7.9,-5.6 z"
   id="path199"
   inkscape:connector-curvature="0"
   style="opacity:0.4;fill:#bbbf2e" />
	<path
   class="st5"
   d="m 162.3,107.9 c 1.1,0.9 0.3,2.7 -0.6,3.8 -2.9,3.6 -6.8,6.7 -11.3,7.9 -4.5,1.2 -9.7,0.4 -13.2,-2.8 -1.9,-1.8 -0.9,-3.2 1.2,-3.3 2.7,-0.2 5.4,-0.1 8.1,-0.5 2.8,-0.4 5.5,-1.1 8.2,-1.9 0.9,-0.3 7.4,-3.4 7.6,-3.2 z"
   id="path201"
   inkscape:connector-curvature="0"
   style="fill:#bbbf2e" />
	<path
   class="st5"
   d="m 74.3,88.4 c 0,0.8 0.4,1.5 0.8,2.3 0.6,1.1 1.3,2.3 2,3.3 0.6,0.9 1.3,1.8 1.8,2.8 0.5,1.1 0.9,2.3 1.3,3.5 0.4,0.9 1.1,1.9 2,1.7 0.8,-0.2 1.1,-1.1 1.2,-1.9 0.1,-0.8 0.1,-1.7 0.7,-2.2 0.7,-0.7 2,-0.6 2.3,-1.5 0.2,-0.5 -0.1,-1.1 -0.5,-1.4 -0.4,-0.3 -0.9,-0.5 -1.4,-0.7 -1.4,-0.4 -2.7,-0.8 -4,-1.5 -1.3,-0.7 -2.4,-1.7 -2.9,-3 -0.3,-0.7 -0.4,-1.4 -0.7,-2.1 -0.8,-1.7 -2.7,-1.3 -2.6,0.7 z"
   id="path203"
   inkscape:connector-curvature="0"
   style="fill:#bbbf2e" />
	<linearGradient
   id="SVGID_1_"
   gradientUnits="userSpaceOnUse"
   x1="38.766499"
   y1="66.306099"
   x2="71.605797"
   y2="38.594002">
		<stop
   offset="0"
   style="stop-color:#F19E43"
   id="stop205" />
		<stop
   offset="0.5842"
   style="stop-color:#CC632F"
   id="stop207" />
	</linearGradient>
	<path
   class="st30"
   d="m 67.9,85.5 c 1.5,-2.3 3.3,-4.5 5.5,-6.2 -0.1,-1 0.1,-2.1 0.1,-3.1 C 69.7,72.8 65.7,69.6 62.2,65.8 56.3,59.4 51.5,52 47.2,44.4 c -4,-7 -7.6,-14.3 -10.7,-21.7 -0.4,-0.5 -1.2,-0.4 -1.7,0.1 -1.2,1.3 -1.8,3.1 -2.2,4.9 -2.4,9.4 -2.7,19.2 -1.1,28.7 0.1,-0.1 0.2,-0.2 0.3,-0.2 4.5,-2.5 11.1,-0.6 13.1,4.2 1,2.5 0.9,5.1 0.5,7.7 -0.3,1.7 -1.2,7.1 2.3,5.4 1.2,-0.6 2,-1.6 3,-2.4 1.1,-1 2.3,-1.9 3.6,-2.4 2.3,-1 5.2,-1.3 7.4,0.1 1.8,1.1 2.7,3.2 2.3,5.3 -0.4,2.2 -1.9,3.7 -3.7,4.9 -1.8,1.2 -3.9,2.3 -5.2,4 -0.3,0.4 -0.6,0.9 -0.7,1.3 2.8,0.2 5.4,1 7.6,2.8 1.3,1 2.4,2.3 3.3,3.6 0.6,-1.8 1.5,-3.5 2.6,-5.2 z"
   id="path210"
   inkscape:connector-curvature="0"
   style="fill:url(#SVGID_1_)" />
	<linearGradient
   id="SVGID_2_"
   gradientUnits="userSpaceOnUse"
   x1="225.1564"
   y1="208.8669"
   x2="231.192"
   y2="90.744301">
		<stop
   offset="0.5495"
   style="stop-color:#F19E43"
   id="stop212" />
		<stop
   offset="0.8718"
   style="stop-color:#CC632F"
   id="stop214" />
	</linearGradient>
	<path
   class="st31"
   d="m 269.3,98.7 c -14.5,3.8 -29,7.4 -43.8,9.7 -7.4,1.1 -14.9,1.9 -22.4,2.1 -7.2,0.2 -14.7,0.8 -21.7,-0.9 -0.9,5.6 -2.6,11.1 -5.5,16 -1.4,2.4 -3.1,4.7 -5,6.7 1.3,0.1 2.6,0.5 3.9,0.7 1.6,0.3 3.1,0.6 4.6,1.1 2.2,0.6 4.3,1.2 6.5,1.8 5.6,1.1 12.9,2 21.3,2 3.8,0 11.6,-0.3 20.8,-2.2 12.5,-2.6 24.1,-8.6 34.2,-16.4 10.1,-7.8 19.3,-17 26.9,-27.2 -0.6,0.1 -1.1,0.1 -1.7,0.2 -5.6,2.9 -11.9,4.8 -18.1,6.4 z"
   id="path217"
   inkscape:connector-curvature="0"
   style="fill:url(#SVGID_2_)" />
	<path
   class="st32"
   d="m 156.9,91.6 c -0.9,-0.8 -2.4,-0.4 -3.4,-0.2 -1.3,0.3 -2.6,0.8 -3.8,1.4 -2.1,0.9 -4.3,1.8 -6.6,1.6 -1.2,-0.1 -2.4,-0.4 -3.4,-1 -0.9,-0.6 -1.7,-1.4 -2.5,-2.2 -0.9,-0.8 -2.2,-1.9 -3.4,-1.2 -0.6,0.3 -1.3,1.2 -1.3,2 0.2,0.4 0.4,0.6 0.4,0.6 2.3,3 5.7,4.8 5.9,4.8 3.5,1.7 6.7,1.7 7.7,1.7 1.1,0 3.4,-0.2 6,-1.3 0.4,-0.2 1.6,-0.7 3,-1.7 0.7,-0.5 1.4,-1 2,-1.5 0.4,-1 0.4,-2.3 -0.6,-3 z"
   id="path219"
   inkscape:connector-curvature="0"
   style="fill:#683c1e" />
	<path
   class="st32"
   d="m 97.3,82.3 c 0.3,-0.4 0.7,-1.1 0,-1.4 -0.8,-0.3 -2,-0.1 -2.8,-0.1 -1.7,0.1 -3.5,0.4 -5.1,-0.3 -3.6,-1.5 -4.6,-5.4 -4.7,-9 -1.2,2.8 -1.4,6.1 0.3,8.6 1.4,2.1 3.9,3.4 6.4,3.8 1.5,0.2 3,0.1 4.5,-0.1 0.5,-0.5 1,-1 1.4,-1.5 z"
   id="path221"
   inkscape:connector-curvature="0"
   style="fill:#683c1e" />
	<path
   class="st33"
   d="m 142.6,97.3 c -0.2,0.2 -0.3,0.5 -0.4,0.7 -0.2,0.6 0.2,1.3 0.8,1.7 0.5,0.4 1.2,0.5 1.9,0.6 0.9,0.1 1.9,0 2.7,-0.4 0.8,-0.4 1.3,-1.4 1.1,-2.3 -1,-2.9 -4.6,-2.2 -6.1,-0.3 z"
   id="path223"
   inkscape:connector-curvature="0"
   style="opacity:0.72000002;fill:#ffffff" />
	<path
   class="st33"
   d="m 84.9,78.3 c -0.2,0.1 -0.3,0.3 -0.5,0.5 -0.3,0.5 -0.5,1.1 -0.4,1.6 0.1,0.4 0.4,0.7 0.7,0.9 0.4,0.3 0.9,0.5 1.4,0.3 0.6,-0.2 1.2,-0.8 1.5,-1.6 0.8,-2.7 -1.2,-3 -2.7,-1.7 z"
   id="path225"
   inkscape:connector-curvature="0"
   style="opacity:0.72000002;fill:#ffffff" />
	<path
   class="st17"
   d="m 262.9,99.3 c -17.3,4.1 -35.2,6.2 -52.9,6.3 -4.5,0 -9,-0.1 -13.5,-0.4 -3.2,-0.2 -6.9,-0.1 -9.9,-1.4 -2.3,-1 -3.2,-3.1 -3.5,-5.5 -0.5,-3.8 -1.3,-7.2 -3.4,-10.3 -0.2,6.5 -1,12.8 -3.6,18.8 -2.3,5.4 -6,10 -10.7,13.7 -8.8,6.9 -20.2,11 -31.3,11.3 -1,0 -2.1,0 -3.1,0 0.2,0.8 0.4,1.7 0.5,2.6 0.2,1.4 0.1,2.9 0.3,4.3 0,0 0,0 0,0.1 0,0.3 0,0.7 0.1,1 6.7,0.7 13.6,0.6 20.3,-0.5 3.3,-0.5 6.5,-1.4 9.7,-2.3 3.1,-0.9 6,-2.1 8.6,-4.1 0,0 0.1,-0.1 0.1,-0.1 0,-0.1 0,-0.2 0.1,-0.2 0,0 0,0 0,0 1.9,-2.1 3.7,-4.4 5.2,-6.9 2.9,-4.9 4.5,-10.5 5.4,-16.1 0,-0.1 0.1,-0.1 0.2,-0.1 4.1,1.1 8.4,1.2 12.6,1.2 4.1,0 8.2,-0.1 12.3,-0.3 15,-0.8 29.7,-3.6 44.3,-7.1 7,-1.7 14,-3.4 20.9,-5.2 5.2,-1.4 10.4,-3.1 15.2,-5.4 -0.9,0.1 -1.7,0.2 -2.6,0.2 -7,2.5 -14.1,4.7 -21.3,6.4 z"
   id="path227"
   inkscape:connector-curvature="0"
   style="opacity:0.51000001;fill:#858c25" />
	<path
   class="st34"
   d="m 174.4,124.5 c -5.8,6.5 -14.1,10 -22.4,11.8 -2.3,0.5 -4.7,0.8 -7.1,0.9 -2.3,0.1 -4.6,0.2 -6.9,0 -2.6,-0.3 -4.6,-1.5 -6.5,-3 0.1,1.2 0.1,2.5 0.2,3.7 0,0 0,0 0,0.1 0,0.3 0,0.7 0.1,1 6.7,0.7 13.6,0.6 20.3,-0.5 3.3,-0.5 6.5,-1.4 9.7,-2.3 3.1,-0.9 6,-2.1 8.6,-4.1 0,0 0.1,-0.1 0.1,-0.1 0,-0.1 0,-0.2 0.1,-0.2 0,0 0,0 0,0 1.9,-2.1 3.7,-4.4 5.2,-6.9 1,-1.7 1.8,-3.4 2.5,-5.2 -1.3,1.6 -2.5,3.3 -3.9,4.8 z"
   id="path229"
   inkscape:connector-curvature="0"
   style="fill:#73751c" />
	<path
   class="st35"
   d="m 118.4,179 c 9.3,1.6 16.3,1.9 21.1,2.1 15,0.6 21.1,-1 22.9,-1.5 2.6,-0.7 4.7,-1.5 6.1,-2.1 2.9,-0.4 5.3,-0.9 7,-1.3 2,-0.5 3.1,-0.7 4.4,-1.4 3.1,-1.4 5.4,-3.7 5.2,-3.9 -0.2,-0.2 -2.1,1.6 -4.5,2.2 -6.4,1.6 -13.1,2 -19.7,2.3 -15.6,0.5 -13.3,0.4 -20.2,0 -7.9,-0.4 -12.5,-0.6 -18.6,-2.1 -4.6,-1.1 -8.3,-2.6 -10.8,-3.7 -0.8,1 -1.6,2 -2.5,2.9 -1.3,1.3 -2.8,2.5 -4.5,3.2 -0.1,0 -0.2,0.1 -0.3,0.1 3.9,1.1 8.7,2.2 14.4,3.2 z"
   id="path231"
   inkscape:connector-curvature="0"
   style="opacity:0.38999999;fill:#110b08" />
</g>
</svg>