<?xml version="1.0" encoding="UTF-8" standalone="no"?>
<svg
   xmlns:dc="http://purl.org/dc/elements/1.1/"
   xmlns:cc="http://creativecommons.org/ns#"
   xmlns:rdf="http://www.w3.org/1999/02/22-rdf-syntax-ns#"
   xmlns:svg="http://www.w3.org/2000/svg"
   xmlns="http://www.w3.org/2000/svg"
   xmlns:sodipodi="http://sodipodi.sourceforge.net/DTD/sodipodi-0.dtd"
   xmlns:inkscape="http://www.inkscape.org/namespaces/inkscape"
   viewBox="0 0 2500 1376"
   height="1376"
   width="2500"
   xml:space="preserve"
   id="svg2"
   version="1.1"
   sodipodi:docname="xbox360.svg"
   inkscape:version="0.92.4 (5da689c313, 2019-01-14)"><sodipodi:namedview
     pagecolor="#ffffff"
     bordercolor="#666666"
     borderopacity="1"
     objecttolerance="10"
     gridtolerance="10"
     guidetolerance="10"
     inkscape:pageopacity="0"
     inkscape:pageshadow="2"
     inkscape:window-width="2560"
     inkscape:window-height="1377"
     id="namedview125"
     showgrid="false"
     inkscape:zoom="0.5712"
     inkscape:cx="1590.2386"
     inkscape:cy="182.87746"
     inkscape:window-x="-8"
     inkscape:window-y="32"
     inkscape:window-maximized="1"
     inkscape:current-layer="svg2" /><metadata
     id="metadata8"><rdf:RDF><cc:Work
         rdf:about=""><dc:format>image/svg+xml</dc:format><dc:type
           rdf:resource="http://purl.org/dc/dcmitype/StillImage" /></cc:Work></rdf:RDF></metadata><defs
     id="defs6"><clipPath
       id="clipPath20"
       clipPathUnits="userSpaceOnUse"><path
         id="path18"
         d="m 6647.54,9591.6 c 562.34,168.28 1374.84,-46.48 2107.66,-535.74 l 8.86,-3398.4 c -267.89,53.13 -549.06,166.06 -810.31,314.38 -267.89,152.77 -533.55,352.03 -810.31,586.68 L 7847.5,8367.3 c -365.31,236.92 -1791.09,639.85 -1607.34,845.75 185.97,203.67 407.38,378.55 407.38,378.55 z" /></clipPath><radialGradient
       id="radialGradient52"
       spreadMethod="pad"
       gradientTransform="matrix(25.0794,0,0,23.9769,417.971,-750.153)"
       gradientUnits="userSpaceOnUse"
       r="96.351997"
       cy="327.50601"
       cx="268.89801"
       fy="327.50601"
       fx="268.89801"><stop
         id="stop22"
         offset="0"
         style="stop-opacity:1;stop-color:#ffffff" /><stop
         id="stop24"
         offset="0.011"
         style="stop-opacity:1;stop-color:#ffffff" /><stop
         id="stop26"
         offset="0.32"
         style="stop-opacity:1;stop-color:#fffffe" /><stop
         id="stop28"
         offset="0.431"
         style="stop-opacity:1;stop-color:#fdfdf9" /><stop
         id="stop30"
         offset="0.51"
         style="stop-opacity:1;stop-color:#fafbf1" /><stop
         id="stop32"
         offset="0.574"
         style="stop-opacity:1;stop-color:#f5f8e5" /><stop
         id="stop34"
         offset="0.629"
         style="stop-opacity:1;stop-color:#eff3d4" /><stop
         id="stop36"
         offset="0.678"
         style="stop-opacity:1;stop-color:#e8eebe" /><stop
         id="stop38"
         offset="0.722"
         style="stop-opacity:1;stop-color:#dfe7a2" /><stop
         id="stop40"
         offset="0.762"
         style="stop-opacity:1;stop-color:#d5e080" /><stop
         id="stop42"
         offset="0.798"
         style="stop-opacity:1;stop-color:#c9d756" /><stop
         id="stop44"
         offset="0.832"
         style="stop-opacity:1;stop-color:#bacf20" /><stop
         id="stop46"
         offset="0.891"
         style="stop-opacity:1;stop-color:#97c129" /><stop
         id="stop48"
         offset="0.962"
         style="stop-opacity:1;stop-color:#6bb42f" /><stop
         id="stop50"
         offset="1"
         style="stop-opacity:1;stop-color:#58ae31" /></radialGradient><clipPath
       id="clipPath62"
       clipPathUnits="userSpaceOnUse"><path
         id="path60"
         d="m 10825.2,9591.6 c -562.3,168.28 -1374.81,-46.48 -2107.62,-535.74 l -8.87,-3398.4 c 267.89,53.13 549.06,166.06 810.31,314.38 267.86,152.77 533.58,352.03 810.28,586.68 L 9625.27,8367.3 c 365.32,236.92 1791.03,639.85 1607.33,845.75 -186,203.67 -407.4,378.55 -407.4,378.55 z" /></clipPath><radialGradient
       id="radialGradient94"
       spreadMethod="pad"
       gradientTransform="matrix(-25.0794,0,0,23.9769,-12501,-750.153)"
       gradientUnits="userSpaceOnUse"
       r="96.351997"
       cy="327.50601"
       cx="-909.58899"
       fy="327.50601"
       fx="-909.58899"><stop
         id="stop64"
         offset="0"
         style="stop-opacity:1;stop-color:#ffffff" /><stop
         id="stop66"
         offset="0.011"
         style="stop-opacity:1;stop-color:#ffffff" /><stop
         id="stop68"
         offset="0.32"
         style="stop-opacity:1;stop-color:#fffffe" /><stop
         id="stop70"
         offset="0.431"
         style="stop-opacity:1;stop-color:#fdfdf9" /><stop
         id="stop72"
         offset="0.51"
         style="stop-opacity:1;stop-color:#fafbf1" /><stop
         id="stop74"
         offset="0.574"
         style="stop-opacity:1;stop-color:#f5f8e5" /><stop
         id="stop76"
         offset="0.629"
         style="stop-opacity:1;stop-color:#eff3d4" /><stop
         id="stop78"
         offset="0.678"
         style="stop-opacity:1;stop-color:#e8eebe" /><stop
         id="stop80"
         offset="0.722"
         style="stop-opacity:1;stop-color:#dfe7a2" /><stop
         id="stop82"
         offset="0.762"
         style="stop-opacity:1;stop-color:#d5e080" /><stop
         id="stop84"
         offset="0.798"
         style="stop-opacity:1;stop-color:#c9d756" /><stop
         id="stop86"
         offset="0.832"
         style="stop-opacity:1;stop-color:#bacf20" /><stop
         id="stop88"
         offset="0.891"
         style="stop-opacity:1;stop-color:#97c129" /><stop
         id="stop90"
         offset="0.962"
         style="stop-opacity:1;stop-color:#6bb42f" /><stop
         id="stop92"
         offset="1"
         style="stop-opacity:1;stop-color:#58ae31" /></radialGradient><clipPath
       id="clipPath104"
       clipPathUnits="userSpaceOnUse"><path
         id="path102"
         d="M 6645.31,4289.26 8558.16,6461.13 7847.5,8365.08 C 7548.59,8117.15 7254.14,7816.05 6979.61,7470.66 6306.6,6622.73 5719.88,5429.41 5923.59,5077.42 c 203.68,-352.03 721.72,-788.16 721.72,-788.16 z" /></clipPath><radialGradient
       id="radialGradient140"
       spreadMethod="pad"
       gradientTransform="matrix(-21.3844,15.5352,-19.6309,-24.7008,3363.17,19913.6)"
       gradientUnits="userSpaceOnUse"
       r="86.042"
       cy="262.327"
       cx="-485.358"
       fy="262.327"
       fx="-485.358"><stop
         id="stop106"
         offset="0"
         style="stop-opacity:1;stop-color:#ffffff" /><stop
         id="stop108"
         offset="0.011"
         style="stop-opacity:1;stop-color:#ffffff" /><stop
         id="stop110"
         offset="0.326"
         style="stop-opacity:1;stop-color:#fffffe" /><stop
         id="stop112"
         offset="0.44"
         style="stop-opacity:1;stop-color:#fdfdf9" /><stop
         id="stop114"
         offset="0.52"
         style="stop-opacity:1;stop-color:#fafbf1" /><stop
         id="stop116"
         offset="0.586"
         style="stop-opacity:1;stop-color:#f5f8e5" /><stop
         id="stop118"
         offset="0.642"
         style="stop-opacity:1;stop-color:#eff3d4" /><stop
         id="stop120"
         offset="0.692"
         style="stop-opacity:1;stop-color:#e8eebe" /><stop
         id="stop122"
         offset="0.737"
         style="stop-opacity:1;stop-color:#dfe7a2" /><stop
         id="stop124"
         offset="0.778"
         style="stop-opacity:1;stop-color:#d5e080" /><stop
         id="stop126"
         offset="0.815"
         style="stop-opacity:1;stop-color:#c9d756" /><stop
         id="stop128"
         offset="0.848"
         style="stop-opacity:1;stop-color:#bacf20" /><stop
         id="stop130"
         offset="0.855"
         style="stop-opacity:1;stop-color:#b4cc22" /><stop
         id="stop132"
         offset="0.896"
         style="stop-opacity:1;stop-color:#91bf2a" /><stop
         id="stop134"
         offset="0.935"
         style="stop-opacity:1;stop-color:#74b62e" /><stop
         id="stop136"
         offset="0.971"
         style="stop-opacity:1;stop-color:#5fb031" /><stop
         id="stop138"
         offset="1"
         style="stop-opacity:1;stop-color:#58ae31" /></radialGradient><clipPath
       id="clipPath150"
       clipPathUnits="userSpaceOnUse"><path
         id="path148"
         d="M 10829.6,4291.45 8916.84,6463.32 9627.5,8367.3 c 298.87,-247.96 593.3,-549.06 867.9,-894.41 673,-847.93 1259.7,-2041.25 1056,-2393.28 -203.7,-351.99 -721.8,-788.16 -721.8,-788.16 z" /></clipPath><radialGradient
       id="radialGradient186"
       spreadMethod="pad"
       gradientTransform="matrix(21.3844,15.5352,19.6309,-24.7008,-9117.95,19913.6)"
       gradientUnits="userSpaceOnUse"
       r="86.041"
       cy="695.37201"
       cx="203.369"
       fy="695.37201"
       fx="203.369"><stop
         id="stop152"
         offset="0"
         style="stop-opacity:1;stop-color:#ffffff" /><stop
         id="stop154"
         offset="0.011"
         style="stop-opacity:1;stop-color:#ffffff" /><stop
         id="stop156"
         offset="0.326"
         style="stop-opacity:1;stop-color:#fffffe" /><stop
         id="stop158"
         offset="0.44"
         style="stop-opacity:1;stop-color:#fdfdf9" /><stop
         id="stop160"
         offset="0.52"
         style="stop-opacity:1;stop-color:#fafbf1" /><stop
         id="stop162"
         offset="0.586"
         style="stop-opacity:1;stop-color:#f5f8e5" /><stop
         id="stop164"
         offset="0.642"
         style="stop-opacity:1;stop-color:#eff3d4" /><stop
         id="stop166"
         offset="0.692"
         style="stop-opacity:1;stop-color:#e8eebe" /><stop
         id="stop168"
         offset="0.737"
         style="stop-opacity:1;stop-color:#dfe7a2" /><stop
         id="stop170"
         offset="0.778"
         style="stop-opacity:1;stop-color:#d5e080" /><stop
         id="stop172"
         offset="0.815"
         style="stop-opacity:1;stop-color:#c9d756" /><stop
         id="stop174"
         offset="0.848"
         style="stop-opacity:1;stop-color:#bacf20" /><stop
         id="stop176"
         offset="0.855"
         style="stop-opacity:1;stop-color:#b4cc22" /><stop
         id="stop178"
         offset="0.896"
         style="stop-opacity:1;stop-color:#91bf2a" /><stop
         id="stop180"
         offset="0.935"
         style="stop-opacity:1;stop-color:#74b62e" /><stop
         id="stop182"
         offset="0.971"
         style="stop-opacity:1;stop-color:#5fb031" /><stop
         id="stop184"
         offset="1"
         style="stop-opacity:1;stop-color:#58ae31" /></radialGradient><clipPath
       id="clipPath196"
       clipPathUnits="userSpaceOnUse"><path
         id="path194"
         d="m 6100.7,4829.45 c -460.5,577.82 -737.26,1310.63 -737.26,2107.66 0,892.23 343.16,1702.5 907.73,2304.69 0,0 588.91,-261.21 1580.74,-874.5 C 5637.97,6073.67 6100.7,4829.45 6100.7,4829.45 Z m 2636.8,4190.98 c 0,2.19 -2.23,2.19 0,0 1348.3,976.33 2187.3,487.07 2187.3,487.07 -588.9,507 -1352.65,812.5 -2189.53,812.5 -836.87,0 -1600.66,-305.5 -2189.57,-812.5 0,0 839.07,502.5 2189.57,-484.88 M 6299.96,4608.05 c 613.24,-644.26 1476.68,-1047.19 2435.31,-1047.19 960.86,0 1826.53,402.93 2439.73,1051.64 0,0 -356.4,1474.45 -2450.78,3024.22 C 6846.8,6248.59 6299.96,4608.05 6299.96,4608.05 Z m 5074.34,221.4 c 460.5,577.82 737.2,1310.63 737.2,2107.66 0,892.23 -345.4,1702.5 -907.7,2304.69 0,0 -588.9,-261.21 -1580.75,-874.5 C 11837,6073.67 11374.3,4829.45 11374.3,4829.45 Z" /></clipPath><radialGradient
       id="radialGradient222"
       spreadMethod="pad"
       gradientTransform="matrix(23.802,0,0,23.8773,256.797,-735.651)"
       gradientUnits="userSpaceOnUse"
       r="250.826"
       cy="359.513"
       cx="343.52899"
       fy="359.513"
       fx="343.52899"><stop
         id="stop198"
         offset="0"
         style="stop-opacity:1;stop-color:#ffffff" /><stop
         id="stop200"
         offset="0.028"
         style="stop-opacity:1;stop-color:#ffffff" /><stop
         id="stop202"
         offset="0.105"
         style="stop-opacity:1;stop-color:#e3e2e3" /><stop
         id="stop204"
         offset="0.259"
         style="stop-opacity:1;stop-color:#b3b1b2" /><stop
         id="stop206"
         offset="0.377"
         style="stop-opacity:1;stop-color:#969696" /><stop
         id="stop208"
         offset="0.444"
         style="stop-opacity:1;stop-color:#8c8c8d" /><stop
         id="stop210"
         offset="0.518"
         style="stop-opacity:1;stop-color:#919191" /><stop
         id="stop212"
         offset="0.606"
         style="stop-opacity:1;stop-color:#9f9f9f" /><stop
         id="stop214"
         offset="0.7"
         style="stop-opacity:1;stop-color:#b8b7b7" /><stop
         id="stop216"
         offset="0.798"
         style="stop-opacity:1;stop-color:#dcdcdc" /><stop
         id="stop218"
         offset="0.809"
         style="stop-opacity:1;stop-color:#e1e1e1" /><stop
         id="stop220"
         offset="1"
         style="stop-opacity:1;stop-color:#e1e1e1" /></radialGradient></defs><g
     transform="matrix(1.3333333,0,0,-1.3180571,0,1360.2349)"
     id="g10"><g
       transform="scale(0.1)"
       id="g12"><g
         id="g14"><g
           clip-path="url(#clipPath20)"
           id="g16"><path
             id="path54"
             style="fill:url(#radialGradient52);fill-opacity:1;fill-rule:nonzero;stroke:none"
             d="m 6647.54,9591.6 c 562.34,168.28 1374.84,-46.48 2107.66,-535.74 l 8.86,-3398.4 c -267.89,53.13 -549.06,166.06 -810.31,314.38 -267.89,152.77 -533.55,352.03 -810.31,586.68 L 7847.5,8367.3 c -365.31,236.92 -1791.09,639.85 -1607.34,845.75 185.97,203.67 407.38,378.55 407.38,378.55 z"
             inkscape:connector-curvature="0" /></g></g><g
         id="g56"><g
           clip-path="url(#clipPath62)"
           id="g58"><path
             id="path96"
             style="fill:url(#radialGradient94);fill-opacity:1;fill-rule:nonzero;stroke:none"
             d="m 10825.2,9591.6 c -562.3,168.28 -1374.81,-46.48 -2107.62,-535.74 l -8.87,-3398.4 c 267.89,53.13 549.06,166.06 810.31,314.38 267.86,152.77 533.58,352.03 810.28,586.68 L 9625.27,8367.3 c 365.32,236.92 1791.03,639.85 1607.33,845.75 -186,203.67 -407.4,378.55 -407.4,378.55 z"
             inkscape:connector-curvature="0" /></g></g><g
         id="g98"><g
           clip-path="url(#clipPath104)"
           id="g100"><path
             id="path142"
             style="fill:url(#radialGradient140);fill-opacity:1;fill-rule:nonzero;stroke:none"
             d="M 6645.31,4289.26 8558.16,6461.13 7847.5,8365.08 C 7548.59,8117.15 7254.14,7816.05 6979.61,7470.66 6306.6,6622.73 5719.88,5429.41 5923.59,5077.42 c 203.68,-352.03 721.72,-788.16 721.72,-788.16 z"
             inkscape:connector-curvature="0" /></g></g><g
         id="g144"><g
           clip-path="url(#clipPath150)"
           id="g146"><path
             id="path188"
             style="fill:url(#radialGradient186);fill-opacity:1;fill-rule:nonzero;stroke:none"
             d="M 10829.6,4291.45 8916.84,6463.32 9627.5,8367.3 c 298.87,-247.96 593.3,-549.06 867.9,-894.41 673,-847.93 1259.7,-2041.25 1056,-2393.28 -203.7,-351.99 -721.8,-788.16 -721.8,-788.16 z"
             inkscape:connector-curvature="0" /></g></g><g
         id="g190"><g
           clip-path="url(#clipPath196)"
           id="g192"><path
             id="path224"
             style="fill:url(#radialGradient222);fill-opacity:1;fill-rule:nonzero;stroke:none"
             d="m 6100.7,4829.45 c -460.5,577.82 -737.26,1310.63 -737.26,2107.66 0,892.23 343.16,1702.5 907.73,2304.69 0,0 588.91,-261.21 1580.74,-874.5 C 5637.97,6073.67 6100.7,4829.45 6100.7,4829.45 Z m 2636.8,4190.98 c 0,2.19 -2.23,2.19 0,0 1348.3,976.33 2187.3,487.07 2187.3,487.07 -588.9,507 -1352.65,812.5 -2189.53,812.5 -836.87,0 -1600.66,-305.5 -2189.57,-812.5 0,0 839.07,502.5 2189.57,-484.88 M 6299.96,4608.05 c 613.24,-644.26 1476.68,-1047.19 2435.31,-1047.19 960.86,0 1826.53,402.93 2439.73,1051.64 0,0 -356.4,1474.45 -2450.78,3024.22 C 6846.8,6248.59 6299.96,4608.05 6299.96,4608.05 Z m 5074.34,221.4 c 460.5,577.82 737.2,1310.63 737.2,2107.66 0,892.23 -345.4,1702.5 -907.7,2304.69 0,0 -588.9,-261.21 -1580.75,-874.5 C 11837,6073.67 11374.3,4829.45 11374.3,4829.45 Z"
             inkscape:connector-curvature="0" /></g></g><g
         transform="scale(1.10408)"
         id="g226"><path
           id="path228"
           style="fill:#9da0a3;fill-opacity:1;fill-rule:nonzero;stroke:none"
           d="m 16030.2,494.089 h -157 v 96.443 h 426.8 v -96.443 h -157 V 70.5836 h -114.4 l 1.6,423.5054"
           inkscape:connector-curvature="0" /></g><g
         transform="scale(1.14993)"
         id="g230"><path
           id="path232"
           style="fill:#9da0a3;fill-opacity:1;fill-rule:nonzero;stroke:none"
           d="m 15761.5,566.985 h 157 l 116.2,-342.205 111.4,342.205 H 16300 V 69.3352 h -103.6 V 420.984 h -1.6 L 16072.4,67.7692 h -83.3 l -122.4,350.0928 h -1.6 V 67.7692 h -103.6 V 566.985"
           inkscape:connector-curvature="0" /></g><g
         transform="scale(1.06985)"
         id="g234"><path
           id="path236"
           style="fill:#9da0a3;fill-opacity:1;fill-rule:nonzero;stroke:none"
           d="m 15301.1,246.642 c -180.6,0 -332.4,59.073 -447.2,175.509 -256.5,254.781 -291.9,728.919 -291.9,988.779 0,349.27 70.9,1162.62 739.1,1162.62 668.2,0 742.4,-813.35 742.4,-1162.62 -1.7,-350.99 -74.2,-1164.288 -742.4,-1164.288 z m 0,2566.498 c -636.2,0 -1000.6,-511.28 -1000.6,-1403.88 0,-890.936 364.4,-1402.21319 1000.6,-1402.21319 361.1,0 631,156.92819 801.5,469.07319 163.7,296.984 197.4,671.6 197.4,934.81 0,420.14 -97.9,1402.21 -998.9,1402.21"
           inkscape:connector-curvature="0" /></g><path
         id="path238"
         style="fill:#9da0a3;fill-opacity:1;fill-rule:nonzero;stroke:none"
         d="m 14071.8,263.871 c -404.3,0 -722,324.961 -722,740.149 0,431.45 310.5,756.41 722,756.41 187.8,0 362.9,-72.23 492.9,-203.98 142.6,-142.62 223.8,-344.81 223.8,-552.43 0,-415.188 -315.9,-740.149 -716.7,-740.149 z m 0,1752.889 c -308.6,0 -593.9,-151.64 -767.2,-400.74 34.3,543.36 209.4,1135.46 799.7,1135.46 330.4,0 581.3,-214.8 635.5,-548.78 l 9,-52.35 h 274.4 l -5.4,68.6 c -54.2,485.62 -404.4,788.9 -915.3,788.9 -895.4,0 -1084.9,-890 -1084.9,-1637.34 0,-891.799 364.7,-1364.76781 1052.4,-1364.76781 566.9,0 992.9,429.64881 992.9,998.27781 1.8,586.72 -415.2,1012.74 -991.1,1012.74"
         inkscape:connector-curvature="0" /><path
         id="path240"
         style="fill:#9da0a3;fill-opacity:1;fill-rule:nonzero;stroke:none"
         d="m 12342.4,1612.38 c 241.9,111.92 395.4,352.03 395.4,637.27 0,200.39 -66.8,370.08 -196.8,501.83 -166.1,166.1 -442.3,261.76 -749.2,261.76 -507.2,0 -857.5,-301.44 -911.6,-788.86 l -7.2,-68.6 h 274.3 l 9.1,52.34 c 54.2,333.99 305.1,548.79 635.4,548.79 332.2,0 671.6,-173.32 671.6,-507.26 0,-142.62 -45.2,-258.17 -133.6,-341.21 -140.8,-137.19 -404.4,-171.49 -539.8,-171.49 -48.7,0 -120.9,-1.79 -193.1,-1.79 -1.8,-70.43 -1.8,-203.99 0,-270.78 h 193.1 c 256.4,-1.84 456.8,-55.98 581.3,-173.33 102.9,-95.66 155.3,-231.05 155.3,-400.737 0,-409.801 -370.1,-622.813 -734.8,-622.813 -238.2,0 -433.2,72.191 -565,209.41 -130,135.391 -195,328.52 -184.1,561.41 l 1.7,65 h -276.1 l -1.9,-59.57 C 10752,736.84 10835,478.711 11006.6,300 c 180.5,-187.77 453.1,-287.0703 787,-287.0703 613.8,0 1011,344.8003 1011,880.9803 -3.6,337.57 -178.7,604.76 -462.2,718.47"
         inkscape:connector-curvature="0" /><path
         id="path242"
         style="fill:#95c343;fill-opacity:1;fill-rule:nonzero;stroke:none"
         d="M 10085.9,77.9297 8982.89,1578.09 9988.4,2941.05 H 9611.09 L 8793.32,1829.02 7975.55,2942.85 H 7600.08 L 8603.79,1579.88 7504.38,79.7305 h 377.3 L 8793.32,1321.76 9708.59,79.7305 h 377.31"
         inkscape:connector-curvature="0" /><path
         id="path244"
         style="fill:#95c343;fill-opacity:1;fill-rule:nonzero;stroke:none"
         d="M 2581.48,77.9297 1482.11,1578.09 2485.82,2941.05 H 2110.31 L 1292.54,1829.02 474.77,2941.05 H 97.5 L 1103.01,1578.09 0,77.9297 H 377.301 L 1292.54,1319.96 2204.22,77.9297 h 377.26"
         inkscape:connector-curvature="0" /><path
         id="path246"
         style="fill:#95c343;fill-opacity:1;fill-rule:nonzero;stroke:none"
         d="M 3899.34,377.621 H 3058.09 V 1419.22 h 841.25 c 321.32,0 700.43,-86.64 700.43,-498.24 0,-472.968 -438.68,-543.359 -700.43,-543.359 z M 3059.88,2643.2 h 841.25 c 227.46,0 608.36,-57.77 608.36,-454.92 0,-301.48 -222.03,-480.19 -608.36,-480.19 H 3059.88 Z M 4673.75,1469.77 c -59.57,52.38 -122.73,90.27 -187.73,119.14 207.61,113.75 343,324.96 343,574.1 0,182.3 -66.79,779.84 -929.68,779.84 H 2738.55 V 1708.09 h -386.32 c -52.35,-65 -166.1,-222.07 -209.42,-287.04 h 597.54 V 79.7305 h 1160.78 c 631.84,0 1023.56,319.5315 1023.56,835.8595 -1.8,223.82 -88.44,415.19 -250.94,554.18"
         inkscape:connector-curvature="0" /><path
         id="path248"
         style="fill:#95c343;fill-opacity:1;fill-rule:nonzero;stroke:none"
         d="m 6433.87,318.051 c -613.79,0 -1043.4,491.012 -1043.4,1193.239 0,702.26 429.61,1193.28 1043.4,1193.28 611.99,0 1038.01,-491.02 1038.01,-1193.28 C 7473.71,809.063 7045.86,318.051 6433.87,318.051 Z m 0,2689.799 c -806.92,0 -1368.36,-615.58 -1368.36,-1496.56 0,-880.938 561.44,-1496.5205 1368.36,-1496.5205 801.52,0 1362.97,615.5825 1362.97,1496.5205 1.79,880.98 -561.45,1496.56 -1362.97,1496.56"
         inkscape:connector-curvature="0" /></g></g></svg>